<svg width="200" height="50" viewBox="0 0 210 50" xmlns="http://www.w3.org/2000/svg">
    <defs>
        <linearGradient x1="0%" y1="0%" x2="100%" y2="0%" id="a">
            <stop stop-color="#3023AE" offset="0%"/>
            <stop stop-color="#C86DD7" offset="100%"/>
        </linearGradient>
    </defs>
    <path stroke="url(#a)"
          stroke-width="3"
          stroke-linejoin="round"
          stroke-linecap="round"
          d="M5 40 C 5.25 38.52, 8.55 10.38, 10 10 S 14.47 35.95, 15 37.35 S 18.51 36.34, 20 36.47 S 23.51 38.11, 25 38.24 S 28.5 37.35, 30 37.35 S 33.52 37.98, 35 38.24 S 38.51 38.99, 40 39.12 S 43.5 39.12, 45 39.12 S 48.5 39.12, 50 39.12 S 53.5 39.12, 55 39.12 S 58.5 39.12, 60 39.12 S 63.5 39.12, 65 39.12 S 68.5 39.12, 70 39.12 S 73.5 39.12, 75 39.12 S 78.5 39.12, 80 39.12 S 83.5 39.12, 85 39.12 S 88.5 39.12, 90 39.12 S 93.5 39.12, 95 39.12 S 98.5 39.12, 100 39.12 S 103.5 39.12, 105 39.12 S 108.5 39.12, 110 39.12 S 114.5 40.53, 115 39.12 S 118.63 11.49, 120 10.88 S 124.49 33.3, 125 34.71 S 128.5 38.24, 130 38.24 S 133.55 35.09, 135 34.71 S 138.51 35.72, 140 35.59 S 143.51 33.69, 145 33.82 S 148.63 35.86, 150 36.47 S 153.59 38.74, 155 38.24 S 158.51 33.07, 160 32.94 S 163.55 36.97, 165 37.35 S 168.52 35.85, 170 35.59 S 173.51 35.46, 175 35.59 S 178.5 36.47, 180 36.47 S 183.51 35.72, 185 35.59 S 188.59 35.09, 190 35.59 S 193.51 39.25, 195 39.12 S 198.88 35.7, 200 34.71 S 203.88 31.28, 205 30.29"
          fill="none"/>
    <circle r="4" cx="5" cy="40" fill="#3023AE"/>
    <circle r="4" cx="205" cy="30.29" fill="#C86DD7"/>      
</svg>