<svg width="200" height="50" viewBox="0 0 210 50" xmlns="http://www.w3.org/2000/svg">
    <defs>
        <linearGradient x1="0%" y1="0%" x2="100%" y2="0%" id="a">
            <stop stop-color="#3023AE" offset="0%"/>
            <stop stop-color="#C86DD7" offset="100%"/>
        </linearGradient>
    </defs>
    <path stroke="url(#a)"
          stroke-width="3"
          stroke-linejoin="round"
          stroke-linecap="round"
          d="M5 40 C 5.25 38.52, 8.73 10.8, 10 10 S 14.46 32.28, 15 33.68 S 18.52 36.02, 20 35.79 S 23.5 32.11, 25 32.11 S 28.76 34.94, 30 35.79 S 33.57 38.5, 35 38.95 S 38.51 39.11, 40 38.95 S 43.5 37.89, 45 37.89 S 48.52 38.72, 50 38.95 S 53.5 39.39, 55 39.47 S 58.5 39.47, 60 39.47 S 63.5 39.47, 65 39.47 S 68.5 39.47, 70 39.47 S 73.5 39.47, 75 39.47 S 78.5 39.47, 80 39.47 S 83.5 39.47, 85 39.47 S 88.5 39.47, 90 39.47 S 93.5 39.47, 95 39.47 S 98.5 39.47, 100 39.47 S 103.5 39.47, 105 39.47 S 108.5 39.47, 110 39.47"
          fill="none"/>
    <circle r="4" cx="5" cy="40" fill="#3023AE"/>
    <circle r="4" cx="110" cy="39.47" fill="#C86DD7"/>      
</svg>