<svg width="200" height="50" viewBox="0 0 210 50" xmlns="http://www.w3.org/2000/svg">
    <defs>
        <linearGradient x1="0%" y1="0%" x2="100%" y2="0%" id="a">
            <stop stop-color="#3023AE" offset="0%"/>
            <stop stop-color="#C86DD7" offset="100%"/>
        </linearGradient>
    </defs>
    <path stroke="url(#a)"
          stroke-width="3"
          stroke-linejoin="round"
          stroke-linecap="round"
          d="M5 40 C 6.5 39.93, 8.5 39.86, 10 39.78 S 13.5 39.47, 15 39.48 S 18.5 39.84, 20 39.84 S 23.5 39.57, 25 39.51 S 28.5 39.43, 30 39.44 S 33.5 39.53, 35 39.6 S 38.5 39.85, 40 39.9 S 43.5 39.91, 45 39.91 S 48.5 39.9, 50 39.89 S 53.68 40.58, 55 39.87 S 58.61 35.06, 60 34.5 S 63.65 35.2, 65 35.85 S 68.59 38.77, 70 39.27 S 73.5 39.35, 75 39.38 S 78.5 39.48, 80 39.5 S 83.5 39.55, 85 39.53 S 88.5 39.42, 90 39.34 S 93.5 38.95, 95 39.01 S 98.51 39.89, 100 39.74 S 103.51 38.13, 105 38 S 108.5 38.85, 110 38.9 S 113.5 38.37, 115 38.33 S 118.51 38.41, 120 38.6 S 123.51 39.44, 125 39.61 S 128.5 39.72, 130 39.73 S 133.5 39.67, 135 39.67 S 138.5 39.74, 140 39.76 S 143.5 39.78, 145 39.79 S 148.5 39.85, 150 39.86 S 153.5 39.86, 155 39.85 S 158.5 39.79, 160 39.79 S 163.5 39.84, 165 39.86 S 168.5 39.93, 170 39.94 S 173.5 39.93, 175 39.92 S 178.5 39.87, 180 39.84 S 183.5 39.74, 185 39.73 S 188.5 39.87, 190 39.79 S 193.84 40.16, 195 39.21 S 199.51 32.98, 200 31.56 S 204.66 11.46, 205 10"
          fill="none"/>
    <circle r="4" cx="5" cy="40" fill="#3023AE"/>
    <circle r="4" cx="205" cy="10" fill="#C86DD7"/>      
</svg>