<svg width="200" height="50" viewBox="0 0 210 50" xmlns="http://www.w3.org/2000/svg">
    <defs>
        <linearGradient x1="0%" y1="0%" x2="100%" y2="0%" id="a">
            <stop stop-color="#3023AE" offset="0%"/>
            <stop stop-color="#C86DD7" offset="100%"/>
        </linearGradient>
    </defs>
    <path stroke="url(#a)"
          stroke-width="3"
          stroke-linejoin="round"
          stroke-linecap="round"
          d="M5 40 C 5.36 38.54, 8.53 19.96, 10 19.66 S 14.21 36.69, 15 37.97 S 18.5 36.01, 20 35.93 S 23.59 36.96, 25 37.46 S 28.66 40.17, 30 39.49 S 33.53 32.67, 35 32.37 S 38.5 37.54, 40 37.46 S 43.59 32.36, 45 31.86 S 48.66 33.22, 50 33.9 S 53.57 36.51, 55 36.95 S 58.52 36.72, 60 36.95 S 63.5 38.47, 65 38.47 S 68.51 36.8, 70 36.95 S 73.53 39.19, 75 39.49 S 78.5 38.98, 80 38.98 S 83.5 39.41, 85 39.49 S 88.55 39.86, 90 39.49 S 94.52 38.37, 95 36.95 S 99.03 11.14, 100 10 S 104.35 23.9, 105 25.25 S 108.69 30.12, 110 30.85 S 113.5 30.85, 115 30.85 S 118.52 30.62, 120 30.85 S 123.5 32.37, 125 32.37 S 128.72 31.63, 130 30.85 S 133.59 26.77, 135 26.27 S 138.5 27.21, 140 27.29 S 143.61 27.35, 145 26.78 S 148.53 22.92, 150 23.22 S 153.5 28.73, 155 28.81 S 158.72 24.51, 160 23.73 S 163.52 22.48, 165 22.71 S 168.64 25.87, 170 25.25 S 173.86 19.12, 175 18.14 S 178.57 16.17, 180 16.61 S 183.55 20.82, 185 21.19 S 188.72 18.37, 190 19.15 S 194.05 26.13, 195 27.29 S 198.64 30.74, 200 31.36 S 203.51 31.71, 205 31.86"
          fill="none"/>
    <circle r="4" cx="5" cy="40" fill="#3023AE"/>
    <circle r="4" cx="205" cy="31.86" fill="#C86DD7"/>      
</svg>