<svg width="200" height="50" viewBox="0 0 210 50" xmlns="http://www.w3.org/2000/svg">
    <defs>
        <linearGradient x1="0%" y1="0%" x2="100%" y2="0%" id="a">
            <stop stop-color="#3023AE" offset="0%"/>
            <stop stop-color="#C86DD7" offset="100%"/>
        </linearGradient>
    </defs>
    <path stroke="url(#a)"
          stroke-width="3"
          stroke-linejoin="round"
          stroke-linecap="round"
          d="M5 40 C 6.5 39.96, 8.5 39.9, 10 39.88 S 13.5 39.9, 15 39.88 S 18.5 39.77, 20 39.77 S 23.5 39.92, 25 39.88 S 28.5 39.53, 30 39.53 S 33.5 39.83, 35 39.88 S 38.5 39.88, 40 39.88 S 43.5 39.88, 45 39.88 S 48.5 39.88, 50 39.88 S 53.5 39.88, 55 39.88 S 58.5 39.88, 60 39.88 S 63.5 39.88, 65 39.88 S 68.5 39.88, 70 39.88 S 73.5 39.88, 75 39.88 S 78.5 39.88, 80 39.88 S 83.5 39.88, 85 39.88 S 88.5 39.88, 90 39.88 S 93.5 39.88, 95 39.88 S 98.5 39.88, 100 39.88 S 103.5 39.88, 105 39.88 S 108.5 39.9, 110 39.88 S 113.5 39.77, 115 39.77 S 118.5 39.86, 120 39.88 S 123.5 39.9, 125 39.88 S 128.5 39.84, 130 39.77 S 133.51 39.6, 135 39.41 S 138.5 38.51, 140 38.48 S 143.51 39.01, 145 39.18 S 148.5 39.56, 150 39.65 S 153.5 39.74, 155 39.77 S 158.5 39.86, 160 39.88 S 163.5 39.88, 165 39.88 S 168.5 39.91, 170 39.88 S 173.5 39.67, 175 39.65 S 178.5 39.74, 180 39.77 S 183.5 39.9, 185 39.88 S 188.5 39.7, 190 39.65 S 193.5 39.55, 195 39.53 S 199.52 40.95, 200 39.53 S 204.75 11.48, 205 10"
          fill="none"/>
    <circle r="4" cx="5" cy="40" fill="#3023AE"/>
    <circle r="4" cx="205" cy="10" fill="#C86DD7"/>      
</svg>