<svg width="200" height="50" viewBox="0 0 210 50" xmlns="http://www.w3.org/2000/svg">
    <defs>
        <linearGradient x1="0%" y1="0%" x2="100%" y2="0%" id="a">
            <stop stop-color="#3023AE" offset="0%"/>
            <stop stop-color="#C86DD7" offset="100%"/>
        </linearGradient>
    </defs>
    <path stroke="url(#a)"
          stroke-width="3"
          stroke-linejoin="round"
          stroke-linecap="round"
          d="M5 40 C 5.25 38.52, 8.55 10.38, 10 10 S 14.52 35.94, 15 37.36 S 18.55 39.42, 20 39.79 S 23.5 39.92, 25 39.93 S 28.57 40.32, 30 39.86 S 33.61 37.29, 35 36.74 S 38.52 36.13, 40 35.9 S 43.52 35.47, 45 35.21 S 48.5 34.12, 50 34.17 S 53.51 35.44, 55 35.56 S 58.51 35.21, 60 35 S 63.55 34.55, 65 34.17 S 68.5 32.44, 70 32.36 S 73.51 33.44, 75 33.61 S 78.5 33.48, 80 33.47 S 83.5 33.48, 85 33.54 S 88.5 33.88, 90 33.89 S 93.53 33.89, 95 33.61 S 98.52 32.24, 100 32.01 S 103.5 32.08, 105 32.08 S 108.53 32.31, 110 32.01 S 113.51 30.25, 115 30.07 S 118.54 31.19, 120 30.83 S 123.52 27.79, 125 27.57 S 128.5 29.37, 130 29.37 S 133.53 27.87, 135 27.57 S 138.51 27.48, 140 27.36 S 143.52 26.96, 145 26.74 S 148.5 25.92, 150 25.9 S 153.5 26.7, 155 26.6 S 158.53 24.89, 160 25.21 S 163.54 28.4, 165 28.75 S 168.52 27.9, 170 27.64 S 173.59 27.53, 175 27.01 S 178.6 24.5, 180 23.96 S 183.51 23.06, 185 23.19 S 188.51 24.7, 190 24.86 S 193.51 24.45, 195 24.24 S 198.52 23.74, 200 23.47 S 203.53 22.74, 205 22.43"
          fill="none"/>
    <circle r="4" cx="5" cy="40" fill="#3023AE"/>
    <circle r="4" cx="205" cy="22.43" fill="#C86DD7"/>      
</svg>