<svg width="200" height="50" viewBox="0 0 210 50" xmlns="http://www.w3.org/2000/svg">
    <defs>
        <linearGradient x1="0%" y1="0%" x2="100%" y2="0%" id="a">
            <stop stop-color="#3023AE" offset="0%"/>
            <stop stop-color="#C86DD7" offset="100%"/>
        </linearGradient>
    </defs>
    <path stroke="url(#a)"
          stroke-width="3"
          stroke-linejoin="round"
          stroke-linecap="round"
          d="M5 40 C 6.5 39.91, 8.5 39.74, 10 39.69 S 13.5 39.69, 15 39.69 S 18.6 40.22, 20 39.69 S 23.54 36.3, 25 35.94 S 28.52 36.96, 30 37.19 S 33.89 38.51, 35 37.5 S 38.57 28.57, 40 28.12 S 43.94 33.31, 45 34.37 S 48.6 37.59, 50 38.12 S 53.54 38.48, 55 38.12 S 58.56 36.03, 60 35.62 S 63.53 35.59, 65 35.31 S 68.5 33.7, 70 33.75 S 73.5 35.53, 75 35.62 S 78.53 34.65, 80 34.37 S 83.5 33.7, 85 33.75 S 88.51 34.88, 90 34.69 S 93.96 33.58, 95 32.5 S 98.6 24.9, 100 24.37 S 103.61 29.31, 105 28.75 S 108.5 20.36, 110 20.31 S 113.99 27.33, 115 28.44 S 118.51 31.39, 120 31.25 S 123.6 28.03, 125 27.5 S 128.5 27.5, 130 27.5 S 133.66 26.83, 135 27.5 S 139.26 33.8, 140 32.5 S 143.89 11.01, 145 10 S 149.28 22.13, 150 23.44 S 153.75 27.3, 155 28.12 S 158.5 30, 160 30 S 163.64 28.76, 165 28.12 S 168.58 25.8, 170 25.31 S 173.73 23.9, 175 24.69 S 178.52 31.33, 180 31.56 S 183.53 26.53, 185 26.25 S 188.61 30.25, 190 29.69 S 193.64 22.83, 195 22.19 S 198.82 24.08, 200 25 S 203.94 28.94, 205 30"
          fill="none"/>
    <circle r="4" cx="5" cy="40" fill="#3023AE"/>
    <circle r="4" cx="205" cy="30" fill="#C86DD7"/>      
</svg>