<svg width="200" height="50" viewBox="0 0 210 50" xmlns="http://www.w3.org/2000/svg">
    <defs>
        <linearGradient x1="0%" y1="0%" x2="100%" y2="0%" id="a">
            <stop stop-color="#3023AE" offset="0%"/>
            <stop stop-color="#C86DD7" offset="100%"/>
        </linearGradient>
    </defs>
    <path stroke="url(#a)"
          stroke-width="3"
          stroke-linejoin="round"
          stroke-linecap="round"
          d="M5 40 C 5.79 38.72, 9.17 33.12, 10 31.87 S 13.79 24.12, 15 25 S 19.13 37.93, 20 39.15 S 23.5 39.12, 25 39.15 S 28.5 39.26, 30 39.37 S 33.51 40.08, 35 39.89 S 38.6 38.65, 40 38.1 S 43.53 36.27, 45 35.99 S 48.5 36.31, 50 36.2 S 53.57 35.7, 55 35.25 S 58.61 33.6, 60 33.03 S 63.57 31.6, 65 31.13 S 68.58 30.23, 70 29.75 S 73.5 27.86, 75 27.75 S 78.5 29.03, 80 29.01 S 83.5 27.7, 85 27.64 S 88.61 29.16, 90 28.59 S 93.59 24.04, 95 23.52 S 98.54 25.23, 100 24.89 S 103.69 21.93, 105 21.2 S 108.51 19.13, 110 19.3 S 113.52 22.1, 115 22.36 S 118.5 21.18, 120 21.09 S 123.5 21.81, 125 21.73 S 128.53 20.84, 130 20.56 S 133.52 20.07, 135 19.82 S 138.55 18.49, 140 18.87 S 143.5 22.4, 145 22.46 S 148.55 18.9, 150 19.3 S 153.6 24.68, 155 25.21 S 158.54 23.43, 160 23.1 S 163.59 23.5, 165 22.99 S 169.08 20.7, 170 19.51 S 173.5 9.91, 175 10 S 178.63 19.53, 180 20.14 S 183.56 14.87, 185 14.44 S 188.64 16.55, 190 17.18 S 193.52 18.83, 195 19.08 S 198.75 19.7, 200 18.87 S 204.08 13.61, 205 12.43"
          fill="none"/>
    <circle r="4" cx="5" cy="40" fill="#3023AE"/>
    <circle r="4" cx="205" cy="12.43" fill="#C86DD7"/>      
</svg>