<svg width="200" height="50" viewBox="0 0 210 50" xmlns="http://www.w3.org/2000/svg">
    <defs>
        <linearGradient x1="0%" y1="0%" x2="100%" y2="0%" id="a">
            <stop stop-color="#3023AE" offset="0%"/>
            <stop stop-color="#C86DD7" offset="100%"/>
        </linearGradient>
    </defs>
    <path stroke="url(#a)"
          stroke-width="3"
          stroke-linejoin="round"
          stroke-linecap="round"
          d="M5 40 C 6.5 39.99, 8.5 39.99, 10 39.98 S 13.5 39.96, 15 39.96 S 18.5 39.98, 20 39.98 S 23.77 40.84, 25 39.98 S 29.27 34.28, 30 32.97 S 33.53 21.61, 35 21.89 S 39.03 36.05, 40 34.9 S 43.83 10.94, 45 10 S 48.57 26.42, 50 26.86 S 53.5 13.18, 55 13.08 S 58.51 26.02, 60 26.2 S 64 13.15, 65 14.27 S 69.1 36.16, 70 37.36 S 73.9 28.63, 75 27.61 S 78.5 28.27, 80 28.15 S 83.53 26.51, 85 26.8 S 88.55 29.74, 90 30.13 S 93.53 29.8, 95 29.5 S 98.56 28.5, 100 28.07 S 103.5 26.53, 105 26.52 S 108.53 27.69, 110 27.97 S 113.5 28.32, 115 28.39 S 118.52 28.69, 120 28.44 S 123.51 26.86, 125 26.68 S 128.51 27.06, 130 27.23 S 133.52 27.61, 135 27.83 S 138.5 28.66, 140 28.72 S 143.5 28.31, 145 28.21 S 148.5 27.99, 150 28.03 S 153.52 28.26, 155 28.48 S 158.51 29.33, 160 29.52 S 163.51 29.95, 165 29.79 S 168.51 28.29, 170 28.48 S 173.51 31.22, 175 31.07 S 178.51 27.64, 180 27.47 S 183.54 29.55, 185 29.91 S 188.52 30.22, 190 29.97 S 193.5 28.32, 195 28.25 S 198.54 29.14, 200 29.5 S 203.54 30.34, 205 30.69"
          fill="none"/>
    <circle r="4" cx="5" cy="40" fill="#3023AE"/>
    <circle r="4" cx="205" cy="30.689999999999998" fill="#C86DD7"/>      
</svg>