<svg width="200" height="50" viewBox="0 0 210 50" xmlns="http://www.w3.org/2000/svg">
    <defs>
        <linearGradient x1="0%" y1="0%" x2="100%" y2="0%" id="a">
            <stop stop-color="#3023AE" offset="0%"/>
            <stop stop-color="#C86DD7" offset="100%"/>
        </linearGradient>
    </defs>
    <path stroke="url(#a)"
          stroke-width="3"
          stroke-linejoin="round"
          stroke-linecap="round"
          d="M5 40 C 6.5 39.96, 9.46 41.26, 10 39.86 S 14.04 15.26, 15 14.1 S 18.67 27.1, 20 27.79 S 23.62 19.86, 25 19.27 S 28.79 22.65, 30 23.53 S 34.11 27.74, 35 26.53 S 38.52 10.26, 40 10 S 44.17 23.51, 45 24.76 S 48.66 24.47, 50 25.15 S 53.59 29.32, 55 29.84 S 58.51 29.04, 60 28.88 S 63.52 28.52, 65 28.77 S 68.53 30.29, 70 30.57 S 73.51 30.85, 75 30.65 S 78.54 29.59, 80 29.24 S 83.5 28.28, 85 28.22 S 88.5 28.75, 90 28.85 S 93.5 28.99, 95 28.87 S 98.5 27.96, 100 28.05 S 103.52 29.21, 105 29.44 S 108.51 29.79, 110 29.63 S 113.5 28.44, 115 28.38 S 118.51 29.09, 120 29.25 S 123.5 29.42, 125 29.43 S 128.5 29.22, 130 29.31 S 133.5 29.95, 135 30 S 138.5 29.75, 140 29.66 S 143.5 29.45, 145 29.43 S 148.5 29.41, 150 29.51 S 153.51 30, 155 30.13 S 158.5 30.34, 160 30.37 S 163.5 30.38, 165 30.36 S 168.5 30.2, 170 30.22 S 173.5 30.47, 175 30.49 S 178.5 30.29, 180 30.37 S 183.51 30.86, 185 31.03 S 188.51 31.32, 190 31.48 S 193.5 32.08, 195 32.11 S 198.5 31.69, 200 31.69 S 203.5 31.96, 205 32.08"
          fill="none"/>
    <circle r="4" cx="5" cy="40" fill="#3023AE"/>
    <circle r="4" cx="205" cy="32.08" fill="#C86DD7"/>      
</svg>