<svg width="200" height="50" viewBox="0 0 210 50" xmlns="http://www.w3.org/2000/svg">
    <defs>
        <linearGradient x1="0%" y1="0%" x2="100%" y2="0%" id="a">
            <stop stop-color="#3023AE" offset="0%"/>
            <stop stop-color="#C86DD7" offset="100%"/>
        </linearGradient>
    </defs>
    <path stroke="url(#a)"
          stroke-width="3"
          stroke-linejoin="round"
          stroke-linecap="round"
          d="M5 40 C 6.5 39.97, 8.5 39.92, 10 39.91 S 13.5 39.91, 15 39.91 S 18.5 39.91, 20 39.91 S 23.5 39.91, 25 39.91 S 28.5 39.91, 30 39.91 S 33.5 39.91, 35 39.91 S 38.5 39.91, 40 39.91 S 43.5 39.91, 45 39.91 S 48.5 39.91, 50 39.91 S 54.52 41.33, 55 39.91 S 58.51 10.19, 60 10 S 64.52 37.18, 65 38.6 S 68.51 39.11, 70 39.3 S 73.5 39.82, 75 39.91 S 78.5 39.91, 80 39.91 S 83.5 39.91, 85 39.91 S 88.5 39.91, 90 39.91 S 93.5 39.91, 95 39.91 S 98.5 39.91, 100 39.91 S 103.5 39.91, 105 39.91 S 108.5 39.91, 110 39.91 S 113.5 39.91, 115 39.91 S 118.5 39.91, 120 39.91 S 123.5 39.91, 125 39.91 S 128.5 39.91, 130 39.91 S 133.5 39.91, 135 39.91 S 138.5 39.91, 140 39.91 S 143.5 39.91, 145 39.91 S 148.5 39.91, 150 39.91 S 153.5 39.91, 155 39.91 S 158.5 39.91, 160 39.91 S 163.5 39.91, 165 39.91 S 168.5 39.91, 170 39.91 S 173.5 39.91, 175 39.91 S 178.5 39.91, 180 39.91"
          fill="none"/>
    <circle r="4" cx="5" cy="40" fill="#3023AE"/>
    <circle r="4" cx="180" cy="39.91" fill="#C86DD7"/>      
</svg>