<svg width="200" height="50" viewBox="0 0 210 50" xmlns="http://www.w3.org/2000/svg">
    <defs>
        <linearGradient x1="0%" y1="0%" x2="100%" y2="0%" id="a">
            <stop stop-color="#3023AE" offset="0%"/>
            <stop stop-color="#C86DD7" offset="100%"/>
        </linearGradient>
    </defs>
    <path stroke="url(#a)"
          stroke-width="3"
          stroke-linejoin="round"
          stroke-linecap="round"
          d="M5 40 C 5.25 38.52, 8.89 11.01, 10 10 S 14.35 29.57, 15 30.92 S 18.5 30.98, 20 30.92 S 23.51 30.71, 25 30.53 S 28.53 29.45, 30 29.74 S 33.62 31.9, 35 32.5 S 38.54 33.73, 40 34.08 S 43.5 34.99, 45 34.87 S 48.5 33.35, 50 33.29 S 53.51 34.65, 55 34.47 S 58.5 31.99, 60 32.11 S 63.5 35.14, 65 35.26 S 68.5 32.83, 70 32.89 S 73.59 35.16, 75 35.66 S 78.55 36.05, 80 36.45 S 83.53 38.13, 85 38.42 S 88.5 38.3, 90 38.42 S 93.64 39.85, 95 39.21 S 98.64 34.32, 100 33.68 S 103.52 34.24, 105 34.47 S 108.52 35.49, 110 35.26 S 113.64 33.53, 115 32.89 S 118.51 30.35, 120 30.53 S 123.73 33.28, 125 34.08 S 128.51 37.02, 130 36.84 S 133.59 33.39, 135 32.89 S 138.6 32.74, 140 33.29 S 143.5 36.84, 145 36.84 S 148.57 33.74, 150 33.29 S 153.6 33.13, 155 33.68 S 158.64 36.6, 160 37.24 S 163.8 39.32, 165 38.42 S 168.64 30.38, 170 29.74 S 173.8 32.78, 175 33.68 S 178.55 36.84, 180 37.24 S 183.5 36.33, 185 36.45 S 188.5 37.91, 190 38.03 S 193.51 37.06, 195 37.24 S 198.5 39.09, 200 39.21 S 203.54 38.37, 205 38.03"
          fill="none"/>
    <circle r="4" cx="5" cy="40" fill="#3023AE"/>
    <circle r="4" cx="205" cy="38.03" fill="#C86DD7"/>      
</svg>