<svg width="200" height="50" viewBox="0 0 210 50" xmlns="http://www.w3.org/2000/svg">
    <defs>
        <linearGradient x1="0%" y1="0%" x2="100%" y2="0%" id="a">
            <stop stop-color="#3023AE" offset="0%"/>
            <stop stop-color="#C86DD7" offset="100%"/>
        </linearGradient>
    </defs>
    <path stroke="url(#a)"
          stroke-width="3"
          stroke-linejoin="round"
          stroke-linecap="round"
          d="M5 40 C 6.12 39, 8.59 36.05, 10 35.53 S 13.52 36.07, 15 36.32 S 18.52 37.01, 20 37.25 S 23.85 38.91, 25 37.94 S 28.87 29.8, 30 28.81 S 33.56 28.79, 35 29.2 S 39.31 32.98, 40 31.65 S 43.51 10.21, 45 10 S 49.41 28.85, 50 30.23 S 53.53 32.97, 55 33.27 S 58.79 33.13, 60 32.24 S 63.85 26.87, 65 25.91 S 68.56 24.35, 70 23.94 S 74.03 24.2, 75 23.06 S 78.53 12.48, 80 12.16 S 83.67 20.2, 85 20.9 S 88.54 17.09, 90 17.41 S 93.6 22.57, 95 23.11 S 98.59 21.75, 100 21.24 S 103.56 19.08, 105 19.48 S 108.56 23.6, 110 24.04 S 113.78 23.39, 115 22.52 S 118.5 16.96, 120 16.97 S 123.72 21.84, 125 22.62 S 128.5 23.05, 130 23.11 S 133.51 22.82, 135 23.01 S 138.51 24.22, 140 24.39 S 143.56 24.56, 145 24.14 S 148.51 21.63, 150 21.44 S 153.55 22.48, 155 22.86 S 158.67 23.35, 160 24.04 S 163.51 27.89, 165 28.07 S 168.5 25.32, 170 25.27 S 173.51 27.53, 175 27.73 S 178.5 26.68, 180 26.6 S 183.51 26.97, 185 27.18 S 188.51 28.22, 190 28.02 S 193.52 26.1, 195 25.86 S 198.52 26.14, 200 26.4 S 203.54 27.27, 205 27.63"
          fill="none"/>
    <circle r="4" cx="5" cy="40" fill="#3023AE"/>
    <circle r="4" cx="205" cy="27.630000000000003" fill="#C86DD7"/>      
</svg>