<svg width="200" height="50" viewBox="0 0 210 50" xmlns="http://www.w3.org/2000/svg">
    <defs>
        <linearGradient x1="0%" y1="0%" x2="100%" y2="0%" id="a">
            <stop stop-color="#3023AE" offset="0%"/>
            <stop stop-color="#C86DD7" offset="100%"/>
        </linearGradient>
    </defs>
    <path stroke="url(#a)"
          stroke-width="3"
          stroke-linejoin="round"
          stroke-linecap="round"
          d="M5 40 C 6.18 39.07, 8.58 36.51, 10 36.04 S 13.51 36.46, 15 36.67 S 18.52 37.18, 20 37.42 S 23.77 39.17, 25 38.31 S 28.8 31.3, 30 30.4 S 33.51 30.65, 35 30.84 S 38.6 31.15, 40 31.69 S 44.37 36.03, 45 34.67 S 48.51 10.19, 50 10 S 54.42 32.03, 55 33.42 S 58.7 34.84, 60 34.09 S 63.81 28.6, 65 27.69 S 68.55 26.79, 70 26.4 S 73.5 24.98, 75 25.02 S 79.08 27.86, 80 26.67 S 83.74 12.86, 85 12.04 S 89.04 18.98, 90 20.13 S 93.58 23.57, 95 24.04 S 98.52 23.64, 100 23.42 S 103.54 22.25, 105 22.58 S 108.51 25.48, 110 25.69 S 113.72 24.75, 115 23.96 S 118.5 19.52, 120 19.51 S 123.68 23.16, 125 23.87 S 128.51 24.69, 130 24.84 S 133.51 24.72, 135 24.89 S 138.52 25.73, 140 25.96 S 143.51 26.61, 145 26.44 S 148.57 25.29, 150 24.84 S 153.51 23.12, 155 23.29 S 158.58 25.52, 160 26 S 163.58 26.19, 165 26.67 S 168.5 29.33, 170 29.38 S 173.5 27, 175 27.02 S 178.51 29.36, 180 29.51 S 183.52 28.22, 185 28 S 188.52 27.73, 190 28 S 193.5 29.91, 195 29.82 S 198.55 27.79, 200 27.42 S 203.5 27.33, 205 27.29"
          fill="none"/>
    <circle r="4" cx="5" cy="40" fill="#3023AE"/>
    <circle r="4" cx="205" cy="27.29" fill="#C86DD7"/>      
</svg>