<svg width="200" height="50" viewBox="0 0 210 50" xmlns="http://www.w3.org/2000/svg">
    <defs>
        <linearGradient x1="0%" y1="0%" x2="100%" y2="0%" id="a">
            <stop stop-color="#3023AE" offset="0%"/>
            <stop stop-color="#C86DD7" offset="100%"/>
        </linearGradient>
    </defs>
    <path stroke="url(#a)"
          stroke-width="3"
          stroke-linejoin="round"
          stroke-linecap="round"
          d="M5 40 C 6.16 39.05, 8.59 36.38, 10 35.88 S 13.52 36.19, 15 36.45 S 18.6 38.16, 20 37.63 S 23.81 33.59, 25 32.68 S 28.51 30.14, 30 29.96 S 33.59 30.98, 35 31.49 S 39.37 34.96, 40 33.6 S 43.5 10.07, 45 10 S 49.39 31.74, 50 33.11 S 53.75 33.29, 55 32.46 S 58.92 27.53, 60 26.49 S 63.51 23.02, 65 22.85 S 69.02 26.48, 70 25.35 S 73.59 11.82, 75 11.32 S 78.86 20.82, 80 21.8 S 83.5 20.01, 85 19.91 S 88.53 20.85, 90 21.14 S 93.53 21.59, 95 21.89 S 98.51 22.97, 100 23.16 S 103.65 23.86, 105 23.2 S 108.5 18.34, 110 18.25 S 113.68 21.87, 115 22.59 S 118.52 23.5, 120 23.73 S 123.51 23.98, 125 24.17 S 128.5 25.01, 130 25 S 133.61 24.65, 135 24.08 S 138.5 20.89, 140 20.92 S 143.8 23.35, 145 24.25 S 148.53 28.11, 150 28.38 S 153.5 26.12, 155 26.1 S 158.52 28.04, 160 28.25 S 163.51 27.7, 165 27.54 S 168.5 27.11, 170 27.19 S 173.51 28.24, 175 28.07 S 178.5 26.13, 180 26.05 S 183.55 27.17, 185 27.54 S 188.5 28.56, 190 28.6 S 193.51 27.69, 195 27.81 S 198.5 29.34, 200 29.43 S 203.53 28.69, 205 28.38"
          fill="none"/>
    <circle r="4" cx="5" cy="40" fill="#3023AE"/>
    <circle r="4" cx="205" cy="28.380000000000003" fill="#C86DD7"/>      
</svg>