<svg width="200" height="50" viewBox="0 0 210 50" xmlns="http://www.w3.org/2000/svg">
    <defs>
        <linearGradient x1="0%" y1="0%" x2="100%" y2="0%" id="a">
            <stop stop-color="#3023AE" offset="0%"/>
            <stop stop-color="#C86DD7" offset="100%"/>
        </linearGradient>
    </defs>
    <path stroke="url(#a)"
          stroke-width="3"
          stroke-linejoin="round"
          stroke-linecap="round"
          d="M5 40 C 5.25 38.52, 8.8 10.9, 10 10 S 14.39 31.13, 15 32.5 S 18.5 32.5, 20 32.5 S 23.8 33.4, 25 32.5 S 28.5 25, 30 25 S 34.17 33.75, 35 32.5 S 38.5 10, 40 10 S 44.39 31.13, 45 32.5 S 48.8 33.4, 50 32.5 S 53.8 25.9, 55 25 S 58.8 24.1, 60 25 S 63.8 33.4, 65 32.5 S 68.5 17.5, 70 17.5 S 73.8 31.6, 75 32.5 S 78.8 25.9, 80 25 S 83.8 24.1, 85 25 S 88.8 31.6, 90 32.5 S 93.5 32.5, 95 32.5 S 98.5 32.5, 100 32.5 S 103.5 32.5, 105 32.5 S 108.5 32.5, 110 32.5 S 113.5 32.5, 115 32.5 S 118.8 33.4, 120 32.5 S 123.5 25, 125 25 S 128.8 31.6, 130 32.5 S 134.17 33.75, 135 32.5 S 138.5 17.5, 140 17.5 S 144.17 31.25, 145 32.5 S 148.5 32.5, 150 32.5 S 153.5 32.5, 155 32.5 S 158.8 33.4, 160 32.5 S 164.39 26.37, 165 25 S 168.5 10, 170 10 S 174.17 23.75, 175 25 S 178.8 24.1, 180 25 S 184.17 31.25, 185 32.5"
          fill="none"/>
    <circle r="4" cx="5" cy="40" fill="#3023AE"/>
    <circle r="4" cx="185" cy="32.5" fill="#C86DD7"/>      
</svg>