<svg width="200" height="50" viewBox="0 0 210 50" xmlns="http://www.w3.org/2000/svg">
    <defs>
        <linearGradient x1="0%" y1="0%" x2="100%" y2="0%" id="a">
            <stop stop-color="#3023AE" offset="0%"/>
            <stop stop-color="#C86DD7" offset="100%"/>
        </linearGradient>
    </defs>
    <path stroke="url(#a)"
          stroke-width="3"
          stroke-linejoin="round"
          stroke-linecap="round"
          d="M5 40 C 5.25 38.52, 8.7 10.74, 10 10 S 14.4 32.92, 15 34.3 S 18.53 32.8, 20 33.08 S 23.51 36.36, 25 36.2 S 28.51 32.17, 30 31.99 S 33.52 34.72, 35 34.98 S 38.5 33.72, 40 33.76 S 43.51 35.37, 45 35.25 S 48.52 33.18, 50 32.94 S 53.53 33.32, 55 33.62 S 58.51 34.82, 60 34.98 S 63.5 34.65, 65 34.71 S 68.52 35.14, 70 35.38 S 73.53 36.65, 75 36.33 S 78.5 33.17, 80 33.21 S 83.56 36.18, 85 36.61 S 88.5 36.28, 90 36.2 S 93.5 36.04, 95 36.06 S 98.59 36.85, 100 36.33 S 103.5 32.36, 105 32.4 S 108.62 36.03, 110 36.61 S 113.53 36.31, 115 36.61 S 118.53 38.34, 120 38.64 S 123.51 38.82, 125 38.64 S 128.5 37.52, 130 37.42 S 133.51 37.76, 135 37.96 S 138.5 38.84, 140 38.78 S 143.5 37.64, 145 37.56 S 148.55 38.63, 150 38.24 S 153.52 35.08, 155 34.84 S 158.56 36.18, 160 36.61 S 163.53 37.51, 165 37.83 S 168.5 38.78, 170 38.78 S 173.5 37.83, 175 37.83 S 178.51 38.58, 180 38.78 S 183.5 39.27, 185 39.19 S 188.51 38.4, 190 38.24 S 193.5 38.12, 195 38.1 S 198.53 38.38, 200 38.1 S 203.6 36.73, 205 36.2"
          fill="none"/>
    <circle r="4" cx="5" cy="40" fill="#3023AE"/>
    <circle r="4" cx="205" cy="36.2" fill="#C86DD7"/>      
</svg>