<svg width="200" height="50" viewBox="0 0 210 50" xmlns="http://www.w3.org/2000/svg">
    <defs>
        <linearGradient x1="0%" y1="0%" x2="100%" y2="0%" id="a">
            <stop stop-color="#3023AE" offset="0%"/>
            <stop stop-color="#C86DD7" offset="100%"/>
        </linearGradient>
    </defs>
    <path stroke="url(#a)"
          stroke-width="3"
          stroke-linejoin="round"
          stroke-linecap="round"
          d="M5 40 C 5.97 38.86, 8.5 34.23, 10 34.13 S 13.67 38.66, 15 39.35 S 18.5 39.3, 20 39.35 S 23.5 39.62, 25 39.67 S 28.5 39.67, 30 39.67 S 33.51 39.81, 35 39.67 S 38.53 38.99, 40 38.7 S 43.52 37.96, 45 37.72 S 48.73 37.86, 50 37.07 S 53.51 31.67, 55 31.52 S 58.71 35.33, 60 36.09 S 63.51 37.58, 65 37.39 S 68.62 35.37, 70 34.78 S 73.5 33.25, 75 33.15 S 78.5 34.23, 80 34.13 S 83.5 32.55, 85 32.5 S 88.55 34.18, 90 33.8 S 93.62 30.47, 95 29.89 S 98.54 29.24, 100 29.57 S 103.64 31.55, 105 32.17 S 108.55 34.51, 110 34.13 S 113.54 29.9, 115 29.57 S 118.54 31.52, 120 31.85 S 123.52 32.09, 125 31.85 S 128.5 30.12, 130 30.22 S 133.57 32.96, 135 32.5 S 138.51 27.11, 140 26.96 S 143.71 30.76, 145 31.52 S 149.2 34.1, 150 32.83 S 154.34 16.89, 155 15.54 S 158.51 12.47, 160 12.28 S 163.5 14.29, 165 14.24 S 168.62 12.55, 170 11.96 S 173.71 9.24, 175 10 S 178.55 17.45, 180 17.83 S 183.51 12.47, 185 12.61 S 188.56 18.38, 190 18.8 S 193.51 15.68, 195 15.54 S 198.5 17.93, 200 17.83 S 203.71 15.65, 205 14.89"
          fill="none"/>
    <circle r="4" cx="5" cy="40" fill="#3023AE"/>
    <circle r="4" cx="205" cy="14.89" fill="#C86DD7"/>      
</svg>