<svg width="200" height="50" viewBox="0 0 210 50" xmlns="http://www.w3.org/2000/svg">
    <defs>
        <linearGradient x1="0%" y1="0%" x2="100%" y2="0%" id="a">
            <stop stop-color="#3023AE" offset="0%"/>
            <stop stop-color="#C86DD7" offset="100%"/>
        </linearGradient>
    </defs>
    <path stroke="url(#a)"
          stroke-width="3"
          stroke-linejoin="round"
          stroke-linecap="round"
          d="M5 40 C 5.25 38.52, 9.21 11.28, 10 10 S 14.36 22.39, 15 23.75 S 19.12 30.04, 20 31.25 S 23.94 38.56, 25 37.5 S 28.73 22.04, 30 21.25 S 34.12 30.04, 35 31.25 S 38.73 34.21, 40 35 S 43.54 37.14, 45 37.5 S 48.51 37.31, 50 37.5 S 53.51 38.56, 55 38.75 S 58.5 38.75, 60 38.75 S 63.51 38.94, 65 38.75 S 68.5 37.5, 70 37.5 S 73.51 38.56, 75 38.75 S 78.5 38.75, 80 38.75 S 83.5 38.75, 85 38.75 S 88.5 38.75, 90 38.75 S 93.5 38.75, 95 38.75 S 98.5 38.75, 100 38.75"
          fill="none"/>
    <circle r="4" cx="5" cy="40" fill="#3023AE"/>
    <circle r="4" cx="100" cy="38.75" fill="#C86DD7"/>      
</svg>