<svg width="200" height="50" viewBox="0 0 210 50" xmlns="http://www.w3.org/2000/svg">
    <defs>
        <linearGradient x1="0%" y1="0%" x2="100%" y2="0%" id="a">
            <stop stop-color="#3023AE" offset="0%"/>
            <stop stop-color="#C86DD7" offset="100%"/>
        </linearGradient>
    </defs>
    <path stroke="url(#a)"
          stroke-width="3"
          stroke-linejoin="round"
          stroke-linecap="round"
          d="M5 40 C 5.42 38.56, 8.64 23.5, 10 22.86 S 14.2 34.02, 15 35.29 S 18.62 38.12, 20 38.71 S 23.51 39.44, 25 39.57 S 28.5 39.57, 30 39.57 S 33.5 39.57, 35 39.57 S 38.5 39.57, 40 39.57 S 43.5 39.57, 45 39.57 S 48.5 39.57, 50 39.57 S 53.5 39.57, 55 39.57 S 58.5 39.57, 60 39.57 S 63.5 39.57, 65 39.57 S 68.5 39.57, 70 39.57 S 73.5 39.57, 75 39.57 S 78.5 39.57, 80 39.57 S 83.5 39.57, 85 39.57 S 88.5 39.57, 90 39.57 S 93.5 39.57, 95 39.57 S 98.5 39.57, 100 39.57 S 103.5 39.57, 105 39.57 S 108.5 39.57, 110 39.57 S 113.5 39.57, 115 39.57 S 118.5 39.57, 120 39.57 S 123.5 39.57, 125 39.57 S 129.21 40.85, 130 39.57 S 133.53 23.6, 135 23.29 S 139.21 36.15, 140 37.43 S 143.53 39.26, 145 39.57 S 148.5 39.57, 150 39.57 S 154 40.69, 155 39.57 S 159.45 29.82, 160 28.43 S 163.95 13.21, 165 14.29 S 168.62 39.3, 170 38.71 S 174.08 11.18, 175 10 S 179.4 24.49, 180 25.86 S 183.55 32.34, 185 32.71 S 188.55 28.06, 190 28.43 S 193.84 34.34, 195 35.29 S 198.51 36.38, 200 36.57 S 203.5 36.57, 205 36.57"
          fill="none"/>
    <circle r="4" cx="5" cy="40" fill="#3023AE"/>
    <circle r="4" cx="205" cy="36.57" fill="#C86DD7"/>      
</svg>