<svg width="200" height="50" viewBox="0 0 210 50" xmlns="http://www.w3.org/2000/svg">
    <defs>
        <linearGradient x1="0%" y1="0%" x2="100%" y2="0%" id="a">
            <stop stop-color="#3023AE" offset="0%"/>
            <stop stop-color="#C86DD7" offset="100%"/>
        </linearGradient>
    </defs>
    <path stroke="url(#a)"
          stroke-width="3"
          stroke-linejoin="round"
          stroke-linecap="round"
          d="M5 40 C 5.43 38.56, 8.76 24.15, 10 23.31 S 14.13 32.02, 15 33.24 S 18.66 36.6, 20 37.27 S 23.5 38.17, 25 38.25 S 28.5 37.83, 30 37.82 S 33.51 38.02, 35 38.15 S 38.5 38.81, 40 38.69 S 43.5 37.35, 45 37.38 S 48.51 38.7, 50 38.91 S 53.5 38.91, 55 38.8 S 58.7 38.89, 60 38.15 S 63.52 33.36, 65 33.13 S 68.55 36.23, 70 36.62 S 74.06 37.02, 75 35.85 S 78.53 24.48, 80 24.18 S 83.62 33.19, 85 33.78 S 88.52 28.68, 90 28.44 S 93.52 31.89, 95 32.15 S 98.5 30.08, 100 30.18 S 103.53 32.48, 105 32.8 S 108.5 32.43, 110 32.36 S 113.55 32.73, 115 32.36 S 118.5 29.73, 120 29.85 S 123.59 32.62, 125 33.13 S 128.71 34.21, 130 33.45 S 133.5 27.34, 135 27.24 S 138.59 32.29, 140 32.8 S 144.3 32.17, 145 30.84 S 148.53 14.22, 150 13.93 S 154.04 27.72, 155 28.87 S 158.5 25.93, 160 25.93 S 163.6 28.33, 165 28.87 S 168.5 29.75, 170 29.75 S 173.52 29.1, 175 28.87 S 178.59 28.74, 180 28.22 S 183.51 25, 185 25.16 S 189.17 30.56, 190 29.31 S 193.76 10.85, 195 10 S 199.08 21.25, 200 22.44 S 203.51 22.82, 205 22.98"
          fill="none"/>
    <circle r="4" cx="5" cy="40" fill="#3023AE"/>
    <circle r="4" cx="205" cy="22.98" fill="#C86DD7"/>      
</svg>