<svg width="200" height="50" viewBox="0 0 210 50" xmlns="http://www.w3.org/2000/svg">
    <defs>
        <linearGradient x1="0%" y1="0%" x2="100%" y2="0%" id="a">
            <stop stop-color="#3023AE" offset="0%"/>
            <stop stop-color="#C86DD7" offset="100%"/>
        </linearGradient>
    </defs>
    <path stroke="url(#a)"
          stroke-width="3"
          stroke-linejoin="round"
          stroke-linecap="round"
          d="M5 40 C 6.5 39.88, 8.5 39.64, 10 39.61 S 13.5 39.84, 15 39.81 S 18.5 39.49, 20 39.42 S 23.5 39.28, 25 39.32 S 28.5 39.62, 30 39.66 S 33.5 39.56, 35 39.57 S 38.5 39.72, 40 39.71 S 43.5 39.51, 45 39.47 S 48.5 39.5, 50 39.42 S 53.5 39.03, 55 38.94 S 59.34 40.19, 60 38.84 S 63.63 19.04, 65 18.44 S 68.73 33.66, 70 34.45 S 74.43 26.05, 75 24.66 S 78.79 9.11, 80 10 S 84.3 30.72, 85 32.04 S 88.57 28.34, 90 28.81 S 93.72 34.55, 95 35.32 S 98.54 34.51, 100 34.84 S 103.52 37.32, 105 37.54 S 108.51 36.43, 110 36.29 S 113.5 36.58, 115 36.62 S 118.51 36.72, 120 36.53 S 123.5 35.27, 125 35.32 S 128.53 37.15, 130 36.86 S 133.51 33.48, 135 33.34 S 138.51 35.78, 140 35.9 S 143.54 34.49, 145 34.16 S 148.52 33.42, 150 33.68 S 153.5 35.78, 155 35.9 S 158.5 34.34, 160 34.45 S 163.5 36.55, 165 36.62 S 168.5 34.96, 170 34.94 S 173.5 36.52, 175 36.48 S 178.5 34.74, 180 34.65 S 183.5 35.74, 185 35.85 S 188.64 36.01, 190 35.37 S 193.5 31.17, 195 31.17 S 198.55 35, 200 35.37 S 203.57 34.2, 205 33.73"
          fill="none"/>
    <circle r="4" cx="5" cy="40" fill="#3023AE"/>
    <circle r="4" cx="205" cy="33.730000000000004" fill="#C86DD7"/>      
</svg>