<svg width="200" height="50" viewBox="0 0 210 50" xmlns="http://www.w3.org/2000/svg">
    <defs>
        <linearGradient x1="0%" y1="0%" x2="100%" y2="0%" id="a">
            <stop stop-color="#3023AE" offset="0%"/>
            <stop stop-color="#C86DD7" offset="100%"/>
        </linearGradient>
    </defs>
    <path stroke="url(#a)"
          stroke-width="3"
          stroke-linejoin="round"
          stroke-linecap="round"
          d="M5 40 C 5.25 38.52, 8.6 10.54, 10 10 S 14.47 34.73, 15 36.13 S 18.51 36.26, 20 36.43 S 23.52 37.07, 25 37.28 S 28.51 37.71, 30 37.87 S 33.54 38.7, 35 38.37 S 38.51 35.78, 40 35.59 S 43.55 36.74, 45 37.11 S 48.53 38.39, 50 38.1 S 53.5 35.27, 55 35.16 S 58.57 36.91, 60 37.35 S 63.5 38.14, 65 38.22 S 68.5 37.85, 70 37.86 S 73.51 38.17, 75 38.31 S 78.5 38.7, 80 38.82 S 83.51 39.25, 85 39.12 S 88.5 37.96, 90 37.96 S 93.5 39.05, 95 39.09 S 98.5 38.29, 100 38.21 S 103.5 38.45, 105 38.54 S 108.5 38.79, 110 38.83 S 113.5 38.83, 115 38.81 S 118.51 38.82, 120 38.7 S 123.5 38.05, 125 37.98 S 128.5 38.16, 130 38.2 S 133.57 38.72, 135 38.28 S 138.61 35.68, 140 35.12 S 143.55 33.87, 145 34.24 S 148.61 37.09, 150 37.65 S 153.5 38.22, 155 38.27 S 158.54 38.32, 160 37.96 S 163.5 35.76, 165 35.77 S 168.53 37.7, 170 38 S 173.5 37.78, 175 37.78 S 178.51 37.86, 180 37.99 S 183.5 38.62, 185 38.63 S 188.51 38.22, 190 38.08 S 193.5 37.71, 195 37.7 S 198.5 37.97, 200 38.03 S 203.5 38.09, 205 38.11"
          fill="none"/>
    <circle r="4" cx="5" cy="40" fill="#3023AE"/>
    <circle r="4" cx="205" cy="38.11" fill="#C86DD7"/>      
</svg>