<svg width="200" height="50" viewBox="0 0 210 50" xmlns="http://www.w3.org/2000/svg">
    <defs>
        <linearGradient x1="0%" y1="0%" x2="100%" y2="0%" id="a">
            <stop stop-color="#3023AE" offset="0%"/>
            <stop stop-color="#C86DD7" offset="100%"/>
        </linearGradient>
    </defs>
    <path stroke="url(#a)"
          stroke-width="3"
          stroke-linejoin="round"
          stroke-linecap="round"
          d="M5 40 C 5.69 38.67, 8.5 30.44, 10 30.36 S 13.89 38.45, 15 39.46 S 18.51 39.62, 20 39.46 S 23.52 38.63, 25 38.39 S 28.62 38.45, 30 37.86 S 33.71 34.87, 35 34.11 S 38.77 32.82, 40 31.96 S 43.51 27.3, 45 27.14 S 48.52 30.65, 50 30.89 S 53.53 29.06, 55 28.75 S 58.77 29.61, 60 28.75 S 63.57 21.33, 65 21.79 S 68.52 32.2, 70 31.96 S 74.08 21.36, 75 20.18 S 78.95 18.04, 80 19.11 S 83.83 29.42, 85 30.36 S 88.89 28.15, 90 27.14 S 93.71 22.01, 95 21.25 S 98.98 22.35, 100 21.25 S 103.55 10.15, 105 10.54 S 108.68 23.22, 110 23.93 S 113.53 16.2, 115 15.89 S 118.51 21.63, 120 21.79 S 123.52 16.72, 125 16.96 S 128.51 23.23, 130 23.39 S 133.5 18.12, 135 18.04 S 138.53 22.55, 140 22.86 S 143.62 20.77, 145 20.18 S 148.57 19.03, 150 18.57 S 153.57 16.5, 155 16.96 S 158.68 22.5, 160 21.79 S 163.55 12, 165 11.61 S 168.8 18.21, 170 19.11 S 173.57 19.57, 175 19.11 S 178.55 16.28, 180 15.89 S 183.68 17.14, 185 16.43 S 188.5 10.54, 190 10.54 S 193.5 16.51, 195 16.43 S 198.51 10.16, 200 10 S 203.98 14.26, 205 15.36"
          fill="none"/>
    <circle r="4" cx="5" cy="40" fill="#3023AE"/>
    <circle r="4" cx="205" cy="15.36" fill="#C86DD7"/>      
</svg>