<svg width="200" height="50" viewBox="0 0 210 50" xmlns="http://www.w3.org/2000/svg">
    <defs>
        <linearGradient x1="0%" y1="0%" x2="100%" y2="0%" id="a">
            <stop stop-color="#3023AE" offset="0%"/>
            <stop stop-color="#C86DD7" offset="100%"/>
        </linearGradient>
    </defs>
    <path stroke="url(#a)"
          stroke-width="3"
          stroke-linejoin="round"
          stroke-linecap="round"
          d="M5 40 C 5.3 38.53, 9.01 16.62, 10 15.49 S 13.89 27.65, 15 28.66 S 18.61 25.19, 20 24.63 S 23.73 23.84, 25 24.63 S 28.52 31.07, 30 30.85 S 33.63 23.77, 35 23.17 S 38.53 26.78, 40 26.46 S 43.52 21.2, 45 20.98 S 48.93 23.95, 50 25 S 53.66 30.17, 55 30.85 S 58.85 31.09, 60 30.12 S 63.71 23.2, 65 22.44 S 68.66 24.95, 70 24.27 S 73.71 18.08, 75 17.32 S 78.79 17.52, 80 18.41 S 83.79 23.74, 85 24.63 S 88.51 25.57, 90 25.73 S 93.5 25.84, 95 25.73 S 98.54 24.68, 100 25 S 103.52 28.15, 105 27.93 S 108.79 24.43, 110 23.54 S 113.53 20.29, 115 20.61 S 118.69 25.01, 120 25.73 S 123.52 26.37, 125 26.1 S 129.21 25.17, 130 23.9 S 134.08 11.18, 135 10 S 138.93 10.05, 140 11.1 S 143.97 18.79, 145 19.88 S 148.52 21.49, 150 21.71 S 153.61 20.78, 155 21.34 S 158.51 25.89, 160 25.73 S 163.83 21.18, 165 20.24 S 168.56 17.26, 170 17.68 S 173.73 22.38, 175 23.17 S 178.63 24.5, 180 23.9 S 183.5 18.78, 185 18.78 S 188.52 24.12, 190 23.9 S 193.93 18.37, 195 17.32 S 198.56 13.6, 200 14.02 S 204.06 19.07, 205 20.24"
          fill="none"/>
    <circle r="4" cx="5" cy="40" fill="#3023AE"/>
    <circle r="4" cx="205" cy="20.24" fill="#C86DD7"/>      
</svg>