<svg width="200" height="50" viewBox="0 0 210 50" xmlns="http://www.w3.org/2000/svg">
    <defs>
        <linearGradient x1="0%" y1="0%" x2="100%" y2="0%" id="a">
            <stop stop-color="#3023AE" offset="0%"/>
            <stop stop-color="#C86DD7" offset="100%"/>
        </linearGradient>
    </defs>
    <path stroke="url(#a)"
          stroke-width="3"
          stroke-linejoin="round"
          stroke-linecap="round"
          d="M5 40 C 5.25 38.52, 8.87 10.98, 10 10 S 14.47 29.94, 15 31.34 S 18.77 35.85, 20 36.7 S 23.51 38.05, 25 38.25 S 28.68 38.74, 30 38.02 S 33.5 32.9, 35 32.81 S 38.7 36.66, 40 37.41 S 43.51 38.75, 45 38.59 S 49.09 37.55, 50 36.36 S 53.51 25.62, 55 25.48 S 59.06 34.25, 60 35.42 S 63.52 37.67, 65 37.9 S 68.51 37.18, 70 37 S 73.5 36.61, 75 36.7 S 78.5 37.52, 80 37.62 S 83.5 37.28, 85 37.36 S 88.5 38.09, 90 38.17 S 93.52 38.15, 95 37.92 S 98.5 36.64, 100 36.63 S 103.51 37.66, 105 37.86 S 108.5 38.03, 110 37.99 S 113.5 37.57, 115 37.58 S 118.51 37.89, 120 38.05 S 123.5 38.58, 125 38.68 S 128.5 38.73, 130 38.74 S 133.5 38.73, 135 38.74 S 138.5 38.89, 140 38.84 S 143.5 38.37, 145 38.4 S 148.51 38.88, 150 39.02 S 153.5 39.33, 155 39.35 S 158.5 39.14, 160 39.15 S 163.5 39.41, 165 39.41 S 168.5 39.16, 170 39.15 S 173.5 39.27, 175 39.32 S 178.5 39.49, 180 39.48 S 183.5 39.3, 185 39.27 S 188.5 39.31, 190 39.3 S 193.5 39.17, 195 39.17 S 198.5 39.26, 200 39.27 S 203.5 39.24, 205 39.23"
          fill="none"/>
    <circle r="4" cx="5" cy="40" fill="#3023AE"/>
    <circle r="4" cx="205" cy="39.23" fill="#C86DD7"/>      
</svg>