<svg width="200" height="50" viewBox="0 0 210 50" xmlns="http://www.w3.org/2000/svg">
    <defs>
        <linearGradient x1="0%" y1="0%" x2="100%" y2="0%" id="a">
            <stop stop-color="#3023AE" offset="0%"/>
            <stop stop-color="#C86DD7" offset="100%"/>
        </linearGradient>
    </defs>
    <path stroke="url(#a)"
          stroke-width="3"
          stroke-linejoin="round"
          stroke-linecap="round"
          d="M5 40 C 6.5 39.98, 8.5 39.92, 10 39.92 S 13.5 39.98, 15 39.99 S 18.5 39.99, 20 39.99 S 23.5 39.99, 25 39.99 S 28.5 39.99, 30 39.99 S 33.5 39.99, 35 39.99 S 38.5 39.99, 40 39.99 S 43.5 39.99, 45 39.99 S 48.5 39.99, 50 39.99 S 53.5 39.99, 55 39.99 S 58.5 39.99, 60 39.99 S 63.5 39.99, 65 39.99 S 68.5 39.99, 70 39.99 S 73.5 39.99, 75 39.99 S 78.5 39.99, 80 39.99 S 83.5 39.99, 85 39.99 S 88.5 39.99, 90 39.99 S 93.5 39.97, 95 39.97 S 98.5 39.97, 100 39.97 S 103.5 39.99, 105 39.99 S 108.5 39.99, 110 39.99 S 113.5 39.99, 115 39.99 S 118.5 39.99, 120 39.99 S 124.53 41.41, 125 39.99 S 128.53 10.32, 130 10 S 134.52 36.39, 135 37.81 S 138.52 39.25, 140 39.49 S 143.5 39.41, 145 39.4 S 148.5 39.42, 150 39.44 S 153.5 39.56, 155 39.52 S 158.5 39.19, 160 39.18 S 163.5 39.36, 165 39.42 S 168.53 39.87, 170 39.59 S 173.5 37.61, 175 37.51 S 178.52 38.68, 180 38.94 S 183.5 39.33, 185 39.27 S 188.5 38.54, 190 38.53 S 193.51 39.07, 195 39.21 S 198.5 39.43, 200 39.47 S 203.5 39.47, 205 39.47"
          fill="none"/>
    <circle r="4" cx="5" cy="40" fill="#3023AE"/>
    <circle r="4" cx="205" cy="39.47" fill="#C86DD7"/>      
</svg>