<svg width="200" height="50" viewBox="0 0 210 50" xmlns="http://www.w3.org/2000/svg">
    <defs>
        <linearGradient x1="0%" y1="0%" x2="100%" y2="0%" id="a">
            <stop stop-color="#3023AE" offset="0%"/>
            <stop stop-color="#C86DD7" offset="100%"/>
        </linearGradient>
    </defs>
    <path stroke="url(#a)"
          stroke-width="3"
          stroke-linejoin="round"
          stroke-linecap="round"
          d="M5 40 C 6.46 39.65, 8.5 38.89, 10 38.8 S 13.5 39.4, 15 39.4 S 18.5 38.8, 20 38.8 S 23.5 39.31, 25 39.4 S 28.5 39.4, 30 39.4 S 33.5 39.4, 35 39.4 S 38.5 39.4, 40 39.4 S 43.5 39.4, 45 39.4 S 48.5 39.4, 50 39.4 S 53.5 39.4, 55 39.4 S 58.51 39.58, 60 39.4 S 63.52 38.47, 65 38.2 S 68.52 37.87, 70 37.6 S 73.52 36.13, 75 36.4 S 78.5 39.31, 80 39.4 S 83.71 37.77, 85 37 S 88.52 33.67, 90 33.4 S 93.5 35.2, 95 35.2 S 98.54 33.05, 100 33.4 S 103.52 37.33, 105 37.6 S 108.65 35.85, 110 35.2 S 113.5 32.8, 115 32.8 S 118.52 35.47, 120 35.2 S 123.54 31.35, 125 31 S 128.59 32.29, 130 32.8 S 134.04 35.75, 135 34.6 S 138.95 21.87, 140 20.8 S 143.68 25.11, 145 24.4 S 148.75 16.23, 150 15.4 S 153.71 17.03, 155 17.8 S 158.62 20.82, 160 21.4 S 163.51 21.82, 165 22 S 168.68 23.31, 170 22.6 S 173.78 17.48, 175 16.6 S 178.5 15.4, 180 15.4 S 183.68 17.31, 185 16.6 S 188.59 10.51, 190 10 S 193.5 13, 195 13 S 198.5 9.91, 200 10 S 203.78 12.72, 205 13.6"
          fill="none"/>
    <circle r="4" cx="5" cy="40" fill="#3023AE"/>
    <circle r="4" cx="205" cy="13.600000000000001" fill="#C86DD7"/>      
</svg>