<svg width="200" height="50" viewBox="0 0 210 50" xmlns="http://www.w3.org/2000/svg">
    <defs>
        <linearGradient x1="0%" y1="0%" x2="100%" y2="0%" id="a">
            <stop stop-color="#3023AE" offset="0%"/>
            <stop stop-color="#C86DD7" offset="100%"/>
        </linearGradient>
    </defs>
    <path stroke="url(#a)"
          stroke-width="3"
          stroke-linejoin="round"
          stroke-linecap="round"
          d="M5 40 C 6.23 39.15, 8.56 36.95, 10 36.54 S 13.53 36.88, 15 37.16 S 18.53 38.16, 20 38.46 S 23.51 39.04, 25 39.22 S 28.5 39.58, 30 39.64 S 33.5 39.61, 35 39.64 S 39.22 41.12, 40 39.84 S 44.11 24.28, 45 23.07 S 49.09 27.53, 50 26.34 S 53.5 10.03, 55 10 S 59.36 24.78, 60 26.14 S 64.02 29.97, 65 31.11 S 68.54 37.47, 70 37.81 S 73.5 33.52, 75 33.46 S 78.58 36.95, 80 37.42 S 83.5 36.78, 85 36.76 S 88.5 37.34, 90 37.29 S 93.5 36.3, 95 36.41 S 98.55 37.61, 100 38.01 S 103.55 39.57, 105 39.18 S 108.53 35.6, 110 35.33 S 113.56 36.91, 115 37.32 S 118.51 38.04, 120 38.2 S 123.5 38.44, 125 38.4 S 128.5 38.06, 130 37.94 S 133.5 37.5, 135 37.61 S 138.51 38.48, 140 38.69 S 143.5 38.93, 145 38.99 S 148.5 39, 150 39.08 S 153.5 39.48, 155 39.51 S 158.57 39.77, 160 39.31 S 163.51 36.45, 165 36.27 S 168.56 37.69, 170 38.1 S 173.51 38.92, 175 39.08 S 178.5 39.1, 180 39.15 S 183.5 39.38, 185 39.41 S 188.5 39.33, 190 39.38 S 193.5 39.68, 195 39.74 S 198.5 39.82, 200 39.77 S 203.5 39.52, 205 39.41"
          fill="none"/>
    <circle r="4" cx="5" cy="40" fill="#3023AE"/>
    <circle r="4" cx="205" cy="39.41" fill="#C86DD7"/>      
</svg>