<svg width="200" height="50" viewBox="0 0 210 50" xmlns="http://www.w3.org/2000/svg">
    <defs>
        <linearGradient x1="0%" y1="0%" x2="100%" y2="0%" id="a">
            <stop stop-color="#3023AE" offset="0%"/>
            <stop stop-color="#C86DD7" offset="100%"/>
        </linearGradient>
    </defs>
    <path stroke="url(#a)"
          stroke-width="3"
          stroke-linejoin="round"
          stroke-linecap="round"
          d="M5 40 C 6.31 39.26, 8.5 37.2, 10 37.18 S 13.55 39.48, 15 39.88 S 18.5 39.95, 20 39.94 S 23.5 39.84, 25 39.83 S 28.5 39.9, 30 39.88 S 33.5 39.71, 35 39.71 S 38.5 39.88, 40 39.88 S 43.5 39.8, 45 39.71 S 48.5 39.26, 50 39.25 S 53.5 39.56, 55 39.65 S 58.5 39.91, 60 39.88 S 63.5 39.51, 65 39.48 S 68.53 39.95, 70 39.65 S 73.5 37.43, 75 37.41 S 78.53 39.22, 80 39.54 S 83.5 39.64, 85 39.6 S 88.5 39.29, 90 39.25 S 93.61 39.88, 95 39.31 S 98.5 35.07, 100 35.11 S 103.64 38.96, 105 39.6 S 108.5 39.87, 110 39.83 S 113.5 39.34, 115 39.31 S 118.5 39.62, 120 39.65 S 123.5 39.66, 125 39.54 S 128.5 38.89, 130 38.85 S 133.5 39.2, 135 39.25 S 138.5 39.15, 140 39.19 S 143.5 39.46, 145 39.54 S 149.52 41.13, 150 39.71 S 153.55 10.39, 155 10 S 159.51 35.59, 160 37.01 S 163.53 38.51, 165 38.79 S 168.52 39.18, 170 38.91 S 173.5 36.94, 175 36.95 S 178.51 38.75, 180 38.96 S 183.5 38.36, 185 38.33 S 188.5 38.69, 190 38.73 S 193.5 38.65, 195 38.62 S 198.5 38.48, 200 38.56 S 203.51 38.97, 205 39.14"
          fill="none"/>
    <circle r="4" cx="5" cy="40" fill="#3023AE"/>
    <circle r="4" cx="205" cy="39.14" fill="#C86DD7"/>      
</svg>