<svg width="200" height="50" viewBox="0 0 210 50" xmlns="http://www.w3.org/2000/svg">
    <defs>
        <linearGradient x1="0%" y1="0%" x2="100%" y2="0%" id="a">
            <stop stop-color="#3023AE" offset="0%"/>
            <stop stop-color="#C86DD7" offset="100%"/>
        </linearGradient>
    </defs>
    <path stroke="url(#a)"
          stroke-width="3"
          stroke-linejoin="round"
          stroke-linecap="round"
          d="M5 40 C 6.5 40, 8.5 40, 10 40 S 13.5 40, 15 40 S 18.5 40, 20 40 S 23.5 40, 25 40 S 28.5 40, 30 40 S 33.5 40, 35 40 S 38.5 40, 40 40 S 43.5 40, 45 40 S 48.5 40, 50 40 S 54.53 41.42, 55 40 S 58.74 10.81, 60 10 S 64.46 32.13, 65 33.53 S 68.6 35.26, 70 35.81 S 73.53 37.15, 75 37.44 S 78.5 37.8, 80 37.76 S 83.5 37.16, 85 37.16 S 88.52 37.99, 90 37.73 S 93.51 35.54, 95 35.4 S 98.56 36.35, 100 36.79 S 103.53 38.14, 105 38.44 S 108.5 38.78, 110 38.82 S 113.5 38.75, 115 38.7 S 118.5 38.45, 120 38.49 S 123.5 38.91, 125 38.98 S 128.5 39.02, 130 38.95 S 133.5 38.49, 135 38.5 S 138.5 38.92, 140 39.02 S 143.51 39.3, 145 39.16 S 148.5 38.07, 150 38.05 S 153.51 38.86, 155 39.04 S 158.5 39.24, 160 39.28 S 163.5 39.34, 165 39.34 S 168.5 39.3, 170 39.29 S 173.5 39.29, 175 39.29 S 178.5 39.27, 180 39.29 S 183.5 39.41, 185 39.45 S 188.5 39.55, 190 39.57 S 193.5 39.58, 195 39.58 S 198.5 39.57, 200 39.58 S 203.5 39.63, 205 39.65"
          fill="none"/>
    <circle r="4" cx="5" cy="40" fill="#3023AE"/>
    <circle r="4" cx="205" cy="39.65" fill="#C86DD7"/>      
</svg>