<svg width="200" height="50" viewBox="0 0 210 50" xmlns="http://www.w3.org/2000/svg">
    <defs>
        <linearGradient x1="0%" y1="0%" x2="100%" y2="0%" id="a">
            <stop stop-color="#3023AE" offset="0%"/>
            <stop stop-color="#C86DD7" offset="100%"/>
        </linearGradient>
    </defs>
    <path stroke="url(#a)"
          stroke-width="3"
          stroke-linejoin="round"
          stroke-linecap="round"
          d="M5 40 C 6.5 39.9, 8.5 39.7, 10 39.67 S 13.5 39.81, 15 39.83 S 18.5 39.83, 20 39.83 S 23.5 39.83, 25 39.83 S 28.5 39.83, 30 39.83 S 33.5 39.83, 35 39.83 S 38.5 39.83, 40 39.83 S 43.5 39.83, 45 39.83 S 48.52 40.1, 50 39.83 S 53.51 38.12, 55 38 S 58.52 38.75, 60 39 S 63.5 39.74, 65 39.67 S 68.5 38.6, 70 38.5 S 73.51 38.83, 75 39 S 78.5 39.67, 80 39.67 S 83.51 39.13, 85 39 S 88.5 38.78, 90 38.83 S 94.51 40.75, 95 39.33 S 98.52 10.22, 100 10 S 104.5 36.42, 105 37.83 S 108.5 38.17, 110 38.17 S 113.5 37.86, 115 37.83 S 118.5 38.1, 120 38 S 123.5 37.24, 125 37.17 S 128.51 37.35, 130 37.5 S 133.52 37.92, 135 38.17 S 138.5 39.2, 140 39.17 S 143.52 38.27, 145 38 S 148.51 37.45, 150 37.33 S 153.5 37.1, 155 37.17 S 158.51 38, 160 37.83 S 163.52 36.27, 165 36 S 168.52 35.73, 170 36 S 173.5 37.73, 175 37.83 S 178.52 36.92, 180 36.67 S 183.5 36.15, 185 36.17 S 188.51 36.66, 190 36.83 S 193.52 37.58, 195 37.33 S 198.5 35.24, 200 35.17 S 203.58 36.36, 205 36.83"
          fill="none"/>
    <circle r="4" cx="5" cy="40" fill="#3023AE"/>
    <circle r="4" cx="205" cy="36.83" fill="#C86DD7"/>      
</svg>