<svg width="200" height="50" viewBox="0 0 210 50" xmlns="http://www.w3.org/2000/svg">
    <defs>
        <linearGradient x1="0%" y1="0%" x2="100%" y2="0%" id="a">
            <stop stop-color="#3023AE" offset="0%"/>
            <stop stop-color="#C86DD7" offset="100%"/>
        </linearGradient>
    </defs>
    <path stroke="url(#a)"
          stroke-width="3"
          stroke-linejoin="round"
          stroke-linecap="round"
          d="M5 40 C 5.25 38.52, 8.57 10.45, 10 10 S 14.46 35.48, 15 36.88 S 18.5 35.95, 20 36.05 S 23.53 37.22, 25 37.53 S 28.51 38.03, 30 38.19 S 33.51 38.78, 35 38.6 S 38.51 37.08, 40 36.96 S 43.5 37.77, 45 37.78 S 48.53 37.34, 50 37.04 S 53.5 35.83, 55 35.73 S 58.52 36.11, 60 36.38 S 63.65 38.19, 65 37.53 S 68.53 31.76, 70 31.45 S 73.69 34.67, 75 35.4 S 78.54 37.38, 80 37.04 S 83.52 33.37, 85 33.1 S 88.6 34.68, 90 35.23 S 93.51 36.84, 95 37.04 S 98.52 36.82, 100 36.55 S 103.5 35.21, 105 35.23 S 108.51 36.57, 110 36.71 S 113.5 36.21, 115 36.14 S 118.52 36.45, 120 36.22 S 123.5 34.54, 125 34.58 S 128.51 36.26, 130 36.47 S 133.51 36.11, 135 35.97 S 138.5 35.62, 140 35.56 S 143.51 35.75, 145 35.56 S 148.5 34.15, 150 34.25 S 153.5 36.25, 155 36.22 S 158.56 34.48, 160 34.08 S 163.58 33.9, 165 33.42 S 168.51 30.84, 170 30.71 S 173.52 32.29, 175 32.52 S 178.51 32.07, 180 32.27 S 183.5 33.83, 185 33.84 S 188.51 32.53, 190 32.36 S 193.51 32.52, 195 32.68 S 198.51 33.21, 200 33.42 S 203.51 33.88, 205 34.08"
          fill="none"/>
    <circle r="4" cx="5" cy="40" fill="#3023AE"/>
    <circle r="4" cx="205" cy="34.08" fill="#C86DD7"/>      
</svg>