<svg width="200" height="50" viewBox="0 0 210 50" xmlns="http://www.w3.org/2000/svg">
    <defs>
        <linearGradient x1="0%" y1="0%" x2="100%" y2="0%" id="a">
            <stop stop-color="#3023AE" offset="0%"/>
            <stop stop-color="#C86DD7" offset="100%"/>
        </linearGradient>
    </defs>
    <path stroke="url(#a)"
          stroke-width="3"
          stroke-linejoin="round"
          stroke-linecap="round"
          d="M5 40 C 5.42 38.56, 8.96 24.11, 10 23.03 S 14.09 30.89, 15 29.7 S 18.54 10.35, 20 10 S 24.24 25.98, 25 27.27 S 28.5 27.01, 30 26.97 S 33.59 26.46, 35 26.97 S 38.5 30.52, 40 30.61 S 43.52 27.81, 45 27.58 S 48.58 28.62, 50 29.09 S 54.13 32.13, 55 30.91 S 58.73 15.95, 60 15.15 S 64.16 23.31, 65 24.55 S 68.52 29.78, 70 30 S 73.68 26.78, 75 26.06 S 78.51 24.73, 80 24.55 S 83.5 24.81, 85 24.85 S 88.52 25.08, 90 24.85 S 93.54 22.98, 95 23.33 S 98.7 26.52, 100 27.27 S 103.59 28.58, 105 29.09 S 109.16 32.15, 110 30.91 S 113.51 14.38, 115 14.24 S 118.99 28.89, 120 30 S 123.87 26.14, 125 25.15 S 128.58 20.74, 130 21.21 S 133.52 28.25, 135 28.48 S 138.55 23.12, 140 22.73 S 143.65 26.41, 145 25.76 S 148.8 18.79, 150 17.88 S 153.77 17.32, 155 18.18 S 158.79 23.97, 160 24.85 S 163.54 25.8, 165 25.45 S 168.51 22.28, 170 22.42 S 173.8 25.45, 175 26.36 S 178.62 30.59, 180 30 S 183.67 22.81, 185 22.12 S 188.59 24.34, 190 24.85 S 193.82 26.69, 195 25.76 S 198.51 16.83, 200 16.97 S 204.31 25.34, 205 26.67"
          fill="none"/>
    <circle r="4" cx="5" cy="40" fill="#3023AE"/>
    <circle r="4" cx="205" cy="26.67" fill="#C86DD7"/>      
</svg>