<svg width="200" height="50" viewBox="0 0 210 50" xmlns="http://www.w3.org/2000/svg">
    <defs>
        <linearGradient x1="0%" y1="0%" x2="100%" y2="0%" id="a">
            <stop stop-color="#3023AE" offset="0%"/>
            <stop stop-color="#C86DD7" offset="100%"/>
        </linearGradient>
    </defs>
    <path stroke="url(#a)"
          stroke-width="3"
          stroke-linejoin="round"
          stroke-linecap="round"
          d="M5 40 C 6.11 39, 8.63 36.12, 10 35.5 S 13.56 35.07, 15 35.5 S 18.56 38.07, 20 38.5 S 23.5 38.5, 25 38.5 S 28.5 38.5, 30 38.5 S 33.8 39.4, 35 38.5 S 38.5 31, 40 31 S 43.63 37.88, 45 38.5 S 48.71 36.27, 50 35.5 S 53.63 33.12, 55 32.5 S 58.52 30.78, 60 31 S 63.8 33.1, 65 34 S 68.63 37.88, 70 38.5 S 73.56 38.93, 75 38.5 S 78.71 36.27, 80 35.5 S 83.56 32.93, 85 32.5 S 88.63 31.88, 90 32.5 S 93.5 37, 95 37 S 99.04 33.65, 100 32.5 S 103.71 24.23, 105 25 S 108.63 37.88, 110 38.5 S 113.5 29.5, 115 29.5 S 118.89 37.5, 120 38.5 S 123.71 39.27, 125 38.5 S 129.17 33.75, 130 32.5 S 133.63 22.88, 135 23.5 S 138.56 36.57, 140 37 S 143.56 26.93, 145 26.5 S 148.56 33.57, 150 34 S 154.42 30.88, 155 29.5 S 158.5 10, 160 10 S 164.45 28.1, 165 29.5 S 169.11 36.71, 170 35.5 S 173.56 15.57, 175 16 S 179.11 37.29, 180 38.5 S 183.97 30.59, 185 29.5 S 188.56 27.57, 190 28 S 193.63 33.12, 195 32.5 S 199.11 24.71, 200 23.5 S 203.89 20, 205 19"
          fill="none"/>
    <circle r="4" cx="5" cy="40" fill="#3023AE"/>
    <circle r="4" cx="205" cy="19" fill="#C86DD7"/>      
</svg>