<svg width="200" height="50" viewBox="0 0 210 50" xmlns="http://www.w3.org/2000/svg">
    <defs>
        <linearGradient x1="0%" y1="0%" x2="100%" y2="0%" id="a">
            <stop stop-color="#3023AE" offset="0%"/>
            <stop stop-color="#C86DD7" offset="100%"/>
        </linearGradient>
    </defs>
    <path stroke="url(#a)"
          stroke-width="3"
          stroke-linejoin="round"
          stroke-linecap="round"
          d="M5 40 C 6.5 39.92, 8.5 39.76, 10 39.72 S 13.5 39.72, 15 39.72 S 18.5 39.72, 20 39.72 S 24.5 41.13, 25 39.72 S 28.79 12.28, 30 11.4 S 34.49 31.02, 35 32.43 S 38.68 38.45, 40 39.16 S 43.56 38.16, 45 37.76 S 48.52 36.11, 50 36.36 S 53.52 39.19, 55 39.44 S 58.5 38.12, 60 38.04 S 63.51 39.01, 65 38.88 S 68.52 37.45, 70 37.2 S 73.51 37.07, 75 37.2 S 78.53 38.33, 80 38.04 S 83.51 35.4, 85 35.23 S 88.5 36.92, 90 36.92 S 93.5 35.27, 95 35.23 S 98.5 36.56, 100 36.64 S 103.51 36, 105 35.79 S 108.54 34.9, 110 35.23 S 113.54 37.71, 115 38.04 S 118.56 37.89, 120 37.48 S 123.5 35.19, 125 35.23 S 128.54 37.43, 130 37.76 S 133.51 37.61, 135 37.48 S 138.51 36.71, 140 36.92 S 143.51 38.75, 145 38.88 S 148.52 38.01, 150 37.76 S 153.52 37.45, 155 37.2 S 158.82 37, 160 36.07 S 164.46 30.75, 165 29.35 S 168.5 9.92, 170 10 S 174.22 28.63, 175 29.91 S 178.55 26.17, 180 26.54 S 183.53 32.14, 185 32.43 S 188.65 29.15, 190 28.5 S 193.5 27.7, 195 27.66 S 198.54 28.55, 200 28.22 S 203.69 26.15, 205 25.42"
          fill="none"/>
    <circle r="4" cx="5" cy="40" fill="#3023AE"/>
    <circle r="4" cx="205" cy="25.42" fill="#C86DD7"/>      
</svg>