<svg width="200" height="50" viewBox="0 0 210 50" xmlns="http://www.w3.org/2000/svg">
    <defs>
        <linearGradient x1="0%" y1="0%" x2="100%" y2="0%" id="a">
            <stop stop-color="#3023AE" offset="0%"/>
            <stop stop-color="#C86DD7" offset="100%"/>
        </linearGradient>
    </defs>
    <path stroke="url(#a)"
          stroke-width="3"
          stroke-linejoin="round"
          stroke-linecap="round"
          d="M5 40 C 6.5 39.99, 8.5 39.98, 10 39.98 S 13.5 39.99, 15 39.99 S 18.61 40.57, 20 40 S 23.64 36.47, 25 35.84 S 29.46 36.77, 30 35.37 S 33.51 10.15, 35 10 S 39.42 32.99, 40 34.37 S 43.5 33.59, 45 33.64 S 48.53 34.41, 50 34.72 S 53.52 36.02, 55 35.76 S 58.5 33.02, 60 32.97 S 63.51 35.26, 65 35.45 S 68.54 34.6, 70 34.24 S 73.5 32.97, 75 32.96 S 78.51 34, 80 34.15 S 83.5 33.94, 85 33.94 S 88.5 34.13, 90 34.16 S 93.5 34.24, 95 34.16 S 98.5 33.63, 100 33.62 S 103.5 34.01, 105 34.07 S 108.5 33.95, 110 34.01 S 113.5 34.43, 115 34.46 S 118.5 34.3, 120 34.24 S 123.51 34.21, 125 34.08 S 128.5 33.31, 130 33.34 S 133.52 34.04, 135 34.29 S 138.5 35.11, 140 35.06 S 143.51 34.12, 145 33.95 S 148.5 33.81, 150 33.93 S 153.5 34.65, 155 34.74 S 158.5 34.48, 160 34.56 S 163.5 35.18, 165 35.25 S 168.5 34.91, 170 35 S 173.5 35.79, 175 35.88 S 178.5 35.72, 180 35.63 S 183.5 35.25, 185 35.26 S 188.51 35.54, 190 35.67 S 193.52 35.88, 195 36.1 S 198.51 36.94, 200 37.14 S 203.5 37.36, 205 37.45"
          fill="none"/>
    <circle r="4" cx="5" cy="40" fill="#3023AE"/>
    <circle r="4" cx="205" cy="37.45" fill="#C86DD7"/>      
</svg>