<svg width="200" height="50" viewBox="0 0 210 50" xmlns="http://www.w3.org/2000/svg">
    <defs>
        <linearGradient x1="0%" y1="0%" x2="100%" y2="0%" id="a">
            <stop stop-color="#3023AE" offset="0%"/>
            <stop stop-color="#C86DD7" offset="100%"/>
        </linearGradient>
    </defs>
    <path stroke="url(#a)"
          stroke-width="3"
          stroke-linejoin="round"
          stroke-linecap="round"
          d="M5 40 C 6.5 39.99, 8.5 39.98, 10 39.98 S 13.5 39.99, 15 39.99 S 18.61 40.57, 20 40 S 23.64 36.51, 25 35.89 S 28.52 35.16, 30 35.43 S 34.45 39.09, 35 37.69 S 38.59 10.5, 40 10 S 44.44 32.76, 45 34.15 S 48.51 34.51, 50 34.68 S 53.5 35.36, 55 35.3 S 58.5 34.26, 60 34.25 S 63.52 35.02, 65 35.25 S 68.5 35.92, 70 35.83 S 73.54 35.01, 75 34.67 S 78.5 33.53, 80 33.49 S 83.51 34.24, 85 34.41 S 88.5 34.62, 90 34.63 S 93.5 34.51, 95 34.51 S 98.5 34.66, 100 34.62 S 103.5 34.31, 105 34.24 S 108.5 34.04, 110 34.13 S 113.5 34.83, 115 34.85 S 118.5 34.24, 120 34.27 S 123.5 34.95, 125 35.03 S 128.51 34.93, 130 34.8 S 133.51 34.3, 135 34.17 S 138.5 33.83, 140 33.92 S 143.52 34.54, 145 34.77 S 148.5 35.54, 150 35.47 S 153.51 34.47, 155 34.3 S 158.51 34.22, 160 34.35 S 163.5 35.11, 165 35.17 S 168.5 34.75, 170 34.78 S 173.51 35.25, 175 35.38 S 178.5 35.61, 180 35.63 S 183.5 35.41, 185 35.53 S 188.5 36.38, 190 36.44 S 193.51 36.11, 195 35.92 S 198.5 35.16, 200 35.19 S 203.53 35.85, 205 36.13"
          fill="none"/>
    <circle r="4" cx="5" cy="40" fill="#3023AE"/>
    <circle r="4" cx="205" cy="36.13" fill="#C86DD7"/>      
</svg>