<svg width="200" height="50" viewBox="0 0 210 50" xmlns="http://www.w3.org/2000/svg">
    <defs>
        <linearGradient x1="0%" y1="0%" x2="100%" y2="0%" id="a">
            <stop stop-color="#3023AE" offset="0%"/>
            <stop stop-color="#C86DD7" offset="100%"/>
        </linearGradient>
    </defs>
    <path stroke="url(#a)"
          stroke-width="3"
          stroke-linejoin="round"
          stroke-linecap="round"
          d="M5 40 C 6.5 39.99, 8.5 39.98, 10 39.98 S 13.5 39.99, 15 39.99 S 18.61 40.57, 20 40 S 23.64 36.5, 25 35.87 S 28.52 35.13, 30 35.4 S 34.45 39.07, 35 37.67 S 38.58 10.47, 40 10 S 44.43 32.96, 45 34.35 S 48.51 34.37, 50 34.51 S 53.5 35.2, 55 35.26 S 58.5 34.98, 60 34.9 S 63.51 34.62, 65 34.74 S 68.5 35.72, 70 35.73 S 73.54 35.18, 75 34.83 S 78.5 33.35, 80 33.3 S 83.51 34.31, 85 34.5 S 88.5 34.57, 90 34.58 S 93.5 34.57, 95 34.59 S 98.5 34.8, 100 34.74 S 103.5 34.24, 105 34.16 S 108.5 34.1, 110 34.21 S 113.5 34.87, 115 34.87 S 118.5 34.21, 120 34.22 S 123.5 34.84, 125 34.91 S 128.5 34.76, 130 34.7 S 133.51 34.63, 135 34.49 S 138.5 33.78, 140 33.78 S 143.52 34.23, 145 34.49 S 148.5 35.54, 150 35.54 S 153.51 34.68, 155 34.5 S 158.5 34.25, 160 34.31 S 163.5 34.8, 165 34.88 S 168.5 34.79, 170 34.86 S 173.5 35.23, 175 35.34 S 178.5 35.61, 180 35.62 S 183.5 35.34, 185 35.43 S 188.5 36.18, 190 36.24 S 193.5 35.97, 195 35.85 S 198.5 35.44, 200 35.45 S 203.51 35.8, 205 35.95"
          fill="none"/>
    <circle r="4" cx="5" cy="40" fill="#3023AE"/>
    <circle r="4" cx="205" cy="35.95" fill="#C86DD7"/>      
</svg>