<svg width="200" height="50" viewBox="0 0 210 50" xmlns="http://www.w3.org/2000/svg">
    <defs>
        <linearGradient x1="0%" y1="0%" x2="100%" y2="0%" id="a">
            <stop stop-color="#3023AE" offset="0%"/>
            <stop stop-color="#C86DD7" offset="100%"/>
        </linearGradient>
    </defs>
    <path stroke="url(#a)"
          stroke-width="3"
          stroke-linejoin="round"
          stroke-linecap="round"
          d="M5 40 C 6.5 39.99, 8.5 39.98, 10 39.98 S 13.5 39.99, 15 39.99 S 18.6 40.55, 20 40 S 23.63 36.68, 25 36.08 S 28.52 35.39, 30 35.64 S 34.45 39.19, 35 37.79 S 38.59 10.5, 40 10 S 44.44 32.88, 45 34.27 S 48.52 34.59, 50 34.83 S 53.51 36.08, 55 35.9 S 58.5 33.61, 60 33.61 S 63.53 35.61, 65 35.91 S 68.54 35.99, 70 35.63 S 73.51 33.65, 75 33.45 S 78.51 34.11, 80 34.27 S 83.5 34.46, 85 34.51 S 88.5 34.49, 90 34.59 S 93.5 35.26, 95 35.2 S 98.51 34.33, 100 34.17 S 103.5 34.03, 105 34.14 S 108.5 34.86, 110 34.88 S 113.5 34.25, 115 34.27 S 118.5 34.95, 120 35.03 S 123.5 34.93, 125 34.82 S 128.5 34.44, 130 34.32 S 133.5 33.97, 135 34.05 S 138.52 34.64, 140 34.86 S 143.5 35.57, 145 35.5 S 148.51 34.54, 150 34.39 S 153.5 34.35, 155 34.47 S 158.5 35.11, 160 35.19 S 163.5 34.97, 165 35.03 S 168.5 35.51, 170 35.57 S 173.5 35.34, 175 35.44 S 178.51 36.11, 180 36.24 S 183.5 36.33, 185 36.29 S 188.51 36.1, 190 35.96 S 193.5 35.33, 195 35.38 S 198.52 36.02, 200 36.28 S 203.52 36.87, 205 37.12"
          fill="none"/>
    <circle r="4" cx="5" cy="40" fill="#3023AE"/>
    <circle r="4" cx="205" cy="37.12" fill="#C86DD7"/>      
</svg>