<svg width="200" height="50" viewBox="0 0 210 50" xmlns="http://www.w3.org/2000/svg">
    <defs>
        <linearGradient x1="0%" y1="0%" x2="100%" y2="0%" id="a">
            <stop stop-color="#3023AE" offset="0%"/>
            <stop stop-color="#C86DD7" offset="100%"/>
        </linearGradient>
    </defs>
    <path stroke="url(#a)"
          stroke-width="3"
          stroke-linejoin="round"
          stroke-linecap="round"
          d="M5 40 C 6.5 39.99, 8.5 39.98, 10 39.98 S 13.5 39.99, 15 39.99 S 18.61 40.57, 20 40 S 23.64 36.5, 25 35.87 S 28.52 35.13, 30 35.4 S 34.45 39.07, 35 37.67 S 38.58 10.48, 40 10 S 44.43 32.91, 45 34.3 S 48.51 34.43, 50 34.57 S 53.5 35.23, 55 35.25 S 58.5 34.78, 60 34.72 S 63.51 34.71, 65 34.86 S 68.5 35.74, 70 35.73 S 73.54 35.15, 75 34.8 S 78.5 33.36, 80 33.32 S 83.51 34.31, 85 34.5 S 88.5 34.58, 90 34.59 S 93.5 34.54, 95 34.56 S 98.5 34.79, 100 34.73 S 103.5 34.26, 105 34.17 S 108.5 34.04, 110 34.15 S 113.5 34.87, 115 34.88 S 118.5 34.2, 120 34.21 S 123.5 34.87, 125 34.95 S 128.5 34.83, 130 34.75 S 133.51 34.53, 135 34.39 S 138.5 33.79, 140 33.82 S 143.52 34.35, 145 34.59 S 148.5 35.51, 150 35.47 S 153.51 34.45, 155 34.31 S 158.5 34.43, 160 34.52 S 163.5 34.89, 165 34.94 S 168.5 34.77, 170 34.83 S 173.51 35.2, 175 35.32 S 178.5 35.63, 180 35.65 S 183.5 35.33, 185 35.43 S 188.5 36.23, 190 36.29 S 193.51 35.95, 195 35.83 S 198.5 35.45, 200 35.47 S 203.51 35.81, 205 35.96"
          fill="none"/>
    <circle r="4" cx="5" cy="40" fill="#3023AE"/>
    <circle r="4" cx="205" cy="35.96" fill="#C86DD7"/>      
</svg>