<svg width="200" height="50" viewBox="0 0 210 50" xmlns="http://www.w3.org/2000/svg">
    <defs>
        <linearGradient x1="0%" y1="0%" x2="100%" y2="0%" id="a">
            <stop stop-color="#3023AE" offset="0%"/>
            <stop stop-color="#C86DD7" offset="100%"/>
        </linearGradient>
    </defs>
    <path stroke="url(#a)"
          stroke-width="3"
          stroke-linejoin="round"
          stroke-linecap="round"
          d="M5 40 C 6.5 39.99, 8.5 39.98, 10 39.98 S 13.5 39.99, 15 39.99 S 18.59 40.52, 20 40 S 24.53 37.74, 25 36.32 S 28.53 10.3, 30 10 S 34.41 32.87, 35 34.25 S 38.5 33.46, 40 33.54 S 43.5 34.81, 45 34.79 S 48.5 33.3, 50 33.38 S 53.51 35.17, 55 35.3 S 58.54 34.6, 60 34.24 S 63.5 32.87, 65 32.81 S 68.51 33.7, 70 33.85 S 73.5 33.78, 75 33.8 S 78.5 34.04, 80 34 S 83.5 33.56, 85 33.56 S 88.5 33.95, 90 33.97 S 93.5 33.65, 95 33.71 S 98.5 34.37, 100 34.4 S 103.51 34.07, 105 33.91 S 108.5 33.31, 110 33.31 S 113.52 33.65, 115 33.88 S 118.5 34.91, 120 34.85 S 123.5 33.56, 125 33.47 S 128.51 34.11, 130 34.26 S 133.5 34.35, 135 34.46 S 138.5 34.94, 140 35.01 S 143.51 34.82, 145 34.94 S 148.5 35.72, 150 35.83 S 153.51 35.8, 155 35.67 S 158.5 34.95, 160 34.99 S 163.53 35.65, 165 35.93 S 168.52 36.7, 170 36.92 S 173.5 37.33, 175 37.4 S 178.5 37.54, 180 37.42 S 183.5 36.67, 185 36.59 S 188.5 36.8, 190 36.86 S 193.5 36.9, 195 36.98 S 198.5 37.34, 200 37.42 S 203.5 37.48, 205 37.5"
          fill="none"/>
    <circle r="4" cx="5" cy="40" fill="#3023AE"/>
    <circle r="4" cx="205" cy="37.5" fill="#C86DD7"/>      
</svg>