<svg width="200" height="50" viewBox="0 0 210 50" xmlns="http://www.w3.org/2000/svg">
    <defs>
        <linearGradient x1="0%" y1="0%" x2="100%" y2="0%" id="a">
            <stop stop-color="#3023AE" offset="0%"/>
            <stop stop-color="#C86DD7" offset="100%"/>
        </linearGradient>
    </defs>
    <path stroke="url(#a)"
          stroke-width="3"
          stroke-linejoin="round"
          stroke-linecap="round"
          d="M5 40 C 6.5 39.99, 8.5 39.98, 10 39.98 S 13.5 39.99, 15 39.99 S 18.6 40.55, 20 40 S 23.63 36.65, 25 36.05 S 28.52 35.35, 30 35.6 S 34.45 39.17, 35 37.77 S 38.59 10.5, 40 10 S 44.44 32.81, 45 34.2 S 48.52 34.52, 50 34.76 S 53.51 35.98, 55 35.81 S 58.5 33.58, 60 33.6 S 63.53 35.67, 65 35.96 S 68.52 35.86, 70 35.59 S 73.53 34.43, 75 34.14 S 78.5 33.54, 80 33.6 S 83.51 34.43, 85 34.56 S 88.5 34.42, 90 34.5 S 93.5 35.12, 95 35.1 S 98.51 34.55, 100 34.37 S 103.5 33.82, 105 33.9 S 108.5 34.86, 110 34.92 S 113.5 34.33, 115 34.33 S 118.5 34.84, 120 34.91 S 123.5 34.88, 125 34.82 S 128.51 34.66, 130 34.52 S 133.5 33.85, 135 33.88 S 138.52 34.51, 140 34.75 S 143.5 35.56, 145 35.51 S 148.51 34.55, 150 34.39 S 153.5 34.34, 155 34.46 S 158.5 35.11, 160 35.17 S 163.5 34.79, 165 34.84 S 168.5 35.44, 170 35.53 S 173.5 35.38, 175 35.44 S 178.51 35.81, 180 35.95 S 183.5 36.41, 185 36.41 S 188.51 36.14, 190 35.97 S 193.5 35.19, 195 35.24 S 198.52 36.07, 200 36.29 S 203.51 36.61, 205 36.74"
          fill="none"/>
    <circle r="4" cx="5" cy="40" fill="#3023AE"/>
    <circle r="4" cx="205" cy="36.74" fill="#C86DD7"/>      
</svg>