<svg width="200" height="50" viewBox="0 0 210 50" xmlns="http://www.w3.org/2000/svg">
    <defs>
        <linearGradient x1="0%" y1="0%" x2="100%" y2="0%" id="a">
            <stop stop-color="#3023AE" offset="0%"/>
            <stop stop-color="#C86DD7" offset="100%"/>
        </linearGradient>
    </defs>
    <path stroke="url(#a)"
          stroke-width="3"
          stroke-linejoin="round"
          stroke-linecap="round"
          d="M5 40 C 6.5 39.99, 8.5 39.98, 10 39.98 S 13.5 39.99, 15 39.99 S 18.61 40.56, 20 40 S 23.88 36.97, 25 35.98 S 29.46 32.54, 30 31.14 S 33.52 9.73, 35 10 S 39.43 31.59, 40 32.98 S 43.5 34.28, 45 34.26 S 48.5 32.73, 50 32.82 S 53.51 34.72, 55 34.89 S 58.55 34.38, 60 33.98 S 63.5 32.23, 65 32.12 S 68.51 33.08, 70 33.26 S 73.5 33.26, 75 33.31 S 78.5 33.64, 80 33.58 S 83.5 32.96, 85 32.92 S 88.5 33.23, 90 33.29 S 93.5 33.24, 95 33.31 S 98.5 33.71, 100 33.75 S 103.51 33.77, 105 33.6 S 108.5 32.71, 110 32.63 S 113.53 32.79, 115 33.08 S 118.5 34.62, 120 34.63 S 123.51 33.35, 125 33.18 S 128.5 33.4, 130 33.5 S 133.51 33.69, 135 33.85 S 138.5 34.46, 140 34.56 S 143.5 34.42, 145 34.52 S 148.5 35.15, 150 35.26 S 153.5 35.31, 155 35.23 S 158.5 34.68, 160 34.72 S 163.52 35.24, 165 35.49 S 168.52 36.14, 170 36.38 S 173.5 36.96, 175 37.08 S 178.5 37.23, 180 37.16 S 183.51 36.72, 185 36.6 S 188.5 36.29, 190 36.33 S 193.5 36.78, 195 36.88 S 198.5 36.93, 200 37 S 203.5 37.25, 205 37.35"
          fill="none"/>
    <circle r="4" cx="5" cy="40" fill="#3023AE"/>
    <circle r="4" cx="205" cy="37.35" fill="#C86DD7"/>      
</svg>