<svg width="200" height="50" viewBox="0 0 210 50" xmlns="http://www.w3.org/2000/svg">
    <defs>
        <linearGradient x1="0%" y1="0%" x2="100%" y2="0%" id="a">
            <stop stop-color="#3023AE" offset="0%"/>
            <stop stop-color="#C86DD7" offset="100%"/>
        </linearGradient>
    </defs>
    <path stroke="url(#a)"
          stroke-width="3"
          stroke-linejoin="round"
          stroke-linecap="round"
          d="M5 40 C 6.5 39.99, 8.5 39.98, 10 39.98 S 13.5 39.99, 15 39.99 S 18.61 40.56, 20 40 S 23.63 36.57, 25 35.96 S 28.52 35.25, 30 35.51 S 34.45 39.13, 35 37.73 S 38.59 10.5, 40 10 S 44.44 32.77, 45 34.16 S 48.51 34.52, 50 34.72 S 53.5 35.63, 55 35.51 S 58.5 33.88, 60 33.92 S 63.52 35.51, 65 35.75 S 68.51 35.75, 70 35.57 S 73.53 34.83, 75 34.52 S 78.5 33.48, 80 33.49 S 83.51 34.46, 85 34.6 S 88.5 34.39, 90 34.4 S 93.5 34.65, 95 34.68 S 98.5 34.64, 100 34.57 S 103.5 34.24, 105 34.21 S 108.5 34.33, 110 34.39 S 113.5 34.55, 115 34.58 S 118.5 34.54, 120 34.61 S 123.5 35.09, 125 35.08 S 128.51 34.72, 130 34.55 S 133.5 33.99, 135 33.92 S 138.52 33.83, 140 34.06 S 143.51 35.29, 145 35.5 S 148.52 35.72, 150 35.46 S 153.5 33.83, 155 33.73 S 158.51 34.61, 160 34.8 S 163.5 35, 165 35.03 S 168.5 34.93, 170 35.03 S 173.5 35.66, 175 35.71 S 178.5 35.29, 180 35.37 S 183.5 36.15, 185 36.23 S 188.5 36.02, 190 35.92 S 193.5 35.52, 195 35.54 S 198.5 35.99, 200 36.08 S 203.5 36.13, 205 36.15"
          fill="none"/>
    <circle r="4" cx="5" cy="40" fill="#3023AE"/>
    <circle r="4" cx="205" cy="36.15" fill="#C86DD7"/>      
</svg>