<svg width="200" height="50" viewBox="0 0 210 50" xmlns="http://www.w3.org/2000/svg">
    <defs>
        <linearGradient x1="0%" y1="0%" x2="100%" y2="0%" id="a">
            <stop stop-color="#3023AE" offset="0%"/>
            <stop stop-color="#C86DD7" offset="100%"/>
        </linearGradient>
    </defs>
    <path stroke="url(#a)"
          stroke-width="3"
          stroke-linejoin="round"
          stroke-linecap="round"
          d="M5 40 C 6.5 39.99, 8.5 39.98, 10 39.98 S 13.5 39.99, 15 39.99 S 18.61 40.57, 20 40 S 23.64 36.5, 25 35.88 S 28.52 35.15, 30 35.42 S 34.45 39.08, 35 37.68 S 38.58 10.49, 40 10 S 44.43 32.87, 45 34.26 S 48.51 34.43, 50 34.58 S 53.5 35.31, 55 35.28 S 58.5 34.42, 60 34.4 S 63.51 34.93, 65 35.14 S 68.5 35.86, 70 35.79 S 73.54 35.05, 75 34.7 S 78.5 33.44, 80 33.4 S 83.51 34.26, 85 34.44 S 88.5 34.6, 90 34.62 S 93.5 34.56, 95 34.57 S 98.5 34.73, 100 34.68 S 103.5 34.29, 105 34.22 S 108.5 34.12, 110 34.21 S 113.5 34.79, 115 34.8 S 118.5 34.23, 120 34.26 S 123.5 34.9, 125 34.97 S 128.5 34.84, 130 34.74 S 133.51 34.44, 135 34.31 S 138.5 33.78, 140 33.84 S 143.52 34.5, 145 34.74 S 148.5 35.51, 150 35.44 S 153.51 34.41, 155 34.26 S 158.51 34.31, 160 34.43 S 163.5 35.03, 165 35.08 S 168.5 34.69, 170 34.74 S 173.51 35.3, 175 35.44 S 178.5 35.7, 180 35.69 S 183.5 35.28, 185 35.38 S 188.5 36.32, 190 36.39 S 193.51 36.03, 195 35.87 S 198.5 35.33, 200 35.35 S 203.51 35.8, 205 35.99"
          fill="none"/>
    <circle r="4" cx="5" cy="40" fill="#3023AE"/>
    <circle r="4" cx="205" cy="35.99" fill="#C86DD7"/>      
</svg>