<svg width="200" height="50" viewBox="0 0 210 50" xmlns="http://www.w3.org/2000/svg">
    <defs>
        <linearGradient x1="0%" y1="0%" x2="100%" y2="0%" id="a">
            <stop stop-color="#3023AE" offset="0%"/>
            <stop stop-color="#C86DD7" offset="100%"/>
        </linearGradient>
    </defs>
    <path stroke="url(#a)"
          stroke-width="3"
          stroke-linejoin="round"
          stroke-linecap="round"
          d="M5 40 C 6.49 39.81, 8.5 39.37, 10 39.35 S 13.5 39.77, 15 39.84 S 18.5 39.84, 20 39.84 S 23.5 39.84, 25 39.84 S 28.51 39.96, 30 39.84 S 33.52 39.29, 35 39.02 S 38.5 37.99, 40 38.04 S 43.51 39.16, 45 39.35 S 48.5 39.3, 50 39.35 S 53.5 39.65, 55 39.67 S 58.5 39.63, 60 39.51 S 64.52 40.28, 65 38.86 S 68.53 10.29, 70 10 S 74.52 35.48, 75 36.9 S 78.53 39.22, 80 39.51 S 83.53 39.17, 85 38.86 S 88.51 37.24, 90 37.39 S 93.52 39.62, 95 39.84 S 98.51 39.03, 100 38.86 S 103.52 38.94, 105 38.7 S 108.5 37.11, 110 37.23 S 113.55 39.13, 115 39.51 S 118.53 40.13, 120 39.84 S 123.51 37.7, 125 37.55 S 128.51 38.71, 130 38.86 S 133.5 38.41, 135 38.53 S 138.51 39.52, 140 39.67 S 143.5 39.58, 145 39.51 S 148.5 39.23, 150 39.18 S 153.5 39.2, 155 39.18 S 158.5 38.97, 160 39.02 S 163.5 39.53, 165 39.51 S 168.5 38.84, 170 38.86 S 173.52 39.93, 175 39.67 S 178.5 37.17, 180 37.07 S 183.54 38.66, 185 39.02 S 188.51 39.39, 190 39.51 S 193.5 39.84, 195 39.84 S 198.5 39.58, 200 39.51 S 203.5 39.4, 205 39.35"
          fill="none"/>
    <circle r="4" cx="5" cy="40" fill="#3023AE"/>
    <circle r="4" cx="205" cy="39.35" fill="#C86DD7"/>      
</svg>