<svg width="200" height="50" viewBox="0 0 210 50" xmlns="http://www.w3.org/2000/svg">
    <defs>
        <linearGradient x1="0%" y1="0%" x2="100%" y2="0%" id="a">
            <stop stop-color="#3023AE" offset="0%"/>
            <stop stop-color="#C86DD7" offset="100%"/>
        </linearGradient>
    </defs>
    <path stroke="url(#a)"
          stroke-width="3"
          stroke-linejoin="round"
          stroke-linecap="round"
          d="M5 40 C 6.49 39.85, 8.5 39.5, 10 39.49 S 13.5 39.87, 15 39.94 S 18.5 39.94, 20 39.94 S 23.5 39.94, 25 39.94 S 28.5 39.94, 30 39.94 S 33.5 39.94, 35 39.94 S 38.5 39.95, 40 39.94 S 43.5 39.9, 45 39.87 S 48.5 39.77, 50 39.75 S 53.5 39.75, 55 39.75 S 58.5 39.72, 60 39.75 S 63.5 39.95, 65 39.94 S 68.5 39.7, 70 39.68 S 74.52 41.23, 75 39.81 S 78.57 10.45, 80 10 S 84.52 35.28, 85 36.7 S 88.57 38.86, 90 39.3 S 93.5 39.76, 95 39.75 S 98.5 39.31, 100 39.24 S 103.5 39.3, 105 39.3 S 108.5 39.22, 110 39.24 S 113.5 39.44, 115 39.43 S 118.5 39.21, 120 39.18 S 123.5 39.23, 125 39.24 S 128.5 39.23, 130 39.24 S 133.5 39.37, 135 39.3 S 138.5 38.86, 140 38.79 S 143.5 38.83, 145 38.86 S 148.5 39.06, 150 38.99 S 153.5 38.41, 155 38.41 S 158.5 38.93, 160 38.99 S 163.5 38.82, 165 38.79 S 168.5 38.83, 170 38.79 S 173.5 38.54, 175 38.54 S 178.5 38.78, 180 38.79 S 183.5 38.61, 185 38.6 S 188.5 38.76, 190 38.73 S 193.5 38.41, 195 38.41 S 198.5 38.7, 200 38.73 S 203.5 38.64, 205 38.6"
          fill="none"/>
    <circle r="4" cx="5" cy="40" fill="#3023AE"/>
    <circle r="4" cx="205" cy="38.6" fill="#C86DD7"/>      
</svg>