<svg width="200" height="50" viewBox="0 0 210 50" xmlns="http://www.w3.org/2000/svg">
    <defs>
        <linearGradient x1="0%" y1="0%" x2="100%" y2="0%" id="a">
            <stop stop-color="#3023AE" offset="0%"/>
            <stop stop-color="#C86DD7" offset="100%"/>
        </linearGradient>
    </defs>
    <path stroke="url(#a)"
          stroke-width="3"
          stroke-linejoin="round"
          stroke-linecap="round"
          d="M5 40 C 6.5 39.98, 8.5 39.94, 10 39.94 S 13.5 39.99, 15 40 S 18.5 40, 20 40 S 23.5 40, 25 40 S 28.5 40, 30 40 S 34.53 41.42, 35 40 S 39.19 11.26, 40 10 S 44.36 23.11, 45 24.47 S 48.94 30.08, 50 31.14 S 53.67 33.69, 55 34.39 S 58.52 36.19, 60 36.44 S 63.52 36.28, 65 36.06 S 68.5 35, 70 34.93 S 73.5 35.57, 75 35.62 S 78.53 34.94, 80 35.26 S 83.56 37.37, 85 37.8 S 88.51 38.12, 90 38.28 S 93.5 38.8, 95 38.84 S 98.5 38.58, 100 38.53 S 103.5 38.52, 105 38.52 S 108.5 38.53, 110 38.56 S 113.5 38.69, 115 38.72 S 118.5 38.71, 120 38.75 S 123.5 38.9, 125 38.96 S 128.5 39.13, 130 39.13 S 133.5 38.98, 135 38.99 S 138.5 39.17, 140 39.18 S 143.5 39.09, 145 39.05 S 148.5 38.91, 150 38.91 S 153.5 39, 155 39.05 S 158.5 39.2, 160 39.22 S 163.5 39.18, 165 39.19 S 168.5 39.27, 170 39.28 S 173.5 39.24, 175 39.23 S 178.5 39.17, 180 39.19 S 183.5 39.48, 185 39.36 S 188.5 38.48, 190 38.41 S 193.5 38.82, 195 38.91 S 198.5 39.04, 200 38.99 S 203.5 38.71, 205 38.59"
          fill="none"/>
    <circle r="4" cx="5" cy="40" fill="#3023AE"/>
    <circle r="4" cx="205" cy="38.59" fill="#C86DD7"/>      
</svg>