<svg width="200" height="50" viewBox="0 0 210 50" xmlns="http://www.w3.org/2000/svg">
    <defs>
        <linearGradient x1="0%" y1="0%" x2="100%" y2="0%" id="a">
            <stop stop-color="#3023AE" offset="0%"/>
            <stop stop-color="#C86DD7" offset="100%"/>
        </linearGradient>
    </defs>
    <path stroke="url(#a)"
          stroke-width="3"
          stroke-linejoin="round"
          stroke-linecap="round"
          d="M5 40 C 6.5 39.99, 8.5 39.95, 10 39.95 S 13.5 39.99, 15 40 S 18.5 40, 20 40 S 23.5 40, 25 40 S 28.5 40, 30 40 S 33.5 40, 35 40 S 38.5 40, 40 40 S 44.53 41.42, 45 40 S 49.13 11.22, 50 10 S 54.41 24.61, 55 25.99 S 58.7 32.41, 60 33.16 S 63.56 31.31, 65 31.74 S 68.67 35.47, 70 36.17 S 73.5 36.93, 75 37.04 S 78.51 37.11, 80 36.92 S 83.5 35.85, 85 35.79 S 88.5 36.47, 90 36.54 S 93.5 36.25, 95 36.23 S 98.51 36.19, 100 36.39 S 103.53 37.29, 105 37.56 S 108.51 38.1, 110 38.25 S 113.5 38.45, 115 38.56 S 118.5 38.96, 120 38.98 S 123.5 38.67, 125 38.68 S 128.5 39.07, 130 39.08 S 133.5 38.81, 135 38.77 S 138.5 38.78, 140 38.79 S 143.5 38.8, 145 38.84 S 148.5 39.02, 150 39.06 S 153.5 39.11, 155 39.12 S 158.5 39.09, 160 39.13 S 163.5 39.38, 165 39.38 S 168.5 39.17, 170 39.14 S 173.5 39.16, 175 39.18 S 178.5 39.29, 180 39.3 S 183.5 39.25, 185 39.23 S 188.5 39.2, 190 39.17 S 193.5 39.04, 195 39.06 S 198.5 39.25, 200 39.29 S 203.5 39.33, 205 39.35"
          fill="none"/>
    <circle r="4" cx="5" cy="40" fill="#3023AE"/>
    <circle r="4" cx="205" cy="39.35" fill="#C86DD7"/>      
</svg>