<svg width="200" height="50" viewBox="0 0 210 50" xmlns="http://www.w3.org/2000/svg">
    <defs>
        <linearGradient x1="0%" y1="0%" x2="100%" y2="0%" id="a">
            <stop stop-color="#3023AE" offset="0%"/>
            <stop stop-color="#C86DD7" offset="100%"/>
        </linearGradient>
    </defs>
    <path stroke="url(#a)"
          stroke-width="3"
          stroke-linejoin="round"
          stroke-linecap="round"
          d="M5 40 C 5.73 38.69, 8.52 31.22, 10 31 S 13.8 37.6, 15 38.5 S 18.5 38.5, 20 38.5 S 23.5 38.5, 25 38.5 S 28.5 38.5, 30 38.5 S 33.5 38.5, 35 38.5 S 38.5 38.5, 40 38.5 S 43.5 38.5, 45 38.5 S 48.5 38.5, 50 38.5 S 53.71 39.27, 55 38.5 S 58.52 32.72, 60 32.5 S 63.5 37, 65 37 S 68.52 32.28, 70 32.5 S 73.71 37.73, 75 38.5 S 78.56 38.93, 80 38.5 S 83.56 35.93, 85 35.5 S 88.52 35.72, 90 35.5 S 93.56 33.57, 95 34 S 98.5 38.5, 100 38.5 S 103.63 34.62, 105 34 S 108.63 34.62, 110 34 S 113.52 29.72, 115 29.5 S 119.32 33.83, 120 32.5 S 123.5 10, 125 10 S 129.42 31.12, 130 32.5 S 133.52 33.78, 135 34 S 138.56 34.43, 140 34 S 143.71 31.77, 145 31 S 148.52 27.78, 150 28 S 153.71 33.27, 155 32.5 S 158.63 22.62, 160 22 S 163.5 28, 165 28 S 168.56 21.57, 170 22 S 173.8 30.1, 175 31 S 178.8 30.4, 180 29.5 S 183.63 24.12, 185 23.5 S 188.71 24.23, 190 25 S 193.63 30.12, 195 29.5 S 198.97 21.59, 200 20.5 S 203.56 19.43, 205 19"
          fill="none"/>
    <circle r="4" cx="5" cy="40" fill="#3023AE"/>
    <circle r="4" cx="205" cy="19" fill="#C86DD7"/>      
</svg>