<svg width="200" height="50" viewBox="0 0 210 50" xmlns="http://www.w3.org/2000/svg">
    <defs>
        <linearGradient x1="0%" y1="0%" x2="100%" y2="0%" id="a">
            <stop stop-color="#3023AE" offset="0%"/>
            <stop stop-color="#C86DD7" offset="100%"/>
        </linearGradient>
    </defs>
    <path stroke="url(#a)"
          stroke-width="3"
          stroke-linejoin="round"
          stroke-linecap="round"
          d="M5 40 C 6.5 39.9, 8.54 40.01, 10 39.65 S 13.5 37.58, 15 37.53 S 18.53 38.98, 20 39.29 S 23.5 39.6, 25 39.65 S 28.5 39.76, 30 39.65 S 34.52 40.36, 35 38.94 S 38.51 10.16, 40 10 S 44.45 36.48, 45 37.88 S 48.52 35.15, 50 35.41 S 53.6 39.11, 55 39.65 S 58.5 39.29, 60 39.29 S 63.5 39.6, 65 39.65 S 68.5 39.65, 70 39.65 S 73.5 39.76, 75 39.65 S 78.5 38.94, 80 38.94 S 83.5 39.54, 85 39.65 S 88.5 39.65, 90 39.65 S 93.5 39.65, 95 39.65 S 98.5 39.65, 100 39.65 S 103.5 39.65, 105 39.65 S 108.5 39.65, 110 39.65 S 113.5 39.65, 115 39.65 S 118.5 39.65, 120 39.65 S 123.5 39.65, 125 39.65 S 128.5 39.65, 130 39.65 S 133.5 39.65, 135 39.65 S 138.5 39.65, 140 39.65 S 143.5 39.65, 145 39.65 S 148.5 39.65, 150 39.65 S 153.5 39.65, 155 39.65 S 158.5 39.65, 160 39.65 S 163.5 39.65, 165 39.65 S 168.5 39.65, 170 39.65 S 173.5 39.65, 175 39.65 S 178.5 39.65, 180 39.65 S 183.5 39.65, 185 39.65 S 188.5 39.65, 190 39.65 S 193.5 39.7, 195 39.65 S 198.5 39.4, 200 39.29"
          fill="none"/>
    <circle r="4" cx="5" cy="40" fill="#3023AE"/>
    <circle r="4" cx="200" cy="39.29" fill="#C86DD7"/>      
</svg>