<svg width="200" height="50" viewBox="0 0 210 50" xmlns="http://www.w3.org/2000/svg">
    <defs>
        <linearGradient x1="0%" y1="0%" x2="100%" y2="0%" id="a">
            <stop stop-color="#3023AE" offset="0%"/>
            <stop stop-color="#C86DD7" offset="100%"/>
        </linearGradient>
    </defs>
    <path stroke="url(#a)"
          stroke-width="3"
          stroke-linejoin="round"
          stroke-linecap="round"
          d="M5 40 C 5.25 38.52, 8.8 10.9, 10 10 S 14.36 31.15, 15 32.5 S 18.52 31.22, 20 31 S 23.63 31.62, 25 31 S 28.8 25.6, 30 26.5 S 33.63 37.88, 35 38.5 S 38.56 31.43, 40 31 S 43.8 34.6, 45 35.5 S 48.52 38.72, 50 38.5 S 53.63 34.62, 55 34 S 58.52 34.22, 60 34 S 63.97 33.59, 65 32.5 S 68.56 23.07, 70 23.5 S 73.89 34.5, 75 35.5 S 78.63 33.12, 80 32.5 S 83.52 30.78, 85 31 S 88.63 33.38, 90 34 S 93.63 34.88, 95 35.5 S 98.63 39.12, 100 38.5 S 103.71 31.77, 105 31 S 108.52 32.72, 110 32.5 S 113.71 28.73, 115 29.5 S 118.89 37.5, 120 38.5 S 123.71 39.27, 125 38.5 S 128.63 33.12, 130 32.5 S 133.63 33.38, 135 34 S 138.56 36.57, 140 37 S 143.5 37, 145 37 S 148.56 37.43, 150 37 S 153.63 34.62, 155 34 S 158.63 33.12, 160 32.5 S 163.71 28.73, 165 29.5 S 168.56 38.07, 170 38.5 S 173.52 32.72, 175 32.5 S 178.63 36.38, 180 37 S 183.71 37.77, 185 37 S 188.56 31.43, 190 31 S 193.71 33.23, 195 34 S 198.52 36.78, 200 37 S 203.56 35.93, 205 35.5"
          fill="none"/>
    <circle r="4" cx="5" cy="40" fill="#3023AE"/>
    <circle r="4" cx="205" cy="35.5" fill="#C86DD7"/>      
</svg>