<svg width="200" height="50" viewBox="0 0 210 50" xmlns="http://www.w3.org/2000/svg">
    <defs>
        <linearGradient x1="0%" y1="0%" x2="100%" y2="0%" id="a">
            <stop stop-color="#3023AE" offset="0%"/>
            <stop stop-color="#C86DD7" offset="100%"/>
        </linearGradient>
    </defs>
    <path stroke="url(#a)"
          stroke-width="3"
          stroke-linejoin="round"
          stroke-linecap="round"
          d="M5 40 C 5.25 38.52, 8.69 10.73, 10 10 S 14.47 32.99, 15 34.39 S 18.52 36.47, 20 36.71 S 23.5 36.06, 25 35.99 S 28.53 36.57, 30 36.26 S 33.5 33.91, 35 33.86 S 38.56 35.48, 40 35.91 S 43.51 36.7, 45 36.88 S 48.5 37.2, 50 37.15 S 53.5 36.49, 55 36.53 S 58.51 37.21, 60 37.42 S 63.54 37.62, 65 37.95 S 68.52 39.43, 70 39.64 S 73.52 39.6, 75 39.38 S 78.55 38.5, 80 38.13 S 83.51 36.96, 85 36.8 S 88.5 37.14, 90 37.06 S 93.5 36.29, 95 36.26 S 98.52 36.62, 100 36.88 S 103.5 38.09, 105 38.04 S 108.54 36.87, 110 36.53 S 113.5 35.73, 115 35.73 S 118.5 36.6, 120 36.53 S 123.5 35.32, 125 35.28 S 128.53 35.97, 130 36.26 S 133.5 37.23, 135 37.24 S 138.5 36.46, 140 36.35 S 143.5 36.48, 145 36.53 S 148.5 36.71, 150 36.71 S 153.51 36.7, 155 36.53 S 158.5 35.56, 160 35.55 S 163.5 36.37, 165 36.44 S 168.5 35.91, 170 35.99 S 173.5 37.04, 175 36.97 S 178.5 35.66, 180 35.55 S 183.52 36.04, 185 36.26 S 188.52 37.3, 190 37.06 S 193.53 34.94, 195 34.66 S 198.54 35.52, 200 35.19 S 203.69 33.15, 205 32.43"
          fill="none"/>
    <circle r="4" cx="5" cy="40" fill="#3023AE"/>
    <circle r="4" cx="205" cy="32.43" fill="#C86DD7"/>      
</svg>