<svg width="200" height="50" viewBox="0 0 210 50" xmlns="http://www.w3.org/2000/svg">
    <defs>
        <linearGradient x1="0%" y1="0%" x2="100%" y2="0%" id="a">
            <stop stop-color="#3023AE" offset="0%"/>
            <stop stop-color="#C86DD7" offset="100%"/>
        </linearGradient>
    </defs>
    <path stroke="url(#a)"
          stroke-width="3"
          stroke-linejoin="round"
          stroke-linecap="round"
          d="M5 40 C 5.25 38.52, 8.6 10.55, 10 10 S 14.47 34.66, 15 36.06 S 18.5 36.5, 20 36.44 S 23.5 35.67, 25 35.67 S 28.51 36.32, 30 36.45 S 33.5 36.54, 35 36.56 S 38.51 36.46, 40 36.59 S 43.5 37.36, 45 37.4 S 48.5 36.8, 50 36.83 S 53.5 37.56, 55 37.63 S 58.5 37.33, 60 37.3 S 63.5 37.45, 65 37.45 S 68.5 37.41, 70 37.29 S 73.5 36.65, 75 36.64 S 78.51 37.42, 80 37.24 S 83.5 35.45, 85 35.41 S 88.51 36.78, 90 36.97 S 93.5 36.75, 95 36.72 S 98.5 36.79, 100 36.79 S 103.5 36.76, 105 36.72 S 108.5 36.57, 110 36.5 S 113.5 36.23, 115 36.24 S 118.5 36.55, 120 36.58 S 123.5 36.55, 125 36.46 S 128.5 36, 130 35.98 S 133.5 36.24, 135 36.3 S 138.5 36.31, 140 36.38 S 143.5 36.76, 145 36.77 S 148.5 36.46, 150 36.44 S 153.5 36.62, 155 36.65 S 158.5 36.77, 160 36.66 S 163.5 35.99, 165 35.89 S 168.51 35.85, 170 35.98 S 173.51 36.64, 175 36.77 S 178.5 36.81, 180 36.85 S 183.5 37.01, 185 37.02 S 188.5 36.94, 190 36.94 S 193.5 37.05, 195 37.01 S 198.51 36.84, 200 36.69 S 203.51 36.21, 205 36"
          fill="none"/>
    <circle r="4" cx="5" cy="40" fill="#3023AE"/>
    <circle r="4" cx="205" cy="36" fill="#C86DD7"/>      
</svg>