<svg width="200" height="50" viewBox="0 0 210 50" xmlns="http://www.w3.org/2000/svg">
    <defs>
        <linearGradient x1="0%" y1="0%" x2="100%" y2="0%" id="a">
            <stop stop-color="#3023AE" offset="0%"/>
            <stop stop-color="#C86DD7" offset="100%"/>
        </linearGradient>
    </defs>
    <path stroke="url(#a)"
          stroke-width="3"
          stroke-linejoin="round"
          stroke-linecap="round"
          d="M5 40 C 5.25 38.52, 9.14 11.23, 10 10 S 14.45 24.19, 15 25.59 S 18.97 34.28, 20 35.37 S 23.59 35.61, 25 36.12 S 28.55 38.62, 30 38.99 S 33.5 38.71, 35 38.67 S 38.5 38.69, 40 38.7 S 43.5 38.7, 45 38.75 S 48.52 39.26, 50 39.04 S 53.55 37.7, 55 37.3 S 58.52 36.05, 60 36.27 S 63.55 38.41, 65 38.8 S 68.5 38.92, 70 38.96 S 73.5 39.06, 75 39.04 S 78.5 38.84, 80 38.8 S 83.5 38.71, 85 38.8 S 88.51 39.23, 90 39.37 S 93.5 39.72, 95 39.76 S 98.5 39.69, 100 39.66 S 103.5 39.63, 105 39.57 S 108.5 39.36, 110 39.25 S 113.5 38.81, 115 38.84 S 118.5 39.56, 120 39.47 S 123.5 38.24, 125 38.24 S 128.51 39.34, 130 39.47 S 133.5 39.05, 135 39.08 S 138.53 39.96, 140 39.69 S 143.5 37.3, 145 37.23 S 148.53 38.97, 150 39.25 S 153.5 39.1, 155 39.11 S 158.5 39.3, 160 39.35 S 163.5 39.5, 165 39.47 S 168.5 39.17, 170 39.16 S 173.5 39.33, 175 39.37 S 178.5 39.42, 180 39.45 S 183.5 39.59, 185 39.59 S 188.5 39.42, 190 39.42 S 193.5 39.63, 195 39.59 S 198.5 39.24, 200 39.16 S 203.5 39.09, 205 39.06"
          fill="none"/>
    <circle r="4" cx="5" cy="40" fill="#3023AE"/>
    <circle r="4" cx="205" cy="39.06" fill="#C86DD7"/>      
</svg>