<svg width="200" height="50" viewBox="0 0 210 50" xmlns="http://www.w3.org/2000/svg">
    <defs>
        <linearGradient x1="0%" y1="0%" x2="100%" y2="0%" id="a">
            <stop stop-color="#3023AE" offset="0%"/>
            <stop stop-color="#C86DD7" offset="100%"/>
        </linearGradient>
    </defs>
    <path stroke="url(#a)"
          stroke-width="3"
          stroke-linejoin="round"
          stroke-linecap="round"
          d="M5 40 C 5.95 38.84, 8.51 33.96, 10 33.84 S 13.62 38.58, 15 39.17 S 18.5 38.18, 20 38.16 S 23.51 38.87, 25 39.01 S 28.5 39.07, 30 39.11 S 33.5 39.22, 35 39.26 S 39.51 40.81, 40 39.39 S 43.57 10.47, 45 10 S 49.5 34.71, 50 36.12 S 53.5 38.41, 55 38.37 S 58.5 35.92, 60 35.88 S 63.51 37.98, 65 38.13 S 68.5 36.84, 70 36.87 S 73.51 38.12, 75 38.31 S 78.5 38.18, 80 38.13 S 83.5 37.91, 85 37.97 S 88.5 38.48, 90 38.51 S 93.5 38.14, 95 38.14 S 98.5 38.48, 100 38.51 S 103.5 38.31, 105 38.31 S 109.01 39.65, 110 38.53 S 113.5 27.02, 115 27 S 119.02 37.27, 120 38.4 S 123.5 38.43, 125 38.5 S 128.5 38.91, 130 38.86 S 133.5 38.17, 135 38.14 S 138.5 38.59, 140 38.63 S 143.5 38.41, 145 38.43 S 148.5 38.72, 150 38.77 S 153.51 38.9, 155 38.74 S 158.5 37.71, 160 37.7 S 163.51 38.43, 165 38.64 S 168.5 39.08, 170 39.11 S 173.5 38.87, 175 38.86 S 178.5 39.03, 180 39.01 S 183.5 38.71, 185 38.7 S 188.5 38.96, 190 38.96 S 193.5 38.69, 195 38.67 S 198.5 38.82, 200 38.83 S 203.5 38.76, 205 38.73"
          fill="none"/>
    <circle r="4" cx="5" cy="40" fill="#3023AE"/>
    <circle r="4" cx="205" cy="38.73" fill="#C86DD7"/>      
</svg>