<svg width="200" height="50" viewBox="0 0 210 50" xmlns="http://www.w3.org/2000/svg">
    <defs>
        <linearGradient x1="0%" y1="0%" x2="100%" y2="0%" id="a">
            <stop stop-color="#3023AE" offset="0%"/>
            <stop stop-color="#C86DD7" offset="100%"/>
        </linearGradient>
    </defs>
    <path stroke="url(#a)"
          stroke-width="3"
          stroke-linejoin="round"
          stroke-linecap="round"
          d="M5 40 C 5.25 38.52, 8.6 10.55, 10 10 S 14.43 34.66, 15 36.05 S 18.5 34.47, 20 34.47 S 23.5 36.17, 25 36.05 S 28.54 33.33, 30 33.68 S 33.54 38.07, 35 38.42 S 38.5 36.17, 40 36.05 S 43.5 37.51, 45 37.63 S 48.52 37.07, 50 36.84 S 53.52 35.82, 55 36.05 S 58.54 38.07, 60 38.42 S 63.5 38.54, 65 38.42 S 69.17 38.88, 70 37.63 S 73.5 23.42, 75 23.42 S 79.07 36.45, 80 37.63 S 83.5 36.17, 85 36.05 S 88.5 36.72, 90 36.84 S 93.5 36.84, 95 36.84 S 98.5 36.72, 100 36.84 S 103.52 37.4, 105 37.63 S 109.17 39.67, 110 38.42 S 113.54 22.98, 115 22.63 S 119.07 34.87, 120 36.05 S 123.5 35.38, 125 35.26 S 128.54 34.91, 130 35.26 S 133.57 37.18, 135 37.63 S 138.52 38.19, 140 38.42 S 143.5 39.09, 145 39.21 S 148.57 39.66, 150 39.21 S 153.6 36.6, 155 36.05 S 159.23 36.54, 160 35.26 S 163.54 19.12, 165 19.47 S 169.28 36.32, 170 37.63 S 173.54 37.98, 175 37.63 S 178.52 35.49, 180 35.26 S 183.5 36.05, 185 36.05 S 188.52 35.03, 190 35.26 S 193.5 37.51, 195 37.63 S 198.5 36.17, 200 36.05 S 203.52 36.61, 205 36.84"
          fill="none"/>
    <circle r="4" cx="5" cy="40" fill="#3023AE"/>
    <circle r="4" cx="205" cy="36.84" fill="#C86DD7"/>      
</svg>