<svg width="200" height="50" viewBox="0 0 210 50" xmlns="http://www.w3.org/2000/svg">
    <defs>
        <linearGradient x1="0%" y1="0%" x2="100%" y2="0%" id="a">
            <stop stop-color="#3023AE" offset="0%"/>
            <stop stop-color="#C86DD7" offset="100%"/>
        </linearGradient>
    </defs>
    <path stroke="url(#a)"
          stroke-width="3"
          stroke-linejoin="round"
          stroke-linecap="round"
          d="M5 40 C 5.33 38.54, 8.6 18.03, 10 17.5 S 13.8 37.15, 15 36.25 S 19.17 11.25, 20 10 S 24.47 19.85, 25 21.25 S 28.5 36.25, 30 36.25 S 34.17 22.5, 35 21.25 S 39.17 20, 40 21.25 S 44 35.13, 45 36.25 S 49.17 33.75, 50 32.5 S 53.5 21.25, 55 21.25 S 58.6 31.97, 60 32.5 S 63.8 25.9, 65 25 S 69 23.88, 70 25 S 73.6 35.72, 75 36.25 S 78.8 29.65, 80 28.75 S 83.6 29.28, 85 28.75 S 89 26.12, 90 25 S 93.6 16.97, 95 17.5 S 98.8 27.85, 100 28.75 S 103.6 24.47, 105 25 S 108.8 31.6, 110 32.5 S 113.6 31.97, 115 32.5 S 118.5 36.25, 120 36.25 S 123.8 33.4, 125 32.5 S 128.8 29.65, 130 28.75 S 133.6 24.47, 135 25 S 139 31.38, 140 32.5 S 143.6 36.78, 145 36.25 S 149 29.87, 150 28.75 S 153.5 25, 155 25 S 159 27.63, 160 28.75 S 163.5 36.25, 165 36.25 S 168.5 28.75, 170 28.75 S 174.17 37.5, 175 36.25 S 178.8 14.65, 180 13.75 S 184.17 27.5, 185 28.75 S 188.8 27.85, 190 28.75 S 193.6 36.78, 195 36.25 S 198.8 25.9, 200 25 S 203.8 27.85, 205 28.75"
          fill="none"/>
    <circle r="4" cx="5" cy="40" fill="#3023AE"/>
    <circle r="4" cx="205" cy="28.75" fill="#C86DD7"/>      
</svg>