<svg width="200" height="50" viewBox="0 0 210 50" xmlns="http://www.w3.org/2000/svg">
    <defs>
        <linearGradient x1="0%" y1="0%" x2="100%" y2="0%" id="a">
            <stop stop-color="#3023AE" offset="0%"/>
            <stop stop-color="#C86DD7" offset="100%"/>
        </linearGradient>
    </defs>
    <path stroke="url(#a)"
          stroke-width="3"
          stroke-linejoin="round"
          stroke-linecap="round"
          d="M5 40 C 5.25 38.52, 8.53 10.29, 10 10 S 14.51 36.61, 15 38.03 S 18.52 38.74, 20 38.96 S 23.5 39.47, 25 39.54 S 28.5 39.37, 30 39.42 S 33.5 39.83, 35 39.88 S 38.5 39.8, 40 39.77 S 43.5 39.63, 45 39.65 S 48.5 39.85, 50 39.88 S 53.5 39.88, 55 39.88 S 58.5 39.88, 60 39.88 S 63.5 39.88, 65 39.88 S 68.5 39.88, 70 39.88 S 73.5 39.88, 75 39.88 S 78.5 39.88, 80 39.88 S 83.5 39.88, 85 39.88 S 88.5 39.88, 90 39.88 S 93.5 39.88, 95 39.88 S 98.5 39.88, 100 39.88 S 103.5 39.88, 105 39.88 S 108.5 39.88, 110 39.88 S 113.5 39.88, 115 39.88"
          fill="none"/>
    <circle r="4" cx="5" cy="40" fill="#3023AE"/>
    <circle r="4" cx="115" cy="39.88" fill="#C86DD7"/>      
</svg>