<svg width="200" height="50" viewBox="0 0 210 50" xmlns="http://www.w3.org/2000/svg">
    <defs>
        <linearGradient x1="0%" y1="0%" x2="100%" y2="0%" id="a">
            <stop stop-color="#3023AE" offset="0%"/>
            <stop stop-color="#C86DD7" offset="100%"/>
        </linearGradient>
    </defs>
    <path stroke="url(#a)"
          stroke-width="3"
          stroke-linejoin="round"
          stroke-linecap="round"
          d="M5 40 C 6.02 38.9, 9.32 35.98, 10 34.64 S 13.52 20.15, 15 20.36 S 19.15 34.83, 20 36.07 S 23.59 35.5, 25 35 S 28.5 32.61, 30 32.5 S 33.6 33.74, 35 34.29 S 38.5 36.54, 40 36.43 S 43.52 33.83, 45 33.57 S 48.52 34.85, 50 34.64 S 53.51 32.3, 55 32.14 S 59.22 34.85, 60 33.57 S 63.5 15.82, 65 15.71 S 69.29 31.54, 70 32.86 S 73.5 34.34, 75 34.29 S 78.5 32.61, 80 32.5 S 83.76 34.41, 85 33.57 S 88.86 26.69, 90 25.71 S 93.72 24.22, 95 25 S 98.72 31.01, 100 31.79 S 103.76 31.91, 105 31.07 S 109.15 26.24, 110 25 S 113.52 16.69, 115 16.43 S 119.08 22.03, 120 23.21 S 123.74 28.48, 125 29.29 S 128.64 30.27, 130 29.64 S 133.7 25.38, 135 24.64 S 138.59 24.43, 140 23.93 S 144.13 22.29, 145 21.07 S 148.66 9.33, 150 10 S 153.66 25.4, 155 26.07 S 158.52 15.21, 160 15 S 163.57 24.18, 165 24.64 S 168.52 18.47, 170 18.21 S 173.51 23.02, 175 22.86 S 179.01 18.27, 180 17.14 S 183.66 10.76, 185 11.43 S 188.57 21.68, 190 22.14 S 193.57 15.1, 195 14.64 S 198.59 19.43, 200 18.93 S 204.19 12.34, 205 11.07"
          fill="none"/>
    <circle r="4" cx="5" cy="40" fill="#3023AE"/>
    <circle r="4" cx="205" cy="11.07" fill="#C86DD7"/>      
</svg>