<svg width="200" height="50" viewBox="0 0 210 50" xmlns="http://www.w3.org/2000/svg">
    <defs>
        <linearGradient x1="0%" y1="0%" x2="100%" y2="0%" id="a">
            <stop stop-color="#3023AE" offset="0%"/>
            <stop stop-color="#C86DD7" offset="100%"/>
        </linearGradient>
    </defs>
    <path stroke="url(#a)"
          stroke-width="3"
          stroke-linejoin="round"
          stroke-linecap="round"
          d="M5 40 C 5.91 38.81, 8.89 34.49, 10 33.48 S 13.6 30.32, 15 30.87 S 18.82 36.47, 20 37.39 S 23.5 38.7, 25 38.7 S 28.51 37.58, 30 37.39 S 33.82 38.31, 35 37.39 S 38.55 29.95, 40 29.57 S 43.89 33.77, 45 34.78 S 48.55 38.32, 50 38.7 S 53.51 37.58, 55 37.39 S 58.51 37.58, 60 37.39 S 63.6 36.64, 65 36.09 S 68.74 34.3, 70 33.48 S 73.55 29.95, 75 29.57 S 78.6 30.32, 80 30.87 S 83.55 33.1, 85 33.48 S 88.51 33.67, 90 33.48 S 93.51 32.36, 95 32.17 S 99.38 33.54, 100 32.17 S 103.55 9.62, 105 10 S 109.38 33.41, 110 34.78 S 113.5 32.17, 115 32.17 S 118.55 34.4, 120 34.78 S 123.51 34.59, 125 34.78 S 128.55 36.47, 130 36.09 S 133.51 31.98, 135 32.17 S 138.55 37.01, 140 37.39 S 143.55 35.16, 145 34.78 S 148.55 35.16, 150 34.78 S 153.74 32.99, 155 32.17 S 158.5 28.26, 160 28.26 S 163.6 31.62, 165 32.17 S 168.5 32.17, 170 32.17 S 173.55 32.55, 175 32.17 S 178.67 30.26, 180 29.57 S 183.6 27.51, 185 26.96 S 188.74 24.83, 190 25.65 S 193.51 33.67, 195 33.48 S 198.51 24.54, 200 24.35 S 204.19 30.91, 205 32.17"
          fill="none"/>
    <circle r="4" cx="5" cy="40" fill="#3023AE"/>
    <circle r="4" cx="205" cy="32.17" fill="#C86DD7"/>      
</svg>