<svg width="200" height="50" viewBox="0 0 210 50" xmlns="http://www.w3.org/2000/svg">
    <defs>
        <linearGradient x1="0%" y1="0%" x2="100%" y2="0%" id="a">
            <stop stop-color="#3023AE" offset="0%"/>
            <stop stop-color="#C86DD7" offset="100%"/>
        </linearGradient>
    </defs>
    <path stroke="url(#a)"
          stroke-width="3"
          stroke-linejoin="round"
          stroke-linecap="round"
          d="M5 40 C 5.25 38.52, 8.51 10.16, 10 10 S 14.51 37.54, 15 38.96 S 18.5 38.96, 20 38.97 S 23.5 39.05, 25 39 S 28.5 38.65, 30 38.63 S 33.5 38.82, 35 38.85 S 38.5 38.93, 40 38.84 S 43.5 38.29, 45 38.26 S 48.5 38.54, 50 38.61 S 53.5 38.75, 55 38.76 S 58.5 38.74, 60 38.69 S 63.5 38.47, 65 38.43 S 68.5 38.43, 70 38.44 S 73.5 38.48, 75 38.47 S 78.5 38.35, 80 38.34 S 83.5 38.37, 85 38.38 S 88.5 38.45, 90 38.43 S 93.5 38.27, 95 38.23 S 98.5 38.2, 100 38.17 S 103.5 38.03, 105 38.02 S 108.5 38.07, 110 38.1 S 113.5 38.2, 115 38.19 S 118.5 38.01, 120 38.05 S 123.5 38.43, 125 38.46 S 128.5 38.3, 130 38.28 S 133.5 38.32, 135 38.34 S 138.5 38.49, 140 38.44 S 143.5 38.07, 145 37.98 S 148.5 37.88, 150 37.81 S 153.5 37.45, 155 37.48 S 158.5 37.89, 160 37.99 S 163.5 38.21, 165 38.16 S 168.5 37.67, 170 37.67 S 173.5 38.17, 175 38.17 S 178.5 37.76, 180 37.66 S 183.5 37.5, 185 37.49 S 188.5 37.49, 190 37.57 S 193.5 37.92, 195 38.02 S 198.5 38.21, 200 38.22 S 203.5 38.14, 205 38.1"
          fill="none"/>
    <circle r="4" cx="5" cy="40" fill="#3023AE"/>
    <circle r="4" cx="205" cy="38.1" fill="#C86DD7"/>      
</svg>