<svg width="200" height="50" viewBox="0 0 210 50" xmlns="http://www.w3.org/2000/svg">
    <defs>
        <linearGradient x1="0%" y1="0%" x2="100%" y2="0%" id="a">
            <stop stop-color="#3023AE" offset="0%"/>
            <stop stop-color="#C86DD7" offset="100%"/>
        </linearGradient>
    </defs>
    <path stroke="url(#a)"
          stroke-width="3"
          stroke-linejoin="round"
          stroke-linecap="round"
          d="M5 40 C 5.42 38.56, 9.08 24.04, 10 22.86 S 13.86 26.16, 15 27.14 S 18.5 31.43, 20 31.43 S 23.62 26.55, 25 27.14 S 28.86 34.73, 30 35.71 S 33.62 36.3, 35 35.71 S 39.24 32.73, 40 31.43 S 43.62 17.98, 45 18.57 S 49.24 34.41, 50 35.71 S 53.5 35.71, 55 35.71 S 58.62 36.3, 60 35.71 S 63.86 32.41, 65 31.43 S 68.62 26.55, 70 27.14 S 73.86 34.73, 75 35.71 S 79.37 37.07, 80 35.71 S 83.5 14.29, 85 14.29 S 89.37 34.35, 90 35.71 S 93.5 35.71, 95 35.71 S 98.5 35.71, 100 35.71 S 103.5 35.71, 105 35.71 S 108.5 35.71, 110 35.71 S 113.5 35.71, 115 35.71 S 118.5 35.71, 120 35.71 S 123.5 35.71, 125 35.71 S 128.5 35.71, 130 35.71 S 133.5 35.71, 135 35.71 S 138.5 35.71, 140 35.71 S 144.46 37.11, 145 35.71 S 148.5 10, 150 10 S 154.46 34.31, 155 35.71 S 158.5 35.71, 160 35.71 S 163.5 35.71, 165 35.71 S 168.5 35.71, 170 35.71 S 173.5 35.71, 175 35.71 S 179.37 37.07, 180 35.71 S 183.62 14.88, 185 14.29 S 189.37 30.07, 190 31.43 S 193.62 36.3, 195 35.71 S 199.24 28.44, 200 27.14"
          fill="none"/>
    <circle r="4" cx="5" cy="40" fill="#3023AE"/>
    <circle r="4" cx="200" cy="27.14" fill="#C86DD7"/>      
</svg>