<svg width="200" height="50" viewBox="0 0 210 50" xmlns="http://www.w3.org/2000/svg">
    <defs>
        <linearGradient x1="0%" y1="0%" x2="100%" y2="0%" id="a">
            <stop stop-color="#3023AE" offset="0%"/>
            <stop stop-color="#C86DD7" offset="100%"/>
        </linearGradient>
    </defs>
    <path stroke="url(#a)"
          stroke-width="3"
          stroke-linejoin="round"
          stroke-linecap="round"
          d="M5 40 C 5.25 38.52, 8.86 10.98, 10 10 S 14.4 30.05, 15 31.43 S 18.53 33.41, 20 33.1 S 23.5 29.33, 25 29.29 S 28.58 33.34, 30 32.86 S 33.61 26.51, 35 25.95 S 38.53 28.49, 40 28.81 S 43.5 28.14, 45 28.1 S 48.58 28.1, 50 28.57 S 53.5 31.36, 55 31.43 S 58.65 29.69, 60 29.05 S 63.53 26.95, 65 26.67 S 68.58 26.67, 70 27.14 S 73.67 30.7, 75 30 S 78.5 21.79, 80 21.9 S 83.57 30.27, 85 30.71 S 88.58 25.47, 90 25 S 93.53 27.07, 95 27.38 S 98.52 27.35, 100 27.14 S 103.55 25.57, 105 25.95 S 109.12 30.97, 110 29.76 S 113.51 12, 115 12.14 S 119.01 29.58, 120 30.71 S 123.53 23.85, 125 23.57 S 128.58 28.34, 130 28.81 S 133.51 27.04, 135 26.9 S 138.5 27.75, 140 27.86 S 143.55 28, 145 27.62 S 149 26.36, 150 25.24 S 153.52 16.18, 155 16.43 S 158.82 25.97, 160 26.9 S 163.5 24.4, 165 24.29 S 168.57 25.75, 170 26.19 S 173.65 28.02, 175 27.38 S 178.67 22.13, 180 21.43 S 183.61 21.58, 185 22.14 S 188.7 24.74, 190 25.48 S 193.52 28.11, 195 27.86 S 198.52 24.06, 200 23.81 S 203.65 25.55, 205 26.19"
          fill="none"/>
    <circle r="4" cx="5" cy="40" fill="#3023AE"/>
    <circle r="4" cx="205" cy="26.189999999999998" fill="#C86DD7"/>      
</svg>