<svg width="200" height="50" viewBox="0 0 210 50" xmlns="http://www.w3.org/2000/svg">
    <defs>
        <linearGradient x1="0%" y1="0%" x2="100%" y2="0%" id="a">
            <stop stop-color="#3023AE" offset="0%"/>
            <stop stop-color="#C86DD7" offset="100%"/>
        </linearGradient>
    </defs>
    <path stroke="url(#a)"
          stroke-width="3"
          stroke-linejoin="round"
          stroke-linecap="round"
          d="M5 40 C 5.83 38.75, 9.39 33.87, 10 32.5 S 13.5 17.5, 15 17.5 S 19.17 31.25, 20 32.5 S 23.8 33.4, 25 32.5 S 29.17 26.25, 30 25 S 33.8 16.6, 35 17.5 S 39.17 31.25, 40 32.5 S 43.5 32.5, 45 32.5 S 48.5 32.5, 50 32.5 S 54.17 33.75, 55 32.5 S 58.8 18.4, 60 17.5 S 64.17 23.75, 65 25 S 68.8 31.6, 70 32.5 S 73.8 33.4, 75 32.5 S 78.8 25.9, 80 25 S 83.8 24.1, 85 25 S 88.5 32.5, 90 32.5 S 93.5 25, 95 25 S 98.8 31.6, 100 32.5 S 104.17 33.75, 105 32.5 S 108.5 17.5, 110 17.5 S 114.17 31.25, 115 32.5 S 118.5 32.5, 120 32.5 S 123.5 32.5, 125 32.5 S 128.5 32.5, 130 32.5 S 133.5 32.5, 135 32.5 S 138.5 32.5, 140 32.5 S 143.5 32.5, 145 32.5 S 148.5 32.5, 150 32.5 S 153.5 32.5, 155 32.5 S 158.5 32.5, 160 32.5 S 164.17 33.75, 165 32.5 S 169.39 18.87, 170 17.5 S 173.8 9.1, 175 10 S 179.39 23.63, 180 25 S 183.8 31.6, 185 32.5 S 188.5 32.5, 190 32.5 S 193.8 33.4, 195 32.5 S 199.17 26.25, 200 25 S 204.17 18.75, 205 17.5"
          fill="none"/>
    <circle r="4" cx="5" cy="40" fill="#3023AE"/>
    <circle r="4" cx="205" cy="17.5" fill="#C86DD7"/>      
</svg>