<svg width="200" height="50" viewBox="0 0 210 50" xmlns="http://www.w3.org/2000/svg">
    <defs>
        <linearGradient x1="0%" y1="0%" x2="100%" y2="0%" id="a">
            <stop stop-color="#3023AE" offset="0%"/>
            <stop stop-color="#C86DD7" offset="100%"/>
        </linearGradient>
    </defs>
    <path stroke="url(#a)"
          stroke-width="3"
          stroke-linejoin="round"
          stroke-linecap="round"
          d="M5 40 C 5.25 38.52, 8.73 10.8, 10 10 S 14.47 32.25, 15 33.65 S 18.97 37.63, 20 36.54 S 24.13 24.2, 25 22.98 S 28.93 21.35, 30 22.4 S 34.2 31.52, 35 32.79 S 38.68 37.55, 40 38.27 S 43.52 38.48, 45 38.27 S 48.54 37.17, 50 36.83 S 53.51 35.79, 55 35.96 S 58.55 37.6, 60 37.98 S 63.51 38.43, 65 38.56 S 68.52 39.11, 70 38.85 S 73.5 36.79, 75 36.83 S 78.54 38.79, 80 39.13 S 83.5 39.13, 85 39.13 S 88.5 39.17, 90 39.13 S 93.5 38.89, 95 38.85 S 98.5 38.85, 100 38.85 S 103.5 38.81, 105 38.85 S 108.64 39.76, 110 39.13 S 113.5 34.32, 115 34.23 S 118.61 38, 120 38.56 S 123.51 38.14, 125 38.27 S 128.51 39.55, 130 39.42 S 133.5 37.4, 135 37.4 S 138.53 39.12, 140 39.42 S 143.5 39.42, 145 39.42 S 148.5 39.46, 150 39.42 S 153.5 39.13, 155 39.13 S 158.56 39.84, 160 39.42 S 163.53 36.55, 165 36.25 S 168.54 37.06, 170 37.4 S 173.52 38.3, 175 38.56 S 178.51 39, 180 39.13 S 183.5 39.33, 185 39.42 S 188.5 39.75, 190 39.71 S 193.5 39.13, 195 39.13 S 198.5 39.67, 200 39.71 S 203.5 39.51, 205 39.42"
          fill="none"/>
    <circle r="4" cx="5" cy="40" fill="#3023AE"/>
    <circle r="4" cx="205" cy="39.42" fill="#C86DD7"/>      
</svg>