<svg width="200" height="50" viewBox="0 0 210 50" xmlns="http://www.w3.org/2000/svg">
    <defs>
        <linearGradient x1="0%" y1="0%" x2="100%" y2="0%" id="a">
            <stop stop-color="#3023AE" offset="0%"/>
            <stop stop-color="#C86DD7" offset="100%"/>
        </linearGradient>
    </defs>
    <path stroke="url(#a)"
          stroke-width="3"
          stroke-linejoin="round"
          stroke-linecap="round"
          d="M5 40 C 5.3 38.53, 8.5 15.77, 10 15.69 S 14.42 38.1, 15 39.48 S 18.5 39.48, 20 39.48 S 23.5 39.48, 25 39.48 S 29.52 40.9, 30 39.48 S 33.51 10.15, 35 10 S 39.49 37.04, 40 38.45 S 43.52 38.16, 45 37.93 S 48.5 36.98, 50 36.9 S 53.53 37.11, 55 37.41 S 58.53 38.67, 60 38.97 S 63.51 39.64, 65 39.48 S 68.55 38.3, 70 37.93 S 73.51 37.05, 75 36.9 S 78.51 36.75, 80 36.9 S 83.5 38.01, 85 37.93 S 88.55 36.76, 90 36.38 S 93.57 34.9, 95 35.34 S 98.57 39.03, 100 39.48 S 103.51 38.6, 105 38.45 S 108.51 38.3, 110 38.45 S 113.5 39.48, 115 39.48 S 118.52 38.68, 120 38.45 S 123.5 38.01, 125 37.93 S 128.57 38.37, 130 37.93 S 133.5 34.83, 135 34.83 S 138.52 37.7, 140 37.93 S 143.5 36.3, 145 36.38 S 148.52 38.22, 150 38.45 S 153.5 38.01, 155 37.93 S 158.52 37.7, 160 37.93 S 163.52 39.25, 165 39.48 S 168.5 39.56, 170 39.48 S 173.53 39.27, 175 38.97 S 178.5 37.41, 180 37.41 S 183.53 38.67, 185 38.97 S 188.51 39.64, 190 39.48 S 193.5 37.93, 195 37.93 S 198.5 39.4, 200 39.48 S 203.53 38.75, 205 38.45"
          fill="none"/>
    <circle r="4" cx="5" cy="40" fill="#3023AE"/>
    <circle r="4" cx="205" cy="38.45" fill="#C86DD7"/>      
</svg>