<svg width="200" height="50" viewBox="0 0 210 50" xmlns="http://www.w3.org/2000/svg">
    <defs>
        <linearGradient x1="0%" y1="0%" x2="100%" y2="0%" id="a">
            <stop stop-color="#3023AE" offset="0%"/>
            <stop stop-color="#C86DD7" offset="100%"/>
        </linearGradient>
    </defs>
    <path stroke="url(#a)"
          stroke-width="3"
          stroke-linejoin="round"
          stroke-linecap="round"
          d="M5 40 C 5.25 38.52, 8.68 10.71, 10 10 S 14.52 33.18, 15 34.6 S 18.65 38.75, 20 39.4 S 24.31 40.73, 25 39.4 S 29.34 21.55, 30 20.2 S 34.19 17.74, 35 19 S 39.25 34.5, 40 35.8 S 43.56 35.97, 45 36.4 S 48.52 39.07, 50 38.8 S 53.56 35.03, 55 34.6 S 58.62 35.22, 60 35.8 S 63.52 38.53, 65 38.8 S 68.5 37.6, 70 37.6 S 73.52 38.53, 75 38.8 S 78.5 39.31, 80 39.4 S 83.5 39.49, 85 39.4 S 88.5 38.8, 90 38.8 S 93.5 39.31, 95 39.4 S 98.5 39.4, 100 39.4 S 103.5 39.4, 105 39.4 S 108.5 39.4, 110 39.4 S 113.5 39.4, 115 39.4 S 118.5 39.4, 120 39.4 S 123.5 39.4, 125 39.4 S 128.5 39.4, 130 39.4 S 133.5 39.4, 135 39.4 S 138.5 39.4, 140 39.4 S 143.5 39.4, 145 39.4 S 148.5 39.4, 150 39.4 S 153.5 39.4, 155 39.4 S 158.5 39.4, 160 39.4 S 163.5 39.4, 165 39.4 S 168.5 39.4, 170 39.4 S 173.5 39.4, 175 39.4 S 178.5 39.4, 180 39.4 S 183.5 39.4, 185 39.4 S 188.5 39.4, 190 39.4 S 193.5 39.49, 195 39.4 S 198.5 38.8, 200 38.8 S 203.51 39.22, 205 39.4"
          fill="none"/>
    <circle r="4" cx="5" cy="40" fill="#3023AE"/>
    <circle r="4" cx="205" cy="39.4" fill="#C86DD7"/>      
</svg>