<svg width="200" height="50" viewBox="0 0 210 50" xmlns="http://www.w3.org/2000/svg">
    <defs>
        <linearGradient x1="0%" y1="0%" x2="100%" y2="0%" id="a">
            <stop stop-color="#3023AE" offset="0%"/>
            <stop stop-color="#C86DD7" offset="100%"/>
        </linearGradient>
    </defs>
    <path stroke="url(#a)"
          stroke-width="3"
          stroke-linejoin="round"
          stroke-linecap="round"
          d="M5 40 C 5.38 38.55, 9.02 22.21, 10 21.07 S 14.25 27.02, 15 28.32 S 18.98 37.29, 20 38.39 S 23.5 39.19, 25 39.19 S 28.5 38.33, 30 38.39 S 33.5 39.6, 35 39.6 S 38.52 38.63, 40 38.39 S 43.5 37.87, 45 37.99 S 48.5 39.28, 50 39.19 S 53.52 37.62, 55 37.38 S 58.54 37.25, 60 37.58 S 63.51 39.39, 65 39.6 S 68.5 39.11, 70 38.99 S 73.67 39.49, 75 38.79 S 78.5 33.79, 80 33.76 S 83.66 37.92, 85 38.59 S 88.5 38.88, 90 38.79 S 93.5 38.08, 95 37.99 S 98.5 38.25, 100 38.19 S 103.5 37.49, 105 37.58 S 108.51 38.58, 110 38.79 S 113.5 39.08, 115 38.99 S 118.5 38.1, 120 38.19 S 124.5 41.01, 125 39.6 S 128.74 10.81, 130 10 S 134.44 31.76, 135 33.15 S 139.19 36.03, 140 34.77 S 143.5 17.59, 145 17.65 S 149.32 33.83, 150 35.17 S 153.53 36.88, 155 37.18 S 158.66 37.85, 160 37.18 S 163.5 32.18, 165 32.15 S 168.74 36.17, 170 36.98 S 173.54 38.94, 175 38.59 S 179.08 35.75, 180 34.56 S 183.54 25.37, 185 25.7 S 188.67 36.08, 190 36.78 S 193.94 32, 195 30.94 S 198.63 26.1, 200 26.71 S 204.25 34.07, 205 35.37"
          fill="none"/>
    <circle r="4" cx="5" cy="40" fill="#3023AE"/>
    <circle r="4" cx="205" cy="35.37" fill="#C86DD7"/>      
</svg>