<svg width="200" height="50" viewBox="0 0 210 50" xmlns="http://www.w3.org/2000/svg">
    <defs>
        <linearGradient x1="0%" y1="0%" x2="100%" y2="0%" id="a">
            <stop stop-color="#3023AE" offset="0%"/>
            <stop stop-color="#C86DD7" offset="100%"/>
        </linearGradient>
    </defs>
    <path stroke="url(#a)"
          stroke-width="3"
          stroke-linejoin="round"
          stroke-linecap="round"
          d="M5 40 C 6.09 38.97, 8.52 35.49, 10 35.26 S 14.45 39.81, 15 38.42 S 18.91 11.03, 20 10 S 23.64 28.31, 25 28.95 S 28.91 13.71, 30 14.74 S 34.34 37.07, 35 38.42 S 38.52 35.49, 40 35.26 S 43.57 36.39, 45 36.84 S 48.52 38.19, 50 38.42 S 53.5 38.42, 55 38.42 S 58.5 38.42, 60 38.42 S 63.52 38.65, 65 38.42 S 68.5 36.84, 70 36.84 S 73.52 38.19, 75 38.42 S 78.5 38.42, 80 38.42 S 83.5 38.42, 85 38.42 S 88.5 38.42, 90 38.42 S 93.5 38.42, 95 38.42 S 98.5 38.42, 100 38.42 S 103.5 38.42, 105 38.42 S 108.5 38.42, 110 38.42 S 113.5 38.42, 115 38.42 S 118.5 38.42, 120 38.42 S 123.5 38.42, 125 38.42 S 128.5 38.42, 130 38.42 S 133.5 38.42, 135 38.42 S 138.5 38.42, 140 38.42 S 143.5 38.42, 145 38.42 S 148.5 38.42, 150 38.42 S 153.82 39.35, 155 38.42 S 159.14 31.76, 160 30.53 S 163.64 23.57, 165 24.21 S 168.99 34.15, 170 35.26 S 173.57 34.81, 175 35.26 S 179.38 39.79, 180 38.42 S 183.82 14.09, 185 13.16 S 189.3 29.2, 190 30.53 S 193.57 31.66, 195 32.11 S 198.64 33.04, 200 33.68 S 203.73 36.04, 205 36.84"
          fill="none"/>
    <circle r="4" cx="5" cy="40" fill="#3023AE"/>
    <circle r="4" cx="205" cy="36.84" fill="#C86DD7"/>      
</svg>