<svg width="200" height="50" viewBox="0 0 210 50" xmlns="http://www.w3.org/2000/svg">
    <defs>
        <linearGradient x1="0%" y1="0%" x2="100%" y2="0%" id="a">
            <stop stop-color="#3023AE" offset="0%"/>
            <stop stop-color="#C86DD7" offset="100%"/>
        </linearGradient>
    </defs>
    <path stroke="url(#a)"
          stroke-width="3"
          stroke-linejoin="round"
          stroke-linecap="round"
          d="M5 40 C 5.34 38.54, 8.81 19.24, 10 18.32 S 14.32 30.92, 15 32.26 S 18.77 37.01, 20 37.87 S 23.51 39.06, 25 39.23 S 28.5 39, 30 39.03 S 33.51 39.59, 35 39.42 S 38.51 38.07, 40 37.87 S 43.51 37.89, 45 38.06 S 48.5 39.15, 50 39.03 S 53.5 37.35, 55 37.29 S 58.53 38.34, 60 38.65 S 63.5 39.33, 65 39.42 S 68.52 39.46, 70 39.23 S 73.68 38.58, 75 37.87 S 78.52 33.58, 80 33.81 S 83.61 38.86, 85 39.42 S 88.51 38.01, 90 37.87 S 93.5 38.54, 95 38.45 S 98.5 37.26, 100 37.29 S 103.52 38.39, 105 38.65 S 108.5 39.09, 110 39.03 S 113.5 38.17, 115 38.26 S 119.5 41.02, 120 39.61 S 123.72 10.79, 125 10 S 129.46 32.02, 130 33.42 S 134.21 37.21, 135 35.94 S 138.5 17.35, 140 17.35 S 144.32 34.6, 145 35.94 S 148.58 37.57, 150 37.1 S 153.5 32.77, 155 32.65 S 158.72 35.53, 160 36.32 S 163.51 38.7, 165 38.84 S 169.05 38.45, 170 37.29 S 173.62 27.24, 175 26.65 S 178.71 32.26, 180 33.03 S 183.71 33.42, 185 32.65 S 188.6 26.49, 190 27.03 S 193.74 35.71, 195 36.52 S 198.52 33.19, 200 33.42 S 203.9 37.04, 205 38.06"
          fill="none"/>
    <circle r="4" cx="5" cy="40" fill="#3023AE"/>
    <circle r="4" cx="205" cy="38.06" fill="#C86DD7"/>      
</svg>