<svg width="200" height="50" viewBox="0 0 210 50" xmlns="http://www.w3.org/2000/svg">
    <defs>
        <linearGradient x1="0%" y1="0%" x2="100%" y2="0%" id="a">
            <stop stop-color="#3023AE" offset="0%"/>
            <stop stop-color="#C86DD7" offset="100%"/>
        </linearGradient>
    </defs>
    <path stroke="url(#a)"
          stroke-width="3"
          stroke-linejoin="round"
          stroke-linecap="round"
          d="M5 40 C 5.25 38.52, 8.68 10.7, 10 10 S 14.52 33.27, 15 34.69 S 18.65 39.12, 20 39.77 S 23.5 39.64, 25 39.54 S 28.5 39.18, 30 39.08 S 33.5 38.78, 35 38.85 S 38.5 39.47, 40 39.54 S 43.5 39.28, 45 39.31 S 48.5 39.7, 50 39.77 S 53.5 39.77, 55 39.77 S 58.5 39.77, 60 39.77 S 63.5 39.77, 65 39.77 S 68.5 39.77, 70 39.77 S 73.5 39.77, 75 39.77 S 78.5 39.77, 80 39.77 S 83.5 39.77, 85 39.77 S 88.5 39.77, 90 39.77 S 93.5 39.77, 95 39.77 S 98.5 39.77, 100 39.77 S 103.5 39.77, 105 39.77 S 108.5 39.77, 110 39.77 S 113.5 39.77, 115 39.77 S 118.5 39.77, 120 39.77"
          fill="none"/>
    <circle r="4" cx="5" cy="40" fill="#3023AE"/>
    <circle r="4" cx="120" cy="39.77" fill="#C86DD7"/>      
</svg>