<svg width="200" height="50" viewBox="0 0 210 50" xmlns="http://www.w3.org/2000/svg">
    <defs>
        <linearGradient x1="0%" y1="0%" x2="100%" y2="0%" id="a">
            <stop stop-color="#3023AE" offset="0%"/>
            <stop stop-color="#C86DD7" offset="100%"/>
        </linearGradient>
    </defs>
    <path stroke="url(#a)"
          stroke-width="3"
          stroke-linejoin="round"
          stroke-linecap="round"
          d="M5 40 C 5.25 38.52, 8.5 10.09, 10 10 S 14.5 38, 15 39.41 S 18.5 38.28, 20 38.22 S 23.52 38.78, 25 39.01 S 28.5 39.68, 30 39.8 S 33.5 39.8, 35 39.8 S 38.5 39.8, 40 39.8 S 43.5 39.8, 45 39.8 S 48.5 39.8, 50 39.8 S 53.5 39.83, 55 39.8 S 58.5 39.64, 60 39.61 S 63.5 39.58, 65 39.61 S 68.5 39.8, 70 39.8 S 73.5 39.61, 75 39.61 S 78.5 39.77, 80 39.8 S 83.5 39.8, 85 39.8 S 88.5 39.8, 90 39.8 S 93.5 39.8, 95 39.8 S 98.5 39.8, 100 39.8 S 103.5 39.8, 105 39.8 S 108.5 39.8, 110 39.8"
          fill="none"/>
    <circle r="4" cx="5" cy="40" fill="#3023AE"/>
    <circle r="4" cx="110" cy="39.8" fill="#C86DD7"/>      
</svg>