<svg width="200" height="50" viewBox="0 0 210 50" xmlns="http://www.w3.org/2000/svg">
    <defs>
        <linearGradient x1="0%" y1="0%" x2="100%" y2="0%" id="a">
            <stop stop-color="#3023AE" offset="0%"/>
            <stop stop-color="#C86DD7" offset="100%"/>
        </linearGradient>
    </defs>
    <path stroke="url(#a)"
          stroke-width="3"
          stroke-linejoin="round"
          stroke-linecap="round"
          d="M5 40 C 5.38 38.55, 9.48 22.32, 10 20.91 S 13.55 13.13, 15 12.73 S 19.22 16.9, 20 18.18 S 23.84 30.04, 25 29.09 S 28.68 10.72, 30 10 S 33.55 23.24, 35 23.64 S 38.68 13.45, 40 12.73 S 43.99 17.07, 45 18.18 S 49.22 22.36, 50 23.64 S 53.99 33.44, 55 34.55 S 58.55 34.16, 60 34.55 S 63.55 36.88, 65 37.27 S 69.11 38.48, 70 37.27 S 74.38 25, 75 23.64 S 79.11 14.24, 80 15.45 S 84.22 35.99, 85 37.27 S 88.5 31.82, 90 31.82 S 93.68 36.55, 95 37.27 S 98.5 37.27, 100 37.27 S 103.5 37.27, 105 37.27 S 108.5 37.27, 110 37.27 S 113.5 37.27, 115 37.27 S 118.5 37.27, 120 37.27 S 123.5 37.27, 125 37.27 S 128.5 37.27, 130 37.27 S 133.5 37.27, 135 37.27 S 138.5 37.27, 140 37.27 S 143.5 37.27, 145 37.27 S 148.5 37.27, 150 37.27 S 153.5 37.27, 155 37.27 S 158.5 37.27, 160 37.27 S 163.5 37.27, 165 37.27 S 168.5 37.27, 170 37.27 S 173.5 37.27, 175 37.27"
          fill="none"/>
    <circle r="4" cx="5" cy="40" fill="#3023AE"/>
    <circle r="4" cx="175" cy="37.27" fill="#C86DD7"/>      
</svg>