<svg width="200" height="50" viewBox="0 0 210 50" xmlns="http://www.w3.org/2000/svg">
    <defs>
        <linearGradient x1="0%" y1="0%" x2="100%" y2="0%" id="a">
            <stop stop-color="#3023AE" offset="0%"/>
            <stop stop-color="#C86DD7" offset="100%"/>
        </linearGradient>
    </defs>
    <path stroke="url(#a)"
          stroke-width="3"
          stroke-linejoin="round"
          stroke-linecap="round"
          d="M5 40 C 6.38 39.4, 8.5 37.86, 10 37.83 S 13.53 39.48, 15 39.79 S 18.5 39.96, 20 39.96 S 23.5 39.83, 25 39.82 S 28.5 39.87, 30 39.89 S 33.5 39.97, 35 39.98 S 38.5 39.99, 40 39.99 S 43.5 40.03, 45 39.98 S 48.5 39.65, 50 39.65 S 53.5 39.91, 55 39.95 S 58.5 39.92, 60 39.93 S 63.5 39.98, 65 39.99 S 68.5 40.01, 70 39.99 S 73.5 39.89, 75 39.88 S 78.5 39.93, 80 39.94 S 84.52 41.38, 85 39.96 S 89.2 11.27, 90 10 S 94.48 22.72, 95 24.13 S 99.1 35.62, 100 36.82 S 103.55 37.96, 105 37.56 S 109.26 35.38, 110 34.08 S 113.55 19.59, 115 19.98 S 119.15 35.5, 120 36.74 S 123.5 34.45, 125 34.54 S 128.63 36.74, 130 37.36 S 133.52 38.83, 135 39.08 S 138.51 39.19, 140 39.06 S 143.5 38.17, 145 38.22 S 148.51 39.21, 150 39.41 S 153.5 39.57, 155 39.54 S 158.5 39.27, 160 39.24 S 163.5 39.29, 165 39.32 S 168.5 39.5, 170 39.44 S 173.5 38.88, 175 38.9 S 178.5 39.45, 180 39.55 S 183.5 39.56, 185 39.54 S 188.5 39.48, 190 39.41 S 193.51 39.27, 195 39.06 S 198.5 38.05, 200 38.02 S 203.52 38.63, 205 38.88"
          fill="none"/>
    <circle r="4" cx="5" cy="40" fill="#3023AE"/>
    <circle r="4" cx="205" cy="38.88" fill="#C86DD7"/>      
</svg>