<svg width="200" height="50" viewBox="0 0 210 50" xmlns="http://www.w3.org/2000/svg">
    <defs>
        <linearGradient x1="0%" y1="0%" x2="100%" y2="0%" id="a">
            <stop stop-color="#3023AE" offset="0%"/>
            <stop stop-color="#C86DD7" offset="100%"/>
        </linearGradient>
    </defs>
    <path stroke="url(#a)"
          stroke-width="3"
          stroke-linejoin="round"
          stroke-linecap="round"
          d="M5 40 C 5.36 38.54, 9.53 21.13, 10 19.71 S 14.27 8.69, 15 10 S 19.5 36.3, 20 37.71 S 23.5 38.33, 25 38.29 S 28.51 37.26, 30 37.43 S 33.53 39.14, 35 39.43 S 38.5 39.52, 40 39.43 S 43.5 38.95, 45 38.86 S 48.51 39.03, 50 38.86 S 53.5 37.8, 55 37.71 S 58.51 38.16, 60 38.29 S 63.51 38.36, 65 38.57 S 68.51 39.54, 70 39.71 S 73.5 39.71, 75 39.71 S 78.5 39.71, 80 39.71 S 83.5 39.71, 85 39.71 S 88.5 39.71, 90 39.71 S 93.5 39.71, 95 39.71 S 98.5 39.71, 100 39.71 S 103.5 39.71, 105 39.71 S 108.51 39.84, 110 39.71 S 113.68 39.57, 115 38.86 S 118.5 34.2, 120 34.29 S 123.68 38.72, 125 39.43 S 128.5 39.8, 130 39.71 S 133.5 38.9, 135 38.86 S 138.5 39.43, 140 39.43 S 143.5 38.82, 145 38.86 S 148.51 39.58, 150 39.71 S 153.5 39.71, 155 39.71 S 158.5 39.71, 160 39.71 S 163.5 39.71, 165 39.71 S 168.5 39.71, 170 39.71 S 173.51 39.92, 175 39.71 S 178.51 38.42, 180 38.29 S 183.51 38.69, 185 38.86 S 188.51 39.3, 190 39.43 S 193.5 39.71, 195 39.71 S 198.5 39.43, 200 39.43 S 203.5 39.63, 205 39.71"
          fill="none"/>
    <circle r="4" cx="5" cy="40" fill="#3023AE"/>
    <circle r="4" cx="205" cy="39.71" fill="#C86DD7"/>      
</svg>