<svg width="200" height="50" viewBox="0 0 210 50" xmlns="http://www.w3.org/2000/svg">
    <defs>
        <linearGradient x1="0%" y1="0%" x2="100%" y2="0%" id="a">
            <stop stop-color="#3023AE" offset="0%"/>
            <stop stop-color="#C86DD7" offset="100%"/>
        </linearGradient>
    </defs>
    <path stroke="url(#a)"
          stroke-width="3"
          stroke-linejoin="round"
          stroke-linecap="round"
          d="M5 40 C 5.33 38.54, 8.69 18.4, 10 17.67 S 14.13 33.2, 15 34.42 S 19.43 33.02, 20 31.63 S 24.1 11.2, 25 10 S 28.58 17.88, 30 18.37 S 34.1 12.29, 35 13.49 S 39.43 30.24, 40 31.63 S 43.73 37.11, 45 37.91 S 48.51 37.7, 50 37.91 S 53.51 39.09, 55 39.3 S 58.51 39.51, 60 39.3 S 63.5 37.91, 65 37.91 S 68.5 39.2, 70 39.3 S 73.5 38.6, 75 38.6 S 78.5 39.2, 80 39.3 S 83.56 39.7, 85 39.3 S 88.51 36.72, 90 36.51 S 93.56 37.51, 95 37.91 S 98.51 39.09, 100 39.3 S 103.5 39.3, 105 39.3 S 108.5 39.3, 110 39.3 S 113.5 39.3, 115 39.3 S 118.5 39.3, 120 39.3 S 123.5 39.3, 125 39.3 S 128.5 39.3, 130 39.3 S 133.5 39.3, 135 39.3 S 138.5 39.3, 140 39.3 S 143.5 39.3, 145 39.3 S 148.5 39.3, 150 39.3 S 153.5 39.3, 155 39.3 S 158.5 39.3, 160 39.3 S 163.51 39.51, 165 39.3 S 168.51 38.12, 170 37.91 S 173.51 37.7, 175 37.91 S 178.51 39.09, 180 39.3 S 183.5 39.3, 185 39.3 S 188.51 39.51, 190 39.3 S 193.53 38.22, 195 37.91 S 198.51 37.42, 200 37.21"
          fill="none"/>
    <circle r="4" cx="5" cy="40" fill="#3023AE"/>
    <circle r="4" cx="200" cy="37.21" fill="#C86DD7"/>      
</svg>