<svg width="200" height="50" viewBox="0 0 210 50" xmlns="http://www.w3.org/2000/svg">
    <defs>
        <linearGradient x1="0%" y1="0%" x2="100%" y2="0%" id="a">
            <stop stop-color="#3023AE" offset="0%"/>
            <stop stop-color="#C86DD7" offset="100%"/>
        </linearGradient>
    </defs>
    <path stroke="url(#a)"
          stroke-width="3"
          stroke-linejoin="round"
          stroke-linecap="round"
          d="M5 40 C 5.4 38.55, 9.53 23.42, 10 22 S 13.63 10.6, 15 10 S 19.48 16.19, 20 17.6 S 24.35 35.85, 25 37.2 S 28.52 38.16, 30 38.4 S 33.51 38.98, 35 38.8 S 38.5 37.2, 40 37.2 S 43.54 38.45, 45 38.8 S 48.5 39.54, 50 39.6 S 53.5 39.2, 55 39.2 S 58.51 39.78, 60 39.6 S 63.5 38.06, 65 38 S 68.51 39.38, 70 39.2 S 73.5 36.74, 75 36.8 S 78.5 39.6, 80 39.6 S 83.5 36.8, 85 36.8 S 88.56 39.2, 90 39.6 S 93.5 39.6, 95 39.6 S 98.5 39.6, 100 39.6 S 103.5 39.6, 105 39.6 S 108.5 39.6, 110 39.6 S 113.5 39.6, 115 39.6 S 118.5 39.6, 120 39.6 S 123.5 39.6, 125 39.6 S 128.5 39.6, 130 39.6 S 133.5 39.6, 135 39.6 S 138.5 39.6, 140 39.6 S 143.5 39.6, 145 39.6 S 148.5 39.6, 150 39.6 S 153.5 39.6, 155 39.6 S 158.5 39.6, 160 39.6 S 163.81 40.51, 165 39.6 S 168.5 32.06, 170 32 S 173.81 38.29, 175 39.2 S 178.5 39.54, 180 39.6 S 183.51 39.78, 185 39.6 S 188.5 38.46, 190 38.4 S 193.51 39.02, 195 39.2 S 198.5 39.66, 200 39.6 S 203.52 39.04, 205 38.8"
          fill="none"/>
    <circle r="4" cx="5" cy="40" fill="#3023AE"/>
    <circle r="4" cx="205" cy="38.8" fill="#C86DD7"/>      
</svg>