<svg width="200" height="50" viewBox="0 0 210 50" xmlns="http://www.w3.org/2000/svg">
    <defs>
        <linearGradient x1="0%" y1="0%" x2="100%" y2="0%" id="a">
            <stop stop-color="#3023AE" offset="0%"/>
            <stop stop-color="#C86DD7" offset="100%"/>
        </linearGradient>
    </defs>
    <path stroke="url(#a)"
          stroke-width="3"
          stroke-linejoin="round"
          stroke-linecap="round"
          d="M5 40 C 5.39 38.55, 9.53 22.89, 10 21.47 S 13.92 11.04, 15 10 S 19.47 10.36, 20 11.76 S 24.49 35.06, 25 36.47 S 28.51 38.92, 30 39.12 S 33.5 37.79, 35 37.79 S 38.51 39.32, 40 39.12 S 43.5 36.4, 45 36.47 S 48.57 39.12, 50 39.56 S 53.51 39.69, 55 39.56 S 58.5 38.68, 60 38.68 S 63.51 39.69, 65 39.56 S 68.5 37.79, 70 37.79 S 73.5 39.63, 75 39.56 S 78.51 37.48, 80 37.35 S 83.51 38.48, 85 38.68 S 88.51 38.88, 90 38.68 S 93.5 37.28, 95 37.35 S 98.54 38.8, 100 39.12 S 103.5 39.49, 105 39.56 S 108.5 39.56, 110 39.56 S 113.5 39.56, 115 39.56 S 118.5 39.56, 120 39.56 S 123.5 39.56, 125 39.56 S 128.5 39.56, 130 39.56 S 133.5 39.56, 135 39.56 S 138.5 39.56, 140 39.56 S 143.5 39.56, 145 39.56 S 148.5 39.56, 150 39.56 S 153.5 39.56, 155 39.56 S 158.5 39.56, 160 39.56 S 163.5 39.56, 165 39.56 S 168.5 39.56, 170 39.56 S 173.5 39.56, 175 39.56 S 178.75 40.39, 180 39.56 S 183.51 33.14, 185 32.94 S 188.75 37.41, 190 38.24 S 193.51 39.36, 195 39.56 S 198.5 39.63, 200 39.56 S 203.51 39.25, 205 39.12"
          fill="none"/>
    <circle r="4" cx="5" cy="40" fill="#3023AE"/>
    <circle r="4" cx="205" cy="39.12" fill="#C86DD7"/>      
</svg>