<svg width="200" height="50" viewBox="0 0 210 50" xmlns="http://www.w3.org/2000/svg">
    <defs>
        <linearGradient x1="0%" y1="0%" x2="100%" y2="0%" id="a">
            <stop stop-color="#3023AE" offset="0%"/>
            <stop stop-color="#C86DD7" offset="100%"/>
        </linearGradient>
    </defs>
    <path stroke="url(#a)"
          stroke-width="3"
          stroke-linejoin="round"
          stroke-linecap="round"
          d="M5 40 C 5.37 38.55, 8.88 21.58, 10 20.59 S 13.59 31.68, 15 31.18 S 19.36 18.42, 20 17.06 S 23.59 9.5, 25 10 S 29.46 19.19, 30 20.59 S 34.24 34.59, 35 35.88 S 38.56 37.23, 40 37.65 S 43.52 38.56, 45 38.82 S 48.5 39.41, 50 39.41 S 53.51 38.99, 55 38.82 S 58.5 38.15, 60 38.24 S 63.5 39.5, 65 39.41 S 68.54 37.99, 70 37.65 S 73.52 36.8, 75 37.06 S 78.54 39.07, 80 39.41 S 83.5 39.41, 85 39.41 S 88.5 39.41, 90 39.41 S 93.5 39.41, 95 39.41 S 98.5 39.41, 100 39.41 S 103.5 39.41, 105 39.41 S 108.51 39.58, 110 39.41 S 113.5 38.24, 115 38.24 S 118.51 39.24, 120 39.41 S 123.5 39.5, 125 39.41 S 128.56 39.24, 130 38.82 S 133.5 36.38, 135 36.47 S 138.56 38.99, 140 39.41 S 143.5 39.41, 145 39.41 S 148.59 39.91, 150 39.41 S 153.5 35.88, 155 35.88 S 158.59 38.91, 160 39.41 S 163.5 39.41, 165 39.41 S 168.5 39.41, 170 39.41 S 173.5 39.41, 175 39.41"
          fill="none"/>
    <circle r="4" cx="5" cy="40" fill="#3023AE"/>
    <circle r="4" cx="175" cy="39.41" fill="#C86DD7"/>      
</svg>