<svg width="200" height="50" viewBox="0 0 210 50" xmlns="http://www.w3.org/2000/svg">
    <defs>
        <linearGradient x1="0%" y1="0%" x2="100%" y2="0%" id="a">
            <stop stop-color="#3023AE" offset="0%"/>
            <stop stop-color="#C86DD7" offset="100%"/>
        </linearGradient>
    </defs>
    <path stroke="url(#a)"
          stroke-width="3"
          stroke-linejoin="round"
          stroke-linecap="round"
          d="M5 40 C 5.39 38.55, 8.64 22.17, 10 21.54 S 14.02 34.25, 15 35.38 S 19.45 34.48, 20 33.08 S 24.02 11.13, 25 10 S 29.02 20.41, 30 21.54 S 34.12 20.32, 35 21.54 S 39.21 34.1, 40 35.38 S 43.58 37.2, 45 37.69 S 48.51 38.68, 50 38.85 S 53.5 38.76, 55 38.85 S 58.5 39.42, 60 39.42 S 63.51 39.02, 65 38.85 S 68.5 38.18, 70 38.27 S 73.51 39.25, 75 39.42 S 78.51 39.59, 80 39.42 S 83.52 38.53, 85 38.27 S 88.51 37.52, 90 37.69 S 93.52 39.16, 95 39.42 S 98.5 39.42, 100 39.42 S 103.5 39.42, 105 39.42 S 108.5 39.42, 110 39.42 S 113.5 39.42, 115 39.42 S 118.5 39.42, 120 39.42 S 123.5 39.42, 125 39.42 S 128.5 39.42, 130 39.42 S 133.5 39.42, 135 39.42 S 138.5 39.42, 140 39.42 S 143.5 39.42, 145 39.42 S 148.5 39.42, 150 39.42 S 153.5 39.42, 155 39.42 S 158.52 39.68, 160 39.42 S 163.51 37.86, 165 37.69 S 168.52 38.01, 170 38.27 S 173.51 39.25, 175 39.42 S 178.5 39.42, 180 39.42 S 183.52 39.68, 185 39.42 S 188.51 37.86, 190 37.69 S 193.52 38.01, 195 38.27 S 198.54 39.08, 200 39.42"
          fill="none"/>
    <circle r="4" cx="5" cy="40" fill="#3023AE"/>
    <circle r="4" cx="200" cy="39.42" fill="#C86DD7"/>      
</svg>