<svg width="200" height="50" viewBox="0 0 210 50" xmlns="http://www.w3.org/2000/svg">
    <defs>
        <linearGradient x1="0%" y1="0%" x2="100%" y2="0%" id="a">
            <stop stop-color="#3023AE" offset="0%"/>
            <stop stop-color="#C86DD7" offset="100%"/>
        </linearGradient>
    </defs>
    <path stroke="url(#a)"
          stroke-width="3"
          stroke-linejoin="round"
          stroke-linecap="round"
          d="M5 40 C 5.25 38.52, 8.56 10.43, 10 10 S 14.51 35.58, 15 37 S 18.54 38.92, 20 39.25 S 23.63 39.87, 25 39.25 S 28.5 34.75, 30 34.75 S 33.63 38.63, 35 39.25 S 39.11 40.46, 40 39.25 S 43.63 26.37, 45 25.75 S 48.93 33.7, 50 34.75 S 53.52 35.28, 55 35.5 S 59.07 37.43, 60 36.25 S 63.5 22.86, 65 22.75 S 69.11 34.29, 70 35.5 S 73.52 36.03, 75 36.25 S 78.56 36.57, 80 37 S 83.54 38.92, 85 39.25 S 88.52 39.47, 90 39.25 S 93.54 38.08, 95 37.75 S 98.52 36.78, 100 37 S 103.54 38.92, 105 39.25 S 108.5 39.25, 110 39.25 S 113.52 39.47, 115 39.25 S 118.5 37.75, 120 37.75 S 123.52 39.03, 125 39.25 S 128.5 39.36, 130 39.25 S 134.07 39.68, 135 38.5 S 138.5 26.5, 140 26.5 S 143.89 37.5, 145 38.5 S 148.5 35.5, 150 35.5 S 153.6 37.97, 155 38.5 S 158.5 39.36, 160 39.25 S 163.5 37.75, 165 37.75 S 168.5 39.14, 170 39.25 S 173.5 38.5, 175 38.5 S 178.5 39.14, 180 39.25 S 183.5 39.25, 185 39.25 S 188.5 39.25, 190 39.25 S 193.5 39.25, 195 39.25 S 198.5 39.25, 200 39.25 S 203.5 39.25, 205 39.25"
          fill="none"/>
    <circle r="4" cx="5" cy="40" fill="#3023AE"/>
    <circle r="4" cx="205" cy="39.25" fill="#C86DD7"/>      
</svg>