<svg width="200" height="50" viewBox="0 0 210 50" xmlns="http://www.w3.org/2000/svg">
    <defs>
        <linearGradient x1="0%" y1="0%" x2="100%" y2="0%" id="a">
            <stop stop-color="#3023AE" offset="0%"/>
            <stop stop-color="#C86DD7" offset="100%"/>
        </linearGradient>
    </defs>
    <path stroke="url(#a)"
          stroke-width="3"
          stroke-linejoin="round"
          stroke-linecap="round"
          d="M5 40 C 6.48 39.73, 8.5 39.16, 10 39.09 S 13.5 39.48, 15 39.55 S 18.5 39.55, 20 39.55 S 23.5 39.55, 25 39.55 S 28.5 39.55, 30 39.55 S 33.5 39.55, 35 39.55 S 38.5 39.55, 40 39.55 S 43.5 39.55, 45 39.55 S 48.5 39.55, 50 39.55 S 53.5 39.55, 55 39.55 S 58.5 39.55, 60 39.55 S 63.5 39.55, 65 39.55 S 68.5 39.55, 70 39.55 S 73.5 39.55, 75 39.55 S 78.5 39.55, 80 39.55 S 83.5 39.55, 85 39.55 S 88.5 39.55, 90 39.55 S 93.5 39.55, 95 39.55 S 98.5 39.55, 100 39.55 S 103.5 39.55, 105 39.55 S 108.5 39.55, 110 39.55 S 113.5 39.55, 115 39.55 S 118.5 39.55, 120 39.55 S 123.5 39.55, 125 39.55 S 128.5 39.55, 130 39.55 S 133.5 39.55, 135 39.55 S 139.52 40.97, 140 39.55 S 143.59 10.51, 145 10 S 148.94 34.85, 150 35.91 S 153.57 19.55, 155 20 S 159.3 37.76, 160 39.09 S 163.5 39.02, 165 39.09 S 168.5 39.48, 170 39.55 S 173.51 39.69, 175 39.55 S 178.5 38.64, 180 38.64 S 183.5 39.48, 185 39.55 S 188.52 39.36, 190 39.09 S 193.5 37.73, 195 37.73 S 198.55 38.7, 200 39.09"
          fill="none"/>
    <circle r="4" cx="5" cy="40" fill="#3023AE"/>
    <circle r="4" cx="200" cy="39.09" fill="#C86DD7"/>      
</svg>