<svg width="200" height="50" viewBox="0 0 210 50" xmlns="http://www.w3.org/2000/svg">
    <defs>
        <linearGradient x1="0%" y1="0%" x2="100%" y2="0%" id="a">
            <stop stop-color="#3023AE" offset="0%"/>
            <stop stop-color="#C86DD7" offset="100%"/>
        </linearGradient>
    </defs>
    <path stroke="url(#a)"
          stroke-width="3"
          stroke-linejoin="round"
          stroke-linecap="round"
          d="M5 40 C 6.48 39.75, 8.5 39.2, 10 39.14 S 13.5 39.51, 15 39.57 S 18.5 39.57, 20 39.57 S 23.5 39.57, 25 39.57 S 28.5 39.57, 30 39.57 S 33.5 39.57, 35 39.57 S 38.5 39.57, 40 39.57 S 43.5 39.57, 45 39.57 S 48.5 39.57, 50 39.57 S 53.5 39.57, 55 39.57 S 58.5 39.57, 60 39.57 S 63.5 39.57, 65 39.57 S 68.5 39.57, 70 39.57 S 73.5 39.57, 75 39.57 S 78.5 39.57, 80 39.57 S 83.5 39.57, 85 39.57 S 88.5 39.57, 90 39.57 S 93.5 39.57, 95 39.57 S 98.5 39.57, 100 39.57 S 103.5 39.57, 105 39.57 S 108.5 39.57, 110 39.57 S 113.5 39.57, 115 39.57 S 118.5 39.57, 120 39.57 S 123.5 39.57, 125 39.57 S 128.5 39.57, 130 39.57 S 133.5 39.57, 135 39.57 S 138.5 39.57, 140 39.57 S 143.5 39.57, 145 39.57 S 149.52 40.99, 150 39.57 S 153.52 10.25, 155 10 S 159.02 36.73, 160 37.86 S 163.51 21.38, 165 21.57 S 169.26 37.84, 170 39.14 S 173.5 39.08, 175 39.14 S 178.5 39.51, 180 39.57 S 183.51 39.7, 185 39.57 S 188.5 38.71, 190 38.71 S 193.5 39.51, 195 39.57 S 198.51 39.33, 200 39.14 S 203.52 38.54, 205 38.29"
          fill="none"/>
    <circle r="4" cx="5" cy="40" fill="#3023AE"/>
    <circle r="4" cx="205" cy="38.29" fill="#C86DD7"/>      
</svg>