<svg width="200" height="50" viewBox="0 0 210 50" xmlns="http://www.w3.org/2000/svg">
    <defs>
        <linearGradient x1="0%" y1="0%" x2="100%" y2="0%" id="a">
            <stop stop-color="#3023AE" offset="0%"/>
            <stop stop-color="#C86DD7" offset="100%"/>
        </linearGradient>
    </defs>
    <path stroke="url(#a)"
          stroke-width="3"
          stroke-linejoin="round"
          stroke-linecap="round"
          d="M5 40 C 5.55 38.6, 8.52 27.41, 10 27.18 S 14.07 37.29, 15 38.47 S 18.51 39.75, 20 39.89 S 23.5 39.5, 25 39.43 S 28.5 39.37, 30 39.43 S 33.5 39.76, 35 39.83 S 38.5 39.87, 40 39.89 S 43.5 39.96, 45 39.94 S 48.5 39.77, 50 39.77 S 53.5 39.91, 55 39.94 S 58.5 39.94, 60 39.94 S 63.5 39.94, 65 39.94 S 68.5 39.94, 70 39.94 S 73.5 39.97, 75 39.94 S 78.5 39.78, 80 39.77 S 83.5 39.86, 85 39.89 S 88.5 39.94, 90 39.94 S 93.5 39.89, 95 39.89 S 98.5 39.94, 100 39.94 S 103.5 39.89, 105 39.89 S 108.5 39.93, 110 39.94 S 113.5 40, 115 39.94 S 118.5 39.56, 120 39.55 S 123.5 39.84, 125 39.89 S 128.5 39.88, 130 39.89 S 133.5 39.93, 135 39.94 S 138.5 39.94, 140 39.94 S 143.5 39.94, 145 39.94 S 148.5 39.94, 150 39.94 S 153.5 39.94, 155 39.94 S 158.5 39.94, 160 39.94 S 163.5 39.94, 165 39.94 S 168.5 39.94, 170 39.94 S 173.5 39.96, 175 39.94 S 179.52 41.25, 180 39.83 S 183.93 11.05, 185 10 S 189.5 28.61, 190 30.02 S 193.89 37.02, 195 38.02 S 198.51 38.84, 200 39.04 S 203.5 39.28, 205 39.38"
          fill="none"/>
    <circle r="4" cx="5" cy="40" fill="#3023AE"/>
    <circle r="4" cx="205" cy="39.38" fill="#C86DD7"/>      
</svg>