<svg width="200" height="50" viewBox="0 0 210 50" xmlns="http://www.w3.org/2000/svg">
    <defs>
        <linearGradient x1="0%" y1="0%" x2="100%" y2="0%" id="a">
            <stop stop-color="#3023AE" offset="0%"/>
            <stop stop-color="#C86DD7" offset="100%"/>
        </linearGradient>
    </defs>
    <path stroke="url(#a)"
          stroke-width="3"
          stroke-linejoin="round"
          stroke-linecap="round"
          d="M5 40 C 6.5 39.98, 8.5 39.93, 10 39.93 S 13.5 39.96, 15 39.97 S 18.5 39.97, 20 39.97 S 23.5 39.97, 25 39.97 S 28.5 40.04, 30 39.97 S 33.5 39.5, 35 39.48 S 38.5 39.76, 40 39.83 S 43.5 39.96, 45 39.97 S 48.5 39.94, 50 39.9 S 53.5 39.69, 55 39.69 S 58.5 39.89, 60 39.93 S 63.5 39.92, 65 39.93 S 68.5 39.97, 70 39.97 S 74.53 41.35, 75 39.93 S 78.57 10.45, 80 10 S 84.5 35.4, 85 36.82 S 88.53 38.12, 90 38.43 S 93.5 38.9, 95 38.95 S 98.5 38.7, 100 38.78 S 103.51 39.64, 105 39.51 S 108.5 38.02, 110 37.94 S 113.51 38.84, 115 38.99 S 118.5 38.84, 120 38.92 S 123.5 39.43, 125 39.51 S 128.5 39.47, 130 39.48 S 133.5 39.58, 135 39.58 S 138.5 39.5, 140 39.51 S 143.5 39.59, 145 39.65 S 148.5 39.88, 150 39.9 S 153.5 39.79, 155 39.76 S 158.5 39.69, 160 39.69 S 163.5 39.78, 165 39.79 S 168.5 39.79, 170 39.79 S 173.5 39.77, 175 39.79 S 178.5 39.93, 180 39.93 S 183.5 39.76, 185 39.76 S 188.5 39.89, 190 39.9 S 193.5 39.91, 195 39.86 S 198.5 39.65, 200 39.58 S 203.5 39.46, 205 39.41"
          fill="none"/>
    <circle r="4" cx="5" cy="40" fill="#3023AE"/>
    <circle r="4" cx="205" cy="39.41" fill="#C86DD7"/>      
</svg>