<svg width="200" height="50" viewBox="0 0 210 50" xmlns="http://www.w3.org/2000/svg">
    <defs>
        <linearGradient x1="0%" y1="0%" x2="100%" y2="0%" id="a">
            <stop stop-color="#3023AE" offset="0%"/>
            <stop stop-color="#C86DD7" offset="100%"/>
        </linearGradient>
    </defs>
    <path stroke="url(#a)"
          stroke-width="3"
          stroke-linejoin="round"
          stroke-linecap="round"
          d="M5 40 C 5.28 38.53, 8.61 14.56, 10 14 S 14.42 34.62, 15 36 S 18.53 37.71, 20 38 S 23.5 38, 25 38 S 28.5 38, 30 38 S 33.5 38, 35 38 S 38.5 38, 40 38 S 43.61 38.56, 45 38 S 48.61 34.56, 50 34 S 53.61 33.44, 55 34 S 58.61 37.44, 60 38 S 63.5 38, 65 38 S 68.5 38, 70 38 S 73.5 38, 75 38 S 79.5 39.41, 80 38 S 83.53 10.29, 85 10 S 89.5 34.59, 90 36 S 93.53 38.29, 95 38 S 98.5 34, 100 34 S 103.53 37.71, 105 38 S 108.5 36, 110 36 S 113.71 38.77, 115 38 S 118.61 30.56, 120 30 S 123.53 33.71, 125 34 S 128.61 31.44, 130 32 S 133.71 37.23, 135 38 S 138.5 38, 140 38 S 143.5 38, 145 38 S 148.5 38, 150 38 S 153.5 38, 155 38 S 158.5 38, 160 38 S 163.5 38, 165 38 S 168.5 38, 170 38 S 173.5 38, 175 38 S 178.5 38, 180 38 S 183.5 38, 185 38 S 188.5 38, 190 38"
          fill="none"/>
    <circle r="4" cx="5" cy="40" fill="#3023AE"/>
    <circle r="4" cx="190" cy="38" fill="#C86DD7"/>      
</svg>