<svg width="200" height="50" viewBox="0 0 210 50" xmlns="http://www.w3.org/2000/svg">
    <defs>
        <linearGradient x1="0%" y1="0%" x2="100%" y2="0%" id="a">
            <stop stop-color="#3023AE" offset="0%"/>
            <stop stop-color="#C86DD7" offset="100%"/>
        </linearGradient>
    </defs>
    <path stroke="url(#a)"
          stroke-width="3"
          stroke-linejoin="round"
          stroke-linecap="round"
          d="M5 40 C 5.45 38.57, 9.42 25.31, 10 23.93 S 13.76 16.91, 15 16.07 S 18.86 16.16, 20 17.14 S 23.53 24.32, 25 24.64 S 28.8 20.19, 30 19.29 S 33.9 18.16, 35 17.14 S 38.53 10.31, 40 10 S 44.3 13.67, 45 15 S 48.86 27.95, 50 28.93 S 53.62 24.16, 55 23.57 S 58.51 24.48, 60 24.64 S 63.59 24.14, 65 24.64 S 68.5 28.16, 70 28.21 S 73.57 24.54, 75 25 S 78.82 30.5, 80 31.43 S 83.54 32.5, 85 32.86 S 88.52 33.67, 90 33.93 S 93.53 34.33, 95 34.64 S 98.52 35.86, 100 36.07 S 103.53 35.76, 105 36.07 S 108.52 38, 110 38.21 S 113.51 37.66, 115 37.5 S 118.5 37.19, 120 37.14 S 123.5 37.19, 125 37.14 S 128.54 37.15, 130 36.79 S 133.5 34.53, 135 34.64 S 138.59 37, 140 37.5 S 143.51 38.05, 145 38.21 S 148.5 38.62, 150 38.57 S 153.5 37.97, 155 37.86 S 158.52 37.65, 160 37.86 S 163.52 39.08, 165 39.29 S 168.54 39.65, 170 39.29 S 173.5 36.84, 175 36.79 S 178.52 38.67, 180 38.93 S 183.5 38.52, 185 38.57 S 188.52 39.5, 190 39.29 S 193.52 37.4, 195 37.14 S 198.51 37.34, 200 37.5 S 203.51 38, 205 38.21"
          fill="none"/>
    <circle r="4" cx="5" cy="40" fill="#3023AE"/>
    <circle r="4" cx="205" cy="38.21" fill="#C86DD7"/>      
</svg>