<svg width="200" height="50" viewBox="0 0 210 50" xmlns="http://www.w3.org/2000/svg">
    <defs>
        <linearGradient x1="0%" y1="0%" x2="100%" y2="0%" id="a">
            <stop stop-color="#3023AE" offset="0%"/>
            <stop stop-color="#C86DD7" offset="100%"/>
        </linearGradient>
    </defs>
    <path stroke="url(#a)"
          stroke-width="3"
          stroke-linejoin="round"
          stroke-linecap="round"
          d="M5 40 C 5.25 38.52, 8.89 11.01, 10 10 S 14.51 29.45, 15 30.87 S 18.82 37.78, 20 38.7 S 23.5 38.7, 25 38.7 S 28.5 38.7, 30 38.7 S 33.5 38.7, 35 38.7 S 38.5 38.7, 40 38.7 S 43.5 38.7, 45 38.7 S 48.5 38.7, 50 38.7 S 53.5 38.7, 55 38.7 S 58.5 38.7, 60 38.7 S 63.5 38.7, 65 38.7 S 68.5 38.7, 70 38.7 S 73.5 38.7, 75 38.7 S 78.5 38.7, 80 38.7 S 83.5 38.7, 85 38.7 S 88.5 38.7, 90 38.7 S 93.5 38.7, 95 38.7 S 98.5 38.7, 100 38.7 S 103.5 38.7, 105 38.7 S 108.5 38.7, 110 38.7 S 113.5 38.7, 115 38.7 S 118.5 38.7, 120 38.7"
          fill="none"/>
    <circle r="4" cx="5" cy="40" fill="#3023AE"/>
    <circle r="4" cx="120" cy="38.7" fill="#C86DD7"/>      
</svg>