<svg width="200" height="50" viewBox="0 0 210 50" xmlns="http://www.w3.org/2000/svg">
    <defs>
        <linearGradient x1="0%" y1="0%" x2="100%" y2="0%" id="a">
            <stop stop-color="#3023AE" offset="0%"/>
            <stop stop-color="#C86DD7" offset="100%"/>
        </linearGradient>
    </defs>
    <path stroke="url(#a)"
          stroke-width="3"
          stroke-linejoin="round"
          stroke-linecap="round"
          d="M5 40 C 5.84 38.76, 8.5 32.63, 10 32.58 S 13.77 38.78, 15 39.64 S 18.5 39.57, 20 39.61 S 23.5 39.87, 25 39.91 S 28.5 39.85, 30 39.85 S 33.5 39.93, 35 39.94 S 38.5 39.96, 40 39.94 S 43.5 39.82, 45 39.82 S 48.5 39.9, 50 39.91 S 53.5 39.9, 55 39.91 S 58.5 40.01, 60 39.97 S 63.5 39.68, 65 39.67 S 68.5 39.87, 70 39.91 S 73.5 39.96, 75 39.97 S 78.5 39.97, 80 39.97 S 83.5 39.98, 85 39.97 S 89.31 41.24, 90 39.91 S 93.54 20.89, 95 20.53 S 99.29 36.11, 100 37.43 S 103.53 38.92, 105 39.22 S 108.6 40.02, 110 39.49 S 113.5 35.55, 115 35.44 S 118.6 38.21, 120 38.76 S 123.5 39.24, 125 39.34 S 128.5 39.37, 130 39.4 S 133.5 39.49, 135 39.52 S 138.5 39.61, 140 39.61 S 143.5 39.52, 145 39.52 S 148.5 39.64, 150 39.64 S 153.5 39.51, 155 39.49 S 159.52 40.94, 160 39.52 S 163.57 10.45, 165 10 S 169.5 34.93, 170 36.35 S 173.5 38.57, 175 38.55 S 178.51 36.38, 180 36.23 S 183.56 37.15, 185 37.56 S 188.51 38.87, 190 39.06 S 193.5 38.81, 195 38.85 S 198.5 39.25, 200 39.31 S 203.5 39.29, 205 39.28"
          fill="none"/>
    <circle r="4" cx="5" cy="40" fill="#3023AE"/>
    <circle r="4" cx="205" cy="39.28" fill="#C86DD7"/>      
</svg>