<svg width="200" height="50" viewBox="0 0 210 50" xmlns="http://www.w3.org/2000/svg">
    <defs>
        <linearGradient x1="0%" y1="0%" x2="100%" y2="0%" id="a">
            <stop stop-color="#3023AE" offset="0%"/>
            <stop stop-color="#C86DD7" offset="100%"/>
        </linearGradient>
    </defs>
    <path stroke="url(#a)"
          stroke-width="3"
          stroke-linejoin="round"
          stroke-linecap="round"
          d="M5 40 C 5.25 38.52, 8.51 10.12, 10 10 S 14.51 37.75, 15 39.17 S 18.5 39.17, 20 39.17 S 23.5 39.17, 25 39.17 S 28.5 39.17, 30 39.17 S 33.5 39.17, 35 39.17 S 38.5 39.17, 40 39.17 S 43.5 39.17, 45 39.17 S 48.5 39.17, 50 39.17 S 53.5 39.17, 55 39.17 S 58.5 39.17, 60 39.17 S 63.5 39.17, 65 39.17 S 68.5 39.17, 70 39.17 S 73.5 39.17, 75 39.17 S 78.5 39.17, 80 39.17 S 83.5 39.17, 85 39.17 S 88.5 39.17, 90 39.17 S 93.5 39.17, 95 39.17 S 98.5 39.17, 100 39.17 S 103.5 39.17, 105 39.17 S 108.5 39.17, 110 39.17 S 113.5 39.17, 115 39.17 S 118.5 39.17, 120 39.17 S 123.5 39.17, 125 39.17 S 128.5 39.17, 130 39.17 S 133.5 39.17, 135 39.17 S 138.5 39.17, 140 39.17 S 143.5 39.17, 145 39.17 S 148.5 39.17, 150 39.17 S 153.5 39.17, 155 39.17 S 158.5 39.17, 160 39.17 S 163.5 39.17, 165 39.17 S 168.5 39.17, 170 39.17 S 173.5 39.17, 175 39.17 S 178.5 39.17, 180 39.17 S 183.5 39.17, 185 39.17 S 188.5 39.17, 190 39.17 S 193.5 39.17, 195 39.17 S 198.62 39.75, 200 39.17 S 203.85 35.96, 205 35"
          fill="none"/>
    <circle r="4" cx="5" cy="40" fill="#3023AE"/>
    <circle r="4" cx="205" cy="35" fill="#C86DD7"/>      
</svg>