<svg width="200" height="50" viewBox="0 0 210 50" xmlns="http://www.w3.org/2000/svg">
    <defs>
        <linearGradient x1="0%" y1="0%" x2="100%" y2="0%" id="a">
            <stop stop-color="#3023AE" offset="0%"/>
            <stop stop-color="#C86DD7" offset="100%"/>
        </linearGradient>
    </defs>
    <path stroke="url(#a)"
          stroke-width="3"
          stroke-linejoin="round"
          stroke-linecap="round"
          d="M5 40 C 5.58 38.62, 9.53 29.42, 10 28 S 13.71 10.77, 15 10 S 19.46 20.6, 20 22 S 24.04 34.85, 25 36 S 28.53 33.71, 30 34 S 33.53 37.71, 35 38 S 38.5 36, 40 36 S 43.53 37.71, 45 38 S 48.5 38, 50 38 S 53.5 38, 55 38 S 58.5 38, 60 38 S 63.5 38, 65 38 S 68.5 38, 70 38 S 73.5 38, 75 38"
          fill="none"/>
    <circle r="4" cx="5" cy="40" fill="#3023AE"/>
    <circle r="4" cx="75" cy="38" fill="#C86DD7"/>      
</svg>