<svg width="200" height="50" viewBox="0 0 210 50" xmlns="http://www.w3.org/2000/svg">
    <defs>
        <linearGradient x1="0%" y1="0%" x2="100%" y2="0%" id="a">
            <stop stop-color="#3023AE" offset="0%"/>
            <stop stop-color="#C86DD7" offset="100%"/>
        </linearGradient>
    </defs>
    <path stroke="url(#a)"
          stroke-width="3"
          stroke-linejoin="round"
          stroke-linecap="round"
          d="M5 40 C 6.5 39.92, 8.5 39.74, 10 39.74 S 13.5 39.94, 15 39.97 S 18.5 39.98, 20 39.97 S 23.5 39.91, 25 39.9 S 28.5 39.93, 30 39.93 S 33.5 39.9, 35 39.87 S 38.5 39.74, 40 39.71 S 43.5 39.64, 45 39.64 S 48.5 39.71, 50 39.71 S 53.5 39.67, 55 39.67 S 58.5 39.74, 60 39.74 S 63.5 39.65, 65 39.64 S 69.52 41.06, 70 39.64 S 74.51 11.42, 75 10 S 79.44 9.07, 80 10.46 S 84.44 33.6, 85 34.99 S 88.53 35.01, 90 35.29 S 93.51 36.73, 95 36.88 S 98.51 36.13, 100 36.29 S 103.52 37.72, 105 37.98 S 108.51 38.23, 110 38.05 S 113.5 36.87, 115 36.78 S 118.54 37.79, 120 37.46 S 123.5 34.58, 125 34.54 S 128.54 37.52, 130 37.17 S 133.82 33.09, 135 32.17 S 138.53 29.66, 140 29.34 S 143.62 29.4, 145 29.99 S 148.52 33.39, 150 33.6 S 153.6 31.96, 155 31.42 S 158.52 30.02, 160 29.76 S 163.51 29.85, 165 29.66 S 168.55 28.09, 170 28.46 S 173.54 31.87, 175 32.2 S 178.5 30.72, 180 30.7 S 183.5 32.08, 185 32.07 S 188.56 31.03, 190 30.61 S 193.5 29.23, 195 29.18 S 198.54 29.9, 200 30.25 S 203.55 31.22, 205 31.61"
          fill="none"/>
    <circle r="4" cx="5" cy="40" fill="#3023AE"/>
    <circle r="4" cx="205" cy="31.61" fill="#C86DD7"/>      
</svg>