<svg width="200" height="50" viewBox="0 0 210 50" xmlns="http://www.w3.org/2000/svg">
    <defs>
        <linearGradient x1="0%" y1="0%" x2="100%" y2="0%" id="a">
            <stop stop-color="#3023AE" offset="0%"/>
            <stop stop-color="#C86DD7" offset="100%"/>
        </linearGradient>
    </defs>
    <path stroke="url(#a)"
          stroke-width="3"
          stroke-linejoin="round"
          stroke-linecap="round"
          d="M5 40 C 6.5 39.95, 8.5 39.83, 10 39.82 S 13.5 39.94, 15 39.95 S 18.5 39.93, 20 39.89 S 23.5 39.74, 25 39.7 S 28.5 39.64, 30 39.64 S 33.5 39.69, 35 39.68 S 39.1 40.77, 40 39.57 S 44.52 27.84, 45 26.42 S 48.86 9.02, 50 10 S 54.46 33.63, 55 35.03 S 58.55 35.62, 60 35.99 S 63.51 37.43, 65 37.56 S 68.56 37.31, 70 36.88 S 73.6 35.12, 75 34.58 S 78.77 33.91, 80 33.05 S 83.53 27.92, 85 27.61 S 88.5 30.79, 90 30.91 S 93.58 28.9, 95 28.41 S 98.51 27.35, 100 27.49 S 103.55 28.97, 105 29.34 S 108.5 30.09, 110 30.02 S 113.51 28.97, 115 28.84 S 118.51 29.39, 120 29.18 S 123.5 27.54, 125 27.45 S 128.52 28.37, 130 28.61 S 133.51 28.9, 135 29.04 S 139.07 30.75, 140 29.57 S 143.8 17.32, 145 16.42 S 148.9 21.05, 150 22.07 S 153.71 24.93, 155 25.69 S 158.61 27.36, 160 27.93 S 163.5 29.81, 165 29.79 S 168.53 28.13, 170 27.81 S 173.51 27.44, 175 27.61 S 178.52 28.7, 180 28.95 S 183.6 29.8, 185 29.27 S 188.63 25.76, 190 25.15 S 193.5 24.72, 195 24.81 S 198.64 25.11, 200 25.74 S 203.79 28.54, 205 29.43"
          fill="none"/>
    <circle r="4" cx="5" cy="40" fill="#3023AE"/>
    <circle r="4" cx="205" cy="29.43" fill="#C86DD7"/>      
</svg>