<svg width="200" height="50" viewBox="0 0 210 50" xmlns="http://www.w3.org/2000/svg">
    <defs>
        <linearGradient x1="0%" y1="0%" x2="100%" y2="0%" id="a">
            <stop stop-color="#3023AE" offset="0%"/>
            <stop stop-color="#C86DD7" offset="100%"/>
        </linearGradient>
    </defs>
    <path stroke="url(#a)"
          stroke-width="3"
          stroke-linejoin="round"
          stroke-linecap="round"
          d="M5 40 C 6.44 39.57, 8.52 38.72, 10 38.5 S 13.5 38.5, 15 38.5 S 18.5 38.5, 20 38.5 S 23.5 38.5, 25 38.5 S 28.5 38.5, 30 38.5 S 33.5 38.5, 35 38.5 S 38.5 38.5, 40 38.5 S 43.5 38.5, 45 38.5 S 48.5 38.5, 50 38.5 S 53.5 38.5, 55 38.5 S 58.5 38.5, 60 38.5 S 63.5 38.5, 65 38.5 S 68.5 38.5, 70 38.5 S 73.5 38.5, 75 38.5 S 78.5 38.5, 80 38.5 S 83.5 38.5, 85 38.5 S 88.5 38.5, 90 38.5 S 93.5 38.5, 95 38.5 S 98.5 38.5, 100 38.5 S 103.5 38.5, 105 38.5 S 108.5 38.5, 110 38.5 S 113.5 38.5, 115 38.5 S 118.5 38.5, 120 38.5 S 123.5 38.5, 125 38.5 S 128.5 38.5, 130 38.5 S 133.5 38.5, 135 38.5 S 138.5 38.5, 140 38.5 S 143.5 38.5, 145 38.5 S 148.5 38.5, 150 38.5 S 153.5 38.5, 155 38.5 S 158.5 38.5, 160 38.5 S 163.5 38.5, 165 38.5 S 168.5 38.5, 170 38.5 S 173.5 38.5, 175 38.5 S 179.5 39.92, 180 38.5 S 183.52 10.22, 185 10 S 189.48 35.59, 190 37 S 193.56 37.43, 195 37 S 199.27 35.31, 200 34 S 204.53 20.42, 205 19"
          fill="none"/>
    <circle r="4" cx="5" cy="40" fill="#3023AE"/>
    <circle r="4" cx="205" cy="19" fill="#C86DD7"/>      
</svg>