<svg width="200" height="50" viewBox="0 0 210 50" xmlns="http://www.w3.org/2000/svg">
    <defs>
        <linearGradient x1="0%" y1="0%" x2="100%" y2="0%" id="a">
            <stop stop-color="#3023AE" offset="0%"/>
            <stop stop-color="#C86DD7" offset="100%"/>
        </linearGradient>
    </defs>
    <path stroke="url(#a)"
          stroke-width="3"
          stroke-linejoin="round"
          stroke-linecap="round"
          d="M5 40 C 5.28 38.53, 8.8 14.65, 10 13.75 S 13.5 32.5, 15 32.5 S 18.8 14.65, 20 13.75 S 24.29 23.68, 25 25 S 28.8 31.6, 30 32.5 S 33.6 31.97, 35 32.5 S 38.6 35.72, 40 36.25 S 43.5 36.25, 45 36.25 S 48.5 36.25, 50 36.25 S 53.8 37.15, 55 36.25 S 59 29.87, 60 28.75 S 63.8 24.1, 65 25 S 68.6 35.72, 70 36.25 S 74 29.87, 75 28.75 S 78.6 24.47, 80 25 S 84 31.38, 85 32.5 S 88.6 36.78, 90 36.25 S 93.5 28.75, 95 28.75 S 98.5 36.25, 100 36.25 S 103.5 28.75, 105 28.75 S 108.8 35.35, 110 36.25 S 113.5 36.25, 115 36.25 S 118.6 36.78, 120 36.25 S 123.5 32.5, 125 32.5 S 129 37.37, 130 36.25 S 134.47 22.65, 135 21.25 S 139 8.88, 140 10 S 144.47 31.1, 145 32.5 S 148.5 36.25, 150 36.25 S 154.17 33.75, 155 32.5 S 159 22.37, 160 21.25 S 163.6 20.72, 165 21.25 S 169 23.88, 170 25 S 174 31.38, 175 32.5 S 178.5 36.25, 180 36.25 S 183.5 32.5, 185 32.5 S 189 37.37, 190 36.25 S 194.17 22.5, 195 21.25 S 198.6 20.72, 200 21.25 S 203.8 24.1, 205 25"
          fill="none"/>
    <circle r="4" cx="5" cy="40" fill="#3023AE"/>
    <circle r="4" cx="205" cy="25" fill="#C86DD7"/>      
</svg>