<svg width="200" height="50" viewBox="0 0 210 50" xmlns="http://www.w3.org/2000/svg">
    <defs>
        <linearGradient x1="0%" y1="0%" x2="100%" y2="0%" id="a">
            <stop stop-color="#3023AE" offset="0%"/>
            <stop stop-color="#C86DD7" offset="100%"/>
        </linearGradient>
    </defs>
    <path stroke="url(#a)"
          stroke-width="3"
          stroke-linejoin="round"
          stroke-linecap="round"
          d="M5 40 C 5.25 38.52, 9.05 11.16, 10 10 S 14.38 26.31, 15 27.68 S 19.17 33.38, 20 32.13 S 23.51 12.88, 25 12.72 S 29.22 29.75, 30 31.03 S 33.54 29.59, 35 29.23 S 38.51 28.72, 40 28.54 S 43.58 28.48, 45 28 S 48.51 25.36, 50 25.2 S 53.57 26.49, 55 26.94 S 58.59 27.81, 60 28.32 S 63.54 30.22, 65 30.55 S 68.52 30.78, 70 30.57 S 73.51 29.31, 75 29.11 S 78.52 29.49, 80 29.23 S 83.5 27.33, 85 27.32 S 88.56 28.78, 90 29.19 S 93.52 29.9, 95 30.17 S 99.11 32.24, 100 31.03 S 103.5 16.63, 105 16.61 S 109.16 29.67, 110 30.91 S 113.51 31.49, 115 31.37 S 118.51 30.3, 120 30.09 S 123.51 29.78, 125 29.97 S 128.54 31.02, 130 31.37 S 133.51 32.25, 135 32.37 S 138.53 32.5, 140 32.19 S 143.5 30.26, 145 30.29 S 148.5 32.36, 150 32.41 S 153.52 30.86, 155 30.65 S 158.54 31.32, 160 30.97 S 163.68 28.97, 165 28.26 S 168.5 25.44, 170 25.56 S 173.57 28.59, 175 29.03 S 178.5 28.75, 180 28.66 S 183.5 28.35, 185 28.42 S 188.59 29.63, 190 29.11 S 193.54 25.09, 195 24.74 S 198.51 26.48, 200 26.68 S 203.51 26.27, 205 26.1"
          fill="none"/>
    <circle r="4" cx="5" cy="40" fill="#3023AE"/>
    <circle r="4" cx="205" cy="26.1" fill="#C86DD7"/>      
</svg>