<svg width="200" height="50" viewBox="0 0 210 50" xmlns="http://www.w3.org/2000/svg">
    <defs>
        <linearGradient x1="0%" y1="0%" x2="100%" y2="0%" id="a">
            <stop stop-color="#3023AE" offset="0%"/>
            <stop stop-color="#C86DD7" offset="100%"/>
        </linearGradient>
    </defs>
    <path stroke="url(#a)"
          stroke-width="3"
          stroke-linejoin="round"
          stroke-linecap="round"
          d="M5 40 C 6.49 39.79, 8.56 39.7, 10 39.29 S 13.5 37.19, 15 37.14 S 18.54 38.57, 20 38.93 S 23.5 39.59, 25 39.64 S 28.51 39.45, 30 39.29 S 33.5 38.68, 35 38.57 S 38.6 39.12, 40 38.57 S 43.5 34.75, 45 34.64 S 48.64 37.23, 50 37.86 S 53.52 39.03, 55 39.29 S 58.5 39.59, 60 39.64 S 63.5 39.64, 65 39.64 S 68.5 39.64, 70 39.64 S 73.5 39.64, 75 39.64 S 78.5 39.64, 80 39.64 S 83.5 39.64, 85 39.64 S 88.5 39.64, 90 39.64 S 93.5 39.64, 95 39.64 S 98.5 39.64, 100 39.64 S 103.5 39.64, 105 39.64 S 108.5 39.64, 110 39.64 S 114.27 40.95, 115 39.64 S 118.57 22.25, 120 21.79 S 124.21 35.16, 125 36.43 S 128.52 37.65, 130 37.86 S 133.5 37.91, 135 37.86 S 138.51 37.34, 140 37.5 S 143.51 38.77, 145 38.93 S 148.52 38.83, 150 38.57 S 153.51 36.98, 155 37.14 S 158.52 39.43, 160 39.64 S 164.19 39.84, 165 38.57 S 168.57 24.39, 170 23.93 S 173.92 34.32, 175 35.36 S 179.45 34.97, 180 33.57 S 183.6 10.55, 185 10 S 189.41 28.26, 190 29.64 S 193.62 32.98, 195 33.57 S 198.5 34.04, 200 33.93 S 203.53 33.17, 205 32.86"
          fill="none"/>
    <circle r="4" cx="5" cy="40" fill="#3023AE"/>
    <circle r="4" cx="205" cy="32.86" fill="#C86DD7"/>      
</svg>