<svg width="200" height="50" viewBox="0 0 210 50" xmlns="http://www.w3.org/2000/svg">
    <defs>
        <linearGradient x1="0%" y1="0%" x2="100%" y2="0%" id="a">
            <stop stop-color="#3023AE" offset="0%"/>
            <stop stop-color="#C86DD7" offset="100%"/>
        </linearGradient>
    </defs>
    <path stroke="url(#a)"
          stroke-width="3"
          stroke-linejoin="round"
          stroke-linecap="round"
          d="M5 40 C 6.09 38.97, 8.73 36.06, 10 35.26 S 14.07 34.86, 15 33.68 S 18.5 22.63, 20 22.63 S 23.57 33.23, 25 33.68 S 28.52 25.56, 30 25.79 S 33.99 34.15, 35 35.26 S 38.64 37.48, 40 36.84 S 43.52 30.76, 45 30.53 S 48.57 35.71, 50 35.26 S 54.14 28.6, 55 27.37 S 58.82 21.98, 60 21.05 S 63.82 20.4, 65 19.47 S 69.07 11.98, 70 13.16 S 74.2 30.84, 75 32.11 S 78.52 29.18, 80 28.95 S 84.14 31.76, 85 30.53 S 88.52 14.51, 90 14.74 S 93.64 32.75, 95 32.11 S 98.99 11.11, 100 10 S 104.07 19.87, 105 21.05 S 108.52 22.4, 110 22.63 S 113.73 21.83, 115 22.63 S 118.91 27.92, 120 28.95 S 123.64 32.75, 125 32.11 S 128.64 24.85, 130 24.21 S 133.73 26.57, 135 27.37 S 138.52 30.3, 140 30.53 S 143.5 28.95, 145 28.95 S 148.91 31.56, 150 30.53 S 153.57 19.92, 155 19.47 S 158.73 26.57, 160 27.37 S 163.64 25.15, 165 25.79 S 168.5 32.11, 170 32.11 S 173.57 25.34, 175 25.79 S 178.91 34.23, 180 35.26 S 183.64 35.9, 185 35.26 S 188.73 31.33, 190 30.53 S 193.73 29.75, 195 28.95 S 198.57 24.66, 200 24.21 S 203.57 25.34, 205 25.79"
          fill="none"/>
    <circle r="4" cx="5" cy="40" fill="#3023AE"/>
    <circle r="4" cx="205" cy="25.79" fill="#C86DD7"/>      
</svg>