<svg width="200" height="50" viewBox="0 0 210 50" xmlns="http://www.w3.org/2000/svg">
    <defs>
        <linearGradient x1="0%" y1="0%" x2="100%" y2="0%" id="a">
            <stop stop-color="#3023AE" offset="0%"/>
            <stop stop-color="#C86DD7" offset="100%"/>
        </linearGradient>
    </defs>
    <path stroke="url(#a)"
          stroke-width="3"
          stroke-linejoin="round"
          stroke-linecap="round"
          d="M5 40 C 6.1 38.98, 8.77 36.23, 10 35.38 S 13.54 32.74, 15 33.08 S 18.64 37.06, 20 37.69 S 23.54 38.03, 25 37.69 S 28.5 35.38, 30 35.38 S 33.54 37.35, 35 37.69 S 38.5 37.69, 40 37.69 S 43.77 38.54, 45 37.69 S 48.64 31.4, 50 30.77 S 53.5 33.08, 55 33.08 S 58.54 30.43, 60 30.77 S 63.77 34.53, 65 35.38 S 68.54 37.35, 70 37.69 S 73.5 37.69, 75 37.69 S 78.5 37.69, 80 37.69 S 83.5 37.69, 85 37.69 S 88.54 38.03, 90 37.69 S 93.9 36.4, 95 35.38 S 98.54 28.12, 100 28.46 S 103.64 37.06, 105 37.69 S 108.54 33.42, 110 33.08 S 113.54 35.04, 115 35.38 S 118.5 35.38, 120 35.38 S 123.5 35.38, 125 35.38 S 128.54 35.04, 130 35.38 S 133.54 37.35, 135 37.69 S 138.5 37.69, 140 37.69 S 143.5 37.69, 145 37.69 S 148.5 37.69, 150 37.69 S 153.5 37.69, 155 37.69 S 158.5 37.69, 160 37.69 S 163.5 37.69, 165 37.69 S 168.5 37.69, 170 37.69 S 173.5 37.69, 175 37.69 S 178.5 37.69, 180 37.69 S 183.54 38.03, 185 37.69 S 189.49 36.79, 190 35.38 S 193.9 11.02, 195 10 S 198.54 25.81, 200 26.15 S 204.49 13.72, 205 12.31"
          fill="none"/>
    <circle r="4" cx="5" cy="40" fill="#3023AE"/>
    <circle r="4" cx="205" cy="12.309999999999999" fill="#C86DD7"/>      
</svg>