<svg width="200" height="50" viewBox="0 0 210 50" xmlns="http://www.w3.org/2000/svg">
    <defs>
        <linearGradient x1="0%" y1="0%" x2="100%" y2="0%" id="a">
            <stop stop-color="#3023AE" offset="0%"/>
            <stop stop-color="#C86DD7" offset="100%"/>
        </linearGradient>
    </defs>
    <path stroke="url(#a)"
          stroke-width="3"
          stroke-linejoin="round"
          stroke-linecap="round"
          d="M5 40 C 5.61 38.63, 8.6 29.28, 10 28.75 S 13.69 36.99, 15 36.25 S 19.24 24.41, 20 23.12 S 23.8 20.27, 25 19.37 S 29.09 14.43, 30 15.62 S 33.8 31.6, 35 32.5 S 39.39 24.49, 40 23.12 S 43.6 9.47, 45 10 S 49.29 25.55, 50 26.87 S 53.8 29.65, 55 28.75 S 58.8 20.27, 60 19.37 S 63.6 21.78, 65 21.25 S 68.53 15.34, 70 15.62 S 73.69 22.38, 75 23.12 S 78.6 20.72, 80 21.25 S 84.09 25.68, 85 26.87 S 88.53 34.09, 90 34.37 S 93.69 29.48, 95 28.75 S 98.6 29.28, 100 28.75 S 103.53 24.72, 105 25 S 108.5 30.62, 110 30.62 S 113.6 25.53, 115 25 S 118.6 26.34, 120 26.87 S 123.6 29.28, 125 28.75 S 128.6 22.59, 130 23.12 S 133.6 31.97, 135 32.5 S 138.53 27.15, 140 26.87 S 143.6 30.09, 145 30.62 S 148.53 30.34, 150 30.62 S 153.5 32.5, 155 32.5 S 158.53 30.34, 160 30.62 S 163.53 34.09, 165 34.37 S 168.91 33.53, 170 32.5 S 173.53 24.72, 175 25 S 179.09 33.18, 180 34.37 S 183.53 38.4, 185 38.12 S 188.6 33.03, 190 32.5 S 193.53 34.09, 195 34.37 S 198.53 34.09, 200 34.37 S 203.6 35.72, 205 36.25"
          fill="none"/>
    <circle r="4" cx="5" cy="40" fill="#3023AE"/>
    <circle r="4" cx="205" cy="36.25" fill="#C86DD7"/>      
</svg>