<svg width="200" height="50" viewBox="0 0 210 50" xmlns="http://www.w3.org/2000/svg">
    <defs>
        <linearGradient x1="0%" y1="0%" x2="100%" y2="0%" id="a">
            <stop stop-color="#3023AE" offset="0%"/>
            <stop stop-color="#C86DD7" offset="100%"/>
        </linearGradient>
    </defs>
    <path stroke="url(#a)"
          stroke-width="3"
          stroke-linejoin="round"
          stroke-linecap="round"
          d="M5 40 C 6.49 39.84, 8.5 39.55, 10 39.47 S 13.52 39.7, 15 39.47 S 18.52 38.12, 20 37.89 S 23.52 37.66, 25 37.89 S 28.53 39.78, 30 39.47 S 33.51 35.95, 35 35.79 S 38.57 37.97, 40 38.42 S 43.52 39.18, 45 38.95 S 48.88 37.84, 50 36.84 S 54.37 31.36, 55 30 S 58.67 14.56, 60 15.26 S 63.99 34.15, 65 35.26 S 68.5 26.32, 70 26.32 S 73.52 35.49, 75 35.26 S 79.07 25.92, 80 24.74 S 83.52 22.4, 85 22.63 S 88.52 26.09, 90 26.32 S 93.62 24.79, 95 24.21 S 98.55 21.73, 100 22.11 S 104.04 28, 105 26.84 S 108.5 10.08, 110 10 S 113.59 25.8, 115 26.32 S 118.59 14.2, 120 13.68 S 124.16 21.39, 125 22.63 S 128.64 27.78, 130 28.42 S 133.59 27.89, 135 27.37 S 138.52 24.97, 140 24.74 S 143.57 25.34, 145 25.79 S 148.55 27.51, 150 27.89 S 153.5 28.34, 155 28.42 S 158.57 27.97, 160 28.42 S 163.51 31.42, 165 31.58 S 168.79 30.36, 170 29.47 S 173.52 24.44, 175 24.21 S 178.73 28.69, 180 27.89 S 183.5 17.89, 185 17.89 S 188.79 27, 190 27.89 S 193.57 25.71, 195 25.26 S 198.51 24.58, 200 24.74 S 203.57 25.87, 205 26.32"
          fill="none"/>
    <circle r="4" cx="5" cy="40" fill="#3023AE"/>
    <circle r="4" cx="205" cy="26.32" fill="#C86DD7"/>      
</svg>