<svg width="200" height="50" viewBox="0 0 210 50" xmlns="http://www.w3.org/2000/svg">
    <defs>
        <linearGradient x1="0%" y1="0%" x2="100%" y2="0%" id="a">
            <stop stop-color="#3023AE" offset="0%"/>
            <stop stop-color="#C86DD7" offset="100%"/>
        </linearGradient>
    </defs>
    <path stroke="url(#a)"
          stroke-width="3"
          stroke-linejoin="round"
          stroke-linecap="round"
          d="M5 40 C 5.42 38.56, 8.51 22.95, 10 22.74 S 13.84 37.63, 15 38.58 S 18.55 31.31, 20 30.94 S 23.53 35.75, 25 36.04 S 28.5 33.01, 30 32.92 S 33.56 35.06, 35 35.47 S 38.5 35.83, 40 35.75 S 43.87 35.9, 45 34.91 S 48.54 27.31, 50 26.98 S 53.74 31.82, 55 32.64 S 58.58 33.01, 60 33.49 S 63.84 36.99, 65 36.04 S 68.52 25.53, 70 25.28 S 74.06 33.17, 75 34.34 S 78.5 37.83, 80 37.74 S 83.78 34.64, 85 33.77 S 88.51 30.45, 90 30.66 S 93.59 34.67, 95 35.19 S 98.52 34.59, 100 34.34 S 103.52 33.24, 105 33.49 S 108.51 35.83, 110 36.04 S 113.51 35.04, 115 34.91 S 118.5 35.11, 120 35.19 S 123.5 35.43, 125 35.47 S 128.5 35.43, 130 35.47 S 133.63 36.37, 135 35.75 S 138.53 31.23, 140 30.94 S 143.59 34.29, 145 33.77 S 148.61 27.81, 150 27.26 S 154.25 31.11, 155 29.81 S 158.5 10.08, 160 10 S 164.21 27.98, 165 29.25 S 168.63 26.75, 170 26.13 S 173.63 24.1, 175 24.72 S 178.58 30.18, 180 30.66 S 183.56 28.52, 185 28.11 S 188.51 27.66, 190 27.83 S 193.55 29.62, 195 29.25 S 198.5 25.28, 200 25.28 S 203.83 28.32, 205 29.25"
          fill="none"/>
    <circle r="4" cx="5" cy="40" fill="#3023AE"/>
    <circle r="4" cx="205" cy="29.25" fill="#C86DD7"/>      
</svg>