<svg width="200" height="50" viewBox="0 0 210 50" xmlns="http://www.w3.org/2000/svg">
    <defs>
        <linearGradient x1="0%" y1="0%" x2="100%" y2="0%" id="a">
            <stop stop-color="#3023AE" offset="0%"/>
            <stop stop-color="#C86DD7" offset="100%"/>
        </linearGradient>
    </defs>
    <path stroke="url(#a)"
          stroke-width="3"
          stroke-linejoin="round"
          stroke-linecap="round"
          d="M5 40 C 5.25 38.52, 9.01 11.12, 10 10 S 13.91 27.67, 15 28.7 S 18.57 19.93, 20 19.49 S 24.14 24.4, 25 25.63 S 29.07 32.68, 30 33.86 S 33.51 38.12, 35 38.33 S 38.93 36.31, 40 35.26 S 43.59 28.05, 45 28.56 S 48.89 37.87, 50 38.88 S 53.5 37.61, 55 37.63 S 58.51 38.83, 60 39.02 S 63.5 38.78, 65 38.88 S 68.5 39.7, 70 39.72 S 73.5 39.12, 75 39.02 S 78.51 39.19, 80 39.02 S 83.5 37.81, 85 37.91 S 88.51 39.58, 90 39.72 S 93.51 39.09, 95 38.88 S 98.5 38.27, 100 38.33 S 103.5 39.32, 105 39.3 S 108.5 38.27, 110 38.19 S 113.5 38.68, 115 38.74 S 118.5 38.64, 120 38.6 S 123.51 38.68, 125 38.47 S 128.5 37.11, 130 37.21 S 133.54 38.81, 135 39.16 S 138.5 39.62, 140 39.58 S 143.5 38.98, 145 38.88 S 148.5 38.9, 150 38.88 S 153.5 38.74, 155 38.74 S 158.5 38.78, 160 38.88 S 163.5 39.38, 165 39.44 S 168.51 39.49, 170 39.3 S 173.5 38.23, 175 38.19 S 178.5 38.92, 180 39.02 S 183.51 39.05, 185 38.88 S 188.5 37.89, 190 37.91 S 193.52 38.79, 195 39.02 S 198.51 39.65, 200 39.44 S 203.59 38.14, 205 37.63"
          fill="none"/>
    <circle r="4" cx="5" cy="40" fill="#3023AE"/>
    <circle r="4" cx="205" cy="37.63" fill="#C86DD7"/>      
</svg>