<svg width="200" height="50" viewBox="0 0 210 50" xmlns="http://www.w3.org/2000/svg">
    <defs>
        <linearGradient x1="0%" y1="0%" x2="100%" y2="0%" id="a">
            <stop stop-color="#3023AE" offset="0%"/>
            <stop stop-color="#C86DD7" offset="100%"/>
        </linearGradient>
    </defs>
    <path stroke="url(#a)"
          stroke-width="3"
          stroke-linejoin="round"
          stroke-linecap="round"
          d="M5 40 C 6.38 39.41, 8.5 37.9, 10 37.87 S 13.52 39.57, 15 39.79 S 18.5 39.36, 20 39.36 S 23.5 39.73, 25 39.79 S 28.5 39.79, 30 39.79 S 33.5 39.79, 35 39.79 S 38.5 39.79, 40 39.79 S 43.5 39.79, 45 39.79 S 48.5 39.79, 50 39.79 S 53.5 39.79, 55 39.79 S 58.5 39.79, 60 39.79 S 63.5 39.79, 65 39.79 S 68.5 39.79, 70 39.79 S 73.5 39.79, 75 39.79 S 78.5 39.79, 80 39.79 S 83.5 39.79, 85 39.79 S 88.5 39.79, 90 39.79 S 93.5 39.79, 95 39.79 S 98.5 39.79, 100 39.79 S 103.5 39.79, 105 39.79 S 108.55 40.19, 110 39.79 S 114.52 38.44, 115 37.02 S 118.51 10.13, 120 10 S 124.49 34.76, 125 36.17 S 128.5 37.87, 130 37.87 S 133.71 36.94, 135 36.17 S 138.5 31.97, 140 31.91 S 143.75 34.91, 145 35.74 S 148.51 38.32, 150 38.51 S 153.51 37.18, 155 37.02 S 158.78 38.33, 160 37.45 S 163.94 30.85, 165 29.79 S 168.66 26.77, 170 27.45 S 173.88 33.89, 175 34.89 S 178.62 35.79, 180 36.38 S 183.55 38.75, 185 39.15 S 188.5 39.09, 190 39.15 S 193.5 39.54, 195 39.57 S 198.53 39.67, 200 39.36 S 203.6 37.99, 205 37.45"
          fill="none"/>
    <circle r="4" cx="5" cy="40" fill="#3023AE"/>
    <circle r="4" cx="205" cy="37.45" fill="#C86DD7"/>      
</svg>