<svg width="200" height="50" viewBox="0 0 210 50" xmlns="http://www.w3.org/2000/svg">
    <defs>
        <linearGradient x1="0%" y1="0%" x2="100%" y2="0%" id="a">
            <stop stop-color="#3023AE" offset="0%"/>
            <stop stop-color="#C86DD7" offset="100%"/>
        </linearGradient>
    </defs>
    <path stroke="url(#a)"
          stroke-width="3"
          stroke-linejoin="round"
          stroke-linecap="round"
          d="M5 40 C 5.25 38.52, 9.14 11.23, 10 10 S 14.29 24.34, 15 25.66 S 18.85 27.66, 20 28.63 S 23.75 33.24, 25 34.07 S 28.5 35.15, 30 35.22 S 33.52 34.8, 35 34.56 S 38.52 33.84, 40 33.57 S 43.51 32.63, 45 32.75 S 48.52 34.18, 50 34.4 S 53.52 34.01, 55 34.23 S 58.52 35.64, 60 35.88 S 63.5 35.88, 65 35.88 S 68.51 36.08, 70 35.88 S 73.51 34.76, 75 34.56 S 78.51 34.36, 80 34.56 S 83.5 35.9, 85 35.88 S 88.51 34.55, 90 34.4 S 93.51 34.72, 95 34.89 S 98.51 35.35, 100 35.55 S 103.54 36.57, 105 36.21 S 108.5 33.11, 110 33.08 S 113.53 35.75, 115 36.04 S 118.5 35, 120 35.05 S 123.57 35.92, 125 36.37 S 128.51 37.99, 130 38.19 S 133.5 37.64, 135 37.69 S 138.5 38.42, 140 38.52 S 143.5 38.4, 145 38.35 S 148.5 38.21, 150 38.19 S 153.5 38.24, 155 38.19 S 158.51 37.98, 160 37.86 S 163.5 37.39, 165 37.36 S 168.52 37.42, 170 37.69 S 173.53 38.86, 175 39.18 S 178.5 39.91, 180 39.84 S 183.51 38.85, 185 38.68 S 188.5 38.65, 190 38.68 S 193.5 38.95, 195 38.85 S 198.5 38, 200 38.02 S 203.53 38.72, 205 39.01"
          fill="none"/>
    <circle r="4" cx="5" cy="40" fill="#3023AE"/>
    <circle r="4" cx="205" cy="39.01" fill="#C86DD7"/>      
</svg>