<svg width="200" height="50" viewBox="0 0 210 50" xmlns="http://www.w3.org/2000/svg">
    <defs>
        <linearGradient x1="0%" y1="0%" x2="100%" y2="0%" id="a">
            <stop stop-color="#3023AE" offset="0%"/>
            <stop stop-color="#C86DD7" offset="100%"/>
        </linearGradient>
    </defs>
    <path stroke="url(#a)"
          stroke-width="3"
          stroke-linejoin="round"
          stroke-linecap="round"
          d="M5 40 C 6.33 39.31, 8.51 37.56, 10 37.43 S 13.52 38.89, 15 39.14 S 18.5 39.14, 20 39.14 S 23.5 39.14, 25 39.14 S 28.5 39.14, 30 39.14 S 33.5 39.14, 35 39.14 S 38.62 39.73, 40 39.14 S 44.15 36.1, 45 34.86 S 48.62 25.16, 50 24.57 S 53.76 29.72, 55 30.57 S 58.71 30.66, 60 31.43 S 63.55 36.2, 65 36.57 S 68.51 34.13, 70 34 S 73.58 36.2, 75 35.71 S 78.52 30.32, 80 30.57 S 83.81 36.51, 85 37.43 S 89 39.41, 90 38.29 S 94.15 27.53, 95 26.29 S 98.95 22.63, 100 23.71 S 103.55 36.94, 105 36.57 S 108.58 21.63, 110 21.14 S 114.08 31.96, 115 33.14 S 118.55 34.37, 120 34 S 123.51 30.44, 125 30.57 S 128.52 34.61, 130 34.86 S 133.51 32.42, 135 32.29 S 138.51 34.13, 140 34 S 143.52 31.18, 145 31.43 S 148.51 35.84, 150 35.71 S 154.46 31.97, 155 30.57 S 158.55 9.63, 160 10 S 164.37 31.78, 165 33.14 S 169.12 32.64, 170 31.43 S 173.67 20.12, 175 19.43 S 179 25.17, 180 26.29 S 183.55 30.2, 185 30.57 S 188.71 28.09, 190 28.86 S 193.55 36.94, 195 36.57 S 198.67 26.98, 200 26.29 S 203.95 30.35, 205 31.43"
          fill="none"/>
    <circle r="4" cx="5" cy="40" fill="#3023AE"/>
    <circle r="4" cx="205" cy="31.43" fill="#C86DD7"/>      
</svg>