<svg width="200" height="50" viewBox="0 0 210 50" xmlns="http://www.w3.org/2000/svg">
    <defs>
        <linearGradient x1="0%" y1="0%" x2="100%" y2="0%" id="a">
            <stop stop-color="#3023AE" offset="0%"/>
            <stop stop-color="#C86DD7" offset="100%"/>
        </linearGradient>
    </defs>
    <path stroke="url(#a)"
          stroke-width="3"
          stroke-linejoin="round"
          stroke-linecap="round"
          d="M5 40 C 5.28 38.53, 9.45 14.72, 10 13.33 S 14.42 13.43, 15 14.81 S 19.35 35.69, 20 37.04 S 23.5 35.5, 25 35.56 S 28.54 37.08, 30 37.41 S 33.71 38.55, 35 37.78 S 38.5 31.54, 40 31.48 S 43.53 37.68, 45 37.41 S 48.54 29.96, 50 29.63 S 54.32 36.53, 55 35.19 S 58.59 10.52, 60 10 S 64.37 30.12, 65 31.48 S 68.51 31.65, 70 31.48 S 73.5 30.26, 75 30.37 S 78.52 32, 80 32.22 S 83.51 32.02, 85 31.85 S 89.13 32.33, 90 31.11 S 93.5 17.89, 95 17.78 S 99.22 29.09, 100 30.37 S 103.58 33.6, 105 34.07 S 108.5 33.81, 110 33.7 S 113.5 33.44, 115 33.33 S 118.52 33.18, 120 32.96 S 123.53 31.58, 125 31.85 S 128.51 34.98, 130 34.81 S 133.53 31.01, 135 30.74 S 138.59 32.44, 140 32.96 S 143.56 34.01, 145 34.44 S 148.5 35.99, 150 35.93 S 153.84 35.02, 155 34.07 S 158.56 28.21, 160 27.78 S 163.73 30.31, 165 31.11 S 168.51 34.24, 170 34.07 S 173.51 29.83, 175 30 S 178.71 34.42, 180 35.19 S 183.5 35.87, 185 35.93 S 188.5 35.62, 190 35.56 S 193.53 35.29, 195 35.56 S 198.52 37.19, 200 37.41 S 203.5 37.15, 205 37.04"
          fill="none"/>
    <circle r="4" cx="5" cy="40" fill="#3023AE"/>
    <circle r="4" cx="205" cy="37.04" fill="#C86DD7"/>      
</svg>