<svg width="200" height="50" viewBox="0 0 210 50" xmlns="http://www.w3.org/2000/svg">
    <defs>
        <linearGradient x1="0%" y1="0%" x2="100%" y2="0%" id="a">
            <stop stop-color="#3023AE" offset="0%"/>
            <stop stop-color="#C86DD7" offset="100%"/>
        </linearGradient>
    </defs>
    <path stroke="url(#a)"
          stroke-width="3"
          stroke-linejoin="round"
          stroke-linecap="round"
          d="M5 40 C 5.25 38.52, 8.54 10.34, 10 10 S 14.51 36.25, 15 37.67 S 18.51 38.76, 20 38.95 S 23.5 38.98, 25 38.95 S 28.51 38.88, 30 38.72 S 33.5 37.8, 35 37.9 S 38.5 39.32, 40 39.42 S 43.5 38.6, 45 38.6 S 48.5 39.42, 50 39.42 S 53.5 38.6, 55 38.6 S 58.51 39.3, 60 39.42 S 63.5 39.47, 65 39.42 S 68.5 39.14, 70 39.07 S 73.51 39.12, 75 38.95 S 78.5 37.88, 80 37.9 S 83.51 38.86, 85 39.07 S 88.5 39.32, 90 39.3 S 93.5 38.97, 95 38.95 S 98.5 39.16, 100 39.18 S 103.5 39.07, 105 39.07 S 108.5 39.22, 110 39.18 S 113.5 38.78, 115 38.83 S 118.5 39.43, 120 39.53 S 123.5 39.58, 125 39.53 S 128.5 39.16, 130 39.18 S 133.5 39.61, 135 39.65 S 138.5 39.42, 140 39.42 S 143.5 39.67, 145 39.65 S 148.5 39.35, 150 39.3 S 153.5 39.28, 155 39.3 S 158.5 39.44, 160 39.42 S 163.5 39.23, 165 39.18 S 168.5 39, 170 39.07 S 173.5 39.63, 175 39.65 S 178.5 39.23, 180 39.18 S 183.5 39.42, 185 39.3 S 188.5 38.42, 190 38.37 S 193.51 38.78, 195 38.95 S 198.5 39.51, 200 39.53 S 203.51 39.21, 205 39.07"
          fill="none"/>
    <circle r="4" cx="5" cy="40" fill="#3023AE"/>
    <circle r="4" cx="205" cy="39.07" fill="#C86DD7"/>      
</svg>