<svg width="200" height="50" viewBox="0 0 210 50" xmlns="http://www.w3.org/2000/svg">
    <defs>
        <linearGradient x1="0%" y1="0%" x2="100%" y2="0%" id="a">
            <stop stop-color="#3023AE" offset="0%"/>
            <stop stop-color="#C86DD7" offset="100%"/>
        </linearGradient>
    </defs>
    <path stroke="url(#a)"
          stroke-width="3"
          stroke-linejoin="round"
          stroke-linecap="round"
          d="M5 40 C 6.5 39.95, 9.45 41.22, 10 39.83 S 13.6 15.39, 15 14.84 S 19.39 34.55, 20 35.92 S 23.51 37.01, 25 37.16 S 29.48 38.36, 30 36.95 S 33.5 10.09, 35 10 S 39.39 34.96, 40 36.33 S 43.53 32.84, 45 32.56 S 48.52 34.13, 50 34.4 S 54.29 35.69, 55 34.37 S 58.5 15.95, 60 15.94 S 64.26 33.02, 65 34.33 S 68.5 33.73, 70 33.7 S 73.5 34.12, 75 34.16 S 78.51 34.14, 80 33.99 S 83.67 33.88, 85 33.18 S 88.67 29.39, 90 28.69 S 93.52 28.16, 95 27.93 S 98.71 27.92, 100 27.15 S 103.93 22.97, 105 21.92 S 108.84 16.39, 110 17.35 S 114.15 28.94, 115 30.18 S 118.53 32.32, 120 32.01 S 123.5 28.19, 125 28.08 S 128.56 30.87, 130 31.3 S 133.51 31.17, 135 31.04 S 138.54 30.74, 140 30.41 S 143.5 28.69, 145 28.75 S 148.5 30.95, 150 30.84 S 153.51 28.14, 155 28.01 S 158.53 29.65, 160 29.94 S 163.5 30.08, 165 29.96 S 168.5 29.03, 170 29.13 S 173.51 30.45, 175 30.65 S 178.51 30.63, 180 30.49 S 183.56 30.17, 185 29.74 S 188.51 27.66, 190 27.51 S 193.51 28.61, 195 28.74 S 198.51 28.6, 200 28.39 S 203.53 27.66, 205 27.36"
          fill="none"/>
    <circle r="4" cx="5" cy="40" fill="#3023AE"/>
    <circle r="4" cx="205" cy="27.36" fill="#C86DD7"/>      
</svg>