<svg width="200" height="50" viewBox="0 0 210 50" xmlns="http://www.w3.org/2000/svg">
    <defs>
        <linearGradient x1="0%" y1="0%" x2="100%" y2="0%" id="a">
            <stop stop-color="#3023AE" offset="0%"/>
            <stop stop-color="#C86DD7" offset="100%"/>
        </linearGradient>
    </defs>
    <path stroke="url(#a)"
          stroke-width="3"
          stroke-linejoin="round"
          stroke-linecap="round"
          d="M5 40 C 5.91 38.81, 8.78 34.34, 10 33.47 S 13.65 33.54, 15 32.88 S 19.4 29.91, 20 28.54 S 23.63 9.38, 25 10 S 29.43 31.67, 30 33.06 S 33.53 34.09, 35 34.37 S 38.51 35.12, 40 34.98 S 43.51 33.57, 45 33.44 S 48.5 34.04, 50 34.14 S 53.5 34.15, 55 34.08 S 58.51 33.9, 60 33.7 S 63.51 32.88, 65 32.72 S 68.5 32.7, 70 32.6 S 73.5 32.09, 75 32.07 S 78.5 32.46, 80 32.47 S 83.5 32.19, 85 32.11 S 88.53 32.26, 90 31.95 S 93.52 30.19, 95 29.98 S 98.5 30.5, 100 30.51 S 103.5 29.96, 105 30.02 S 108.5 30.86, 110 30.92 S 113.51 30.58, 115 30.44 S 118.52 30.22, 120 29.99 S 123.51 29.04, 125 28.87 S 128.51 28.69, 130 28.88 S 133.5 30.07, 135 30.12 S 138.51 29.33, 140 29.19 S 143.53 29.49, 145 29.18 S 148.62 27.63, 150 27.05 S 153.53 25.31, 155 25 S 158.51 24.78, 160 24.92 S 163.51 26.14, 165 25.94 S 168.55 23.96, 170 23.57 S 173.5 23.37, 175 23.28 S 178.51 23.16, 180 22.97 S 183.51 22.14, 185 21.98 S 188.51 21.74, 190 21.87 S 193.52 22.6, 195 22.84 S 198.51 23.37, 200 23.5 S 203.5 23.63, 205 23.68"
          fill="none"/>
    <circle r="4" cx="5" cy="40" fill="#3023AE"/>
    <circle r="4" cx="205" cy="23.68" fill="#C86DD7"/>      
</svg>