<svg width="200" height="50" viewBox="0 0 210 50" xmlns="http://www.w3.org/2000/svg">
    <defs>
        <linearGradient x1="0%" y1="0%" x2="100%" y2="0%" id="a">
            <stop stop-color="#3023AE" offset="0%"/>
            <stop stop-color="#C86DD7" offset="100%"/>
        </linearGradient>
    </defs>
    <path stroke="url(#a)"
          stroke-width="3"
          stroke-linejoin="round"
          stroke-linecap="round"
          d="M5 40 C 5.69 38.67, 8.97 31.4, 10 30.31 S 13.79 30.27, 15 29.38 S 18.98 24.1, 20 23 S 24.09 19.88, 25 18.69 S 29.09 8.81, 30 10 S 34.4 30.43, 35 31.81 S 38.5 33.06, 40 33.05 S 43.51 31.91, 45 31.72 S 48.5 31.73, 50 31.79 S 53.5 32.15, 55 32.12 S 58.51 31.69, 60 31.56 S 63.52 31.52, 65 31.26 S 68.51 30.01, 70 29.83 S 73.5 30.16, 75 30.06 S 78.5 29.15, 80 29.15 S 83.5 30.11, 85 30.04 S 88.51 28.83, 90 28.65 S 93.51 29, 95 28.84 S 98.54 27.92, 100 27.56 S 103.5 26.39, 105 26.38 S 108.5 27.52, 110 27.49 S 113.5 26.15, 115 26.18 S 118.5 27.67, 120 27.72 S 123.52 26.73, 125 26.5 S 128.52 26.4, 130 26.14 S 133.51 24.95, 135 24.77 S 138.51 24.71, 140 24.91 S 143.5 26.13, 145 26.14 S 148.5 25.09, 150 25 S 153.5 25.62, 155 25.52 S 158.69 25.02, 160 24.3 S 163.69 20.73, 165 20.01 S 168.5 18.9, 170 18.81 S 173.51 19.23, 175 19.42 S 178.55 20.46, 180 20.08 S 183.57 17.25, 185 16.81 S 188.51 17.15, 190 16.99 S 193.53 16.04, 195 15.76 S 198.54 15.4, 200 15.06 S 203.57 13.91, 205 13.45"
          fill="none"/>
    <circle r="4" cx="5" cy="40" fill="#3023AE"/>
    <circle r="4" cx="205" cy="13.45" fill="#C86DD7"/>      
</svg>