<svg width="200" height="50" viewBox="0 0 210 50" xmlns="http://www.w3.org/2000/svg">
    <defs>
        <linearGradient x1="0%" y1="0%" x2="100%" y2="0%" id="a">
            <stop stop-color="#3023AE" offset="0%"/>
            <stop stop-color="#C86DD7" offset="100%"/>
        </linearGradient>
    </defs>
    <path stroke="url(#a)"
          stroke-width="3"
          stroke-linejoin="round"
          stroke-linecap="round"
          d="M5 40 C 6.26 39.19, 9.14 38.03, 10 36.8 S 13.53 25.31, 15 25.6 S 18.92 37.76, 20 38.8 S 23.5 35.14, 25 35.2 S 28.59 38.69, 30 39.2 S 33.5 38.92, 35 38.8 S 38.5 38.52, 40 38.4 S 43.5 38.12, 45 38 S 48.5 37.66, 50 37.6 S 53.5 37.6, 55 37.6 S 58.5 37.6, 60 37.6 S 63.54 37.95, 65 37.6 S 68.57 35.66, 70 35.2 S 73.5 34.52, 75 34.4 S 78.5 34.4, 80 34.4 S 83.5 34.28, 85 34.4 S 88.56 35.6, 90 35.2 S 93.5 31.72, 95 31.6 S 98.69 33.67, 100 34.4 S 103.52 36.96, 105 37.2 S 108.74 36.81, 110 36 S 113.5 30.92, 115 30.8 S 119.35 36.55, 120 35.2 S 124.22 11.28, 125 10 S 129.4 17.43, 130 18.8 S 133.9 31.78, 135 32.8 S 138.5 28, 140 28 S 143.59 32.29, 145 32.8 S 148.63 32.2, 150 31.6 S 153.65 29.05, 155 28.4 S 158.51 26.62, 160 26.8 S 163.51 29.78, 165 29.6 S 168.56 25.2, 170 25.6 S 173.74 31.59, 175 32.4 S 178.67 32.69, 180 32 S 183.65 27.85, 185 27.2 S 188.59 27.71, 190 27.2 S 193.51 23.42, 195 23.6 S 198.67 27.71, 200 28.4 S 203.5 28.68, 205 28.8"
          fill="none"/>
    <circle r="4" cx="5" cy="40" fill="#3023AE"/>
    <circle r="4" cx="205" cy="28.8" fill="#C86DD7"/>      
</svg>