<svg width="200" height="50" viewBox="0 0 210 50" xmlns="http://www.w3.org/2000/svg">
    <defs>
        <linearGradient x1="0%" y1="0%" x2="100%" y2="0%" id="a">
            <stop stop-color="#3023AE" offset="0%"/>
            <stop stop-color="#C86DD7" offset="100%"/>
        </linearGradient>
    </defs>
    <path stroke="url(#a)"
          stroke-width="3"
          stroke-linejoin="round"
          stroke-linecap="round"
          d="M5 40 C 5.61 38.63, 8.53 29.13, 10 28.85 S 13.96 37, 15 38.08 S 18.5 39.17, 20 39.23 S 23.5 38.58, 25 38.46 S 29.26 39.77, 30 38.46 S 33.52 21, 35 20.77 S 39.14 35.69, 40 36.92 S 43.52 35.23, 45 35 S 48.55 34.99, 50 35.38 S 53.58 38.18, 55 37.69 S 59.02 33.05, 60 31.92 S 63.66 26.82, 65 26.15 S 68.66 26.25, 70 26.92 S 73.64 30.52, 75 31.15 S 78.72 32.33, 80 31.54 S 83.68 25.71, 85 25 S 88.5 26.15, 90 26.15 S 93.55 25.39, 95 25 S 98.58 23.95, 100 23.46 S 103.53 21.26, 105 21.54 S 108.55 24.99, 110 25.38 S 113.52 24.46, 115 24.23 S 118.53 24.13, 120 23.85 S 123.5 22.19, 125 22.31 S 129 25.74, 130 24.62 S 133.5 11.09, 135 11.15 S 139.04 23.85, 140 25 S 143.68 23.79, 145 23.08 S 148.57 20.06, 150 19.62 S 153.72 19.21, 155 20 S 158.5 25.83, 160 25.77 S 164.05 20.78, 165 19.62 S 168.68 14.17, 170 13.46 S 173.88 13.24, 175 14.23 S 178.96 21.23, 180 22.31 S 183.7 25.37, 185 24.62 S 189.15 17.78, 190 16.54 S 193.68 10.71, 195 10 S 198.83 10.21, 200 11.15 S 204.12 16.86, 205 18.08"
          fill="none"/>
    <circle r="4" cx="5" cy="40" fill="#3023AE"/>
    <circle r="4" cx="205" cy="18.08" fill="#C86DD7"/>      
</svg>