<svg width="200" height="50" viewBox="0 0 210 50" xmlns="http://www.w3.org/2000/svg">
    <defs>
        <linearGradient x1="0%" y1="0%" x2="100%" y2="0%" id="a">
            <stop stop-color="#3023AE" offset="0%"/>
            <stop stop-color="#C86DD7" offset="100%"/>
        </linearGradient>
    </defs>
    <path stroke="url(#a)"
          stroke-width="3"
          stroke-linejoin="round"
          stroke-linecap="round"
          d="M5 40 C 5.75 38.7, 8.62 31.94, 10 31.35 S 14.36 37.11, 15 35.75 S 18.57 10.46, 20 10 S 24.38 31.15, 25 32.51 S 28.55 31.52, 30 31.91 S 33.62 34.6, 35 35.19 S 39.2 37.42, 40 36.15 S 43.6 19.74, 45 19.21 S 49.01 31.22, 50 32.35 S 53.59 31.19, 55 30.67 S 58.53 28.31, 60 28.62 S 63.66 32.08, 65 32.75 S 68.53 33.88, 70 33.59 S 73.54 31.1, 75 30.75 S 78.5 31.11, 80 31.19 S 83.53 31.62, 85 31.31 S 88.5 29.08, 90 29.07 S 93.54 30.91, 95 31.23 S 98.59 31.79, 100 31.27 S 103.56 27.95, 105 27.54 S 108.55 28.05, 110 28.42 S 113.51 30.25, 115 30.07 S 118.5 27.32, 120 27.22 S 123.54 29.04, 125 29.39 S 128.51 29.74, 130 29.59 S 133.54 28.73, 135 28.38 S 138.5 27.3, 140 27.18 S 143.54 27.92, 145 27.58 S 148.5 24.86, 150 24.82 S 153.51 27.18, 155 27.34 S 158.5 25.97, 160 25.86 S 163.5 26.68, 165 26.58 S 168.53 25.47, 170 25.18 S 173.57 25.08, 175 24.62 S 178.66 22.62, 180 21.94 S 183.57 20.02, 185 19.57 S 188.87 19.8, 190 18.81 S 193.59 11.36, 195 10.84 S 198.59 14.58, 200 15.09 S 203.51 14.64, 205 14.45"
          fill="none"/>
    <circle r="4" cx="5" cy="40" fill="#3023AE"/>
    <circle r="4" cx="205" cy="14.45" fill="#C86DD7"/>      
</svg>