<svg width="200" height="50" viewBox="0 0 210 50" xmlns="http://www.w3.org/2000/svg">
    <defs>
        <linearGradient x1="0%" y1="0%" x2="100%" y2="0%" id="a">
            <stop stop-color="#3023AE" offset="0%"/>
            <stop stop-color="#C86DD7" offset="100%"/>
        </linearGradient>
    </defs>
    <path stroke="url(#a)"
          stroke-width="3"
          stroke-linejoin="round"
          stroke-linecap="round"
          d="M5 40 C 6.47 39.69, 8.51 39.09, 10 38.93 S 13.5 38.93, 15 38.93 S 18.5 38.93, 20 38.93 S 23.5 38.93, 25 38.93 S 28.5 38.93, 30 38.93 S 33.5 38.93, 35 38.93 S 38.5 38.93, 40 38.93 S 43.5 38.93, 45 38.93 S 48.5 38.93, 50 38.93 S 53.5 38.93, 55 38.93 S 58.5 38.93, 60 38.93 S 63.5 38.93, 65 38.93 S 68.5 38.93, 70 38.93 S 73.5 38.93, 75 38.93 S 78.5 38.93, 80 38.93 S 83.5 38.93, 85 38.93 S 88.5 38.93, 90 38.93 S 93.5 38.93, 95 38.93 S 98.5 38.93, 100 38.93 S 103.5 38.93, 105 38.93 S 108.5 38.93, 110 38.93 S 113.5 38.93, 115 38.93 S 118.5 38.93, 120 38.93 S 123.5 38.93, 125 38.93 S 128.5 38.93, 130 38.93 S 133.5 38.93, 135 38.93 S 138.5 38.93, 140 38.93 S 143.5 38.93, 145 38.93 S 148.5 38.93, 150 38.93 S 153.5 38.93, 155 38.93 S 158.5 38.93, 160 38.93 S 163.5 38.93, 165 38.93 S 168.5 38.93, 170 38.93 S 173.5 38.93, 175 38.93 S 178.5 38.93, 180 38.93 S 183.5 38.93, 185 38.93 S 189.24 40.23, 190 38.93 S 194.51 23.21, 195 21.79 S 198.98 8.9, 200 10 S 204.67 31.04, 205 32.5"
          fill="none"/>
    <circle r="4" cx="5" cy="40" fill="#3023AE"/>
    <circle r="4" cx="205" cy="32.5" fill="#C86DD7"/>      
</svg>