<svg width="200" height="50" viewBox="0 0 210 50" xmlns="http://www.w3.org/2000/svg">
    <defs>
        <linearGradient x1="0%" y1="0%" x2="100%" y2="0%" id="a">
            <stop stop-color="#3023AE" offset="0%"/>
            <stop stop-color="#C86DD7" offset="100%"/>
        </linearGradient>
    </defs>
    <path stroke="url(#a)"
          stroke-width="3"
          stroke-linejoin="round"
          stroke-linecap="round"
          d="M5 40 C 5.42 38.56, 8.62 23.44, 10 22.85 S 14.14 34.49, 15 35.72 S 18.5 37.01, 20 37.09 S 23.5 36.38, 25 36.27 S 28.54 36.68, 30 36.34 S 33.54 34.24, 35 33.91 S 38.57 34.52, 40 34.07 S 43.5 30.74, 45 30.75 S 48.56 33.74, 50 34.14 S 53.5 33.64, 55 33.54 S 58.52 33.71, 60 33.49 S 63.5 32.06, 65 32.05 S 68.51 33.63, 70 33.45 S 73.54 31.17, 75 30.84 S 78.53 30.92, 80 31.23 S 83.52 32.76, 85 32.97 S 88.5 32.56, 90 32.67 S 93.51 33.54, 95 33.7 S 98.5 33.81, 100 33.77 S 103.52 33.64, 105 33.4 S 108.55 32.54, 110 32.17 S 113.5 30.94, 115 30.82 S 118.51 31.52, 120 31.39 S 123.56 30.35, 125 29.92 S 128.53 28.7, 130 28.41 S 133.51 28.15, 135 27.98 S 138.68 28.01, 140 27.29 S 143.67 23.25, 145 22.55 S 148.51 22.18, 150 22 S 153.54 21.66, 155 21.34 S 158.53 20.1, 160 19.8 S 163.52 19.54, 165 19.3 S 168.53 18.47, 170 18.17 S 173.52 17.04, 175 17.28 S 178.5 19.8, 180 19.78 S 183.57 17.59, 185 17.14 S 188.56 16.17, 190 16.6 S 193.58 20.64, 195 20.17 S 198.95 14.34, 200 13.27 S 203.74 10.82, 205 10"
          fill="none"/>
    <circle r="4" cx="5" cy="40" fill="#3023AE"/>
    <circle r="4" cx="205" cy="10" fill="#C86DD7"/>      
</svg>