<svg width="200" height="50" viewBox="0 0 210 50" xmlns="http://www.w3.org/2000/svg">
    <defs>
        <linearGradient x1="0%" y1="0%" x2="100%" y2="0%" id="a">
            <stop stop-color="#3023AE" offset="0%"/>
            <stop stop-color="#C86DD7" offset="100%"/>
        </linearGradient>
    </defs>
    <path stroke="url(#a)"
          stroke-width="3"
          stroke-linejoin="round"
          stroke-linecap="round"
          d="M5 40 C 6.14 39.02, 8.62 36.3, 10 35.71 S 13.5 35.71, 15 35.71 S 18.5 35.71, 20 35.71 S 23.5 35.71, 25 35.71 S 28.5 35.71, 30 35.71 S 33.5 35.71, 35 35.71 S 38.5 35.71, 40 35.71 S 43.5 35.71, 45 35.71 S 49.37 37.07, 50 35.71 S 53.62 14.88, 55 14.29 S 59.37 30.07, 60 31.43 S 63.62 35.12, 65 35.71 S 68.5 35.71, 70 35.71 S 73.5 35.71, 75 35.71 S 78.5 35.71, 80 35.71 S 83.5 35.71, 85 35.71 S 88.5 35.71, 90 35.71 S 94.46 37.11, 95 35.71 S 98.62 10.59, 100 10 S 104.37 30.07, 105 31.43 S 108.62 30.84, 110 31.43 S 113.62 35.12, 115 35.71 S 118.5 35.71, 120 35.71 S 123.5 35.71, 125 35.71 S 128.5 35.71, 130 35.71 S 133.5 35.71, 135 35.71 S 138.62 36.3, 140 35.71 S 143.86 32.41, 145 31.43 S 148.5 27.14, 150 27.14 S 153.86 30.45, 155 31.43 S 158.5 35.71, 160 35.71 S 163.62 32.02, 165 31.43 S 168.5 31.43, 170 31.43 S 173.86 32.41, 175 31.43 S 178.62 23.45, 180 22.86 S 184.08 25.96, 185 27.14 S 188.5 35.71, 190 35.71 S 193.62 27.73, 195 27.14 S 198.86 30.45, 200 31.43"
          fill="none"/>
    <circle r="4" cx="5" cy="40" fill="#3023AE"/>
    <circle r="4" cx="200" cy="31.43" fill="#C86DD7"/>      
</svg>