<svg width="200" height="50" viewBox="0 0 210 50" xmlns="http://www.w3.org/2000/svg">
    <defs>
        <linearGradient x1="0%" y1="0%" x2="100%" y2="0%" id="a">
            <stop stop-color="#3023AE" offset="0%"/>
            <stop stop-color="#C86DD7" offset="100%"/>
        </linearGradient>
    </defs>
    <path stroke="url(#a)"
          stroke-width="3"
          stroke-linejoin="round"
          stroke-linecap="round"
          d="M5 40 C 5.4 38.55, 8.71 22.77, 10 22 S 14.04 32.85, 15 34 S 18.5 34, 20 34 S 23.5 34, 25 34 S 28.5 34, 30 34 S 33.5 34, 35 34 S 38.5 34, 40 34 S 43.5 34, 45 34 S 48.5 34, 50 34 S 53.5 34, 55 34 S 58.5 34, 60 34 S 63.5 34, 65 34 S 68.5 34, 70 34 S 73.5 34, 75 34 S 78.5 34, 80 34 S 83.5 34, 85 34 S 88.5 34, 90 34 S 93.5 34, 95 34 S 98.5 34, 100 34 S 103.5 34, 105 34 S 108.5 34, 110 34 S 113.5 34, 115 34 S 118.5 34, 120 34 S 123.5 34, 125 34 S 128.5 34, 130 34 S 133.5 34, 135 34 S 138.5 34, 140 34 S 143.5 34, 145 34 S 148.5 34, 150 34 S 153.5 34, 155 34 S 159.42 35.38, 160 34 S 163.5 10, 165 10 S 169.42 32.62, 170 34 S 174.27 35.31, 175 34 S 178.5 16, 180 16 S 184.27 32.69, 185 34 S 188.5 34, 190 34 S 193.71 34.77, 195 34 S 199.42 29.38, 200 28 S 204.6 11.45, 205 10"
          fill="none"/>
    <circle r="4" cx="5" cy="40" fill="#3023AE"/>
    <circle r="4" cx="205" cy="10" fill="#C86DD7"/>      
</svg>