<svg width="200" height="50" viewBox="0 0 210 50" xmlns="http://www.w3.org/2000/svg">
    <defs>
        <linearGradient x1="0%" y1="0%" x2="100%" y2="0%" id="a">
            <stop stop-color="#3023AE" offset="0%"/>
            <stop stop-color="#C86DD7" offset="100%"/>
        </linearGradient>
    </defs>
    <path stroke="url(#a)"
          stroke-width="3"
          stroke-linejoin="round"
          stroke-linecap="round"
          d="M5 40 C 5.25 38.52, 8.5 10.05, 10 10 S 14.51 38.27, 15 39.69 S 18.5 39.08, 20 39.08 S 23.5 39.6, 25 39.69 S 28.5 39.69, 30 39.69 S 33.5 39.69, 35 39.69 S 38.5 39.69, 40 39.69 S 43.51 39.87, 45 39.69 S 48.61 39.02, 50 38.47 S 53.53 36.02, 55 35.71 S 58.77 37.19, 60 36.33 S 63.51 28.81, 65 28.67 S 68.84 34.45, 70 35.41 S 73.5 36.9, 75 36.94 S 78.52 35.98, 80 35.71 S 83.53 35.41, 85 35.1 S 88.51 33.39, 90 33.57 S 93.5 36.37, 95 36.33 S 98.64 33.9, 100 33.27 S 103.52 31.96, 105 31.73 S 108.53 32.04, 110 31.73 S 113.51 29.45, 115 29.59 S 118.54 32.29, 120 32.65 S 123.5 32.08, 125 32.04 S 128.54 32.71, 130 32.35 S 133.51 29.73, 135 29.59 S 138.5 31.47, 140 31.43 S 143.52 29.02, 145 29.29 S 148.52 33.04, 150 33.27 S 153.55 31.22, 155 30.82 S 158.5 30.6, 160 30.51 S 163.99 31.31, 165 30.2 S 168.7 20.24, 170 19.49 S 173.86 23.41, 175 24.39 S 178.53 28.38, 180 28.06 S 183.67 22.93, 185 22.24 S 188.52 23.09, 190 22.86 S 193.64 21.34, 195 20.71 S 198.59 18.79, 200 18.27 S 203.54 17.4, 205 17.04"
          fill="none"/>
    <circle r="4" cx="5" cy="40" fill="#3023AE"/>
    <circle r="4" cx="205" cy="17.04" fill="#C86DD7"/>      
</svg>