<svg width="200" height="50" viewBox="0 0 210 50" xmlns="http://www.w3.org/2000/svg">
    <defs>
        <linearGradient x1="0%" y1="0%" x2="100%" y2="0%" id="a">
            <stop stop-color="#3023AE" offset="0%"/>
            <stop stop-color="#C86DD7" offset="100%"/>
        </linearGradient>
    </defs>
    <path stroke="url(#a)"
          stroke-width="3"
          stroke-linejoin="round"
          stroke-linecap="round"
          d="M5 40 C 5.95 38.84, 8.5 33.98, 10 33.92 S 13.7 38.88, 15 39.62 S 18.5 39.62, 20 39.62 S 23.5 39.62, 25 39.62 S 28.5 39.68, 30 39.62 S 33.5 39.35, 35 39.24 S 38.5 38.92, 40 38.86 S 43.5 38.75, 45 38.86 S 48.5 39.62, 50 39.62 S 53.55 39.25, 55 38.86 S 58.5 37.07, 60 36.96 S 63.53 37.82, 65 38.1 S 68.51 38.69, 70 38.86 S 73.5 39.13, 75 39.24 S 78.5 39.68, 80 39.62 S 83.55 39.25, 85 38.86 S 88.5 36.85, 90 36.96 S 93.5 39.68, 95 39.62 S 98.51 36.75, 100 36.58 S 103.52 38.25, 105 38.48 S 108.51 38.27, 110 38.1 S 113.51 37.51, 115 37.34 S 118.54 37.29, 120 36.96 S 123.68 35.76, 125 35.06 S 128.5 31.71, 130 31.65 S 133.58 34.2, 135 34.68 S 138.51 35.23, 140 35.06 S 143.51 33.37, 145 33.54 S 148.54 35.87, 150 36.2 S 153.5 35.76, 155 35.82 S 158.63 37.2, 160 36.58 S 163.52 31.5, 165 31.27 S 168.53 34.78, 170 35.06 S 173.76 34.01, 175 33.16 S 178.54 28.56, 180 28.23 S 184.28 32.21, 185 30.89 S 188.5 10.06, 190 10 S 194.41 29.13, 195 30.51 S 198.55 33.55, 200 33.16 S 203.97 28.94, 205 27.85"
          fill="none"/>
    <circle r="4" cx="5" cy="40" fill="#3023AE"/>
    <circle r="4" cx="205" cy="27.85" fill="#C86DD7"/>      
</svg>