<svg width="200" height="50" viewBox="0 0 210 50" xmlns="http://www.w3.org/2000/svg">
    <defs>
        <linearGradient x1="0%" y1="0%" x2="100%" y2="0%" id="a">
            <stop stop-color="#3023AE" offset="0%"/>
            <stop stop-color="#C86DD7" offset="100%"/>
        </linearGradient>
    </defs>
    <path stroke="url(#a)"
          stroke-width="3"
          stroke-linejoin="round"
          stroke-linecap="round"
          d="M5 40 C 5.61 38.63, 8.69 29.49, 10 28.75 S 13.8 33.47, 15 34.37 S 18.6 35.72, 20 36.25 S 23.53 37.84, 25 38.12 S 28.53 38.4, 30 38.12 S 33.69 36.98, 35 36.25 S 38.6 33.03, 40 32.5 S 43.53 32.78, 45 32.5 S 48.69 29.89, 50 30.62 S 53.69 37.38, 55 38.12 S 58.6 36.78, 60 36.25 S 63.8 35.27, 65 34.37 S 69.43 30.14, 70 28.75 S 73.6 9.47, 75 10 S 79.24 31.21, 80 32.5 S 83.6 27.4, 85 26.87 S 88.8 27.85, 90 28.75 S 93.5 34.37, 95 34.37 S 98.6 28.22, 100 28.75 S 103.53 37.84, 105 38.12 S 108.69 31.35, 110 30.62 S 113.8 31.6, 115 32.5 S 118.6 37.59, 120 38.12 S 123.91 37.28, 125 36.25 S 128.5 28.75, 130 28.75 S 133.91 35.22, 135 36.25 S 138.53 37.84, 140 38.12 S 143.5 38.12, 145 38.12 S 148.5 38.12, 150 38.12 S 153.6 38.65, 155 38.12 S 158.53 34.65, 160 34.37 S 163.53 35.97, 165 36.25 S 168.5 36.25, 170 36.25 S 173.53 35.97, 175 36.25 S 178.53 37.84, 180 38.12 S 183.5 38.12, 185 38.12 S 188.5 38.12, 190 38.12 S 193.5 38.12, 195 38.12 S 198.5 38.12, 200 38.12 S 203.5 38.12, 205 38.12"
          fill="none"/>
    <circle r="4" cx="5" cy="40" fill="#3023AE"/>
    <circle r="4" cx="205" cy="38.12" fill="#C86DD7"/>      
</svg>