<svg width="200" height="50" viewBox="0 0 210 50" xmlns="http://www.w3.org/2000/svg">
    <defs>
        <linearGradient x1="0%" y1="0%" x2="100%" y2="0%" id="a">
            <stop stop-color="#3023AE" offset="0%"/>
            <stop stop-color="#C86DD7" offset="100%"/>
        </linearGradient>
    </defs>
    <path stroke="url(#a)"
          stroke-width="3"
          stroke-linejoin="round"
          stroke-linecap="round"
          d="M5 40 C 6.5 40, 8.5 39.99, 10 39.99 S 13.5 39.98, 15 39.98 S 18.5 39.99, 20 39.99 S 23.5 39.99, 25 39.99 S 28.5 39.97, 30 39.97 S 33.5 39.99, 35 39.99 S 38.5 39.99, 40 39.99 S 43.5 39.99, 45 39.99 S 48.5 39.99, 50 39.99 S 53.5 39.99, 55 39.99 S 58.5 39.99, 60 39.99 S 63.5 39.99, 65 39.99 S 68.5 39.99, 70 39.99 S 73.5 39.99, 75 39.99 S 78.5 39.99, 80 39.99 S 83.5 39.99, 85 39.99 S 88.5 39.99, 90 39.99 S 93.5 39.97, 95 39.97 S 98.5 39.98, 100 39.98 S 103.5 39.98, 105 39.98 S 108.5 39.99, 110 39.99 S 113.5 39.99, 115 39.99 S 118.5 39.99, 120 39.99 S 123.5 39.99, 125 39.99 S 128.5 39.98, 130 39.98 S 133.5 39.99, 135 39.99 S 138.5 39.99, 140 39.99 S 143.5 39.99, 145 39.99 S 148.5 39.99, 150 39.99 S 153.77 40.84, 155 39.99 S 159.53 34.51, 160 33.09 S 163.63 9.4, 165 10 S 169.1 36.25, 170 37.45 S 173.5 23.25, 175 23.36 S 179.11 36.96, 180 38.17 S 183.5 36.86, 185 36.85 S 188.5 38.23, 190 38.13 S 193.5 36.16, 195 36.15 S 198.52 37.82, 200 38.06 S 203.5 37.85, 205 37.76"
          fill="none"/>
    <circle r="4" cx="5" cy="40" fill="#3023AE"/>
    <circle r="4" cx="205" cy="37.76" fill="#C86DD7"/>      
</svg>