<svg width="200" height="50" viewBox="0 0 210 50" xmlns="http://www.w3.org/2000/svg">
    <defs>
        <linearGradient x1="0%" y1="0%" x2="100%" y2="0%" id="a">
            <stop stop-color="#3023AE" offset="0%"/>
            <stop stop-color="#C86DD7" offset="100%"/>
        </linearGradient>
    </defs>
    <path stroke="url(#a)"
          stroke-width="3"
          stroke-linejoin="round"
          stroke-linecap="round"
          d="M5 40 C 6.46 39.67, 8.58 39.36, 10 38.89 S 13.54 37, 15 36.67 S 18.63 37.28, 20 36.67 S 23.51 32.39, 25 32.22 S 28.51 35.73, 30 35.56 S 33.58 31.59, 35 31.11 S 38.94 33.28, 40 32.22 S 43.54 20.78, 45 21.11 S 48.51 34.27, 50 34.44 S 54.19 23.48, 55 22.22 S 58.69 19.62, 60 18.89 S 63.5 16.67, 65 16.67 S 68.82 17.97, 70 18.89 S 73.88 23.44, 75 24.44 S 78.63 28.39, 80 27.78 S 83.63 20.61, 85 20 S 88.5 23.33, 90 23.33 S 93.54 20.33, 95 20 S 98.54 21.44, 100 21.11 S 103.63 17.17, 105 17.78 S 108.63 24.95, 110 25.56 S 113.88 23.22, 115 22.22 S 119 17.78, 120 16.67 S 123.82 10.19, 125 11.11 S 129 23.33, 130 24.44 S 134.15 23.45, 135 22.22 S 138.82 10.92, 140 10 S 144.05 13.28, 145 14.44 S 148.58 21.74, 150 22.22 S 153.82 16.86, 155 17.78 S 158.63 29.39, 160 30 S 163.51 22.39, 165 22.22 S 169 27.78, 170 28.89 S 173.82 34.25, 175 33.33 S 178.75 21.94, 180 21.11 S 183.51 26.84, 185 26.67 S 188.69 20.73, 190 20 S 193.75 20.28, 195 21.11 S 198.75 25.84, 200 26.67 S 203.54 27.45, 205 27.78"
          fill="none"/>
    <circle r="4" cx="5" cy="40" fill="#3023AE"/>
    <circle r="4" cx="205" cy="27.78" fill="#C86DD7"/>      
</svg>