<svg width="200" height="50" viewBox="0 0 210 50" xmlns="http://www.w3.org/2000/svg">
    <defs>
        <linearGradient x1="0%" y1="0%" x2="100%" y2="0%" id="a">
            <stop stop-color="#3023AE" offset="0%"/>
            <stop stop-color="#C86DD7" offset="100%"/>
        </linearGradient>
    </defs>
    <path stroke="url(#a)"
          stroke-width="3"
          stroke-linejoin="round"
          stroke-linecap="round"
          d="M5 40 C 6.44 39.58, 8.5 38.56, 10 38.56 S 13.51 39.77, 15 39.98 S 18.5 39.99, 20 39.98 S 23.5 40.01, 25 39.92 S 28.66 40.05, 30 39.37 S 33.53 35.1, 35 34.82 S 38.54 37.16, 40 37.49 S 43.5 37.01, 45 37.08 S 48.5 37.91, 50 37.99 S 53.52 37.86, 55 37.6 S 58.53 36.49, 60 36.2 S 63.57 36.08, 65 35.63 S 68.53 33.38, 70 33.06 S 73.52 33.22, 75 33.46 S 78.5 34.62, 80 34.71 S 83.52 34.31, 85 34.05 S 88.61 33.52, 90 32.96 S 93.63 30.61, 95 29.99 S 98.61 28.97, 100 28.41 S 103.5 25.94, 105 25.94 S 108.53 28.72, 110 28.41 S 113.71 24.61, 115 23.85 S 118.67 23.2, 120 22.51 S 123.6 19.21, 125 18.67 S 128.68 19.34, 130 18.63 S 133.73 14.08, 135 13.28 S 138.5 12.21, 140 12.3 S 143.5 13.75, 145 13.86 S 148.61 12.5, 150 13.05 S 153.53 17.55, 155 17.83 S 158.5 14.99, 160 14.93 S 163.65 18.1, 165 17.44 S 168.53 10.3, 170 10 S 173.6 14.82, 175 15.37 S 178.52 13.7, 180 13.95 S 183.66 16.41, 185 17.08 S 188.53 18.62, 190 18.9 S 193.54 18.63, 195 18.96 S 198.51 21.3, 200 21.16 S 203.73 18.82, 205 18.02"
          fill="none"/>
    <circle r="4" cx="5" cy="40" fill="#3023AE"/>
    <circle r="4" cx="205" cy="18.02" fill="#C86DD7"/>      
</svg>