<svg width="200" height="50" viewBox="0 0 210 50" xmlns="http://www.w3.org/2000/svg">
    <defs>
        <linearGradient x1="0%" y1="0%" x2="100%" y2="0%" id="a">
            <stop stop-color="#3023AE" offset="0%"/>
            <stop stop-color="#C86DD7" offset="100%"/>
        </linearGradient>
    </defs>
    <path stroke="url(#a)"
          stroke-width="3"
          stroke-linejoin="round"
          stroke-linecap="round"
          d="M5 40 C 6.49 39.83, 8.52 39.67, 10 39.42 S 13.5 38.29, 15 38.34 S 18.51 39.52, 20 39.73 S 23.5 39.75, 25 39.76 S 28.5 39.78, 30 39.78 S 33.5 39.76, 35 39.78 S 38.5 39.9, 40 39.91 S 43.5 39.87, 45 39.86 S 48.5 39.82, 50 39.83 S 53.5 39.9, 55 39.92 S 58.5 39.94, 60 39.95 S 63.5 40.04, 65 39.97 S 68.52 39.71, 70 39.45 S 73.55 38.6, 75 38.23 S 78.51 37.04, 80 36.87 S 83.5 37.09, 85 37.12 S 88.53 37.37, 90 37.09 S 93.58 35.68, 95 35.21 S 98.6 34.29, 100 33.76 S 103.52 31.71, 105 31.46 S 108.5 32.05, 110 32.08 S 113.51 31.84, 115 31.69 S 118.54 31.42, 120 31.1 S 123.64 30.13, 125 29.49 S 128.59 26.93, 130 26.41 S 133.63 26.44, 135 25.82 S 138.65 22.55, 140 21.9 S 143.79 21.85, 145 20.97 S 148.99 15.74, 150 14.63 S 153.53 10.3, 155 10 S 158.61 12.01, 160 12.58 S 163.51 13.88, 165 14.08 S 168.53 13.66, 170 13.95 S 173.55 16.44, 175 16.05 S 178.5 11.35, 180 11.23 S 183.57 14.8, 185 15.25 S 188.66 13.73, 190 14.41 S 193.71 19.56, 195 20.32 S 198.5 20.4, 200 20.31 S 203.51 19.91, 205 19.74"
          fill="none"/>
    <circle r="4" cx="5" cy="40" fill="#3023AE"/>
    <circle r="4" cx="205" cy="19.74" fill="#C86DD7"/>      
</svg>