<svg width="200" height="50" viewBox="0 0 210 50" xmlns="http://www.w3.org/2000/svg">
    <defs>
        <linearGradient x1="0%" y1="0%" x2="100%" y2="0%" id="a">
            <stop stop-color="#3023AE" offset="0%"/>
            <stop stop-color="#C86DD7" offset="100%"/>
        </linearGradient>
    </defs>
    <path stroke="url(#a)"
          stroke-width="3"
          stroke-linejoin="round"
          stroke-linecap="round"
          d="M5 40 C 6.5 39.99, 8.5 39.97, 10 39.95 S 13.5 39.87, 15 39.85 S 18.53 40.14, 20 39.84 S 23.5 37.84, 25 37.84 S 29.47 41.25, 30 39.85 S 33.62 11.72, 35 11.13 S 39.46 34.15, 40 35.55 S 43.54 36.76, 45 37.09 S 48.5 37.7, 50 37.79 S 53.53 38.01, 55 37.7 S 58.58 36.12, 60 35.65 S 63.51 34.2, 65 34.37 S 68.53 36.52, 70 36.82 S 73.54 36.79, 75 36.43 S 78.5 34.22, 80 34.33 S 83.51 37.36, 85 37.16 S 88.66 33.64, 90 32.96 S 94.02 33.21, 95 32.08 S 98.64 22.05, 100 21.41 S 103.78 26.51, 105 27.38 S 108.63 27.87, 110 28.48 S 113.62 31.24, 115 31.82 S 118.5 32.65, 120 32.68 S 123.54 32.37, 125 32.04 S 128.51 30.25, 130 30.4 S 133.68 33.75, 135 33.03 S 138.75 25.78, 140 24.96 S 143.64 25.82, 145 26.46 S 148.59 30.22, 150 29.7 S 154.25 24.09, 155 22.79 S 159.08 13.5, 160 12.32 S 164.3 8.67, 165 10 S 169.41 29.93, 170 31.31 S 173.51 33.14, 175 33.27 S 178.5 32.17, 180 32.21 S 183.5 33.62, 185 33.52 S 188.5 31.51, 190 31.53 S 193.55 33.25, 195 33.63 S 198.5 34.07, 200 34.15 S 203.5 34.16, 205 34.16"
          fill="none"/>
    <circle r="4" cx="5" cy="40" fill="#3023AE"/>
    <circle r="4" cx="205" cy="34.16" fill="#C86DD7"/>      
</svg>