<svg width="200" height="50" viewBox="0 0 210 50" xmlns="http://www.w3.org/2000/svg">
    <defs>
        <linearGradient x1="0%" y1="0%" x2="100%" y2="0%" id="a">
            <stop stop-color="#3023AE" offset="0%"/>
            <stop stop-color="#C86DD7" offset="100%"/>
        </linearGradient>
    </defs>
    <path stroke="url(#a)"
          stroke-width="3"
          stroke-linejoin="round"
          stroke-linecap="round"
          d="M5 40 C 6.5 40, 8.5 40, 10 40 S 13.5 40, 15 40 S 18.5 39.99, 20 39.99 S 23.5 40, 25 40 S 29.53 41.41, 30 39.99 S 33.79 10.88, 35 10 S 39.47 31.35, 40 32.75 S 43.62 35.89, 45 36.48 S 48.5 36.98, 50 37.07 S 53.51 36.91, 55 37.09 S 58.52 38.08, 60 38.31 S 63.5 38.62, 65 38.66 S 68.5 38.65, 70 38.55 S 73.52 38.26, 75 38.02 S 78.51 37.08, 80 36.95 S 83.5 37.03, 85 37.15 S 88.51 37.55, 90 37.72 S 93.5 38.19, 95 38.27 S 98.5 38.22, 100 38.25 S 103.5 38.42, 105 38.49 S 108.5 38.67, 110 38.7 S 113.5 38.71, 115 38.68 S 118.51 38.59, 120 38.47 S 123.5 37.81, 125 37.86 S 128.5 38.77, 130 38.83 S 133.51 38.45, 135 38.26 S 138.51 37.74, 140 37.55 S 143.51 37.11, 145 36.96 S 148.5 36.45, 150 36.57 S 153.51 37.54, 155 37.74 S 158.51 37.73, 160 37.89 S 163.5 38.73, 165 38.8 S 168.51 38.51, 170 38.39 S 173.5 38.05, 175 37.97 S 178.5 37.78, 180 37.84 S 183.51 38.23, 185 38.36 S 188.5 38.66, 190 38.7 S 193.5 38.6, 195 38.6 S 198.5 38.77, 200 38.73 S 203.51 38.44, 205 38.32"
          fill="none"/>
    <circle r="4" cx="5" cy="40" fill="#3023AE"/>
    <circle r="4" cx="205" cy="38.32" fill="#C86DD7"/>      
</svg>