<svg width="200" height="50" viewBox="0 0 210 50" xmlns="http://www.w3.org/2000/svg">
    <defs>
        <linearGradient x1="0%" y1="0%" x2="100%" y2="0%" id="a">
            <stop stop-color="#3023AE" offset="0%"/>
            <stop stop-color="#C86DD7" offset="100%"/>
        </linearGradient>
    </defs>
    <path stroke="url(#a)"
          stroke-width="3"
          stroke-linejoin="round"
          stroke-linecap="round"
          d="M5 40 C 5.25 38.52, 8.75 10.82, 10 10 S 14.51 32, 15 33.42 S 18.7 38.13, 20 38.88 S 23.5 39.1, 25 39.19 S 28.5 39.41, 30 39.49 S 33.5 39.69, 35 39.73 S 38.5 39.76, 40 39.73 S 43.5 39.6, 45 39.56 S 48.5 39.49, 50 39.48 S 53.5 39.5, 55 39.52 S 58.5 39.6, 60 39.63 S 63.5 39.68, 65 39.69 S 68.5 39.77, 70 39.71 S 73.52 39.52, 75 39.29 S 78.5 38.22, 80 38.14 S 83.51 38.55, 85 38.73 S 88.5 39.25, 90 39.36 S 93.5 39.47, 95 39.48 S 98.75 40.26, 100 39.43 S 103.53 33.12, 105 32.83 S 108.7 36.69, 110 37.43 S 113.5 38.46, 115 38.55 S 118.5 38.14, 120 38.06 S 123.5 38.03, 125 38.02 S 128.5 38.01, 130 38.01 S 133.59 38.56, 135 38.05 S 138.54 34.76, 140 34.4 S 143.53 35.26, 145 35.55 S 148.52 36.13, 150 36.35 S 153.5 37.04, 155 37.05 S 158.5 36.55, 160 36.44 S 163.51 36.16, 165 36.31 S 168.5 37.33, 170 37.43 S 173.5 36.99, 175 36.97 S 178.5 37.36, 180 37.3 S 183.5 36.64, 185 36.6 S 188.5 37.12, 190 37.01 S 193.5 35.89, 195 35.88 S 198.51 36.8, 200 36.95 S 203.5 36.91, 205 36.89"
          fill="none"/>
    <circle r="4" cx="5" cy="40" fill="#3023AE"/>
    <circle r="4" cx="205" cy="36.89" fill="#C86DD7"/>      
</svg>