<svg width="200" height="50" viewBox="0 0 210 50" xmlns="http://www.w3.org/2000/svg">
    <defs>
        <linearGradient x1="0%" y1="0%" x2="100%" y2="0%" id="a">
            <stop stop-color="#3023AE" offset="0%"/>
            <stop stop-color="#C86DD7" offset="100%"/>
        </linearGradient>
    </defs>
    <path stroke="url(#a)"
          stroke-width="3"
          stroke-linejoin="round"
          stroke-linecap="round"
          d="M5 40 C 5.28 38.53, 8.51 13.78, 10 13.64 S 14.43 37.7, 15 39.09 S 18.52 38.45, 20 38.18 S 23.52 37.54, 25 37.27 S 28.5 36.36, 30 36.36 S 33.51 37.41, 35 37.27 S 38.55 35.84, 40 35.45 S 43.51 34.68, 45 34.55 S 48.52 34.82, 50 34.55 S 53.68 33.45, 55 32.73 S 58.55 29.49, 60 29.09 S 63.52 29.73, 65 30 S 69.33 32.25, 70 30.91 S 73.94 11.06, 75 10 S 79.11 19.7, 80 20.91 S 83.52 23.37, 85 23.64 S 88.59 22.22, 90 22.73 S 93.59 26.76, 95 27.27 S 98.84 27.31, 100 26.36 S 103.51 18.95, 105 19.09 S 109.15 26.03, 110 27.27 S 113.59 34.15, 115 33.64 S 118.84 24.59, 120 23.64 S 123.89 24.44, 125 25.45 S 128.94 31.67, 130 32.73 S 133.55 35.06, 135 35.45 S 138.94 36.51, 140 35.45 S 143.55 25.84, 145 25.45 S 148.84 31.78, 150 32.73 S 153.5 33.64, 155 33.64 S 158.51 32.59, 160 32.73 S 163.63 33.93, 165 34.55 S 168.55 36.88, 170 37.27 S 173.55 37.66, 175 37.27 S 178.63 35.17, 180 34.55 S 183.55 33.13, 185 32.73 S 188.5 31.82, 190 31.82 S 193.73 31.93, 195 32.73 S 198.59 37.67, 200 38.18 S 203.59 36.87, 205 36.36"
          fill="none"/>
    <circle r="4" cx="5" cy="40" fill="#3023AE"/>
    <circle r="4" cx="205" cy="36.36" fill="#C86DD7"/>      
</svg>