<svg width="200" height="50" viewBox="0 0 210 50" xmlns="http://www.w3.org/2000/svg">
    <defs>
        <linearGradient x1="0%" y1="0%" x2="100%" y2="0%" id="a">
            <stop stop-color="#3023AE" offset="0%"/>
            <stop stop-color="#C86DD7" offset="100%"/>
        </linearGradient>
    </defs>
    <path stroke="url(#a)"
          stroke-width="3"
          stroke-linejoin="round"
          stroke-linecap="round"
          d="M5 40 C 5.4 38.55, 9.24 23.09, 10 21.79 S 13.86 21.88, 15 22.86 S 18.8 29.46, 20 30.36 S 23.51 30.52, 25 30.36 S 28.68 28.58, 30 29.29 S 33.5 35.71, 35 35.71 S 39.08 30.47, 40 29.29 S 43.57 23.32, 45 22.86 S 48.98 24.97, 50 26.07 S 53.57 34.03, 55 33.57 S 58.8 23.76, 60 22.86 S 63.62 25.48, 65 26.07 S 68.51 26.98, 70 27.14 S 73.51 26.98, 75 27.14 S 78.86 27.23, 80 28.21 S 83.57 35.25, 85 35.71 S 88.62 32.02, 90 31.43 S 93.5 31.43, 95 31.43 S 98.57 31.89, 100 31.43 S 103.5 28.21, 105 28.21 S 108.57 30.97, 110 31.43 S 113.53 31.74, 115 31.43 S 118.51 29.45, 120 29.29 S 123.51 30.52, 125 30.36 S 128.53 28.53, 130 28.21 S 133.51 28.05, 135 28.21 S 138.53 29.6, 140 29.29 S 143.53 26.39, 145 26.07 S 148.57 26.68, 150 27.14 S 153.62 28.7, 155 29.29 S 158.74 32.24, 160 31.43 S 163.8 23.76, 165 22.86 S 169.08 25.11, 170 23.93 S 173.68 9.29, 175 10 S 179.21 28.02, 180 29.29 S 184.21 27.34, 185 26.07 S 188.62 13.8, 190 13.21 S 193.98 20.69, 195 21.79 S 198.98 22.83, 200 23.93 S 204.24 31.2, 205 32.5"
          fill="none"/>
    <circle r="4" cx="5" cy="40" fill="#3023AE"/>
    <circle r="4" cx="205" cy="32.5" fill="#C86DD7"/>      
</svg>