<svg width="200" height="50" viewBox="0 0 210 50" xmlns="http://www.w3.org/2000/svg">
    <defs>
        <linearGradient x1="0%" y1="0%" x2="100%" y2="0%" id="a">
            <stop stop-color="#3023AE" offset="0%"/>
            <stop stop-color="#C86DD7" offset="100%"/>
        </linearGradient>
    </defs>
    <path stroke="url(#a)"
          stroke-width="3"
          stroke-linejoin="round"
          stroke-linecap="round"
          d="M5 40 C 5.39 38.55, 9.09 22.44, 10 21.25 S 13.91 25.84, 15 26.87 S 18.53 30.34, 20 30.62 S 23.6 29.28, 25 28.75 S 28.91 25.84, 30 26.87 S 33.53 37.84, 35 38.12 S 38.69 29.48, 40 28.75 S 44.17 33.75, 45 32.5 S 48.8 14.65, 50 13.75 S 54.39 23.63, 55 25 S 58.6 35.72, 60 36.25 S 63.5 28.75, 65 28.75 S 68.69 36.99, 70 36.25 S 73.91 24.15, 75 23.12 S 79 25.75, 80 26.87 S 83.6 33.84, 85 34.37 S 88.8 31.52, 90 30.62 S 93.5 26.87, 95 26.87 S 98.53 30.34, 100 30.62 S 103.6 28.22, 105 28.75 S 108.5 34.37, 110 34.37 S 113.69 29.48, 115 28.75 S 118.6 28.22, 120 28.75 S 123.6 33.03, 125 32.5 S 128.8 25.9, 130 25 S 133.91 23.97, 135 25 S 138.8 33.47, 140 34.37 S 143.53 32.22, 145 32.5 S 148.53 36.53, 150 36.25 S 154 31.74, 155 30.62 S 158.53 24.72, 160 25 S 164 33.62, 165 32.5 S 168.91 14.78, 170 13.75 S 173.6 22.59, 175 23.12 S 178.69 16.76, 180 17.5 S 183.8 29.65, 185 28.75 S 188.8 10.9, 190 10 S 194 20.13, 195 21.25 S 198.8 20.35, 200 21.25 S 204.17 27.5, 205 28.75"
          fill="none"/>
    <circle r="4" cx="5" cy="40" fill="#3023AE"/>
    <circle r="4" cx="205" cy="28.75" fill="#C86DD7"/>      
</svg>