<svg width="200" height="50" viewBox="0 0 210 50" xmlns="http://www.w3.org/2000/svg">
    <defs>
        <linearGradient x1="0%" y1="0%" x2="100%" y2="0%" id="a">
            <stop stop-color="#3023AE" offset="0%"/>
            <stop stop-color="#C86DD7" offset="100%"/>
        </linearGradient>
    </defs>
    <path stroke="url(#a)"
          stroke-width="3"
          stroke-linejoin="round"
          stroke-linecap="round"
          d="M5 40 C 5.8 38.73, 8.5 32.06, 10 32.02 S 13.81 38.8, 15 39.72 S 18.5 39.76, 20 39.72 S 23.53 39.73, 25 39.45 S 28.55 38.2, 30 37.8 S 33.61 37.27, 35 36.7 S 39.14 34.9, 40 33.67 S 43.69 23.11, 45 22.39 S 48.53 27.89, 50 28.17 S 53.5 24.35, 55 24.31 S 58.72 27.11, 60 27.89 S 63.51 30.16, 65 30.37 S 68.5 29.19, 70 29.27 S 73.66 31.59, 75 30.92 S 78.58 24.78, 80 24.31 S 83.96 28.69, 85 27.61 S 88.51 13.97, 90 13.85 S 93.99 25.68, 95 26.79 S 98.6 25.4, 100 24.86 S 103.5 22.98, 105 22.94 S 108.5 24.55, 110 24.59 S 114.15 24.45, 115 23.21 S 118.9 11.03, 120 10 S 123.8 12.96, 125 13.85 S 128.64 16.79, 130 17.43 S 133.76 17.68, 135 18.53 S 138.55 24.71, 140 24.31 S 143.66 16.45, 145 15.78 S 148.56 18.93, 150 19.36 S 153.66 18.14, 155 18.81 S 158.52 24.07, 160 24.31 S 163.66 21.13, 165 20.46 S 168.51 19.16, 170 19.36 S 173.55 21.43, 175 21.83 S 178.67 22.8, 180 22.11 S 183.89 17.62, 185 16.61 S 188.51 12.91, 190 13.03 S 193.66 16.76, 195 17.43 S 198.72 18.76, 200 17.98 S 204.09 12.58, 205 11.38"
          fill="none"/>
    <circle r="4" cx="5" cy="40" fill="#3023AE"/>
    <circle r="4" cx="205" cy="11.379999999999999" fill="#C86DD7"/>      
</svg>