<svg width="200" height="50" viewBox="0 0 210 50" xmlns="http://www.w3.org/2000/svg">
    <defs>
        <linearGradient x1="0%" y1="0%" x2="100%" y2="0%" id="a">
            <stop stop-color="#3023AE" offset="0%"/>
            <stop stop-color="#C86DD7" offset="100%"/>
        </linearGradient>
    </defs>
    <path stroke="url(#a)"
          stroke-width="3"
          stroke-linejoin="round"
          stroke-linecap="round"
          d="M5 40 C 6.11 38.99, 8.51 35.62, 10 35.43 S 13.57 38.23, 15 38.7 S 18.5 38.65, 20 38.7 S 23.51 39.21, 25 39.02 S 28.67 38.08, 30 37.39 S 33.71 34.56, 35 33.8 S 38.6 30.97, 40 31.52 S 43.73 36.93, 45 37.72 S 48.59 38.23, 50 37.72 S 53.53 34.42, 55 34.13 S 58.5 35.76, 60 35.76 S 63.53 34.42, 65 34.13 S 68.52 33.56, 70 33.8 S 73.54 35.43, 75 35.76 S 78.5 36.04, 80 36.09 S 83.5 36.19, 85 36.09 S 88.52 35.67, 90 35.43 S 93.53 34.17, 95 34.46 S 98.55 37.77, 100 37.39 S 103.64 32.47, 105 31.85 S 109.38 34.19, 110 32.83 S 113.53 10.29, 115 10 S 118.65 30.21, 120 30.87 S 123.51 14.74, 125 14.89 S 129.2 30.58, 130 31.85 S 133.51 30.72, 135 30.87 S 138.65 32.17, 140 32.83 S 143.51 35.62, 145 35.76 S 149.17 35.05, 150 33.8 S 153.94 21.83, 155 20.76 S 158.72 24.49, 160 23.7 S 163.57 14.11, 165 14.57 S 168.99 25.85, 170 26.96 S 173.71 24.89, 175 25.65 S 178.74 32.01, 180 32.83 S 183.53 32.46, 185 32.17 S 188.5 30.77, 190 30.87 S 193.51 32.68, 195 32.83 S 198.52 32.09, 200 31.85 S 203.51 31.39, 205 31.2"
          fill="none"/>
    <circle r="4" cx="5" cy="40" fill="#3023AE"/>
    <circle r="4" cx="205" cy="31.2" fill="#C86DD7"/>      
</svg>