<svg width="200" height="50" viewBox="0 0 210 50" xmlns="http://www.w3.org/2000/svg">
    <defs>
        <linearGradient x1="0%" y1="0%" x2="100%" y2="0%" id="a">
            <stop stop-color="#3023AE" offset="0%"/>
            <stop stop-color="#C86DD7" offset="100%"/>
        </linearGradient>
    </defs>
    <path stroke="url(#a)"
          stroke-width="3"
          stroke-linejoin="round"
          stroke-linecap="round"
          d="M5 40 C 5.27 38.53, 8.56 13.6, 10 13.18 S 14.43 35.73, 15 37.12 S 18.52 37.39, 20 37.62 S 23.53 38.36, 25 38.66 S 28.51 39.8, 30 39.67 S 33.51 37.95, 35 37.79 S 38.52 38.36, 40 38.62 S 43.51 39.39, 45 39.54 S 48.5 39.63, 50 39.62 S 53.5 39.47, 55 39.5 S 58.58 40.32, 60 39.83 S 63.75 36.91, 65 36.07 S 68.61 33.68, 70 33.11 S 73.52 32.24, 75 31.98 S 78.5 31.28, 80 31.35 S 83.51 32.59, 85 32.44 S 88.53 30.66, 90 30.35 S 93.5 30.33, 95 30.35 S 98.51 30.3, 100 30.47 S 103.5 31.45, 105 31.52 S 108.51 31.18, 110 30.97 S 113.51 30.24, 115 30.1 S 118.51 30.17, 120 30.01 S 123.51 29.24, 125 29.05 S 128.55 29.14, 130 28.76 S 133.54 26.78, 135 26.42 S 138.54 26.66, 140 26.3 S 143.54 24.31, 145 23.96 S 148.51 23.73, 150 23.87 S 153.51 25.09, 155 24.92 S 158.52 22.96, 160 22.7 S 163.58 23.63, 165 23.16 S 168.5 19.36, 170 19.4 S 173.51 23.29, 175 23.45 S 178.53 20.76, 180 20.45 S 183.6 21.9, 185 21.36 S 188.62 17.2, 190 16.6 S 193.55 17.41, 195 17.02 S 198.77 14.75, 200 13.89 S 203.82 10.92, 205 10"
          fill="none"/>
    <circle r="4" cx="5" cy="40" fill="#3023AE"/>
    <circle r="4" cx="205" cy="10" fill="#C86DD7"/>      
</svg>