<svg width="200" height="50" viewBox="0 0 210 50" xmlns="http://www.w3.org/2000/svg">
    <defs>
        <linearGradient x1="0%" y1="0%" x2="100%" y2="0%" id="a">
            <stop stop-color="#3023AE" offset="0%"/>
            <stop stop-color="#C86DD7" offset="100%"/>
        </linearGradient>
    </defs>
    <path stroke="url(#a)"
          stroke-width="3"
          stroke-linejoin="round"
          stroke-linecap="round"
          d="M5 40 C 6.41 39.49, 8.66 38.88, 10 38.21 S 14.09 36.2, 15 35 S 19.44 26.39, 20 25 S 24.08 8.82, 25 10 S 29.51 36.44, 30 37.86 S 33.52 38.67, 35 38.93 S 38.5 39.59, 40 39.64 S 43.5 39.29, 45 39.29 S 48.5 39.59, 50 39.64 S 53.5 39.64, 55 39.64 S 58.5 39.64, 60 39.64 S 63.5 39.64, 65 39.64 S 68.5 39.64, 70 39.64 S 73.5 39.64, 75 39.64 S 78.5 39.64, 80 39.64 S 83.5 39.64, 85 39.64 S 88.5 39.64, 90 39.64 S 93.5 39.64, 95 39.64 S 98.5 39.64, 100 39.64 S 103.5 39.64, 105 39.64 S 108.5 39.64, 110 39.64 S 113.5 39.69, 115 39.64 S 118.5 39.29, 120 39.29 S 123.5 39.59, 125 39.64 S 128.5 39.64, 130 39.64 S 133.5 39.64, 135 39.64 S 138.5 39.64, 140 39.64 S 143.5 39.64, 145 39.64 S 148.5 39.64, 150 39.64 S 153.5 39.64, 155 39.64 S 158.5 39.64, 160 39.64 S 163.5 39.64, 165 39.64 S 168.5 39.64, 170 39.64"
          fill="none"/>
    <circle r="4" cx="5" cy="40" fill="#3023AE"/>
    <circle r="4" cx="170" cy="39.64" fill="#C86DD7"/>      
</svg>