<svg width="200" height="50" viewBox="0 0 210 50" xmlns="http://www.w3.org/2000/svg">
    <defs>
        <linearGradient x1="0%" y1="0%" x2="100%" y2="0%" id="a">
            <stop stop-color="#3023AE" offset="0%"/>
            <stop stop-color="#C86DD7" offset="100%"/>
        </linearGradient>
    </defs>
    <path stroke="url(#a)"
          stroke-width="3"
          stroke-linejoin="round"
          stroke-linecap="round"
          d="M5 40 C 5.25 38.52, 8.54 10.33, 10 10 S 14.49 36.37, 15 37.78 S 18.51 37.61, 20 37.78 S 23.51 38.72, 25 38.89 S 28.5 38.89, 30 38.89 S 33.5 38.89, 35 38.89 S 38.5 38.89, 40 38.89 S 43.51 39.06, 45 38.89 S 48.94 38.84, 50 37.78 S 53.69 29.62, 55 28.89 S 58.94 31.16, 60 32.22 S 63.51 38.72, 65 38.89 S 68.63 33.94, 70 33.33 S 73.69 33.71, 75 34.44 S 78.51 38.72, 80 38.89 S 83.51 35.73, 85 35.56 S 88.54 37.45, 90 37.78 S 93.51 37.61, 95 37.78 S 98.58 39.37, 100 38.89 S 103.54 34.77, 105 34.44 S 108.5 36.67, 110 36.67 S 113.54 34.11, 115 34.44 S 118.51 39.06, 120 38.89 S 123.63 33.94, 125 33.33 S 128.58 33.96, 130 34.44 S 133.58 36.19, 135 36.67 S 138.54 38.11, 140 37.78 S 143.58 34.92, 145 34.44 S 148.58 33.96, 150 34.44 S 153.63 37.17, 155 37.78 S 158.51 38.72, 160 38.89 S 163.5 38.89, 165 38.89 S 168.5 38.89, 170 38.89 S 173.54 39.22, 175 38.89 S 178.54 37, 180 36.67 S 183.54 36.34, 185 36.67 S 188.54 38.56, 190 38.89 S 193.5 38.89, 195 38.89 S 198.5 38.89, 200 38.89 S 203.5 38.89, 205 38.89"
          fill="none"/>
    <circle r="4" cx="5" cy="40" fill="#3023AE"/>
    <circle r="4" cx="205" cy="38.89" fill="#C86DD7"/>      
</svg>