<svg width="200" height="50" viewBox="0 0 210 50" xmlns="http://www.w3.org/2000/svg">
    <defs>
        <linearGradient x1="0%" y1="0%" x2="100%" y2="0%" id="a">
            <stop stop-color="#3023AE" offset="0%"/>
            <stop stop-color="#C86DD7" offset="100%"/>
        </linearGradient>
    </defs>
    <path stroke="url(#a)"
          stroke-width="3"
          stroke-linejoin="round"
          stroke-linecap="round"
          d="M5 40 C 6.23 39.14, 8.51 36.72, 10 36.51 S 13.5 38.6, 15 38.6 S 18.5 36.41, 20 36.51 S 23.73 40.1, 25 39.3 S 28.5 30.23, 30 30.23 S 33.77 38.44, 35 39.3 S 38.53 37.52, 40 37.21 S 43.51 37, 45 37.21 S 48.51 38.81, 50 38.6 S 53.5 35.71, 55 35.81 S 58.58 38.81, 60 39.3 S 63.51 39.51, 65 39.3 S 68.5 37.91, 70 37.91 S 73.51 39.09, 75 39.3 S 78.53 39.61, 80 39.3 S 83.69 37.94, 85 37.21 S 88.51 33.51, 90 33.72 S 93.58 38.11, 95 38.6 S 98.5 37.31, 100 37.21 S 103.51 37.7, 105 37.91 S 108.58 39.09, 110 38.6 S 113.51 34.63, 115 34.42 S 118.56 36.81, 120 37.21 S 123.5 37.21, 125 37.21 S 128.5 37.11, 130 37.21 S 133.5 37.81, 135 37.91 S 138.51 37.7, 140 37.91 S 143.69 40.03, 145 39.3 S 148.53 32.64, 150 32.33 S 153.69 36.48, 155 37.21 S 158.62 38.49, 160 37.91 S 163.85 33.98, 165 33.02 S 168.56 29.93, 170 29.53 S 174.28 31.54, 175 30.23 S 179.34 12.74, 180 11.4 S 184.03 8.85, 185 10 S 188.85 22.3, 190 23.26 S 193.93 19.42, 195 18.37 S 199 12.37, 200 13.49 S 204.55 28.1, 205 29.53"
          fill="none"/>
    <circle r="4" cx="5" cy="40" fill="#3023AE"/>
    <circle r="4" cx="205" cy="29.53" fill="#C86DD7"/>      
</svg>