<svg width="200" height="50" viewBox="0 0 210 50" xmlns="http://www.w3.org/2000/svg">
    <defs>
        <linearGradient x1="0%" y1="0%" x2="100%" y2="0%" id="a">
            <stop stop-color="#3023AE" offset="0%"/>
            <stop stop-color="#C86DD7" offset="100%"/>
        </linearGradient>
    </defs>
    <path stroke="url(#a)"
          stroke-width="3"
          stroke-linejoin="round"
          stroke-linecap="round"
          d="M5 40 C 5.88 38.78, 8.52 33.29, 10 33.04 S 13.72 37.56, 15 38.34 S 18.5 39.02, 20 39.13 S 23.96 40.18, 25 39.1 S 28.52 28.98, 30 28.76 S 33.88 36.63, 35 37.63 S 39.49 39.13, 40 37.72 S 43.62 10.59, 45 10 S 49.49 31.99, 50 33.4 S 53.66 36.74, 55 37.41 S 58.5 38.37, 60 38.41 S 63.5 37.73, 65 37.71 S 68.5 38.22, 70 38.27 S 73.5 38.1, 75 38.02 S 78.51 37.85, 80 37.72 S 83.5 37.18, 85 37.16 S 88.5 37.47, 90 37.58 S 93.5 37.86, 95 37.89 S 98.5 37.86, 100 37.79 S 103.79 38.33, 105 37.44 S 108.54 30.72, 110 30.38 S 113.7 34.4, 115 35.14 S 118.51 35.86, 120 36.06 S 123.53 36.81, 125 36.5 S 128.5 33.93, 130 33.94 S 133.51 36.71, 135 36.58 S 138.5 33.1, 140 33.05 S 143.61 35.66, 145 36.23 S 148.5 37.14, 150 37.16 S 153.5 36.4, 155 36.38 S 158.51 36.9, 160 37.04 S 163.5 37.27, 165 37.33 S 168.66 38.14, 170 37.46 S 173.55 32.58, 175 32.21 S 178.54 34.53, 180 34.88 S 183.58 35.09, 185 34.61 S 188.52 31.75, 190 31.48 S 193.58 32.3, 195 32.78 S 198.54 34.51, 200 34.84 S 203.5 35, 205 35.07"
          fill="none"/>
    <circle r="4" cx="5" cy="40" fill="#3023AE"/>
    <circle r="4" cx="205" cy="35.07" fill="#C86DD7"/>      
</svg>