<svg width="200" height="50" viewBox="0 0 210 50" xmlns="http://www.w3.org/2000/svg">
    <defs>
        <linearGradient x1="0%" y1="0%" x2="100%" y2="0%" id="a">
            <stop stop-color="#3023AE" offset="0%"/>
            <stop stop-color="#C86DD7" offset="100%"/>
        </linearGradient>
    </defs>
    <path stroke="url(#a)"
          stroke-width="3"
          stroke-linejoin="round"
          stroke-linecap="round"
          d="M5 40 C 5.73 38.69, 8.52 31.22, 10 31 S 13.52 38.72, 15 38.5 S 18.63 30.12, 20 29.5 S 23.63 33.38, 25 34 S 29.17 35.25, 30 34 S 33.63 18.38, 35 19 S 39.17 37.25, 40 38.5 S 44.5 35.42, 45 34 S 49.27 11.31, 50 10 S 53.71 15.23, 55 16 S 59.04 14.85, 60 16 S 64.39 26.63, 65 28 S 68.52 38.28, 70 38.5 S 73.63 30.12, 75 29.5 S 78.89 33, 80 34 S 83.8 39.4, 85 38.5 S 88.8 27.4, 90 26.5 S 93.8 31.9, 95 31 S 98.63 19.62, 100 19 S 103.8 25.6, 105 26.5 S 108.56 26.07, 110 26.5 S 113.71 28.73, 115 29.5 S 118.56 32.93, 120 32.5 S 124.27 27.81, 125 26.5 S 128.89 15.5, 130 14.5 S 134.32 16.17, 135 17.5 S 139.36 32.65, 140 34 S 143.89 39.5, 145 38.5 S 149.32 26.33, 150 25 S 154.11 17.79, 155 19 S 158.52 38.72, 160 38.5 S 163.97 18.59, 165 17.5 S 169.32 26.67, 170 28 S 173.8 36.1, 175 37 S 179.04 36.65, 180 35.5 S 183.63 25.62, 185 25 S 188.63 30.38, 190 31 S 193.63 28.88, 195 29.5 S 198.56 35.07, 200 35.5 S 203.71 33.27, 205 32.5"
          fill="none"/>
    <circle r="4" cx="5" cy="40" fill="#3023AE"/>
    <circle r="4" cx="205" cy="32.5" fill="#C86DD7"/>      
</svg>