<svg width="200" height="50" viewBox="0 0 210 50" xmlns="http://www.w3.org/2000/svg">
    <defs>
        <linearGradient x1="0%" y1="0%" x2="100%" y2="0%" id="a">
            <stop stop-color="#3023AE" offset="0%"/>
            <stop stop-color="#C86DD7" offset="100%"/>
        </linearGradient>
    </defs>
    <path stroke="url(#a)"
          stroke-width="3"
          stroke-linejoin="round"
          stroke-linecap="round"
          d="M5 40 C 5.31 38.53, 8.89 17.53, 10 16.52 S 14.38 29.5, 15 30.87 S 18.82 37.78, 20 38.7 S 24.03 39.84, 25 38.7 S 29.03 28.1, 30 26.96 S 33.6 27.51, 35 26.96 S 38.89 22.03, 40 23.04 S 44.14 34.86, 45 36.09 S 48.51 37.58, 50 37.39 S 53.6 35.33, 55 34.78 S 58.55 33.86, 60 33.48 S 63.89 33.18, 65 32.17 S 68.6 24.9, 70 24.35 S 73.6 27.71, 75 28.26 S 78.67 27.57, 80 28.26 S 83.74 32.66, 85 33.48 S 88.5 34.78, 90 34.78 S 93.5 33.48, 95 33.48 S 98.51 34.97, 100 34.78 S 103.6 32.72, 105 32.17 S 108.82 31.79, 110 30.87 S 113.51 24.54, 115 24.35 S 118.67 30.26, 120 29.57 S 123.55 18.75, 125 19.13 S 128.96 31.09, 130 32.17 S 134.19 30.83, 135 29.57 S 138.6 17.07, 140 16.52 S 143.96 24.57, 145 25.65 S 148.55 26.58, 150 26.96 S 153.96 29.34, 155 28.26 S 158.55 16.14, 160 16.52 S 164.14 29.64, 165 30.87 S 168.51 31.06, 170 30.87 S 174.28 30.89, 175 29.57 S 178.82 13.53, 180 12.61 S 183.74 20.92, 185 21.74 S 188.55 19.51, 190 19.13 S 193.74 19.95, 195 19.13 S 198.89 13.62, 200 12.61 S 203.67 10.69, 205 10"
          fill="none"/>
    <circle r="4" cx="5" cy="40" fill="#3023AE"/>
    <circle r="4" cx="205" cy="10" fill="#C86DD7"/>      
</svg>