<svg width="200" height="50" viewBox="0 0 210 50" xmlns="http://www.w3.org/2000/svg">
    <defs>
        <linearGradient x1="0%" y1="0%" x2="100%" y2="0%" id="a">
            <stop stop-color="#3023AE" offset="0%"/>
            <stop stop-color="#C86DD7" offset="100%"/>
        </linearGradient>
    </defs>
    <path stroke="url(#a)"
          stroke-width="3"
          stroke-linejoin="round"
          stroke-linecap="round"
          d="M5 40 C 6.29 39.24, 8.5 37.09, 10 37.06 S 13.55 39.39, 15 39.79 S 18.5 39.79, 20 39.79 S 23.5 39.79, 25 39.79 S 28.5 39.79, 30 39.79 S 33.5 39.79, 35 39.79 S 38.5 39.79, 40 39.79 S 43.5 39.88, 45 39.79 S 48.5 39.22, 50 39.16 S 53.5 39.37, 55 39.37 S 58.5 39.19, 60 39.16 S 63.52 39.38, 65 39.16 S 68.51 37.88, 70 37.69 S 73.5 37.93, 75 37.9 S 78.5 37.39, 80 37.48 S 83.52 38.31, 85 38.53 S 88.51 38.82, 90 38.95 S 93.5 39.28, 95 39.37 S 98.5 39.64, 100 39.58 S 103.5 38.95, 105 38.95 S 108.5 39.55, 110 39.58 S 113.52 39.38, 115 39.16 S 118.5 38.02, 120 38.11 S 123.51 39.66, 125 39.79 S 128.51 39.14, 130 38.95 S 133.5 38.53, 135 38.53 S 138.5 38.92, 140 38.95 S 143.5 38.77, 145 38.74 S 148.5 38.8, 150 38.74 S 153.5 38.29, 155 38.32 S 158.5 38.92, 160 38.95 S 163.5 38.56, 165 38.53 S 168.51 38.61, 170 38.74 S 173.53 39.65, 175 39.37 S 178.51 36.98, 180 36.85 S 183.51 38.37, 185 38.53 S 188.52 38.12, 190 37.9 S 194.49 38.47, 195 37.06 S 198.51 9.87, 200 10 S 204.74 36.42, 205 37.9"
          fill="none"/>
    <circle r="4" cx="5" cy="40" fill="#3023AE"/>
    <circle r="4" cx="205" cy="37.9" fill="#C86DD7"/>      
</svg>