<svg width="200" height="50" viewBox="0 0 210 50" xmlns="http://www.w3.org/2000/svg">
    <defs>
        <linearGradient x1="0%" y1="0%" x2="100%" y2="0%" id="a">
            <stop stop-color="#3023AE" offset="0%"/>
            <stop stop-color="#C86DD7" offset="100%"/>
        </linearGradient>
    </defs>
    <path stroke="url(#a)"
          stroke-width="3"
          stroke-linejoin="round"
          stroke-linecap="round"
          d="M5 40 C 6.5 39.99, 8.5 39.97, 10 39.97 S 13.85 40.93, 15 39.97 S 18.63 32.3, 20 31.68 S 23.58 34.97, 25 35.46 S 28.6 34.62, 30 35.17 S 33.51 39.21, 35 39.4 S 39.04 37.64, 40 36.48 S 43.52 27.05, 45 27.3 S 48.54 38.49, 50 38.15 S 54.38 26.34, 55 24.97 S 59.13 14.83, 60 16.05 S 64.37 37.73, 65 39.09 S 68.5 37.63, 70 37.57 S 73.73 39.51, 75 38.72 S 78.78 32.24, 80 31.37 S 83.51 31.76, 85 31.6 S 88.5 30.36, 90 30.3 S 93.5 31.22, 95 31.23 S 98.55 30.75, 100 30.37 S 103.53 28.9, 105 28.6 S 108.5 28.39, 110 28.34 S 113.83 29.23, 115 28.29 S 118.64 20.96, 120 20.33 S 123.52 23.48, 125 23.7 S 128.5 21.87, 130 21.79 S 133.55 23.55, 135 23.15 S 138.58 19.51, 140 19.03 S 143.51 19.65, 145 19.81 S 148.59 20.61, 150 20.1 S 153.63 16.8, 155 16.18 S 158.51 15.41, 160 15.56 S 163.53 16.93, 165 17.2 S 168.51 17.22, 170 17.41 S 173.66 19.13, 175 18.45 S 178.7 13.06, 180 12.32 S 183.58 12.27, 185 12.74 S 188.53 15.36, 190 15.63 S 193.59 15.09, 195 14.59 S 198.64 12.72, 200 12.09 S 203.62 10.58, 205 10"
          fill="none"/>
    <circle r="4" cx="5" cy="40" fill="#3023AE"/>
    <circle r="4" cx="205" cy="10" fill="#C86DD7"/>      
</svg>