<svg width="200" height="50" viewBox="0 0 210 50" xmlns="http://www.w3.org/2000/svg">
    <defs>
        <linearGradient x1="0%" y1="0%" x2="100%" y2="0%" id="a">
            <stop stop-color="#3023AE" offset="0%"/>
            <stop stop-color="#C86DD7" offset="100%"/>
        </linearGradient>
    </defs>
    <path stroke="url(#a)"
          stroke-width="3"
          stroke-linejoin="round"
          stroke-linecap="round"
          d="M5 40 C 6.5 39.99, 8.5 39.98, 10 39.98 S 13.79 40.86, 15 39.98 S 18.6 33.24, 20 32.7 S 23.57 35.65, 25 36.09 S 28.58 35.28, 30 35.76 S 33.51 39.29, 35 39.47 S 38.97 38.03, 40 36.94 S 43.52 28.69, 45 28.9 S 48.53 38.67, 50 38.37 S 54.33 28.22, 55 26.88 S 59 17.08, 60 18.2 S 64.36 36.66, 65 38.02 S 68.69 40.04, 70 39.31 S 73.77 33.29, 75 32.43 S 78.52 32.58, 80 32.36 S 83.51 31.09, 85 30.95 S 88.5 31.35, 90 31.39 S 93.53 31.57, 95 31.25 S 98.53 29.49, 100 29.22 S 103.5 29.43, 105 29.39 S 108.92 29.97, 110 28.93 S 113.61 20.37, 115 19.81 S 118.57 24.48, 120 24.94 S 123.58 23.51, 125 23.03 S 128.52 21.75, 130 21.53 S 133.5 21.45, 135 21.53 S 138.59 22.59, 140 22.09 S 143.67 18.68, 145 17.99 S 148.51 16.74, 150 16.88 S 153.54 18.57, 155 18.93 S 158.51 19.21, 160 19.37 S 163.67 20.71, 165 20.02 S 168.61 14.75, 170 14.19 S 173.56 15.54, 175 15.96 S 178.5 17.21, 180 17.11 S 183.51 15.48, 185 15.32 S 188.68 16.76, 190 16.06 S 193.71 10.77, 195 10 S 198.56 9.67, 200 10.09 S 203.69 12.18, 205 12.92"
          fill="none"/>
    <circle r="4" cx="5" cy="40" fill="#3023AE"/>
    <circle r="4" cx="205" cy="12.920000000000002" fill="#C86DD7"/>      
</svg>