<svg width="200" height="50" viewBox="0 0 210 50" xmlns="http://www.w3.org/2000/svg">
    <defs>
        <linearGradient x1="0%" y1="0%" x2="100%" y2="0%" id="a">
            <stop stop-color="#3023AE" offset="0%"/>
            <stop stop-color="#C86DD7" offset="100%"/>
        </linearGradient>
    </defs>
    <path stroke="url(#a)"
          stroke-width="3"
          stroke-linejoin="round"
          stroke-linecap="round"
          d="M5 40 C 6.2 39.1, 8.93 37.3, 10 36.25 S 13.53 29.88, 15 30.16 S 18.91 37.09, 20 38.12 S 23.51 39.32, 25 39.53 S 28.5 39.6, 30 39.53 S 33.62 39.64, 35 39.06 S 38.77 36.17, 40 35.31 S 43.51 31.89, 45 32.03 S 48.67 35.56, 50 36.25 S 53.57 36.72, 55 37.19 S 58.51 39.32, 60 39.53 S 63.51 38.73, 65 38.59 S 68.51 38.8, 70 38.59 S 73.51 37.05, 75 37.19 S 78.5 39.46, 80 39.53 S 83.62 38.24, 85 37.66 S 88.5 35.38, 90 35.31 S 93.6 36.66, 95 37.19 S 98.53 38.78, 100 39.06 S 103.5 39.13, 105 39.06 S 108.51 38.73, 110 38.59 S 113.51 38.26, 115 38.12 S 118.51 37.87, 120 37.66 S 123.5 36.79, 125 36.72 S 128.53 37.47, 130 37.19 S 133.5 34.77, 135 34.84 S 138.51 37.52, 140 37.66 S 143.5 35.85, 145 35.78 S 148.56 36.78, 150 37.19 S 153.5 38.59, 155 38.59 S 158.51 37.4, 160 37.19 S 163.5 37.19, 165 37.19 S 168.54 37.53, 170 37.19 S 173.5 34.84, 175 34.84 S 178.54 36.85, 180 37.19 S 183.51 36.98, 185 37.19 S 188.51 38.8, 190 38.59 S 194.5 37.2, 195 35.78 S 198.5 10, 200 10 S 204.71 34.31, 205 35.78"
          fill="none"/>
    <circle r="4" cx="5" cy="40" fill="#3023AE"/>
    <circle r="4" cx="205" cy="35.78" fill="#C86DD7"/>      
</svg>