<svg width="200" height="50" viewBox="0 0 210 50" xmlns="http://www.w3.org/2000/svg">
    <defs>
        <linearGradient x1="0%" y1="0%" x2="100%" y2="0%" id="a">
            <stop stop-color="#3023AE" offset="0%"/>
            <stop stop-color="#C86DD7" offset="100%"/>
        </linearGradient>
    </defs>
    <path stroke="url(#a)"
          stroke-width="3"
          stroke-linejoin="round"
          stroke-linecap="round"
          d="M5 40 C 5.99 38.87, 8.5 34.44, 10 34.32 S 14.43 40.58, 15 39.19 S 18.57 10.46, 20 10 S 24.5 34.54, 25 35.95 S 28.5 38.26, 30 38.38 S 33.52 37, 35 36.76 S 38.5 36.64, 40 36.76 S 43.5 37.45, 45 37.57 S 48.5 37.57, 50 37.57 S 53.52 37.33, 55 37.57 S 58.57 39.65, 60 39.19 S 63.57 34.78, 65 34.32 S 68.61 35.39, 70 35.95 S 73.54 38.74, 75 38.38 S 78.5 33.63, 80 33.51 S 83.7 36.83, 85 37.57 S 88.5 39.31, 90 39.19 S 93.52 37, 95 36.76 S 98.54 37.22, 100 37.57 S 103.52 38.95, 105 39.19 S 108.5 39.19, 110 39.19 S 113.54 39.54, 115 39.19 S 118.74 37.58, 120 36.76 S 123.54 32.35, 125 32.7 S 128.74 38.37, 130 39.19 S 133.5 39.19, 135 39.19 S 138.52 39.43, 140 39.19 S 143.5 37.57, 145 37.57 S 148.5 39.31, 150 39.19 S 153.5 36.88, 155 36.76 S 158.52 38.14, 160 38.38 S 163.5 38.26, 165 38.38 S 168.5 39.19, 170 39.19 S 173.52 38.62, 175 38.38 S 178.5 37.45, 180 37.57 S 183.5 39.31, 185 39.19 S 188.52 37, 190 36.76 S 193.52 37.33, 195 37.57 S 198.52 38.14, 200 38.38 S 203.52 38.95, 205 39.19"
          fill="none"/>
    <circle r="4" cx="5" cy="40" fill="#3023AE"/>
    <circle r="4" cx="205" cy="39.19" fill="#C86DD7"/>      
</svg>