<svg width="200" height="50" viewBox="0 0 210 50" xmlns="http://www.w3.org/2000/svg">
    <defs>
        <linearGradient x1="0%" y1="0%" x2="100%" y2="0%" id="a">
            <stop stop-color="#3023AE" offset="0%"/>
            <stop stop-color="#C86DD7" offset="100%"/>
        </linearGradient>
    </defs>
    <path stroke="url(#a)"
          stroke-width="3"
          stroke-linejoin="round"
          stroke-linecap="round"
          d="M5 40 C 6.34 39.32, 8.5 37.5, 10 37.46 S 13.5 39.67, 15 39.75 S 18.5 37.97, 20 37.97 S 23.52 39.52, 25 39.75 S 28.5 39.61, 30 39.49 S 33.5 38.94, 35 38.98 S 38.5 39.63, 40 39.75 S 43.5 39.75, 45 39.75 S 48.5 39.87, 50 39.75 S 53.5 38.98, 55 38.98 S 58.5 39.63, 60 39.75 S 63.5 39.75, 65 39.75 S 68.5 39.75, 70 39.75 S 73.5 39.75, 75 39.75 S 78.5 39.75, 80 39.75 S 83.5 39.75, 85 39.75 S 88.51 39.9, 90 39.75 S 93.51 38.92, 95 38.73 S 98.51 38.62, 100 38.47 S 103.51 37.86, 105 37.71 S 108.52 37.2, 110 37.46 S 113.51 39.34, 115 39.49 S 118.5 38.51, 120 38.47 S 123.51 39.05, 125 39.24 S 128.5 39.79, 130 39.75 S 133.5 39.02, 135 38.98 S 138.5 39.37, 140 39.49 S 143.5 39.71, 145 39.75 S 148.5 39.75, 150 39.75 S 153.5 39.83, 155 39.75 S 158.5 39.32, 160 39.24 S 163.5 39.24, 165 39.24 S 168.5 39.16, 170 39.24 S 173.54 40.08, 175 39.75 S 178.51 37.1, 180 36.95 S 184.48 40.14, 185 38.73 S 188.96 11.08, 190 10 S 194.33 26.97, 195 28.31 S 198.58 29.61, 200 30.08 S 203.57 31.17, 205 31.61"
          fill="none"/>
    <circle r="4" cx="5" cy="40" fill="#3023AE"/>
    <circle r="4" cx="205" cy="31.61" fill="#C86DD7"/>      
</svg>