<svg width="200" height="50" viewBox="0 0 210 50" xmlns="http://www.w3.org/2000/svg">
    <defs>
        <linearGradient x1="0%" y1="0%" x2="100%" y2="0%" id="a">
            <stop stop-color="#3023AE" offset="0%"/>
            <stop stop-color="#C86DD7" offset="100%"/>
        </linearGradient>
    </defs>
    <path stroke="url(#a)"
          stroke-width="3"
          stroke-linejoin="round"
          stroke-linecap="round"
          d="M5 40 C 6.22 39.13, 9.53 37.88, 10 36.46 S 13.59 10.51, 15 10 S 19.52 31.41, 20 32.83 S 23.53 39.96, 25 39.65 S 28.61 31.28, 30 30.71 S 33.6 35.04, 35 35.58 S 38.51 34.43, 40 34.6 S 43.51 36.53, 45 36.73 S 48.5 35.83, 50 35.93 S 53.61 36.88, 55 37.43 S 58.52 40.13, 60 39.91 S 63.5 36, 65 35.93 S 68.61 40.04, 70 39.47 S 73.94 32.93, 75 31.86 S 78.53 29.67, 80 29.38 S 83.51 30.12, 85 29.91 S 88.53 27.67, 90 27.96 S 93.61 31.29, 95 31.86 S 98.5 32.16, 100 32.04 S 103.5 31.11, 105 31.06 S 108.5 31.59, 110 31.68 S 113.5 31.79, 115 31.68 S 118.5 30.93, 120 30.97 S 123.5 31.88, 125 31.95 S 128.51 31.24, 130 31.42 S 133.54 32.85, 135 33.19 S 138.53 34.03, 140 33.72 S 143.5 31.09, 145 31.06 S 148.51 33.34, 150 33.54 S 153.51 32.18, 155 32.39 S 158.5 34.93, 160 34.96 S 163.52 32.81, 165 32.57 S 168.54 33.02, 170 33.36 S 173.5 34.95, 175 34.87 S 178.5 32.79, 180 32.83 S 183.51 34.93, 185 35.13 S 188.5 34.17, 190 34.16 S 193.52 34.78, 195 35.04 S 198.5 36.02, 200 35.93 S 203.56 34.85, 205 34.42"
          fill="none"/>
    <circle r="4" cx="5" cy="40" fill="#3023AE"/>
    <circle r="4" cx="205" cy="34.42" fill="#C86DD7"/>      
</svg>