<svg width="200" height="50" viewBox="0 0 210 50" xmlns="http://www.w3.org/2000/svg">
    <defs>
        <linearGradient x1="0%" y1="0%" x2="100%" y2="0%" id="a">
            <stop stop-color="#3023AE" offset="0%"/>
            <stop stop-color="#C86DD7" offset="100%"/>
        </linearGradient>
    </defs>
    <path stroke="url(#a)"
          stroke-width="3"
          stroke-linejoin="round"
          stroke-linecap="round"
          d="M5 40 C 6.5 39.93, 8.5 39.78, 10 39.76 S 13.5 39.86, 15 39.88 S 18.5 39.88, 20 39.88 S 23.5 39.92, 25 39.88 S 28.5 39.66, 30 39.64 S 33.5 39.8, 35 39.76 S 38.5 39.42, 40 39.4 S 43.5 39.6, 45 39.64 S 49.5 41.05, 50 39.64 S 54.52 12.99, 55 11.57 S 59.48 8.59, 60 10 S 64.5 37.14, 65 38.55 S 68.5 38.12, 70 38.19 S 73.5 39.07, 75 39.03 S 78.5 37.92, 80 37.94 S 83.5 39.08, 85 39.15 S 88.51 38.57, 90 38.43 S 93.51 38.03, 95 38.19 S 98.51 39.36, 100 39.52 S 103.51 39.45, 105 39.27 S 108.5 38.38, 110 38.31 S 113.51 38.63, 115 38.79 S 118.5 39.35, 120 39.4 S 123.51 39.33, 125 39.15 S 128.5 38.15, 130 38.19 S 133.51 39.24, 135 39.4 S 138.51 39.4, 140 39.27 S 143.51 38.71, 145 38.55 S 148.5 38.15, 150 38.19 S 153.51 38.92, 155 38.79 S 158.5 37.43, 160 37.34 S 163.5 38.1, 165 38.19 S 168.5 37.9, 170 37.94 S 173.5 38.37, 175 38.43 S 178.5 38.4, 180 38.31 S 183.5 37.88, 185 37.82 S 188.51 38.14, 190 37.94 S 193.5 36.43, 195 36.49 S 198.52 38.06, 200 38.31 S 203.5 38.23, 205 38.19"
          fill="none"/>
    <circle r="4" cx="5" cy="40" fill="#3023AE"/>
    <circle r="4" cx="205" cy="38.19" fill="#C86DD7"/>      
</svg>