<svg width="200" height="50" viewBox="0 0 210 50" xmlns="http://www.w3.org/2000/svg">
    <defs>
        <linearGradient x1="0%" y1="0%" x2="100%" y2="0%" id="a">
            <stop stop-color="#3023AE" offset="0%"/>
            <stop stop-color="#C86DD7" offset="100%"/>
        </linearGradient>
    </defs>
    <path stroke="url(#a)"
          stroke-width="3"
          stroke-linejoin="round"
          stroke-linecap="round"
          d="M5 40 C 5.25 38.52, 8.84 10.95, 10 10 S 14.39 30.39, 15 31.76 S 18.54 32.01, 20 32.35 S 23.54 33.78, 25 34.12 S 28.59 35.21, 30 34.71 S 33.5 30.5, 35 30.59 S 38.54 34.95, 40 35.29 S 43.5 32.85, 45 32.94 S 48.51 35.7, 50 35.88 S 53.71 34.88, 55 34.12 S 58.5 30.09, 60 30 S 63.54 33.19, 65 33.53 S 68.52 32.61, 70 32.35 S 73.5 31.76, 75 31.76 S 78.51 32.52, 80 32.35 S 83.54 30.25, 85 30.59 S 88.54 34.37, 90 34.71 S 93.51 32.77, 95 32.94 S 98.52 35.62, 100 35.88 S 103.51 34.88, 105 34.71 S 108.52 34.45, 110 34.71 S 113.51 36.3, 115 36.47 S 118.51 35.7, 120 35.88 S 123.51 37.47, 125 37.65 S 128.51 36.89, 130 37.06 S 133.5 38.82, 135 38.82 S 138.56 37.48, 140 37.06 S 143.51 35.7, 145 35.88 S 148.59 37.74, 150 38.24 S 153.51 39.24, 155 39.41 S 158.51 39.58, 160 39.41 S 163.5 38.33, 165 38.24 S 168.5 38.73, 170 38.82 S 173.5 38.82, 175 38.82 S 178.5 38.82, 180 38.82 S 183.5 38.82, 185 38.82 S 188.51 38.99, 190 38.82 S 193.5 37.74, 195 37.65 S 198.51 38.06, 200 38.24"
          fill="none"/>
    <circle r="4" cx="5" cy="40" fill="#3023AE"/>
    <circle r="4" cx="200" cy="38.24" fill="#C86DD7"/>      
</svg>