<svg width="200" height="50" viewBox="0 0 210 50" xmlns="http://www.w3.org/2000/svg">
    <defs>
        <linearGradient x1="0%" y1="0%" x2="100%" y2="0%" id="a">
            <stop stop-color="#3023AE" offset="0%"/>
            <stop stop-color="#C86DD7" offset="100%"/>
        </linearGradient>
    </defs>
    <path stroke="url(#a)"
          stroke-width="3"
          stroke-linejoin="round"
          stroke-linecap="round"
          d="M5 40 C 5.25 38.52, 8.62 10.58, 10 10 S 14.51 34.38, 15 35.8 S 18.6 38.55, 20 39.1 S 23.5 39.66, 25 39.7 S 28.5 39.4, 30 39.4 S 33.5 39.7, 35 39.7 S 38.5 39.49, 40 39.4 S 43.5 39.06, 45 39.1 S 48.5 39.61, 50 39.7 S 53.5 39.7, 55 39.7 S 58.5 39.7, 60 39.7 S 63.5 39.7, 65 39.7 S 68.5 39.7, 70 39.7 S 73.5 39.7, 75 39.7 S 78.5 39.79, 80 39.7 S 83.5 39.1, 85 39.1 S 88.5 39.61, 90 39.7 S 93.5 39.7, 95 39.7 S 98.5 39.7, 100 39.7 S 103.5 39.7, 105 39.7 S 108.5 39.7, 110 39.7 S 113.5 39.7, 115 39.7 S 118.51 39.88, 120 39.7 S 123.5 38.5, 125 38.5 S 128.51 39.52, 130 39.7 S 133.51 39.83, 135 39.7 S 138.5 38.89, 140 38.8 S 143.54 39.45, 145 39.1 S 148.5 36.4, 150 36.4 S 153.58 38.63, 155 39.1 S 158.5 39.61, 160 39.7 S 163.5 39.7, 165 39.7 S 168.5 39.7, 170 39.7 S 173.5 39.7, 175 39.7 S 178.5 39.7, 180 39.7 S 183.5 39.7, 185 39.7 S 188.5 39.7, 190 39.7 S 193.5 39.74, 195 39.7 S 198.52 39.62, 200 39.4 S 203.54 38.55, 205 38.2"
          fill="none"/>
    <circle r="4" cx="5" cy="40" fill="#3023AE"/>
    <circle r="4" cx="205" cy="38.2" fill="#C86DD7"/>      
</svg>