<svg width="200" height="50" viewBox="0 0 210 50" xmlns="http://www.w3.org/2000/svg">
    <defs>
        <linearGradient x1="0%" y1="0%" x2="100%" y2="0%" id="a">
            <stop stop-color="#3023AE" offset="0%"/>
            <stop stop-color="#C86DD7" offset="100%"/>
        </linearGradient>
    </defs>
    <path stroke="url(#a)"
          stroke-width="3"
          stroke-linejoin="round"
          stroke-linecap="round"
          d="M5 40 C 5.25 38.52, 8.69 10.74, 10 10 S 14.49 32.94, 15 34.35 S 18.62 37.26, 20 37.85 S 23.51 38.51, 25 38.67 S 28.5 38.85, 30 38.91 S 33.5 39.1, 35 39.05 S 38.5 38.54, 40 38.58 S 43.5 39.19, 45 39.29 S 48.5 39.27, 50 39.26 S 53.5 39.22, 55 39.22 S 58.5 39.26, 60 39.29 S 63.5 39.44, 65 39.43 S 68.5 39.22, 70 39.21 S 73.5 39.38, 75 39.35 S 78.5 39.02, 80 38.98 S 83.51 39.25, 85 39.11 S 88.5 38.06, 90 38.02 S 93.51 38.69, 95 38.84 S 98.5 38.96, 100 39.02 S 103.5 39.21, 105 39.24 S 108.5 39.24, 110 39.22 S 113.5 39.17, 115 39.1 S 118.5 38.83, 120 38.78 S 123.5 38.79, 125 38.79 S 128.5 38.71, 130 38.78 S 133.5 39.18, 135 39.25 S 138.5 39.26, 140 39.27 S 143.5 39.4, 145 39.29 S 148.5 38.61, 150 38.55 S 153.51 38.77, 155 38.91 S 158.5 39.36, 160 39.46 S 163.5 39.54, 165 39.55 S 168.5 39.57, 170 39.5 S 173.5 39.08, 175 39.09 S 178.5 39.49, 180 39.54 S 183.5 39.45, 185 39.44 S 188.5 39.49, 190 39.5 S 193.5 39.5, 195 39.49 S 198.5 39.5, 200 39.46 S 203.5 39.28, 205 39.2"
          fill="none"/>
    <circle r="4" cx="5" cy="40" fill="#3023AE"/>
    <circle r="4" cx="205" cy="39.2" fill="#C86DD7"/>      
</svg>