<svg width="200" height="50" viewBox="0 0 210 50" xmlns="http://www.w3.org/2000/svg">
    <defs>
        <linearGradient x1="0%" y1="0%" x2="100%" y2="0%" id="a">
            <stop stop-color="#3023AE" offset="0%"/>
            <stop stop-color="#C86DD7" offset="100%"/>
        </linearGradient>
    </defs>
    <path stroke="url(#a)"
          stroke-width="3"
          stroke-linejoin="round"
          stroke-linecap="round"
          d="M5 40 C 6.5 39.97, 8.5 39.93, 10 39.91 S 13.5 39.88, 15 39.84 S 18.51 39.77, 20 39.64 S 23.5 38.94, 25 38.98 S 28.57 40.39, 30 39.93 S 33.79 36.66, 35 35.77 S 38.59 32.08, 40 32.59 S 43.78 38.52, 45 39.39 S 48.5 39.63, 50 39.66 S 53.5 39.68, 55 39.57 S 58.71 39.7, 60 38.93 S 63.52 33.88, 65 33.64 S 68.63 36.73, 70 37.34 S 73.5 37.96, 75 38.05 S 78.5 37.89, 80 37.95 S 83.5 38.54, 85 38.45 S 88.5 37.48, 90 37.36 S 93.5 37.57, 95 37.66 S 98.5 37.89, 100 37.93 S 103.5 37.91, 105 37.91 S 108.51 37.8, 110 37.93 S 113.5 38.76, 115 38.75 S 119.13 39.06, 120 37.84 S 123.59 25.27, 125 24.77 S 128.54 34.63, 130 34.3 S 133.5 22.43, 135 22.52 S 139.02 33.78, 140 34.91 S 143.52 33.79, 145 34.05 S 148.54 36.31, 150 36.64 S 154.47 37.72, 155 36.32 S 158.57 10.45, 160 10 S 164.46 31.76, 165 33.16 S 168.61 35.54, 170 36.11 S 173.5 37.18, 175 37.25 S 178.55 36.92, 180 36.55 S 183.52 34.98, 185 34.73 S 188.51 35.07, 190 34.89 S 193.63 34.17, 195 33.55 S 198.53 30.08, 200 30.36 S 203.95 34.41, 205 35.48"
          fill="none"/>
    <circle r="4" cx="5" cy="40" fill="#3023AE"/>
    <circle r="4" cx="205" cy="35.480000000000004" fill="#C86DD7"/>      
</svg>