<svg width="200" height="50" viewBox="0 0 210 50" xmlns="http://www.w3.org/2000/svg">
    <defs>
        <linearGradient x1="0%" y1="0%" x2="100%" y2="0%" id="a">
            <stop stop-color="#3023AE" offset="0%"/>
            <stop stop-color="#C86DD7" offset="100%"/>
        </linearGradient>
    </defs>
    <path stroke="url(#a)"
          stroke-width="3"
          stroke-linejoin="round"
          stroke-linecap="round"
          d="M5 40 C 5.25 38.52, 8.5 10.11, 10 10.06 S 14.52 38.24, 15 39.66 S 18.5 39.87, 20 39.89 S 23.81 40.68, 25 39.77 S 28.95 33.32, 30 32.25 S 33.52 29.89, 35 29.64 S 38.52 30.3, 40 30.55 S 43.53 31.63, 45 31.34 S 48.52 28.81, 50 28.57 S 53.54 30.04, 55 29.7 S 58.57 26.71, 60 26.25 S 64.21 27.75, 65 26.47 S 68.75 10.83, 70 10 S 74.12 18.64, 75 19.85 S 78.73 24.55, 80 23.75 S 83.62 14.17, 85 13.57 S 88.86 18.43, 90 19.4 S 93.52 21.86, 95 22.11 S 98.7 21.83, 100 21.09 S 103.68 17.1, 105 16.4 S 108.64 15.15, 110 15.77 S 113.92 19.94, 115 20.98 S 118.55 24.97, 120 25.34 S 123.6 24.06, 125 23.53 S 128.54 21.28, 130 21.6 S 133.61 25.17, 135 25.74 S 138.5 25.69, 140 25.74 S 143.54 26.42, 145 26.08 S 148.52 23.66, 150 23.42 S 153.51 24.31, 155 24.49 S 158.53 24.95, 160 24.66 S 163.5 22.51, 165 22.51 S 168.61 24.1, 170 24.66 S 173.52 26.29, 175 26.53 S 178.5 26.14, 180 26.25 S 183.52 27.04, 185 27.26 S 188.57 28.16, 190 27.72 S 193.53 24.5, 195 24.21 S 198.55 25.34, 200 25.74 S 203.54 26.62, 205 26.98"
          fill="none"/>
    <circle r="4" cx="5" cy="40" fill="#3023AE"/>
    <circle r="4" cx="205" cy="26.98" fill="#C86DD7"/>      
</svg>