<svg width="200" height="50" viewBox="0 0 210 50" xmlns="http://www.w3.org/2000/svg">
    <defs>
        <linearGradient x1="0%" y1="0%" x2="100%" y2="0%" id="a">
            <stop stop-color="#3023AE" offset="0%"/>
            <stop stop-color="#C86DD7" offset="100%"/>
        </linearGradient>
    </defs>
    <path stroke="url(#a)"
          stroke-width="3"
          stroke-linejoin="round"
          stroke-linecap="round"
          d="M5 40 C 5.25 38.52, 8.62 10.59, 10 10 S 14.49 34.3, 15 35.71 S 18.74 38.67, 20 37.86 S 23.62 29.88, 25 29.29 S 28.86 32.59, 30 33.57 S 33.53 37.55, 35 37.86 S 38.53 36.03, 40 35.71 S 43.53 35.39, 45 35.71 S 48.53 37.54, 50 37.86 S 53.5 37.86, 55 37.86 S 58.5 37.86, 60 37.86 S 63.5 37.86, 65 37.86 S 68.53 38.18, 70 37.86 S 73.5 35.71, 75 35.71 S 78.5 37.86, 80 37.86 S 83.5 35.71, 85 35.71 S 88.53 37.54, 90 37.86 S 93.5 37.86, 95 37.86 S 98.5 37.86, 100 37.86 S 103.5 37.86, 105 37.86 S 108.5 37.86, 110 37.86 S 113.5 37.86, 115 37.86 S 118.5 37.86, 120 37.86 S 123.5 37.86, 125 37.86 S 128.5 37.86, 130 37.86 S 133.5 37.86, 135 37.86 S 138.5 37.86, 140 37.86 S 143.5 37.86, 145 37.86 S 148.5 37.86, 150 37.86 S 153.5 37.86, 155 37.86 S 158.5 37.86, 160 37.86 S 163.5 37.86, 165 37.86 S 168.5 37.86, 170 37.86 S 173.5 37.86, 175 37.86 S 178.5 37.86, 180 37.86 S 183.5 37.86, 185 37.86 S 188.5 37.86, 190 37.86 S 193.5 37.86, 195 37.86 S 198.5 37.86, 200 37.86 S 203.5 37.86, 205 37.86"
          fill="none"/>
    <circle r="4" cx="5" cy="40" fill="#3023AE"/>
    <circle r="4" cx="205" cy="37.86" fill="#C86DD7"/>      
</svg>