<svg width="200" height="50" viewBox="0 0 210 50" xmlns="http://www.w3.org/2000/svg">
    <defs>
        <linearGradient x1="0%" y1="0%" x2="100%" y2="0%" id="a">
            <stop stop-color="#3023AE" offset="0%"/>
            <stop stop-color="#C86DD7" offset="100%"/>
        </linearGradient>
    </defs>
    <path stroke="url(#a)"
          stroke-width="3"
          stroke-linejoin="round"
          stroke-linecap="round"
          d="M5 40 C 5.36 38.54, 8.5 19.78, 10 19.66 S 14.32 37.87, 15 39.21 S 18.5 39.19, 20 39.21 S 23.5 39.29, 25 39.35 S 28.5 39.59, 30 39.64 S 33.5 39.69, 35 39.71 S 38.52 40.03, 40 39.78 S 43.74 38.86, 45 38.05 S 48.6 33.91, 50 33.37 S 53.54 33.87, 55 34.23 S 58.87 36.8, 60 35.82 S 63.57 26.02, 65 25.58 S 68.72 31.94, 70 32.72 S 73.5 31.69, 75 31.71 S 78.52 32.61, 80 32.86 S 83.5 33.41, 85 33.37 S 88.66 33.25, 90 32.57 S 93.55 28.69, 95 28.32 S 98.5 29.93, 100 30.05 S 103.54 29.45, 105 29.11 S 108.5 27.8, 110 27.74 S 113.51 28.85, 115 28.68 S 118.56 27, 120 26.59 S 123.53 26.15, 125 25.87 S 128.57 25.16, 130 24.71 S 133.5 22.8, 135 22.76 S 138.51 24.26, 140 24.42 S 143.53 24.15, 145 23.85 S 148.5 22.47, 150 22.4 S 153.59 23.91, 155 23.41 S 158.57 19.32, 160 18.87 S 163.52 20.51, 165 20.24 S 168.5 17.16, 170 17.07 S 173.55 19.26, 175 19.66 S 178.57 20.26, 180 19.81 S 183.67 17.19, 185 16.49 S 188.5 14.57, 190 14.54 S 193.51 16.43, 195 16.27 S 198.73 14.26, 200 13.46 S 203.77 10.85, 205 10"
          fill="none"/>
    <circle r="4" cx="5" cy="40" fill="#3023AE"/>
    <circle r="4" cx="205" cy="10" fill="#C86DD7"/>      
</svg>