<svg width="200" height="50" viewBox="0 0 210 50" xmlns="http://www.w3.org/2000/svg">
    <defs>
        <linearGradient x1="0%" y1="0%" x2="100%" y2="0%" id="a">
            <stop stop-color="#3023AE" offset="0%"/>
            <stop stop-color="#C86DD7" offset="100%"/>
        </linearGradient>
    </defs>
    <path stroke="url(#a)"
          stroke-width="3"
          stroke-linejoin="round"
          stroke-linecap="round"
          d="M5 40 C 6.5 39.9, 8.51 39.83, 10 39.66 S 13.5 38.84, 15 38.89 S 18.51 39.82, 20 39.99 S 23.5 40, 25 40 S 28.5 40, 30 40 S 33.5 39.99, 35 39.97 S 38.5 39.89, 40 39.88 S 43.5 39.88, 45 39.88 S 48.5 39.9, 50 39.9 S 53.5 39.88, 55 39.87 S 58.5 39.81, 60 39.81 S 63.5 39.89, 65 39.89 S 68.5 39.85, 70 39.84 S 73.5 39.85, 75 39.81 S 78.5 39.59, 80 39.54 S 83.5 39.47, 85 39.47 S 88.5 39.6, 90 39.53 S 93.5 39.1, 95 39.03 S 98.5 39.06, 100 39.03 S 103.5 38.86, 105 38.86 S 108.51 39.19, 110 39.02 S 113.51 37.89, 115 37.72 S 118.66 38.53, 120 37.86 S 123.5 32.77, 125 32.75 S 128.67 37.03, 130 37.73 S 133.5 37.92, 135 38 S 138.5 38.26, 140 38.24 S 143.5 37.9, 145 37.85 S 148.5 37.98, 150 37.89 S 154.49 38.63, 155 37.22 S 158.75 10.82, 160 10 S 164.42 29.29, 165 30.67 S 168.53 33.56, 170 33.83 S 173.5 32.54, 175 32.53 S 178.53 33.45, 180 33.75 S 183.51 34.37, 185 34.58 S 188.51 34.99, 190 35.13 S 193.5 35.5, 195 35.49 S 198.5 35.2, 200 35.09 S 203.5 34.84, 205 34.74"
          fill="none"/>
    <circle r="4" cx="5" cy="40" fill="#3023AE"/>
    <circle r="4" cx="205" cy="34.74" fill="#C86DD7"/>      
</svg>