<svg width="200" height="50" viewBox="0 0 210 50" xmlns="http://www.w3.org/2000/svg">
    <defs>
        <linearGradient x1="0%" y1="0%" x2="100%" y2="0%" id="a">
            <stop stop-color="#3023AE" offset="0%"/>
            <stop stop-color="#C86DD7" offset="100%"/>
        </linearGradient>
    </defs>
    <path stroke="url(#a)"
          stroke-width="3"
          stroke-linejoin="round"
          stroke-linecap="round"
          d="M5 40 C 6.5 39.91, 8.51 39.85, 10 39.71 S 13.5 39.01, 15 39.05 S 18.51 39.85, 20 39.99 S 23.5 40, 25 40 S 28.5 39.99, 30 39.99 S 33.5 40, 35 39.99 S 38.5 39.96, 40 39.95 S 43.5 39.91, 45 39.9 S 48.5 39.9, 50 39.9 S 53.5 39.93, 55 39.93 S 58.5 39.91, 60 39.9 S 63.5 39.84, 65 39.84 S 68.5 39.9, 70 39.91 S 73.5 39.88, 75 39.88 S 78.5 39.92, 80 39.89 S 83.5 39.74, 85 39.71 S 88.5 39.71, 90 39.69 S 93.5 39.57, 95 39.56 S 98.5 39.7, 100 39.64 S 103.5 39.25, 105 39.19 S 108.5 39.24, 110 39.24 S 113.5 39.21, 115 39.19 S 118.5 39.15, 120 39.1 S 123.51 38.99, 125 38.84 S 128.55 38.46, 130 38.07 S 133.53 36.45, 135 36.14 S 138.54 35.66, 140 35.98 S 143.55 37.97, 145 38.34 S 148.5 38.47, 150 38.51 S 153.5 38.66, 155 38.64 S 158.5 38.45, 160 38.39 S 163.5 38.32, 165 38.25 S 168.5 38.03, 170 37.94 S 174.49 39.09, 175 37.68 S 178.55 10.39, 180 10 S 184.44 33.62, 185 35.01 S 188.5 35.18, 190 35.07 S 193.5 34.24, 195 34.27 S 198.51 35.07, 200 35.28 S 203.5 35.55, 205 35.66"
          fill="none"/>
    <circle r="4" cx="5" cy="40" fill="#3023AE"/>
    <circle r="4" cx="205" cy="35.66" fill="#C86DD7"/>      
</svg>