<svg width="200" height="50" viewBox="0 0 210 50" xmlns="http://www.w3.org/2000/svg">
    <defs>
        <linearGradient x1="0%" y1="0%" x2="100%" y2="0%" id="a">
            <stop stop-color="#3023AE" offset="0%"/>
            <stop stop-color="#C86DD7" offset="100%"/>
        </linearGradient>
    </defs>
    <path stroke="url(#a)"
          stroke-width="3"
          stroke-linejoin="round"
          stroke-linecap="round"
          d="M5 40 C 6.5 39.91, 8.51 39.85, 10 39.71 S 13.5 39.01, 15 39.05 S 18.51 39.85, 20 39.99 S 23.5 40, 25 40 S 28.5 39.99, 30 39.99 S 33.5 40, 35 39.99 S 38.5 39.96, 40 39.95 S 43.5 39.91, 45 39.9 S 48.5 39.9, 50 39.9 S 53.5 39.93, 55 39.93 S 58.5 39.91, 60 39.9 S 63.5 39.84, 65 39.84 S 68.5 39.91, 70 39.91 S 73.5 39.87, 75 39.87 S 78.5 39.91, 80 39.89 S 83.5 39.74, 85 39.71 S 88.5 39.71, 90 39.69 S 93.5 39.57, 95 39.56 S 98.5 39.7, 100 39.64 S 103.5 39.25, 105 39.19 S 108.5 39.24, 110 39.24 S 113.5 39.19, 115 39.17 S 118.5 39.16, 120 39.11 S 123.51 39, 125 38.84 S 128.56 38.47, 130 38.05 S 133.53 36.17, 135 35.9 S 138.54 35.83, 140 36.19 S 143.54 38.04, 145 38.38 S 148.5 38.47, 150 38.51 S 153.5 38.65, 155 38.63 S 158.5 38.45, 160 38.39 S 163.5 38.31, 165 38.25 S 168.5 38.06, 170 37.97 S 174.5 39.07, 175 37.66 S 178.55 10.39, 180 10 S 184.44 33.6, 185 34.99 S 188.5 35.19, 190 35.08 S 193.5 34.23, 195 34.26 S 198.51 35.05, 200 35.26 S 203.5 35.53, 205 35.64"
          fill="none"/>
    <circle r="4" cx="5" cy="40" fill="#3023AE"/>
    <circle r="4" cx="205" cy="35.64" fill="#C86DD7"/>      
</svg>