<svg width="200" height="50" viewBox="0 0 210 50" xmlns="http://www.w3.org/2000/svg">
    <defs>
        <linearGradient x1="0%" y1="0%" x2="100%" y2="0%" id="a">
            <stop stop-color="#3023AE" offset="0%"/>
            <stop stop-color="#C86DD7" offset="100%"/>
        </linearGradient>
    </defs>
    <path stroke="url(#a)"
          stroke-width="3"
          stroke-linejoin="round"
          stroke-linecap="round"
          d="M5 40 C 5.39 38.55, 8.6 21.78, 10 21.25 S 14.17 35, 15 36.25 S 18.5 36.25, 20 36.25 S 23.5 36.25, 25 36.25 S 28.5 36.25, 30 36.25 S 33.5 36.25, 35 36.25 S 39.39 37.62, 40 36.25 S 43.5 13.75, 45 13.75 S 49.39 34.88, 50 36.25 S 53.5 36.25, 55 36.25 S 58.5 36.25, 60 36.25 S 63.5 36.25, 65 36.25 S 68.8 37.15, 70 36.25 S 73.8 29.65, 75 28.75 S 79.17 30, 80 28.75 S 83.8 12.85, 85 13.75 S 89.39 34.88, 90 36.25 S 93.5 36.25, 95 36.25 S 98.5 36.25, 100 36.25 S 103.5 36.25, 105 36.25 S 108.5 36.25, 110 36.25 S 113.5 36.25, 115 36.25 S 118.5 36.25, 120 36.25 S 123.5 36.25, 125 36.25 S 128.5 36.25, 130 36.25 S 133.5 36.25, 135 36.25 S 138.5 36.25, 140 36.25 S 143.5 36.25, 145 36.25 S 149.47 37.65, 150 36.25 S 154.29 11.32, 155 10 S 159.39 16.13, 160 17.5 S 164 31.38, 165 32.5 S 168.8 29.65, 170 28.75 S 173.8 24.1, 175 25 S 179 35.13, 180 36.25 S 183.5 36.25, 185 36.25 S 188.5 36.25, 190 36.25 S 193.5 36.25, 195 36.25"
          fill="none"/>
    <circle r="4" cx="5" cy="40" fill="#3023AE"/>
    <circle r="4" cx="195" cy="36.25" fill="#C86DD7"/>      
</svg>