<svg width="200" height="50" viewBox="0 0 210 50" xmlns="http://www.w3.org/2000/svg">
    <defs>
        <linearGradient x1="0%" y1="0%" x2="100%" y2="0%" id="a">
            <stop stop-color="#3023AE" offset="0%"/>
            <stop stop-color="#C86DD7" offset="100%"/>
        </linearGradient>
    </defs>
    <path stroke="url(#a)"
          stroke-width="3"
          stroke-linejoin="round"
          stroke-linecap="round"
          d="M5 40 C 6.5 40, 8.5 40, 10 40 S 13.5 40, 15 40 S 18.5 40, 20 40 S 23.5 40, 25 40 S 28.5 40.03, 30 40 S 33.52 40.02, 35 39.8 S 38.5 38.54, 40 38.5 S 43.51 39.74, 45 39.53 S 48.52 37.35, 50 37.08 S 53.56 37.32, 55 37.73 S 58.51 39.8, 60 39.95 S 63.51 38.9, 65 38.73 S 68.51 38.66, 70 38.84 S 73.5 40.06, 75 39.95 S 79.29 39.45, 80 38.13 S 84.5 22.66, 85 21.25 S 89.11 8.8, 90 10 S 94.44 33.32, 95 34.71 S 98.7 35.5, 100 34.76 S 103.59 29.56, 105 29.04 S 108.62 30.47, 110 31.06 S 113.71 32.54, 115 33.3 S 118.57 36.52, 120 36.98 S 123.51 36.7, 125 36.56 S 128.5 36.01, 130 36.02 S 133.5 36.64, 135 36.61 S 138.5 35.95, 140 35.84 S 143.5 35.88, 145 35.88 S 148.5 35.88, 150 35.81 S 153.51 35.53, 155 35.39 S 158.5 35, 160 34.9 S 163.5 34.71, 165 34.71 S 168.5 34.84, 170 34.88 S 173.5 34.93, 175 34.97 S 178.5 35.23, 180 35.16 S 183.5 34.48, 185 34.49 S 188.51 35.07, 190 35.21 S 193.5 35.35, 195 35.42 S 198.5 35.64, 200 35.68 S 203.5 35.68, 205 35.68"
          fill="none"/>
    <circle r="4" cx="5" cy="40" fill="#3023AE"/>
    <circle r="4" cx="205" cy="35.68" fill="#C86DD7"/>      
</svg>