<svg width="200" height="50" viewBox="0 0 210 50" xmlns="http://www.w3.org/2000/svg">
    <defs>
        <linearGradient x1="0%" y1="0%" x2="100%" y2="0%" id="a">
            <stop stop-color="#3023AE" offset="0%"/>
            <stop stop-color="#C86DD7" offset="100%"/>
        </linearGradient>
    </defs>
    <path stroke="url(#a)"
          stroke-width="3"
          stroke-linejoin="round"
          stroke-linecap="round"
          d="M5 40 C 6.5 40, 8.5 40, 10 40 S 13.5 40, 15 40 S 18.5 40, 20 40 S 23.5 40, 25 40 S 28.5 40.03, 30 40 S 33.52 40.03, 35 39.81 S 38.5 38.57, 40 38.53 S 43.51 39.75, 45 39.54 S 48.52 37.4, 50 37.14 S 53.56 37.37, 55 37.78 S 58.51 39.81, 60 39.95 S 63.51 38.91, 65 38.75 S 68.51 38.69, 70 38.87 S 73.5 40.06, 75 39.95 S 79.28 39.48, 80 38.16 S 84.5 23.1, 85 21.69 S 89.1 8.8, 90 10 S 94.42 33.62, 95 35 S 98.68 34.59, 100 33.88 S 103.56 30.05, 105 29.63 S 108.65 30.3, 110 30.96 S 113.71 33.73, 115 34.5 S 118.53 36.59, 120 36.9 S 123.5 36.7, 125 36.6 S 128.5 36.3, 130 36.26 S 133.5 36.35, 135 36.31 S 138.5 36.06, 140 36.01 S 143.5 36.03, 145 35.99 S 148.5 35.8, 150 35.73 S 153.5 35.61, 155 35.49 S 158.5 35.08, 160 34.96 S 163.5 34.72, 165 34.71 S 168.5 34.78, 170 34.88 S 173.5 35.36, 175 35.35 S 178.5 34.89, 180 34.82 S 183.5 34.84, 185 34.9 S 188.51 35.06, 190 35.19 S 193.5 35.7, 195 35.78 S 198.5 35.7, 200 35.71 S 203.5 35.81, 205 35.85"
          fill="none"/>
    <circle r="4" cx="5" cy="40" fill="#3023AE"/>
    <circle r="4" cx="205" cy="35.85" fill="#C86DD7"/>      
</svg>