<svg width="200" height="50" viewBox="0 0 210 50" xmlns="http://www.w3.org/2000/svg">
    <defs>
        <linearGradient x1="0%" y1="0%" x2="100%" y2="0%" id="a">
            <stop stop-color="#3023AE" offset="0%"/>
            <stop stop-color="#C86DD7" offset="100%"/>
        </linearGradient>
    </defs>
    <path stroke="url(#a)"
          stroke-width="3"
          stroke-linejoin="round"
          stroke-linecap="round"
          d="M5 40 C 6.5 40, 8.5 40, 10 40 S 13.5 40, 15 40 S 18.5 40, 20 40 S 23.5 40, 25 40 S 28.5 40.03, 30 40 S 33.52 40.03, 35 39.79 S 38.5 38.43, 40 38.39 S 43.6 40.04, 45 39.5 S 48.5 34.48, 50 34.55 S 53.61 39.37, 55 39.94 S 58.51 38.83, 60 38.65 S 64.34 40.08, 65 38.73 S 69.51 19.74, 70 18.32 S 74.17 8.75, 75 10 S 79.39 32.09, 80 33.46 S 83.74 33.3, 85 32.49 S 88.6 27.53, 90 26.99 S 93.88 27.63, 95 28.63 S 98.78 34.99, 100 35.87 S 103.5 35.92, 105 35.83 S 108.5 35.3, 110 35.24 S 113.5 35.44, 115 35.42 S 118.5 35.23, 120 35.13 S 123.5 34.88, 125 34.77 S 128.51 34.53, 130 34.37 S 133.51 33.83, 135 33.69 S 138.5 33.41, 140 33.41 S 143.51 33.54, 145 33.7 S 148.5 34.59, 150 34.51 S 153.5 33.22, 155 33.16 S 158.52 33.87, 160 34.11 S 163.51 34.65, 165 34.79 S 168.5 35.03, 170 35.06 S 173.5 34.9, 175 35 S 178.51 35.53, 180 35.71 S 183.5 36.07, 185 36.19 S 188.5 36.5, 190 36.48 S 193.5 35.99, 195 36.07 S 198.5 36.91, 200 37 S 203.5 36.77, 205 36.67"
          fill="none"/>
    <circle r="4" cx="5" cy="40" fill="#3023AE"/>
    <circle r="4" cx="205" cy="36.67" fill="#C86DD7"/>      
</svg>