<svg width="200" height="50" viewBox="0 0 210 50" xmlns="http://www.w3.org/2000/svg">
    <defs>
        <linearGradient x1="0%" y1="0%" x2="100%" y2="0%" id="a">
            <stop stop-color="#3023AE" offset="0%"/>
            <stop stop-color="#C86DD7" offset="100%"/>
        </linearGradient>
    </defs>
    <path stroke="url(#a)"
          stroke-width="3"
          stroke-linejoin="round"
          stroke-linecap="round"
          d="M5 40 C 6.5 40, 8.5 40, 10 40 S 13.5 40, 15 40 S 18.5 40, 20 40 S 23.5 40, 25 40 S 28.5 40.03, 30 40 S 33.52 40.02, 35 39.78 S 38.5 38.4, 40 38.36 S 43.6 40.04, 45 39.49 S 48.5 34.35, 50 34.42 S 53.62 39.36, 55 39.94 S 58.51 38.79, 60 38.61 S 64.35 40.05, 65 38.7 S 69.51 19.24, 70 17.82 S 74.19 8.74, 75 10 S 79.41 31.99, 80 33.37 S 83.78 34.26, 85 33.39 S 88.65 26.9, 90 26.24 S 93.87 27.5, 95 28.48 S 98.79 34.02, 100 34.91 S 103.5 35.84, 105 35.87 S 108.5 35.14, 110 35.08 S 113.5 35.54, 115 35.5 S 118.5 34.93, 120 34.84 S 123.5 34.93, 125 34.89 S 128.51 34.74, 130 34.54 S 133.51 33.71, 135 33.54 S 138.5 33.41, 140 33.4 S 143.5 33.39, 145 33.49 S 148.5 34.07, 150 34.05 S 153.5 33.36, 155 33.35 S 158.51 33.83, 160 34 S 163.5 34.35, 165 34.46 S 168.5 34.65, 170 34.76 S 173.51 35.05, 175 35.17 S 178.5 35.48, 180 35.59 S 183.51 35.8, 185 35.93 S 188.5 36.44, 190 36.43 S 193.5 35.83, 195 35.88 S 198.5 36.65, 200 36.75 S 203.5 36.6, 205 36.54"
          fill="none"/>
    <circle r="4" cx="5" cy="40" fill="#3023AE"/>
    <circle r="4" cx="205" cy="36.54" fill="#C86DD7"/>      
</svg>