<svg width="200" height="50" viewBox="0 0 210 50" xmlns="http://www.w3.org/2000/svg">
    <defs>
        <linearGradient x1="0%" y1="0%" x2="100%" y2="0%" id="a">
            <stop stop-color="#3023AE" offset="0%"/>
            <stop stop-color="#C86DD7" offset="100%"/>
        </linearGradient>
    </defs>
    <path stroke="url(#a)"
          stroke-width="3"
          stroke-linejoin="round"
          stroke-linecap="round"
          d="M5 40 C 6.5 40, 8.5 40, 10 40 S 13.5 40, 15 40 S 18.5 40, 20 40 S 23.5 40, 25 40 S 28.5 40.03, 30 40 S 33.52 40.03, 35 39.81 S 38.5 38.56, 40 38.52 S 43.51 39.75, 45 39.54 S 48.52 37.38, 50 37.12 S 53.56 37.35, 55 37.76 S 58.51 39.8, 60 39.95 S 63.51 38.9, 65 38.74 S 68.51 38.68, 70 38.86 S 73.5 40.06, 75 39.95 S 79.28 39.47, 80 38.15 S 84.5 22.94, 85 21.53 S 89.1 8.8, 90 10 S 94.43 33.5, 95 34.89 S 98.68 34.84, 100 34.13 S 103.57 29.93, 105 29.48 S 108.63 30.39, 110 31.01 S 113.71 33.26, 115 34.03 S 118.55 36.59, 120 36.96 S 123.5 36.69, 125 36.57 S 128.5 36.17, 130 36.15 S 133.5 36.47, 135 36.43 S 138.5 35.97, 140 35.91 S 143.5 36.04, 145 36.01 S 148.5 35.8, 150 35.71 S 153.5 35.55, 155 35.43 S 158.5 35.03, 160 34.94 S 163.5 34.85, 165 34.84 S 168.5 34.81, 170 34.85 S 173.5 35.11, 175 35.14 S 178.5 35.11, 180 35.05 S 183.5 34.73, 185 34.74 S 188.51 34.98, 190 35.12 S 193.5 35.57, 195 35.65 S 198.5 35.61, 200 35.64 S 203.5 35.77, 205 35.82"
          fill="none"/>
    <circle r="4" cx="5" cy="40" fill="#3023AE"/>
    <circle r="4" cx="205" cy="35.82" fill="#C86DD7"/>      
</svg>