<svg width="200" height="50" viewBox="0 0 210 50" xmlns="http://www.w3.org/2000/svg">
    <defs>
        <linearGradient x1="0%" y1="0%" x2="100%" y2="0%" id="a">
            <stop stop-color="#3023AE" offset="0%"/>
            <stop stop-color="#C86DD7" offset="100%"/>
        </linearGradient>
    </defs>
    <path stroke="url(#a)"
          stroke-width="3"
          stroke-linejoin="round"
          stroke-linecap="round"
          d="M5 40 C 6.5 40, 8.5 40, 10 40 S 13.5 40, 15 40 S 18.5 40, 20 40 S 23.5 40, 25 40 S 28.5 40.04, 30 40 S 33.53 40.03, 35 39.74 S 38.5 38.06, 40 38.01 S 43.65 40.03, 45 39.38 S 48.5 33.08, 50 33.16 S 53.67 39.24, 55 39.93 S 58.52 38.52, 60 38.31 S 63.52 38.25, 65 38.49 S 69.45 41.33, 70 39.93 S 73.88 13.84, 75 12.85 S 78.56 31.49, 80 31.08 S 83.52 9.77, 85 10 S 89.38 31.24, 90 32.61 S 93.8 32.91, 95 32.02 S 98.64 25.81, 100 25.18 S 103.79 26.51, 105 27.4 S 108.84 31.62, 110 32.58 S 113.54 35.35, 115 35.68 S 118.5 34.96, 120 34.87 S 123.5 35.14, 125 35.08 S 128.5 34.58, 130 34.5 S 133.5 34.62, 135 34.57 S 138.5 34.29, 140 34.17 S 143.51 33.97, 145 33.78 S 148.5 33.02, 150 32.91 S 153.5 33.06, 155 33.02 S 158.5 32.64, 160 32.65 S 163.5 33.01, 165 33.11 S 168.5 33.39, 170 33.29 S 173.5 32.41, 175 32.43 S 178.52 33.21, 180 33.43 S 183.5 33.78, 185 33.88 S 188.5 34.01, 190 34.09 S 193.5 34.33, 195 34.43 S 198.5 34.68, 200 34.79 S 203.5 35.07, 205 35.19"
          fill="none"/>
    <circle r="4" cx="5" cy="40" fill="#3023AE"/>
    <circle r="4" cx="205" cy="35.19" fill="#C86DD7"/>      
</svg>