<svg width="200" height="50" viewBox="0 0 210 50" xmlns="http://www.w3.org/2000/svg">
    <defs>
        <linearGradient x1="0%" y1="0%" x2="100%" y2="0%" id="a">
            <stop stop-color="#3023AE" offset="0%"/>
            <stop stop-color="#C86DD7" offset="100%"/>
        </linearGradient>
    </defs>
    <path stroke="url(#a)"
          stroke-width="3"
          stroke-linejoin="round"
          stroke-linecap="round"
          d="M5 40 C 6.5 40, 8.5 40, 10 40 S 13.5 40, 15 40 S 18.5 40, 20 40 S 23.5 40, 25 40 S 28.5 40.03, 30 40 S 33.52 40.02, 35 39.8 S 38.5 38.54, 40 38.5 S 43.51 39.74, 45 39.53 S 48.52 37.35, 50 37.08 S 53.56 37.32, 55 37.73 S 58.51 39.8, 60 39.95 S 63.51 38.9, 65 38.73 S 68.51 38.66, 70 38.84 S 73.5 40.06, 75 39.95 S 79.29 39.44, 80 38.12 S 84.5 22.65, 85 21.24 S 89.11 8.8, 90 10 S 94.44 33.32, 95 34.71 S 98.69 35.52, 100 34.79 S 103.6 29.62, 105 29.09 S 108.62 30.42, 110 31 S 113.71 32.51, 115 33.28 S 118.57 36.48, 120 36.95 S 123.51 36.7, 125 36.56 S 128.5 36.03, 130 36.04 S 133.5 36.63, 135 36.6 S 138.5 35.96, 140 35.85 S 143.5 35.88, 145 35.87 S 148.5 35.87, 150 35.8 S 153.51 35.54, 155 35.41 S 158.5 35.04, 160 34.93 S 163.5 34.71, 165 34.7 S 168.5 34.81, 170 34.85 S 173.5 34.94, 175 34.99 S 178.5 35.24, 180 35.16 S 183.5 34.44, 185 34.45 S 188.51 35.09, 190 35.23 S 193.5 35.31, 195 35.38 S 198.5 35.68, 200 35.72 S 203.5 35.68, 205 35.66"
          fill="none"/>
    <circle r="4" cx="5" cy="40" fill="#3023AE"/>
    <circle r="4" cx="205" cy="35.66" fill="#C86DD7"/>      
</svg>