<svg width="200" height="50" viewBox="0 0 210 50" xmlns="http://www.w3.org/2000/svg">
    <defs>
        <linearGradient x1="0%" y1="0%" x2="100%" y2="0%" id="a">
            <stop stop-color="#3023AE" offset="0%"/>
            <stop stop-color="#C86DD7" offset="100%"/>
        </linearGradient>
    </defs>
    <path stroke="url(#a)"
          stroke-width="3"
          stroke-linejoin="round"
          stroke-linecap="round"
          d="M5 40 C 6.5 40, 8.5 40, 10 40 S 13.5 40, 15 40 S 18.5 40, 20 40 S 23.5 40, 25 40 S 28.5 40.03, 30 40 S 33.52 40.03, 35 39.77 S 38.5 38.32, 40 38.27 S 43.52 39.7, 45 39.46 S 48.53 36.94, 50 36.64 S 53.58 36.92, 55 37.39 S 58.51 39.77, 60 39.94 S 63.51 38.72, 65 38.53 S 68.51 38.46, 70 38.67 S 74.39 41.31, 75 39.94 S 78.81 17.19, 80 16.27 S 83.73 33, 85 32.2 S 88.55 9.61, 90 10 S 94.32 33.54, 95 34.88 S 98.73 30.48, 100 29.68 S 103.5 28.62, 105 28.53 S 108.82 28.18, 110 29.11 S 113.78 35.52, 115 36.39 S 118.51 36.42, 120 36.25 S 123.5 35.27, 125 35.25 S 128.5 36.08, 130 36.09 S 133.51 35.44, 135 35.29 S 138.5 35.11, 140 35.1 S 143.5 35.27, 145 35.21 S 148.51 34.9, 150 34.72 S 153.51 34.11, 155 33.99 S 158.5 33.92, 160 33.89 S 163.5 33.79, 165 33.82 S 168.5 33.98, 170 34.06 S 173.5 34.41, 175 34.33 S 178.5 33.5, 180 33.51 S 183.51 34.26, 185 34.43 S 188.5 34.58, 190 34.65 S 193.5 34.86, 195 34.92 S 198.5 34.94, 200 35.02 S 203.51 35.34, 205 35.48"
          fill="none"/>
    <circle r="4" cx="5" cy="40" fill="#3023AE"/>
    <circle r="4" cx="205" cy="35.480000000000004" fill="#C86DD7"/>      
</svg>