<svg width="200" height="50" viewBox="0 0 210 50" xmlns="http://www.w3.org/2000/svg">
    <defs>
        <linearGradient x1="0%" y1="0%" x2="100%" y2="0%" id="a">
            <stop stop-color="#3023AE" offset="0%"/>
            <stop stop-color="#C86DD7" offset="100%"/>
        </linearGradient>
    </defs>
    <path stroke="url(#a)"
          stroke-width="3"
          stroke-linejoin="round"
          stroke-linecap="round"
          d="M5 40 C 6.5 40, 8.5 40, 10 40 S 13.5 40, 15 40 S 18.5 40, 20 40 S 23.5 40, 25 40 S 28.5 40.03, 30 40 S 33.52 40.02, 35 39.77 S 38.5 38.32, 40 38.28 S 43.52 39.71, 45 39.47 S 48.53 36.97, 50 36.67 S 53.57 36.94, 55 37.41 S 58.51 39.77, 60 39.94 S 63.51 38.73, 65 38.54 S 68.51 38.47, 70 38.68 S 74.38 41.31, 75 39.94 S 78.81 17.44, 80 16.53 S 83.74 33.1, 85 32.28 S 88.55 9.63, 90 10 S 94.31 33.47, 95 34.8 S 98.71 30.03, 100 29.26 S 103.5 28.81, 105 28.86 S 108.81 28.67, 110 29.58 S 113.75 35.62, 115 36.45 S 118.51 36.45, 120 36.28 S 123.5 35.35, 125 35.32 S 128.5 36.1, 130 36.09 S 133.51 35.39, 135 35.25 S 138.5 35.16, 140 35.15 S 143.5 35.26, 145 35.17 S 148.51 34.7, 150 34.53 S 153.5 34.1, 155 34.01 S 158.5 33.92, 160 33.91 S 163.5 33.9, 165 33.95 S 168.5 34.17, 170 34.22 S 173.5 34.35, 175 34.27 S 178.5 33.7, 180 33.7 S 183.51 34.12, 185 34.3 S 188.5 34.8, 190 34.9 S 193.5 34.9, 195 34.94 S 198.5 35.11, 200 35.2 S 203.5 35.42, 205 35.52"
          fill="none"/>
    <circle r="4" cx="5" cy="40" fill="#3023AE"/>
    <circle r="4" cx="205" cy="35.519999999999996" fill="#C86DD7"/>      
</svg>