<svg width="200" height="50" viewBox="0 0 210 50" xmlns="http://www.w3.org/2000/svg">
    <defs>
        <linearGradient x1="0%" y1="0%" x2="100%" y2="0%" id="a">
            <stop stop-color="#3023AE" offset="0%"/>
            <stop stop-color="#C86DD7" offset="100%"/>
        </linearGradient>
    </defs>
    <path stroke="url(#a)"
          stroke-width="3"
          stroke-linejoin="round"
          stroke-linecap="round"
          d="M5 40 C 6.5 40, 8.5 40, 10 40 S 13.5 40, 15 40 S 18.5 40, 20 40 S 23.5 40, 25 40 S 28.5 40.03, 30 40 S 33.52 40.02, 35 39.8 S 38.5 38.55, 40 38.51 S 43.51 39.75, 45 39.54 S 48.52 37.37, 50 37.1 S 53.56 37.33, 55 37.74 S 58.51 39.8, 60 39.95 S 63.51 38.89, 65 38.73 S 68.51 38.67, 70 38.85 S 73.5 40.06, 75 39.95 S 79.29 39.46, 80 38.14 S 84.5 22.8, 85 21.39 S 89.1 8.8, 90 10 S 94.43 33.39, 95 34.78 S 98.69 35.1, 100 34.38 S 103.58 29.75, 105 29.28 S 108.63 30.46, 110 31.06 S 113.71 32.88, 115 33.65 S 118.56 36.57, 120 36.99 S 123.51 36.72, 125 36.58 S 128.5 36.02, 130 36.02 S 133.5 36.61, 135 36.57 S 138.5 35.87, 140 35.78 S 143.5 36.01, 145 36 S 148.5 35.81, 150 35.71 S 153.5 35.47, 155 35.36 S 158.5 35.08, 160 34.99 S 163.5 34.77, 165 34.76 S 168.5 34.85, 170 34.89 S 173.5 35.01, 175 35.05 S 178.5 35.22, 180 35.15 S 183.5 34.6, 185 34.59 S 188.51 34.95, 190 35.09 S 193.5 35.47, 195 35.55 S 198.5 35.61, 200 35.65 S 203.5 35.75, 205 35.79"
          fill="none"/>
    <circle r="4" cx="5" cy="40" fill="#3023AE"/>
    <circle r="4" cx="205" cy="35.79" fill="#C86DD7"/>      
</svg>