<svg width="200" height="50" viewBox="0 0 210 50" xmlns="http://www.w3.org/2000/svg">
    <defs>
        <linearGradient x1="0%" y1="0%" x2="100%" y2="0%" id="a">
            <stop stop-color="#3023AE" offset="0%"/>
            <stop stop-color="#C86DD7" offset="100%"/>
        </linearGradient>
    </defs>
    <path stroke="url(#a)"
          stroke-width="3"
          stroke-linejoin="round"
          stroke-linecap="round"
          d="M5 40 C 6.5 40, 8.5 40, 10 40 S 13.5 40, 15 40 S 18.5 40, 20 40 S 23.5 40, 25 40 S 28.5 40.03, 30 40 S 33.52 40.02, 35 39.81 S 38.5 38.6, 40 38.56 S 43.51 39.75, 45 39.55 S 48.52 37.46, 50 37.21 S 53.55 37.43, 55 37.83 S 58.51 39.81, 60 39.95 S 63.51 38.94, 65 38.78 S 68.51 38.73, 70 38.9 S 73.5 40.05, 75 39.95 S 79.27 39.52, 80 38.21 S 84.5 23.56, 85 22.15 S 89.09 8.81, 90 10 S 94.4 33.88, 95 35.25 S 98.66 33.54, 100 32.86 S 103.52 30.45, 105 30.18 S 108.69 30.29, 110 31.02 S 113.71 35.02, 115 35.79 S 118.5 36.91, 120 37 S 123.5 36.42, 125 36.36 S 128.5 36.66, 130 36.63 S 133.5 36.24, 135 36.17 S 138.5 36.17, 140 36.14 S 143.5 36.07, 145 36 S 148.5 35.77, 150 35.69 S 153.5 35.53, 155 35.45 S 158.5 35.27, 160 35.15 S 163.5 34.66, 165 34.64 S 168.51 34.89, 170 35.04 S 173.5 35.72, 175 35.64 S 178.5 34.55, 180 34.49 S 183.51 35.13, 185 35.27 S 188.5 35.36, 190 35.44 S 193.5 35.69, 195 35.79 S 198.5 36.08, 200 36.1 S 203.5 35.97, 205 35.92"
          fill="none"/>
    <circle r="4" cx="5" cy="40" fill="#3023AE"/>
    <circle r="4" cx="205" cy="35.92" fill="#C86DD7"/>      
</svg>