<svg width="200" height="50" viewBox="0 0 210 50" xmlns="http://www.w3.org/2000/svg">
    <defs>
        <linearGradient x1="0%" y1="0%" x2="100%" y2="0%" id="a">
            <stop stop-color="#3023AE" offset="0%"/>
            <stop stop-color="#C86DD7" offset="100%"/>
        </linearGradient>
    </defs>
    <path stroke="url(#a)"
          stroke-width="3"
          stroke-linejoin="round"
          stroke-linecap="round"
          d="M5 40 C 6.28 39.21, 8.6 37.46, 10 36.92 S 13.52 35.92, 15 36.15 S 18.57 38.02, 20 38.46 S 23.5 39.11, 25 39.23 S 28.54 39.57, 30 39.23 S 33.5 36.92, 35 36.92 S 38.54 38.89, 40 39.23 S 43.5 39.23, 45 39.23 S 48.5 39.23, 50 39.23 S 53.5 39.23, 55 39.23 S 58.5 39.35, 60 39.23 S 63.5 38.58, 65 38.46 S 68.5 38.34, 70 38.46 S 73.5 39.23, 75 39.23 S 78.54 38.8, 80 38.46 S 83.5 36.92, 85 36.92 S 88.5 38.46, 90 38.46 S 93.64 37.55, 95 36.92 S 99.45 35.25, 100 33.85 S 103.5 11.54, 105 11.54 S 109.35 32.5, 110 33.85 S 113.54 31.97, 115 32.31 S 118.54 35.81, 120 36.15 S 123.68 35.33, 125 34.62 S 128.5 30.66, 130 30.77 S 133.52 35.15, 135 35.38 S 138.52 32.54, 140 32.31 S 144.05 35.01, 145 33.85 S 149.26 21.31, 150 20 S 153.94 15.09, 155 16.15 S 159.33 28.66, 160 30 S 163.57 35.71, 165 36.15 S 168.64 33.71, 170 33.08 S 173.57 31.1, 175 31.54 S 178.54 36.49, 180 36.15 S 184.05 30.39, 185 29.23 S 188.6 23.31, 190 23.85 S 194.12 34.3, 195 33.08 S 199.15 11.24, 200 10 S 204.24 17.17, 205 18.46"
          fill="none"/>
    <circle r="4" cx="5" cy="40" fill="#3023AE"/>
    <circle r="4" cx="205" cy="18.46" fill="#C86DD7"/>      
</svg>