<svg width="200" height="50" viewBox="0 0 210 50" xmlns="http://www.w3.org/2000/svg">
    <defs>
        <linearGradient x1="0%" y1="0%" x2="100%" y2="0%" id="a">
            <stop stop-color="#3023AE" offset="0%"/>
            <stop stop-color="#C86DD7" offset="100%"/>
        </linearGradient>
    </defs>
    <path stroke="url(#a)"
          stroke-width="3"
          stroke-linejoin="round"
          stroke-linecap="round"
          d="M5 40 C 6.49 39.81, 8.5 39.45, 10 39.35 S 13.5 39.3, 15 39.35 S 18.5 39.67, 20 39.67 S 23.5 39.35, 25 39.35 S 28.5 39.67, 30 39.67 S 33.54 39.68, 35 39.35 S 38.5 37.34, 40 37.39 S 43.51 39.86, 45 39.67 S 48.52 36.33, 50 36.09 S 54.46 39.44, 55 38.04 S 58.67 10.69, 60 10 S 64.46 31.43, 65 32.83 S 68.52 35.85, 70 36.09 S 73.53 34.17, 75 34.46 S 78.52 37.8, 80 38.04 S 83.56 36.51, 85 36.09 S 88.5 35.06, 90 35.11 S 93.51 36.26, 95 36.41 S 98.55 35.71, 100 36.09 S 103.51 39.21, 105 39.02 S 108.84 35.73, 110 34.78 S 113.53 30.58, 115 30.87 S 118.6 36.19, 120 36.74 S 123.5 34.88, 125 34.78 S 128.51 35.94, 130 36.09 S 133.5 35.86, 135 35.76 S 138.54 35.1, 140 35.43 S 143.5 38.09, 145 38.04 S 148.59 35.62, 150 35.11 S 153.51 34.31, 155 34.46 S 158.52 35.85, 160 36.09 S 163.53 35.8, 165 36.09 S 168.52 37.8, 170 38.04 S 173.52 37.96, 175 37.72 S 178.5 36.36, 180 36.41 S 183.51 37.85, 185 38.04 S 188.64 38.34, 190 37.72 S 193.5 33.48, 195 33.48 S 198.56 37.3, 200 37.72 S 203.55 36.79, 205 36.41"
          fill="none"/>
    <circle r="4" cx="5" cy="40" fill="#3023AE"/>
    <circle r="4" cx="205" cy="36.41" fill="#C86DD7"/>      
</svg>