<svg width="200" height="50" viewBox="0 0 210 50" xmlns="http://www.w3.org/2000/svg">
    <defs>
        <linearGradient x1="0%" y1="0%" x2="100%" y2="0%" id="a">
            <stop stop-color="#3023AE" offset="0%"/>
            <stop stop-color="#C86DD7" offset="100%"/>
        </linearGradient>
    </defs>
    <path stroke="url(#a)"
          stroke-width="3"
          stroke-linejoin="round"
          stroke-linecap="round"
          d="M5 40 C 5.89 38.79, 9.53 34.6, 10 33.18 S 13.61 9.43, 15 10 S 19.51 35.85, 20 37.27 S 23.51 38.44, 25 38.64 S 28.5 38.64, 30 38.64 S 33.5 38.64, 35 38.64 S 38.55 39.04, 40 38.64 S 43.55 36.31, 45 35.91 S 48.55 35.51, 50 35.91 S 53.55 38.24, 55 38.64 S 58.5 38.64, 60 38.64 S 63.5 38.64, 65 38.64 S 68.5 38.64, 70 38.64 S 73.5 38.64, 75 38.64 S 78.5 38.64, 80 38.64 S 83.5 38.64, 85 38.64 S 88.5 38.64, 90 38.64 S 93.5 38.64, 95 38.64 S 98.5 38.64, 100 38.64 S 103.5 38.64, 105 38.64 S 108.5 38.64, 110 38.64 S 113.5 38.64, 115 38.64 S 118.76 39.49, 120 38.64 S 123.55 32.22, 125 31.82 S 128.51 35.71, 130 35.91 S 134.17 34.43, 135 33.18 S 138.51 21.11, 140 20.91 S 143.99 30.71, 145 31.82 S 148.99 32.93, 150 31.82 S 153.5 20.91, 155 20.91 S 158.61 31.25, 160 31.82 S 163.55 25.4, 165 25 S 168.99 27.98, 170 29.09 S 173.61 35.34, 175 35.91 S 178.68 33.9, 180 33.18 S 183.84 31.4, 185 30.45 S 188.55 25.39, 190 25 S 193.61 28.3, 195 27.73 S 198.68 20.19, 200 20.91 S 204.43 31.79, 205 33.18"
          fill="none"/>
    <circle r="4" cx="5" cy="40" fill="#3023AE"/>
    <circle r="4" cx="205" cy="33.18" fill="#C86DD7"/>      
</svg>