<svg width="200" height="50" viewBox="0 0 210 50" xmlns="http://www.w3.org/2000/svg">
    <defs>
        <linearGradient x1="0%" y1="0%" x2="100%" y2="0%" id="a">
            <stop stop-color="#3023AE" offset="0%"/>
            <stop stop-color="#C86DD7" offset="100%"/>
        </linearGradient>
    </defs>
    <path stroke="url(#a)"
          stroke-width="3"
          stroke-linejoin="round"
          stroke-linecap="round"
          d="M5 40 C 5.43 38.56, 8.51 23.5, 10 23.35 S 14.13 37.8, 15 39.02 S 18.59 38.02, 20 37.5 S 23.51 35.2, 25 35.33 S 28.57 37.92, 30 38.37 S 33.5 38.38, 35 38.48 S 38.5 39.08, 40 39.02 S 43.5 38.18, 45 38.1 S 48.5 38.5, 50 38.48 S 53.5 37.98, 55 37.99 S 59.49 39.95, 60 38.54 S 63.86 11.14, 65 10.16 S 69.43 28.52, 70 29.91 S 73.54 34.16, 75 34.52 S 78.67 33.1, 80 32.41 S 83.64 29.93, 85 29.31 S 88.65 27.2, 90 27.85 S 93.61 33.59, 95 34.14 S 98.5 31.84, 100 31.81 S 103.56 33.49, 105 33.92 S 108.54 35.12, 110 34.79 S 113.53 31.96, 115 31.65 S 118.5 32.57, 120 32.68 S 123.89 33.42, 125 32.41 S 128.52 23.29, 130 23.51 S 134.02 32.78, 135 33.92 S 138.51 34.97, 140 35.12 S 143.62 35.48, 145 34.9 S 148.57 31.39, 150 30.94 S 153.5 31.63, 155 31.75 S 158.5 31.64, 160 31.75 S 163.5 32.56, 165 32.51 S 168.5 31.44, 170 31.43 S 174.37 33.77, 175 32.41 S 178.51 10.2, 180 10 S 184.13 29.83, 185 31.05 S 188.53 24.28, 190 24 S 193.69 28.41, 195 29.15 S 198.51 29.47, 200 29.64 S 203.51 30.1, 205 30.29"
          fill="none"/>
    <circle r="4" cx="5" cy="40" fill="#3023AE"/>
    <circle r="4" cx="205" cy="30.29" fill="#C86DD7"/>      
</svg>