<svg width="200" height="50" viewBox="0 0 210 50" xmlns="http://www.w3.org/2000/svg">
    <defs>
        <linearGradient x1="0%" y1="0%" x2="100%" y2="0%" id="a">
            <stop stop-color="#3023AE" offset="0%"/>
            <stop stop-color="#C86DD7" offset="100%"/>
        </linearGradient>
    </defs>
    <path stroke="url(#a)"
          stroke-width="3"
          stroke-linejoin="round"
          stroke-linecap="round"
          d="M5 40 C 5.35 38.54, 9.43 20.57, 10 19.18 S 13.94 14.38, 15 15.44 S 18.9 28.18, 20 29.19 S 24.09 25.82, 25 24.63 S 28.64 16.71, 30 16.08 S 33.6 19.49, 35 20.03 S 38.6 19.39, 40 19.93 S 43.65 24.58, 45 23.92 S 48.97 16.09, 50 15 S 53.66 14.01, 55 13.34 S 58.51 10.19, 60 10 S 63.99 10.94, 65 12.05 S 68.58 20.42, 70 20.91 S 73.54 15.13, 75 15.48 S 78.71 22.51, 80 23.28 S 83.5 21.51, 85 21.41 S 88.8 21.72, 90 22.61 S 93.92 27.8, 95 28.84 S 98.67 31.62, 100 32.31 S 103.52 33.75, 105 34.02 S 108.5 34.05, 110 34.15 S 113.5 34.7, 115 34.67 S 118.52 33.67, 120 33.92 S 123.57 35.93, 125 36.38 S 128.51 36.93, 130 37.07 S 133.5 37.23, 135 37.3 S 138.5 37.51, 140 37.57 S 143.5 37.77, 145 37.7 S 148.5 37.13, 150 37.11 S 153.5 37.48, 155 37.57 S 158.5 37.67, 160 37.7 S 163.5 37.83, 165 37.76 S 168.5 37.2, 170 37.26 S 173.5 38.11, 175 38.14 S 178.5 37.33, 180 37.45 S 183.51 38.73, 185 38.93 S 188.5 38.81, 190 38.79 S 193.5 38.76, 195 38.77 S 198.5 38.76, 200 38.83 S 203.51 39.12, 205 39.25"
          fill="none"/>
    <circle r="4" cx="5" cy="40" fill="#3023AE"/>
    <circle r="4" cx="205" cy="39.25" fill="#C86DD7"/>      
</svg>