<svg width="200" height="50" viewBox="0 0 210 50" xmlns="http://www.w3.org/2000/svg">
    <defs>
        <linearGradient x1="0%" y1="0%" x2="100%" y2="0%" id="a">
            <stop stop-color="#3023AE" offset="0%"/>
            <stop stop-color="#C86DD7" offset="100%"/>
        </linearGradient>
    </defs>
    <path stroke="url(#a)"
          stroke-width="3"
          stroke-linejoin="round"
          stroke-linecap="round"
          d="M5 40 C 6.49 39.86, 8.53 39.82, 10 39.52 S 13.5 37.97, 15 37.97 S 18.52 39.26, 20 39.52 S 23.5 39.78, 25 39.76 S 28.5 39.4, 30 39.4 S 33.5 39.76, 35 39.76 S 38.5 39.47, 40 39.4 S 44.52 40.7, 45 39.28 S 48.71 10.76, 50 10 S 54.5 32.02, 55 33.43 S 58.69 37.36, 60 38.09 S 63.52 38.81, 65 39.04 S 68.5 39.55, 70 39.64 S 73.5 39.66, 75 39.64 S 78.5 39.63, 80 39.52 S 83.5 38.96, 85 38.92 S 88.5 39.24, 90 39.28 S 93.5 39.18, 95 39.16 S 98.5 39.16, 100 39.16 S 103.5 39.18, 105 39.16 S 108.5 39.15, 110 39.04 S 113.69 39.17, 115 38.45 S 118.5 33.57, 120 33.55 S 123.69 37.6, 125 38.33 S 128.51 39.02, 130 39.16 S 133.5 39.32, 135 39.28 S 138.5 38.87, 140 38.92 S 143.5 39.64, 145 39.64 S 148.51 39.1, 150 38.92 S 153.5 38.45, 155 38.45 S 158.5 38.81, 160 38.92 S 163.51 39.28, 165 39.16 S 168.51 38.27, 170 38.09 S 173.5 37.97, 175 37.97 S 178.5 38.04, 180 38.09 S 183.5 38.35, 185 38.33 S 188.5 37.92, 190 37.97 S 193.51 38.53, 195 38.69 S 198.5 38.99, 200 39.04 S 203.5 39.04, 205 39.04"
          fill="none"/>
    <circle r="4" cx="5" cy="40" fill="#3023AE"/>
    <circle r="4" cx="205" cy="39.04" fill="#C86DD7"/>      
</svg>