<svg width="200" height="50" viewBox="0 0 210 50" xmlns="http://www.w3.org/2000/svg">
    <defs>
        <linearGradient x1="0%" y1="0%" x2="100%" y2="0%" id="a">
            <stop stop-color="#3023AE" offset="0%"/>
            <stop stop-color="#C86DD7" offset="100%"/>
        </linearGradient>
    </defs>
    <path stroke="url(#a)"
          stroke-width="3"
          stroke-linejoin="round"
          stroke-linecap="round"
          d="M5 40 C 6.36 39.37, 8.54 38.03, 10 37.69 S 13.5 37.69, 15 37.69 S 18.5 37.69, 20 37.69 S 23.5 37.69, 25 37.69 S 28.5 37.69, 30 37.69 S 33.5 37.69, 35 37.69 S 38.5 37.69, 40 37.69 S 43.5 37.69, 45 37.69 S 48.5 37.69, 50 37.69 S 53.5 37.69, 55 37.69 S 58.5 37.69, 60 37.69 S 63.5 37.69, 65 37.69 S 68.9 38.71, 70 37.69 S 73.54 28.8, 75 28.46 S 79.21 36.66, 80 35.38 S 83.9 13.33, 85 12.31 S 89.29 24.83, 90 26.15 S 93.64 30.14, 95 30.77 S 98.9 31.79, 100 30.77 S 104.02 22.67, 105 21.54 S 108.54 19.57, 110 19.23 S 114.02 18.1, 115 19.23 S 118.54 30.43, 120 30.77 S 124.35 22.89, 125 21.54 S 128.54 9.66, 130 10 S 134.4 22.47, 135 23.85 S 138.54 32.74, 140 33.08 S 143.5 26.15, 145 26.15 S 148.77 32.23, 150 33.08 S 153.5 33.08, 155 33.08 S 158.77 33.93, 160 33.08 S 163.77 27, 165 26.15 S 168.64 25.52, 170 26.15 S 173.64 30.14, 175 30.77 S 178.77 29.92, 180 30.77 S 183.54 37.35, 185 37.69 S 188.77 33.93, 190 33.08 S 193.54 30.43, 195 30.77 S 198.64 36.01, 200 35.38 S 204.29 27.47, 205 26.15"
          fill="none"/>
    <circle r="4" cx="5" cy="40" fill="#3023AE"/>
    <circle r="4" cx="205" cy="26.15" fill="#C86DD7"/>      
</svg>