<svg width="200" height="50" viewBox="0 0 210 50" xmlns="http://www.w3.org/2000/svg">
    <defs>
        <linearGradient x1="0%" y1="0%" x2="100%" y2="0%" id="a">
            <stop stop-color="#3023AE" offset="0%"/>
            <stop stop-color="#C86DD7" offset="100%"/>
        </linearGradient>
    </defs>
    <path stroke="url(#a)"
          stroke-width="3"
          stroke-linejoin="round"
          stroke-linecap="round"
          d="M5 40 C 5.5 38.58, 8.86 26.69, 10 25.71 S 13.86 30.45, 15 31.43 S 18.62 33.7, 20 34.29 S 23.56 35.3, 25 35.71 S 28.56 36.73, 30 37.14 S 33.52 38.78, 35 38.57 S 38.62 36.3, 40 35.71 S 43.94 35.35, 45 34.29 S 48.52 25.92, 50 25.71 S 53.5 32.86, 55 32.86 S 59.01 26.84, 60 25.71 S 63.52 21.22, 65 21.43 S 68.7 26.4, 70 27.14 S 73.62 27.73, 75 27.14 S 79.24 24.16, 80 22.86 S 83.52 9.79, 85 10 S 89.01 23.16, 90 24.29 S 93.94 20.37, 95 21.43 S 98.5 34.29, 100 34.29 S 104.14 22.66, 105 21.43 S 108.52 19.79, 110 20 S 114.08 21.68, 115 22.86 S 118.86 31.88, 120 32.86 S 123.62 32.02, 125 31.43 S 128.52 28.36, 130 28.57 S 133.7 33.6, 135 32.86 S 138.52 23.07, 140 22.86 S 143.78 32.3, 145 31.43 S 148.78 14.84, 150 15.71 S 154.24 37.27, 155 38.57 S 158.86 33.84, 160 32.86 S 163.62 29.41, 165 30 S 168.52 36.93, 170 37.14 S 173.94 32.49, 175 31.43 S 178.7 27.88, 180 27.14 S 183.5 25.71, 185 25.71 S 188.78 26.27, 190 27.14 S 193.56 32.45, 195 32.86 S 198.52 29.79, 200 30 S 203.86 33.31, 205 34.29"
          fill="none"/>
    <circle r="4" cx="5" cy="40" fill="#3023AE"/>
    <circle r="4" cx="205" cy="34.29" fill="#C86DD7"/>      
</svg>