<svg width="200" height="50" viewBox="0 0 210 50" xmlns="http://www.w3.org/2000/svg">
    <defs>
        <linearGradient x1="0%" y1="0%" x2="100%" y2="0%" id="a">
            <stop stop-color="#3023AE" offset="0%"/>
            <stop stop-color="#C86DD7" offset="100%"/>
        </linearGradient>
    </defs>
    <path stroke="url(#a)"
          stroke-width="3"
          stroke-linejoin="round"
          stroke-linecap="round"
          d="M5 40 C 5.56 38.61, 8.87 28.49, 10 27.5 S 13.87 30.26, 15 31.25 S 18.66 35.58, 20 36.25 S 23.51 36.06, 25 36.25 S 28.54 37.14, 30 37.5 S 33.51 38.94, 35 38.75 S 38.66 36.92, 40 36.25 S 43.8 34.65, 45 33.75 S 48.66 29.42, 50 28.75 S 53.54 28.39, 55 28.75 S 58.8 32.15, 60 31.25 S 63.54 21.61, 65 21.25 S 68.8 27.85, 70 28.75 S 74.29 30.07, 75 28.75 S 78.5 10, 80 10 S 84.17 27.5, 85 28.75 S 88.51 25.19, 90 25 S 93.5 27.5, 95 27.5 S 98.66 24.33, 100 25 S 103.66 33.17, 105 32.5 S 108.6 20.53, 110 20 S 113.94 27.69, 115 28.75 S 118.66 29.33, 120 30 S 123.51 33.56, 125 33.75 S 128.54 31.61, 130 31.25 S 133.73 32.04, 135 31.25 S 139.17 26.25, 140 25 S 144.12 15.04, 145 16.25 S 149.36 37.39, 150 38.75 S 153.8 38.4, 155 37.5 S 158.54 31.61, 160 31.25 S 163.54 34.64, 165 35 S 168.73 34.54, 170 33.75 S 173.73 29.54, 175 28.75 S 178.5 27.5, 180 27.5 S 183.66 28.08, 185 28.75 S 188.54 32.14, 190 32.5 S 193.54 30.89, 195 31.25 S 198.54 35.36, 200 35 S 204.06 29.92, 205 28.75"
          fill="none"/>
    <circle r="4" cx="5" cy="40" fill="#3023AE"/>
    <circle r="4" cx="205" cy="28.75" fill="#C86DD7"/>      
</svg>