<svg width="200" height="50" viewBox="0 0 210 50" xmlns="http://www.w3.org/2000/svg">
    <defs>
        <linearGradient x1="0%" y1="0%" x2="100%" y2="0%" id="a">
            <stop stop-color="#3023AE" offset="0%"/>
            <stop stop-color="#C86DD7" offset="100%"/>
        </linearGradient>
    </defs>
    <path stroke="url(#a)"
          stroke-width="3"
          stroke-linejoin="round"
          stroke-linecap="round"
          d="M5 40 C 6.5 39.98, 9.2 41.21, 10 39.94 S 13.63 24.87, 15 24.26 S 19.16 34.29, 20 35.53 S 23.6 38.46, 25 39 S 28.5 39.33, 30 39.4 S 33.5 39.44, 35 39.46 S 38.5 39.52, 40 39.54 S 43.5 39.6, 45 39.6 S 48.5 39.52, 50 39.51 S 53.5 39.5, 55 39.54 S 58.5 39.83, 60 39.77 S 63.5 39.24, 65 39.17 S 68.5 39.27, 70 39.31 S 73.5 39.54, 75 39.43 S 78.5 38.6, 80 38.6 S 83.5 39.4, 85 39.43 S 88.5 38.9, 90 38.83 S 93.5 38.97, 95 38.97 S 98.5 38.97, 100 38.85 S 103.63 38.8, 105 38.2 S 108.5 34.51, 110 34.48 S 113.56 37.58, 115 38 S 118.5 37.49, 120 37.42 S 123.65 38.16, 125 37.51 S 128.54 32.96, 130 32.61 S 133.52 34.83, 135 35.1 S 138.52 34.2, 140 34.45 S 143.5 36.67, 145 36.77 S 148.64 35.74, 150 35.1 S 153.51 32.21, 155 32.07 S 158.53 33.9, 160 34.19 S 163.57 33.63, 165 34.07 S 168.56 36.83, 170 37.25 S 173.5 36.91, 175 37.02 S 178.53 38.3, 180 38 S 183.51 35.14, 185 34.96 S 189.44 38.21, 190 36.82 S 193.55 10.39, 195 10 S 199.46 32.73, 200 34.13 S 203.57 35.3, 205 35.76"
          fill="none"/>
    <circle r="4" cx="5" cy="40" fill="#3023AE"/>
    <circle r="4" cx="205" cy="35.76" fill="#C86DD7"/>      
</svg>