<svg width="200" height="50" viewBox="0 0 210 50" xmlns="http://www.w3.org/2000/svg">
    <defs>
        <linearGradient x1="0%" y1="0%" x2="100%" y2="0%" id="a">
            <stop stop-color="#3023AE" offset="0%"/>
            <stop stop-color="#C86DD7" offset="100%"/>
        </linearGradient>
    </defs>
    <path stroke="url(#a)"
          stroke-width="3"
          stroke-linejoin="round"
          stroke-linecap="round"
          d="M5 40 C 5.68 38.66, 8.65 30.84, 10 30.18 S 13.84 36.04, 15 35.09 S 18.51 22.16, 20 22 S 23.89 33, 25 34 S 28.81 31.91, 30 31 S 33.5 26.4, 35 26.36 S 38.63 30.13, 40 30.73 S 43.6 31.27, 45 30.73 S 48.73 27.71, 50 26.91 S 53.51 24.57, 55 24.45 S 58.67 25.4, 60 26.09 S 63.5 29.72, 65 29.64 S 68.78 26.42, 70 25.55 S 73.5 22.43, 75 22.55 S 78.76 25.52, 80 26.36 S 83.5 29.48, 85 29.36 S 88.65 26.21, 90 25.55 S 93.67 25.14, 95 24.45 S 98.55 19.96, 100 20.36 S 103.6 26.64, 105 27.18 S 108.67 24.87, 110 24.18 S 113.97 23.09, 115 22 S 118.52 13.31, 120 13.55 S 123.79 22.75, 125 23.64 S 128.51 20.75, 130 20.91 S 133.57 25.2, 135 24.73 S 138.5 17.72, 140 17.64 S 143.56 24.61, 145 24.18 S 148.63 15.24, 150 14.64 S 153.79 18.93, 155 19.82 S 158.6 21.46, 160 22 S 163.56 24.07, 165 23.64 S 168.6 19.54, 170 19 S 173.5 19.86, 175 19.82 S 178.9 19.75, 180 18.73 S 183.54 10.91, 185 10.55 S 188.54 15.91, 190 16.27 S 193.61 12.43, 195 13 S 198.56 20.79, 200 20.36 S 204.35 11.35, 205 10"
          fill="none"/>
    <circle r="4" cx="5" cy="40" fill="#3023AE"/>
    <circle r="4" cx="205" cy="10" fill="#C86DD7"/>      
</svg>