<svg width="200" height="50" viewBox="0 0 210 50" xmlns="http://www.w3.org/2000/svg">
    <defs>
        <linearGradient x1="0%" y1="0%" x2="100%" y2="0%" id="a">
            <stop stop-color="#3023AE" offset="0%"/>
            <stop stop-color="#C86DD7" offset="100%"/>
        </linearGradient>
    </defs>
    <path stroke="url(#a)"
          stroke-width="3"
          stroke-linejoin="round"
          stroke-linecap="round"
          d="M5 40 C 5.63 38.64, 8.6 29.73, 10 29.18 S 13.51 35.92, 15 36.07 S 18.76 31.01, 20 30.16 S 23.5 29.25, 25 29.18 S 28.63 30.28, 30 29.67 S 33.5 24.68, 35 24.75 S 38.53 29.87, 40 30.16 S 43.52 26.94, 45 26.72 S 48.51 28.84, 50 28.69 S 53.53 25.45, 55 25.74 S 58.74 29.85, 60 30.66 S 63.52 32.35, 65 32.13 S 68.71 29.94, 70 29.18 S 73.71 26.99, 75 26.23 S 78.5 23.28, 80 23.28 S 83.82 25.3, 85 26.23 S 88.52 30.93, 90 31.15 S 93.54 28.06, 95 27.7 S 98.51 28.84, 100 28.69 S 103.58 27.21, 105 26.72 S 108.53 24.96, 110 25.25 S 113.52 28.47, 115 28.69 S 118.52 26.94, 120 26.72 S 123.56 26.79, 125 27.21 S 128.74 28.86, 130 29.67 S 133.63 33, 135 33.61 S 138.52 34.32, 140 34.1 S 143.51 32.28, 145 32.13 S 148.63 33.72, 150 33.11 S 153.54 28.06, 155 27.7 S 158.76 29.81, 160 30.66 S 163.6 34.04, 165 34.59 S 168.6 35.14, 170 34.59 S 173.51 30.81, 175 30.66 S 178.54 33.25, 180 33.61 S 183.63 33.72, 185 33.11 S 188.5 29.11, 190 29.18 S 193.74 32.8, 195 33.61 S 199.41 36.95, 200 35.57 S 204.71 11.47, 205 10"
          fill="none"/>
    <circle r="4" cx="5" cy="40" fill="#3023AE"/>
    <circle r="4" cx="205" cy="10" fill="#C86DD7"/>      
</svg>