<svg width="200" height="50" viewBox="0 0 210 50" xmlns="http://www.w3.org/2000/svg">
    <defs>
        <linearGradient x1="0%" y1="0%" x2="100%" y2="0%" id="a">
            <stop stop-color="#3023AE" offset="0%"/>
            <stop stop-color="#C86DD7" offset="100%"/>
        </linearGradient>
    </defs>
    <path stroke="url(#a)"
          stroke-width="3"
          stroke-linejoin="round"
          stroke-linecap="round"
          d="M5 40 C 6.11 39, 8.73 36.3, 10 35.5 S 13.62 33.12, 15 33.7 S 18.7 38.96, 20 39.7 S 23.5 39.4, 25 39.4 S 29.18 40.96, 30 39.7 S 34.52 25.52, 35 24.1 S 38.52 10.27, 40 10 S 44.44 20.91, 45 22.3 S 49.12 33.69, 50 34.9 S 54.09 37.3, 55 36.1 S 59.25 23, 60 21.7 S 64.03 17.56, 65 18.7 S 68.97 32.31, 70 33.4 S 73.52 28.98, 75 29.2 S 78.78 34.02, 80 34.9 S 83.52 36.18, 85 36.4 S 88.51 36.22, 90 36.4 S 93.53 37.29, 95 37.6 S 98.51 38.32, 100 38.5 S 103.5 38.71, 105 38.8 S 108.6 39.65, 110 39.1 S 113.66 35.58, 115 34.9 S 118.52 33.73, 120 34 S 123.68 35.99, 125 36.7 S 128.55 39.01, 130 39.4 S 133.5 39.49, 135 39.4 S 138.5 38.8, 140 38.8 S 143.5 39.31, 145 39.4 S 148.5 39.4, 150 39.4 S 153.5 39.36, 155 39.4 S 158.5 39.74, 160 39.7 S 163.5 39.19, 165 39.1 S 168.58 39.57, 170 39.1 S 173.53 36.11, 175 35.8 S 178.54 36.65, 180 37 S 183.5 38.11, 185 38.2 S 188.5 37.6, 190 37.6 S 193.58 38.67, 195 38.2 S 198.78 35.18, 200 34.3 S 203.75 31.83, 205 31"
          fill="none"/>
    <circle r="4" cx="5" cy="40" fill="#3023AE"/>
    <circle r="4" cx="205" cy="31" fill="#C86DD7"/>      
</svg>