<svg width="200" height="50" viewBox="0 0 210 50" xmlns="http://www.w3.org/2000/svg">
    <defs>
        <linearGradient x1="0%" y1="0%" x2="100%" y2="0%" id="a">
            <stop stop-color="#3023AE" offset="0%"/>
            <stop stop-color="#C86DD7" offset="100%"/>
        </linearGradient>
    </defs>
    <path stroke="url(#a)"
          stroke-width="3"
          stroke-linejoin="round"
          stroke-linecap="round"
          d="M5 40 C 5.4 38.55, 8.71 22.77, 10 22 S 13.71 34.77, 15 34 S 18.5 16, 20 16 S 23.5 34, 25 34 S 29.04 17.15, 30 16 S 34.27 20.69, 35 22 S 39.04 32.85, 40 34 S 43.5 34, 45 34 S 49.04 35.15, 50 34 S 54.04 23.15, 55 22 S 58.5 22, 60 22 S 63.71 21.23, 65 22 S 68.71 28.77, 70 28 S 73.71 16.77, 75 16 S 79.04 20.85, 80 22 S 84.04 26.85, 85 28 S 88.71 33.23, 90 34 S 94.04 35.15, 95 34 S 98.5 22, 100 22 S 104.04 32.85, 105 34 S 109.42 35.38, 110 34 S 113.5 10, 115 10 S 119.42 32.62, 120 34 S 124.04 35.15, 125 34 S 128.71 22.77, 130 22 S 133.5 28, 135 28 S 138.71 22.77, 140 22 S 143.71 21.23, 145 22 S 148.5 28, 150 28 S 153.71 21.23, 155 22 S 158.71 34.77, 160 34 S 163.5 16, 165 16 S 169.04 32.85, 170 34 S 174.04 29.15, 175 28 S 178.71 22.77, 180 22 S 184.04 20.85, 185 22 S 188.71 33.23, 190 34 S 194.04 29.15, 195 28 S 198.5 22, 200 22 S 204.04 26.85, 205 28"
          fill="none"/>
    <circle r="4" cx="5" cy="40" fill="#3023AE"/>
    <circle r="4" cx="205" cy="28" fill="#C86DD7"/>      
</svg>