<svg width="200" height="50" viewBox="0 0 210 50" xmlns="http://www.w3.org/2000/svg">
    <defs>
        <linearGradient x1="0%" y1="0%" x2="100%" y2="0%" id="a">
            <stop stop-color="#3023AE" offset="0%"/>
            <stop stop-color="#C86DD7" offset="100%"/>
        </linearGradient>
    </defs>
    <path stroke="url(#a)"
          stroke-width="3"
          stroke-linejoin="round"
          stroke-linecap="round"
          d="M5 40 C 6.5 39.97, 8.5 39.92, 10 39.91 S 13.5 39.94, 15 39.95 S 18.5 39.95, 20 39.95 S 23.5 39.95, 25 39.95 S 28.5 39.95, 30 39.95 S 34.52 41.37, 35 39.95 S 38.56 10.4, 40 10 S 44.48 35.74, 45 37.15 S 48.52 37.04, 50 37.25 S 53.5 38.6, 55 38.58 S 58.55 37.47, 60 37.1 S 63.56 36.44, 65 36.01 S 68.5 34.23, 70 34.11 S 73.5 35.11, 75 35.21 S 78.5 34.72, 80 34.78 S 83.5 35.6, 85 35.59 S 88.5 34.6, 90 34.68 S 93.5 36.2, 95 36.11 S 98.5 34.11, 100 34.07 S 103.58 35.39, 105 35.87 S 108.53 37.2, 110 37.48 S 113.51 37.96, 115 37.77 S 118.52 36.43, 120 36.2 S 123.52 36.52, 125 36.25 S 128.51 34.2, 130 34.4 S 133.58 37.11, 135 37.58 S 138.53 38, 140 37.72 S 143.54 36.03, 145 35.68 S 148.5 35.44, 150 35.35 S 153.5 35.17, 155 35.06 S 158.54 34.26, 160 34.59 S 163.5 37.39, 165 37.29 S 168.53 34.24, 170 33.92 S 173.54 34.75, 175 35.11 S 178.53 36.08, 180 36.39 S 183.61 37.76, 185 37.2 S 188.52 32.59, 190 32.36 S 193.67 34.94, 195 35.63 S 198.5 37.51, 200 37.58 S 203.56 36.53, 205 36.11"
          fill="none"/>
    <circle r="4" cx="5" cy="40" fill="#3023AE"/>
    <circle r="4" cx="205" cy="36.11" fill="#C86DD7"/>      
</svg>