<svg width="200" height="50" viewBox="0 0 210 50" xmlns="http://www.w3.org/2000/svg">
    <defs>
        <linearGradient x1="0%" y1="0%" x2="100%" y2="0%" id="a">
            <stop stop-color="#3023AE" offset="0%"/>
            <stop stop-color="#C86DD7" offset="100%"/>
        </linearGradient>
    </defs>
    <path stroke="url(#a)"
          stroke-width="3"
          stroke-linejoin="round"
          stroke-linecap="round"
          d="M5 40 C 6.5 39.94, 8.5 39.84, 10 39.81 S 13.5 39.81, 15 39.81 S 18.5 39.81, 20 39.81 S 23.5 39.81, 25 39.81 S 28.5 39.81, 30 39.81 S 33.5 39.81, 35 39.81 S 38.5 39.81, 40 39.81 S 43.5 39.81, 45 39.81 S 48.5 39.81, 50 39.81 S 54.52 41.23, 55 39.81 S 58.52 10.22, 60 10 S 64.51 36.89, 65 38.31 S 68.5 38.81, 70 38.87 S 73.5 38.75, 75 38.69 S 78.51 38.7, 80 38.5 S 83.5 37.26, 85 37.37 S 88.51 39.08, 90 39.25 S 93.5 38.61, 95 38.5 S 98.5 38.47, 100 38.5 S 103.5 38.69, 105 38.69 S 108.5 38.47, 110 38.5 S 113.51 38.7, 115 38.87 S 118.5 39.65, 120 39.62 S 123.5 38.77, 125 38.69 S 128.5 38.98, 130 39.06 S 133.5 39.19, 135 39.25 S 138.5 39.47, 140 39.44 S 143.51 39.23, 145 39.06 S 148.5 38.23, 150 38.31 S 153.51 39.43, 155 39.62 S 158.5 39.68, 160 39.62 S 163.51 39.39, 165 39.25 S 168.52 38.94, 170 38.69 S 173.5 37.59, 175 37.56 S 178.51 38.36, 180 38.5 S 183.5 38.56, 185 38.5 S 188.51 38.31, 190 38.12 S 193.5 37.1, 195 37.19 S 198.54 38.36, 200 38.69 S 203.52 39.22, 205 39.44"
          fill="none"/>
    <circle r="4" cx="5" cy="40" fill="#3023AE"/>
    <circle r="4" cx="205" cy="39.44" fill="#C86DD7"/>      
</svg>