<svg width="200" height="50" viewBox="0 0 210 50" xmlns="http://www.w3.org/2000/svg">
    <defs>
        <linearGradient x1="0%" y1="0%" x2="100%" y2="0%" id="a">
            <stop stop-color="#3023AE" offset="0%"/>
            <stop stop-color="#C86DD7" offset="100%"/>
        </linearGradient>
    </defs>
    <path stroke="url(#a)"
          stroke-width="3"
          stroke-linejoin="round"
          stroke-linecap="round"
          d="M5 40 C 6.29 39.23, 9.11 38.21, 10 37 S 13.52 26.28, 15 26.5 S 19.04 37.35, 20 38.5 S 23.52 38.72, 25 38.5 S 28.63 37.62, 30 37 S 33.52 33.78, 35 34 S 38.56 38.07, 40 38.5 S 43.5 37, 45 37 S 48.52 38.72, 50 38.5 S 53.5 35.5, 55 35.5 S 58.56 38.07, 60 38.5 S 63.5 38.5, 65 38.5 S 69.5 39.92, 70 38.5 S 73.5 10, 75 10 S 79.42 37.12, 80 38.5 S 83.5 34, 85 34 S 88.63 37.88, 90 38.5 S 93.5 38.5, 95 38.5 S 98.5 38.5, 100 38.5 S 103.5 38.5, 105 38.5 S 108.5 38.5, 110 38.5 S 113.5 38.5, 115 38.5 S 118.5 38.5, 120 38.5 S 123.5 38.5, 125 38.5 S 128.5 38.5, 130 38.5 S 133.5 38.5, 135 38.5 S 138.5 38.5, 140 38.5 S 143.5 38.5, 145 38.5 S 148.5 38.5, 150 38.5 S 153.8 39.4, 155 38.5 S 158.56 31.43, 160 31 S 163.8 34.6, 165 35.5 S 168.56 38.07, 170 38.5 S 173.5 38.5, 175 38.5 S 178.5 38.5, 180 38.5 S 183.5 38.5, 185 38.5 S 188.5 38.5, 190 38.5 S 193.5 38.5, 195 38.5"
          fill="none"/>
    <circle r="4" cx="5" cy="40" fill="#3023AE"/>
    <circle r="4" cx="195" cy="38.5" fill="#C86DD7"/>      
</svg>