<svg width="200" height="50" viewBox="0 0 210 50" xmlns="http://www.w3.org/2000/svg">
    <defs>
        <linearGradient x1="0%" y1="0%" x2="100%" y2="0%" id="a">
            <stop stop-color="#3023AE" offset="0%"/>
            <stop stop-color="#C86DD7" offset="100%"/>
        </linearGradient>
    </defs>
    <path stroke="url(#a)"
          stroke-width="3"
          stroke-linejoin="round"
          stroke-linecap="round"
          d="M5 40 C 5.25 38.52, 8.59 10.51, 10 10 S 14.48 34.99, 15 36.4 S 18.53 36.8, 20 37.1 S 23.52 38.18, 25 38.43 S 28.5 38.72, 30 38.82 S 33.5 39.04, 35 39.1 S 38.5 39.22, 40 39.25 S 43.5 39.39, 45 39.29 S 48.5 38.68, 50 38.61 S 53.5 38.75, 55 38.84 S 58.5 39.11, 60 39.19 S 63.5 39.36, 65 39.36 S 68.5 39.2, 70 39.21 S 73.5 39.43, 75 39.46 S 78.5 39.37, 80 39.38 S 83.5 39.51, 85 39.51 S 88.5 39.43, 90 39.4 S 93.5 39.3, 95 39.29 S 98.5 39.27, 100 39.31 S 103.5 39.53, 105 39.53 S 108.5 39.27, 110 39.29 S 113.5 39.62, 115 39.66 S 118.5 39.56, 120 39.53 S 123.5 39.47, 125 39.48 S 128.5 39.65, 130 39.61 S 133.5 39.22, 135 39.21 S 138.5 39.5, 140 39.57 S 143.5 39.68, 145 39.68 S 148.5 39.59, 150 39.57 S 153.5 39.53, 155 39.55 S 158.5 39.78, 160 39.72 S 163.5 39.17, 165 39.14 S 168.5 39.47, 170 39.53 S 173.5 39.63, 175 39.51 S 178.5 38.7, 180 38.73 S 183.5 39.62, 185 39.72 S 188.51 39.51, 190 39.38 S 193.5 38.85, 195 38.84 S 198.5 39.23, 200 39.29 S 203.5 39.23, 205 39.21"
          fill="none"/>
    <circle r="4" cx="5" cy="40" fill="#3023AE"/>
    <circle r="4" cx="205" cy="39.21" fill="#C86DD7"/>      
</svg>