<svg width="200" height="50" viewBox="0 0 210 50" xmlns="http://www.w3.org/2000/svg">
    <defs>
        <linearGradient x1="0%" y1="0%" x2="100%" y2="0%" id="a">
            <stop stop-color="#3023AE" offset="0%"/>
            <stop stop-color="#C86DD7" offset="100%"/>
        </linearGradient>
    </defs>
    <path stroke="url(#a)"
          stroke-width="3"
          stroke-linejoin="round"
          stroke-linecap="round"
          d="M5 40 C 6.46 39.66, 8.5 38.88, 10 38.84 S 13.5 39.71, 15 39.75 S 18.54 39.43, 20 39.09 S 23.5 37.49, 25 37.42 S 28.51 38.45, 30 38.59 S 33.5 38.41, 35 38.34 S 38.5 38.14, 40 38.09 S 43.5 37.97, 45 38.01 S 48.5 38.28, 50 38.34 S 53.5 38.49, 55 38.42 S 58.56 38.26, 60 37.84 S 63.77 36.36, 65 35.51 S 68.78 31.81, 70 30.94 S 73.5 28.28, 75 28.37 S 78.8 32.42, 80 31.52 S 84.37 22.25, 85 20.89 S 88.73 9.21, 90 10 S 93.99 26.02, 95 27.12 S 98.73 21.68, 100 20.89 S 103.54 20.56, 105 20.89 S 108.54 22.77, 110 23.13 S 113.58 22.89, 115 23.38 S 118.67 25.92, 120 26.62 S 123.5 28.57, 125 28.61 S 128.65 27.52, 130 26.87 S 133.5 23.9, 135 23.8 S 138.52 25.93, 140 26.2 S 143.92 26.66, 145 25.62 S 148.66 17.33, 150 16.65 S 153.51 20.35, 155 20.55 S 158.79 17.09, 160 17.98 S 163.68 27.15, 165 27.87 S 168.57 23.9, 170 23.46 S 173.53 24.47, 175 24.79 S 178.5 25.67, 180 25.62 S 183.51 24.62, 185 24.46 S 188.54 24.19, 190 24.54 S 193.57 26.42, 195 26.87 S 198.6 28.23, 200 27.7 S 203.89 24.14, 205 23.13"
          fill="none"/>
    <circle r="4" cx="5" cy="40" fill="#3023AE"/>
    <circle r="4" cx="205" cy="23.13" fill="#C86DD7"/>      
</svg>