<svg width="200" height="50" viewBox="0 0 210 50" xmlns="http://www.w3.org/2000/svg">
    <defs>
        <linearGradient x1="0%" y1="0%" x2="100%" y2="0%" id="a">
            <stop stop-color="#3023AE" offset="0%"/>
            <stop stop-color="#C86DD7" offset="100%"/>
        </linearGradient>
    </defs>
    <path stroke="url(#a)"
          stroke-width="3"
          stroke-linejoin="round"
          stroke-linecap="round"
          d="M5 40 C 6.5 39.95, 8.5 39.86, 10 39.84 S 13.5 39.84, 15 39.84 S 18.5 39.84, 20 39.84 S 23.5 39.84, 25 39.84 S 28.5 39.84, 30 39.84 S 33.5 39.84, 35 39.84 S 38.5 39.84, 40 39.84 S 43.5 39.84, 45 39.84 S 48.5 39.84, 50 39.84 S 53.5 39.84, 55 39.84 S 58.5 39.84, 60 39.84 S 63.5 39.84, 65 39.84 S 68.5 39.84, 70 39.84 S 73.52 40.08, 75 39.84 S 78.58 38.68, 80 38.19 S 83.58 36.86, 85 36.37 S 89.47 36.13, 90 34.73 S 93.5 9.95, 95 10 S 99.46 33.65, 100 35.05 S 103.6 35.35, 105 35.88 S 108.68 39.57, 110 38.85 S 113.51 30.59, 115 30.44 S 118.79 36.98, 120 37.86 S 123.5 37.79, 125 37.69 S 128.52 37.44, 130 37.2 S 133.51 35.89, 135 36.04 S 138.83 39.13, 140 38.19 S 143.52 28.19, 145 27.97 S 148.8 35.79, 150 36.7 S 153.51 35.38, 155 35.55 S 158.5 37.91, 160 37.86 S 163.51 35.37, 165 35.22 S 168.51 36.7, 170 36.87 S 174.28 37.68, 175 36.37 S 178.58 19.21, 180 18.74 S 183.5 33.13, 185 33.08 S 188.58 17.94, 190 18.41 S 194.26 35.07, 195 36.37 S 198.51 36.21, 200 36.04 S 203.52 35.46, 205 35.22"
          fill="none"/>
    <circle r="4" cx="5" cy="40" fill="#3023AE"/>
    <circle r="4" cx="205" cy="35.22" fill="#C86DD7"/>      
</svg>