<svg width="200" height="50" viewBox="0 0 210 50" xmlns="http://www.w3.org/2000/svg">
    <defs>
        <linearGradient x1="0%" y1="0%" x2="100%" y2="0%" id="a">
            <stop stop-color="#3023AE" offset="0%"/>
            <stop stop-color="#C86DD7" offset="100%"/>
        </linearGradient>
    </defs>
    <path stroke="url(#a)"
          stroke-width="3"
          stroke-linejoin="round"
          stroke-linecap="round"
          d="M5 40 C 6.5 39.99, 8.51 40.1, 10 39.97 S 14.53 40.54, 15 39.12 S 18.9 11.02, 20 10 S 24.19 28.61, 25 29.87 S 28.63 26.3, 30 25.68 S 33.56 25.78, 35 25.35 S 38.54 23.04, 40 22.69 S 43.5 22.83, 45 22.95 S 48.52 23.75, 50 23.5 S 53.5 21.16, 55 21.25 S 58.56 23.72, 60 24.13 S 63.52 23.83, 65 24.09 S 68.62 26.49, 70 25.91 S 73.62 20.51, 75 19.91 S 78.75 20.73, 80 21.57 S 83.7 25.88, 85 26.63 S 88.5 27.3, 90 27.39 S 93.52 27, 95 27.21 S 98.5 28.79, 100 28.82 S 103.52 27.64, 105 27.42 S 108.5 27.22, 110 27.34 S 113.52 27.97, 115 28.21 S 118.52 28.75, 120 28.99 S 123.5 29.7, 125 29.82 S 128.51 29.62, 130 29.8 S 133.5 31.01, 135 31.02 S 138.52 30.07, 140 29.85 S 143.5 29.48, 145 29.57 S 148.5 30.52, 150 30.44 S 153.51 29.19, 155 29.01 S 158.51 29.37, 160 29.21 S 163.5 27.9, 165 27.92 S 168.53 29.08, 170 29.37 S 173.51 29.7, 175 29.9 S 178.5 30.72, 180 30.71 S 183.52 30.06, 185 29.82 S 188.56 28.7, 190 29.11 S 193.55 32.3, 195 32.67 S 198.5 31.71, 200 31.65 S 203.51 32.09, 205 32.28"
          fill="none"/>
    <circle r="4" cx="5" cy="40" fill="#3023AE"/>
    <circle r="4" cx="205" cy="32.28" fill="#C86DD7"/>      
</svg>