<svg width="200" height="50" viewBox="0 0 210 50" xmlns="http://www.w3.org/2000/svg">
    <defs>
        <linearGradient x1="0%" y1="0%" x2="100%" y2="0%" id="a">
            <stop stop-color="#3023AE" offset="0%"/>
            <stop stop-color="#C86DD7" offset="100%"/>
        </linearGradient>
    </defs>
    <path stroke="url(#a)"
          stroke-width="3"
          stroke-linejoin="round"
          stroke-linecap="round"
          d="M5 40 C 6.5 39.99, 9.05 41.12, 10 39.96 S 14.53 29.12, 15 27.7 S 18.54 10.34, 20 10 S 23.85 24.4, 25 25.37 S 28.92 19.46, 30 18.42 S 33.58 15.3, 35 15.78 S 38.54 22.14, 40 21.79 S 43.62 13.98, 45 13.39 S 48.52 17.3, 50 17.52 S 53.5 14.91, 55 14.88 S 58.68 16.61, 60 17.32 S 63.51 20.47, 65 20.28 S 68.69 16.74, 70 16.01 S 73.5 14.78, 75 14.72 S 78.84 14.67, 80 15.62 S 83.71 22.09, 85 22.85 S 88.5 21.4, 90 21.48 S 93.54 23.05, 95 23.41 S 98.5 23.96, 100 23.94 S 103.52 23.5, 105 23.28 S 108.51 22.34, 110 22.47 S 113.56 23.75, 115 24.18 S 118.52 25.24, 120 25.45 S 123.53 25.33, 125 25.61 S 128.5 27.27, 130 27.33 S 133.51 26.19, 135 25.98 S 138.5 25.86, 140 25.92 S 143.51 26.5, 145 26.35 S 148.51 25.05, 150 24.9 S 153.52 25.59, 155 25.37 S 158.5 23.5, 160 23.41 S 163.55 24.38, 165 24.78 S 168.54 25.81, 170 26.16 S 173.5 27.18, 175 27.15 S 178.53 26.24, 180 25.94 S 183.59 24.6, 185 25.12 S 188.59 29.14, 190 29.64 S 193.5 28.75, 195 28.68 S 198.5 29.08, 200 29.17 S 203.5 29.23, 205 29.25"
          fill="none"/>
    <circle r="4" cx="5" cy="40" fill="#3023AE"/>
    <circle r="4" cx="205" cy="29.25" fill="#C86DD7"/>      
</svg>