<svg width="200" height="50" viewBox="0 0 210 50" xmlns="http://www.w3.org/2000/svg">
    <defs>
        <linearGradient x1="0%" y1="0%" x2="100%" y2="0%" id="a">
            <stop stop-color="#3023AE" offset="0%"/>
            <stop stop-color="#C86DD7" offset="100%"/>
        </linearGradient>
    </defs>
    <path stroke="url(#a)"
          stroke-width="3"
          stroke-linejoin="round"
          stroke-linecap="round"
          d="M5 40 C 6.5 39.99, 8.51 40.16, 10 39.97 S 14.53 40.13, 15 38.71 S 18.9 11.02, 20 10 S 24.17 28.2, 25 29.45 S 28.64 25.81, 30 25.18 S 33.53 25.12, 35 24.84 S 38.54 23.59, 40 23.26 S 43.5 22.55, 45 22.56 S 48.53 23.6, 50 23.33 S 53.51 20.57, 55 20.7 S 58.56 23.76, 60 24.17 S 63.51 23.33, 65 23.51 S 68.59 25.9, 70 25.4 S 73.61 20.51, 75 19.94 S 78.74 20.51, 80 21.33 S 83.69 25.7, 85 26.42 S 88.51 26.66, 90 26.83 S 93.52 27.33, 95 27.59 S 98.5 28.58, 100 28.57 S 103.52 27.75, 105 27.52 S 108.5 26.93, 110 26.99 S 113.53 27.63, 115 27.93 S 118.52 28.75, 120 29.02 S 123.5 29.65, 125 29.77 S 128.51 29.67, 130 29.81 S 133.5 30.78, 135 30.71 S 138.51 29.47, 140 29.33 S 143.51 29.65, 145 29.8 S 148.51 30.49, 150 30.31 S 153.52 28.82, 155 28.6 S 158.5 28.9, 160 28.8 S 163.5 27.81, 165 27.9 S 168.52 29.14, 170 29.39 S 173.51 29.43, 175 29.61 S 178.5 30.63, 180 30.62 S 183.51 29.66, 185 29.52 S 188.55 29.28, 190 29.67 S 193.53 31.9, 195 32.21 S 198.5 31.83, 200 31.79 S 203.5 31.9, 205 31.95"
          fill="none"/>
    <circle r="4" cx="5" cy="40" fill="#3023AE"/>
    <circle r="4" cx="205" cy="31.95" fill="#C86DD7"/>      
</svg>