<svg width="200" height="50" viewBox="0 0 210 50" xmlns="http://www.w3.org/2000/svg">
    <defs>
        <linearGradient x1="0%" y1="0%" x2="100%" y2="0%" id="a">
            <stop stop-color="#3023AE" offset="0%"/>
            <stop stop-color="#C86DD7" offset="100%"/>
        </linearGradient>
    </defs>
    <path stroke="url(#a)"
          stroke-width="3"
          stroke-linejoin="round"
          stroke-linecap="round"
          d="M5 40 C 6.5 39.99, 8.5 39.96, 10 39.95 S 13.5 39.95, 15 39.95 S 18.5 39.95, 20 39.95 S 23.5 39.95, 25 39.95 S 28.5 39.95, 30 39.95 S 33.5 39.95, 35 39.95 S 38.5 39.95, 40 39.95 S 43.5 39.95, 45 39.95 S 48.5 39.95, 50 39.95 S 53.5 39.95, 55 39.95 S 58.5 39.95, 60 39.95 S 63.5 39.95, 65 39.95 S 68.5 39.95, 70 39.95 S 73.5 39.95, 75 39.95 S 78.5 39.95, 80 39.95 S 83.5 39.95, 85 39.95 S 89.52 41.37, 90 39.95 S 93.76 10.85, 95 10 S 99.37 31.72, 100 33.08 S 103.58 31.88, 105 31.41 S 108.6 29.22, 110 29.75 S 113.65 34.57, 115 35.22 S 118.5 34.6, 120 34.53 S 123.52 34.51, 125 34.74 S 128.5 36.02, 130 36.08 S 133.51 35.31, 135 35.12 S 138.5 34.68, 140 34.79 S 143.51 35.69, 145 35.87 S 148.54 35.64, 150 35.97 S 153.5 38.18, 155 38.12 S 158.63 36.17, 160 35.55 S 163.58 34.1, 165 33.61 S 168.53 31.75, 170 32.06 S 173.52 35.49, 175 35.71 S 178.5 33.57, 180 33.56 S 183.54 35.33, 185 35.65 S 188.5 35.87, 190 35.76 S 193.5 34.92, 195 34.9 S 198.5 35.7, 200 35.65 S 203.53 34.89, 205 34.58"
          fill="none"/>
    <circle r="4" cx="5" cy="40" fill="#3023AE"/>
    <circle r="4" cx="205" cy="34.58" fill="#C86DD7"/>      
</svg>