<svg width="200" height="50" viewBox="0 0 210 50" xmlns="http://www.w3.org/2000/svg">
    <defs>
        <linearGradient x1="0%" y1="0%" x2="100%" y2="0%" id="a">
            <stop stop-color="#3023AE" offset="0%"/>
            <stop stop-color="#C86DD7" offset="100%"/>
        </linearGradient>
    </defs>
    <path stroke="url(#a)"
          stroke-width="3"
          stroke-linejoin="round"
          stroke-linecap="round"
          d="M5 40 C 6.5 39.98, 8.5 39.95, 10 39.94 S 13.5 39.94, 15 39.94 S 18.5 39.94, 20 39.94 S 23.5 39.94, 25 39.94 S 28.5 39.94, 30 39.94 S 33.5 39.94, 35 39.94 S 38.5 39.94, 40 39.94 S 43.5 39.94, 45 39.94 S 48.5 39.94, 50 39.94 S 53.5 39.94, 55 39.94 S 58.5 39.94, 60 39.94 S 63.5 39.94, 65 39.94 S 68.5 39.94, 70 39.94 S 73.5 39.94, 75 39.94 S 79.52 41.36, 80 39.94 S 83.88 11, 85 10 S 89.27 29.76, 90 31.07 S 93.5 27.88, 95 27.91 S 98.78 30.37, 100 31.24 S 103.52 34.85, 105 35.08 S 108.5 32.77, 110 32.82 S 113.51 35.27, 115 35.42 S 118.52 34.07, 120 33.84 S 123.52 33.61, 125 33.84 S 128.51 35.16, 130 35.37 S 133.52 34.99, 135 35.25 S 138.5 37.09, 140 37.12 S 143.74 36.29, 145 35.48 S 148.54 31.08, 150 30.73 S 153.55 32.67, 155 33.05 S 158.51 33.16, 160 33.33 S 163.52 33.94, 165 34.18 S 168.5 34.9, 170 34.92 S 173.5 34.26, 175 34.29 S 178.5 35.19, 180 35.14 S 183.5 33.92, 185 33.95 S 188.52 35.1, 190 35.37 S 193.5 35.83, 195 35.76 S 198.51 34.73, 200 34.92 S 203.62 36.47, 205 37.06"
          fill="none"/>
    <circle r="4" cx="5" cy="40" fill="#3023AE"/>
    <circle r="4" cx="205" cy="37.06" fill="#C86DD7"/>      
</svg>