<svg width="200" height="50" viewBox="0 0 210 50" xmlns="http://www.w3.org/2000/svg">
    <defs>
        <linearGradient x1="0%" y1="0%" x2="100%" y2="0%" id="a">
            <stop stop-color="#3023AE" offset="0%"/>
            <stop stop-color="#C86DD7" offset="100%"/>
        </linearGradient>
    </defs>
    <path stroke="url(#a)"
          stroke-width="3"
          stroke-linejoin="round"
          stroke-linecap="round"
          d="M5 40 C 6.28 39.21, 9.31 38.25, 10 36.92 S 13.5 20.83, 15 20.77 S 19.3 35.21, 20 36.54 S 23.53 39.34, 25 39.62 S 28.5 38.46, 30 38.46 S 33.53 39.9, 35 39.62 S 38.92 37.58, 40 36.54 S 43.51 29.83, 45 30 S 48.74 36.87, 50 37.69 S 54.49 37.95, 55 36.54 S 59.11 11.2, 60 10 S 64.42 21.7, 65 23.08 S 68.83 34.79, 70 33.85 S 73.57 14.56, 75 15 S 79.36 35.56, 80 36.92 S 83.5 36.15, 85 36.15 S 88.52 36.69, 90 36.92 S 93.52 37.92, 95 37.69 S 98.5 35.5, 100 35.38 S 103.52 37.15, 105 36.92 S 108.5 33.91, 110 33.85 S 113.54 36.2, 115 36.54 S 118.53 35.87, 120 36.15 S 123.51 38.63, 125 38.46 S 128.51 35.17, 130 35 S 133.52 37.08, 135 37.31 S 138.5 36.48, 140 36.54 S 143.55 38.08, 145 37.69 S 148.57 34.29, 150 33.85 S 153.64 33.99, 155 34.62 S 158.57 38.02, 160 38.46 S 163.5 37.69, 165 37.69 S 168.5 38.46, 170 38.46 S 173.51 37.86, 175 37.69 S 178.53 37.59, 180 37.31 S 183.53 35.49, 185 35.77 S 188.55 38.84, 190 39.23 S 193.54 38.8, 195 38.46 S 198.51 37.09, 200 36.92 S 203.5 37.19, 205 37.31"
          fill="none"/>
    <circle r="4" cx="5" cy="40" fill="#3023AE"/>
    <circle r="4" cx="205" cy="37.31" fill="#C86DD7"/>      
</svg>