<svg width="200" height="50" viewBox="0 0 210 50" xmlns="http://www.w3.org/2000/svg">
    <defs>
        <linearGradient x1="0%" y1="0%" x2="100%" y2="0%" id="a">
            <stop stop-color="#3023AE" offset="0%"/>
            <stop stop-color="#C86DD7" offset="100%"/>
        </linearGradient>
    </defs>
    <path stroke="url(#a)"
          stroke-width="3"
          stroke-linejoin="round"
          stroke-linecap="round"
          d="M5 40 C 6.35 39.34, 8.51 37.69, 10 37.54 S 13.54 38.7, 15 39.02 S 18.5 39.64, 20 39.75 S 23.5 39.75, 25 39.75 S 28.5 39.82, 30 39.75 S 33.5 39.3, 35 39.26 S 38.5 39.51, 40 39.51 S 43.5 39.33, 45 39.26 S 48.68 39.73, 50 39.02 S 53.5 33.96, 55 33.85 S 58.54 37.95, 60 38.28 S 63.51 36.22, 65 36.07 S 68.53 37.01, 70 37.3 S 73.54 38.36, 75 38.03 S 78.52 35.3, 80 35.08 S 83.55 36.17, 85 36.56 S 88.51 37.64, 90 37.79 S 94.12 38.75, 95 37.54 S 98.72 24.81, 100 24.02 S 104.02 30.26, 105 31.39 S 108.55 35.18, 110 35.57 S 113.51 33.92, 115 34.1 S 118.5 36.69, 120 36.8 S 123.5 34.77, 125 34.84 S 128.5 37.41, 130 37.3 S 133.5 34.21, 135 34.1 S 138.52 36.78, 140 36.56 S 143.84 33.57, 145 32.62 S 148.51 28.29, 150 28.44 S 153.64 34.24, 155 33.61 S 158.74 24.58, 160 23.77 S 163.92 28.25, 165 27.21 S 168.9 15.2, 170 14.18 S 173.71 17.11, 175 17.87 S 178.51 20.26, 180 20.08 S 183.94 17.7, 185 16.64 S 188.52 10.25, 190 10 S 193.75 14.09, 195 14.92 S 198.53 16.35, 200 16.64 S 203.5 16.82, 205 16.89"
          fill="none"/>
    <circle r="4" cx="5" cy="40" fill="#3023AE"/>
    <circle r="4" cx="205" cy="16.89" fill="#C86DD7"/>      
</svg>