<svg width="200" height="50" viewBox="0 0 210 50" xmlns="http://www.w3.org/2000/svg">
    <defs>
        <linearGradient x1="0%" y1="0%" x2="100%" y2="0%" id="a">
            <stop stop-color="#3023AE" offset="0%"/>
            <stop stop-color="#C86DD7" offset="100%"/>
        </linearGradient>
    </defs>
    <path stroke="url(#a)"
          stroke-width="3"
          stroke-linejoin="round"
          stroke-linecap="round"
          d="M5 40 C 6.5 39.96, 8.5 39.87, 10 39.86 S 13.5 39.94, 15 39.95 S 18.5 39.95, 20 39.95 S 23.5 39.96, 25 39.95 S 28.5 39.86, 30 39.86 S 33.5 39.99, 35 39.95 S 38.5 39.69, 40 39.62 S 43.5 39.47, 45 39.48 S 48.5 39.67, 50 39.67 S 53.5 39.58, 55 39.48 S 58.5 39.05, 60 39 S 63.5 39.09, 65 39.14 S 68.5 39.36, 70 39.33 S 73.52 39.18, 75 38.95 S 78.5 37.91, 80 37.81 S 83.5 38.25, 85 38.29 S 88.5 38.11, 90 38.05 S 93.5 37.92, 95 37.86 S 98.5 37.68, 100 37.67 S 103.51 37.97, 105 37.81 S 108.54 36.96, 110 36.62 S 113.51 35.67, 115 35.48 S 118.51 35.2, 120 35.34 S 123.51 36.19, 125 36.39 S 128.5 36.55, 130 36.67 S 133.51 37.05, 135 37.19 S 138.52 37.8, 140 37.58 S 143.55 36.11, 145 35.72 S 149.46 36.27, 150 34.87 S 153.5 10.12, 155 10 S 159.42 32.72, 160 34.1 S 163.5 33.67, 165 33.77 S 168.5 34.73, 170 34.77 S 173.57 34.48, 175 34.01 S 178.5 31.55, 180 31.49 S 183.53 33.32, 185 33.63 S 188.52 33.38, 190 33.63 S 193.5 35.38, 195 35.34 S 198.56 33.76, 200 33.34 S 203.52 32.71, 205 32.44"
          fill="none"/>
    <circle r="4" cx="5" cy="40" fill="#3023AE"/>
    <circle r="4" cx="205" cy="32.44" fill="#C86DD7"/>      
</svg>