<svg width="200" height="50" viewBox="0 0 210 50" xmlns="http://www.w3.org/2000/svg">
    <defs>
        <linearGradient x1="0%" y1="0%" x2="100%" y2="0%" id="a">
            <stop stop-color="#3023AE" offset="0%"/>
            <stop stop-color="#C86DD7" offset="100%"/>
        </linearGradient>
    </defs>
    <path stroke="url(#a)"
          stroke-width="3"
          stroke-linejoin="round"
          stroke-linecap="round"
          d="M5 40 C 5.61 38.63, 8.6 29.28, 10 28.75 S 13.8 35.35, 15 36.25 S 18.8 37.15, 20 36.25 S 23.5 28.75, 25 28.75 S 28.6 35.72, 30 36.25 S 33.5 32.5, 35 32.5 S 38.6 35.72, 40 36.25 S 43.6 36.78, 45 36.25 S 48.5 32.5, 50 32.5 S 53.6 35.72, 55 36.25 S 59.47 37.65, 60 36.25 S 63.8 10.9, 65 10 S 69.29 27.43, 70 28.75 S 73.8 27.85, 75 28.75 S 78.8 35.35, 80 36.25 S 83.5 36.25, 85 36.25 S 88.5 36.25, 90 36.25 S 94 37.37, 95 36.25 S 98.5 25, 100 25 S 104 35.13, 105 36.25 S 108.6 36.78, 110 36.25 S 114.17 33.75, 115 32.5 S 118.6 20.72, 120 21.25 S 123.8 35.35, 125 36.25 S 128.6 29.28, 130 28.75 S 133.6 33.03, 135 32.5 S 138.6 25.53, 140 25 S 143.6 29.28, 145 28.75 S 148.6 20.72, 150 21.25 S 153.6 31.97, 155 32.5 S 159.17 26.25, 160 25 S 164 16.38, 165 17.5 S 169.29 34.93, 170 36.25 S 173.8 37.15, 175 36.25 S 179.17 30, 180 28.75 S 183.6 20.72, 185 21.25 S 188.6 31.97, 190 32.5 S 193.6 25.53, 195 25 S 198.5 28.75, 200 28.75 S 203.8 25.9, 205 25"
          fill="none"/>
    <circle r="4" cx="5" cy="40" fill="#3023AE"/>
    <circle r="4" cx="205" cy="25" fill="#C86DD7"/>      
</svg>