<svg width="200" height="50" viewBox="0 0 210 50" xmlns="http://www.w3.org/2000/svg">
    <defs>
        <linearGradient x1="0%" y1="0%" x2="100%" y2="0%" id="a">
            <stop stop-color="#3023AE" offset="0%"/>
            <stop stop-color="#C86DD7" offset="100%"/>
        </linearGradient>
    </defs>
    <path stroke="url(#a)"
          stroke-width="3"
          stroke-linejoin="round"
          stroke-linecap="round"
          d="M5 40 C 6.39 39.44, 8.53 38.29, 10 38 S 13.5 38, 15 38 S 18.5 38, 20 38 S 23.5 38, 25 38 S 28.5 38, 30 38 S 33.5 38, 35 38 S 38.5 38, 40 38 S 43.5 38, 45 38 S 48.5 38, 50 38 S 53.5 38, 55 38 S 58.5 38, 60 38 S 63.5 38, 65 38 S 68.5 38, 70 38 S 73.5 38, 75 38 S 78.5 38, 80 38 S 83.5 38, 85 38 S 88.5 38, 90 38 S 93.5 38, 95 38 S 98.5 38, 100 38 S 103.5 38, 105 38 S 108.5 38, 110 38 S 113.5 38, 115 38 S 118.5 38, 120 38 S 123.5 38, 125 38 S 128.5 38, 130 38 S 133.71 38.77, 135 38 S 139.46 33.4, 140 32 S 144.38 13.37, 145 12 S 149.21 8.73, 150 10 S 153.94 26.94, 155 28 S 158.53 19.71, 160 20 S 163.61 29.44, 165 30 S 168.71 24.77, 170 24 S 173.71 23.23, 175 24 S 178.61 29.44, 180 30 S 183.53 27.71, 185 28 S 188.53 32.29, 190 32 S 193.53 26.29, 195 26 S 198.5 30, 200 30 S 203.83 26.94, 205 26"
          fill="none"/>
    <circle r="4" cx="5" cy="40" fill="#3023AE"/>
    <circle r="4" cx="205" cy="26" fill="#C86DD7"/>      
</svg>