<svg width="200" height="50" viewBox="0 0 210 50" xmlns="http://www.w3.org/2000/svg">
    <defs>
        <linearGradient x1="0%" y1="0%" x2="100%" y2="0%" id="a">
            <stop stop-color="#3023AE" offset="0%"/>
            <stop stop-color="#C86DD7" offset="100%"/>
        </linearGradient>
    </defs>
    <path stroke="url(#a)"
          stroke-width="3"
          stroke-linejoin="round"
          stroke-linecap="round"
          d="M5 40 C 5.73 38.69, 8.71 31.77, 10 31 S 13.71 33.23, 15 34 S 18.5 37, 20 37 S 24.17 35.25, 25 34 S 28.56 22.43, 30 22 S 34.04 29.85, 35 31 S 38.89 35, 40 34 S 44.42 23.38, 45 22 S 48.71 9.23, 50 10 S 54.27 26.69, 55 28 S 58.71 28.77, 60 28 S 64.04 23.15, 65 22 S 68.5 16, 70 16 S 74.36 20.65, 75 22 S 78.56 36.57, 80 37 S 84.04 26.15, 85 25 S 88.5 25, 90 25 S 94.04 23.85, 95 25 S 99.04 35.85, 100 37 S 103.71 37.77, 105 37 S 109.17 32.25, 110 31 S 114.04 23.15, 115 22 S 118.71 18.23, 120 19 S 123.56 28.43, 125 28 S 128.71 15.23, 130 16 S 134.04 32.85, 135 34 S 138.71 28.77, 140 28 S 143.56 27.57, 145 28 S 148.56 30.57, 150 31 S 154.04 32.15, 155 31 S 158.56 18.57, 160 19 S 163.56 33.57, 165 34 S 169.36 23.35, 170 22 S 174.04 11.85, 175 13 S 179.36 32.65, 180 34 S 183.71 34.77, 185 34 S 188.71 28.77, 190 28 S 193.56 27.57, 195 28 S 198.56 31.43, 200 31 S 204.04 26.15, 205 25"
          fill="none"/>
    <circle r="4" cx="5" cy="40" fill="#3023AE"/>
    <circle r="4" cx="205" cy="25" fill="#C86DD7"/>      
</svg>