<svg width="200" height="50" viewBox="0 0 210 50" xmlns="http://www.w3.org/2000/svg">
    <defs>
        <linearGradient x1="0%" y1="0%" x2="100%" y2="0%" id="a">
            <stop stop-color="#3023AE" offset="0%"/>
            <stop stop-color="#C86DD7" offset="100%"/>
        </linearGradient>
    </defs>
    <path stroke="url(#a)"
          stroke-width="3"
          stroke-linejoin="round"
          stroke-linecap="round"
          d="M5 40 C 5.25 38.52, 8.74 10.82, 10 10 S 14.42 32.11, 15 33.5 S 18.58 33.59, 20 34.08 S 23.57 36.5, 25 36.95 S 28.5 37.12, 30 37.23 S 33.5 37.63, 35 37.71 S 38.5 37.75, 40 37.78 S 43.51 38.05, 45 37.93 S 48.5 36.98, 50 36.95 S 53.51 37.61, 55 37.73 S 58.5 37.81, 60 37.78 S 63.5 37.58, 65 37.55 S 68.5 37.53, 70 37.61 S 73.51 37.93, 75 38.06 S 78.5 38.53, 80 38.51 S 83.5 38.02, 85 37.93 S 88.51 38.04, 90 37.91 S 93.5 37, 95 37.03 S 98.51 37.92, 100 38.08 S 103.5 38.17, 105 38.13 S 108.5 37.87, 110 37.83 S 113.55 38.25, 115 37.86 S 118.5 35.22, 120 35.16 S 123.55 37.05, 125 37.43 S 128.51 37.89, 130 37.76 S 133.51 36.77, 135 36.57 S 138.52 36.17, 140 36.39 S 143.5 38.02, 145 38.08 S 148.5 36.81, 150 36.77 S 153.51 37.64, 155 37.78 S 158.5 37.74, 160 37.68 S 163.5 37.35, 165 37.35 S 168.5 37.62, 170 37.71 S 173.51 38.15, 175 37.96 S 178.55 36.79, 180 36.42 S 183.5 35.31, 185 35.39 S 188.52 36.72, 190 36.97 S 193.5 36.99, 195 37.05 S 198.5 37.35, 200 37.4 S 203.5 37.4, 205 37.4"
          fill="none"/>
    <circle r="4" cx="5" cy="40" fill="#3023AE"/>
    <circle r="4" cx="205" cy="37.4" fill="#C86DD7"/>      
</svg>