<svg width="200" height="50" viewBox="0 0 210 50" xmlns="http://www.w3.org/2000/svg">
    <defs>
        <linearGradient x1="0%" y1="0%" x2="100%" y2="0%" id="a">
            <stop stop-color="#3023AE" offset="0%"/>
            <stop stop-color="#C86DD7" offset="100%"/>
        </linearGradient>
    </defs>
    <path stroke="url(#a)"
          stroke-width="3"
          stroke-linejoin="round"
          stroke-linecap="round"
          d="M5 40 C 5.25 38.52, 8.7 10.74, 10 10 S 14.41 32.92, 15 34.3 S 18.54 33.25, 20 33.59 S 23.6 36.11, 25 36.66 S 28.51 37.32, 30 37.49 S 33.5 37.76, 35 37.8 S 38.5 37.68, 40 37.74 S 43.5 38.29, 45 38.18 S 48.5 37.08, 50 37.01 S 53.5 37.64, 55 37.72 S 58.5 37.46, 60 37.52 S 63.5 38.1, 65 38.12 S 68.5 37.73, 70 37.64 S 73.51 37.39, 75 37.52 S 78.5 38.46, 80 38.53 S 83.5 38.08, 85 38.02 S 88.5 38.2, 90 38.12 S 93.5 37.56, 95 37.49 S 98.5 37.52, 100 37.62 S 103.5 38.08, 105 38.15 S 108.5 38.2, 110 38.1 S 113.5 37.45, 115 37.47 S 118.54 38.61, 120 38.25 S 123.5 35.06, 125 34.98 S 128.56 37.29, 130 37.69 S 133.51 37.93, 135 37.77 S 138.52 36.86, 140 36.63 S 143.53 35.93, 145 36.2 S 148.5 38.4, 150 38.48 S 153.5 36.8, 155 36.71 S 158.51 37.69, 160 37.87 S 163.5 37.98, 165 37.9 S 168.5 37.34, 170 37.31 S 173.5 37.55, 175 37.67 S 178.5 38.19, 180 38.1 S 183.56 37.46, 185 37.04 S 188.5 35.19, 190 35.16 S 193.53 36.54, 195 36.83 S 198.5 37.11, 200 37.16 S 203.5 37.16, 205 37.16"
          fill="none"/>
    <circle r="4" cx="5" cy="40" fill="#3023AE"/>
    <circle r="4" cx="205" cy="37.16" fill="#C86DD7"/>      
</svg>