<svg width="200" height="50" viewBox="0 0 210 50" xmlns="http://www.w3.org/2000/svg">
    <defs>
        <linearGradient x1="0%" y1="0%" x2="100%" y2="0%" id="a">
            <stop stop-color="#3023AE" offset="0%"/>
            <stop stop-color="#C86DD7" offset="100%"/>
        </linearGradient>
    </defs>
    <path stroke="url(#a)"
          stroke-width="3"
          stroke-linejoin="round"
          stroke-linecap="round"
          d="M5 40 C 5.34 38.54, 8.93 19.78, 10 18.73 S 14.29 28.81, 15 30.13 S 18.7 36.6, 20 37.34 S 23.65 36.48, 25 35.82 S 28.6 31.88, 30 32.41 S 33.74 38.81, 35 39.62 S 38.54 39.19, 40 38.86 S 43.95 38.41, 45 37.34 S 48.5 28.61, 50 28.61 S 53.62 37.92, 55 37.34 S 58.5 24.37, 60 24.43 S 63.81 36.81, 65 37.72 S 68.5 32.09, 70 32.03 S 73.62 36.76, 75 37.34 S 78.5 36.09, 80 36.2 S 83.51 37.93, 85 38.1 S 88.62 37.92, 90 37.34 S 93.5 34.03, 95 33.92 S 98.64 35.96, 100 36.58 S 103.54 38.15, 105 38.48 S 109.5 40.28, 110 38.86 S 113.7 10.74, 115 10 S 119.48 31.75, 120 33.16 S 123.51 37.17, 125 37.34 S 128.52 34.53, 130 34.3 S 133.5 35.71, 135 35.82 S 138.54 34.73, 140 35.06 S 143.55 37.71, 145 38.1 S 148.91 38.75, 150 37.72 S 153.52 28.84, 155 28.61 S 158.5 36.09, 160 36.2 S 163.5 29.48, 165 29.37 S 168.76 34.59, 170 35.44 S 173.5 36.09, 175 36.2 S 178.6 36.73, 180 36.2 S 183.5 32.47, 185 32.41 S 188.56 35.39, 190 35.82 S 193.5 35.44, 195 35.44 S 198.5 35.71, 200 35.82 S 203.5 36.09, 205 36.2"
          fill="none"/>
    <circle r="4" cx="5" cy="40" fill="#3023AE"/>
    <circle r="4" cx="205" cy="36.2" fill="#C86DD7"/>      
</svg>