<svg width="200" height="50" viewBox="0 0 210 50" xmlns="http://www.w3.org/2000/svg">
    <defs>
        <linearGradient x1="0%" y1="0%" x2="100%" y2="0%" id="a">
            <stop stop-color="#3023AE" offset="0%"/>
            <stop stop-color="#C86DD7" offset="100%"/>
        </linearGradient>
    </defs>
    <path stroke="url(#a)"
          stroke-width="3"
          stroke-linejoin="round"
          stroke-linecap="round"
          d="M5 40 C 6.2 39.1, 8.6 36.78, 10 36.25 S 13.5 36.25, 15 36.25 S 18.5 36.25, 20 36.25 S 23.5 36.25, 25 36.25 S 28.5 36.25, 30 36.25 S 33.5 36.25, 35 36.25 S 38.5 36.25, 40 36.25 S 43.5 36.25, 45 36.25 S 48.5 36.25, 50 36.25 S 53.5 36.25, 55 36.25 S 58.5 36.25, 60 36.25 S 63.5 36.25, 65 36.25 S 68.5 36.25, 70 36.25 S 73.5 36.25, 75 36.25 S 78.5 36.25, 80 36.25 S 83.5 36.25, 85 36.25 S 88.5 36.25, 90 36.25 S 93.5 36.25, 95 36.25 S 98.5 36.25, 100 36.25 S 103.5 36.25, 105 36.25 S 109.17 37.5, 110 36.25 S 114.17 22.5, 115 21.25 S 119 20.13, 120 21.25 S 124.17 31.25, 125 32.5 S 128.6 35.72, 130 36.25 S 133.5 36.25, 135 36.25 S 138.5 36.25, 140 36.25 S 144.47 37.65, 145 36.25 S 148.5 10, 150 10 S 154.47 34.85, 155 36.25 S 158.5 36.25, 160 36.25 S 163.5 36.25, 165 36.25 S 168.5 36.25, 170 36.25 S 174 37.37, 175 36.25 S 178.6 25.53, 180 25 S 184 31.38, 185 32.5 S 188.8 37.15, 190 36.25 S 193.5 25, 195 25 S 199.39 34.88, 200 36.25"
          fill="none"/>
    <circle r="4" cx="5" cy="40" fill="#3023AE"/>
    <circle r="4" cx="200" cy="36.25" fill="#C86DD7"/>      
</svg>