<svg width="200" height="50" viewBox="0 0 210 50" xmlns="http://www.w3.org/2000/svg">
    <defs>
        <linearGradient x1="0%" y1="0%" x2="100%" y2="0%" id="a">
            <stop stop-color="#3023AE" offset="0%"/>
            <stop stop-color="#C86DD7" offset="100%"/>
        </linearGradient>
    </defs>
    <path stroke="url(#a)"
          stroke-width="3"
          stroke-linejoin="round"
          stroke-linecap="round"
          d="M5 40 C 5.96 38.85, 8.56 34.43, 10 34 S 13.56 36.57, 15 37 S 18.5 37, 20 37 S 23.5 37, 25 37 S 28.5 37, 30 37 S 33.5 37, 35 37 S 38.5 37, 40 37 S 43.89 38, 45 37 S 48.56 28.43, 50 28 S 53.5 34, 55 34 S 59.42 29.38, 60 28 S 63.56 9.57, 65 10 S 69.42 29.62, 70 31 S 73.89 35, 75 34 S 78.71 22.77, 80 22 S 84.17 26.75, 85 28 S 88.56 36.57, 90 37 S 94.04 32.15, 95 31 S 98.71 25.77, 100 25 S 103.89 24, 105 25 S 108.89 33, 110 34 S 113.56 33.57, 115 34 S 118.56 36.57, 120 37 S 123.5 37, 125 37 S 128.5 37, 130 37 S 133.5 37, 135 37 S 138.5 37, 140 37 S 143.5 37, 145 37 S 148.5 37, 150 37 S 153.5 37, 155 37 S 158.5 37, 160 37 S 163.5 37, 165 37 S 168.5 37, 170 37 S 173.71 37.77, 175 37 S 178.71 31.77, 180 31 S 183.5 31, 185 31 S 188.71 30.23, 190 31 S 193.71 36.23, 195 37 S 198.89 38, 200 37 S 204.27 29.31, 205 28"
          fill="none"/>
    <circle r="4" cx="5" cy="40" fill="#3023AE"/>
    <circle r="4" cx="205" cy="28" fill="#C86DD7"/>      
</svg>