<svg width="200" height="50" viewBox="0 0 210 50" xmlns="http://www.w3.org/2000/svg">
    <defs>
        <linearGradient x1="0%" y1="0%" x2="100%" y2="0%" id="a">
            <stop stop-color="#3023AE" offset="0%"/>
            <stop stop-color="#C86DD7" offset="100%"/>
        </linearGradient>
    </defs>
    <path stroke="url(#a)"
          stroke-width="3"
          stroke-linejoin="round"
          stroke-linecap="round"
          d="M5 40 C 5.25 38.52, 8.68 10.71, 10 10 S 14.5 33.23, 15 34.64 S 18.56 37.7, 20 38.12 S 23.51 37.75, 25 37.59 S 28.5 36.93, 30 37.05 S 33.5 38.27, 35 38.39 S 38.5 37.78, 40 37.86 S 43.5 38.81, 45 38.93 S 48.5 38.54, 50 38.66 S 53.53 40.01, 55 39.73 S 58.86 37.77, 60 36.79 S 63.53 31.48, 65 31.16 S 68.6 34.11, 70 34.64 S 73.53 34.63, 75 34.91 S 78.98 37.62, 80 36.52 S 83.52 24.44, 85 24.2 S 88.98 33.81, 90 34.91 S 93.51 34.71, 95 34.91 S 98.5 36.13, 100 36.25 S 103.51 35.91, 105 35.71 S 108.69 35.64, 110 34.91 S 113.5 30.01, 115 30.09 S 118.75 34.62, 120 35.45 S 123.53 37.11, 125 36.79 S 128.53 33.58, 130 33.3 S 133.57 35.37, 135 34.91 S 138.5 30.13, 140 30.09 S 143.62 34.05, 145 34.64 S 148.62 34.96, 150 34.37 S 153.51 30.56, 155 30.36 S 158.58 32.55, 160 33.04 S 163.52 33.6, 165 33.84 S 168.5 34.72, 170 34.64 S 173.51 33.46, 175 33.3 S 178.81 34.49, 180 33.57 S 183.66 26.22, 185 25.54 S 188.86 27.5, 190 28.48 S 193.5 34.07, 195 34.11 S 198.53 29.03, 200 28.75 S 203.77 31.37, 205 32.23"
          fill="none"/>
    <circle r="4" cx="5" cy="40" fill="#3023AE"/>
    <circle r="4" cx="205" cy="32.230000000000004" fill="#C86DD7"/>      
</svg>