<svg width="200" height="50" viewBox="0 0 210 50" xmlns="http://www.w3.org/2000/svg">
    <defs>
        <linearGradient x1="0%" y1="0%" x2="100%" y2="0%" id="a">
            <stop stop-color="#3023AE" offset="0%"/>
            <stop stop-color="#C86DD7" offset="100%"/>
        </linearGradient>
    </defs>
    <path stroke="url(#a)"
          stroke-width="3"
          stroke-linejoin="round"
          stroke-linecap="round"
          d="M5 40 C 5.25 38.52, 8.54 10.36, 10 10 S 14.51 36.11, 15 37.53 S 18.52 38.55, 20 38.77 S 23.5 38.92, 25 39 S 28.5 39.28, 30 39.29 S 33.5 39.12, 35 39.09 S 38.5 39.12, 40 39.09 S 43.5 38.89, 45 38.88 S 48.5 39.01, 50 39.04 S 53.58 39.54, 55 39.06 S 58.5 35.76, 60 35.64 S 63.51 38.13, 65 38.26 S 68.5 36.43, 70 36.52 S 73.53 38.6, 75 38.88 S 78.5 38.37, 80 38.41 S 83.51 38.98, 85 39.12 S 88.5 39.37, 90 39.34 S 93.5 38.94, 95 38.93 S 98.5 39.21, 100 39.25 S 103.5 39.19, 105 39.22 S 108.5 39.42, 110 39.42 S 113.5 39.32, 115 39.24 S 118.5 38.85, 120 38.86 S 123.5 39.24, 125 39.29 S 129 40.33, 130 39.22 S 133.53 28.5, 135 28.19 S 138.54 36.76, 140 37.11 S 144.27 31.92, 145 30.61 S 148.79 18.3, 150 19.19 S 154.31 36.61, 155 37.94 S 158.51 38.46, 160 38.59 S 163.5 38.8, 165 38.83 S 168.5 38.72, 170 38.8 S 173.5 39.28, 175 39.34 S 178.5 39.24, 180 39.2 S 183.5 39.02, 185 39.06 S 188.5 39.43, 190 39.46 S 193.55 39.67, 195 39.27 S 198.5 36.69, 200 36.69 S 203.67 38.57, 205 39.26"
          fill="none"/>
    <circle r="4" cx="5" cy="40" fill="#3023AE"/>
    <circle r="4" cx="205" cy="39.26" fill="#C86DD7"/>      
</svg>