<svg width="200" height="50" viewBox="0 0 210 50" xmlns="http://www.w3.org/2000/svg">
    <defs>
        <linearGradient x1="0%" y1="0%" x2="100%" y2="0%" id="a">
            <stop stop-color="#3023AE" offset="0%"/>
            <stop stop-color="#C86DD7" offset="100%"/>
        </linearGradient>
    </defs>
    <path stroke="url(#a)"
          stroke-width="3"
          stroke-linejoin="round"
          stroke-linecap="round"
          d="M5 40 C 6.5 39.99, 8.5 39.97, 10 39.97 S 13.5 39.99, 15 39.99 S 19.53 41.38, 20 39.96 S 23.74 10.82, 25 10 S 29.43 32.05, 30 33.44 S 33.5 34.34, 35 34.44 S 38.51 33.95, 40 34.1 S 43.54 35.11, 45 35.45 S 48.53 36.13, 50 36.41 S 53.5 37.31, 55 37.34 S 58.5 36.69, 60 36.59 S 63.5 36.66, 65 36.65 S 68.5 36.51, 70 36.54 S 73.5 36.74, 75 36.82 S 78.5 37.11, 80 37.07 S 83.5 36.61, 85 36.57 S 88.5 36.76, 90 36.83 S 93.5 37.12, 95 37.07 S 98.5 36.53, 100 36.48 S 103.5 36.68, 105 36.72 S 108.5 36.7, 110 36.76 S 113.5 37.04, 115 37.09 S 118.5 37.07, 120 37.07 S 123.5 37.05, 125 37.06 S 128.5 37.06, 130 37.11 S 133.5 37.39, 135 37.41 S 138.5 37.2, 140 37.22 S 143.5 37.51, 145 37.54 S 148.5 37.4, 150 37.41 S 153.5 37.63, 155 37.6 S 158.5 37.28, 160 37.24 S 163.5 37.23, 165 37.35 S 168.5 37.95, 170 38.05 S 173.53 38.31, 175 38 S 178.5 35.98, 180 35.93 S 183.52 37.4, 185 37.64 S 188.5 37.5, 190 37.56 S 193.5 38, 195 38.04 S 198.5 37.88, 200 37.85 S 203.5 37.83, 205 37.82"
          fill="none"/>
    <circle r="4" cx="5" cy="40" fill="#3023AE"/>
    <circle r="4" cx="205" cy="37.82" fill="#C86DD7"/>      
</svg>