<svg width="200" height="50" viewBox="0 0 210 50" xmlns="http://www.w3.org/2000/svg">
    <defs>
        <linearGradient x1="0%" y1="0%" x2="100%" y2="0%" id="a">
            <stop stop-color="#3023AE" offset="0%"/>
            <stop stop-color="#C86DD7" offset="100%"/>
        </linearGradient>
    </defs>
    <path stroke="url(#a)"
          stroke-width="3"
          stroke-linejoin="round"
          stroke-linecap="round"
          d="M5 40 C 6.25 39.17, 8.54 37.03, 10 36.67 S 13.54 37.14, 15 37.5 S 18.52 38.92, 20 39.17 S 23.5 39.17, 25 39.17 S 28.5 39.17, 30 39.17 S 33.52 39.42, 35 39.17 S 38.54 37.86, 40 37.5 S 43.62 37.25, 45 36.67 S 48.5 33.33, 50 33.33 S 53.52 36.42, 55 36.67 S 58.98 36.1, 60 35 S 63.66 26.5, 65 25.83 S 68.7 29.24, 70 30 S 73.62 31.09, 75 31.67 S 78.58 33.7, 80 34.17 S 83.75 35.83, 85 35 S 88.51 27.38, 90 27.5 S 93.66 36.5, 95 35.83 S 99.17 23.75, 100 22.5 S 103.58 21.3, 105 20.83 S 108.51 19.04, 110 19.17 S 113.66 21, 115 21.67 S 118.62 23.59, 120 24.17 S 123.54 25.47, 125 25.83 S 128.54 27.03, 130 26.67 S 133.85 24.29, 135 23.33 S 139.1 19.53, 140 18.33 S 143.58 10.47, 145 10 S 149.06 13.83, 150 15 S 153.94 21.44, 155 22.5 S 158.66 25.67, 160 25 S 163.54 17.86, 165 17.5 S 168.62 21.92, 170 22.5 S 173.5 21.67, 175 21.67 S 178.54 22.14, 180 22.5 S 183.89 25.18, 185 24.17 S 188.62 13.91, 190 13.33 S 193.62 19.42, 195 20 S 198.62 16.92, 200 17.5 S 204.1 22.97, 205 24.17"
          fill="none"/>
    <circle r="4" cx="5" cy="40" fill="#3023AE"/>
    <circle r="4" cx="205" cy="24.17" fill="#C86DD7"/>      
</svg>