<svg width="200" height="50" viewBox="0 0 210 50" xmlns="http://www.w3.org/2000/svg">
    <defs>
        <linearGradient x1="0%" y1="0%" x2="100%" y2="0%" id="a">
            <stop stop-color="#3023AE" offset="0%"/>
            <stop stop-color="#C86DD7" offset="100%"/>
        </linearGradient>
    </defs>
    <path stroke="url(#a)"
          stroke-width="3"
          stroke-linejoin="round"
          stroke-linecap="round"
          d="M5 40 C 6.5 40, 8.92 41.04, 10 39.99 S 14.53 31.7, 15 30.28 S 18.78 9.13, 20 10 S 24.25 36.15, 25 37.45 S 28.58 27.66, 30 27.18 S 33.78 34.93, 35 34.05 S 38.58 19.49, 40 19.97 S 44.33 36.09, 45 37.43 S 48.51 40.13, 50 39.99 S 54.31 37.81, 55 36.48 S 58.87 21.8, 60 20.81 S 63.95 26.69, 65 27.76 S 68.59 30.53, 70 31.05 S 73.51 31.34, 75 31.48 S 78.5 31.92, 80 31.98 S 83.5 31.79, 85 31.9 S 88.5 32.7, 90 32.72 S 93.5 32.07, 95 32.04 S 98.5 32.58, 100 32.53 S 103.52 31.94, 105 31.69 S 108.51 31.03, 110 30.82 S 113.51 30.49, 115 30.28 S 118.51 29.61, 120 29.41 S 123.5 28.89, 125 28.96 S 128.5 29.8, 130 29.85 S 133.52 29.53, 135 29.31 S 138.5 28.45, 140 28.35 S 143.61 29.21, 145 28.64 S 148.63 24.84, 150 24.23 S 153.5 24.17, 155 24.18 S 158.53 24.59, 160 24.27 S 163.51 22.12, 165 21.99 S 168.5 23.48, 170 23.42 S 173.51 21.78, 175 21.61 S 178.52 22.06, 180 22.3 S 183.52 23.01, 185 23.22 S 188.64 24.37, 190 23.73 S 193.83 19.47, 195 18.53 S 198.52 15.95, 200 15.71 S 203.54 16.54, 205 16.88"
          fill="none"/>
    <circle r="4" cx="5" cy="40" fill="#3023AE"/>
    <circle r="4" cx="205" cy="16.88" fill="#C86DD7"/>      
</svg>