<svg width="200" height="50" viewBox="0 0 210 50" xmlns="http://www.w3.org/2000/svg">
    <defs>
        <linearGradient x1="0%" y1="0%" x2="100%" y2="0%" id="a">
            <stop stop-color="#3023AE" offset="0%"/>
            <stop stop-color="#C86DD7" offset="100%"/>
        </linearGradient>
    </defs>
    <path stroke="url(#a)"
          stroke-width="3"
          stroke-linejoin="round"
          stroke-linecap="round"
          d="M5 40 C 5.44 38.57, 8.55 24.14, 10 23.77 S 14.14 36.21, 15 37.44 S 18.51 37.91, 20 38.05 S 23.5 38.32, 25 38.41 S 28.5 38.76, 30 38.68 S 33.5 38, 35 37.89 S 38.5 38.03, 40 37.94 S 43.5 37.26, 45 37.3 S 48.51 38.05, 50 38.18 S 53.5 38.25, 55 38.17 S 58.5 37.59, 60 37.65 S 63.51 38.45, 65 38.59 S 68.5 38.59, 70 38.6 S 73.5 38.75, 75 38.68 S 78.5 38.16, 80 38.12 S 83.5 38.35, 85 38.39 S 88.5 38.31, 90 38.36 S 93.51 38.86, 95 38.73 S 98.51 37.64, 100 37.47 S 103.5 37.53, 105 37.62 S 108.5 37.97, 110 38.05 S 113.5 38.2, 115 38.18 S 118.58 38.37, 120 37.89 S 123.51 35.01, 125 34.84 S 128.56 36.35, 130 36.78 S 133.5 37.73, 135 37.82 S 138.5 37.51, 140 37.39 S 143.54 37.39, 145 37.04 S 148.5 34.96, 150 34.98 S 153.53 36.88, 155 37.16 S 158.5 36.89, 160 36.9 S 164.48 38.61, 165 37.2 S 168.54 10.35, 170 10 S 174.47 33.43, 175 34.83 S 178.53 36.23, 180 36.51 S 183.5 36.68, 185 36.75 S 188.51 37.12, 190 36.96 S 193.52 35.87, 195 35.65 S 198.51 35.31, 200 35.48 S 203.55 36.42, 205 36.8"
          fill="none"/>
    <circle r="4" cx="5" cy="40" fill="#3023AE"/>
    <circle r="4" cx="205" cy="36.8" fill="#C86DD7"/>      
</svg>