<svg width="200" height="50" viewBox="0 0 210 50" xmlns="http://www.w3.org/2000/svg">
    <defs>
        <linearGradient x1="0%" y1="0%" x2="100%" y2="0%" id="a">
            <stop stop-color="#3023AE" offset="0%"/>
            <stop stop-color="#C86DD7" offset="100%"/>
        </linearGradient>
    </defs>
    <path stroke="url(#a)"
          stroke-width="3"
          stroke-linejoin="round"
          stroke-linecap="round"
          d="M5 40 C 5.25 38.52, 8.83 10.93, 10 10 S 14.48 30.65, 15 32.06 S 18.67 36.65, 20 37.35 S 23.51 37.22, 25 37.35 S 28.51 38.37, 30 38.24 S 33.51 36.34, 35 36.47 S 38.51 38.99, 40 39.12 S 43.55 37.73, 45 37.35 S 48.55 36.85, 50 36.47 S 53.55 34.33, 55 34.71 S 58.51 38.99, 60 39.12 S 63.5 35.59, 65 35.59 S 68.59 38.62, 70 39.12 S 73.63 39.73, 75 39.12 S 78.51 34.84, 80 34.71 S 83.5 38.24, 85 38.24 S 88.51 34.84, 90 34.71 S 93.55 36.97, 95 37.35 S 98.52 37.61, 100 37.35 S 103.51 35.46, 105 35.59 S 108.55 37.86, 110 38.24 S 113.51 38.11, 115 38.24 S 118.51 38.99, 120 39.12 S 123.55 39.5, 125 39.12 S 128.52 36.73, 130 36.47 S 133.51 37.22, 135 37.35 S 138.5 37.35, 140 37.35 S 143.5 37.35, 145 37.35 S 148.5 37.35, 150 37.35 S 153.51 37.22, 155 37.35 S 158.5 38.24, 160 38.24 S 163.51 37.22, 165 37.35 S 168.5 39.12, 170 39.12 S 173.59 37.85, 175 37.35 S 178.51 35.46, 180 35.59 S 183.55 37.86, 185 38.24 S 188.5 38.24, 190 38.24 S 193.5 38.24, 195 38.24 S 198.5 38.24, 200 38.24 S 203.5 38.24, 205 38.24"
          fill="none"/>
    <circle r="4" cx="5" cy="40" fill="#3023AE"/>
    <circle r="4" cx="205" cy="38.24" fill="#C86DD7"/>      
</svg>