<svg width="200" height="50" viewBox="0 0 210 50" xmlns="http://www.w3.org/2000/svg">
    <defs>
        <linearGradient x1="0%" y1="0%" x2="100%" y2="0%" id="a">
            <stop stop-color="#3023AE" offset="0%"/>
            <stop stop-color="#C86DD7" offset="100%"/>
        </linearGradient>
    </defs>
    <path stroke="url(#a)"
          stroke-width="3"
          stroke-linejoin="round"
          stroke-linecap="round"
          d="M5 40 C 5.52 38.59, 8.52 26.72, 10 26.5 S 14.04 37.35, 15 38.5 S 18.5 38.5, 20 38.5 S 23.5 38.5, 25 38.5 S 28.5 38.5, 30 38.5 S 34.5 39.92, 35 38.5 S 38.97 11.09, 40 10 S 44.45 26.6, 45 28 S 48.5 35.5, 50 35.5 S 53.56 27.57, 55 28 S 58.97 37.41, 60 38.5 S 63.97 39.59, 65 38.5 S 68.5 28, 70 28 S 73.97 37.41, 75 38.5 S 78.5 38.5, 80 38.5 S 83.71 39.27, 85 38.5 S 88.5 32.5, 90 32.5 S 93.71 37.73, 95 38.5 S 98.5 38.5, 100 38.5 S 103.5 38.5, 105 38.5 S 108.5 38.5, 110 38.5 S 113.5 38.5, 115 38.5 S 118.5 38.5, 120 38.5 S 123.5 38.5, 125 38.5 S 128.5 38.5, 130 38.5 S 133.5 38.5, 135 38.5 S 138.5 38.5, 140 38.5 S 143.5 38.5, 145 38.5 S 148.5 38.5, 150 38.5 S 153.5 38.5, 155 38.5 S 158.5 38.5, 160 38.5 S 163.5 38.5, 165 38.5 S 168.5 38.5, 170 38.5 S 173.5 38.5, 175 38.5 S 179.04 39.65, 180 38.5 S 183.8 27.4, 185 26.5 S 188.89 30, 190 31 S 194.17 36.75, 195 35.5 S 198.52 15.78, 200 16 S 204.65 35.54, 205 37"
          fill="none"/>
    <circle r="4" cx="5" cy="40" fill="#3023AE"/>
    <circle r="4" cx="205" cy="37" fill="#C86DD7"/>      
</svg>