<svg width="200" height="50" viewBox="0 0 210 50" xmlns="http://www.w3.org/2000/svg">
    <defs>
        <linearGradient x1="0%" y1="0%" x2="100%" y2="0%" id="a">
            <stop stop-color="#3023AE" offset="0%"/>
            <stop stop-color="#C86DD7" offset="100%"/>
        </linearGradient>
    </defs>
    <path stroke="url(#a)"
          stroke-width="3"
          stroke-linejoin="round"
          stroke-linecap="round"
          d="M5 40 C 6.49 39.86, 8.5 39.55, 10 39.53 S 13.5 39.9, 15 39.88 S 18.5 39.54, 20 39.42 S 23.54 39.41, 25 39.07 S 28.52 37.31, 30 37.09 S 33.55 37.95, 35 37.56 S 38.59 34.94, 40 34.42 S 43.65 34.49, 45 33.84 S 48.5 29.74, 50 29.65 S 53.53 32.99, 55 33.26 S 58.51 31.68, 60 31.51 S 63.5 32.04, 65 32.09 S 68.51 31.7, 70 31.86 S 73.51 33.3, 75 33.14 S 78.52 31.05, 80 30.81 S 83.53 31.78, 85 31.51 S 88.59 29.46, 90 28.95 S 93.51 27.72, 95 27.91 S 98.51 30.35, 100 30.23 S 103.52 26.85, 105 27.09 S 108.5 31.77, 110 31.86 S 113.56 28.09, 115 27.67 S 119.26 30.26, 120 28.95 S 123.79 10.89, 125 10 S 129 20.51, 130 21.63 S 133.53 20.85, 135 21.16 S 138.77 22.86, 140 23.72 S 143.7 28.88, 145 28.14 S 148.7 18.76, 150 18.02 S 153.73 21.64, 155 22.44 S 158.59 24.82, 160 24.3 S 163.62 19.31, 165 18.72 S 168.51 19.84, 170 20 S 173.54 19.43, 175 19.77 S 178.56 21.91, 180 22.33 S 183.51 22.86, 185 22.67 S 188.53 20.78, 190 21.05 S 193.56 24.1, 195 24.53 S 199.05 25.23, 200 24.07 S 204.41 13.71, 205 12.33"
          fill="none"/>
    <circle r="4" cx="5" cy="40" fill="#3023AE"/>
    <circle r="4" cx="205" cy="12.329999999999998" fill="#C86DD7"/>      
</svg>