<svg width="200" height="50" viewBox="0 0 210 50" xmlns="http://www.w3.org/2000/svg">
    <defs>
        <linearGradient x1="0%" y1="0%" x2="100%" y2="0%" id="a">
            <stop stop-color="#3023AE" offset="0%"/>
            <stop stop-color="#C86DD7" offset="100%"/>
        </linearGradient>
    </defs>
    <path stroke="url(#a)"
          stroke-width="3"
          stroke-linejoin="round"
          stroke-linecap="round"
          d="M5 40 C 6.5 39.99, 8.5 39.98, 10 39.98 S 13.64 40.62, 15 39.98 S 18.86 36.21, 20 35.24 S 23.51 31.61, 25 31.46 S 29.32 35.6, 30 34.26 S 33.68 11.01, 35 11.73 S 39.38 38.36, 40 39.72 S 44.48 35.01, 45 33.6 S 48.69 11.98, 50 12.71 S 54.47 37.79, 55 39.19 S 58.9 40.4, 60 39.38 S 64 31.03, 65 29.91 S 68.5 28.22, 70 28.16 S 73.56 29.94, 75 29.54 S 78.58 25.85, 80 25.36 S 83.58 25.6, 85 26.07 S 88.51 28.48, 90 28.69 S 93.5 27.47, 95 27.45 S 98.5 28.68, 100 28.58 S 103.51 26.95, 105 26.77 S 108.5 27.37, 110 27.39 S 113.55 27.3, 115 26.9 S 118.53 24.93, 120 24.64 S 123.52 25.2, 125 24.94 S 128.5 22.93, 130 22.89 S 133.51 24.88, 135 24.7 S 138.58 22.18, 140 21.69 S 143.51 21.42, 145 21.25 S 148.51 20.44, 150 20.58 S 153.5 22.13, 155 22.21 S 158.6 21.67, 160 21.14 S 163.57 18.86, 165 18.41 S 168.52 18.21, 170 17.96 S 173.5 16.71, 175 16.72 S 178.56 18.43, 180 18.02 S 183.71 14.62, 185 13.86 S 188.52 11.85, 190 12.11 S 193.52 15.37, 195 15.63 S 198.69 14.62, 200 13.88 S 203.81 10.92, 205 10"
          fill="none"/>
    <circle r="4" cx="5" cy="40" fill="#3023AE"/>
    <circle r="4" cx="205" cy="10" fill="#C86DD7"/>      
</svg>