<svg width="200" height="50" viewBox="0 0 210 50" xmlns="http://www.w3.org/2000/svg">
    <defs>
        <linearGradient x1="0%" y1="0%" x2="100%" y2="0%" id="a">
            <stop stop-color="#3023AE" offset="0%"/>
            <stop stop-color="#C86DD7" offset="100%"/>
        </linearGradient>
    </defs>
    <path stroke="url(#a)"
          stroke-width="3"
          stroke-linejoin="round"
          stroke-linecap="round"
          d="M5 40 C 6.35 39.34, 8.58 38.03, 10 37.54 S 13.51 36.41, 15 36.56 S 18.54 38.16, 20 38.52 S 23.52 39.24, 25 39.02 S 28.51 37.2, 30 37.05 S 33.53 37.74, 35 38.03 S 38.52 38.8, 40 39.02 S 43.54 39.87, 45 39.51 S 48.52 36.78, 50 36.56 S 53.53 37.74, 55 38.03 S 58.51 38.37, 60 38.52 S 63.5 39.02, 65 39.02 S 68.5 38.52, 70 38.52 S 73.5 39.09, 75 39.02 S 78.5 37.96, 80 38.03 S 83.51 39.36, 85 39.51 S 88.5 39.02, 90 39.02 S 93.51 39.66, 95 39.51 S 98.56 38.45, 100 38.03 S 103.63 37.17, 105 36.56 S 108.5 33.54, 110 33.61 S 113.65 36.39, 115 37.05 S 118.54 38.88, 120 38.52 S 123.53 34.88, 125 34.59 S 128.51 36.41, 130 36.56 S 133.52 35.35, 135 35.57 S 138.56 37.61, 140 38.03 S 143.5 38.52, 145 38.52 S 148.51 37.88, 150 38.03 S 153.52 39.73, 155 39.51 S 158.56 36.98, 160 36.56 S 163.5 36.49, 165 36.56 S 168.53 36.76, 170 37.05 S 173.53 38.23, 175 38.52 S 179.5 40.44, 180 39.02 S 183.56 10.42, 185 10 S 189.47 34.67, 190 36.07 S 193.53 36.85, 195 36.56 S 198.5 34.17, 200 34.1 S 203.6 35.52, 205 36.07"
          fill="none"/>
    <circle r="4" cx="5" cy="40" fill="#3023AE"/>
    <circle r="4" cx="205" cy="36.07" fill="#C86DD7"/>      
</svg>