<svg width="200" height="50" viewBox="0 0 210 50" xmlns="http://www.w3.org/2000/svg">
    <defs>
        <linearGradient x1="0%" y1="0%" x2="100%" y2="0%" id="a">
            <stop stop-color="#3023AE" offset="0%"/>
            <stop stop-color="#C86DD7" offset="100%"/>
        </linearGradient>
    </defs>
    <path stroke="url(#a)"
          stroke-width="3"
          stroke-linejoin="round"
          stroke-linecap="round"
          d="M5 40 C 6.5 39.96, 8.5 39.89, 10 39.86 S 13.5 39.85, 15 39.82 S 18.5 39.77, 20 39.68 S 23.54 39.56, 25 39.21 S 28.71 38.06, 30 37.3 S 33.51 33.2, 35 33.33 S 38.64 37.56, 40 38.2 S 43.5 37.92, 45 38.02 S 48.5 38.9, 50 38.88 S 53.5 37.99, 55 37.91 S 58.5 38.34, 60 38.34 S 63.75 38.74, 65 37.91 S 68.8 32.61, 70 31.71 S 73.56 29.95, 75 30.37 S 78.52 34.39, 80 34.66 S 83.5 32.28, 85 32.18 S 88.54 33.65, 90 34.01 S 93.51 34.51, 95 34.66 S 98.5 34.92, 100 34.99 S 103.5 35.19, 105 35.13 S 108.5 34.62, 110 34.56 S 113.51 34.55, 115 34.74 S 119.44 37.24, 120 35.85 S 123.71 10.77, 125 10 S 129.39 28.5, 130 29.87 S 133.64 31.65, 135 32.28 S 138.55 34.1, 140 34.48 S 143.5 34.9, 145 34.92 S 148.5 34.59, 150 34.63 S 153.51 34.97, 155 35.17 S 158.51 35.77, 160 35.96 S 163.5 36.32, 165 36.43 S 168.5 36.64, 170 36.68 S 173.51 36.56, 175 36.68 S 178.51 37.33, 180 37.51 S 183.5 37.78, 185 37.87 S 188.5 38.17, 190 38.09 S 193.5 37.23, 195 37.33 S 198.51 38.58, 200 38.74 S 203.5 38.51, 205 38.41"
          fill="none"/>
    <circle r="4" cx="5" cy="40" fill="#3023AE"/>
    <circle r="4" cx="205" cy="38.41" fill="#C86DD7"/>      
</svg>