<svg width="200" height="50" viewBox="0 0 210 50" xmlns="http://www.w3.org/2000/svg">
    <defs>
        <linearGradient x1="0%" y1="0%" x2="100%" y2="0%" id="a">
            <stop stop-color="#3023AE" offset="0%"/>
            <stop stop-color="#C86DD7" offset="100%"/>
        </linearGradient>
    </defs>
    <path stroke="url(#a)"
          stroke-width="3"
          stroke-linejoin="round"
          stroke-linecap="round"
          d="M5 40 C 6.5 39.89, 8.5 39.67, 10 39.64 S 13.5 39.79, 15 39.82 S 18.5 39.82, 20 39.82 S 23.5 39.82, 25 39.82 S 28.5 39.82, 30 39.82 S 33.5 39.82, 35 39.82 S 38.5 39.82, 40 39.82 S 43.5 39.82, 45 39.82 S 48.5 39.82, 50 39.82 S 53.5 39.82, 55 39.82 S 58.5 39.82, 60 39.82 S 63.5 39.82, 65 39.82 S 68.5 39.82, 70 39.82 S 73.5 39.82, 75 39.82 S 78.5 39.82, 80 39.82 S 83.5 39.82, 85 39.82 S 88.5 39.82, 90 39.82 S 93.5 39.82, 95 39.82 S 98.5 39.82, 100 39.82 S 103.5 39.82, 105 39.82 S 108.5 39.82, 110 39.82 S 113.5 39.82, 115 39.82 S 118.5 39.82, 120 39.82 S 123.5 39.82, 125 39.82 S 128.5 39.82, 130 39.82 S 134.47 41.22, 135 39.82 S 139.52 14.51, 140 13.09 S 144.25 8.7, 145 10 S 149.45 29.15, 150 30.55 S 153.63 35.04, 155 35.64 S 158.5 34.8, 160 34.91 S 163.58 35.87, 165 36.36 S 168.5 38.33, 170 38.36 S 173.52 36.33, 175 36.55 S 178.56 39.4, 180 39.82 S 183.55 39.85, 185 39.45 S 188.53 37.38, 190 37.09 S 193.52 37.21, 195 37.45 S 198.51 38.57, 200 38.73 S 203.5 38.6, 205 38.55"
          fill="none"/>
    <circle r="4" cx="5" cy="40" fill="#3023AE"/>
    <circle r="4" cx="205" cy="38.55" fill="#C86DD7"/>      
</svg>