<svg width="200" height="50" viewBox="0 0 210 50" xmlns="http://www.w3.org/2000/svg">
    <defs>
        <linearGradient x1="0%" y1="0%" x2="100%" y2="0%" id="a">
            <stop stop-color="#3023AE" offset="0%"/>
            <stop stop-color="#C86DD7" offset="100%"/>
        </linearGradient>
    </defs>
    <path stroke="url(#a)"
          stroke-width="3"
          stroke-linejoin="round"
          stroke-linecap="round"
          d="M5 40 C 5.25 38.52, 9.21 11.28, 10 10 S 14.18 22.48, 15 23.73 S 18.78 24.38, 20 25.25 S 23.69 30.12, 25 30.85 S 28.59 31.35, 30 30.85 S 33.51 27.14, 35 27.29 S 38.66 31.18, 40 31.86 S 43.55 32.74, 45 32.37 S 48.5 29.4, 50 29.32 S 53.59 31.36, 55 31.86 S 58.52 32.65, 60 32.88 S 63.66 34.07, 65 33.39 S 68.5 27.8, 70 27.8 S 73.69 32.66, 75 33.39 S 78.64 34.01, 80 33.39 S 83.66 29.49, 85 28.81 S 88.59 27.81, 90 28.31 S 93.5 32.45, 95 32.37 S 98.53 27.5, 100 27.8 S 103.72 33.63, 105 34.41 S 108.52 34.13, 110 33.9 S 113.87 33.86, 115 32.88 S 118.53 25.55, 120 25.25 S 123.64 30.23, 125 30.85 S 128.5 29.83, 130 29.83 S 133.55 31.22, 135 30.85 S 138.66 26.61, 140 27.29 S 143.66 35.25, 145 35.93 S 148.51 32.52, 150 32.37 S 153.51 34.77, 155 34.92 S 158.52 33.62, 160 33.39 S 163.53 33.09, 165 33.39 S 168.5 35.5, 170 35.42 S 173.52 33.11, 175 32.88 S 178.55 33.53, 180 33.9 S 183.5 35.34, 185 35.42 S 188.57 34.85, 190 34.41 S 193.51 32.22, 195 32.37 S 198.53 35.12, 200 35.42 S 203.53 34.71, 205 34.41"
          fill="none"/>
    <circle r="4" cx="5" cy="40" fill="#3023AE"/>
    <circle r="4" cx="205" cy="34.41" fill="#C86DD7"/>      
</svg>