<svg width="200" height="50" viewBox="0 0 210 50" xmlns="http://www.w3.org/2000/svg">
    <defs>
        <linearGradient x1="0%" y1="0%" x2="100%" y2="0%" id="a">
            <stop stop-color="#3023AE" offset="0%"/>
            <stop stop-color="#C86DD7" offset="100%"/>
        </linearGradient>
    </defs>
    <path stroke="url(#a)"
          stroke-width="3"
          stroke-linejoin="round"
          stroke-linecap="round"
          d="M5 40 C 5.61 38.63, 8.63 29.37, 10 28.75 S 13.76 34.66, 15 35.5 S 18.56 35.07, 20 35.5 S 23.52 38.28, 25 38.5 S 28.67 37.7, 30 37 S 33.56 33.68, 35 33.25 S 38.56 34.43, 40 34 S 43.52 30.47, 45 30.25 S 49.34 33.84, 50 32.5 S 53.84 10.95, 55 10 S 59 23.13, 60 24.25 S 63.56 21.68, 65 21.25 S 68.63 20.63, 70 21.25 S 73.84 24.8, 75 25.75 S 78.71 30.27, 80 29.5 S 83.93 20.8, 85 19.75 S 88.8 18.85, 90 19.75 S 93.76 26.41, 95 27.25 S 98.63 27.12, 100 26.5 S 103.54 22.42, 105 22.75 S 108.76 27.91, 110 28.75 S 113.84 30.45, 115 29.5 S 119.25 21.8, 120 20.5 S 123.52 12.03, 125 12.25 S 128.63 21.38, 130 22 S 133.5 16.64, 135 16.75 S 138.89 21.75, 140 22.75 S 143.56 25.32, 145 25.75 S 148.84 26.7, 150 25.75 S 153.54 17.83, 155 17.5 S 158.54 23.83, 160 23.5 S 163.6 14.72, 165 15.25 S 169.04 26.1, 170 27.25 S 173.84 28.2, 175 27.25 S 178.6 19.53, 180 19 S 183.5 23.39, 185 23.5 S 188.93 20.8, 190 19.75 S 193.5 13.64, 195 13.75 S 199.14 19.27, 200 20.5 S 204.17 26.75, 205 28"
          fill="none"/>
    <circle r="4" cx="5" cy="40" fill="#3023AE"/>
    <circle r="4" cx="205" cy="28" fill="#C86DD7"/>      
</svg>