<svg width="200" height="50" viewBox="0 0 210 50" xmlns="http://www.w3.org/2000/svg">
    <defs>
        <linearGradient x1="0%" y1="0%" x2="100%" y2="0%" id="a">
            <stop stop-color="#3023AE" offset="0%"/>
            <stop stop-color="#C86DD7" offset="100%"/>
        </linearGradient>
    </defs>
    <path stroke="url(#a)"
          stroke-width="3"
          stroke-linejoin="round"
          stroke-linecap="round"
          d="M5 40 C 6.49 39.86, 8.54 39.87, 10 39.52 S 13.77 38.47, 15 37.62 S 18.5 32.58, 20 32.62 S 23.6 37.33, 25 37.86 S 29.32 37.77, 30 36.43 S 34.08 19.51, 35 18.33 S 38.6 24.1, 40 23.57 S 43.54 14.87, 45 14.52 S 49.37 19.83, 50 21.19 S 53.89 34.94, 55 35.95 S 58.53 30.55, 60 30.24 S 63.65 34.45, 65 33.81 S 68.81 26.39, 70 25.48 S 73.63 26.81, 75 26.19 S 78.56 20.54, 80 20.95 S 83.5 29.16, 85 29.05 S 88.57 20.68, 90 20.24 S 93.75 25.12, 95 25.95 S 98.5 27.01, 100 26.9 S 103.55 24.86, 105 25.24 S 108.54 29.17, 110 29.52 S 113.58 28.09, 115 27.62 S 118.63 25.57, 120 26.19 S 123.51 31.96, 125 32.14 S 128.53 27.69, 130 27.38 S 133.59 29.5, 135 30 S 138.5 31.06, 140 30.95 S 143.87 30.28, 145 29.29 S 149.04 23.29, 150 22.14 S 153.61 17.94, 155 17.38 S 158.68 17.38, 160 18.1 S 163.61 23.42, 165 22.86 S 168.51 13.87, 170 14.05 S 173.55 24.43, 175 24.05 S 179.13 12.65, 180 11.43 S 183.5 10.07, 185 10 S 188.85 9.99, 190 10.95 S 193.94 17.27, 195 18.33 S 198.65 20.3, 200 20.95 S 203.62 22.51, 205 23.1"
          fill="none"/>
    <circle r="4" cx="5" cy="40" fill="#3023AE"/>
    <circle r="4" cx="205" cy="23.1" fill="#C86DD7"/>      
</svg>