<svg width="200" height="50" viewBox="0 0 210 50" xmlns="http://www.w3.org/2000/svg">
    <defs>
        <linearGradient x1="0%" y1="0%" x2="100%" y2="0%" id="a">
            <stop stop-color="#3023AE" offset="0%"/>
            <stop stop-color="#C86DD7" offset="100%"/>
        </linearGradient>
    </defs>
    <path stroke="url(#a)"
          stroke-width="3"
          stroke-linejoin="round"
          stroke-linecap="round"
          d="M5 40 C 5.44 38.57, 8.54 24.02, 10 23.67 S 14.13 36.37, 15 37.59 S 18.5 37.63, 20 37.71 S 23.5 38.11, 25 38.13 S 28.51 37.98, 30 37.85 S 33.5 37.27, 35 37.27 S 38.51 37.73, 40 37.87 S 43.5 38.26, 45 38.2 S 48.51 37.62, 50 37.47 S 53.5 37.16, 55 37.2 S 58.5 37.7, 60 37.73 S 63.5 37.47, 65 37.39 S 68.5 37.14, 70 37.18 S 73.5 37.69, 75 37.64 S 78.5 36.98, 80 36.86 S 83.54 37.2, 85 36.86 S 88.5 34.54, 90 34.55 S 93.5 36.91, 95 36.95 S 99.48 36.24, 100 34.83 S 103.5 9.92, 105 10 S 109.45 33.98, 110 35.38 S 113.5 35.57, 115 35.57 S 118.51 35.51, 120 35.35 S 123.51 34.64, 125 34.51 S 128.5 34.44, 130 34.5 S 133.5 34.93, 135 34.94 S 138.52 34.81, 140 34.56 S 143.51 33.39, 145 33.22 S 148.5 33.27, 150 33.39 S 153.5 33.96, 155 34.01 S 159.24 35, 160 33.71 S 163.9 18.15, 165 17.13 S 169.05 23.3, 170 24.46 S 173.82 28.39, 175 29.32 S 178.69 31.63, 180 32.35 S 183.55 34.46, 185 34.83 S 188.5 34.85, 190 34.88 S 193.5 35.1, 195 35.02 S 198.54 34.69, 200 34.35 S 203.58 33.15, 205 32.67"
          fill="none"/>
    <circle r="4" cx="5" cy="40" fill="#3023AE"/>
    <circle r="4" cx="205" cy="32.67" fill="#C86DD7"/>      
</svg>