<svg width="200" height="50" viewBox="0 0 210 50" xmlns="http://www.w3.org/2000/svg">
    <defs>
        <linearGradient x1="0%" y1="0%" x2="100%" y2="0%" id="a">
            <stop stop-color="#3023AE" offset="0%"/>
            <stop stop-color="#C86DD7" offset="100%"/>
        </linearGradient>
    </defs>
    <path stroke="url(#a)"
          stroke-width="3"
          stroke-linejoin="round"
          stroke-linecap="round"
          d="M5 40 C 6.14 39.02, 8.62 36.3, 10 35.71 S 13.5 35.71, 15 35.71 S 18.5 35.71, 20 35.71 S 24.37 37.07, 25 35.71 S 28.5 14.29, 30 14.29 S 34.24 34.41, 35 35.71 S 38.5 31.43, 40 31.43 S 43.62 35.12, 45 35.71 S 48.5 35.71, 50 35.71 S 54.46 37.11, 55 35.71 S 58.62 10.59, 60 10 S 64.24 30.13, 65 31.43 S 68.5 27.14, 70 27.14 S 73.62 30.84, 75 31.43 S 78.62 30.84, 80 31.43 S 83.62 35.12, 85 35.71 S 88.5 35.71, 90 35.71 S 93.5 35.71, 95 35.71 S 98.5 35.71, 100 35.71 S 103.5 35.71, 105 35.71 S 108.5 35.71, 110 35.71 S 113.5 35.71, 115 35.71 S 118.5 35.71, 120 35.71 S 123.5 35.71, 125 35.71 S 128.5 35.71, 130 35.71 S 133.62 36.3, 135 35.71 S 138.5 31.43, 140 31.43 S 144.08 36.89, 145 35.71 S 148.5 18.57, 150 18.57 S 154.24 34.41, 155 35.71 S 159.37 37.07, 160 35.71 S 164.08 15.47, 165 14.29 S 169.08 21.68, 170 22.86 S 173.5 27.14, 175 27.14 S 178.5 22.86, 180 22.86 S 183.5 27.14, 185 27.14 S 188.62 23.45, 190 22.86 S 194.08 21.68, 195 22.86 S 198.62 36.3, 200 35.71 S 204.58 20.01, 205 18.57"
          fill="none"/>
    <circle r="4" cx="5" cy="40" fill="#3023AE"/>
    <circle r="4" cx="205" cy="18.57" fill="#C86DD7"/>      
</svg>