<svg width="200" height="50" viewBox="0 0 210 50" xmlns="http://www.w3.org/2000/svg">
    <defs>
        <linearGradient x1="0%" y1="0%" x2="100%" y2="0%" id="a">
            <stop stop-color="#3023AE" offset="0%"/>
            <stop stop-color="#C86DD7" offset="100%"/>
        </linearGradient>
    </defs>
    <path stroke="url(#a)"
          stroke-width="3"
          stroke-linejoin="round"
          stroke-linecap="round"
          d="M5 40 C 5.25 38.52, 9.45 11.39, 10 10 S 14.28 13.42, 15 14.74 S 19.3 26.92, 20 28.25 S 23.9 32.83, 25 33.85 S 28.66 36.83, 30 37.5 S 33.5 38.95, 35 38.83 S 38.77 37.56, 40 36.7 S 43.91 32.85, 45 31.82 S 48.56 26.88, 50 27.31 S 53.95 33.75, 55 34.82 S 58.57 37.05, 60 37.5 S 63.51 37.75, 65 37.94 S 68.59 39.27, 70 38.76 S 73.53 34.6, 75 34.3 S 78.6 36.21, 80 36.75 S 83.51 38.01, 85 38.17 S 88.5 37.75, 90 37.79 S 93.51 38.27, 95 38.41 S 98.5 38.6, 100 38.71 S 103.5 39.1, 105 39.13 S 108.5 38.89, 110 38.88 S 113.5 38.94, 115 39.03 S 118.5 39.42, 120 39.45 S 123.5 39.2, 125 39.21 S 128.5 39.53, 130 39.55 S 133.5 39.38, 135 39.33 S 138.5 39.29, 140 39.23 S 143.5 38.95, 145 38.91 S 148.5 38.84, 150 38.96 S 153.5 39.64, 155 39.7 S 158.5 39.36, 160 39.36 S 163.5 39.64, 165 39.7 S 168.5 39.77, 170 39.75 S 173.5 39.61, 175 39.58 S 178.5 39.52, 180 39.53 S 183.5 39.6, 185 39.63 S 188.5 39.78, 190 39.7 S 193.5 39.07, 195 39.08 S 198.5 39.71, 200 39.8 S 203.5 39.73, 205 39.7"
          fill="none"/>
    <circle r="4" cx="5" cy="40" fill="#3023AE"/>
    <circle r="4" cx="205" cy="39.7" fill="#C86DD7"/>      
</svg>