<svg width="200" height="50" viewBox="0 0 210 50" xmlns="http://www.w3.org/2000/svg">
    <defs>
        <linearGradient x1="0%" y1="0%" x2="100%" y2="0%" id="a">
            <stop stop-color="#3023AE" offset="0%"/>
            <stop stop-color="#C86DD7" offset="100%"/>
        </linearGradient>
    </defs>
    <path stroke="url(#a)"
          stroke-width="3"
          stroke-linejoin="round"
          stroke-linecap="round"
          d="M5 40 C 5.27 38.52, 9.51 13.79, 10 12.37 S 13.54 11.67, 15 11.32 S 18.55 9.62, 20 10 S 23.93 12.9, 25 13.95 S 28.99 18.63, 30 19.74 S 33.5 24.88, 35 25 S 39.01 21.65, 40 20.53 S 43.58 13.19, 45 13.68 S 49.09 22.76, 50 23.95 S 53.5 26.84, 55 26.84 S 58.76 24.8, 60 23.95 S 63.58 19.51, 65 20 S 69.04 26.21, 70 27.37 S 73.5 32.11, 75 32.11 S 78.51 27.21, 80 27.37 S 83.62 32.58, 85 33.16 S 88.87 32.56, 90 31.58 S 93.67 25.17, 95 24.47 S 98.5 26.2, 100 26.32 S 103.52 25.03, 105 25.26 S 108.51 27.73, 110 27.89 S 113.51 26.51, 115 26.32 S 118.55 26.2, 120 26.58 S 123.52 28.72, 125 28.95 S 128.6 28.71, 130 28.16 S 133.7 25.75, 135 25 S 138.52 22.64, 140 22.37 S 143.6 22.61, 145 23.16 S 148.58 26.81, 150 26.32 S 153.64 20.38, 155 19.74 S 158.66 20.91, 160 21.58 S 163.56 24.32, 165 24.74 S 168.6 23.92, 170 24.47 S 173.5 28.64, 175 28.68 S 178.7 25.49, 180 24.74 S 183.5 22.85, 185 22.89 S 188.56 24.58, 190 25 S 193.6 25.24, 195 25.79 S 198.88 27.95, 200 28.95 S 204.02 33.6, 205 34.74"
          fill="none"/>
    <circle r="4" cx="5" cy="40" fill="#3023AE"/>
    <circle r="4" cx="205" cy="34.74" fill="#C86DD7"/>      
</svg>