<svg width="200" height="50" viewBox="0 0 210 50" xmlns="http://www.w3.org/2000/svg">
    <defs>
        <linearGradient x1="0%" y1="0%" x2="100%" y2="0%" id="a">
            <stop stop-color="#3023AE" offset="0%"/>
            <stop stop-color="#C86DD7" offset="100%"/>
        </linearGradient>
    </defs>
    <path stroke="url(#a)"
          stroke-width="3"
          stroke-linejoin="round"
          stroke-linecap="round"
          d="M5 40 C 5.25 38.52, 8.77 10.87, 10 10 S 14.4 31.56, 15 32.94 S 18.67 32.24, 20 32.94 S 23.67 37.54, 25 38.24 S 28.67 38.94, 30 38.24 S 33.5 32.94, 35 32.94 S 38.67 37.54, 40 38.24 S 43.5 38.24, 45 38.24 S 48.5 38.24, 50 38.24 S 53.5 38.24, 55 38.24 S 58.5 38.24, 60 38.24 S 63.5 38.24, 65 38.24 S 68.5 38.24, 70 38.24 S 73.59 38.74, 75 38.24 S 78.52 34.97, 80 34.71 S 83.59 35.97, 85 36.47 S 89.26 39.55, 90 38.24 S 93.52 19.08, 95 18.82 S 99.31 35.14, 100 36.47 S 103.52 37.98, 105 38.24 S 108.5 38.24, 110 38.24 S 113.5 38.24, 115 38.24 S 118.59 38.74, 120 38.24 S 123.59 35.21, 125 34.71 S 128.59 34.21, 130 34.71 S 133.52 37.98, 135 38.24 S 138.5 36.47, 140 36.47 S 143.5 38.24, 145 38.24 S 148.59 36.97, 150 36.47 S 153.5 34.71, 155 34.71 S 158.5 36.47, 160 36.47 S 163.5 34.71, 165 34.71 S 168.52 36.21, 170 36.47 S 173.52 36.73, 175 36.47 S 178.67 35.41, 180 34.71 S 183.52 31.44, 185 31.18 S 188.59 33.44, 190 32.94 S 193.5 27.65, 195 27.65 S 198.52 32.68, 200 32.94 S 203.77 30.28, 205 29.41"
          fill="none"/>
    <circle r="4" cx="5" cy="40" fill="#3023AE"/>
    <circle r="4" cx="205" cy="29.41" fill="#C86DD7"/>      
</svg>