<svg width="200" height="50" viewBox="0 0 210 50" xmlns="http://www.w3.org/2000/svg">
    <defs>
        <linearGradient x1="0%" y1="0%" x2="100%" y2="0%" id="a">
            <stop stop-color="#3023AE" offset="0%"/>
            <stop stop-color="#C86DD7" offset="100%"/>
        </linearGradient>
    </defs>
    <path stroke="url(#a)"
          stroke-width="3"
          stroke-linejoin="round"
          stroke-linecap="round"
          d="M5 40 C 5.25 38.52, 8.51 10.18, 10 10 S 14.52 37.36, 15 38.78 S 18.5 39.26, 20 39.36 S 23.5 39.57, 25 39.45 S 28.5 38.64, 30 38.58 S 33.5 38.93, 35 39.03 S 39.13 40.47, 40 39.25 S 43.53 25.26, 45 24.96 S 49.12 36.03, 50 37.24 S 53.52 38.45, 55 38.69 S 58.5 38.88, 60 38.84 S 63.5 38.41, 65 38.43 S 68.5 38.87, 70 38.99 S 73.5 39.18, 75 39.2 S 78.5 39.09, 80 39.1 S 83.5 39.22, 85 39.24 S 88.5 39.3, 90 39.26 S 93.5 39.01, 95 38.97 S 98.5 39, 100 39.01 S 103.5 39.04, 105 39.06 S 108.5 39.13, 110 39.15 S 113.51 39.36, 115 39.19 S 118.5 38.14, 120 38.03 S 123.51 38.3, 125 38.44 S 128.5 38.91, 130 38.96 S 133.5 38.76, 135 38.75 S 138.5 38.9, 140 38.91 S 143.5 38.93, 145 38.83 S 148.5 38.29, 150 38.25 S 153.5 38.5, 155 38.58 S 158.5 38.78, 160 38.81 S 163.5 38.81, 165 38.81 S 168.5 38.84, 170 38.78 S 173.5 38.41, 175 38.44 S 178.5 38.91, 180 38.96 S 183.5 38.83, 185 38.77 S 188.5 38.54, 190 38.54 S 193.5 38.72, 195 38.76 S 198.5 38.81, 200 38.81 S 203.5 38.78, 205 38.77"
          fill="none"/>
    <circle r="4" cx="5" cy="40" fill="#3023AE"/>
    <circle r="4" cx="205" cy="38.77" fill="#C86DD7"/>      
</svg>