<svg width="200" height="50" viewBox="0 0 210 50" xmlns="http://www.w3.org/2000/svg">
    <defs>
        <linearGradient x1="0%" y1="0%" x2="100%" y2="0%" id="a">
            <stop stop-color="#3023AE" offset="0%"/>
            <stop stop-color="#C86DD7" offset="100%"/>
        </linearGradient>
    </defs>
    <path stroke="url(#a)"
          stroke-width="3"
          stroke-linejoin="round"
          stroke-linecap="round"
          d="M5 40 C 5.95 38.84, 8.95 34.93, 10 33.86 S 13.5 29.87, 15 29.77 S 18.76 34.03, 20 33.18 S 23.58 23.43, 25 22.95 S 28.58 29.29, 30 29.77 S 33.84 27.31, 35 26.36 S 38.5 21.59, 40 21.59 S 43.88 27.35, 45 26.36 S 48.99 11.62, 50 12.73 S 54.32 35.93, 55 37.27 S 59.26 33.81, 60 32.5 S 64.05 20.71, 65 19.55 S 69.05 19.07, 70 20.23 S 73.65 31.17, 75 31.82 S 78.84 25.95, 80 25 S 83.65 22.99, 85 23.64 S 88.55 29.38, 90 29.77 S 93.53 26.06, 95 26.36 S 98.72 31.04, 100 31.82 S 103.72 31.72, 105 32.5 S 108.51 37.75, 110 37.95 S 113.8 34.76, 115 33.86 S 118.58 30.93, 120 30.45 S 123.51 30.65, 125 30.45 S 129.02 30.23, 130 29.09 S 133.8 19.76, 135 18.86 S 138.99 20.48, 140 21.59 S 143.8 28.87, 145 29.77 S 148.51 29.29, 150 29.09 S 153.61 28.98, 155 28.41 S 158.55 24.6, 160 25 S 163.72 31.92, 165 31.14 S 169.19 20.12, 170 18.86 S 173.8 16.35, 175 15.45 S 178.68 12.08, 180 11.36 S 184.08 8.81, 185 10 S 189.14 23.09, 190 24.32 S 193.8 25.22, 195 24.32 S 198.55 16.42, 200 16.82 S 204.34 25.7, 205 27.05"
          fill="none"/>
    <circle r="4" cx="5" cy="40" fill="#3023AE"/>
    <circle r="4" cx="205" cy="27.05" fill="#C86DD7"/>      
</svg>