<svg width="200" height="50" viewBox="0 0 210 50" xmlns="http://www.w3.org/2000/svg">
    <defs>
        <linearGradient x1="0%" y1="0%" x2="100%" y2="0%" id="a">
            <stop stop-color="#3023AE" offset="0%"/>
            <stop stop-color="#C86DD7" offset="100%"/>
        </linearGradient>
    </defs>
    <path stroke="url(#a)"
          stroke-width="3"
          stroke-linejoin="round"
          stroke-linecap="round"
          d="M5 40 C 6.5 39.92, 8.5 39.75, 10 39.73 S 13.5 39.85, 15 39.87 S 18.5 39.87, 20 39.87 S 23.5 39.87, 25 39.87 S 28.5 39.87, 30 39.87 S 33.5 39.87, 35 39.87 S 38.5 39.87, 40 39.87 S 43.52 40.09, 45 39.87 S 48.5 38.48, 50 38.4 S 53.5 39.25, 55 39.33 S 58.5 38.93, 60 38.93 S 63.5 39.23, 65 39.33 S 68.65 40.25, 70 39.6 S 73.5 34.63, 75 34.53 S 78.57 38.49, 80 38.93 S 83.5 37.6, 85 37.6 S 88.53 39.24, 90 38.93 S 93.51 35.67, 95 35.47 S 98.63 38.2, 100 37.6 S 103.6 31.61, 105 31.07 S 108.7 32.98, 110 33.73 S 113.58 36.31, 115 36.8 S 118.5 37.32, 120 37.2 S 123.5 36.1, 125 36 S 128.51 36.71, 130 36.53 S 133.5 34.84, 135 34.8 S 139.44 37.66, 140 36.27 S 143.54 10.33, 145 10 S 149.29 32.68, 150 34 S 153.52 28.45, 155 28.67 S 158.83 34.53, 160 35.47 S 163.97 37.76, 165 36.67 S 168.86 25.9, 170 24.93 S 173.78 27.26, 175 28.13 S 178.63 31.4, 180 32 S 183.59 32.01, 185 32.53 S 188.61 36.3, 190 35.73 S 193.61 28.96, 195 28.4 S 198.74 30.92, 200 31.73 S 203.72 34.02, 205 34.8"
          fill="none"/>
    <circle r="4" cx="5" cy="40" fill="#3023AE"/>
    <circle r="4" cx="205" cy="34.8" fill="#C86DD7"/>      
</svg>