<svg width="200" height="50" viewBox="0 0 210 50" xmlns="http://www.w3.org/2000/svg">
    <defs>
        <linearGradient x1="0%" y1="0%" x2="100%" y2="0%" id="a">
            <stop stop-color="#3023AE" offset="0%"/>
            <stop stop-color="#C86DD7" offset="100%"/>
        </linearGradient>
    </defs>
    <path stroke="url(#a)"
          stroke-width="3"
          stroke-linejoin="round"
          stroke-linecap="round"
          d="M5 40 C 6.5 39.97, 8.5 39.93, 10 39.9 S 13.5 39.81, 15 39.81 S 18.5 39.89, 20 39.9 S 23.5 39.89, 25 39.9 S 28.5 39.96, 30 39.96 S 33.5 39.93, 35 39.92 S 38.5 39.91, 40 39.92 S 43.5 40, 45 39.97 S 48.5 39.79, 50 39.71 S 53.5 39.45, 55 39.45 S 58.5 39.67, 60 39.71 S 63.51 39.84, 65 39.72 S 69.32 40.22, 70 38.88 S 73.5 19.99, 75 19.99 S 79.31 37.52, 80 38.85 S 83.5 39.24, 85 39.18 S 88.5 38.48, 90 38.48 S 93.5 39.09, 95 39.17 S 98.5 39.07, 100 39 S 103.5 38.75, 105 38.71 S 108.5 38.63, 110 38.71 S 113.5 39.18, 115 39.25 S 118.51 39.31, 120 39.16 S 123.5 38.24, 125 38.23 S 128.51 38.93, 130 39.11 S 133.5 39.41, 135 39.41 S 138.5 39.11, 140 39.1 S 143.5 39.35, 145 39.31 S 148.5 38.85, 150 38.84 S 153.5 39.29, 155 39.27 S 158.52 38.95, 160 38.73 S 163.5 37.81, 165 37.81 S 168.51 38.56, 170 38.74 S 174.51 40.45, 175 39.03 S 178.59 10.5, 180 10 S 184.49 34.05, 185 35.46 S 188.5 37.42, 190 37.46 S 193.5 35.76, 195 35.73 S 198.51 37.11, 200 37.28 S 203.51 36.99, 205 36.87"
          fill="none"/>
    <circle r="4" cx="5" cy="40" fill="#3023AE"/>
    <circle r="4" cx="205" cy="36.87" fill="#C86DD7"/>      
</svg>