<svg width="200" height="50" viewBox="0 0 210 50" xmlns="http://www.w3.org/2000/svg">
    <defs>
        <linearGradient x1="0%" y1="0%" x2="100%" y2="0%" id="a">
            <stop stop-color="#3023AE" offset="0%"/>
            <stop stop-color="#C86DD7" offset="100%"/>
        </linearGradient>
    </defs>
    <path stroke="url(#a)"
          stroke-width="3"
          stroke-linejoin="round"
          stroke-linecap="round"
          d="M5 40 C 6.48 39.76, 8.51 39.32, 10 39.18 S 13.5 38.98, 15 39.03 S 18.52 39.76, 20 39.51 S 23.5 37.26, 25 37.31 S 28.55 39.45, 30 39.84 S 33.5 40.01, 35 39.97 S 38.5 39.58, 40 39.58 S 43.5 39.92, 45 39.95 S 48.5 39.76, 50 39.76 S 53.5 39.93, 55 39.96 S 58.5 40.01, 60 39.97 S 63.54 40.08, 65 39.72 S 68.51 37.62, 70 37.49 S 73.53 38.56, 75 38.84 S 78.51 39.57, 80 39.38 S 83.58 38.03, 85 37.55 S 88.5 36.05, 90 36.04 S 93.56 37.06, 95 37.48 S 98.51 38.76, 100 38.97 S 103.5 38.89, 105 38.88 S 108.5 38.92, 110 38.91 S 113.5 38.85, 115 38.82 S 118.5 38.73, 120 38.73 S 123.5 38.86, 125 38.83 S 128.5 38.56, 130 38.53 S 133.5 38.62, 135 38.61 S 138.51 38.57, 140 38.43 S 143.5 37.68, 145 37.66 S 148.5 38.25, 150 38.32 S 153.5 38.19, 155 38.13 S 158.5 37.98, 160 37.91 S 163.5 37.72, 165 37.64 S 168.51 37.48, 170 37.35 S 173.51 36.92, 175 36.74 S 178.67 36.82, 180 36.13 S 183.72 32.38, 185 31.59 S 188.66 30.66, 190 29.98 S 194.33 27.88, 195 26.54 S 198.51 10.21, 200 10 S 204.53 23.71, 205 25.13"
          fill="none"/>
    <circle r="4" cx="5" cy="40" fill="#3023AE"/>
    <circle r="4" cx="205" cy="25.130000000000003" fill="#C86DD7"/>      
</svg>