<svg width="200" height="50" viewBox="0 0 210 50" xmlns="http://www.w3.org/2000/svg">
    <defs>
        <linearGradient x1="0%" y1="0%" x2="100%" y2="0%" id="a">
            <stop stop-color="#3023AE" offset="0%"/>
            <stop stop-color="#C86DD7" offset="100%"/>
        </linearGradient>
    </defs>
    <path stroke="url(#a)"
          stroke-width="3"
          stroke-linejoin="round"
          stroke-linecap="round"
          d="M5 40 C 6.48 39.74, 8.51 39.27, 10 39.11 S 13.5 38.9, 15 38.95 S 18.53 39.75, 20 39.47 S 23.5 37.02, 25 37.08 S 28.56 39.42, 30 39.84 S 33.5 40.02, 35 39.97 S 38.5 39.53, 40 39.53 S 43.5 39.93, 45 39.96 S 48.5 39.74, 50 39.74 S 53.5 39.92, 55 39.95 S 58.5 40, 60 39.96 S 63.55 40.04, 65 39.65 S 68.51 37.39, 70 37.26 S 73.53 38.5, 75 38.8 S 78.53 39.6, 80 39.31 S 83.57 37.29, 85 36.84 S 88.5 36.07, 90 36.13 S 93.55 36.86, 95 37.26 S 98.52 38.69, 100 38.91 S 103.5 38.79, 105 38.77 S 108.5 38.8, 110 38.79 S 113.5 38.72, 115 38.7 S 118.5 38.63, 120 38.63 S 123.5 38.76, 125 38.73 S 128.5 38.46, 130 38.42 S 133.5 38.47, 135 38.46 S 138.51 38.49, 140 38.33 S 143.5 37.44, 145 37.41 S 148.5 38.09, 150 38.16 S 153.5 37.97, 155 37.91 S 158.5 37.85, 160 37.78 S 163.5 37.52, 165 37.41 S 168.51 37.16, 170 37.02 S 173.52 36.65, 175 36.44 S 178.71 36.35, 180 35.58 S 183.72 31.24, 185 30.45 S 188.85 30.38, 190 29.42 S 194.31 23.4, 195 22.07 S 198.54 9.66, 200 10 S 204.51 22.96, 205 24.38"
          fill="none"/>
    <circle r="4" cx="5" cy="40" fill="#3023AE"/>
    <circle r="4" cx="205" cy="24.380000000000003" fill="#C86DD7"/>      
</svg>