<svg width="200" height="50" viewBox="0 0 210 50" xmlns="http://www.w3.org/2000/svg">
    <defs>
        <linearGradient x1="0%" y1="0%" x2="100%" y2="0%" id="a">
            <stop stop-color="#3023AE" offset="0%"/>
            <stop stop-color="#C86DD7" offset="100%"/>
        </linearGradient>
    </defs>
    <path stroke="url(#a)"
          stroke-width="3"
          stroke-linejoin="round"
          stroke-linecap="round"
          d="M5 40 C 6.48 39.76, 8.51 39.32, 10 39.18 S 13.5 38.98, 15 39.03 S 18.52 39.76, 20 39.51 S 23.5 37.27, 25 37.32 S 28.55 39.46, 30 39.84 S 33.5 40.01, 35 39.97 S 38.5 39.58, 40 39.58 S 43.5 39.92, 45 39.95 S 48.5 39.76, 50 39.76 S 53.5 39.93, 55 39.96 S 58.5 40, 60 39.97 S 63.54 40.09, 65 39.73 S 68.51 37.67, 70 37.53 S 73.52 38.55, 75 38.82 S 78.51 39.55, 80 39.37 S 83.58 38.07, 85 37.59 S 88.5 36.05, 90 36.03 S 93.56 37.05, 95 37.47 S 98.52 38.76, 100 38.97 S 103.5 38.91, 105 38.9 S 108.5 38.92, 110 38.91 S 113.5 38.83, 115 38.81 S 118.5 38.75, 120 38.75 S 123.5 38.85, 125 38.82 S 128.5 38.56, 130 38.53 S 133.5 38.64, 135 38.63 S 138.51 38.58, 140 38.44 S 143.5 37.71, 145 37.69 S 148.5 38.23, 150 38.3 S 153.5 38.19, 155 38.14 S 158.5 38.02, 160 37.95 S 163.5 37.76, 165 37.67 S 168.51 37.49, 170 37.35 S 173.51 36.89, 175 36.72 S 178.66 36.9, 180 36.22 S 183.73 32.41, 185 31.62 S 188.65 30.62, 190 29.98 S 194.33 28.2, 195 26.86 S 198.52 10.26, 200 10 S 204.53 23.67, 205 25.09"
          fill="none"/>
    <circle r="4" cx="5" cy="40" fill="#3023AE"/>
    <circle r="4" cx="205" cy="25.09" fill="#C86DD7"/>      
</svg>