<svg width="200" height="50" viewBox="0 0 210 50" xmlns="http://www.w3.org/2000/svg">
    <defs>
        <linearGradient x1="0%" y1="0%" x2="100%" y2="0%" id="a">
            <stop stop-color="#3023AE" offset="0%"/>
            <stop stop-color="#C86DD7" offset="100%"/>
        </linearGradient>
    </defs>
    <path stroke="url(#a)"
          stroke-width="3"
          stroke-linejoin="round"
          stroke-linecap="round"
          d="M5 40 C 5.25 38.52, 9.17 11.25, 10 10 S 14.39 23.63, 15 25 S 18.8 31.6, 20 32.5 S 23.5 32.5, 25 32.5 S 28.5 32.5, 30 32.5 S 33.5 32.5, 35 32.5 S 38.8 33.4, 40 32.5 S 43.5 25, 45 25 S 48.8 31.6, 50 32.5 S 53.5 32.5, 55 32.5 S 58.5 32.5, 60 32.5 S 63.5 32.5, 65 32.5 S 68.5 32.5, 70 32.5 S 73.5 32.5, 75 32.5 S 78.5 32.5, 80 32.5 S 83.8 33.4, 85 32.5 S 89.17 26.25, 90 25 S 93.8 16.6, 95 17.5 S 99.17 31.25, 100 32.5 S 103.5 32.5, 105 32.5 S 108.5 32.5, 110 32.5 S 113.5 32.5, 115 32.5 S 118.8 33.4, 120 32.5 S 123.5 25, 125 25 S 128.5 32.5, 130 32.5 S 133.8 25.9, 135 25 S 138.8 24.1, 140 25 S 144.17 33.75, 145 32.5 S 148.8 10.9, 150 10 S 154.39 23.63, 155 25 S 158.8 33.4, 160 32.5 S 163.8 18.4, 165 17.5 S 169.17 23.75, 170 25 S 173.8 31.6, 175 32.5 S 179.17 33.75, 180 32.5 S 183.5 17.5, 185 17.5 S 188.5 32.5, 190 32.5 S 193.8 18.4, 195 17.5 S 198.8 24.1, 200 25 S 203.5 25, 205 25"
          fill="none"/>
    <circle r="4" cx="5" cy="40" fill="#3023AE"/>
    <circle r="4" cx="205" cy="25" fill="#C86DD7"/>      
</svg>