<svg width="200" height="50" viewBox="0 0 210 50" xmlns="http://www.w3.org/2000/svg">
    <defs>
        <linearGradient x1="0%" y1="0%" x2="100%" y2="0%" id="a">
            <stop stop-color="#3023AE" offset="0%"/>
            <stop stop-color="#C86DD7" offset="100%"/>
        </linearGradient>
    </defs>
    <path stroke="url(#a)"
          stroke-width="3"
          stroke-linejoin="round"
          stroke-linecap="round"
          d="M5 40 C 5.25 38.52, 8.66 10.67, 10 10 S 14.46 33.6, 15 35 S 18.5 35.82, 20 35.71 S 23.52 34.08, 25 34.29 S 28.53 37.46, 30 37.14 S 33.52 32.35, 35 32.14 S 38.53 35.39, 40 35.71 S 43.5 34.4, 45 34.29 S 48.52 35.21, 50 35 S 53.52 32.65, 55 32.86 S 58.53 36.12, 60 36.43 S 63.52 34.79, 65 35 S 68.5 37.97, 70 37.86 S 73.52 34.5, 75 34.29 S 79.14 37.66, 80 36.43 S 83.5 20, 85 20 S 89.01 35.3, 90 36.43 S 93.53 31.74, 95 31.43 S 98.52 34.08, 100 34.29 S 103.62 33.45, 105 32.86 S 108.56 30.41, 110 30 S 113.62 29.41, 115 30 S 118.5 34.4, 120 34.29 S 123.56 29.7, 125 29.29 S 128.82 32.36, 130 31.43 S 133.5 21.54, 135 21.43 S 139.01 29.58, 140 30.71 S 143.5 32.97, 145 32.86 S 148.5 30.11, 150 30 S 153.5 32.03, 155 32.14 S 158.52 30.5, 160 30.71 S 163.52 33.36, 165 33.57 S 168.56 31.73, 170 32.14 S 173.56 36.02, 175 36.43 S 178.78 35.87, 180 35 S 183.5 29.29, 185 29.29 S 188.9 33.98, 190 35 S 193.52 38.36, 195 38.57 S 198.86 37.41, 200 36.43 S 204.08 31.18, 205 30"
          fill="none"/>
    <circle r="4" cx="5" cy="40" fill="#3023AE"/>
    <circle r="4" cx="205" cy="30" fill="#C86DD7"/>      
</svg>