<svg width="200" height="50" viewBox="0 0 210 50" xmlns="http://www.w3.org/2000/svg">
    <defs>
        <linearGradient x1="0%" y1="0%" x2="100%" y2="0%" id="a">
            <stop stop-color="#3023AE" offset="0%"/>
            <stop stop-color="#C86DD7" offset="100%"/>
        </linearGradient>
    </defs>
    <path stroke="url(#a)"
          stroke-width="3"
          stroke-linejoin="round"
          stroke-linecap="round"
          d="M5 40 C 5.25 38.52, 9.33 11.34, 10 10 S 14.33 18.66, 15 20 S 18.66 29.33, 20 30 S 23.5 25, 25 25 S 28.94 28.94, 30 30 S 33.66 34.33, 35 35 S 38.5 35, 40 35 S 43.94 36.06, 45 35 S 48.5 25, 50 25 S 53.94 33.94, 55 35 S 58.5 35, 60 35 S 63.5 35, 65 35 S 68.5 35, 70 35 S 73.94 36.06, 75 35 S 78.94 26.06, 80 25 S 83.66 24.33, 85 25 S 88.66 29.33, 90 30 S 93.5 30, 95 30 S 98.66 29.33, 100 30 S 103.94 36.06, 105 35 S 108.94 21.06, 110 20 S 114.17 23.75, 115 25 S 118.94 33.94, 120 35 S 123.5 35, 125 35 S 128.5 35, 130 35 S 133.5 35, 135 35 S 138.5 35, 140 35 S 143.66 35.67, 145 35 S 148.94 31.06, 150 30 S 153.66 24.33, 155 25 S 158.5 35, 160 35 S 163.5 25, 165 25 S 168.66 35.67, 170 35 S 173.66 20.67, 175 20 S 179.17 28.75, 180 30 S 183.66 34.33, 185 35 S 188.5 35, 190 35 S 194.17 36.25, 195 35 S 199.53 21.42, 200 20"
          fill="none"/>
    <circle r="4" cx="5" cy="40" fill="#3023AE"/>
    <circle r="4" cx="200" cy="20" fill="#C86DD7"/>      
</svg>