<svg width="200" height="50" viewBox="0 0 210 50" xmlns="http://www.w3.org/2000/svg">
    <defs>
        <linearGradient x1="0%" y1="0%" x2="100%" y2="0%" id="a">
            <stop stop-color="#3023AE" offset="0%"/>
            <stop stop-color="#C86DD7" offset="100%"/>
        </linearGradient>
    </defs>
    <path stroke="url(#a)"
          stroke-width="3"
          stroke-linejoin="round"
          stroke-linecap="round"
          d="M5 40 C 5.25 38.52, 8.51 10.21, 10 10 S 14.5 37.19, 15 38.6 S 18.5 38.38, 20 38.4 S 23.5 38.66, 25 38.74 S 28.5 38.87, 30 38.94 S 33.5 39.08, 35 39.18 S 38.5 39.56, 40 39.62 S 43.5 39.55, 45 39.59 S 48.5 39.85, 50 39.9 S 53.51 40.1, 55 39.9 S 58.53 38.85, 60 38.53 S 63.5 37.78, 65 37.71 S 68.5 38.11, 70 38.05 S 73.5 37.46, 75 37.34 S 78.5 37.25, 80 37.24 S 83.5 37.27, 85 37.3 S 88.5 37.32, 90 37.41 S 93.5 37.88, 95 37.88 S 98.5 37.47, 100 37.44 S 103.5 37.78, 105 37.71 S 108.51 37.13, 110 37 S 113.5 36.76, 115 36.86 S 118.5 37.68, 120 37.65 S 123.5 36.72, 125 36.69 S 128.5 37.43, 130 37.47 S 133.5 37.07, 135 36.96 S 138.51 36.59, 140 36.72 S 143.51 37.72, 145 37.85 S 148.5 37.6, 150 37.58 S 153.5 37.71, 155 37.71 S 158.5 37.59, 160 37.58 S 163.5 37.59, 165 37.65 S 168.5 37.91, 170 37.99 S 173.5 38.13, 175 38.16 S 178.5 38.22, 180 38.16 S 183.5 37.71, 185 37.78 S 188.5 38.54, 190 38.6 S 193.54 38.52, 195 38.16 S 198.5 36.13, 200 36.14 S 203.62 37.67, 205 38.26"
          fill="none"/>
    <circle r="4" cx="5" cy="40" fill="#3023AE"/>
    <circle r="4" cx="205" cy="38.26" fill="#C86DD7"/>      
</svg>