<svg width="200" height="50" viewBox="0 0 210 50" xmlns="http://www.w3.org/2000/svg">
    <defs>
        <linearGradient x1="0%" y1="0%" x2="100%" y2="0%" id="a">
            <stop stop-color="#3023AE" offset="0%"/>
            <stop stop-color="#C86DD7" offset="100%"/>
        </linearGradient>
    </defs>
    <path stroke="url(#a)"
          stroke-width="3"
          stroke-linejoin="round"
          stroke-linecap="round"
          d="M5 40 C 6.36 39.37, 8.63 38.29, 10 37.69 S 14.49 37.03, 15 35.62 S 18.52 10.23, 20 10 S 24.46 32.67, 25 34.07 S 28.51 36.15, 30 36.03 S 33.5 33.17, 35 33.25 S 38.63 35.98, 40 36.58 S 43.51 37.47, 45 37.64 S 48.5 37.66, 50 37.73 S 53.5 38.19, 55 38.14 S 58.51 37.57, 60 37.42 S 63.5 37.04, 65 37.14 S 68.5 38, 70 38.08 S 73.5 37.63, 75 37.67 S 78.5 38.28, 80 38.38 S 83.5 38.31, 85 38.36 S 88.5 38.7, 90 38.7 S 93.5 38.36, 95 38.33 S 98.5 38.48, 100 38.47 S 103.57 38.74, 105 38.28 S 108.92 36.28, 110 35.24 S 113.51 28.48, 115 28.62 S 118.85 35.23, 120 36.2 S 123.53 36.76, 125 37.05 S 128.51 38, 130 38.14 S 133.5 37.98, 135 37.97 S 138.5 38.01, 140 38.04 S 143.5 38.06, 145 38.16 S 148.55 39.08, 150 38.69 S 154.37 36.85, 155 35.49 S 158.53 16.94, 160 17.25 S 164.32 36.24, 165 37.58 S 168.54 37.4, 170 37.07 S 173.5 35.4, 175 35.34 S 178.54 36.31, 180 36.64 S 183.51 37.48, 185 37.61 S 188.5 37.52, 190 37.52 S 193.5 37.64, 195 37.64 S 198.5 37.53, 200 37.51 S 203.5 37.5, 205 37.49"
          fill="none"/>
    <circle r="4" cx="5" cy="40" fill="#3023AE"/>
    <circle r="4" cx="205" cy="37.49" fill="#C86DD7"/>      
</svg>