<svg width="200" height="50" viewBox="0 0 210 50" xmlns="http://www.w3.org/2000/svg">
    <defs>
        <linearGradient x1="0%" y1="0%" x2="100%" y2="0%" id="a">
            <stop stop-color="#3023AE" offset="0%"/>
            <stop stop-color="#C86DD7" offset="100%"/>
        </linearGradient>
    </defs>
    <path stroke="url(#a)"
          stroke-width="3"
          stroke-linejoin="round"
          stroke-linecap="round"
          d="M5 40 C 5.25 38.52, 8.76 10.85, 10 10 S 14.46 31.72, 15 33.12 S 18.69 35.39, 20 36.12 S 23.55 38.26, 25 38.65 S 28.5 38.73, 30 38.82 S 33.5 39.13, 35 39.24 S 38.5 39.51, 40 39.53 S 43.5 39.34, 45 39.35 S 48.5 39.58, 50 39.59 S 53.5 39.46, 55 39.41 S 58.51 39.4, 60 39.24 S 63.5 38.34, 65 38.35 S 68.5 39.21, 70 39.29 S 73.5 38.96, 75 38.88 S 78.5 38.68, 80 38.76 S 83.51 39.28, 85 39.41 S 88.5 39.61, 90 39.65 S 93.5 39.63, 95 39.65 S 98.5 39.76, 100 39.76 S 103.5 39.63, 105 39.65 S 108.5 39.85, 110 39.88 S 113.5 39.81, 115 39.82 S 118.5 39.97, 120 39.94 S 123.5 39.69, 125 39.65 S 128.5 39.61, 130 39.65 S 133.5 39.91, 135 39.94 S 138.5 39.89, 140 39.88 S 143.5 39.9, 145 39.88 S 148.5 39.77, 150 39.76 S 153.5 39.85, 155 39.82 S 158.5 39.59, 160 39.59 S 163.5 39.77, 165 39.82 S 168.5 39.92, 170 39.94 S 173.5 39.97, 175 39.94 S 178.5 39.79, 180 39.76 S 183.5 39.74, 185 39.76 S 188.5 39.87, 190 39.88 S 193.5 39.87, 195 39.82 S 198.5 39.56, 200 39.53 S 203.5 39.61, 205 39.65"
          fill="none"/>
    <circle r="4" cx="5" cy="40" fill="#3023AE"/>
    <circle r="4" cx="205" cy="39.65" fill="#C86DD7"/>      
</svg>