<svg width="200" height="50" viewBox="0 0 210 50" xmlns="http://www.w3.org/2000/svg">
    <defs>
        <linearGradient x1="0%" y1="0%" x2="100%" y2="0%" id="a">
            <stop stop-color="#3023AE" offset="0%"/>
            <stop stop-color="#C86DD7" offset="100%"/>
        </linearGradient>
    </defs>
    <path stroke="url(#a)"
          stroke-width="3"
          stroke-linejoin="round"
          stroke-linecap="round"
          d="M5 40 C 6.2 39.1, 8.6 36.78, 10 36.25 S 13.53 35.97, 15 36.25 S 18.53 37.84, 20 38.12 S 23.5 38.12, 25 38.12 S 28.5 38.12, 30 38.12 S 33.5 38.12, 35 38.12 S 38.5 38.12, 40 38.12 S 43.5 38.12, 45 38.12 S 48.5 38.12, 50 38.12 S 53.8 39.02, 55 38.12 S 58.69 31.35, 60 30.62 S 63.8 31.6, 65 32.5 S 68.6 37.59, 70 38.12 S 74.17 37.5, 75 36.25 S 78.69 23.86, 80 23.12 S 84 29.5, 85 30.62 S 88.69 35.1, 90 34.37 S 93.91 26.03, 95 25 S 98.8 24.1, 100 25 S 104.09 31.31, 105 32.5 S 109.24 39.41, 110 38.12 S 113.91 16.65, 115 15.62 S 119 27.63, 120 28.75 S 123.91 27.9, 125 26.87 S 128.53 19.65, 130 19.37 S 133.6 25.53, 135 25 S 138.91 16.65, 140 15.62 S 143.69 16.35, 145 15.62 S 149.24 8.71, 150 10 S 154.43 31.11, 155 32.5 S 158.91 35.4, 160 34.37 S 164.35 24.47, 165 23.12 S 169.09 12.56, 170 13.75 S 174 35.13, 175 36.25 S 178.53 24.72, 180 25 S 183.8 37.22, 185 38.12 S 188.6 33.03, 190 32.5 S 193.53 34.09, 195 34.37 S 198.5 34.37, 200 34.37 S 203.5 34.37, 205 34.37"
          fill="none"/>
    <circle r="4" cx="5" cy="40" fill="#3023AE"/>
    <circle r="4" cx="205" cy="34.37" fill="#C86DD7"/>      
</svg>