<svg width="200" height="50" viewBox="0 0 210 50" xmlns="http://www.w3.org/2000/svg">
    <defs>
        <linearGradient x1="0%" y1="0%" x2="100%" y2="0%" id="a">
            <stop stop-color="#3023AE" offset="0%"/>
            <stop stop-color="#C86DD7" offset="100%"/>
        </linearGradient>
    </defs>
    <path stroke="url(#a)"
          stroke-width="3"
          stroke-linejoin="round"
          stroke-linecap="round"
          d="M5 40 C 5.8 38.73, 8.57 32.56, 10 32.11 S 13.73 36.04, 15 36.84 S 18.52 38.19, 20 38.42 S 23.5 38.42, 25 38.42 S 28.5 38.42, 30 38.42 S 33.5 38.42, 35 38.42 S 38.5 38.42, 40 38.42 S 43.5 38.42, 45 38.42 S 48.5 38.42, 50 38.42 S 53.5 38.42, 55 38.42 S 58.91 39.45, 60 38.42 S 64.5 30.36, 65 28.95 S 68.64 10.64, 70 10 S 74.42 22.83, 75 24.21 S 79.14 32.45, 80 33.68 S 83.57 37.97, 85 38.42 S 88.52 37.07, 90 36.84 S 93.52 37.07, 95 36.84 S 98.52 35.03, 100 35.26 S 103.57 37.97, 105 38.42 S 108.57 38.87, 110 38.42 S 113.57 35.71, 115 35.26 S 118.57 34.81, 120 35.26 S 123.57 37.97, 125 38.42 S 128.64 39.06, 130 38.42 S 133.64 34.32, 135 33.68 S 138.64 33.04, 140 33.68 S 143.64 37.78, 145 38.42 S 148.52 38.65, 150 38.42 S 153.5 36.84, 155 36.84 S 158.57 38.87, 160 38.42 S 163.52 33.91, 165 33.68 S 168.64 36.2, 170 36.84 S 173.52 38.19, 175 38.42 S 178.5 38.42, 180 38.42 S 183.5 38.42, 185 38.42 S 188.5 38.42, 190 38.42"
          fill="none"/>
    <circle r="4" cx="5" cy="40" fill="#3023AE"/>
    <circle r="4" cx="190" cy="38.42" fill="#C86DD7"/>      
</svg>