<svg width="200" height="50" viewBox="0 0 210 50" xmlns="http://www.w3.org/2000/svg">
    <defs>
        <linearGradient x1="0%" y1="0%" x2="100%" y2="0%" id="a">
            <stop stop-color="#3023AE" offset="0%"/>
            <stop stop-color="#C86DD7" offset="100%"/>
        </linearGradient>
    </defs>
    <path stroke="url(#a)"
          stroke-width="3"
          stroke-linejoin="round"
          stroke-linecap="round"
          d="M5 40 C 5.89 38.79, 8.55 33.54, 10 33.16 S 13.7 36.62, 15 37.37 S 18.5 39.03, 20 38.95 S 23.51 37, 25 36.84 S 28.53 37.58, 30 37.89 S 33.51 38.79, 35 38.95 S 38.52 39.18, 40 38.95 S 43.52 37.6, 45 37.37 S 48.51 37.21, 50 37.37 S 53.5 38.34, 55 38.42 S 58.51 38.05, 60 37.89 S 63.5 37.45, 65 37.37 S 68.5 37.37, 70 37.37 S 73.5 37.29, 75 37.37 S 78.53 38.2, 80 37.89 S 83.53 35.57, 85 35.26 S 88.51 35.63, 90 35.79 S 93.52 36.09, 95 36.32 S 98.55 36.99, 100 37.37 S 103.5 38.95, 105 38.95 S 108.57 37.82, 110 37.37 S 114.25 37.09, 115 35.79 S 118.94 21.06, 120 20 S 124.04 24.63, 125 25.79 S 128.67 31.41, 130 32.11 S 133.59 30.53, 135 31.05 S 138.53 35.48, 140 35.79 S 143.94 34.22, 145 33.16 S 148.7 26.54, 150 25.79 S 153.67 26.67, 155 27.37 S 158.5 31.13, 160 31.05 S 163.55 27.22, 165 26.84 S 168.53 28.11, 170 28.42 S 173.76 29.8, 175 28.95 S 178.79 22.47, 180 21.58 S 183.5 21.58, 185 21.58 S 188.5 21.58, 190 21.58 S 193.85 22.55, 195 21.58 S 199.02 14.3, 200 13.16 S 203.73 10.8, 205 10"
          fill="none"/>
    <circle r="4" cx="5" cy="40" fill="#3023AE"/>
    <circle r="4" cx="205" cy="10" fill="#C86DD7"/>      
</svg>