<svg width="200" height="50" viewBox="0 0 210 50" xmlns="http://www.w3.org/2000/svg">
    <defs>
        <linearGradient x1="0%" y1="0%" x2="100%" y2="0%" id="a">
            <stop stop-color="#3023AE" offset="0%"/>
            <stop stop-color="#C86DD7" offset="100%"/>
        </linearGradient>
    </defs>
    <path stroke="url(#a)"
          stroke-width="3"
          stroke-linejoin="round"
          stroke-linecap="round"
          d="M5 40 C 5.25 38.52, 8.56 10.43, 10 10 S 14.36 35.65, 15 37 S 18.71 31.77, 20 31 S 23.71 30.23, 25 31 S 28.71 36.23, 30 37 S 34.04 38.15, 35 37 S 38.5 25, 40 25 S 43.71 36.23, 45 37 S 48.5 31, 50 31 S 53.71 36.23, 55 37 S 58.5 37, 60 37 S 63.5 37, 65 37 S 68.5 37, 70 37 S 73.5 37, 75 37 S 78.5 37, 80 37 S 83.5 37, 85 37 S 88.5 37, 90 37 S 94.04 38.15, 95 37 S 98.71 25.77, 100 25 S 103.89 30, 105 31 S 108.56 33.57, 110 34 S 113.56 33.57, 115 34 S 118.5 37, 120 37 S 123.5 34, 125 34 S 128.56 37.43, 130 37 S 133.5 31, 135 31 S 138.71 36.23, 140 37 S 143.5 37, 145 37 S 148.5 37, 150 37 S 153.5 37, 155 37 S 158.56 37.43, 160 37 S 163.5 34, 165 34 S 168.56 36.57, 170 37 S 173.5 37, 175 37 S 178.5 37, 180 37 S 183.5 37, 185 37 S 188.5 37, 190 37"
          fill="none"/>
    <circle r="4" cx="5" cy="40" fill="#3023AE"/>
    <circle r="4" cx="190" cy="37" fill="#C86DD7"/>      
</svg>