<svg width="200" height="50" viewBox="0 0 210 50" xmlns="http://www.w3.org/2000/svg">
    <defs>
        <linearGradient x1="0%" y1="0%" x2="100%" y2="0%" id="a">
            <stop stop-color="#3023AE" offset="0%"/>
            <stop stop-color="#C86DD7" offset="100%"/>
        </linearGradient>
    </defs>
    <path stroke="url(#a)"
          stroke-width="3"
          stroke-linejoin="round"
          stroke-linecap="round"
          d="M5 40 C 6.11 38.99, 8.5 35.5, 10 35.47 S 13.63 39.19, 15 39.8 S 18.5 39.88, 20 39.91 S 23.5 39.96, 25 39.97 S 28.5 39.97, 30 39.97 S 33.5 39.97, 35 39.97 S 38.5 39.97, 40 39.97 S 43.5 39.97, 45 39.97 S 48.5 39.97, 50 39.97 S 53.5 39.97, 55 39.97 S 58.5 39.97, 60 39.97 S 63.5 39.97, 65 39.97 S 68.5 39.97, 70 39.97 S 73.5 39.97, 75 39.97 S 78.5 39.97, 80 39.97 S 83.5 39.97, 85 39.97 S 88.5 39.97, 90 39.97 S 93.5 39.97, 95 39.97 S 98.5 39.97, 100 39.97 S 103.5 39.97, 105 39.97 S 108.5 39.97, 110 39.97 S 113.5 39.97, 115 39.97 S 118.5 39.97, 120 39.97 S 123.53 40.24, 125 39.97 S 128.52 38.33, 130 38.11 S 133.52 38.22, 135 38.48 S 138.51 39.68, 140 39.89 S 143.5 39.89, 145 39.89 S 148.5 39.91, 150 39.91 S 153.5 39.88, 155 39.89 S 158.5 39.97, 160 39.97 S 163.5 39.89, 165 39.89 S 168.5 39.93, 170 39.94 S 173.5 39.94, 175 39.94 S 179.52 41.39, 180 39.97 S 183.58 10.49, 185 10 S 189.51 35.08, 190 36.5 S 193.5 38.84, 195 38.94 S 198.5 37.11, 200 37.16 S 203.62 38.69, 205 39.28"
          fill="none"/>
    <circle r="4" cx="5" cy="40" fill="#3023AE"/>
    <circle r="4" cx="205" cy="39.28" fill="#C86DD7"/>      
</svg>