<svg width="200" height="50" viewBox="0 0 210 50" xmlns="http://www.w3.org/2000/svg">
    <defs>
        <linearGradient x1="0%" y1="0%" x2="100%" y2="0%" id="a">
            <stop stop-color="#3023AE" offset="0%"/>
            <stop stop-color="#C86DD7" offset="100%"/>
        </linearGradient>
    </defs>
    <path stroke="url(#a)"
          stroke-width="3"
          stroke-linejoin="round"
          stroke-linecap="round"
          d="M5 40 C 6.38 39.41, 8.57 38.3, 10 37.84 S 13.52 36.55, 15 36.76 S 18.52 39.01, 20 39.28 S 23.51 38.7, 25 38.56 S 28.51 38.45, 30 38.32 S 33.51 37.85, 35 37.72 S 38.51 37.61, 40 37.48 S 43.5 36.95, 45 36.88 S 48.5 37.04, 50 37 S 53.5 36.68, 55 36.64 S 58.51 36.9, 60 36.76 S 63.51 35.86, 65 35.68 S 69.01 36.69, 70 35.56 S 73.81 25.19, 75 24.28 S 79.14 29.11, 80 27.88 S 83.54 10.35, 85 10 S 89.31 24.15, 90 25.48 S 93.68 28.61, 95 29.32 S 98.6 30.34, 100 30.88 S 103.52 33.43, 105 33.16 S 108.52 29.35, 110 29.08 S 113.54 31.01, 115 31.36 S 118.56 31.05, 120 31.48 S 123.5 34.36, 125 34.36 S 128.97 32.57, 130 31.48 S 133.5 23.89, 135 23.8 S 138.8 29.98, 140 30.88 S 143.57 30.78, 145 31.24 S 148.5 34.1, 150 34.12 S 153.51 31.49, 155 31.36 S 158.52 33.55, 160 33.28 S 163.71 30.32, 165 29.56 S 168.5 27.51, 170 27.4 S 173.5 28.77, 175 28.84 S 178.58 27.39, 180 27.88 S 183.61 31.75, 185 32.32 S 188.5 31.96, 190 31.96 S 193.53 32.62, 195 32.32 S 198.53 30.2, 200 29.92 S 203.51 30.26, 205 30.4"
          fill="none"/>
    <circle r="4" cx="5" cy="40" fill="#3023AE"/>
    <circle r="4" cx="205" cy="30.4" fill="#C86DD7"/>      
</svg>