<svg width="200" height="50" viewBox="0 0 210 50" xmlns="http://www.w3.org/2000/svg">
    <defs>
        <linearGradient x1="0%" y1="0%" x2="100%" y2="0%" id="a">
            <stop stop-color="#3023AE" offset="0%"/>
            <stop stop-color="#C86DD7" offset="100%"/>
        </linearGradient>
    </defs>
    <path stroke="url(#a)"
          stroke-width="3"
          stroke-linejoin="round"
          stroke-linecap="round"
          d="M5 40 C 5.41 38.56, 8.6 23.12, 10 22.58 S 14.07 34.96, 15 36.13 S 18.7 35.91, 20 35.16 S 23.56 30.74, 25 30.32 S 28.65 32.91, 30 32.26 S 34.39 26.85, 35 25.48 S 38.7 9.25, 40 10 S 44.45 29.9, 45 31.29 S 48.5 35.16, 50 35.16 S 53.51 31.15, 55 31.29 S 58.65 35.48, 60 36.13 S 63.56 35.71, 65 36.13 S 68.56 38.61, 70 39.03 S 73.53 39.31, 75 39.03 S 78.56 37.52, 80 37.1 S 83.53 36.42, 85 36.13 S 88.51 35.3, 90 35.16 S 93.5 35.16, 95 35.16 S 98.53 34.87, 100 35.16 S 103.5 37.1, 105 37.1 S 108.5 35.16, 110 35.16 S 113.5 37.1, 115 37.1 S 118.56 35.58, 120 35.16 S 123.51 34.33, 125 34.19 S 128.7 34.94, 130 34.19 S 133.5 28.39, 135 28.39 S 138.6 33.65, 140 34.19 S 143.51 32.12, 145 32.26 S 148.51 35.02, 150 35.16 S 153.53 33.51, 155 33.23 S 158.53 32.95, 160 33.23 S 163.56 34.74, 165 35.16 S 168.53 35.84, 170 36.13 S 173.53 36.82, 175 37.1 S 178.56 38.48, 180 38.06 S 183.65 34.84, 185 34.19 S 188.65 32.58, 190 33.23 S 193.56 39.45, 195 39.03 S 198.56 30.74, 200 30.32 S 204.02 34.99, 205 36.13"
          fill="none"/>
    <circle r="4" cx="5" cy="40" fill="#3023AE"/>
    <circle r="4" cx="205" cy="36.13" fill="#C86DD7"/>      
</svg>