<svg width="200" height="50" viewBox="0 0 210 50" xmlns="http://www.w3.org/2000/svg">
    <defs>
        <linearGradient x1="0%" y1="0%" x2="100%" y2="0%" id="a">
            <stop stop-color="#3023AE" offset="0%"/>
            <stop stop-color="#C86DD7" offset="100%"/>
        </linearGradient>
    </defs>
    <path stroke="url(#a)"
          stroke-width="3"
          stroke-linejoin="round"
          stroke-linecap="round"
          d="M5 40 C 6.5 39.89, 8.66 40.31, 10 39.64 S 13.51 35.16, 15 34.97 S 18.52 38.11, 20 38.38 S 23.51 36.61, 25 36.77 S 28.53 39.17, 30 39.46 S 34.52 40.16, 35 38.74 S 38.72 10.78, 40 10 S 44.5 31.22, 45 32.63 S 48.55 38.75, 50 38.38 S 53.5 30.17, 55 30.12 S 58.75 37.19, 60 38.02 S 63.5 36.66, 65 36.77 S 68.5 38.63, 70 38.74 S 73.5 37.6, 75 37.49 S 78.52 37.78, 80 38.02 S 83.5 39.05, 85 39.1 S 88.5 38.43, 90 38.38 S 93.5 38.85, 95 38.74 S 98.5 37.69, 100 37.66 S 103.5 38.45, 105 38.56 S 108.5 38.41, 110 38.38 S 113.51 38.25, 115 38.38 S 118.5 39.2, 120 39.28 S 123.5 38.92, 125 38.92 S 128.5 39.39, 130 39.28 S 133.55 38.59, 135 38.2 S 138.52 36.83, 140 36.59 S 143.53 36.27, 145 36.59 S 148.52 38.5, 150 38.74 S 153.51 38.36, 155 38.2 S 158.5 37.55, 160 37.66 S 163.52 38.68, 165 38.92 S 168.5 39.33, 170 39.28 S 173.5 38.59, 175 38.56 S 178.5 39.13, 180 39.1 S 183.5 38.38, 185 38.38 S 188.5 39.05, 190 39.1 S 193.5 38.85, 195 38.74 S 198.51 38.51, 200 38.38 S 203.51 38, 205 37.84"
          fill="none"/>
    <circle r="4" cx="5" cy="40" fill="#3023AE"/>
    <circle r="4" cx="205" cy="37.84" fill="#C86DD7"/>      
</svg>