<svg width="200" height="50" viewBox="0 0 210 50" xmlns="http://www.w3.org/2000/svg">
    <defs>
        <linearGradient x1="0%" y1="0%" x2="100%" y2="0%" id="a">
            <stop stop-color="#3023AE" offset="0%"/>
            <stop stop-color="#C86DD7" offset="100%"/>
        </linearGradient>
    </defs>
    <path stroke="url(#a)"
          stroke-width="3"
          stroke-linejoin="round"
          stroke-linecap="round"
          d="M5 40 C 5.54 38.6, 8.62 27.73, 10 27.14 S 13.62 35.12, 15 35.71 S 18.62 32.02, 20 31.43 S 23.62 30.84, 25 31.43 S 28.62 35.12, 30 35.71 S 33.5 35.71, 35 35.71 S 38.5 35.71, 40 35.71 S 43.5 35.71, 45 35.71 S 48.5 35.71, 50 35.71 S 53.5 35.71, 55 35.71 S 58.5 35.71, 60 35.71 S 63.5 35.71, 65 35.71 S 68.86 36.69, 70 35.71 S 74.08 28.32, 75 27.14 S 78.5 22.86, 80 22.86 S 84.08 25.96, 85 27.14 S 88.62 35.12, 90 35.71 S 93.86 32.41, 95 31.43 S 98.62 27.73, 100 27.14 S 103.86 26.16, 105 27.14 S 108.5 35.71, 110 35.71 S 113.5 27.14, 115 27.14 S 118.62 35.12, 120 35.71 S 123.86 32.41, 125 31.43 S 128.62 27.73, 130 27.14 S 133.5 27.14, 135 27.14 S 138.86 26.16, 140 27.14 S 143.62 35.12, 145 35.71 S 149.46 32.83, 150 31.43 S 153.5 10, 155 10 S 159.37 30.07, 160 31.43 S 163.62 30.84, 165 31.43 S 168.62 35.12, 170 35.71 S 173.5 35.71, 175 35.71 S 178.5 35.71, 180 35.71 S 183.5 35.71, 185 35.71 S 188.5 35.71, 190 35.71 S 193.5 35.71, 195 35.71 S 198.5 35.71, 200 35.71 S 203.5 35.71, 205 35.71"
          fill="none"/>
    <circle r="4" cx="5" cy="40" fill="#3023AE"/>
    <circle r="4" cx="205" cy="35.71" fill="#C86DD7"/>      
</svg>