<svg width="200" height="50" viewBox="0 0 210 50" xmlns="http://www.w3.org/2000/svg">
    <defs>
        <linearGradient x1="0%" y1="0%" x2="100%" y2="0%" id="a">
            <stop stop-color="#3023AE" offset="0%"/>
            <stop stop-color="#C86DD7" offset="100%"/>
        </linearGradient>
    </defs>
    <path stroke="url(#a)"
          stroke-width="3"
          stroke-linejoin="round"
          stroke-linecap="round"
          d="M5 40 C 6.5 39.99, 8.5 40.01, 10 39.98 S 13.5 39.77, 15 39.77 S 18.5 39.92, 20 39.95 S 23.5 39.97, 25 39.97 S 28.5 39.97, 30 39.97 S 33.5 39.97, 35 39.97 S 39.53 41.37, 40 39.95 S 43.66 10.67, 45 10 S 49.5 33.58, 50 35 S 53.62 37.87, 55 38.46 S 58.51 39.08, 60 39.27 S 63.5 39.68, 65 39.74 S 68.5 39.67, 70 39.67 S 73.5 39.73, 75 39.74 S 78.5 39.72, 80 39.72 S 83.5 39.75, 85 39.75 S 88.5 39.7, 90 39.7 S 93.5 39.74, 95 39.74 S 98.5 39.71, 100 39.72 S 103.5 39.79, 105 39.8 S 108.5 39.78, 110 39.77 S 113.5 39.72, 115 39.72 S 118.5 39.73, 120 39.75 S 123.5 39.86, 125 39.87 S 128.5 39.83, 130 39.83 S 133.5 39.88, 135 39.85 S 138.5 39.66, 140 39.64 S 143.5 39.74, 145 39.74 S 148.5 39.67, 150 39.67 S 153.5 39.71, 155 39.72 S 158.5 39.74, 160 39.75 S 163.5 39.79, 165 39.78 S 168.5 39.7, 170 39.7 S 173.5 39.77, 175 39.77 S 178.5 39.71, 180 39.72 S 183.5 39.8, 185 39.82 S 188.5 39.87, 190 39.87 S 193.5 39.81, 195 39.8 S 198.5 39.83, 200 39.83 S 203.5 39.83, 205 39.83"
          fill="none"/>
    <circle r="4" cx="5" cy="40" fill="#3023AE"/>
    <circle r="4" cx="205" cy="39.83" fill="#C86DD7"/>      
</svg>