<svg width="200" height="50" viewBox="0 0 210 50" xmlns="http://www.w3.org/2000/svg">
    <defs>
        <linearGradient x1="0%" y1="0%" x2="100%" y2="0%" id="a">
            <stop stop-color="#3023AE" offset="0%"/>
            <stop stop-color="#C86DD7" offset="100%"/>
        </linearGradient>
    </defs>
    <path stroke="url(#a)"
          stroke-width="3"
          stroke-linejoin="round"
          stroke-linecap="round"
          d="M5 40 C 5.25 38.52, 8.5 10.05, 10 10 S 14.52 38.23, 15 39.65 S 18.5 39.86, 20 39.88 S 23.5 39.79, 25 39.77 S 28.5 39.75, 30 39.77 S 33.5 39.86, 35 39.88 S 38.5 39.88, 40 39.88 S 43.5 39.9, 45 39.88 S 48.56 40.19, 50 39.77 S 53.54 37.32, 55 36.98 S 58.51 37.23, 60 37.44 S 63.5 38.27, 65 38.37 S 68.51 38.35, 70 38.14 S 73.5 37.05, 75 36.98 S 78.51 37.53, 80 37.67 S 83.5 37.93, 85 37.91 S 88.51 37.7, 90 37.56 S 93.5 36.93, 95 36.98 S 98.5 37.93, 100 37.91 S 103.5 36.81, 105 36.86 S 108.51 38.12, 110 38.26 S 113.51 37.93, 115 37.79 S 118.5 37.24, 120 37.33 S 123.5 38.41, 125 38.37 S 128.5 37.16, 130 37.09 S 133.5 38, 135 37.91 S 138.5 36.53, 140 36.51 S 143.52 37.57, 145 37.79 S 148.5 37.92, 150 38.02 S 153.5 38.4, 155 38.49 S 158.5 38.58, 160 38.6 S 163.5 38.63, 165 38.6 S 168.5 38.42, 170 38.37 S 173.5 38.26, 175 38.26 S 178.5 38.25, 180 38.37 S 183.5 38.98, 185 39.07 S 188.5 39.05, 190 38.95 S 193.5 38.44, 195 38.37 S 198.5 38.49, 200 38.49 S 203.5 38.41, 205 38.37"
          fill="none"/>
    <circle r="4" cx="5" cy="40" fill="#3023AE"/>
    <circle r="4" cx="205" cy="38.37" fill="#C86DD7"/>      
</svg>