<svg width="200" height="50" viewBox="0 0 210 50" xmlns="http://www.w3.org/2000/svg">
    <defs>
        <linearGradient x1="0%" y1="0%" x2="100%" y2="0%" id="a">
            <stop stop-color="#3023AE" offset="0%"/>
            <stop stop-color="#C86DD7" offset="100%"/>
        </linearGradient>
    </defs>
    <path stroke="url(#a)"
          stroke-width="3"
          stroke-linejoin="round"
          stroke-linecap="round"
          d="M5 40 C 6.49 39.79, 8.5 39.33, 10 39.3 S 13.76 40.61, 15 39.77 S 19.52 33.92, 20 32.5 S 23.56 10.41, 25 10 S 29.47 28.29, 30 29.69 S 33.75 35.43, 35 36.25 S 38.54 35.91, 40 36.25 S 43.5 38.59, 45 38.59 S 48.52 36.49, 50 36.25 S 53.51 37.09, 55 36.95 S 58.5 35.31, 60 35.31 S 63.53 36.64, 65 36.95 S 68.53 37.14, 70 37.42 S 73.53 39.14, 75 38.83 S 78.51 35.52, 80 35.31 S 83.56 37.01, 85 37.42 S 88.5 38.02, 90 38.12 S 93.53 38.4, 95 38.12 S 98.5 36.32, 100 36.25 S 103.52 37.42, 105 37.66 S 108.5 37.86, 110 37.89 S 113.5 37.86, 115 37.89 S 118.5 38.12, 120 38.12 S 123.5 37.89, 125 37.89 S 128.51 38.29, 130 38.12 S 133.5 36.82, 135 36.72 S 138.52 37.18, 140 37.42 S 143.5 38.36, 145 38.36 S 148.5 37.42, 150 37.42 S 153.5 38.26, 155 38.36 S 158.5 38.12, 160 38.12 S 163.5 38.39, 165 38.36 S 168.5 37.86, 170 37.89 S 173.51 38.73, 175 38.59 S 178.5 36.84, 180 36.95 S 183.5 39.23, 185 39.3 S 188.53 37.7, 190 37.42 S 193.52 37.18, 195 37.42 S 198.5 39.09, 200 39.06 S 203.6 37.72, 205 37.19"
          fill="none"/>
    <circle r="4" cx="5" cy="40" fill="#3023AE"/>
    <circle r="4" cx="205" cy="37.19" fill="#C86DD7"/>      
</svg>