<svg width="200" height="50" viewBox="0 0 210 50" xmlns="http://www.w3.org/2000/svg">
    <defs>
        <linearGradient x1="0%" y1="0%" x2="100%" y2="0%" id="a">
            <stop stop-color="#3023AE" offset="0%"/>
            <stop stop-color="#C86DD7" offset="100%"/>
        </linearGradient>
    </defs>
    <path stroke="url(#a)"
          stroke-width="3"
          stroke-linejoin="round"
          stroke-linecap="round"
          d="M5 40 C 5.6 38.62, 8.98 29.61, 10 28.51 S 13.77 28.29, 15 29.15 S 18.63 36.14, 20 35.53 S 23.88 25.68, 25 24.68 S 28.74 27.41, 30 26.6 S 33.55 18.67, 35 18.3 S 38.53 23.76, 40 24.04 S 43.53 20.49, 45 20.21 S 48.57 21.67, 50 22.13 S 53.7 24.15, 55 23.4 S 58.6 16.92, 60 16.38 S 63.92 18.53, 65 19.57 S 68.53 25.68, 70 25.96 S 73.66 22.17, 75 21.49 S 78.53 21.13, 80 20.85 S 83.5 19.47, 85 19.57 S 88.6 20.95, 90 21.49 S 93.5 23.3, 95 23.4 S 98.6 22.67, 100 22.13 S 103.6 20.11, 105 19.57 S 108.53 18.02, 110 18.3 S 113.51 21.3, 115 21.49 S 118.7 18.82, 120 19.57 S 123.85 26.27, 125 27.23 S 128.55 27.5, 130 27.87 S 134.1 30.99, 135 29.79 S 139.32 15.81, 140 14.47 S 143.77 9.14, 145 10 S 149.23 20.21, 150 21.49 S 153.95 25.53, 155 26.6 S 158.55 32.07, 160 31.7 S 163.77 24.9, 165 24.04 S 168.55 24.31, 170 24.68 S 173.7 25.85, 175 26.6 S 178.7 31.18, 180 30.43 S 183.57 21.31, 185 20.85 S 188.88 26.23, 190 27.23 S 193.53 29.51, 195 29.79 S 199.08 30.33, 200 29.15 S 204.43 18.41, 205 17.02"
          fill="none"/>
    <circle r="4" cx="5" cy="40" fill="#3023AE"/>
    <circle r="4" cx="205" cy="17.02" fill="#C86DD7"/>      
</svg>