<svg width="200" height="50" viewBox="0 0 210 50" xmlns="http://www.w3.org/2000/svg">
    <defs>
        <linearGradient x1="0%" y1="0%" x2="100%" y2="0%" id="a">
            <stop stop-color="#3023AE" offset="0%"/>
            <stop stop-color="#C86DD7" offset="100%"/>
        </linearGradient>
    </defs>
    <path stroke="url(#a)"
          stroke-width="3"
          stroke-linejoin="round"
          stroke-linecap="round"
          d="M5 40 C 5.25 38.52, 9.4 11.37, 10 10 S 14.43 15.83, 15 17.22 S 19.23 33.15, 20 34.43 S 23.51 33.63, 25 33.8 S 28.5 35.46, 30 35.57 S 33.5 34.6, 35 34.56 S 38.5 35.32, 40 35.32 S 43.51 34.37, 45 34.56 S 48.54 36.23, 50 36.58 S 53.52 36.72, 55 36.96 S 58.52 37.97, 60 38.23 S 63.51 38.54, 65 38.73 S 68.51 39.34, 70 39.49 S 73.5 39.77, 75 39.75 S 78.51 39.54, 80 39.37 S 83.5 38.69, 85 38.61 S 88.5 38.82, 90 38.86 S 93.5 38.82, 95 38.86 S 98.5 39.02, 100 39.11 S 103.5 39.43, 105 39.49 S 108.5 39.49, 110 39.49 S 113.5 39.47, 115 39.49 S 118.5 39.56, 120 39.62 S 123.5 39.85, 125 39.87 S 128.5 39.75, 130 39.75 S 133.5 39.85, 135 39.87 S 138.5 39.87, 140 39.87 S 143.5 39.93, 145 39.87 S 148.5 39.49, 150 39.49 S 153.5 39.83, 155 39.87 S 158.5 39.75, 160 39.75 S 163.5 39.85, 165 39.87 S 168.5 39.87, 170 39.87 S 173.5 39.87, 175 39.87 S 178.5 39.87, 180 39.87 S 183.5 39.87, 185 39.87 S 188.5 39.87, 190 39.87 S 193.5 39.87, 195 39.87"
          fill="none"/>
    <circle r="4" cx="5" cy="40" fill="#3023AE"/>
    <circle r="4" cx="195" cy="39.87" fill="#C86DD7"/>      
</svg>