<svg width="200" height="50" viewBox="0 0 210 50" xmlns="http://www.w3.org/2000/svg">
    <defs>
        <linearGradient x1="0%" y1="0%" x2="100%" y2="0%" id="a">
            <stop stop-color="#3023AE" offset="0%"/>
            <stop stop-color="#C86DD7" offset="100%"/>
        </linearGradient>
    </defs>
    <path stroke="url(#a)"
          stroke-width="3"
          stroke-linejoin="round"
          stroke-linecap="round"
          d="M5 40 C 6.5 39.89, 8.5 39.66, 10 39.63 S 13.5 39.78, 15 39.81 S 18.5 39.81, 20 39.81 S 23.5 39.81, 25 39.81 S 28.5 39.81, 30 39.81 S 33.5 39.81, 35 39.81 S 38.5 39.81, 40 39.81 S 43.5 39.81, 45 39.81 S 48.5 39.81, 50 39.81 S 53.5 39.81, 55 39.81 S 58.5 39.81, 60 39.81 S 63.5 39.81, 65 39.81 S 68.5 39.81, 70 39.81 S 74.52 41.23, 75 39.81 S 79.15 11.23, 80 10 S 84.48 23.96, 85 25.37 S 89.08 36.04, 90 37.22 S 93.5 38.09, 95 38.15 S 98.5 37.7, 100 37.59 S 103.5 37.44, 105 37.41 S 108.5 37.3, 110 37.41 S 113.5 38.12, 115 38.15 S 118.5 37.7, 120 37.59 S 123.5 37.3, 125 37.41 S 128.52 38.11, 130 38.33 S 133.51 38.75, 135 38.89 S 138.5 39.32, 140 39.26 S 143.5 38.6, 145 38.52 S 148.5 38.7, 150 38.7 S 153.5 38.44, 155 38.52 S 158.5 39.23, 160 39.26 S 163.5 38.81, 165 38.7 S 168.5 38.6, 170 38.52 S 173.5 38.04, 175 38.15 S 178.51 39.07, 180 39.26 S 183.51 39.58, 185 39.44 S 188.5 38.41, 190 38.33 S 193.51 38.75, 195 38.89 S 198.5 39.37, 200 39.26 S 203.54 38.48, 205 38.15"
          fill="none"/>
    <circle r="4" cx="5" cy="40" fill="#3023AE"/>
    <circle r="4" cx="205" cy="38.15" fill="#C86DD7"/>      
</svg>