<svg width="200" height="50" viewBox="0 0 210 50" xmlns="http://www.w3.org/2000/svg">
    <defs>
        <linearGradient x1="0%" y1="0%" x2="100%" y2="0%" id="a">
            <stop stop-color="#3023AE" offset="0%"/>
            <stop stop-color="#C86DD7" offset="100%"/>
        </linearGradient>
    </defs>
    <path stroke="url(#a)"
          stroke-width="3"
          stroke-linejoin="round"
          stroke-linecap="round"
          d="M5 40 C 6.47 39.69, 8.51 39.09, 10 38.93 S 14.51 40.35, 15 38.93 S 18.5 10, 20 10 S 24.46 37.53, 25 38.93 S 28.53 36.02, 30 35.71 S 33.68 37.5, 35 36.79 S 38.53 30.05, 40 30.36 S 43.8 38.03, 45 38.93 S 48.51 38.02, 50 37.86 S 53.51 37.7, 55 37.86 S 58.51 38.77, 60 38.93 S 63.5 38.93, 65 38.93 S 68.5 38.93, 70 38.93 S 73.51 39.09, 75 38.93 S 78.5 37.86, 80 37.86 S 83.51 38.77, 85 38.93 S 88.5 38.93, 90 38.93 S 93.5 38.93, 95 38.93 S 98.5 38.93, 100 38.93 S 103.51 39.09, 105 38.93 S 108.57 38.32, 110 37.86 S 113.5 35.71, 115 35.71 S 118.57 37.4, 120 37.86 S 123.51 38.77, 125 38.93 S 128.5 38.93, 130 38.93 S 133.53 39.24, 135 38.93 S 138.53 37.1, 140 36.79 S 143.8 37.69, 145 36.79 S 148.51 29.45, 150 29.29 S 153.62 35.12, 155 35.71 S 158.53 33.25, 160 33.57 S 163.51 37.7, 165 37.86 S 168.51 34.8, 170 34.64 S 173.51 36.63, 175 36.79 S 178.51 35.55, 180 35.71 S 183.51 37.7, 185 37.86 S 188.51 36.63, 190 36.79 S 193.53 39.25, 195 38.93 S 198.53 34.95, 200 34.64 S 203.62 36.2, 205 36.79"
          fill="none"/>
    <circle r="4" cx="5" cy="40" fill="#3023AE"/>
    <circle r="4" cx="205" cy="36.79" fill="#C86DD7"/>      
</svg>