<svg width="200" height="50" viewBox="0 0 210 50" xmlns="http://www.w3.org/2000/svg">
    <defs>
        <linearGradient x1="0%" y1="0%" x2="100%" y2="0%" id="a">
            <stop stop-color="#3023AE" offset="0%"/>
            <stop stop-color="#C86DD7" offset="100%"/>
        </linearGradient>
    </defs>
    <path stroke="url(#a)"
          stroke-width="3"
          stroke-linejoin="round"
          stroke-linecap="round"
          d="M5 40 C 6.5 39.97, 8.5 39.9, 10 39.9 S 13.5 39.98, 15 39.99 S 18.5 40, 20 39.99 S 23.5 39.92, 25 39.92 S 28.5 39.95, 30 39.96 S 33.5 39.99, 35 39.99 S 38.5 39.99, 40 39.97 S 44.53 41.29, 45 39.87 S 48.52 10.23, 50 10 S 54.5 36.93, 55 38.34 S 58.5 38.02, 60 38.09 S 63.54 39.13, 65 38.8 S 68.57 36.25, 70 35.81 S 73.53 35.48, 75 35.75 S 78.55 37.27, 80 37.67 S 83.51 38.39, 85 38.52 S 88.5 38.52, 90 38.52 S 93.5 38.57, 95 38.53 S 98.5 38.31, 100 38.27 S 103.5 38.27, 105 38.28 S 108.5 38.41, 110 38.32 S 113.5 37.71, 115 37.7 S 118.5 38.15, 120 38.22 S 123.5 38.26, 125 38.17 S 128.5 37.7, 130 37.62 S 133.5 37.69, 135 37.62 S 138.51 37.32, 140 37.14 S 143.51 36.59, 145 36.4 S 148.5 35.75, 150 35.83 S 153.51 36.7, 155 36.91 S 158.51 37.09, 160 37.23 S 163.5 37.9, 165 37.82 S 168.5 36.71, 170 36.67 S 173.5 37.6, 175 37.54 S 178.52 36.52, 180 36.27 S 183.5 35.83, 185 35.88 S 188.5 36.52, 190 36.61 S 193.5 36.6, 195 36.48 S 198.5 35.86, 200 35.83 S 203.51 36.12, 205 36.25"
          fill="none"/>
    <circle r="4" cx="5" cy="40" fill="#3023AE"/>
    <circle r="4" cx="205" cy="36.25" fill="#C86DD7"/>      
</svg>