<svg width="200" height="50" viewBox="0 0 210 50" xmlns="http://www.w3.org/2000/svg">
    <defs>
        <linearGradient x1="0%" y1="0%" x2="100%" y2="0%" id="a">
            <stop stop-color="#3023AE" offset="0%"/>
            <stop stop-color="#C86DD7" offset="100%"/>
        </linearGradient>
    </defs>
    <path stroke="url(#a)"
          stroke-width="3"
          stroke-linejoin="round"
          stroke-linecap="round"
          d="M5 40 C 6.4 39.46, 8.5 38.09, 10 38.06 S 13.52 39.51, 15 39.77 S 18.5 39.81, 20 39.83 S 23.5 39.88, 25 39.88 S 28.5 39.86, 30 39.81 S 34.44 40.94, 35 39.55 S 38.59 15.42, 40 14.9 S 44.38 34.51, 45 35.88 S 48.5 37.05, 50 37.04 S 53.51 35.66, 55 35.84 S 58.5 38.34, 60 38.27 S 64.17 36.64, 65 35.39 S 68.55 23.55, 70 23.18 S 73.78 31.98, 75 32.85 S 78.53 29.96, 80 30.28 S 83.68 34.29, 85 35 S 88.52 35.85, 90 35.63 S 93.55 33.9, 95 33.53 S 98.99 34.21, 100 33.1 S 104.2 23.81, 105 22.54 S 108.52 16.88, 110 17.14 S 113.98 23.17, 115 24.27 S 118.51 27.79, 120 27.93 S 123.52 24.95, 125 25.22 S 128.56 29.3, 130 29.73 S 133.89 29.22, 135 28.22 S 138.57 21.15, 140 20.71 S 143.83 24.21, 145 25.15 S 148.57 28.34, 150 28.8 S 153.53 28.69, 155 28.37 S 159.28 27.94, 160 26.62 S 163.5 9.96, 165 10 S 168.98 25.8, 170 26.9 S 173.51 20.94, 175 20.81 S 178.56 25.57, 180 26 S 183.54 23.44, 185 23.8 S 188.51 28.36, 190 28.49 S 193.67 25.37, 195 24.68 S 198.59 23.81, 200 23.3 S 203.63 21.69, 205 21.08"
          fill="none"/>
    <circle r="4" cx="5" cy="40" fill="#3023AE"/>
    <circle r="4" cx="205" cy="21.08" fill="#C86DD7"/>      
</svg>