<svg width="200" height="50" viewBox="0 0 210 50" xmlns="http://www.w3.org/2000/svg">
    <defs>
        <linearGradient x1="0%" y1="0%" x2="100%" y2="0%" id="a">
            <stop stop-color="#3023AE" offset="0%"/>
            <stop stop-color="#C86DD7" offset="100%"/>
        </linearGradient>
    </defs>
    <path stroke="url(#a)"
          stroke-width="3"
          stroke-linejoin="round"
          stroke-linecap="round"
          d="M5 40 C 6.43 39.56, 8.54 38.8, 10 38.46 S 13.5 37.69, 15 37.69 S 18.52 38.69, 20 38.46 S 23.5 36.15, 25 36.15 S 28.5 38.46, 30 38.46 S 33.5 36.15, 35 36.15 S 38.54 38.12, 40 38.46 S 43.5 38.34, 45 38.46 S 48.54 39.57, 50 39.23 S 53.64 36.78, 55 36.15 S 58.57 35.06, 60 34.62 S 63.6 32.54, 65 33.08 S 68.57 38.02, 70 38.46 S 73.5 36.03, 75 36.15 S 78.54 38.89, 80 39.23 S 83.57 38.9, 85 38.46 S 88.5 36.03, 90 36.15 S 93.52 39.46, 95 39.23 S 98.54 34.96, 100 34.62 S 103.52 37.15, 105 36.92 S 108.94 34.14, 110 33.08 S 113.5 27.04, 115 26.92 S 118.81 31.39, 120 32.31 S 123.57 35.06, 125 34.62 S 128.57 28.79, 130 29.23 S 133.64 37.06, 135 37.69 S 138.77 34.7, 140 33.85 S 143.72 31.56, 145 30.77 S 149.35 29.04, 150 27.69 S 153.52 10.23, 155 10 S 159.21 24.87, 160 26.15 S 163.57 25.71, 165 26.15 S 168.64 28.6, 170 29.23 S 173.72 29.98, 175 30.77 S 178.5 35.38, 180 35.38 S 183.57 31.21, 185 30.77 S 188.57 32.75, 190 32.31 S 193.54 27.35, 195 27.69 S 198.81 33.71, 200 34.62 S 203.52 35.15, 205 35.38"
          fill="none"/>
    <circle r="4" cx="5" cy="40" fill="#3023AE"/>
    <circle r="4" cx="205" cy="35.38" fill="#C86DD7"/>      
</svg>