<svg width="200" height="50" viewBox="0 0 210 50" xmlns="http://www.w3.org/2000/svg">
    <defs>
        <linearGradient x1="0%" y1="0%" x2="100%" y2="0%" id="a">
            <stop stop-color="#3023AE" offset="0%"/>
            <stop stop-color="#C86DD7" offset="100%"/>
        </linearGradient>
    </defs>
    <path stroke="url(#a)"
          stroke-width="3"
          stroke-linejoin="round"
          stroke-linecap="round"
          d="M5 40 C 6.29 39.23, 8.56 37.43, 10 37 S 13.5 37, 15 37 S 18.5 37, 20 37 S 23.5 37, 25 37 S 28.5 37, 30 37 S 33.5 37, 35 37 S 38.5 37, 40 37 S 43.5 37, 45 37 S 48.5 37, 50 37 S 53.5 37, 55 37 S 58.5 37, 60 37 S 63.5 37, 65 37 S 68.5 37, 70 37 S 73.5 37, 75 37 S 78.5 37, 80 37 S 83.89 38, 85 37 S 88.89 29, 90 28 S 93.71 27.23, 95 28 S 98.56 33.57, 100 34 S 103.71 31.77, 105 31 S 108.56 27.57, 110 28 S 113.5 34, 115 34 S 118.5 28, 120 28 S 123.56 33.57, 125 34 S 129.36 32.35, 130 31 S 133.89 14, 135 13 S 139.04 20.85, 140 22 S 143.71 24.23, 145 25 S 148.71 27.23, 150 28 S 153.56 30.57, 155 31 S 158.56 31.43, 160 31 S 163.89 29, 165 28 S 168.56 21.57, 170 22 S 173.89 32, 175 31 S 178.71 13.77, 180 13 S 183.56 25.43, 185 25 S 188.89 9, 190 10 S 194.04 32.85, 195 34 S 198.71 22.77, 200 22 S 204.04 26.85, 205 28"
          fill="none"/>
    <circle r="4" cx="5" cy="40" fill="#3023AE"/>
    <circle r="4" cx="205" cy="28" fill="#C86DD7"/>      
</svg>