<svg width="200" height="50" viewBox="0 0 210 50" xmlns="http://www.w3.org/2000/svg">
    <defs>
        <linearGradient x1="0%" y1="0%" x2="100%" y2="0%" id="a">
            <stop stop-color="#3023AE" offset="0%"/>
            <stop stop-color="#C86DD7" offset="100%"/>
        </linearGradient>
    </defs>
    <path stroke="url(#a)"
          stroke-width="3"
          stroke-linejoin="round"
          stroke-linecap="round"
          d="M5 40 C 5.25 38.52, 8.62 10.59, 10 10 S 14.44 34.32, 15 35.71 S 18.52 34.43, 20 34.64 S 23.54 36.78, 25 37.14 S 28.51 37.3, 30 37.14 S 33.51 35.91, 35 36.07 S 38.53 37.9, 40 38.21 S 43.51 38.05, 45 38.21 S 48.52 39.08, 50 39.29 S 53.5 39.59, 55 39.64 S 58.53 39.95, 60 39.64 S 63.76 38.34, 65 37.5 S 68.54 33.22, 70 32.86 S 73.51 34.84, 75 35 S 78.51 34.09, 80 33.93 S 83.53 33.62, 85 33.93 S 88.5 36.02, 90 36.07 S 93.52 34.5, 95 34.29 S 98.5 34.59, 100 34.64 S 103.5 34.53, 105 34.64 S 108.53 35.67, 110 35.36 S 113.6 33.05, 115 32.5 S 118.51 31.27, 120 31.43 S 123.53 33.26, 125 33.57 S 128.57 34.03, 130 33.57 S 133.66 31.03, 135 30.36 S 138.51 28.41, 140 28.57 S 143.52 31.17, 145 31.43 S 148.59 30.86, 150 30.36 S 153.68 28.57, 155 27.86 S 158.5 24.95, 160 25 S 163.53 28.52, 165 28.21 S 168.51 23.07, 170 22.86 S 173.62 26.2, 175 26.79 S 178.5 27.19, 180 27.14 S 184.18 27.69, 185 26.43 S 189.14 13.02, 190 11.79 S 193.76 11.3, 195 12.14 S 198.68 17.86, 200 18.57 S 203.53 17.81, 205 17.5"
          fill="none"/>
    <circle r="4" cx="5" cy="40" fill="#3023AE"/>
    <circle r="4" cx="205" cy="17.5" fill="#C86DD7"/>      
</svg>