<svg width="200" height="50" viewBox="0 0 210 50" xmlns="http://www.w3.org/2000/svg">
    <defs>
        <linearGradient x1="0%" y1="0%" x2="100%" y2="0%" id="a">
            <stop stop-color="#3023AE" offset="0%"/>
            <stop stop-color="#C86DD7" offset="100%"/>
        </linearGradient>
    </defs>
    <path stroke="url(#a)"
          stroke-width="3"
          stroke-linejoin="round"
          stroke-linecap="round"
          d="M5 40 C 5.25 38.52, 8.55 10.37, 10 10 S 14.49 36.08, 15 37.49 S 18.5 37.67, 20 37.78 S 23.51 38.1, 25 38.23 S 28.75 39.48, 30 38.65 S 33.51 31.74, 35 31.54 S 38.75 36.49, 40 37.33 S 43.51 38.05, 45 38.25 S 48.5 38.71, 50 38.67 S 53.5 38.08, 55 38.01 S 58.5 38.19, 60 38.23 S 63.5 38.26, 65 38.27 S 68.5 38.22, 70 38.27 S 73.5 38.59, 75 38.63 S 78.5 38.54, 80 38.51 S 83.5 38.44, 85 38.42 S 88.5 38.37, 90 38.35 S 93.5 38.27, 95 38.27 S 98.5 38.3, 100 38.32 S 103.5 38.39, 105 38.39 S 108.5 38.46, 110 38.34 S 113.5 37.61, 115 37.59 S 118.5 38.14, 120 38.21 S 123.5 38.03, 125 38.08 S 128.5 38.53, 130 38.56 S 133.5 38.27, 135 38.3 S 138.5 38.78, 140 38.79 S 143.5 38.4, 145 38.34 S 148.5 38.41, 150 38.41 S 153.5 38.39, 155 38.37 S 158.5 38.29, 160 38.28 S 163.5 38.35, 165 38.32 S 168.5 38.21, 170 38.11 S 173.5 37.63, 175 37.63 S 178.5 38.01, 180 38.11 S 183.5 38.28, 185 38.32 S 188.62 38.99, 190 38.39 S 193.5 34.03, 195 33.99 S 198.61 37.52, 200 38.09 S 203.5 38.12, 205 38.13"
          fill="none"/>
    <circle r="4" cx="5" cy="40" fill="#3023AE"/>
    <circle r="4" cx="205" cy="38.13" fill="#C86DD7"/>      
</svg>