<svg width="200" height="50" viewBox="0 0 210 50" xmlns="http://www.w3.org/2000/svg">
    <defs>
        <linearGradient x1="0%" y1="0%" x2="100%" y2="0%" id="a">
            <stop stop-color="#3023AE" offset="0%"/>
            <stop stop-color="#C86DD7" offset="100%"/>
        </linearGradient>
    </defs>
    <path stroke="url(#a)"
          stroke-width="3"
          stroke-linejoin="round"
          stroke-linecap="round"
          d="M5 40 C 6.5 39.99, 8.5 39.97, 10 39.97 S 13.5 39.99, 15 39.99 S 18.5 39.99, 20 39.99 S 23.5 39.99, 25 39.99 S 28.5 39.99, 30 39.99 S 33.5 39.99, 35 39.99 S 38.5 39.99, 40 39.99 S 43.5 39.99, 45 39.99 S 48.5 39.99, 50 39.99 S 54.53 41.41, 55 39.99 S 58.56 10.41, 60 10 S 64.51 35.76, 65 37.18 S 68.52 38.59, 70 38.86 S 73.5 39, 75 39.02 S 78.5 38.98, 80 38.98 S 83.5 38.99, 85 39.03 S 88.5 39.24, 90 39.22 S 93.5 38.97, 95 38.92 S 98.5 38.92, 100 38.91 S 103.5 38.86, 105 38.85 S 108.5 38.84, 110 38.81 S 113.5 38.63, 115 38.67 S 118.5 39.05, 120 39.05 S 123.5 38.7, 125 38.69 S 128.5 38.94, 130 38.99 S 133.5 38.99, 135 39 S 138.5 39.08, 140 39.07 S 143.5 38.98, 145 38.95 S 148.5 38.92, 150 38.9 S 153.5 38.86, 155 38.84 S 158.5 38.77, 160 38.75 S 163.5 38.74, 165 38.72 S 168.5 38.58, 170 38.6 S 173.5 38.82, 175 38.85 S 178.53 39.09, 180 38.81 S 183.5 37.03, 185 36.95 S 188.52 38.01, 190 38.26 S 193.5 38.62, 195 38.63 S 198.5 38.3, 200 38.34 S 203.51 38.71, 205 38.87"
          fill="none"/>
    <circle r="4" cx="5" cy="40" fill="#3023AE"/>
    <circle r="4" cx="205" cy="38.87" fill="#C86DD7"/>      
</svg>