<svg width="200" height="50" viewBox="0 0 210 50" xmlns="http://www.w3.org/2000/svg">
    <defs>
        <linearGradient x1="0%" y1="0%" x2="100%" y2="0%" id="a">
            <stop stop-color="#3023AE" offset="0%"/>
            <stop stop-color="#C86DD7" offset="100%"/>
        </linearGradient>
    </defs>
    <path stroke="url(#a)"
          stroke-width="3"
          stroke-linejoin="round"
          stroke-linecap="round"
          d="M5 40 C 6.49 39.87, 8.5 39.65, 10 39.58 S 13.5 39.44, 15 39.5 S 18.5 39.88, 20 39.95 S 23.5 39.95, 25 39.96 S 28.5 39.99, 30 39.99 S 33.5 39.97, 35 39.97 S 38.5 39.98, 40 39.98 S 43.5 39.99, 45 39.99 S 48.5 39.99, 50 39.99 S 53.5 39.99, 55 39.99 S 58.5 39.99, 60 39.99 S 63.5 39.99, 65 39.99 S 68.5 39.99, 70 39.99 S 73.5 39.99, 75 39.99 S 78.5 39.99, 80 39.99 S 83.5 39.99, 85 39.99 S 88.5 39.99, 90 39.99 S 93.5 39.99, 95 39.99 S 98.5 39.99, 100 39.99 S 103.5 39.99, 105 39.99 S 108.5 39.99, 110 39.99 S 113.5 39.99, 115 39.99 S 118.5 39.99, 120 39.99 S 123.5 39.99, 125 39.99 S 128.5 39.99, 130 39.99 S 133.5 39.99, 135 39.99 S 138.5 39.99, 140 39.99 S 143.5 39.99, 145 39.99 S 148.5 39.99, 150 39.99 S 153.5 39.96, 155 39.96 S 158.5 39.98, 160 39.98 S 163.5 39.98, 165 39.98 S 168.5 39.98, 170 39.98 S 173.5 39.99, 175 39.99 S 178.5 39.96, 180 39.96 S 183.58 40.45, 185 39.98 S 189.53 38.08, 190 36.66 S 193.51 9.83, 195 10 S 199.5 36.38, 200 37.79 S 203.51 38.1, 205 38.23"
          fill="none"/>
    <circle r="4" cx="5" cy="40" fill="#3023AE"/>
    <circle r="4" cx="205" cy="38.23" fill="#C86DD7"/>      
</svg>