<svg width="200" height="50" viewBox="0 0 210 50" xmlns="http://www.w3.org/2000/svg">
    <defs>
        <linearGradient x1="0%" y1="0%" x2="100%" y2="0%" id="a">
            <stop stop-color="#3023AE" offset="0%"/>
            <stop stop-color="#C86DD7" offset="100%"/>
        </linearGradient>
    </defs>
    <path stroke="url(#a)"
          stroke-width="3"
          stroke-linejoin="round"
          stroke-linecap="round"
          d="M5 40 C 6.5 39.99, 8.5 39.99, 10 39.98 S 13.69 40.68, 15 39.96 S 18.88 35.47, 20 34.47 S 23.89 32.05, 25 31.04 S 28.57 25.78, 30 25.33 S 33.62 27.29, 35 27.87 S 39.27 30.8, 40 29.49 S 44.22 11.28, 45 10 S 49.17 11.67, 50 12.92 S 54.12 23.85, 55 25.07 S 58.5 26.77, 60 26.76 S 63.5 25.06, 65 25.01 S 68.51 26.26, 70 26.45 S 73.53 26.56, 75 26.28 S 78.77 25.4, 80 24.54 S 83.57 19.75, 85 19.29 S 88.6 20.81, 90 21.35 S 93.53 22.89, 95 23.18 S 98.5 23.37, 100 23.3 S 103.52 22.99, 105 22.73 S 108.56 21.95, 110 21.54 S 113.5 19.86, 115 19.89 S 118.54 21.35, 120 21.71 S 123.51 22.17, 125 22.38 S 128.51 23.29, 130 23.13 S 133.54 21.61, 135 21.28 S 138.59 21.41, 140 20.9 S 143.51 17.78, 145 17.65 S 148.57 20.51, 150 20.05 S 153.5 14.39, 155 14.39 S 158.68 19.35, 160 20.06 S 163.57 20.26, 165 19.8 S 168.81 17.73, 170 16.82 S 173.62 11.59, 175 12.17 S 178.81 20.13, 180 21.04 S 183.5 19.84, 185 19.83 S 188.55 20.6, 190 20.97 S 193.52 22.15, 195 22.39 S 198.81 23.48, 200 22.57 S 204.19 15.99, 205 14.73"
          fill="none"/>
    <circle r="4" cx="5" cy="40" fill="#3023AE"/>
    <circle r="4" cx="205" cy="14.73" fill="#C86DD7"/>      
</svg>