<svg width="200" height="50" viewBox="0 0 210 50" xmlns="http://www.w3.org/2000/svg">
    <defs>
        <linearGradient x1="0%" y1="0%" x2="100%" y2="0%" id="a">
            <stop stop-color="#3023AE" offset="0%"/>
            <stop stop-color="#C86DD7" offset="100%"/>
        </linearGradient>
    </defs>
    <path stroke="url(#a)"
          stroke-width="3"
          stroke-linejoin="round"
          stroke-linecap="round"
          d="M5 40 C 6.5 39.99, 8.5 39.99, 10 39.98 S 13.69 40.68, 15 39.96 S 18.88 35.47, 20 34.47 S 23.89 32.06, 25 31.05 S 28.57 25.78, 30 25.33 S 33.62 27.29, 35 27.87 S 39.27 30.8, 40 29.49 S 44.19 11.26, 45 10 S 49.17 12.56, 50 13.81 S 54.08 23.91, 55 25.09 S 58.5 26.65, 60 26.68 S 63.5 25.31, 65 25.26 S 68.51 26.14, 70 26.32 S 73.51 26.67, 75 26.46 S 78.77 25.77, 80 24.91 S 83.55 19.86, 85 19.47 S 88.55 21.84, 90 22.24 S 93.51 22.04, 95 22.25 S 98.5 23.62, 100 23.65 S 103.51 22.6, 105 22.44 S 108.55 22.96, 110 22.57 S 113.51 19.92, 115 19.73 S 118.57 20.84, 120 21.29 S 123.53 22.55, 125 22.84 S 128.52 23.5, 130 23.25 S 133.52 21.4, 135 21.14 S 138.55 21.83, 140 21.46 S 143.53 18.95, 145 18.63 S 148.62 19.88, 150 19.29 S 153.51 14.23, 155 14.36 S 158.67 19.48, 160 20.18 S 163.53 19.91, 165 19.6 S 168.76 18.91, 170 18.06 S 173.52 12.53, 175 12.75 S 178.82 18.6, 180 19.52 S 183.52 20.37, 185 20.58 S 188.51 20.81, 190 20.96 S 193.51 21.38, 195 21.58 S 198.66 22.97, 200 22.3 S 204.01 17.71, 205 16.58"
          fill="none"/>
    <circle r="4" cx="5" cy="40" fill="#3023AE"/>
    <circle r="4" cx="205" cy="16.58" fill="#C86DD7"/>      
</svg>