<svg width="200" height="50" viewBox="0 0 210 50" xmlns="http://www.w3.org/2000/svg">
    <defs>
        <linearGradient x1="0%" y1="0%" x2="100%" y2="0%" id="a">
            <stop stop-color="#3023AE" offset="0%"/>
            <stop stop-color="#C86DD7" offset="100%"/>
        </linearGradient>
    </defs>
    <path stroke="url(#a)"
          stroke-width="3"
          stroke-linejoin="round"
          stroke-linecap="round"
          d="M5 40 C 6.5 39.99, 8.5 39.99, 10 39.98 S 13.69 40.68, 15 39.96 S 18.88 35.47, 20 34.47 S 23.89 32.06, 25 31.05 S 28.57 25.79, 30 25.34 S 33.61 27.3, 35 27.87 S 39.27 30.8, 40 29.49 S 44.21 11.27, 45 10 S 49.17 12.14, 50 13.39 S 54.1 23.82, 55 25.02 S 58.5 26.62, 60 26.65 S 63.5 25.23, 65 25.21 S 68.51 26.38, 70 26.53 S 73.52 26.46, 75 26.22 S 78.75 25.73, 80 24.9 S 83.58 20, 85 19.52 S 88.58 21.04, 90 21.52 S 93.53 22.64, 95 22.93 S 98.5 23.59, 100 23.52 S 103.51 22.67, 105 22.49 S 108.57 22.77, 110 22.33 S 113.51 19.58, 115 19.44 S 118.58 20.88, 120 21.36 S 123.52 22.55, 125 22.82 S 128.52 23.43, 130 23.2 S 133.53 21.57, 135 21.29 S 138.58 21.75, 140 21.28 S 143.52 18.2, 145 17.97 S 148.59 20.2, 150 19.7 S 153.5 14.34, 155 14.41 S 158.67 19.49, 160 20.18 S 163.55 19.99, 165 19.61 S 168.79 18.46, 170 17.57 S 173.56 11.87, 175 12.28 S 178.82 19.45, 180 20.38 S 183.5 20.09, 185 20.19 S 188.52 20.78, 190 21.02 S 193.52 21.58, 195 21.84 S 198.74 23.59, 200 22.78 S 204.16 16.66, 205 15.42"
          fill="none"/>
    <circle r="4" cx="5" cy="40" fill="#3023AE"/>
    <circle r="4" cx="205" cy="15.420000000000002" fill="#C86DD7"/>      
</svg>