<svg width="200" height="50" viewBox="0 0 210 50" xmlns="http://www.w3.org/2000/svg">
    <defs>
        <linearGradient x1="0%" y1="0%" x2="100%" y2="0%" id="a">
            <stop stop-color="#3023AE" offset="0%"/>
            <stop stop-color="#C86DD7" offset="100%"/>
        </linearGradient>
    </defs>
    <path stroke="url(#a)"
          stroke-width="3"
          stroke-linejoin="round"
          stroke-linecap="round"
          d="M5 40 C 6.5 39.99, 8.5 39.99, 10 39.98 S 13.69 40.68, 15 39.96 S 18.88 35.47, 20 34.47 S 23.89 32.04, 25 31.03 S 28.57 25.77, 30 25.32 S 33.62 27.3, 35 27.88 S 39.27 30.81, 40 29.5 S 44.29 11.32, 45 10 S 49.17 9.62, 50 10.87 S 54.19 23.88, 55 25.14 S 58.5 26.47, 60 26.43 S 63.5 24.84, 65 24.88 S 68.51 26.54, 70 26.67 S 73.57 26.21, 75 25.76 S 78.81 24.46, 80 23.55 S 83.51 18.25, 85 18.07 S 88.65 21.67, 90 22.32 S 93.5 22.81, 95 22.9 S 98.5 22.97, 100 22.91 S 103.55 22.89, 105 22.49 S 108.53 20.45, 110 20.13 S 113.51 20.15, 115 20.31 S 118.56 20.79, 120 21.22 S 123.5 23.21, 125 23.29 S 128.55 22.14, 130 21.77 S 133.54 21.13, 135 20.77 S 138.53 19.62, 140 19.3 S 143.66 19.27, 145 18.59 S 148.51 14.1, 150 14.25 S 153.65 18.96, 155 19.6 S 158.52 19.27, 160 19.01 S 163.65 18.48, 165 17.83 S 168.51 14.38, 170 14.18 S 173.76 15.66, 175 16.5 S 178.56 20.52, 180 20.95 S 183.5 19.4, 185 19.5 S 188.56 21.23, 190 21.65 S 193.65 23.09, 195 22.43 S 198.52 17, 200 16.74 S 203.82 19.73, 205 20.65"
          fill="none"/>
    <circle r="4" cx="5" cy="40" fill="#3023AE"/>
    <circle r="4" cx="205" cy="20.65" fill="#C86DD7"/>      
</svg>