<svg width="200" height="50" viewBox="0 0 210 50" xmlns="http://www.w3.org/2000/svg">
    <defs>
        <linearGradient x1="0%" y1="0%" x2="100%" y2="0%" id="a">
            <stop stop-color="#3023AE" offset="0%"/>
            <stop stop-color="#C86DD7" offset="100%"/>
        </linearGradient>
    </defs>
    <path stroke="url(#a)"
          stroke-width="3"
          stroke-linejoin="round"
          stroke-linecap="round"
          d="M5 40 C 6.5 39.99, 8.5 39.98, 10 39.98 S 13.63 40.59, 15 39.97 S 18.79 36.34, 20 35.45 S 23.8 33.5, 25 32.6 S 28.55 28.3, 30 27.93 S 33.58 29.56, 35 30.05 S 39.16 32.6, 40 31.36 S 44.36 16.66, 45 15.3 S 49.06 8.83, 50 10 S 54.28 26.42, 55 27.73 S 58.5 28.28, 60 28.18 S 63.5 27.07, 65 27.04 S 68.5 28.04, 70 27.97 S 73.71 27.32, 75 26.55 S 78.55 22.4, 80 22.01 S 83.58 23.4, 85 23.87 S 88.51 25.11, 90 25.31 S 93.5 25.26, 95 25.2 S 98.55 25.32, 100 24.94 S 103.53 22.89, 105 22.58 S 108.53 22.56, 110 22.86 S 113.55 24.24, 115 24.62 S 118.52 25.7, 120 25.48 S 123.51 23.34, 125 23.14 S 128.53 24.47, 130 24.15 S 133.54 21.32, 135 20.98 S 138.57 22.29, 140 21.84 S 143.51 17.7, 145 17.84 S 148.58 22.31, 150 22.8 S 153.56 21.73, 155 21.3 S 158.63 20.39, 160 19.77 S 163.62 16.18, 165 16.76 S 168.69 23.23, 170 23.96 S 173.5 22.37, 175 22.35 S 178.56 23.37, 180 23.8 S 183.6 25.86, 185 25.32 S 188.52 20.18, 190 19.93 S 193.71 22.84, 195 23.61 S 198.55 25.56, 200 25.95 S 203.5 26.2, 205 26.3"
          fill="none"/>
    <circle r="4" cx="5" cy="40" fill="#3023AE"/>
    <circle r="4" cx="205" cy="26.3" fill="#C86DD7"/>      
</svg>