<svg width="200" height="50" viewBox="0 0 210 50" xmlns="http://www.w3.org/2000/svg">
    <defs>
        <linearGradient x1="0%" y1="0%" x2="100%" y2="0%" id="a">
            <stop stop-color="#3023AE" offset="0%"/>
            <stop stop-color="#C86DD7" offset="100%"/>
        </linearGradient>
    </defs>
    <path stroke="url(#a)"
          stroke-width="3"
          stroke-linejoin="round"
          stroke-linecap="round"
          d="M5 40 C 6.5 40, 8.5 39.99, 10 39.99 S 13.55 40.36, 15 39.98 S 18.62 37.95, 20 37.36 S 23.62 36.32, 25 35.72 S 28.52 33.23, 30 33.01 S 34.4 35.62, 35 34.24 S 38.57 10.45, 40 10 S 44.38 29.69, 45 31.06 S 48.5 32.07, 50 32.1 S 53.5 31.22, 55 31.24 S 58.5 32.3, 60 32.26 S 63.62 31.57, 65 30.97 S 68.52 28.16, 70 27.93 S 73.54 29.09, 75 29.44 S 78.5 30.33, 80 30.34 S 83.51 29.66, 85 29.52 S 88.51 29.58, 90 29.41 S 93.5 28.33, 95 28.35 S 98.52 29.31, 100 29.55 S 103.5 30.03, 105 30 S 108.53 29.61, 110 29.32 S 113.52 28.27, 115 28.01 S 118.54 27.93, 120 27.58 S 123.51 25.44, 125 25.59 S 128.53 28.29, 130 28.57 S 133.59 28, 135 27.49 S 138.5 24.95, 140 24.97 S 143.59 27.1, 145 27.61 S 148.52 28.4, 150 28.61 S 153.52 28.82, 155 29.05 S 158.53 30.46, 160 30.16 S 163.5 27.04, 165 26.98 S 168.6 29.24, 170 29.78 S 173.51 30.67, 175 30.86 S 178.5 31.06, 180 31.05 S 183.51 30.98, 185 30.82 S 188.5 29.91, 190 29.99 S 193.51 31.14, 195 31.35 S 198.51 31.2, 200 31.37 S 203.53 32.14, 205 32.46"
          fill="none"/>
    <circle r="4" cx="5" cy="40" fill="#3023AE"/>
    <circle r="4" cx="205" cy="32.46" fill="#C86DD7"/>      
</svg>