<svg width="200" height="50" viewBox="0 0 210 50" xmlns="http://www.w3.org/2000/svg">
    <defs>
        <linearGradient x1="0%" y1="0%" x2="100%" y2="0%" id="a">
            <stop stop-color="#3023AE" offset="0%"/>
            <stop stop-color="#C86DD7" offset="100%"/>
        </linearGradient>
    </defs>
    <path stroke="url(#a)"
          stroke-width="3"
          stroke-linejoin="round"
          stroke-linecap="round"
          d="M5 40 C 6.5 39.99, 8.5 39.99, 10 39.98 S 13.68 40.67, 15 39.96 S 18.87 35.62, 20 34.64 S 23.88 32.29, 25 31.3 S 28.56 26.22, 30 25.78 S 33.61 27.7, 35 28.26 S 39.25 31.12, 40 29.82 S 44.32 12.27, 45 10.93 S 49.15 8.77, 50 10 S 54.23 24.09, 55 25.38 S 58.5 26.8, 60 26.74 S 63.5 24.97, 65 24.98 S 68.5 26.79, 70 26.8 S 73.59 25.57, 75 25.06 S 78.66 23.85, 80 23.18 S 83.52 20.28, 85 20.06 S 88.58 21.24, 90 21.72 S 93.52 23.18, 95 23.44 S 98.52 23.73, 100 23.5 S 103.57 22.36, 105 21.92 S 108.51 20.59, 110 20.4 S 113.53 20.34, 115 20.66 S 118.55 22.17, 120 22.57 S 123.52 23.63, 125 23.42 S 128.52 21.39, 130 21.14 S 133.56 22.15, 135 21.74 S 138.54 18.65, 140 18.31 S 143.6 19.97, 145 19.44 S 148.5 14.42, 150 14.54 S 153.67 19.53, 155 20.22 S 158.57 20.17, 160 19.72 S 163.77 17.96, 165 17.1 S 168.6 12.13, 170 12.68 S 173.79 20.11, 175 21 S 178.5 19.97, 180 20.01 S 183.57 20.8, 185 21.24 S 188.5 23.02, 190 23.11 S 193.81 22.77, 195 21.86 S 198.52 15.3, 200 15.52 S 204.19 22.06, 205 23.32"
          fill="none"/>
    <circle r="4" cx="5" cy="40" fill="#3023AE"/>
    <circle r="4" cx="205" cy="23.32" fill="#C86DD7"/>      
</svg>