<svg width="200" height="50" viewBox="0 0 210 50" xmlns="http://www.w3.org/2000/svg">
    <defs>
        <linearGradient x1="0%" y1="0%" x2="100%" y2="0%" id="a">
            <stop stop-color="#3023AE" offset="0%"/>
            <stop stop-color="#C86DD7" offset="100%"/>
        </linearGradient>
    </defs>
    <path stroke="url(#a)"
          stroke-width="3"
          stroke-linejoin="round"
          stroke-linecap="round"
          d="M5 40 C 6.5 40, 8.5 39.99, 10 39.99 S 13.55 40.36, 15 39.98 S 18.62 37.97, 20 37.39 S 23.62 36.37, 25 35.78 S 28.52 33.32, 30 33.1 S 34.4 35.69, 35 34.31 S 38.57 10.45, 40 10 S 44.38 29.81, 45 31.18 S 48.5 32.2, 50 32.22 S 53.5 31.31, 55 31.3 S 58.5 32.16, 60 32.12 S 63.62 31.58, 65 31 S 68.51 28.1, 70 27.9 S 73.54 29.3, 75 29.65 S 78.5 30.28, 80 30.31 S 83.51 30.02, 85 29.84 S 88.51 29.27, 90 29.08 S 93.5 28.45, 95 28.56 S 98.51 29.6, 100 29.8 S 103.5 30.01, 105 29.92 S 108.52 29.45, 110 29.19 S 113.51 28.35, 115 28.15 S 118.54 28.19, 120 27.84 S 123.5 25.67, 125 25.74 S 128.52 28.06, 130 28.32 S 133.59 27.99, 135 27.49 S 138.51 24.64, 140 24.79 S 143.6 27.96, 145 28.49 S 148.51 28.47, 150 28.6 S 153.51 29.15, 155 29.35 S 158.54 30.26, 160 29.92 S 163.5 26.91, 165 26.99 S 168.6 29.93, 170 30.46 S 173.5 30.67, 175 30.73 S 178.5 30.81, 180 30.88 S 183.5 31.27, 185 31.18 S 188.5 30.21, 190 30.27 S 193.51 31.41, 195 31.59 S 198.51 31.29, 200 31.48 S 203.56 32.49, 205 32.9"
          fill="none"/>
    <circle r="4" cx="5" cy="40" fill="#3023AE"/>
    <circle r="4" cx="205" cy="32.9" fill="#C86DD7"/>      
</svg>