<svg width="200" height="50" viewBox="0 0 210 50" xmlns="http://www.w3.org/2000/svg">
    <defs>
        <linearGradient x1="0%" y1="0%" x2="100%" y2="0%" id="a">
            <stop stop-color="#3023AE" offset="0%"/>
            <stop stop-color="#C86DD7" offset="100%"/>
        </linearGradient>
    </defs>
    <path stroke="url(#a)"
          stroke-width="3"
          stroke-linejoin="round"
          stroke-linecap="round"
          d="M5 40 C 6.5 39.99, 8.5 39.98, 10 39.98 S 13.67 40.66, 15 39.97 S 18.85 35.79, 20 34.83 S 23.86 32.58, 25 31.6 S 28.56 26.69, 30 26.27 S 33.6 28.12, 35 28.67 S 39.23 31.47, 40 30.18 S 44.33 13.29, 45 11.95 S 49.13 8.78, 50 10 S 54.25 24.64, 55 25.94 S 58.5 27.33, 60 27.23 S 63.5 25.22, 65 25.24 S 68.5 27.33, 70 27.34 S 73.64 25.95, 75 25.33 S 78.62 23.36, 80 22.78 S 83.5 21.22, 85 21.15 S 88.57 21.83, 90 22.3 S 93.51 24.29, 95 24.42 S 98.52 23.4, 100 23.17 S 103.56 23.28, 105 22.86 S 108.51 20.43, 110 20.25 S 113.57 21.18, 115 21.63 S 118.53 23.13, 120 23.41 S 123.51 23.75, 125 23.54 S 128.53 22.32, 130 22.02 S 133.58 21.96, 135 21.48 S 138.68 19.32, 140 18.62 S 143.51 15.97, 145 16.16 S 148.63 19.29, 150 19.91 S 153.51 20.82, 155 20.7 S 158.55 19.48, 160 19.08 S 163.66 18.6, 165 17.93 S 168.62 13.52, 170 14.11 S 173.74 21.42, 175 22.24 S 178.5 20.67, 180 20.6 S 183.58 21.26, 185 21.75 S 188.57 24.5, 190 24.06 S 193.61 19.25, 195 18.69 S 198.69 19.32, 200 20.05 S 203.85 23.29, 205 24.25"
          fill="none"/>
    <circle r="4" cx="5" cy="40" fill="#3023AE"/>
    <circle r="4" cx="205" cy="24.25" fill="#C86DD7"/>      
</svg>