<svg width="200" height="50" viewBox="0 0 210 50" xmlns="http://www.w3.org/2000/svg">
    <defs>
        <linearGradient x1="0%" y1="0%" x2="100%" y2="0%" id="a">
            <stop stop-color="#3023AE" offset="0%"/>
            <stop stop-color="#C86DD7" offset="100%"/>
        </linearGradient>
    </defs>
    <path stroke="url(#a)"
          stroke-width="3"
          stroke-linejoin="round"
          stroke-linecap="round"
          d="M5 40 C 6.5 39.99, 8.5 39.99, 10 39.98 S 13.69 40.68, 15 39.96 S 18.88 35.47, 20 34.47 S 23.89 32.05, 25 31.04 S 28.57 25.78, 30 25.33 S 33.62 27.28, 35 27.86 S 39.27 30.8, 40 29.49 S 44.24 11.29, 45 10 S 49.17 11.32, 50 12.57 S 54.13 23.8, 55 25.02 S 58.5 26.7, 60 26.71 S 63.5 25.14, 65 25.08 S 68.51 26.13, 70 26.31 S 73.52 26.55, 75 26.28 S 78.79 25.35, 80 24.47 S 83.57 19.48, 85 19.03 S 88.62 20.75, 90 21.35 S 93.52 23.11, 95 23.36 S 98.5 23.09, 100 23.01 S 103.52 23.09, 105 22.83 S 108.55 21.61, 110 21.24 S 113.5 20.33, 115 20.28 S 118.55 20.51, 120 20.91 S 123.53 22.74, 125 23.06 S 128.53 23.38, 130 23.09 S 133.56 21.5, 135 21.09 S 138.55 20.61, 140 20.22 S 143.68 19.09, 145 18.37 S 148.5 14.67, 150 14.75 S 153.68 18.18, 155 18.9 S 158.5 20.24, 160 20.2 S 163.58 19.14, 165 18.66 S 168.7 17.6, 170 16.86 S 173.63 12.35, 175 12.95 S 178.77 20.4, 180 21.25 S 183.5 19.95, 185 19.87 S 188.57 20.3, 190 20.74 S 193.51 22.75, 195 22.92 S 198.83 22.83, 200 21.89 S 204.13 16.09, 205 14.87"
          fill="none"/>
    <circle r="4" cx="5" cy="40" fill="#3023AE"/>
    <circle r="4" cx="205" cy="14.870000000000001" fill="#C86DD7"/>      
</svg>