<svg width="200" height="50" viewBox="0 0 210 50" xmlns="http://www.w3.org/2000/svg">
    <defs>
        <linearGradient x1="0%" y1="0%" x2="100%" y2="0%" id="a">
            <stop stop-color="#3023AE" offset="0%"/>
            <stop stop-color="#C86DD7" offset="100%"/>
        </linearGradient>
    </defs>
    <path stroke="url(#a)"
          stroke-width="3"
          stroke-linejoin="round"
          stroke-linecap="round"
          d="M5 40 C 6.5 39.99, 8.5 39.96, 10 39.96 S 13.85 40.95, 15 39.99 S 18.7 32.34, 20 31.6 S 23.72 33.51, 25 34.29 S 28.61 37.13, 30 37.7 S 33.53 38.1, 35 38.38 S 39.5 41.02, 40 39.61 S 43.61 10.56, 45 10 S 49.47 34.22, 50 35.62 S 53.5 36.17, 55 36.21 S 58.5 35.95, 60 35.89 S 63.5 35.75, 65 35.8 S 68.5 36.21, 70 36.22 S 73.5 35.81, 75 35.88 S 78.5 36.64, 80 36.72 S 83.5 36.35, 85 36.42 S 88.5 37.12, 90 37.2 S 93.5 37.06, 95 36.98 S 98.5 36.68, 100 36.67 S 103.5 36.91, 105 36.94 S 108.5 36.87, 110 36.9 S 113.5 37.15, 115 37.12 S 118.5 36.71, 120 36.72 S 123.5 37.18, 125 37.22 S 128.5 36.88, 130 36.97 S 133.51 37.68, 135 37.84 S 138.5 37.95, 140 38.02 S 143.5 38.24, 145 38.29 S 148.5 38.32, 150 38.37 S 153.5 38.59, 155 38.6 S 158.5 38.41, 160 38.41 S 163.5 38.59, 165 38.63 S 168.5 38.63, 170 38.65 S 173.5 38.73, 175 38.75 S 178.5 38.76, 180 38.79 S 183.5 38.91, 185 38.95 S 188.5 39.01, 190 39.04 S 193.5 39.1, 195 39.14 S 198.5 39.29, 200 39.29 S 203.5 39.21, 205 39.17"
          fill="none"/>
    <circle r="4" cx="5" cy="40" fill="#3023AE"/>
    <circle r="4" cx="205" cy="39.17" fill="#C86DD7"/>      
</svg>