<svg width="200" height="50" viewBox="0 0 210 50" xmlns="http://www.w3.org/2000/svg">
    <defs>
        <linearGradient x1="0%" y1="0%" x2="100%" y2="0%" id="a">
            <stop stop-color="#3023AE" offset="0%"/>
            <stop stop-color="#C86DD7" offset="100%"/>
        </linearGradient>
    </defs>
    <path stroke="url(#a)"
          stroke-width="3"
          stroke-linejoin="round"
          stroke-linecap="round"
          d="M5 40 C 5.25 38.52, 8.55 10.4, 10 10 S 14.52 35.8, 15 37.22 S 18.54 39.11, 20 39.44 S 23.5 39.52, 25 39.44 S 28.5 38.89, 30 38.89 S 33.5 39.36, 35 39.44 S 38.5 39.44, 40 39.44 S 43.5 39.44, 45 39.44 S 48.5 39.44, 50 39.44 S 53.5 39.44, 55 39.44 S 58.5 39.44, 60 39.44 S 63.5 39.44, 65 39.44 S 68.5 39.44, 70 39.44 S 73.5 39.44, 75 39.44"
          fill="none"/>
    <circle r="4" cx="5" cy="40" fill="#3023AE"/>
    <circle r="4" cx="75" cy="39.44" fill="#C86DD7"/>      
</svg>