<svg width="200" height="50" viewBox="0 0 210 50" xmlns="http://www.w3.org/2000/svg">
    <defs>
        <linearGradient x1="0%" y1="0%" x2="100%" y2="0%" id="a">
            <stop stop-color="#3023AE" offset="0%"/>
            <stop stop-color="#C86DD7" offset="100%"/>
        </linearGradient>
    </defs>
    <path stroke="url(#a)"
          stroke-width="3"
          stroke-linejoin="round"
          stroke-linecap="round"
          d="M5 40 C 6.25 39.17, 8.88 37.67, 10 36.67 S 14.1 32.31, 15 31.11 S 19.36 24.69, 20 23.33 S 23.54 9.67, 25 10 S 28.75 24.73, 30 25.56 S 33.69 15.94, 35 16.67 S 39.15 29.88, 40 31.11 S 43.69 30.38, 45 31.11 S 48.69 35.94, 50 36.67 S 53.54 36.34, 55 36.67 S 58.54 38.56, 60 38.89 S 63.5 38.89, 65 38.89 S 68.51 39.06, 70 38.89 S 73.51 37.95, 75 37.78 S 78.54 38.11, 80 37.78 S 83.51 35.39, 85 35.56 S 88.58 38.42, 90 38.89 S 93.5 38.89, 95 38.89 S 98.5 38.89, 100 38.89 S 103.5 38.89, 105 38.89 S 108.5 38.89, 110 38.89 S 113.5 38.89, 115 38.89 S 118.5 38.89, 120 38.89 S 123.5 38.89, 125 38.89 S 128.58 39.36, 130 38.89 S 133.5 35.56, 135 35.56 S 138.54 38.56, 140 38.89 S 143.51 37.95, 145 37.78 S 148.63 38.39, 150 37.78 S 153.82 34.25, 155 33.33 S 158.54 29.67, 160 30 S 163.58 35.09, 165 35.56 S 168.51 33.16, 170 33.33 S 173.63 36.06, 175 36.67 S 178.5 37.78, 180 37.78 S 183.63 37.28, 185 36.67 S 188.54 33, 190 33.33 S 193.69 38.16, 195 38.89 S 198.51 39.06, 200 38.89 S 203.54 38.11, 205 37.78"
          fill="none"/>
    <circle r="4" cx="5" cy="40" fill="#3023AE"/>
    <circle r="4" cx="205" cy="37.78" fill="#C86DD7"/>      
</svg>