<svg width="200" height="50" viewBox="0 0 210 50" xmlns="http://www.w3.org/2000/svg">
    <defs>
        <linearGradient x1="0%" y1="0%" x2="100%" y2="0%" id="a">
            <stop stop-color="#3023AE" offset="0%"/>
            <stop stop-color="#C86DD7" offset="100%"/>
        </linearGradient>
    </defs>
    <path stroke="url(#a)"
          stroke-width="3"
          stroke-linejoin="round"
          stroke-linecap="round"
          d="M5 40 C 6.18 39.07, 8.78 36.92, 10 36.05 S 13.69 33.61, 15 32.89 S 18.69 29.8, 20 30.53 S 23.87 37.44, 25 38.42 S 28.57 39.66, 30 39.21 S 33.52 35.49, 35 35.26 S 38.6 38.18, 40 37.63 S 43.57 31.77, 45 31.32 S 48.57 34.02, 50 34.47 S 53.64 33.83, 55 34.47 S 58.64 39.85, 60 39.21 S 63.95 30.81, 65 29.74 S 68.69 29.68, 70 28.95 S 73.82 25.14, 75 24.21 S 78.52 21.28, 80 21.05 S 83.87 21.65, 85 22.63 S 88.69 30.46, 90 29.74 S 93.64 17.75, 95 17.11 S 98.91 23.97, 100 25 S 103.5 26.7, 105 26.58 S 108.5 24.09, 110 24.21 S 113.82 26.44, 115 27.37 S 118.99 33.22, 120 32.11 S 124.28 17.63, 125 16.32 S 129.14 12.72, 130 13.95 S 134.17 29.28, 135 30.53 S 138.5 28.95, 140 28.95 S 143.54 30.88, 145 30.53 S 148.54 26.93, 150 26.58 S 153.78 29.03, 155 28.16 S 159.1 20.67, 160 19.47 S 163.6 15.29, 165 14.74 S 168.64 16.17, 170 15.53 S 173.52 10.23, 175 10 S 178.57 13.5, 180 13.95 S 183.73 12.36, 185 13.16 S 189.14 19.03, 190 20.26 S 193.5 27.25, 195 27.37 S 198.54 21.4, 200 21.05 S 203.82 24.07, 205 25"
          fill="none"/>
    <circle r="4" cx="5" cy="40" fill="#3023AE"/>
    <circle r="4" cx="205" cy="25" fill="#C86DD7"/>      
</svg>