<svg width="200" height="50" viewBox="0 0 210 50" xmlns="http://www.w3.org/2000/svg">
    <defs>
        <linearGradient x1="0%" y1="0%" x2="100%" y2="0%" id="a">
            <stop stop-color="#3023AE" offset="0%"/>
            <stop stop-color="#C86DD7" offset="100%"/>
        </linearGradient>
    </defs>
    <path stroke="url(#a)"
          stroke-width="3"
          stroke-linejoin="round"
          stroke-linecap="round"
          d="M5 40 C 5.25 38.52, 8.88 11, 10 10 S 14.46 29.67, 15 31.07 S 18.65 35.29, 20 35.95 S 23.51 36.17, 25 36 S 28.56 35.21, 30 34.8 S 33.5 33.2, 35 33.17 S 38.63 33.98, 40 34.59 S 43.59 37.13, 45 37.63 S 48.5 38.12, 50 38.12 S 53.5 37.64, 55 37.63 S 58.5 37.95, 60 38.02 S 63.5 38.03, 65 38.07 S 68.51 38.13, 70 38.26 S 73.51 38.81, 75 38.97 S 78.5 39.4, 80 39.3 S 83.51 38.44, 85 38.28 S 88.5 38.14, 90 38.22 S 93.51 38.63, 95 38.8 S 98.5 39.25, 100 39.33 S 103.5 39.28, 105 39.31 S 108.5 39.53, 110 39.53 S 113.5 39.32, 115 39.3 S 118.52 39.66, 120 39.4 S 123.55 37.91, 125 37.51 S 128.51 36.49, 130 36.65 S 133.54 38.2, 135 38.56 S 138.52 39.33, 140 39.09 S 143.51 37.08, 145 36.92 S 148.53 37.73, 150 38.05 S 153.51 38.93, 155 39.11 S 158.5 39.18, 160 39.23 S 163.5 39.49, 165 39.46 S 168.5 38.98, 170 39.01 S 173.5 39.56, 175 39.64 S 178.5 39.59, 180 39.55 S 183.53 39.61, 185 39.34 S 188.5 37.72, 190 37.69 S 193.52 38.9, 195 39.16 S 198.5 39.4, 200 39.43 S 203.5 39.37, 205 39.34"
          fill="none"/>
    <circle r="4" cx="5" cy="40" fill="#3023AE"/>
    <circle r="4" cx="205" cy="39.34" fill="#C86DD7"/>      
</svg>