<svg width="200" height="50" viewBox="0 0 210 50" xmlns="http://www.w3.org/2000/svg">
    <defs>
        <linearGradient x1="0%" y1="0%" x2="100%" y2="0%" id="a">
            <stop stop-color="#3023AE" offset="0%"/>
            <stop stop-color="#C86DD7" offset="100%"/>
        </linearGradient>
    </defs>
    <path stroke="url(#a)"
          stroke-width="3"
          stroke-linejoin="round"
          stroke-linecap="round"
          d="M5 40 C 5.25 38.52, 8.87 10.98, 10 10 S 14.41 29.94, 15 31.32 S 18.59 32.85, 20 33.37 S 23.54 34.68, 25 35.02 S 28.5 35.64, 30 35.68 S 33.5 35.38, 35 35.31 S 38.51 35.35, 40 35.18 S 43.5 34.27, 45 34.18 S 48.51 34.76, 50 34.6 S 53.53 33.43, 55 33.12 S 58.5 32.39, 60 32.46 S 63.5 33.58, 65 33.59 S 68.5 32.63, 70 32.52 S 73.5 32.95, 75 32.83 S 78.5 31.67, 80 31.73 S 83.51 33.05, 85 33.2 S 88.5 32.8, 90 32.73 S 93.5 32.78, 95 32.76 S 98.5 32.56, 100 32.6 S 103.51 32.89, 105 33.02 S 108.5 33.46, 110 33.49 S 113.5 33.15, 115 33.22 S 118.5 34.04, 120 33.98 S 123.5 32.91, 125 32.82 S 128.52 33.19, 130 33.41 S 133.51 34.12, 135 34.32 S 138.5 34.75, 140 34.73 S 143.5 34.28, 145 34.18 S 148.5 33.98, 150 34.04 S 153.51 34.45, 155 34.61 S 158.5 35.1, 160 35.13 S 163.5 34.8, 165 34.81 S 168.51 35.08, 170 35.22 S 173.5 35.65, 175 35.77 S 178.5 36.02, 180 36.02 S 183.5 35.71, 185 35.74 S 188.5 36.26, 190 36.23 S 193.5 35.58, 195 35.55 S 198.5 35.96, 200 36 S 203.5 35.89, 205 35.85"
          fill="none"/>
    <circle r="4" cx="5" cy="40" fill="#3023AE"/>
    <circle r="4" cx="205" cy="35.85" fill="#C86DD7"/>      
</svg>