<svg width="200" height="50" viewBox="0 0 210 50" xmlns="http://www.w3.org/2000/svg">
    <defs>
        <linearGradient x1="0%" y1="0%" x2="100%" y2="0%" id="a">
            <stop stop-color="#3023AE" offset="0%"/>
            <stop stop-color="#C86DD7" offset="100%"/>
        </linearGradient>
    </defs>
    <path stroke="url(#a)"
          stroke-width="3"
          stroke-linejoin="round"
          stroke-linecap="round"
          d="M5 40 C 5.67 38.66, 9.21 31.27, 10 30 S 13.53 24.29, 15 24 S 18.83 27.06, 20 28 S 23.53 31.71, 25 32 S 28.5 30, 30 30 S 33.94 33.06, 35 32 S 38.61 20.56, 40 20 S 43.94 26.94, 45 28 S 48.94 31.06, 50 30 S 53.53 17.71, 55 18 S 58.83 31.06, 60 32 S 63.83 26.94, 65 26 S 68.71 24.77, 70 24 S 73.53 19.71, 75 20 S 78.71 25.23, 80 26 S 83.5 26, 85 26 S 89.21 27.27, 90 26 S 93.61 10.56, 95 10 S 99.33 20.66, 100 22 S 103.83 29.06, 105 30 S 108.71 30.77, 110 30 S 113.53 24.29, 115 24 S 118.71 27.23, 120 28 S 123.61 29.44, 125 30 S 128.53 32.29, 130 32 S 133.71 27.23, 135 28 S 138.53 37.71, 140 38 S 143.71 30.77, 145 30 S 148.61 32.56, 150 32 S 153.83 26.94, 155 26 S 158.94 22.94, 160 24 S 163.61 35.44, 165 36 S 168.53 28.29, 170 28 S 173.71 33.23, 175 34 S 178.53 34.29, 180 34 S 183.83 32.94, 185 32 S 188.53 26.29, 190 26 S 193.53 30.29, 195 30 S 198.71 23.23, 200 24 S 204.42 34.62, 205 36"
          fill="none"/>
    <circle r="4" cx="5" cy="40" fill="#3023AE"/>
    <circle r="4" cx="205" cy="36" fill="#C86DD7"/>      
</svg>