<svg width="200" height="50" viewBox="0 0 210 50" xmlns="http://www.w3.org/2000/svg">
    <defs>
        <linearGradient x1="0%" y1="0%" x2="100%" y2="0%" id="a">
            <stop stop-color="#3023AE" offset="0%"/>
            <stop stop-color="#C86DD7" offset="100%"/>
        </linearGradient>
    </defs>
    <path stroke="url(#a)"
          stroke-width="3"
          stroke-linejoin="round"
          stroke-linecap="round"
          d="M5 40 C 5.25 38.52, 9.08 11.18, 10 10 S 14.32 25.89, 15 27.23 S 18.63 29.18, 20 29.79 S 23.55 31.33, 25 31.7 S 28.51 32.15, 30 32.34 S 33.51 33.17, 35 32.98 S 38.51 30.87, 40 31.06 S 43.53 34.54, 45 34.26 S 48.55 29.52, 50 29.15 S 53.5 31.8, 55 31.7 S 58.55 28.14, 60 28.51 S 63.66 33.58, 65 34.26 S 68.5 33.53, 70 33.62 S 73.53 34.61, 75 34.89 S 78.57 35.99, 80 35.53 S 83.55 32.07, 85 31.7 S 88.5 32.88, 90 32.98 S 93.5 32.34, 95 32.34 S 98.55 32.61, 100 32.98 S 103.51 34.7, 105 34.89 S 108.5 34.26, 110 34.26 S 113.5 34.8, 115 34.89 S 118.51 34.7, 120 34.89 S 123.53 36.45, 125 36.17 S 128.53 33.26, 130 32.98 S 133.53 33.98, 135 34.26 S 138.5 34.89, 140 34.89 S 143.51 34.45, 145 34.26 S 148.53 33.34, 150 33.62 S 153.57 35.71, 155 36.17 S 158.66 37.49, 160 36.81 S 163.66 31.74, 165 31.06 S 168.55 31.33, 170 31.7 S 173.53 33.34, 175 33.62 S 178.5 33.52, 180 33.62 S 183.55 34.63, 185 34.26 S 188.53 31.34, 190 31.06 S 193.57 31.88, 195 32.34 S 198.53 34.54, 200 34.26 S 203.81 31.34, 205 30.43"
          fill="none"/>
    <circle r="4" cx="5" cy="40" fill="#3023AE"/>
    <circle r="4" cx="205" cy="30.43" fill="#C86DD7"/>      
</svg>