<svg width="200" height="50" viewBox="0 0 210 50" xmlns="http://www.w3.org/2000/svg">
    <defs>
        <linearGradient x1="0%" y1="0%" x2="100%" y2="0%" id="a">
            <stop stop-color="#3023AE" offset="0%"/>
            <stop stop-color="#C86DD7" offset="100%"/>
        </linearGradient>
    </defs>
    <path stroke="url(#a)"
          stroke-width="3"
          stroke-linejoin="round"
          stroke-linecap="round"
          d="M5 40 C 5.59 38.62, 8.5 28.33, 10 28.29 S 13.97 38.62, 15 39.71 S 18.5 38.86, 20 38.86 S 23.5 39.62, 25 39.71 S 28.5 39.47, 30 39.43 S 33.5 39.39, 35 39.43 S 38.5 39.67, 40 39.71 S 43.97 40.8, 45 39.71 S 48.5 29.23, 50 29.14 S 53.91 38.11, 55 39.14 S 58.5 38.57, 60 38.57 S 63.5 39.05, 65 39.14 S 68.5 39.14, 70 39.14 S 73.5 39.23, 75 39.14 S 78.52 38.78, 80 38.57 S 83.51 37.84, 85 37.71 S 88.76 38.56, 90 37.71 S 93.51 31.07, 95 30.86 S 98.68 35.57, 100 36.29 S 103.5 36.38, 105 36.29 S 108.8 36.6, 110 35.71 S 114 29.98, 115 28.86 S 118.54 24.24, 120 24.57 S 123.67 31.83, 125 31.14 S 128.94 20.49, 130 19.43 S 134.04 19.99, 135 21.14 S 138.81 30.51, 140 31.43 S 144.37 30.22, 145 28.86 S 148.67 10.69, 150 10 S 154.24 22.41, 155 23.71 S 158.73 26.34, 160 27.14 S 163.5 29.96, 165 30 S 168.76 28.28, 170 27.43 S 173.86 24.12, 175 23.14 S 178.51 19.03, 180 18.86 S 183.52 21.75, 185 22 S 188.8 21.46, 190 20.57 S 193.81 15.49, 195 14.57 S 198.58 13.35, 200 12.86 S 203.58 11.63, 205 11.14"
          fill="none"/>
    <circle r="4" cx="5" cy="40" fill="#3023AE"/>
    <circle r="4" cx="205" cy="11.14" fill="#C86DD7"/>      
</svg>