<svg width="200" height="50" viewBox="0 0 210 50" xmlns="http://www.w3.org/2000/svg">
    <defs>
        <linearGradient x1="0%" y1="0%" x2="100%" y2="0%" id="a">
            <stop stop-color="#3023AE" offset="0%"/>
            <stop stop-color="#C86DD7" offset="100%"/>
        </linearGradient>
    </defs>
    <path stroke="url(#a)"
          stroke-width="3"
          stroke-linejoin="round"
          stroke-linecap="round"
          d="M5 40 C 5.25 38.52, 8.6 10.55, 10 10 S 14.48 34.67, 15 36.08 S 18.54 36.58, 20 36.92 S 23.55 37.99, 25 38.38 S 28.51 39.48, 30 39.62 S 33.5 39.37, 35 39.31 S 38.5 39.21, 40 39.23 S 43.5 39.56, 45 39.46 S 48.5 38.56, 50 38.54 S 53.51 39.17, 55 39.31 S 58.5 39.44, 60 39.46 S 63.57 39.91, 65 39.46 S 68.5 36.3, 70 36.31 S 73.51 39.33, 75 39.54 S 78.91 38.72, 80 37.69 S 83.5 29.96, 85 30.08 S 88.89 37.45, 90 38.46 S 93.5 39.14, 95 39.15 S 98.5 38.48, 100 38.54 S 103.5 39.52, 105 39.54 S 108.5 38.71, 110 38.69 S 113.5 39.39, 115 39.38 S 118.5 38.64, 120 38.62 S 123.5 39.22, 125 39.23 S 128.5 38.75, 130 38.69 S 133.5 38.93, 135 38.85 S 138.66 38.83, 140 38.15 S 144.18 35.03, 145 33.77 S 148.59 22.34, 150 22.85 S 154.14 36.15, 155 37.38 S 158.5 37.16, 160 37.23 S 163.51 37.71, 165 37.85 S 168.5 38.05, 170 38.15 S 173.5 38.53, 175 38.54 S 178.51 38.36, 180 38.23 S 183.5 37.67, 185 37.69 S 188.51 38.24, 190 38.38 S 193.5 38.69, 195 38.62 S 198.5 38.02, 200 37.92 S 203.5 37.92, 205 37.92"
          fill="none"/>
    <circle r="4" cx="5" cy="40" fill="#3023AE"/>
    <circle r="4" cx="205" cy="37.92" fill="#C86DD7"/>      
</svg>