<svg width="200" height="50" viewBox="0 0 210 50" xmlns="http://www.w3.org/2000/svg">
    <defs>
        <linearGradient x1="0%" y1="0%" x2="100%" y2="0%" id="a">
            <stop stop-color="#3023AE" offset="0%"/>
            <stop stop-color="#C86DD7" offset="100%"/>
        </linearGradient>
    </defs>
    <path stroke="url(#a)"
          stroke-width="3"
          stroke-linejoin="round"
          stroke-linecap="round"
          d="M5 40 C 5.25 38.52, 8.51 10.21, 10 10 S 14.52 37.17, 15 38.59 S 18.5 39.31, 20 39.39 S 23.5 39.13, 25 39.1 S 28.5 39.12, 30 39.17 S 33.63 40.06, 35 39.45 S 38.5 34.7, 40 34.7 S 43.65 38.79, 45 39.45 S 48.5 39.57, 50 39.58 S 53.5 39.57, 55 39.55 S 58.5 39.41, 60 39.43 S 63.5 39.67, 65 39.7 S 68.5 39.65, 70 39.65 S 73.5 39.79, 75 39.73 S 78.5 39.28, 80 39.27 S 83.5 39.61, 85 39.66 S 89.47 40.98, 90 39.58 S 93.52 13.29, 95 13.05 S 99.47 36.57, 100 37.97 S 103.51 39.08, 105 39.25 S 108.51 39.29, 110 39.11 S 113.5 38.02, 115 38.07 S 118.52 39.25, 120 39.46 S 123.5 39.54, 125 39.5 S 128.51 39.36, 130 39.22 S 133.5 38.56, 135 38.58 S 138.5 39.28, 140 39.37 S 143.5 39.25, 145 39.21 S 148.5 39.08, 150 39.12 S 153.51 39.6, 155 39.47 S 158.51 38.46, 160 38.25 S 163.51 37.92, 165 38.08 S 168.52 39.12, 170 39.34 S 173.5 39.54, 175 39.55 S 178.5 39.43, 180 39.44 S 183.5 39.6, 185 39.61 S 188.5 39.54, 190 39.53 S 193.5 39.53, 195 39.54 S 199.38 40.96, 200 39.59 S 204.67 18.85, 205 17.39"
          fill="none"/>
    <circle r="4" cx="5" cy="40" fill="#3023AE"/>
    <circle r="4" cx="205" cy="17.39" fill="#C86DD7"/>      
</svg>