<svg width="200" height="50" viewBox="0 0 210 50" xmlns="http://www.w3.org/2000/svg">
    <defs>
        <linearGradient x1="0%" y1="0%" x2="100%" y2="0%" id="a">
            <stop stop-color="#3023AE" offset="0%"/>
            <stop stop-color="#C86DD7" offset="100%"/>
        </linearGradient>
    </defs>
    <path stroke="url(#a)"
          stroke-width="3"
          stroke-linejoin="round"
          stroke-linecap="round"
          d="M5 40 C 5.25 38.52, 8.53 10.28, 10 10 S 14.52 36.71, 15 38.13 S 18.52 39.16, 20 39.39 S 23.5 39.69, 25 39.65 S 28.5 39.12, 30 39.09 S 33.5 39.42, 35 39.46 S 38.64 39.99, 40 39.35 S 43.5 34.71, 45 34.74 S 48.65 38.87, 50 39.52 S 53.5 39.49, 55 39.51 S 58.5 39.66, 60 39.68 S 63.5 39.69, 65 39.66 S 68.5 39.46, 70 39.47 S 73.5 39.67, 75 39.7 S 78.5 39.7, 80 39.7 S 83.5 39.72, 85 39.73 S 88.5 39.81, 90 39.76 S 93.5 39.41, 95 39.4 S 98.5 39.63, 100 39.67 S 103.5 39.71, 105 39.7 S 109.48 41.04, 110 39.63 S 113.53 13.13, 115 12.84 S 119.47 36.26, 120 37.66 S 123.52 39.17, 125 39.41 S 128.51 39.45, 130 39.26 S 133.5 38.13, 135 38.14 S 138.51 39.14, 140 39.35 S 143.5 39.5, 145 39.53 S 148.5 39.57, 150 39.58 S 153.51 39.75, 155 39.6 S 158.5 38.6, 160 38.57 S 163.51 39.24, 165 39.37 S 168.5 39.45, 170 39.44 S 173.5 39.29, 175 39.31 S 178.5 39.63, 180 39.6 S 183.5 39.09, 185 39.09 S 188.5 39.65, 190 39.59 S 193.52 38.97, 195 38.71 S 198.5 37.77, 200 37.86 S 203.56 38.91, 205 39.34"
          fill="none"/>
    <circle r="4" cx="5" cy="40" fill="#3023AE"/>
    <circle r="4" cx="205" cy="39.34" fill="#C86DD7"/>      
</svg>