<svg width="200" height="50" viewBox="0 0 210 50" xmlns="http://www.w3.org/2000/svg">
    <defs>
        <linearGradient x1="0%" y1="0%" x2="100%" y2="0%" id="a">
            <stop stop-color="#3023AE" offset="0%"/>
            <stop stop-color="#C86DD7" offset="100%"/>
        </linearGradient>
    </defs>
    <path stroke="url(#a)"
          stroke-width="3"
          stroke-linejoin="round"
          stroke-linecap="round"
          d="M5 40 C 5.25 38.52, 8.57 10.45, 10 10 S 14.5 35.44, 15 36.86 S 18.54 38.13, 20 38.48 S 23.51 39.15, 25 39.29 S 28.5 39.36, 30 39.44 S 33.5 39.84, 35 39.85 S 38.5 39.64, 40 39.54 S 43.5 39.29, 45 39.19 S 48.5 38.9, 50 38.89 S 53.5 39.19, 55 39.09 S 58.6 38.78, 60 38.23 S 63.5 35.19, 65 35.19 S 68.59 37.72, 70 38.23 S 73.5 38.73, 75 38.84 S 78.52 39.2, 80 38.94 S 83.5 37.12, 85 37.07 S 88.5 38.53, 90 38.63 S 93.5 37.73, 95 37.72 S 98.51 38.37, 100 38.58 S 103.5 39.03, 105 39.14 S 108.5 39.28, 110 39.29 S 113.5 39.2, 115 39.19 S 118.5 39.22, 120 39.19 S 123.5 38.95, 125 38.99 S 128.53 39.78, 130 39.49 S 133.5 37.06, 135 37.02 S 138.52 38.97, 140 39.19 S 143.55 38.92, 145 38.53 S 148.5 36.59, 150 36.51 S 153.52 37.72, 155 37.98 S 158.5 38.36, 160 38.28 S 163.5 37.5, 165 37.47 S 168.52 37.85, 170 38.08 S 173.5 38.96, 175 39.04 S 178.5 38.67, 180 38.63 S 183.51 38.89, 185 38.74 S 188.5 37.73, 190 37.62 S 193.5 37.93, 195 37.98 S 198.5 37.89, 200 37.93 S 203.5 38.14, 205 38.23"
          fill="none"/>
    <circle r="4" cx="5" cy="40" fill="#3023AE"/>
    <circle r="4" cx="205" cy="38.23" fill="#C86DD7"/>      
</svg>