<svg width="200" height="50" viewBox="0 0 210 50" xmlns="http://www.w3.org/2000/svg">
    <defs>
        <linearGradient x1="0%" y1="0%" x2="100%" y2="0%" id="a">
            <stop stop-color="#3023AE" offset="0%"/>
            <stop stop-color="#C86DD7" offset="100%"/>
        </linearGradient>
    </defs>
    <path stroke="url(#a)"
          stroke-width="3"
          stroke-linejoin="round"
          stroke-linecap="round"
          d="M5 40 C 6.5 39.98, 8.5 39.92, 10 39.92 S 13.5 39.96, 15 39.97 S 18.5 39.97, 20 39.97 S 23.5 39.97, 25 39.97 S 28.5 39.97, 30 39.97 S 33.5 39.97, 35 39.97 S 38.5 39.97, 40 39.97 S 43.5 39.97, 45 39.97 S 48.5 39.97, 50 39.97 S 53.5 39.97, 55 39.97 S 58.5 39.97, 60 39.97 S 63.5 39.97, 65 39.97 S 68.5 39.97, 70 39.97 S 73.5 39.97, 75 39.97 S 78.5 39.97, 80 39.97 S 83.5 39.97, 85 39.97 S 88.5 39.97, 90 39.97 S 93.5 39.98, 95 39.97 S 98.5 39.92, 100 39.92 S 103.5 39.94, 105 39.95 S 108.5 39.97, 110 39.97 S 113.5 39.97, 115 39.97 S 118.5 39.97, 120 39.97 S 123.5 39.97, 125 39.97 S 129.53 41.39, 130 39.97 S 133.58 10.49, 135 10 S 139.5 35.06, 140 36.48 S 143.56 38.09, 145 38.51 S 148.51 39.21, 150 39.36 S 153.5 39.57, 155 39.52 S 158.52 39.27, 160 39.01 S 163.5 37.65, 165 37.74 S 168.53 39.34, 170 39.63 S 173.5 39.71, 175 39.68 S 178.5 39.48, 180 39.44 S 183.5 39.4, 185 39.44 S 188.5 39.71, 190 39.73 S 193.5 39.56, 195 39.57 S 198.5 39.79, 200 39.79 S 203.5 39.66, 205 39.6"
          fill="none"/>
    <circle r="4" cx="5" cy="40" fill="#3023AE"/>
    <circle r="4" cx="205" cy="39.6" fill="#C86DD7"/>      
</svg>