<svg width="200" height="50" viewBox="0 0 210 50" xmlns="http://www.w3.org/2000/svg">
    <defs>
        <linearGradient x1="0%" y1="0%" x2="100%" y2="0%" id="a">
            <stop stop-color="#3023AE" offset="0%"/>
            <stop stop-color="#C86DD7" offset="100%"/>
        </linearGradient>
    </defs>
    <path stroke="url(#a)"
          stroke-width="3"
          stroke-linejoin="round"
          stroke-linecap="round"
          d="M5 40 C 6.46 39.66, 8.51 38.94, 10 38.82 S 13.75 40.01, 15 39.18 S 18.71 32.93, 20 32.16 S 23.5 33.25, 25 33.25 S 29.41 33.54, 30 32.16 S 33.84 10.95, 35 10 S 39.53 22.62, 40 24.04 S 43.81 39.08, 45 39.99 S 48.51 31.81, 50 31.63 S 53.71 38.04, 55 38.81 S 58.5 37.53, 60 37.56 S 63.53 38.72, 65 39 S 68.65 40.12, 70 39.47 S 73.68 34.91, 75 34.19 S 78.51 34.14, 80 34.02 S 83.5 33.47, 85 33.36 S 88.52 33.51, 90 33.29 S 93.64 32.54, 95 31.91 S 98.62 29.28, 100 28.7 S 103.5 27.66, 105 27.71 S 108.57 28.55, 110 29.01 S 113.51 30.8, 115 30.95 S 118.52 30.28, 120 30.03 S 123.52 29.49, 125 29.23 S 128.51 28.42, 130 28.25 S 133.5 28.04, 135 28.08 S 138.5 28.58, 140 28.49 S 143.59 27.96, 145 27.45 S 148.63 25.53, 150 24.91 S 153.5 22.98, 155 22.95 S 158.56 24.32, 160 24.72 S 163.51 25.61, 165 25.75 S 168.5 25.74, 170 25.68 S 173.54 25.66, 175 25.32 S 178.5 23.42, 180 23.36 S 183.54 24.57, 185 24.92 S 188.51 25.91, 190 25.76 S 193.5 24.05, 195 23.93 S 198.5 24.89, 200 24.95 S 203.51 24.54, 205 24.36"
          fill="none"/>
    <circle r="4" cx="5" cy="40" fill="#3023AE"/>
    <circle r="4" cx="205" cy="24.36" fill="#C86DD7"/>      
</svg>