<svg width="200" height="50" viewBox="0 0 210 50" xmlns="http://www.w3.org/2000/svg">
    <defs>
        <linearGradient x1="0%" y1="0%" x2="100%" y2="0%" id="a">
            <stop stop-color="#3023AE" offset="0%"/>
            <stop stop-color="#C86DD7" offset="100%"/>
        </linearGradient>
    </defs>
    <path stroke="url(#a)"
          stroke-width="3"
          stroke-linejoin="round"
          stroke-linecap="round"
          d="M5 40 C 6.46 39.65, 8.87 39.79, 10 38.81 S 13.69 32.06, 15 31.33 S 18.51 33.13, 20 33.26 S 24.41 33.55, 25 32.17 S 28.83 10.94, 30 10 S 34.53 22.66, 35 24.08 S 38.81 39.08, 40 39.99 S 43.51 31.92, 45 31.75 S 48.69 38.1, 50 38.83 S 53.5 37.26, 55 37.29 S 58.5 38.98, 60 39.02 S 63.74 38.36, 65 37.55 S 68.65 33.28, 70 32.63 S 73.5 32.73, 75 32.72 S 78.52 32.83, 80 32.58 S 83.67 31.75, 85 31.05 S 88.62 27.87, 90 27.29 S 93.51 26.72, 95 26.85 S 98.53 27.84, 100 28.14 S 103.51 28.76, 105 28.9 S 108.53 29.35, 110 29.07 S 113.54 27.34, 115 27.01 S 118.5 26.78, 120 26.81 S 123.5 27.32, 125 27.22 S 128.66 26.8, 130 26.12 S 133.64 22.75, 135 22.11 S 138.52 21.16, 140 21.41 S 143.58 23.33, 145 23.8 S 148.5 24.61, 150 24.71 S 153.57 24.94, 155 24.47 S 158.51 21.6, 160 21.43 S 163.56 22.9, 165 23.31 S 168.51 24.43, 170 24.3 S 173.5 22.56, 175 22.47 S 178.5 23.71, 180 23.68 S 183.51 22.12, 185 22.28 S 188.57 24.3, 190 24.76 S 193.5 25.55, 195 25.5 S 198.52 24.66, 200 24.4 S 203.51 23.93, 205 23.73"
          fill="none"/>
    <circle r="4" cx="5" cy="40" fill="#3023AE"/>
    <circle r="4" cx="205" cy="23.73" fill="#C86DD7"/>      
</svg>