<svg width="200" height="50" viewBox="0 0 210 50" xmlns="http://www.w3.org/2000/svg">
    <defs>
        <linearGradient x1="0%" y1="0%" x2="100%" y2="0%" id="a">
            <stop stop-color="#3023AE" offset="0%"/>
            <stop stop-color="#C86DD7" offset="100%"/>
        </linearGradient>
    </defs>
    <path stroke="url(#a)"
          stroke-width="3"
          stroke-linejoin="round"
          stroke-linecap="round"
          d="M5 40 C 6.47 39.72, 8.65 39.69, 10 39.05 S 13.52 35.45, 15 35.24 S 18.6 37.09, 20 37.62 S 23.51 39.19, 25 39.05 S 29.5 38.08, 30 36.67 S 33.72 11.74, 35 10.95 S 39.48 29.07, 40 30.48 S 43.78 37.23, 45 38.1 S 48.5 37.55, 50 37.62 S 54.49 39.98, 55 38.57 S 58.75 10.83, 60 10 S 64.47 30.5, 65 31.9 S 68.67 35.97, 70 36.67 S 73.67 37.84, 75 37.14 S 78.51 31.29, 80 31.43 S 83.75 37.27, 85 38.1 S 88.54 38.45, 90 38.1 S 93.6 36.24, 95 35.71 S 98.6 34.82, 100 34.29 S 103.53 32.18, 105 31.9 S 108.56 32.79, 110 32.38 S 113.53 28.77, 115 29.05 S 118.72 33.5, 120 34.29 S 123.51 35.1, 125 35.24 S 128.52 35.45, 130 35.24 S 133.51 33.67, 135 33.81 S 138.58 36.66, 140 36.19 S 143.54 30.83, 145 30.48 S 148.56 33.4, 150 33.81 S 153.58 32.86, 155 33.33 S 158.62 36.55, 160 37.14 S 163.5 37.55, 165 37.62 S 168.5 37.55, 170 37.62 S 173.54 38.45, 175 38.1 S 178.54 35.59, 180 35.24 S 183.52 35.92, 185 35.71 S 188.56 34.22, 190 33.81 S 193.6 32.33, 195 32.86 S 198.62 37.03, 200 37.62 S 203.51 37.28, 205 37.14"
          fill="none"/>
    <circle r="4" cx="5" cy="40" fill="#3023AE"/>
    <circle r="4" cx="205" cy="37.14" fill="#C86DD7"/>      
</svg>