<svg width="200" height="50" viewBox="0 0 210 50" xmlns="http://www.w3.org/2000/svg">
    <defs>
        <linearGradient x1="0%" y1="0%" x2="100%" y2="0%" id="a">
            <stop stop-color="#3023AE" offset="0%"/>
            <stop stop-color="#C86DD7" offset="100%"/>
        </linearGradient>
    </defs>
    <path stroke="url(#a)"
          stroke-width="3"
          stroke-linejoin="round"
          stroke-linecap="round"
          d="M5 40 C 6.5 40, 8.5 39.99, 10 39.99 S 13.56 40.39, 15 39.99 S 18.53 37.47, 20 37.19 S 23.53 37.76, 25 38.07 S 28.5 39.28, 30 39.28 S 34.52 39.49, 35 38.07 S 38.58 10.49, 40 10 S 44.45 33.25, 45 34.65 S 48.51 35.22, 50 35.36 S 53.5 35.48, 55 35.58 S 58.51 35.83, 60 36.02 S 63.5 36.89, 65 36.89 S 68.51 36.15, 70 35.99 S 73.5 35.84, 75 35.85 S 78.5 36.03, 80 36.07 S 83.5 36.08, 85 36.15 S 88.5 36.49, 90 36.55 S 93.5 36.5, 95 36.52 S 98.5 36.68, 100 36.69 S 103.5 36.61, 105 36.62 S 108.5 36.81, 110 36.79 S 113.5 36.5, 115 36.48 S 118.5 36.65, 120 36.67 S 123.5 36.64, 125 36.61 S 128.5 36.49, 130 36.46 S 133.5 36.47, 135 36.42 S 138.5 36.2, 140 36.14 S 143.5 35.96, 145 36.01 S 148.5 36.4, 150 36.49 S 153.5 36.61, 155 36.6 S 158.5 36.42, 160 36.44 S 163.5 36.72, 165 36.71 S 168.5 36.43, 170 36.4 S 173.5 36.46, 175 36.52 S 178.5 36.72, 180 36.78 S 183.5 36.79, 185 36.91 S 188.5 37.55, 190 37.59 S 193.5 37.2, 195 37.21 S 198.5 37.59, 200 37.67 S 203.5 37.73, 205 37.76"
          fill="none"/>
    <circle r="4" cx="5" cy="40" fill="#3023AE"/>
    <circle r="4" cx="205" cy="37.76" fill="#C86DD7"/>      
</svg>