<svg width="200" height="50" viewBox="0 0 210 50" xmlns="http://www.w3.org/2000/svg">
    <defs>
        <linearGradient x1="0%" y1="0%" x2="100%" y2="0%" id="a">
            <stop stop-color="#3023AE" offset="0%"/>
            <stop stop-color="#C86DD7" offset="100%"/>
        </linearGradient>
    </defs>
    <path stroke="url(#a)"
          stroke-width="3"
          stroke-linejoin="round"
          stroke-linecap="round"
          d="M5 40 C 6.5 39.98, 8.5 39.95, 10 39.93 S 13.5 39.89, 15 39.89 S 19.52 41.38, 20 39.96 S 23.56 10.42, 25 10 S 29.51 35.6, 30 37.02 S 33.54 38.53, 35 38.86 S 38.51 39.44, 40 39.29 S 43.5 37.87, 45 37.83 S 48.51 38.85, 50 39.01 S 53.5 38.94, 55 38.9 S 58.5 38.81, 60 38.76 S 63.5 38.67, 65 38.58 S 68.5 38.24, 70 38.19 S 73.5 38.19, 75 38.22 S 78.5 38.34, 80 38.4 S 83.5 38.59, 85 38.62 S 88.5 38.62, 90 38.58 S 93.92 39.41, 95 38.37 S 98.5 29.11, 100 28.99 S 103.94 36.53, 105 37.59 S 108.5 38.82, 110 38.93 S 113.5 38.27, 115 38.3 S 118.5 39.02, 120 39.11 S 123.5 38.97, 125 38.9 S 128.5 38.62, 130 38.65 S 133.5 39.02, 135 39.08 S 138.51 39.29, 140 39.08 S 143.52 37.92, 145 37.66 S 148.5 37.29, 150 37.3 S 153.51 37.53, 155 37.73 S 158.5 38.55, 160 38.65 S 163.57 38.81, 165 38.37 S 168.5 35.58, 170 35.6 S 173.55 38.13, 175 38.51 S 178.5 38.19, 180 38.22 S 183.5 38.71, 185 38.69 S 188.5 38.08, 190 38.08 S 193.51 38.89, 195 38.72 S 198.51 37.09, 200 36.91 S 203.51 37.33, 205 37.51"
          fill="none"/>
    <circle r="4" cx="5" cy="40" fill="#3023AE"/>
    <circle r="4" cx="205" cy="37.51" fill="#C86DD7"/>      
</svg>