<svg width="200" height="50" viewBox="0 0 210 50" xmlns="http://www.w3.org/2000/svg">
    <defs>
        <linearGradient x1="0%" y1="0%" x2="100%" y2="0%" id="a">
            <stop stop-color="#3023AE" offset="0%"/>
            <stop stop-color="#C86DD7" offset="100%"/>
        </linearGradient>
    </defs>
    <path stroke="url(#a)"
          stroke-width="3"
          stroke-linejoin="round"
          stroke-linecap="round"
          d="M5 40 C 6.5 39.89, 8.5 39.64, 10 39.62 S 13.5 39.83, 15 39.87 S 18.5 39.87, 20 39.87 S 23.5 39.87, 25 39.87 S 28.5 39.87, 30 39.87 S 33.5 39.87, 35 39.87 S 38.5 39.87, 40 39.87 S 43.5 39.87, 45 39.87 S 48.5 39.87, 50 39.87 S 53.5 39.87, 55 39.87 S 58.5 39.87, 60 39.87 S 63.5 39.87, 65 39.87 S 68.5 39.87, 70 39.87 S 73.5 39.87, 75 39.87 S 78.5 39.87, 80 39.87 S 83.5 39.87, 85 39.87 S 88.5 39.87, 90 39.87 S 93.5 39.87, 95 39.87 S 98.5 39.87, 100 39.87 S 103.5 39.87, 105 39.87 S 108.5 39.87, 110 39.87 S 113.5 39.87, 115 39.87 S 119.52 41.29, 120 39.87 S 124.33 11.34, 125 10 S 128.99 18.64, 130 19.75 S 134.16 19.77, 135 21.01 S 139.23 33.27, 140 34.56 S 143.55 37.35, 145 37.72 S 148.5 37, 150 37.09 S 153.53 38.05, 155 38.35 S 158.5 39.09, 160 39.11 S 163.5 38.42, 165 38.48 S 168.51 39.34, 170 39.49 S 173.52 39.73, 175 39.49 S 178.52 38.08, 180 37.85 S 183.51 37.76, 185 37.97 S 188.51 39.03, 190 39.24 S 193.5 39.29, 195 39.37 S 198.5 39.64, 200 39.75"
          fill="none"/>
    <circle r="4" cx="5" cy="40" fill="#3023AE"/>
    <circle r="4" cx="200" cy="39.75" fill="#C86DD7"/>      
</svg>