<svg width="200" height="50" viewBox="0 0 210 50" xmlns="http://www.w3.org/2000/svg">
    <defs>
        <linearGradient x1="0%" y1="0%" x2="100%" y2="0%" id="a">
            <stop stop-color="#3023AE" offset="0%"/>
            <stop stop-color="#C86DD7" offset="100%"/>
        </linearGradient>
    </defs>
    <path stroke="url(#a)"
          stroke-width="3"
          stroke-linejoin="round"
          stroke-linecap="round"
          d="M5 40 C 5.53 38.6, 8.54 27.25, 10 26.9 S 13.95 36.55, 15 37.62 S 18.51 37, 20 37.14 S 23.53 38.29, 25 38.57 S 28.5 39.16, 30 39.05 S 33.52 38.07, 35 37.86 S 38.52 37.83, 40 37.62 S 43.5 36.32, 45 36.43 S 48.58 38.8, 50 38.33 S 53.68 33.82, 55 33.1 S 58.53 32.58, 60 32.86 S 63.51 35.14, 65 35 S 68.61 32.46, 70 31.9 S 73.51 30.77, 75 30.95 S 78.51 33.24, 80 33.1 S 83.52 30.21, 85 30 S 88.7 30.93, 90 31.67 S 93.51 35.53, 95 35.71 S 98.61 33.42, 100 32.86 S 103.72 32.46, 105 31.67 S 109.37 28.03, 110 26.67 S 113.53 9.72, 115 10 S 119.25 27.27, 120 28.57 S 123.5 27.38, 125 27.38 S 128.59 28.07, 130 28.57 S 133.5 31.06, 135 30.95 S 138.5 27.9, 140 27.86 S 143.5 30.75, 145 30.71 S 148.5 27.65, 150 27.62 S 153.62 29.89, 155 30.48 S 158.51 32.08, 160 31.9 S 163.61 29.85, 165 29.29 S 168.5 27.75, 170 27.86 S 173.54 29.65, 175 30 S 178.51 30.42, 180 30.24 S 183.52 29.06, 185 28.81 S 188.53 28.88, 190 28.57 S 193.82 27.6, 195 26.67 S 198.58 20.24, 200 20.71 S 204.29 28.68, 205 30"
          fill="none"/>
    <circle r="4" cx="5" cy="40" fill="#3023AE"/>
    <circle r="4" cx="205" cy="30" fill="#C86DD7"/>      
</svg>