<svg width="200" height="50" viewBox="0 0 210 50" xmlns="http://www.w3.org/2000/svg">
    <defs>
        <linearGradient x1="0%" y1="0%" x2="100%" y2="0%" id="a">
            <stop stop-color="#3023AE" offset="0%"/>
            <stop stop-color="#C86DD7" offset="100%"/>
        </linearGradient>
    </defs>
    <path stroke="url(#a)"
          stroke-width="3"
          stroke-linejoin="round"
          stroke-linecap="round"
          d="M5 40 C 5.31 38.53, 8.5 16.21, 10 16.12 S 14.41 38.01, 15 39.39 S 18.52 39.66, 20 39.39 S 23.79 38.44, 25 37.55 S 28.5 32.04, 30 32.04 S 33.59 37.03, 35 37.55 S 38.69 36.43, 40 35.71 S 43.5 32.04, 45 32.04 S 48.51 35.89, 50 35.71 S 53.51 31, 55 30.82 S 58.5 34.58, 60 34.49 S 63.5 30.11, 65 30.2 S 69.33 36.44, 70 35.1 S 73.69 10.72, 75 10 S 79.13 28.37, 80 29.59 S 84.16 25.32, 85 24.08 S 88.83 13.97, 90 14.9 S 94.2 30.77, 95 32.04 S 98.54 30.46, 100 30.82 S 103.51 34.67, 105 34.49 S 108.51 29.77, 110 29.59 S 113.52 33, 115 33.27 S 118.62 32.02, 120 31.43 S 123.52 28.71, 125 28.98 S 128.65 32.61, 130 33.27 S 133.5 33.97, 135 33.88 S 138.52 32.38, 140 32.65 S 143.57 35.27, 145 35.71 S 148.54 36.07, 150 35.71 S 153.54 33.63, 155 33.27 S 158.62 32.68, 160 33.27 S 163.51 37.37, 165 37.55 S 168.59 35.01, 170 34.49 S 173.57 33.44, 175 33.88 S 178.5 37.64, 180 37.55 S 183.93 34.32, 185 33.27 S 188.65 27.1, 190 27.76 S 193.96 37.08, 195 38.16 S 198.5 38.25, 200 38.16 S 203.51 37.73, 205 37.55"
          fill="none"/>
    <circle r="4" cx="5" cy="40" fill="#3023AE"/>
    <circle r="4" cx="205" cy="37.55" fill="#C86DD7"/>      
</svg>