<svg width="200" height="50" viewBox="0 0 210 50" xmlns="http://www.w3.org/2000/svg">
    <defs>
        <linearGradient x1="0%" y1="0%" x2="100%" y2="0%" id="a">
            <stop stop-color="#3023AE" offset="0%"/>
            <stop stop-color="#C86DD7" offset="100%"/>
        </linearGradient>
    </defs>
    <path stroke="url(#a)"
          stroke-width="3"
          stroke-linejoin="round"
          stroke-linecap="round"
          d="M5 40 C 5.25 38.52, 8.5 10.11, 10 10 S 14.51 37.83, 15 39.25 S 18.5 39.25, 20 39.25 S 23.76 40.09, 25 39.25 S 28.67 33.2, 30 32.5 S 33.6 33.47, 35 34 S 38.52 36.03, 40 36.25 S 43.8 36.4, 45 35.5 S 48.5 28.86, 50 28.75 S 53.56 34.32, 55 34.75 S 58.52 31.97, 60 31.75 S 63.56 33.68, 65 33.25 S 68.5 28.75, 70 28.75 S 74.22 34.53, 75 33.25 S 78.97 13.34, 80 12.25 S 83.89 21.75, 85 22.75 S 88.89 22.25, 90 21.25 S 93.6 13.22, 95 13.75 S 99.25 23.7, 100 25 S 103.71 30.23, 105 31 S 108.5 30.89, 110 31 S 113.52 31.97, 115 31.75 S 118.5 29.39, 120 29.5 S 123.5 32.5, 125 32.5 S 128.71 30.27, 130 29.5 S 133.54 26.17, 135 26.5 S 138.76 30.91, 140 31.75 S 143.52 33.03, 145 33.25 S 148.5 33.25, 150 33.25 S 153.54 32.92, 155 33.25 S 158.5 35.61, 160 35.5 S 163.5 32.61, 165 32.5 S 168.5 34.75, 170 34.75 S 173.5 32.5, 175 32.5 S 178.56 34.32, 180 34.75 S 183.54 35.83, 185 35.5 S 188.52 32.28, 190 32.5 S 193.5 36.89, 195 37 S 199.04 34.4, 200 33.25 S 204.22 26.28, 205 25"
          fill="none"/>
    <circle r="4" cx="5" cy="40" fill="#3023AE"/>
    <circle r="4" cx="205" cy="25" fill="#C86DD7"/>      
</svg>