<svg width="200" height="50" viewBox="0 0 210 50" xmlns="http://www.w3.org/2000/svg">
    <defs>
        <linearGradient x1="0%" y1="0%" x2="100%" y2="0%" id="a">
            <stop stop-color="#3023AE" offset="0%"/>
            <stop stop-color="#C86DD7" offset="100%"/>
        </linearGradient>
    </defs>
    <path stroke="url(#a)"
          stroke-width="3"
          stroke-linejoin="round"
          stroke-linecap="round"
          d="M5 40 C 5.25 38.52, 8.65 10.65, 10 10 S 14.51 33.75, 15 35.17 S 18.61 38.4, 20 38.97 S 23.5 39.26, 25 39.31 S 28.5 39.31, 30 39.31 S 33.5 39.31, 35 39.31 S 38.5 39.41, 40 39.31 S 43.5 38.72, 45 38.62 S 48.5 38.72, 50 38.62 S 53.51 37.77, 55 37.93 S 58.52 39.4, 60 39.66 S 63.5 39.76, 65 39.66 S 68.5 39.02, 70 38.97 S 73.5 39.21, 75 39.31 S 78.5 39.61, 80 39.66 S 83.5 39.66, 85 39.66 S 88.5 39.66, 90 39.66 S 93.5 39.66, 95 39.66 S 98.5 39.66, 100 39.66 S 103.5 39.66, 105 39.66 S 108.5 39.66, 110 39.66 S 113.5 39.66, 115 39.66 S 118.5 39.66, 120 39.66 S 123.5 39.66, 125 39.66 S 128.5 39.66, 130 39.66 S 133.5 39.66, 135 39.66 S 138.5 39.66, 140 39.66 S 143.5 39.66, 145 39.66 S 148.5 39.66, 150 39.66 S 153.5 39.66, 155 39.66 S 158.5 39.66, 160 39.66 S 163.5 39.66, 165 39.66 S 168.5 39.66, 170 39.66 S 173.5 39.66, 175 39.66 S 178.5 39.66, 180 39.66 S 183.5 39.66, 185 39.66 S 188.5 39.66, 190 39.66"
          fill="none"/>
    <circle r="4" cx="5" cy="40" fill="#3023AE"/>
    <circle r="4" cx="190" cy="39.66" fill="#C86DD7"/>      
</svg>