<svg width="200" height="50" viewBox="0 0 210 50" xmlns="http://www.w3.org/2000/svg">
    <defs>
        <linearGradient x1="0%" y1="0%" x2="100%" y2="0%" id="a">
            <stop stop-color="#3023AE" offset="0%"/>
            <stop stop-color="#C86DD7" offset="100%"/>
        </linearGradient>
    </defs>
    <path stroke="url(#a)"
          stroke-width="3"
          stroke-linejoin="round"
          stroke-linecap="round"
          d="M5 40 C 5.34 38.54, 8.88 19.23, 10 18.24 S 13.91 30.15, 15 31.18 S 18.67 28.35, 20 27.65 S 23.5 25.79, 25 25.88 S 28.5 28.33, 30 28.24 S 33.59 24.79, 35 25.29 S 38.5 31.67, 40 31.76 S 43.61 26.45, 45 25.88 S 48.64 27.01, 50 27.65 S 53.5 30.68, 55 30.59 S 59.06 28.23, 60 27.06 S 63.81 19.15, 65 18.24 S 68.84 18.46, 70 19.41 S 73.56 26.05, 75 26.47 S 78.51 22.17, 80 22.35 S 83.56 27.23, 85 27.65 S 88.61 25.86, 90 25.29 S 93.64 22.89, 95 23.53 S 98.5 30.09, 100 30 S 103.97 24.03, 105 22.94 S 108.67 20.11, 110 19.41 S 113.67 16.95, 115 17.65 S 118.61 24.14, 120 24.71 S 123.59 21.26, 125 21.76 S 128.56 27.82, 130 28.24 S 133.54 25.05, 135 24.71 S 138.56 25.46, 140 25.88 S 143.64 28.29, 145 27.65 S 148.74 21.99, 150 21.18 S 153.51 21.36, 155 21.18 S 158.56 20.42, 160 20 S 163.5 18.24, 165 18.24 S 168.71 19.24, 170 20 S 173.74 24.93, 175 24.12 S 178.56 13.95, 180 13.53 S 183.59 21.68, 185 21.18 S 188.64 10.64, 190 10 S 193.77 15.6, 195 16.47 S 198.54 16.72, 200 17.06 S 203.59 18.32, 205 18.82"
          fill="none"/>
    <circle r="4" cx="5" cy="40" fill="#3023AE"/>
    <circle r="4" cx="205" cy="18.82" fill="#C86DD7"/>      
</svg>