<svg width="200" height="50" viewBox="0 0 210 50" xmlns="http://www.w3.org/2000/svg">
    <defs>
        <linearGradient x1="0%" y1="0%" x2="100%" y2="0%" id="a">
            <stop stop-color="#3023AE" offset="0%"/>
            <stop stop-color="#C86DD7" offset="100%"/>
        </linearGradient>
    </defs>
    <path stroke="url(#a)"
          stroke-width="3"
          stroke-linejoin="round"
          stroke-linecap="round"
          d="M5 40 C 5.25 38.52, 8.52 10.22, 10 10 S 14.5 37.08, 15 38.5 S 18.5 38.5, 20 38.5 S 23.5 38.5, 25 38.5 S 28.5 38.5, 30 38.5 S 33.56 38.93, 35 38.5 S 38.5 35.5, 40 35.5 S 43.52 38.28, 45 38.5 S 48.56 37.43, 50 37 S 53.5 35.5, 55 35.5 S 58.5 37, 60 37 S 63.56 35.93, 65 35.5 S 68.52 33.78, 70 34 S 73.5 37, 75 37 S 78.5 34, 80 34 S 83.52 37.22, 85 37 S 88.5 32.5, 90 32.5 S 93.56 36.57, 95 37 S 98.52 35.28, 100 35.5 S 103.5 38.5, 105 38.5 S 108.5 35.5, 110 35.5 S 113.52 38.72, 115 38.5 S 118.71 34.77, 120 34 S 123.56 32.07, 125 32.5 S 128.52 36.78, 130 37 S 133.5 34, 135 34 S 138.56 36.57, 140 37 S 143.5 37, 145 37 S 148.52 37.22, 150 37 S 153.5 35.5, 155 35.5 S 158.56 37.43, 160 37 S 163.63 33.12, 165 32.5 S 168.56 32.07, 170 32.5 S 173.52 35.72, 175 35.5 S 178.52 31.22, 180 31 S 183.71 33.23, 185 34 S 188.52 37.22, 190 37 S 193.52 32.72, 195 32.5 S 198.63 34.88, 200 35.5 S 203.56 36.57, 205 37"
          fill="none"/>
    <circle r="4" cx="5" cy="40" fill="#3023AE"/>
    <circle r="4" cx="205" cy="37" fill="#C86DD7"/>      
</svg>