<svg width="200" height="50" viewBox="0 0 210 50" xmlns="http://www.w3.org/2000/svg">
    <defs>
        <linearGradient x1="0%" y1="0%" x2="100%" y2="0%" id="a">
            <stop stop-color="#3023AE" offset="0%"/>
            <stop stop-color="#C86DD7" offset="100%"/>
        </linearGradient>
    </defs>
    <path stroke="url(#a)"
          stroke-width="3"
          stroke-linejoin="round"
          stroke-linecap="round"
          d="M5 40 C 5.87 38.78, 8.62 33.55, 10 32.97 S 13.56 35.37, 15 35.78 S 18.51 35.92, 20 35.78 S 23.54 34.5, 25 34.84 S 28.69 38.85, 30 38.12 S 33.54 29.56, 35 29.22 S 38.75 34.96, 40 35.78 S 43.51 35.64, 45 35.78 S 48.51 36.93, 50 36.72 S 53.64 35.01, 55 34.37 S 58.72 32.81, 60 32.03 S 63.77 29.14, 65 28.28 S 68.53 24.72, 70 25 S 73.54 29.82, 75 30.16 S 78.57 26.87, 80 27.34 S 83.69 32.7, 85 33.44 S 88.6 33.5, 90 32.97 S 93.56 30.1, 95 29.69 S 98.62 30.74, 100 30.16 S 103.72 26.25, 105 25.47 S 108.8 24.96, 110 24.06 S 113.88 18.97, 115 17.97 S 118.67 14.47, 120 15.16 S 123.69 22.39, 125 23.12 S 128.5 20.85, 130 20.78 S 133.85 21.69, 135 22.66 S 138.62 28.64, 140 29.22 S 143.51 26.66, 145 26.87 S 148.53 30.9, 150 30.62 S 153.75 25.82, 155 25 S 158.75 24.88, 160 24.06 S 163.51 18.23, 165 18.44 S 168.54 25.13, 170 25.47 S 173.69 20.05, 175 20.78 S 178.5 31.16, 180 31.09 S 184.27 21.62, 185 20.31 S 188.96 14.36, 190 13.28 S 193.6 9.47, 195 10 S 198.5 16.96, 200 17.03 S 204.09 11.66, 205 10.47"
          fill="none"/>
    <circle r="4" cx="5" cy="40" fill="#3023AE"/>
    <circle r="4" cx="205" cy="10.469999999999999" fill="#C86DD7"/>      
</svg>