<svg width="200" height="50" viewBox="0 0 210 50" xmlns="http://www.w3.org/2000/svg">
    <defs>
        <linearGradient x1="0%" y1="0%" x2="100%" y2="0%" id="a">
            <stop stop-color="#3023AE" offset="0%"/>
            <stop stop-color="#C86DD7" offset="100%"/>
        </linearGradient>
    </defs>
    <path stroke="url(#a)"
          stroke-width="3"
          stroke-linejoin="round"
          stroke-linecap="round"
          d="M5 40 C 6.5 40, 8.5 39.99, 10 39.99 S 13.5 39.99, 15 39.99 S 18.5 39.99, 20 39.99 S 23.98 41.06, 25 39.96 S 28.5 29.39, 30 29.27 S 33.51 38.96, 35 39.16 S 38.66 31.27, 40 30.59 S 43.62 33.51, 45 34.11 S 48.61 34.37, 50 34.93 S 54.44 39.49, 55 38.1 S 58.84 10.95, 60 10 S 64.52 28.52, 65 29.94 S 68.79 38.92, 70 39.81 S 73.5 37.26, 75 37.29 S 78.55 39.6, 80 39.99 S 84.11 41.2, 85 39.99 S 88.51 26.5, 90 26.37 S 93.53 38.84, 95 39.14 S 99 29.55, 100 28.43 S 103.52 27.63, 105 27.86 S 108.52 29.75, 110 30 S 113.53 29.83, 115 29.54 S 118.51 28.22, 120 28.06 S 123.5 28.38, 125 28.45 S 128.5 28.5, 130 28.56 S 133.53 29.15, 135 28.86 S 138.53 26.86, 140 26.58 S 143.5 26.88, 145 26.96 S 148.51 27.34, 150 27.13 S 153.62 26.15, 155 25.56 S 158.51 23.02, 160 22.85 S 163.58 23.94, 165 24.43 S 168.55 25.9, 170 26.29 S 173.52 26.93, 175 27.14 S 178.5 27.83, 180 27.73 S 183.5 26.48, 185 26.48 S 188.5 27.78, 190 27.73 S 193.56 26.6, 195 26.17 S 198.52 24.96, 200 24.72 S 203.5 24.59, 205 24.53"
          fill="none"/>
    <circle r="4" cx="5" cy="40" fill="#3023AE"/>
    <circle r="4" cx="205" cy="24.53" fill="#C86DD7"/>      
</svg>