<svg width="200" height="50" viewBox="0 0 210 50" xmlns="http://www.w3.org/2000/svg">
    <defs>
        <linearGradient x1="0%" y1="0%" x2="100%" y2="0%" id="a">
            <stop stop-color="#3023AE" offset="0%"/>
            <stop stop-color="#C86DD7" offset="100%"/>
        </linearGradient>
    </defs>
    <path stroke="url(#a)"
          stroke-width="3"
          stroke-linejoin="round"
          stroke-linecap="round"
          d="M5 40 C 6.42 39.51, 8.5 38.36, 10 38.27 S 13.51 39.25, 15 39.42 S 18.5 39.42, 20 39.42 S 23.5 39.42, 25 39.42 S 28.5 39.42, 30 39.42 S 33.5 39.42, 35 39.42 S 38.5 39.42, 40 39.42 S 43.93 40.47, 45 39.42 S 49.02 30.75, 50 29.62 S 54.32 29.22, 55 27.88 S 58.67 9.31, 60 10 S 64.48 31.67, 65 33.08 S 68.56 36.7, 70 37.12 S 73.52 36.22, 75 35.96 S 78.52 35.12, 80 35.38 S 83.61 37.13, 85 37.69 S 88.5 39.33, 90 39.42 S 93.54 38.61, 95 38.27 S 98.5 37.21, 100 37.12 S 103.5 37.6, 105 37.69 S 108.5 37.69, 110 37.69 S 113.5 37.78, 115 37.69 S 118.52 36.86, 120 37.12 S 123.51 39.25, 125 39.42 S 128.54 38.61, 130 38.27 S 133.54 37.46, 135 37.12 S 138.58 36.45, 140 35.96 S 143.5 33.74, 145 33.65 S 148.7 34.63, 150 35.38 S 153.56 39, 155 39.42 S 158.51 38.44, 160 38.27 S 163.5 38.36, 165 38.27 S 168.5 37.69, 170 37.69 S 173.51 38.1, 175 38.27 S 178.5 38.85, 180 38.85 S 183.5 38.36, 185 38.27 S 188.54 38.61, 190 38.27 S 193.5 35.96, 195 35.96 S 198.5 38.18, 200 38.27 S 203.58 37.03, 205 36.54"
          fill="none"/>
    <circle r="4" cx="5" cy="40" fill="#3023AE"/>
    <circle r="4" cx="205" cy="36.54" fill="#C86DD7"/>      
</svg>