<svg width="200" height="50" viewBox="0 0 210 50" xmlns="http://www.w3.org/2000/svg">
    <defs>
        <linearGradient x1="0%" y1="0%" x2="100%" y2="0%" id="a">
            <stop stop-color="#3023AE" offset="0%"/>
            <stop stop-color="#C86DD7" offset="100%"/>
        </linearGradient>
    </defs>
    <path stroke="url(#a)"
          stroke-width="3"
          stroke-linejoin="round"
          stroke-linecap="round"
          d="M5 40 C 6.31 39.28, 8.72 38.03, 10 37.25 S 13.86 34.92, 15 33.95 S 18.61 28.15, 20 28.7 S 23.89 36.92, 25 37.93 S 28.5 37.75, 30 37.81 S 33.5 38.32, 35 38.33 S 38.5 37.87, 40 37.85 S 43.5 38.11, 45 38.21 S 48.5 38.37, 50 38.49 S 53.5 38.92, 55 39.01 S 58.5 39.07, 60 39.12 S 63.5 39.23, 65 39.32 S 68.54 40.08, 70 39.72 S 73.6 37.35, 75 36.82 S 78.51 36.15, 80 35.98 S 83.5 35.63, 85 35.7 S 88.5 36.53, 90 36.46 S 93.5 35.25, 95 35.23 S 98.6 36.88, 100 36.34 S 103.81 32.28, 105 31.37 S 109.36 30.02, 110 28.66 S 113.51 10.13, 115 10 S 119.3 26.46, 120 27.79 S 123.58 28.45, 125 28.94 S 128.53 30.96, 130 31.25 S 133.53 31.23, 135 30.93 S 138.5 29.33, 140 29.22 S 143.5 30.24, 145 30.21 S 148.5 29.09, 150 29.02 S 153.5 29.75, 155 29.77 S 158.5 29.22, 160 29.14 S 163.51 29.06, 165 29.26 S 168.52 30.24, 170 30.49 S 173.51 31.08, 175 30.93 S 178.51 29.59, 180 29.46 S 183.5 30.01, 185 30.09 S 188.57 30.41, 190 29.97 S 193.59 27.55, 195 27.03 S 198.53 26.03, 200 26.31 S 203.67 28.21, 205 28.9"
          fill="none"/>
    <circle r="4" cx="5" cy="40" fill="#3023AE"/>
    <circle r="4" cx="205" cy="28.9" fill="#C86DD7"/>      
</svg>