<svg width="200" height="50" viewBox="0 0 210 50" xmlns="http://www.w3.org/2000/svg">
    <defs>
        <linearGradient x1="0%" y1="0%" x2="100%" y2="0%" id="a">
            <stop stop-color="#3023AE" offset="0%"/>
            <stop stop-color="#C86DD7" offset="100%"/>
        </linearGradient>
    </defs>
    <path stroke="url(#a)"
          stroke-width="3"
          stroke-linejoin="round"
          stroke-linecap="round"
          d="M5 40 C 6.5 39.96, 8.5 39.92, 10 39.86 S 13.5 39.59, 15 39.59 S 18.5 39.82, 20 39.86 S 23.87 40.85, 25 39.86 S 29.13 32.3, 30 31.08 S 33.51 25.95, 35 25.81 S 38.64 29.51, 40 30.14 S 43.5 30.35, 45 30.41 S 48.55 30.91, 50 30.54 S 54.12 29.05, 55 27.84 S 58.6 17.31, 60 16.76 S 63.5 23.82, 65 23.92 S 68.57 17.89, 70 17.43 S 73.67 19.98, 75 20.68 S 78.7 21.95, 80 22.7 S 83.64 25.86, 85 26.49 S 88.5 27.38, 90 27.3 S 93.5 26.05, 95 25.95 S 98.51 26.48, 100 26.62 S 103.53 27.21, 105 26.89 S 108.58 24.94, 110 24.46 S 113.51 23.37, 115 23.51 S 118.62 24.81, 120 25.41 S 124.18 29.1, 125 27.84 S 128.6 10.53, 130 10 S 133.95 22.98, 135 24.05 S 138.6 19.61, 140 20.14 S 143.74 27.02, 145 27.84 S 148.55 26.99, 150 26.62 S 153.76 26.12, 155 25.27 S 158.54 20.07, 160 19.73 S 163.62 22.38, 165 22.97 S 168.5 24.05, 170 24.05 S 173.75 23.8, 175 22.97 S 178.53 17.11, 180 17.43 S 183.64 24.5, 185 25.14 S 188.56 22.59, 190 22.16 S 193.5 22.26, 195 22.16 S 198.59 22, 200 21.49 S 203.71 19.28, 205 18.51"
          fill="none"/>
    <circle r="4" cx="5" cy="40" fill="#3023AE"/>
    <circle r="4" cx="205" cy="18.51" fill="#C86DD7"/>      
</svg>