<svg width="200" height="50" viewBox="0 0 210 50" xmlns="http://www.w3.org/2000/svg">
    <defs>
        <linearGradient x1="0%" y1="0%" x2="100%" y2="0%" id="a">
            <stop stop-color="#3023AE" offset="0%"/>
            <stop stop-color="#C86DD7" offset="100%"/>
        </linearGradient>
    </defs>
    <path stroke="url(#a)"
          stroke-width="3"
          stroke-linejoin="round"
          stroke-linecap="round"
          d="M5 40 C 5.33 38.54, 9.46 19.23, 10 17.83 S 13.67 14.6, 15 13.91 S 18.96 11.53, 20 12.61 S 23.67 23.66, 25 24.35 S 28.89 18.84, 30 17.83 S 34.19 13.96, 35 15.22 S 38.67 32.79, 40 33.48 S 44.03 21.57, 45 20.43 S 48.5 21.74, 50 21.74 S 53.51 20.24, 55 20.43 S 58.51 23.23, 60 23.04 S 63.67 19.82, 65 19.13 S 68.74 18.65, 70 17.83 S 73.89 11.6, 75 12.61 S 78.82 26.04, 80 26.96 S 83.74 19.61, 85 20.43 S 88.51 33.29, 90 33.48 S 93.67 22.43, 95 21.74 S 99.03 29.4, 100 28.26 S 103.6 10.55, 105 10 S 109.03 23.21, 110 24.35 S 113.55 21.36, 115 21.74 S 118.82 26.04, 120 26.96 S 123.6 30.12, 125 29.57 S 128.74 23.86, 130 23.04 S 133.5 23.04, 135 23.04 S 138.55 22.66, 140 23.04 S 143.74 24.83, 145 25.65 S 148.67 28.88, 150 29.57 S 153.55 31.25, 155 30.87 S 158.74 27.78, 160 26.96 S 163.55 23.97, 165 24.35 S 168.5 29.57, 170 29.57 S 173.67 23.66, 175 24.35 S 178.6 34.23, 180 34.78 S 183.67 28.95, 185 28.26 S 188.67 30.26, 190 29.57 S 193.55 22.66, 195 23.04 S 198.74 31.35, 200 32.17 S 203.67 30.26, 205 29.57"
          fill="none"/>
    <circle r="4" cx="5" cy="40" fill="#3023AE"/>
    <circle r="4" cx="205" cy="29.57" fill="#C86DD7"/>      
</svg>