<svg width="200" height="50" viewBox="0 0 210 50" xmlns="http://www.w3.org/2000/svg">
    <defs>
        <linearGradient x1="0%" y1="0%" x2="100%" y2="0%" id="a">
            <stop stop-color="#3023AE" offset="0%"/>
            <stop stop-color="#C86DD7" offset="100%"/>
        </linearGradient>
    </defs>
    <path stroke="url(#a)"
          stroke-width="3"
          stroke-linejoin="round"
          stroke-linecap="round"
          d="M5 40 C 5.81 38.74, 8.57 32.62, 10 32.18 S 13.5 36.88, 15 36.93 S 18.58 32.99, 20 32.51 S 23.65 34.17, 25 33.52 S 28.87 28.69, 30 27.71 S 33.52 24.6, 35 24.86 S 38.53 29.16, 40 29.44 S 44.19 28.02, 45 26.76 S 48.5 13.98, 50 13.91 S 53.99 25.2, 55 26.31 S 58.5 25.06, 60 24.97 S 63.5 25.58, 65 25.7 S 68.6 26.28, 70 25.75 S 73.55 22.35, 75 21.96 S 78.51 22.89, 80 23.07 S 83.54 23.52, 85 23.18 S 88.5 20.62, 90 20.73 S 93.51 23.77, 95 23.91 S 99.12 22.9, 100 21.68 S 103.57 10.44, 105 10 S 108.84 17.64, 110 18.6 S 113.5 18.37, 115 18.27 S 118.5 17.85, 120 17.93 S 123.65 18.18, 125 18.83 S 128.82 23.66, 130 22.74 S 134.01 12.19, 135 11.06 S 139.02 10.21, 140 11.34 S 143.97 21.48, 145 22.57 S 148.51 22.13, 150 21.96 S 153.53 21.75, 155 21.45 S 158.82 20.87, 160 19.94 S 163.55 13.91, 165 13.52 S 168.83 16.32, 170 17.26 S 173.6 20.98, 175 21.51 S 178.53 20.69, 180 21.01 S 183.55 23.29, 185 23.69 S 188.53 24.02, 190 23.74 S 193.5 21.79, 195 21.79 S 198.63 23.13, 200 23.74 S 203.65 25.54, 205 26.2"
          fill="none"/>
    <circle r="4" cx="5" cy="40" fill="#3023AE"/>
    <circle r="4" cx="205" cy="26.2" fill="#C86DD7"/>      
</svg>