<svg width="200" height="50" viewBox="0 0 210 50" xmlns="http://www.w3.org/2000/svg">
    <defs>
        <linearGradient x1="0%" y1="0%" x2="100%" y2="0%" id="a">
            <stop stop-color="#3023AE" offset="0%"/>
            <stop stop-color="#C86DD7" offset="100%"/>
        </linearGradient>
    </defs>
    <path stroke="url(#a)"
          stroke-width="3"
          stroke-linejoin="round"
          stroke-linecap="round"
          d="M5 40 C 6.49 39.87, 8.51 39.75, 10 39.58 S 13.5 38.96, 15 38.89 S 18.65 39.76, 20 39.1 S 23.7 34.76, 25 34.02 S 28.5 33.43, 30 33.39 S 33.5 33.75, 35 33.76 S 38.6 33.98, 40 33.44 S 43.53 30.21, 45 29.89 S 48.5 31.15, 50 31.27 S 53.5 30.76, 55 30.69 S 58.58 31.27, 60 30.79 S 63.51 27.55, 65 27.35 S 68.52 29.23, 70 29.47 S 73.57 29.44, 75 28.99 S 78.51 26.51, 80 26.35 S 83.52 27.73, 85 27.94 S 88.57 28.23, 90 27.78 S 93.82 25.74, 95 24.81 S 98.51 19.72, 100 19.89 S 103.62 25.39, 105 25.98 S 108.66 24.8, 110 24.13 S 113.52 21.16, 115 20.95 S 118.75 23.54, 120 22.7 S 123.56 14.66, 125 14.23 S 128.52 19.44, 130 19.68 S 133.52 15.65, 135 15.87 S 138.77 20.31, 140 21.16 S 143.5 22.71, 145 22.8 S 149.08 22.93, 150 21.75 S 153.54 10.36, 155 10 S 158.68 18.55, 160 19.26 S 163.57 15.84, 165 15.4 S 168.56 15.79, 170 16.19 S 173.52 18.43, 175 18.2 S 178.76 15.51, 180 14.66 S 183.53 11.06, 185 11.38 S 188.5 16.89, 190 16.83 S 193.5 10.98, 195 11.01 S 198.69 16.3, 200 17.04 S 203.5 16.78, 205 16.67"
          fill="none"/>
    <circle r="4" cx="5" cy="40" fill="#3023AE"/>
    <circle r="4" cx="205" cy="16.67" fill="#C86DD7"/>      
</svg>