<svg width="200" height="50" viewBox="0 0 210 50" xmlns="http://www.w3.org/2000/svg">
    <defs>
        <linearGradient x1="0%" y1="0%" x2="100%" y2="0%" id="a">
            <stop stop-color="#3023AE" offset="0%"/>
            <stop stop-color="#C86DD7" offset="100%"/>
        </linearGradient>
    </defs>
    <path stroke="url(#a)"
          stroke-width="3"
          stroke-linejoin="round"
          stroke-linecap="round"
          d="M5 40 C 6.41 39.5, 8.5 38.3, 10 38.24 S 13.52 39.35, 15 39.59 S 18.5 39.82, 20 39.86 S 23.5 39.86, 25 39.86 S 28.67 40.56, 30 39.86 S 33.5 34.69, 35 34.57 S 38.59 38.55, 40 39.05 S 44.51 39.52, 45 38.1 S 48.51 10.2, 50 10 S 54.49 35.33, 55 36.74 S 58.51 37.83, 60 37.69 S 63.52 36.03, 65 35.79 S 68.52 35.84, 70 36.06 S 73.5 37.25, 75 37.29 S 78.51 36.53, 80 36.33 S 83.54 36.29, 85 35.93 S 88.5 33.93, 90 33.89 S 93.62 35.08, 95 35.66 S 98.5 38.04, 100 38.1 S 103.55 36.45, 105 36.06 S 108.5 35.44, 110 35.38 S 113.5 35.76, 115 35.66 S 118.5 34.59, 120 34.71 S 123.51 36.33, 125 36.47 S 128.55 36.05, 130 35.66 S 133.52 33.52, 135 33.76 S 138.55 36.9, 140 37.29 S 143.5 36.55, 145 36.47 S 148.55 37.13, 150 36.74 S 153.71 34.53, 155 33.76 S 158.63 31.38, 160 30.77 S 163.54 28.94, 165 29.28 S 168.65 32.44, 170 33.08 S 173.5 33.95, 175 34.03 S 178.51 33.76, 180 33.62 S 183.5 33.16, 185 33.08 S 188.54 33.44, 190 33.08 S 193.58 31.11, 195 30.63 S 198.56 30.11, 200 29.68 S 203.61 28.21, 205 27.65"
          fill="none"/>
    <circle r="4" cx="5" cy="40" fill="#3023AE"/>
    <circle r="4" cx="205" cy="27.65" fill="#C86DD7"/>      
</svg>