<svg width="200" height="50" viewBox="0 0 210 50" xmlns="http://www.w3.org/2000/svg">
    <defs>
        <linearGradient x1="0%" y1="0%" x2="100%" y2="0%" id="a">
            <stop stop-color="#3023AE" offset="0%"/>
            <stop stop-color="#C86DD7" offset="100%"/>
        </linearGradient>
    </defs>
    <path stroke="url(#a)"
          stroke-width="3"
          stroke-linejoin="round"
          stroke-linecap="round"
          d="M5 40 C 5.39 38.55, 8.65 22.07, 10 21.43 S 14.09 34.04, 15 35.24 S 19.11 35.85, 20 34.64 S 24.44 22.97, 25 21.58 S 28.72 9.22, 30 10 S 34.06 26.46, 35 27.63 S 38.67 23.01, 40 22.33 S 43.5 22.49, 45 22.5 S 48.51 22.19, 50 22.37 S 53.6 23.19, 55 23.72 S 58.5 26.07, 60 26.11 S 63.95 25.08, 65 24.01 S 68.5 15.96, 70 15.9 S 73.88 22.63, 75 23.62 S 78.58 24.24, 80 24.72 S 83.53 26.71, 85 27.01 S 88.51 26.62, 90 26.78 S 93.53 27.81, 95 28.09 S 98.54 28.33, 100 28.67 S 103.51 30.23, 105 30.4 S 108.52 30.05, 110 29.81 S 113.5 28.84, 115 28.81 S 118.51 29.47, 120 29.6 S 123.5 29.68, 125 29.69 S 128.52 29.45, 130 29.67 S 133.54 30.8, 135 31.16 S 138.53 32.42, 140 32.12 S 143.51 29.34, 145 29.15 S 148.58 30.39, 150 30.87 S 153.51 32.28, 155 32.49 S 158.5 32.32, 160 32.25 S 163.51 32.19, 165 32.04 S 168.5 31.39, 170 31.27 S 173.61 31.84, 175 31.27 S 179.08 28.32, 180 27.13 S 183.5 18.42, 185 18.3 S 188.85 25.35, 190 26.32 S 193.5 26.72, 195 26.72 S 198.5 26.38, 200 26.34 S 203.5 26.42, 205 26.45"
          fill="none"/>
    <circle r="4" cx="5" cy="40" fill="#3023AE"/>
    <circle r="4" cx="205" cy="26.45" fill="#C86DD7"/>      
</svg>