<svg width="200" height="50" viewBox="0 0 210 50" xmlns="http://www.w3.org/2000/svg">
    <defs>
        <linearGradient x1="0%" y1="0%" x2="100%" y2="0%" id="a">
            <stop stop-color="#3023AE" offset="0%"/>
            <stop stop-color="#C86DD7" offset="100%"/>
        </linearGradient>
    </defs>
    <path stroke="url(#a)"
          stroke-width="3"
          stroke-linejoin="round"
          stroke-linecap="round"
          d="M5 40 C 5.96 38.85, 8.56 34.43, 10 34 S 13.56 36.57, 15 37 S 18.5 37, 20 37 S 23.5 37, 25 37 S 28.5 37, 30 37 S 34.48 38.41, 35 37 S 38.5 10, 40 10 S 44.48 35.59, 45 37 S 48.5 37, 50 37 S 53.5 37, 55 37 S 58.5 37, 60 37 S 63.5 37, 65 37 S 68.5 37, 70 37 S 73.5 37, 75 37 S 78.5 37, 80 37 S 83.5 37, 85 37 S 88.5 37, 90 37 S 94.17 38.25, 95 37 S 98.56 22.43, 100 22 S 104.17 32.75, 105 34 S 108.56 36.57, 110 37 S 113.5 37, 115 37 S 118.56 37.43, 120 37 S 124.42 35.38, 125 34 S 128.5 13, 130 13 S 134.42 32.62, 135 34 S 138.89 38, 140 37 S 143.5 25, 145 25 S 149.04 35.85, 150 37 S 153.5 37, 155 37 S 158.5 37, 160 37 S 163.5 37, 165 37 S 168.71 37.77, 170 37 S 173.5 31, 175 31 S 178.71 36.23, 180 37 S 183.5 37, 185 37 S 188.5 37, 190 37 S 193.5 37, 195 37 S 198.56 37.43, 200 37 S 203.71 34.77, 205 34"
          fill="none"/>
    <circle r="4" cx="5" cy="40" fill="#3023AE"/>
    <circle r="4" cx="205" cy="34" fill="#C86DD7"/>      
</svg>