<svg width="200" height="50" viewBox="0 0 210 50" xmlns="http://www.w3.org/2000/svg">
    <defs>
        <linearGradient x1="0%" y1="0%" x2="100%" y2="0%" id="a">
            <stop stop-color="#3023AE" offset="0%"/>
            <stop stop-color="#C86DD7" offset="100%"/>
        </linearGradient>
    </defs>
    <path stroke="url(#a)"
          stroke-width="3"
          stroke-linejoin="round"
          stroke-linecap="round"
          d="M5 40 C 6.15 39.04, 8.61 36.39, 10 35.82 S 13.5 35.83, 15 35.87 S 18.52 35.85, 20 36.1 S 23.52 37.34, 25 37.57 S 28.5 37.61, 30 37.65 S 33.5 37.85, 35 37.87 S 38.51 37.97, 40 37.78 S 43.51 36.76, 45 36.56 S 48.5 36.48, 50 36.41 S 53.5 36.01, 55 36.06 S 58.51 36.6, 60 36.73 S 63.5 36.95, 65 36.96 S 68.5 36.93, 70 36.81 S 73.5 36.21, 75 36.15 S 78.51 36.55, 80 36.38 S 83.5 34.99, 85 34.98 S 88.51 36.09, 90 36.28 S 93.5 36.22, 95 36.23 S 98.5 36.3, 100 36.38 S 103.5 36.85, 105 36.75 S 108.51 35.88, 110 35.7 S 113.5 35.55, 115 35.55 S 118.5 35.69, 120 35.68 S 123.51 35.63, 125 35.46 S 128.5 34.5, 130 34.56 S 133.51 35.64, 135 35.83 S 138.51 36.01, 140 35.82 S 143.5 34.66, 145 34.55 S 148.51 34.9, 150 35.07 S 153.5 35.68, 155 35.67 S 158.52 35.26, 160 34.99 S 163.5 33.96, 165 33.87 S 168.5 34.25, 170 34.36 S 173.52 34.82, 175 34.6 S 178.5 32.93, 180 32.88 S 183.52 34.51, 185 34.28 S 188.64 31.92, 190 31.3 S 194.36 31.07, 195 29.71 S 199.01 11.12, 200 10 S 204.23 17.12, 205 18.41"
          fill="none"/>
    <circle r="4" cx="5" cy="40" fill="#3023AE"/>
    <circle r="4" cx="205" cy="18.41" fill="#C86DD7"/>      
</svg>