<svg width="200" height="50" viewBox="0 0 210 50" xmlns="http://www.w3.org/2000/svg">
    <defs>
        <linearGradient x1="0%" y1="0%" x2="100%" y2="0%" id="a">
            <stop stop-color="#3023AE" offset="0%"/>
            <stop stop-color="#C86DD7" offset="100%"/>
        </linearGradient>
    </defs>
    <path stroke="url(#a)"
          stroke-width="3"
          stroke-linejoin="round"
          stroke-linecap="round"
          d="M5 40 C 6.5 39.99, 8.55 40.35, 10 39.97 S 13.54 37.69, 15 37.36 S 18.54 37.37, 20 37.73 S 23.83 40.8, 25 39.86 S 28.52 29.84, 30 29.62 S 33.95 37.29, 35 38.36 S 38.52 39.58, 40 39.82 S 43.52 40.22, 45 39.99 S 48.67 38.95, 50 38.25 S 53.67 35.45, 55 34.75 S 58.53 33.26, 60 32.99 S 63.5 32.81, 65 32.9 S 68.51 33.78, 70 33.61 S 73.51 31.94, 75 31.79 S 78.51 32.75, 80 32.58 S 83.54 31.01, 85 30.68 S 88.51 30.18, 90 30.35 S 93.5 31.75, 95 31.8 S 98.54 31.02, 100 30.67 S 103.51 29.23, 105 29.38 S 108.51 31.84, 110 31.65 S 113.54 28.44, 115 28.11 S 118.52 29.15, 120 29.42 S 123.51 30.08, 125 29.94 S 128.5 28.58, 130 28.49 S 133.51 29.45, 135 29.31 S 138.5 27.53, 140 27.55 S 143.52 29.18, 145 29.43 S 148.51 29.4, 150 29.25 S 153.6 28.97, 155 28.44 S 158.51 25.63, 160 25.44 S 163.5 27.26, 165 27.19 S 168.7 25.69, 170 24.94 S 173.5 21.34, 175 21.45 S 178.62 25.1, 180 25.68 S 183.51 25.82, 185 25.68 S 188.5 24.64, 190 24.71 S 193.87 27.11, 195 26.13 S 199.21 17.32, 200 16.05 S 204.04 11.16, 205 10"
          fill="none"/>
    <circle r="4" cx="5" cy="40" fill="#3023AE"/>
    <circle r="4" cx="205" cy="10" fill="#C86DD7"/>      
</svg>