<svg width="200" height="50" viewBox="0 0 210 50" xmlns="http://www.w3.org/2000/svg">
    <defs>
        <linearGradient x1="0%" y1="0%" x2="100%" y2="0%" id="a">
            <stop stop-color="#3023AE" offset="0%"/>
            <stop stop-color="#C86DD7" offset="100%"/>
        </linearGradient>
    </defs>
    <path stroke="url(#a)"
          stroke-width="3"
          stroke-linejoin="round"
          stroke-linecap="round"
          d="M5 40 C 6.5 39.99, 8.54 40.31, 10 39.98 S 13.53 38.06, 15 37.78 S 18.53 37.78, 20 38.09 S 23.76 40.73, 25 39.88 S 28.51 31.44, 30 31.25 S 33.86 37.65, 35 38.63 S 38.51 39.65, 40 39.85 S 43.51 40.19, 45 39.99 S 48.81 39.42, 50 38.51 S 53.72 33.13, 55 32.35 S 58.53 32.14, 60 32.42 S 63.5 34.2, 65 34.23 S 68.51 32.79, 70 32.65 S 73.51 33.47, 75 33.31 S 78.53 31.85, 80 31.57 S 83.51 31.2, 85 31.39 S 88.5 32.89, 90 32.83 S 93.53 31.29, 95 30.98 S 98.5 30.64, 100 30.7 S 103.51 31.53, 105 31.38 S 108.5 29.78, 110 29.68 S 113.5 30.7, 115 30.74 S 118.5 29.89, 120 29.92 S 123.51 31.1, 125 30.94 S 128.5 28.98, 130 28.88 S 133.52 30.08, 135 30.3 S 138.51 30.47, 140 30.33 S 143.56 29.79, 145 29.37 S 148.5 27.55, 150 27.45 S 153.55 29.05, 155 28.68 S 158.63 25.52, 160 24.91 S 163.57 23.74, 165 24.19 S 168.52 27.8, 170 28.03 S 173.5 25.74, 175 25.72 S 178.51 28.03, 180 27.9 S 184.27 26.13, 185 24.82 S 188.5 10.04, 190 10 S 194.23 23.29, 195 24.58 S 198.51 26.63, 200 26.79 S 203.54 26, 205 25.67"
          fill="none"/>
    <circle r="4" cx="5" cy="40" fill="#3023AE"/>
    <circle r="4" cx="205" cy="25.67" fill="#C86DD7"/>      
</svg>