<svg width="200" height="50" viewBox="0 0 210 50" xmlns="http://www.w3.org/2000/svg">
    <defs>
        <linearGradient x1="0%" y1="0%" x2="100%" y2="0%" id="a">
            <stop stop-color="#3023AE" offset="0%"/>
            <stop stop-color="#C86DD7" offset="100%"/>
        </linearGradient>
    </defs>
    <path stroke="url(#a)"
          stroke-width="3"
          stroke-linejoin="round"
          stroke-linecap="round"
          d="M5 40 C 6.5 39.99, 8.54 40.32, 10 39.98 S 13.53 37.96, 15 37.66 S 18.54 37.64, 20 37.97 S 23.78 40.76, 25 39.88 S 28.51 30.94, 30 30.74 S 33.89 37.53, 35 38.54 S 38.52 39.62, 40 39.84 S 43.51 40.2, 45 39.99 S 48.68 39.14, 50 38.43 S 53.66 35.26, 55 34.59 S 58.52 33.72, 60 33.47 S 63.5 32.94, 65 32.9 S 68.5 33.09, 70 33.18 S 73.51 33.66, 75 33.5 S 78.52 32.37, 80 32.1 S 83.5 31.7, 85 31.66 S 88.52 31.64, 90 31.85 S 93.51 33.28, 95 33.1 S 98.54 30.97, 100 30.63 S 103.51 30.66, 105 30.79 S 108.51 31.68, 110 31.49 S 113.51 29.69, 115 29.53 S 118.5 30.34, 120 30.43 S 123.5 30.16, 125 30.15 S 128.51 30.54, 130 30.34 S 133.5 28.81, 135 28.81 S 138.52 30.1, 140 30.34 S 143.5 30.44, 145 30.4 S 148.58 30.53, 150 30.06 S 153.52 27.37, 155 27.11 S 158.5 28.29, 160 28.3 S 163.66 27.88, 165 27.2 S 168.5 23.32, 170 23.22 S 173.62 25.94, 175 26.52 S 178.51 27.59, 180 27.42 S 183.5 25.29, 185 25.37 S 188.55 28.31, 190 27.93 S 194.27 24.07, 195 22.76 S 198.51 9.81, 200 10 S 204.5 22.62, 205 24.03"
          fill="none"/>
    <circle r="4" cx="5" cy="40" fill="#3023AE"/>
    <circle r="4" cx="205" cy="24.03" fill="#C86DD7"/>      
</svg>