<svg width="200" height="50" viewBox="0 0 210 50" xmlns="http://www.w3.org/2000/svg">
    <defs>
        <linearGradient x1="0%" y1="0%" x2="100%" y2="0%" id="a">
            <stop stop-color="#3023AE" offset="0%"/>
            <stop stop-color="#C86DD7" offset="100%"/>
        </linearGradient>
    </defs>
    <path stroke="url(#a)"
          stroke-width="3"
          stroke-linejoin="round"
          stroke-linecap="round"
          d="M5 40 C 6.5 39.99, 8.54 40.32, 10 39.98 S 13.53 37.98, 15 37.69 S 18.53 37.68, 20 38 S 23.78 40.75, 25 39.88 S 28.51 31.06, 30 30.87 S 33.88 37.57, 35 38.57 S 38.51 39.64, 40 39.85 S 43.51 40.2, 45 39.99 S 48.71 39.22, 50 38.45 S 53.67 34.73, 55 34.04 S 58.51 33.41, 60 33.25 S 63.5 32.98, 65 32.97 S 68.5 33.1, 70 33.19 S 73.52 33.84, 75 33.6 S 78.52 31.81, 80 31.56 S 83.5 31.86, 85 31.88 S 88.5 31.62, 90 31.72 S 93.51 32.75, 95 32.56 S 98.51 30.59, 100 30.46 S 103.5 31.64, 105 31.67 S 108.53 30.97, 110 30.65 S 113.5 29.47, 115 29.51 S 118.5 30.88, 120 30.9 S 123.5 29.64, 125 29.65 S 128.51 31.14, 130 30.95 S 133.5 28.5, 135 28.4 S 138.53 30.02, 140 30.3 S 143.51 30.48, 145 30.33 S 148.57 29.75, 150 29.29 S 153.5 27.21, 155 27.1 S 158.53 28.86, 160 28.58 S 163.65 25.86, 165 25.2 S 168.54 23.37, 170 23.71 S 173.57 27.03, 175 27.5 S 178.51 27.17, 180 26.98 S 183.5 26.18, 185 26.25 S 189.21 28.71, 190 27.43 S 193.72 10.79, 195 10 S 199.2 20.01, 200 21.28 S 203.88 24.74, 205 25.74"
          fill="none"/>
    <circle r="4" cx="5" cy="40" fill="#3023AE"/>
    <circle r="4" cx="205" cy="25.740000000000002" fill="#C86DD7"/>      
</svg>