<svg width="200" height="50" viewBox="0 0 210 50" xmlns="http://www.w3.org/2000/svg">
    <defs>
        <linearGradient x1="0%" y1="0%" x2="100%" y2="0%" id="a">
            <stop stop-color="#3023AE" offset="0%"/>
            <stop stop-color="#C86DD7" offset="100%"/>
        </linearGradient>
    </defs>
    <path stroke="url(#a)"
          stroke-width="3"
          stroke-linejoin="round"
          stroke-linecap="round"
          d="M5 40 C 6.5 39.99, 8.54 40.32, 10 39.98 S 13.53 37.96, 15 37.67 S 18.54 37.68, 20 38 S 23.78 40.75, 25 39.88 S 28.51 31.06, 30 30.86 S 33.88 37.55, 35 38.55 S 38.52 39.64, 40 39.85 S 43.51 40.2, 45 39.99 S 48.65 39.11, 50 38.45 S 53.65 35.71, 55 35.07 S 58.51 33.91, 60 33.7 S 63.5 33.76, 65 33.66 S 68.5 33.03, 70 33.01 S 73.5 33.5, 75 33.52 S 78.52 33.34, 80 33.13 S 83.52 32.32, 85 32.09 S 88.51 31.44, 90 31.56 S 93.5 32.99, 95 32.92 S 98.53 31.4, 100 31.1 S 103.52 30.62, 105 30.85 S 108.52 32.91, 110 32.67 S 113.53 29.49, 115 29.21 S 118.53 30.45, 120 30.75 S 123.51 31.42, 125 31.24 S 128.52 29.83, 130 29.56 S 133.5 29.38, 135 29.44 S 138.51 29.81, 140 29.98 S 143.5 30.55, 145 30.61 S 148.53 30.68, 150 30.39 S 153.54 28.99, 155 28.64 S 158.5 27.96, 160 27.99 S 163.57 29.3, 165 28.85 S 168.64 25.51, 170 24.88 S 173.56 23.84, 175 24.26 S 178.55 27.41, 180 27.81 S 183.51 27.16, 185 26.99 S 188.5 26.56, 190 26.66 S 194.23 28.97, 195 27.68 S 198.73 10.8, 200 10 S 204.4 19.99, 205 21.36"
          fill="none"/>
    <circle r="4" cx="5" cy="40" fill="#3023AE"/>
    <circle r="4" cx="205" cy="21.36" fill="#C86DD7"/>      
</svg>