<svg width="200" height="50" viewBox="0 0 210 50" xmlns="http://www.w3.org/2000/svg">
    <defs>
        <linearGradient x1="0%" y1="0%" x2="100%" y2="0%" id="a">
            <stop stop-color="#3023AE" offset="0%"/>
            <stop stop-color="#C86DD7" offset="100%"/>
        </linearGradient>
    </defs>
    <path stroke="url(#a)"
          stroke-width="3"
          stroke-linejoin="round"
          stroke-linecap="round"
          d="M5 40 C 6.5 39.99, 8.54 40.33, 10 39.97 S 13.53 37.84, 15 37.53 S 18.54 37.53, 20 37.87 S 23.81 40.78, 25 39.87 S 28.51 30.48, 30 30.27 S 33.92 37.42, 35 38.46 S 38.52 39.61, 40 39.84 S 43.52 40.21, 45 39.99 S 48.66 39.04, 50 38.36 S 53.66 35.59, 55 34.91 S 58.52 33.55, 60 33.31 S 63.5 33.21, 65 33.3 S 68.51 34.1, 70 33.9 S 73.51 32.09, 75 31.93 S 78.5 32.91, 80 32.85 S 83.53 31.82, 85 31.54 S 88.51 30.85, 90 30.98 S 93.5 32.46, 95 32.44 S 98.54 31.23, 100 30.87 S 103.51 29.75, 105 29.96 S 108.51 32.43, 110 32.25 S 113.53 29.09, 115 28.77 S 118.53 29.8, 120 30.08 S 123.51 30.8, 125 30.65 S 128.52 29.29, 130 29.07 S 133.5 29.21, 135 29.2 S 138.5 28.9, 140 29.01 S 143.5 29.82, 145 29.94 S 148.51 30.01, 150 29.8 S 153.56 28.95, 155 28.54 S 158.5 27.02, 160 26.94 S 163.55 28.38, 165 28 S 168.65 24.96, 170 24.31 S 173.55 22.79, 175 23.17 S 178.58 26.45, 180 26.92 S 183.51 26.65, 185 26.46 S 188.5 25.55, 190 25.61 S 194.19 28.12, 195 26.86 S 198.84 10.95, 200 10 S 204.25 17.33, 205 18.63"
          fill="none"/>
    <circle r="4" cx="5" cy="40" fill="#3023AE"/>
    <circle r="4" cx="205" cy="18.63" fill="#C86DD7"/>      
</svg>