<svg width="200" height="50" viewBox="0 0 210 50" xmlns="http://www.w3.org/2000/svg">
    <defs>
        <linearGradient x1="0%" y1="0%" x2="100%" y2="0%" id="a">
            <stop stop-color="#3023AE" offset="0%"/>
            <stop stop-color="#C86DD7" offset="100%"/>
        </linearGradient>
    </defs>
    <path stroke="url(#a)"
          stroke-width="3"
          stroke-linejoin="round"
          stroke-linecap="round"
          d="M5 40 C 6.5 39.99, 8.53 40.3, 10 39.98 S 13.53 38.09, 15 37.81 S 18.53 37.8, 20 38.1 S 23.76 40.72, 25 39.88 S 28.51 31.54, 30 31.36 S 33.86 37.68, 35 38.65 S 38.51 39.65, 40 39.85 S 43.51 40.18, 45 39.99 S 48.71 39.3, 50 38.54 S 53.66 34.76, 55 34.09 S 58.5 33.7, 60 33.59 S 63.5 33.39, 65 33.36 S 68.5 33.34, 70 33.41 S 73.51 34, 75 33.8 S 78.52 32.3, 80 32.05 S 83.5 32.1, 85 32.12 S 88.5 32.13, 90 32.19 S 93.51 32.72, 95 32.54 S 98.5 30.98, 100 30.98 S 103.5 32.54, 105 32.52 S 108.55 31.24, 110 30.85 S 113.5 29.76, 115 29.84 S 118.5 31.31, 120 31.36 S 123.5 30.25, 125 30.17 S 128.51 30.95, 130 30.81 S 133.5 29.24, 135 29.26 S 138.52 30.7, 140 30.92 S 143.52 30.98, 145 30.71 S 148.54 29.44, 150 29.08 S 153.5 28.18, 155 28.21 S 158.57 29.71, 160 29.25 S 163.63 25.63, 165 25.02 S 168.59 24.31, 170 24.81 S 173.51 28.36, 175 28.57 S 178.5 26.29, 180 26.23 S 183.5 28.04, 185 28.14 S 189.28 28.22, 190 26.91 S 193.56 10.42, 195 10 S 199.25 22.69, 200 23.99 S 203.76 26.53, 205 27.37"
          fill="none"/>
    <circle r="4" cx="5" cy="40" fill="#3023AE"/>
    <circle r="4" cx="205" cy="27.369999999999997" fill="#C86DD7"/>      
</svg>