<svg width="200" height="50" viewBox="0 0 210 50" xmlns="http://www.w3.org/2000/svg">
    <defs>
        <linearGradient x1="0%" y1="0%" x2="100%" y2="0%" id="a">
            <stop stop-color="#3023AE" offset="0%"/>
            <stop stop-color="#C86DD7" offset="100%"/>
        </linearGradient>
    </defs>
    <path stroke="url(#a)"
          stroke-width="3"
          stroke-linejoin="round"
          stroke-linecap="round"
          d="M5 40 C 6.5 39.99, 8.53 40.28, 10 39.98 S 13.52 38.21, 15 37.94 S 18.53 37.89, 20 38.18 S 23.75 40.71, 25 39.89 S 28.51 31.8, 30 31.62 S 33.84 37.75, 35 38.7 S 38.62 40.44, 40 39.85 S 43.74 35.27, 45 34.45 S 48.53 33.6, 50 33.32 S 53.5 32.68, 55 32.56 S 58.5 32.51, 60 32.52 S 63.54 32.97, 65 32.61 S 68.52 30.29, 70 30.04 S 73.52 30.66, 75 30.9 S 78.51 31.82, 80 31.65 S 83.5 29.8, 85 29.77 S 88.52 31.71, 90 31.45 S 93.52 28.23, 95 27.99 S 98.51 29.67, 100 29.83 S 103.51 29.28, 105 29.08 S 108.5 28.49, 110 28.49 S 113.51 28.89, 115 29.07 S 118.5 29.78, 120 29.72 S 123.59 29.19, 125 28.67 S 128.53 26.29, 130 26.01 S 133.59 27.27, 135 26.75 S 138.51 22.44, 140 22.31 S 143.6 25.34, 145 25.87 S 148.5 26.15, 150 26.12 S 153.56 26.1, 155 25.67 S 159.19 24.4, 160 23.14 S 163.51 9.81, 165 10 S 169.19 23.19, 170 24.45 S 173.5 25.63, 175 25.64 S 178.66 25.18, 180 24.5 S 183.57 21.03, 185 20.57 S 188.67 20.56, 190 21.26 S 193.58 25.38, 195 25.86 S 198.53 24.28, 200 24.6 S 203.77 27.2, 205 28.05"
          fill="none"/>
    <circle r="4" cx="5" cy="40" fill="#3023AE"/>
    <circle r="4" cx="205" cy="28.05" fill="#C86DD7"/>      
</svg>