<svg width="200" height="50" viewBox="0 0 210 50" xmlns="http://www.w3.org/2000/svg">
    <defs>
        <linearGradient x1="0%" y1="0%" x2="100%" y2="0%" id="a">
            <stop stop-color="#3023AE" offset="0%"/>
            <stop stop-color="#C86DD7" offset="100%"/>
        </linearGradient>
    </defs>
    <path stroke="url(#a)"
          stroke-width="3"
          stroke-linejoin="round"
          stroke-linecap="round"
          d="M5 40 C 6.5 39.99, 8.54 40.31, 10 39.98 S 13.53 38.03, 15 37.74 S 18.53 37.7, 20 38.01 S 23.78 40.76, 25 39.88 S 28.51 31.01, 30 30.82 S 33.89 37.59, 35 38.59 S 38.5 39.85, 40 39.83 S 43.94 39.5, 45 38.44 S 48.72 30.59, 50 29.81 S 53.53 31.98, 55 32.3 S 58.5 31.93, 60 31.97 S 63.52 32.81, 65 32.56 S 68.54 30.63, 70 30.27 S 73.51 29.93, 75 30.11 S 78.51 31.63, 80 31.5 S 83.52 29.5, 85 29.23 S 88.5 29.64, 90 29.66 S 93.52 29.6, 95 29.36 S 98.5 27.96, 100 28.01 S 103.5 29.77, 105 29.72 S 108.54 28.04, 110 27.7 S 113.51 27.27, 115 27.41 S 118.51 28.47, 120 28.66 S 123.53 28.95, 125 28.67 S 128.56 27.14, 130 26.73 S 133.52 26.06, 135 25.83 S 138.64 25.85, 140 25.21 S 143.5 21.11, 145 21.13 S 148.56 24.93, 150 25.36 S 153.5 24.06, 155 24.1 S 158.66 26.31, 160 25.64 S 164.19 20.34, 165 19.08 S 168.64 9.37, 170 10 S 174.15 22.51, 175 23.75 S 178.5 24.68, 180 24.63 S 183.68 24.12, 185 23.4 S 188.59 19.67, 190 19.16 S 193.68 19.04, 195 19.75 S 198.58 24.01, 200 24.5 S 203.55 23.56, 205 23.17"
          fill="none"/>
    <circle r="4" cx="5" cy="40" fill="#3023AE"/>
    <circle r="4" cx="205" cy="23.17" fill="#C86DD7"/>      
</svg>