<svg width="200" height="50" viewBox="0 0 210 50" xmlns="http://www.w3.org/2000/svg">
    <defs>
        <linearGradient x1="0%" y1="0%" x2="100%" y2="0%" id="a">
            <stop stop-color="#3023AE" offset="0%"/>
            <stop stop-color="#C86DD7" offset="100%"/>
        </linearGradient>
    </defs>
    <path stroke="url(#a)"
          stroke-width="3"
          stroke-linejoin="round"
          stroke-linecap="round"
          d="M5 40 C 6.5 39.99, 8.56 40.37, 10 39.97 S 13.54 37.55, 15 37.2 S 18.55 37.21, 20 37.59 S 23.86 40.83, 25 39.85 S 28.52 29.22, 30 28.98 S 33.98 37.16, 35 38.26 S 38.52 39.55, 40 39.81 S 43.52 40.24, 45 39.99 S 48.69 38.87, 50 38.14 S 53.69 35.14, 55 34.41 S 58.53 32.8, 60 32.52 S 63.5 32.4, 65 32.5 S 68.51 33.38, 70 33.19 S 73.51 31.38, 75 31.23 S 78.51 32.37, 80 32.18 S 83.54 30.29, 85 29.95 S 88.51 29.66, 90 29.86 S 93.5 31.26, 95 31.29 S 98.55 30.42, 100 30.05 S 103.51 28.58, 105 28.74 S 108.51 31.31, 110 31.1 S 113.54 27.67, 115 27.35 S 118.53 28.59, 120 28.89 S 123.51 29.53, 125 29.36 S 128.5 27.85, 130 27.74 S 133.51 28.78, 135 28.63 S 138.5 26.73, 140 26.75 S 143.52 28.49, 145 28.75 S 148.51 28.68, 150 28.5 S 153.6 28.09, 155 27.56 S 158.51 24.91, 160 24.74 S 163.51 26.61, 165 26.42 S 168.69 24.23, 170 23.49 S 173.51 20.56, 175 20.76 S 178.61 24.3, 180 24.86 S 183.51 24.99, 185 24.8 S 188.5 23.55, 190 23.61 S 193.98 26.33, 195 25.23 S 199.18 14.13, 200 12.88 S 203.7 10.75, 205 10"
          fill="none"/>
    <circle r="4" cx="5" cy="40" fill="#3023AE"/>
    <circle r="4" cx="205" cy="10" fill="#C86DD7"/>      
</svg>