<svg width="200" height="50" viewBox="0 0 210 50" xmlns="http://www.w3.org/2000/svg">
    <defs>
        <linearGradient x1="0%" y1="0%" x2="100%" y2="0%" id="a">
            <stop stop-color="#3023AE" offset="0%"/>
            <stop stop-color="#C86DD7" offset="100%"/>
        </linearGradient>
    </defs>
    <path stroke="url(#a)"
          stroke-width="3"
          stroke-linejoin="round"
          stroke-linecap="round"
          d="M5 40 C 6.5 39.99, 8.55 40.35, 10 39.97 S 13.54 37.7, 15 37.37 S 18.54 37.38, 20 37.74 S 23.83 40.8, 25 39.86 S 28.52 29.86, 30 29.64 S 33.95 37.29, 35 38.36 S 38.52 39.59, 40 39.83 S 43.52 40.22, 45 39.99 S 48.67 38.94, 50 38.25 S 53.67 35.54, 55 34.84 S 58.53 33.29, 60 33 S 63.5 32.78, 65 32.88 S 68.51 33.8, 70 33.64 S 73.51 31.98, 75 31.83 S 78.51 32.77, 80 32.61 S 83.54 31.08, 85 30.76 S 88.51 30.25, 90 30.4 S 93.5 31.7, 95 31.75 S 98.54 31.08, 100 30.74 S 103.51 29.27, 105 29.41 S 108.51 31.87, 110 31.67 S 113.53 28.39, 115 28.07 S 118.53 29.22, 120 29.5 S 123.51 30.1, 125 29.96 S 128.5 28.65, 130 28.56 S 133.51 29.48, 135 29.34 S 138.5 27.63, 140 27.64 S 143.52 29.12, 145 29.38 S 148.51 29.54, 150 29.42 S 153.61 29.12, 155 28.56 S 158.51 25.64, 160 25.43 S 163.5 27.26, 165 27.18 S 168.69 25.65, 170 24.92 S 173.51 21.46, 175 21.59 S 178.61 25.2, 180 25.76 S 183.51 25.72, 185 25.58 S 188.5 24.72, 190 24.8 S 193.85 27.05, 195 26.09 S 199.21 17.68, 200 16.41 S 204.08 11.18, 205 10"
          fill="none"/>
    <circle r="4" cx="5" cy="40" fill="#3023AE"/>
    <circle r="4" cx="205" cy="10" fill="#C86DD7"/>      
</svg>