<svg width="200" height="50" viewBox="0 0 210 50" xmlns="http://www.w3.org/2000/svg">
    <defs>
        <linearGradient x1="0%" y1="0%" x2="100%" y2="0%" id="a">
            <stop stop-color="#3023AE" offset="0%"/>
            <stop stop-color="#C86DD7" offset="100%"/>
        </linearGradient>
    </defs>
    <path stroke="url(#a)"
          stroke-width="3"
          stroke-linejoin="round"
          stroke-linecap="round"
          d="M5 40 C 6.5 39.99, 8.55 40.37, 10 39.97 S 13.54 37.58, 15 37.24 S 18.55 37.24, 20 37.62 S 23.86 40.83, 25 39.86 S 28.52 29.36, 30 29.13 S 33.98 37.18, 35 38.28 S 38.52 39.57, 40 39.82 S 43.52 40.24, 45 39.99 S 48.69 38.89, 50 38.16 S 53.69 35.16, 55 34.43 S 58.53 32.88, 60 32.6 S 63.5 32.47, 65 32.56 S 68.51 33.42, 70 33.22 S 73.51 31.37, 75 31.23 S 78.51 32.43, 80 32.25 S 83.54 30.36, 85 30.04 S 88.52 29.83, 90 30.04 S 93.5 31.49, 95 31.48 S 98.55 30.38, 100 30 S 103.51 28.67, 105 28.86 S 108.51 31.49, 110 31.28 S 113.54 27.79, 115 27.45 S 118.53 28.63, 120 28.95 S 123.51 29.77, 125 29.61 S 128.5 28.01, 130 27.89 S 133.51 28.98, 135 28.82 S 138.5 26.79, 140 26.82 S 143.52 28.78, 145 29.04 S 148.52 28.84, 150 28.58 S 153.57 27.76, 155 27.3 S 158.5 25.45, 160 25.36 S 163.54 27.02, 165 26.69 S 168.69 23.86, 170 23.12 S 173.53 20.74, 175 21.05 S 178.61 24.68, 180 25.23 S 183.52 25.24, 185 25.01 S 188.5 23.63, 190 23.7 S 194.12 26.71, 195 25.5 S 199.06 11.17, 200 10 S 203.72 12.27, 205 13.05"
          fill="none"/>
    <circle r="4" cx="5" cy="40" fill="#3023AE"/>
    <circle r="4" cx="205" cy="13.05" fill="#C86DD7"/>      
</svg>