<svg width="200" height="50" viewBox="0 0 210 50" xmlns="http://www.w3.org/2000/svg">
    <defs>
        <linearGradient x1="0%" y1="0%" x2="100%" y2="0%" id="a">
            <stop stop-color="#3023AE" offset="0%"/>
            <stop stop-color="#C86DD7" offset="100%"/>
        </linearGradient>
    </defs>
    <path stroke="url(#a)"
          stroke-width="3"
          stroke-linejoin="round"
          stroke-linecap="round"
          d="M5 40 C 6.5 39.98, 8.5 39.95, 10 39.94 S 13.5 39.94, 15 39.94 S 18.5 39.94, 20 39.94 S 23.5 39.94, 25 39.94 S 28.5 39.94, 30 39.94 S 33.5 39.94, 35 39.94 S 38.5 39.94, 40 39.94 S 43.5 39.94, 45 39.94 S 48.5 39.94, 50 39.94 S 53.5 39.94, 55 39.94 S 58.5 39.94, 60 39.94 S 63.5 39.94, 65 39.94 S 68.5 39.94, 70 39.94 S 73.5 39.94, 75 39.94 S 78.5 39.94, 80 39.94 S 83.5 39.94, 85 39.94 S 88.5 39.94, 90 39.94 S 93.5 39.94, 95 39.94 S 98.5 39.94, 100 39.94 S 103.5 39.94, 105 39.94 S 108.5 39.94, 110 39.94 S 113.5 39.94, 115 39.94 S 118.5 39.94, 120 39.94 S 123.5 39.94, 125 39.94 S 128.5 39.94, 130 39.94 S 133.5 39.94, 135 39.94 S 138.5 39.94, 140 39.94 S 143.5 39.94, 145 39.94 S 148.5 39.94, 150 39.94 S 153.5 39.94, 155 39.94 S 158.5 39.94, 160 39.94 S 163.5 39.94, 165 39.94 S 168.5 39.94, 170 39.94 S 173.62 40.53, 175 39.94 S 179.52 37.08, 180 35.66 S 184.23 11.29, 185 10 S 189.08 17.73, 190 18.91 S 194.18 21.57, 195 22.83 S 198.97 33.23, 200 34.32 S 203.53 33.61, 205 33.32"
          fill="none"/>
    <circle r="4" cx="5" cy="40" fill="#3023AE"/>
    <circle r="4" cx="205" cy="33.32" fill="#C86DD7"/>      
</svg>