<svg width="200" height="50" viewBox="0 0 210 50" xmlns="http://www.w3.org/2000/svg">
    <defs>
        <linearGradient x1="0%" y1="0%" x2="100%" y2="0%" id="a">
            <stop stop-color="#3023AE" offset="0%"/>
            <stop stop-color="#C86DD7" offset="100%"/>
        </linearGradient>
    </defs>
    <path stroke="url(#a)"
          stroke-width="3"
          stroke-linejoin="round"
          stroke-linecap="round"
          d="M5 40 C 5.25 38.52, 8.57 10.46, 10 10 S 14.25 35.51, 15 36.81 S 18.74 28.04, 20 27.23 S 23.57 29.97, 25 30.43 S 28.63 29.82, 30 30.43 S 33.63 34.28, 35 34.89 S 38.88 35.89, 40 34.89 S 43.92 27, 45 25.96 S 48.77 24.46, 50 25.32 S 53.6 32.44, 55 32.98 S 58.6 29.69, 60 29.15 S 63.53 28.87, 65 29.15 S 68.5 31.06, 70 31.06 S 73.5 29.24, 75 29.15 S 78.63 29.82, 80 30.43 S 83.6 33.08, 85 33.62 S 88.51 34.07, 90 34.26 S 93.57 34.43, 95 34.89 S 98.5 37.45, 100 37.45 S 103.66 35.57, 105 34.89 S 108.6 32.88, 110 32.34 S 113.6 31.6, 115 31.06 S 119.02 29.64, 120 28.51 S 123.5 19.47, 125 19.57 S 129.2 27.88, 130 29.15 S 133.7 36.28, 135 35.53 S 138.92 24.44, 140 23.4 S 143.7 25.21, 145 25.96 S 148.53 28.87, 150 29.15 S 153.57 28.33, 155 27.87 S 158.5 25.96, 160 25.96 S 163.5 27.87, 165 27.87 S 168.7 25.21, 170 25.96 S 173.57 33.16, 175 33.62 S 178.5 29.15, 180 29.15 S 183.53 33.9, 185 33.62 S 188.92 28.27, 190 27.23 S 193.66 24.72, 195 24.04 S 198.74 22.94, 200 22.13 S 203.88 18.66, 205 17.66"
          fill="none"/>
    <circle r="4" cx="5" cy="40" fill="#3023AE"/>
    <circle r="4" cx="205" cy="17.66" fill="#C86DD7"/>      
</svg>