<svg width="200" height="50" viewBox="0 0 210 50" xmlns="http://www.w3.org/2000/svg">
    <defs>
        <linearGradient x1="0%" y1="0%" x2="100%" y2="0%" id="a">
            <stop stop-color="#3023AE" offset="0%"/>
            <stop stop-color="#C86DD7" offset="100%"/>
        </linearGradient>
    </defs>
    <path stroke="url(#a)"
          stroke-width="3"
          stroke-linejoin="round"
          stroke-linecap="round"
          d="M5 40 C 5.25 38.52, 8.5 10.03, 10 10 S 14.45 38.43, 15 39.82 S 18.51 35.38, 20 35.25 S 23.55 38.59, 25 38.98 S 28.51 38.1, 30 37.94 S 33.5 37.92, 35 37.9 S 38.54 38.15, 40 37.81 S 43.51 35.69, 45 35.57 S 48.53 36.67, 50 36.98 S 53.5 37.64, 55 37.67 S 58.5 37.3, 60 37.21 S 63.5 36.97, 65 37.06 S 68.51 37.68, 70 37.84 S 73.5 38.08, 75 38.11 S 78.5 38.08, 80 38.07 S 83.5 38.1, 85 38.06 S 88.5 37.81, 90 37.78 S 93.5 37.85, 95 37.85 S 98.5 37.78, 100 37.78 S 103.5 37.82, 105 37.86 S 108.5 38.09, 110 38.07 S 113.5 37.76, 115 37.71 S 118.5 37.72, 120 37.76 S 123.5 37.93, 125 38.01 S 128.5 38.31, 130 38.28 S 133.5 37.84, 135 37.81 S 138.5 38.05, 140 38.11 S 143.5 38.16, 145 38.19 S 148.5 38.26, 150 38.28 S 153.5 38.36, 155 38.35 S 158.5 38.17, 160 38.2 S 163.5 38.5, 165 38.52 S 168.5 38.45, 170 38.35 S 173.5 37.84, 175 37.82 S 178.5 38.11, 180 38.2 S 183.5 38.54, 185 38.44 S 188.51 37.75, 190 37.55 S 193.5 37.03, 195 37.1 S 198.5 37.96, 200 38.02 S 203.51 37.66, 205 37.51"
          fill="none"/>
    <circle r="4" cx="5" cy="40" fill="#3023AE"/>
    <circle r="4" cx="205" cy="37.51" fill="#C86DD7"/>      
</svg>