<svg width="200" height="50" viewBox="0 0 210 50" xmlns="http://www.w3.org/2000/svg">
    <defs>
        <linearGradient x1="0%" y1="0%" x2="100%" y2="0%" id="a">
            <stop stop-color="#3023AE" offset="0%"/>
            <stop stop-color="#C86DD7" offset="100%"/>
        </linearGradient>
    </defs>
    <path stroke="url(#a)"
          stroke-width="3"
          stroke-linejoin="round"
          stroke-linecap="round"
          d="M5 40 C 6.06 38.94, 8.66 35.67, 10 35 S 13.5 35, 15 35 S 18.5 35, 20 35 S 23.5 35, 25 35 S 28.5 35, 30 35 S 33.5 35, 35 35 S 38.5 35, 40 35 S 43.5 35, 45 35 S 48.5 35, 50 35 S 53.5 35, 55 35 S 58.5 35, 60 35 S 63.5 35, 65 35 S 68.5 35, 70 35 S 73.5 35, 75 35 S 79.33 36.34, 80 35 S 84.33 16.34, 85 15 S 88.66 15.67, 90 15 S 94.33 8.66, 95 10 S 99.44 33.61, 100 35 S 103.5 35, 105 35 S 109.17 36.25, 110 35 S 114.33 21.34, 115 20 S 119.17 13.75, 120 15 S 124.33 33.66, 125 35 S 128.5 35, 130 35 S 133.5 35, 135 35 S 138.66 35.67, 140 35 S 143.66 30.67, 145 30 S 148.66 29.33, 150 30 S 153.66 34.33, 155 35 S 158.5 35, 160 35 S 163.5 35, 165 35 S 168.5 35, 170 35 S 173.5 35, 175 35 S 178.5 35, 180 35 S 183.5 35, 185 35 S 188.5 35, 190 35"
          fill="none"/>
    <circle r="4" cx="5" cy="40" fill="#3023AE"/>
    <circle r="4" cx="190" cy="35" fill="#C86DD7"/>      
</svg>