<svg width="200" height="50" viewBox="0 0 210 50" xmlns="http://www.w3.org/2000/svg">
    <defs>
        <linearGradient x1="0%" y1="0%" x2="100%" y2="0%" id="a">
            <stop stop-color="#3023AE" offset="0%"/>
            <stop stop-color="#C86DD7" offset="100%"/>
        </linearGradient>
    </defs>
    <path stroke="url(#a)"
          stroke-width="3"
          stroke-linejoin="round"
          stroke-linecap="round"
          d="M5 40 C 6.47 39.68, 8.51 39.08, 10 38.92 S 13.5 38.87, 15 38.92 S 18.5 39.23, 20 39.28 S 23.5 39.23, 25 39.28 S 28.5 39.59, 30 39.64 S 33.5 39.64, 35 39.64 S 38.51 39.8, 40 39.64 S 43.5 38.55, 45 38.55 S 48.51 39.48, 50 39.64 S 53.5 39.75, 55 39.64 S 58.5 38.92, 60 38.92 S 63.5 39.53, 65 39.64 S 68.5 39.75, 70 39.64 S 73.5 38.92, 75 38.92 S 78.5 39.53, 80 39.64 S 83.5 39.64, 85 39.64 S 88.5 39.64, 90 39.64 S 93.5 39.64, 95 39.64 S 98.5 39.64, 100 39.64 S 103.5 39.64, 105 39.64 S 108.5 39.64, 110 39.64 S 113.51 39.8, 115 39.64 S 118.5 38.6, 120 38.55 S 123.51 39.44, 125 39.28 S 128.5 37.52, 130 37.47 S 133.51 38.76, 135 38.92 S 138.5 38.55, 140 38.55 S 143.51 38.76, 145 38.92 S 148.62 40.24, 150 39.64 S 153.76 35.43, 155 34.58 S 158.5 32.77, 160 32.77 S 163.53 34.9, 165 34.58 S 168.64 31.24, 170 30.6 S 173.57 30.34, 175 29.88 S 179.05 28.51, 180 27.35 S 183.76 18.44, 185 17.59 S 188.57 20.02, 190 20.48 S 193.81 19.93, 195 20.84 S 198.98 29.17, 200 28.07 S 204.6 11.45, 205 10"
          fill="none"/>
    <circle r="4" cx="5" cy="40" fill="#3023AE"/>
    <circle r="4" cx="205" cy="10" fill="#C86DD7"/>      
</svg>