<svg width="200" height="50" viewBox="0 0 210 50" xmlns="http://www.w3.org/2000/svg">
    <defs>
        <linearGradient x1="0%" y1="0%" x2="100%" y2="0%" id="a">
            <stop stop-color="#3023AE" offset="0%"/>
            <stop stop-color="#C86DD7" offset="100%"/>
        </linearGradient>
    </defs>
    <path stroke="url(#a)"
          stroke-width="3"
          stroke-linejoin="round"
          stroke-linecap="round"
          d="M5 40 C 6.32 39.28, 8.61 37.84, 10 37.27 S 13.5 35.91, 15 35.91 S 18.51 37.07, 20 37.27 S 23.51 37.07, 25 37.27 S 28.68 39.36, 30 38.64 S 34.34 33.17, 35 31.82 S 38.61 17.61, 40 18.18 S 44.17 34.66, 45 35.91 S 48.51 32.98, 50 33.18 S 53.51 37.07, 55 37.27 S 58.5 34.55, 60 34.55 S 63.5 37.27, 65 37.27 S 68.51 34.75, 70 34.55 S 73.5 35.91, 75 35.91 S 78.68 35.27, 80 34.55 S 83.55 30.85, 85 30.45 S 88.99 32.93, 90 31.82 S 93.5 19.55, 95 19.55 S 99.22 30.54, 100 31.82 S 103.76 36.76, 105 35.91 S 109.46 26.4, 110 25 S 113.51 9.8, 115 10 S 119.17 25.11, 120 26.36 S 123.76 24.15, 125 25 S 128.5 33.18, 130 33.18 S 133.76 25.85, 135 25 S 138.76 25.51, 140 26.36 S 143.84 30.87, 145 31.82 S 148.61 33.98, 150 34.55 S 153.92 36.95, 155 35.91 S 158.84 25.95, 160 25 S 163.68 27.01, 165 27.73 S 168.51 30.65, 170 30.45 S 173.76 25.51, 175 26.36 S 178.61 36.7, 180 37.27 S 183.51 30.65, 185 30.45 S 188.5 35.91, 190 35.91 S 193.84 31.4, 195 30.45 S 198.61 27.16, 200 27.73 S 204.11 33.34, 205 34.55"
          fill="none"/>
    <circle r="4" cx="5" cy="40" fill="#3023AE"/>
    <circle r="4" cx="205" cy="34.55" fill="#C86DD7"/>      
</svg>