<svg width="200" height="50" viewBox="0 0 210 50" xmlns="http://www.w3.org/2000/svg">
    <defs>
        <linearGradient x1="0%" y1="0%" x2="100%" y2="0%" id="a">
            <stop stop-color="#3023AE" offset="0%"/>
            <stop stop-color="#C86DD7" offset="100%"/>
        </linearGradient>
    </defs>
    <path stroke="url(#a)"
          stroke-width="3"
          stroke-linejoin="round"
          stroke-linecap="round"
          d="M5 40 C 6.2 39.1, 8.51 36.44, 10 36.25 S 13.54 38.39, 15 38.75 S 18.5 38.75, 20 38.75 S 23.5 38.75, 25 38.75 S 28.5 38.75, 30 38.75 S 33.54 39.11, 35 38.75 S 38.5 36.25, 40 36.25 S 43.54 38.39, 45 38.75 S 48.5 38.75, 50 38.75 S 53.5 38.75, 55 38.75 S 58.5 38.75, 60 38.75 S 63.5 38.75, 65 38.75 S 68.5 38.75, 70 38.75 S 73.5 38.75, 75 38.75 S 78.5 38.75, 80 38.75 S 83.5 38.75, 85 38.75 S 88.5 38.75, 90 38.75 S 93.5 38.75, 95 38.75 S 98.5 38.75, 100 38.75 S 103.5 38.75, 105 38.75 S 108.5 38.75, 110 38.75 S 113.5 38.75, 115 38.75 S 118.5 38.75, 120 38.75 S 123.5 38.75, 125 38.75 S 128.5 38.75, 130 38.75 S 133.5 38.75, 135 38.75 S 138.5 38.75, 140 38.75 S 143.5 38.75, 145 38.75 S 148.5 38.75, 150 38.75 S 153.73 39.54, 155 38.75 S 159.51 33.92, 160 32.5 S 163.51 9.81, 165 10 S 169.29 32.43, 170 33.75 S 173.5 28.75, 175 28.75 S 178.51 33.56, 180 33.75 S 183.66 30.67, 185 30 S 188.51 28.56, 190 28.75 S 193.54 30.89, 195 31.25 S 198.94 32.31, 200 31.25 S 204.33 22.59, 205 21.25"
          fill="none"/>
    <circle r="4" cx="5" cy="40" fill="#3023AE"/>
    <circle r="4" cx="205" cy="21.25" fill="#C86DD7"/>      
</svg>