<svg width="200" height="50" viewBox="0 0 210 50" xmlns="http://www.w3.org/2000/svg">
    <defs>
        <linearGradient x1="0%" y1="0%" x2="100%" y2="0%" id="a">
            <stop stop-color="#3023AE" offset="0%"/>
            <stop stop-color="#C86DD7" offset="100%"/>
        </linearGradient>
    </defs>
    <path stroke="url(#a)"
          stroke-width="3"
          stroke-linejoin="round"
          stroke-linecap="round"
          d="M5 40 C 5.44 38.57, 8.51 23.84, 10 23.64 S 14.17 37.39, 15 38.64 S 18.5 38.64, 20 38.64 S 23.5 38.64, 25 38.64 S 28.5 38.64, 30 38.64 S 33.5 38.64, 35 38.64 S 38.5 38.64, 40 38.64 S 43.5 38.64, 45 38.64 S 48.5 38.64, 50 38.64 S 53.5 38.64, 55 38.64 S 58.5 38.64, 60 38.64 S 63.5 38.64, 65 38.64 S 68.5 38.64, 70 38.64 S 73.5 38.64, 75 38.64 S 78.5 38.64, 80 38.64 S 83.5 38.64, 85 38.64 S 88.5 38.64, 90 38.64 S 93.5 38.64, 95 38.64 S 98.5 38.64, 100 38.64 S 103.61 39.21, 105 38.64 S 108.68 35.27, 110 34.55 S 113.5 33.18, 115 33.18 S 118.68 33.83, 120 34.55 S 123.51 38.44, 125 38.64 S 128.61 36.48, 130 35.91 S 133.51 34.75, 135 34.55 S 138.51 34.75, 140 34.55 S 143.68 33.9, 145 33.18 S 148.55 29.49, 150 29.09 S 153.84 31.4, 155 30.45 S 158.55 21.3, 160 20.91 S 163.51 27.53, 165 27.73 S 168.61 21.7, 170 22.27 S 173.76 30.97, 175 31.82 S 178.68 29.81, 180 29.09 S 183.76 27.21, 185 26.36 S 188.84 23.22, 190 22.27 S 193.51 17.98, 195 18.18 S 198.84 24.59, 200 23.64 S 204.48 11.41, 205 10"
          fill="none"/>
    <circle r="4" cx="5" cy="40" fill="#3023AE"/>
    <circle r="4" cx="205" cy="10" fill="#C86DD7"/>      
</svg>