<svg width="200" height="50" viewBox="0 0 210 50" xmlns="http://www.w3.org/2000/svg">
    <defs>
        <linearGradient x1="0%" y1="0%" x2="100%" y2="0%" id="a">
            <stop stop-color="#3023AE" offset="0%"/>
            <stop stop-color="#C86DD7" offset="100%"/>
        </linearGradient>
    </defs>
    <path stroke="url(#a)"
          stroke-width="3"
          stroke-linejoin="round"
          stroke-linecap="round"
          d="M5 40 C 5.62 38.64, 8.84 30.04, 10 29.09 S 13.55 31.42, 15 31.82 S 18.5 31.82, 20 31.82 S 23.68 31.1, 25 31.82 S 28.68 36.55, 30 37.27 S 33.5 37.27, 35 37.27 S 38.5 37.27, 40 37.27 S 43.5 37.27, 45 37.27 S 48.5 37.27, 50 37.27 S 53.5 37.27, 55 37.27 S 58.5 37.27, 60 37.27 S 63.5 37.27, 65 37.27 S 68.68 37.99, 70 37.27 S 73.5 31.82, 75 31.82 S 78.84 38.22, 80 37.27 S 84.38 25, 85 23.64 S 88.84 16.4, 90 15.45 S 93.55 15.05, 95 15.45 S 99.3 16.85, 100 18.18 S 103.84 35.5, 105 34.55 S 108.84 10.95, 110 10 S 114.3 25.03, 115 26.36 S 118.68 29.81, 120 29.09 S 124.22 22.19, 125 20.91 S 128.68 12.01, 130 12.73 S 133.99 25.25, 135 26.36 S 138.84 24.59, 140 23.64 S 143.99 17.07, 145 18.18 S 148.84 33.6, 150 34.55 S 153.84 27.31, 155 26.36 S 158.5 26.36, 160 26.36 S 163.84 27.31, 165 26.36 S 168.68 17.46, 170 18.18 S 173.99 30.71, 175 31.82 S 178.55 29.49, 180 29.09 S 183.55 29.49, 185 29.09 S 188.84 27.31, 190 26.36 S 193.84 19.96, 195 20.91 S 198.84 33.6, 200 34.55 S 203.99 30.2, 205 29.09"
          fill="none"/>
    <circle r="4" cx="5" cy="40" fill="#3023AE"/>
    <circle r="4" cx="205" cy="29.09" fill="#C86DD7"/>      
</svg>