<svg width="200" height="50" viewBox="0 0 210 50" xmlns="http://www.w3.org/2000/svg">
    <defs>
        <linearGradient x1="0%" y1="0%" x2="100%" y2="0%" id="a">
            <stop stop-color="#3023AE" offset="0%"/>
            <stop stop-color="#C86DD7" offset="100%"/>
        </linearGradient>
    </defs>
    <path stroke="url(#a)"
          stroke-width="3"
          stroke-linejoin="round"
          stroke-linecap="round"
          d="M5 40 C 5.35 38.54, 9.24 20.66, 10 19.37 S 13.53 22.84, 15 23.12 S 18.91 20.22, 20 21.25 S 24.09 31.31, 25 32.5 S 28.6 33.84, 30 34.37 S 33.91 37.28, 35 36.25 S 38.69 25.74, 40 25 S 43.69 29.89, 45 30.62 S 48.53 30.9, 50 30.62 S 53.53 28.47, 55 28.75 S 58.69 33.24, 60 32.5 S 63.69 23.86, 65 23.12 S 69 25.75, 70 26.87 S 73.6 33.84, 75 34.37 S 79 31.74, 80 30.62 S 84.17 24.37, 85 23.12 S 88.91 16.65, 90 15.62 S 93.69 13.01, 95 13.75 S 98.8 20.35, 100 21.25 S 103.91 20.22, 105 21.25 S 108.53 30.9, 110 30.62 S 114.35 20.72, 115 19.37 S 118.69 9.26, 120 10 S 123.8 24.1, 125 25 S 128.53 17.22, 130 17.5 S 133.69 26.14, 135 26.87 S 138.53 22.84, 140 23.12 S 143.8 27.85, 145 28.75 S 148.5 30.62, 150 30.62 S 154 29.87, 155 28.75 S 158.53 19.65, 160 19.37 S 163.69 26.13, 165 26.87 S 168.8 25.9, 170 25 S 173.91 20.4, 175 19.37 S 178.53 15.9, 180 15.62 S 183.91 16.47, 185 17.5 S 188.69 25.74, 190 25 S 193.53 11.59, 195 11.87 S 199.17 25.62, 200 26.87 S 203.5 26.87, 205 26.87"
          fill="none"/>
    <circle r="4" cx="5" cy="40" fill="#3023AE"/>
    <circle r="4" cx="205" cy="26.869999999999997" fill="#C86DD7"/>      
</svg>