<svg width="200" height="50" viewBox="0 0 210 50" xmlns="http://www.w3.org/2000/svg">
    <defs>
        <linearGradient x1="0%" y1="0%" x2="100%" y2="0%" id="a">
            <stop stop-color="#3023AE" offset="0%"/>
            <stop stop-color="#C86DD7" offset="100%"/>
        </linearGradient>
    </defs>
    <path stroke="url(#a)"
          stroke-width="3"
          stroke-linejoin="round"
          stroke-linecap="round"
          d="M5 40 C 5.25 38.52, 8.51 10.2, 10 10 S 14.51 37.22, 15 38.64 S 18.5 38.64, 20 38.64 S 23.5 38.64, 25 38.64 S 28.5 38.64, 30 38.64 S 33.5 38.64, 35 38.64 S 38.5 38.64, 40 38.64 S 43.5 38.64, 45 38.64 S 48.5 38.64, 50 38.64 S 53.5 38.64, 55 38.64 S 58.5 38.64, 60 38.64 S 63.5 38.64, 65 38.64 S 68.5 38.64, 70 38.64 S 73.5 38.64, 75 38.64 S 78.5 38.64, 80 38.64 S 83.5 38.64, 85 38.64 S 88.5 38.64, 90 38.64 S 93.5 38.64, 95 38.64 S 98.5 38.64, 100 38.64 S 103.5 38.64, 105 38.64 S 108.5 38.64, 110 38.64 S 113.5 38.64, 115 38.64 S 118.5 38.64, 120 38.64 S 123.5 38.64, 125 38.64 S 128.5 38.64, 130 38.64 S 133.5 38.64, 135 38.64 S 138.5 38.64, 140 38.64"
          fill="none"/>
    <circle r="4" cx="5" cy="40" fill="#3023AE"/>
    <circle r="4" cx="140" cy="38.64" fill="#C86DD7"/>      
</svg>