<svg width="200" height="50" viewBox="0 0 210 50" xmlns="http://www.w3.org/2000/svg">
    <defs>
        <linearGradient x1="0%" y1="0%" x2="100%" y2="0%" id="a">
            <stop stop-color="#3023AE" offset="0%"/>
            <stop stop-color="#C86DD7" offset="100%"/>
        </linearGradient>
    </defs>
    <path stroke="url(#a)"
          stroke-width="3"
          stroke-linejoin="round"
          stroke-linecap="round"
          d="M5 40 C 5.25 38.52, 9.28 11.32, 10 10 S 14.51 20.25, 15 21.67 S 19.27 37.55, 20 38.86 S 23.5 39.62, 25 39.63 S 28.5 38.92, 30 38.93 S 33.5 39.62, 35 39.73 S 38.5 39.64, 40 39.67 S 43.51 40.06, 45 39.9 S 48.68 39.33, 50 38.63 S 53.57 35.05, 55 34.58 S 58.5 35.41, 60 35.35 S 63.52 34.39, 65 34.18 S 68.57 34.36, 70 33.91 S 73.5 30.98, 75 31.07 S 78.54 34.17, 80 34.52 S 83.5 33.53, 85 33.48 S 88.5 34.19, 90 34.18 S 93.51 33.55, 95 33.38 S 98.63 33.63, 100 33.01 S 103.56 29.24, 105 28.83 S 108.52 29.93, 110 30.17 S 113.57 30.88, 115 30.43 S 118.5 27.09, 120 27.06 S 123.59 29.72, 125 30.23 S 128.53 30.4, 130 30.7 S 133.51 32.1, 135 32.24 S 138.51 31.5, 140 31.67 S 143.53 33.13, 145 33.41 S 148.5 33.67, 150 33.55 S 153.5 32.65, 155 32.61 S 158.52 33.09, 160 33.31 S 163.5 34, 165 34.11 S 168.5 34.01, 170 34.05 S 173.51 34.18, 175 34.38 S 178.52 35.13, 180 35.38 S 183.5 35.97, 185 36.05 S 188.5 35.85, 190 35.89 S 193.5 36.22, 195 36.29 S 198.5 36.46, 200 36.39 S 203.51 35.97, 205 35.79"
          fill="none"/>
    <circle r="4" cx="5" cy="40" fill="#3023AE"/>
    <circle r="4" cx="205" cy="35.79" fill="#C86DD7"/>      
</svg>