<svg width="200" height="50" viewBox="0 0 210 50" xmlns="http://www.w3.org/2000/svg">
    <defs>
        <linearGradient x1="0%" y1="0%" x2="100%" y2="0%" id="a">
            <stop stop-color="#3023AE" offset="0%"/>
            <stop stop-color="#C86DD7" offset="100%"/>
        </linearGradient>
    </defs>
    <path stroke="url(#a)"
          stroke-width="3"
          stroke-linejoin="round"
          stroke-linecap="round"
          d="M5 40 C 5.59 38.62, 9.53 29.66, 10 28.24 S 13.88 9, 15 10 S 19.48 35.74, 20 37.15 S 23.51 37.12, 25 37.29 S 28.5 38.26, 30 38.26 S 33.5 37.33, 35 37.29 S 38.5 37.93, 40 37.99 S 43.51 37.82, 45 37.69 S 48.53 37.46, 50 37.15 S 53.5 35.65, 55 35.58 S 58.52 36.46, 60 36.71 S 63.5 37.25, 65 37.25 S 68.51 36.83, 70 36.69 S 73.5 36.35, 75 36.32 S 78.5 36.55, 80 36.5 S 83.5 36.02, 85 35.97 S 88.5 36.16, 90 36.18 S 93.5 36.13, 95 36.09 S 98.5 35.87, 100 35.9 S 103.51 36.43, 105 36.3 S 108.5 35.17, 110 35.05 S 113.51 35.4, 115 35.53 S 118.51 35.76, 120 35.93 S 123.5 36.7, 125 36.69 S 128.5 35.92, 130 35.83 S 133.51 35.97, 135 36.11 S 138.5 36.73, 140 36.74 S 143.51 36.31, 145 36.18 S 148.5 35.85, 150 35.88 S 153.5 36.29, 155 36.41 S 158.5 36.62, 160 36.67 S 163.5 36.8, 165 36.76 S 168.5 36.51, 170 36.41 S 173.5 36.08, 175 36.11 S 178.5 36.6, 180 36.64 S 183.5 36.27, 185 36.39 S 188.5 37.36, 190 37.45 S 193.5 36.97, 195 36.97 S 198.5 37.46, 200 37.48 S 203.5 37.2, 205 37.08"
          fill="none"/>
    <circle r="4" cx="5" cy="40" fill="#3023AE"/>
    <circle r="4" cx="205" cy="37.08" fill="#C86DD7"/>      
</svg>