<svg width="200" height="50" viewBox="0 0 210 50" xmlns="http://www.w3.org/2000/svg">
    <defs>
        <linearGradient x1="0%" y1="0%" x2="100%" y2="0%" id="a">
            <stop stop-color="#3023AE" offset="0%"/>
            <stop stop-color="#C86DD7" offset="100%"/>
        </linearGradient>
    </defs>
    <path stroke="url(#a)"
          stroke-width="3"
          stroke-linejoin="round"
          stroke-linecap="round"
          d="M5 40 C 5.58 38.62, 9.53 29.61, 10 28.19 S 13.94 8.94, 15 10 S 19.48 36.77, 20 38.18 S 23.5 37.28, 25 37.26 S 28.5 37.92, 30 38.02 S 33.5 37.94, 35 37.92 S 38.5 37.9, 40 37.9 S 43.5 37.91, 45 37.9 S 48.5 37.88, 50 37.81 S 53.53 37.75, 55 37.44 S 58.5 35.8, 60 35.71 S 63.53 36.59, 65 36.86 S 68.5 37.56, 70 37.56 S 73.51 36.99, 75 36.86 S 78.5 36.69, 80 36.7 S 83.5 36.92, 85 36.91 S 88.51 36.74, 90 36.61 S 93.5 36.05, 95 36.03 S 98.5 36.39, 100 36.45 S 103.5 36.44, 105 36.45 S 108.5 36.51, 110 36.5 S 113.51 36.58, 115 36.4 S 118.5 35.34, 120 35.27 S 123.51 35.79, 125 35.96 S 128.5 36.29, 130 36.4 S 133.5 36.72, 135 36.68 S 138.5 36.2, 140 36.13 S 143.51 36.07, 145 36.2 S 148.5 36.93, 150 37 S 153.51 36.87, 155 36.66 S 158.5 35.55, 160 35.6 S 163.51 36.85, 165 37 S 168.5 36.61, 170 36.59 S 173.5 36.77, 175 36.84 S 178.5 37.06, 180 37.03 S 183.5 36.74, 185 36.63 S 188.5 36.24, 190 36.29 S 193.5 36.93, 195 36.98 S 198.5 36.61, 200 36.63 S 203.51 36.95, 205 37.09"
          fill="none"/>
    <circle r="4" cx="5" cy="40" fill="#3023AE"/>
    <circle r="4" cx="205" cy="37.09" fill="#C86DD7"/>      
</svg>