<svg width="200" height="50" viewBox="0 0 210 50" xmlns="http://www.w3.org/2000/svg">
    <defs>
        <linearGradient x1="0%" y1="0%" x2="100%" y2="0%" id="a">
            <stop stop-color="#3023AE" offset="0%"/>
            <stop stop-color="#C86DD7" offset="100%"/>
        </linearGradient>
    </defs>
    <path stroke="url(#a)"
          stroke-width="3"
          stroke-linejoin="round"
          stroke-linecap="round"
          d="M5 40 C 5.25 38.52, 8.57 10.45, 10 10 S 14.52 35.4, 15 36.82 S 18.55 39.15, 20 39.55 S 23.5 39.55, 25 39.55 S 28.5 39.55, 30 39.55 S 33.5 39.55, 35 39.55 S 38.5 39.55, 40 39.55 S 43.5 39.55, 45 39.55 S 48.5 39.55, 50 39.55 S 53.5 39.55, 55 39.55 S 58.5 39.55, 60 39.55 S 63.5 39.55, 65 39.55 S 68.5 39.55, 70 39.55 S 73.5 39.55, 75 39.55 S 78.5 39.55, 80 39.55 S 83.5 39.55, 85 39.55 S 88.5 39.55, 90 39.55 S 93.5 39.55, 95 39.55"
          fill="none"/>
    <circle r="4" cx="5" cy="40" fill="#3023AE"/>
    <circle r="4" cx="95" cy="39.55" fill="#C86DD7"/>      
</svg>