<svg width="200" height="50" viewBox="0 0 210 50" xmlns="http://www.w3.org/2000/svg">
    <defs>
        <linearGradient x1="0%" y1="0%" x2="100%" y2="0%" id="a">
            <stop stop-color="#3023AE" offset="0%"/>
            <stop stop-color="#C86DD7" offset="100%"/>
        </linearGradient>
    </defs>
    <path stroke="url(#a)"
          stroke-width="3"
          stroke-linejoin="round"
          stroke-linecap="round"
          d="M5 40 C 5.25 38.52, 8.72 10.78, 10 10 S 14.49 32.49, 15 33.9 S 18.62 37.03, 20 37.62 S 23.52 37.99, 25 38.22 S 28.51 39.06, 30 39.19 S 33.5 39.01, 35 39.07 S 38.5 39.64, 40 39.56 S 43.5 38.53, 45 38.55 S 48.51 39.54, 50 39.68 S 53.5 39.56, 55 39.52 S 58.5 39.46, 60 39.43 S 63.5 39.36, 65 39.35 S 68.5 39.29, 70 39.35 S 73.5 39.65, 75 39.72 S 78.5 39.88, 80 39.8 S 83.51 39.39, 85 39.19 S 88.5 38.41, 90 38.43 S 93.51 39.16, 95 39.35 S 98.5 39.7, 100 39.72 S 103.5 39.46, 105 39.48 S 108.5 39.83, 110 39.84 S 113.5 39.56, 115 39.52 S 118.5 39.6, 120 39.6 S 123.5 39.53, 125 39.52 S 128.5 39.52, 130 39.56 S 133.5 39.8, 135 39.8 S 138.5 39.61, 140 39.56 S 143.5 39.45, 145 39.48 S 148.5 39.72, 150 39.76 S 153.5 39.71, 155 39.72 S 158.5 39.86, 160 39.8 S 163.5 39.37, 165 39.31 S 168.5 39.34, 170 39.39 S 173.5 39.6, 175 39.64 S 178.5 39.65, 180 39.68 S 183.5 39.84, 185 39.84 S 188.5 39.7, 190 39.68 S 193.5 39.69, 195 39.68 S 198.5 39.64, 200 39.64 S 203.5 39.67, 205 39.68"
          fill="none"/>
    <circle r="4" cx="5" cy="40" fill="#3023AE"/>
    <circle r="4" cx="205" cy="39.68" fill="#C86DD7"/>      
</svg>