<svg width="200" height="50" viewBox="0 0 210 50" xmlns="http://www.w3.org/2000/svg">
    <defs>
        <linearGradient x1="0%" y1="0%" x2="100%" y2="0%" id="a">
            <stop stop-color="#3023AE" offset="0%"/>
            <stop stop-color="#C86DD7" offset="100%"/>
        </linearGradient>
    </defs>
    <path stroke="url(#a)"
          stroke-width="3"
          stroke-linejoin="round"
          stroke-linecap="round"
          d="M5 40 C 6.46 39.65, 8.5 38.81, 10 38.79 S 13.51 39.72, 15 39.89 S 18.72 40.7, 20 39.92 S 23.5 33.82, 25 33.77 S 28.65 38.93, 30 39.58 S 33.53 38.92, 35 38.62 S 38.53 37.83, 40 37.55 S 43.51 36.51, 45 36.72 S 48.52 38.72, 50 38.97 S 53.5 38.42, 55 38.43 S 58.5 38.95, 60 39.02 S 63.65 39.57, 65 38.91 S 68.5 34.26, 70 34.16 S 73.63 37.64, 75 38.26 S 78.5 38.65, 80 38.7 S 83.5 38.54, 85 38.58 S 88.51 38.82, 90 38.95 S 93.5 39.45, 95 39.46 S 98.5 39.13, 100 39.04 S 103.5 38.86, 105 38.85 S 108.5 39.03, 110 39 S 113.5 38.73, 115 38.66 S 118.5 38.46, 120 38.51 S 123.5 38.96, 125 39.02 S 128.5 38.94, 130 38.91 S 133.5 38.92, 135 38.81 S 138.5 38.16, 140 38.16 S 143.5 38.73, 145 38.81 S 148.5 38.71, 150 38.68 S 153.5 38.69, 155 38.6 S 158.5 38.08, 160 38.05 S 163.5 38.35, 165 38.37 S 168.5 38.16, 170 38.18 S 173.5 38.58, 175 38.49 S 178.5 37.61, 180 37.57 S 183.51 38.1, 185 38.24 S 188.5 38.5, 190 38.51 S 194.5 39.73, 195 38.31 S 198.5 10.11, 200 10 S 204.73 36.11, 205 37.59"
          fill="none"/>
    <circle r="4" cx="5" cy="40" fill="#3023AE"/>
    <circle r="4" cx="205" cy="37.59" fill="#C86DD7"/>      
</svg>