<svg width="200" height="50" viewBox="0 0 210 50" xmlns="http://www.w3.org/2000/svg">
    <defs>
        <linearGradient x1="0%" y1="0%" x2="100%" y2="0%" id="a">
            <stop stop-color="#3023AE" offset="0%"/>
            <stop stop-color="#C86DD7" offset="100%"/>
        </linearGradient>
    </defs>
    <path stroke="url(#a)"
          stroke-width="3"
          stroke-linejoin="round"
          stroke-linecap="round"
          d="M5 40 C 5.83 38.75, 9.17 33.75, 10 32.5 S 13.8 25.9, 15 25 S 18.8 24.1, 20 25 S 23.8 31.6, 25 32.5 S 28.5 32.5, 30 32.5 S 33.5 32.5, 35 32.5 S 38.5 32.5, 40 32.5 S 43.5 32.5, 45 32.5 S 48.5 32.5, 50 32.5 S 53.5 32.5, 55 32.5 S 58.5 32.5, 60 32.5 S 63.8 33.4, 65 32.5 S 69.17 26.25, 70 25 S 73.5 17.5, 75 17.5 S 78.5 25, 80 25 S 83.8 16.6, 85 17.5 S 89.17 31.25, 90 32.5 S 93.5 32.5, 95 32.5 S 98.5 32.5, 100 32.5 S 103.5 32.5, 105 32.5 S 108.5 32.5, 110 32.5 S 113.5 32.5, 115 32.5 S 118.8 33.4, 120 32.5 S 123.5 25, 125 25 S 128.8 31.6, 130 32.5 S 133.5 32.5, 135 32.5 S 138.8 33.4, 140 32.5 S 143.8 25.9, 145 25 S 148.8 24.1, 150 25 S 153.8 31.6, 155 32.5 S 158.8 33.4, 160 32.5 S 163.5 25, 165 25 S 168.8 31.6, 170 32.5 S 174.17 33.75, 175 32.5 S 178.5 17.5, 180 17.5 S 184.17 31.25, 185 32.5 S 188.8 33.4, 190 32.5 S 194.17 26.25, 195 25 S 199.17 18.75, 200 17.5 S 204.17 11.25, 205 10"
          fill="none"/>
    <circle r="4" cx="5" cy="40" fill="#3023AE"/>
    <circle r="4" cx="205" cy="10" fill="#C86DD7"/>      
</svg>