<svg width="200" height="50" viewBox="0 0 210 50" xmlns="http://www.w3.org/2000/svg">
    <defs>
        <linearGradient x1="0%" y1="0%" x2="100%" y2="0%" id="a">
            <stop stop-color="#3023AE" offset="0%"/>
            <stop stop-color="#C86DD7" offset="100%"/>
        </linearGradient>
    </defs>
    <path stroke="url(#a)"
          stroke-width="3"
          stroke-linejoin="round"
          stroke-linecap="round"
          d="M5 40 C 5.83 38.75, 8.5 32.5, 10 32.44 S 13.79 38.72, 15 39.61 S 18.5 39.73, 20 39.78 S 23.5 39.92, 25 39.95 S 28.5 39.95, 30 39.95 S 33.5 40.03, 35 39.98 S 38.5 39.7, 40 39.59 S 43.5 39.33, 45 39.27 S 48.5 39.18, 50 39.16 S 53.5 39.14, 55 39.12 S 58.5 38.98, 60 39 S 63.5 39.2, 65 39.23 S 68.5 39.27, 70 39.21 S 73.5 38.8, 75 38.8 S 78.5 39.28, 80 39.18 S 83.5 38.18, 85 38.14 S 88.5 38.88, 90 38.89 S 93.58 38.67, 95 38.19 S 98.51 35.75, 100 35.54 S 103.51 36.59, 105 36.79 S 108.51 37.04, 110 36.9 S 113.51 36.03, 115 35.82 S 118.5 35.44, 120 35.48 S 123.5 36.08, 125 36.06 S 128.5 35.45, 130 35.34 S 133.5 35.27, 135 35.32 S 138.51 35.85, 140 35.65 S 143.51 34.13, 145 33.96 S 148.5 34.45, 150 34.5 S 153.54 34.63, 155 34.3 S 158.51 32.44, 160 32.28 S 163.51 33.07, 165 33.26 S 168.5 33.67, 170 33.57 S 173.63 33.17, 175 32.56 S 178.94 30.21, 180 29.14 S 183.51 22.61, 185 22.47 S 188.83 27.25, 190 28.19 S 193.5 30.35, 195 30.45 S 199.34 30.24, 200 28.89 S 204.62 11.45, 205 10"
          fill="none"/>
    <circle r="4" cx="5" cy="40" fill="#3023AE"/>
    <circle r="4" cx="205" cy="10" fill="#C86DD7"/>      
</svg>