<svg width="200" height="50" viewBox="0 0 210 50" xmlns="http://www.w3.org/2000/svg">
    <defs>
        <linearGradient x1="0%" y1="0%" x2="100%" y2="0%" id="a">
            <stop stop-color="#3023AE" offset="0%"/>
            <stop stop-color="#C86DD7" offset="100%"/>
        </linearGradient>
    </defs>
    <path stroke="url(#a)"
          stroke-width="3"
          stroke-linejoin="round"
          stroke-linecap="round"
          d="M5 40 C 6.46 39.64, 8.5 38.87, 10 38.78 S 13.5 39.3, 15 39.39 S 18.5 39.39, 20 39.39 S 23.52 39.66, 25 39.39 S 28.57 37.99, 30 37.55 S 33.5 36.24, 35 36.33 S 38.51 38.34, 40 38.16 S 43.83 36.03, 45 35.1 S 48.86 31.18, 50 30.2 S 53.52 26.8, 55 26.53 S 58.59 27.85, 60 28.37 S 63.5 30.29, 65 30.2 S 68.72 28.54, 70 27.76 S 73.79 24.97, 75 24.08 S 78.72 21.19, 80 20.41 S 83.5 17.87, 85 17.96 S 88.52 21.29, 90 21.02 S 93.62 16.71, 95 16.12 S 98.51 16.91, 100 16.73 S 103.51 15.08, 105 14.9 S 108.5 15.42, 110 15.51 S 113.52 15.24, 115 15.51 S 118.69 18.07, 120 17.35 S 123.51 10.18, 125 10 S 128.59 15.6, 130 16.12 S 133.57 13.23, 135 13.67 S 139.2 17.91, 140 19.18 S 143.5 29.68, 145 29.59 S 148.76 19.41, 150 18.57 S 153.86 23.84, 155 22.86 S 158.72 10.78, 160 10 S 164.02 15.59, 165 16.73 S 168.54 21.27, 170 21.63 S 173.52 19.45, 175 19.18 S 178.59 20.32, 180 19.8 S 183.5 15.51, 185 15.51 S 188.69 19.08, 190 19.8 S 193.62 21.61, 195 21.02 S 198.59 16.03, 200 15.51 S 203.59 16.83, 205 17.35"
          fill="none"/>
    <circle r="4" cx="5" cy="40" fill="#3023AE"/>
    <circle r="4" cx="205" cy="17.35" fill="#C86DD7"/>      
</svg>