<svg width="200" height="50" viewBox="0 0 210 50" xmlns="http://www.w3.org/2000/svg">
    <defs>
        <linearGradient x1="0%" y1="0%" x2="100%" y2="0%" id="a">
            <stop stop-color="#3023AE" offset="0%"/>
            <stop stop-color="#C86DD7" offset="100%"/>
        </linearGradient>
    </defs>
    <path stroke="url(#a)"
          stroke-width="3"
          stroke-linejoin="round"
          stroke-linecap="round"
          d="M5 40 C 5.33 38.54, 9 18.62, 10 17.5 S 14.17 27.5, 15 28.75 S 18.8 31.6, 20 32.5 S 23.6 36.78, 25 36.25 S 28.5 28.75, 30 28.75 S 33.8 35.35, 35 36.25 S 38.5 36.25, 40 36.25 S 44 37.37, 45 36.25 S 48.5 25, 50 25 S 53.6 35.72, 55 36.25 S 58.5 28.75, 60 28.75 S 63.6 36.78, 65 36.25 S 68.5 25, 70 25 S 73.6 35.72, 75 36.25 S 78.5 28.75, 80 28.75 S 83.8 35.35, 85 36.25 S 89.29 37.57, 90 36.25 S 93.8 18.4, 95 17.5 S 99.29 27.43, 100 28.75 S 103.8 35.35, 105 36.25 S 108.5 36.25, 110 36.25 S 113.5 36.25, 115 36.25 S 118.8 37.15, 120 36.25 S 124.47 30.15, 125 28.75 S 128.8 10.9, 130 10 S 133.5 21.25, 135 21.25 S 139 11.12, 140 10 S 144 8.88, 145 10 S 149.39 19.88, 150 21.25 S 153.8 31.6, 155 32.5 S 159.17 30, 160 28.75 S 163.6 18.03, 165 17.5 S 168.5 25, 170 25 S 173.6 18.03, 175 17.5 S 178.6 20.72, 180 21.25 S 184 20.13, 185 21.25 S 188.6 31.97, 190 32.5 S 193.6 25.53, 195 25 S 198.6 28.22, 200 28.75 S 203.5 28.75, 205 28.75"
          fill="none"/>
    <circle r="4" cx="5" cy="40" fill="#3023AE"/>
    <circle r="4" cx="205" cy="28.75" fill="#C86DD7"/>      
</svg>