<svg width="200" height="50" viewBox="0 0 210 50" xmlns="http://www.w3.org/2000/svg">
    <defs>
        <linearGradient x1="0%" y1="0%" x2="100%" y2="0%" id="a">
            <stop stop-color="#3023AE" offset="0%"/>
            <stop stop-color="#C86DD7" offset="100%"/>
        </linearGradient>
    </defs>
    <path stroke="url(#a)"
          stroke-width="3"
          stroke-linejoin="round"
          stroke-linecap="round"
          d="M5 40 C 6.5 39.97, 8.5 39.92, 10 39.91 S 13.5 39.94, 15 39.95 S 18.5 39.96, 20 39.96 S 23.5 39.97, 25 39.97 S 28.5 40.02, 30 39.95 S 34.14 40.76, 35 39.53 S 38.87 26.71, 40 25.72 S 43.9 29.79, 45 30.81 S 48.5 34.96, 50 34.94 S 53.97 31.74, 55 30.65 S 58.86 25.32, 60 24.34 S 63.65 22.66, 65 22.01 S 68.85 20.47, 70 19.51 S 73.62 14.31, 75 13.71 S 78.54 14.83, 80 15.17 S 83.5 15.94, 85 16.06 S 88.72 16.74, 90 15.96 S 93.7 9.25, 95 10 S 99.25 20.41, 100 21.71 S 103.54 26.97, 105 27.33 S 108.68 24.9, 110 24.2 S 113.62 22.6, 115 22.02 S 118.56 20.44, 120 20.03 S 123.51 19.33, 125 19.18 S 128.5 19.05, 130 19.04 S 133.51 18.95, 135 19.12 S 138.52 20.47, 140 20.21 S 143.6 17.87, 145 17.34 S 148.5 16.49, 150 16.45 S 154.32 15.73, 155 17.07 S 159.36 34.88, 160 36.24 S 163.54 37.79, 165 38.14 S 168.5 38.59, 170 38.64 S 173.5 38.52, 175 38.48 S 178.5 38.37, 180 38.4 S 183.5 38.61, 185 38.65 S 188.5 38.67, 190 38.64 S 193.5 38.52, 195 38.48 S 198.5 38.4, 200 38.38 S 203.5 38.37, 205 38.36"
          fill="none"/>
    <circle r="4" cx="5" cy="40" fill="#3023AE"/>
    <circle r="4" cx="205" cy="38.36" fill="#C86DD7"/>      
</svg>