<svg width="200" height="50" viewBox="0 0 210 50" xmlns="http://www.w3.org/2000/svg">
    <defs>
        <linearGradient x1="0%" y1="0%" x2="100%" y2="0%" id="a">
            <stop stop-color="#3023AE" offset="0%"/>
            <stop stop-color="#C86DD7" offset="100%"/>
        </linearGradient>
    </defs>
    <path stroke="url(#a)"
          stroke-width="3"
          stroke-linejoin="round"
          stroke-linecap="round"
          d="M5 40 C 6.5 39.98, 8.5 39.93, 10 39.92 S 13.5 39.93, 15 39.94 S 18.5 39.97, 20 39.96 S 24.15 41.08, 25 39.84 S 28.74 26.24, 30 25.43 S 33.57 32.93, 35 33.37 S 39.08 29.67, 40 28.48 S 44.07 21.62, 45 20.44 S 48.81 16.67, 50 15.76 S 53.55 13.15, 55 12.78 S 58.55 13.62, 60 13.22 S 63.78 9.13, 65 10 S 69.14 19.15, 70 20.38 S 73.5 24.47, 75 24.4 S 78.78 20.75, 80 19.88 S 83.54 17.66, 85 17.31 S 88.5 17.4, 90 17.48 S 93.52 18.05, 95 17.82 S 98.6 16.48, 100 15.93 S 104.25 12.6, 105 13.9 S 109.43 31.97, 110 33.36 S 113.66 37.71, 115 38.38 S 118.5 38.33, 120 38.34 S 123.5 38.38, 125 38.42 S 128.5 38.61, 130 38.6 S 133.5 38.4, 135 38.36 S 138.5 38.27, 140 38.3 S 143.5 38.62, 145 38.53 S 148.5 37.83, 150 37.72 S 153.51 37.94, 155 37.82 S 158.5 36.9, 160 36.9 S 163.51 37.67, 165 37.85 S 168.5 38.18, 170 38.12 S 173.6 38, 175 37.46 S 178.5 34.25, 180 34.26 S 183.6 36.96, 185 37.51 S 188.5 38.08, 190 38.17 S 193.5 38.18, 195 38.14 S 198.51 38.02, 200 37.87 S 203.52 37.36, 205 37.14"
          fill="none"/>
    <circle r="4" cx="5" cy="40" fill="#3023AE"/>
    <circle r="4" cx="205" cy="37.14" fill="#C86DD7"/>      
</svg>