<svg width="200" height="50" viewBox="0 0 210 50" xmlns="http://www.w3.org/2000/svg">
    <defs>
        <linearGradient x1="0%" y1="0%" x2="100%" y2="0%" id="a">
            <stop stop-color="#3023AE" offset="0%"/>
            <stop stop-color="#C86DD7" offset="100%"/>
        </linearGradient>
    </defs>
    <path stroke="url(#a)"
          stroke-width="3"
          stroke-linejoin="round"
          stroke-linecap="round"
          d="M5 40 C 6.5 39.97, 8.5 39.92, 10 39.91 S 13.5 39.94, 15 39.95 S 18.5 39.95, 20 39.95 S 23.5 39.97, 25 39.97 S 28.5 39.97, 30 39.95 S 34.16 41.05, 35 39.81 S 38.91 26.3, 40 25.27 S 43.9 29.35, 45 30.37 S 48.5 34.41, 50 34.48 S 53.94 31.93, 55 30.87 S 58.94 25.48, 60 24.42 S 63.62 21.53, 65 20.95 S 68.84 21.19, 70 20.24 S 73.72 13.49, 75 12.71 S 78.52 13.86, 80 14.11 S 83.51 14.29, 85 14.42 S 88.63 15.62, 90 15.01 S 93.56 9.57, 95 10 S 99.24 16.74, 100 18.03 S 103.76 26.21, 105 27.05 S 108.7 25.54, 110 24.8 S 113.67 22.05, 115 21.36 S 118.58 20.06, 120 19.59 S 123.51 18.25, 125 18.07 S 128.5 18.28, 130 18.35 S 133.51 18.43, 135 18.56 S 138.52 19.48, 140 19.25 S 143.59 17.56, 145 17.04 S 148.51 15.75, 150 15.56 S 154.19 14.53, 155 15.79 S 159.39 29.85, 160 31.22 S 163.78 37.28, 165 38.16 S 168.5 38.37, 170 38.44 S 173.5 38.66, 175 38.62 S 178.5 38.16, 180 38.15 S 183.5 38.45, 185 38.53 S 188.5 38.73, 190 38.7 S 193.5 38.35, 195 38.32 S 198.5 38.47, 200 38.47 S 203.5 38.38, 205 38.34"
          fill="none"/>
    <circle r="4" cx="5" cy="40" fill="#3023AE"/>
    <circle r="4" cx="205" cy="38.34" fill="#C86DD7"/>      
</svg>