<svg width="200" height="50" viewBox="0 0 210 50" xmlns="http://www.w3.org/2000/svg">
    <defs>
        <linearGradient x1="0%" y1="0%" x2="100%" y2="0%" id="a">
            <stop stop-color="#3023AE" offset="0%"/>
            <stop stop-color="#C86DD7" offset="100%"/>
        </linearGradient>
    </defs>
    <path stroke="url(#a)"
          stroke-width="3"
          stroke-linejoin="round"
          stroke-linecap="round"
          d="M5 40 C 6.5 39.97, 8.5 39.92, 10 39.91 S 13.5 39.94, 15 39.95 S 18.5 39.96, 20 39.96 S 23.5 39.97, 25 39.96 S 29.03 41.02, 30 39.87 S 33.91 29.17, 35 28.14 S 38.71 29.68, 40 30.45 S 43.51 34.35, 45 34.16 S 49.04 30.32, 50 29.17 S 53.74 22.93, 55 22.11 S 58.85 23.6, 60 22.64 S 63.86 14.77, 65 13.8 S 68.51 13.9, 70 14.09 S 73.5 14.96, 75 15.06 S 78.66 15.41, 80 14.73 S 84.02 8.87, 85 10 S 89.19 24.98, 90 26.24 S 93.61 26.07, 95 25.51 S 98.69 22.95, 100 22.22 S 103.58 20.42, 105 19.94 S 108.52 19.07, 110 18.84 S 113.5 18.36, 115 18.38 S 118.5 18.92, 120 18.97 S 123.57 19.15, 125 18.71 S 128.54 16.25, 130 15.92 S 134.21 15.15, 135 16.43 S 139.37 30.72, 140 32.08 S 143.75 37.38, 145 38.2 S 148.5 38.61, 150 38.63 S 153.5 38.36, 155 38.35 S 158.5 38.49, 160 38.54 S 163.5 38.7, 165 38.68 S 168.5 38.44, 170 38.41 S 173.5 38.52, 175 38.51 S 178.5 38.34, 180 38.36 S 183.5 38.65, 185 38.63 S 188.51 38.36, 190 38.23 S 193.5 37.78, 195 37.73 S 198.5 37.95, 200 37.88 S 203.51 37.45, 205 37.27"
          fill="none"/>
    <circle r="4" cx="5" cy="40" fill="#3023AE"/>
    <circle r="4" cx="205" cy="37.27" fill="#C86DD7"/>      
</svg>