<svg width="200" height="50" viewBox="0 0 210 50" xmlns="http://www.w3.org/2000/svg">
    <defs>
        <linearGradient x1="0%" y1="0%" x2="100%" y2="0%" id="a">
            <stop stop-color="#3023AE" offset="0%"/>
            <stop stop-color="#C86DD7" offset="100%"/>
        </linearGradient>
    </defs>
    <path stroke="url(#a)"
          stroke-width="3"
          stroke-linejoin="round"
          stroke-linecap="round"
          d="M5 40 C 6.5 39.97, 8.5 39.92, 10 39.91 S 13.5 39.94, 15 39.95 S 18.5 39.95, 20 39.95 S 23.5 39.97, 25 39.97 S 28.51 40.1, 30 39.93 S 34.17 40.05, 35 38.8 S 38.83 25.86, 40 24.92 S 43.91 29.74, 45 30.77 S 48.52 34.52, 50 34.3 S 53.98 30.41, 55 29.31 S 58.82 24.49, 60 23.57 S 63.82 22.43, 65 21.51 S 68.98 16.89, 70 15.79 S 73.5 10.64, 75 10.7 S 78.68 15.51, 80 16.22 S 83.58 16.55, 85 16.06 S 88.72 13.51, 90 12.73 S 94.09 8.8, 95 10 S 99.19 24.67, 100 25.93 S 103.56 25.97, 105 25.56 S 108.68 23.82, 110 23.1 S 113.61 20.68, 115 20.11 S 118.53 19.28, 120 18.99 S 123.5 18.2, 125 18.16 S 128.5 18.68, 130 18.69 S 133.5 18.31, 135 18.23 S 138.53 18.42, 140 18.13 S 143.58 16.71, 145 16.24 S 148.93 13.75, 150 14.8 S 154.41 24.75, 155 26.13 S 159.05 37, 160 38.16 S 163.5 38.37, 165 38.45 S 168.5 38.72, 170 38.67 S 173.5 38.15, 175 38.13 S 178.5 38.47, 180 38.55 S 183.5 38.68, 185 38.65 S 188.5 38.4, 190 38.37 S 193.5 38.44, 195 38.44 S 198.5 38.35, 200 38.35 S 203.5 38.43, 205 38.46"
          fill="none"/>
    <circle r="4" cx="5" cy="40" fill="#3023AE"/>
    <circle r="4" cx="205" cy="38.46" fill="#C86DD7"/>      
</svg>