<svg width="200" height="50" viewBox="0 0 210 50" xmlns="http://www.w3.org/2000/svg">
    <defs>
        <linearGradient x1="0%" y1="0%" x2="100%" y2="0%" id="a">
            <stop stop-color="#3023AE" offset="0%"/>
            <stop stop-color="#C86DD7" offset="100%"/>
        </linearGradient>
    </defs>
    <path stroke="url(#a)"
          stroke-width="3"
          stroke-linejoin="round"
          stroke-linecap="round"
          d="M5 40 C 6.5 39.97, 8.5 39.92, 10 39.91 S 13.5 39.94, 15 39.95 S 18.5 39.95, 20 39.95 S 23.5 39.97, 25 39.97 S 28.5 40.05, 30 39.94 S 34.16 40.49, 35 39.25 S 38.86 26.25, 40 25.27 S 43.87 29.62, 45 30.61 S 48.5 34.05, 50 34.05 S 53.96 31.72, 55 30.64 S 58.87 24.59, 60 23.61 S 63.71 22.71, 65 21.95 S 68.91 18.76, 70 17.73 S 73.55 12.82, 75 12.44 S 78.56 14.69, 80 15.11 S 83.5 15.44, 85 15.32 S 88.68 15, 90 14.3 S 93.85 9.03, 95 10 S 99.23 21.46, 100 22.75 S 103.5 26.76, 105 26.82 S 108.7 23.9, 110 23.14 S 113.58 21.48, 115 20.99 S 118.53 20, 120 19.71 S 123.53 19.32, 125 19 S 128.5 17.55, 130 17.53 S 133.51 18.67, 135 18.88 S 138.52 19.2, 140 18.93 S 143.58 17.56, 145 17.08 S 148.51 15.45, 150 15.58 S 154.4 16.55, 155 17.92 S 159.34 36.95, 160 38.3 S 163.5 38.21, 165 38.26 S 168.5 38.63, 170 38.64 S 173.5 38.37, 175 38.34 S 178.5 38.39, 180 38.44 S 183.5 38.65, 185 38.66 S 188.5 38.56, 190 38.52 S 193.5 38.42, 195 38.4 S 198.5 38.38, 200 38.37 S 203.5 38.35, 205 38.34"
          fill="none"/>
    <circle r="4" cx="5" cy="40" fill="#3023AE"/>
    <circle r="4" cx="205" cy="38.34" fill="#C86DD7"/>      
</svg>