<svg width="200" height="50" viewBox="0 0 210 50" xmlns="http://www.w3.org/2000/svg">
    <defs>
        <linearGradient x1="0%" y1="0%" x2="100%" y2="0%" id="a">
            <stop stop-color="#3023AE" offset="0%"/>
            <stop stop-color="#C86DD7" offset="100%"/>
        </linearGradient>
    </defs>
    <path stroke="url(#a)"
          stroke-width="3"
          stroke-linejoin="round"
          stroke-linecap="round"
          d="M5 40 C 6.5 39.97, 8.5 39.92, 10 39.91 S 13.5 39.94, 15 39.95 S 18.5 39.95, 20 39.95 S 23.5 39.97, 25 39.97 S 28.5 39.97, 30 39.95 S 34.15 41.06, 35 39.82 S 38.92 26.33, 40 25.29 S 43.89 29.26, 45 30.27 S 48.5 34.35, 50 34.45 S 53.94 31.97, 55 30.91 S 58.94 25.49, 60 24.43 S 63.61 21.5, 65 20.94 S 68.86 21.41, 70 20.44 S 73.74 13.28, 75 12.47 S 78.53 13.7, 80 13.98 S 83.51 14.26, 85 14.39 S 88.63 15.44, 90 14.84 S 93.56 9.58, 95 10 S 99.24 16.45, 100 17.74 S 103.77 26.13, 105 26.99 S 108.69 25.48, 110 24.75 S 113.67 22.07, 115 21.38 S 118.58 20.08, 120 19.59 S 123.51 18.07, 125 17.89 S 128.5 18.31, 130 18.41 S 133.5 18.51, 135 18.59 S 138.52 19.14, 140 18.93 S 143.58 17.64, 145 17.16 S 148.52 15.77, 150 15.55 S 154.16 14.4, 155 15.65 S 159.39 29.09, 160 30.46 S 163.83 37.26, 165 38.19 S 168.5 38.37, 170 38.43 S 173.5 38.64, 175 38.6 S 178.5 38.18, 180 38.17 S 183.5 38.44, 185 38.52 S 188.5 38.7, 190 38.68 S 193.5 38.39, 195 38.36 S 198.5 38.46, 200 38.45 S 203.5 38.34, 205 38.3"
          fill="none"/>
    <circle r="4" cx="5" cy="40" fill="#3023AE"/>
    <circle r="4" cx="205" cy="38.3" fill="#C86DD7"/>      
</svg>