<svg width="200" height="50" viewBox="0 0 210 50" xmlns="http://www.w3.org/2000/svg">
    <defs>
        <linearGradient x1="0%" y1="0%" x2="100%" y2="0%" id="a">
            <stop stop-color="#3023AE" offset="0%"/>
            <stop stop-color="#C86DD7" offset="100%"/>
        </linearGradient>
    </defs>
    <path stroke="url(#a)"
          stroke-width="3"
          stroke-linejoin="round"
          stroke-linecap="round"
          d="M5 40 C 6.5 39.98, 8.5 39.94, 10 39.93 S 13.5 39.93, 15 39.94 S 18.5 40.05, 20 39.97 S 24.13 40.62, 25 39.39 S 28.72 26.59, 30 25.81 S 33.55 32.9, 35 33.27 S 39.04 29.48, 40 28.32 S 44.1 22.36, 45 21.16 S 48.83 15.85, 50 14.91 S 53.51 13.28, 55 13.16 S 58.57 14.53, 60 14.08 S 63.95 8.93, 65 10 S 69.11 22.98, 70 24.19 S 73.61 24.08, 75 23.51 S 78.67 20.76, 80 20.06 S 83.54 18.64, 85 18.28 S 88.5 17.64, 90 17.56 S 93.53 18.01, 95 17.72 S 98.5 15.62, 100 15.61 S 104.39 16.29, 105 17.66 S 109.35 36.92, 110 38.27 S 113.5 38.51, 115 38.51 S 118.5 38.27, 120 38.29 S 123.5 38.62, 125 38.64 S 128.5 38.45, 130 38.42 S 133.5 38.42, 135 38.43 S 138.5 38.5, 140 38.48 S 143.5 38.39, 145 38.29 S 148.5 37.85, 150 37.81 S 153.51 38.18, 155 38.01 S 158.5 36.66, 160 36.69 S 163.51 38.04, 165 38.24 S 168.56 38.43, 170 38.01 S 173.52 35.59, 175 35.34 S 178.55 35.92, 180 36.31 S 183.53 37.73, 185 38.03 S 188.5 38.33, 190 38.32 S 193.5 38.03, 195 37.95 S 198.5 37.86, 200 37.79 S 203.5 37.56, 205 37.46"
          fill="none"/>
    <circle r="4" cx="5" cy="40" fill="#3023AE"/>
    <circle r="4" cx="205" cy="37.46" fill="#C86DD7"/>      
</svg>