<svg width="200" height="50" viewBox="0 0 210 50" xmlns="http://www.w3.org/2000/svg">
    <defs>
        <linearGradient x1="0%" y1="0%" x2="100%" y2="0%" id="a">
            <stop stop-color="#3023AE" offset="0%"/>
            <stop stop-color="#C86DD7" offset="100%"/>
        </linearGradient>
    </defs>
    <path stroke="url(#a)"
          stroke-width="3"
          stroke-linejoin="round"
          stroke-linecap="round"
          d="M5 40 C 5.43 38.56, 8.5 23.43, 10 23.4 S 14.22 38.51, 15 39.79 S 18.5 39.79, 20 39.79 S 23.5 39.79, 25 39.79 S 28.82 40.72, 30 39.79 S 33.8 32.81, 35 31.91 S 38.5 32.24, 40 32.34 S 44.39 33.92, 45 32.55 S 49.23 11.29, 50 10 S 54.17 14.49, 55 15.74 S 59 23.99, 60 25.11 S 63.5 27.02, 65 27.02 S 68.53 24.83, 70 25.11 S 73.75 28.11, 75 28.94 S 78.55 31.33, 80 31.7 S 83.55 31.86, 85 31.49 S 88.5 29.18, 90 29.15 S 93.6 31.82, 95 31.28 S 98.5 25.38, 100 25.32 S 103.53 30.54, 105 30.85 S 108.57 27.91, 110 27.45 S 114 28.78, 115 27.66 S 118.52 15.95, 120 16.17 S 124.11 27.94, 125 29.15 S 128.55 30.16, 130 29.79 S 133.63 27.21, 135 26.6 S 138.57 24.86, 140 25.32 S 143.63 29.18, 145 29.79 S 148.53 30.07, 150 29.79 S 153.51 27.68, 155 27.87 S 158.63 30.45, 160 31.06 S 163.53 32.65, 165 32.34 S 168.99 30.05, 170 28.94 S 173.51 21.47, 175 21.28 S 178.83 26.72, 180 27.66 S 183.62 28.77, 185 29.36 S 188.5 31.94, 190 31.91 S 193.52 28.93, 195 29.15 S 198.52 33.18, 200 33.4 S 203.69 31.36, 205 30.64"
          fill="none"/>
    <circle r="4" cx="5" cy="40" fill="#3023AE"/>
    <circle r="4" cx="205" cy="30.64" fill="#C86DD7"/>      
</svg>