<svg width="200" height="50" viewBox="0 0 210 50" xmlns="http://www.w3.org/2000/svg">
    <defs>
        <linearGradient x1="0%" y1="0%" x2="100%" y2="0%" id="a">
            <stop stop-color="#3023AE" offset="0%"/>
            <stop stop-color="#C86DD7" offset="100%"/>
        </linearGradient>
    </defs>
    <path stroke="url(#a)"
          stroke-width="3"
          stroke-linejoin="round"
          stroke-linecap="round"
          d="M5 40 C 5.86 38.77, 8.59 33.33, 10 32.82 S 13.68 35.7, 15 36.41 S 18.52 37.98, 20 38.21 S 23.51 38.1, 25 37.95 S 28.5 37.26, 30 37.18 S 33.5 37.44, 35 37.44 S 38.5 37.14, 40 37.18 S 43.51 37.54, 45 37.69 S 48.51 38.36, 50 38.21 S 53.51 36.86, 55 36.67 S 58.51 36.77, 60 36.92 S 63.5 37.77, 65 37.69 S 68.5 36.37, 70 36.41 S 73.52 37.68, 75 37.95 S 78.5 38.17, 80 38.21 S 83.56 38.62, 85 38.21 S 88.54 35.72, 90 35.38 S 93.5 35.86, 95 35.9 S 98.51 35.79, 100 35.64 S 103.54 35.21, 105 34.87 S 108.57 33.77, 110 33.33 S 113.58 32.26, 115 31.79 S 118.5 30, 120 30 S 123.5 31.79, 125 31.79 S 128.57 30.44, 130 30 S 133.52 28.49, 135 28.72 S 138.5 31.66, 140 31.54 S 143.64 28.58, 145 27.95 S 148.51 27.07, 150 26.92 S 153.51 26.77, 155 26.92 S 158.5 28.03, 160 27.95 S 163.52 26.64, 165 26.41 S 168.75 27.24, 170 26.41 S 173.59 20.25, 175 19.74 S 178.5 22.7, 180 22.82 S 183.64 21.14, 185 20.51 S 188.64 18.84, 190 18.21 S 193.52 15.64, 195 15.9 S 198.71 20.76, 200 20 S 204.33 11.34, 205 10"
          fill="none"/>
    <circle r="4" cx="5" cy="40" fill="#3023AE"/>
    <circle r="4" cx="205" cy="10" fill="#C86DD7"/>      
</svg>