<svg width="200" height="50" viewBox="0 0 210 50" xmlns="http://www.w3.org/2000/svg">
    <defs>
        <linearGradient x1="0%" y1="0%" x2="100%" y2="0%" id="a">
            <stop stop-color="#3023AE" offset="0%"/>
            <stop stop-color="#C86DD7" offset="100%"/>
        </linearGradient>
    </defs>
    <path stroke="url(#a)"
          stroke-width="3"
          stroke-linejoin="round"
          stroke-linecap="round"
          d="M5 40 C 6.49 39.8, 8.5 39.33, 10 39.33 S 13.5 39.89, 15 39.98 S 18.5 39.96, 20 39.93 S 23.5 39.8, 25 39.75 S 28.5 39.62, 30 39.59 S 34.06 40.73, 35 39.56 S 38.52 27.45, 40 27.22 S 44.03 36.83, 45 37.98 S 48.52 38.85, 50 39.08 S 53.52 39.75, 55 39.53 S 58.51 37.71, 60 37.57 S 63.52 38.34, 65 38.56 S 68.5 39.09, 70 39.06 S 73.53 38.68, 75 38.39 S 78.6 37.64, 80 37.09 S 83.78 35.36, 85 34.49 S 88.51 29.87, 90 30 S 93.65 34.71, 95 35.37 S 98.51 35.03, 100 34.9 S 103.51 34.65, 105 34.47 S 108.53 33.94, 110 33.66 S 114.16 33.84, 115 32.6 S 119.39 20.36, 120 18.99 S 124.06 8.83, 125 10 S 129.4 30.07, 130 31.44 S 133.52 32.46, 135 32.73 S 138.94 34.34, 140 33.28 S 143.6 23.23, 145 22.69 S 148.59 28.91, 150 29.43 S 153.51 26.19, 155 26.38 S 158.58 30.19, 160 30.68 S 163.51 29.96, 165 29.83 S 169.07 31, 170 29.82 S 173.71 17.96, 175 17.19 S 179.03 22.7, 180 23.84 S 183.66 28.29, 185 28.96 S 188.54 29.15, 190 28.79 S 193.53 26.16, 195 26.47 S 198.53 30.65, 200 30.93 S 203.67 29.04, 205 28.35"
          fill="none"/>
    <circle r="4" cx="5" cy="40" fill="#3023AE"/>
    <circle r="4" cx="205" cy="28.35" fill="#C86DD7"/>      
</svg>