<svg width="200" height="50" viewBox="0 0 210 50" xmlns="http://www.w3.org/2000/svg">
    <defs>
        <linearGradient x1="0%" y1="0%" x2="100%" y2="0%" id="a">
            <stop stop-color="#3023AE" offset="0%"/>
            <stop stop-color="#C86DD7" offset="100%"/>
        </linearGradient>
    </defs>
    <path stroke="url(#a)"
          stroke-width="3"
          stroke-linejoin="round"
          stroke-linecap="round"
          d="M5 40 C 6.18 39.07, 8.63 36.68, 10 36.08 S 13.88 36.6, 15 35.6 S 18.64 27.71, 20 27.09 S 23.58 30.54, 25 31.02 S 28.52 30.74, 30 30.49 S 33.86 30.29, 35 29.32 S 38.92 23.03, 40 21.99 S 43.59 20.2, 45 19.68 S 48.52 18.5, 50 18.28 S 53.52 18.46, 55 18.2 S 58.59 17.06, 60 16.54 S 63.55 14.92, 65 14.53 S 68.63 14.46, 70 13.84 S 73.5 10.06, 75 10 S 78.52 13.23, 80 13.44 S 83.5 11.43, 85 11.44 S 88.5 13.55, 90 13.53 S 93.51 11.47, 95 11.31 S 98.5 12.47, 100 12.44 S 103.54 10.8, 105 11.13 S 108.54 14.36, 110 14.71 S 113.55 13.16, 115 13.53 S 118.63 16.64, 120 17.24 S 123.5 17.99, 125 17.89 S 128.5 16.51, 130 16.58 S 133.69 17.6, 135 18.33 S 138.7 21.43, 140 22.17 S 143.51 24.22, 145 24.04 S 148.51 21.08, 150 20.94 S 153.67 23.81, 155 23.12 S 158.64 16.44, 160 15.8 S 163.71 17.66, 165 18.42 S 168.61 21.14, 170 21.69 S 173.5 22.38, 175 22.38 S 178.61 21.13, 180 21.69 S 183.56 26.03, 185 26.44 S 188.71 25.33, 190 24.56 S 193.56 20.88, 195 20.47 S 198.6 21.2, 200 21.73 S 203.66 23.55, 205 24.22"
          fill="none"/>
    <circle r="4" cx="5" cy="40" fill="#3023AE"/>
    <circle r="4" cx="205" cy="24.22" fill="#C86DD7"/>      
</svg>