<svg width="200" height="50" viewBox="0 0 210 50" xmlns="http://www.w3.org/2000/svg">
    <defs>
        <linearGradient x1="0%" y1="0%" x2="100%" y2="0%" id="a">
            <stop stop-color="#3023AE" offset="0%"/>
            <stop stop-color="#C86DD7" offset="100%"/>
        </linearGradient>
    </defs>
    <path stroke="url(#a)"
          stroke-width="3"
          stroke-linejoin="round"
          stroke-linecap="round"
          d="M5 40 C 6.49 39.81, 9.53 40.78, 10 39.36 S 13.52 10.23, 15 10 S 19.52 36.39, 20 37.81 S 23.53 38.99, 25 39.28 S 28.5 39.69, 30 39.76 S 33.5 39.72, 35 39.72 S 38.5 39.74, 40 39.76 S 43.5 39.81, 45 39.83 S 48.5 39.91, 50 39.91 S 53.5 39.83, 55 39.83 S 58.5 39.9, 60 39.91 S 63.5 39.9, 65 39.91 S 68.5 39.97, 70 39.98 S 73.5 39.98, 75 39.98 S 78.5 39.97, 80 39.96 S 83.5 39.94, 85 39.94 S 88.5 39.99, 90 39.98 S 93.5 39.9, 95 39.89 S 98.5 39.93, 100 39.94 S 103.5 39.97, 105 39.98 S 108.5 39.98, 110 39.98 S 113.5 39.99, 115 39.98 S 118.5 39.94, 120 39.94 S 123.5 39.96, 125 39.96 S 128.5 39.91, 130 39.91 S 133.5 39.94, 135 39.94 S 138.5 39.92, 140 39.92 S 143.5 39.93, 145 39.94 S 148.5 39.97, 150 39.98 S 153.5 39.99, 155 39.98 S 158.5 40.01, 160 39.89 S 163.5 39.21, 165 39.21 S 168.5 39.77, 170 39.87 S 173.5 39.86, 175 39.85 S 178.5 39.82, 180 39.83 S 183.5 39.89, 185 39.91 S 188.5 39.94, 190 39.94 S 193.5 39.93, 195 39.94 S 198.5 39.98, 200 39.98 S 203.5 39.93, 205 39.91"
          fill="none"/>
    <circle r="4" cx="5" cy="40" fill="#3023AE"/>
    <circle r="4" cx="205" cy="39.91" fill="#C86DD7"/>      
</svg>