<svg width="200" height="50" viewBox="0 0 210 50" xmlns="http://www.w3.org/2000/svg">
    <defs>
        <linearGradient x1="0%" y1="0%" x2="100%" y2="0%" id="a">
            <stop stop-color="#3023AE" offset="0%"/>
            <stop stop-color="#C86DD7" offset="100%"/>
        </linearGradient>
    </defs>
    <path stroke="url(#a)"
          stroke-width="3"
          stroke-linejoin="round"
          stroke-linecap="round"
          d="M5 40 C 5.25 38.52, 8.54 10.34, 10 10 S 14.51 36.23, 15 37.65 S 18.51 38.65, 20 38.82 S 23.5 38.73, 25 38.82 S 28.5 39.32, 30 39.41 S 33.5 39.41, 35 39.41 S 38.5 39.41, 40 39.41 S 43.5 39.41, 45 39.41 S 48.5 39.41, 50 39.41 S 53.5 39.41, 55 39.41 S 58.5 39.41, 60 39.41 S 63.5 39.41, 65 39.41 S 68.5 39.41, 70 39.41 S 73.5 39.41, 75 39.41 S 78.5 39.41, 80 39.41 S 83.5 39.41, 85 39.41 S 88.5 39.41, 90 39.41 S 93.5 39.41, 95 39.41 S 98.5 39.41, 100 39.41 S 103.5 39.41, 105 39.41 S 108.5 39.41, 110 39.41 S 113.5 39.41, 115 39.41 S 118.5 39.41, 120 39.41 S 123.5 39.41, 125 39.41 S 128.5 39.41, 130 39.41 S 133.5 39.41, 135 39.41"
          fill="none"/>
    <circle r="4" cx="5" cy="40" fill="#3023AE"/>
    <circle r="4" cx="135" cy="39.41" fill="#C86DD7"/>      
</svg>