<svg width="200" height="50" viewBox="0 0 210 50" xmlns="http://www.w3.org/2000/svg">
    <defs>
        <linearGradient x1="0%" y1="0%" x2="100%" y2="0%" id="a">
            <stop stop-color="#3023AE" offset="0%"/>
            <stop stop-color="#C86DD7" offset="100%"/>
        </linearGradient>
    </defs>
    <path stroke="url(#a)"
          stroke-width="3"
          stroke-linejoin="round"
          stroke-linecap="round"
          d="M5 40 C 6.47 39.71, 8.5 39.04, 10 39.01 S 13.5 39.68, 15 39.8 S 18.5 39.8, 20 39.8 S 23.5 39.8, 25 39.8 S 28.5 39.8, 30 39.8 S 33.5 39.8, 35 39.8 S 38.5 39.8, 40 39.8 S 43.5 39.8, 45 39.8 S 48.5 39.8, 50 39.8 S 53.5 39.8, 55 39.8 S 58.5 39.8, 60 39.8 S 63.5 39.8, 65 39.8 S 68.5 39.8, 70 39.8 S 73.5 39.8, 75 39.8 S 78.5 39.8, 80 39.8 S 83.5 39.8, 85 39.8 S 88.5 39.8, 90 39.8 S 93.5 39.8, 95 39.8 S 98.5 39.8, 100 39.8 S 103.5 39.8, 105 39.8 S 108.5 39.8, 110 39.8 S 113.5 39.8, 115 39.8 S 118.5 39.8, 120 39.8 S 123.5 39.8, 125 39.8 S 128.5 39.8, 130 39.8 S 133.5 39.8, 135 39.8 S 138.5 39.8, 140 39.8 S 143.5 39.8, 145 39.8 S 148.5 39.8, 150 39.8 S 153.5 39.8, 155 39.8 S 158.5 39.8, 160 39.8 S 163.5 39.8, 165 39.8 S 168.5 39.8, 170 39.8 S 173.5 39.8, 175 39.8 S 179.52 41.22, 180 39.8 S 183.51 10.21, 185 10 S 189.47 37.02, 190 38.42 S 193.5 36.52, 195 36.64 S 198.53 38.92, 200 39.21 S 203.51 38.8, 205 38.62"
          fill="none"/>
    <circle r="4" cx="5" cy="40" fill="#3023AE"/>
    <circle r="4" cx="205" cy="38.62" fill="#C86DD7"/>      
</svg>