<svg width="200" height="50" viewBox="0 0 210 50" xmlns="http://www.w3.org/2000/svg">
    <defs>
        <linearGradient x1="0%" y1="0%" x2="100%" y2="0%" id="a">
            <stop stop-color="#3023AE" offset="0%"/>
            <stop stop-color="#C86DD7" offset="100%"/>
        </linearGradient>
    </defs>
    <path stroke="url(#a)"
          stroke-width="3"
          stroke-linejoin="round"
          stroke-linecap="round"
          d="M5 40 C 5.25 38.52, 8.83 10.94, 10 10 S 13.54 31.54, 15 31.89 S 18.65 13.09, 20 12.43 S 24.34 25.68, 25 27.03 S 28.5 32.58, 30 32.7 S 33.5 27.72, 35 27.84 S 38.5 33.63, 40 33.51 S 43.5 27.15, 45 27.03 S 48.52 32.94, 50 32.7 S 53.52 25.65, 55 25.41 S 58.83 30.14, 60 31.08 S 63.61 32.95, 65 33.51 S 68.52 35.38, 70 35.14 S 73.65 32.55, 75 31.89 S 79.01 31.4, 80 30.27 S 83.5 20.42, 85 20.54 S 88.83 30.14, 90 31.08 S 93.54 29, 95 28.65 S 98.83 29.59, 100 28.65 S 103.57 20.08, 105 20.54 S 109.12 30.68, 110 31.89 S 113.52 34.08, 115 34.32 S 118.52 33.75, 120 33.51 S 123.74 33.52, 125 32.7 S 128.5 27.15, 130 27.03 S 133.5 31.89, 135 31.89 S 138.5 27.15, 140 27.03 S 143.7 30.34, 145 31.08 S 148.5 32.7, 150 32.7 S 153.54 31.43, 155 31.08 S 158.52 30.51, 160 30.27 S 163.5 29.46, 165 29.46 S 168.61 29.71, 170 30.27 S 173.65 34.17, 175 33.51 S 178.54 25.76, 180 25.41 S 183.7 30.34, 185 31.08 S 188.57 31.54, 190 31.08 S 193.65 27.18, 195 27.84 S 198.57 35.49, 200 35.95 S 203.93 32.13, 205 31.08"
          fill="none"/>
    <circle r="4" cx="5" cy="40" fill="#3023AE"/>
    <circle r="4" cx="205" cy="31.08" fill="#C86DD7"/>      
</svg>