<svg width="200" height="50" viewBox="0 0 210 50" xmlns="http://www.w3.org/2000/svg">
    <defs>
        <linearGradient x1="0%" y1="0%" x2="100%" y2="0%" id="a">
            <stop stop-color="#3023AE" offset="0%"/>
            <stop stop-color="#C86DD7" offset="100%"/>
        </linearGradient>
    </defs>
    <path stroke="url(#a)"
          stroke-width="3"
          stroke-linejoin="round"
          stroke-linecap="round"
          d="M5 40 C 6.21 39.12, 8.5 36.4, 10 36.36 S 13.57 39.25, 15 39.7 S 18.5 39.5, 20 39.51 S 23.5 39.72, 25 39.76 S 28.5 39.73, 30 39.76 S 33.5 39.91, 35 39.94 S 38.5 39.96, 40 39.94 S 43.5 39.82, 45 39.82 S 48.5 39.94, 50 39.94 S 53.5 39.82, 55 39.82 S 58.5 39.92, 60 39.94 S 63.5 39.94, 65 39.94 S 68.5 40.01, 70 39.94 S 73.53 39.77, 75 39.45 S 78.64 38.38, 80 37.75 S 83.62 35.43, 85 34.84 S 88.5 33.39, 90 33.5 S 93.55 35.97, 95 35.57 S 98.5 30.7, 100 30.77 S 103.53 35.73, 105 36.05 S 108.5 33, 110 32.96 S 114.4 37.13, 115 35.75 S 119.01 11.12, 120 10 S 123.68 23.74, 125 24.45 S 128.71 14.64, 130 15.4 S 134.18 29.09, 135 30.34 S 138.52 30.84, 140 30.59 S 143.53 28.34, 145 28.64 S 148.5 32.65, 150 32.65 S 153.52 28.89, 155 28.64 S 158.6 30.41, 160 30.95 S 163.56 32.97, 165 32.53 S 168.52 28.14, 170 27.91 S 173.55 31.34, 175 30.95 S 178.64 25.87, 180 25.24 S 183.51 26.48, 185 26.28 S 188.59 24.42, 190 23.91 S 193.52 22.86, 195 22.63 S 198.74 23.2, 200 22.39 S 204.06 17.36, 205 16.19"
          fill="none"/>
    <circle r="4" cx="5" cy="40" fill="#3023AE"/>
    <circle r="4" cx="205" cy="16.19" fill="#C86DD7"/>      
</svg>