<svg width="200" height="50" viewBox="0 0 210 50" xmlns="http://www.w3.org/2000/svg">
    <defs>
        <linearGradient x1="0%" y1="0%" x2="100%" y2="0%" id="a">
            <stop stop-color="#3023AE" offset="0%"/>
            <stop stop-color="#C86DD7" offset="100%"/>
        </linearGradient>
    </defs>
    <path stroke="url(#a)"
          stroke-width="3"
          stroke-linejoin="round"
          stroke-linecap="round"
          d="M5 40 C 6.14 39.02, 8.5 35.76, 10 35.72 S 13.59 39.2, 15 39.71 S 18.5 39.36, 20 39.36 S 23.5 39.66, 25 39.71 S 28.5 39.68, 30 39.71 S 33.5 39.9, 35 39.93 S 38.5 39.95, 40 39.93 S 43.5 39.79, 45 39.79 S 48.5 39.93, 50 39.93 S 53.5 39.79, 55 39.79 S 58.5 39.91, 60 39.93 S 63.5 39.93, 65 39.93 S 68.5 39.99, 70 39.93 S 73.54 39.83, 75 39.5 S 78.67 38.34, 80 37.65 S 83.7 35.05, 85 34.3 S 88.5 31.77, 90 31.88 S 93.51 34.85, 95 35.01 S 98.52 33.2, 100 32.95 S 103.51 33.17, 105 33.3 S 108.52 34.06, 110 33.8 S 114.3 32.85, 115 31.52 S 119.24 16.14, 120 14.85 S 123.65 15.21, 125 14.56 S 129.14 8.77, 130 10 S 134.27 27.57, 135 28.88 S 138.51 28.28, 140 28.1 S 143.53 27.36, 145 27.67 S 148.5 30.23, 150 30.24 S 153.51 27.87, 155 27.74 S 158.54 29.05, 160 29.38 S 163.53 29.75, 165 30.02 S 168.71 32.01, 170 31.24 S 173.76 24.88, 175 24.04 S 178.5 24.52, 180 24.47 S 183.51 23.88, 185 23.68 S 188.53 23.39, 190 23.11 S 193.77 22.61, 195 21.76 S 198.53 16.5, 200 16.2 S 203.77 18.83, 205 19.69"
          fill="none"/>
    <circle r="4" cx="5" cy="40" fill="#3023AE"/>
    <circle r="4" cx="205" cy="19.69" fill="#C86DD7"/>      
</svg>