<svg width="200" height="50" viewBox="0 0 210 50" xmlns="http://www.w3.org/2000/svg">
    <defs>
        <linearGradient x1="0%" y1="0%" x2="100%" y2="0%" id="a">
            <stop stop-color="#3023AE" offset="0%"/>
            <stop stop-color="#C86DD7" offset="100%"/>
        </linearGradient>
    </defs>
    <path stroke="url(#a)"
          stroke-width="3"
          stroke-linejoin="round"
          stroke-linecap="round"
          d="M5 40 C 6.09 38.97, 8.5 35.35, 10 35.3 S 13.61 39.13, 15 39.69 S 18.5 39.3, 20 39.3 S 23.5 39.63, 25 39.69 S 28.5 39.66, 30 39.69 S 33.5 39.89, 35 39.92 S 38.5 39.93, 40 39.92 S 43.5 39.85, 45 39.84 S 48.5 39.85, 50 39.84 S 53.5 39.76, 55 39.77 S 58.5 39.9, 60 39.92 S 63.5 39.92, 65 39.92 S 68.5 39.98, 70 39.92 S 73.54 39.88, 75 39.53 S 78.69 38.23, 80 37.49 S 83.53 34.2, 85 33.89 S 88.54 35.73, 90 35.38 S 93.58 31.94, 95 31.46 S 98.5 31.94, 100 32.01 S 103.51 31.77, 105 31.93 S 108.5 33.16, 110 33.11 S 114.26 32.92, 115 31.62 S 119.37 16.84, 120 15.48 S 123.55 10.37, 125 10 S 129.05 11.74, 130 12.9 S 134.13 21, 135 22.22 S 138.74 26.18, 140 27 S 143.5 28.76, 145 28.72 S 148.51 26.62, 150 26.76 S 153.5 29.73, 155 29.66 S 158.53 26.58, 160 26.29 S 163.71 26.94, 165 27.7 S 168.77 33.03, 170 32.17 S 173.74 21.46, 175 20.65 S 178.52 25.52, 180 25.74 S 183.52 22.39, 185 22.14 S 188.58 24.5, 190 24.02 S 193.88 19.76, 195 18.77 S 198.5 15.15, 200 15.17 S 203.8 18.03, 205 18.93"
          fill="none"/>
    <circle r="4" cx="5" cy="40" fill="#3023AE"/>
    <circle r="4" cx="205" cy="18.93" fill="#C86DD7"/>      
</svg>