<svg width="200" height="50" viewBox="0 0 210 50" xmlns="http://www.w3.org/2000/svg">
    <defs>
        <linearGradient x1="0%" y1="0%" x2="100%" y2="0%" id="a">
            <stop stop-color="#3023AE" offset="0%"/>
            <stop stop-color="#C86DD7" offset="100%"/>
        </linearGradient>
    </defs>
    <path stroke="url(#a)"
          stroke-width="3"
          stroke-linejoin="round"
          stroke-linecap="round"
          d="M5 40 C 6.11 38.99, 8.5 35.48, 10 35.44 S 13.6 39.16, 15 39.7 S 18.5 39.32, 20 39.32 S 23.5 39.64, 25 39.7 S 28.5 39.67, 30 39.7 S 33.5 39.89, 35 39.92 S 38.5 39.93, 40 39.92 S 43.5 39.86, 45 39.85 S 48.5 39.86, 50 39.85 S 53.5 39.76, 55 39.77 S 58.5 39.9, 60 39.92 S 63.5 39.92, 65 39.92 S 68.5 39.98, 70 39.92 S 73.53 39.85, 75 39.54 S 78.68 38.52, 80 37.8 S 83.54 34.4, 85 34.08 S 88.54 35.93, 90 35.59 S 93.58 32.2, 95 31.72 S 98.5 32.1, 100 32.18 S 103.51 32.05, 105 32.25 S 108.5 33.55, 110 33.54 S 114.19 33.45, 115 32.18 S 119.38 19.19, 120 17.82 S 123.51 10.19, 125 10 S 128.91 15.5, 130 16.53 S 134.03 18.27, 135 19.42 S 138.88 27.38, 140 28.38 S 143.52 28.51, 145 28.3 S 148.52 26.71, 150 26.94 S 153.5 29.75, 155 29.82 S 158.52 27.65, 160 27.39 S 163.64 27.44, 165 28.08 S 168.69 32.83, 170 32.1 S 173.74 23.27, 175 22.46 S 178.5 25.66, 180 25.72 S 183.5 22.95, 185 22.84 S 188.57 25.43, 190 24.96 S 193.77 20.44, 195 19.57 S 198.53 18.21, 200 17.9 S 203.51 17.58, 205 17.44"
          fill="none"/>
    <circle r="4" cx="5" cy="40" fill="#3023AE"/>
    <circle r="4" cx="205" cy="17.44" fill="#C86DD7"/>      
</svg>