<svg width="200" height="50" viewBox="0 0 210 50" xmlns="http://www.w3.org/2000/svg">
    <defs>
        <linearGradient x1="0%" y1="0%" x2="100%" y2="0%" id="a">
            <stop stop-color="#3023AE" offset="0%"/>
            <stop stop-color="#C86DD7" offset="100%"/>
        </linearGradient>
    </defs>
    <path stroke="url(#a)"
          stroke-width="3"
          stroke-linejoin="round"
          stroke-linecap="round"
          d="M5 40 C 6.29 39.23, 8.5 37.03, 10 36.99 S 13.55 39.33, 15 39.7 S 18.5 39.54, 20 39.55 S 23.5 39.7, 25 39.75 S 28.5 39.87, 30 39.9 S 33.5 39.95, 35 39.95 S 38.5 39.91, 40 39.9 S 43.5 39.91, 45 39.9 S 48.5 39.84, 50 39.85 S 53.5 39.94, 55 39.95 S 58.5 39.96, 60 39.95 S 63.52 40.12, 65 39.9 S 68.61 39.07, 70 38.5 S 73.6 36.33, 75 35.79 S 78.5 34.65, 80 34.64 S 83.54 36.02, 85 35.69 S 88.51 32.25, 90 32.39 S 93.51 36.44, 95 36.64 S 98.95 34.81, 100 33.74 S 104.18 27.78, 105 26.53 S 108.78 19.38, 110 18.51 S 114.04 18.22, 115 19.37 S 119.01 29.3, 120 30.43 S 123.5 30.89, 125 30.83 S 128.54 29.69, 130 30.03 S 133.5 33.09, 135 33.14 S 138.52 30.64, 140 30.38 S 143.62 30.81, 145 31.39 S 148.61 35.11, 150 34.54 S 153.69 28, 155 27.28 S 158.51 28.84, 160 29.03 S 163.57 29.02, 165 28.58 S 168.59 26.45, 170 25.93 S 173.51 25.04, 175 24.87 S 178.66 25.49, 180 24.82 S 184.16 21.11, 185 19.87 S 188.71 10.77, 190 10 S 193.92 12.86, 195 13.91 S 198.8 18.82, 200 19.72 S 203.58 20.9, 205 21.37"
          fill="none"/>
    <circle r="4" cx="5" cy="40" fill="#3023AE"/>
    <circle r="4" cx="205" cy="21.37" fill="#C86DD7"/>      
</svg>