<svg width="200" height="50" viewBox="0 0 210 50" xmlns="http://www.w3.org/2000/svg">
    <defs>
        <linearGradient x1="0%" y1="0%" x2="100%" y2="0%" id="a">
            <stop stop-color="#3023AE" offset="0%"/>
            <stop stop-color="#C86DD7" offset="100%"/>
        </linearGradient>
    </defs>
    <path stroke="url(#a)"
          stroke-width="3"
          stroke-linejoin="round"
          stroke-linecap="round"
          d="M5 40 C 6.47 39.7, 8.71 39.74, 10 38.98 S 13.51 34.3, 15 34.15 S 18.61 37.4, 20 37.97 S 23.5 38.22, 25 38.22 S 28.51 38.12, 30 37.97 S 33.66 37.88, 35 37.2 S 38.55 33.25, 40 32.88 S 43.65 34.01, 45 34.66 S 48.51 37.56, 50 37.71 S 53.61 36.25, 55 35.68 S 58.5 33.56, 60 33.64 S 63.6 35.65, 65 36.19 S 68.51 37.27, 70 37.46 S 73.73 38.26, 75 37.46 S 78.55 31.47, 80 31.1 S 83.65 34.27, 85 34.92 S 88.5 35.89, 90 35.93 S 93.52 34.94, 95 35.17 S 98.51 37.27, 100 37.46 S 103.69 37.17, 105 36.44 S 108.52 32.09, 110 31.86 S 113.55 34.55, 115 34.92 S 118.51 34.22, 120 34.41 S 123.56 35.79, 125 36.19 S 128.5 37.32, 130 37.2 S 133.6 35.95, 135 35.42 S 138.51 33.2, 140 33.39 S 143.52 36.43, 145 36.69 S 149.24 36.46, 150 35.17 S 153.52 19.89, 155 19.66 S 159.1 32.44, 160 33.64 S 163.59 33.38, 165 32.88 S 168.54 29.75, 170 30.08 S 173.51 35.02, 175 35.17 S 178.54 31.43, 180 31.1 S 184.19 34.14, 185 32.88 S 188.5 15.7, 190 15.59 S 193.84 31.17, 195 32.12 S 199.38 25.1, 200 23.73 S 204.49 11.41, 205 10"
          fill="none"/>
    <circle r="4" cx="5" cy="40" fill="#3023AE"/>
    <circle r="4" cx="205" cy="10" fill="#C86DD7"/>      
</svg>