<svg width="200" height="50" viewBox="0 0 210 50" xmlns="http://www.w3.org/2000/svg">
    <defs>
        <linearGradient x1="0%" y1="0%" x2="100%" y2="0%" id="a">
            <stop stop-color="#3023AE" offset="0%"/>
            <stop stop-color="#C86DD7" offset="100%"/>
        </linearGradient>
    </defs>
    <path stroke="url(#a)"
          stroke-width="3"
          stroke-linejoin="round"
          stroke-linecap="round"
          d="M5 40 C 5.25 38.52, 8.51 10.13, 10 10 S 14.52 37.7, 15 39.12 S 18.5 39.62, 20 39.71 S 23.51 39.84, 25 39.71 S 28.5 38.86, 30 38.82 S 33.51 39.28, 35 39.41 S 38.5 39.71, 40 39.71 S 43.5 39.41, 45 39.41 S 48.5 39.71, 50 39.71 S 53.52 39.63, 55 39.41 S 58.5 38.28, 60 38.24 S 63.51 38.95, 65 39.12 S 68.5 39.37, 70 39.41 S 73.5 39.41, 75 39.41 S 78.5 39.37, 80 39.41 S 83.5 39.71, 85 39.71 S 88.5 39.45, 90 39.41 S 93.5 39.45, 95 39.41 S 98.5 39.16, 100 39.12 S 103.5 39.03, 105 39.12 S 108.5 39.71, 110 39.71 S 113.5 39.16, 115 39.12 S 118.5 39.37, 120 39.41 S 123.5 39.41, 125 39.41 S 128.5 39.37, 130 39.41 S 133.5 39.67, 135 39.71 S 138.5 39.71, 140 39.71 S 143.5 39.71, 145 39.71 S 148.5 39.71, 150 39.71 S 153.5 39.71, 155 39.71 S 158.5 39.71, 160 39.71 S 163.5 39.71, 165 39.71 S 168.5 39.71, 170 39.71 S 173.5 39.75, 175 39.71 S 178.5 39.45, 180 39.41 S 183.5 39.37, 185 39.41 S 188.5 39.75, 190 39.71 S 193.5 39.16, 195 39.12 S 198.5 39.32, 200 39.41 S 203.5 39.62, 205 39.71"
          fill="none"/>
    <circle r="4" cx="5" cy="40" fill="#3023AE"/>
    <circle r="4" cx="205" cy="39.71" fill="#C86DD7"/>      
</svg>