<svg width="200" height="50" viewBox="0 0 210 50" xmlns="http://www.w3.org/2000/svg">
    <defs>
        <linearGradient x1="0%" y1="0%" x2="100%" y2="0%" id="a">
            <stop stop-color="#3023AE" offset="0%"/>
            <stop stop-color="#C86DD7" offset="100%"/>
        </linearGradient>
    </defs>
    <path stroke="url(#a)"
          stroke-width="3"
          stroke-linejoin="round"
          stroke-linecap="round"
          d="M5 40 C 5.3 38.53, 8.55 16.06, 10 15.69 S 14.36 36.09, 15 37.44 S 18.5 36.73, 20 36.73 S 23.5 37.35, 25 37.44 S 28.5 37.3, 30 37.3 S 33.51 37.57, 35 37.44 S 38.5 36.56, 40 36.45 S 43.5 36.62, 45 36.73 S 48.5 37.16, 50 37.16 S 53.61 37.3, 55 36.73 S 58.5 33.12, 60 33.03 S 63.54 35.81, 65 36.16 S 68.5 35.43, 70 35.45 S 73.51 36.45, 75 36.3 S 78.63 35.07, 80 34.45 S 83.61 32.32, 85 31.75 S 88.54 30, 90 30.33 S 93.6 33.49, 95 34.03 S 98.51 33.98, 100 34.17 S 104.43 36.7, 105 35.31 S 108.59 10.52, 110 10 S 114.38 30.24, 115 31.61 S 118.5 32.2, 120 32.18 S 123.5 31.38, 125 31.47 S 128.58 32.27, 130 32.75 S 133.5 34.82, 135 34.88 S 138.5 33.29, 140 33.18 S 143.52 33.94, 145 34.17 S 148.5 34.68, 150 34.74 S 153.5 34.66, 155 34.6 S 158.53 34.62, 160 34.31 S 163.5 32.57, 165 32.46 S 168.52 33.35, 170 33.6 S 173.5 34.28, 175 34.17 S 178.5 33, 180 32.89 S 183.53 33.77, 185 33.46 S 188.51 30.55, 190 30.76 S 193.61 34.31, 195 34.88 S 198.5 34.94, 200 34.88 S 203.51 34.58, 205 34.45"
          fill="none"/>
    <circle r="4" cx="5" cy="40" fill="#3023AE"/>
    <circle r="4" cx="205" cy="34.45" fill="#C86DD7"/>      
</svg>