<svg width="200" height="50" viewBox="0 0 210 50" xmlns="http://www.w3.org/2000/svg">
    <defs>
        <linearGradient x1="0%" y1="0%" x2="100%" y2="0%" id="a">
            <stop stop-color="#3023AE" offset="0%"/>
            <stop stop-color="#C86DD7" offset="100%"/>
        </linearGradient>
    </defs>
    <path stroke="url(#a)"
          stroke-width="3"
          stroke-linejoin="round"
          stroke-linecap="round"
          d="M5 40 C 6.5 39.92, 8.5 39.75, 10 39.74 S 13.5 39.9, 15 39.93 S 18.5 39.93, 20 39.93 S 23.5 39.93, 25 39.93 S 28.5 39.94, 30 39.93 S 33.5 39.87, 35 39.87 S 38.5 39.92, 40 39.93 S 43.5 39.93, 45 39.93 S 48.5 39.93, 50 39.93 S 53.5 39.93, 55 39.93 S 58.5 39.94, 60 39.93 S 63.5 39.88, 65 39.87 S 68.5 39.87, 70 39.87 S 73.5 39.9, 75 39.87 S 78.5 39.7, 80 39.67 S 83.5 39.63, 85 39.67 S 88.54 40.26, 90 39.93 S 93.5 37.47, 95 37.39 S 98.52 39.14, 100 39.41 S 103.5 39.24, 105 39.22 S 108.6 39.82, 110 39.28 S 113.72 36.14, 115 35.36 S 119.45 34.6, 120 33.2 S 123.53 9.7, 125 10 S 129.42 33.85, 130 35.23 S 133.51 34.1, 135 33.92 S 138.51 34.25, 140 34.05 S 143.5 32.61, 145 32.55 S 148.52 33.87, 150 33.66 S 153.54 31.45, 155 31.11 S 158.5 31.36, 160 31.31 S 163.83 31.72, 165 30.78 S 168.51 23.02, 170 23.2 S 173.5 31.99, 175 31.96 S 178.62 23.6, 180 23.01 S 183.5 27.6, 185 27.65 S 189.03 24.47, 190 23.33 S 193.52 15.66, 195 15.88 S 199.07 23.66, 200 24.84 S 203.8 27.66, 205 28.56"
          fill="none"/>
    <circle r="4" cx="5" cy="40" fill="#3023AE"/>
    <circle r="4" cx="205" cy="28.560000000000002" fill="#C86DD7"/>      
</svg>