<svg width="200" height="50" viewBox="0 0 210 50" xmlns="http://www.w3.org/2000/svg">
    <defs>
        <linearGradient x1="0%" y1="0%" x2="100%" y2="0%" id="a">
            <stop stop-color="#3023AE" offset="0%"/>
            <stop stop-color="#C86DD7" offset="100%"/>
        </linearGradient>
    </defs>
    <path stroke="url(#a)"
          stroke-width="3"
          stroke-linejoin="round"
          stroke-linecap="round"
          d="M5 40 C 5.25 38.52, 8.51 10.14, 10 10 S 14.52 37.67, 15 39.09 S 18.5 39.48, 20 39.55 S 23.5 39.55, 25 39.55 S 28.5 39.55, 30 39.55 S 33.5 39.55, 35 39.55 S 38.5 39.55, 40 39.55 S 43.5 39.55, 45 39.55 S 48.5 39.55, 50 39.55 S 53.5 39.55, 55 39.55 S 58.5 39.55, 60 39.55 S 63.5 39.55, 65 39.55 S 68.5 39.55, 70 39.55 S 73.5 39.55, 75 39.55 S 78.5 39.55, 80 39.55 S 83.5 39.55, 85 39.55 S 88.5 39.55, 90 39.55 S 93.5 39.55, 95 39.55 S 98.5 39.55, 100 39.55 S 103.5 39.55, 105 39.55 S 108.5 39.55, 110 39.55 S 113.5 39.55, 115 39.55 S 118.5 39.55, 120 39.55 S 123.5 39.55, 125 39.55 S 128.5 39.55, 130 39.55 S 133.5 39.55, 135 39.55 S 138.5 39.55, 140 39.55 S 143.5 39.55, 145 39.55 S 148.5 39.55, 150 39.55 S 153.5 39.55, 155 39.55 S 158.5 39.55, 160 39.55 S 163.63 40.17, 165 39.55 S 168.63 35.62, 170 35 S 173.57 34.55, 175 35 S 178.54 37.85, 180 38.18 S 183.51 37.07, 185 37.27 S 188.66 40.22, 190 39.55 S 193.5 32.34, 195 32.27 S 198.71 39.85, 200 39.09 S 204.45 27.76, 205 26.36"
          fill="none"/>
    <circle r="4" cx="5" cy="40" fill="#3023AE"/>
    <circle r="4" cx="205" cy="26.36" fill="#C86DD7"/>      
</svg>