<svg width="200" height="50" viewBox="0 0 210 50" xmlns="http://www.w3.org/2000/svg">
    <defs>
        <linearGradient x1="0%" y1="0%" x2="100%" y2="0%" id="a">
            <stop stop-color="#3023AE" offset="0%"/>
            <stop stop-color="#C86DD7" offset="100%"/>
        </linearGradient>
    </defs>
    <path stroke="url(#a)"
          stroke-width="3"
          stroke-linejoin="round"
          stroke-linecap="round"
          d="M5 40 C 6.5 39.96, 8.51 40, 10 39.86 S 13.5 39.09, 15 39.03 S 18.51 39.32, 20 39.44 S 23.5 39.82, 25 39.86 S 28.5 39.74, 30 39.72 S 33.5 39.7, 35 39.72 S 38.5 39.86, 40 39.86 S 43.5 39.76, 45 39.72 S 49.52 41, 50 39.58 S 53.51 10.21, 55 10 S 59.5 36.78, 60 38.19 S 63.51 38.33, 65 38.19 S 68.51 37.05, 70 37.22 S 73.51 39.18, 75 39.31 S 78.51 38.19, 80 38.06 S 83.51 38.6, 85 38.47 S 89.15 38.45, 90 37.22 S 93.51 23.9, 95 24.03 S 99.15 36.82, 100 38.06 S 103.84 39.56, 105 38.61 S 108.5 29.78, 110 29.86 S 113.91 38.14, 115 39.17 S 118.5 39.35, 120 39.31 S 123.51 39.02, 125 38.89 S 128.5 38.43, 130 38.47 S 133.5 39.11, 135 39.17 S 138.5 38.95, 140 38.89 S 143.5 38.77, 145 38.75 S 148.5 38.83, 150 38.75 S 153.51 38.07, 155 38.19 S 158.51 39.43, 160 39.58 S 163.5 39.21, 165 39.17 S 168.5 39.31, 170 39.31 S 173.5 39.27, 175 39.17 S 178.5 38.67, 180 38.61 S 183.5 38.69, 185 38.75 S 188.5 38.95, 190 39.03 S 193.5 39.39, 195 39.31 S 198.5 38.55, 200 38.47 S 203.5 38.67, 205 38.75"
          fill="none"/>
    <circle r="4" cx="5" cy="40" fill="#3023AE"/>
    <circle r="4" cx="205" cy="38.75" fill="#C86DD7"/>      
</svg>