<svg width="200" height="50" viewBox="0 0 210 50" xmlns="http://www.w3.org/2000/svg">
    <defs>
        <linearGradient x1="0%" y1="0%" x2="100%" y2="0%" id="a">
            <stop stop-color="#3023AE" offset="0%"/>
            <stop stop-color="#C86DD7" offset="100%"/>
        </linearGradient>
    </defs>
    <path stroke="url(#a)"
          stroke-width="3"
          stroke-linejoin="round"
          stroke-linecap="round"
          d="M5 40 C 5.3 38.53, 8.52 15.89, 10 15.65 S 14.41 36.99, 15 38.37 S 18.5 39.05, 20 39.02 S 23.5 38.17, 25 38.15 S 28.5 38.84, 30 38.91 S 33.5 38.54, 35 38.59 S 38.51 39.06, 40 39.24 S 43.5 39.68, 45 39.78 S 48.5 39.91, 50 39.89 S 53.73 40.47, 55 39.67 S 59.52 35.01, 60 33.59 S 63.5 10.02, 65 10 S 69.36 32.12, 70 33.48 S 73.53 31.59, 75 31.3 S 78.68 32.22, 80 31.52 S 83.5 25.96, 85 25.98 S 88.59 31.12, 90 31.63 S 93.5 29.68, 95 29.57 S 98.51 30.66, 100 30.87 S 103.5 30.96, 105 30.98 S 108.5 30.98, 110 30.98 S 113.81 31.89, 115 30.98 S 118.51 23.16, 120 23.37 S 123.9 31.37, 125 32.39 S 128.53 32.91, 130 32.61 S 133.51 30.48, 135 30.33 S 138.57 31.18, 140 31.63 S 143.55 33.1, 145 33.48 S 148.5 34.26, 150 34.24 S 153.53 33.05, 155 33.37 S 158.52 36.15, 160 36.41 S 163.52 35.37, 165 35.11 S 168.5 34.7, 170 34.67 S 173.5 34.82, 175 34.89 S 178.5 35.03, 180 35.11 S 183.5 35.41, 185 35.43 S 188.51 35.09, 190 35.22 S 193.51 36.15, 195 36.3 S 198.5 36.12, 200 36.2 S 203.51 36.66, 205 36.85"
          fill="none"/>
    <circle r="4" cx="5" cy="40" fill="#3023AE"/>
    <circle r="4" cx="205" cy="36.85" fill="#C86DD7"/>      
</svg>