<svg width="200" height="50" viewBox="0 0 210 50" xmlns="http://www.w3.org/2000/svg">
    <defs>
        <linearGradient x1="0%" y1="0%" x2="100%" y2="0%" id="a">
            <stop stop-color="#3023AE" offset="0%"/>
            <stop stop-color="#C86DD7" offset="100%"/>
        </linearGradient>
    </defs>
    <path stroke="url(#a)"
          stroke-width="3"
          stroke-linejoin="round"
          stroke-linecap="round"
          d="M5 40 C 6.43 39.55, 8.52 38.65, 10 38.42 S 13.5 38.42, 15 38.42 S 18.5 38.42, 20 38.42 S 23.5 38.42, 25 38.42 S 28.5 38.42, 30 38.42 S 33.5 38.42, 35 38.42 S 38.5 38.42, 40 38.42 S 43.5 38.42, 45 38.42 S 48.5 38.42, 50 38.42 S 53.5 38.42, 55 38.42 S 58.5 38.42, 60 38.42 S 63.5 38.42, 65 38.42 S 68.5 38.42, 70 38.42 S 73.5 38.42, 75 38.42 S 78.5 38.42, 80 38.42 S 83.5 38.42, 85 38.42 S 88.5 38.42, 90 38.42 S 93.5 38.42, 95 38.42 S 98.5 38.42, 100 38.42 S 103.5 38.42, 105 38.42 S 108.5 38.42, 110 38.42 S 113.5 38.42, 115 38.42 S 118.5 38.42, 120 38.42 S 123.5 38.42, 125 38.42 S 128.5 38.42, 130 38.42 S 133.5 38.42, 135 38.42 S 138.64 39.06, 140 38.42 S 143.73 34.48, 145 33.68 S 148.5 32.11, 150 32.11 S 153.52 33.45, 155 33.68 S 158.57 33.23, 160 33.68 S 164.42 38.22, 165 36.84 S 168.57 10.45, 170 10 S 174.34 32.33, 175 33.68 S 178.57 30.08, 180 30.53 S 183.57 36.39, 185 36.84 S 188.52 33.45, 190 33.68 S 193.57 38.87, 195 38.42 S 198.91 31.56, 200 30.53 S 203.57 29.4, 205 28.95"
          fill="none"/>
    <circle r="4" cx="5" cy="40" fill="#3023AE"/>
    <circle r="4" cx="205" cy="28.95" fill="#C86DD7"/>      
</svg>