<svg width="200" height="50" viewBox="0 0 210 50" xmlns="http://www.w3.org/2000/svg">
    <defs>
        <linearGradient x1="0%" y1="0%" x2="100%" y2="0%" id="a">
            <stop stop-color="#3023AE" offset="0%"/>
            <stop stop-color="#C86DD7" offset="100%"/>
        </linearGradient>
    </defs>
    <path stroke="url(#a)"
          stroke-width="3"
          stroke-linejoin="round"
          stroke-linecap="round"
          d="M5 40 C 5.28 38.53, 8.71 14.77, 10 14 S 13.71 33.23, 15 34 S 18.61 20.56, 20 20 S 23.71 29.23, 25 30 S 29.33 27.34, 30 26 S 33.53 9.71, 35 10 S 39.13 26.78, 40 28 S 43.71 24.77, 45 24 S 48.61 21.44, 50 22 S 53.53 27.71, 55 28 S 58.71 23.23, 60 24 S 63.61 33.44, 65 34 S 68.53 28.29, 70 28 S 73.61 32.56, 75 32 S 79.04 25.15, 80 24 S 83.71 19.23, 85 20 S 88.5 30, 90 30 S 93.83 19.06, 95 20 S 98.83 37.06, 100 38 S 104.13 29.22, 105 28 S 108.53 24.29, 110 24 S 113.53 25.71, 115 26 S 118.5 26, 120 26 S 124.04 24.85, 125 26 S 128.94 36.94, 130 38 S 134.27 37.31, 135 36 S 138.61 20.56, 140 20 S 143.83 31.06, 145 32 S 148.53 28.29, 150 28 S 153.71 29.23, 155 30 S 158.5 34, 160 34 S 163.53 30.29, 165 30 S 168.61 31.44, 170 32 S 173.61 33.44, 175 34 S 178.53 35.71, 180 36 S 183.53 35.71, 185 36 S 188.5 38, 190 38 S 193.5 36, 195 36 S 198.61 38.56, 200 38 S 204.04 33.15, 205 32"
          fill="none"/>
    <circle r="4" cx="5" cy="40" fill="#3023AE"/>
    <circle r="4" cx="205" cy="32" fill="#C86DD7"/>      
</svg>