<svg width="200" height="50" viewBox="0 0 210 50" xmlns="http://www.w3.org/2000/svg">
    <defs>
        <linearGradient x1="0%" y1="0%" x2="100%" y2="0%" id="a">
            <stop stop-color="#3023AE" offset="0%"/>
            <stop stop-color="#C86DD7" offset="100%"/>
        </linearGradient>
    </defs>
    <path stroke="url(#a)"
          stroke-width="3"
          stroke-linejoin="round"
          stroke-linecap="round"
          d="M5 40 C 5.25 38.52, 8.61 10.55, 10 10 S 14.49 34.62, 15 36.03 S 18.51 37.68, 20 37.51 S 23.5 34.83, 25 34.89 S 28.57 37.49, 30 37.94 S 33.5 38.06, 35 38.07 S 38.5 38.06, 40 38.04 S 43.5 37.9, 45 37.91 S 48.5 38.14, 50 38.1 S 53.5 37.7, 55 37.67 S 58.51 37.77, 60 37.91 S 63.5 38.54, 65 38.62 S 68.5 38.55, 70 38.47 S 73.52 38.33, 75 38.1 S 78.5 36.9, 80 36.9 S 83.5 38.01, 85 38.07 S 88.5 37.26, 90 37.33 S 93.51 38.42, 95 38.57 S 98.5 38.4, 100 38.33 S 103.5 38.14, 105 38.07 S 108.5 37.89, 110 37.83 S 113.5 37.63, 115 37.67 S 118.5 38.04, 120 38.07 S 123.5 37.91, 125 37.88 S 128.5 37.93, 130 37.88 S 133.51 37.75, 135 37.57 S 138.52 36.91, 140 36.69 S 143.5 36.02, 145 36.08 S 148.51 36.95, 150 37.12 S 153.5 37.19, 155 37.25 S 158.5 37.62, 160 37.54 S 163.52 36.95, 165 36.72 S 168.5 35.99, 170 35.98 S 173.52 36.41, 175 36.67 S 178.51 37.56, 180 37.75 S 183.5 37.96, 185 37.94 S 188.5 37.62, 190 37.59 S 193.5 37.79, 195 37.72 S 198.5 37.18, 200 37.12 S 203.5 37.25, 205 37.3"
          fill="none"/>
    <circle r="4" cx="5" cy="40" fill="#3023AE"/>
    <circle r="4" cx="205" cy="37.3" fill="#C86DD7"/>      
</svg>