<svg width="200" height="50" viewBox="0 0 210 50" xmlns="http://www.w3.org/2000/svg">
    <defs>
        <linearGradient x1="0%" y1="0%" x2="100%" y2="0%" id="a">
            <stop stop-color="#3023AE" offset="0%"/>
            <stop stop-color="#C86DD7" offset="100%"/>
        </linearGradient>
    </defs>
    <path stroke="url(#a)"
          stroke-width="3"
          stroke-linejoin="round"
          stroke-linecap="round"
          d="M5 40 C 5.25 38.52, 8.6 10.54, 10 10 S 14.49 34.7, 15 36.11 S 18.5 37.94, 20 37.88 S 23.5 35.78, 25 35.68 S 28.55 36.81, 30 37.18 S 33.51 38.08, 35 38.26 S 38.5 38.42, 40 38.42 S 43.5 38.3, 45 38.26 S 48.5 38.12, 50 38.12 S 53.5 38.18, 55 38.23 S 58.5 38.56, 60 38.47 S 63.5 37.62, 65 37.61 S 68.51 38.22, 70 38.39 S 73.5 38.68, 75 38.74 S 78.5 38.81, 80 38.77 S 83.5 38.57, 85 38.45 S 88.51 38.11, 90 37.96 S 93.5 37.42, 95 37.45 S 98.5 38.12, 100 38.15 S 103.5 37.56, 105 37.67 S 108.5 38.78, 110 38.9 S 113.5 38.51, 115 38.45 S 118.5 38.6, 120 38.5 S 123.5 37.73, 125 37.75 S 128.5 38.64, 130 38.66 S 133.5 37.94, 135 37.88 S 138.5 38.21, 140 38.28 S 143.5 38.38, 145 38.34 S 148.5 38.08, 150 38.02 S 153.5 38.01, 155 37.96 S 158.5 37.77, 160 37.69 S 163.51 37.63, 165 37.45 S 168.5 36.44, 170 36.46 S 173.5 37.46, 175 37.56 S 178.5 37.02, 180 37.13 S 183.5 38.3, 185 38.28 S 188.51 37.17, 190 37.02 S 193.5 37.36, 195 37.29 S 198.5 36.58, 200 36.54 S 203.51 36.88, 205 37.02"
          fill="none"/>
    <circle r="4" cx="5" cy="40" fill="#3023AE"/>
    <circle r="4" cx="205" cy="37.02" fill="#C86DD7"/>      
</svg>