<svg width="200" height="50" viewBox="0 0 210 50" xmlns="http://www.w3.org/2000/svg">
    <defs>
        <linearGradient x1="0%" y1="0%" x2="100%" y2="0%" id="a">
            <stop stop-color="#3023AE" offset="0%"/>
            <stop stop-color="#C86DD7" offset="100%"/>
        </linearGradient>
    </defs>
    <path stroke="url(#a)"
          stroke-width="3"
          stroke-linejoin="round"
          stroke-linecap="round"
          d="M5 40 C 5.25 38.52, 8.6 10.54, 10 10 S 14.49 34.71, 15 36.12 S 18.51 37.71, 20 37.52 S 23.5 34.79, 25 34.85 S 28.57 37.48, 30 37.94 S 33.5 38.09, 35 38.1 S 38.5 38.01, 40 37.99 S 43.5 37.97, 45 37.99 S 48.5 38.17, 50 38.1 S 53.5 37.51, 55 37.49 S 58.51 37.82, 60 37.99 S 63.5 38.52, 65 38.6 S 68.5 38.58, 70 38.5 S 73.52 38.29, 75 38.07 S 78.5 37.02, 80 36.99 S 83.5 37.77, 85 37.84 S 88.5 37.32, 90 37.44 S 93.51 38.51, 95 38.63 S 98.51 38.39, 100 38.26 S 103.5 37.78, 105 37.78 S 108.5 38.31, 110 38.28 S 113.5 37.58, 115 37.55 S 118.5 38.02, 120 38.05 S 123.5 37.76, 125 37.73 S 128.5 37.9, 130 37.84 S 133.5 37.46, 135 37.34 S 138.52 37.25, 140 37.04 S 143.5 35.89, 145 35.91 S 148.52 36.95, 150 37.18 S 153.5 37.5, 155 37.49 S 158.5 37.21, 160 37.1 S 163.51 36.92, 165 36.75 S 168.5 35.95, 170 35.96 S 173.53 36.53, 175 36.83 S 178.51 37.87, 180 38.02 S 183.5 37.9, 185 37.81 S 188.5 37.42, 190 37.44 S 193.5 38.04, 195 37.94 S 198.5 36.8, 200 36.75 S 203.52 37.37, 205 37.63"
          fill="none"/>
    <circle r="4" cx="5" cy="40" fill="#3023AE"/>
    <circle r="4" cx="205" cy="37.63" fill="#C86DD7"/>      
</svg>