<svg width="200" height="50" viewBox="0 0 210 50" xmlns="http://www.w3.org/2000/svg">
    <defs>
        <linearGradient x1="0%" y1="0%" x2="100%" y2="0%" id="a">
            <stop stop-color="#3023AE" offset="0%"/>
            <stop stop-color="#C86DD7" offset="100%"/>
        </linearGradient>
    </defs>
    <path stroke="url(#a)"
          stroke-width="3"
          stroke-linejoin="round"
          stroke-linecap="round"
          d="M5 40 C 5.31 38.53, 8.71 16.77, 10 16 S 14.27 32.69, 15 34 S 18.5 34, 20 34 S 23.5 34, 25 34 S 28.5 34, 30 34 S 33.5 34, 35 34 S 38.5 34, 40 34 S 43.5 34, 45 34 S 48.5 34, 50 34 S 53.5 34, 55 34 S 58.5 34, 60 34 S 63.5 34, 65 34 S 68.5 34, 70 34 S 73.5 34, 75 34 S 78.5 34, 80 34 S 84.42 35.38, 85 34 S 89.04 11.15, 90 10 S 94.04 20.85, 95 22 S 98.5 22, 100 22 S 103.5 22, 105 22 S 108.71 21.23, 110 22 S 113.71 27.23, 115 28 S 119.04 29.15, 120 28 S 124.04 17.15, 125 16 S 128.71 15.23, 130 16 S 134.27 20.69, 135 22 S 139.04 32.85, 140 34 S 143.71 34.77, 145 34 S 148.71 28.77, 150 28 S 153.5 28, 155 28 S 158.71 27.23, 160 28 S 163.71 33.23, 165 34 S 168.5 34, 170 34 S 173.5 34, 175 34 S 178.5 34, 180 34"
          fill="none"/>
    <circle r="4" cx="5" cy="40" fill="#3023AE"/>
    <circle r="4" cx="180" cy="34" fill="#C86DD7"/>      
</svg>