<svg width="200" height="50" viewBox="0 0 210 50" xmlns="http://www.w3.org/2000/svg">
    <defs>
        <linearGradient x1="0%" y1="0%" x2="100%" y2="0%" id="a">
            <stop stop-color="#3023AE" offset="0%"/>
            <stop stop-color="#C86DD7" offset="100%"/>
        </linearGradient>
    </defs>
    <path stroke="url(#a)"
          stroke-width="3"
          stroke-linejoin="round"
          stroke-linecap="round"
          d="M5 40 C 5.5 38.59, 8.52 26.14, 10 25.88 S 14.06 37.07, 15 38.24 S 18.5 38.24, 20 38.24 S 23.5 38.24, 25 38.24 S 28.59 38.74, 30 38.24 S 34.5 36.12, 35 34.71 S 38.59 9.5, 40 10 S 44.5 36.83, 45 38.24 S 48.52 38.5, 50 38.24 S 53.88 37.46, 55 36.47 S 58.59 29.91, 60 29.41 S 63.88 31.95, 65 32.94 S 68.52 37.98, 70 38.24 S 73.88 35.7, 75 34.71 S 78.59 28.91, 80 29.41 S 83.88 37.25, 85 38.24 S 88.5 38.24, 90 38.24 S 93.52 38.5, 95 38.24 S 99.2 37.74, 100 36.47 S 103.88 23.34, 105 22.35 S 108.88 26.66, 110 27.65 S 113.59 30.68, 115 31.18 S 118.5 31.18, 120 31.18 S 123.52 30.92, 125 31.18 S 128.52 32.68, 130 32.94 S 133.67 32.24, 135 32.94 S 138.77 39.11, 140 38.24 S 143.52 26.14, 145 25.88 S 148.59 35.97, 150 36.47 S 154.4 30.79, 155 29.41 S 158.67 14.23, 160 13.53 S 163.52 23.86, 165 24.12 S 168.67 14.59, 170 15.29 S 174.06 28.24, 175 29.41 S 178.77 28.52, 180 27.65 S 183.77 21.48, 185 22.35 S 189.13 33.49, 190 34.71 S 193.52 36.21, 195 36.47 S 198.88 37.46, 200 36.47 S 204.26 28.95, 205 27.65"
          fill="none"/>
    <circle r="4" cx="5" cy="40" fill="#3023AE"/>
    <circle r="4" cx="205" cy="27.65" fill="#C86DD7"/>      
</svg>