<svg width="200" height="50" viewBox="0 0 210 50" xmlns="http://www.w3.org/2000/svg">
    <defs>
        <linearGradient x1="0%" y1="0%" x2="100%" y2="0%" id="a">
            <stop stop-color="#3023AE" offset="0%"/>
            <stop stop-color="#C86DD7" offset="100%"/>
        </linearGradient>
    </defs>
    <path stroke="url(#a)"
          stroke-width="3"
          stroke-linejoin="round"
          stroke-linecap="round"
          d="M5 40 C 5.52 38.59, 9.5 27.98, 10 26.57 S 14.22 12.98, 15 11.7 S 18.91 8.97, 20 10 S 23.98 20.02, 25 21.12 S 28.52 20.97, 30 20.71 S 33.57 19.8, 35 19.36 S 38.54 18, 40 17.66 S 43.5 17.01, 45 17.04 S 48.5 17.76, 50 17.84 S 53.54 17.21, 55 17.57 S 58.6 19.77, 60 20.3 S 63.52 21.12, 65 21.37 S 68.52 21.75, 70 21.99 S 73.54 22.65, 75 23.01 S 78.51 24.35, 80 24.48 S 83.51 24.05, 85 23.86 S 88.5 23.25, 90 23.22 S 93.5 23.58, 95 23.64 S 98.54 23.27, 100 23.6 S 103.59 25.35, 105 25.87 S 108.52 27.07, 110 27.32 S 113.52 27.77, 115 27.54 S 118.52 25.98, 120 25.75 S 123.51 25.86, 125 26.02 S 128.56 26.4, 130 26.82 S 133.51 28.78, 135 28.94 S 138.5 28.01, 140 27.92 S 143.5 28.27, 145 28.32 S 148.5 28.19, 150 28.25 S 153.5 28.73, 155 28.69 S 158.52 28.25, 160 28.01 S 163.5 27.08, 165 27.04 S 168.5 27.73, 170 27.73 S 173.5 27.09, 175 27.07 S 178.51 27.78, 180 27.57 S 183.57 26.11, 185 25.67 S 188.5 24.62, 190 24.52 S 193.57 24.53, 195 24.98 S 198.58 27.18, 200 27.66 S 203.51 28.12, 205 28.32"
          fill="none"/>
    <circle r="4" cx="5" cy="40" fill="#3023AE"/>
    <circle r="4" cx="205" cy="28.32" fill="#C86DD7"/>      
</svg>