<svg width="200" height="50" viewBox="0 0 210 50" xmlns="http://www.w3.org/2000/svg">
    <defs>
        <linearGradient x1="0%" y1="0%" x2="100%" y2="0%" id="a">
            <stop stop-color="#3023AE" offset="0%"/>
            <stop stop-color="#C86DD7" offset="100%"/>
        </linearGradient>
    </defs>
    <path stroke="url(#a)"
          stroke-width="3"
          stroke-linejoin="round"
          stroke-linecap="round"
          d="M5 40 C 6.47 39.69, 8.5 38.99, 10 38.95 S 13.5 39.62, 15 39.74 S 18.5 39.74, 20 39.74 S 23.5 39.74, 25 39.74 S 28.5 39.74, 30 39.74 S 33.5 39.74, 35 39.74 S 38.5 39.74, 40 39.74 S 43.5 39.74, 45 39.74 S 48.5 39.74, 50 39.74 S 53.5 39.74, 55 39.74 S 58.5 39.74, 60 39.74 S 63.5 39.74, 65 39.74 S 68.5 39.74, 70 39.74 S 73.5 39.74, 75 39.74 S 78.5 39.74, 80 39.74 S 83.5 39.74, 85 39.74 S 88.5 39.74, 90 39.74 S 93.5 39.74, 95 39.74 S 98.5 39.82, 100 39.74 S 103.51 39.41, 105 39.21 S 108.5 38.42, 110 38.42 S 113.5 39.33, 115 39.21 S 118.5 37.75, 120 37.63 S 123.53 38.11, 125 38.42 S 128.5 39.82, 130 39.74 S 133.5 37.89, 135 37.89 S 138.51 39.54, 140 39.74 S 143.5 39.29, 145 39.21 S 148.5 39.13, 150 39.21 S 153.5 39.82, 155 39.74 S 158.5 38.72, 160 38.68 S 163.5 39.51, 165 39.47 S 168.51 38.61, 170 38.42 S 173.53 38.47, 175 38.16 S 178.62 36.9, 180 36.32 S 183.53 34.26, 185 33.95 S 188.59 34.73, 190 34.21 S 193.5 30.22, 195 30.26 S 199.34 35.82, 200 34.47 S 204.7 11.47, 205 10"
          fill="none"/>
    <circle r="4" cx="5" cy="40" fill="#3023AE"/>
    <circle r="4" cx="205" cy="10" fill="#C86DD7"/>      
</svg>