<svg width="200" height="50" viewBox="0 0 210 50" xmlns="http://www.w3.org/2000/svg">
    <defs>
        <linearGradient x1="0%" y1="0%" x2="100%" y2="0%" id="a">
            <stop stop-color="#3023AE" offset="0%"/>
            <stop stop-color="#C86DD7" offset="100%"/>
        </linearGradient>
    </defs>
    <path stroke="url(#a)"
          stroke-width="3"
          stroke-linejoin="round"
          stroke-linecap="round"
          d="M5 40 C 5.65 38.65, 8.51 29.9, 10 29.69 S 13.9 37.57, 15 38.59 S 18.5 38.96, 20 38.91 S 23.5 38.16, 25 38.28 S 28.5 39.62, 30 39.69 S 33.5 38.75, 35 38.75 S 38.51 39.55, 40 39.69 S 43.5 39.74, 45 39.69 S 48.57 39.82, 50 39.37 S 53.51 36.75, 55 36.56 S 58.53 37.84, 60 38.12 S 63.5 38.46, 65 38.44 S 68.5 38.04, 70 37.97 S 73.56 38.38, 75 37.97 S 78.63 35.78, 80 35.16 S 83.93 34.49, 85 33.44 S 88.5 25.38, 90 25.31 S 93.98 31.87, 95 32.97 S 98.52 35.84, 100 36.09 S 103.5 34.78, 105 34.69 S 108.62 36.05, 110 35.47 S 113.51 30.68, 115 30.47 S 118.53 33.76, 120 34.06 S 123.65 33.15, 125 32.5 S 128.5 29.13, 130 29.22 S 133.58 32.63, 135 33.12 S 138.5 32.71, 140 32.66 S 143.6 33.36, 145 32.81 S 148.63 29.35, 150 28.75 S 153.62 29.02, 155 28.44 S 158.5 24.51, 160 24.53 S 163.65 27.94, 165 28.59 S 168.56 28.94, 170 29.37 S 173.56 31.99, 175 31.56 S 178.69 27.14, 180 26.41 S 183.66 25.27, 185 25.94 S 188.63 30.81, 190 31.41 S 193.53 30.01, 195 30.31 S 199.34 34.79, 200 33.44 S 204.69 11.47, 205 10"
          fill="none"/>
    <circle r="4" cx="5" cy="40" fill="#3023AE"/>
    <circle r="4" cx="205" cy="10" fill="#C86DD7"/>      
</svg>