<svg width="200" height="50" viewBox="0 0 210 50" xmlns="http://www.w3.org/2000/svg">
    <defs>
        <linearGradient x1="0%" y1="0%" x2="100%" y2="0%" id="a">
            <stop stop-color="#3023AE" offset="0%"/>
            <stop stop-color="#C86DD7" offset="100%"/>
        </linearGradient>
    </defs>
    <path stroke="url(#a)"
          stroke-width="3"
          stroke-linejoin="round"
          stroke-linecap="round"
          d="M5 40 C 5.34 38.54, 8.56 19.13, 10 18.71 S 14.34 35.75, 15 37.1 S 18.51 39.22, 20 39.03 S 23.5 35.81, 25 35.81 S 28.54 38.7, 30 39.03 S 33.5 38.06, 35 38.06 S 38.51 38.89, 40 39.03 S 43.5 38.93, 45 39.03 S 48.63 40.3, 50 39.68 S 53.63 35.14, 55 34.52 S 58.52 34.92, 60 35.16 S 63.55 35.76, 65 36.13 S 68.5 37.79, 70 37.74 S 73.53 36.09, 75 35.81 S 78.72 36.59, 80 35.81 S 84.21 30.95, 85 29.68 S 89.14 20.91, 90 19.68 S 93.8 14.59, 95 15.48 S 99.22 25.82, 100 27.1 S 103.55 31.57, 105 31.94 S 108.52 29.92, 110 29.68 S 113.78 31.19, 115 30.32 S 118.6 23.12, 120 22.58 S 123.57 25.99, 125 26.45 S 128.81 26.73, 130 25.81 S 133.56 18.29, 135 18.71 S 138.67 28.02, 140 28.71 S 143.59 24.37, 145 23.87 S 148.53 25.44, 150 25.16 S 153.89 22.95, 155 21.94 S 158.89 17.14, 160 16.13 S 163.52 13.14, 165 12.9 S 168.59 14.02, 170 14.52 S 173.68 15.73, 175 16.45 S 178.56 19.58, 180 20 S 183.94 20.41, 185 19.35 S 188.51 10.14, 190 10 S 194.05 17.23, 195 18.39 S 198.56 21.84, 200 22.26 S 203.53 21.58, 205 21.29"
          fill="none"/>
    <circle r="4" cx="5" cy="40" fill="#3023AE"/>
    <circle r="4" cx="205" cy="21.29" fill="#C86DD7"/>      
</svg>