<svg width="200" height="50" viewBox="0 0 210 50" xmlns="http://www.w3.org/2000/svg">
    <defs>
        <linearGradient x1="0%" y1="0%" x2="100%" y2="0%" id="a">
            <stop stop-color="#3023AE" offset="0%"/>
            <stop stop-color="#C86DD7" offset="100%"/>
        </linearGradient>
    </defs>
    <path stroke="url(#a)"
          stroke-width="3"
          stroke-linejoin="round"
          stroke-linecap="round"
          d="M5 40 C 5.8 38.73, 8.51 32.27, 10 32.11 S 13.74 38.11, 15 38.92 S 18.5 38.52, 20 38.57 S 23.51 39.12, 25 39.28 S 28.5 39.64, 30 39.64 S 33.5 39.3, 35 39.28 S 38.5 39.43, 40 39.52 S 43.55 40.25, 45 39.88 S 48.51 37.2, 50 37.01 S 53.52 38.32, 55 38.57 S 58.5 38.71, 60 38.69 S 63.51 38.59, 65 38.45 S 68.54 38.06, 70 37.73 S 73.84 37.13, 75 36.18 S 78.64 30.11, 80 29.48 S 83.76 30.67, 85 31.51 S 88.61 35.72, 90 36.29 S 93.5 35.58, 95 35.58 S 98.57 36.74, 100 36.29 S 103.52 32.68, 105 32.47 S 108.5 34.86, 110 34.86 S 113.52 32.72, 115 32.47 S 118.51 33.05, 120 33.19 S 123.5 33.39, 125 33.43 S 128.53 33.75, 130 33.43 S 133.56 31.7, 135 31.27 S 138.57 30.9, 140 30.44 S 143.5 28.09, 145 28.05 S 148.63 29.58, 150 30.2 S 153.5 32.5, 155 32.59 S 158.6 31.35, 160 30.8 S 163.52 28.39, 165 28.65 S 168.56 32.18, 170 32.59 S 173.51 31.33, 175 31.51 S 178.57 33.32, 180 33.78 S 184.42 36.12, 185 34.74 S 188.6 10.54, 190 10 S 194.38 29.55, 195 30.92 S 198.5 31.94, 200 31.99 S 203.52 31.48, 205 31.27"
          fill="none"/>
    <circle r="4" cx="5" cy="40" fill="#3023AE"/>
    <circle r="4" cx="205" cy="31.27" fill="#C86DD7"/>      
</svg>