<svg width="200" height="50" viewBox="0 0 210 50" xmlns="http://www.w3.org/2000/svg">
    <defs>
        <linearGradient x1="0%" y1="0%" x2="100%" y2="0%" id="a">
            <stop stop-color="#3023AE" offset="0%"/>
            <stop stop-color="#C86DD7" offset="100%"/>
        </linearGradient>
    </defs>
    <path stroke="url(#a)"
          stroke-width="3"
          stroke-linejoin="round"
          stroke-linecap="round"
          d="M5 40 C 5.33 38.54, 8.57 17.94, 10 17.5 S 14.37 35.57, 15 36.93 S 18.51 39.18, 20 38.98 S 23.5 35.57, 25 35.57 S 28.54 38.63, 30 38.98 S 33.5 37.95, 35 37.95 S 38.51 38.83, 40 38.98 S 43.5 38.88, 45 38.98 S 48.65 40.31, 50 39.66 S 53.65 34.85, 55 34.2 S 58.52 34.64, 60 34.89 S 63.55 35.52, 65 35.91 S 68.5 37.56, 70 37.61 S 73.54 36.6, 75 36.25 S 78.8 36.13, 80 35.23 S 84.17 30, 85 28.75 S 89.21 21.5, 90 20.23 S 93.72 11.95, 95 12.73 S 99.29 25.04, 100 26.36 S 103.55 31.08, 105 31.48 S 108.52 29.34, 110 29.09 S 113.76 30.62, 115 29.77 S 118.63 22.88, 120 22.27 S 123.54 24.99, 125 25.34 S 128.78 25.53, 130 24.66 S 133.55 17.78, 135 18.18 S 138.65 26.74, 140 27.39 S 143.53 23.25, 145 22.95 S 148.55 25.73, 150 25.34 S 153.9 21.25, 155 20.23 S 158.86 17.11, 160 16.14 S 163.63 12.31, 165 11.7 S 168.57 11.26, 170 11.7 S 173.92 13.73, 175 14.77 S 178.54 20.9, 180 21.25 S 184 18.28, 185 17.16 S 188.53 10.3, 190 10 S 194.02 13.97, 195 15.11 S 198.58 21.11, 200 21.59 S 203.72 19.3, 205 18.52"
          fill="none"/>
    <circle r="4" cx="5" cy="40" fill="#3023AE"/>
    <circle r="4" cx="205" cy="18.52" fill="#C86DD7"/>      
</svg>