<svg width="200" height="50" viewBox="0 0 210 50" xmlns="http://www.w3.org/2000/svg">
    <defs>
        <linearGradient x1="0%" y1="0%" x2="100%" y2="0%" id="a">
            <stop stop-color="#3023AE" offset="0%"/>
            <stop stop-color="#C86DD7" offset="100%"/>
        </linearGradient>
    </defs>
    <path stroke="url(#a)"
          stroke-width="3"
          stroke-linejoin="round"
          stroke-linecap="round"
          d="M5 40 C 5.77 38.72, 8.74 32.51, 10 31.7 S 13.68 34.25, 15 33.53 S 18.72 27.01, 20 26.23 S 23.55 27.04, 25 27.42 S 28.68 29.6, 30 28.88 S 33.51 21.8, 35 21.95 S 38.74 29.07, 40 29.88 S 43.59 28.83, 45 28.33 S 48.7 27.08, 50 26.32 S 53.91 23.52, 55 22.49 S 58.57 17.28, 60 16.84 S 63.5 19.45, 65 19.39 S 68.53 16.16, 70 16.47 S 73.92 20.45, 75 21.49 S 78.5 25.95, 80 26.05 S 83.68 22.85, 85 22.13 S 88.51 20.7, 90 20.58 S 93.51 21.12, 95 21.31 S 98.53 21.53, 100 21.85 S 103.91 24.53, 105 23.5 S 108.51 12.32, 110 12.46 S 113.64 23.79, 115 24.41 S 118.83 17.95, 120 17.02 S 123.55 16.85, 125 16.47 S 128.53 14.08, 130 14.38 S 133.52 18.21, 135 18.48 S 138.8 17.11, 140 16.2 S 143.73 11.7, 145 10.91 S 148.52 9.78, 150 10 S 153.5 12.3, 155 12.37 S 158.55 10.09, 160 10.46 S 163.94 13.86, 165 14.92 S 168.72 19.71, 170 20.49 S 173.51 21.19, 175 21.03 S 178.55 19.01, 180 19.39 S 183.85 22.72, 185 23.68 S 188.55 28.15, 190 27.78 S 193.64 21.75, 195 21.12 S 198.68 22.41, 200 23.13 S 203.77 25.74, 205 26.6"
          fill="none"/>
    <circle r="4" cx="5" cy="40" fill="#3023AE"/>
    <circle r="4" cx="205" cy="26.6" fill="#C86DD7"/>      
</svg>