<svg width="200" height="50" viewBox="0 0 210 50" xmlns="http://www.w3.org/2000/svg">
    <defs>
        <linearGradient x1="0%" y1="0%" x2="100%" y2="0%" id="a">
            <stop stop-color="#3023AE" offset="0%"/>
            <stop stop-color="#C86DD7" offset="100%"/>
        </linearGradient>
    </defs>
    <path stroke="url(#a)"
          stroke-width="3"
          stroke-linejoin="round"
          stroke-linecap="round"
          d="M5 40 C 6.03 38.91, 8.78 35.6, 10 34.72 S 13.52 33.05, 15 32.81 S 18.52 32.87, 20 33.1 S 23.56 33.91, 25 34.34 S 28.55 36.47, 30 36.08 S 33.71 32.43, 35 31.67 S 38.64 30.81, 40 30.18 S 43.51 26.87, 45 27.04 S 48.58 30.81, 50 31.29 S 53.6 30.94, 55 30.4 S 58.5 27.55, 60 27.46 S 63.6 29.27, 65 29.82 S 68.69 32.13, 70 31.4 S 73.51 24.37, 75 24.25 S 78.51 30.43, 80 30.58 S 84.34 26.63, 85 25.28 S 88.52 9.77, 90 10 S 94.23 25.56, 95 26.84 S 98.51 26.72, 100 26.59 S 103.52 26.22, 105 25.99 S 108.56 24.64, 110 25.06 S 113.59 28.4, 115 28.91 S 118.51 28.51, 120 28.66 S 123.52 29.68, 125 29.89 S 128.5 30.11, 130 30.09 S 133.5 29.79, 135 29.78 S 138.51 30.21, 140 30 S 143.55 28.76, 145 28.37 S 148.52 27.08, 150 27.31 S 153.57 29.45, 155 29.91 S 158.5 30.45, 160 30.53 S 163.52 30.68, 165 30.45 S 168.52 29.26, 170 29 S 173.51 28.89, 175 28.69 S 178.5 27.73, 180 27.64 S 183.5 28.14, 185 28.06 S 188.64 27.73, 190 27.1 S 193.51 23.53, 195 23.39 S 198.59 25.66, 200 26.17 S 203.52 26.75, 205 26.99"
          fill="none"/>
    <circle r="4" cx="5" cy="40" fill="#3023AE"/>
    <circle r="4" cx="205" cy="26.990000000000002" fill="#C86DD7"/>      
</svg>