<svg width="200" height="50" viewBox="0 0 210 50" xmlns="http://www.w3.org/2000/svg">
    <defs>
        <linearGradient x1="0%" y1="0%" x2="100%" y2="0%" id="a">
            <stop stop-color="#3023AE" offset="0%"/>
            <stop stop-color="#C86DD7" offset="100%"/>
        </linearGradient>
    </defs>
    <path stroke="url(#a)"
          stroke-width="3"
          stroke-linejoin="round"
          stroke-linecap="round"
          d="M5 40 C 6.49 39.84, 8.5 39.48, 10 39.48 S 13.5 39.91, 15 39.98 S 18.5 39.98, 20 39.98 S 23.5 39.98, 25 39.98 S 28.5 40.01, 30 39.95 S 33.51 39.72, 35 39.59 S 38.53 39.37, 40 39.09 S 43.5 37.73, 45 37.7 S 48.53 38.58, 50 38.86 S 53.51 39.42, 55 39.57 S 58.5 39.84, 60 39.86 S 63.5 39.74, 65 39.68 S 68.5 39.46, 70 39.43 S 73.5 39.52, 75 39.48 S 78.5 39.12, 80 39.13 S 83.5 39.51, 85 39.56 S 88.5 39.48, 90 39.49 S 93.51 39.76, 95 39.63 S 98.5 38.7, 100 38.59 S 103.5 38.78, 105 38.89 S 108.5 39.28, 110 39.33 S 113.5 39.21, 115 39.21 S 118.5 39.29, 120 39.3 S 123.51 39.44, 125 39.27 S 128.5 38.16, 130 38.17 S 133.51 39.17, 135 39.35 S 138.81 40.32, 140 39.41 S 143.85 32.64, 145 31.68 S 148.54 30.76, 150 31.12 S 153.71 33.35, 155 34.12 S 158.57 36.69, 160 37.14 S 163.51 37.13, 165 37.27 S 169.48 39.52, 170 38.11 S 173.58 10.49, 175 10 S 179.47 33.26, 180 34.66 S 183.53 36.11, 185 36.41 S 188.51 36.53, 190 36.73 S 193.51 37.56, 195 37.76 S 198.5 38, 200 38.05 S 203.5 38.08, 205 38.09"
          fill="none"/>
    <circle r="4" cx="5" cy="40" fill="#3023AE"/>
    <circle r="4" cx="205" cy="38.09" fill="#C86DD7"/>      
</svg>