<svg width="200" height="50" viewBox="0 0 210 50" xmlns="http://www.w3.org/2000/svg">
    <defs>
        <linearGradient x1="0%" y1="0%" x2="100%" y2="0%" id="a">
            <stop stop-color="#3023AE" offset="0%"/>
            <stop stop-color="#C86DD7" offset="100%"/>
        </linearGradient>
    </defs>
    <path stroke="url(#a)"
          stroke-width="3"
          stroke-linejoin="round"
          stroke-linecap="round"
          d="M5 40 C 5.26 38.52, 8.81 12.04, 10 11.13 S 14.37 30.97, 15 32.33 S 18.55 33.26, 20 32.87 S 23.81 30.53, 25 29.61 S 28.53 24.87, 30 25.16 S 33.66 30.92, 35 31.6 S 38.59 30.71, 40 30.2 S 43.77 28.87, 45 28.02 S 48.54 23.64, 50 23.3 S 53.69 24.93, 55 25.66 S 58.5 28.92, 60 28.84 S 63.68 25.83, 65 25.11 S 68.51 23.26, 70 23.39 S 73.5 26.1, 75 25.98 S 78.71 23.39, 80 22.62 S 83.5 19.91, 85 19.98 S 88.59 22.61, 90 23.12 S 93.5 23.64, 95 23.57 S 98.7 23.4, 100 22.66 S 103.57 18.35, 105 17.9 S 108.52 19.8, 110 19.53 S 113.55 16.46, 115 16.08 S 118.51 17.09, 120 16.9 S 123.51 14.93, 125 14.77 S 128.51 15.67, 130 15.81 S 133.5 15.77, 135 15.72 S 138.55 15.09, 140 15.49 S 143.63 19.09, 145 18.49 S 148.56 11.54, 150 11.13 S 153.62 15.09, 155 15.67 S 158.51 15.51, 160 15.36 S 163.5 14.6, 165 14.67 S 168.52 16.08, 170 15.85 S 173.56 13.5, 175 13.09 S 178.53 13.27, 180 13 S 183.56 11.65, 185 11.23 S 188.55 9.7, 190 10.09 S 193.5 13.91, 195 13.9 S 198.51 9.81, 200 10 S 203.96 14.09, 205 15.17"
          fill="none"/>
    <circle r="4" cx="5" cy="40" fill="#3023AE"/>
    <circle r="4" cx="205" cy="15.170000000000002" fill="#C86DD7"/>      
</svg>