<svg width="200" height="50" viewBox="0 0 210 50" xmlns="http://www.w3.org/2000/svg">
    <defs>
        <linearGradient x1="0%" y1="0%" x2="100%" y2="0%" id="a">
            <stop stop-color="#3023AE" offset="0%"/>
            <stop stop-color="#C86DD7" offset="100%"/>
        </linearGradient>
    </defs>
    <path stroke="url(#a)"
          stroke-width="3"
          stroke-linejoin="round"
          stroke-linecap="round"
          d="M5 40 C 6.11 38.99, 8.51 35.56, 10 35.43 S 13.62 38.55, 15 39.14 S 18.5 39.62, 20 39.71 S 23.5 39.71, 25 39.71 S 28.5 39.71, 30 39.71 S 33.5 39.71, 35 39.71 S 38.5 39.71, 40 39.71 S 43.5 39.8, 45 39.71 S 48.5 39.14, 50 39.14 S 53.5 39.71, 55 39.71 S 58.51 39.35, 60 39.14 S 63.5 38.38, 65 38.29 S 68.51 38.4, 70 38.57 S 73.51 39.3, 75 39.43 S 78.5 39.39, 80 39.43 S 83.5 39.67, 85 39.71 S 88.5 39.71, 90 39.71 S 93.5 39.71, 95 39.71 S 98.5 39.71, 100 39.71 S 103.5 39.71, 105 39.71 S 108.5 39.71, 110 39.71 S 113.5 39.71, 115 39.71 S 118.5 39.71, 120 39.71 S 123.5 39.71, 125 39.71 S 129.52 41.13, 130 39.71 S 133.68 10.71, 135 10 S 139.5 32.88, 140 34.29 S 143.62 37.7, 145 38.29 S 148.5 38.48, 150 38.57 S 153.5 38.95, 155 38.86 S 158.5 37.91, 160 38 S 163.52 39.18, 165 39.43 S 168.5 39.75, 170 39.71 S 173.51 39.27, 175 39.14 S 178.5 38.82, 180 38.86 S 183.51 39.3, 185 39.43 S 188.5 39.67, 190 39.71 S 193.5 39.75, 195 39.71 S 198.5 39.51, 200 39.43"
          fill="none"/>
    <circle r="4" cx="5" cy="40" fill="#3023AE"/>
    <circle r="4" cx="200" cy="39.43" fill="#C86DD7"/>      
</svg>