<svg width="200" height="50" viewBox="0 0 210 50" xmlns="http://www.w3.org/2000/svg">
    <defs>
        <linearGradient x1="0%" y1="0%" x2="100%" y2="0%" id="a">
            <stop stop-color="#3023AE" offset="0%"/>
            <stop stop-color="#C86DD7" offset="100%"/>
        </linearGradient>
    </defs>
    <path stroke="url(#a)"
          stroke-width="3"
          stroke-linejoin="round"
          stroke-linecap="round"
          d="M5 40 C 5.3 38.53, 8.53 15.47, 10 15.16 S 14.39 36.54, 15 37.91 S 18.53 37.8, 20 37.49 S 23.5 35.75, 25 35.81 S 28.51 37.78, 30 37.91 S 33.62 37.23, 35 36.65 S 38.62 34.31, 40 33.72 S 43.52 32.1, 45 32.33 S 48.52 35.01, 50 35.26 S 54.03 35.14, 55 34 S 58.5 23.49, 60 23.53 S 63.99 33.17, 65 34.28 S 68.5 34.48, 70 34.56 S 73.59 35.35, 75 34.84 S 78.56 31.35, 80 30.93 S 84.35 33.26, 85 31.91 S 88.82 10.92, 90 10 S 94.22 22.81, 95 24.09 S 98.72 25.69, 100 26.47 S 104.14 31.46, 105 30.23 S 108.87 13.08, 110 12.09 S 113.71 20.67, 115 21.44 S 118.65 17.43, 120 18.09 S 123.6 26.88, 125 26.33 S 128.51 14.4, 130 14.19 S 133.94 23.87, 135 24.93 S 138.61 24.79, 140 24.23 S 143.51 21.02, 145 20.88 S 148.5 23.28, 150 23.26 S 153.6 21.27, 155 20.74 S 158.5 19.51, 160 19.49 S 163.5 20.7, 165 20.6 S 168.56 19.21, 170 18.79 S 173.58 17.18, 175 17.67 S 178.51 22.11, 180 22.28 S 183.99 19.9, 185 18.79 S 188.55 10.88, 190 11.26 S 194 20.32, 195 21.44 S 198.59 21.91, 200 22.42 S 203.67 24.37, 205 25.07"
          fill="none"/>
    <circle r="4" cx="5" cy="40" fill="#3023AE"/>
    <circle r="4" cx="205" cy="25.07" fill="#C86DD7"/>      
</svg>