<svg width="200" height="50" viewBox="0 0 210 50" xmlns="http://www.w3.org/2000/svg">
    <defs>
        <linearGradient x1="0%" y1="0%" x2="100%" y2="0%" id="a">
            <stop stop-color="#3023AE" offset="0%"/>
            <stop stop-color="#C86DD7" offset="100%"/>
        </linearGradient>
    </defs>
    <path stroke="url(#a)"
          stroke-width="3"
          stroke-linejoin="round"
          stroke-linecap="round"
          d="M5 40 C 5.28 38.53, 8.55 13.61, 10 13.21 S 14.42 35.86, 15 37.24 S 18.52 37.51, 20 37.24 S 23.5 35.32, 25 35.41 S 28.5 37.75, 30 37.86 S 33.63 36.78, 35 36.17 S 38.61 33.99, 40 33.42 S 43.51 31.88, 45 32.04 S 48.51 34.31, 50 34.49 S 54.03 34.41, 55 33.27 S 58.5 22.75, 60 22.7 S 64.03 31.82, 65 32.96 S 68.51 34.31, 70 34.49 S 73.52 34.45, 75 34.18 S 78.64 33.29, 80 32.65 S 84.37 30.8, 85 29.44 S 88.83 11.85, 90 10.92 S 94.06 20.31, 95 21.48 S 98.8 22.42, 100 23.32 S 103.98 30.08, 105 28.98 S 109.05 13.61, 110 12.45 S 113.69 15.99, 115 16.73 S 118.77 17.25, 120 18.11 S 123.76 22.93, 125 23.78 S 129.12 26.21, 130 25 S 133.51 10.18, 135 10 S 139.04 22.62, 140 23.78 S 143.63 22.7, 145 22.09 S 148.52 19.59, 150 19.34 S 153.53 20.7, 155 20.41 S 158.51 17.56, 160 17.35 S 163.5 18.92, 165 19.03 S 168.58 18.59, 170 18.11 S 173.52 15.43, 175 15.66 S 178.55 19.24, 180 19.64 S 183.92 19.46, 185 18.42 S 188.52 10.27, 190 10 S 194.01 15.46, 195 16.58 S 198.61 20.78, 200 21.33 S 203.52 20.79, 205 20.56"
          fill="none"/>
    <circle r="4" cx="5" cy="40" fill="#3023AE"/>
    <circle r="4" cx="205" cy="20.56" fill="#C86DD7"/>      
</svg>