<svg width="200" height="50" viewBox="0 0 210 50" xmlns="http://www.w3.org/2000/svg">
    <defs>
        <linearGradient x1="0%" y1="0%" x2="100%" y2="0%" id="a">
            <stop stop-color="#3023AE" offset="0%"/>
            <stop stop-color="#C86DD7" offset="100%"/>
        </linearGradient>
    </defs>
    <path stroke="url(#a)"
          stroke-width="3"
          stroke-linejoin="round"
          stroke-linecap="round"
          d="M5 40 C 5.25 38.52, 9.51 11.42, 10 10 S 14.29 10.06, 15 11.38 S 19.46 27.1, 20 28.5 S 24.19 38.56, 25 37.3 S 29.36 14.4, 30 13.04 S 34.43 14.82, 35 16.21 S 39.39 36.2, 40 37.57 S 43.51 38.32, 45 38.52 S 48.5 38.8, 50 38.89 S 53.5 39.03, 55 39.14 S 58.54 39.93, 60 39.6 S 63.77 37.76, 65 36.9 S 68.58 33.1, 70 32.62 S 73.53 33.27, 75 33.55 S 78.5 34.47, 80 34.5 S 83.52 34.01, 85 33.76 S 88.5 32.73, 90 32.84 S 93.5 34.39, 95 34.5 S 98.5 33.56, 100 33.55 S 103.51 34.32, 105 34.44 S 108.51 34.54, 110 34.37 S 113.52 33.56, 115 33.33 S 118.5 32.79, 120 32.84 S 123.5 33.59, 125 33.64 S 128.51 33.03, 130 33.15 S 133.5 34.43, 135 34.47 S 138.5 33.35, 140 33.45 S 143.52 34.89, 145 35.11 S 148.5 34.9, 150 34.9 S 153.51 34.94, 155 35.08 S 158.5 35.83, 160 35.82 S 163.5 35.06, 165 34.99 S 168.51 35.16, 170 35.33 S 173.52 35.88, 175 36.1 S 178.5 36.79, 180 36.83 S 183.5 36.45, 185 36.4 S 188.5 36.43, 190 36.5 S 193.53 36.6, 195 36.9 S 198.52 38.3, 200 38.52 S 203.5 38.44, 205 38.4"
          fill="none"/>
    <circle r="4" cx="5" cy="40" fill="#3023AE"/>
    <circle r="4" cx="205" cy="38.4" fill="#C86DD7"/>      
</svg>