<svg width="200" height="50" viewBox="0 0 210 50" xmlns="http://www.w3.org/2000/svg">
    <defs>
        <linearGradient x1="0%" y1="0%" x2="100%" y2="0%" id="a">
            <stop stop-color="#3023AE" offset="0%"/>
            <stop stop-color="#C86DD7" offset="100%"/>
        </linearGradient>
    </defs>
    <path stroke="url(#a)"
          stroke-width="3"
          stroke-linejoin="round"
          stroke-linecap="round"
          d="M5 40 C 6.5 40, 8.5 39.99, 10 39.99 S 13.5 40, 15 39.99 S 19.46 41.33, 20 39.93 S 24.52 15.62, 25 14.2 S 29.01 8.87, 30 10 S 34.37 24.29, 35 25.65 S 38.91 30.54, 40 31.57 S 43.56 34.6, 45 35.02 S 48.61 35.02, 50 34.46 S 53.92 32.06, 55 31.02 S 58.58 24.29, 60 24.77 S 63.95 33.31, 65 34.38 S 68.89 35.98, 70 34.98 S 73.72 26.16, 75 25.37 S 78.68 28.08, 80 28.8 S 83.54 30.5, 85 30.82 S 88.53 30.71, 90 31 S 93.5 32.66, 95 32.77 S 98.57 31.28, 100 31.73 S 103.66 36.55, 105 35.88 S 108.83 27.71, 110 26.77 S 113.56 27.45, 115 27.87 S 118.65 28.99, 120 29.65 S 123.63 32.14, 125 32.76 S 128.5 34.11, 130 34.19 S 133.5 33.36, 135 33.31 S 138.51 33.98, 140 33.84 S 143.5 32.35, 145 32.37 S 148.53 33.64, 150 33.95 S 153.51 34.35, 155 34.48 S 158.5 34.82, 160 34.82 S 163.51 34.6, 165 34.48 S 168.51 33.86, 170 34 S 173.58 34.9, 175 35.39 S 178.5 37.35, 180 37.43 S 183.51 36.06, 185 35.93 S 188.5 36.53, 190 36.57 S 193.52 36.43, 195 36.22 S 198.5 35.1, 200 35.14 S 203.55 36.09, 205 36.48"
          fill="none"/>
    <circle r="4" cx="5" cy="40" fill="#3023AE"/>
    <circle r="4" cx="205" cy="36.48" fill="#C86DD7"/>      
</svg>