<svg width="200" height="50" viewBox="0 0 210 50" xmlns="http://www.w3.org/2000/svg">
    <defs>
        <linearGradient x1="0%" y1="0%" x2="100%" y2="0%" id="a">
            <stop stop-color="#3023AE" offset="0%"/>
            <stop stop-color="#C86DD7" offset="100%"/>
        </linearGradient>
    </defs>
    <path stroke="url(#a)"
          stroke-width="3"
          stroke-linejoin="round"
          stroke-linecap="round"
          d="M5 40 C 6.46 39.64, 8.51 38.95, 10 38.75 S 13.5 38.52, 15 38.64 S 18.51 39.36, 20 39.55 S 23.5 39.84, 25 39.89 S 28.5 39.89, 30 39.89 S 33.5 39.99, 35 39.89 S 38.52 39.44, 40 39.2 S 43.5 38.38, 45 38.3 S 48.51 38.51, 50 38.64 S 53.5 39.08, 55 39.2 S 58.5 39.41, 60 39.43 S 63.51 39.51, 65 39.32 S 68.51 38.38, 70 38.18 S 73.51 37.78, 75 37.95 S 79 40.44, 80 39.32 S 84.52 28.12, 85 26.7 S 88.53 9.71, 90 10 S 94.19 27.38, 95 28.64 S 98.66 24.9, 100 25.57 S 103.98 32.54, 105 33.64 S 108.5 36.48, 110 36.36 S 113.5 32.82, 115 32.84 S 118.66 35.8, 120 36.48 S 123.52 37.7, 125 37.95 S 128.5 38.06, 130 38.18 S 133.51 38.61, 135 38.75 S 138.5 39.11, 140 39.09 S 143.5 38.64, 145 38.64 S 148.5 39.12, 150 39.09 S 153.5 38.51, 155 38.41 S 158.5 38.31, 160 38.41 S 163.5 39, 165 39.09 S 168.5 38.93, 170 38.98 S 173.5 39.36, 175 39.43 S 178.5 39.53, 180 39.43 S 183.5 38.85, 185 38.75 S 188.5 38.7, 190 38.75 S 193.5 39.07, 195 39.09 S 198.5 38.86, 200 38.86 S 203.5 39.02, 205 39.09"
          fill="none"/>
    <circle r="4" cx="5" cy="40" fill="#3023AE"/>
    <circle r="4" cx="205" cy="39.09" fill="#C86DD7"/>      
</svg>