<svg width="200" height="50" viewBox="0 0 210 50" xmlns="http://www.w3.org/2000/svg">
    <defs>
        <linearGradient x1="0%" y1="0%" x2="100%" y2="0%" id="a">
            <stop stop-color="#3023AE" offset="0%"/>
            <stop stop-color="#C86DD7" offset="100%"/>
        </linearGradient>
    </defs>
    <path stroke="url(#a)"
          stroke-width="3"
          stroke-linejoin="round"
          stroke-linecap="round"
          d="M5 40 C 5.75 38.7, 9.29 32.64, 10 31.32 S 13.88 22.27, 15 21.27 S 18.57 21.88, 20 22.34 S 23.53 24.76, 25 24.47 S 28.99 19.25, 30 20.36 S 34.1 34.23, 35 35.43 S 38.51 33.62, 40 33.76 S 43.58 35.85, 45 36.35 S 48.51 37.12, 50 37.26 S 53.51 37.06, 55 37.26 S 58.52 38.36, 60 38.63 S 63.61 39.66, 65 39.09 S 68.93 35.57, 70 34.52 S 73.58 29.82, 75 29.34 S 78.5 31.15, 80 31.17 S 84.36 30.85, 85 29.49 S 88.56 10.44, 90 10 S 94.13 25.22, 95 26.45 S 98.58 23.68, 100 24.16 S 103.73 29.01, 105 29.8 S 108.5 30.3, 110 30.41 S 113.73 31.35, 115 30.56 S 118.97 25.25, 120 24.16 S 123.77 19.04, 125 19.9 S 129.07 29.99, 130 31.17 S 133.5 32.5, 135 32.54 S 138.54 31.8, 140 31.47 S 143.73 31.04, 145 30.25 S 148.51 25.39, 150 25.23 S 153.64 28.55, 155 29.19 S 158.62 30.54, 160 29.95 S 163.54 25.25, 165 24.92 S 168.61 27.11, 170 27.66 S 173.5 28.92, 175 28.88 S 178.72 28.14, 180 27.36 S 183.61 23.36, 185 22.79 S 188.65 23.91, 190 23.25 S 193.53 17.61, 195 17.92 S 198.72 24.6, 200 25.38 S 203.55 24.41, 205 24.01"
          fill="none"/>
    <circle r="4" cx="5" cy="40" fill="#3023AE"/>
    <circle r="4" cx="205" cy="24.009999999999998" fill="#C86DD7"/>      
</svg>