<svg width="200" height="50" viewBox="0 0 210 50" xmlns="http://www.w3.org/2000/svg">
    <defs>
        <linearGradient x1="0%" y1="0%" x2="100%" y2="0%" id="a">
            <stop stop-color="#3023AE" offset="0%"/>
            <stop stop-color="#C86DD7" offset="100%"/>
        </linearGradient>
    </defs>
    <path stroke="url(#a)"
          stroke-width="3"
          stroke-linejoin="round"
          stroke-linecap="round"
          d="M5 40 C 5.25 38.52, 8.77 10.85, 10 10 S 14.48 31.69, 15 33.1 S 18.59 36.38, 20 36.9 S 23.5 36.78, 25 36.76 S 28.5 36.82, 30 36.76 S 33.5 36.4, 35 36.34 S 38.58 36.82, 40 36.34 S 43.53 33.25, 45 32.96 S 48.61 33.8, 50 34.37 S 53.56 36.62, 55 37.04 S 58.51 37.47, 60 37.32 S 63.5 36.12, 65 36.06 S 68.5 36.8, 70 36.9 S 73.5 36.86, 75 36.76 S 78.51 36.37, 80 36.2 S 83.5 35.65, 85 35.63 S 88.5 36.08, 90 36.06 S 93.51 35.68, 95 35.49 S 98.5 34.75, 100 34.79 S 103.54 35.42, 105 35.77 S 108.5 37.22, 110 37.18 S 113.51 35.62, 115 35.49 S 118.5 36.42, 120 36.34 S 123.63 35.53, 125 34.93 S 128.51 32.12, 130 31.97 S 133.54 33.61, 135 33.94 S 138.5 34.23, 140 34.23 S 143.5 33.92, 145 33.94 S 148.5 34.43, 150 34.37 S 153.5 33.54, 155 33.52 S 158.53 34.52, 160 34.23 S 163.52 31.8, 165 31.55 S 168.56 32.13, 170 32.54 S 173.6 33.84, 175 34.37 S 178.51 36.13, 180 36.34 S 183.52 36.02, 185 35.77 S 188.56 35.06, 190 34.65 S 193.51 32.79, 195 32.96 S 198.52 35.52, 200 35.77 S 203.54 34.98, 205 34.65"
          fill="none"/>
    <circle r="4" cx="5" cy="40" fill="#3023AE"/>
    <circle r="4" cx="205" cy="34.65" fill="#C86DD7"/>      
</svg>