<svg width="200" height="50" viewBox="0 0 210 50" xmlns="http://www.w3.org/2000/svg">
    <defs>
        <linearGradient x1="0%" y1="0%" x2="100%" y2="0%" id="a">
            <stop stop-color="#3023AE" offset="0%"/>
            <stop stop-color="#C86DD7" offset="100%"/>
        </linearGradient>
    </defs>
    <path stroke="url(#a)"
          stroke-width="3"
          stroke-linejoin="round"
          stroke-linecap="round"
          d="M5 40 C 6.32 39.29, 8.83 38.25, 10 37.31 S 14 33.06, 15 31.94 S 18.83 27.06, 20 26.12 S 23.59 23.37, 25 23.88 S 28.51 29.57, 30 29.7 S 33.5 24.85, 35 24.78 S 38.73 28.45, 40 29.25 S 43.57 31.49, 45 31.04 S 48.51 25.92, 50 26.12 S 54.21 33.66, 55 32.39 S 58.78 10.87, 60 10 S 64.32 23.88, 65 25.22 S 68.57 29.25, 70 29.7 S 73.51 28.16, 75 28.36 S 78.51 30.91, 80 31.04 S 83.54 29.58, 85 29.25 S 88.81 27.9, 90 28.81 S 93.63 36.26, 95 36.87 S 98.73 34.08, 100 33.28 S 103.65 31.26, 105 30.6 S 108.5 28.29, 110 28.36 S 113.5 30.97, 115 31.04 S 118.52 28.54, 120 28.81 S 123.55 32.45, 125 32.84 S 129.18 32.74, 130 31.49 S 133.51 17.74, 135 17.61 S 138.86 29.63, 140 30.6 S 143.54 26.45, 145 26.12 S 148.68 27.65, 150 28.36 S 153.68 32.2, 155 31.49 S 158.65 23.65, 160 22.99 S 163.54 26.24, 165 26.57 S 168.63 24.61, 170 25.22 S 173.65 30.38, 175 31.04 S 178.7 30.9, 180 30.15 S 183.51 25.42, 185 25.22 S 188.63 28.2, 190 28.81 S 193.57 30.15, 195 29.7 S 198.68 26.38, 200 25.67 S 203.55 24.72, 205 24.33"
          fill="none"/>
    <circle r="4" cx="5" cy="40" fill="#3023AE"/>
    <circle r="4" cx="205" cy="24.33" fill="#C86DD7"/>      
</svg>