<svg width="200" height="50" viewBox="0 0 210 50" xmlns="http://www.w3.org/2000/svg">
    <defs>
        <linearGradient x1="0%" y1="0%" x2="100%" y2="0%" id="a">
            <stop stop-color="#3023AE" offset="0%"/>
            <stop stop-color="#C86DD7" offset="100%"/>
        </linearGradient>
    </defs>
    <path stroke="url(#a)"
          stroke-width="3"
          stroke-linejoin="round"
          stroke-linecap="round"
          d="M5 40 C 5.57 38.61, 8.5 27.97, 10 27.86 S 14.01 38.16, 15 39.29 S 18.51 39.39, 20 39.21 S 23.5 38.18, 25 38.1 S 28.51 38.51, 30 38.68 S 33.5 39.15, 35 39.22 S 38.91 40.21, 40 39.18 S 44.51 31.21, 45 29.79 S 48.69 9.27, 50 10 S 54.49 33.95, 55 35.36 S 58.55 37.21, 60 37.58 S 63.5 37.89, 65 37.91 S 68.5 37.76, 70 37.73 S 73.5 37.76, 75 37.74 S 78.5 37.63, 80 37.6 S 83.5 37.63, 85 37.52 S 88.5 36.92, 90 36.88 S 93.5 37.13, 95 37.22 S 98.5 37.4, 100 37.48 S 103.5 37.74, 105 37.74 S 108.5 37.51, 110 37.48 S 113.5 37.61, 115 37.55 S 118.5 36.97, 120 37.05 S 123.5 38.04, 125 38.1 S 128.51 37.63, 130 37.46 S 133.5 36.88, 135 36.93 S 138.5 37.67, 140 37.77 S 143.5 37.73, 145 37.61 S 148.5 37.04, 150 36.98 S 153.51 36.99, 155 37.18 S 158.5 38.22, 160 38.29 S 163.51 37.85, 165 37.67 S 168.5 37.04, 170 37.07 S 173.51 37.65, 175 37.84 S 178.5 38.27, 180 38.33 S 183.5 38.18, 185 38.21 S 188.5 38.48, 190 38.52 S 193.5 38.46, 195 38.48 S 198.5 38.68, 200 38.67 S 203.5 38.47, 205 38.39"
          fill="none"/>
    <circle r="4" cx="5" cy="40" fill="#3023AE"/>
    <circle r="4" cx="205" cy="38.39" fill="#C86DD7"/>      
</svg>