<svg width="200" height="50" viewBox="0 0 210 50" xmlns="http://www.w3.org/2000/svg">
    <defs>
        <linearGradient x1="0%" y1="0%" x2="100%" y2="0%" id="a">
            <stop stop-color="#3023AE" offset="0%"/>
            <stop stop-color="#C86DD7" offset="100%"/>
        </linearGradient>
    </defs>
    <path stroke="url(#a)"
          stroke-width="3"
          stroke-linejoin="round"
          stroke-linecap="round"
          d="M5 40 C 6.1 38.99, 8.62 36.01, 10 35.41 S 13.55 35.26, 15 35.65 S 18.53 37.79, 20 38.08 S 23.61 38.2, 25 37.64 S 28.5 34.03, 30 34.09 S 33.61 37.45, 35 38.01 S 38.5 38.15, 40 38.08 S 43.5 37.63, 45 37.54 S 48.5 37.42, 50 37.49 S 53.5 37.91, 55 37.99 S 58.5 38.03, 60 38.05 S 63.5 38.05, 65 38.12 S 68.5 38.59, 70 38.55 S 73.51 38.03, 75 37.84 S 78.5 37.32, 80 37.3 S 83.5 37.64, 85 37.68 S 88.5 37.62, 90 37.6 S 93.5 37.45, 95 37.54 S 98.5 38.17, 100 38.18 S 103.5 37.68, 105 37.64 S 108.5 37.86, 110 37.9 S 113.5 37.84, 115 37.9 S 118.5 38.31, 120 38.33 S 123.56 38.44, 125 38.01 S 128.5 35.38, 130 35.37 S 133.55 37.55, 135 37.92 S 138.5 37.84, 140 37.88 S 143.5 38.09, 145 38.2 S 148.5 38.65, 150 38.64 S 154.2 39.41, 155 38.14 S 159.5 24.24, 160 22.83 S 164 8.89, 165 10 S 169.34 32.57, 170 33.92 S 173.51 30.65, 175 30.51 S 178.6 32.45, 180 32.99 S 183.52 34.13, 185 34.4 S 188.5 34.78, 190 34.83 S 193.51 34.59, 195 34.74 S 198.51 35.66, 200 35.82 S 203.5 35.81, 205 35.8"
          fill="none"/>
    <circle r="4" cx="5" cy="40" fill="#3023AE"/>
    <circle r="4" cx="205" cy="35.8" fill="#C86DD7"/>      
</svg>