<svg width="200" height="50" viewBox="0 0 210 50" xmlns="http://www.w3.org/2000/svg">
    <defs>
        <linearGradient x1="0%" y1="0%" x2="100%" y2="0%" id="a">
            <stop stop-color="#3023AE" offset="0%"/>
            <stop stop-color="#C86DD7" offset="100%"/>
        </linearGradient>
    </defs>
    <path stroke="url(#a)"
          stroke-width="3"
          stroke-linejoin="round"
          stroke-linecap="round"
          d="M5 40 C 6.19 39.09, 8.59 36.67, 10 36.16 S 13.54 36.06, 15 36.39 S 18.52 38.19, 20 38.42 S 23.58 38.45, 25 37.97 S 28.5 34.95, 30 35.02 S 33.58 37.97, 35 38.45 S 38.5 38.44, 40 38.37 S 43.5 38.09, 45 37.99 S 48.5 37.58, 50 37.67 S 53.5 38.5, 55 38.6 S 58.5 38.32, 60 38.31 S 63.5 38.43, 65 38.51 S 68.5 38.93, 70 38.85 S 73.51 38.14, 75 37.96 S 78.5 37.57, 80 37.62 S 83.5 38.25, 85 38.28 S 88.5 37.83, 90 37.8 S 93.5 37.98, 95 38.1 S 98.5 38.6, 100 38.59 S 103.5 38.1, 105 38 S 108.5 37.88, 110 37.94 S 113.5 38.33, 115 38.43 S 118.52 38.87, 120 38.62 S 123.51 36.89, 125 36.74 S 128.52 37.38, 130 37.62 S 133.51 38.2, 135 38.33 S 138.5 38.52, 140 38.51 S 143.5 38.17, 145 38.26 S 148.57 39.54, 150 39.08 S 154.51 36.44, 155 35.02 S 158.53 10.32, 160 10 S 164.41 31.48, 165 32.86 S 168.5 33.67, 170 33.61 S 173.51 32.27, 175 32.46 S 178.57 34.43, 180 34.88 S 183.5 35.53, 185 35.61 S 188.51 35.27, 190 35.39 S 193.51 36.28, 195 36.44 S 198.5 36.5, 200 36.44 S 203.5 36.18, 205 36.07"
          fill="none"/>
    <circle r="4" cx="5" cy="40" fill="#3023AE"/>
    <circle r="4" cx="205" cy="36.07" fill="#C86DD7"/>      
</svg>