<svg width="200" height="50" viewBox="0 0 210 50" xmlns="http://www.w3.org/2000/svg">
    <defs>
        <linearGradient x1="0%" y1="0%" x2="100%" y2="0%" id="a">
            <stop stop-color="#3023AE" offset="0%"/>
            <stop stop-color="#C86DD7" offset="100%"/>
        </linearGradient>
    </defs>
    <path stroke="url(#a)"
          stroke-width="3"
          stroke-linejoin="round"
          stroke-linecap="round"
          d="M5 40 C 6.49 39.82, 8.5 39.4, 10 39.4 S 13.5 39.91, 15 40 S 18.5 39.99, 20 39.98 S 23.5 39.96, 25 39.96 S 28.5 39.97, 30 39.97 S 33.5 39.99, 35 39.99 S 38.5 39.99, 40 39.99 S 43.5 39.98, 45 39.98 S 48.5 39.99, 50 39.99 S 53.5 40, 55 40 S 58.5 40.01, 60 40 S 63.5 39.96, 65 39.95 S 68.5 39.92, 70 39.92 S 73.5 39.96, 75 39.96 S 79.53 41.37, 80 39.95 S 83.71 10.77, 85 10 S 89.43 32.55, 90 33.94 S 93.67 34.97, 95 34.28 S 98.52 28.53, 100 28.77 S 103.79 35.01, 105 35.89 S 108.5 35.92, 110 36.02 S 113.5 36.59, 115 36.53 S 118.55 36.01, 120 35.62 S 123.51 33.95, 125 33.81 S 128.52 34.48, 130 34.7 S 133.5 35.23, 135 35.28 S 138.5 34.98, 140 35.01 S 143.5 35.51, 145 35.5 S 148.5 34.94, 150 34.92 S 153.5 35.28, 155 35.39 S 158.51 35.8, 160 35.64 S 163.51 34.45, 165 34.32 S 168.5 34.74, 170 34.8 S 173.58 35.17, 175 34.69 S 178.6 31.98, 180 31.44 S 183.5 30.77, 185 30.81 S 188.58 31.23, 190 31.71 S 193.51 34.07, 195 34.2 S 198.5 32.54, 200 32.6 S 203.61 34.05, 205 34.61"
          fill="none"/>
    <circle r="4" cx="5" cy="40" fill="#3023AE"/>
    <circle r="4" cx="205" cy="34.61" fill="#C86DD7"/>      
</svg>