<svg width="200" height="50" viewBox="0 0 210 50" xmlns="http://www.w3.org/2000/svg">
    <defs>
        <linearGradient x1="0%" y1="0%" x2="100%" y2="0%" id="a">
            <stop stop-color="#3023AE" offset="0%"/>
            <stop stop-color="#C86DD7" offset="100%"/>
        </linearGradient>
    </defs>
    <path stroke="url(#a)"
          stroke-width="3"
          stroke-linejoin="round"
          stroke-linecap="round"
          d="M5 40 C 5.25 38.52, 8.54 10.34, 10 10 S 14.51 36.22, 15 37.64 S 18.51 38.58, 20 38.76 S 23.5 38.72, 25 38.84 S 28.5 39.46, 30 39.55 S 33.5 39.47, 35 39.46 S 38.68 40.17, 40 39.46 S 43.69 34.78, 45 34.05 S 48.5 33.86, 50 33.93 S 53.54 34.83, 55 34.5 S 58.58 32.18, 60 31.69 S 63.51 30.85, 65 31.03 S 68.51 33.07, 70 32.93 S 73.51 30.23, 75 30.08 S 78.51 31.8, 80 31.94 S 83.59 31.51, 85 30.99 S 88.52 28.51, 90 28.26 S 93.51 29.49, 95 29.3 S 98.58 27.45, 100 26.98 S 103.5 25.91, 105 25.99 S 108.53 27.2, 110 27.52 S 113.51 28.31, 115 28.18 S 118.57 27.1, 120 26.65 S 123.51 25.15, 125 25 S 128.5 25.66, 130 25.66 S 133.5 25.04, 135 25 S 138.5 25.3, 140 25.37 S 143.53 25.77, 145 25.45 S 148.5 23.19, 150 23.18 S 153.5 25.31, 155 25.37 S 158.5 23.54, 160 23.55 S 163.5 25.48, 165 25.45 S 168.5 23.24, 170 23.35 S 173.5 26.11, 175 26.16 S 178.51 23.88, 180 23.68 S 183.5 24.78, 185 24.79 S 188.5 23.76, 190 23.76 S 193.61 24.23, 195 24.79 S 198.58 27.32, 200 27.81 S 203.51 28.1, 205 28.22"
          fill="none"/>
    <circle r="4" cx="5" cy="40" fill="#3023AE"/>
    <circle r="4" cx="205" cy="28.22" fill="#C86DD7"/>      
</svg>