<svg width="200" height="50" viewBox="0 0 210 50" xmlns="http://www.w3.org/2000/svg">
    <defs>
        <linearGradient x1="0%" y1="0%" x2="100%" y2="0%" id="a">
            <stop stop-color="#3023AE" offset="0%"/>
            <stop stop-color="#C86DD7" offset="100%"/>
        </linearGradient>
    </defs>
    <path stroke="url(#a)"
          stroke-width="3"
          stroke-linejoin="round"
          stroke-linecap="round"
          d="M5 40 C 5.25 38.52, 8.54 10.35, 10 10 S 14.51 36.21, 15 37.63 S 18.51 38.6, 20 38.8 S 23.5 38.93, 25 39 S 28.5 39.23, 30 39.29 S 33.5 39.34, 35 39.42 S 38.52 40.08, 40 39.83 S 43.71 38.53, 45 37.76 S 48.59 34.42, 50 33.9 S 53.5 33.96, 55 34.07 S 58.53 34.97, 60 34.65 S 63.56 32.34, 65 31.91 S 68.52 31.39, 70 31.62 S 73.51 33.6, 75 33.44 S 78.51 30.69, 80 30.54 S 83.52 32.19, 85 32.41 S 88.57 32.49, 90 32.03 S 93.55 29.54, 95 29.17 S 98.5 29.41, 100 29.5 S 103.57 30.24, 105 29.79 S 108.55 26.75, 110 26.35 S 113.55 26.68, 115 27.05 S 118.54 28.56, 120 28.88 S 123.53 29.55, 125 29.25 S 128.57 27.32, 130 26.85 S 133.5 26.05, 135 25.98 S 138.5 26.4, 140 26.39 S 143.5 25.86, 145 25.89 S 148.5 26.63, 150 26.56 S 153.53 25.72, 155 25.44 S 158.51 24.83, 160 24.69 S 163.5 24.41, 165 24.52 S 168.51 25.25, 170 25.44 S 173.5 25.79, 175 25.81 S 178.51 25.74, 180 25.56 S 183.52 24.39, 185 24.61 S 188.51 27.22, 190 27.05 S 193.51 23.69, 195 23.49 S 198.5 25.75, 200 25.68 S 203.67 23.73, 205 23.03"
          fill="none"/>
    <circle r="4" cx="5" cy="40" fill="#3023AE"/>
    <circle r="4" cx="205" cy="23.03" fill="#C86DD7"/>      
</svg>