<svg width="200" height="50" viewBox="0 0 210 50" xmlns="http://www.w3.org/2000/svg">
    <defs>
        <linearGradient x1="0%" y1="0%" x2="100%" y2="0%" id="a">
            <stop stop-color="#3023AE" offset="0%"/>
            <stop stop-color="#C86DD7" offset="100%"/>
        </linearGradient>
    </defs>
    <path stroke="url(#a)"
          stroke-width="3"
          stroke-linejoin="round"
          stroke-linecap="round"
          d="M5 40 C 6.5 40, 8.58 40.47, 10 39.99 S 13.73 37.43, 15 36.64 S 19.47 35.15, 20 33.75 S 23.66 9.32, 25 10 S 29.16 37.57, 30 38.81 S 33.69 25.57, 35 24.85 S 38.5 33.18, 40 33.3 S 43.74 24.8, 45 25.62 S 49.04 38.63, 50 39.78 S 53.5 37.65, 55 37.59 S 58.56 39.83, 60 39.41 S 63.63 35.27, 65 34.65 S 68.5 34.94, 70 34.88 S 73.5 34.12, 75 34.22 S 78.51 35.38, 80 35.57 S 83.5 35.46, 85 35.52 S 88.5 36.12, 90 36 S 93.5 34.75, 95 34.74 S 98.51 35.78, 100 35.95 S 103.51 36.08, 105 35.88 S 108.5 34.53, 110 34.58 S 113.51 36.07, 115 36.24 S 118.5 35.8, 120 35.72 S 123.5 35.65, 125 35.71 S 128.51 35.99, 130 36.13 S 133.5 36.56, 135 36.63 S 138.5 36.72, 140 36.63 S 143.5 36.04, 145 36.06 S 148.5 36.69, 150 36.77 S 153.5 36.6, 155 36.59 S 158.5 36.75, 160 36.73 S 163.5 36.41, 165 36.46 S 168.5 37.06, 170 37.08 S 173.5 36.63, 175 36.58 S 178.5 36.7, 180 36.75 S 183.5 36.82, 185 36.9 S 188.5 37.18, 190 37.28 S 193.5 37.52, 195 37.6 S 198.5 37.8, 200 37.8 S 203.5 37.67, 205 37.61"
          fill="none"/>
    <circle r="4" cx="5" cy="40" fill="#3023AE"/>
    <circle r="4" cx="205" cy="37.61" fill="#C86DD7"/>      
</svg>