<svg width="200" height="50" viewBox="0 0 210 50" xmlns="http://www.w3.org/2000/svg">
    <defs>
        <linearGradient x1="0%" y1="0%" x2="100%" y2="0%" id="a">
            <stop stop-color="#3023AE" offset="0%"/>
            <stop stop-color="#C86DD7" offset="100%"/>
        </linearGradient>
    </defs>
    <path stroke="url(#a)"
          stroke-width="3"
          stroke-linejoin="round"
          stroke-linecap="round"
          d="M5 40 C 6.49 39.87, 8.5 39.62, 10 39.58 S 14.41 41.13, 15 39.75 S 18.53 16.45, 20 16.15 S 24.4 36.34, 25 37.71 S 28.51 38.71, 30 38.85 S 33.51 38.78, 35 38.65 S 38.5 38, 40 37.95 S 43.5 38.28, 45 38.32 S 48.5 38.23, 50 38.21 S 53.98 39.29, 55 38.19 S 58.52 27.66, 60 27.43 S 63.92 35.6, 65 36.65 S 68.51 37.02, 70 37.15 S 73.5 37.49, 75 37.52 S 78.5 37.38, 80 37.32 S 83.5 37.1, 85 37.15 S 89.48 39.06, 90 37.65 S 93.53 10.32, 95 10 S 99.47 34.09, 100 35.49 S 103.51 36.42, 105 36.61 S 108.5 36.75, 110 36.77 S 113.5 36.73, 115 36.72 S 118.51 36.86, 120 36.71 S 123.5 35.73, 125 35.73 S 128.5 36.64, 130 36.72 S 133.5 36.33, 135 36.28 S 138.52 36.6, 140 36.37 S 143.5 34.67, 145 34.76 S 148.52 36.7, 150 36.94 S 153.5 36.36, 155 36.35 S 158.7 37.62, 160 36.87 S 163.5 30.69, 165 30.61 S 168.68 35.61, 170 36.32 S 173.5 35.94, 175 35.98 S 178.5 36.52, 180 36.58 S 183.5 36.45, 185 36.37 S 188.5 36.08, 190 36.04 S 193.67 36.76, 195 36.07 S 198.51 31, 200 30.85 S 203.85 34.09, 205 35.06"
          fill="none"/>
    <circle r="4" cx="5" cy="40" fill="#3023AE"/>
    <circle r="4" cx="205" cy="35.06" fill="#C86DD7"/>      
</svg>