<svg width="200" height="50" viewBox="0 0 210 50" xmlns="http://www.w3.org/2000/svg">
    <defs>
        <linearGradient x1="0%" y1="0%" x2="100%" y2="0%" id="a">
            <stop stop-color="#3023AE" offset="0%"/>
            <stop stop-color="#C86DD7" offset="100%"/>
        </linearGradient>
    </defs>
    <path stroke="url(#a)"
          stroke-width="3"
          stroke-linejoin="round"
          stroke-linecap="round"
          d="M5 40 C 5.9 38.8, 9.02 34.47, 10 33.33 S 13.85 29.29, 15 28.33 S 18.66 24.33, 20 25 S 23.66 32.66, 25 33.33 S 28.52 30.25, 30 30 S 33.58 31.2, 35 31.67 S 38.66 34, 40 33.33 S 43.85 27.63, 45 26.67 S 49.02 23.86, 50 25 S 53.52 38.08, 55 38.33 S 59.17 27.92, 60 26.67 S 64.1 24.53, 65 23.33 S 68.85 14.29, 70 13.33 S 73.94 13.94, 75 15 S 79.1 22.13, 80 23.33 S 83.5 28.33, 85 28.33 S 88.58 23.8, 90 23.33 S 93.52 25.25, 95 25 S 98.5 21.67, 100 21.67 S 103.52 24.75, 105 25 S 108.58 23.8, 110 23.33 S 113.58 22.14, 115 21.67 S 118.5 20, 120 20 S 123.75 22.5, 125 21.67 S 128.52 13.58, 130 13.33 S 134.1 18.8, 135 20 S 138.58 27.14, 140 26.67 S 143.85 17.63, 145 16.67 S 148.75 17.5, 150 18.33 S 153.52 23.08, 155 23.33 S 158.66 20.67, 160 20 S 163.66 17.66, 165 18.33 S 168.5 25, 170 25 S 174.17 19.58, 175 18.33 S 178.85 9.04, 180 10 S 184.02 25.53, 185 26.67 S 189.17 22.92, 190 21.67 S 193.58 12.15, 195 11.67 S 199.1 17.13, 200 18.33 S 204.1 23.8, 205 25"
          fill="none"/>
    <circle r="4" cx="5" cy="40" fill="#3023AE"/>
    <circle r="4" cx="205" cy="25" fill="#C86DD7"/>      
</svg>