<svg width="200" height="50" viewBox="0 0 210 50" xmlns="http://www.w3.org/2000/svg">
    <defs>
        <linearGradient x1="0%" y1="0%" x2="100%" y2="0%" id="a">
            <stop stop-color="#3023AE" offset="0%"/>
            <stop stop-color="#C86DD7" offset="100%"/>
        </linearGradient>
    </defs>
    <path stroke="url(#a)"
          stroke-width="3"
          stroke-linejoin="round"
          stroke-linecap="round"
          d="M5 40 C 6.5 39.93, 8.69 40.49, 10 39.75 S 13.51 34.49, 15 34.34 S 18.68 38.06, 20 38.77 S 23.51 39.6, 25 39.75 S 28.5 39.86, 30 39.75 S 33.5 39.06, 35 39.02 S 38.78 40.38, 40 39.51 S 43.65 32.55, 45 31.89 S 48.62 34.01, 50 34.59 S 53.56 36.49, 55 36.07 S 59.14 32.87, 60 31.64 S 63.6 22.35, 65 21.8 S 69.03 28.84, 70 27.7 S 73.85 10.96, 75 10 S 79.17 18.09, 80 19.34 S 83.69 25.74, 85 25 S 88.53 13.4, 90 13.69 S 94.1 25.77, 95 26.97 S 98.52 27.19, 100 26.97 S 103.56 25.91, 105 25.49 S 108.51 23.84, 110 24.02 S 113.51 26.9, 115 26.72 S 118.83 23.73, 120 22.79 S 123.63 19.22, 125 18.61 S 128.83 17.42, 130 18.36 S 133.5 26.68, 135 26.72 S 138.6 19.16, 140 18.61 S 143.52 22.57, 145 22.79 S 148.5 20.15, 150 20.08 S 153.58 21.81, 155 22.3 S 158.54 23.2, 160 23.52 S 164.04 25.66, 165 24.51 S 168.84 12.43, 170 11.48 S 173.71 15.63, 175 16.39 S 178.85 16.42, 180 17.38 S 183.58 24.26, 185 24.75 S 189.15 22.05, 190 20.82 S 193.62 10.83, 195 10.25 S 198.55 16.25, 200 16.64 S 203.79 13.84, 205 12.95"
          fill="none"/>
    <circle r="4" cx="5" cy="40" fill="#3023AE"/>
    <circle r="4" cx="205" cy="12.95" fill="#C86DD7"/>      
</svg>