<svg width="200" height="50" viewBox="0 0 210 50" xmlns="http://www.w3.org/2000/svg">
    <defs>
        <linearGradient x1="0%" y1="0%" x2="100%" y2="0%" id="a">
            <stop stop-color="#3023AE" offset="0%"/>
            <stop stop-color="#C86DD7" offset="100%"/>
        </linearGradient>
    </defs>
    <path stroke="url(#a)"
          stroke-width="3"
          stroke-linejoin="round"
          stroke-linecap="round"
          d="M5 40 C 5.91 38.81, 8.96 34.56, 10 33.48 S 13.55 29.19, 15 29.57 S 18.82 35.17, 20 36.09 S 23.74 38.21, 25 37.39 S 29.03 30.71, 30 29.57 S 33.67 24.96, 35 25.65 S 38.96 33.7, 40 34.78 S 43.96 37.17, 45 36.09 S 48.67 25.04, 50 24.35 S 53.89 29.86, 55 30.87 S 58.51 33.67, 60 33.48 S 63.74 30.39, 65 29.57 S 68.74 26.14, 70 26.96 S 73.82 35.17, 75 36.09 S 78.5 34.78, 80 34.78 S 83.82 37.01, 85 36.09 S 88.74 27.78, 90 26.96 S 93.55 29.19, 95 29.57 S 98.67 28.88, 100 29.57 S 103.51 34.97, 105 34.78 S 108.96 29.34, 110 28.26 S 113.55 24.73, 115 24.35 S 118.55 25.27, 120 25.65 S 124.19 28.22, 125 26.96 S 128.51 10.19, 130 10 S 134.03 24.51, 135 25.65 S 138.51 21.93, 140 21.74 S 143.74 23.53, 145 24.35 S 148.82 29.18, 150 28.26 S 153.51 16.33, 155 16.52 S 159.09 28.38, 160 29.57 S 163.82 30.49, 165 29.57 S 168.51 21.93, 170 21.74 S 173.55 27.88, 175 28.26 S 178.51 24.54, 180 24.35 S 183.5 26.96, 185 26.96 S 188.6 24.9, 190 24.35 S 193.51 22.85, 195 23.04 S 198.89 24.64, 200 25.65 S 204.09 30.98, 205 32.17"
          fill="none"/>
    <circle r="4" cx="5" cy="40" fill="#3023AE"/>
    <circle r="4" cx="205" cy="32.17" fill="#C86DD7"/>      
</svg>