<svg width="200" height="50" viewBox="0 0 210 50" xmlns="http://www.w3.org/2000/svg">
    <defs>
        <linearGradient x1="0%" y1="0%" x2="100%" y2="0%" id="a">
            <stop stop-color="#3023AE" offset="0%"/>
            <stop stop-color="#C86DD7" offset="100%"/>
        </linearGradient>
    </defs>
    <path stroke="url(#a)"
          stroke-width="3"
          stroke-linejoin="round"
          stroke-linecap="round"
          d="M5 40 C 5.25 38.52, 8.51 10.15, 10 10 S 14.52 37.56, 15 38.98 S 18.5 39.3, 20 39.39 S 23.5 39.64, 25 39.61 S 28.5 39.19, 30 39.19 S 33.5 39.52, 35 39.61 S 38.5 39.79, 40 39.8 S 43.5 39.68, 45 39.66 S 48.5 39.7, 50 39.68 S 53.5 39.54, 55 39.54 S 58.5 39.65, 60 39.65 S 63.5 39.56, 65 39.57 S 68.5 39.68, 70 39.72 S 73.5 39.83, 75 39.83 S 78.5 39.76, 80 39.71 S 83.5 39.51, 85 39.52 S 88.5 39.75, 90 39.75 S 93.5 39.56, 95 39.54 S 98.5 39.58, 100 39.62 S 103.5 39.8, 105 39.82 S 108.5 39.76, 110 39.75 S 113.5 39.76, 115 39.73 S 118.5 39.55, 120 39.55 S 123.5 39.78, 125 39.76 S 128.5 39.45, 130 39.44 S 133.5 39.69, 135 39.69 S 138.5 39.46, 140 39.46 S 143.5 39.69, 145 39.72 S 148.5 39.67, 150 39.66 S 153.5 39.68, 155 39.66 S 158.5 39.51, 160 39.52 S 163.5 39.74, 165 39.75 S 168.5 39.6, 170 39.58 S 173.5 39.66, 175 39.64 S 178.5 39.44, 180 39.43 S 183.5 39.52, 185 39.57 S 188.5 39.74, 190 39.76 S 193.5 39.73, 195 39.69 S 198.5 39.48, 200 39.48 S 203.5 39.62, 205 39.68"
          fill="none"/>
    <circle r="4" cx="5" cy="40" fill="#3023AE"/>
    <circle r="4" cx="205" cy="39.68" fill="#C86DD7"/>      
</svg>