<svg width="200" height="50" viewBox="0 0 210 50" xmlns="http://www.w3.org/2000/svg">
    <defs>
        <linearGradient x1="0%" y1="0%" x2="100%" y2="0%" id="a">
            <stop stop-color="#3023AE" offset="0%"/>
            <stop stop-color="#C86DD7" offset="100%"/>
        </linearGradient>
    </defs>
    <path stroke="url(#a)"
          stroke-width="3"
          stroke-linejoin="round"
          stroke-linecap="round"
          d="M5 40 C 5.25 38.52, 8.51 10.14, 10 10 S 14.51 37.61, 15 39.03 S 18.5 39.03, 20 39.03 S 23.5 39.03, 25 39.03 S 29.07 40.2, 30 39.03 S 33.53 26.73, 35 26.45 S 39.07 35.93, 40 37.1 S 43.53 38.75, 45 39.03 S 48.5 39.03, 50 39.03 S 53.5 39.03, 55 39.03 S 58.5 39.03, 60 39.03 S 63.53 39.31, 65 39.03 S 68.65 37.75, 70 37.1 S 73.76 35.03, 75 34.19 S 78.51 30.18, 80 30.32 S 83.7 34.41, 85 35.16 S 88.51 36.27, 90 36.13 S 93.53 33.91, 95 34.19 S 98.56 37.64, 100 38.06 S 103.56 37.52, 105 37.1 S 108.53 35.45, 110 35.16 S 113.6 34.62, 115 35.16 S 118.56 38.61, 120 39.03 S 123.51 38.2, 125 38.06 S 128.51 38.2, 130 38.06 S 133.51 36.96, 135 37.1 S 138.53 38.75, 140 39.03 S 143.51 39.17, 145 39.03 S 148.51 38.2, 150 38.06 S 153.51 37.92, 155 38.06 S 158.56 39.45, 160 39.03 S 163.5 35.16, 165 35.16 S 168.56 38.61, 170 39.03 S 173.5 38.06, 175 38.06 S 178.56 39.45, 180 39.03 S 183.51 35.3, 185 35.16 S 188.53 37.77, 190 38.06 S 193.5 37.1, 195 37.1 S 198.56 38.48, 200 38.06 S 203.81 35.11, 205 34.19"
          fill="none"/>
    <circle r="4" cx="5" cy="40" fill="#3023AE"/>
    <circle r="4" cx="205" cy="34.19" fill="#C86DD7"/>      
</svg>