<svg width="200" height="50" viewBox="0 0 210 50" xmlns="http://www.w3.org/2000/svg">
    <defs>
        <linearGradient x1="0%" y1="0%" x2="100%" y2="0%" id="a">
            <stop stop-color="#3023AE" offset="0%"/>
            <stop stop-color="#C86DD7" offset="100%"/>
        </linearGradient>
    </defs>
    <path stroke="url(#a)"
          stroke-width="3"
          stroke-linejoin="round"
          stroke-linecap="round"
          d="M5 40 C 5.67 38.66, 8.51 30.17, 10 30 S 13.88 37.89, 15 38.89 S 18.5 38.89, 20 38.89 S 23.5 38.89, 25 38.89 S 29.51 40.31, 30 38.89 S 33.51 10.17, 35 10 S 39.3 36.45, 40 37.78 S 43.63 29.5, 45 28.89 S 48.54 33, 50 33.33 S 54.3 32.44, 55 31.11 S 58.75 15.27, 60 14.44 S 64.26 23.13, 65 24.44 S 68.63 31.61, 70 32.22 S 73.51 28.72, 75 28.89 S 78.58 32.86, 80 33.33 S 83.69 32.95, 85 32.22 S 88.82 28.7, 90 27.78 S 93.75 25.27, 95 24.44 S 98.88 20.11, 100 21.11 S 104.05 32.17, 105 33.33 S 108.75 34.16, 110 33.33 S 113.51 26.84, 115 26.67 S 118.58 31.75, 120 32.22 S 123.51 30.17, 125 30 S 128.54 31.44, 130 31.11 S 133.5 27.78, 135 27.78 S 138.94 30.05, 140 31.11 S 143.69 37.05, 145 37.78 S 148.75 37.5, 150 36.67 S 153.69 31.84, 155 31.11 S 158.63 30.5, 160 31.11 S 163.54 35.23, 165 35.56 S 168.69 34.06, 170 33.33 S 173.51 29.83, 175 30 S 178.82 33.52, 180 34.44 S 183.63 38.39, 185 37.78 S 188.88 31, 190 30 S 193.5 28.89, 195 28.89 S 198.54 30.33, 200 30 S 203.75 27.5, 205 26.67"
          fill="none"/>
    <circle r="4" cx="5" cy="40" fill="#3023AE"/>
    <circle r="4" cx="205" cy="26.67" fill="#C86DD7"/>      
</svg>