<svg width="200" height="50" viewBox="0 0 210 50" xmlns="http://www.w3.org/2000/svg">
    <defs>
        <linearGradient x1="0%" y1="0%" x2="100%" y2="0%" id="a">
            <stop stop-color="#3023AE" offset="0%"/>
            <stop stop-color="#C86DD7" offset="100%"/>
        </linearGradient>
    </defs>
    <path stroke="url(#a)"
          stroke-width="3"
          stroke-linejoin="round"
          stroke-linecap="round"
          d="M5 40 C 5.81 38.74, 8.52 32.47, 10 32.23 S 13.69 37.64, 15 38.37 S 18.51 37.99, 20 37.83 S 23.5 37.18, 25 37.29 S 28.51 38.39, 30 38.55 S 33.51 38.56, 35 38.37 S 38.52 37.5, 40 37.29 S 43.52 36.69, 45 36.93 S 48.51 38.76, 50 38.92 S 53.5 38.01, 55 38.01 S 58.5 38.81, 60 38.92 S 63.5 38.79, 65 38.73 S 68.5 38.44, 70 38.55 S 73.51 39.3, 75 39.46 S 78.5 39.59, 80 39.64 S 83.86 40.79, 85 39.82 S 88.84 32.09, 90 31.14 S 93.51 31.53, 95 31.69 S 98.51 32.37, 100 32.23 S 103.6 31.31, 105 30.78 S 108.67 29.13, 110 28.43 S 113.62 26.14, 115 25.54 S 118.51 24.23, 120 24.1 S 123.67 25.34, 125 24.64 S 128.66 19.54, 130 18.86 S 133.58 19.09, 135 19.58 S 138.5 22.26, 140 22.29 S 143.71 20.53, 145 19.76 S 148.5 16.22, 150 16.33 S 153.56 20.9, 155 20.48 S 158.52 13.7, 160 13.43 S 163.62 18.09, 165 18.67 S 168.5 17.7, 170 17.59 S 173.51 18.11, 175 17.95 S 178.52 16.24, 180 16.51 S 183.64 19.12, 185 19.76 S 188.5 21.09, 190 21.2 S 194 21.6, 195 20.48 S 198.5 10.03, 200 10 S 204.34 18.95, 205 20.3"
          fill="none"/>
    <circle r="4" cx="5" cy="40" fill="#3023AE"/>
    <circle r="4" cx="205" cy="20.3" fill="#C86DD7"/>      
</svg>