<svg width="200" height="50" viewBox="0 0 210 50" xmlns="http://www.w3.org/2000/svg">
    <defs>
        <linearGradient x1="0%" y1="0%" x2="100%" y2="0%" id="a">
            <stop stop-color="#3023AE" offset="0%"/>
            <stop stop-color="#C86DD7" offset="100%"/>
        </linearGradient>
    </defs>
    <path stroke="url(#a)"
          stroke-width="3"
          stroke-linejoin="round"
          stroke-linecap="round"
          d="M5 40 C 6.5 39.95, 8.5 39.88, 10 39.82 S 13.5 39.68, 15 39.58 S 18.53 39.45, 20 39.15 S 24.1 38.72, 25 37.52 S 28.55 26.28, 30 25.91 S 33.94 33.92, 35 34.98 S 38.52 35.59, 40 35.83 S 43.5 36.59, 45 36.61 S 48.58 36.43, 50 35.95 S 53.5 33.27, 55 33.23 S 58.52 35.47, 60 35.71 S 63.5 34.94, 65 34.86 S 68.51 35.34, 70 35.16 S 73.53 33.94, 75 33.65 S 78.5 33.21, 80 33.17 S 83.5 33.35, 85 33.35 S 88.56 33.57, 90 33.17 S 93.52 30.8, 95 30.56 S 98.57 31.98, 100 31.53 S 103.61 27.99, 105 27.42 S 108.97 28.51, 110 27.42 S 113.68 17.47, 115 16.77 S 118.71 22.86, 120 22.1 S 123.88 11.91, 125 10.91 S 128.82 12.22, 130 13.15 S 133.9 17.76, 135 18.77 S 138.56 22.75, 140 22.34 S 143.59 16.45, 145 15.93 S 148.5 18.59, 150 18.65 S 153.87 17.33, 155 16.35 S 158.63 9.39, 160 10 S 164.07 19.65, 165 20.83 S 168.5 22.65, 170 22.7 S 173.5 21.31, 175 21.19 S 178.5 22, 180 21.92 S 183.56 21.08, 185 20.65 S 188.55 18.49, 190 18.89 S 193.6 22.9, 195 23.43 S 198.53 22.96, 200 22.64 S 203.55 21.65, 205 21.25"
          fill="none"/>
    <circle r="4" cx="5" cy="40" fill="#3023AE"/>
    <circle r="4" cx="205" cy="21.25" fill="#C86DD7"/>      
</svg>