<svg width="200" height="50" viewBox="0 0 210 50" xmlns="http://www.w3.org/2000/svg">
    <defs>
        <linearGradient x1="0%" y1="0%" x2="100%" y2="0%" id="a">
            <stop stop-color="#3023AE" offset="0%"/>
            <stop stop-color="#C86DD7" offset="100%"/>
        </linearGradient>
    </defs>
    <path stroke="url(#a)"
          stroke-width="3"
          stroke-linejoin="round"
          stroke-linecap="round"
          d="M5 40 C 5.48 38.58, 8.83 26.27, 10 25.33 S 13.94 30.94, 15 32 S 18.64 34.7, 20 35.33 S 23.61 37.23, 25 36.67 S 28.58 31.81, 30 31.33 S 33.64 32.7, 35 33.33 S 38.55 35.61, 40 36 S 43.53 36.29, 45 36 S 48.55 33.61, 50 34 S 53.5 38.67, 55 38.67 S 58.55 34.39, 60 34 S 63.5 36.1, 65 36 S 68.61 33.89, 70 33.33 S 73.61 31.44, 75 32 S 78.61 36.77, 80 37.33 S 83.58 36.47, 85 36 S 88.58 34.47, 90 34 S 93.5 32.57, 95 32.67 S 98.58 34.2, 100 34.67 S 103.51 35.8, 105 36 S 108.64 36.63, 110 36 S 113.71 32.1, 115 31.33 S 118.51 30.2, 120 30 S 123.5 30.1, 125 30 S 128.61 28.77, 130 29.33 S 133.53 33.71, 135 34 S 138.5 31.33, 140 31.33 S 143.51 33.8, 145 34 S 148.58 32.2, 150 32.67 S 153.5 37.23, 155 37.33 S 158.5 33.33, 160 33.33 S 163.61 36.77, 165 37.33 S 168.5 37.23, 170 37.33 S 173.55 38.39, 175 38 S 178.5 34.67, 180 34.67 S 183.51 38.2, 185 38 S 189.5 34.74, 190 33.33 S 193.58 10.47, 195 10 S 199.31 28.67, 200 30 S 203.51 29.53, 205 29.33"
          fill="none"/>
    <circle r="4" cx="5" cy="40" fill="#3023AE"/>
    <circle r="4" cx="205" cy="29.33" fill="#C86DD7"/>      
</svg>