<svg width="200" height="50" viewBox="0 0 210 50" xmlns="http://www.w3.org/2000/svg">
    <defs>
        <linearGradient x1="0%" y1="0%" x2="100%" y2="0%" id="a">
            <stop stop-color="#3023AE" offset="0%"/>
            <stop stop-color="#C86DD7" offset="100%"/>
        </linearGradient>
    </defs>
    <path stroke="url(#a)"
          stroke-width="3"
          stroke-linejoin="round"
          stroke-linecap="round"
          d="M5 40 C 5.25 38.52, 9.47 11.4, 10 10 S 14.42 11.91, 15 13.29 S 19.41 32.51, 20 33.89 S 23.59 36.21, 25 36.72 S 28.5 37.54, 30 37.53 S 33.51 36.82, 35 36.65 S 38.5 36.48, 40 36.37 S 43.5 35.78, 45 35.9 S 48.51 37.31, 50 37.14 S 54.27 36.08, 55 34.77 S 58.5 19.12, 60 19.15 S 64.26 33.67, 65 34.97 S 68.53 36.45, 70 36.76 S 73.5 37.18, 75 37.07 S 78.51 36.23, 80 36.05 S 83.51 35.66, 85 35.83 S 88.52 36.92, 90 37.18 S 93.5 37.54, 95 37.61 S 98.5 37.66, 100 37.62 S 103.5 37.31, 105 37.33 S 108.5 37.71, 110 37.74 S 113.5 37.55, 115 37.52 S 118.5 37.5, 120 37.51 S 123.5 37.6, 125 37.59 S 128.5 37.38, 130 37.46 S 133.5 38.1, 135 38.11 S 138.51 37.65, 140 37.5 S 143.5 37.1, 145 37.11 S 148.5 37.48, 150 37.56 S 153.5 37.64, 155 37.66 S 158.5 37.71, 160 37.67 S 163.5 37.38, 165 37.4 S 168.51 37.69, 170 37.81 S 173.51 38.35, 175 38.22 S 178.51 37.1, 180 36.97 S 183.51 37.21, 185 37.35 S 188.5 37.88, 190 37.91 S 193.5 37.65, 195 37.57 S 198.5 37.3, 200 37.36 S 203.51 37.77, 205 37.94"
          fill="none"/>
    <circle r="4" cx="5" cy="40" fill="#3023AE"/>
    <circle r="4" cx="205" cy="37.94" fill="#C86DD7"/>      
</svg>