<svg width="200" height="50" viewBox="0 0 210 50" xmlns="http://www.w3.org/2000/svg">
    <defs>
        <linearGradient x1="0%" y1="0%" x2="100%" y2="0%" id="a">
            <stop stop-color="#3023AE" offset="0%"/>
            <stop stop-color="#C86DD7" offset="100%"/>
        </linearGradient>
    </defs>
    <path stroke="url(#a)"
          stroke-width="3"
          stroke-linejoin="round"
          stroke-linecap="round"
          d="M5 40 C 5.25 38.52, 8.79 10.88, 10 10 S 14.48 31.29, 15 32.7 S 18.65 36.7, 20 37.34 S 23.51 37.57, 25 37.45 S 28.5 36.57, 30 36.52 S 33.94 38.17, 35 37.1 S 38.52 26.67, 40 26.42 S 43.96 34.35, 45 35.43 S 48.52 36.56, 50 36.82 S 53.5 37.22, 55 37.17 S 58.5 36.4, 60 36.51 S 63.51 37.69, 65 37.89 S 68.5 37.84, 70 37.85 S 73.5 37.99, 75 37.97 S 78.5 37.7, 80 37.7 S 83.5 37.93, 85 37.96 S 88.5 37.9, 90 37.92 S 93.5 38.15, 95 38.09 S 98.5 37.57, 100 37.55 S 103.5 37.91, 105 37.96 S 108.5 37.88, 110 37.88 S 113.5 37.92, 115 37.98 S 118.5 38.38, 120 38.3 S 123.5 37.47, 125 37.45 S 128.5 38.08, 130 38.14 S 133.5 37.9, 135 37.84 S 138.55 38.16, 140 37.76 S 143.51 35.2, 145 35.08 S 148.54 36.6, 150 36.93 S 153.51 37.2, 155 37.37 S 158.5 37.96, 160 38.04 S 163.5 37.84, 165 37.88 S 168.5 38.27, 170 38.33 S 173.5 38.26, 175 38.27 S 178.5 38.4, 180 38.39 S 183.5 38.21, 185 38.2 S 188.5 38.39, 190 38.31 S 193.5 37.72, 195 37.65 S 198.5 37.78, 200 37.85 S 203.5 38.04, 205 38.12"
          fill="none"/>
    <circle r="4" cx="5" cy="40" fill="#3023AE"/>
    <circle r="4" cx="205" cy="38.12" fill="#C86DD7"/>      
</svg>