<svg width="200" height="50" viewBox="0 0 210 50" xmlns="http://www.w3.org/2000/svg">
    <defs>
        <linearGradient x1="0%" y1="0%" x2="100%" y2="0%" id="a">
            <stop stop-color="#3023AE" offset="0%"/>
            <stop stop-color="#C86DD7" offset="100%"/>
        </linearGradient>
    </defs>
    <path stroke="url(#a)"
          stroke-width="3"
          stroke-linejoin="round"
          stroke-linecap="round"
          d="M5 40 C 5.25 38.52, 8.63 10.61, 10 10 S 14.47 34.19, 15 35.59 S 18.52 36.13, 20 36.36 S 23.52 36.88, 25 37.12 S 28.5 37.92, 30 38.01 S 33.5 37.8, 35 37.75 S 38.5 37.65, 40 37.67 S 43.5 37.81, 45 37.91 S 48.51 38.19, 50 38.32 S 53.51 38.96, 55 38.76 S 58.87 37.96, 60 36.97 S 63.5 29.98, 65 29.96 S 68.77 35.99, 70 36.84 S 73.5 36.85, 75 36.87 S 78.5 36.98, 80 36.99 S 83.51 36.84, 85 36.96 S 88.51 37.62, 90 37.81 S 93.5 38.28, 95 38.23 S 98.53 37.79, 100 37.47 S 103.5 36.02, 105 36.04 S 108.52 37.36, 110 37.6 S 113.5 37.61, 115 37.66 S 118.5 37.85, 120 37.92 S 123.5 38.11, 125 38.15 S 128.5 38.2, 130 38.16 S 133.53 38.17, 135 37.89 S 138.5 36.36, 140 36.24 S 143.51 36.88, 145 37.09 S 148.5 37.56, 150 37.66 S 153.5 37.79, 155 37.74 S 158.5 37.38, 160 37.35 S 163.52 37.78, 165 37.53 S 168.51 35.81, 170 35.65 S 173.5 36.32, 175 36.44 S 178.51 36.28, 180 36.45 S 183.51 37.43, 185 37.58 S 188.5 37.54, 190 37.47 S 193.5 37.15, 195 37.14 S 198.5 37.32, 200 37.39 S 203.5 37.54, 205 37.61"
          fill="none"/>
    <circle r="4" cx="5" cy="40" fill="#3023AE"/>
    <circle r="4" cx="205" cy="37.61" fill="#C86DD7"/>      
</svg>