<svg width="200" height="50" viewBox="0 0 210 50" xmlns="http://www.w3.org/2000/svg">
    <defs>
        <linearGradient x1="0%" y1="0%" x2="100%" y2="0%" id="a">
            <stop stop-color="#3023AE" offset="0%"/>
            <stop stop-color="#C86DD7" offset="100%"/>
        </linearGradient>
    </defs>
    <path stroke="url(#a)"
          stroke-width="3"
          stroke-linejoin="round"
          stroke-linecap="round"
          d="M5 40 C 5.25 38.52, 8.71 10.77, 10 10 S 14.46 32.6, 15 34 S 18.55 35.61, 20 36 S 23.55 36.28, 25 36.67 S 28.51 38.47, 30 38.67 S 33.55 38.39, 35 38 S 38.51 36.2, 40 36 S 43.5 36.67, 45 36.67 S 48.53 35.71, 50 36 S 53.5 38.57, 55 38.67 S 58.51 36.87, 60 36.67 S 63.64 37.96, 65 37.33 S 68.5 31.9, 70 32 S 73.55 37.61, 75 38 S 78.5 34.77, 80 34.67 S 83.53 37.04, 85 37.33 S 88.5 36.67, 90 36.67 S 93.53 37.04, 95 37.33 S 98.53 38.96, 100 38.67 S 103.58 35.81, 105 35.33 S 108.51 35.53, 110 35.33 S 113.5 34.1, 115 34 S 118.5 34.77, 120 34.67 S 123.5 33.33, 125 33.33 S 128.51 34.47, 130 34.67 S 133.53 34.38, 135 34.67 S 138.53 36.96, 140 36.67 S 143.64 33.3, 145 32.67 S 148.68 31.29, 150 32 S 153.55 38.39, 155 38 S 158.61 29.89, 160 29.33 S 163.64 33.37, 165 34 S 168.51 34.2, 170 34 S 173.51 32.87, 175 32.67 S 178.75 33.5, 180 32.67 S 183.53 26.29, 185 26 S 189.04 29.52, 190 30.67 S 193.64 37.37, 195 38 S 198.64 35.96, 200 35.33 S 203.61 33.89, 205 33.33"
          fill="none"/>
    <circle r="4" cx="5" cy="40" fill="#3023AE"/>
    <circle r="4" cx="205" cy="33.33" fill="#C86DD7"/>      
</svg>