<svg width="200" height="50" viewBox="0 0 210 50" xmlns="http://www.w3.org/2000/svg">
    <defs>
        <linearGradient x1="0%" y1="0%" x2="100%" y2="0%" id="a">
            <stop stop-color="#3023AE" offset="0%"/>
            <stop stop-color="#C86DD7" offset="100%"/>
        </linearGradient>
    </defs>
    <path stroke="url(#a)"
          stroke-width="3"
          stroke-linejoin="round"
          stroke-linecap="round"
          d="M5 40 C 5.66 38.65, 8.69 30.46, 10 29.73 S 13.63 33.78, 15 34.39 S 18.6 34.76, 20 34.22 S 23.52 30.79, 25 30.53 S 28.5 32.34, 30 32.46 S 33.5 31.32, 35 31.34 S 38.52 32.36, 40 32.62 S 43.5 33, 45 33.1 S 48.5 33.31, 50 33.26 S 53.51 32.61, 55 32.78 S 58.5 34.41, 60 34.39 S 63.58 33.1, 65 32.62 S 68.86 31.99, 70 31.02 S 73.5 24.1, 75 24.12 S 78.75 30.36, 80 31.18 S 83.57 31.14, 85 30.7 S 88.65 28.78, 90 28.13 S 93.54 25.55, 95 25.88 S 98.5 30.27, 100 30.37 S 103.5 26.5, 105 26.52 S 108.54 30.2, 110 30.53 S 113.59 29.27, 115 28.77 S 118.55 27.38, 120 27.01 S 123.51 26.03, 125 26.2 S 128.5 28.11, 130 28.13 S 133.54 26.69, 135 26.36 S 138.5 25.95, 140 25.88 S 143.5 25.78, 145 25.88 S 148.5 26.47, 150 26.52 S 153.57 25.74, 155 26.2 S 158.5 29.66, 160 29.73 S 163.7 27.43, 165 26.68 S 168.5 23.98, 170 23.96 S 173.52 26.76, 175 26.52 S 178.75 23.17, 180 22.35 S 183.66 20.62, 185 19.95 S 188.5 17.31, 190 17.38 S 193.54 20.1, 195 20.43 S 198.96 20.71, 200 19.63 S 204.31 11.33, 205 10"
          fill="none"/>
    <circle r="4" cx="5" cy="40" fill="#3023AE"/>
    <circle r="4" cx="205" cy="10" fill="#C86DD7"/>      
</svg>