<svg width="200" height="50" viewBox="0 0 210 50" xmlns="http://www.w3.org/2000/svg">
    <defs>
        <linearGradient x1="0%" y1="0%" x2="100%" y2="0%" id="a">
            <stop stop-color="#3023AE" offset="0%"/>
            <stop stop-color="#C86DD7" offset="100%"/>
        </linearGradient>
    </defs>
    <path stroke="url(#a)"
          stroke-width="3"
          stroke-linejoin="round"
          stroke-linecap="round"
          d="M5 40 C 5.29 38.53, 8.62 14.88, 10 14.29 S 14.24 34.41, 15 35.71 S 18.86 32.41, 20 31.43 S 23.62 26.55, 25 27.14 S 28.86 34.73, 30 35.71 S 33.5 35.71, 35 35.71 S 38.5 35.71, 40 35.71 S 43.5 35.71, 45 35.71 S 48.5 35.71, 50 35.71 S 53.5 35.71, 55 35.71 S 59.08 36.89, 60 35.71 S 63.5 22.86, 65 22.86 S 68.86 34.73, 70 35.71 S 73.62 32.02, 75 31.43 S 78.62 32.02, 80 31.43 S 83.62 27.73, 85 27.14 S 88.86 26.16, 90 27.14 S 93.86 36.69, 95 35.71 S 98.5 18.57, 100 18.57 S 104.08 34.53, 105 35.71 S 108.86 32.41, 110 31.43 S 113.62 26.55, 115 27.14 S 118.62 35.12, 120 35.71 S 123.62 32.02, 125 31.43 S 128.62 30.84, 130 31.43 S 133.5 35.71, 135 35.71 S 138.5 31.43, 140 31.43 S 144.24 37.01, 145 35.71 S 149.46 15.69, 150 14.29 S 154.37 8.64, 155 10 S 159.37 34.35, 160 35.71 S 163.5 31.43, 165 31.43 S 168.62 35.12, 170 35.71 S 173.86 36.69, 175 35.71 S 179.24 28.44, 180 27.14 S 183.62 17.98, 185 18.57 S 189.24 30.13, 190 31.43 S 193.62 35.12, 195 35.71 S 198.86 36.69, 200 35.71 S 204.24 28.44, 205 27.14"
          fill="none"/>
    <circle r="4" cx="5" cy="40" fill="#3023AE"/>
    <circle r="4" cx="205" cy="27.14" fill="#C86DD7"/>      
</svg>