<svg width="200" height="50" viewBox="0 0 210 50" xmlns="http://www.w3.org/2000/svg">
    <defs>
        <linearGradient x1="0%" y1="0%" x2="100%" y2="0%" id="a">
            <stop stop-color="#3023AE" offset="0%"/>
            <stop stop-color="#C86DD7" offset="100%"/>
        </linearGradient>
    </defs>
    <path stroke="url(#a)"
          stroke-width="3"
          stroke-linejoin="round"
          stroke-linecap="round"
          d="M5 40 C 6.34 39.32, 8.51 37.64, 10 37.45 S 13.53 38.44, 15 38.72 S 18.53 39.64, 20 39.36 S 23.66 37.49, 25 36.81 S 29.48 35.67, 30 34.26 S 33.55 10.37, 35 10 S 39.32 30.36, 40 31.7 S 43.57 29.33, 45 29.79 S 48.63 34.28, 50 34.89 S 53.53 34.54, 55 34.26 S 58.81 33.89, 60 32.98 S 63.53 26.88, 65 26.6 S 68.53 30.78, 70 31.06 S 73.6 27.97, 75 28.51 S 78.81 33.98, 80 34.89 S 83.57 36.63, 85 36.17 S 88.66 32.38, 90 31.7 S 93.57 30.6, 95 31.06 S 98.5 34.98, 100 34.89 S 103.57 30.89, 105 30.43 S 109.08 32.88, 110 31.7 S 113.95 18.73, 115 17.66 S 118.92 20.45, 120 21.49 S 123.74 26.42, 125 27.23 S 128.77 27.01, 130 27.87 S 133.57 33.8, 135 34.26 S 138.77 31.92, 140 31.06 S 143.5 27.23, 145 27.23 S 148.66 30.38, 150 31.06 S 153.81 33.25, 155 32.34 S 158.88 24.4, 160 23.4 S 163.92 22.36, 165 23.4 S 168.74 32.17, 170 32.98 S 173.66 30.47, 175 29.79 S 178.55 27.5, 180 27.87 S 183.5 32.34, 185 32.34 S 188.74 28.68, 190 27.87 S 193.57 25.5, 195 25.96 S 198.57 30.6, 200 31.06 S 203.6 29.69, 205 29.15"
          fill="none"/>
    <circle r="4" cx="5" cy="40" fill="#3023AE"/>
    <circle r="4" cx="205" cy="29.15" fill="#C86DD7"/>      
</svg>