<svg width="200" height="50" viewBox="0 0 210 50" xmlns="http://www.w3.org/2000/svg">
    <defs>
        <linearGradient x1="0%" y1="0%" x2="100%" y2="0%" id="a">
            <stop stop-color="#3023AE" offset="0%"/>
            <stop stop-color="#C86DD7" offset="100%"/>
        </linearGradient>
    </defs>
    <path stroke="url(#a)"
          stroke-width="3"
          stroke-linejoin="round"
          stroke-linecap="round"
          d="M5 40 C 5.25 38.52, 8.5 10.11, 10 10 S 14.52 37.82, 15 39.24 S 18.5 39.47, 20 39.49 S 23.5 39.32, 25 39.36 S 28.5 39.72, 30 39.79 S 33.5 39.83, 35 39.83 S 38.5 39.81, 40 39.79 S 43.5 39.77, 45 39.7 S 48.5 39.31, 50 39.32 S 53.5 39.74, 55 39.79 S 58.5 39.69, 60 39.66 S 63.5 39.58, 65 39.58 S 68.5 39.61, 70 39.66 S 73.5 39.91, 75 39.92 S 78.5 39.78, 80 39.75 S 83.5 39.73, 85 39.75 S 88.5 39.86, 90 39.87 S 93.5 39.8, 95 39.79 S 98.5 39.79, 100 39.79 S 103.5 39.78, 105 39.79 S 108.5 39.8, 110 39.83 S 113.5 40.01, 115 39.96 S 118.5 39.5, 120 39.49 S 123.5 39.83, 125 39.87 S 128.5 39.8, 130 39.79 S 133.5 39.78, 135 39.79 S 138.5 39.83, 140 39.83 S 143.5 39.79, 145 39.79 S 148.5 39.82, 150 39.83 S 153.5 39.81, 155 39.83 S 158.5 39.99, 160 39.96 S 163.5 39.7, 165 39.66 S 168.5 39.69, 170 39.7 S 173.5 39.68, 175 39.7 S 178.5 39.83, 180 39.83 S 183.5 39.69, 185 39.7 S 188.5 39.84, 190 39.87 S 193.5 39.94, 195 39.92 S 198.5 39.75, 200 39.75 S 203.5 39.87, 205 39.92"
          fill="none"/>
    <circle r="4" cx="5" cy="40" fill="#3023AE"/>
    <circle r="4" cx="205" cy="39.92" fill="#C86DD7"/>      
</svg>