<svg width="200" height="50" viewBox="0 0 210 50" xmlns="http://www.w3.org/2000/svg">
    <defs>
        <linearGradient x1="0%" y1="0%" x2="100%" y2="0%" id="a">
            <stop stop-color="#3023AE" offset="0%"/>
            <stop stop-color="#C86DD7" offset="100%"/>
        </linearGradient>
    </defs>
    <path stroke="url(#a)"
          stroke-width="3"
          stroke-linejoin="round"
          stroke-linecap="round"
          d="M5 40 C 6.5 39.97, 8.5 39.91, 10 39.9 S 13.5 39.9, 15 39.9 S 18.5 39.9, 20 39.9 S 23.5 39.9, 25 39.9 S 28.5 39.9, 30 39.9 S 33.5 39.9, 35 39.9 S 38.5 39.9, 40 39.9 S 43.51 40.05, 45 39.9 S 48.54 39.25, 50 38.9 S 53.5 37.5, 55 37.5 S 58.7 39.64, 60 38.9 S 63.56 32.2, 65 31.8 S 68.58 35.6, 70 36.1 S 73.58 35.78, 75 35.3 S 78.92 33.74, 80 32.7 S 83.6 26.23, 85 25.7 S 88.6 29.45, 90 28.9 S 93.68 22.51, 95 21.8 S 98.71 24.27, 100 23.5 S 103.55 16.19, 105 15.8 S 108.51 20.67, 110 20.8 S 113.5 16.7, 115 16.7 S 118.66 20.12, 120 20.8 S 123.58 22.28, 125 21.8 S 128.51 17.27, 130 17.4 S 133.52 22.45, 135 22.7 S 138.56 19.52, 140 19.1 S 143.66 20.47, 145 19.8 S 148.93 15.15, 150 14.1 S 153.54 9.66, 155 10 S 158.61 15.84, 160 16.4 S 163.54 13.66, 165 14 S 168.63 18.1, 170 18.7 S 173.58 18.87, 175 18.4 S 178.62 15.99, 180 15.4 S 183.6 14.63, 185 14.1 S 188.58 11.1, 190 11.6 S 193.55 17.21, 195 17.6 S 198.54 13.98, 200 14.3 S 203.99 18.69, 205 19.8"
          fill="none"/>
    <circle r="4" cx="5" cy="40" fill="#3023AE"/>
    <circle r="4" cx="205" cy="19.8" fill="#C86DD7"/>      
</svg>