<svg width="200" height="50" viewBox="0 0 210 50" xmlns="http://www.w3.org/2000/svg">
    <defs>
        <linearGradient x1="0%" y1="0%" x2="100%" y2="0%" id="a">
            <stop stop-color="#3023AE" offset="0%"/>
            <stop stop-color="#C86DD7" offset="100%"/>
        </linearGradient>
    </defs>
    <path stroke="url(#a)"
          stroke-width="3"
          stroke-linejoin="round"
          stroke-linecap="round"
          d="M5 40 C 6.5 39.97, 8.5 39.91, 10 39.9 S 13.5 39.9, 15 39.9 S 18.5 39.9, 20 39.9 S 23.5 39.9, 25 39.9 S 28.5 39.9, 30 39.9 S 33.5 39.9, 35 39.9 S 38.5 39.9, 40 39.9 S 43.51 40.05, 45 39.9 S 48.54 39.23, 50 38.87 S 53.5 37.42, 55 37.42 S 58.71 39.64, 60 38.87 S 63.56 31.87, 65 31.44 S 68.59 35.36, 70 35.88 S 73.59 35.67, 75 35.15 S 78.92 33.2, 80 32.16 S 83.58 26.05, 85 25.57 S 88.66 29.43, 90 28.76 S 93.69 21.35, 95 20.62 S 98.68 23.92, 100 23.2 S 103.58 15.65, 105 15.15 S 108.5 19.6, 110 19.69 S 113.51 15.65, 115 15.77 S 118.67 19.83, 120 20.52 S 123.59 21.44, 125 20.93 S 128.5 16.83, 130 16.91 S 133.54 21.09, 135 21.44 S 138.54 19.61, 140 19.28 S 143.82 20.11, 145 19.18 S 148.9 12.45, 150 11.44 S 153.65 9.36, 155 10 S 158.6 15.66, 160 16.19 S 163.53 13.51, 165 13.81 S 168.58 17.78, 170 18.25 S 173.58 17.61, 175 17.11 S 178.59 15.25, 180 14.74 S 183.61 14.07, 185 13.51 S 188.53 10.4, 190 10.72 S 193.57 15.21, 195 15.67 S 198.61 13.36, 200 13.92 S 204.02 18.56, 205 19.69"
          fill="none"/>
    <circle r="4" cx="5" cy="40" fill="#3023AE"/>
    <circle r="4" cx="205" cy="19.69" fill="#C86DD7"/>      
</svg>