<svg width="200" height="50" viewBox="0 0 210 50" xmlns="http://www.w3.org/2000/svg">
    <defs>
        <linearGradient x1="0%" y1="0%" x2="100%" y2="0%" id="a">
            <stop stop-color="#3023AE" offset="0%"/>
            <stop stop-color="#C86DD7" offset="100%"/>
        </linearGradient>
    </defs>
    <path stroke="url(#a)"
          stroke-width="3"
          stroke-linejoin="round"
          stroke-linecap="round"
          d="M5 40 C 6.5 39.97, 8.5 39.91, 10 39.9 S 13.5 39.9, 15 39.9 S 18.5 39.9, 20 39.9 S 23.5 39.9, 25 39.9 S 28.5 39.9, 30 39.9 S 33.5 39.9, 35 39.9 S 38.5 39.9, 40 39.9 S 43.51 40.05, 45 39.9 S 48.54 39.26, 50 38.91 S 53.5 37.52, 55 37.52 S 58.7 39.66, 60 38.91 S 63.56 32.19, 65 31.78 S 68.59 35.54, 70 36.04 S 73.59 35.85, 75 35.35 S 78.91 33.51, 80 32.48 S 83.57 26.39, 85 25.94 S 88.63 29.92, 90 29.31 S 93.69 22.23, 95 21.49 S 98.71 24.43, 100 23.66 S 103.58 16.02, 105 15.54 S 108.51 20.14, 110 20.3 S 113.51 16.44, 115 16.63 S 118.61 21.02, 120 21.58 S 123.55 21.08, 125 20.69 S 128.51 18.76, 130 18.91 S 133.51 21.49, 135 21.68 S 138.54 20.53, 140 20.2 S 143.85 20.37, 145 19.41 S 148.77 12.73, 150 11.88 S 153.69 11.75, 155 12.48 S 158.56 17, 160 17.43 S 163.51 15.24, 165 15.45 S 168.54 18.46, 170 18.81 S 173.55 18.19, 175 17.82 S 178.82 17.16, 180 16.24 S 183.52 10.25, 185 10 S 188.78 13.68, 190 14.55 S 193.5 17.12, 195 17.13 S 198.59 14.13, 200 14.65 S 204.05 19.63, 205 20.79"
          fill="none"/>
    <circle r="4" cx="5" cy="40" fill="#3023AE"/>
    <circle r="4" cx="205" cy="20.79" fill="#C86DD7"/>      
</svg>