<svg width="200" height="50" viewBox="0 0 210 50" xmlns="http://www.w3.org/2000/svg">
    <defs>
        <linearGradient x1="0%" y1="0%" x2="100%" y2="0%" id="a">
            <stop stop-color="#3023AE" offset="0%"/>
            <stop stop-color="#C86DD7" offset="100%"/>
        </linearGradient>
    </defs>
    <path stroke="url(#a)"
          stroke-width="3"
          stroke-linejoin="round"
          stroke-linecap="round"
          d="M5 40 C 6.48 39.75, 8.5 39.29, 10 39.17 S 13.5 39.26, 15 39.23 S 18.5 38.99, 20 38.94 S 23.5 38.8, 25 38.88 S 28.5 39.45, 30 39.47 S 33.5 39.04, 35 39 S 38.5 39.22, 40 39.17 S 43.69 39.37, 45 38.64 S 48.69 34.35, 50 33.62 S 54.42 34.41, 55 33.03 S 58.69 10.73, 60 10 S 64.25 26.12, 65 27.42 S 68.8 28.26, 70 27.36 S 73.6 19.37, 75 19.92 S 79.08 30.07, 80 31.26 S 83.59 32.41, 85 32.91 S 88.51 34.65, 90 34.8 S 93.51 34.08, 95 33.92 S 98.84 34.69, 100 33.74 S 103.51 25.57, 105 25.77 S 108.81 34.19, 110 35.1 S 113.5 33.4, 115 33.44 S 118.52 35.14, 120 35.39 S 123.5 34.98, 125 35.1 S 128.51 36, 130 36.16 S 133.53 36.46, 135 36.16 S 138.53 34.39, 140 34.09 S 143.53 33.86, 145 34.15 S 148.52 35.81, 150 36.04 S 153.51 35.87, 155 35.69 S 158.5 34.96, 160 34.86 S 163.51 34.86, 165 35.04 S 168.52 35.79, 170 36.04 S 173.5 36.63, 175 36.75 S 178.5 36.76, 180 36.81 S 183.5 37.01, 185 37.11 S 188.53 37.75, 190 37.46 S 193.51 35.35, 195 35.16 S 198.5 36.12, 200 36.16 S 203.51 35.66, 205 35.45"
          fill="none"/>
    <circle r="4" cx="5" cy="40" fill="#3023AE"/>
    <circle r="4" cx="205" cy="35.45" fill="#C86DD7"/>      
</svg>