<svg width="200" height="50" viewBox="0 0 210 50" xmlns="http://www.w3.org/2000/svg">
    <defs>
        <linearGradient x1="0%" y1="0%" x2="100%" y2="0%" id="a">
            <stop stop-color="#3023AE" offset="0%"/>
            <stop stop-color="#C86DD7" offset="100%"/>
        </linearGradient>
    </defs>
    <path stroke="url(#a)"
          stroke-width="3"
          stroke-linejoin="round"
          stroke-linecap="round"
          d="M5 40 C 5.4 38.55, 9.34 23.24, 10 21.89 S 14.03 20.77, 15 19.62 S 18.52 9.75, 20 10 S 24.09 20.13, 25 21.32 S 28.63 22.4, 30 23.02 S 33.5 25.77, 35 25.85 S 38.58 24.06, 40 23.58 S 43.69 23.19, 45 22.45 S 48.54 18.25, 50 17.92 S 53.5 20.1, 55 20.19 S 58.58 18.01, 60 18.49 S 63.5 23.49, 65 23.58 S 68.51 19.23, 70 19.06 S 73.95 21.38, 75 22.45 S 78.51 29.42, 80 29.25 S 83.63 21.94, 85 21.32 S 88.73 25.51, 90 24.72 S 93.61 14.54, 95 15.09 S 98.86 27.71, 100 28.68 S 103.66 24.26, 105 23.58 S 108.61 24.13, 110 23.58 S 113.58 19.14, 115 19.62 S 118.79 26.09, 120 26.98 S 123.5 26.98, 125 26.98 S 128.51 27.15, 130 26.98 S 134.24 27.14, 135 25.85 S 138.61 10.55, 140 10 S 144.18 20.63, 145 21.89 S 148.69 24.54, 150 25.28 S 153.51 27.72, 155 27.55 S 158.5 24.15, 160 24.15 S 163.58 27.07, 165 27.55 S 168.66 28.23, 170 27.55 S 173.5 22.54, 175 22.45 S 178.5 26.98, 180 26.98 S 183.56 22.04, 185 22.45 S 188.82 28.88, 190 29.81 S 193.5 30.46, 195 30.38 S 199.01 30.37, 200 29.25 S 204.34 20.41, 205 19.06"
          fill="none"/>
    <circle r="4" cx="5" cy="40" fill="#3023AE"/>
    <circle r="4" cx="205" cy="19.06" fill="#C86DD7"/>      
</svg>