<svg width="200" height="50" viewBox="0 0 210 50" xmlns="http://www.w3.org/2000/svg">
    <defs>
        <linearGradient x1="0%" y1="0%" x2="100%" y2="0%" id="a">
            <stop stop-color="#3023AE" offset="0%"/>
            <stop stop-color="#C86DD7" offset="100%"/>
        </linearGradient>
    </defs>
    <path stroke="url(#a)"
          stroke-width="3"
          stroke-linejoin="round"
          stroke-linecap="round"
          d="M5 40 C 6.33 39.3, 8.5 37.38, 10 37.37 S 13.55 39.56, 15 39.93 S 18.5 39.93, 20 39.93 S 23.5 40, 25 39.93 S 28.5 39.61, 30 39.49 S 33.5 39.16, 35 39.12 S 38.5 39.31, 40 39.2 S 43.5 38.47, 45 38.39 S 48.5 38.77, 50 38.69 S 53.51 38.08, 55 37.88 S 58.5 37.43, 60 37.37 S 63.5 37.43, 65 37.45 S 68.5 37.59, 70 37.52 S 73.5 37.05, 75 37.01 S 78.51 37.36, 80 37.23 S 83.55 36.5, 85 36.13 S 88.53 34.99, 90 34.67 S 93.54 34.29, 95 33.94 S 98.5 32.38, 100 32.26 S 103.52 33.41, 105 33.14 S 108.58 30.91, 110 30.44 S 113.5 29.95, 115 29.85 S 118.5 29.8, 120 29.78 S 123.51 29.85, 125 29.71 S 128.5 28.86, 130 28.83 S 133.5 29.39, 135 29.49 S 138.5 29.47, 140 29.49 S 143.5 29.75, 145 29.64 S 148.52 29, 150 28.76 S 153.5 28.1, 155 28.03 S 158.54 28.65, 160 28.32 S 164.28 27.09, 165 25.77 S 168.76 10.85, 170 10 S 173.65 18.25, 175 18.91 S 178.6 14.34, 180 14.89 S 183.6 22.31, 185 22.85 S 188.51 18.92, 190 18.76 S 193.5 21.85, 195 21.75 S 198.51 18.28, 200 18.1 S 203.65 19.86, 205 20.51"
          fill="none"/>
    <circle r="4" cx="5" cy="40" fill="#3023AE"/>
    <circle r="4" cx="205" cy="20.51" fill="#C86DD7"/>      
</svg>