<svg width="200" height="50" viewBox="0 0 210 50" xmlns="http://www.w3.org/2000/svg">
    <defs>
        <linearGradient x1="0%" y1="0%" x2="100%" y2="0%" id="a">
            <stop stop-color="#3023AE" offset="0%"/>
            <stop stop-color="#C86DD7" offset="100%"/>
        </linearGradient>
    </defs>
    <path stroke="url(#a)"
          stroke-width="3"
          stroke-linejoin="round"
          stroke-linecap="round"
          d="M5 40 C 6.08 38.96, 9.2 36.43, 10 35.16 S 13.63 23.66, 15 24.27 S 19.15 38.41, 20 39.64 S 23.5 38.71, 25 38.69 S 28.51 39.36, 30 39.48 S 33.5 39.49, 35 39.52 S 38.5 39.64, 40 39.68 S 43.5 39.77, 45 39.8 S 48.5 39.88, 50 39.9 S 53.6 40.5, 55 39.96 S 58.67 36.72, 60 36.03 S 63.52 35.02, 65 34.78 S 68.5 34.36, 70 34.4 S 73.5 35.05, 75 35.02 S 78.51 34.43, 80 34.23 S 83.52 33.91, 85 33.67 S 88.5 32.64, 90 32.58 S 93.51 33.11, 95 33.25 S 98.51 33.66, 100 33.49 S 103.52 32.35, 105 32.12 S 108.69 32.68, 110 31.94 S 113.74 27.31, 115 26.49 S 118.5 25.34, 120 25.4 S 123.5 26.93, 125 26.9 S 128.98 26.28, 130 25.18 S 133.81 17.07, 135 16.15 S 138.5 17.37, 140 17.48 S 143.51 17.05, 145 16.9 S 148.53 16.17, 150 16.49 S 153.54 18.72, 155 19.07 S 158.64 19.52, 160 18.89 S 163.5 14.54, 165 14.42 S 168.51 17.93, 170 18.08 S 173.52 15.7, 175 15.44 S 178.51 16.51, 180 16.31 S 183.51 14.28, 185 14.07 S 188.58 15.39, 190 14.9 S 193.56 11.03, 195 10.6 S 198.5 12.01, 200 11.92 S 203.6 10.54, 205 10"
          fill="none"/>
    <circle r="4" cx="5" cy="40" fill="#3023AE"/>
    <circle r="4" cx="205" cy="10" fill="#C86DD7"/>      
</svg>