<svg width="200" height="50" viewBox="0 0 210 50" xmlns="http://www.w3.org/2000/svg">
    <defs>
        <linearGradient x1="0%" y1="0%" x2="100%" y2="0%" id="a">
            <stop stop-color="#3023AE" offset="0%"/>
            <stop stop-color="#C86DD7" offset="100%"/>
        </linearGradient>
    </defs>
    <path stroke="url(#a)"
          stroke-width="3"
          stroke-linejoin="round"
          stroke-linecap="round"
          d="M5 40 C 5.47 38.58, 9.33 26.34, 10 25 S 13.94 18.94, 15 20 S 19.17 33.75, 20 35 S 23.5 35, 25 35 S 28.5 35, 30 35 S 33.5 35, 35 35 S 38.5 35, 40 35 S 43.5 35, 45 35 S 48.5 35, 50 35 S 53.5 35, 55 35 S 58.5 35, 60 35 S 63.5 35, 65 35 S 68.5 35, 70 35 S 73.5 35, 75 35 S 78.5 35, 80 35 S 83.66 35.67, 85 35 S 88.5 30, 90 30 S 93.66 34.33, 95 35 S 98.5 35, 100 35 S 103.5 35, 105 35 S 108.5 35, 110 35 S 113.5 35, 115 35 S 118.66 35.67, 120 35 S 123.94 31.06, 125 30 S 128.94 26.06, 130 25 S 133.94 18.94, 135 20 S 138.94 36.06, 140 35 S 143.5 10, 145 10 S 149.44 33.61, 150 35 S 154.17 36.25, 155 35 S 158.5 20, 160 20 S 164.17 33.75, 165 35 S 168.5 35, 170 35 S 173.5 35, 175 35 S 178.5 35, 180 35 S 184.17 36.25, 185 35 S 188.5 20, 190 20 S 194.17 33.75, 195 35 S 198.66 35.67, 200 35 S 203.94 31.06, 205 30"
          fill="none"/>
    <circle r="4" cx="5" cy="40" fill="#3023AE"/>
    <circle r="4" cx="205" cy="30" fill="#C86DD7"/>      
</svg>