<svg width="200" height="50" viewBox="0 0 210 50" xmlns="http://www.w3.org/2000/svg">
    <defs>
        <linearGradient x1="0%" y1="0%" x2="100%" y2="0%" id="a">
            <stop stop-color="#3023AE" offset="0%"/>
            <stop stop-color="#C86DD7" offset="100%"/>
        </linearGradient>
    </defs>
    <path stroke="url(#a)"
          stroke-width="3"
          stroke-linejoin="round"
          stroke-linecap="round"
          d="M5 40 C 5.72 38.69, 8.55 31.31, 10 30.91 S 13.79 36.39, 15 37.27 S 18.5 38.18, 20 38.18 S 23.63 37.89, 25 37.27 S 28.63 34.26, 30 33.64 S 33.55 32.34, 35 32.73 S 38.55 36.76, 40 36.36 S 43.52 29.73, 45 30 S 48.68 37.46, 50 38.18 S 53.68 36.17, 55 35.45 S 58.55 32.33, 60 32.73 S 63.55 37.79, 65 38.18 S 68.52 35.72, 70 35.45 S 73.52 36.09, 75 36.36 S 78.5 37.27, 80 37.27 S 83.68 37.08, 85 36.36 S 88.52 32.09, 90 31.82 S 93.52 34.82, 95 34.55 S 98.51 29.87, 100 30 S 103.63 34.83, 105 35.45 S 108.51 34.68, 110 34.55 S 113.52 34.82, 115 34.55 S 118.51 32.6, 120 32.73 S 123.52 35.18, 125 35.45 S 128.5 34.55, 130 34.55 S 133.63 36.07, 135 35.45 S 138.68 30.72, 140 30 S 143.94 31.06, 145 30 S 148.89 21.01, 150 20 S 153.84 19.96, 155 20.91 S 158.94 27.12, 160 28.18 S 163.52 30.64, 165 30.91 S 168.63 30.62, 170 30 S 173.63 25.74, 175 26.36 S 178.5 34.55, 180 34.55 S 183.84 27.31, 185 26.36 S 188.51 26.22, 190 26.36 S 194.22 28.55, 195 27.27 S 198.55 9.6, 200 10 S 204.64 28.54, 205 30"
          fill="none"/>
    <circle r="4" cx="5" cy="40" fill="#3023AE"/>
    <circle r="4" cx="205" cy="30" fill="#C86DD7"/>      
</svg>