<svg width="200" height="50" viewBox="0 0 210 50" xmlns="http://www.w3.org/2000/svg">
    <defs>
        <linearGradient x1="0%" y1="0%" x2="100%" y2="0%" id="a">
            <stop stop-color="#3023AE" offset="0%"/>
            <stop stop-color="#C86DD7" offset="100%"/>
        </linearGradient>
    </defs>
    <path stroke="url(#a)"
          stroke-width="3"
          stroke-linejoin="round"
          stroke-linecap="round"
          d="M5 40 C 6.49 39.86, 9.17 40.78, 10 39.53 S 14.52 26.42, 15 25 S 19.11 8.79, 20 10 S 24.51 37.17, 25 38.59 S 28.5 38.99, 30 39.06 S 33.5 39.06, 35 39.06 S 38.5 39.13, 40 39.06 S 43.54 38.93, 45 38.59 S 48.5 36.79, 50 36.72 S 53.56 37.71, 55 38.12 S 58.51 39.32, 60 39.53 S 63.5 39.6, 65 39.53 S 68.5 39.06, 70 39.06 S 73.5 39.46, 75 39.53 S 78.62 40.11, 80 39.53 S 83.51 35.52, 85 35.31 S 88.56 37.71, 90 38.12 S 93.51 37.91, 95 38.12 S 98.51 39.32, 100 39.53 S 103.51 39.67, 105 39.53 S 108.6 39.12, 110 38.59 S 113.51 35.92, 115 35.78 S 118.56 37.25, 120 37.66 S 123.5 38.52, 125 38.59 S 128.5 38.12, 130 38.12 S 133.5 38.59, 135 38.59 S 138.5 38.12, 140 38.12 S 143.51 38.38, 145 38.59 S 148.51 39.39, 150 39.53 S 153.51 39.67, 155 39.53 S 158.51 38.8, 160 38.59 S 163.51 38.26, 165 38.12 S 168.5 37.73, 170 37.66 S 173.51 37.87, 175 37.66 S 178.5 36.32, 180 36.25 S 183.53 36.91, 185 37.19 S 188.5 38.05, 190 38.12 S 193.51 37.45, 195 37.66 S 198.51 39.74, 200 39.53 S 203.75 37.07, 205 36.25"
          fill="none"/>
    <circle r="4" cx="5" cy="40" fill="#3023AE"/>
    <circle r="4" cx="205" cy="36.25" fill="#C86DD7"/>      
</svg>