<svg width="200" height="50" viewBox="0 0 210 50" xmlns="http://www.w3.org/2000/svg">
    <defs>
        <linearGradient x1="0%" y1="0%" x2="100%" y2="0%" id="a">
            <stop stop-color="#3023AE" offset="0%"/>
            <stop stop-color="#C86DD7" offset="100%"/>
        </linearGradient>
    </defs>
    <path stroke="url(#a)"
          stroke-width="3"
          stroke-linejoin="round"
          stroke-linecap="round"
          d="M5 40 C 6.48 39.76, 8.5 39.21, 10 39.19 S 13.5 39.74, 15 39.84 S 18.5 39.84, 20 39.84 S 23.51 40.03, 25 39.84 S 28.5 38.54, 30 38.54 S 33.51 39.7, 35 39.84 S 38.5 39.51, 40 39.51 S 43.5 39.79, 45 39.84 S 48.5 39.84, 50 39.84 S 53.5 39.86, 55 39.84 S 58.5 39.68, 60 39.68 S 63.5 39.82, 65 39.84 S 68.5 39.84, 70 39.84 S 73.5 39.84, 75 39.84 S 78.5 39.84, 80 39.84 S 83.5 39.84, 85 39.84 S 88.5 39.84, 90 39.84 S 93.5 39.84, 95 39.84 S 98.5 39.84, 100 39.84 S 103.5 39.84, 105 39.84 S 108.5 39.84, 110 39.84 S 114.32 41.18, 115 39.84 S 119.52 21.47, 120 20.05 S 124.27 8.69, 125 10 S 129.42 36.51, 130 37.89 S 133.52 33.78, 135 34 S 138.65 38.69, 140 39.35 S 143.52 39.08, 145 38.86 S 148.5 37.94, 150 37.89 S 153.5 38.64, 155 38.54 S 158.53 37.53, 160 37.24 S 163.5 36.49, 165 36.59 S 168.51 37.77, 170 37.89 S 173.51 37.58, 175 37.41 S 178.51 36.88, 180 36.76 S 183.5 36.47, 185 36.59 S 188.53 37.28, 190 37.57 S 193.5 38.56, 195 38.54 S 198.5 37.46, 200 37.41 S 203.52 37.98, 205 38.22"
          fill="none"/>
    <circle r="4" cx="5" cy="40" fill="#3023AE"/>
    <circle r="4" cx="205" cy="38.22" fill="#C86DD7"/>      
</svg>