<svg width="200" height="50" viewBox="0 0 210 50" xmlns="http://www.w3.org/2000/svg">
    <defs>
        <linearGradient x1="0%" y1="0%" x2="100%" y2="0%" id="a">
            <stop stop-color="#3023AE" offset="0%"/>
            <stop stop-color="#C86DD7" offset="100%"/>
        </linearGradient>
    </defs>
    <path stroke="url(#a)"
          stroke-width="3"
          stroke-linejoin="round"
          stroke-linecap="round"
          d="M5 40 C 5.78 38.72, 9.53 33.24, 10 31.82 S 13.58 9.52, 15 10 S 19.45 33.84, 20 35.23 S 23.76 36.08, 25 35.23 S 28.88 29.41, 30 28.41 S 33.72 25.58, 35 26.36 S 38.95 33.48, 40 34.55 S 43.51 36.39, 45 36.59 S 48.53 36.21, 50 35.91 S 53.5 34.45, 55 34.55 S 58.55 36.2, 60 36.59 S 63.55 36.87, 65 37.27 S 68.5 39.22, 70 39.32 S 73.55 38.35, 75 37.95 S 78.5 36.59, 80 36.59 S 83.5 38.05, 85 37.95 S 88.51 36.11, 90 35.91 S 93.51 36.39, 95 36.59 S 98.51 37.07, 100 37.27 S 103.5 37.95, 105 37.95 S 108.53 37.57, 110 37.27 S 113.5 35.91, 115 35.91 S 118.51 37.07, 120 37.27 S 123.5 37.37, 125 37.27 S 128.51 36.39, 130 36.59 S 133.55 38.24, 135 38.64 S 138.53 39.62, 140 39.32 S 143.5 36.69, 145 36.59 S 148.55 38.24, 150 38.64 S 153.58 39.8, 155 39.32 S 158.53 35.53, 160 35.23 S 163.61 36.7, 165 37.27 S 168.51 39.12, 170 39.32 S 173.53 38.94, 175 38.64 S 178.5 37.27, 180 37.27 S 183.53 38.34, 185 38.64 S 188.68 40.04, 190 39.32 S 193.58 33.66, 195 33.18 S 198.53 35.61, 200 35.91 S 203.51 35.43, 205 35.23"
          fill="none"/>
    <circle r="4" cx="5" cy="40" fill="#3023AE"/>
    <circle r="4" cx="205" cy="35.230000000000004" fill="#C86DD7"/>      
</svg>