<svg width="200" height="50" viewBox="0 0 210 50" xmlns="http://www.w3.org/2000/svg">
    <defs>
        <linearGradient x1="0%" y1="0%" x2="100%" y2="0%" id="a">
            <stop stop-color="#3023AE" offset="0%"/>
            <stop stop-color="#C86DD7" offset="100%"/>
        </linearGradient>
    </defs>
    <path stroke="url(#a)"
          stroke-width="3"
          stroke-linejoin="round"
          stroke-linecap="round"
          d="M5 40 C 6.5 39.99, 9.45 41.37, 10 39.98 S 13.56 15.23, 15 14.83 S 19.42 35.81, 20 37.19 S 23.54 38.34, 25 38.67 S 28.51 39.3, 30 39.43 S 33.5 39.56, 35 39.54 S 38.5 39.25, 40 39.28 S 44.52 41.16, 45 39.74 S 48.56 10.43, 50 10 S 54.48 35.35, 55 36.76 S 58.52 37.02, 60 37.28 S 63.51 38.35, 65 38.55 S 68.5 38.59, 70 38.6 S 73.5 38.52, 75 38.62 S 78.5 39.23, 80 39.25 S 83.5 38.77, 85 38.76 S 88.5 39.29, 90 39.17 S 93.51 38.1, 95 37.97 S 98.5 38.19, 100 38.31 S 103.5 38.84, 105 38.78 S 108.5 37.9, 110 37.93 S 113.5 39.07, 115 38.99 S 118.5 37.47, 120 37.41 S 123.52 38.35, 125 38.58 S 128.5 39.03, 130 38.99 S 133.5 38.37, 135 38.34 S 138.5 38.85, 140 38.78 S 143.5 37.9, 145 37.84 S 149.44 39.8, 150 38.41 S 153.53 13.08, 155 12.77 S 159.45 34.92, 160 36.32 S 163.53 37.84, 165 38.13 S 168.5 38.28, 170 38.32 S 173.5 38.36, 175 38.41 S 178.5 38.72, 180 38.67 S 183.5 38.16, 185 38.06 S 188.5 37.99, 190 37.98 S 193.5 37.94, 195 38 S 198.5 38.41, 200 38.36 S 203.51 37.88, 205 37.67"
          fill="none"/>
    <circle r="4" cx="5" cy="40" fill="#3023AE"/>
    <circle r="4" cx="205" cy="37.67" fill="#C86DD7"/>      
</svg>