<svg width="200" height="50" viewBox="0 0 210 50" xmlns="http://www.w3.org/2000/svg">
    <defs>
        <linearGradient x1="0%" y1="0%" x2="100%" y2="0%" id="a">
            <stop stop-color="#3023AE" offset="0%"/>
            <stop stop-color="#C86DD7" offset="100%"/>
        </linearGradient>
    </defs>
    <path stroke="url(#a)"
          stroke-width="3"
          stroke-linejoin="round"
          stroke-linecap="round"
          d="M5 40 C 5.47 38.58, 8.52 25.25, 10 25 S 14.02 37.19, 15 38.33 S 18.5 36.67, 20 36.67 S 23.5 38.33, 25 38.33 S 29.5 38.08, 30 36.67 S 34.1 11.2, 35 10 S 39.33 21.99, 40 23.33 S 43.85 29.04, 45 30 S 48.85 30.71, 50 31.67 S 53.52 38.08, 55 38.33 S 59.1 34.53, 60 33.33 S 63.58 25.47, 65 25 S 69.02 28.86, 70 30 S 73.75 35.84, 75 36.67 S 78.5 36.67, 80 36.67 S 83.85 37.63, 85 36.67 S 88.52 28.58, 90 28.33 S 93.85 34.04, 95 35 S 98.52 36.42, 100 36.67 S 103.52 36.42, 105 36.67 S 108.52 38.08, 110 38.33 S 113.5 38.33, 115 38.33 S 118.5 38.33, 120 38.33 S 123.5 38.33, 125 38.33 S 129.1 39.53, 130 38.33 S 133.85 25.96, 135 25 S 138.58 29.53, 140 30 S 143.52 28.58, 145 28.33 S 148.94 27.27, 150 28.33 S 153.85 37.37, 155 38.33 S 158.5 36.67, 160 36.67 S 163.52 38.08, 165 38.33 S 168.5 38.33, 170 38.33 S 173.5 38.33, 175 38.33 S 178.5 38.33, 180 38.33 S 183.52 38.58, 185 38.33 S 188.5 36.67, 190 36.67 S 193.52 38.08, 195 38.33 S 198.52 38.58, 200 38.33 S 203.58 37.14, 205 36.67"
          fill="none"/>
    <circle r="4" cx="5" cy="40" fill="#3023AE"/>
    <circle r="4" cx="205" cy="36.67" fill="#C86DD7"/>      
</svg>