<svg width="200" height="50" viewBox="0 0 210 50" xmlns="http://www.w3.org/2000/svg">
    <defs>
        <linearGradient x1="0%" y1="0%" x2="100%" y2="0%" id="a">
            <stop stop-color="#3023AE" offset="0%"/>
            <stop stop-color="#C86DD7" offset="100%"/>
        </linearGradient>
    </defs>
    <path stroke="url(#a)"
          stroke-width="3"
          stroke-linejoin="round"
          stroke-linecap="round"
          d="M5 40 C 5.83 38.75, 8.8 33.4, 10 32.5 S 13.5 32.5, 15 32.5 S 19.17 33.75, 20 32.5 S 23.5 17.5, 25 17.5 S 29.17 31.25, 30 32.5 S 34.17 33.75, 35 32.5 S 38.5 17.5, 40 17.5 S 44.17 31.25, 45 32.5 S 48.5 32.5, 50 32.5 S 53.5 32.5, 55 32.5 S 58.5 32.5, 60 32.5 S 63.5 32.5, 65 32.5 S 68.5 32.5, 70 32.5 S 73.5 32.5, 75 32.5 S 78.5 32.5, 80 32.5 S 83.5 32.5, 85 32.5 S 88.5 32.5, 90 32.5 S 93.5 32.5, 95 32.5 S 98.8 33.4, 100 32.5 S 103.5 25, 105 25 S 108.8 33.4, 110 32.5 S 113.8 18.4, 115 17.5 S 119.17 23.75, 120 25 S 123.8 31.6, 125 32.5 S 128.5 32.5, 130 32.5 S 133.5 32.5, 135 32.5 S 138.8 33.4, 140 32.5 S 143.5 25, 145 25 S 148.8 31.6, 150 32.5 S 153.5 32.5, 155 32.5 S 158.5 32.5, 160 32.5 S 163.5 32.5, 165 32.5 S 169.39 33.87, 170 32.5 S 173.5 10, 175 10 S 179.39 31.13, 180 32.5 S 183.8 33.4, 185 32.5 S 188.8 25.9, 190 25 S 193.5 25, 195 25"
          fill="none"/>
    <circle r="4" cx="5" cy="40" fill="#3023AE"/>
    <circle r="4" cx="195" cy="25" fill="#C86DD7"/>      
</svg>