<svg width="200" height="50" viewBox="0 0 210 50" xmlns="http://www.w3.org/2000/svg">
    <defs>
        <linearGradient x1="0%" y1="0%" x2="100%" y2="0%" id="a">
            <stop stop-color="#3023AE" offset="0%"/>
            <stop stop-color="#C86DD7" offset="100%"/>
        </linearGradient>
    </defs>
    <path stroke="url(#a)"
          stroke-width="3"
          stroke-linejoin="round"
          stroke-linecap="round"
          d="M5 40 C 5.25 38.52, 8.64 10.62, 10 10 S 14.49 34.03, 15 35.44 S 18.55 37.24, 20 37.63 S 23.51 37.93, 25 38.11 S 28.51 38.72, 30 38.85 S 33.5 39.06, 35 38.99 S 38.5 38.37, 40 38.39 S 43.5 39.01, 45 39.11 S 48.5 39.13, 50 39.03 S 53.5 38.49, 55 38.44 S 58.5 38.72, 60 38.69 S 63.5 38.28, 65 38.24 S 68.51 38.27, 70 38.41 S 73.5 39.2, 75 39.19 S 78.5 38.37, 80 38.31 S 83.5 38.75, 85 38.76 S 88.5 38.48, 90 38.36 S 93.5 38.05, 95 37.95 S 98.5 37.66, 100 37.7 S 103.58 38.72, 105 38.23 S 108.5 34.22, 110 34.22 S 113.52 38.02, 115 38.26 S 118.5 35.8, 120 35.84 S 123.57 38.03, 125 38.5 S 128.5 39.09, 130 39.12 S 133.5 38.78, 135 38.73 S 138.5 38.79, 140 38.79 S 143.5 38.72, 145 38.76 S 148.5 39.05, 150 39.08 S 153.5 39.03, 155 38.99 S 158.5 38.84, 160 38.84 S 163.5 38.97, 165 39.01 S 168.5 39.11, 170 39.12 S 173.5 39.2, 175 39.08 S 178.5 38.31, 180 38.31 S 183.5 38.95, 185 39.06 S 188.5 39.09, 190 39.06 S 193.5 38.8, 195 38.84 S 198.5 39.33, 200 39.33 S 203.51 38.99, 205 38.85"
          fill="none"/>
    <circle r="4" cx="5" cy="40" fill="#3023AE"/>
    <circle r="4" cx="205" cy="38.85" fill="#C86DD7"/>      
</svg>