<svg width="200" height="50" viewBox="0 0 210 50" xmlns="http://www.w3.org/2000/svg">
    <defs>
        <linearGradient x1="0%" y1="0%" x2="100%" y2="0%" id="a">
            <stop stop-color="#3023AE" offset="0%"/>
            <stop stop-color="#C86DD7" offset="100%"/>
        </linearGradient>
    </defs>
    <path stroke="url(#a)"
          stroke-width="3"
          stroke-linejoin="round"
          stroke-linecap="round"
          d="M5 40 C 5.84 38.76, 9.53 34, 10 32.58 S 13.51 9.79, 15 10 S 19.52 32.58, 20 34 S 23.55 39.24, 25 39.63 S 28.57 37.12, 30 36.67 S 33.5 36.45, 35 36.48 S 38.5 36.87, 40 36.89 S 43.5 36.71, 45 36.63 S 48.5 36.29, 50 36.34 S 53.5 36.87, 55 36.96 S 58.51 37.15, 60 36.96 S 63.5 35.8, 65 35.71 S 68.5 36.3, 70 36.37 S 73.5 36.12, 75 36.15 S 78.5 36.57, 80 36.58 S 83.5 36.14, 85 36.19 S 88.5 36.88, 90 36.93 S 93.51 36.75, 95 36.54 S 98.5 35.57, 100 35.54 S 103.51 36.2, 105 36.35 S 108.5 36.54, 110 36.56 S 113.5 36.53, 115 36.48 S 118.5 36.24, 120 36.22 S 123.5 36.36, 125 36.32 S 128.5 35.91, 130 35.97 S 133.5 36.62, 135 36.74 S 138.5 36.76, 140 36.78 S 143.5 36.8, 145 36.85 S 148.5 37.13, 150 37.09 S 153.5 36.66, 155 36.56 S 158.5 36.45, 160 36.41 S 163.5 36.22, 165 36.28 S 168.5 36.74, 170 36.78 S 173.5 36.56, 175 36.54 S 178.5 36.64, 180 36.65 S 183.5 36.54, 185 36.61 S 188.5 37.12, 190 37.13 S 193.5 36.75, 195 36.65 S 198.5 36.47, 200 36.48 S 203.5 36.66, 205 36.74"
          fill="none"/>
    <circle r="4" cx="5" cy="40" fill="#3023AE"/>
    <circle r="4" cx="205" cy="36.74" fill="#C86DD7"/>      
</svg>