<svg width="200" height="50" viewBox="0 0 210 50" xmlns="http://www.w3.org/2000/svg">
    <defs>
        <linearGradient x1="0%" y1="0%" x2="100%" y2="0%" id="a">
            <stop stop-color="#3023AE" offset="0%"/>
            <stop stop-color="#C86DD7" offset="100%"/>
        </linearGradient>
    </defs>
    <path stroke="url(#a)"
          stroke-width="3"
          stroke-linejoin="round"
          stroke-linecap="round"
          d="M5 40 C 5.25 38.52, 8.85 10.96, 10 10 S 14.28 30.35, 15 31.67 S 18.66 27.66, 20 28.33 S 23.66 36, 25 36.67 S 28.85 34.29, 30 33.33 S 33.5 28.33, 35 28.33 S 38.85 32.37, 40 33.33 S 43.5 36.67, 45 36.67 S 48.52 33.58, 50 33.33 S 53.5 35, 55 35 S 58.5 33.33, 60 33.33 S 63.66 35.67, 65 35 S 68.94 29.39, 70 28.33 S 73.52 24.75, 75 25 S 78.75 29.17, 80 30 S 83.52 31.92, 85 31.67 S 88.58 27.86, 90 28.33 S 93.58 34.52, 95 35 S 98.5 31.67, 100 31.67 S 103.52 34.75, 105 35 S 108.58 32.86, 110 33.33 S 113.52 38.58, 115 38.33 S 118.75 32.5, 120 31.67 S 123.52 31.42, 125 31.67 S 128.66 34, 130 33.33 S 133.66 27.34, 135 26.67 S 138.85 27.37, 140 28.33 S 143.66 34.33, 145 35 S 148.52 33.58, 150 33.33 S 153.75 34.16, 155 33.33 S 158.58 27.14, 160 26.67 S 163.94 28.94, 165 30 S 168.85 35.71, 170 36.67 S 173.58 38.81, 175 38.33 S 178.52 33.58, 180 33.33 S 183.58 37.14, 185 36.67 S 188.66 30.67, 190 30 S 193.58 31.2, 195 31.67 S 198.66 32.66, 200 33.33 S 203.75 35.84, 205 36.67"
          fill="none"/>
    <circle r="4" cx="5" cy="40" fill="#3023AE"/>
    <circle r="4" cx="205" cy="36.67" fill="#C86DD7"/>      
</svg>