<svg width="200" height="50" viewBox="0 0 210 50" xmlns="http://www.w3.org/2000/svg">
    <defs>
        <linearGradient x1="0%" y1="0%" x2="100%" y2="0%" id="a">
            <stop stop-color="#3023AE" offset="0%"/>
            <stop stop-color="#C86DD7" offset="100%"/>
        </linearGradient>
    </defs>
    <path stroke="url(#a)"
          stroke-width="3"
          stroke-linejoin="round"
          stroke-linecap="round"
          d="M5 40 C 6.5 39.99, 8.5 40.04, 10 39.95 S 13.5 39.52, 15 39.42 S 18.56 39.71, 20 39.3 S 23.54 36.88, 25 36.55 S 28.51 36.88, 30 37.02 S 33.5 37.5, 35 37.52 S 38.51 37.29, 40 37.15 S 43.53 36.85, 45 36.55 S 48.53 35.41, 50 35.12 S 53.51 34.78, 55 34.6 S 58.52 34.14, 60 33.92 S 63.62 33.7, 65 33.12 S 68.71 30.5, 70 29.74 S 73.54 27.61, 75 27.26 S 78.56 26.92, 80 27.34 S 83.5 30.31, 85 30.19 S 88.65 27.2, 90 26.56 S 93.86 26.41, 95 25.44 S 98.52 18.3, 100 18.03 S 103.97 22.52, 105 23.61 S 108.56 28.19, 110 28.59 S 113.52 26.68, 115 26.41 S 118.67 27.45, 120 26.76 S 123.5 21.23, 125 21.23 S 129 27.86, 130 26.74 S 133.68 10.71, 135 10 S 139.1 20.16, 140 21.36 S 143.57 23.75, 145 23.31 S 148.5 18.38, 150 18.31 S 153.66 22.19, 155 22.86 S 158.5 23.37, 160 23.29 S 163.54 22.02, 165 22.34 S 168.59 24.98, 170 25.49 S 173.51 26.18, 175 25.99 S 178.55 24.61, 180 24.21 S 183.5 23.15, 185 23.26 S 188.57 24.48, 190 24.94 S 193.5 26.39, 195 26.46 S 198.52 25.7, 200 25.44 S 203.52 24.93, 205 24.71"
          fill="none"/>
    <circle r="4" cx="5" cy="40" fill="#3023AE"/>
    <circle r="4" cx="205" cy="24.71" fill="#C86DD7"/>      
</svg>