<svg width="200" height="50" viewBox="0 0 210 50" xmlns="http://www.w3.org/2000/svg">
    <defs>
        <linearGradient x1="0%" y1="0%" x2="100%" y2="0%" id="a">
            <stop stop-color="#3023AE" offset="0%"/>
            <stop stop-color="#C86DD7" offset="100%"/>
        </linearGradient>
    </defs>
    <path stroke="url(#a)"
          stroke-width="3"
          stroke-linejoin="round"
          stroke-linecap="round"
          d="M5 40 C 6.42 39.52, 9.25 39.61, 10 38.31 S 13.9 23.7, 15 22.68 S 18.66 28.33, 20 29.01 S 23.55 28.15, 25 27.75 S 28.51 26.46, 30 26.27 S 33.51 26.29, 35 26.48 S 38.6 28.07, 40 27.54 S 43.53 22.99, 45 22.68 S 48.52 25.17, 50 25.42 S 53.51 24.56, 55 24.37 S 58.5 24.25, 60 24.15 S 63.83 24.67, 65 23.73 S 68.83 17.07, 70 16.13 S 73.51 15.83, 75 15.7 S 78.5 15.37, 80 15.28 S 83.61 14.51, 85 15.07 S 88.59 18.79, 90 19.3 S 93.65 19.32, 95 18.66 S 98.59 14.95, 100 14.44 S 103.58 14.59, 105 15.07 S 108.59 17.31, 110 17.82 S 113.56 18.24, 115 18.66 S 118.62 20.19, 120 20.77 S 123.62 23.47, 125 22.89 S 128.78 17.43, 130 16.55 S 133.5 15.64, 135 15.7 S 138.51 16.84, 140 16.97 S 143.51 16.71, 145 16.55 S 148.59 15.41, 150 15.92 S 153.7 20.88, 155 20.14 S 158.79 11.1, 160 10.21 S 164.05 11.59, 165 12.75 S 168.64 21.83, 170 22.46 S 173.84 18.34, 175 17.39 S 178.79 15.12, 180 14.23 S 183.57 9.55, 185 10 S 188.53 17.08, 190 17.39 S 193.74 12.93, 195 12.11 S 198.58 10.37, 200 10.85 S 203.9 14.47, 205 15.49"
          fill="none"/>
    <circle r="4" cx="5" cy="40" fill="#3023AE"/>
    <circle r="4" cx="205" cy="15.489999999999998" fill="#C86DD7"/>      
</svg>