<svg width="200" height="50" viewBox="0 0 210 50" xmlns="http://www.w3.org/2000/svg">
    <defs>
        <linearGradient x1="0%" y1="0%" x2="100%" y2="0%" id="a">
            <stop stop-color="#3023AE" offset="0%"/>
            <stop stop-color="#C86DD7" offset="100%"/>
        </linearGradient>
    </defs>
    <path stroke="url(#a)"
          stroke-width="3"
          stroke-linejoin="round"
          stroke-linecap="round"
          d="M5 40 C 6.48 39.78, 8.51 39.43, 10 39.26 S 13.5 38.8, 15 38.85 S 18.5 39.48, 20 39.57 S 23.5 39.44, 25 39.43 S 28.5 39.58, 30 39.49 S 33.5 38.91, 35 38.85 S 38.5 39.16, 40 39.08 S 43.5 38.38, 45 38.34 S 48.53 39.1, 50 38.81 S 53.53 36.64, 55 36.34 S 58.52 37.04, 60 36.79 S 63.54 35.01, 65 34.68 S 69.44 35.89, 70 34.5 S 73.8 10.91, 75 10 S 78.93 25.87, 80 26.92 S 84.08 20.96, 85 19.78 S 88.59 13.61, 90 14.11 S 93.96 22.26, 95 23.34 S 98.53 24.09, 100 24.41 S 103.58 25.02, 105 25.51 S 108.53 27.57, 110 27.89 S 113.51 27.47, 115 27.66 S 118.54 28.79, 120 29.15 S 123.51 30.03, 125 30.16 S 128.5 30.09, 130 29.99 S 133.5 29.44, 135 29.5 S 138.51 30.25, 140 30.4 S 143.52 30.72, 145 30.5 S 148.53 29.19, 150 28.91 S 153.51 28.4, 155 28.58 S 158.52 29.89, 160 30.14 S 163.5 30.18, 165 30.24 S 168.5 30.42, 170 30.51 S 173.54 30.5, 175 30.85 S 178.52 32.64, 180 32.9 S 183.62 33.18, 185 32.59 S 188.51 28.77, 190 28.58 S 193.53 31.06, 195 31.34 S 198.5 30.53, 200 30.48 S 203.51 30.86, 205 31.02"
          fill="none"/>
    <circle r="4" cx="5" cy="40" fill="#3023AE"/>
    <circle r="4" cx="205" cy="31.02" fill="#C86DD7"/>      
</svg>