<svg width="200" height="50" viewBox="0 0 210 50" xmlns="http://www.w3.org/2000/svg">
    <defs>
        <linearGradient x1="0%" y1="0%" x2="100%" y2="0%" id="a">
            <stop stop-color="#3023AE" offset="0%"/>
            <stop stop-color="#C86DD7" offset="100%"/>
        </linearGradient>
    </defs>
    <path stroke="url(#a)"
          stroke-width="3"
          stroke-linejoin="round"
          stroke-linecap="round"
          d="M5 40 C 5.25 38.52, 8.56 10.41, 10 10 S 14.52 35.75, 15 37.17 S 18.54 39.02, 20 39.38 S 23.5 39.63, 25 39.67 S 28.5 39.6, 30 39.62 S 33.5 39.75, 35 39.78 S 38.5 39.84, 40 39.85 S 43.5 39.86, 45 39.84 S 48.5 39.75, 50 39.74 S 53.5 39.77, 55 39.78 S 58.5 39.84, 60 39.84 S 63.5 39.79, 65 39.79 S 68.5 39.81, 70 39.82 S 73.5 39.88, 75 39.89 S 78.5 39.91, 80 39.91 S 83.5 39.91, 85 39.91 S 88.5 39.89, 90 39.88 S 93.5 39.88, 95 39.87 S 98.5 39.84, 100 39.84 S 103.5 39.88, 105 39.89 S 108.5 39.9, 110 39.91 S 113.5 39.95, 115 39.95 S 118.5 39.95, 120 39.93 S 123.5 39.83, 125 39.82 S 128.5 39.86, 130 39.88 S 133.5 39.94, 135 39.95 S 138.5 39.98, 140 39.97 S 143.5 39.89, 145 39.89 S 148.5 39.95, 150 39.95 S 153.5 39.91, 155 39.91 S 158.5 39.95, 160 39.95 S 163.5 39.94, 165 39.93 S 168.5 39.9, 170 39.89 S 173.5 39.88, 175 39.89 S 178.5 39.96, 180 39.96 S 183.5 39.89, 185 39.89 S 188.5 39.93, 190 39.93 S 193.5 39.91, 195 39.88 S 198.5 39.7, 200 39.7 S 203.5 39.85, 205 39.91"
          fill="none"/>
    <circle r="4" cx="5" cy="40" fill="#3023AE"/>
    <circle r="4" cx="205" cy="39.91" fill="#C86DD7"/>      
</svg>