<svg width="200" height="50" viewBox="0 0 210 50" xmlns="http://www.w3.org/2000/svg">
    <defs>
        <linearGradient x1="0%" y1="0%" x2="100%" y2="0%" id="a">
            <stop stop-color="#3023AE" offset="0%"/>
            <stop stop-color="#C86DD7" offset="100%"/>
        </linearGradient>
    </defs>
    <path stroke="url(#a)"
          stroke-width="3"
          stroke-linejoin="round"
          stroke-linecap="round"
          d="M5 40 C 5.44 38.56, 8.5 23.68, 10 23.57 S 14.19 38.02, 15 39.29 S 18.5 39.29, 20 39.29 S 23.5 39.29, 25 39.29 S 28.5 39.29, 30 39.29 S 33.5 39.29, 35 39.29 S 38.5 39.29, 40 39.29 S 43.5 39.4, 45 39.29 S 48.52 38.78, 50 38.57 S 53.5 37.75, 55 37.86 S 58.52 39.08, 60 39.29 S 63.5 39.29, 65 39.29 S 68.5 39.29, 70 39.29 S 73.5 39.29, 75 39.29 S 78.5 39.29, 80 39.29 S 83.5 39.29, 85 39.29 S 88.5 39.29, 90 39.29 S 93.53 39.61, 95 39.29 S 98.9 38.16, 100 37.14 S 103.5 29.89, 105 30 S 108.9 36.84, 110 37.86 S 113.56 39.7, 115 39.29 S 119.52 36.42, 120 35 S 124.43 11.39, 125 10 S 129.19 9.44, 130 10.71 S 134.38 24.34, 135 25.71 S 138.62 33.45, 140 32.86 S 143.98 22.53, 145 21.43 S 148.7 21.4, 150 22.14 S 153.86 26.16, 155 27.14 S 158.59 30.21, 160 30.71 S 163.7 31.45, 165 30.71 S 168.56 24.59, 170 25 S 173.74 32.76, 175 33.57 S 178.52 31.64, 180 31.43 S 183.56 31.73, 185 32.14 S 188.53 33.97, 190 34.29 S 193.5 34.29, 195 34.29 S 198.66 33.62, 200 34.29 S 203.94 38.23, 205 39.29"
          fill="none"/>
    <circle r="4" cx="5" cy="40" fill="#3023AE"/>
    <circle r="4" cx="205" cy="39.29" fill="#C86DD7"/>      
</svg>