<svg width="200" height="50" viewBox="0 0 210 50" xmlns="http://www.w3.org/2000/svg">
    <defs>
        <linearGradient x1="0%" y1="0%" x2="100%" y2="0%" id="a">
            <stop stop-color="#3023AE" offset="0%"/>
            <stop stop-color="#C86DD7" offset="100%"/>
        </linearGradient>
    </defs>
    <path stroke="url(#a)"
          stroke-width="3"
          stroke-linejoin="round"
          stroke-linecap="round"
          d="M5 40 C 6.5 39.95, 8.5 39.88, 10 39.83 S 13.5 39.78, 15 39.67 S 18.5 39.16, 20 39.1 S 23.5 39.25, 25 39.29 S 28.5 39.35, 30 39.35 S 33.5 39.34, 35 39.29 S 38.5 39.05, 40 39.02 S 43.5 39.18, 45 39.06 S 48.5 38.33, 50 38.25 S 53.5 38.46, 55 38.53 S 58.5 38.83, 60 38.74 S 63.55 38.33, 65 37.96 S 68.54 36.49, 70 36.16 S 73.5 35.66, 75 35.74 S 78.5 36.57, 80 36.69 S 83.5 36.53, 85 36.53 S 88.5 36.7, 90 36.69 S 93.5 36.56, 95 36.49 S 98.5 36.3, 100 36.24 S 103.51 36.28, 105 36.12 S 108.51 35.35, 110 35.18 S 113.5 34.97, 115 34.97 S 118.5 35.12, 120 35.15 S 123.5 35.11, 125 35.18 S 128.5 35.51, 130 35.59 S 133.5 35.81, 135 35.7 S 138.52 35.13, 140 34.86 S 143.51 33.71, 145 33.87 S 148.5 35.78, 150 35.9 S 154.46 36.05, 155 34.65 S 159.29 11.32, 160 10 S 164.17 14.66, 165 15.91 S 169.1 23.88, 170 25.08 S 173.73 28.43, 175 29.23 S 178.52 31.12, 180 31.34 S 183.5 30.8, 185 30.74 S 188.51 30.78, 190 30.95 S 193.53 31.55, 195 31.86 S 198.5 32.99, 200 33.07 S 203.51 32.59, 205 32.39"
          fill="none"/>
    <circle r="4" cx="5" cy="40" fill="#3023AE"/>
    <circle r="4" cx="205" cy="32.39" fill="#C86DD7"/>      
</svg>