<svg width="200" height="50" viewBox="0 0 210 50" xmlns="http://www.w3.org/2000/svg">
    <defs>
        <linearGradient x1="0%" y1="0%" x2="100%" y2="0%" id="a">
            <stop stop-color="#3023AE" offset="0%"/>
            <stop stop-color="#C86DD7" offset="100%"/>
        </linearGradient>
    </defs>
    <path stroke="url(#a)"
          stroke-width="3"
          stroke-linejoin="round"
          stroke-linecap="round"
          d="M5 40 C 5.25 38.52, 9.17 11.25, 10 10 S 14.37 23.64, 15 25 S 18.58 31.2, 20 31.67 S 23.52 28.08, 25 28.33 S 28.75 32.5, 30 33.33 S 33.58 34.52, 35 35 S 38.52 36.42, 40 36.67 S 43.85 37.63, 45 36.67 S 48.75 29.16, 50 28.33 S 53.66 29.33, 55 30 S 58.5 33.33, 60 33.33 S 63.66 29.33, 65 30 S 68.58 37.86, 70 38.33 S 73.52 33.58, 75 33.33 S 78.66 36, 80 36.67 S 83.52 38.08, 85 38.33 S 88.5 38.33, 90 38.33 S 93.5 38.33, 95 38.33 S 98.5 38.33, 100 38.33 S 103.5 38.33, 105 38.33 S 108.5 38.33, 110 38.33 S 113.5 38.33, 115 38.33 S 118.5 38.33, 120 38.33 S 123.5 38.33, 125 38.33 S 128.5 38.33, 130 38.33 S 133.5 38.33, 135 38.33 S 138.5 38.33, 140 38.33 S 143.5 38.33, 145 38.33 S 148.5 38.33, 150 38.33 S 153.5 38.33, 155 38.33 S 158.5 38.33, 160 38.33"
          fill="none"/>
    <circle r="4" cx="5" cy="40" fill="#3023AE"/>
    <circle r="4" cx="160" cy="38.33" fill="#C86DD7"/>      
</svg>