<svg width="200" height="50" viewBox="0 0 210 50" xmlns="http://www.w3.org/2000/svg">
    <defs>
        <linearGradient x1="0%" y1="0%" x2="100%" y2="0%" id="a">
            <stop stop-color="#3023AE" offset="0%"/>
            <stop stop-color="#C86DD7" offset="100%"/>
        </linearGradient>
    </defs>
    <path stroke="url(#a)"
          stroke-width="3"
          stroke-linejoin="round"
          stroke-linecap="round"
          d="M5 40 C 6.49 39.8, 8.5 39.43, 10 39.33 S 13.5 39.41, 15 39.33 S 18.5 38.87, 20 38.82 S 23.51 39.14, 25 38.99 S 28.5 37.78, 30 37.81 S 33.65 39.82, 35 39.16 S 38.69 33.65, 40 32.92 S 43.67 34.29, 45 33.6 S 48.59 28.22, 50 27.7 S 53.51 29.69, 55 29.89 S 58.5 29.12, 60 29.04 S 63.63 29.98, 65 29.38 S 68.61 25.22, 70 24.66 S 73.51 25.49, 75 25.34 S 78.51 23.52, 80 23.65 S 83.53 26.5, 85 26.18 S 88.5 21.38, 90 21.46 S 93.64 26.05, 95 26.69 S 98.5 26.21, 100 26.18 S 103.51 26.34, 105 26.52 S 108.51 27.49, 110 27.36 S 113.57 26.13, 115 25.67 S 118.53 24.46, 120 24.16 S 123.5 23.65, 125 23.65 S 128.5 24.23, 130 24.16 S 133.61 23.71, 135 23.15 S 138.54 19.77, 140 20.11 S 143.58 25.03, 145 25.51 S 148.5 23.58, 150 23.48 S 153.5 24.88, 155 24.83 S 158.5 23.2, 160 23.15 S 163.5 24.47, 165 24.49 S 168.5 23.21, 170 23.31 S 173.5 25.24, 175 25.17 S 179.17 24.06, 180 22.81 S 183.57 10.46, 185 10 S 188.95 18.54, 190 19.61 S 193.6 19.57, 195 20.11 S 198.63 22.88, 200 23.48 S 203.53 24.19, 205 24.49"
          fill="none"/>
    <circle r="4" cx="5" cy="40" fill="#3023AE"/>
    <circle r="4" cx="205" cy="24.490000000000002" fill="#C86DD7"/>      
</svg>