<svg width="200" height="50" viewBox="0 0 210 50" xmlns="http://www.w3.org/2000/svg">
    <defs>
        <linearGradient x1="0%" y1="0%" x2="100%" y2="0%" id="a">
            <stop stop-color="#3023AE" offset="0%"/>
            <stop stop-color="#C86DD7" offset="100%"/>
        </linearGradient>
    </defs>
    <path stroke="url(#a)"
          stroke-width="3"
          stroke-linejoin="round"
          stroke-linecap="round"
          d="M5 40 C 6.49 39.86, 8.5 39.6, 10 39.53 S 13.5 39.53, 15 39.53 S 18.51 39.67, 20 39.53 S 23.5 38.59, 25 38.59 S 28.51 39.39, 30 39.53 S 33.53 39.81, 35 39.53 S 38.54 38, 40 37.66 S 43.51 36.98, 45 37.19 S 48.5 38.99, 50 39.06 S 53.54 38, 55 37.66 S 58.51 36.51, 60 36.72 S 63.54 38.72, 65 39.06 S 68.57 39.53, 70 39.06 S 73.56 36.19, 75 35.78 S 78.56 36.66, 80 36.25 S 83.56 33.38, 85 32.97 S 88.64 32.8, 90 33.44 S 93.53 37.38, 95 37.66 S 98.56 35.72, 100 35.31 S 103.51 34.63, 105 34.84 S 108.93 37.77, 110 36.72 S 113.91 26.03, 115 25 S 118.51 27.13, 120 27.34 S 123.56 26, 125 26.41 S 128.93 31.21, 130 30.16 S 133.67 17.25, 135 16.56 S 138.54 24.66, 140 25 S 143.51 19.05, 145 18.91 S 148.56 24.47, 150 24.06 S 154.07 17.27, 155 16.09 S 158.62 10.83, 160 11.41 S 164 19.19, 165 20.31 S 168.5 22.66, 170 22.66 S 173.54 19.97, 175 20.31 S 178.51 24.79, 180 25 S 183.75 22.54, 185 21.72 S 188.75 19.26, 190 18.44 S 193.53 14.88, 195 15.16 S 198.67 21, 200 20.31 S 204.35 11.35, 205 10"
          fill="none"/>
    <circle r="4" cx="5" cy="40" fill="#3023AE"/>
    <circle r="4" cx="205" cy="10" fill="#C86DD7"/>      
</svg>