<svg width="200" height="50" viewBox="0 0 210 50" xmlns="http://www.w3.org/2000/svg">
    <defs>
        <linearGradient x1="0%" y1="0%" x2="100%" y2="0%" id="a">
            <stop stop-color="#3023AE" offset="0%"/>
            <stop stop-color="#C86DD7" offset="100%"/>
        </linearGradient>
    </defs>
    <path stroke="url(#a)"
          stroke-width="3"
          stroke-linejoin="round"
          stroke-linecap="round"
          d="M5 40 C 6.5 39.99, 8.7 40.7, 10 39.96 S 13.53 34.62, 15 34.33 S 18.59 37.47, 20 37.99 S 24.02 39.15, 25 38.02 S 28.53 26.18, 30 26.46 S 33.72 40.69, 35 39.91 S 38.68 21.07, 40 20.36 S 44.24 33.23, 45 34.52 S 48.51 37.24, 50 37.39 S 53.52 35.3, 55 35.52 S 58.58 39.34, 60 38.85 S 63.51 32.25, 65 32.08 S 68.77 36.82, 70 37.68 S 73.52 38.85, 75 39.08 S 78.73 39.99, 80 39.2 S 83.73 33.67, 85 32.87 S 88.52 33.16, 90 32.94 S 93.51 31.59, 95 31.41 S 98.63 32.37, 100 31.76 S 103.55 27.4, 105 27 S 108.5 29.06, 110 29.01 S 113.56 27.09, 115 26.66 S 118.57 26.45, 120 26.01 S 123.53 23.93, 125 23.61 S 128.52 23.6, 130 23.83 S 133.5 25.12, 135 25.19 S 138.58 24.77, 140 24.3 S 143.57 22.33, 145 21.86 S 148.5 20.92, 150 21.03 S 153.51 22.71, 155 22.59 S 158.58 20.68, 160 20.21 S 163.5 19.42, 165 19.3 S 168.52 19.21, 170 19.44 S 173.51 20.96, 175 20.82 S 178.65 19.15, 180 18.49 S 183.83 16.88, 185 15.94 S 188.5 10.51, 190 10.43 S 193.5 15.49, 195 15.43 S 198.56 10.42, 200 10 S 203.66 11.82, 205 12.49"
          fill="none"/>
    <circle r="4" cx="5" cy="40" fill="#3023AE"/>
    <circle r="4" cx="205" cy="12.489999999999998" fill="#C86DD7"/>      
</svg>