<svg width="200" height="50" viewBox="0 0 210 50" xmlns="http://www.w3.org/2000/svg">
    <defs>
        <linearGradient x1="0%" y1="0%" x2="100%" y2="0%" id="a">
            <stop stop-color="#3023AE" offset="0%"/>
            <stop stop-color="#C86DD7" offset="100%"/>
        </linearGradient>
    </defs>
    <path stroke="url(#a)"
          stroke-width="3"
          stroke-linejoin="round"
          stroke-linecap="round"
          d="M5 40 C 6.5 39.98, 8.82 40.87, 10 39.94 S 13.55 32.53, 15 32.13 S 18.67 36.52, 20 37.2 S 24.21 38.54, 25 37.26 S 28.55 20.68, 30 21.06 S 33.56 40.29, 35 39.87 S 38.68 18.83, 40 18.11 S 44.17 33.16, 45 34.41 S 48.51 32.97, 50 33.13 S 53.5 35.41, 55 35.5 S 58.56 33.35, 60 33.76 S 63.53 38.63, 65 38.35 S 68.54 32.16, 70 31.83 S 73.69 35.33, 75 36.06 S 78.56 36.97, 80 37.39 S 83.52 38.72, 85 38.96 S 88.76 39.84, 90 39 S 93.81 33.11, 95 32.19 S 98.51 31.4, 100 31.24 S 103.57 31.56, 105 31.11 S 108.51 28.23, 110 28.07 S 113.64 30.7, 115 30.06 S 118.62 23.93, 120 23.35 S 123.5 25.84, 125 25.89 S 128.6 24.22, 130 23.69 S 133.57 22.58, 135 22.11 S 138.57 20.87, 140 20.41 S 143.57 18.38, 145 18.85 S 148.52 23.46, 150 23.69 S 153.6 20.92, 155 20.37 S 158.58 20.22, 160 19.74 S 163.58 17.47, 165 16.98 S 168.51 16.13, 170 16.3 S 173.54 17.76, 175 18.11 S 178.83 19.64, 180 18.7 S 183.59 10.51, 185 10 S 188.63 14.47, 190 15.09 S 193.5 14.43, 195 14.52 S 198.56 16.12, 200 15.69 S 203.84 12.52, 205 11.56"
          fill="none"/>
    <circle r="4" cx="5" cy="40" fill="#3023AE"/>
    <circle r="4" cx="205" cy="11.559999999999999" fill="#C86DD7"/>      
</svg>