<svg width="200" height="50" viewBox="0 0 210 50" xmlns="http://www.w3.org/2000/svg">
    <defs>
        <linearGradient x1="0%" y1="0%" x2="100%" y2="0%" id="a">
            <stop stop-color="#3023AE" offset="0%"/>
            <stop stop-color="#C86DD7" offset="100%"/>
        </linearGradient>
    </defs>
    <path stroke="url(#a)"
          stroke-width="3"
          stroke-linejoin="round"
          stroke-linecap="round"
          d="M5 40 C 5.25 38.52, 8.58 10.48, 10 10 S 14.52 35.2, 15 36.62 S 18.52 39.69, 20 39.95 S 23.62 38.97, 25 38.38 S 28.6 36.24, 30 35.71 S 33.52 34.88, 35 34.63 S 38.5 34.03, 40 34.05 S 43.53 35.04, 45 34.77 S 48.51 32.34, 50 32.2 S 53.52 33.61, 55 33.86 S 58.5 33.97, 60 33.91 S 63.51 33.26, 65 33.46 S 68.51 35.07, 70 35.26 S 73.51 34.92, 75 34.72 S 78.52 33.67, 80 33.91 S 83.5 36.23, 85 36.35 S 88.52 34.9, 90 34.68 S 93.52 35.11, 95 34.86 S 98.52 32.74, 100 32.96 S 103.55 35.96, 105 36.35 S 108.51 35.81, 110 35.67 S 113.5 35.54, 115 35.44 S 118.5 34.89, 120 34.99 S 123.51 35.98, 125 36.12 S 128.5 35.93, 130 35.94 S 133.5 36.2, 135 36.17 S 138.5 35.73, 140 35.71 S 143.5 36.12, 145 36.03 S 148.54 35.42, 150 35.08 S 153.51 33.81, 155 33.68 S 158.51 34.05, 160 34.23 S 163.51 34.72, 165 34.9 S 168.5 35.43, 170 35.44 S 173.5 34.93, 175 34.99 S 178.51 35.72, 180 35.85 S 183.51 36.04, 185 35.85 S 188.5 34.52, 190 34.59 S 193.54 35.98, 195 36.3 S 198.5 36.83, 200 36.8 S 203.51 36.32, 205 36.12"
          fill="none"/>
    <circle r="4" cx="5" cy="40" fill="#3023AE"/>
    <circle r="4" cx="205" cy="36.12" fill="#C86DD7"/>      
</svg>