<svg width="200" height="50" viewBox="0 0 210 50" xmlns="http://www.w3.org/2000/svg">
    <defs>
        <linearGradient x1="0%" y1="0%" x2="100%" y2="0%" id="a">
            <stop stop-color="#3023AE" offset="0%"/>
            <stop stop-color="#C86DD7" offset="100%"/>
        </linearGradient>
    </defs>
    <path stroke="url(#a)"
          stroke-width="3"
          stroke-linejoin="round"
          stroke-linecap="round"
          d="M5 40 C 5.25 38.52, 8.53 10.31, 10 10 S 14.48 36.45, 15 37.86 S 18.51 36.63, 20 36.79 S 23.53 38.62, 25 38.93 S 28.51 39.09, 30 38.93 S 33.5 37.86, 35 37.86 S 38.51 38.77, 40 38.93 S 43.5 38.93, 45 38.93 S 48.5 38.93, 50 38.93 S 53.5 38.93, 55 38.93 S 58.5 38.93, 60 38.93 S 63.62 39.52, 65 38.93 S 68.74 35.45, 70 34.64 S 73.51 32.66, 75 32.5 S 78.51 33.73, 80 33.57 S 83.8 32.33, 85 31.43 S 88.74 26.88, 90 26.07 S 93.53 24.69, 95 25 S 98.74 27.4, 100 28.21 S 103.53 31.74, 105 31.43 S 108.92 27.11, 110 26.07 S 113.51 21.63, 115 21.79 S 118.62 26.55, 120 27.14 S 123.57 26.53, 125 26.07 S 128.8 24.83, 130 23.93 S 133.86 17.59, 135 18.57 S 138.98 31.4, 140 32.5 S 143.62 29.88, 145 29.29 S 148.53 27.9, 150 28.21 S 153.86 30.45, 155 31.43 S 158.5 36.79, 160 36.79 S 163.8 32.33, 165 31.43 S 168.8 30.19, 170 29.29 S 173.53 23.62, 175 23.93 S 179.08 30.25, 180 31.43 S 183.57 37.25, 185 36.79 S 188.51 28.37, 190 28.21 S 193.68 35, 195 35.71 S 198.8 34.47, 200 33.57 S 203.98 29.31, 205 28.21"
          fill="none"/>
    <circle r="4" cx="5" cy="40" fill="#3023AE"/>
    <circle r="4" cx="205" cy="28.21" fill="#C86DD7"/>      
</svg>