<svg width="200" height="50" viewBox="0 0 210 50" xmlns="http://www.w3.org/2000/svg">
    <defs>
        <linearGradient x1="0%" y1="0%" x2="100%" y2="0%" id="a">
            <stop stop-color="#3023AE" offset="0%"/>
            <stop stop-color="#C86DD7" offset="100%"/>
        </linearGradient>
    </defs>
    <path stroke="url(#a)"
          stroke-width="3"
          stroke-linejoin="round"
          stroke-linecap="round"
          d="M5 40 C 6.34 39.33, 8.54 37.86, 10 37.5 S 13.5 37.5, 15 37.5 S 18.5 37.5, 20 37.5 S 23.5 37.5, 25 37.5 S 28.5 37.5, 30 37.5 S 33.5 37.5, 35 37.5 S 38.5 37.5, 40 37.5 S 43.5 37.5, 45 37.5 S 49.06 38.67, 50 37.5 S 53.8 25.9, 55 25 S 58.66 29.33, 60 30 S 63.8 30.9, 65 30 S 69.06 23.67, 70 22.5 S 73.8 16.6, 75 17.5 S 78.66 29.33, 80 30 S 83.5 22.5, 85 22.5 S 88.5 30, 90 30 S 93.54 22.86, 95 22.5 S 98.94 26.44, 100 27.5 S 103.5 32.5, 105 32.5 S 109.17 28.75, 110 27.5 S 113.5 17.5, 115 17.5 S 118.54 27.86, 120 27.5 S 123.5 15, 125 15 S 129.26 26.2, 130 27.5 S 133.5 32.5, 135 32.5 S 138.66 26.83, 140 27.5 S 143.8 38.4, 145 37.5 S 148.66 20.67, 150 20 S 153.54 32.14, 155 32.5 S 159.33 23.84, 160 22.5 S 163.5 12.5, 165 12.5 S 169.26 21.2, 170 22.5 S 173.66 29.33, 175 30 S 178.5 27.5, 180 27.5 S 183.8 29.1, 185 30 S 188.54 35.36, 190 35 S 194.44 28.89, 195 27.5 S 198.5 10, 200 10 S 204.59 26.06, 205 27.5"
          fill="none"/>
    <circle r="4" cx="5" cy="40" fill="#3023AE"/>
    <circle r="4" cx="205" cy="27.5" fill="#C86DD7"/>      
</svg>