<svg width="200" height="50" viewBox="0 0 210 50" xmlns="http://www.w3.org/2000/svg">
    <defs>
        <linearGradient x1="0%" y1="0%" x2="100%" y2="0%" id="a">
            <stop stop-color="#3023AE" offset="0%"/>
            <stop stop-color="#C86DD7" offset="100%"/>
        </linearGradient>
    </defs>
    <path stroke="url(#a)"
          stroke-width="3"
          stroke-linejoin="round"
          stroke-linecap="round"
          d="M5 40 C 6.5 39.96, 8.5 39.91, 10 39.85 S 13.5 39.72, 15 39.61 S 18.5 39.15, 20 39.13 S 23.6 40, 25 39.47 S 28.66 36.06, 30 35.39 S 33.51 34.28, 35 34.47 S 38.63 36.1, 40 36.7 S 43.53 38.53, 45 38.83 S 48.51 38.87, 50 38.74 S 53.53 38.23, 55 37.96 S 58.58 37.37, 60 36.89 S 63.6 35.1, 65 34.56 S 68.51 32.92, 70 33.06 S 74.15 36.73, 75 35.49 S 79.3 19.78, 80 18.45 S 83.58 16.96, 85 16.46 S 88.5 14.89, 90 14.95 S 94.01 15.76, 95 16.89 S 99.19 25.05, 100 26.31 S 103.68 31.77, 105 32.48 S 108.6 32.18, 110 31.65 S 113.53 29, 115 28.69 S 118.53 29.83, 120 29.51 S 123.5 26.6, 125 26.5 S 128.5 28.88, 130 28.83 S 133.5 26.17, 135 26.17 S 138.51 28.7, 140 28.83 S 143.5 27.07, 145 27.04 S 149.24 29.93, 150 28.64 S 153.75 10.83, 155 10 S 159.02 20.8, 160 21.94 S 163.7 22.35, 165 21.6 S 168.59 16.72, 170 16.21 S 173.89 16.95, 175 17.96 S 178.65 24.59, 180 25.24 S 183.5 22.88, 185 22.77 S 188.56 24.1, 190 24.51 S 193.5 25.72, 195 25.63 S 198.62 24.52, 200 23.93 S 203.67 22.05, 205 21.36"
          fill="none"/>
    <circle r="4" cx="5" cy="40" fill="#3023AE"/>
    <circle r="4" cx="205" cy="21.36" fill="#C86DD7"/>      
</svg>