<svg width="200" height="50" viewBox="0 0 210 50" xmlns="http://www.w3.org/2000/svg">
    <defs>
        <linearGradient x1="0%" y1="0%" x2="100%" y2="0%" id="a">
            <stop stop-color="#3023AE" offset="0%"/>
            <stop stop-color="#C86DD7" offset="100%"/>
        </linearGradient>
    </defs>
    <path stroke="url(#a)"
          stroke-width="3"
          stroke-linejoin="round"
          stroke-linecap="round"
          d="M5 40 C 6.5 39.96, 8.5 39.93, 10 39.87 S 13.5 39.71, 15 39.62 S 18.5 39.26, 20 39.24 S 23.64 40.13, 25 39.49 S 28.56 34.96, 30 34.54 S 33.55 36.24, 35 36.61 S 38.53 36.81, 40 37.12 S 43.53 38.43, 45 38.73 S 48.5 39.26, 50 39.15 S 53.53 38.3, 55 38.01 S 58.67 37.9, 60 37.21 S 63.51 32.99, 65 32.85 S 68.55 35.89, 70 36.28 S 74.43 36.95, 75 35.56 S 78.8 13.02, 80 12.12 S 83.53 28.38, 85 28.07 S 88.51 10.18, 90 10 S 94.28 25.57, 95 26.88 S 98.74 27.34, 100 28.15 S 103.65 32.66, 105 33.31 S 108.57 33.39, 110 32.93 S 113.64 30.69, 115 30.06 S 118.5 28.35, 120 28.32 S 123.5 29.83, 125 29.84 S 128.5 28.33, 130 28.41 S 133.5 30.35, 135 30.35 S 138.51 28.58, 140 28.41 S 143.54 29.56, 145 29.21 S 149.12 27.26, 150 26.04 S 153.6 15.86, 155 15.33 S 158.87 21.28, 160 22.27 S 163.77 24.94, 165 24.09 S 168.53 15.1, 170 15.37 S 173.95 24.88, 175 25.95 S 178.5 25.7, 180 25.61 S 183.54 25.01, 185 25.36 S 188.51 27.79, 190 27.98 S 193.63 27.23, 195 26.63 S 198.58 24.07, 200 23.58 S 203.5 23.31, 205 23.2"
          fill="none"/>
    <circle r="4" cx="5" cy="40" fill="#3023AE"/>
    <circle r="4" cx="205" cy="23.2" fill="#C86DD7"/>      
</svg>