<svg width="200" height="50" viewBox="0 0 210 50" xmlns="http://www.w3.org/2000/svg">
    <defs>
        <linearGradient x1="0%" y1="0%" x2="100%" y2="0%" id="a">
            <stop stop-color="#3023AE" offset="0%"/>
            <stop stop-color="#C86DD7" offset="100%"/>
        </linearGradient>
    </defs>
    <path stroke="url(#a)"
          stroke-width="3"
          stroke-linejoin="round"
          stroke-linecap="round"
          d="M5 40 C 6.5 39.99, 8.5 39.97, 10 39.97 S 13.5 39.97, 15 39.97 S 18.5 39.98, 20 39.97 S 23.5 39.93, 25 39.93 S 28.5 39.96, 30 39.97 S 33.5 39.97, 35 39.97 S 38.5 39.97, 40 39.97 S 43.5 39.97, 45 39.97 S 48.5 39.97, 50 39.97 S 54.53 41.39, 55 39.97 S 58.51 10.18, 60 10 S 64.52 37.31, 65 38.73 S 68.51 39.47, 70 39.6 S 73.5 39.57, 75 39.57 S 78.5 39.57, 80 39.6 S 83.5 39.74, 85 39.77 S 88.5 39.82, 90 39.83 S 93.5 39.86, 95 39.87 S 98.5 39.91, 100 39.9 S 103.5 39.78, 105 39.77 S 108.5 39.81, 110 39.83 S 113.5 39.9, 115 39.9 S 118.5 39.85, 120 39.83 S 123.5 39.75, 125 39.77 S 128.5 39.97, 130 39.97 S 133.5 39.84, 135 39.8 S 138.5 39.68, 140 39.67 S 143.5 39.7, 145 39.73 S 148.5 39.86, 150 39.9 S 153.5 39.97, 155 39.97 S 158.5 39.9, 160 39.87 S 163.5 39.79, 165 39.77 S 168.5 39.73, 170 39.73 S 173.5 39.79, 175 39.8 S 178.5 39.8, 180 39.77 S 183.5 39.66, 185 39.63 S 188.5 39.56, 190 39.6 S 193.5 39.82, 195 39.87 S 198.5 40, 200 39.93 S 203.51 39.58, 205 39.43"
          fill="none"/>
    <circle r="4" cx="5" cy="40" fill="#3023AE"/>
    <circle r="4" cx="205" cy="39.43" fill="#C86DD7"/>      
</svg>