<svg width="200" height="50" viewBox="0 0 210 50" xmlns="http://www.w3.org/2000/svg">
    <defs>
        <linearGradient x1="0%" y1="0%" x2="100%" y2="0%" id="a">
            <stop stop-color="#3023AE" offset="0%"/>
            <stop stop-color="#C86DD7" offset="100%"/>
        </linearGradient>
    </defs>
    <path stroke="url(#a)"
          stroke-width="3"
          stroke-linejoin="round"
          stroke-linecap="round"
          d="M5 40 C 5.25 38.52, 9.41 11.38, 10 10 S 14.33 15.45, 15 16.79 S 19.09 28.96, 20 30.15 S 23.75 29.11, 25 29.93 S 28.87 35.73, 30 36.72 S 33.53 38.4, 35 38.69 S 38.5 38.63, 40 38.69 S 43.51 38.99, 45 39.12 S 48.5 39.62, 50 39.56 S 53.51 38.82, 55 38.69 S 58.51 38.56, 60 38.69 S 63.5 39.46, 65 39.56 S 68.51 39.5, 70 39.34 S 73.5 38.57, 75 38.47 S 78.51 38.56, 80 38.69 S 83.51 39.18, 85 39.34 S 88.5 39.71, 90 39.78 S 93.5 39.78, 95 39.78 S 98.5 39.78, 100 39.78 S 103.5 39.78, 105 39.78 S 108.5 39.78, 110 39.78 S 113.5 39.81, 115 39.78 S 118.5 39.56, 120 39.56 S 123.5 39.75, 125 39.78 S 128.5 39.78, 130 39.78 S 133.5 39.78, 135 39.78 S 138.5 39.78, 140 39.78 S 143.5 39.78, 145 39.78 S 148.5 39.78, 150 39.78 S 153.5 39.78, 155 39.78 S 158.5 39.78, 160 39.78 S 163.5 39.78, 165 39.78 S 168.5 39.78, 170 39.78 S 173.5 39.78, 175 39.78 S 178.5 39.78, 180 39.78 S 183.52 40.01, 185 39.78 S 188.52 38.48, 190 38.25 S 193.51 38.06, 195 38.25 S 198.51 39.37, 200 39.56 S 203.5 39.56, 205 39.56"
          fill="none"/>
    <circle r="4" cx="5" cy="40" fill="#3023AE"/>
    <circle r="4" cx="205" cy="39.56" fill="#C86DD7"/>      
</svg>