<svg width="200" height="50" viewBox="0 0 210 50" xmlns="http://www.w3.org/2000/svg">
    <defs>
        <linearGradient x1="0%" y1="0%" x2="100%" y2="0%" id="a">
            <stop stop-color="#3023AE" offset="0%"/>
            <stop stop-color="#C86DD7" offset="100%"/>
        </linearGradient>
    </defs>
    <path stroke="url(#a)"
          stroke-width="3"
          stroke-linejoin="round"
          stroke-linecap="round"
          d="M5 40 C 5.25 38.52, 8.93 11.05, 10 10 S 14.41 28.82, 15 30.2 S 18.79 32.29, 20 33.18 S 23.71 36.79, 25 37.55 S 28.53 38.74, 30 39.04 S 33.5 39.49, 35 39.56 S 38.5 39.47, 40 39.48 S 43.5 39.72, 45 39.65 S 48.5 39.16, 50 39.04 S 53.5 38.93, 55 38.86 S 58.5 38.55, 60 38.6 S 63.5 39.14, 65 39.21 S 68.5 39.08, 70 39.04 S 73.5 38.88, 75 38.95 S 78.51 39.35, 80 39.48 S 83.5 39.77, 85 39.83 S 88.5 39.94, 90 39.91 S 93.5 39.65, 95 39.65 S 98.5 39.9, 100 39.91 S 103.5 39.75, 105 39.74 S 108.5 39.8, 110 39.83 S 113.5 39.91, 115 39.91 S 118.5 39.83, 120 39.83 S 123.5 39.9, 125 39.91 S 128.5 39.94, 130 39.91 S 133.5 39.74, 135 39.74 S 138.5 39.88, 140 39.91 S 143.5 39.91, 145 39.91 S 148.5 39.91, 150 39.91 S 153.5 39.92, 155 39.91 S 158.5 39.83, 160 39.83 S 163.5 39.9, 165 39.91 S 168.5 39.91, 170 39.91 S 173.5 39.91, 175 39.91 S 178.5 39.91, 180 39.91 S 183.5 39.91, 185 39.91 S 188.5 39.91, 190 39.91 S 193.5 39.91, 195 39.91 S 198.5 39.94, 200 39.91 S 203.5 39.79, 205 39.74"
          fill="none"/>
    <circle r="4" cx="5" cy="40" fill="#3023AE"/>
    <circle r="4" cx="205" cy="39.74" fill="#C86DD7"/>      
</svg>