<svg width="200" height="50" viewBox="0 0 210 50" xmlns="http://www.w3.org/2000/svg">
    <defs>
        <linearGradient x1="0%" y1="0%" x2="100%" y2="0%" id="a">
            <stop stop-color="#3023AE" offset="0%"/>
            <stop stop-color="#C86DD7" offset="100%"/>
        </linearGradient>
    </defs>
    <path stroke="url(#a)"
          stroke-width="3"
          stroke-linejoin="round"
          stroke-linecap="round"
          d="M5 40 C 6.49 39.85, 8.5 39.51, 10 39.5 S 13.5 39.86, 15 39.92 S 18.5 39.89, 20 39.89 S 23.5 39.94, 25 39.95 S 28.5 39.95, 30 39.94 S 33.5 40, 35 39.88 S 38.5 39.19, 40 39.16 S 43.5 39.57, 45 39.66 S 48.5 39.76, 50 39.79 S 53.5 39.9, 55 39.84 S 58.5 39.49, 60 39.41 S 63.54 39.63, 65 39.28 S 69.52 38.45, 70 37.03 S 73.5 9.91, 75 10 S 79.47 36.26, 80 37.66 S 83.51 36.88, 85 36.74 S 88.5 36.63, 90 36.71 S 93.51 37.05, 95 37.26 S 98.5 38.04, 100 38.13 S 103.5 37.9, 105 37.86 S 108.5 37.93, 110 37.85 S 114.06 38.48, 115 37.31 S 118.5 25.55, 120 25.46 S 124 35.6, 125 36.72 S 128.5 36.5, 130 36.59 S 133.5 37.42, 135 37.34 S 138.52 36.27, 140 36.05 S 143.5 35.83, 145 35.84 S 148.51 36.28, 150 36.1 S 153.51 34.77, 155 34.62 S 158.5 35.05, 160 35.07 S 163.6 35.28, 165 34.73 S 168.5 31.23, 170 31.13 S 173.61 33.5, 175 34.07 S 178.51 35.1, 180 35.28 S 183.5 35.37, 185 35.3 S 188.5 34.85, 190 34.78 S 193.5 34.76, 195 34.8 S 198.5 35.09, 200 35.03 S 203.51 34.61, 205 34.43"
          fill="none"/>
    <circle r="4" cx="5" cy="40" fill="#3023AE"/>
    <circle r="4" cx="205" cy="34.43" fill="#C86DD7"/>      
</svg>