<svg width="200" height="50" viewBox="0 0 210 50" xmlns="http://www.w3.org/2000/svg">
    <defs>
        <linearGradient x1="0%" y1="0%" x2="100%" y2="0%" id="a">
            <stop stop-color="#3023AE" offset="0%"/>
            <stop stop-color="#C86DD7" offset="100%"/>
        </linearGradient>
    </defs>
    <path stroke="url(#a)"
          stroke-width="3"
          stroke-linejoin="round"
          stroke-linecap="round"
          d="M5 40 C 5.25 38.52, 8.96 11.08, 10 10 S 14.47 28.28, 15 29.68 S 18.9 35.28, 20 36.3 S 23.58 38.53, 25 39.03 S 28.5 39.75, 30 39.81 S 33.56 39.84, 35 39.42 S 38.5 36.88, 40 36.88 S 43.55 39.05, 45 39.42 S 48.5 39.42, 50 39.42 S 53.5 39.39, 55 39.42 S 58.5 39.7, 60 39.61 S 63.5 38.8, 65 38.83 S 68.51 39.66, 70 39.81 S 73.5 39.9, 75 39.81 S 78.5 39.28, 80 39.22 S 83.5 39.42, 85 39.42 S 88.5 39.19, 90 39.22 S 93.5 39.61, 95 39.61 S 98.5 39.28, 100 39.22 S 103.5 39.16, 105 39.22 S 108.5 39.58, 110 39.61 S 113.51 39.62, 115 39.42 S 118.5 38.28, 120 38.25 S 123.5 39.1, 125 39.22 S 128.5 39, 130 39.03 S 133.5 39.36, 135 39.42 S 138.5 39.42, 140 39.42 S 143.5 39.36, 145 39.42 S 148.5 39.75, 150 39.81 S 153.5 39.87, 155 39.81 S 158.5 39.48, 160 39.42 S 163.5 39.36, 165 39.42 S 168.5 39.84, 170 39.81 S 173.51 39.39, 175 39.22 S 178.5 38.64, 180 38.64 S 183.51 39.05, 185 39.22 S 188.5 39.84, 190 39.81 S 193.5 39.09, 195 39.03 S 198.5 39.36, 200 39.42 S 203.5 39.42, 205 39.42"
          fill="none"/>
    <circle r="4" cx="5" cy="40" fill="#3023AE"/>
    <circle r="4" cx="205" cy="39.42" fill="#C86DD7"/>      
</svg>