<svg width="200" height="50" viewBox="0 0 210 50" xmlns="http://www.w3.org/2000/svg">
    <defs>
        <linearGradient x1="0%" y1="0%" x2="100%" y2="0%" id="a">
            <stop stop-color="#3023AE" offset="0%"/>
            <stop stop-color="#C86DD7" offset="100%"/>
        </linearGradient>
    </defs>
    <path stroke="url(#a)"
          stroke-width="3"
          stroke-linejoin="round"
          stroke-linecap="round"
          d="M5 40 C 5.33 38.54, 9.08 18.69, 10 17.5 S 14.24 25.76, 15 27.05 S 18.51 34.35, 20 34.55 S 23.99 29.52, 25 28.41 S 28.58 23.16, 30 23.64 S 33.65 31.17, 35 31.82 S 38.54 28.76, 40 28.41 S 43.51 29.58, 45 29.43 S 48.5 27.49, 50 27.39 S 53.63 28.14, 55 28.75 S 58.7 31.07, 60 31.82 S 63.5 34.45, 65 34.55 S 68.52 32.75, 70 32.5 S 73.61 33.41, 75 32.84 S 78.65 29.06, 80 28.41 S 83.51 27.92, 85 28.07 S 88.66 28.75, 90 29.43 S 93.63 32.57, 95 33.18 S 98.66 34.54, 100 33.86 S 103.5 28.02, 105 28.07 S 108.61 33.63, 110 34.2 S 113.63 32.77, 115 32.16 S 118.5 29.67, 120 29.77 S 123.66 32.16, 125 32.84 S 128.5 34.99, 130 34.89 S 133.52 32.41, 135 32.16 S 138.53 33.48, 140 33.18 S 143.52 30.36, 145 30.11 S 148.58 31.96, 150 31.48 S 154.37 28.06, 155 26.7 S 159.21 11.27, 160 10 S 163.76 9.83, 165 10.68 S 169.21 15.55, 170 16.82 S 173.51 26.9, 175 26.7 S 179.14 16.68, 180 15.45 S 183.51 12.24, 185 12.39 S 188.88 15.49, 190 16.48 S 193.66 20.57, 195 21.25 S 198.51 21.39, 200 21.59 S 203.53 22.31, 205 22.61"
          fill="none"/>
    <circle r="4" cx="5" cy="40" fill="#3023AE"/>
    <circle r="4" cx="205" cy="22.61" fill="#C86DD7"/>      
</svg>