<svg width="200" height="50" viewBox="0 0 210 50" xmlns="http://www.w3.org/2000/svg">
    <defs>
        <linearGradient x1="0%" y1="0%" x2="100%" y2="0%" id="a">
            <stop stop-color="#3023AE" offset="0%"/>
            <stop stop-color="#C86DD7" offset="100%"/>
        </linearGradient>
    </defs>
    <path stroke="url(#a)"
          stroke-width="3"
          stroke-linejoin="round"
          stroke-linecap="round"
          d="M5 40 C 6.18 39.07, 8.5 36.1, 10 36.08 S 13.6 39.33, 15 39.86 S 18.5 39.85, 20 39.86 S 23.51 40.11, 25 39.93 S 28.71 39.41, 30 38.65 S 33.6 34.55, 35 34.01 S 38.5 34.83, 40 34.8 S 43.62 34.38, 45 33.8 S 48.86 31.56, 50 30.59 S 53.55 24.87, 55 25.25 S 58.7 32.48, 60 33.23 S 63.63 31.63, 65 31.02 S 68.54 29.17, 70 28.81 S 73.5 28.43, 75 28.53 S 78.5 29.55, 80 29.45 S 83.5 27.93, 85 27.89 S 88.64 28.55, 90 29.17 S 93.56 32.02, 95 32.45 S 99.39 33.53, 100 32.16 S 103.84 10.95, 105 10 S 109.09 22.78, 110 23.97 S 113.55 22.8, 115 23.18 S 118.5 26.56, 120 26.6 S 123.5 23.57, 125 23.47 S 128.5 25.99, 130 25.96 S 133.6 23.79, 135 23.25 S 138.52 21.85, 140 22.11 S 143.76 24.19, 145 25.04 S 148.59 28.43, 150 28.95 S 153.56 29.15, 155 28.74 S 158.57 26.55, 160 26.1 S 163.52 25.37, 165 25.61 S 168.52 27.52, 170 27.74 S 173.53 27.38, 175 27.1 S 178.5 25.83, 180 25.82 S 183.59 26.52, 185 27.03 S 188.5 29.49, 190 29.45 S 193.52 26.54, 195 26.75 S 198.51 30.68, 200 30.88 S 203.69 28.83, 205 28.1"
          fill="none"/>
    <circle r="4" cx="5" cy="40" fill="#3023AE"/>
    <circle r="4" cx="205" cy="28.1" fill="#C86DD7"/>      
</svg>