<svg width="200" height="50" viewBox="0 0 210 50" xmlns="http://www.w3.org/2000/svg">
    <defs>
        <linearGradient x1="0%" y1="0%" x2="100%" y2="0%" id="a">
            <stop stop-color="#3023AE" offset="0%"/>
            <stop stop-color="#C86DD7" offset="100%"/>
        </linearGradient>
    </defs>
    <path stroke="url(#a)"
          stroke-width="3"
          stroke-linejoin="round"
          stroke-linecap="round"
          d="M5 40 C 5.25 38.52, 8.55 10.38, 10 10 S 14.45 35.98, 15 37.38 S 18.5 35.57, 20 35.57 S 23.51 37.17, 25 37.38 S 28.5 36.86, 30 36.98 S 33.51 38.01, 35 38.19 S 38.5 38.19, 40 38.19 S 43.5 38.19, 45 38.19 S 48.5 38.07, 50 38.19 S 53.5 38.9, 55 38.99 S 58.5 38.76, 60 38.79 S 63.63 39.8, 65 39.19 S 68.73 35.15, 70 34.36 S 73.52 33.19, 75 32.95 S 78.61 32.19, 80 32.75 S 83.53 36.68, 85 36.98 S 88.62 35.35, 90 34.77 S 93.51 32.57, 95 32.75 S 98.59 35.46, 100 35.97 S 103.5 36.26, 105 36.38 S 108.61 37.34, 110 36.78 S 113.6 32.89, 115 32.35 S 118.68 32.23, 120 32.95 S 123.5 37.85, 125 37.79 S 128.52 32.79, 130 32.55 S 133.53 35.87, 135 36.17 S 138.51 34.74, 140 34.56 S 144.35 36.32, 145 34.97 S 148.5 13.53, 150 13.62 S 154.38 34.2, 155 35.57 S 158.5 35.51, 160 35.57 S 163.56 35.54, 165 35.97 S 168.51 38.8, 170 38.59 S 173.61 35.12, 175 34.56 S 178.7 35.32, 180 34.56 S 183.5 28.72, 185 28.72 S 188.68 33.84, 190 34.56 S 193.6 34.7, 195 34.16 S 198.5 30.74, 200 30.74 S 203.76 33.31, 205 34.16"
          fill="none"/>
    <circle r="4" cx="5" cy="40" fill="#3023AE"/>
    <circle r="4" cx="205" cy="34.16" fill="#C86DD7"/>      
</svg>