<svg width="200" height="50" viewBox="0 0 210 50" xmlns="http://www.w3.org/2000/svg">
    <defs>
        <linearGradient x1="0%" y1="0%" x2="100%" y2="0%" id="a">
            <stop stop-color="#3023AE" offset="0%"/>
            <stop stop-color="#C86DD7" offset="100%"/>
        </linearGradient>
    </defs>
    <path stroke="url(#a)"
          stroke-width="3"
          stroke-linejoin="round"
          stroke-linecap="round"
          d="M5 40 C 5.5 38.58, 9.16 27.02, 10 25.78 S 13.55 24.82, 15 25.19 S 18.51 28.14, 20 28.31 S 23.52 26.59, 25 26.36 S 28.55 26.35, 30 26.75 S 33.59 28.57, 35 29.09 S 38.52 30.68, 40 30.45 S 43.62 28.12, 45 27.53 S 48.51 26.02, 50 26.17 S 53.58 28.01, 55 28.51 S 58.55 30.08, 60 29.68 S 63.69 26.52, 65 25.78 S 68.5 24.06, 70 24.03 S 73.58 25.11, 75 25.58 S 79.19 28.6, 80 27.34 S 83.76 10.85, 85 10 S 89.06 19.35, 90 20.52 S 93.5 22.47, 95 22.47 S 98.51 20.32, 100 20.52 S 103.5 23.71, 105 23.83 S 108.5 21.33, 110 21.3 S 113.69 22.9, 115 23.64 S 118.64 27.59, 120 26.95 S 123.66 19.64, 125 18.96 S 128.65 21.22, 130 21.88 S 133.52 23.6, 135 23.83 S 138.5 23.53, 140 23.44 S 143.55 22.88, 145 23.25 S 148.53 25.68, 150 25.97 S 153.5 25.31, 155 25.19 S 158.57 24.74, 160 25.19 S 163.53 28.6, 165 28.31 S 168.63 23.86, 170 23.25 S 173.54 24.17, 175 23.83 S 178.51 21.08, 180 20.91 S 183.62 22.07, 185 22.66 S 188.52 24.96, 190 25.19 S 193.5 24.31, 195 24.22 S 198.54 24.95, 200 24.61 S 203.68 22.6, 205 21.88"
          fill="none"/>
    <circle r="4" cx="5" cy="40" fill="#3023AE"/>
    <circle r="4" cx="205" cy="21.88" fill="#C86DD7"/>      
</svg>