<svg width="200" height="50" viewBox="0 0 210 50" xmlns="http://www.w3.org/2000/svg">
    <defs>
        <linearGradient x1="0%" y1="0%" x2="100%" y2="0%" id="a">
            <stop stop-color="#3023AE" offset="0%"/>
            <stop stop-color="#C86DD7" offset="100%"/>
        </linearGradient>
    </defs>
    <path stroke="url(#a)"
          stroke-width="3"
          stroke-linejoin="round"
          stroke-linecap="round"
          d="M5 40 C 6.44 39.59, 8.82 39.51, 10 38.59 S 14.5 33.59, 15 32.17 S 18.56 9.58, 20 10 S 24.42 33.69, 25 35.07 S 29.02 34.8, 30 33.67 S 33.51 23.35, 35 23.55 S 39.11 33.78, 40 34.99 S 43.5 37.23, 45 37.18 S 48.51 34.77, 50 34.63 S 53.51 36.08, 55 36.22 S 58.55 36, 60 35.6 S 63.5 33.5, 65 33.49 S 68.51 35.3, 70 35.51 S 73.55 35.27, 75 34.9 S 78.51 32.82, 80 32.96 S 83.54 35.51, 85 35.87 S 88.51 35.56, 90 35.43 S 93.55 35.39, 95 34.99 S 99.29 34.02, 100 32.7 S 103.51 16.24, 105 16.42 S 109.3 32.6, 110 33.93 S 113.51 35.33, 115 35.51 S 118.51 35.3, 120 35.16 S 123.53 34.85, 125 34.55 S 128.5 33.11, 130 33.14 S 133.53 35.03, 135 34.72 S 138.52 31.29, 140 31.03 S 143.56 32.55, 145 32.96 S 148.51 33.71, 150 33.84 S 153.51 34.01, 155 33.84 S 158.5 32.7, 160 32.7 S 163.59 33.34, 165 33.84 S 168.54 35.9, 170 36.22 S 173.51 36.25, 175 36.04 S 178.63 35.41, 180 34.81 S 183.54 31.97, 185 31.64 S 188.52 32.78, 190 32.52 S 193.5 29.96, 195 29.88 S 198.51 31.83, 200 31.99 S 203.53 31.25, 205 30.94"
          fill="none"/>
    <circle r="4" cx="5" cy="40" fill="#3023AE"/>
    <circle r="4" cx="205" cy="30.939999999999998" fill="#C86DD7"/>      
</svg>