<svg width="200" height="50" viewBox="0 0 210 50" xmlns="http://www.w3.org/2000/svg">
    <defs>
        <linearGradient x1="0%" y1="0%" x2="100%" y2="0%" id="a">
            <stop stop-color="#3023AE" offset="0%"/>
            <stop stop-color="#C86DD7" offset="100%"/>
        </linearGradient>
    </defs>
    <path stroke="url(#a)"
          stroke-width="3"
          stroke-linejoin="round"
          stroke-linecap="round"
          d="M5 40 C 6.48 39.75, 8.52 39.41, 10 39.16 S 13.5 38.29, 15 38.32 S 18.52 39.15, 20 39.37 S 23.5 39.73, 25 39.79 S 28.5 39.79, 30 39.79 S 33.5 39.79, 35 39.79 S 38.5 39.79, 40 39.79 S 43.5 39.88, 45 39.79 S 48.5 39.16, 50 39.16 S 53.5 39.73, 55 39.79 S 58.5 39.58, 60 39.58 S 63.5 39.76, 65 39.79 S 68.85 40.75, 70 39.79 S 73.5 31.46, 75 31.4 S 78.85 38.41, 80 39.37 S 83.5 39.76, 85 39.79 S 88.5 39.64, 90 39.58 S 93.5 39.37, 95 39.37 S 98.5 39.61, 100 39.58 S 103.51 39.32, 105 39.16 S 108.5 38.56, 110 38.53 S 113.5 39.04, 115 38.95 S 118.5 37.87, 120 37.9 S 123.53 38.88, 125 39.16 S 128.68 40.51, 130 39.79 S 133.55 34.08, 135 33.71 S 139.42 38.65, 140 37.27 S 143.5 10, 145 10 S 149.5 35.86, 150 37.27 S 153.51 38.19, 155 38.32 S 158.51 38.3, 160 38.11 S 163.52 37.28, 165 37.06 S 168.53 36.36, 170 36.64 S 173.52 38.73, 175 38.95 S 178.5 38.14, 180 38.11 S 183.51 38.58, 185 38.74 S 188.51 39.29, 190 39.16 S 193.51 38.09, 195 37.9 S 198.5 37.93, 200 37.9 S 203.5 37.75, 205 37.69"
          fill="none"/>
    <circle r="4" cx="5" cy="40" fill="#3023AE"/>
    <circle r="4" cx="205" cy="37.69" fill="#C86DD7"/>      
</svg>