<svg width="200" height="50" viewBox="0 0 210 50" xmlns="http://www.w3.org/2000/svg">
    <defs>
        <linearGradient x1="0%" y1="0%" x2="100%" y2="0%" id="a">
            <stop stop-color="#3023AE" offset="0%"/>
            <stop stop-color="#C86DD7" offset="100%"/>
        </linearGradient>
    </defs>
    <path stroke="url(#a)"
          stroke-width="3"
          stroke-linejoin="round"
          stroke-linecap="round"
          d="M5 40 C 5.25 38.52, 8.9 11.02, 10 10 S 14.42 29.39, 15 30.77 S 18.5 33.85, 20 33.85 S 23.5 30.77, 25 30.77 S 28.6 33.31, 30 33.85 S 33.54 34.28, 35 34.62 S 38.64 35.52, 40 36.15 S 43.52 39, 45 39.23 S 48.5 37.81, 50 37.69 S 53.5 38.58, 55 38.46 S 58.5 36.92, 60 36.92 S 63.5 38.58, 65 38.46 S 68.5 36.27, 70 36.15 S 73.5 37.57, 75 37.69 S 78.5 37.04, 80 36.92 S 83.5 36.92, 85 36.92 S 88.52 36.69, 90 36.92 S 93.5 38.58, 95 38.46 S 98.52 36.38, 100 36.15 S 103.5 36.8, 105 36.92 S 108.9 37.94, 110 36.92 S 113.5 27.57, 115 27.69 S 118.81 36.78, 120 37.69 S 123.5 35.38, 125 35.38 S 128.5 37.8, 130 37.69 S 133.52 34.85, 135 34.62 S 138.54 35.81, 140 36.15 S 143.52 37.15, 145 36.92 S 148.54 34.96, 150 34.62 S 153.54 34.96, 155 34.62 S 158.5 32.31, 160 32.31 S 163.72 33.83, 165 34.62 S 168.5 38.46, 170 38.46 S 173.5 34.74, 175 34.62 S 178.64 37.06, 180 37.69 S 183.52 39, 185 39.23 S 188.5 39.23, 190 39.23 S 193.5 39.35, 195 39.23 S 198.52 38.69, 200 38.46 S 203.52 37.92, 205 37.69"
          fill="none"/>
    <circle r="4" cx="5" cy="40" fill="#3023AE"/>
    <circle r="4" cx="205" cy="37.69" fill="#C86DD7"/>      
</svg>