<svg width="200" height="50" viewBox="0 0 210 50" xmlns="http://www.w3.org/2000/svg">
    <defs>
        <linearGradient x1="0%" y1="0%" x2="100%" y2="0%" id="a">
            <stop stop-color="#3023AE" offset="0%"/>
            <stop stop-color="#C86DD7" offset="100%"/>
        </linearGradient>
    </defs>
    <path stroke="url(#a)"
          stroke-width="3"
          stroke-linejoin="round"
          stroke-linecap="round"
          d="M5 40 C 5.25 38.52, 8.9 11.02, 10 10 S 14.42 29.39, 15 30.77 S 18.5 33.85, 20 33.85 S 23.5 30.77, 25 30.77 S 28.64 33.22, 30 33.85 S 33.52 35.15, 35 35.38 S 38.6 34.84, 40 35.38 S 43.54 38.89, 45 39.23 S 48.5 37.69, 50 37.69 S 53.52 39.46, 55 39.23 S 58.5 36.27, 60 36.15 S 63.5 38.46, 65 38.46 S 68.5 36.27, 70 36.15 S 73.5 37.57, 75 37.69 S 78.5 37.04, 80 36.92 S 83.5 36.92, 85 36.92 S 88.52 36.69, 90 36.92 S 93.5 38.58, 95 38.46 S 98.52 36.38, 100 36.15 S 103.52 36.69, 105 36.92 S 108.81 38.6, 110 37.69 S 113.52 29.46, 115 29.23 S 118.72 35.36, 120 36.15 S 123.54 35.04, 125 35.38 S 128.52 38.69, 130 38.46 S 133.52 34.08, 135 33.85 S 138.54 36.58, 140 36.92 S 143.57 36.59, 145 36.15 S 148.54 33.51, 150 33.85 S 153.52 38.69, 155 38.46 S 158.77 33.16, 160 32.31 S 163.68 30.83, 165 31.54 S 168.64 37.06, 170 37.69 S 173.52 36.38, 175 36.15 S 178.57 35.71, 180 36.15 S 183.57 38.79, 185 39.23 S 188.5 39.23, 190 39.23 S 193.5 39.23, 195 39.23 S 198.52 39.46, 200 39.23 S 203.57 38.13, 205 37.69"
          fill="none"/>
    <circle r="4" cx="5" cy="40" fill="#3023AE"/>
    <circle r="4" cx="205" cy="37.69" fill="#C86DD7"/>      
</svg>