<svg width="200" height="50" viewBox="0 0 210 50" xmlns="http://www.w3.org/2000/svg">
    <defs>
        <linearGradient x1="0%" y1="0%" x2="100%" y2="0%" id="a">
            <stop stop-color="#3023AE" offset="0%"/>
            <stop stop-color="#C86DD7" offset="100%"/>
        </linearGradient>
    </defs>
    <path stroke="url(#a)"
          stroke-width="3"
          stroke-linejoin="round"
          stroke-linecap="round"
          d="M5 40 C 6.5 39.99, 8.5 39.96, 10 39.95 S 13.5 39.93, 15 39.92 S 19.52 41.29, 20 39.87 S 23.92 11.04, 25 10 S 29.46 28.85, 30 30.25 S 33.72 35.39, 35 36.17 S 38.52 36.07, 40 36.32 S 43.5 37.9, 45 37.87 S 48.59 36.66, 50 36.15 S 53.63 34.88, 55 34.27 S 58.84 32.63, 60 31.68 S 63.51 26.3, 65 26.1 S 68.57 30.79, 70 30.35 S 73.89 24.05, 75 23.05 S 78.86 20.37, 80 21.35 S 83.72 30.87, 85 31.65 S 88.5 27.45, 90 27.4 S 93.5 31.3, 95 31.3 S 98.83 28.36, 100 27.42 S 103.61 22.7, 105 23.27 S 108.5 31.57, 110 31.55 S 113.51 22.94, 115 23.15 S 118.97 31.86, 120 32.95 S 123.7 34.45, 125 33.7 S 128.67 27.85, 130 27.15 S 133.86 29.4, 135 28.42 S 138.74 19.34, 140 18.52 S 143.92 20.86, 145 21.9 S 148.82 27.27, 150 28.2 S 153.5 29.81, 155 29.8 S 158.5 28.14, 160 28.15 S 163.54 30.25, 165 29.9 S 168.5 25.75, 170 25.72 S 173.67 28.98, 175 29.67 S 178.51 30.77, 180 30.93 S 183.5 30.7, 185 30.77 S 188.53 31.69, 190 31.4 S 193.6 29.32, 195 28.77 S 198.5 27.49, 200 27.47 S 203.54 28.31, 205 28.65"
          fill="none"/>
    <circle r="4" cx="5" cy="40" fill="#3023AE"/>
    <circle r="4" cx="205" cy="28.65" fill="#C86DD7"/>      
</svg>