<svg width="200" height="50" viewBox="0 0 210 50" xmlns="http://www.w3.org/2000/svg">
    <defs>
        <linearGradient x1="0%" y1="0%" x2="100%" y2="0%" id="a">
            <stop stop-color="#3023AE" offset="0%"/>
            <stop stop-color="#C86DD7" offset="100%"/>
        </linearGradient>
    </defs>
    <path stroke="url(#a)"
          stroke-width="3"
          stroke-linejoin="round"
          stroke-linecap="round"
          d="M5 40 C 6.5 39.89, 8.82 40.55, 10 39.62 S 13.64 32.8, 15 32.16 S 18.52 35.16, 20 34.91 S 23.65 29.83, 25 30.48 S 28.88 38.69, 30 39.69 S 33.5 39.41, 35 39.43 S 38.77 40.67, 40 39.82 S 43.92 33.56, 45 32.52 S 48.79 31.12, 50 30.23 S 53.71 25.89, 55 25.13 S 58.52 24.09, 60 24.35 S 63.85 27.83, 65 26.86 S 69.02 17.07, 70 15.94 S 73.51 15.46, 75 15.32 S 78.78 14.12, 80 14.99 S 83.7 21.67, 85 22.42 S 88.5 20.81, 90 20.81 S 93.53 22.1, 95 22.39 S 99.06 23.93, 100 22.76 S 103.5 10.08, 105 10 S 109.14 20.99, 110 22.22 S 113.53 23.88, 115 24.18 S 118.52 23.99, 120 24.24 S 123.51 26.08, 125 25.88 S 128.5 22.98, 130 22.89 S 133.71 24.49, 135 25.26 S 138.6 28.28, 140 28.82 S 143.56 28.66, 145 29.08 S 148.54 31.4, 150 31.76 S 153.5 31.52, 155 31.53 S 158.5 31.92, 160 31.82 S 163.5 30.87, 165 30.83 S 168.51 31.4, 170 31.53 S 173.51 31.54, 175 31.72 S 178.51 32.54, 180 32.73 S 183.5 32.92, 185 33.01 S 188.5 33.27, 190 33.31 S 193.51 33.12, 195 33.27 S 198.51 34.16, 200 34.34 S 203.5 34.44, 205 34.48"
          fill="none"/>
    <circle r="4" cx="5" cy="40" fill="#3023AE"/>
    <circle r="4" cx="205" cy="34.480000000000004" fill="#C86DD7"/>      
</svg>