<svg width="200" height="50" viewBox="0 0 210 50" xmlns="http://www.w3.org/2000/svg">
    <defs>
        <linearGradient x1="0%" y1="0%" x2="100%" y2="0%" id="a">
            <stop stop-color="#3023AE" offset="0%"/>
            <stop stop-color="#C86DD7" offset="100%"/>
        </linearGradient>
    </defs>
    <path stroke="url(#a)"
          stroke-width="3"
          stroke-linejoin="round"
          stroke-linecap="round"
          d="M5 40 C 5.45 38.57, 8.67 24.82, 10 24.12 S 14.13 33.49, 15 34.71 S 18.67 38.94, 20 38.24 S 23.52 29.67, 25 29.41 S 28.97 37.56, 30 36.47 S 33.88 19.81, 35 18.82 S 39.06 26.48, 40 27.65 S 43.67 30.48, 45 31.18 S 48.67 32.24, 50 32.94 S 53.52 36.73, 55 36.47 S 58.52 30.92, 60 31.18 S 63.77 37.37, 65 38.24 S 68.67 38.94, 70 38.24 S 73.52 33.2, 75 32.94 S 78.59 35.97, 80 36.47 S 83.52 36.73, 85 36.47 S 88.52 34.45, 90 34.71 S 93.52 37.98, 95 38.24 S 98.52 36.73, 100 36.47 S 103.77 37.34, 105 36.47 S 109.31 30.74, 110 29.41 S 113.88 16.07, 115 17.06 S 118.97 37.15, 120 38.24 S 123.5 27.65, 125 27.65 S 128.97 37.15, 130 38.24 S 134.5 39.65, 135 38.24 S 138.5 10, 140 10 S 144.44 36.85, 145 38.24 S 148.5 34.71, 150 34.71 S 153.59 37.74, 155 38.24 S 158.52 38.5, 160 38.24 S 163.5 36.47, 165 36.47 S 168.5 38.24, 170 38.24 S 174.5 37.88, 175 36.47 S 179.13 11.22, 180 10 S 184.47 20.95, 185 22.35 S 188.67 35.77, 190 36.47 S 193.52 27.91, 195 27.65 S 198.88 33.72, 200 34.71 S 203.59 35.97, 205 36.47"
          fill="none"/>
    <circle r="4" cx="5" cy="40" fill="#3023AE"/>
    <circle r="4" cx="205" cy="36.47" fill="#C86DD7"/>      
</svg>