<svg width="200" height="50" viewBox="0 0 210 50" xmlns="http://www.w3.org/2000/svg">
    <defs>
        <linearGradient x1="0%" y1="0%" x2="100%" y2="0%" id="a">
            <stop stop-color="#3023AE" offset="0%"/>
            <stop stop-color="#C86DD7" offset="100%"/>
        </linearGradient>
    </defs>
    <path stroke="url(#a)"
          stroke-width="3"
          stroke-linejoin="round"
          stroke-linecap="round"
          d="M5 40 C 6.41 39.48, 8.52 38.43, 10 38.16 S 13.51 37.98, 15 38.16 S 18.51 39.21, 20 39.39 S 23.5 39.39, 25 39.39 S 28.5 39.39, 30 39.39 S 33.5 39.39, 35 39.39 S 38.54 39.75, 40 39.39 S 43.69 37.66, 45 36.94 S 48.51 33.7, 50 33.88 S 53.59 37.64, 55 38.16 S 58.51 37.37, 60 37.55 S 63.51 39.21, 65 39.39 S 68.59 39.3, 70 38.78 S 73.5 35.8, 75 35.71 S 78.54 37.8, 80 38.16 S 83.51 37.98, 85 38.16 S 88.5 39.39, 90 39.39 S 94.52 39.58, 95 38.16 S 99.08 11.18, 100 10 S 104.47 23.91, 105 25.31 S 108.93 35.28, 110 36.33 S 113.52 35.37, 115 35.1 S 118.59 35.01, 120 34.49 S 123.83 32.36, 125 31.43 S 128.52 26.26, 130 26.53 S 133.52 33, 135 33.27 S 138.5 28.46, 140 28.37 S 143.72 31.87, 145 32.65 S 148.59 33.97, 150 34.49 S 153.65 35.67, 155 36.33 S 158.5 39.3, 160 39.39 S 163.51 37.12, 165 36.94 S 168.52 37.89, 170 38.16 S 173.51 38.6, 175 38.78 S 178.5 39.3, 180 39.39 S 183.51 39.57, 185 39.39 S 188.5 38.16, 190 38.16 S 193.5 39.3, 195 39.39 S 198.5 38.78, 200 38.78 S 203.51 39.21, 205 39.39"
          fill="none"/>
    <circle r="4" cx="5" cy="40" fill="#3023AE"/>
    <circle r="4" cx="205" cy="39.39" fill="#C86DD7"/>      
</svg>