<svg width="200" height="50" viewBox="0 0 210 50" xmlns="http://www.w3.org/2000/svg">
    <defs>
        <linearGradient x1="0%" y1="0%" x2="100%" y2="0%" id="a">
            <stop stop-color="#3023AE" offset="0%"/>
            <stop stop-color="#C86DD7" offset="100%"/>
        </linearGradient>
    </defs>
    <path stroke="url(#a)"
          stroke-width="3"
          stroke-linejoin="round"
          stroke-linecap="round"
          d="M5 40 C 5.65 38.65, 8.51 29.81, 10 29.66 S 13.9 37.95, 15 38.97 S 18.5 38.97, 20 38.97 S 23.51 39.13, 25 38.97 S 28.53 38.23, 30 37.93 S 33.5 36.9, 35 36.9 S 38.51 37.78, 40 37.93 S 43.51 37.77, 45 37.93 S 48.51 38.81, 50 38.97 S 53.5 38.97, 55 38.97 S 58.5 38.97, 60 38.97 S 64.51 40.39, 65 38.97 S 69.15 11.23, 70 10 S 74.26 23.18, 75 24.48 S 78.51 27.43, 80 27.59 S 83.79 26.4, 85 25.52 S 88.51 20.5, 90 20.34 S 93.5 24.48, 95 24.48 S 98.5 20.34, 100 20.34 S 103.61 25.05, 105 24.48 S 108.79 17.09, 110 16.21 S 114.01 16.11, 115 17.24 S 118.53 27.29, 120 27.59 S 123.53 19.61, 125 19.31 S 128.57 25.08, 130 25.52 S 133.67 21.72, 135 22.41 S 138.51 30.53, 140 30.69 S 144.15 24.68, 145 23.45 S 148.53 15.91, 150 16.21 S 154.06 24.35, 155 25.52 S 158.79 27.74, 160 28.62 S 163.51 32.91, 165 32.76 S 168.96 28.67, 170 27.59 S 173.51 22.57, 175 22.41 S 178.73 25.76, 180 26.55 S 183.73 27.83, 185 28.62 S 188.51 32.6, 190 32.76 S 193.79 30.54, 195 29.66 S 198.9 26.54, 200 25.52 S 203.96 21.42, 205 20.34"
          fill="none"/>
    <circle r="4" cx="5" cy="40" fill="#3023AE"/>
    <circle r="4" cx="205" cy="20.34" fill="#C86DD7"/>      
</svg>