<svg width="200" height="50" viewBox="0 0 210 50" xmlns="http://www.w3.org/2000/svg">
    <defs>
        <linearGradient x1="0%" y1="0%" x2="100%" y2="0%" id="a">
            <stop stop-color="#3023AE" offset="0%"/>
            <stop stop-color="#C86DD7" offset="100%"/>
        </linearGradient>
    </defs>
    <path stroke="url(#a)"
          stroke-width="3"
          stroke-linejoin="round"
          stroke-linecap="round"
          d="M5 40 C 5.35 38.54, 8.56 19.43, 10 19 S 14.27 35.69, 15 37 S 18.5 37, 20 37 S 23.5 37, 25 37 S 28.5 37, 30 37 S 33.5 37, 35 37 S 38.5 37, 40 37 S 43.56 37.43, 45 37 S 48.5 34, 50 34 S 53.56 36.57, 55 37 S 58.5 37, 60 37 S 63.5 37, 65 37 S 68.5 37, 70 37 S 73.5 37, 75 37 S 78.5 37, 80 37 S 83.5 37, 85 37 S 88.5 37, 90 37 S 93.5 37, 95 37 S 98.5 37, 100 37 S 103.5 37, 105 37 S 108.56 37.43, 110 37 S 113.71 34.77, 115 34 S 119.42 32.38, 120 31 S 123.5 10, 125 10 S 129.27 29.69, 130 31 S 133.56 27.57, 135 28 S 138.89 33, 140 34 S 143.56 36.57, 145 37 S 148.71 37.77, 150 37 S 153.5 31, 155 31 S 158.71 36.23, 160 37 S 164.04 38.15, 165 37 S 168.5 25, 170 25 S 173.89 36, 175 37 S 178.56 34.43, 180 34 S 183.56 33.57, 185 34 S 188.71 37.77, 190 37 S 194.04 29.15, 195 28 S 198.5 25, 200 25 S 203.71 27.23, 205 28"
          fill="none"/>
    <circle r="4" cx="5" cy="40" fill="#3023AE"/>
    <circle r="4" cx="205" cy="28" fill="#C86DD7"/>      
</svg>