<svg width="200" height="50" viewBox="0 0 210 50" xmlns="http://www.w3.org/2000/svg">
    <defs>
        <linearGradient x1="0%" y1="0%" x2="100%" y2="0%" id="a">
            <stop stop-color="#3023AE" offset="0%"/>
            <stop stop-color="#C86DD7" offset="100%"/>
        </linearGradient>
    </defs>
    <path stroke="url(#a)"
          stroke-width="3"
          stroke-linejoin="round"
          stroke-linecap="round"
          d="M5 40 C 6.14 39.02, 8.6 36.26, 10 35.71 S 14.46 37.47, 15 36.07 S 18.59 10.52, 20 10 S 24.29 31.05, 25 32.37 S 28.66 29.23, 30 28.55 S 33.5 27.4, 35 27.32 S 38.56 27.59, 40 28.02 S 43.5 30.41, 45 30.31 S 48.55 27.76, 50 27.38 S 53.71 28.43, 55 27.67 S 58.55 21.88, 60 21.51 S 63.62 24.5, 65 25.09 S 68.55 25.39, 70 25.79 S 73.62 28.44, 75 27.85 S 78.59 22.01, 80 21.51 S 83.53 24.61, 85 24.32 S 88.79 20.46, 90 19.57 S 93.71 16.23, 95 16.99 S 98.55 25.06, 100 25.44 S 103.55 20, 105 19.63 S 108.7 22.17, 110 22.92 S 113.55 24.98, 115 25.38 S 118.5 25.67, 120 25.68 S 123.54 25.08, 125 25.44 S 128.53 27.82, 130 28.14 S 133.54 27.96, 135 27.61 S 138.52 25.95, 140 25.73 S 143.61 26.7, 145 26.14 S 148.52 21.49, 150 21.74 S 153.53 27.56, 155 27.85 S 158.53 23.97, 160 23.68 S 163.51 25.71, 165 25.85 S 168.5 24.51, 170 24.62 S 173.58 26.08, 175 26.56 S 178.6 28.5, 180 27.96 S 183.77 23.53, 185 22.68 S 188.65 20.38, 190 21.04 S 193.58 27.06, 195 27.55 S 198.62 25.08, 200 24.5 S 203.54 23.72, 205 23.39"
          fill="none"/>
    <circle r="4" cx="5" cy="40" fill="#3023AE"/>
    <circle r="4" cx="205" cy="23.39" fill="#C86DD7"/>      
</svg>