<svg width="200" height="50" viewBox="0 0 210 50" xmlns="http://www.w3.org/2000/svg">
    <defs>
        <linearGradient x1="0%" y1="0%" x2="100%" y2="0%" id="a">
            <stop stop-color="#3023AE" offset="0%"/>
            <stop stop-color="#C86DD7" offset="100%"/>
        </linearGradient>
    </defs>
    <path stroke="url(#a)"
          stroke-width="3"
          stroke-linejoin="round"
          stroke-linecap="round"
          d="M5 40 C 6.29 39.23, 8.56 37.43, 10 37 S 13.5 37, 15 37 S 18.71 37.77, 20 37 S 23.5 31, 25 31 S 28.71 36.23, 30 37 S 33.5 37, 35 37 S 38.5 37, 40 37 S 43.5 37, 45 37 S 48.5 37, 50 37 S 53.5 37, 55 37 S 58.5 37, 60 37 S 63.5 37, 65 37 S 68.5 37, 70 37 S 73.5 37, 75 37 S 78.5 37, 80 37 S 83.5 37, 85 37 S 88.5 37, 90 37 S 93.5 37, 95 37 S 98.5 37, 100 37 S 103.5 37, 105 37 S 108.5 37, 110 37 S 113.5 37, 115 37 S 118.5 37, 120 37 S 123.5 37, 125 37 S 128.5 37, 130 37 S 133.5 37, 135 37 S 138.5 37, 140 37 S 143.5 37, 145 37 S 148.5 37, 150 37 S 153.5 37, 155 37 S 158.5 37, 160 37 S 163.5 37, 165 37 S 168.5 37, 170 37 S 173.5 37, 175 37 S 178.5 37, 180 37 S 183.71 37.77, 185 37 S 188.5 31, 190 31 S 193.56 37.43, 195 37 S 199.48 29.41, 200 28 S 204.6 11.45, 205 10"
          fill="none"/>
    <circle r="4" cx="5" cy="40" fill="#3023AE"/>
    <circle r="4" cx="205" cy="10" fill="#C86DD7"/>      
</svg>