<svg width="200" height="50" viewBox="0 0 210 50" xmlns="http://www.w3.org/2000/svg">
    <defs>
        <linearGradient x1="0%" y1="0%" x2="100%" y2="0%" id="a">
            <stop stop-color="#3023AE" offset="0%"/>
            <stop stop-color="#C86DD7" offset="100%"/>
        </linearGradient>
    </defs>
    <path stroke="url(#a)"
          stroke-width="3"
          stroke-linejoin="round"
          stroke-linecap="round"
          d="M5 40 C 6.5 39.99, 8.5 39.95, 10 39.95 S 13.5 39.98, 15 39.99 S 18.5 39.99, 20 39.99 S 23.5 39.99, 25 39.99 S 28.5 39.99, 30 39.99 S 33.5 39.99, 35 39.99 S 38.5 39.99, 40 39.99 S 43.5 39.99, 45 39.99 S 48.5 39.99, 50 39.99 S 53.5 39.99, 55 39.99 S 58.5 39.99, 60 39.99 S 63.5 39.99, 65 39.99 S 68.5 39.98, 70 39.97 S 73.5 39.99, 75 39.94 S 78.54 39.99, 80 39.66 S 83.5 37.68, 85 37.7 S 88.53 39.49, 90 39.81 S 93.5 39.87, 95 39.86 S 98.5 39.87, 100 39.76 S 103.5 39.14, 105 39.11 S 108.5 39.53, 110 39.57 S 113.5 39.43, 115 39.41 S 118.5 39.56, 120 39.44 S 123.5 38.64, 125 38.61 S 129.51 40.64, 130 39.22 S 133.94 11.06, 135 10 S 139.22 27.93, 140 29.21 S 143.69 27.16, 145 26.43 S 148.86 24.57, 150 23.6 S 153.64 17.3, 155 17.94 S 159.1 27.09, 160 28.29 S 163.64 30.75, 165 31.38 S 168.54 32.57, 170 32.92 S 173.52 33.54, 175 33.76 S 178.61 34.94, 180 34.38 S 183.83 30.65, 185 29.71 S 189 27.41, 190 26.3 S 193.5 18.63, 195 18.62 S 198.78 25.39, 200 26.26 S 203.51 25.94, 205 25.8"
          fill="none"/>
    <circle r="4" cx="5" cy="40" fill="#3023AE"/>
    <circle r="4" cx="205" cy="25.8" fill="#C86DD7"/>      
</svg>