<svg width="200" height="50" viewBox="0 0 210 50" xmlns="http://www.w3.org/2000/svg">
    <defs>
        <linearGradient x1="0%" y1="0%" x2="100%" y2="0%" id="a">
            <stop stop-color="#3023AE" offset="0%"/>
            <stop stop-color="#C86DD7" offset="100%"/>
        </linearGradient>
    </defs>
    <path stroke="url(#a)"
          stroke-width="3"
          stroke-linejoin="round"
          stroke-linecap="round"
          d="M5 40 C 6.49 39.86, 8.5 39.61, 10 39.54 S 13.5 39.54, 15 39.54 S 18.5 39.61, 20 39.54 S 23.53 39.35, 25 39.08 S 28.5 37.62, 30 37.69 S 33.5 39.47, 35 39.54 S 38.59 38.67, 40 38.15 S 43.51 35.99, 45 35.85 S 48.5 37.3, 50 37.23 S 53.5 35.38, 55 35.38 S 58.57 36.77, 60 37.23 S 63.51 38.76, 65 38.62 S 68.51 36.45, 70 36.31 S 74.47 39.09, 75 37.69 S 78.66 10.68, 80 10 S 83.79 31.73, 85 32.62 S 88.57 16.92, 90 17.38 S 94.3 34.52, 95 35.85 S 98.51 36.1, 100 36.31 S 103.54 36.89, 105 37.23 S 108.54 38.96, 110 38.62 S 113.53 35.19, 115 34.92 S 118.57 36.31, 120 36.77 S 123.51 38.29, 125 38.15 S 128.57 36.31, 130 35.85 S 133.55 34.52, 135 34.92 S 138.64 37.99, 140 38.62 S 143.5 39.54, 145 39.54 S 148.51 38.83, 150 38.62 S 153.51 38.36, 155 38.15 S 158.5 37.16, 160 37.23 S 163.5 38.55, 165 38.62 S 168.53 37.96, 170 37.69 S 173.5 36.84, 175 36.77 S 178.51 37.02, 180 37.23 S 183.51 38.01, 185 38.15 S 188.5 38.08, 190 38.15 S 193.5 38.62, 195 38.62 S 198.51 38.29, 200 38.15 S 203.51 37.83, 205 37.69"
          fill="none"/>
    <circle r="4" cx="5" cy="40" fill="#3023AE"/>
    <circle r="4" cx="205" cy="37.69" fill="#C86DD7"/>      
</svg>