<svg width="200" height="50" viewBox="0 0 210 50" xmlns="http://www.w3.org/2000/svg">
    <defs>
        <linearGradient x1="0%" y1="0%" x2="100%" y2="0%" id="a">
            <stop stop-color="#3023AE" offset="0%"/>
            <stop stop-color="#C86DD7" offset="100%"/>
        </linearGradient>
    </defs>
    <path stroke="url(#a)"
          stroke-width="3"
          stroke-linejoin="round"
          stroke-linecap="round"
          d="M5 40 C 6.34 39.33, 8.66 38.17, 10 37.5 S 13.66 35.67, 15 35 S 18.8 33.4, 20 32.5 S 23.66 26.83, 25 27.5 S 28.54 37.14, 30 37.5 S 33.54 30.36, 35 30 S 38.66 34.33, 40 35 S 43.54 34.64, 45 35 S 48.54 37.14, 50 37.5 S 53.5 37.5, 55 37.5 S 58.5 37.5, 60 37.5 S 63.66 38.17, 65 37.5 S 69.06 33.67, 70 32.5 S 73.54 24.64, 75 25 S 78.66 34.33, 80 35 S 83.54 30.36, 85 30 S 88.5 32.5, 90 32.5 S 93.66 30.67, 95 30 S 98.8 28.4, 100 27.5 S 103.66 23.17, 105 22.5 S 108.54 22.86, 110 22.5 S 113.94 18.94, 115 20 S 118.8 31.6, 120 32.5 S 124.17 28.75, 125 27.5 S 128.54 17.14, 130 17.5 S 133.66 30.67, 135 30 S 138.5 12.5, 140 12.5 S 144.06 28.83, 145 30 S 149.33 26.34, 150 25 S 153.66 9.33, 155 10 S 159.26 28.7, 160 30 S 163.8 28.4, 165 27.5 S 168.54 22.86, 170 22.5 S 173.5 25, 175 25 S 178.8 23.4, 180 22.5 S 183.66 16.83, 185 17.5 S 188.54 27.14, 190 27.5 S 193.54 20.36, 195 20 S 198.94 23.94, 200 25 S 203.94 28.94, 205 30"
          fill="none"/>
    <circle r="4" cx="5" cy="40" fill="#3023AE"/>
    <circle r="4" cx="205" cy="30" fill="#C86DD7"/>      
</svg>