<svg width="200" height="50" viewBox="0 0 210 50" xmlns="http://www.w3.org/2000/svg">
    <defs>
        <linearGradient x1="0%" y1="0%" x2="100%" y2="0%" id="a">
            <stop stop-color="#3023AE" offset="0%"/>
            <stop stop-color="#C86DD7" offset="100%"/>
        </linearGradient>
    </defs>
    <path stroke="url(#a)"
          stroke-width="3"
          stroke-linejoin="round"
          stroke-linecap="round"
          d="M5 40 C 5.93 38.82, 9.5 35.09, 10 33.67 S 13.54 11.09, 15 11.41 S 18.94 34.81, 20 35.87 S 23.58 20.94, 25 21.44 S 28.52 39.63, 30 39.38 S 34.47 21.14, 35 19.74 S 38.93 14.03, 40 12.98 S 44.03 8.85, 45 10 S 49.16 23.61, 50 24.85 S 53.53 25.01, 55 24.69 S 58.56 23.09, 60 22.69 S 63.51 21.73, 65 21.9 S 68.64 24.43, 70 23.8 S 73.61 17.82, 75 17.25 S 78.53 19.39, 80 19.7 S 83.5 19.27, 85 19.38 S 88.52 20.68, 90 20.43 S 93.5 17.78, 95 17.67 S 98.51 19.81, 100 19.67 S 103.63 17.35, 105 16.75 S 108.5 15.28, 110 15.31 S 113.51 16.81, 115 16.98 S 118.5 16.51, 120 16.43 S 123.51 16.67, 125 16.46 S 128.52 15.24, 130 15.02 S 133.5 14.89, 135 14.95 S 138.52 15.65, 140 15.44 S 143.5 13.54, 145 13.51 S 148.78 14.34, 150 15.21 S 153.67 19.97, 155 20.66 S 158.52 20.12, 160 20.39 S 163.5 22.37, 165 22.49 S 168.51 21.36, 170 21.18 S 173.51 21.18, 175 21.31 S 178.53 21.75, 180 22.03 S 183.56 22.76, 185 23.18 S 188.5 24.85, 190 24.92 S 193.51 23.81, 195 23.64 S 198.51 23.61, 200 23.77 S 203.52 24.42, 205 24.69"
          fill="none"/>
    <circle r="4" cx="5" cy="40" fill="#3023AE"/>
    <circle r="4" cx="205" cy="24.689999999999998" fill="#C86DD7"/>      
</svg>