<svg width="200" height="50" viewBox="0 0 210 50" xmlns="http://www.w3.org/2000/svg">
    <defs>
        <linearGradient x1="0%" y1="0%" x2="100%" y2="0%" id="a">
            <stop stop-color="#3023AE" offset="0%"/>
            <stop stop-color="#C86DD7" offset="100%"/>
        </linearGradient>
    </defs>
    <path stroke="url(#a)"
          stroke-width="3"
          stroke-linejoin="round"
          stroke-linecap="round"
          d="M5 40 C 6.5 39.95, 8.5 39.93, 10 39.82 S 13.53 39.6, 15 39.28 S 18.66 38.34, 20 37.66 S 23.51 33.99, 25 34.16 S 28.66 38.15, 30 38.83 S 33.5 39.27, 35 39.28 S 38.95 39.99, 40 38.92 S 43.53 29.34, 45 29.04 S 48.68 36.14, 50 36.86 S 53.51 34.37, 55 34.52 S 58.54 37.49, 60 37.84 S 63.69 37.68, 65 36.95 S 68.53 32.56, 70 32.28 S 73.61 34.5, 75 35.06 S 78.5 36.31, 80 36.32 S 83.52 34.9, 85 35.15 S 88.55 38.4, 90 38.02 S 93.76 33.39, 95 32.54 S 98.56 31.61, 100 31.2 S 103.61 29.1, 105 29.67 S 108.71 34.56, 110 35.33 S 114.14 36.92, 115 35.69 S 118.55 21.51, 120 21.14 S 124 32.05, 125 33.17 S 129.23 33.57, 130 32.28 S 134.34 17.91, 135 16.56 S 138.91 10.77, 140 11.8 S 143.52 26.35, 145 26.08 S 148.95 11.07, 150 10 S 153.59 15.33, 155 15.84 S 158.52 13.38, 160 13.59 S 163.92 16.24, 165 17.28 S 168.59 23.8, 170 23.29 S 174.09 14.87, 175 13.68 S 178.5 10.18, 180 10.27 S 183.91 13.28, 185 14.31 S 188.64 19.17, 190 19.79 S 193.52 19.14, 195 18.89 S 198.58 17.58, 200 18.08 S 203.86 21.42, 205 22.4"
          fill="none"/>
    <circle r="4" cx="5" cy="40" fill="#3023AE"/>
    <circle r="4" cx="205" cy="22.4" fill="#C86DD7"/>      
</svg>