<svg width="200" height="50" viewBox="0 0 210 50" xmlns="http://www.w3.org/2000/svg">
    <defs>
        <linearGradient x1="0%" y1="0%" x2="100%" y2="0%" id="a">
            <stop stop-color="#3023AE" offset="0%"/>
            <stop stop-color="#C86DD7" offset="100%"/>
        </linearGradient>
    </defs>
    <path stroke="url(#a)"
          stroke-width="3"
          stroke-linejoin="round"
          stroke-linecap="round"
          d="M5 40 C 6.46 39.64, 8.5 38.81, 10 38.78 S 13.51 39.61, 15 39.78 S 18.5 39.87, 20 39.89 S 23.58 40.38, 25 39.89 S 29.4 37.82, 30 36.44 S 34.47 18.29, 35 16.89 S 39.31 8.67, 40 10 S 44.46 34.71, 45 36.11 S 48.5 36.03, 50 36.11 S 53.51 36.49, 55 36.67 S 58.51 37.15, 60 37.33 S 63.5 37.89, 65 37.89 S 68.5 37.43, 70 37.33 S 73.5 37.34, 75 37.22 S 78.56 36.98, 80 36.56 S 83.5 34.4, 85 34.33 S 88.6 35.57, 90 36.11 S 93.54 37.88, 95 38.22 S 98.5 38.42, 100 38.44 S 103.51 38.2, 105 38.33 S 108.5 39.33, 110 39.33 S 113.5 38.38, 115 38.33 S 118.5 38.97, 120 39 S 123.57 39.02, 125 38.56 S 128.5 35.83, 130 35.78 S 133.52 37.99, 135 38.22 S 138.5 37.28, 140 37.33 S 143.52 38.33, 145 38.56 S 148.52 39.11, 150 38.89 S 153.5 37.13, 155 37.11 S 158.52 38.52, 160 38.78 S 163.51 39.02, 165 38.89 S 168.5 37.84, 170 37.89 S 173.51 39.09, 175 39.22 S 178.5 38.86, 180 38.78 S 183.5 38.64, 185 38.67 S 188.51 39.15, 190 39 S 193.51 37.87, 195 37.67 S 198.5 37.57, 200 37.67 S 203.51 38.13, 205 38.33"
          fill="none"/>
    <circle r="4" cx="5" cy="40" fill="#3023AE"/>
    <circle r="4" cx="205" cy="38.33" fill="#C86DD7"/>      
</svg>