<svg width="200" height="50" viewBox="0 0 210 50" xmlns="http://www.w3.org/2000/svg">
    <defs>
        <linearGradient x1="0%" y1="0%" x2="100%" y2="0%" id="a">
            <stop stop-color="#3023AE" offset="0%"/>
            <stop stop-color="#C86DD7" offset="100%"/>
        </linearGradient>
    </defs>
    <path stroke="url(#a)"
          stroke-width="3"
          stroke-linejoin="round"
          stroke-linecap="round"
          d="M5 40 C 6.4 39.45, 8.53 38.35, 10 38.04 S 13.59 38.38, 15 37.87 S 19.18 35.67, 20 34.41 S 24.35 23.87, 25 22.52 S 29.01 12.45, 30 13.57 S 34.37 32.48, 35 33.84 S 38.53 35.63, 40 35.34 S 44.45 33.3, 45 31.9 S 48.54 9.66, 50 10 S 54.14 33.02, 55 34.25 S 58.55 24.69, 60 24.29 S 64.13 30.3, 65 31.52 S 68.79 37.34, 70 38.23 S 73.5 38.77, 75 38.83 S 78.76 39.49, 80 38.64 S 83.5 32.05, 85 31.98 S 88.78 37.28, 90 38.15 S 93.51 38.93, 95 39.07 S 98.5 39.16, 100 39.1 S 103.51 38.87, 105 38.66 S 108.5 37.72, 110 37.71 S 113.5 38.47, 115 38.58 S 118.5 38.41, 120 38.42 S 123.5 38.57, 125 38.64 S 128.5 38.77, 130 38.88 S 133.5 39.27, 135 39.35 S 138.63 40.04, 140 39.43 S 143.51 35.07, 145 34.93 S 148.61 37.93, 150 38.5 S 153.51 38.91, 155 39.05 S 158.5 39.4, 160 39.45 S 163.5 39.34, 165 39.37 S 168.5 39.65, 170 39.67 S 173.64 40.15, 175 39.51 S 178.5 34.93, 180 34.93 S 183.64 38.85, 185 39.48 S 188.5 39.62, 190 39.59 S 193.5 39.35, 195 39.26 S 198.5 38.95, 200 38.99 S 203.51 39.35, 205 39.51"
          fill="none"/>
    <circle r="4" cx="5" cy="40" fill="#3023AE"/>
    <circle r="4" cx="205" cy="39.51" fill="#C86DD7"/>      
</svg>