<svg width="200" height="50" viewBox="0 0 210 50" xmlns="http://www.w3.org/2000/svg">
    <defs>
        <linearGradient x1="0%" y1="0%" x2="100%" y2="0%" id="a">
            <stop stop-color="#3023AE" offset="0%"/>
            <stop stop-color="#C86DD7" offset="100%"/>
        </linearGradient>
    </defs>
    <path stroke="url(#a)"
          stroke-width="3"
          stroke-linejoin="round"
          stroke-linecap="round"
          d="M5 40 C 5.76 38.7, 8.53 31.74, 10 31.43 S 13.62 37.27, 15 37.86 S 18.53 36.03, 20 35.71 S 23.5 35.71, 25 35.71 S 28.53 35.39, 30 35.71 S 33.53 38.17, 35 37.86 S 38.74 34.38, 40 33.57 S 43.53 31.12, 45 31.43 S 48.74 34.9, 50 35.71 S 53.5 37.86, 55 37.86 S 58.86 36.69, 60 35.71 S 63.53 28.97, 65 29.29 S 68.86 36.88, 70 37.86 S 73.53 38.18, 75 37.86 S 78.86 36.69, 80 35.71 S 83.53 28.97, 85 29.29 S 88.86 36.88, 90 37.86 S 93.5 37.86, 95 37.86 S 98.98 38.96, 100 37.86 S 104.08 28.32, 105 27.14 S 108.98 23.9, 110 25 S 113.86 36.88, 115 37.86 S 118.98 34.67, 120 33.57 S 123.62 27.73, 125 27.14 S 128.62 29.88, 130 29.29 S 133.53 23.18, 135 22.86 S 138.86 26.16, 140 27.14 S 143.53 31.11, 145 31.43 S 148.53 29.6, 150 29.29 S 153.53 29.61, 155 29.29 S 158.53 26.83, 160 27.14 S 163.74 32.24, 165 31.43 S 168.86 21.69, 170 20.71 S 173.86 21.88, 175 22.86 S 178.62 29.88, 180 29.29 S 183.5 18.57, 185 18.57 S 188.62 28.7, 190 29.29 S 193.62 23.45, 195 22.86 S 199.08 26.18, 200 25 S 204.53 11.42, 205 10"
          fill="none"/>
    <circle r="4" cx="5" cy="40" fill="#3023AE"/>
    <circle r="4" cx="205" cy="10" fill="#C86DD7"/>      
</svg>