<svg width="200" height="50" viewBox="0 0 210 50" xmlns="http://www.w3.org/2000/svg">
    <defs>
        <linearGradient x1="0%" y1="0%" x2="100%" y2="0%" id="a">
            <stop stop-color="#3023AE" offset="0%"/>
            <stop stop-color="#C86DD7" offset="100%"/>
        </linearGradient>
    </defs>
    <path stroke="url(#a)"
          stroke-width="3"
          stroke-linejoin="round"
          stroke-linecap="round"
          d="M5 40 C 6.41 39.49, 8.53 38.49, 10 38.19 S 13.51 37.78, 15 37.93 S 18.52 38.99, 20 39.22 S 23.5 39.4, 25 39.48 S 28.5 39.7, 30 39.74 S 33.5 39.74, 35 39.74 S 38.5 39.74, 40 39.74 S 43.51 39.89, 45 39.74 S 48.5 38.79, 50 38.71 S 53.5 39.34, 55 39.22 S 58.5 38.01, 60 37.93 S 63.51 38.9, 65 38.71 S 68.52 36.87, 70 36.64 S 74.41 38.54, 75 37.16 S 78.84 14.32, 80 13.36 S 84.31 27.55, 85 28.88 S 88.68 31.78, 90 32.5 S 93.71 33.54, 95 34.31 S 98.57 38.89, 100 38.45 S 103.52 31.44, 105 31.21 S 108.63 36.3, 110 36.9 S 113.51 35.76, 115 35.6 S 118.63 36.46, 120 35.86 S 123.5 31.33, 125 31.21 S 128.67 34.4, 130 35.09 S 133.51 36.57, 135 36.38 S 138.5 33.87, 140 33.79 S 143.51 36.01, 145 35.86 S 148.51 32.91, 150 32.76 S 153.61 34.26, 155 34.83 S 158.51 36.71, 160 36.9 S 163.58 36.6, 165 36.12 S 169.46 34.93, 170 33.53 S 173.5 9.92, 175 10 S 179.46 32.65, 180 34.05 S 183.56 36.53, 185 36.12 S 188.51 31.36, 190 31.21 S 193.53 35.39, 195 35.09 S 198.5 29.18, 200 29.14 S 204.01 33.7, 205 34.83"
          fill="none"/>
    <circle r="4" cx="5" cy="40" fill="#3023AE"/>
    <circle r="4" cx="205" cy="34.83" fill="#C86DD7"/>      
</svg>