<svg width="200" height="50" viewBox="0 0 210 50" xmlns="http://www.w3.org/2000/svg">
    <defs>
        <linearGradient x1="0%" y1="0%" x2="100%" y2="0%" id="a">
            <stop stop-color="#3023AE" offset="0%"/>
            <stop stop-color="#C86DD7" offset="100%"/>
        </linearGradient>
    </defs>
    <path stroke="url(#a)"
          stroke-width="3"
          stroke-linejoin="round"
          stroke-linecap="round"
          d="M5 40 C 5.44 38.57, 8.55 24.28, 10 23.88 S 13.7 36.47, 15 37.22 S 18.52 29.86, 20 29.65 S 23.9 34.77, 25 35.79 S 28.56 38.45, 30 38.86 S 33.5 38.65, 35 38.62 S 38.77 39.51, 40 38.65 S 44.43 33.06, 45 31.67 S 48.53 13.99, 50 14.27 S 54.39 32.23, 55 33.6 S 58.54 36.5, 60 36.85 S 63.5 35.88, 65 36 S 68.71 38.39, 70 37.62 S 73.52 30.29, 75 30.05 S 78.84 35.02, 80 35.97 S 83.53 37.89, 85 38.17 S 88.5 37.98, 90 37.88 S 94.31 38.86, 95 37.53 S 99.49 20.09, 100 18.68 S 104.08 8.81, 105 10 S 109.35 30.24, 110 31.59 S 113.52 30.56, 115 30.82 S 118.69 32.62, 120 33.34 S 123.6 35.77, 125 36.31 S 128.52 36.97, 130 37.21 S 134.34 39.3, 135 37.95 S 138.59 17.16, 140 16.66 S 144.25 33.08, 145 34.38 S 148.5 33.98, 150 33.93 S 153.53 33.76, 155 34.06 S 158.55 35.6, 160 35.97 S 163.51 36.4, 165 36.58 S 168.51 36.97, 170 37.17 S 173.5 37.8, 175 37.91 S 178.5 37.97, 180 37.93 S 183.5 37.72, 185 37.67 S 188.5 37.48, 190 37.59 S 193.5 38.28, 195 38.38 S 198.51 38.36, 200 38.23 S 203.51 37.74, 205 37.53"
          fill="none"/>
    <circle r="4" cx="5" cy="40" fill="#3023AE"/>
    <circle r="4" cx="205" cy="37.53" fill="#C86DD7"/>      
</svg>