<svg width="200" height="50" viewBox="0 0 210 50" xmlns="http://www.w3.org/2000/svg">
    <defs>
        <linearGradient x1="0%" y1="0%" x2="100%" y2="0%" id="a">
            <stop stop-color="#3023AE" offset="0%"/>
            <stop stop-color="#C86DD7" offset="100%"/>
        </linearGradient>
    </defs>
    <path stroke="url(#a)"
          stroke-width="3"
          stroke-linejoin="round"
          stroke-linecap="round"
          d="M5 40 C 6.5 39.98, 8.5 39.96, 10 39.94 S 13.5 39.95, 15 39.86 S 18.5 39.48, 20 39.37 S 23.5 39.01, 25 39.1 S 28.5 39.83, 30 39.94 S 33.5 39.83, 35 39.81 S 38.5 39.78, 40 39.78 S 43.5 39.93, 45 39.83 S 48.5 39.12, 50 39.09 S 53.5 39.51, 55 39.61 S 58.5 39.75, 60 39.78 S 63.5 39.85, 65 39.83 S 69.52 41.09, 70 39.67 S 74.16 11.24, 75 10 S 79.48 23.4, 80 24.81 S 84.13 36.04, 85 37.26 S 88.52 38.59, 90 38.84 S 93.5 38.99, 95 38.94 S 98.5 38.54, 100 38.53 S 103.5 38.83, 105 38.86 S 108.51 38.88, 110 38.76 S 113.5 38.09, 115 38.03 S 118.55 38.74, 120 38.37 S 123.5 35.51, 125 35.48 S 128.53 37.9, 130 38.19 S 133.5 37.46, 135 37.43 S 138.5 37.94, 140 37.98 S 143.5 37.66, 145 37.69 S 148.5 38.07, 150 38.18 S 153.5 38.36, 155 38.4 S 158.5 38.44, 160 38.42 S 163.5 38.34, 165 38.29 S 168.5 38.11, 170 38.07 S 173.5 38.06, 175 38.02 S 178.5 37.84, 180 37.79 S 183.5 37.7, 185 37.7 S 189.28 39.11, 190 37.8 S 193.51 19.71, 195 19.52 S 199.27 35.21, 200 36.52 S 203.53 37.24, 205 37.54"
          fill="none"/>
    <circle r="4" cx="5" cy="40" fill="#3023AE"/>
    <circle r="4" cx="205" cy="37.54" fill="#C86DD7"/>      
</svg>