<svg width="200" height="50" viewBox="0 0 210 50" xmlns="http://www.w3.org/2000/svg">
    <defs>
        <linearGradient x1="0%" y1="0%" x2="100%" y2="0%" id="a">
            <stop stop-color="#3023AE" offset="0%"/>
            <stop stop-color="#C86DD7" offset="100%"/>
        </linearGradient>
    </defs>
    <path stroke="url(#a)"
          stroke-width="3"
          stroke-linejoin="round"
          stroke-linecap="round"
          d="M5 40 C 6.44 39.57, 8.52 38.72, 10 38.5 S 13.5 38.5, 15 38.5 S 18.5 38.5, 20 38.5 S 23.5 38.5, 25 38.5 S 28.5 38.5, 30 38.5 S 33.5 38.5, 35 38.5 S 38.5 38.5, 40 38.5 S 43.5 38.5, 45 38.5 S 48.5 38.5, 50 38.5 S 53.5 38.5, 55 38.5 S 58.5 38.5, 60 38.5 S 64.22 39.78, 65 38.5 S 68.5 22, 70 22 S 74.22 37.22, 75 38.5 S 78.5 38.5, 80 38.5 S 83.5 38.5, 85 38.5 S 88.5 38.5, 90 38.5 S 93.5 38.5, 95 38.5 S 98.63 39.12, 100 38.5 S 103.56 34.43, 105 34 S 108.52 35.28, 110 35.5 S 113.5 35.5, 115 35.5 S 118.5 35.5, 120 35.5 S 123.63 36.12, 125 35.5 S 128.89 32, 130 31 S 133.56 26.93, 135 26.5 S 138.56 27.57, 140 28 S 143.52 29.28, 145 29.5 S 148.56 29.93, 150 29.5 S 153.71 25.73, 155 26.5 S 158.8 36.4, 160 35.5 S 164.17 20.25, 165 19 S 168.89 19.5, 170 20.5 S 173.89 27, 175 28 S 178.5 29.5, 180 29.5 S 183.5 28, 185 28 S 188.5 29.5, 190 29.5 S 194.32 29.33, 195 28 S 198.52 10.22, 200 10 S 204.56 25.06, 205 26.5"
          fill="none"/>
    <circle r="4" cx="5" cy="40" fill="#3023AE"/>
    <circle r="4" cx="205" cy="26.5" fill="#C86DD7"/>      
</svg>