<svg width="200" height="50" viewBox="0 0 210 50" xmlns="http://www.w3.org/2000/svg">
    <defs>
        <linearGradient x1="0%" y1="0%" x2="100%" y2="0%" id="a">
            <stop stop-color="#3023AE" offset="0%"/>
            <stop stop-color="#C86DD7" offset="100%"/>
        </linearGradient>
    </defs>
    <path stroke="url(#a)"
          stroke-width="3"
          stroke-linejoin="round"
          stroke-linecap="round"
          d="M5 40 C 5.31 38.53, 9.5 17.73, 10 16.32 S 13.52 11.35, 15 11.58 S 19.3 16.56, 20 17.89 S 24.2 29.26, 25 30.53 S 28.57 34.13, 30 33.68 S 33.82 28.3, 35 27.37 S 38.91 26.82, 40 25.79 S 43.52 17.66, 45 17.89 S 48.82 28.3, 50 27.37 S 53.57 9.55, 55 10 S 59.14 29.3, 60 30.53 S 63.52 24.44, 65 24.21 S 68.64 28.31, 70 28.95 S 73.52 28.72, 75 28.95 S 78.73 29.73, 80 30.53 S 83.73 34.46, 85 35.26 S 88.5 36.84, 90 36.84 S 93.57 35.71, 95 35.26 S 98.64 34.32, 100 33.68 S 103.52 30.3, 105 30.53 S 108.57 34.81, 110 35.26 S 113.57 33.23, 115 33.68 S 119.07 39.6, 120 38.42 S 123.5 21.05, 125 21.05 S 129.2 37.15, 130 38.42 S 133.52 37.07, 135 36.84 S 138.99 37.95, 140 36.84 S 143.91 26.82, 145 25.79 S 148.73 26.57, 150 27.37 S 153.82 31.18, 155 32.11 S 158.57 34.81, 160 35.26 S 163.64 35.9, 165 35.26 S 168.52 30.76, 170 30.53 S 173.64 33.04, 175 33.68 S 178.57 35.71, 180 35.26 S 183.82 31.46, 185 30.53 S 188.64 26.73, 190 27.37 S 193.82 34.33, 195 35.26 S 198.52 35.49, 200 35.26 S 203.57 34.13, 205 33.68"
          fill="none"/>
    <circle r="4" cx="5" cy="40" fill="#3023AE"/>
    <circle r="4" cx="205" cy="33.68" fill="#C86DD7"/>      
</svg>