<svg width="200" height="50" viewBox="0 0 210 50" xmlns="http://www.w3.org/2000/svg">
    <defs>
        <linearGradient x1="0%" y1="0%" x2="100%" y2="0%" id="a">
            <stop stop-color="#3023AE" offset="0%"/>
            <stop stop-color="#C86DD7" offset="100%"/>
        </linearGradient>
    </defs>
    <path stroke="url(#a)"
          stroke-width="3"
          stroke-linejoin="round"
          stroke-linecap="round"
          d="M5 40 C 6.5 39.98, 8.5 39.94, 10 39.94 S 13.5 39.98, 15 39.99 S 18.5 40, 20 39.99 S 23.5 39.91, 25 39.89 S 28.5 39.82, 30 39.83 S 33.5 39.95, 35 39.97 S 38.5 39.98, 40 39.98 S 44.46 41.37, 45 39.97 S 48.53 14.31, 50 13.99 S 54.44 36.42, 55 37.81 S 58.52 38.77, 60 39.03 S 63.5 39.51, 65 39.59 S 68.5 39.56, 70 39.57 S 73.5 39.66, 75 39.66 S 78.5 39.55, 80 39.56 S 83.5 39.73, 85 39.74 S 88.5 39.68, 90 39.66 S 93.5 39.6, 95 39.6 S 98.5 39.64, 100 39.68 S 103.5 39.85, 105 39.87 S 108.5 39.83, 110 39.82 S 113.5 39.82, 115 39.83 S 118.5 39.86, 120 39.86 S 123.5 39.9, 125 39.86 S 128.5 39.59, 130 39.57 S 133.5 39.66, 135 39.7 S 138.5 39.85, 140 39.83 S 143.5 39.55, 145 39.55 S 148.5 39.81, 150 39.83 S 153.58 40.2, 155 39.71 S 158.5 36.46, 160 36.39 S 163.58 38.75, 165 39.22 S 168.5 39.64, 170 39.71 S 173.5 39.7, 175 39.71 S 179.42 41.16, 180 39.78 S 184.51 17.38, 185 15.96 S 189.27 9.57, 190 10.88 S 194.45 32.55, 195 33.95 S 199.42 37.9, 200 36.52 S 204.72 11.47, 205 10"
          fill="none"/>
    <circle r="4" cx="5" cy="40" fill="#3023AE"/>
    <circle r="4" cx="205" cy="10" fill="#C86DD7"/>      
</svg>