<svg width="200" height="50" viewBox="0 0 210 50" xmlns="http://www.w3.org/2000/svg">
    <defs>
        <linearGradient x1="0%" y1="0%" x2="100%" y2="0%" id="a">
            <stop stop-color="#3023AE" offset="0%"/>
            <stop stop-color="#C86DD7" offset="100%"/>
        </linearGradient>
    </defs>
    <path stroke="url(#a)"
          stroke-width="3"
          stroke-linejoin="round"
          stroke-linecap="round"
          d="M5 40 C 6.46 39.64, 8.51 38.94, 10 38.75 S 13.5 38.75, 15 38.75 S 18.5 38.75, 20 38.75 S 23.5 38.75, 25 38.75 S 28.5 38.75, 30 38.75 S 33.5 38.75, 35 38.75 S 38.5 38.75, 40 38.75 S 43.5 38.75, 45 38.75 S 48.5 38.75, 50 38.75 S 53.5 38.75, 55 38.75 S 58.54 39.11, 60 38.75 S 64.44 37.64, 65 36.25 S 69.06 14.92, 70 13.75 S 73.6 23.22, 75 23.75 S 78.54 17.86, 80 17.5 S 83.66 21.92, 85 21.25 S 88.6 11.97, 90 12.5 S 94 23.88, 95 25 S 98.73 24.54, 100 23.75 S 103.6 19.28, 105 18.75 S 109 18.88, 110 20 S 113.51 30.19, 115 30 S 118.8 19.65, 120 18.75 S 124.12 21.29, 125 22.5 S 128.94 31.44, 130 32.5 S 133.6 33.03, 135 32.5 S 138.6 29.28, 140 28.75 S 143.54 28.39, 145 28.75 S 148.6 31.78, 150 31.25 S 153.54 24.64, 155 25 S 158.73 32.96, 160 33.75 S 164.39 32.62, 165 31.25 S 168.6 11.78, 170 11.25 S 174.26 26.2, 175 27.5 S 178.6 28.22, 180 28.75 S 183.51 31.44, 185 31.25 S 188.8 28.4, 190 27.5 S 194.26 25.05, 195 23.75 S 199 11.12, 200 10 S 203.66 11.83, 205 12.5"
          fill="none"/>
    <circle r="4" cx="5" cy="40" fill="#3023AE"/>
    <circle r="4" cx="205" cy="12.5" fill="#C86DD7"/>      
</svg>