<svg width="200" height="50" viewBox="0 0 210 50" xmlns="http://www.w3.org/2000/svg">
    <defs>
        <linearGradient x1="0%" y1="0%" x2="100%" y2="0%" id="a">
            <stop stop-color="#3023AE" offset="0%"/>
            <stop stop-color="#C86DD7" offset="100%"/>
        </linearGradient>
    </defs>
    <path stroke="url(#a)"
          stroke-width="3"
          stroke-linejoin="round"
          stroke-linecap="round"
          d="M5 40 C 5.89 38.79, 9.53 34.64, 10 33.22 S 13.66 9.33, 15 10 S 19.49 36.79, 20 38.2 S 23.5 37.84, 25 37.84 S 28.51 38, 30 38.17 S 33.51 38.77, 35 38.96 S 38.5 39.36, 40 39.45 S 43.5 39.52, 45 39.59 S 48.55 40.33, 50 39.95 S 53.61 37.55, 55 36.99 S 58.5 35.92, 60 35.9 S 63.52 37.08, 65 36.86 S 68.5 34.45, 70 34.42 S 73.53 36.92, 75 36.64 S 78.95 33.58, 80 32.51 S 83.5 26.4, 85 26.38 S 88.77 31.51, 90 32.37 S 93.5 33.41, 95 33.35 S 98.51 32.15, 100 31.96 S 103.5 32.16, 105 32.1 S 108.5 31.7, 110 31.58 S 113.5 31.27, 115 31.3 S 118.54 31.43, 120 31.77 S 123.52 33.35, 125 33.6 S 128.56 33.87, 130 33.44 S 133.51 30.83, 135 30.62 S 138.55 31.67, 140 32.04 S 143.52 32.9, 145 33.14 S 148.5 33.65, 150 33.68 S 153.56 33.78, 155 33.35 S 158.5 30.77, 160 30.65 S 163.5 32.47, 165 32.56 S 168.51 31.38, 170 31.22 S 173.5 31.39, 175 31.49 S 178.5 31.98, 180 31.91 S 183.5 31.1, 185 31 S 188.52 31.45, 190 31.22 S 193.71 30.18, 195 29.42 S 198.67 26.03, 200 25.34 S 203.53 24.59, 205 24.28"
          fill="none"/>
    <circle r="4" cx="5" cy="40" fill="#3023AE"/>
    <circle r="4" cx="205" cy="24.28" fill="#C86DD7"/>      
</svg>