<svg width="200" height="50" viewBox="0 0 210 50" xmlns="http://www.w3.org/2000/svg">
    <defs>
        <linearGradient x1="0%" y1="0%" x2="100%" y2="0%" id="a">
            <stop stop-color="#3023AE" offset="0%"/>
            <stop stop-color="#C86DD7" offset="100%"/>
        </linearGradient>
    </defs>
    <path stroke="url(#a)"
          stroke-width="3"
          stroke-linejoin="round"
          stroke-linecap="round"
          d="M5 40 C 5.89 38.79, 9.53 34.64, 10 33.22 S 13.66 9.33, 15 10 S 19.49 36.79, 20 38.2 S 23.5 37.84, 25 37.84 S 28.51 38, 30 38.17 S 33.51 38.77, 35 38.96 S 38.5 39.36, 40 39.45 S 43.5 39.52, 45 39.59 S 48.55 40.33, 50 39.95 S 53.61 37.55, 55 36.99 S 58.5 35.92, 60 35.9 S 63.52 37.08, 65 36.86 S 68.5 34.46, 70 34.42 S 73.53 36.89, 75 36.61 S 78.95 33.6, 80 32.53 S 83.5 26.4, 85 26.38 S 88.77 31.51, 90 32.37 S 93.5 33.41, 95 33.35 S 98.51 32.15, 100 31.96 S 103.5 32.16, 105 32.1 S 108.5 31.67, 110 31.55 S 113.5 31.26, 115 31.3 S 118.54 31.46, 120 31.8 S 123.52 33.36, 125 33.6 S 128.57 33.88, 130 33.44 S 133.51 30.74, 135 30.54 S 138.55 31.75, 140 32.12 S 143.52 32.88, 145 33.11 S 148.5 33.62, 150 33.66 S 153.56 33.85, 155 33.41 S 158.51 30.74, 160 30.62 S 163.5 32.5, 165 32.59 S 168.51 31.38, 170 31.22 S 173.5 31.39, 175 31.49 S 178.5 31.95, 180 31.88 S 183.5 31.15, 185 31.03 S 188.52 31.3, 190 31.08 S 193.7 30.3, 195 29.55 S 198.68 26.05, 200 25.34 S 203.54 24.55, 205 24.22"
          fill="none"/>
    <circle r="4" cx="5" cy="40" fill="#3023AE"/>
    <circle r="4" cx="205" cy="24.22" fill="#C86DD7"/>      
</svg>