<svg width="200" height="50" viewBox="0 0 210 50" xmlns="http://www.w3.org/2000/svg">
    <defs>
        <linearGradient x1="0%" y1="0%" x2="100%" y2="0%" id="a">
            <stop stop-color="#3023AE" offset="0%"/>
            <stop stop-color="#C86DD7" offset="100%"/>
        </linearGradient>
    </defs>
    <path stroke="url(#a)"
          stroke-width="3"
          stroke-linejoin="round"
          stroke-linecap="round"
          d="M5 40 C 6.39 39.43, 8.9 38.94, 10 37.93 S 13.52 30.59, 15 30.81 S 18.86 38.42, 20 39.39 S 23.5 39.29, 25 39.3 S 28.5 39.38, 30 39.44 S 33.5 39.62, 35 39.7 S 38.5 39.92, 40 39.95 S 43.5 39.94, 45 39.87 S 48.51 39.64, 50 39.45 S 53.5 38.67, 55 38.6 S 58.5 38.99, 60 38.95 S 63.5 38.32, 65 38.31 S 68.5 38.98, 70 38.88 S 73.58 38.08, 75 37.61 S 78.5 35.57, 80 35.59 S 83.53 37.42, 85 37.73 S 88.5 37.81, 90 37.73 S 93.5 37.23, 95 37.19 S 98.5 37.45, 100 37.47 S 103.5 37.35, 105 37.33 S 108.5 37.35, 110 37.36 S 113.5 37.31, 115 37.41 S 118.5 38.02, 120 38.02 S 123.51 37.58, 125 37.43 S 128.5 36.96, 130 37 S 133.51 37.58, 135 37.73 S 138.5 38, 140 38 S 143.5 37.83, 145 37.71 S 148.5 37.2, 150 37.19 S 153.5 37.67, 155 37.64 S 158.5 37.09, 160 37.02 S 163.5 37.12, 165 37.16 S 168.5 37.21, 170 37.26 S 173.5 37.62, 175 37.51 S 178.51 36.71, 180 36.52 S 183.52 36.51, 185 36.25 S 188.53 35.02, 190 34.73 S 194.42 35.63, 195 34.25 S 199.43 12.15, 200 10.76 S 203.52 10.23, 205 10"
          fill="none"/>
    <circle r="4" cx="5" cy="40" fill="#3023AE"/>
    <circle r="4" cx="205" cy="10" fill="#C86DD7"/>      
</svg>