<svg width="200" height="50" viewBox="0 0 210 50" xmlns="http://www.w3.org/2000/svg">
    <defs>
        <linearGradient x1="0%" y1="0%" x2="100%" y2="0%" id="a">
            <stop stop-color="#3023AE" offset="0%"/>
            <stop stop-color="#C86DD7" offset="100%"/>
        </linearGradient>
    </defs>
    <path stroke="url(#a)"
          stroke-width="3"
          stroke-linejoin="round"
          stroke-linecap="round"
          d="M5 40 C 5.25 38.52, 8.5 10.12, 10 10 S 14.52 37.81, 15 39.23 S 18.5 39.55, 20 39.6 S 23.5 39.53, 25 39.55 S 28.5 39.7, 30 39.73 S 33.5 39.79, 35 39.78 S 38.5 39.69, 40 39.68 S 43.5 39.66, 45 39.68 S 48.5 39.79, 50 39.8 S 53.5 39.76, 55 39.75 S 58.5 39.78, 60 39.75 S 63.5 39.52, 65 39.53 S 68.5 39.76, 70 39.8 S 73.5 39.78, 75 39.78 S 78.5 39.77, 80 39.78 S 83.5 39.89, 85 39.85 S 88.5 39.56, 90 39.53 S 93.5 39.6, 95 39.65 S 98.5 39.87, 100 39.88 S 103.5 39.79, 105 39.75 S 108.5 39.56, 110 39.58 S 113.5 39.84, 115 39.88 S 118.5 39.84, 120 39.83 S 123.5 39.82, 125 39.8 S 128.5 39.69, 130 39.68 S 133.5 39.73, 135 39.73 S 138.5 39.7, 140 39.7 S 143.5 39.71, 145 39.73 S 148.5 39.86, 150 39.85 S 153.5 39.66, 155 39.63 S 158.5 39.68, 160 39.68 S 163.5 39.65, 165 39.65 S 168.5 39.64, 170 39.65 S 173.5 39.72, 175 39.75 S 178.5 39.84, 180 39.85 S 183.5 39.83, 185 39.8 S 188.5 39.63, 190 39.63 S 193.5 39.79, 195 39.83 S 198.5 39.88, 200 39.88 S 203.5 39.86, 205 39.85"
          fill="none"/>
    <circle r="4" cx="5" cy="40" fill="#3023AE"/>
    <circle r="4" cx="205" cy="39.85" fill="#C86DD7"/>      
</svg>