<svg width="200" height="50" viewBox="0 0 210 50" xmlns="http://www.w3.org/2000/svg">
    <defs>
        <linearGradient x1="0%" y1="0%" x2="100%" y2="0%" id="a">
            <stop stop-color="#3023AE" offset="0%"/>
            <stop stop-color="#C86DD7" offset="100%"/>
        </linearGradient>
    </defs>
    <path stroke="url(#a)"
          stroke-width="3"
          stroke-linejoin="round"
          stroke-linecap="round"
          d="M5 40 C 6.49 39.87, 8.5 39.57, 10 39.55 S 13.5 39.87, 15 39.89 S 18.5 39.66, 20 39.66 S 23.5 39.92, 25 39.89 S 28.5 39.52, 30 39.43 S 33.5 39.32, 35 39.32 S 38.5 39.4, 40 39.43 S 43.5 39.58, 45 39.55 S 48.5 39.16, 50 39.21 S 53.5 39.79, 55 39.89 S 58.5 39.89, 60 39.89 S 63.5 39.89, 65 39.89 S 68.5 39.99, 70 39.89 S 73.53 39.49, 75 39.21 S 78.5 37.89, 80 37.96 S 83.52 39.39, 85 39.66 S 88.5 39.74, 90 39.77 S 93.5 39.91, 95 39.89 S 98.5 39.66, 100 39.66 S 103.5 39.86, 105 39.89 S 108.5 39.94, 110 39.89 S 113.5 39.55, 115 39.55 S 118.5 39.86, 120 39.89 S 123.6 40.3, 125 39.77 S 128.51 36.33, 130 36.15 S 133.57 38.08, 135 38.53 S 138.51 39.47, 140 39.32 S 143.5 37.56, 145 37.51 S 148.5 39.05, 150 38.98 S 153.5 37.09, 155 37.06 S 158.53 38.43, 160 38.75 S 163.56 39.62, 165 39.21 S 169.51 37.34, 170 35.92 S 173.62 10.58, 175 10 S 179.5 30.33, 180 31.74 S 183.73 37.28, 185 38.08 S 188.5 37.96, 190 38.08 S 193.79 39.75, 195 38.87 S 198.51 31.02, 200 30.83 S 204.11 36.41, 205 37.62"
          fill="none"/>
    <circle r="4" cx="5" cy="40" fill="#3023AE"/>
    <circle r="4" cx="205" cy="37.62" fill="#C86DD7"/>      
</svg>