<svg width="200" height="50" viewBox="0 0 210 50" xmlns="http://www.w3.org/2000/svg">
    <defs>
        <linearGradient x1="0%" y1="0%" x2="100%" y2="0%" id="a">
            <stop stop-color="#3023AE" offset="0%"/>
            <stop stop-color="#C86DD7" offset="100%"/>
        </linearGradient>
    </defs>
    <path stroke="url(#a)"
          stroke-width="3"
          stroke-linejoin="round"
          stroke-linecap="round"
          d="M5 40 C 6.17 39.06, 9.53 37.37, 10 35.95 S 13.54 9.65, 15 10 S 19.51 36.96, 20 38.38 S 23.5 39.07, 25 39.19 S 28.5 39.19, 30 39.19 S 33.5 39.19, 35 39.19 S 38.5 39.19, 40 39.19 S 43.61 39.75, 45 39.19 S 48.5 35.26, 50 35.14 S 53.5 38.38, 55 38.38 S 58.5 35.26, 60 35.14 S 63.54 37.22, 65 37.57 S 68.5 37.45, 70 37.57 S 73.5 38.26, 75 38.38 S 78.5 38.26, 80 38.38 S 83.5 39.07, 85 39.19 S 88.5 39.19, 90 39.19 S 93.5 39.19, 95 39.19 S 98.5 39.19, 100 39.19 S 103.5 39.19, 105 39.19 S 108.5 39.19, 110 39.19 S 113.5 39.19, 115 39.19 S 118.5 39.19, 120 39.19 S 123.5 39.19, 125 39.19 S 128.5 39.19, 130 39.19 S 133.5 39.19, 135 39.19 S 138.5 39.19, 140 39.19 S 143.5 39.19, 145 39.19 S 148.5 39.19, 150 39.19 S 153.5 39.19, 155 39.19 S 158.5 39.19, 160 39.19 S 163.5 39.19, 165 39.19 S 168.5 39.19, 170 39.19 S 173.5 39.19, 175 39.19"
          fill="none"/>
    <circle r="4" cx="5" cy="40" fill="#3023AE"/>
    <circle r="4" cx="175" cy="39.19" fill="#C86DD7"/>      
</svg>