<svg width="200" height="50" viewBox="0 0 210 50" xmlns="http://www.w3.org/2000/svg">
    <defs>
        <linearGradient x1="0%" y1="0%" x2="100%" y2="0%" id="a">
            <stop stop-color="#3023AE" offset="0%"/>
            <stop stop-color="#C86DD7" offset="100%"/>
        </linearGradient>
    </defs>
    <path stroke="url(#a)"
          stroke-width="3"
          stroke-linejoin="round"
          stroke-linecap="round"
          d="M5 40 C 6.1 38.98, 8.54 35.72, 10 35.38 S 13.54 37.35, 15 37.69 S 18.5 37.69, 20 37.69 S 23.5 37.69, 25 37.69 S 28.5 37.69, 30 37.69 S 33.5 37.69, 35 37.69 S 38.5 37.69, 40 37.69 S 43.5 37.69, 45 37.69 S 48.5 37.69, 50 37.69 S 53.5 37.69, 55 37.69 S 58.5 37.69, 60 37.69 S 63.5 37.69, 65 37.69 S 68.5 37.69, 70 37.69 S 73.5 37.69, 75 37.69 S 78.5 37.69, 80 37.69 S 83.5 37.69, 85 37.69 S 88.5 37.69, 90 37.69 S 93.5 37.69, 95 37.69 S 98.5 37.69, 100 37.69 S 103.5 37.69, 105 37.69 S 108.5 37.69, 110 37.69 S 113.5 37.69, 115 37.69 S 118.5 37.69, 120 37.69 S 123.5 37.69, 125 37.69 S 128.5 37.69, 130 37.69 S 133.5 37.69, 135 37.69 S 138.5 37.69, 140 37.69 S 143.5 37.69, 145 37.69 S 148.5 37.69, 150 37.69 S 153.5 37.69, 155 37.69 S 158.5 37.69, 160 37.69 S 163.5 37.69, 165 37.69 S 168.5 37.69, 170 37.69 S 173.5 37.69, 175 37.69 S 178.5 37.69, 180 37.69 S 183.5 37.69, 185 37.69 S 188.54 38.03, 190 37.69 S 194.4 36.76, 195 35.38 S 199.45 16.02, 200 14.62 S 203.9 11.02, 205 10"
          fill="none"/>
    <circle r="4" cx="5" cy="40" fill="#3023AE"/>
    <circle r="4" cx="205" cy="10" fill="#C86DD7"/>      
</svg>