<svg width="200" height="50" viewBox="0 0 210 50" xmlns="http://www.w3.org/2000/svg">
    <defs>
        <linearGradient x1="0%" y1="0%" x2="100%" y2="0%" id="a">
            <stop stop-color="#3023AE" offset="0%"/>
            <stop stop-color="#C86DD7" offset="100%"/>
        </linearGradient>
    </defs>
    <path stroke="url(#a)"
          stroke-width="3"
          stroke-linejoin="round"
          stroke-linecap="round"
          d="M5 40 C 6.5 39.94, 8.5 39.88, 10 39.8 S 14.52 40.9, 15 39.48 S 18.61 10.56, 20 10 S 24.46 34.06, 25 35.46 S 28.72 36.72, 30 35.94 S 33.78 30.22, 35 29.35 S 38.52 28.54, 40 28.81 S 43.55 30.8, 45 31.19 S 48.51 31.33, 50 31.53 S 53.52 32.3, 55 32.56 S 58.51 33.14, 60 33.31 S 63.55 34.13, 65 33.73 S 68.51 30.74, 70 30.53 S 73.54 32, 75 32.32 S 78.5 32.63, 80 32.74 S 83.52 32.83, 85 33.07 S 88.5 34.37, 90 34.39 S 93.51 33.39, 95 33.22 S 98.5 33.26, 100 33.27 S 103.5 33.36, 105 33.3 S 108.5 32.97, 110 32.9 S 113.5 32.77, 115 32.8 S 118.5 33, 120 33.11 S 123.5 33.46, 125 33.52 S 128.5 33.39, 130 33.5 S 133.5 34.22, 135 34.26 S 138.51 33.94, 140 33.78 S 143.5 33.27, 145 33.18 S 148.5 33.19, 150 33.21 S 153.5 33.25, 155 33.31 S 158.5 33.61, 160 33.64 S 163.5 33.51, 165 33.49 S 168.5 33.47, 170 33.52 S 173.5 33.74, 175 33.84 S 178.5 34.2, 180 34.16 S 183.5 33.68, 185 33.58 S 188.52 33.72, 190 33.49 S 193.52 32.28, 195 32.03 S 198.54 32.12, 200 31.78 S 203.61 30.29, 205 29.72"
          fill="none"/>
    <circle r="4" cx="5" cy="40" fill="#3023AE"/>
    <circle r="4" cx="205" cy="29.72" fill="#C86DD7"/>      
</svg>