<svg width="200" height="50" viewBox="0 0 210 50" xmlns="http://www.w3.org/2000/svg">
    <defs>
        <linearGradient x1="0%" y1="0%" x2="100%" y2="0%" id="a">
            <stop stop-color="#3023AE" offset="0%"/>
            <stop stop-color="#C86DD7" offset="100%"/>
        </linearGradient>
    </defs>
    <path stroke="url(#a)"
          stroke-width="3"
          stroke-linejoin="round"
          stroke-linecap="round"
          d="M5 40 C 6.46 39.67, 8.5 38.93, 10 38.87 S 13.5 39.51, 15 39.62 S 18.5 39.62, 20 39.62 S 23.5 39.62, 25 39.62 S 28.5 39.62, 30 39.62 S 33.5 39.62, 35 39.62 S 38.5 39.62, 40 39.62 S 43.5 39.62, 45 39.62 S 48.5 39.62, 50 39.62 S 54.52 41.04, 55 39.62 S 58.56 10.43, 60 10 S 64.52 35.2, 65 36.62 S 68.54 39.29, 70 39.62 S 73.54 39.2, 75 38.87 S 78.5 37.26, 80 37.37 S 83.54 39.29, 85 39.62 S 88.5 39.62, 90 39.62 S 93.5 39.62, 95 39.62 S 98.5 39.62, 100 39.62 S 103.5 39.62, 105 39.62 S 108.5 39.62, 110 39.62 S 113.5 39.62, 115 39.62 S 118.51 39.79, 120 39.62 S 123.5 38.5, 125 38.5 S 128.51 39.45, 130 39.62 S 133.5 39.62, 135 39.62 S 138.5 39.62, 140 39.62 S 143.5 39.62, 145 39.62 S 148.5 39.62, 150 39.62 S 153.5 39.68, 155 39.62 S 158.5 39.31, 160 39.25 S 163.5 39.25, 165 39.25 S 168.5 39.31, 170 39.25 S 173.5 38.81, 175 38.87 S 178.5 39.51, 180 39.62 S 183.5 39.62, 185 39.62 S 188.5 39.62, 190 39.62 S 193.5 39.62, 195 39.62"
          fill="none"/>
    <circle r="4" cx="5" cy="40" fill="#3023AE"/>
    <circle r="4" cx="195" cy="39.62" fill="#C86DD7"/>      
</svg>