<svg width="200" height="50" viewBox="0 0 210 50" xmlns="http://www.w3.org/2000/svg">
    <defs>
        <linearGradient x1="0%" y1="0%" x2="100%" y2="0%" id="a">
            <stop stop-color="#3023AE" offset="0%"/>
            <stop stop-color="#C86DD7" offset="100%"/>
        </linearGradient>
    </defs>
    <path stroke="url(#a)"
          stroke-width="3"
          stroke-linejoin="round"
          stroke-linecap="round"
          d="M5 40 C 6.01 38.89, 8.5 34.51, 10 34.47 S 13.67 39.04, 15 39.74 S 18.5 39.74, 20 39.74 S 23.62 40.32, 25 39.74 S 28.5 35.65, 30 35.53 S 33.62 38.37, 35 38.95 S 38.5 39.62, 40 39.74 S 43.5 39.78, 45 39.74 S 49.52 40.89, 50 39.47 S 53.53 10.31, 55 10 S 59.51 35.95, 60 37.37 S 63.51 38.49, 65 38.68 S 68.5 38.56, 70 38.68 S 73.51 39.31, 75 39.47 S 78.5 39.7, 80 39.74 S 83.5 39.82, 85 39.74 S 88.53 39.52, 90 39.21 S 93.57 38.08, 95 37.63 S 98.53 36.36, 100 36.05 S 103.5 35.49, 105 35.53 S 108.52 36.05, 110 36.32 S 113.52 37.1, 115 37.37 S 118.52 38.39, 120 38.16 S 123.5 35.87, 125 35.79 S 128.52 37.4, 130 37.63 S 133.5 37.45, 135 37.37 S 138.5 37.23, 140 37.11 S 143.51 36.42, 145 36.58 S 148.52 37.93, 150 38.16 S 153.5 38.04, 155 38.16 S 158.51 39.15, 160 38.95 S 163.51 37, 165 36.84 S 168.5 37.77, 170 37.89 S 173.5 37.59, 175 37.63 S 178.5 38.16, 180 38.16 S 183.5 37.55, 185 37.63 S 188.5 38.76, 190 38.68 S 193.5 37.15, 195 37.11 S 198.51 38.23, 200 38.42 S 203.5 38.42, 205 38.42"
          fill="none"/>
    <circle r="4" cx="5" cy="40" fill="#3023AE"/>
    <circle r="4" cx="205" cy="38.42" fill="#C86DD7"/>      
</svg>