<svg width="200" height="50" viewBox="0 0 210 50" xmlns="http://www.w3.org/2000/svg">
    <defs>
        <linearGradient x1="0%" y1="0%" x2="100%" y2="0%" id="a">
            <stop stop-color="#3023AE" offset="0%"/>
            <stop stop-color="#C86DD7" offset="100%"/>
        </linearGradient>
    </defs>
    <path stroke="url(#a)"
          stroke-width="3"
          stroke-linejoin="round"
          stroke-linecap="round"
          d="M5 40 C 5.29 38.53, 8.54 14.96, 10 14.62 S 14.4 36.31, 15 37.69 S 18.5 37.69, 20 37.69 S 23.64 38.32, 25 37.69 S 28.54 33.42, 30 33.08 S 33.9 36.4, 35 35.38 S 38.77 24.7, 40 23.85 S 43.64 27.83, 45 28.46 S 48.54 28.8, 50 28.46 S 53.5 26.15, 55 26.15 S 58.64 27.83, 60 28.46 S 63.64 30.14, 65 30.77 S 68.5 33.08, 70 33.08 S 74.29 32.09, 75 30.77 S 78.64 13.99, 80 14.62 S 84.35 34.03, 85 35.38 S 88.64 36.01, 90 35.38 S 93.64 31.4, 95 30.77 S 98.77 31.62, 100 30.77 S 103.54 24.19, 105 23.85 S 108.64 29.09, 110 28.46 S 113.5 19.23, 115 19.23 S 119.02 27.33, 120 28.46 S 123.64 30.14, 125 30.77 S 129.02 34.21, 130 33.08 S 133.5 19.23, 135 19.23 S 138.9 32.06, 140 33.08 S 143.5 28.46, 145 28.46 S 148.54 33.42, 150 33.08 S 153.9 27.17, 155 26.15 S 158.9 22.83, 160 23.85 S 163.9 34.36, 165 35.38 S 168.64 33.71, 170 33.08 S 174.12 31.99, 175 30.77 S 178.77 20.08, 180 19.23 S 184.02 22.72, 185 23.85 S 189.12 31.99, 190 30.77 S 193.54 9.66, 195 10 S 199.12 31.86, 200 33.08 S 204.29 25.17, 205 23.85"
          fill="none"/>
    <circle r="4" cx="5" cy="40" fill="#3023AE"/>
    <circle r="4" cx="205" cy="23.85" fill="#C86DD7"/>      
</svg>