<svg width="200" height="50" viewBox="0 0 210 50" xmlns="http://www.w3.org/2000/svg">
    <defs>
        <linearGradient x1="0%" y1="0%" x2="100%" y2="0%" id="a">
            <stop stop-color="#3023AE" offset="0%"/>
            <stop stop-color="#C86DD7" offset="100%"/>
        </linearGradient>
    </defs>
    <path stroke="url(#a)"
          stroke-width="3"
          stroke-linejoin="round"
          stroke-linecap="round"
          d="M5 40 C 6.46 39.67, 8.51 39.06, 10 38.89 S 13.5 38.89, 15 38.89 S 18.5 38.89, 20 38.89 S 23.5 38.89, 25 38.89 S 28.5 38.89, 30 38.89 S 33.5 38.89, 35 38.89 S 38.5 38.89, 40 38.89 S 43.5 38.89, 45 38.89 S 48.5 38.89, 50 38.89 S 53.5 38.89, 55 38.89 S 58.5 38.89, 60 38.89 S 63.5 38.89, 65 38.89 S 68.5 38.89, 70 38.89 S 73.5 38.89, 75 38.89 S 78.5 38.89, 80 38.89 S 83.5 38.89, 85 38.89 S 88.5 38.89, 90 38.89 S 93.5 38.89, 95 38.89 S 98.5 38.89, 100 38.89 S 103.5 38.89, 105 38.89 S 108.5 38.89, 110 38.89 S 114.51 40.31, 115 38.89 S 118.58 10.47, 120 10 S 124.43 34.17, 125 35.56 S 128.58 33.97, 130 34.44 S 133.63 38.28, 135 38.89 S 138.5 38.89, 140 38.89 S 143.5 38.89, 145 38.89 S 148.5 38.89, 150 38.89 S 153.5 38.89, 155 38.89 S 158.5 38.89, 160 38.89 S 163.5 38.89, 165 38.89 S 168.5 38.89, 170 38.89 S 173.5 38.89, 175 38.89 S 178.5 38.89, 180 38.89 S 183.51 39.06, 185 38.89 S 188.54 38.11, 190 37.78 S 193.51 36.5, 195 36.67 S 198.63 38.28, 200 38.89"
          fill="none"/>
    <circle r="4" cx="5" cy="40" fill="#3023AE"/>
    <circle r="4" cx="200" cy="38.89" fill="#C86DD7"/>      
</svg>