<svg width="200" height="50" viewBox="0 0 210 50" xmlns="http://www.w3.org/2000/svg">
    <defs>
        <linearGradient x1="0%" y1="0%" x2="100%" y2="0%" id="a">
            <stop stop-color="#3023AE" offset="0%"/>
            <stop stop-color="#C86DD7" offset="100%"/>
        </linearGradient>
    </defs>
    <path stroke="url(#a)"
          stroke-width="3"
          stroke-linejoin="round"
          stroke-linecap="round"
          d="M5 40 C 6.06 38.93, 8.68 35.66, 10 34.95 S 13.51 34.49, 15 34.63 S 18.5 35.94, 20 35.89 S 23.51 34.51, 25 34.32 S 28.5 34.63, 30 34.63 S 33.5 34.23, 35 34.32 S 38.52 35.03, 40 35.26 S 43.58 36.38, 45 35.89 S 48.6 32.32, 50 31.79 S 53.51 31.92, 55 32.11 S 58.5 32.96, 60 33.05 S 63.57 33.19, 65 32.74 S 68.75 30.72, 70 29.89 S 73.51 25.92, 75 26.11 S 78.61 30.59, 80 31.16 S 83.56 30.62, 85 30.21 S 88.51 28.51, 90 28.32 S 93.64 29.59, 95 28.95 S 98.5 23.63, 100 23.58 S 103.53 28.35, 105 28.63 S 108.52 25.7, 110 25.47 S 113.56 26.64, 115 27.05 S 118.55 27.95, 120 28.32 S 123.56 29.99, 125 29.58 S 128.93 26.52, 130 25.47 S 133.5 19.88, 135 19.79 S 138.6 24.31, 140 24.84 S 143.57 24.03, 145 23.58 S 148.5 21.63, 150 21.68 S 153.54 24.21, 155 23.89 S 158.64 20.11, 160 19.47 S 163.51 19.02, 165 19.16 S 168.56 20.83, 170 20.42 S 173.73 17.12, 175 16.32 S 178.63 13.5, 180 14.11 S 183.66 20.06, 185 20.74 S 188.79 20.04, 190 19.16 S 193.89 14.48, 195 13.47 S 198.51 10.19, 200 10 S 203.63 11.6, 205 12.21"
          fill="none"/>
    <circle r="4" cx="5" cy="40" fill="#3023AE"/>
    <circle r="4" cx="205" cy="12.21" fill="#C86DD7"/>      
</svg>