<svg width="200" height="50" viewBox="0 0 210 50" xmlns="http://www.w3.org/2000/svg">
    <defs>
        <linearGradient x1="0%" y1="0%" x2="100%" y2="0%" id="a">
            <stop stop-color="#3023AE" offset="0%"/>
            <stop stop-color="#C86DD7" offset="100%"/>
        </linearGradient>
    </defs>
    <path stroke="url(#a)"
          stroke-width="3"
          stroke-linejoin="round"
          stroke-linecap="round"
          d="M5 40 C 6.5 39.95, 8.5 39.96, 10 39.84 S 13.55 39.6, 15 39.21 S 18.63 37.75, 20 37.14 S 23.53 35.06, 25 34.76 S 29.25 36.38, 30 35.08 S 34.38 18.83, 35 17.46 S 38.95 11.79, 40 12.86 S 43.65 26.96, 45 27.62 S 48.69 17.05, 50 17.78 S 54.24 31.88, 55 33.17 S 58.55 34.37, 60 34.76 S 63.55 36.26, 65 35.87 S 68.7 32.8, 70 32.06 S 73.53 30.44, 75 30.16 S 78.5 30.28, 80 30.16 S 83.66 30.05, 85 29.37 S 89.3 26.41, 90 25.08 S 93.51 10.13, 95 10.32 S 98.5 26.4, 100 26.35 S 103.5 9.91, 105 10 S 109.37 25.62, 110 26.98 S 113.66 30.91, 115 31.59 S 118.5 32.01, 120 32.06 S 123.52 32.13, 125 31.9 S 128.5 30.36, 130 30.48 S 133.5 32.65, 135 32.7 S 138.51 30.96, 140 30.79 S 143.52 31.38, 145 31.59 S 148.52 32.48, 150 32.22 S 153.54 30.19, 155 29.84 S 158.5 29.74, 160 29.84 S 163.61 31.03, 165 30.48 S 169.14 27.1, 170 25.87 S 174.05 17.35, 175 16.19 S 178.92 12.61, 180 13.65 S 184.35 24.52, 185 25.87 S 188.75 33.77, 190 34.6 S 193.68 33.25, 195 32.54 S 198.71 29.97, 200 29.21 S 203.66 27.35, 205 26.67"
          fill="none"/>
    <circle r="4" cx="5" cy="40" fill="#3023AE"/>
    <circle r="4" cx="205" cy="26.67" fill="#C86DD7"/>      
</svg>