<svg width="200" height="50" viewBox="0 0 210 50" xmlns="http://www.w3.org/2000/svg">
    <defs>
        <linearGradient x1="0%" y1="0%" x2="100%" y2="0%" id="a">
            <stop stop-color="#3023AE" offset="0%"/>
            <stop stop-color="#C86DD7" offset="100%"/>
        </linearGradient>
    </defs>
    <path stroke="url(#a)"
          stroke-width="3"
          stroke-linejoin="round"
          stroke-linecap="round"
          d="M5 40 C 6.06 38.94, 8.66 35.67, 10 35 S 13.5 35, 15 35 S 18.5 35, 20 35 S 23.5 35, 25 35 S 28.5 35, 30 35 S 33.5 35, 35 35 S 38.5 35, 40 35 S 43.5 35, 45 35 S 48.5 35, 50 35 S 53.5 35, 55 35 S 58.5 35, 60 35 S 63.5 35, 65 35 S 69.33 36.34, 70 35 S 73.5 15, 75 15 S 79.33 33.66, 80 35 S 83.5 35, 85 35 S 89.44 36.39, 90 35 S 93.5 10, 95 10 S 99.44 33.61, 100 35 S 103.5 35, 105 35 S 108.5 35, 110 35 S 113.5 35, 115 35 S 118.5 35, 120 35 S 123.5 35, 125 35 S 128.66 35.67, 130 35 S 134.17 31.25, 135 30 S 138.66 19.33, 140 20 S 144.17 33.75, 145 35 S 148.5 35, 150 35 S 153.5 35, 155 35 S 158.5 35, 160 35 S 163.5 35, 165 35 S 168.5 35, 170 35 S 173.5 35, 175 35 S 178.5 35, 180 35 S 183.5 35, 185 35 S 188.66 35.67, 190 35 S 193.5 30, 195 30 S 198.5 35, 200 35 S 203.94 31.06, 205 30"
          fill="none"/>
    <circle r="4" cx="5" cy="40" fill="#3023AE"/>
    <circle r="4" cx="205" cy="30" fill="#C86DD7"/>      
</svg>