<svg width="200" height="50" viewBox="0 0 210 50" xmlns="http://www.w3.org/2000/svg">
    <defs>
        <linearGradient x1="0%" y1="0%" x2="100%" y2="0%" id="a">
            <stop stop-color="#3023AE" offset="0%"/>
            <stop stop-color="#C86DD7" offset="100%"/>
        </linearGradient>
    </defs>
    <path stroke="url(#a)"
          stroke-width="3"
          stroke-linejoin="round"
          stroke-linecap="round"
          d="M5 40 C 6.5 39.93, 8.5 39.88, 10 39.78 S 13.5 39.35, 15 39.35 S 18.5 39.72, 20 39.78 S 23.5 39.78, 25 39.78 S 28.5 39.78, 30 39.78 S 33.5 39.78, 35 39.78 S 38.5 39.78, 40 39.78 S 43.5 39.78, 45 39.78 S 48.5 39.78, 50 39.78 S 53.5 39.78, 55 39.78 S 59.21 41.05, 60 39.78 S 64.49 25.11, 65 23.7 S 68.93 13.44, 70 12.39 S 74.44 12.52, 75 13.91 S 79.38 35.8, 80 37.17 S 84.48 37.5, 85 36.09 S 88.57 10.44, 90 10 S 94.43 31.65, 95 33.04 S 98.61 34, 100 34.57 S 103.6 36.62, 105 37.17 S 108.53 38.77, 110 38.48 S 113.51 35.35, 115 35.22 S 118.61 38.18, 120 37.61 S 124.08 32.27, 125 31.09 S 128.62 24.18, 130 24.78 S 134.03 34.29, 135 35.43 S 138.51 36.36, 140 36.52 S 143.5 36.45, 145 36.52 S 148.51 36.77, 150 36.96 S 153.58 38.32, 155 37.83 S 158.53 33.77, 160 33.48 S 163.59 35.35, 165 35.87 S 168.51 37.3, 170 37.17 S 173.53 35.29, 175 35 S 178.5 35.22, 180 35.22 S 183.57 34.54, 185 35 S 188.56 38.07, 190 38.48 S 193.61 38.4, 195 37.83 S 198.53 34.67, 200 34.35 S 203.55 35.27, 205 35.65"
          fill="none"/>
    <circle r="4" cx="5" cy="40" fill="#3023AE"/>
    <circle r="4" cx="205" cy="35.65" fill="#C86DD7"/>      
</svg>