<svg width="200" height="50" viewBox="0 0 210 50" xmlns="http://www.w3.org/2000/svg">
    <defs>
        <linearGradient x1="0%" y1="0%" x2="100%" y2="0%" id="a">
            <stop stop-color="#3023AE" offset="0%"/>
            <stop stop-color="#C86DD7" offset="100%"/>
        </linearGradient>
    </defs>
    <path stroke="url(#a)"
          stroke-width="3"
          stroke-linejoin="round"
          stroke-linecap="round"
          d="M5 40 C 6.5 39.94, 8.5 39.8, 10 39.79 S 13.5 39.88, 15 39.9 S 18.5 39.99, 20 39.9 S 23.58 39.76, 25 39.27 S 28.57 36.9, 30 36.45 S 33.51 35.99, 35 36.13 S 38.58 36.9, 40 37.39 S 43.53 39.29, 45 39.58 S 48.5 39.32, 50 39.37 S 53.5 39.82, 55 39.9 S 58.5 39.9, 60 39.9 S 63.5 39.9, 65 39.9 S 68.5 39.9, 70 39.9 S 73.5 39.92, 75 39.9 S 78.5 39.79, 80 39.79 S 83.5 39.9, 85 39.9 S 88.5 39.84, 90 39.79 S 93.5 39.63, 95 39.58 S 98.5 39.46, 100 39.48 S 103.5 39.77, 105 39.69 S 108.5 38.98, 110 38.95 S 113.51 39.35, 115 39.48 S 118.5 39.74, 120 39.79 S 123.5 39.82, 125 39.79 S 128.5 39.58, 130 39.58 S 133.5 39.8, 135 39.79 S 138.5 39.49, 140 39.48 S 143.5 39.64, 145 39.69 S 148.5 39.76, 150 39.79 S 153.5 39.88, 155 39.9 S 158.5 39.93, 160 39.9 S 163.5 39.72, 165 39.69 S 168.9 40.71, 170 39.69 S 174.52 31.8, 175 30.38 S 178.75 9.17, 180 10 S 184.49 35.56, 185 36.97 S 188.52 37.44, 190 37.7 S 193.53 38.46, 195 38.75 S 198.5 39.68, 200 39.69 S 203.52 39.1, 205 38.85"
          fill="none"/>
    <circle r="4" cx="5" cy="40" fill="#3023AE"/>
    <circle r="4" cx="205" cy="38.85" fill="#C86DD7"/>      
</svg>