<svg width="200" height="50" viewBox="0 0 210 50" xmlns="http://www.w3.org/2000/svg">
    <defs>
        <linearGradient x1="0%" y1="0%" x2="100%" y2="0%" id="a">
            <stop stop-color="#3023AE" offset="0%"/>
            <stop stop-color="#C86DD7" offset="100%"/>
        </linearGradient>
    </defs>
    <path stroke="url(#a)"
          stroke-width="3"
          stroke-linejoin="round"
          stroke-linecap="round"
          d="M5 40 C 6.1 38.98, 8.51 35.53, 10 35.34 S 13.6 38.19, 15 38.74 S 18.56 39.67, 20 39.24 S 23.55 36.09, 25 35.72 S 28.5 36.62, 30 36.66 S 33.5 36.04, 35 35.96 S 38.52 36.34, 40 36.1 S 43.5 34.41, 45 34.35 S 48.57 36.18, 50 35.72 S 53.51 31.3, 55 31.12 S 58.54 34.16, 60 34.51 S 63.56 33.94, 65 33.52 S 68.63 32.22, 70 31.61 S 73.51 29.16, 75 29.04 S 78.52 30.54, 80 30.78 S 83.55 31.04, 85 30.67 S 88.54 28.58, 90 28.23 S 93.5 28.16, 95 28.27 S 98.61 29.55, 100 28.99 S 104.05 25.38, 105 24.22 S 108.51 16.68, 110 16.84 S 113.89 24.26, 115 25.27 S 118.52 26.15, 120 25.92 S 123.5 23.7, 125 23.7 S 128.53 25.62, 130 25.9 S 133.51 25.82, 135 25.63 S 139.19 25.9, 140 24.64 S 143.5 10.01, 145 10 S 149.01 23.48, 150 24.6 S 153.93 22.37, 155 21.32 S 158.6 15.28, 160 14.75 S 163.58 17.05, 165 17.53 S 168.51 17.94, 170 18.09 S 173.54 18.21, 175 18.54 S 178.51 20.5, 180 20.34 S 183.7 18.22, 185 17.47 S 188.56 14.99, 190 14.57 S 193.58 15.06, 195 14.57 S 198.55 11.47, 200 11.1 S 203.53 11.76, 205 12.04"
          fill="none"/>
    <circle r="4" cx="5" cy="40" fill="#3023AE"/>
    <circle r="4" cx="205" cy="12.04" fill="#C86DD7"/>      
</svg>