<svg width="200" height="50" viewBox="0 0 210 50" xmlns="http://www.w3.org/2000/svg">
    <defs>
        <linearGradient x1="0%" y1="0%" x2="100%" y2="0%" id="a">
            <stop stop-color="#3023AE" offset="0%"/>
            <stop stop-color="#C86DD7" offset="100%"/>
        </linearGradient>
    </defs>
    <path stroke="url(#a)"
          stroke-width="3"
          stroke-linejoin="round"
          stroke-linecap="round"
          d="M5 40 C 5.31 38.53, 8.51 16.58, 10 16.44 S 14.39 37.7, 15 39.07 S 18.51 39.13, 20 38.96 S 23.55 38.31, 25 37.92 S 28.59 36.77, 30 36.26 S 33.53 33.98, 35 34.29 S 38.6 37.81, 40 38.34 S 43.5 38.06, 45 38.03 S 48.5 38.16, 50 38.13 S 53.55 38.21, 55 37.82 S 58.88 36.42, 60 35.43 S 63.57 29.45, 65 29 S 68.85 31.36, 70 32.32 S 73.61 36.74, 75 37.3 S 78.5 36.46, 80 36.37 S 83.5 36.62, 85 36.68 S 88.51 36.66, 90 36.78 S 93.51 37.39, 95 37.51 S 98.5 37.6, 100 37.61 S 103.51 37.78, 105 37.61 S 108.51 36.65, 110 36.47 S 113.5 36.37, 115 36.37 S 118.5 36.44, 120 36.47 S 123.52 36.79, 125 36.57 S 128.53 35.29, 130 35.02 S 133.5 34.6, 135 34.71 S 138.58 35.25, 140 35.74 S 143.5 38.07, 145 38.13 S 149.5 37.57, 150 36.16 S 153.56 10.4, 155 10 S 159.45 31.97, 160 33.36 S 163.57 34.66, 165 35.12 S 168.5 36.48, 170 36.57 S 173.56 36.14, 175 35.74 S 178.51 33.97, 180 33.77 S 183.53 34.11, 185 34.39 S 188.51 35.48, 190 35.64 S 193.55 35.82, 195 35.43 S 198.56 33.36, 200 32.94 S 203.51 32.65, 205 32.53"
          fill="none"/>
    <circle r="4" cx="5" cy="40" fill="#3023AE"/>
    <circle r="4" cx="205" cy="32.53" fill="#C86DD7"/>      
</svg>