<svg width="200" height="50" viewBox="0 0 210 50" xmlns="http://www.w3.org/2000/svg">
    <defs>
        <linearGradient x1="0%" y1="0%" x2="100%" y2="0%" id="a">
            <stop stop-color="#3023AE" offset="0%"/>
            <stop stop-color="#C86DD7" offset="100%"/>
        </linearGradient>
    </defs>
    <path stroke="url(#a)"
          stroke-width="3"
          stroke-linejoin="round"
          stroke-linecap="round"
          d="M5 40 C 6.15 39.03, 9.53 37.2, 10 35.78 S 13.51 9.8, 15 10 S 19.5 35.69, 20 37.11 S 23.5 38.38, 25 38.43 S 28.5 37.51, 30 37.47 S 33.53 37.87, 35 38.19 S 38.52 39.41, 40 39.64 S 43.5 39.78, 45 39.76 S 48.51 39.68, 50 39.52 S 53.61 39.22, 55 38.67 S 58.54 35.87, 60 35.54 S 63.5 36.5, 65 36.39 S 68.51 34.98, 70 34.82 S 73.55 34.93, 75 35.3 S 78.51 37.15, 80 37.35 S 83.52 36.88, 85 36.63 S 88.5 35.7, 90 35.66 S 93.51 36.26, 95 36.39 S 98.5 36.55, 100 36.51 S 103.5 36.07, 105 36.14 S 108.51 36.86, 110 36.99 S 113.51 37.12, 115 36.99 S 118.5 36.25, 120 36.14 S 123.5 36.21, 125 36.27 S 128.5 36.6, 130 36.51 S 133.62 36.24, 135 35.66 S 138.61 32.84, 140 32.29 S 143.51 31.55, 145 31.69 S 148.54 32.9, 150 33.25 S 153.5 34.06, 155 34.1 S 158.53 33.79, 160 33.49 S 163.5 31.99, 165 32.05 S 168.51 33.99, 170 33.86 S 173.5 31.24, 175 31.2 S 178.5 33.55, 180 33.61 S 183.5 31.55, 185 31.57 S 188.55 33.36, 190 33.73 S 193.5 34.14, 195 34.1 S 198.53 33.77, 200 33.49 S 203.55 32.55, 205 32.17"
          fill="none"/>
    <circle r="4" cx="5" cy="40" fill="#3023AE"/>
    <circle r="4" cx="205" cy="32.17" fill="#C86DD7"/>      
</svg>