<svg width="200" height="50" viewBox="0 0 210 50" xmlns="http://www.w3.org/2000/svg">
    <defs>
        <linearGradient x1="0%" y1="0%" x2="100%" y2="0%" id="a">
            <stop stop-color="#3023AE" offset="0%"/>
            <stop stop-color="#C86DD7" offset="100%"/>
        </linearGradient>
    </defs>
    <path stroke="url(#a)"
          stroke-width="3"
          stroke-linejoin="round"
          stroke-linecap="round"
          d="M5 40 C 5.36 38.54, 8.52 20.06, 10 19.84 S 14.32 37.18, 15 38.52 S 18.51 39.36, 20 39.51 S 23.51 39.66, 25 39.51 S 28.53 38.81, 30 38.52 S 33.6 38.09, 35 37.54 S 38.5 34.59, 40 34.59 S 43.51 37.69, 45 37.54 S 48.56 34.03, 50 33.61 S 53.63 33.98, 55 34.59 S 58.58 37.54, 60 38.03 S 63.54 38.39, 65 38.03 S 68.51 35.72, 70 35.57 S 73.52 36.83, 75 37.05 S 78.58 37.54, 80 37.05 S 83.6 34.16, 85 33.61 S 89.05 34.27, 90 33.11 S 93.74 22.12, 95 21.31 S 98.54 26.36, 100 26.72 S 103.76 24.62, 105 23.77 S 108.68 19.13, 110 19.84 S 114.05 28.02, 115 29.18 S 118.76 32.98, 120 32.13 S 123.5 22.37, 125 22.3 S 128.68 32.35, 130 31.64 S 133.6 16.34, 135 16.89 S 139.1 34.37, 140 35.57 S 143.53 30.45, 145 30.16 S 148.65 34.27, 150 33.61 S 153.96 26.33, 155 25.25 S 158.74 22.47, 160 23.28 S 163.54 32, 165 31.64 S 169.12 22.03, 170 20.82 S 173.79 16.98, 175 17.87 S 178.93 27.15, 180 28.2 S 183.76 28.55, 185 27.7 S 188.71 22.07, 190 21.31 S 193.71 22.56, 195 21.8 S 199.03 16.55, 200 15.41 S 203.98 11.1, 205 10"
          fill="none"/>
    <circle r="4" cx="5" cy="40" fill="#3023AE"/>
    <circle r="4" cx="205" cy="10" fill="#C86DD7"/>      
</svg>