<svg width="200" height="50" viewBox="0 0 210 50" xmlns="http://www.w3.org/2000/svg">
    <defs>
        <linearGradient x1="0%" y1="0%" x2="100%" y2="0%" id="a">
            <stop stop-color="#3023AE" offset="0%"/>
            <stop stop-color="#C86DD7" offset="100%"/>
        </linearGradient>
    </defs>
    <path stroke="url(#a)"
          stroke-width="3"
          stroke-linejoin="round"
          stroke-linecap="round"
          d="M5 40 C 5.45 38.57, 8.5 24.09, 10 24.03 S 14.18 38.36, 15 39.61 S 18.5 39.22, 20 39.22 S 23.53 39.9, 25 39.61 S 28.6 37.82, 30 37.27 S 33.5 35.83, 35 35.71 S 38.55 36.88, 40 36.49 S 43.52 32.76, 45 32.99 S 48.64 37.42, 50 38.05 S 53.54 38, 55 37.66 S 58.5 35.65, 60 35.71 S 63.52 38.28, 65 38.05 S 68.66 34.84, 70 34.16 S 74.01 34.11, 75 32.99 S 78.75 23.69, 80 22.86 S 83.58 26.86, 85 26.36 S 88.62 18.76, 90 19.35 S 93.9 29.63, 95 30.65 S 98.55 29.1, 100 28.7 S 103.82 28.84, 105 27.92 S 108.73 20.12, 110 20.91 S 113.95 33.09, 115 34.16 S 118.58 31.54, 120 31.04 S 123.77 31.51, 125 30.65 S 128.5 23.97, 130 24.03 S 133.53 31.33, 135 31.04 S 138.88 23.08, 140 22.08 S 143.7 21.32, 145 22.08 S 148.6 27.38, 150 27.92 S 153.6 26.51, 155 25.97 S 158.93 25.08, 160 24.03 S 163.9 17.25, 165 16.23 S 168.66 14, 170 14.68 S 173.99 20.19, 175 21.3 S 178.6 26.13, 180 25.58 S 183.84 18.35, 185 17.4 S 188.79 18.29, 190 17.4 S 193.54 10.34, 195 10 S 199.06 13.89, 200 15.06 S 204.16 21.23, 205 22.47"
          fill="none"/>
    <circle r="4" cx="5" cy="40" fill="#3023AE"/>
    <circle r="4" cx="205" cy="22.47" fill="#C86DD7"/>      
</svg>