<svg width="200" height="50" viewBox="0 0 210 50" xmlns="http://www.w3.org/2000/svg">
    <defs>
        <linearGradient x1="0%" y1="0%" x2="100%" y2="0%" id="a">
            <stop stop-color="#3023AE" offset="0%"/>
            <stop stop-color="#C86DD7" offset="100%"/>
        </linearGradient>
    </defs>
    <path stroke="url(#a)"
          stroke-width="3"
          stroke-linejoin="round"
          stroke-linecap="round"
          d="M5 40 C 6.38 39.41, 8.5 37.97, 10 37.86 S 13.52 39.08, 15 39.29 S 18.5 39.29, 20 39.29 S 23.5 39.29, 25 39.29 S 28.5 39.4, 30 39.29 S 33.53 38.89, 35 38.57 S 38.53 37.45, 40 37.14 S 43.5 36.54, 45 36.43 S 48.56 36.02, 50 36.43 S 53.5 39.4, 55 39.29 S 58.62 36.3, 60 35.71 S 63.5 35, 65 35 S 68.62 36.3, 70 35.71 S 73.66 31.38, 75 30.71 S 78.5 30.6, 80 30.71 S 83.5 31.32, 85 31.43 S 88.59 31.93, 90 31.43 S 93.5 27.86, 95 27.86 S 98.53 31.75, 100 31.43 S 103.56 25.3, 105 25.71 S 108.78 33.42, 110 34.29 S 113.56 33.27, 115 32.86 S 118.5 31.43, 120 31.43 S 123.62 33.45, 125 32.86 S 128.52 27.35, 130 27.14 S 133.56 31.02, 135 31.43 S 138.53 30.31, 140 30 S 143.5 29.29, 145 29.29 S 149.31 31.33, 150 30 S 153.5 10, 155 10 S 159.38 28.63, 160 30 S 163.5 32.25, 165 32.14 S 168.56 28.88, 170 29.29 S 173.7 34.26, 175 35 S 178.5 34.89, 180 35 S 183.5 35.6, 185 35.71 S 188.53 35.39, 190 35.71 S 193.5 37.75, 195 37.86 S 198.59 36.93, 200 36.43 S 203.62 34.88, 205 34.29"
          fill="none"/>
    <circle r="4" cx="5" cy="40" fill="#3023AE"/>
    <circle r="4" cx="205" cy="34.29" fill="#C86DD7"/>      
</svg>