<svg width="200" height="50" viewBox="0 0 210 50" xmlns="http://www.w3.org/2000/svg">
    <defs>
        <linearGradient x1="0%" y1="0%" x2="100%" y2="0%" id="a">
            <stop stop-color="#3023AE" offset="0%"/>
            <stop stop-color="#C86DD7" offset="100%"/>
        </linearGradient>
    </defs>
    <path stroke="url(#a)"
          stroke-width="3"
          stroke-linejoin="round"
          stroke-linecap="round"
          d="M5 40 C 6.5 39.99, 8.5 39.97, 10 39.96 S 13.5 39.97, 15 39.96 S 18.5 39.92, 20 39.92 S 23.5 39.96, 25 39.96 S 28.5 39.92, 30 39.92 S 33.5 39.97, 35 39.96 S 38.5 39.9, 40 39.88 S 43.5 39.83, 45 39.81 S 48.5 39.75, 50 39.77 S 53.5 39.94, 55 39.96 S 58.5 39.95, 60 39.92 S 63.5 39.78, 65 39.77 S 68.5 39.88, 70 39.88 S 73.5 39.78, 75 39.77 S 78.5 39.89, 80 39.84 S 83.5 39.42, 85 39.42 S 88.5 39.8, 90 39.84 S 94.52 41.11, 95 39.69 S 98.52 10.26, 100 10 S 104.51 36.52, 105 37.94 S 108.51 38.59, 110 38.75 S 113.5 38.93, 115 39.03 S 118.5 39.44, 120 39.42 S 123.51 39.05, 125 38.91 S 128.5 38.59, 130 38.48 S 133.51 38.05, 135 38.17 S 138.51 39.16, 140 39.3 S 143.5 39.09, 145 39.1 S 148.5 39.36, 150 39.38 S 153.5 39.25, 155 39.26 S 158.5 39.44, 160 39.45 S 163.5 39.31, 165 39.34 S 168.5 39.71, 170 39.65 S 173.5 38.98, 175 38.95 S 178.5 39.38, 180 39.42 S 183.5 39.23, 185 39.22 S 188.5 39.29, 190 39.34 S 193.5 39.52, 195 39.53 S 198.5 39.38, 200 39.42 S 203.5 39.69, 205 39.81"
          fill="none"/>
    <circle r="4" cx="5" cy="40" fill="#3023AE"/>
    <circle r="4" cx="205" cy="39.81" fill="#C86DD7"/>      
</svg>