<svg width="200" height="50" viewBox="0 0 210 50" xmlns="http://www.w3.org/2000/svg">
    <defs>
        <linearGradient x1="0%" y1="0%" x2="100%" y2="0%" id="a">
            <stop stop-color="#3023AE" offset="0%"/>
            <stop stop-color="#C86DD7" offset="100%"/>
        </linearGradient>
    </defs>
    <path stroke="url(#a)"
          stroke-width="3"
          stroke-linejoin="round"
          stroke-linecap="round"
          d="M5 40 C 6.49 39.88, 8.5 39.71, 10 39.59 S 13.5 39.19, 15 39.19 S 18.5 39.53, 20 39.59 S 23.5 39.65, 25 39.59 S 28.5 39.31, 30 39.19 S 33.5 38.84, 35 38.78 S 38.5 38.66, 40 38.78 S 43.5 39.47, 45 39.59 S 48.5 39.59, 50 39.59 S 53.5 39.59, 55 39.59 S 58.5 39.59, 60 39.59 S 63.5 39.59, 65 39.59 S 68.5 39.65, 70 39.59 S 73.5 39.31, 75 39.19 S 79.29 40.1, 80 38.78 S 84.18 21.8, 85 20.54 S 88.9 24.4, 90 23.38 S 93.79 12.1, 95 11.22 S 98.51 16.26, 100 16.08 S 104.28 8.68, 105 10 S 109.45 32.92, 110 34.32 S 113.67 34.84, 115 35.54 S 118.61 39.03, 120 39.59 S 123.5 39.71, 125 39.59 S 128.7 39.52, 130 38.78 S 133.5 34.04, 135 33.92 S 138.51 37.79, 140 37.97 S 143.51 35.32, 145 35.14 S 148.53 36.46, 150 36.76 S 153.56 37.57, 155 37.16 S 158.5 33.92, 160 33.92 S 163.53 36.86, 165 37.16 S 168.54 36.3, 170 35.95 S 173.5 34.85, 175 34.73 S 178.5 35.02, 180 35.14 S 183.5 35.6, 185 35.54 S 188.53 34.43, 190 34.73 S 193.56 37.16, 195 37.57 S 198.51 37.75, 200 37.57 S 203.54 36.71, 205 36.35"
          fill="none"/>
    <circle r="4" cx="5" cy="40" fill="#3023AE"/>
    <circle r="4" cx="205" cy="36.35" fill="#C86DD7"/>      
</svg>