<svg width="200" height="50" viewBox="0 0 210 50" xmlns="http://www.w3.org/2000/svg">
    <defs>
        <linearGradient x1="0%" y1="0%" x2="100%" y2="0%" id="a">
            <stop stop-color="#3023AE" offset="0%"/>
            <stop stop-color="#C86DD7" offset="100%"/>
        </linearGradient>
    </defs>
    <path stroke="url(#a)"
          stroke-width="3"
          stroke-linejoin="round"
          stroke-linecap="round"
          d="M5 40 C 5.47 38.58, 9.53 26.42, 10 25 S 14.01 8.87, 15 10 S 19.51 35.05, 20 36.47 S 23.57 38.24, 25 38.68 S 28.5 39.56, 30 39.56 S 33.51 38.88, 35 38.68 S 38.5 38.17, 40 38.24 S 43.51 38.92, 45 39.12 S 48.51 39.69, 50 39.56 S 53.5 38.24, 55 38.24 S 58.51 39.36, 60 39.56 S 63.5 39.56, 65 39.56 S 68.5 39.56, 70 39.56 S 73.5 39.56, 75 39.56 S 78.5 39.56, 80 39.56 S 83.5 39.63, 85 39.56 S 88.5 39.12, 90 39.12 S 93.5 39.56, 95 39.56 S 98.5 39.12, 100 39.12 S 103.5 39.49, 105 39.56 S 108.5 39.56, 110 39.56 S 113.5 39.56, 115 39.56 S 118.51 39.76, 120 39.56 S 123.5 38.31, 125 38.24 S 128.51 38.99, 130 39.12 S 133.5 39.19, 135 39.12 S 138.5 38.61, 140 38.68 S 143.51 39.43, 145 39.56 S 148.5 39.56, 150 39.56 S 153.5 39.56, 155 39.56 S 158.5 39.56, 160 39.56 S 163.5 39.56, 165 39.56 S 168.5 39.56, 170 39.56 S 173.51 39.69, 175 39.56 S 178.5 38.68, 180 38.68 S 183.51 39.43, 185 39.56 S 188.5 39.56, 190 39.56 S 193.5 39.56, 195 39.56 S 198.5 39.56, 200 39.56 S 203.5 39.56, 205 39.56"
          fill="none"/>
    <circle r="4" cx="5" cy="40" fill="#3023AE"/>
    <circle r="4" cx="205" cy="39.56" fill="#C86DD7"/>      
</svg>