<svg width="200" height="50" viewBox="0 0 210 50" xmlns="http://www.w3.org/2000/svg">
    <defs>
        <linearGradient x1="0%" y1="0%" x2="100%" y2="0%" id="a">
            <stop stop-color="#3023AE" offset="0%"/>
            <stop stop-color="#C86DD7" offset="100%"/>
        </linearGradient>
    </defs>
    <path stroke="url(#a)"
          stroke-width="3"
          stroke-linejoin="round"
          stroke-linecap="round"
          d="M5 40 C 5.44 38.57, 9.53 25.01, 10 23.59 S 14.02 8.87, 15 10 S 19.47 33.73, 20 35.13 S 23.53 36.37, 25 36.67 S 28.52 36.92, 30 37.18 S 33.5 38.42, 35 38.46 S 38.51 37.25, 40 37.44 S 43.51 39.59, 45 39.74 S 48.5 38.5, 50 38.46 S 53.5 39.57, 55 39.49 S 58.51 38.14, 60 37.95 S 63.98 39.31, 65 38.21 S 68.51 27.37, 70 27.18 S 73.85 35.95, 75 36.92 S 78.68 36.35, 80 35.64 S 83.72 32.33, 85 31.54 S 88.51 29.3, 90 29.49 S 94.1 34.02, 95 32.82 S 98.64 16.78, 100 16.15 S 104.13 26.99, 105 28.21 S 108.69 31, 110 30.26 S 113.78 23.43, 115 22.56 S 118.56 22.67, 120 23.08 S 123.56 24.97, 125 25.38 S 128.55 26.27, 130 25.9 S 133.53 23.12, 135 22.82 S 138.51 23.7, 140 23.85 S 143.5 23.77, 145 23.85 S 148.5 24.28, 150 24.36 S 153.51 24.55, 155 24.36 S 158.51 23.23, 160 23.08 S 163.63 22.73, 165 23.33 S 168.71 28.2, 170 27.44 S 173.64 18.07, 175 17.44 S 179.13 21.6, 180 22.82 S 183.58 31.07, 185 31.54 S 188.59 26.66, 190 26.15 S 193.52 27.68, 195 27.95 S 198.65 28.61, 200 27.95 S 203.93 24.13, 205 23.08"
          fill="none"/>
    <circle r="4" cx="5" cy="40" fill="#3023AE"/>
    <circle r="4" cx="205" cy="23.08" fill="#C86DD7"/>      
</svg>