<svg width="200" height="50" viewBox="0 0 210 50" xmlns="http://www.w3.org/2000/svg">
    <defs>
        <linearGradient x1="0%" y1="0%" x2="100%" y2="0%" id="a">
            <stop stop-color="#3023AE" offset="0%"/>
            <stop stop-color="#C86DD7" offset="100%"/>
        </linearGradient>
    </defs>
    <path stroke="url(#a)"
          stroke-width="3"
          stroke-linejoin="round"
          stroke-linecap="round"
          d="M5 40 C 5.25 38.52, 9.22 11.28, 10 10 S 14.4 22.25, 15 23.62 S 18.96 31.68, 20 32.76 S 23.54 33.71, 25 34.07 S 28.5 35.27, 30 35.24 S 33.5 33.86, 35 33.9 S 38.52 35.25, 40 35.5 S 43.5 35.54, 45 35.6 S 48.5 35.86, 50 35.88 S 53.51 35.91, 55 35.74 S 58.5 34.74, 60 34.76 S 63.52 35.63, 65 35.85 S 68.51 36.42, 70 36.27 S 73.5 34.82, 75 34.85 S 78.51 36.26, 80 36.45 S 83.5 36.12, 85 36.12 S 88.5 36.46, 90 36.43 S 93.5 36.05, 95 35.94 S 98.5 35.57, 100 35.69 S 103.52 36.54, 105 36.75 S 108.5 37.08, 110 37.12 S 113.5 37.11, 115 36.99 S 118.5 36.41, 120 36.33 S 123.5 36.41, 125 36.45 S 128.5 36.61, 130 36.63 S 133.5 36.63, 135 36.59 S 138.5 36.36, 140 36.37 S 143.51 36.51, 145 36.63 S 148.5 37.14, 150 37.2 S 153.5 37.04, 155 37.02 S 158.5 36.95, 160 37.06 S 163.5 37.76, 165 37.73 S 168.5 36.88, 170 36.88 S 173.5 37.62, 175 37.71 S 178.5 37.46, 180 37.45 S 183.5 37.67, 185 37.66 S 188.5 37.48, 190 37.39 S 193.5 37.07, 195 37.07 S 198.5 37.3, 200 37.4 S 203.5 37.64, 205 37.74"
          fill="none"/>
    <circle r="4" cx="5" cy="40" fill="#3023AE"/>
    <circle r="4" cx="205" cy="37.74" fill="#C86DD7"/>      
</svg>