<svg width="200" height="50" viewBox="0 0 210 50" xmlns="http://www.w3.org/2000/svg">
    <defs>
        <linearGradient x1="0%" y1="0%" x2="100%" y2="0%" id="a">
            <stop stop-color="#3023AE" offset="0%"/>
            <stop stop-color="#C86DD7" offset="100%"/>
        </linearGradient>
    </defs>
    <path stroke="url(#a)"
          stroke-width="3"
          stroke-linejoin="round"
          stroke-linecap="round"
          d="M5 40 C 5.25 38.52, 8.57 10.45, 10 10 S 14.51 35.46, 15 36.88 S 18.56 38.74, 20 39.17 S 23.5 39.86, 25 39.88 S 28.5 39.32, 30 39.29 S 33.5 39.64, 35 39.65 S 38.5 39.32, 40 39.35 S 43.5 39.8, 45 39.88 S 48.5 39.92, 50 39.88 S 53.5 39.63, 55 39.59 S 58.5 39.55, 60 39.59 S 63.5 39.83, 65 39.88 S 68.5 40.01, 70 39.94 S 73.51 39.54, 75 39.41 S 78.5 38.99, 80 39.06 S 83.5 39.78, 85 39.88 S 88.5 39.8, 90 39.71 S 93.5 39.34, 95 39.29 S 98.5 39.25, 100 39.35 S 103.5 39.97, 105 39.94 S 108.5 39.26, 110 39.17 S 113.5 39.32, 115 39.35 S 118.5 39.29, 120 39.35 S 123.5 39.72, 125 39.76 S 128.5 39.66, 130 39.59 S 133.5 39.26, 135 39.29 S 138.5 39.74, 140 39.76 S 143.5 39.44, 145 39.41 S 148.5 39.55, 150 39.53 S 153.5 39.36, 155 39.29 S 158.5 39.04, 160 39.06 S 163.5 39.34, 165 39.41 S 168.5 39.52, 170 39.53 S 173.5 39.51, 175 39.47 S 178.5 39.23, 180 39.23 S 183.5 39.5, 185 39.47 S 188.5 39, 190 39 S 193.5 39.4, 195 39.47 S 198.56 39.89, 200 39.47 S 203.7 37.33, 205 36.58"
          fill="none"/>
    <circle r="4" cx="5" cy="40" fill="#3023AE"/>
    <circle r="4" cx="205" cy="36.58" fill="#C86DD7"/>      
</svg>