<svg width="200" height="50" viewBox="0 0 210 50" xmlns="http://www.w3.org/2000/svg">
    <defs>
        <linearGradient x1="0%" y1="0%" x2="100%" y2="0%" id="a">
            <stop stop-color="#3023AE" offset="0%"/>
            <stop stop-color="#C86DD7" offset="100%"/>
        </linearGradient>
    </defs>
    <path stroke="url(#a)"
          stroke-width="3"
          stroke-linejoin="round"
          stroke-linecap="round"
          d="M5 40 C 5.32 38.53, 8.51 17.38, 10 17.2 S 14.19 37.54, 15 38.8 S 18.5 32.8, 20 32.8 S 23.71 38.03, 25 38.8 S 28.5 38.8, 30 38.8 S 33.5 38.8, 35 38.8 S 38.5 38.8, 40 38.8 S 43.5 38.8, 45 38.8 S 48.5 38.8, 50 38.8 S 53.5 38.8, 55 38.8 S 58.5 38.8, 60 38.8 S 63.5 38.8, 65 38.8 S 68.5 38.8, 70 38.8 S 73.5 38.8, 75 38.8 S 79.51 40.22, 80 38.8 S 83.71 10.77, 85 10 S 89.4 31.43, 90 32.8 S 93.65 32.15, 95 32.8 S 98.59 37.09, 100 37.6 S 103.51 36.22, 105 36.4 S 108.51 38.98, 110 38.8 S 113.5 35.2, 115 35.2 S 118.51 38.62, 120 38.8 S 123.5 36.4, 125 36.4 S 128.54 38.45, 130 38.8 S 133.5 38.8, 135 38.8 S 138.5 38.8, 140 38.8 S 143.5 38.8, 145 38.8 S 148.5 38.8, 150 38.8 S 153.5 38.8, 155 38.8 S 158.5 38.8, 160 38.8 S 163.5 38.8, 165 38.8 S 168.5 38.8, 170 38.8 S 173.5 38.8, 175 38.8 S 178.5 38.8, 180 38.8 S 183.54 39.15, 185 38.8 S 188.51 36.58, 190 36.4 S 193.5 37.6, 195 37.6 S 198.5 36.4, 200 36.4 S 203.54 37.25, 205 37.6"
          fill="none"/>
    <circle r="4" cx="5" cy="40" fill="#3023AE"/>
    <circle r="4" cx="205" cy="37.6" fill="#C86DD7"/>      
</svg>