<svg width="200" height="50" viewBox="0 0 210 50" xmlns="http://www.w3.org/2000/svg">
    <defs>
        <linearGradient x1="0%" y1="0%" x2="100%" y2="0%" id="a">
            <stop stop-color="#3023AE" offset="0%"/>
            <stop stop-color="#C86DD7" offset="100%"/>
        </linearGradient>
    </defs>
    <path stroke="url(#a)"
          stroke-width="3"
          stroke-linejoin="round"
          stroke-linecap="round"
          d="M5 40 C 5.25 38.52, 8.62 10.58, 10 10 S 14.46 34.38, 15 35.78 S 18.5 36.12, 20 36.14 S 23.59 36.42, 25 35.9 S 28.54 32.76, 30 32.41 S 33.51 33.62, 35 33.49 S 38.5 31.66, 40 31.57 S 43.51 32.69, 45 32.89 S 48.5 32.94, 50 32.89 S 53.52 32.28, 55 32.53 S 58.5 34.58, 60 34.58 S 63.53 32.81, 65 32.53 S 68.5 32.72, 70 32.65 S 73.5 31.98, 75 32.05 S 78.51 32.93, 80 33.13 S 83.52 33.14, 85 33.37 S 88.5 34.61, 90 34.7 S 93.63 34.59, 95 33.98 S 98.52 30.46, 100 30.24 S 103.5 32.58, 105 32.53 S 108.5 29.83, 110 29.88 S 113.52 32.64, 115 32.89 S 118.51 31.41, 120 31.57 S 123.51 33.82, 125 33.98 S 128.56 33.07, 130 32.65 S 133.52 31.35, 135 31.08 S 138.52 30.59, 140 30.84 S 143.52 32.5, 145 32.77 S 148.55 33.02, 150 32.65 S 153.51 30.37, 155 30.24 S 158.53 31.53, 160 31.81 S 163.54 32.5, 165 32.17 S 168.5 29.5, 170 29.52 S 173.61 31.74, 175 32.29 S 178.56 33.91, 180 33.49 S 183.56 29.82, 185 29.4 S 188.58 30.12, 190 30.6 S 193.57 32.31, 195 32.77 S 198.5 33.79, 200 33.86 S 203.51 33.43, 205 33.25"
          fill="none"/>
    <circle r="4" cx="5" cy="40" fill="#3023AE"/>
    <circle r="4" cx="205" cy="33.25" fill="#C86DD7"/>      
</svg>