<svg width="200" height="50" viewBox="0 0 210 50" xmlns="http://www.w3.org/2000/svg">
    <defs>
        <linearGradient x1="0%" y1="0%" x2="100%" y2="0%" id="a">
            <stop stop-color="#3023AE" offset="0%"/>
            <stop stop-color="#C86DD7" offset="100%"/>
        </linearGradient>
    </defs>
    <path stroke="url(#a)"
          stroke-width="3"
          stroke-linejoin="round"
          stroke-linecap="round"
          d="M5 40 C 5.25 38.52, 8.57 10.47, 10 10 S 14.47 35.32, 15 36.72 S 18.52 36.85, 20 36.6 S 23.58 35.5, 25 35.02 S 28.5 33.24, 30 33.2 S 33.51 34.94, 35 34.78 S 38.5 32.06, 40 32.11 S 43.5 35.2, 45 35.14 S 48.52 31.99, 50 31.74 S 53.52 33.22, 55 33.44 S 58.53 32.91, 60 33.2 S 63.5 35.44, 65 35.38 S 68.53 33.12, 70 32.83 S 73.51 33.31, 75 33.44 S 78.53 33.97, 80 33.68 S 83.51 31.32, 85 31.5 S 88.55 34.53, 90 34.9 S 93.5 33.96, 95 34.05 S 98.5 35.6, 100 35.51 S 103.62 34.03, 105 33.44 S 108.51 31.46, 110 31.26 S 113.5 32.18, 115 32.11 S 118.51 30.61, 120 30.77 S 123.51 33, 125 33.2 S 128.51 31.93, 130 32.11 S 133.51 34.28, 135 34.41 S 138.53 33.28, 140 32.96 S 143.5 32.32, 145 32.23 S 148.5 32.37, 150 32.35 S 153.52 31.86, 155 32.11 S 158.5 34.05, 160 34.05 S 163.57 32.56, 165 32.11 S 168.5 30.82, 170 30.89 S 173.52 32.34, 175 32.59 S 178.53 32.91, 180 32.59 S 183.5 30.44, 185 30.4 S 188.59 31.85, 190 32.35 S 193.5 34.04, 195 33.93 S 198.55 32.01, 200 31.62 S 203.5 31.37, 205 31.26"
          fill="none"/>
    <circle r="4" cx="5" cy="40" fill="#3023AE"/>
    <circle r="4" cx="205" cy="31.259999999999998" fill="#C86DD7"/>      
</svg>