<svg width="200" height="50" viewBox="0 0 210 50" xmlns="http://www.w3.org/2000/svg">
    <defs>
        <linearGradient x1="0%" y1="0%" x2="100%" y2="0%" id="a">
            <stop stop-color="#3023AE" offset="0%"/>
            <stop stop-color="#C86DD7" offset="100%"/>
        </linearGradient>
    </defs>
    <path stroke="url(#a)"
          stroke-width="3"
          stroke-linejoin="round"
          stroke-linecap="round"
          d="M5 40 C 5.25 38.52, 9.21 11.28, 10 10 S 14.4 22.44, 15 23.81 S 19.16 31.62, 20 32.86 S 23.6 38.04, 25 38.57 S 28.5 36.67, 30 36.67 S 33.54 38.22, 35 38.57 S 38.5 38.98, 40 39.05 S 43.52 39.26, 45 39.05 S 48.51 37.76, 50 37.62 S 53.53 37.82, 55 38.1 S 58.5 39.45, 60 39.52 S 63.5 38.64, 65 38.57 S 68.5 38.98, 70 39.05 S 73.5 38.98, 75 39.05 S 78.5 39.45, 80 39.52 S 83.5 39.52, 85 39.52 S 88.5 39.59, 90 39.52 S 93.5 39.05, 95 39.05 S 98.5 39.59, 100 39.52 S 103.62 39.16, 105 38.57 S 108.51 35.38, 110 35.24 S 113.5 37.55, 115 37.62 S 118.5 35.78, 120 35.71 S 123.58 36.66, 125 37.14 S 128.52 39.26, 130 39.05 S 133.56 36.12, 135 35.71 S 138.58 35.71, 140 36.19 S 143.5 38.98, 145 39.05 S 148.5 36.74, 150 36.67 S 153.5 38.57, 155 38.57 S 158.51 36.81, 160 36.67 S 163.5 37.62, 165 37.62 S 168.5 36.6, 170 36.67 S 173.52 37.89, 175 38.1 S 178.51 38.24, 180 38.1 S 183.7 37.88, 185 37.14 S 188.62 32.97, 190 32.38 S 193.62 32.27, 195 32.86 S 198.56 36.26, 200 36.67 S 203.53 35.99, 205 35.71"
          fill="none"/>
    <circle r="4" cx="5" cy="40" fill="#3023AE"/>
    <circle r="4" cx="205" cy="35.71" fill="#C86DD7"/>      
</svg>