<svg width="200" height="50" viewBox="0 0 210 50" xmlns="http://www.w3.org/2000/svg">
    <defs>
        <linearGradient x1="0%" y1="0%" x2="100%" y2="0%" id="a">
            <stop stop-color="#3023AE" offset="0%"/>
            <stop stop-color="#C86DD7" offset="100%"/>
        </linearGradient>
    </defs>
    <path stroke="url(#a)"
          stroke-width="3"
          stroke-linejoin="round"
          stroke-linecap="round"
          d="M5 40 C 6.48 39.75, 8.51 39.37, 10 39.17 S 13.5 38.56, 15 38.65 S 18.5 39.68, 20 39.79 S 23.5 39.41, 25 39.38 S 28.5 39.5, 30 39.58 S 33.5 39.91, 35 39.9 S 38.5 39.51, 40 39.48 S 43.5 39.63, 45 39.69 S 48.5 39.89, 50 39.9 S 53.5 39.84, 55 39.79 S 58.5 39.56, 60 39.58 S 63.5 39.88, 65 39.9 S 68.5 39.72, 70 39.69 S 73.5 39.69, 75 39.69 S 78.5 39.66, 80 39.69 S 83.5 39.89, 85 39.9 S 88.5 39.79, 90 39.79 S 93.5 39.9, 95 39.9 S 98.5 39.82, 100 39.79 S 103.5 39.69, 105 39.69 S 108.5 39.81, 110 39.79 S 113.5 39.58, 115 39.58 S 118.5 39.77, 120 39.79 S 123.5 39.67, 125 39.69 S 128.5 39.87, 130 39.9 S 133.5 39.9, 135 39.9 S 138.5 39.9, 140 39.9 S 143.5 39.9, 145 39.9 S 148.5 39.9, 150 39.9 S 153.5 39.9, 155 39.9 S 159.52 41.32, 160 39.9 S 163.58 10.47, 165 10 S 169.51 35.15, 170 36.57 S 173.53 38.46, 175 38.75 S 178.5 38.53, 180 38.55 S 183.5 38.77, 185 38.86 S 188.5 39.17, 190 39.17 S 193.5 38.81, 195 38.86 S 198.5 39.39, 200 39.48 S 203.5 39.48, 205 39.48"
          fill="none"/>
    <circle r="4" cx="5" cy="40" fill="#3023AE"/>
    <circle r="4" cx="205" cy="39.48" fill="#C86DD7"/>      
</svg>