<svg width="200" height="50" viewBox="0 0 210 50" xmlns="http://www.w3.org/2000/svg">
    <defs>
        <linearGradient x1="0%" y1="0%" x2="100%" y2="0%" id="a">
            <stop stop-color="#3023AE" offset="0%"/>
            <stop stop-color="#C86DD7" offset="100%"/>
        </linearGradient>
    </defs>
    <path stroke="url(#a)"
          stroke-width="3"
          stroke-linejoin="round"
          stroke-linecap="round"
          d="M5 40 C 5.25 38.52, 8.55 10.4, 10 10 S 14.51 35.8, 15 37.22 S 18.51 39.06, 20 38.89 S 23.5 36.19, 25 36.11 S 28.52 38.08, 30 38.33 S 33.52 38.03, 35 37.78 S 38.51 36.5, 40 36.67 S 43.51 38.72, 45 38.89 S 48.5 37.7, 50 37.78 S 53.5 39.36, 55 39.44 S 58.54 38.66, 60 38.33 S 63.5 37.22, 65 37.22 S 68.5 38.25, 70 38.33 S 73.5 37.7, 75 37.78 S 78.51 39.06, 80 38.89 S 83.52 36.92, 85 36.67 S 88.51 37.05, 90 37.22 S 93.51 37.61, 95 37.78 S 98.51 38.16, 100 38.33 S 103.66 39.56, 105 38.89 S 108.78 34.21, 110 33.33 S 113.51 31.5, 115 31.67 S 118.69 33.71, 120 34.44 S 123.5 37.14, 125 37.22 S 128.5 35, 130 35 S 133.5 37.3, 135 37.22 S 138.51 34.27, 140 34.44 S 143.6 37.79, 145 38.33 S 148.5 38.33, 150 38.33 S 153.5 38.41, 155 38.33 S 158.78 38.66, 160 37.78 S 163.6 31.65, 165 31.11 S 168.51 33.72, 170 33.89 S 173.63 32.83, 175 32.22 S 178.55 29.84, 180 29.44 S 183.55 29.04, 185 29.44 S 189.08 33.4, 190 32.22 S 193.54 17, 195 16.67 S 198.88 29, 200 30 S 203.88 26.56, 205 25.56"
          fill="none"/>
    <circle r="4" cx="5" cy="40" fill="#3023AE"/>
    <circle r="4" cx="205" cy="25.560000000000002" fill="#C86DD7"/>      
</svg>