<svg width="200" height="50" viewBox="0 0 210 50" xmlns="http://www.w3.org/2000/svg">
    <defs>
        <linearGradient x1="0%" y1="0%" x2="100%" y2="0%" id="a">
            <stop stop-color="#3023AE" offset="0%"/>
            <stop stop-color="#C86DD7" offset="100%"/>
        </linearGradient>
    </defs>
    <path stroke="url(#a)"
          stroke-width="3"
          stroke-linejoin="round"
          stroke-linecap="round"
          d="M5 40 C 6.45 39.61, 8.51 38.84, 10 38.64 S 13.5 38.64, 15 38.64 S 18.5 38.64, 20 38.64 S 23.5 38.64, 25 38.64 S 28.5 38.64, 30 38.64 S 33.5 38.64, 35 38.64 S 38.5 38.64, 40 38.64 S 43.5 38.64, 45 38.64 S 48.5 38.64, 50 38.64 S 53.5 38.64, 55 38.64 S 58.51 38.84, 60 38.64 S 63.55 37.67, 65 37.27 S 68.51 35.71, 70 35.91 S 74.17 39.89, 75 38.64 S 79.22 22.19, 80 20.91 S 83.76 21.42, 85 22.27 S 89.22 26.45, 90 27.73 S 93.91 37.6, 95 38.64 S 98.61 37.84, 100 37.27 S 103.5 34.55, 105 34.55 S 109.11 38.48, 110 37.27 S 113.61 21.48, 115 20.91 S 119.05 32.02, 120 33.18 S 123.55 32.78, 125 33.18 S 128.55 35.51, 130 35.91 S 133.55 36.31, 135 35.91 S 138.5 33.18, 140 33.18 S 143.55 36.31, 145 35.91 S 148.55 30.85, 150 30.45 S 153.55 32.78, 155 33.18 S 158.51 32.98, 160 33.18 S 163.51 34.35, 165 34.55 S 169.17 35.8, 170 34.55 S 173.84 20.5, 175 19.55 S 178.61 25.79, 180 26.36 S 183.68 22.92, 185 23.64 S 188.84 30.87, 190 31.82 S 193.55 31.42, 195 31.82 S 199.38 35.91, 200 34.55 S 204.7 11.47, 205 10"
          fill="none"/>
    <circle r="4" cx="5" cy="40" fill="#3023AE"/>
    <circle r="4" cx="205" cy="10" fill="#C86DD7"/>      
</svg>