<svg width="200" height="50" viewBox="0 0 210 50" xmlns="http://www.w3.org/2000/svg">
    <defs>
        <linearGradient x1="0%" y1="0%" x2="100%" y2="0%" id="a">
            <stop stop-color="#3023AE" offset="0%"/>
            <stop stop-color="#C86DD7" offset="100%"/>
        </linearGradient>
    </defs>
    <path stroke="url(#a)"
          stroke-width="3"
          stroke-linejoin="round"
          stroke-linecap="round"
          d="M5 40 C 6.5 39.99, 8.5 39.96, 10 39.95 S 13.5 39.95, 15 39.95 S 18.5 39.95, 20 39.95 S 23.5 39.95, 25 39.95 S 28.5 39.95, 30 39.95 S 33.5 39.95, 35 39.95 S 38.5 39.95, 40 39.95 S 43.5 39.95, 45 39.95 S 48.5 39.95, 50 39.95 S 53.5 39.95, 55 39.95 S 58.5 39.95, 60 39.95 S 63.5 39.95, 65 39.95 S 68.5 39.95, 70 39.95 S 73.7 40.7, 75 39.95 S 78.5 34.21, 80 34.14 S 83.68 38.76, 85 39.48 S 89.52 41.04, 90 39.62 S 93.52 10.26, 95 10 S 99.51 36.42, 100 37.84 S 103.51 38.81, 105 38.97 S 108.5 39, 110 38.92 S 113.51 38.54, 115 38.41 S 118.51 38.16, 120 38.03 S 123.99 38.67, 125 37.56 S 128.56 27.55, 130 27.11 S 133.87 33.54, 135 34.52 S 138.51 35.64, 140 35.78 S 143.7 36.2, 145 35.45 S 148.53 30.27, 150 29.97 S 153.65 32.73, 155 33.39 S 158.5 34.96, 160 34.89 S 163.5 32.97, 165 32.92 S 168.57 35.03, 170 34.56 S 173.54 29.96, 175 29.64 S 178.51 32.15, 180 32.36 S 183.5 30.98, 185 31.05 S 188.54 32.5, 190 32.83 S 193.5 33.32, 195 33.34 S 198.5 32.95, 200 32.97 S 203.51 33.33, 205 33.48"
          fill="none"/>
    <circle r="4" cx="5" cy="40" fill="#3023AE"/>
    <circle r="4" cx="205" cy="33.480000000000004" fill="#C86DD7"/>      
</svg>