<svg width="200" height="50" viewBox="0 0 210 50" xmlns="http://www.w3.org/2000/svg">
    <defs>
        <linearGradient x1="0%" y1="0%" x2="100%" y2="0%" id="a">
            <stop stop-color="#3023AE" offset="0%"/>
            <stop stop-color="#C86DD7" offset="100%"/>
        </linearGradient>
    </defs>
    <path stroke="url(#a)"
          stroke-width="3"
          stroke-linejoin="round"
          stroke-linecap="round"
          d="M5 40 C 6.5 39.99, 9.53 41.38, 10 39.96 S 13.5 10.01, 15 10 S 19.52 38.5, 20 39.92 S 23.52 40.16, 25 39.92 S 28.55 38.7, 30 38.3 S 33.52 37.4, 35 37.19 S 38.51 37.05, 40 36.87 S 43.69 36.74, 45 36 S 48.5 31.32, 50 31.24 S 53.68 34.72, 55 35.44 S 58.53 36.96, 60 36.67 S 63.55 33.83, 65 33.46 S 68.51 33.96, 70 34.13 S 73.5 34.53, 75 34.57 S 78.5 34.35, 80 34.41 S 83.5 34.95, 85 34.97 S 88.5 34.46, 90 34.57 S 93.52 35.51, 95 35.72 S 98.5 36.07, 100 36 S 103.52 35.49, 105 35.28 S 108.52 34.83, 110 34.57 S 113.51 33.4, 115 33.54 S 118.52 35.27, 120 35.48 S 123.5 34.85, 125 34.97 S 128.51 36.08, 130 36.27 S 133.51 36.36, 135 36.24 S 138.5 35.38, 140 35.44 S 143.51 36.52, 145 36.67 S 148.5 36.46, 150 36.43 S 153.57 36.93, 155 36.47 S 158.58 33.66, 160 33.18 S 163.51 32.91, 165 33.1 S 168.6 33.91, 170 34.45 S 173.58 36.48, 175 36.95 S 178.5 37.7, 180 37.78 S 183.5 37.44, 185 37.46 S 188.5 37.85, 190 37.9 S 193.5 37.87, 195 37.82 S 198.5 37.54, 200 37.54 S 203.5 37.74, 205 37.82"
          fill="none"/>
    <circle r="4" cx="5" cy="40" fill="#3023AE"/>
    <circle r="4" cx="205" cy="37.82" fill="#C86DD7"/>      
</svg>