<svg width="200" height="50" viewBox="0 0 210 50" xmlns="http://www.w3.org/2000/svg">
    <defs>
        <linearGradient x1="0%" y1="0%" x2="100%" y2="0%" id="a">
            <stop stop-color="#3023AE" offset="0%"/>
            <stop stop-color="#C86DD7" offset="100%"/>
        </linearGradient>
    </defs>
    <path stroke="url(#a)"
          stroke-width="3"
          stroke-linejoin="round"
          stroke-linecap="round"
          d="M5 40 C 5.93 38.82, 8.51 33.78, 10 33.64 S 13.55 38.7, 15 39.09 S 19.15 37.6, 20 36.36 S 23.55 24.94, 25 24.55 S 28.99 32.53, 30 33.64 S 33.51 35.31, 35 35.45 S 38.73 35.35, 40 34.55 S 43.84 30.04, 45 29.09 S 48.5 26.36, 50 26.36 S 53.5 29.09, 55 29.09 S 59.07 27.54, 60 26.36 S 63.63 16.98, 65 16.36 S 68.51 21.68, 70 21.82 S 73.68 16.55, 75 17.27 S 79.03 26.12, 80 27.27 S 83.52 29.36, 85 29.09 S 88.51 25.31, 90 25.45 S 93.52 29.73, 95 30 S 98.5 27.27, 100 27.27 S 103.52 29.73, 105 30 S 108.79 29.97, 110 29.09 S 113.73 23.53, 115 22.73 S 118.52 22.46, 120 22.73 S 123.5 24.55, 125 24.55 S 128.68 22.01, 130 22.73 S 133.73 29.2, 135 30 S 138.52 29.36, 140 29.09 S 143.99 29.29, 145 28.18 S 148.55 17.78, 150 18.18 S 153.84 29.96, 155 30.91 S 158.52 26.63, 160 26.36 S 163.52 28.82, 165 29.09 S 169.03 29.33, 170 28.18 S 173.63 17.89, 175 17.27 S 178.79 22.76, 180 23.64 S 183.52 24.28, 185 24.55 S 188.68 24.73, 190 25.45 S 194.18 31.26, 195 30 S 199.07 11.18, 200 10 S 204.15 16.03, 205 17.27"
          fill="none"/>
    <circle r="4" cx="5" cy="40" fill="#3023AE"/>
    <circle r="4" cx="205" cy="17.27" fill="#C86DD7"/>      
</svg>