<svg width="200" height="50" viewBox="0 0 210 50" xmlns="http://www.w3.org/2000/svg">
    <defs>
        <linearGradient x1="0%" y1="0%" x2="100%" y2="0%" id="a">
            <stop stop-color="#3023AE" offset="0%"/>
            <stop stop-color="#C86DD7" offset="100%"/>
        </linearGradient>
    </defs>
    <path stroke="url(#a)"
          stroke-width="3"
          stroke-linejoin="round"
          stroke-linecap="round"
          d="M5 40 C 6.23 39.14, 8.5 36.57, 10 36.5 S 13.74 40.32, 15 39.5 S 18.58 30.5, 20 30 S 23.77 35.14, 25 36 S 28.51 37.15, 30 37 S 33.83 35.94, 35 35 S 38.56 29.43, 40 29 S 43.52 31.78, 45 32 S 48.91 31.53, 50 30.5 S 53.66 23.17, 55 22.5 S 58.89 24.5, 60 25.5 S 63.71 30.73, 65 31.5 S 68.51 31.35, 70 31.5 S 73.53 32.21, 75 32.5 S 78.52 33.72, 80 33.5 S 83.54 31.36, 85 31 S 88.58 31.5, 90 31 S 93.58 28, 95 27.5 S 98.58 27, 100 27.5 S 103.66 30.33, 105 31 S 108.5 32.43, 110 32.5 S 113.61 32.06, 115 31.5 S 118.5 28.5, 120 28.5 S 123.63 30.88, 125 31.5 S 128.74 33.82, 130 33 S 133.61 25.56, 135 25 S 138.71 28.23, 140 29 S 143.53 30.71, 145 31 S 148.69 31.72, 150 31 S 153.74 26.32, 155 25.5 S 158.54 24.86, 160 24.5 S 163.71 22.23, 165 23 S 168.74 29.68, 170 30.5 S 173.53 29.21, 175 29.5 S 178.61 31.94, 180 32.5 S 184.39 34.87, 185 33.5 S 188.53 10.29, 190 10 S 194.37 30.14, 195 31.5 S 198.53 31.79, 200 31.5 S 203.61 30.06, 205 29.5"
          fill="none"/>
    <circle r="4" cx="5" cy="40" fill="#3023AE"/>
    <circle r="4" cx="205" cy="29.5" fill="#C86DD7"/>      
</svg>