<svg width="200" height="50" viewBox="0 0 210 50" xmlns="http://www.w3.org/2000/svg">
    <defs>
        <linearGradient x1="0%" y1="0%" x2="100%" y2="0%" id="a">
            <stop stop-color="#3023AE" offset="0%"/>
            <stop stop-color="#C86DD7" offset="100%"/>
        </linearGradient>
    </defs>
    <path stroke="url(#a)"
          stroke-width="3"
          stroke-linejoin="round"
          stroke-linecap="round"
          d="M5 40 C 6.5 39.99, 8.51 40.08, 10 39.95 S 13.59 39.64, 15 39.13 S 18.78 37.18, 20 36.3 S 24.16 33.16, 25 31.92 S 28.53 21.84, 30 21.54 S 33.7 29.15, 35 29.9 S 38.87 26.32, 40 27.31 S 43.89 37.65, 45 38.66 S 49.33 37.73, 50 36.39 S 53.74 19.43, 55 18.61 S 58.96 28.77, 60 29.85 S 63.51 28.9, 65 29.05 S 68.58 30.36, 70 30.84 S 73.51 32.31, 75 32.44 S 78.61 32.31, 80 31.74 S 83.54 28.71, 85 28.36 S 88.51 29.17, 90 29.33 S 93.5 29.36, 95 29.45 S 98.51 30.07, 100 29.93 S 103.54 28.86, 105 28.53 S 108.52 27.91, 110 27.69 S 113.58 27.53, 115 27.06 S 118.55 24.78, 120 24.4 S 123.51 24.3, 125 24.43 S 128.54 25.58, 130 25.25 S 133.62 22.79, 135 22.21 S 138.54 21.36, 140 21.02 S 143.57 20.29, 145 19.85 S 148.52 17.69, 150 17.96 S 153.62 21.09, 155 21.67 S 158.5 22.23, 160 22.14 S 163.51 21.27, 165 21.07 S 168.63 21.44, 170 20.82 S 173.52 16.8, 175 16.54 S 178.5 19.14, 180 19.05 S 183.57 16.39, 185 15.95 S 188.51 16.15, 190 15.99 S 193.6 15.39, 195 14.85 S 198.65 12.76, 200 12.11 S 203.62 10.58, 205 10"
          fill="none"/>
    <circle r="4" cx="5" cy="40" fill="#3023AE"/>
    <circle r="4" cx="205" cy="10" fill="#C86DD7"/>      
</svg>