<svg width="200" height="50" viewBox="0 0 210 50" xmlns="http://www.w3.org/2000/svg">
    <defs>
        <linearGradient x1="0%" y1="0%" x2="100%" y2="0%" id="a">
            <stop stop-color="#3023AE" offset="0%"/>
            <stop stop-color="#C86DD7" offset="100%"/>
        </linearGradient>
    </defs>
    <path stroke="url(#a)"
          stroke-width="3"
          stroke-linejoin="round"
          stroke-linecap="round"
          d="M5 40 C 5.25 38.52, 8.8 10.9, 10 10 S 14.43 31.14, 15 32.53 S 18.51 34.67, 20 34.55 S 23.71 32.47, 25 31.7 S 28.53 28.9, 30 28.62 S 33.51 29.62, 35 29.8 S 38.54 30.13, 40 29.8 S 43.51 27.67, 45 27.55 S 48.51 28.76, 50 28.97 S 53.6 29.52, 55 28.97 S 58.94 26.12, 60 25.06 S 63.58 19.5, 65 19.01 S 68.51 21.78, 70 21.62 S 73.53 18.24, 75 17.94 S 78.78 20.47, 80 19.6 S 83.62 11.42, 85 10.83 S 88.91 14.31, 90 15.34 S 93.83 19.39, 95 20.32 S 98.54 23.63, 100 23.28 S 104.06 19.11, 105 17.94 S 108.68 11.67, 110 10.95 S 113.87 11.51, 115 12.49 S 119.13 18.38, 120 19.6 S 123.63 27.1, 125 26.48 S 129.02 16.24, 130 15.1 S 133.5 14.95, 135 14.86 S 138.62 15.1, 140 14.51 S 143.6 10.06, 145 10.59 S 149.04 17.15, 150 18.3 S 153.73 21.77, 155 22.57 S 158.57 24.12, 160 24.58 S 163.62 25.19, 165 25.77 S 168.51 28.6, 170 28.74 S 173.73 27.52, 175 26.72 S 178.52 22.68, 180 22.45 S 183.66 24.51, 185 25.18 S 188.68 26.72, 190 27.43 S 193.51 30.35, 195 30.51 S 198.68 29.21, 200 28.5 S 203.75 26.01, 205 25.18"
          fill="none"/>
    <circle r="4" cx="5" cy="40" fill="#3023AE"/>
    <circle r="4" cx="205" cy="25.18" fill="#C86DD7"/>      
</svg>