<svg width="200" height="50" viewBox="0 0 210 50" xmlns="http://www.w3.org/2000/svg">
    <defs>
        <linearGradient x1="0%" y1="0%" x2="100%" y2="0%" id="a">
            <stop stop-color="#3023AE" offset="0%"/>
            <stop stop-color="#C86DD7" offset="100%"/>
        </linearGradient>
    </defs>
    <path stroke="url(#a)"
          stroke-width="3"
          stroke-linejoin="round"
          stroke-linecap="round"
          d="M5 40 C 6.5 39.89, 8.52 39.85, 10 39.62 S 13.5 38.54, 15 38.46 S 18.5 38.95, 20 39.06 S 24.51 40.62, 25 39.2 S 29.1 11.2, 30 10 S 34.46 24.39, 35 25.79 S 39.05 34.95, 40 36.11 S 43.53 37.7, 45 37.98 S 48.51 38.18, 50 37.98 S 53.6 37.16, 55 36.61 S 58.71 34.85, 60 34.08 S 63.54 30.33, 65 30.68 S 68.71 35.74, 70 36.51 S 73.5 36.66, 75 36.69 S 78.5 36.75, 80 36.69 S 83.5 36.35, 85 36.28 S 88.5 36.29, 90 36.25 S 93.5 36.16, 95 36.04 S 98.54 35.77, 100 35.44 S 103.56 34.21, 105 33.78 S 108.5 32.31, 110 32.43 S 113.5 34.52, 115 34.56 S 118.52 32.95, 120 32.71 S 123.83 33.91, 125 32.97 S 128.66 25.38, 130 24.71 S 133.76 27.12, 135 27.97 S 138.64 30.96, 140 31.59 S 143.51 32.42, 145 32.63 S 148.5 32.93, 150 32.98 S 153.5 32.94, 155 32.94 S 158.51 33.18, 160 32.99 S 163.53 31.97, 165 31.66 S 168.53 31.16, 170 30.85 S 173.51 29.45, 175 29.58 S 178.52 31.45, 180 31.69 S 183.56 31.62, 185 31.2 S 188.5 28.84, 190 28.77 S 193.96 31.78, 195 30.7 S 198.67 19.16, 200 18.46 S 204.12 24.18, 205 25.4"
          fill="none"/>
    <circle r="4" cx="5" cy="40" fill="#3023AE"/>
    <circle r="4" cx="205" cy="25.4" fill="#C86DD7"/>      
</svg>