<svg width="200" height="50" viewBox="0 0 210 50" xmlns="http://www.w3.org/2000/svg">
    <defs>
        <linearGradient x1="0%" y1="0%" x2="100%" y2="0%" id="a">
            <stop stop-color="#3023AE" offset="0%"/>
            <stop stop-color="#C86DD7" offset="100%"/>
        </linearGradient>
    </defs>
    <path stroke="url(#a)"
          stroke-width="3"
          stroke-linejoin="round"
          stroke-linecap="round"
          d="M5 40 C 5.25 38.52, 8.58 10.47, 10 10 S 14.46 35.28, 15 36.68 S 18.5 35.88, 20 35.97 S 23.51 37.16, 25 37.3 S 28.51 37.11, 30 36.91 S 33.51 36.11, 35 35.93 S 38.51 35.8, 40 35.67 S 43.5 34.98, 45 35.09 S 48.51 36.19, 50 36.4 S 53.5 36.49, 55 36.49 S 58.51 36.56, 60 36.43 S 63.52 35.88, 65 35.65 S 68.5 35.03, 70 34.91 S 73.51 35.09, 75 34.88 S 78.5 33.59, 80 33.51 S 83.51 34.19, 85 34.35 S 88.61 35.13, 90 34.57 S 93.53 30.67, 95 30.36 S 98.57 31.97, 100 32.43 S 103.5 33.53, 105 33.62 S 108.5 33.05, 110 33.02 S 113.51 33.3, 115 33.44 S 118.5 33.98, 120 33.98 S 123.5 33.43, 125 33.43 S 128.51 33.84, 130 33.99 S 133.56 34.85, 135 34.42 S 138.62 31.56, 140 30.97 S 143.5 30.07, 145 30.1 S 148.55 30.78, 150 31.15 S 153.52 32.42, 155 32.65 S 158.5 32.81, 160 32.73 S 163.5 32.19, 165 32.11 S 168.5 32.09, 170 32.2 S 173.5 32.77, 175 32.82 S 178.52 32.27, 180 32.54 S 183.53 34.36, 185 34.64 S 188.5 34.38, 190 34.45 S 193.5 35.04, 195 35.1 S 198.51 34.99, 200 34.85 S 203.51 34.38, 205 34.18"
          fill="none"/>
    <circle r="4" cx="5" cy="40" fill="#3023AE"/>
    <circle r="4" cx="205" cy="34.18" fill="#C86DD7"/>      
</svg>