<svg width="200" height="50" viewBox="0 0 210 50" xmlns="http://www.w3.org/2000/svg">
    <defs>
        <linearGradient x1="0%" y1="0%" x2="100%" y2="0%" id="a">
            <stop stop-color="#3023AE" offset="0%"/>
            <stop stop-color="#C86DD7" offset="100%"/>
        </linearGradient>
    </defs>
    <path stroke="url(#a)"
          stroke-width="3"
          stroke-linejoin="round"
          stroke-linecap="round"
          d="M5 40 C 5.25 38.52, 8.59 10.52, 10 10 S 14.45 34.91, 15 36.31 S 18.5 35.4, 20 35.36 S 23.52 36.3, 25 36.07 S 28.53 34.09, 30 33.8 S 33.52 33.86, 35 34.07 S 38.51 35.05, 40 35.24 S 43.51 35.55, 45 35.35 S 48.54 34.25, 50 33.92 S 53.52 33.38, 55 33.13 S 58.5 32.28, 60 32.23 S 63.61 33.34, 65 32.78 S 68.53 28.51, 70 28.21 S 73.57 30.26, 75 30.72 S 78.51 31.25, 80 31.42 S 83.5 31.86, 85 31.86 S 88.5 31.39, 90 31.44 S 93.5 32.27, 95 32.19 S 98.63 31.53, 100 30.91 S 103.52 27.93, 105 27.69 S 108.54 28.95, 110 29.28 S 113.51 29.77, 115 29.93 S 118.5 30.34, 120 30.37 S 123.5 30.07, 125 30.15 S 128.55 30.49, 130 30.89 S 133.55 32.56, 135 32.93 S 138.5 33.34, 140 33.43 S 143.5 33.63, 145 33.56 S 148.5 33.04, 150 32.97 S 153.51 32.92, 155 33.09 S 158.51 33.96, 160 34.11 S 163.54 34.46, 165 34.11 S 168.51 31.85, 170 31.71 S 173.55 32.77, 175 33.16 S 178.52 34.14, 180 34.38 S 183.51 34.61, 185 34.75 S 188.5 35.36, 190 35.31 S 193.5 34.4, 195 34.4 S 198.5 35.24, 200 35.33 S 203.5 35.08, 205 34.98"
          fill="none"/>
    <circle r="4" cx="5" cy="40" fill="#3023AE"/>
    <circle r="4" cx="205" cy="34.980000000000004" fill="#C86DD7"/>      
</svg>