<svg width="200" height="50" viewBox="0 0 210 50" xmlns="http://www.w3.org/2000/svg">
    <defs>
        <linearGradient x1="0%" y1="0%" x2="100%" y2="0%" id="a">
            <stop stop-color="#3023AE" offset="0%"/>
            <stop stop-color="#C86DD7" offset="100%"/>
        </linearGradient>
    </defs>
    <path stroke="url(#a)"
          stroke-width="3"
          stroke-linejoin="round"
          stroke-linecap="round"
          d="M5 40 C 5.25 38.52, 8.59 10.5, 10 10 S 14.45 35.05, 15 36.44 S 18.5 35.32, 20 35.28 S 23.51 36.35, 25 36.14 S 28.53 34.21, 30 33.9 S 33.51 33.84, 35 34.04 S 38.51 35.05, 40 35.24 S 43.51 35.48, 45 35.33 S 48.53 34.55, 50 34.23 S 53.53 33.46, 55 33.15 S 58.5 32.17, 60 32.12 S 63.58 33.31, 65 32.83 S 68.54 29.12, 70 28.76 S 73.57 29.87, 75 30.33 S 78.51 31.8, 80 31.96 S 83.5 31.39, 85 31.37 S 88.5 31.72, 90 31.82 S 93.5 32.13, 95 32.06 S 98.63 31.95, 100 31.35 S 103.53 27.98, 105 27.67 S 108.55 28.83, 110 29.21 S 113.51 30.12, 115 30.26 S 118.5 30.18, 120 30.18 S 123.5 30.17, 125 30.26 S 128.54 30.4, 130 30.75 S 133.55 32.27, 135 32.64 S 138.51 33.09, 140 33.3 S 143.5 34.14, 145 34.03 S 148.5 32.68, 150 32.57 S 153.52 33.04, 155 33.27 S 158.5 33.99, 160 34.09 S 163.52 34.2, 165 33.97 S 168.51 32.76, 170 32.56 S 173.51 32.42, 175 32.62 S 178.54 33.56, 180 33.92 S 183.51 34.97, 185 35.11 S 188.5 34.89, 190 34.87 S 193.5 34.95, 195 34.96 S 198.5 35, 200 34.96 S 203.5 34.78, 205 34.71"
          fill="none"/>
    <circle r="4" cx="5" cy="40" fill="#3023AE"/>
    <circle r="4" cx="205" cy="34.71" fill="#C86DD7"/>      
</svg>