<svg width="200" height="50" viewBox="0 0 210 50" xmlns="http://www.w3.org/2000/svg">
    <defs>
        <linearGradient x1="0%" y1="0%" x2="100%" y2="0%" id="a">
            <stop stop-color="#3023AE" offset="0%"/>
            <stop stop-color="#C86DD7" offset="100%"/>
        </linearGradient>
    </defs>
    <path stroke="url(#a)"
          stroke-width="3"
          stroke-linejoin="round"
          stroke-linecap="round"
          d="M5 40 C 5.25 38.52, 8.57 10.46, 10 10 S 14.49 35.34, 15 36.75 S 18.5 38, 20 37.93 S 23.5 36.31, 25 36.27 S 28.51 37.48, 30 37.66 S 33.5 37.51, 35 37.5 S 38.52 37.82, 40 37.57 S 43.54 36.15, 45 35.83 S 48.5 35.26, 50 35.36 S 53.52 36.28, 55 36.53 S 58.5 37.02, 60 37.08 S 63.5 36.97, 65 36.96 S 68.5 37.05, 70 37.02 S 73.5 36.87, 75 36.75 S 78.52 36.49, 80 36.23 S 83.5 35, 85 34.97 S 88.5 36.09, 90 36.03 S 93.5 34.61, 95 34.56 S 98.5 35.66, 100 35.69 S 103.53 35.02, 105 34.75 S 108.55 34.21, 110 33.84 S 113.5 32.23, 115 32.18 S 118.54 33.17, 120 33.52 S 123.52 34.34, 125 34.61 S 128.51 35.55, 130 35.35 S 133.5 33.39, 135 33.28 S 138.52 34.42, 140 34.64 S 143.5 34.79, 145 34.75 S 148.5 34.35, 150 34.39 S 153.5 34.97, 155 35.02 S 158.51 34.87, 160 34.7 S 163.53 34.16, 165 33.85 S 168.54 32.98, 170 32.62 S 173.5 31.46, 175 31.41 S 178.54 31.92, 180 32.27 S 183.51 33.66, 185 33.83 S 188.5 33.38, 190 33.42 S 193.5 34.2, 195 34.09 S 198.51 32.83, 200 32.7 S 203.51 33.08, 205 33.24"
          fill="none"/>
    <circle r="4" cx="5" cy="40" fill="#3023AE"/>
    <circle r="4" cx="205" cy="33.24" fill="#C86DD7"/>      
</svg>