<svg width="200" height="50" viewBox="0 0 210 50" xmlns="http://www.w3.org/2000/svg">
    <defs>
        <linearGradient x1="0%" y1="0%" x2="100%" y2="0%" id="a">
            <stop stop-color="#3023AE" offset="0%"/>
            <stop stop-color="#C86DD7" offset="100%"/>
        </linearGradient>
    </defs>
    <path stroke="url(#a)"
          stroke-width="3"
          stroke-linejoin="round"
          stroke-linecap="round"
          d="M5 40 C 6.04 38.92, 9.53 36.22, 10 34.8 S 13.73 10.81, 15 10 S 19.13 27.21, 20 28.43 S 23.51 24.15, 25 23.94 S 28.51 27.15, 30 27.01 S 33.62 22.4, 35 22.99 S 38.84 30.3, 40 31.26 S 43.53 31.54, 45 31.26 S 48.5 29.44, 50 29.37 S 53.51 30.97, 55 30.79 S 58.52 28.44, 60 28.19 S 63.53 28.82, 65 29.13 S 68.5 30.41, 70 30.31 S 73.51 28.22, 75 28.43 S 78.64 31.09, 80 31.73 S 83.52 32.9, 85 33.15 S 88.52 33.15, 90 33.39 S 93.5 34.84, 95 34.8 S 98.54 33.49, 100 33.15 S 103.5 32.55, 105 32.44 S 108.59 31.94, 110 32.44 S 113.5 35.98, 115 35.98 S 118.51 32.65, 120 32.44 S 123.53 34.29, 125 34.57 S 128.5 34.4, 130 34.33 S 133.5 34.16, 135 34.09 S 138.51 34.07, 140 33.86 S 143.51 32.5, 145 32.68 S 148.51 34.86, 150 35.04 S 153.5 33.9, 155 33.86 S 158.5 34.69, 160 34.8 S 163.53 34.88, 165 34.57 S 168.55 32.3, 170 32.68 S 173.5 37.06, 175 37.17 S 178.6 33.92, 180 33.39 S 183.5 33.39, 185 33.39 S 188.5 33.36, 190 33.39 S 193.53 33.34, 195 33.62 S 198.5 35.21, 200 35.28 S 203.54 34.44, 205 34.09"
          fill="none"/>
    <circle r="4" cx="5" cy="40" fill="#3023AE"/>
    <circle r="4" cx="205" cy="34.09" fill="#C86DD7"/>      
</svg>