<svg width="200" height="50" viewBox="0 0 210 50" xmlns="http://www.w3.org/2000/svg">
    <defs>
        <linearGradient x1="0%" y1="0%" x2="100%" y2="0%" id="a">
            <stop stop-color="#3023AE" offset="0%"/>
            <stop stop-color="#C86DD7" offset="100%"/>
        </linearGradient>
    </defs>
    <path stroke="url(#a)"
          stroke-width="3"
          stroke-linejoin="round"
          stroke-linecap="round"
          d="M5 40 C 6.49 39.87, 8.5 39.59, 10 39.56 S 13.5 39.75, 15 39.78 S 18.5 39.78, 20 39.78 S 23.5 39.78, 25 39.78 S 28.5 39.78, 30 39.78 S 33.5 39.78, 35 39.78 S 38.5 39.78, 40 39.78 S 43.5 39.78, 45 39.78 S 48.5 39.78, 50 39.78 S 53.5 39.78, 55 39.78 S 58.51 39.91, 60 39.78 S 63.76 39.75, 65 38.91 S 68.55 33.37, 70 32.99 S 73.59 35.76, 75 36.28 S 78.51 36.85, 80 36.72 S 83.52 35.17, 85 35.4 S 88.53 37.93, 90 38.25 S 93.5 37.49, 95 37.59 S 98.5 38.84, 100 38.91 S 103.5 38.13, 105 38.03 S 108.5 38.15, 110 38.25 S 114.5 40.1, 115 38.69 S 118.64 10.63, 120 10 S 124.42 32.7, 125 34.09 S 128.51 33.96, 130 34.09 S 133.51 35.16, 135 34.96 S 138.77 33.63, 140 32.77 S 143.75 28.78, 145 27.96 S 148.58 26.7, 150 26.2 S 153.87 23.46, 155 24.45 S 158.92 33.92, 160 34.96 S 163.59 34.61, 165 34.09 S 168.56 31.65, 170 31.24 S 173.54 30.89, 175 31.24 S 178.51 33.84, 180 33.65 S 183.5 29.93, 185 29.93 S 188.59 33.13, 190 33.65 S 193.51 33.84, 195 33.65 S 198.82 33.27, 200 32.34 S 204.09 26.96, 205 25.77"
          fill="none"/>
    <circle r="4" cx="5" cy="40" fill="#3023AE"/>
    <circle r="4" cx="205" cy="25.77" fill="#C86DD7"/>      
</svg>