<svg width="200" height="50" viewBox="0 0 210 50" xmlns="http://www.w3.org/2000/svg">
    <defs>
        <linearGradient x1="0%" y1="0%" x2="100%" y2="0%" id="a">
            <stop stop-color="#3023AE" offset="0%"/>
            <stop stop-color="#C86DD7" offset="100%"/>
        </linearGradient>
    </defs>
    <path stroke="url(#a)"
          stroke-width="3"
          stroke-linejoin="round"
          stroke-linecap="round"
          d="M5 40 C 6.43 39.55, 8.52 38.65, 10 38.42 S 13.5 38.42, 15 38.42 S 18.5 38.42, 20 38.42 S 23.5 38.42, 25 38.42 S 28.5 38.42, 30 38.42 S 33.5 38.42, 35 38.42 S 38.5 38.42, 40 38.42 S 43.5 38.42, 45 38.42 S 48.5 38.42, 50 38.42 S 53.5 38.42, 55 38.42 S 58.5 38.42, 60 38.42 S 63.5 38.42, 65 38.42 S 68.5 38.42, 70 38.42 S 73.64 39.06, 75 38.42 S 78.5 33.68, 80 33.68 S 83.57 38.87, 85 38.42 S 88.73 31.33, 90 30.53 S 93.64 31.47, 95 32.11 S 98.57 34.81, 100 35.26 S 103.73 36.06, 105 35.26 S 108.82 29.88, 110 28.95 S 114.3 28.7, 115 27.37 S 118.5 10, 120 10 S 124.07 26.19, 125 27.37 S 128.64 21.99, 130 22.63 S 133.91 31.08, 135 32.11 S 138.57 31.66, 140 32.11 S 143.82 36.19, 145 35.26 S 148.91 25.24, 150 24.21 S 153.52 26.02, 155 25.79 S 158.52 22.4, 160 22.63 S 163.82 26.44, 165 27.37 S 168.52 30.3, 170 30.53 S 174.07 30.13, 175 28.95 S 178.57 17.44, 180 17.89 S 183.73 31.31, 185 32.11 S 188.73 25.01, 190 24.21 S 193.64 26.43, 195 25.79 S 198.99 20.58, 200 19.47 S 203.91 15.77, 205 14.74"
          fill="none"/>
    <circle r="4" cx="5" cy="40" fill="#3023AE"/>
    <circle r="4" cx="205" cy="14.739999999999998" fill="#C86DD7"/>      
</svg>