<svg width="200" height="50" viewBox="0 0 210 50" xmlns="http://www.w3.org/2000/svg">
    <defs>
        <linearGradient x1="0%" y1="0%" x2="100%" y2="0%" id="a">
            <stop stop-color="#3023AE" offset="0%"/>
            <stop stop-color="#C86DD7" offset="100%"/>
        </linearGradient>
    </defs>
    <path stroke="url(#a)"
          stroke-width="3"
          stroke-linejoin="round"
          stroke-linecap="round"
          d="M5 40 C 6.27 39.21, 8.51 37.05, 10 36.9 S 13.5 38.97, 15 38.97 S 18.79 37.78, 20 36.9 S 23.51 31.88, 25 31.72 S 28.67 35.17, 30 35.86 S 33.57 36.45, 35 36.9 S 38.53 39.27, 40 38.97 S 43.5 34.83, 45 34.83 S 48.61 38.4, 50 38.97 S 53.5 38.97, 55 38.97 S 58.5 38.97, 60 38.97 S 63.5 38.97, 65 38.97 S 68.5 38.97, 70 38.97 S 73.5 38.97, 75 38.97 S 78.5 38.97, 80 38.97 S 83.53 39.27, 85 38.97 S 88.61 37.47, 90 36.9 S 94.01 35.96, 95 34.83 S 98.51 25.37, 100 25.52 S 104.01 34.73, 105 35.86 S 108.57 36.45, 110 36.9 S 113.67 39.66, 115 38.97 S 118.53 32.02, 120 31.72 S 124.37 38.26, 125 36.9 S 128.57 10.45, 130 10 S 134.37 32.43, 135 33.79 S 138.96 32.8, 140 31.72 S 143.57 23.89, 145 23.45 S 148.79 27.74, 150 28.62 S 153.96 29.61, 155 30.69 S 158.73 38.18, 160 38.97 S 163.53 37.2, 165 36.9 S 168.57 37.35, 170 36.9 S 173.53 33.49, 175 33.79 S 178.67 39.66, 180 38.97 S 183.57 29.07, 185 28.62 S 188.73 35.07, 190 35.86 S 193.51 34.67, 195 34.83 S 198.51 37.06, 200 36.9 S 203.73 34.58, 205 33.79"
          fill="none"/>
    <circle r="4" cx="5" cy="40" fill="#3023AE"/>
    <circle r="4" cx="205" cy="33.79" fill="#C86DD7"/>      
</svg>