<svg width="200" height="50" viewBox="0 0 210 50" xmlns="http://www.w3.org/2000/svg">
    <defs>
        <linearGradient x1="0%" y1="0%" x2="100%" y2="0%" id="a">
            <stop stop-color="#3023AE" offset="0%"/>
            <stop stop-color="#C86DD7" offset="100%"/>
        </linearGradient>
    </defs>
    <path stroke="url(#a)"
          stroke-width="3"
          stroke-linejoin="round"
          stroke-linecap="round"
          d="M5 40 C 5.25 38.52, 8.88 10.99, 10 10 S 14.45 29.77, 15 31.17 S 18.72 34.69, 20 35.47 S 23.52 37.07, 25 37.3 S 28.5 37.1, 30 37.01 S 33.5 36.63, 35 36.72 S 38.5 37.47, 40 37.59 S 43.51 37.38, 45 37.52 S 48.52 38.31, 50 38.54 S 53.51 38.88, 55 39.05 S 58.51 39.89, 60 39.71 S 63.91 38.84, 65 37.81 S 68.65 30.87, 70 30.22 S 73.54 32.66, 75 32.99 S 78.5 32.49, 80 32.48 S 83.56 33.33, 85 32.92 S 88.51 29.78, 90 29.64 S 93.59 31.47, 95 31.97 S 98.53 32.93, 100 33.21 S 103.5 33.91, 105 33.87 S 108.5 32.95, 110 32.92 S 113.5 33.6, 115 33.65 S 118.58 33.76, 120 33.28 S 123.52 30.53, 125 30.29 S 128.55 31.31, 130 31.68 S 133.52 32.6, 135 32.85 S 138.5 33.33, 140 33.36 S 143.5 33.08, 145 33.07 S 148.5 33.4, 150 33.28 S 153.5 32.18, 155 32.26 S 158.51 33.59, 160 33.8 S 163.5 33.64, 165 33.65 S 168.5 33.98, 170 33.87 S 173.5 32.96, 175 32.92 S 178.52 33.35, 180 33.58 S 183.52 34.71, 185 34.45 S 188.52 32.04, 190 31.82 S 193.54 32.63, 195 32.99 S 198.51 34.14, 200 34.31 S 203.5 34.2, 205 34.16"
          fill="none"/>
    <circle r="4" cx="5" cy="40" fill="#3023AE"/>
    <circle r="4" cx="205" cy="34.16" fill="#C86DD7"/>      
</svg>