<svg width="200" height="50" viewBox="0 0 210 50" xmlns="http://www.w3.org/2000/svg">
    <defs>
        <linearGradient x1="0%" y1="0%" x2="100%" y2="0%" id="a">
            <stop stop-color="#3023AE" offset="0%"/>
            <stop stop-color="#C86DD7" offset="100%"/>
        </linearGradient>
    </defs>
    <path stroke="url(#a)"
          stroke-width="3"
          stroke-linejoin="round"
          stroke-linecap="round"
          d="M5 40 C 6.5 39.91, 8.5 39.71, 10 39.71 S 13.5 39.94, 15 39.98 S 18.5 39.98, 20 39.98 S 23.5 39.98, 25 39.98 S 28.5 39.98, 30 39.98 S 33.73 40.78, 35 39.97 S 38.5 33.66, 40 33.61 S 43.72 38.88, 45 39.66 S 48.5 39.72, 50 39.74 S 53.5 39.81, 55 39.8 S 58.5 39.69, 60 39.68 S 63.5 39.72, 65 39.72 S 68.5 39.71, 70 39.71 S 73.5 39.73, 75 39.72 S 78.5 39.65, 80 39.66 S 83.5 39.82, 85 39.79 S 88.5 39.5, 90 39.45 S 93.5 39.44, 95 39.45 S 98.5 39.49, 100 39.53 S 103.5 39.69, 105 39.71 S 108.5 39.71, 110 39.69 S 113.5 39.58, 115 39.56 S 118.5 39.53, 120 39.54 S 123.5 39.65, 125 39.65 S 128.51 39.72, 130 39.56 S 133.5 38.64, 135 38.59 S 138.51 39.1, 140 39.25 S 144.51 41.01, 145 39.59 S 148.62 10.58, 150 10 S 154.48 33.99, 155 35.4 S 158.52 36.67, 160 36.93 S 163.52 36.97, 165 37.19 S 168.5 38.43, 170 38.43 S 173.51 37.29, 175 37.16 S 178.5 37.6, 180 37.57 S 183.5 36.82, 185 36.94 S 188.52 38.14, 190 38.36 S 193.52 38.65, 195 38.43 S 198.51 37.01, 200 36.87 S 203.51 37.28, 205 37.46"
          fill="none"/>
    <circle r="4" cx="5" cy="40" fill="#3023AE"/>
    <circle r="4" cx="205" cy="37.46" fill="#C86DD7"/>      
</svg>