<svg width="200" height="50" viewBox="0 0 210 50" xmlns="http://www.w3.org/2000/svg">
    <defs>
        <linearGradient x1="0%" y1="0%" x2="100%" y2="0%" id="a">
            <stop stop-color="#3023AE" offset="0%"/>
            <stop stop-color="#C86DD7" offset="100%"/>
        </linearGradient>
    </defs>
    <path stroke="url(#a)"
          stroke-width="3"
          stroke-linejoin="round"
          stroke-linecap="round"
          d="M5 40 C 6.5 39.92, 8.5 39.78, 10 39.72 S 14.52 41, 15 39.58 S 18.56 10.43, 20 10 S 24.49 35.21, 25 36.62 S 28.5 37.67, 30 37.61 S 34.39 37.57, 35 36.2 S 39.1 16.27, 40 15.07 S 44.4 21.58, 45 22.96 S 49.09 36.84, 50 38.03 S 53.5 36.12, 55 36.06 S 58.51 37.44, 60 37.61 S 63.51 37.33, 65 37.18 S 68.57 37.06, 70 36.62 S 73.5 34.14, 75 34.08 S 78.58 35.72, 80 36.2 S 83.53 37.75, 85 37.46 S 88.51 34.1, 90 34.23 S 93.54 37.98, 95 38.31 S 98.51 36.61, 100 36.48 S 103.5 37.4, 105 37.46 S 108.5 36.88, 110 36.9 S 113.51 37.42, 115 37.61 S 118.5 38.19, 120 38.17 S 123.51 37.63, 125 37.46 S 128.5 37.14, 130 37.04 S 133.51 36.61, 135 36.76 S 138.51 37.9, 140 38.03 S 143.55 37.98, 145 37.61 S 148.77 36.34, 150 35.49 S 153.52 30.47, 155 30.7 S 158.75 36.21, 160 37.04 S 163.52 37.59, 165 37.32 S 168.52 35.46, 170 35.21 S 173.5 35.52, 175 35.63 S 178.51 36.09, 180 35.92 S 183.5 34.6, 185 34.51 S 188.53 35.06, 190 35.35 S 193.51 36.31, 195 36.48 S 198.5 36.46, 200 36.48 S 203.5 36.58, 205 36.62"
          fill="none"/>
    <circle r="4" cx="5" cy="40" fill="#3023AE"/>
    <circle r="4" cx="205" cy="36.62" fill="#C86DD7"/>      
</svg>