<svg width="200" height="50" viewBox="0 0 210 50" xmlns="http://www.w3.org/2000/svg">
    <defs>
        <linearGradient x1="0%" y1="0%" x2="100%" y2="0%" id="a">
            <stop stop-color="#3023AE" offset="0%"/>
            <stop stop-color="#C86DD7" offset="100%"/>
        </linearGradient>
    </defs>
    <path stroke="url(#a)"
          stroke-width="3"
          stroke-linejoin="round"
          stroke-linecap="round"
          d="M5 40 C 6.47 39.72, 8.66 39.72, 10 39.04 S 13.51 34.82, 15 34.95 S 18.65 39.22, 20 39.88 S 23.5 39.87, 25 39.87 S 28.51 40.08, 30 39.88 S 33.51 38.68, 35 38.5 S 38.5 38.71, 40 38.64 S 43.5 38.1, 45 38.06 S 48.5 38.24, 50 38.35 S 53.5 38.88, 55 38.77 S 58.5 37.69, 60 37.61 S 63.5 38.11, 65 38.22 S 68.51 38.51, 70 38.33 S 73.78 37.86, 75 36.98 S 78.62 31.69, 80 31.1 S 83.5 32.75, 85 32.69 S 88.73 31.52, 90 30.73 S 93.95 27.54, 95 26.47 S 98.51 20.49, 100 20.62 S 103.79 26.47, 105 27.35 S 108.5 27.82, 110 27.86 S 114.27 28.91, 115 27.6 S 118.75 9.17, 120 10 S 124.38 32.89, 125 34.26 S 128.53 32.48, 130 32.16 S 133.54 32.43, 135 32.07 S 138.52 29.89, 140 29.67 S 143.51 30.74, 145 30.62 S 148.51 29.02, 150 28.84 S 153.5 29.38, 155 29.44 S 158.5 29.22, 160 29.25 S 163.52 29.85, 165 29.62 S 168.58 28.21, 170 27.72 S 173.5 26.29, 175 26.2 S 178.7 27.84, 180 27.09 S 184.01 21.55, 185 20.42 S 188.54 15.32, 190 15.65 S 193.92 21.64, 195 22.68 S 198.51 25.41, 200 25.25 S 203.79 22.47, 205 21.58"
          fill="none"/>
    <circle r="4" cx="5" cy="40" fill="#3023AE"/>
    <circle r="4" cx="205" cy="21.58" fill="#C86DD7"/>      
</svg>