<svg width="200" height="50" viewBox="0 0 210 50" xmlns="http://www.w3.org/2000/svg">
    <defs>
        <linearGradient x1="0%" y1="0%" x2="100%" y2="0%" id="a">
            <stop stop-color="#3023AE" offset="0%"/>
            <stop stop-color="#C86DD7" offset="100%"/>
        </linearGradient>
    </defs>
    <path stroke="url(#a)"
          stroke-width="3"
          stroke-linejoin="round"
          stroke-linecap="round"
          d="M5 40 C 6.5 39.97, 8.5 39.91, 10 39.9 S 13.5 39.94, 15 39.95 S 18.5 39.95, 20 39.96 S 23.5 39.99, 25 39.99 S 28.5 39.96, 30 39.94 S 33.52 40.11, 35 39.87 S 38.55 38.71, 40 38.34 S 43.51 37.46, 45 37.29 S 48.59 37.67, 50 37.17 S 53.5 33.74, 55 33.74 S 58.52 36.9, 60 37.17 S 63.52 35.81, 65 35.54 S 68.78 36.23, 70 35.35 S 73.77 29.19, 75 28.33 S 78.51 28.47, 80 28.33 S 83.76 28.26, 85 27.42 S 88.93 22.64, 90 21.59 S 93.67 18.33, 95 17.64 S 98.51 16.66, 100 16.45 S 103.55 16.62, 105 16.25 S 108.5 13.88, 110 13.91 S 113.6 17.01, 115 16.46 S 118.69 10.73, 120 10 S 123.71 10.14, 125 10.9 S 128.94 14.79, 130 15.85 S 134.02 19.73, 135 20.87 S 139.04 26.3, 140 27.45 S 143.68 32.16, 145 32.87 S 148.5 32.8, 150 32.82 S 153.51 32.82, 155 33.01 S 158.5 34, 160 34.1 S 163.5 33.71, 165 33.71 S 168.5 34.06, 170 34.1 S 173.5 33.96, 175 34.01 S 178.5 34.33, 180 34.45 S 183.5 34.88, 185 34.82 S 188.51 34.2, 190 34.05 S 193.52 33.57, 195 33.84 S 198.5 35.83, 200 35.89 S 203.58 34.71, 205 34.24"
          fill="none"/>
    <circle r="4" cx="5" cy="40" fill="#3023AE"/>
    <circle r="4" cx="205" cy="34.24" fill="#C86DD7"/>      
</svg>