<svg width="200" height="50" viewBox="0 0 210 50" xmlns="http://www.w3.org/2000/svg">
    <defs>
        <linearGradient x1="0%" y1="0%" x2="100%" y2="0%" id="a">
            <stop stop-color="#3023AE" offset="0%"/>
            <stop stop-color="#C86DD7" offset="100%"/>
        </linearGradient>
    </defs>
    <path stroke="url(#a)"
          stroke-width="3"
          stroke-linejoin="round"
          stroke-linecap="round"
          d="M5 40 C 5.64 38.65, 9.17 30.75, 10 29.5 S 13.56 24.57, 15 25 S 18.97 31.41, 20 32.5 S 23.89 36.5, 25 35.5 S 28.52 23.72, 30 23.5 S 34.11 35.21, 35 34 S 38.5 10, 40 10 S 44.32 32.67, 45 34 S 48.56 29.93, 50 29.5 S 53.71 30.23, 55 31 S 58.71 34.73, 60 35.5 S 63.5 37, 65 37 S 68.52 35.28, 70 35.5 S 73.52 38.28, 75 38.5 S 78.63 37.62, 80 37 S 83.52 33.78, 85 34 S 88.5 38.5, 90 38.5 S 93.52 34.22, 95 34 S 98.56 36.57, 100 37 S 103.52 37.22, 105 37 S 108.52 35.28, 110 35.5 S 113.56 38.07, 115 38.5 S 118.52 38.72, 120 38.5 S 123.63 37.62, 125 37 S 128.52 33.78, 130 34 S 133.52 38.28, 135 38.5 S 138.5 35.5, 140 35.5 S 143.56 38.93, 145 38.5 S 148.63 33.12, 150 32.5 S 153.63 33.38, 155 34 S 158.56 36.57, 160 37 S 163.52 36.78, 165 37 S 168.63 39.12, 170 38.5 S 173.56 32.93, 175 32.5 S 178.63 34.88, 180 35.5 S 183.52 36.78, 185 37 S 188.52 36.78, 190 37 S 193.52 38.28, 195 38.5 S 198.5 38.5, 200 38.5"
          fill="none"/>
    <circle r="4" cx="5" cy="40" fill="#3023AE"/>
    <circle r="4" cx="200" cy="38.5" fill="#C86DD7"/>      
</svg>