<svg width="200" height="50" viewBox="0 0 210 50" xmlns="http://www.w3.org/2000/svg">
    <defs>
        <linearGradient x1="0%" y1="0%" x2="100%" y2="0%" id="a">
            <stop stop-color="#3023AE" offset="0%"/>
            <stop stop-color="#C86DD7" offset="100%"/>
        </linearGradient>
    </defs>
    <path stroke="url(#a)"
          stroke-width="3"
          stroke-linejoin="round"
          stroke-linecap="round"
          d="M5 40 C 6.5 39.98, 8.5 40.02, 10 39.93 S 14.52 40.84, 15 39.42 S 18.56 10.43, 20 10 S 24.46 35.01, 25 36.41 S 28.5 35.82, 30 35.73 S 33.5 35.73, 35 35.84 S 38.5 36.48, 40 36.48 S 43.51 36, 45 35.82 S 48.51 35.38, 50 35.26 S 53.5 35, 55 34.99 S 58.52 34.95, 60 35.17 S 63.5 36.53, 65 36.46 S 68.52 34.94, 70 34.72 S 73.51 34.82, 75 34.96 S 78.5 35.66, 80 35.69 S 83.51 35.34, 85 35.14 S 88.52 34.57, 90 34.34 S 93.5 33.69, 95 33.59 S 98.5 33.62, 100 33.7 S 103.5 34.04, 105 34.13 S 108.5 34.34, 110 34.33 S 113.5 34.09, 115 34.04 S 118.5 33.94, 120 33.98 S 123.5 34.24, 125 34.31 S 128.5 34.44, 130 34.47 S 133.5 34.48, 135 34.52 S 138.5 34.84, 140 34.74 S 143.51 33.99, 145 33.85 S 148.5 33.89, 150 33.77 S 153.5 33.02, 155 33.05 S 158.5 33.86, 160 33.97 S 163.5 33.8, 165 33.77 S 168.5 33.72, 170 33.77 S 173.5 34.14, 175 34.12 S 178.51 33.77, 180 33.63 S 183.51 33.34, 185 33.2 S 188.5 32.79, 190 32.67 S 193.5 32.35, 195 32.4 S 198.5 33.03, 200 33.03 S 203.51 32.57, 205 32.37"
          fill="none"/>
    <circle r="4" cx="5" cy="40" fill="#3023AE"/>
    <circle r="4" cx="205" cy="32.37" fill="#C86DD7"/>      
</svg>