<svg width="200" height="50" viewBox="0 0 210 50" xmlns="http://www.w3.org/2000/svg">
    <defs>
        <linearGradient x1="0%" y1="0%" x2="100%" y2="0%" id="a">
            <stop stop-color="#3023AE" offset="0%"/>
            <stop stop-color="#C86DD7" offset="100%"/>
        </linearGradient>
    </defs>
    <path stroke="url(#a)"
          stroke-width="3"
          stroke-linejoin="round"
          stroke-linecap="round"
          d="M5 40 C 6.32 39.29, 8.52 37.58, 10 37.32 S 13.5 38.21, 15 38.25 S 18.51 37.71, 20 37.57 S 23.5 37.34, 25 37.32 S 28.51 37.62, 30 37.42 S 33.56 36.38, 35 35.95 S 38.57 34.86, 40 34.4 S 43.54 33.05, 45 32.72 S 48.52 32.38, 50 32.14 S 53.54 31.4, 55 31.07 S 58.57 30.31, 60 29.87 S 63.5 28.1, 65 28.02 S 68.5 29.34, 70 29.32 S 74.31 29.24, 75 27.91 S 78.51 10.16, 80 10 S 84.24 25.51, 85 26.81 S 88.69 27.87, 90 27.14 S 93.53 21.57, 95 21.28 S 98.6 24.62, 100 25.16 S 103.58 25.62, 105 25.14 S 108.66 22.44, 110 21.76 S 113.5 19.92, 115 20.03 S 118.58 21.99, 120 22.49 S 123.52 23.81, 125 23.54 S 128.59 21.18, 130 20.68 S 133.58 20.49, 135 20.01 S 138.63 17.93, 140 17.31 S 143.5 15.51, 145 15.48 S 148.6 16.55, 150 17.08 S 153.5 19.25, 155 19.23 S 158.5 16.86, 160 16.96 S 163.56 19.52, 165 19.93 S 168.5 19.82, 170 19.78 S 173.5 19.55, 175 19.66 S 178.52 20.26, 180 20.51 S 183.5 21.26, 185 21.36 S 188.51 21.35, 190 21.16 S 193.54 19.71, 195 20.06 S 198.51 23.43, 200 23.59 S 203.65 21.79, 205 21.13"
          fill="none"/>
    <circle r="4" cx="5" cy="40" fill="#3023AE"/>
    <circle r="4" cx="205" cy="21.13" fill="#C86DD7"/>      
</svg>