<svg width="200" height="50" viewBox="0 0 210 50" xmlns="http://www.w3.org/2000/svg">
    <defs>
        <linearGradient x1="0%" y1="0%" x2="100%" y2="0%" id="a">
            <stop stop-color="#3023AE" offset="0%"/>
            <stop stop-color="#C86DD7" offset="100%"/>
        </linearGradient>
    </defs>
    <path stroke="url(#a)"
          stroke-width="3"
          stroke-linejoin="round"
          stroke-linecap="round"
          d="M5 40 C 5.25 38.52, 8.78 10.87, 10 10 S 14.48 31.45, 15 32.86 S 18.62 36.55, 20 37.14 S 23.52 37.35, 25 37.14 S 29.01 36.84, 30 35.71 S 33.56 26.12, 35 25.71 S 38.94 31.8, 40 32.86 S 43.56 35.3, 45 35.71 S 48.62 36.3, 50 35.71 S 53.56 31.02, 55 31.43 S 58.78 37.7, 60 38.57 S 63.5 38.57, 65 38.57 S 68.52 38.78, 70 38.57 S 73.56 37.55, 75 37.14 S 78.52 35.92, 80 35.71 S 83.5 35.71, 85 35.71 S 88.52 35.5, 90 35.71 S 93.56 36.73, 95 37.14 S 98.52 38.36, 100 38.57 S 103.52 38.78, 105 38.57 S 108.86 38.12, 110 37.14 S 113.52 29.79, 115 30 S 118.86 37.59, 120 38.57 S 123.56 38.98, 125 38.57 S 128.7 36.45, 130 35.71 S 133.5 32.86, 135 32.86 S 138.52 35.5, 140 35.71 S 143.56 33.88, 145 34.29 S 148.62 37.98, 150 38.57 S 153.62 39.16, 155 38.57 S 158.5 34.29, 160 34.29 S 163.56 38.98, 165 38.57 S 168.7 32.17, 170 31.43 S 173.56 32.45, 175 32.86 S 178.52 34.08, 180 34.29 S 183.52 34.5, 185 34.29 S 188.5 32.86, 190 32.86 S 193.7 33.55, 195 34.29 S 198.51 38.36, 200 38.57 S 203.7 36.45, 205 35.71"
          fill="none"/>
    <circle r="4" cx="5" cy="40" fill="#3023AE"/>
    <circle r="4" cx="205" cy="35.71" fill="#C86DD7"/>      
</svg>