<svg width="200" height="50" viewBox="0 0 210 50" xmlns="http://www.w3.org/2000/svg">
    <defs>
        <linearGradient x1="0%" y1="0%" x2="100%" y2="0%" id="a">
            <stop stop-color="#3023AE" offset="0%"/>
            <stop stop-color="#C86DD7" offset="100%"/>
        </linearGradient>
    </defs>
    <path stroke="url(#a)"
          stroke-width="3"
          stroke-linejoin="round"
          stroke-linecap="round"
          d="M5 40 C 5.25 38.52, 8.78 10.87, 10 10 S 14.46 31.46, 15 32.86 S 18.52 35.5, 20 35.71 S 23.94 35.35, 25 34.29 S 28.56 26.12, 30 25.71 S 33.94 30.37, 35 31.43 S 38.5 35.71, 40 35.71 S 43.5 31.43, 45 31.43 S 48.78 34.84, 50 35.71 S 53.56 38.16, 55 38.57 S 58.56 38.98, 60 38.57 S 63.52 35.92, 65 35.71 S 68.51 37.35, 70 37.14 S 73.56 34.7, 75 34.29 S 78.62 33.7, 80 34.29 S 83.62 37.98, 85 38.57 S 88.86 39.55, 90 38.57 S 93.56 30.41, 95 30 S 98.86 34.73, 100 35.71 S 103.5 38.57, 105 38.57 S 108.78 36.58, 110 35.71 S 113.62 32.02, 115 31.43 S 118.78 30.56, 120 31.43 S 123.78 37.7, 125 38.57 S 128.62 39.16, 130 38.57 S 133.7 35.03, 135 34.29 S 138.62 33.45, 140 32.86 S 143.52 29.79, 145 30 S 148.7 33.55, 150 34.29 S 153.56 36.12, 155 35.71 S 158.51 31.64, 160 31.43 S 163.78 33.42, 165 34.29 S 168.51 38.36, 170 38.57 S 173.78 36.58, 175 35.71 S 178.56 31.02, 180 31.43 S 183.7 37.83, 185 38.57 S 188.5 37.14, 190 37.14 S 193.5 38.57, 195 38.57 S 198.86 38.12, 200 37.14 S 204.14 31.23, 205 30"
          fill="none"/>
    <circle r="4" cx="5" cy="40" fill="#3023AE"/>
    <circle r="4" cx="205" cy="30" fill="#C86DD7"/>      
</svg>