<svg width="200" height="50" viewBox="0 0 210 50" xmlns="http://www.w3.org/2000/svg">
    <defs>
        <linearGradient x1="0%" y1="0%" x2="100%" y2="0%" id="a">
            <stop stop-color="#3023AE" offset="0%"/>
            <stop stop-color="#C86DD7" offset="100%"/>
        </linearGradient>
    </defs>
    <path stroke="url(#a)"
          stroke-width="3"
          stroke-linejoin="round"
          stroke-linecap="round"
          d="M5 40 C 5.25 38.52, 8.78 10.87, 10 10 S 14.48 31.45, 15 32.86 S 18.62 36.55, 20 37.14 S 23.7 37.88, 25 37.14 S 28.86 32.41, 30 31.43 S 33.5 28.57, 35 28.57 S 38.86 30.45, 40 31.43 S 43.52 36.93, 45 37.14 S 48.52 33.07, 50 32.86 S 53.7 34.97, 55 35.71 S 58.56 38.16, 60 38.57 S 63.52 38.78, 65 38.57 S 68.62 37.73, 70 37.14 S 73.5 34.29, 75 34.29 S 78.56 36.73, 80 37.14 S 83.52 37.35, 85 37.14 S 88.5 35.71, 90 35.71 S 93.56 36.73, 95 37.14 S 98.5 38.57, 100 38.57 S 103.86 38.12, 105 37.14 S 108.52 29.79, 110 30 S 113.86 37.59, 115 38.57 S 118.56 38.98, 120 38.57 S 123.7 36.45, 125 35.71 S 128.51 33.07, 130 32.86 S 133.56 33.88, 135 34.29 S 138.62 35.12, 140 35.71 S 143.52 38.36, 145 38.57 S 148.56 37.55, 150 37.14 S 153.56 36.12, 155 35.71 S 158.78 35.16, 160 34.29 S 163.62 27.98, 165 28.57 S 168.78 37.7, 170 38.57 S 173.86 36.69, 175 35.71 S 178.5 30, 180 30 S 183.7 34.97, 185 35.71 S 188.56 35.3, 190 35.71 S 193.5 38.57, 195 38.57 S 198.7 36.45, 200 35.71 S 203.7 33.6, 205 32.86"
          fill="none"/>
    <circle r="4" cx="5" cy="40" fill="#3023AE"/>
    <circle r="4" cx="205" cy="32.86" fill="#C86DD7"/>      
</svg>