<svg width="200" height="50" viewBox="0 0 210 50" xmlns="http://www.w3.org/2000/svg">
    <defs>
        <linearGradient x1="0%" y1="0%" x2="100%" y2="0%" id="a">
            <stop stop-color="#3023AE" offset="0%"/>
            <stop stop-color="#C86DD7" offset="100%"/>
        </linearGradient>
    </defs>
    <path stroke="url(#a)"
          stroke-width="3"
          stroke-linejoin="round"
          stroke-linecap="round"
          d="M5 40 C 5.25 38.52, 8.78 10.87, 10 10 S 14.48 31.45, 15 32.86 S 18.62 36.55, 20 37.14 S 23.56 37.55, 25 37.14 S 29.01 35.42, 30 34.29 S 33.52 25.92, 35 25.71 S 38.94 31.8, 40 32.86 S 43.56 35.3, 45 35.71 S 48.56 36.12, 50 35.71 S 53.56 32.45, 55 32.86 S 58.7 37.83, 60 38.57 S 63.52 38.78, 65 38.57 S 68.52 37.35, 70 37.14 S 73.5 37.14, 75 37.14 S 78.56 37.55, 80 37.14 S 83.52 34.5, 85 34.29 S 88.56 35.3, 90 35.71 S 93.56 36.73, 95 37.14 S 98.52 38.36, 100 38.57 S 103.7 39.31, 105 38.57 S 108.62 33.45, 110 32.86 S 113.7 33.55, 115 34.29 S 118.51 38.36, 120 38.57 S 123.52 35.92, 125 35.71 S 128.51 37.35, 130 37.14 S 133.7 35.03, 135 34.29 S 138.62 30.84, 140 31.43 S 143.78 37.7, 145 38.57 S 148.56 38.98, 150 38.57 S 153.52 35.92, 155 35.71 S 158.56 37.55, 160 37.14 S 163.7 33.6, 165 32.86 S 168.52 31.22, 170 31.43 S 173.62 33.7, 175 34.29 S 178.5 35.71, 180 35.71 S 183.62 34.88, 185 34.29 S 188.62 30.84, 190 31.43 S 193.7 37.83, 195 38.57 S 198.52 37.35, 200 37.14 S 203.5 37.14, 205 37.14"
          fill="none"/>
    <circle r="4" cx="5" cy="40" fill="#3023AE"/>
    <circle r="4" cx="205" cy="37.14" fill="#C86DD7"/>      
</svg>