<svg width="200" height="50" viewBox="0 0 210 50" xmlns="http://www.w3.org/2000/svg">
    <defs>
        <linearGradient x1="0%" y1="0%" x2="100%" y2="0%" id="a">
            <stop stop-color="#3023AE" offset="0%"/>
            <stop stop-color="#C86DD7" offset="100%"/>
        </linearGradient>
    </defs>
    <path stroke="url(#a)"
          stroke-width="3"
          stroke-linejoin="round"
          stroke-linecap="round"
          d="M5 40 C 5.25 38.52, 8.78 10.87, 10 10 S 14.48 31.45, 15 32.86 S 18.62 36.55, 20 37.14 S 23.56 37.55, 25 37.14 S 29.01 35.42, 30 34.29 S 33.52 25.92, 35 25.71 S 38.94 31.8, 40 32.86 S 43.5 35.71, 45 35.71 S 48.5 32.86, 50 32.86 S 53.7 34.97, 55 35.71 S 58.56 38.16, 60 38.57 S 63.52 38.78, 65 38.57 S 68.56 37.55, 70 37.14 S 73.52 35.5, 75 35.71 S 78.51 38.78, 80 38.57 S 83.56 34.7, 85 34.29 S 88.56 35.3, 90 35.71 S 93.56 36.73, 95 37.14 S 98.5 38.57, 100 38.57 S 103.7 37.88, 105 37.14 S 108.52 33.07, 110 32.86 S 113.7 34.97, 115 35.71 S 118.5 38.57, 120 38.57 S 123.7 36.45, 125 35.71 S 128.52 32.65, 130 32.86 S 133.5 37.14, 135 37.14 S 138.52 32.65, 140 32.86 S 143.7 37.83, 145 38.57 S 148.62 39.16, 150 38.57 S 153.5 34.29, 155 34.29 S 158.7 39.31, 160 38.57 S 163.56 28.98, 165 28.57 S 168.7 34.97, 170 35.71 S 173.51 34.5, 175 34.29 S 178.52 34.5, 180 34.29 S 183.5 32.86, 185 32.86 S 188.7 33.55, 190 34.29 S 193.5 38.57, 195 38.57 S 198.5 34.29, 200 34.29 S 203.86 37.59, 205 38.57"
          fill="none"/>
    <circle r="4" cx="5" cy="40" fill="#3023AE"/>
    <circle r="4" cx="205" cy="38.57" fill="#C86DD7"/>      
</svg>