<svg width="200" height="50" viewBox="0 0 210 50" xmlns="http://www.w3.org/2000/svg">
    <defs>
        <linearGradient x1="0%" y1="0%" x2="100%" y2="0%" id="a">
            <stop stop-color="#3023AE" offset="0%"/>
            <stop stop-color="#C86DD7" offset="100%"/>
        </linearGradient>
    </defs>
    <path stroke="url(#a)"
          stroke-width="3"
          stroke-linejoin="round"
          stroke-linecap="round"
          d="M5 40 C 5.25 38.52, 8.6 10.55, 10 10 S 14.44 34.7, 15 36.09 S 18.74 35.6, 20 34.78 S 23.82 30.49, 25 29.57 S 28.67 26.27, 30 26.96 S 33.67 34.09, 35 34.78 S 38.51 31.98, 40 32.17 S 43.74 35.27, 45 36.09 S 48.51 38.51, 50 38.7 S 53.6 37.94, 55 37.39 S 58.55 35.16, 60 34.78 S 63.51 34.59, 65 34.78 S 68.55 35.71, 70 36.09 S 73.55 37.01, 75 37.39 S 78.74 39.52, 80 38.7 S 83.55 31.25, 85 30.87 S 88.6 35.54, 90 36.09 S 93.55 35.16, 95 34.78 S 98.5 33.48, 100 33.48 S 103.55 34.4, 105 34.78 S 108.55 35.71, 110 36.09 S 113.51 37.58, 115 37.39 S 118.67 35.47, 120 34.78 S 123.55 32.55, 125 32.17 S 128.55 31.79, 130 32.17 S 133.51 34.97, 135 34.78 S 138.55 31.25, 140 30.87 S 143.82 31.25, 145 32.17 S 148.6 38.15, 150 38.7 S 153.74 36.91, 155 36.09 S 158.5 32.17, 160 32.17 S 163.74 35.27, 165 36.09 S 168.55 38.32, 170 38.7 S 173.82 39.62, 175 38.7 S 178.51 31.06, 180 30.87 S 183.82 36.47, 185 37.39 S 188.51 38.51, 190 38.7 S 193.5 38.7, 195 38.7 S 198.51 38.89, 200 38.7 S 203.55 37.77, 205 37.39"
          fill="none"/>
    <circle r="4" cx="5" cy="40" fill="#3023AE"/>
    <circle r="4" cx="205" cy="37.39" fill="#C86DD7"/>      
</svg>