<svg width="200" height="50" viewBox="0 0 210 50" xmlns="http://www.w3.org/2000/svg">
    <defs>
        <linearGradient x1="0%" y1="0%" x2="100%" y2="0%" id="a">
            <stop stop-color="#3023AE" offset="0%"/>
            <stop stop-color="#C86DD7" offset="100%"/>
        </linearGradient>
    </defs>
    <path stroke="url(#a)"
          stroke-width="3"
          stroke-linejoin="round"
          stroke-linecap="round"
          d="M5 40 C 5.25 38.52, 8.78 10.87, 10 10 S 14.48 31.45, 15 32.86 S 18.62 36.55, 20 37.14 S 23.86 38.12, 25 37.14 S 28.94 29.63, 30 28.57 S 33.78 26.27, 35 27.14 S 38.86 34.73, 40 35.71 S 43.62 36.3, 45 35.71 S 48.52 31.22, 50 31.43 S 53.78 36.27, 55 37.14 S 58.52 38.36, 60 38.57 S 63.52 38.78, 65 38.57 S 68.56 37.55, 70 37.14 S 73.56 36.12, 75 35.71 S 78.5 34.29, 80 34.29 S 83.56 35.3, 85 35.71 S 88.56 36.73, 90 37.14 S 93.5 38.57, 95 38.57 S 98.7 37.88, 100 37.14 S 103.52 33.07, 105 32.86 S 108.7 34.97, 110 35.71 S 113.5 38.57, 115 38.57 S 118.7 36.45, 120 35.71 S 123.51 33.07, 125 32.86 S 128.56 33.88, 130 34.29 S 133.62 35.12, 135 35.71 S 138.52 38.36, 140 38.57 S 143.56 37.55, 145 37.14 S 148.7 36.45, 150 35.71 S 153.62 32.02, 155 31.43 S 158.62 30.84, 160 31.43 S 163.78 34.84, 165 35.71 S 168.7 39.31, 170 38.57 S 173.78 30.87, 175 30 S 178.86 30.45, 180 31.43 S 183.62 37.98, 185 38.57 S 188.5 35.71, 190 35.71 S 193.56 38.98, 195 38.57 S 198.52 33.07, 200 32.86 S 203.86 36.16, 205 37.14"
          fill="none"/>
    <circle r="4" cx="5" cy="40" fill="#3023AE"/>
    <circle r="4" cx="205" cy="37.14" fill="#C86DD7"/>      
</svg>