<svg width="200" height="50" viewBox="0 0 210 50" xmlns="http://www.w3.org/2000/svg">
    <defs>
        <linearGradient x1="0%" y1="0%" x2="100%" y2="0%" id="a">
            <stop stop-color="#3023AE" offset="0%"/>
            <stop stop-color="#C86DD7" offset="100%"/>
        </linearGradient>
    </defs>
    <path stroke="url(#a)"
          stroke-width="3"
          stroke-linejoin="round"
          stroke-linecap="round"
          d="M5 40 C 5.25 38.52, 8.64 10.63, 10 10 S 13.96 34.3, 15 35.38 S 18.54 20.72, 20 20.38 S 24.02 31.95, 25 33.08 S 28.7 31.17, 30 31.92 S 33.51 38.68, 35 38.85 S 38.7 33.83, 40 33.08 S 43.64 32.45, 45 33.08 S 48.5 37.69, 50 37.69 S 53.58 33.57, 55 33.08 S 58.54 34.57, 60 34.23 S 63.58 31.26, 65 30.77 S 68.77 29.92, 70 30.77 S 73.51 37.52, 75 37.69 S 78.83 32.86, 80 31.92 S 83.58 30.11, 85 29.62 S 88.58 27.97, 90 28.46 S 93.77 32.23, 95 33.08 S 98.5 35.38, 100 35.38 S 103.5 33.08, 105 33.08 S 108.54 35.72, 110 35.38 S 113.54 30.43, 115 30.77 S 118.83 36.75, 120 37.69 S 123.54 39.19, 125 38.85 S 128.5 35.38, 130 35.38 S 133.51 39.02, 135 38.85 S 138.64 34.86, 140 34.23 S 143.5 34.23, 145 34.23 S 148.58 33.74, 150 34.23 S 153.54 38.03, 155 37.69 S 158.51 31.75, 160 31.92 S 163.64 38.22, 165 38.85 S 168.54 36.88, 170 36.54 S 173.51 36.71, 175 36.54 S 178.51 35.55, 180 35.38 S 183.5 35.38, 185 35.38 S 188.58 34.89, 190 35.38 S 193.58 38.36, 195 38.85 S 198.54 39.19, 200 38.85 S 203.64 37.17, 205 36.54"
          fill="none"/>
    <circle r="4" cx="5" cy="40" fill="#3023AE"/>
    <circle r="4" cx="205" cy="36.54" fill="#C86DD7"/>      
</svg>