<svg width="200" height="50" viewBox="0 0 210 50" xmlns="http://www.w3.org/2000/svg">
    <defs>
        <linearGradient x1="0%" y1="0%" x2="100%" y2="0%" id="a">
            <stop stop-color="#3023AE" offset="0%"/>
            <stop stop-color="#C86DD7" offset="100%"/>
        </linearGradient>
    </defs>
    <path stroke="url(#a)"
          stroke-width="3"
          stroke-linejoin="round"
          stroke-linecap="round"
          d="M5 40 C 5.25 38.52, 8.78 10.87, 10 10 S 14.46 31.46, 15 32.86 S 18.56 35.3, 20 35.71 S 24.01 36.84, 25 35.71 S 28.56 24.7, 30 24.29 S 33.94 31.8, 35 32.86 S 38.52 34.5, 40 34.29 S 43.56 31.02, 45 31.43 S 48.7 36.4, 50 37.14 S 53.52 36.93, 55 37.14 S 58.5 38.57, 60 38.57 S 63.56 37.55, 65 37.14 S 68.56 36.12, 70 35.71 S 73.5 34.29, 75 34.29 S 78.56 35.3, 80 35.71 S 83.56 36.73, 85 37.14 S 88.5 38.57, 90 38.57 S 93.94 38.2, 95 37.14 S 98.52 28.36, 100 28.57 S 103.78 37.7, 105 38.57 S 108.7 36.45, 110 35.71 S 113.51 33.07, 115 32.86 S 118.56 33.88, 120 34.29 S 123.62 35.12, 125 35.71 S 128.51 38.78, 130 38.57 S 133.52 34.5, 135 34.29 S 138.7 37.88, 140 37.14 S 143.56 28.98, 145 28.57 S 148.78 33.42, 150 34.29 S 153.62 36.3, 155 35.71 S 158.51 30.21, 160 30 S 163.78 33.42, 165 34.29 S 168.5 37.14, 170 37.14 S 173.52 34.08, 175 34.29 S 178.52 38.78, 180 38.57 S 183.56 33.27, 185 32.86 S 188.7 34.97, 190 35.71 S 193.56 38.16, 195 38.57 S 198.78 39.44, 200 38.57 S 204.14 32.66, 205 31.43"
          fill="none"/>
    <circle r="4" cx="5" cy="40" fill="#3023AE"/>
    <circle r="4" cx="205" cy="31.43" fill="#C86DD7"/>      
</svg>