<svg width="200" height="50" viewBox="0 0 210 50" xmlns="http://www.w3.org/2000/svg">
    <defs>
        <linearGradient x1="0%" y1="0%" x2="100%" y2="0%" id="a">
            <stop stop-color="#3023AE" offset="0%"/>
            <stop stop-color="#C86DD7" offset="100%"/>
        </linearGradient>
    </defs>
    <path stroke="url(#a)"
          stroke-width="3"
          stroke-linejoin="round"
          stroke-linecap="round"
          d="M5 40 C 5.25 38.52, 8.64 10.63, 10 10 S 13.9 34.36, 15 35.38 S 18.54 19.57, 20 19.23 S 24.12 31.86, 25 33.08 S 28.64 32.45, 30 33.08 S 33.51 37.52, 35 37.69 S 38.7 34.98, 40 34.23 S 43.58 31.43, 45 31.92 S 48.58 38.18, 50 37.69 S 53.5 28.46, 55 28.46 S 58.54 37.35, 60 37.69 S 63.64 31.4, 65 30.77 S 68.54 32.74, 70 33.08 S 73.58 33.57, 75 33.08 S 78.5 29.62, 80 29.62 S 83.51 33.25, 85 33.08 S 88.58 27.97, 90 28.46 S 93.5 36.54, 95 36.54 S 98.5 28.46, 100 28.46 S 103.83 35.6, 105 36.54 S 108.7 37.29, 110 36.54 S 113.54 30.43, 115 30.77 S 118.77 38, 120 38.85 S 123.54 38.03, 125 37.69 S 128.54 36.88, 130 36.54 S 133.54 35.72, 135 35.38 S 138.54 34.57, 140 34.23 S 143.58 32.59, 145 33.08 S 148.51 37.52, 150 37.69 S 153.51 34.4, 155 34.23 S 158.54 36.2, 160 36.54 S 163.5 36.54, 165 36.54 S 168.51 36.71, 170 36.54 S 173.51 35.55, 175 35.38 S 178.5 35.38, 180 35.38 S 183.58 34.89, 185 35.38 S 188.58 38.36, 190 38.85 S 193.58 39.34, 195 38.85 S 198.51 35.55, 200 35.38 S 203.64 37.06, 205 37.69"
          fill="none"/>
    <circle r="4" cx="5" cy="40" fill="#3023AE"/>
    <circle r="4" cx="205" cy="37.69" fill="#C86DD7"/>      
</svg>