<svg width="200" height="50" viewBox="0 0 210 50" xmlns="http://www.w3.org/2000/svg">
    <defs>
        <linearGradient x1="0%" y1="0%" x2="100%" y2="0%" id="a">
            <stop stop-color="#3023AE" offset="0%"/>
            <stop stop-color="#C86DD7" offset="100%"/>
        </linearGradient>
    </defs>
    <path stroke="url(#a)"
          stroke-width="3"
          stroke-linejoin="round"
          stroke-linecap="round"
          d="M5 40 C 5.44 38.57, 9.53 25.27, 10 23.85 S 14.17 8.75, 15 10 S 19.51 37.43, 20 38.85 S 23.51 39.02, 25 38.85 S 28.5 37.69, 30 37.69 S 33.51 38.68, 35 38.85 S 38.5 38.85, 40 38.85 S 43.5 38.85, 45 38.85 S 48.5 38.85, 50 38.85 S 53.5 38.85, 55 38.85 S 58.5 38.85, 60 38.85 S 63.5 38.85, 65 38.85 S 68.5 38.85, 70 38.85 S 73.5 38.85, 75 38.85 S 78.5 38.85, 80 38.85 S 83.5 38.85, 85 38.85 S 88.5 38.85, 90 38.85 S 93.5 38.85, 95 38.85 S 98.5 38.85, 100 38.85 S 103.5 38.85, 105 38.85 S 108.5 38.85, 110 38.85 S 113.5 38.85, 115 38.85 S 118.5 38.85, 120 38.85 S 123.5 38.85, 125 38.85 S 128.64 39.48, 130 38.85 S 133.5 34.23, 135 34.23 S 138.58 38.36, 140 38.85 S 143.51 37.86, 145 37.69 S 148.5 37.69, 150 37.69 S 153.51 37.52, 155 37.69 S 158.51 38.68, 160 38.85 S 163.5 38.85, 165 38.85 S 169.29 40.17, 170 38.85 S 173.51 20.55, 175 20.38 S 178.58 38.18, 180 37.69 S 184.12 18.14, 185 16.92 S 189.35 22.5, 190 23.85 S 194.12 36.47, 195 37.69 S 198.96 38.77, 200 37.69 S 204.35 28.66, 205 27.31"
          fill="none"/>
    <circle r="4" cx="5" cy="40" fill="#3023AE"/>
    <circle r="4" cx="205" cy="27.310000000000002" fill="#C86DD7"/>      
</svg>