<svg width="200" height="50" viewBox="0 0 210 50" xmlns="http://www.w3.org/2000/svg">
    <defs>
        <linearGradient x1="0%" y1="0%" x2="100%" y2="0%" id="a">
            <stop stop-color="#3023AE" offset="0%"/>
            <stop stop-color="#C86DD7" offset="100%"/>
        </linearGradient>
    </defs>
    <path stroke="url(#a)"
          stroke-width="3"
          stroke-linejoin="round"
          stroke-linecap="round"
          d="M5 40 C 6.48 39.78, 8.6 39.81, 10 39.27 S 13.98 37.22, 15 36.12 S 18.62 29.11, 20 28.52 S 23.52 31.58, 25 31.83 S 28.5 30.17, 30 30.22 S 33.57 31.71, 35 32.16 S 38.53 33.07, 40 33.37 S 43.52 33.96, 45 34.18 S 48.51 34.69, 50 34.82 S 53.59 35.59, 55 35.07 S 58.63 31.71, 60 31.11 S 63.59 31.22, 65 30.7 S 68.51 27.59, 70 27.39 S 73.57 28.89, 75 29.33 S 78.57 30, 80 30.46 S 83.55 32.18, 85 32.56 S 88.6 33.58, 90 33.05 S 93.59 29.27, 95 28.76 S 98.51 29.6, 100 29.41 S 104.13 28.69, 105 27.47 S 108.58 15.83, 110 15.34 S 114 22.87, 115 23.99 S 118.5 26.41, 120 26.5 S 123.55 24.96, 125 24.56 S 128.51 23.9, 130 23.75 S 133.5 23.46, 135 23.58 S 138.5 24.58, 140 24.56 S 143.5 23.51, 145 23.42 S 148.5 23.94, 150 23.99 S 153.5 23.77, 155 23.75 S 159.12 25.04, 160 23.83 S 163.74 10.81, 165 10 S 168.85 16.48, 170 17.44 S 173.63 17.72, 175 18.33 S 178.59 22.39, 180 21.89 S 183.52 15.02, 185 14.77 S 188.51 20.01, 190 20.19 S 193.54 16.32, 195 15.98 S 198.62 17.25, 200 17.84 S 203.65 19.61, 205 20.27"
          fill="none"/>
    <circle r="4" cx="5" cy="40" fill="#3023AE"/>
    <circle r="4" cx="205" cy="20.27" fill="#C86DD7"/>      
</svg>