<svg width="200" height="50" viewBox="0 0 210 50" xmlns="http://www.w3.org/2000/svg">
    <defs>
        <linearGradient x1="0%" y1="0%" x2="100%" y2="0%" id="a">
            <stop stop-color="#3023AE" offset="0%"/>
            <stop stop-color="#C86DD7" offset="100%"/>
        </linearGradient>
    </defs>
    <path stroke="url(#a)"
          stroke-width="3"
          stroke-linejoin="round"
          stroke-linecap="round"
          d="M5 40 C 6.49 39.83, 8.5 39.52, 10 39.44 S 13.5 39.44, 15 39.44 S 18.5 39.44, 20 39.44 S 23.5 39.44, 25 39.44 S 28.5 39.44, 30 39.44 S 33.5 39.44, 35 39.44 S 38.5 39.44, 40 39.44 S 44.52 40.86, 45 39.44 S 48.5 10.08, 50 10 S 54.46 37.49, 55 38.89 S 58.54 36.44, 60 36.11 S 63.58 37.14, 65 36.67 S 68.51 32.61, 70 32.78 S 73.72 37, 75 37.78 S 78.51 38.72, 80 38.89 S 83.5 38.89, 85 38.89 S 88.5 38.97, 90 38.89 S 93.5 38.33, 95 38.33 S 98.51 38.72, 100 38.89 S 103.5 39.36, 105 39.44 S 108.51 39.61, 110 39.44 S 114.12 39.55, 115 38.33 S 118.6 26.1, 120 25.56 S 124.1 33.24, 125 34.44 S 128.66 38.22, 130 38.89 S 133.5 39.36, 135 39.44 S 138.5 39.44, 140 39.44 S 143.5 39.44, 145 39.44 S 148.5 39.44, 150 39.44 S 153.5 39.44, 155 39.44 S 158.5 39.44, 160 39.44 S 163.52 39.69, 165 39.44 S 168.5 37.78, 170 37.78 S 173.52 39.19, 175 39.44 S 178.52 39.69, 180 39.44 S 183.5 37.78, 185 37.78 S 188.52 39.19, 190 39.44 S 193.5 39.44, 195 39.44 S 198.5 39.44, 200 39.44 S 203.5 39.44, 205 39.44"
          fill="none"/>
    <circle r="4" cx="5" cy="40" fill="#3023AE"/>
    <circle r="4" cx="205" cy="39.44" fill="#C86DD7"/>      
</svg>