<svg width="200" height="50" viewBox="0 0 210 50" xmlns="http://www.w3.org/2000/svg">
    <defs>
        <linearGradient x1="0%" y1="0%" x2="100%" y2="0%" id="a">
            <stop stop-color="#3023AE" offset="0%"/>
            <stop stop-color="#C86DD7" offset="100%"/>
        </linearGradient>
    </defs>
    <path stroke="url(#a)"
          stroke-width="3"
          stroke-linejoin="round"
          stroke-linecap="round"
          d="M5 40 C 6.12 39, 8.53 35.81, 10 35.53 S 13.6 37.55, 15 38.09 S 18.51 39.17, 20 39.36 S 24.52 40.78, 25 39.36 S 28.85 10.96, 30 10 S 34.52 29.64, 35 31.06 S 38.74 38.55, 40 39.36 S 43.53 37.73, 45 37.45 S 48.53 37.17, 50 37.45 S 53.53 39.08, 55 39.36 S 58.5 39.36, 60 39.36 S 63.5 39.36, 65 39.36 S 68.5 39.46, 70 39.36 S 73.5 38.72, 75 38.72 S 78.5 39.26, 80 39.36 S 83.63 39.97, 85 39.36 S 88.66 35.57, 90 34.89 S 93.6 33.72, 95 34.26 S 98.6 38.18, 100 38.72 S 103.5 38.18, 105 38.09 S 108.51 38.28, 110 38.09 S 113.5 36.91, 115 36.81 S 118.53 37.17, 120 37.45 S 123.51 38.53, 125 38.72 S 128.5 38.62, 130 38.72 S 133.53 39.64, 135 39.36 S 138.5 36.81, 140 36.81 S 143.53 39.08, 145 39.36 S 148.5 38.72, 150 38.72 S 153.5 39.36, 155 39.36 S 158.5 38.72, 160 38.72 S 163.53 39.64, 165 39.36 S 168.5 36.81, 170 36.81 S 173.55 38.99, 175 39.36 S 178.5 39.46, 180 39.36 S 183.5 38.72, 185 38.72 S 188.57 39.82, 190 39.36 S 193.51 35.72, 195 35.53 S 198.55 37.72, 200 38.09 S 203.5 38.09, 205 38.09"
          fill="none"/>
    <circle r="4" cx="5" cy="40" fill="#3023AE"/>
    <circle r="4" cx="205" cy="38.09" fill="#C86DD7"/>      
</svg>