<svg width="200" height="50" viewBox="0 0 210 50" xmlns="http://www.w3.org/2000/svg">
    <defs>
        <linearGradient x1="0%" y1="0%" x2="100%" y2="0%" id="a">
            <stop stop-color="#3023AE" offset="0%"/>
            <stop stop-color="#C86DD7" offset="100%"/>
        </linearGradient>
    </defs>
    <path stroke="url(#a)"
          stroke-width="3"
          stroke-linejoin="round"
          stroke-linecap="round"
          d="M5 40 C 5.25 38.52, 9.11 11.21, 10 10 S 14.48 24.95, 15 26.36 S 18.99 36.16, 20 37.27 S 23.5 37.27, 25 37.27 S 28.5 37.27, 30 37.27 S 33.55 37.66, 35 37.27 S 38.5 34.55, 40 34.55 S 43.5 37.27, 45 37.27 S 48.55 34.94, 50 34.55 S 53.55 34.16, 55 34.55 S 58.55 36.88, 60 37.27 S 63.5 37.27, 65 37.27 S 68.84 38.22, 70 37.27 S 73.5 29.09, 75 29.09 S 78.84 36.32, 80 37.27 S 83.5 37.27, 85 37.27 S 88.5 37.27, 90 37.27 S 93.5 37.27, 95 37.27 S 98.5 37.27, 100 37.27 S 103.5 37.27, 105 37.27 S 108.5 37.27, 110 37.27 S 113.5 37.27, 115 37.27 S 118.5 37.27, 120 37.27 S 123.5 37.27, 125 37.27 S 128.5 37.27, 130 37.27 S 133.5 37.27, 135 37.27 S 138.55 37.66, 140 37.27 S 143.5 34.55, 145 34.55 S 148.55 36.88, 150 37.27 S 153.68 37.99, 155 37.27 S 158.5 31.82, 160 31.82 S 163.68 36.55, 165 37.27 S 168.5 37.27, 170 37.27 S 173.5 37.27, 175 37.27 S 178.5 37.27, 180 37.27 S 183.5 37.27, 185 37.27 S 188.5 37.27, 190 37.27 S 193.55 37.66, 195 37.27 S 198.84 35.5, 200 34.55 S 203.99 30.2, 205 29.09"
          fill="none"/>
    <circle r="4" cx="5" cy="40" fill="#3023AE"/>
    <circle r="4" cx="205" cy="29.09" fill="#C86DD7"/>      
</svg>