<svg width="200" height="50" viewBox="0 0 210 50" xmlns="http://www.w3.org/2000/svg">
    <defs>
        <linearGradient x1="0%" y1="0%" x2="100%" y2="0%" id="a">
            <stop stop-color="#3023AE" offset="0%"/>
            <stop stop-color="#C86DD7" offset="100%"/>
        </linearGradient>
    </defs>
    <path stroke="url(#a)"
          stroke-width="3"
          stroke-linejoin="round"
          stroke-linecap="round"
          d="M5 40 C 6.21 39.11, 8.56 36.75, 10 36.34 S 13.51 36.97, 15 37.13 S 18.54 37.77, 20 37.44 S 23.69 35.61, 25 34.88 S 28.5 31.85, 30 31.9 S 33.59 34.67, 35 35.19 S 38.51 35.4, 40 35.56 S 43.52 35.99, 45 36.24 S 48.5 37.11, 50 37.23 S 53.5 36.99, 55 37.02 S 58.54 37.77, 60 37.44 S 63.51 34.97, 65 34.77 S 68.51 35.91, 70 36.08 S 73.52 35.65, 75 35.92 S 78.56 37.5, 80 37.91 S 83.5 38.79, 85 38.75 S 88.51 37.79, 90 37.65 S 93.5 37.75, 95 37.8 S 98.5 38.09, 100 38.01 S 103.5 37.37, 105 37.28 S 108.5 37.44, 110 37.39 S 113.61 37.52, 115 36.97 S 118.84 34.36, 120 33.41 S 123.97 29.85, 125 28.76 S 128.58 23.27, 130 22.8 S 133.66 24.8, 135 25.47 S 138.83 28.75, 140 27.82 S 144.27 18.84, 145 17.53 S 148.5 9.99, 150 10 S 154.23 16.34, 155 17.63 S 159.06 25.45, 160 26.62 S 163.63 29.46, 165 30.07 S 168.55 31.45, 170 31.06 S 173.6 27.89, 175 27.35 S 178.5 27.26, 180 27.2 S 183.5 26.92, 185 26.93 S 188.59 26.73, 190 27.25 S 193.56 30.16, 195 30.59 S 198.52 30.46, 200 30.23 S 203.54 29.37, 205 29.02"
          fill="none"/>
    <circle r="4" cx="5" cy="40" fill="#3023AE"/>
    <circle r="4" cx="205" cy="29.02" fill="#C86DD7"/>      
</svg>