<svg width="200" height="50" viewBox="0 0 210 50" xmlns="http://www.w3.org/2000/svg">
    <defs>
        <linearGradient x1="0%" y1="0%" x2="100%" y2="0%" id="a">
            <stop stop-color="#3023AE" offset="0%"/>
            <stop stop-color="#C86DD7" offset="100%"/>
        </linearGradient>
    </defs>
    <path stroke="url(#a)"
          stroke-width="3"
          stroke-linejoin="round"
          stroke-linecap="round"
          d="M5 40 C 5.98 38.86, 8.51 34.38, 10 34.19 S 13.58 38.25, 15 38.74 S 18.64 38.24, 20 37.61 S 23.54 34.43, 25 34.1 S 28.51 35.22, 30 35.35 S 33.51 34.77, 35 34.97 S 38.54 36.34, 40 36.67 S 43.5 37.27, 45 37.23 S 48.5 36.45, 50 36.38 S 53.5 36.74, 55 36.78 S 58.5 36.61, 60 36.67 S 63.5 37.06, 65 37.16 S 68.5 37.2, 70 37.32 S 73.5 37.84, 75 37.94 S 78.5 37.98, 80 37.96 S 83.5 37.88, 85 37.83 S 88.5 37.56, 90 37.6 S 93.5 38.02, 95 38.11 S 98.5 38.17, 100 38.19 S 103.5 38.24, 105 38.22 S 108.5 38.04, 110 38.03 S 113.5 38.22, 115 38.18 S 118.5 37.82, 120 37.79 S 123.5 37.97, 125 37.99 S 128.76 38.76, 130 37.91 S 134.05 32.29, 135 31.13 S 138.68 26.45, 140 25.74 S 143.54 25.4, 145 25.74 S 148.57 27.58, 150 28.05 S 153.54 28.69, 155 29.02 S 158.5 30.23, 160 30.34 S 163.5 29.8, 165 29.73 S 168.51 29.99, 170 29.87 S 173.5 28.83, 175 28.91 S 178.54 30.05, 180 30.38 S 183.5 31.11, 185 31.15 S 188.5 30.64, 190 30.66 S 193.5 31.18, 195 31.28 S 199.36 32.7, 200 31.34 S 204.66 11.46, 205 10"
          fill="none"/>
    <circle r="4" cx="5" cy="40" fill="#3023AE"/>
    <circle r="4" cx="205" cy="10" fill="#C86DD7"/>      
</svg>