<svg width="200" height="50" viewBox="0 0 210 50" xmlns="http://www.w3.org/2000/svg">
    <defs>
        <linearGradient x1="0%" y1="0%" x2="100%" y2="0%" id="a">
            <stop stop-color="#3023AE" offset="0%"/>
            <stop stop-color="#C86DD7" offset="100%"/>
        </linearGradient>
    </defs>
    <path stroke="url(#a)"
          stroke-width="3"
          stroke-linejoin="round"
          stroke-linecap="round"
          d="M5 40 C 5.25 38.52, 8.54 10.33, 10 10 S 14.48 36.37, 15 37.78 S 18.5 36.88, 20 36.94 S 23.53 37.89, 25 38.19 S 28.5 38.97, 30 39 S 33.5 38.4, 35 38.4 S 38.5 38.9, 40 38.99 S 43.5 38.96, 45 38.97 S 48.5 39.04, 50 39.04 S 53.5 39.04, 55 39 S 58.5 38.81, 60 38.76 S 63.5 38.68, 65 38.65 S 68.5 38.56, 70 38.56 S 73.5 38.62, 75 38.65 S 78.5 38.85, 80 38.77 S 83.5 38.11, 85 38.14 S 88.5 38.94, 90 38.99 S 93.5 38.45, 95 38.47 S 98.5 39.09, 100 39.15 S 103.5 38.87, 105 38.89 S 108.5 39.23, 110 39.29 S 113.5 39.31, 115 39.26 S 118.5 39, 120 38.97 S 123.5 39.1, 125 39.06 S 128.5 38.67, 130 38.68 S 133.5 39.1, 135 39.11 S 138.5 38.78, 140 38.78 S 143.5 39.08, 145 39.12 S 148.5 39.01, 150 39.02 S 153.5 39.15, 155 39.18 S 158.5 39.22, 160 39.19 S 163.53 39.27, 165 38.95 S 168.5 37.1, 170 37.04 S 173.52 38.28, 175 38.54 S 178.5 38.77, 180 38.83 S 183.5 38.92, 185 38.94 S 188.5 38.99, 190 38.97 S 193.5 38.86, 195 38.82 S 198.5 38.72, 200 38.71 S 203.5 38.75, 205 38.76"
          fill="none"/>
    <circle r="4" cx="5" cy="40" fill="#3023AE"/>
    <circle r="4" cx="205" cy="38.76" fill="#C86DD7"/>      
</svg>