<svg width="200" height="50" viewBox="0 0 210 50" xmlns="http://www.w3.org/2000/svg">
    <defs>
        <linearGradient x1="0%" y1="0%" x2="100%" y2="0%" id="a">
            <stop stop-color="#3023AE" offset="0%"/>
            <stop stop-color="#C86DD7" offset="100%"/>
        </linearGradient>
    </defs>
    <path stroke="url(#a)"
          stroke-width="3"
          stroke-linejoin="round"
          stroke-linecap="round"
          d="M5 40 C 5.25 38.52, 8.53 10.32, 10 10 S 14.46 36.42, 15 37.82 S 18.5 36.09, 20 36.18 S 23.54 38.07, 25 38.43 S 28.5 38.7, 30 38.64 S 33.5 37.98, 35 38.04 S 38.51 38.89, 40 39.06 S 43.5 39.18, 45 39.18 S 48.5 39.05, 50 39.05 S 53.5 39.14, 55 39.18 S 58.5 39.33, 60 39.29 S 63.5 38.96, 65 38.93 S 68.5 39.09, 70 39.09 S 73.5 39, 75 38.96 S 78.5 38.87, 80 38.85 S 83.5 38.8, 85 38.8 S 88.5 38.88, 90 38.88 S 93.5 38.81, 95 38.8 S 98.5 38.96, 100 38.84 S 103.5 37.98, 105 38.01 S 108.51 38.91, 110 39.07 S 113.5 39.08, 115 39.1 S 118.5 39.2, 120 39.18 S 123.5 39, 125 38.98 S 128.5 39.02, 130 39.02 S 133.5 39.01, 135 39.01 S 138.5 39.06, 140 39.03 S 143.5 38.85, 145 38.83 S 148.5 38.86, 150 38.87 S 153.5 38.89, 155 38.88 S 158.5 38.82, 160 38.82 S 163.5 38.86, 165 38.85 S 168.5 38.7, 170 38.73 S 173.5 39.1, 175 39.08 S 178.5 38.66, 180 38.61 S 183.5 38.67, 185 38.72 S 188.5 38.94, 190 38.93 S 193.5 38.66, 195 38.65 S 198.5 38.84, 200 38.84 S 203.5 38.69, 205 38.62"
          fill="none"/>
    <circle r="4" cx="5" cy="40" fill="#3023AE"/>
    <circle r="4" cx="205" cy="38.62" fill="#C86DD7"/>      
</svg>