<svg width="200" height="50" viewBox="0 0 210 50" xmlns="http://www.w3.org/2000/svg">
    <defs>
        <linearGradient x1="0%" y1="0%" x2="100%" y2="0%" id="a">
            <stop stop-color="#3023AE" offset="0%"/>
            <stop stop-color="#C86DD7" offset="100%"/>
        </linearGradient>
    </defs>
    <path stroke="url(#a)"
          stroke-width="3"
          stroke-linejoin="round"
          stroke-linecap="round"
          d="M5 40 C 5.25 38.52, 8.54 10.33, 10 10 S 14.48 36.34, 15 37.75 S 18.5 36.92, 20 36.98 S 23.53 37.87, 25 38.17 S 28.5 38.96, 30 38.99 S 33.5 38.4, 35 38.4 S 38.5 38.91, 40 38.99 S 43.5 38.95, 45 38.96 S 48.5 39.09, 50 39.09 S 53.5 39.04, 55 38.99 S 58.5 38.79, 60 38.74 S 63.5 38.71, 65 38.68 S 68.5 38.55, 70 38.55 S 73.5 38.61, 75 38.65 S 78.5 38.92, 80 38.83 S 83.5 38.06, 85 38.08 S 88.5 38.92, 90 38.98 S 93.5 38.43, 95 38.46 S 98.5 39.09, 100 39.16 S 103.5 38.91, 105 38.93 S 108.5 39.23, 110 39.28 S 113.5 39.29, 115 39.25 S 118.5 39.02, 120 38.99 S 123.5 39.1, 125 39.07 S 128.5 38.78, 130 38.77 S 133.5 39.01, 135 39.01 S 138.5 38.73, 140 38.75 S 143.5 39.12, 145 39.16 S 148.5 38.98, 150 38.99 S 153.5 39.18, 155 39.21 S 158.5 39.24, 160 39.19 S 163.52 39.17, 165 38.9 S 168.5 37.44, 170 37.35 S 173.52 38.06, 175 38.29 S 178.5 38.79, 180 38.87 S 183.5 38.82, 185 38.85 S 188.5 39.05, 190 39.05 S 193.5 38.89, 195 38.84 S 198.5 38.71, 200 38.69 S 203.5 38.68, 205 38.68"
          fill="none"/>
    <circle r="4" cx="5" cy="40" fill="#3023AE"/>
    <circle r="4" cx="205" cy="38.68" fill="#C86DD7"/>      
</svg>