<svg width="200" height="50" viewBox="0 0 210 50" xmlns="http://www.w3.org/2000/svg">
    <defs>
        <linearGradient x1="0%" y1="0%" x2="100%" y2="0%" id="a">
            <stop stop-color="#3023AE" offset="0%"/>
            <stop stop-color="#C86DD7" offset="100%"/>
        </linearGradient>
    </defs>
    <path stroke="url(#a)"
          stroke-width="3"
          stroke-linejoin="round"
          stroke-linecap="round"
          d="M5 40 C 5.25 38.52, 8.54 10.33, 10 10 S 14.48 36.3, 15 37.71 S 18.5 36.96, 20 37.02 S 23.53 37.82, 25 38.12 S 28.5 38.98, 30 39.03 S 33.5 38.5, 35 38.48 S 38.5 38.86, 40 38.92 S 43.5 38.87, 45 38.91 S 48.5 39.16, 50 39.16 S 53.5 39, 55 38.94 S 58.5 38.78, 60 38.77 S 63.5 38.91, 65 38.86 S 68.5 38.47, 70 38.43 S 73.5 38.54, 75 38.61 S 78.5 38.98, 80 38.91 S 83.5 38.17, 85 38.16 S 88.5 38.76, 90 38.81 S 93.5 38.42, 95 38.47 S 98.5 39.06, 100 39.13 S 103.5 38.95, 105 38.96 S 108.5 39.19, 110 39.23 S 113.5 39.29, 115 39.26 S 118.5 39.04, 120 39.02 S 123.5 39.16, 125 39.12 S 128.5 38.79, 130 38.77 S 133.5 38.99, 135 38.99 S 138.5 38.74, 140 38.77 S 143.5 39.13, 145 39.16 S 148.5 38.94, 150 38.95 S 153.5 39.22, 155 39.25 S 158.5 39.21, 160 39.17 S 163.5 39.01, 165 38.99 S 168.54 39.4, 170 39.05 S 173.5 36.62, 175 36.59 S 178.54 38.53, 180 38.86 S 183.5 38.79, 185 38.83 S 188.5 39.1, 190 39.11 S 193.5 38.92, 195 38.88 S 198.5 38.91, 200 38.86 S 203.5 38.65, 205 38.56"
          fill="none"/>
    <circle r="4" cx="5" cy="40" fill="#3023AE"/>
    <circle r="4" cx="205" cy="38.56" fill="#C86DD7"/>      
</svg>