<svg width="200" height="50" viewBox="0 0 210 50" xmlns="http://www.w3.org/2000/svg">
    <defs>
        <linearGradient x1="0%" y1="0%" x2="100%" y2="0%" id="a">
            <stop stop-color="#3023AE" offset="0%"/>
            <stop stop-color="#C86DD7" offset="100%"/>
        </linearGradient>
    </defs>
    <path stroke="url(#a)"
          stroke-width="3"
          stroke-linejoin="round"
          stroke-linecap="round"
          d="M5 40 C 5.25 38.52, 8.54 10.33, 10 10 S 14.48 36.32, 15 37.73 S 18.5 36.74, 20 36.82 S 23.54 37.96, 25 38.29 S 28.5 39.02, 30 39.04 S 33.5 38.41, 35 38.4 S 38.5 38.88, 40 38.95 S 43.5 38.85, 45 38.88 S 48.5 39.14, 50 39.14 S 53.5 38.94, 55 38.88 S 58.5 38.81, 60 38.75 S 63.5 38.48, 65 38.46 S 68.5 38.59, 70 38.64 S 73.5 38.82, 75 38.79 S 78.5 38.5, 80 38.44 S 83.5 38.35, 85 38.38 S 88.5 38.57, 90 38.64 S 93.5 38.76, 95 38.82 S 98.5 39.04, 100 39.07 S 103.5 38.97, 105 39 S 108.5 39.28, 110 39.3 S 113.5 39.15, 115 39.11 S 118.5 39.04, 120 39 S 123.5 38.88, 125 38.86 S 128.5 38.89, 130 38.88 S 133.5 38.73, 135 38.76 S 138.5 39.03, 140 39.06 S 143.5 38.95, 145 38.97 S 148.5 39.18, 150 39.21 S 153.5 39.24, 155 39.2 S 158.5 38.98, 160 38.96 S 163.54 39.4, 165 39.05 S 168.5 36.56, 170 36.53 S 173.54 38.49, 175 38.83 S 178.5 38.79, 180 38.83 S 183.5 39.1, 185 39.1 S 188.5 38.89, 190 38.84 S 193.5 38.78, 195 38.75 S 198.5 38.59, 200 38.61 S 203.5 38.81, 205 38.89"
          fill="none"/>
    <circle r="4" cx="5" cy="40" fill="#3023AE"/>
    <circle r="4" cx="205" cy="38.89" fill="#C86DD7"/>      
</svg>