<svg width="200" height="50" viewBox="0 0 210 50" xmlns="http://www.w3.org/2000/svg">
    <defs>
        <linearGradient x1="0%" y1="0%" x2="100%" y2="0%" id="a">
            <stop stop-color="#3023AE" offset="0%"/>
            <stop stop-color="#C86DD7" offset="100%"/>
        </linearGradient>
    </defs>
    <path stroke="url(#a)"
          stroke-width="3"
          stroke-linejoin="round"
          stroke-linecap="round"
          d="M5 40 C 5.25 38.52, 8.54 10.33, 10 10 S 14.48 36.32, 15 37.73 S 18.5 36.93, 20 36.99 S 23.53 37.87, 25 38.16 S 28.5 38.95, 30 38.99 S 33.5 38.41, 35 38.41 S 38.5 38.91, 40 38.99 S 43.5 38.93, 45 38.95 S 48.5 39.12, 50 39.12 S 53.5 39.03, 55 38.97 S 58.5 38.74, 60 38.71 S 63.5 38.81, 65 38.78 S 68.5 38.51, 70 38.49 S 73.5 38.62, 75 38.67 S 78.5 38.89, 80 38.82 S 83.5 38.16, 85 38.17 S 88.5 38.83, 90 38.87 S 93.5 38.42, 95 38.46 S 98.5 39.03, 100 39.12 S 103.5 39.02, 105 39.03 S 108.5 39.17, 110 39.2 S 113.5 39.29, 115 39.26 S 118.5 39.02, 120 38.99 S 123.5 39.1, 125 39.08 S 128.5 38.85, 130 38.84 S 133.5 39.01, 135 38.99 S 138.5 38.69, 140 38.72 S 143.5 39.11, 145 39.16 S 148.5 39.03, 150 39.04 S 153.5 39.21, 155 39.23 S 158.5 39.21, 160 39.16 S 163.51 39.12, 165 38.92 S 168.51 38, 170 37.83 S 173.51 37.64, 175 37.8 S 178.51 38.72, 180 38.87 S 183.5 38.79, 185 38.83 S 188.5 39.1, 190 39.11 S 193.5 38.94, 195 38.89 S 198.5 38.83, 200 38.79 S 203.5 38.66, 205 38.61"
          fill="none"/>
    <circle r="4" cx="5" cy="40" fill="#3023AE"/>
    <circle r="4" cx="205" cy="38.61" fill="#C86DD7"/>      
</svg>