<svg width="200" height="50" viewBox="0 0 210 50" xmlns="http://www.w3.org/2000/svg">
    <defs>
        <linearGradient x1="0%" y1="0%" x2="100%" y2="0%" id="a">
            <stop stop-color="#3023AE" offset="0%"/>
            <stop stop-color="#C86DD7" offset="100%"/>
        </linearGradient>
    </defs>
    <path stroke="url(#a)"
          stroke-width="3"
          stroke-linejoin="round"
          stroke-linecap="round"
          d="M5 40 C 6.5 39.97, 9.32 41.23, 10 39.89 S 14.52 21.71, 15 20.29 S 19.14 8.77, 20 10 S 24.45 33.29, 25 34.69 S 28.81 36.25, 30 35.34 S 33.6 27.55, 35 27 S 38.86 30.46, 40 31.44 S 43.65 34.9, 45 35.56 S 48.51 36.16, 50 36.32 S 53.62 37.22, 55 36.64 S 58.75 32.93, 60 32.09 S 63.59 29.41, 65 29.93 S 68.74 34.96, 70 35.78 S 73.51 36.27, 75 36.43 S 78.5 36.83, 80 36.86 S 83.5 36.74, 85 36.64 S 88.5 36.29, 90 36.21 S 93.5 36.05, 95 36.1 S 98.98 37.63, 100 36.53 S 103.56 25.81, 105 25.38 S 109.01 32.37, 110 33.5 S 113.54 36.4, 115 36.75 S 118.51 36.07, 120 35.88 S 123.64 36.08, 125 35.45 S 128.73 32.03, 130 31.23 S 133.53 29.46, 135 29.17 S 138.54 28.92, 140 29.28 S 143.51 31.45, 145 31.66 S 148.61 30.12, 150 30.69 S 153.67 35.09, 155 35.78 S 158.5 35.87, 160 35.88 S 163.5 35.83, 165 35.88 S 168.52 36.43, 170 36.21 S 173.5 34.48, 175 34.37 S 178.5 35.47, 180 35.45 S 183.5 34.36, 185 34.26 S 188.54 35.13, 190 34.8 S 193.5 31.88, 195 31.99 S 198.59 35.04, 200 35.56 S 203.5 35.64, 205 35.67"
          fill="none"/>
    <circle r="4" cx="5" cy="40" fill="#3023AE"/>
    <circle r="4" cx="205" cy="35.67" fill="#C86DD7"/>      
</svg>