<svg width="200" height="50" viewBox="0 0 210 50" xmlns="http://www.w3.org/2000/svg">
    <defs>
        <linearGradient x1="0%" y1="0%" x2="100%" y2="0%" id="a">
            <stop stop-color="#3023AE" offset="0%"/>
            <stop stop-color="#C86DD7" offset="100%"/>
        </linearGradient>
    </defs>
    <path stroke="url(#a)"
          stroke-width="3"
          stroke-linejoin="round"
          stroke-linecap="round"
          d="M5 40 C 5.25 38.52, 8.83 10.93, 10 10 S 14.43 30.67, 15 32.06 S 18.61 33.89, 20 34.46 S 23.54 35.79, 25 36.13 S 28.52 36.56, 30 36.81 S 33.5 37.73, 35 37.8 S 38.58 37.76, 40 37.28 S 43.53 34.72, 45 34.41 S 48.55 34.75, 50 35.14 S 53.5 37.24, 55 37.13 S 58.53 34.73, 60 34.41 S 63.52 34.72, 65 34.98 S 68.5 36.19, 70 36.18 S 73.5 34.97, 75 34.88 S 78.6 36.11, 80 35.56 S 83.52 31.22, 85 30.96 S 88.67 33.13, 90 33.83 S 93.53 35.95, 95 36.24 S 98.5 35.89, 100 35.82 S 103.5 35.72, 105 35.77 S 108.5 36.09, 110 36.18 S 113.51 36.51, 115 36.39 S 118.56 35.77, 120 35.35 S 123.51 33.31, 125 33.47 S 128.54 36.11, 130 36.45 S 133.5 35.86, 135 35.82 S 138.51 36.37, 140 36.18 S 143.5 34.6, 145 34.51 S 148.5 35.57, 150 35.56 S 153.51 34.66, 155 34.46 S 158.5 34.29, 160 34.2 S 163.5 33.95, 165 33.89 S 168.5 33.84, 170 33.78 S 173.5 33.61, 175 33.52 S 178.5 33.06, 180 33.15 S 183.51 34.01, 185 34.15 S 188.5 34.1, 190 34.09 S 193.5 34.08, 195 34.09 S 198.52 34.38, 200 34.15 S 203.57 32.99, 205 32.53"
          fill="none"/>
    <circle r="4" cx="5" cy="40" fill="#3023AE"/>
    <circle r="4" cx="205" cy="32.53" fill="#C86DD7"/>      
</svg>