<svg width="200" height="50" viewBox="0 0 210 50" xmlns="http://www.w3.org/2000/svg">
    <defs>
        <linearGradient x1="0%" y1="0%" x2="100%" y2="0%" id="a">
            <stop stop-color="#3023AE" offset="0%"/>
            <stop stop-color="#C86DD7" offset="100%"/>
        </linearGradient>
    </defs>
    <path stroke="url(#a)"
          stroke-width="3"
          stroke-linejoin="round"
          stroke-linecap="round"
          d="M5 40 C 5.25 38.52, 8.85 10.96, 10 10 S 14.38 30.25, 15 31.61 S 18.65 32.52, 20 31.87 S 23.53 26.46, 25 26.76 S 28.88 32.93, 30 33.93 S 33.57 36.15, 35 35.7 S 38.53 31.08, 40 30.79 S 43.56 33.27, 45 33.7 S 48.5 33.79, 50 33.76 S 53.5 33.57, 55 33.49 S 58.5 33.34, 60 33.23 S 63.51 32.65, 65 32.77 S 68.53 33.76, 70 34.05 S 73.5 34.74, 75 34.77 S 78.54 34.58, 80 34.22 S 83.5 32.4, 85 32.3 S 88.67 34.21, 90 33.52 S 93.5 27.09, 95 27.13 S 98.8 32.86, 100 33.76 S 103.51 34.51, 105 34.69 S 108.5 34.94, 110 34.95 S 113.5 34.72, 115 34.74 S 118.5 34.96, 120 35.06 S 123.5 35.36, 125 35.41 S 128.52 35.6, 130 35.38 S 133.51 34.07, 135 33.93 S 138.51 34.23, 140 34.42 S 143.51 35, 145 35.18 S 148.5 35.51, 150 35.61 S 153.5 35.92, 155 35.88 S 158.5 35.38, 160 35.32 S 163.5 35.52, 165 35.47 S 168.5 35.01, 170 35 S 173.5 35.44, 175 35.41 S 178.5 34.85, 180 34.8 S 183.51 34.86, 185 35.06 S 188.5 36.24, 190 36.14 S 193.51 34.52, 195 34.37 S 198.5 35.09, 200 35.12 S 203.51 34.73, 205 34.57"
          fill="none"/>
    <circle r="4" cx="5" cy="40" fill="#3023AE"/>
    <circle r="4" cx="205" cy="34.57" fill="#C86DD7"/>      
</svg>