<svg width="200" height="50" viewBox="0 0 210 50" xmlns="http://www.w3.org/2000/svg">
    <defs>
        <linearGradient x1="0%" y1="0%" x2="100%" y2="0%" id="a">
            <stop stop-color="#3023AE" offset="0%"/>
            <stop stop-color="#C86DD7" offset="100%"/>
        </linearGradient>
    </defs>
    <path stroke="url(#a)"
          stroke-width="3"
          stroke-linejoin="round"
          stroke-linecap="round"
          d="M5 40 C 6.5 40, 8.5 40, 10 40 S 13.5 40, 15 40 S 18.5 40, 20 40 S 23.5 40, 25 40 S 28.5 40, 30 40 S 33.5 40, 35 40 S 38.5 40, 40 40 S 43.5 40, 45 40 S 48.5 40, 50 40 S 53.5 40, 55 40 S 58.5 40, 60 40 S 63.5 40, 65 40 S 68.5 40, 70 40 S 73.5 40, 75 40 S 78.5 40, 80 40 S 83.5 40, 85 40 S 88.5 40, 90 40 S 93.5 40, 95 40 S 98.5 40, 100 40 S 103.5 40, 105 40 S 108.5 40, 110 40 S 113.5 40, 115 40 S 118.5 40, 120 40 S 123.5 40, 125 40 S 128.5 40, 130 40 S 133.5 40, 135 40 S 138.5 40, 140 40 S 143.5 40, 145 40 S 148.5 40, 150 40 S 153.5 40, 155 40 S 158.5 40, 160 40 S 163.5 40, 165 40 S 168.5 40, 170 40 S 173.5 40, 175 40 S 178.5 40, 180 40 S 183.5 40, 185 40 S 188.5 40.01, 190 40 S 193.53 40.26, 195 39.95 S 199.52 39.29, 200 37.87 S 204.74 11.48, 205 10"
          fill="none"/>
    <circle r="4" cx="5" cy="40" fill="#3023AE"/>
    <circle r="4" cx="205" cy="10" fill="#C86DD7"/>      
</svg>