<svg width="200" height="50" viewBox="0 0 210 50" xmlns="http://www.w3.org/2000/svg">
    <defs>
        <linearGradient x1="0%" y1="0%" x2="100%" y2="0%" id="a">
            <stop stop-color="#3023AE" offset="0%"/>
            <stop stop-color="#C86DD7" offset="100%"/>
        </linearGradient>
    </defs>
    <path stroke="url(#a)"
          stroke-width="3"
          stroke-linejoin="round"
          stroke-linecap="round"
          d="M5 40 C 6.36 39.38, 8.74 38.53, 10 37.72 S 13.53 33.82, 15 33.54 S 18.5 35.76, 20 35.82 S 23.5 33.98, 25 33.92 S 28.5 35.38, 30 35.44 S 34.1 35.5, 35 34.3 S 38.76 23, 40 22.15 S 43.74 26.66, 45 27.47 S 48.62 29.19, 50 28.61 S 53.51 23.46, 55 23.29 S 58.6 26.94, 60 27.47 S 63.76 27.94, 65 27.09 S 68.52 20.4, 70 20.63 S 73.5 28.5, 75 28.61 S 78.76 22.24, 80 21.39 S 83.74 20.96, 85 21.77 S 88.7 28.59, 90 27.85 S 93.5 16.14, 95 16.08 S 99.1 26.27, 100 27.47 S 103.87 30.36, 105 29.37 S 108.87 19.72, 110 18.73 S 113.56 20.19, 115 20.63 S 118.55 22.16, 120 21.77 S 123.55 18.36, 125 17.97 S 128.58 18.62, 130 19.11 S 133.5 21.39, 135 21.39 S 138.83 20.04, 140 19.11 S 143.89 14.43, 145 13.42 S 149.08 8.81, 150 10 S 154.11 25.12, 155 26.33 S 158.58 24.16, 160 23.67 S 163.55 23.3, 165 22.91 S 168.6 20.48, 170 21.01 S 173.6 26.18, 175 26.71 S 178.51 24.98, 180 24.81 S 183.55 25.18, 185 25.57 S 188.5 27.47, 190 27.47 S 193.51 25.74, 195 25.57 S 198.5 26.22, 200 26.33 S 203.5 26.33, 205 26.33"
          fill="none"/>
    <circle r="4" cx="5" cy="40" fill="#3023AE"/>
    <circle r="4" cx="205" cy="26.33" fill="#C86DD7"/>      
</svg>