<svg width="200" height="50" viewBox="0 0 210 50" xmlns="http://www.w3.org/2000/svg">
    <defs>
        <linearGradient x1="0%" y1="0%" x2="100%" y2="0%" id="a">
            <stop stop-color="#3023AE" offset="0%"/>
            <stop stop-color="#C86DD7" offset="100%"/>
        </linearGradient>
    </defs>
    <path stroke="url(#a)"
          stroke-width="3"
          stroke-linejoin="round"
          stroke-linecap="round"
          d="M5 40 C 6.49 39.8, 8.5 39.42, 10 39.32 S 13.5 39.32, 15 39.32 S 18.5 39.32, 20 39.32 S 23.5 39.32, 25 39.32 S 28.5 39.32, 30 39.32 S 33.5 39.32, 35 39.32 S 38.5 39.32, 40 39.32 S 43.5 39.32, 45 39.32 S 48.5 39.32, 50 39.32 S 53.5 39.32, 55 39.32 S 58.5 39.32, 60 39.32 S 63.5 39.32, 65 39.32 S 68.5 39.32, 70 39.32 S 73.5 39.32, 75 39.32 S 78.5 39.32, 80 39.32 S 83.5 39.32, 85 39.32 S 88.55 39.72, 90 39.32 S 93.61 37.16, 95 36.59 S 98.61 35.8, 100 35.23 S 103.68 33.22, 105 32.5 S 108.5 29.67, 110 29.77 S 114.32 34.52, 115 33.18 S 118.72 10.78, 120 10 S 124.3 25.72, 125 27.05 S 128.65 28.44, 130 29.09 S 133.95 32.89, 135 31.82 S 138.51 19.06, 140 18.86 S 143.5 30.55, 145 30.45 S 148.72 18.96, 150 18.18 S 153.99 23.21, 155 24.32 S 158.51 29.29, 160 29.09 S 163.53 23.25, 165 22.95 S 168.65 26.4, 170 27.05 S 173.53 28.03, 175 27.73 S 178.5 25.1, 180 25 S 183.5 26.95, 185 27.05 S 188.65 26.33, 190 25.68 S 193.51 22.47, 195 22.27 S 198.5 24.42, 200 24.32 S 203.68 22.31, 205 21.59"
          fill="none"/>
    <circle r="4" cx="5" cy="40" fill="#3023AE"/>
    <circle r="4" cx="205" cy="21.59" fill="#C86DD7"/>      
</svg>