<svg width="200" height="50" viewBox="0 0 210 50" xmlns="http://www.w3.org/2000/svg">
    <defs>
        <linearGradient x1="0%" y1="0%" x2="100%" y2="0%" id="a">
            <stop stop-color="#3023AE" offset="0%"/>
            <stop stop-color="#C86DD7" offset="100%"/>
        </linearGradient>
    </defs>
    <path stroke="url(#a)"
          stroke-width="3"
          stroke-linejoin="round"
          stroke-linecap="round"
          d="M5 40 C 5.25 38.52, 8.92 11.04, 10 10 S 14.17 29.11, 15 30.36 S 18.68 25.71, 20 25 S 24.1 23.8, 25 25 S 29.1 37.19, 30 38.39 S 34.1 39.59, 35 38.39 S 38.5 25, 40 25 S 43.98 37.29, 45 38.39 S 49.08 36.89, 50 35.71 S 54.1 26.74, 55 25.54 S 58.52 22.56, 60 22.32 S 63.5 23.85, 65 23.93 S 68.92 21.82, 70 22.86 S 74.13 32.35, 75 33.57 S 78.57 36.33, 80 36.79 S 83.51 36.95, 85 36.79 S 88.5 35.79, 90 35.71 S 93.62 36.84, 95 36.25 S 98.5 31.35, 100 31.43 S 103.62 36.2, 105 36.79 S 108.51 35.87, 110 35.71 S 113.5 35.63, 115 35.71 S 118.5 36.17, 120 36.25 S 123.52 36.49, 125 36.25 S 128.51 34.8, 130 34.64 S 133.92 36.22, 135 35.18 S 138.5 24.92, 140 25 S 143.95 34.64, 145 35.71 S 148.5 35.18, 150 35.18 S 153.5 35.63, 155 35.71 S 158.52 35.47, 160 35.71 S 163.6 36.79, 165 37.32 S 168.52 39.22, 170 39.46 S 173.52 39.17, 175 38.93 S 178.5 37.86, 180 37.86 S 183.52 39.17, 185 38.93 S 188.5 36.25, 190 36.25 S 193.51 38.77, 195 38.93 S 198.83 38.26, 200 37.32 S 204.08 32.07, 205 30.89"
          fill="none"/>
    <circle r="4" cx="5" cy="40" fill="#3023AE"/>
    <circle r="4" cx="205" cy="30.89" fill="#C86DD7"/>      
</svg>