<svg width="200" height="50" viewBox="0 0 210 50" xmlns="http://www.w3.org/2000/svg">
    <defs>
        <linearGradient x1="0%" y1="0%" x2="100%" y2="0%" id="a">
            <stop stop-color="#3023AE" offset="0%"/>
            <stop stop-color="#C86DD7" offset="100%"/>
        </linearGradient>
    </defs>
    <path stroke="url(#a)"
          stroke-width="3"
          stroke-linejoin="round"
          stroke-linecap="round"
          d="M5 40 C 6.49 39.83, 8.62 40, 10 39.42 S 13.5 35.88, 15 35.81 S 18.61 38.36, 20 38.93 S 23.5 39.91, 25 39.9 S 28.5 38.83, 30 38.83 S 33.51 39.74, 35 39.9 S 38.5 39.9, 40 39.9 S 43.5 39.91, 45 39.9 S 48.5 39.84, 50 39.81 S 53.5 39.71, 55 39.71 S 58.5 39.8, 60 39.81 S 63.51 39.96, 65 39.81 S 68.51 39, 70 38.83 S 73.5 38.58, 75 38.64 S 78.5 39.1, 80 39.22 S 83.5 39.33, 85 39.42 S 88.52 40.03, 90 39.81 S 93.51 38.12, 95 37.95 S 98.57 39.09, 100 38.64 S 104.51 36.26, 105 34.84 S 108.53 9.71, 110 10 S 114.48 35.38, 115 36.79 S 118.5 36.86, 120 36.98 S 123.5 37.66, 125 37.56 S 128.5 36.37, 130 36.3 S 133.54 36.73, 135 37.08 S 138.5 38.63, 140 38.73 S 143.5 37.88, 145 37.76 S 148.53 37.68, 150 37.95 S 153.51 39.46, 155 39.61 S 158.5 38.92, 160 38.93 S 163.52 39.96, 165 39.71 S 168.51 37.42, 170 37.27 S 173.52 38.5, 175 38.73 S 178.5 38.79, 180 38.83 S 183.5 39.02, 185 39.03 S 188.52 39.18, 190 38.93 S 193.6 37.9, 195 37.37 S 198.51 35.29, 200 35.13 S 203.54 35.96, 205 36.3"
          fill="none"/>
    <circle r="4" cx="5" cy="40" fill="#3023AE"/>
    <circle r="4" cx="205" cy="36.3" fill="#C86DD7"/>      
</svg>