<svg width="200" height="50" viewBox="0 0 210 50" xmlns="http://www.w3.org/2000/svg">
    <defs>
        <linearGradient x1="0%" y1="0%" x2="100%" y2="0%" id="a">
            <stop stop-color="#3023AE" offset="0%"/>
            <stop stop-color="#C86DD7" offset="100%"/>
        </linearGradient>
    </defs>
    <path stroke="url(#a)"
          stroke-width="3"
          stroke-linejoin="round"
          stroke-linecap="round"
          d="M5 40 C 5.25 38.52, 9.31 11.33, 10 10 S 14.24 19.41, 15 20.71 S 19.24 25.84, 20 27.14 S 23.86 38.84, 25 37.86 S 28.62 19.16, 30 18.57 S 34.24 32.27, 35 33.57 S 38.62 35.12, 40 35.71 S 44.17 39.11, 45 37.86 S 48.74 21.52, 50 20.71 S 54.17 30.18, 55 31.43 S 58.74 34.9, 60 35.71 S 63.53 37.54, 65 37.86 S 68.5 37.86, 70 37.86 S 73.5 37.86, 75 37.86 S 78.5 37.86, 80 37.86 S 83.5 37.86, 85 37.86 S 88.86 38.84, 90 37.86 S 93.53 29.61, 95 29.29 S 98.86 34.73, 100 35.71 S 103.53 37.54, 105 37.86 S 108.5 37.86, 110 37.86 S 114.08 39.04, 115 37.86 S 118.5 25, 120 25 S 124.08 36.68, 125 37.86 S 128.5 37.86, 130 37.86 S 133.5 37.86, 135 37.86 S 138.5 37.86, 140 37.86"
          fill="none"/>
    <circle r="4" cx="5" cy="40" fill="#3023AE"/>
    <circle r="4" cx="140" cy="37.86" fill="#C86DD7"/>      
</svg>