<svg width="200" height="50" viewBox="0 0 210 50" xmlns="http://www.w3.org/2000/svg">
    <defs>
        <linearGradient x1="0%" y1="0%" x2="100%" y2="0%" id="a">
            <stop stop-color="#3023AE" offset="0%"/>
            <stop stop-color="#C86DD7" offset="100%"/>
        </linearGradient>
    </defs>
    <path stroke="url(#a)"
          stroke-width="3"
          stroke-linejoin="round"
          stroke-linecap="round"
          d="M5 40 C 6.44 39.59, 8.5 38.68, 10 38.57 S 13.5 39.18, 15 39.29 S 18.5 39.29, 20 39.29 S 23.5 39.29, 25 39.29 S 28.5 39.29, 30 39.29 S 33.5 39.29, 35 39.29 S 38.5 39.29, 40 39.29 S 43.5 39.29, 45 39.29 S 48.5 39.29, 50 39.29 S 53.5 39.29, 55 39.29 S 58.5 39.29, 60 39.29 S 63.5 39.29, 65 39.29 S 68.5 39.29, 70 39.29 S 73.5 39.29, 75 39.29 S 78.5 39.29, 80 39.29 S 83.5 39.29, 85 39.29 S 88.5 39.29, 90 39.29 S 93.5 39.29, 95 39.29 S 98.7 40.03, 100 39.29 S 103.53 33.89, 105 33.57 S 108.53 36.83, 110 37.14 S 113.5 35.82, 115 35.71 S 118.59 36.93, 120 36.43 S 124.47 33.54, 125 32.14 S 128.59 9.5, 130 10 S 134.33 34.37, 135 35.71 S 139.11 31.21, 140 30 S 143.78 21.27, 145 22.14 S 149.11 35.93, 150 37.14 S 153.5 35.71, 155 35.71 S 158.52 36.93, 160 37.14 S 164.29 38.46, 165 37.14 S 168.9 19.59, 170 18.57 S 174.33 26.52, 175 27.86 S 178.78 37.7, 180 38.57 S 183.52 35.21, 185 35 S 188.56 36.73, 190 37.14 S 193.74 38.67, 195 37.86 S 198.74 31.52, 200 30.71 S 203.52 31.22, 205 31.43"
          fill="none"/>
    <circle r="4" cx="5" cy="40" fill="#3023AE"/>
    <circle r="4" cx="205" cy="31.43" fill="#C86DD7"/>      
</svg>