<svg width="200" height="50" viewBox="0 0 210 50" xmlns="http://www.w3.org/2000/svg">
    <defs>
        <linearGradient x1="0%" y1="0%" x2="100%" y2="0%" id="a">
            <stop stop-color="#3023AE" offset="0%"/>
            <stop stop-color="#C86DD7" offset="100%"/>
        </linearGradient>
    </defs>
    <path stroke="url(#a)"
          stroke-width="3"
          stroke-linejoin="round"
          stroke-linecap="round"
          d="M5 40 C 6.41 39.49, 8.51 38.32, 10 38.18 S 13.51 38.95, 15 39.09 S 18.51 39.23, 20 39.09 S 24.15 39.42, 25 38.18 S 28.51 24.69, 30 24.55 S 34.07 36.09, 35 37.27 S 38.51 37.41, 40 37.27 S 43.59 36.87, 45 36.36 S 48.63 34.26, 50 33.64 S 54.42 33.2, 55 31.82 S 58.73 10.81, 60 10 S 64.38 24.09, 65 25.45 S 68.84 30.87, 70 31.82 S 73.52 33.37, 75 33.64 S 78.52 33.91, 80 33.64 S 83.5 31.82, 85 31.82 S 88.55 33.24, 90 33.64 S 93.51 34.69, 95 34.55 S 98.59 32.22, 100 32.73 S 103.63 37.56, 105 38.18 S 108.59 37.78, 110 37.27 S 113.5 34.55, 115 34.55 S 118.52 37, 120 37.27 S 123.51 36.22, 125 36.36 S 128.5 38.18, 130 38.18 S 133.5 36.36, 135 36.36 S 138.51 38.04, 140 38.18 S 143.51 37.41, 145 37.27 S 148.51 37.13, 150 37.27 S 153.52 37.91, 155 38.18 S 158.52 39.36, 160 39.09 S 163.52 36.63, 165 36.36 S 168.5 37.27, 170 37.27 S 173.52 36.63, 175 36.36 S 178.51 35.31, 180 35.45 S 183.51 37.13, 185 37.27 S 188.51 36.22, 190 36.36 S 193.52 37.91, 195 38.18 S 198.51 38.04, 200 38.18 S 203.52 38.82, 205 39.09"
          fill="none"/>
    <circle r="4" cx="5" cy="40" fill="#3023AE"/>
    <circle r="4" cx="205" cy="39.09" fill="#C86DD7"/>      
</svg>