<svg width="200" height="50" viewBox="0 0 210 50" xmlns="http://www.w3.org/2000/svg">
    <defs>
        <linearGradient x1="0%" y1="0%" x2="100%" y2="0%" id="a">
            <stop stop-color="#3023AE" offset="0%"/>
            <stop stop-color="#C86DD7" offset="100%"/>
        </linearGradient>
    </defs>
    <path stroke="url(#a)"
          stroke-width="3"
          stroke-linejoin="round"
          stroke-linecap="round"
          d="M5 40 C 6.14 39.02, 8.53 36.02, 10 35.71 S 13.53 37.54, 15 37.86 S 18.5 37.86, 20 37.86 S 23.5 37.86, 25 37.86 S 28.5 37.86, 30 37.86 S 33.5 37.86, 35 37.86 S 38.5 37.86, 40 37.86 S 43.53 38.18, 45 37.86 S 49.31 37.04, 50 35.71 S 53.98 19.67, 55 18.57 S 59.17 23.75, 60 25 S 63.86 32.59, 65 33.57 S 68.62 34.16, 70 33.57 S 73.53 29.6, 75 29.29 S 78.62 30.84, 80 31.43 S 83.5 33.57, 85 33.57 S 88.53 31.12, 90 31.43 S 93.62 35.12, 95 35.71 S 98.62 36.3, 100 35.71 S 103.74 32.24, 105 31.43 S 108.53 28.98, 110 29.29 S 113.5 33.57, 115 33.57 S 118.53 29.6, 120 29.29 S 123.53 31.75, 125 31.43 S 128.62 27.73, 130 27.14 S 134.24 28.44, 135 27.14 S 138.74 9.19, 140 10 S 143.62 32.98, 145 33.57 S 149.24 15.59, 150 14.29 S 153.86 15.45, 155 16.43 S 158.86 21.88, 160 22.86 S 163.74 24.19, 165 25 S 168.53 29.6, 170 29.29 S 173.53 23.18, 175 22.86 S 178.74 27.95, 180 27.14 S 183.53 16.11, 185 16.43 S 188.74 28.48, 190 29.29 S 193.5 22.86, 195 22.86 S 199.08 28.11, 200 29.29 S 204.08 34.53, 205 35.71"
          fill="none"/>
    <circle r="4" cx="5" cy="40" fill="#3023AE"/>
    <circle r="4" cx="205" cy="35.71" fill="#C86DD7"/>      
</svg>