<svg width="200" height="50" viewBox="0 0 210 50" xmlns="http://www.w3.org/2000/svg">
    <defs>
        <linearGradient x1="0%" y1="0%" x2="100%" y2="0%" id="a">
            <stop stop-color="#3023AE" offset="0%"/>
            <stop stop-color="#C86DD7" offset="100%"/>
        </linearGradient>
    </defs>
    <path stroke="url(#a)"
          stroke-width="3"
          stroke-linejoin="round"
          stroke-linecap="round"
          d="M5 40 C 6.39 39.44, 9.53 39.41, 10 37.99 S 13.54 10.35, 15 10 S 19.52 34.19, 20 35.61 S 23.62 38.69, 25 39.27 S 28.5 39.74, 30 39.82 S 33.5 39.85, 35 39.82 S 38.5 39.63, 40 39.63 S 43.5 39.79, 45 39.82 S 48.5 39.82, 50 39.82 S 54.41 41.2, 55 39.82 S 58.5 16.65, 60 16.59 S 64.39 38.08, 65 39.45 S 68.5 39.21, 70 39.27 S 73.5 39.79, 75 39.82 S 78.5 39.51, 80 39.45 S 83.5 39.42, 85 39.45 S 88.5 39.6, 90 39.63 S 93.5 39.66, 95 39.63 S 98.5 39.42, 100 39.45 S 103.5 39.76, 105 39.82 S 108.5 39.9, 110 39.82 S 113.5 39.33, 115 39.27 S 118.5 39.37, 120 39.45 S 123.5 39.76, 125 39.82 S 128.5 39.82, 130 39.82 S 133.5 39.82, 135 39.82 S 138.5 39.82, 140 39.82 S 143.5 39.82, 145 39.82 S 148.5 39.82, 150 39.82 S 153.5 39.82, 155 39.82 S 158.5 39.82, 160 39.82 S 163.5 39.82, 165 39.82 S 168.5 39.82, 170 39.82 S 173.5 39.85, 175 39.82 S 178.5 39.63, 180 39.63 S 183.5 39.79, 185 39.82 S 188.5 39.9, 190 39.82 S 193.5 39.27, 195 39.27 S 198.51 39.66, 200 39.82"
          fill="none"/>
    <circle r="4" cx="5" cy="40" fill="#3023AE"/>
    <circle r="4" cx="200" cy="39.82" fill="#C86DD7"/>      
</svg>