<svg width="200" height="50" viewBox="0 0 210 50" xmlns="http://www.w3.org/2000/svg">
    <defs>
        <linearGradient x1="0%" y1="0%" x2="100%" y2="0%" id="a">
            <stop stop-color="#3023AE" offset="0%"/>
            <stop stop-color="#C86DD7" offset="100%"/>
        </linearGradient>
    </defs>
    <path stroke="url(#a)"
          stroke-width="3"
          stroke-linejoin="round"
          stroke-linecap="round"
          d="M5 40 C 5.4 38.55, 8.8 22.9, 10 22 S 13.91 31.47, 15 32.5 S 18.52 31.28, 20 31.5 S 23.51 33.85, 25 34 S 28.54 32.86, 30 32.5 S 33.52 31.72, 35 31.5 S 38.63 31.62, 40 31 S 43.66 27.67, 45 27 S 48.8 26.9, 50 26 S 53.63 18.88, 55 19.5 S 58.97 29.41, 60 30.5 S 63.61 30.56, 65 30 S 68.54 26.14, 70 26.5 S 73.54 32.86, 75 32.5 S 78.51 23.85, 80 24 S 83.53 33.21, 85 33.5 S 88.91 27.03, 90 26 S 93.56 24.43, 95 24 S 98.56 22.57, 100 23 S 103.53 26.71, 105 27 S 108.51 25.15, 110 25 S 113.5 25.93, 115 26 S 118.63 26.12, 120 25.5 S 123.53 21.79, 125 21.5 S 128.58 24, 130 23.5 S 133.5 18.07, 135 18 S 138.63 22.38, 140 23 S 143.56 22.07, 145 22.5 S 148.71 25.23, 150 26 S 153.71 29.27, 155 28.5 S 158.74 20.82, 160 20 S 163.51 22.15, 165 22 S 168.5 18.93, 170 19 S 173.89 23.5, 175 22.5 S 178.58 10.5, 180 10 S 183.83 18.06, 185 19 S 188.51 18.15, 190 18 S 193.53 18.29, 195 18 S 198.52 15.78, 200 16 S 203.77 18.64, 205 19.5"
          fill="none"/>
    <circle r="4" cx="5" cy="40" fill="#3023AE"/>
    <circle r="4" cx="205" cy="19.5" fill="#C86DD7"/>      
</svg>