<svg width="200" height="50" viewBox="0 0 210 50" xmlns="http://www.w3.org/2000/svg">
    <defs>
        <linearGradient x1="0%" y1="0%" x2="100%" y2="0%" id="a">
            <stop stop-color="#3023AE" offset="0%"/>
            <stop stop-color="#C86DD7" offset="100%"/>
        </linearGradient>
    </defs>
    <path stroke="url(#a)"
          stroke-width="3"
          stroke-linejoin="round"
          stroke-linecap="round"
          d="M5 40 C 6.23 39.14, 8.5 36.51, 10 36.49 S 13.58 39.41, 15 39.89 S 18.5 39.89, 20 39.89 S 23.52 40.14, 25 39.89 S 28.52 38.46, 30 38.19 S 33.5 38.07, 35 38.09 S 38.5 38.24, 40 38.3 S 43.5 38.46, 45 38.51 S 48.5 38.6, 50 38.62 S 54.51 40.04, 55 38.62 S 58.77 10.85, 60 10 S 63.58 31.2, 65 31.7 S 68.58 13.01, 70 13.51 S 74.36 33.85, 75 35.21 S 78.52 34.41, 80 34.68 S 83.53 36.74, 85 37.02 S 88.5 36.57, 90 36.6 S 93.52 37.45, 95 37.23 S 98.74 35.93, 100 35.11 S 103.5 30.79, 105 30.74 S 108.52 34.57, 110 34.79 S 113.5 32.12, 115 32.23 S 118.5 35.54, 120 35.53 S 123.51 31.99, 125 32.13 S 128.51 36.7, 130 36.49 S 133.5 30.68, 135 30.74 S 138.63 36.3, 140 36.91 S 143.52 35.46, 145 35.21 S 148.87 36.2, 150 35.21 S 153.52 26.27, 155 26.49 S 158.8 35.8, 160 36.7 S 163.51 33.8, 165 33.94 S 168.52 37.39, 170 37.66 S 173.54 36.07, 175 35.74 S 178.55 35.81, 180 35.43 S 183.5 33.03, 185 33.09 S 188.51 35.64, 190 35.85 S 193.51 34.33, 195 34.47 S 198.51 36.62, 200 36.81 S 203.53 36.05, 205 35.74"
          fill="none"/>
    <circle r="4" cx="5" cy="40" fill="#3023AE"/>
    <circle r="4" cx="205" cy="35.74" fill="#C86DD7"/>      
</svg>