<svg width="200" height="50" viewBox="0 0 210 50" xmlns="http://www.w3.org/2000/svg">
    <defs>
        <linearGradient x1="0%" y1="0%" x2="100%" y2="0%" id="a">
            <stop stop-color="#3023AE" offset="0%"/>
            <stop stop-color="#C86DD7" offset="100%"/>
        </linearGradient>
    </defs>
    <path stroke="url(#a)"
          stroke-width="3"
          stroke-linejoin="round"
          stroke-linecap="round"
          d="M5 40 C 6.48 39.75, 8.51 39.34, 10 39.15 S 13.5 38.67, 15 38.73 S 18.51 39.45, 20 39.58 S 23.5 39.58, 25 39.58 S 28.5 39.58, 30 39.58 S 33.5 39.58, 35 39.58 S 38.51 39.71, 40 39.58 S 43.5 38.73, 45 38.73 S 48.5 39.52, 50 39.58 S 53.5 39.15, 55 39.15 S 59.49 40.99, 60 39.58 S 63.58 11.75, 65 11.27 S 69.41 34.82, 70 36.2 S 73.53 34.2, 75 34.51 S 79.11 39.52, 80 38.31 S 84.5 22.4, 85 20.99 S 88.73 9.2, 90 10 S 94.49 25.91, 95 27.32 S 98.85 36.92, 100 37.89 S 103.51 35.64, 105 35.77 S 108.58 38.25, 110 38.73 S 113.5 39.21, 115 39.15 S 118.58 38.79, 120 38.31 S 123.52 36.02, 125 35.77 S 128.5 36.56, 130 36.62 S 133.51 36.01, 135 36.2 S 138.55 37.52, 140 37.89 S 143.51 38.86, 145 38.73 S 148.5 37.04, 150 37.04 S 153.51 38.54, 155 38.73 S 158.5 38.37, 160 38.31 S 163.51 38.44, 165 38.31 S 168.51 37.59, 170 37.46 S 173.52 37.71, 175 37.46 S 178.78 36.64, 180 35.77 S 183.56 29.85, 185 30.28 S 188.9 37.71, 190 38.73 S 193.5 39.58, 195 39.58 S 198.52 38.98, 200 38.73 S 203.52 38.14, 205 37.89"
          fill="none"/>
    <circle r="4" cx="5" cy="40" fill="#3023AE"/>
    <circle r="4" cx="205" cy="37.89" fill="#C86DD7"/>      
</svg>