<svg width="200" height="50" viewBox="0 0 210 50" xmlns="http://www.w3.org/2000/svg">
    <defs>
        <linearGradient x1="0%" y1="0%" x2="100%" y2="0%" id="a">
            <stop stop-color="#3023AE" offset="0%"/>
            <stop stop-color="#C86DD7" offset="100%"/>
        </linearGradient>
    </defs>
    <path stroke="url(#a)"
          stroke-width="3"
          stroke-linejoin="round"
          stroke-linecap="round"
          d="M5 40 C 6.43 39.55, 8.61 39.01, 10 38.44 S 13.52 36.14, 15 35.91 S 18.52 37.14, 20 36.88 S 23.58 34.63, 25 34.16 S 28.53 33.89, 30 33.57 S 33.63 32.62, 35 32.01 S 38.5 29, 40 29.09 S 43.52 32.34, 45 32.6 S 48.5 30.9, 50 30.84 S 53.51 32.38, 55 32.21 S 58.54 30.02, 60 29.68 S 63.5 29.96, 65 29.87 S 68.59 29.61, 70 29.09 S 73.5 26.2, 75 26.17 S 78.66 28.22, 80 28.9 S 83.51 31.4, 85 31.23 S 88.82 28.65, 90 27.73 S 93.65 24.1, 95 23.44 S 98.67 22.16, 100 22.86 S 103.55 28.33, 105 28.7 S 108.5 25.33, 110 25.39 S 113.51 28.89, 115 29.09 S 118.62 27.34, 120 26.75 S 123.51 25.01, 125 24.81 S 128.52 25.16, 130 25.39 S 133.53 26.65, 135 26.36 S 138.58 23.91, 140 23.44 S 143.5 23.17, 145 23.05 S 148.59 23.18, 150 22.66 S 153.57 19.8, 155 19.35 S 158.7 18.79, 160 19.55 S 163.68 25.91, 165 25.19 S 168.91 15.13, 170 14.09 S 173.61 15.08, 175 15.65 S 178.74 17.37, 180 18.18 S 183.84 23.03, 185 22.08 S 188.89 11.01, 190 10 S 193.88 11.92, 195 12.92 S 198.65 18.3, 200 18.96 S 203.54 18.13, 205 17.79"
          fill="none"/>
    <circle r="4" cx="5" cy="40" fill="#3023AE"/>
    <circle r="4" cx="205" cy="17.79" fill="#C86DD7"/>      
</svg>