<svg width="200" height="50" viewBox="0 0 210 50" xmlns="http://www.w3.org/2000/svg">
    <defs>
        <linearGradient x1="0%" y1="0%" x2="100%" y2="0%" id="a">
            <stop stop-color="#3023AE" offset="0%"/>
            <stop stop-color="#C86DD7" offset="100%"/>
        </linearGradient>
    </defs>
    <path stroke="url(#a)"
          stroke-width="3"
          stroke-linejoin="round"
          stroke-linecap="round"
          d="M5 40 C 5.25 38.52, 8.54 10.35, 10 10 S 14.52 36.2, 15 37.62 S 18.52 39.63, 20 39.41 S 23.51 36.32, 25 36.14 S 28.57 37.75, 30 38.22 S 33.5 39.32, 35 39.41 S 38.51 38.99, 40 38.81 S 43.5 38.18, 45 38.22 S 48.51 38.93, 50 39.11 S 53.51 39.54, 55 39.41 S 58.51 38.4, 60 38.22 S 63.5 38.18, 65 38.22 S 68.5 38.47, 70 38.51 S 73.5 38.42, 75 38.51 S 78.5 39.2, 80 39.11 S 83.5 37.83, 85 37.92 S 88.54 40.05, 90 39.7 S 93.5 35.54, 95 35.54 S 98.59 39.2, 100 39.7 S 103.51 39.29, 105 39.11 S 108.5 38.51, 110 38.51 S 113.51 39.24, 115 39.11 S 118.5 37.66, 120 37.62 S 123.5 38.72, 125 38.81 S 128.5 38.22, 130 38.22 S 133.52 38.59, 135 38.81 S 138.51 39.57, 140 39.7 S 143.5 39.7, 145 39.7 S 148.5 39.74, 150 39.7 S 153.5 39.41, 155 39.41 S 158.5 39.79, 160 39.7 S 163.51 38.94, 165 38.81 S 168.5 38.77, 170 38.81 S 173.51 38.98, 175 39.11 S 178.5 39.61, 180 39.7 S 183.5 39.79, 185 39.7 S 188.5 39.15, 190 39.11 S 193.5 39.41, 195 39.41 S 198.51 39.24, 200 39.11 S 203.51 38.69, 205 38.51"
          fill="none"/>
    <circle r="4" cx="5" cy="40" fill="#3023AE"/>
    <circle r="4" cx="205" cy="38.51" fill="#C86DD7"/>      
</svg>