<svg width="200" height="50" viewBox="0 0 210 50" xmlns="http://www.w3.org/2000/svg">
    <defs>
        <linearGradient x1="0%" y1="0%" x2="100%" y2="0%" id="a">
            <stop stop-color="#3023AE" offset="0%"/>
            <stop stop-color="#C86DD7" offset="100%"/>
        </linearGradient>
    </defs>
    <path stroke="url(#a)"
          stroke-width="3"
          stroke-linejoin="round"
          stroke-linecap="round"
          d="M5 40 C 6.48 39.77, 9.21 40.49, 10 39.21 S 14.37 25.18, 15 23.82 S 18.89 16.58, 20 17.59 S 24.06 31.81, 25 32.98 S 28.58 30.57, 30 30.08 S 33.71 28.8, 35 29.56 S 38.66 35.29, 40 35.96 S 43.5 34.47, 45 34.57 S 48.5 36.64, 50 36.66 S 53.52 34.9, 55 34.68 S 58.5 35.17, 60 35.2 S 63.5 34.97, 65 34.89 S 68.5 34.53, 70 34.65 S 74.28 37.02, 75 35.7 S 79.44 17.72, 80 16.33 S 83.51 10.59, 85 10.77 S 89.36 16.2, 90 17.56 S 93.98 30.91, 95 32.01 S 98.81 29.23, 100 28.32 S 103.52 24.61, 105 24.4 S 108.56 27.32, 110 26.89 S 113.7 22.19, 115 21.44 S 119.01 22.26, 120 21.13 S 123.5 9.91, 125 10 S 129.14 20.5, 130 21.73 S 133.62 23.82, 135 24.4 S 138.99 27.04, 140 25.93 S 143.58 13.92, 145 13.42 S 148.51 22.25, 150 22.42 S 153.7 13.81, 155 14.56 S 159.02 27.11, 160 28.24 S 163.59 26.56, 165 26.05 S 168.51 24.77, 170 24.63 S 173.52 24.85, 175 25.08 S 178.5 26.26, 180 26.18 S 183.59 25.07, 185 24.56 S 188.5 22.55, 190 22.57 S 193.52 24.46, 195 24.68 S 198.5 24, 200 24.02 S 203.52 24.58, 205 24.81"
          fill="none"/>
    <circle r="4" cx="5" cy="40" fill="#3023AE"/>
    <circle r="4" cx="205" cy="24.810000000000002" fill="#C86DD7"/>      
</svg>