<svg width="200" height="50" viewBox="0 0 210 50" xmlns="http://www.w3.org/2000/svg">
    <defs>
        <linearGradient x1="0%" y1="0%" x2="100%" y2="0%" id="a">
            <stop stop-color="#3023AE" offset="0%"/>
            <stop stop-color="#C86DD7" offset="100%"/>
        </linearGradient>
    </defs>
    <path stroke="url(#a)"
          stroke-width="3"
          stroke-linejoin="round"
          stroke-linecap="round"
          d="M5 40 C 5.88 38.78, 8.77 33.93, 10 33.08 S 13.5 33.08, 15 33.08 S 18.64 32.45, 20 33.08 S 23.54 38.03, 25 37.69 S 28.54 31.11, 30 30.77 S 33.5 35.38, 35 35.38 S 38.64 31.4, 40 30.77 S 43.64 30.14, 45 30.77 S 48.54 35.04, 50 35.38 S 53.54 33.42, 55 33.08 S 58.77 33.93, 60 33.08 S 64.4 27.53, 65 26.15 S 68.77 9.15, 70 10 S 74.35 31.73, 75 33.08 S 78.64 31.4, 80 30.77 S 83.54 28.12, 85 28.46 S 88.77 32.23, 90 33.08 S 93.54 35.72, 95 35.38 S 98.54 30.43, 100 30.77 S 103.77 36.84, 105 37.69 S 108.5 37.69, 110 37.69 S 113.5 37.69, 115 37.69 S 118.5 37.69, 120 37.69 S 123.54 38.03, 125 37.69 S 128.5 35.38, 130 35.38 S 133.54 37.35, 135 37.69 S 138.5 37.69, 140 37.69 S 143.5 37.69, 145 37.69 S 148.5 37.69, 150 37.69 S 153.5 37.69, 155 37.69 S 158.5 37.69, 160 37.69 S 163.5 37.69, 165 37.69 S 168.5 37.69, 170 37.69 S 173.5 37.69, 175 37.69 S 178.5 37.69, 180 37.69"
          fill="none"/>
    <circle r="4" cx="5" cy="40" fill="#3023AE"/>
    <circle r="4" cx="180" cy="37.69" fill="#C86DD7"/>      
</svg>