<svg width="200" height="50" viewBox="0 0 210 50" xmlns="http://www.w3.org/2000/svg">
    <defs>
        <linearGradient x1="0%" y1="0%" x2="100%" y2="0%" id="a">
            <stop stop-color="#3023AE" offset="0%"/>
            <stop stop-color="#C86DD7" offset="100%"/>
        </linearGradient>
    </defs>
    <path stroke="url(#a)"
          stroke-width="3"
          stroke-linejoin="round"
          stroke-linecap="round"
          d="M5 40 C 5.25 38.52, 8.86 10.98, 10 10 S 14.37 30.07, 15 31.43 S 18.62 30.84, 20 31.43 S 23.62 35.12, 25 35.71 S 28.5 35.71, 30 35.71 S 33.5 35.71, 35 35.71 S 38.5 35.71, 40 35.71 S 43.5 35.71, 45 35.71 S 48.62 36.3, 50 35.71 S 53.62 32.02, 55 31.43 S 58.62 30.84, 60 31.43 S 63.62 35.12, 65 35.71 S 68.5 35.71, 70 35.71 S 73.5 35.71, 75 35.71 S 78.5 35.71, 80 35.71 S 83.5 35.71, 85 35.71 S 88.5 35.71, 90 35.71 S 93.62 36.3, 95 35.71 S 98.5 31.43, 100 31.43 S 103.62 35.12, 105 35.71 S 108.5 35.71, 110 35.71 S 113.5 35.71, 115 35.71 S 118.5 35.71, 120 35.71 S 123.5 35.71, 125 35.71 S 128.5 35.71, 130 35.71 S 133.5 35.71, 135 35.71 S 138.5 35.71, 140 35.71 S 143.5 35.71, 145 35.71 S 148.5 35.71, 150 35.71 S 153.5 35.71, 155 35.71 S 158.5 35.71, 160 35.71 S 163.5 35.71, 165 35.71 S 168.5 35.71, 170 35.71 S 173.5 35.71, 175 35.71 S 178.5 35.71, 180 35.71 S 183.5 35.71, 185 35.71"
          fill="none"/>
    <circle r="4" cx="5" cy="40" fill="#3023AE"/>
    <circle r="4" cx="185" cy="35.71" fill="#C86DD7"/>      
</svg>