<svg width="200" height="50" viewBox="0 0 210 50" xmlns="http://www.w3.org/2000/svg">
    <defs>
        <linearGradient x1="0%" y1="0%" x2="100%" y2="0%" id="a">
            <stop stop-color="#3023AE" offset="0%"/>
            <stop stop-color="#C86DD7" offset="100%"/>
        </linearGradient>
    </defs>
    <path stroke="url(#a)"
          stroke-width="3"
          stroke-linejoin="round"
          stroke-linecap="round"
          d="M5 40 C 5.25 38.52, 8.66 10.67, 10 10 S 14.44 33.61, 15 35 S 18.66 35.67, 20 35 S 23.5 30, 25 30 S 28.66 34.33, 30 35 S 33.5 35, 35 35 S 38.66 35.67, 40 35 S 43.5 30, 45 30 S 48.66 34.33, 50 35 S 53.5 35, 55 35 S 58.5 35, 60 35 S 63.5 35, 65 35 S 68.5 35, 70 35 S 73.5 35, 75 35 S 78.5 35, 80 35 S 83.5 35, 85 35 S 88.5 35, 90 35 S 93.5 35, 95 35 S 98.5 35, 100 35 S 103.5 35, 105 35 S 108.5 35, 110 35 S 113.5 35, 115 35 S 118.5 35, 120 35 S 123.66 35.67, 125 35 S 128.5 30, 130 30 S 133.66 34.33, 135 35 S 138.5 35, 140 35 S 143.5 35, 145 35 S 148.5 35, 150 35 S 153.5 35, 155 35 S 158.5 35, 160 35 S 163.66 35.67, 165 35 S 168.5 30, 170 30 S 173.66 34.33, 175 35 S 178.5 35, 180 35"
          fill="none"/>
    <circle r="4" cx="5" cy="40" fill="#3023AE"/>
    <circle r="4" cx="180" cy="35" fill="#C86DD7"/>      
</svg>