<svg width="200" height="50" viewBox="0 0 210 50" xmlns="http://www.w3.org/2000/svg">
    <defs>
        <linearGradient x1="0%" y1="0%" x2="100%" y2="0%" id="a">
            <stop stop-color="#3023AE" offset="0%"/>
            <stop stop-color="#C86DD7" offset="100%"/>
        </linearGradient>
    </defs>
    <path stroke="url(#a)"
          stroke-width="3"
          stroke-linejoin="round"
          stroke-linecap="round"
          d="M5 40 C 6.37 39.39, 8.51 37.89, 10 37.76 S 13.52 38.84, 15 39.1 S 18.52 39.81, 20 39.55 S 23.68 38.02, 25 37.31 S 28.59 34.69, 30 34.18 S 33.59 34.24, 35 33.73 S 38.51 30.73, 40 30.6 S 43.51 32.71, 45 32.84 S 48.57 31.94, 50 31.49 S 53.5 29.77, 55 29.7 S 58.52 31.3, 60 31.04 S 63.75 28.75, 65 27.91 S 68.57 24.78, 70 24.33 S 73.61 24.22, 75 24.78 S 78.57 27.91, 80 28.36 S 83.59 28.42, 85 27.91 S 88.61 25.34, 90 24.78 S 93.5 23.81, 95 23.88 S 98.5 25.15, 100 25.22 S 103.51 24.53, 105 24.33 S 108.83 24.82, 110 23.88 S 113.83 17.21, 115 16.27 S 118.51 15.95, 120 15.82 S 123.65 16.03, 125 15.37 S 128.73 10.1, 130 10.9 S 133.81 20.73, 135 21.64 S 138.65 19.17, 140 18.51 S 143.5 16.79, 145 16.72 S 148.51 17.93, 150 18.06 S 153.51 17.41, 155 17.61 S 158.51 19.53, 160 19.4 S 163.59 17.23, 165 16.72 S 168.57 16.27, 170 15.82 S 173.65 14.24, 175 13.58 S 178.55 10.51, 180 10.9 S 183.59 15.76, 185 16.27 S 188.54 14.15, 190 14.48 S 193.63 19.12, 195 18.51 S 198.73 9.2, 200 10 S 204.52 23.36, 205 24.78"
          fill="none"/>
    <circle r="4" cx="5" cy="40" fill="#3023AE"/>
    <circle r="4" cx="205" cy="24.78" fill="#C86DD7"/>      
</svg>