<svg width="200" height="50" viewBox="0 0 210 50" xmlns="http://www.w3.org/2000/svg">
    <defs>
        <linearGradient x1="0%" y1="0%" x2="100%" y2="0%" id="a">
            <stop stop-color="#3023AE" offset="0%"/>
            <stop stop-color="#C86DD7" offset="100%"/>
        </linearGradient>
    </defs>
    <path stroke="url(#a)"
          stroke-width="3"
          stroke-linejoin="round"
          stroke-linecap="round"
          d="M5 40 C 6.31 39.27, 8.5 37.23, 10 37.21 S 13.55 39.44, 15 39.84 S 18.5 39.97, 20 39.96 S 23.5 39.81, 25 39.75 S 28.5 39.6, 30 39.59 S 33.5 39.77, 35 39.67 S 38.53 39.24, 40 38.93 S 43.51 37.75, 45 37.58 S 48.51 37.96, 50 37.78 S 53.51 36.57, 55 36.39 S 58.5 36.53, 60 36.55 S 63.5 36.4, 65 36.51 S 68.5 37.27, 70 37.29 S 73.55 37, 75 36.63 S 78.52 35.02, 80 34.75 S 83.53 34.55, 85 34.83 S 88.51 36.48, 90 36.63 S 93.5 35.8, 95 35.81 S 98.5 36.74, 100 36.68 S 103.59 35.91, 105 35.4 S 108.53 33.34, 110 33.06 S 113.5 33.56, 115 33.52 S 118.51 32.99, 120 32.82 S 123.5 32.49, 125 32.41 S 128.5 32.25, 130 32.28 S 133.5 32.6, 135 32.61 S 138.54 32.72, 140 32.37 S 143.51 30.36, 145 30.19 S 148.53 31.56, 150 31.26 S 153.52 28.39, 155 28.14 S 158.53 29.85, 160 29.58 S 163.62 26.88, 165 26.29 S 168.5 25.23, 170 25.27 S 173.91 27.61, 175 26.58 S 179.01 16.96, 180 15.83 S 183.51 15.32, 185 15.17 S 188.7 14.09, 190 14.84 S 193.59 20.46, 195 20.96 S 198.99 19.48, 200 18.37 S 204.23 11.29, 205 10"
          fill="none"/>
    <circle r="4" cx="5" cy="40" fill="#3023AE"/>
    <circle r="4" cx="205" cy="10" fill="#C86DD7"/>      
</svg>