<svg width="200" height="50" viewBox="0 0 210 50" xmlns="http://www.w3.org/2000/svg">
    <defs>
        <linearGradient x1="0%" y1="0%" x2="100%" y2="0%" id="a">
            <stop stop-color="#3023AE" offset="0%"/>
            <stop stop-color="#C86DD7" offset="100%"/>
        </linearGradient>
    </defs>
    <path stroke="url(#a)"
          stroke-width="3"
          stroke-linejoin="round"
          stroke-linecap="round"
          d="M5 40 C 5.91 38.81, 8.5 33.43, 10 33.41 S 13.74 39.05, 15 39.86 S 18.5 39.86, 20 39.86 S 23.5 39.88, 25 39.86 S 28.5 39.8, 30 39.72 S 33.5 39.34, 35 39.3 S 38.5 39.52, 40 39.44 S 43.51 38.91, 45 38.74 S 48.54 38.67, 50 38.32 S 53.57 36.82, 55 36.36 S 58.5 35.15, 60 35.09 S 63.59 36.44, 65 35.93 S 68.63 32.06, 70 31.45 S 73.71 32.21, 75 31.45 S 78.54 25.89, 80 25.56 S 83.64 28.58, 85 29.21 S 88.52 29.94, 90 30.19 S 93.5 30.95, 95 30.89 S 98.51 29.62, 100 29.77 S 103.52 31.64, 105 31.87 S 108.57 31.77, 110 31.31 S 113.6 29.17, 115 28.64 S 118.64 28.15, 120 27.52 S 123.5 24.08, 125 24.02 S 128.58 26.6, 130 27.1 S 133.52 27.29, 135 27.52 S 138.5 28.6, 140 28.64 S 143.66 28.48, 145 27.8 S 148.52 23.83, 150 23.6 S 153.53 25.97, 155 26.26 S 158.53 25.85, 160 25.56 S 163.71 25.06, 165 24.3 S 168.68 20.38, 170 19.67 S 173.53 19.26, 175 18.97 S 178.51 17.92, 180 17.71 S 183.61 18.14, 185 17.57 S 188.75 14.47, 190 13.64 S 193.59 11.49, 195 10.98 S 198.5 9.96, 200 10 S 203.55 10.89, 205 11.26"
          fill="none"/>
    <circle r="4" cx="5" cy="40" fill="#3023AE"/>
    <circle r="4" cx="205" cy="11.260000000000002" fill="#C86DD7"/>      
</svg>