<svg width="200" height="50" viewBox="0 0 210 50" xmlns="http://www.w3.org/2000/svg">
    <defs>
        <linearGradient x1="0%" y1="0%" x2="100%" y2="0%" id="a">
            <stop stop-color="#3023AE" offset="0%"/>
            <stop stop-color="#C86DD7" offset="100%"/>
        </linearGradient>
    </defs>
    <path stroke="url(#a)"
          stroke-width="3"
          stroke-linejoin="round"
          stroke-linecap="round"
          d="M5 40 C 5.9 38.8, 8.5 33.39, 10 33.37 S 13.74 39.04, 15 39.86 S 18.5 39.86, 20 39.86 S 23.5 39.88, 25 39.86 S 28.5 39.78, 30 39.71 S 33.5 39.51, 35 39.42 S 38.5 39.15, 40 39.13 S 43.5 39.39, 45 39.28 S 48.53 38.73, 50 38.41 S 53.53 37.42, 55 37.12 S 58.53 36.69, 60 36.39 S 63.54 35.46, 65 35.1 S 68.59 34.45, 70 33.94 S 73.52 31.75, 75 31.49 S 78.66 32.89, 80 32.21 S 83.6 26.97, 85 26.44 S 88.55 28.08, 90 28.46 S 93.53 28.74, 95 29.04 S 98.55 30.1, 100 30.48 S 103.51 31.46, 105 31.63 S 108.51 31.46, 110 31.63 S 113.6 33.32, 115 32.79 S 118.62 28.48, 120 27.88 S 123.58 28.93, 125 28.46 S 128.53 24.85, 130 24.57 S 133.58 26.1, 135 26.59 S 138.52 27.8, 140 28.03 S 143.5 28.19, 145 28.17 S 148.53 28.2, 150 27.88 S 153.63 26.62, 155 26.01 S 158.51 23.22, 160 23.41 S 163.56 26.88, 165 27.31 S 168.72 27.22, 170 26.44 S 173.73 22.04, 175 21.25 S 178.54 20.58, 180 20.24 S 183.53 19.24, 185 18.94 S 188.51 18.35, 190 18.22 S 193.65 18.72, 195 18.08 S 198.83 14.4, 200 13.46 S 203.77 10.85, 205 10"
          fill="none"/>
    <circle r="4" cx="5" cy="40" fill="#3023AE"/>
    <circle r="4" cx="205" cy="10" fill="#C86DD7"/>      
</svg>