<svg width="200" height="50" viewBox="0 0 210 50" xmlns="http://www.w3.org/2000/svg">
    <defs>
        <linearGradient x1="0%" y1="0%" x2="100%" y2="0%" id="a">
            <stop stop-color="#3023AE" offset="0%"/>
            <stop stop-color="#C86DD7" offset="100%"/>
        </linearGradient>
    </defs>
    <path stroke="url(#a)"
          stroke-width="3"
          stroke-linejoin="round"
          stroke-linecap="round"
          d="M5 40 C 5.71 38.68, 8.5 30.64, 10 30.61 S 13.9 38.79, 15 39.8 S 18.5 39.8, 20 39.8 S 23.5 39.83, 25 39.8 S 28.5 39.65, 30 39.59 S 33.5 39.45, 35 39.39 S 38.5 39.18, 40 39.18 S 43.5 39.51, 45 39.39 S 48.52 38.58, 50 38.37 S 53.54 38.29, 55 37.96 S 58.56 36.53, 60 36.12 S 63.57 35.54, 65 35.1 S 68.53 33.36, 70 33.06 S 73.57 33.52, 75 33.06 S 78.64 30.44, 80 29.8 S 83.94 29.43, 85 28.37 S 88.5 19.86, 90 19.8 S 93.78 27.09, 95 27.96 S 98.51 27.09, 100 26.94 S 103.51 27.12, 105 26.94 S 108.55 25.33, 110 25.71 S 113.64 28.95, 115 29.59 S 118.52 30.62, 120 30.41 S 123.69 28.88, 125 28.16 S 128.53 25.2, 130 24.9 S 133.62 26.71, 135 26.12 S 138.62 21.2, 140 20.61 S 143.57 21.4, 145 21.84 S 148.5 23.7, 150 23.67 S 153.52 21.42, 155 21.63 S 158.55 24.71, 160 25.1 S 163.74 25.11, 165 24.29 S 168.63 19.18, 170 18.57 S 173.64 19.16, 175 19.8 S 178.52 23, 180 23.27 S 183.84 22.58, 185 21.63 S 188.86 16.08, 190 15.1 S 193.57 13.5, 195 13.06 S 198.57 12.48, 200 12.04 S 203.61 10.57, 205 10"
          fill="none"/>
    <circle r="4" cx="5" cy="40" fill="#3023AE"/>
    <circle r="4" cx="205" cy="10" fill="#C86DD7"/>      
</svg>