<svg width="200" height="50" viewBox="0 0 210 50" xmlns="http://www.w3.org/2000/svg">
    <defs>
        <linearGradient x1="0%" y1="0%" x2="100%" y2="0%" id="a">
            <stop stop-color="#3023AE" offset="0%"/>
            <stop stop-color="#C86DD7" offset="100%"/>
        </linearGradient>
    </defs>
    <path stroke="url(#a)"
          stroke-width="3"
          stroke-linejoin="round"
          stroke-linecap="round"
          d="M5 40 C 5.7 38.67, 8.5 30.51, 10 30.48 S 13.9 38.77, 15 39.79 S 18.5 39.79, 20 39.79 S 23.5 39.82, 25 39.79 S 28.5 39.65, 30 39.59 S 33.5 39.44, 35 39.38 S 38.5 39.17, 40 39.17 S 43.51 39.5, 45 39.38 S 48.52 38.56, 50 38.34 S 53.54 38.26, 55 37.93 S 58.56 36.49, 60 36.07 S 63.57 35.47, 65 35.03 S 68.53 33.27, 70 32.97 S 73.58 33.44, 75 32.97 S 78.65 30.3, 80 29.66 S 83.95 29.28, 85 28.21 S 88.5 19.58, 90 19.52 S 93.79 26.91, 95 27.79 S 98.51 26.91, 100 26.76 S 103.51 26.94, 105 26.76 S 108.56 25.1, 110 25.52 S 113.63 29.04, 115 29.66 S 118.52 30.32, 120 30.07 S 123.68 28.71, 125 28 S 128.53 24.99, 130 24.69 S 133.62 26.53, 135 25.93 S 138.62 20.94, 140 20.34 S 143.57 21.14, 145 21.59 S 148.5 23.48, 150 23.45 S 153.52 21.16, 155 21.38 S 158.55 24.51, 160 24.9 S 163.71 24.84, 165 24.07 S 168.66 19.57, 170 18.9 S 173.6 18.55, 175 19.1 S 178.54 22.47, 180 22.83 S 183.84 22.55, 185 21.59 S 188.87 15.53, 190 14.55 S 193.57 13.34, 195 12.9 S 198.56 11.87, 200 11.45 S 203.56 10.42, 205 10"
          fill="none"/>
    <circle r="4" cx="5" cy="40" fill="#3023AE"/>
    <circle r="4" cx="205" cy="10" fill="#C86DD7"/>      
</svg>