<svg width="200" height="50" viewBox="0 0 210 50" xmlns="http://www.w3.org/2000/svg">
    <defs>
        <linearGradient x1="0%" y1="0%" x2="100%" y2="0%" id="a">
            <stop stop-color="#3023AE" offset="0%"/>
            <stop stop-color="#C86DD7" offset="100%"/>
        </linearGradient>
    </defs>
    <path stroke="url(#a)"
          stroke-width="3"
          stroke-linejoin="round"
          stroke-linecap="round"
          d="M5 40 C 5.25 38.52, 8.62 10.59, 10 10 S 14.5 34.3, 15 35.71 S 18.58 37.8, 20 38.29 S 23.51 39.01, 25 39.14 S 28.51 39.27, 30 39.14 S 33.5 38.29, 35 38.29 S 38.51 39.27, 40 39.14 S 43.51 37.56, 45 37.43 S 48.5 38.29, 50 38.29 S 53.55 37.8, 55 37.43 S 58.5 35.71, 60 35.71 S 63.55 37.06, 65 37.43 S 68.67 38.98, 70 38.29 S 73.55 32.66, 75 32.29 S 78.58 35.22, 80 35.71 S 83.55 36.08, 85 35.71 S 88.55 32.77, 90 33.14 S 93.62 37.7, 95 38.29 S 98.5 37.43, 100 37.43 S 103.52 38.54, 105 38.29 S 108.5 35.71, 110 35.71 S 113.58 37.8, 115 38.29 S 118.51 39.27, 120 39.14 S 123.55 37.8, 125 37.43 S 128.51 36.7, 130 36.57 S 133.67 37.26, 135 36.57 S 138.55 31.8, 140 31.43 S 143.51 33.87, 145 34 S 148.62 31.7, 150 32.29 S 153.86 39.27, 155 38.29 S 158.58 24.2, 160 23.71 S 163.95 33.78, 165 34.86 S 168.51 33.87, 170 34 S 173.51 35.58, 175 35.71 S 178.5 34.86, 180 34.86 S 183.62 35.12, 185 35.71 S 188.52 38.89, 190 39.14 S 193.58 37.92, 195 37.43 S 198.51 35.58, 200 35.71 S 203.67 37.6, 205 38.29"
          fill="none"/>
    <circle r="4" cx="5" cy="40" fill="#3023AE"/>
    <circle r="4" cx="205" cy="38.29" fill="#C86DD7"/>      
</svg>