<svg width="200" height="50" viewBox="0 0 210 50" xmlns="http://www.w3.org/2000/svg">
    <defs>
        <linearGradient x1="0%" y1="0%" x2="100%" y2="0%" id="a">
            <stop stop-color="#3023AE" offset="0%"/>
            <stop stop-color="#C86DD7" offset="100%"/>
        </linearGradient>
    </defs>
    <path stroke="url(#a)"
          stroke-width="3"
          stroke-linejoin="round"
          stroke-linecap="round"
          d="M5 40 C 5.25 38.52, 8.86 10.98, 10 10 S 14.38 30, 15 31.36 S 18.57 31.36, 20 31.82 S 23.52 34.28, 25 34.55 S 28.59 34.15, 30 33.64 S 33.55 31.31, 35 30.91 S 38.51 30.71, 40 30.91 S 43.68 31.55, 45 32.27 S 48.57 35.91, 50 36.36 S 53.59 35.96, 55 35.45 S 58.55 33.12, 60 32.73 S 63.52 32.46, 65 32.73 S 68.59 35.06, 70 34.55 S 73.51 29.29, 75 29.09 S 78.54 32.85, 80 33.18 S 83.54 31.03, 85 31.36 S 88.5 35.52, 90 35.45 S 93.51 31.04, 95 30.91 S 98.55 34.15, 100 34.55 S 103.5 33.64, 105 33.64 S 108.51 34.35, 110 34.55 S 113.51 34.8, 115 35 S 118.54 35.58, 120 35.91 S 123.57 37.72, 125 37.27 S 128.61 33.3, 130 32.73 S 133.61 32.61, 135 33.18 S 138.59 36.31, 140 36.82 S 143.54 37.15, 145 36.82 S 148.51 34.69, 150 34.55 S 153.55 35.52, 155 35.91 S 158.5 37.34, 160 37.27 S 163.61 36.02, 165 35.45 S 168.52 32.91, 170 33.18 S 173.63 36.65, 175 37.27 S 178.51 37.59, 180 37.73 S 183.54 38.51, 185 38.18 S 188.52 35.72, 190 35.45 S 193.52 36.09, 195 36.36 S 198.5 37.27, 200 37.27 S 203.52 36.63, 205 36.36"
          fill="none"/>
    <circle r="4" cx="5" cy="40" fill="#3023AE"/>
    <circle r="4" cx="205" cy="36.36" fill="#C86DD7"/>      
</svg>