<svg width="200" height="50" viewBox="0 0 210 50" xmlns="http://www.w3.org/2000/svg">
    <defs>
        <linearGradient x1="0%" y1="0%" x2="100%" y2="0%" id="a">
            <stop stop-color="#3023AE" offset="0%"/>
            <stop stop-color="#C86DD7" offset="100%"/>
        </linearGradient>
    </defs>
    <path stroke="url(#a)"
          stroke-width="3"
          stroke-linejoin="round"
          stroke-linecap="round"
          d="M5 40 C 6.13 39.01, 8.51 35.77, 10 35.64 S 13.62 38.57, 15 39.16 S 18.5 39.76, 20 39.88 S 23.5 39.96, 25 39.95 S 28.5 39.82, 30 39.8 S 33.5 39.81, 35 39.82 S 38.5 39.85, 40 39.87 S 43.5 39.96, 45 39.97 S 48.5 39.92, 50 39.92 S 53.5 39.94, 55 39.95 S 58.5 39.97, 60 39.97 S 63.5 40.01, 65 39.98 S 68.5 39.82, 70 39.8 S 73.5 39.82, 75 39.83 S 78.5 39.86, 80 39.88 S 83.5 39.94, 85 39.95 S 88.5 39.93, 90 39.93 S 93.5 39.97, 95 39.98 S 98.5 39.98, 100 39.98 S 103.5 39.98, 105 39.98 S 108.5 39.98, 110 39.97 S 113.5 39.93, 115 39.92 S 118.5 39.86, 120 39.87 S 123.5 39.96, 125 39.98 S 128.5 39.98, 130 39.98 S 134.53 41.4, 135 39.98 S 138.73 10.8, 140 10 S 144.51 32.22, 145 33.64 S 148.69 37.93, 150 38.65 S 153.5 39.03, 155 39.13 S 158.5 39.29, 160 39.33 S 163.5 39.38, 165 39.41 S 168.5 39.6, 170 39.55 S 173.5 39.06, 175 39.09 S 178.5 39.65, 180 39.76 S 183.5 39.83, 185 39.85 S 188.5 39.9, 190 39.87 S 193.5 39.73, 195 39.68 S 198.5 39.5, 200 39.53 S 203.5 39.79, 205 39.9"
          fill="none"/>
    <circle r="4" cx="5" cy="40" fill="#3023AE"/>
    <circle r="4" cx="205" cy="39.9" fill="#C86DD7"/>      
</svg>