<svg width="200" height="50" viewBox="0 0 210 50" xmlns="http://www.w3.org/2000/svg">
    <defs>
        <linearGradient x1="0%" y1="0%" x2="100%" y2="0%" id="a">
            <stop stop-color="#3023AE" offset="0%"/>
            <stop stop-color="#C86DD7" offset="100%"/>
        </linearGradient>
    </defs>
    <path stroke="url(#a)"
          stroke-width="3"
          stroke-linejoin="round"
          stroke-linecap="round"
          d="M5 40 C 6.05 38.93, 8.7 35.63, 10 34.88 S 13.5 34.28, 15 34.24 S 18.5 34.56, 20 34.6 S 23.58 35.01, 25 34.52 S 28.57 31.58, 30 31.11 S 33.51 31.44, 35 31.24 S 39.01 30.92, 40 29.79 S 43.7 20.59, 45 19.84 S 48.71 23.25, 50 24.01 S 53.51 25.53, 55 25.71 S 58.5 25.31, 60 25.25 S 63.52 25.54, 65 25.32 S 68.75 24.62, 70 23.8 S 73.65 19.42, 75 18.76 S 78.86 19.86, 80 18.89 S 83.63 10.83, 85 10.21 S 88.82 13.46, 90 14.39 S 93.59 17.54, 95 18.06 S 98.5 18.12, 100 18.09 S 103.51 17.69, 105 17.83 S 108.53 18.74, 110 19.02 S 113.5 19.67, 115 19.72 S 118.82 20.26, 120 19.33 S 123.61 12.37, 125 11.81 S 128.77 14.41, 130 15.27 S 133.66 18.14, 135 18.81 S 138.52 20.51, 140 20.28 S 143.95 18.34, 145 17.26 S 148.62 10.58, 150 10 S 153.77 12.22, 155 13.07 S 158.71 16.13, 160 16.9 S 163.5 19.02, 165 19.07 S 168.5 17.26, 170 17.26 S 173.54 18.77, 175 19.1 S 178.5 19.62, 180 19.53 S 183.51 18.71, 185 18.5 S 188.54 18.49, 190 18.14 S 193.51 15.94, 195 16.1 S 198.5 19.14, 200 19.22 S 203.67 17.3, 205 16.61"
          fill="none"/>
    <circle r="4" cx="5" cy="40" fill="#3023AE"/>
    <circle r="4" cx="205" cy="16.61" fill="#C86DD7"/>      
</svg>