<svg width="200" height="50" viewBox="0 0 210 50" xmlns="http://www.w3.org/2000/svg">
    <defs>
        <linearGradient x1="0%" y1="0%" x2="100%" y2="0%" id="a">
            <stop stop-color="#3023AE" offset="0%"/>
            <stop stop-color="#C86DD7" offset="100%"/>
        </linearGradient>
    </defs>
    <path stroke="url(#a)"
          stroke-width="3"
          stroke-linejoin="round"
          stroke-linecap="round"
          d="M5 40 C 5.91 38.81, 8.59 34.01, 10 33.5 S 13.6 35.87, 15 36.41 S 18.5 37.31, 20 37.37 S 23.5 36.88, 25 36.82 S 29.01 38.09, 30 36.96 S 34.22 26.76, 35 25.48 S 38.81 21.42, 40 20.51 S 43.55 18.26, 45 17.88 S 48.8 16.98, 50 17.88 S 53.78 24.47, 55 25.35 S 58.7 25.81, 60 25.07 S 63.52 19.45, 65 19.68 S 68.78 25.71, 70 26.59 S 73.5 26.91, 75 26.87 S 78.53 26.62, 80 26.31 S 83.69 25.52, 85 24.79 S 88.5 20.88, 90 20.78 S 93.5 24.02, 95 24.1 S 98.73 22.13, 100 21.34 S 103.54 18.22, 105 17.88 S 108.74 19.81, 110 18.99 S 113.59 11.89, 115 11.38 S 118.78 14.51, 120 15.39 S 123.66 17.89, 125 18.57 S 128.58 20.02, 130 20.51 S 133.5 21.95, 135 22.03 S 138.6 21.59, 140 21.06 S 143.51 18.41, 145 18.29 S 148.5 20.21, 150 20.23 S 153.52 18.16, 155 18.43 S 158.51 21.89, 160 22.03 S 163.64 20.04, 165 19.4 S 168.91 18.36, 170 17.33 S 173.7 10.75, 175 10 S 178.75 10.69, 180 11.52 S 183.7 15.9, 185 16.64 S 188.56 16.75, 190 17.19 S 193.51 19.47, 195 19.68 S 198.66 19.25, 200 18.57 S 203.83 15.5, 205 14.56"
          fill="none"/>
    <circle r="4" cx="5" cy="40" fill="#3023AE"/>
    <circle r="4" cx="205" cy="14.559999999999999" fill="#C86DD7"/>      
</svg>