<svg width="200" height="50" viewBox="0 0 210 50" xmlns="http://www.w3.org/2000/svg">
    <defs>
        <linearGradient x1="0%" y1="0%" x2="100%" y2="0%" id="a">
            <stop stop-color="#3023AE" offset="0%"/>
            <stop stop-color="#C86DD7" offset="100%"/>
        </linearGradient>
    </defs>
    <path stroke="url(#a)"
          stroke-width="3"
          stroke-linejoin="round"
          stroke-linecap="round"
          d="M5 40 C 5.49 38.58, 9.11 26.69, 10 25.48 S 13.5 26.45, 15 26.45 S 19.07 26.65, 20 25.48 S 23.65 13.22, 25 13.87 S 29.02 29.18, 30 30.32 S 33.53 25.19, 35 25.48 S 38.76 31.42, 40 32.26 S 43.87 33.25, 45 32.26 S 48.5 23.55, 50 23.55 S 53.51 32.4, 55 32.26 S 58.5 22.58, 60 22.58 S 63.87 31.27, 65 32.26 S 68.7 32.04, 70 31.29 S 73.6 26.99, 75 26.45 S 78.51 27.28, 80 27.42 S 83.53 27.71, 85 27.42 S 88.51 25.34, 90 25.48 S 93.53 28.1, 95 28.39 S 98.53 27.71, 100 27.42 S 103.53 26.17, 105 26.45 S 108.51 29.21, 110 29.35 S 113.51 27.56, 115 27.42 S 118.56 28.81, 120 28.39 S 123.51 24.66, 125 24.52 S 128.76 28.26, 130 27.42 S 133.81 18.66, 135 17.74 S 138.51 19.54, 140 19.68 S 143.92 19.75, 145 18.71 S 148.5 10, 150 10 S 154.11 17.5, 155 18.71 S 158.53 23.26, 160 23.55 S 163.53 20.94, 165 20.65 S 168.65 20.96, 170 21.61 S 173.87 24.49, 175 25.48 S 178.76 29.48, 180 30.32 S 183.56 31.84, 185 32.26 S 188.53 33.52, 190 33.23 S 193.6 30.86, 195 30.32 S 198.87 30.34, 200 29.35 S 204.19 22.87, 205 21.61"
          fill="none"/>
    <circle r="4" cx="5" cy="40" fill="#3023AE"/>
    <circle r="4" cx="205" cy="21.61" fill="#C86DD7"/>      
</svg>