<svg width="200" height="50" viewBox="0 0 210 50" xmlns="http://www.w3.org/2000/svg">
    <defs>
        <linearGradient x1="0%" y1="0%" x2="100%" y2="0%" id="a">
            <stop stop-color="#3023AE" offset="0%"/>
            <stop stop-color="#C86DD7" offset="100%"/>
        </linearGradient>
    </defs>
    <path stroke="url(#a)"
          stroke-width="3"
          stroke-linejoin="round"
          stroke-linecap="round"
          d="M5 40 C 6.3 39.25, 8.5 37.17, 10 37.1 S 13.54 39.17, 15 39.52 S 18.5 39.52, 20 39.52 S 23.5 39.52, 25 39.52 S 28.5 39.52, 30 39.52 S 33.5 39.52, 35 39.52 S 38.5 39.52, 40 39.52 S 43.5 39.52, 45 39.52 S 48.5 39.52, 50 39.52 S 53.51 39.66, 55 39.52 S 58.51 38.69, 60 38.55 S 63.51 38.41, 65 38.55 S 68.51 39.38, 70 39.52 S 73.5 39.52, 75 39.52 S 78.5 39.52, 80 39.52 S 83.5 39.52, 85 39.52 S 89.19 40.78, 90 39.52 S 94.43 25.42, 95 24.03 S 98.53 15.03, 100 15.32 S 104.27 24.66, 105 25.97 S 108.65 33.88, 110 33.23 S 113.56 20.71, 115 21.13 S 119 37.25, 120 36.13 S 123.79 10.88, 125 10 S 129.36 27.51, 130 28.87 S 133.73 30.49, 135 31.29 S 138.73 34.36, 140 35.16 S 143.51 37.44, 145 37.58 S 148.65 36.78, 150 36.13 S 153.5 32.74, 155 32.74 S 158.54 36.48, 160 36.13 S 163.51 30.46, 165 30.32 S 168.6 34.62, 170 35.16 S 173.5 34.19, 175 34.19 S 178.51 35.02, 180 35.16 S 183.56 34.74, 185 35.16 S 188.53 37.77, 190 38.06 S 193.5 37.17, 195 37.1 S 198.52 37.8, 200 37.58 S 203.6 36.19, 205 35.65"
          fill="none"/>
    <circle r="4" cx="5" cy="40" fill="#3023AE"/>
    <circle r="4" cx="205" cy="35.65" fill="#C86DD7"/>      
</svg>