<svg width="200" height="50" viewBox="0 0 210 50" xmlns="http://www.w3.org/2000/svg">
    <defs>
        <linearGradient x1="0%" y1="0%" x2="100%" y2="0%" id="a">
            <stop stop-color="#3023AE" offset="0%"/>
            <stop stop-color="#C86DD7" offset="100%"/>
        </linearGradient>
    </defs>
    <path stroke="url(#a)"
          stroke-width="3"
          stroke-linejoin="round"
          stroke-linecap="round"
          d="M5 40 C 5.96 38.85, 8.56 34.43, 10 34 S 13.5 37, 15 37 S 18.5 34, 20 34 S 23.56 36.57, 25 37 S 28.5 37, 30 37 S 33.5 37, 35 37 S 38.5 37, 40 37 S 43.5 37, 45 37 S 48.56 37.43, 50 37 S 53.56 34.43, 55 34 S 58.56 33.57, 60 34 S 63.56 36.57, 65 37 S 68.71 37.77, 70 37 S 73.89 32, 75 31 S 78.5 28, 80 28 S 83.89 30, 85 31 S 88.71 36.23, 90 37 S 93.56 37.43, 95 37 S 99.48 35.41, 100 34 S 103.71 10.77, 105 10 S 109.17 26.75, 110 28 S 113.71 25.77, 115 25 S 118.89 21, 120 22 S 123.56 33.57, 125 34 S 128.56 24.57, 130 25 S 134.04 35.85, 135 37 S 138.71 37.77, 140 37 S 143.71 31.77, 145 31 S 148.5 31, 150 31 S 153.71 31.77, 155 31 S 158.71 25.77, 160 25 S 164.04 23.85, 165 25 S 169.04 35.85, 170 37 S 173.56 37.43, 175 37 S 178.5 34, 180 34 S 183.56 36.57, 185 37 S 188.56 37.43, 190 37 S 193.56 34.43, 195 34 S 199.04 35.15, 200 34 S 204.42 23.38, 205 22"
          fill="none"/>
    <circle r="4" cx="5" cy="40" fill="#3023AE"/>
    <circle r="4" cx="205" cy="22" fill="#C86DD7"/>      
</svg>