<svg width="200" height="50" viewBox="0 0 210 50" xmlns="http://www.w3.org/2000/svg">
    <defs>
        <linearGradient x1="0%" y1="0%" x2="100%" y2="0%" id="a">
            <stop stop-color="#3023AE" offset="0%"/>
            <stop stop-color="#C86DD7" offset="100%"/>
        </linearGradient>
    </defs>
    <path stroke="url(#a)"
          stroke-width="3"
          stroke-linejoin="round"
          stroke-linecap="round"
          d="M5 40 C 5.25 38.52, 9.41 11.38, 10 10 S 14.46 15.04, 15 16.44 S 19.35 34.83, 20 36.18 S 23.53 36.78, 25 37.05 S 28.51 38.23, 30 38.04 S 33.5 35.7, 35 35.75 S 38.57 37.92, 40 38.36 S 43.51 38.65, 45 38.8 S 48.5 39.24, 50 39.35 S 53.5 39.61, 55 39.56 S 58.58 39.51, 60 39.02 S 63.51 36.26, 65 36.07 S 68.5 37.71, 70 37.71 S 73.52 36.3, 75 36.07 S 78.5 36.2, 80 36.18 S 83.5 35.84, 85 35.96 S 88.52 36.71, 90 36.95 S 93.51 37.78, 95 37.6 S 98.5 35.85, 100 35.75 S 103.51 37.14, 105 36.95 S 108.52 34.7, 110 34.44 S 113.52 35.43, 115 35.2 S 118.57 33.35, 120 32.91 S 123.5 32.13, 125 32.15 S 128.53 33.29, 130 33.02 S 133.56 30.71, 135 30.29 S 138.51 29.92, 140 30.07 S 143.53 30.96, 145 31.27 S 148.52 31.92, 150 32.15 S 153.51 32.93, 155 32.8 S 158.61 31.84, 160 31.27 S 163.51 28.81, 165 28.65 S 168.5 30.15, 170 30.18 S 173.5 28.98, 175 28.87 S 178.51 29.29, 180 29.42 S 183.5 29.7, 185 29.75 S 188.55 29.37, 190 29.75 S 193.82 33.29, 195 32.36 S 199.18 23.14, 200 21.89 S 203.92 18.13, 205 17.09"
          fill="none"/>
    <circle r="4" cx="5" cy="40" fill="#3023AE"/>
    <circle r="4" cx="205" cy="17.09" fill="#C86DD7"/>      
</svg>