<svg width="200" height="50" viewBox="0 0 210 50" xmlns="http://www.w3.org/2000/svg">
    <defs>
        <linearGradient x1="0%" y1="0%" x2="100%" y2="0%" id="a">
            <stop stop-color="#3023AE" offset="0%"/>
            <stop stop-color="#C86DD7" offset="100%"/>
        </linearGradient>
    </defs>
    <path stroke="url(#a)"
          stroke-width="3"
          stroke-linejoin="round"
          stroke-linecap="round"
          d="M5 40 C 5.25 38.52, 8.5 10.06, 10 10 S 14.52 38.15, 15 39.57 S 18.5 39.76, 20 39.79 S 23.5 39.79, 25 39.79 S 28.5 39.85, 30 39.79 S 33.74 40.17, 35 39.36 S 38.53 33.68, 40 33.36 S 43.57 36.75, 45 37.21 S 48.53 36.88, 50 36.57 S 53.55 34.7, 55 35.07 S 58.52 38.92, 60 39.14 S 63.52 36.82, 65 36.57 S 68.5 37.33, 70 37.43 S 73.52 36.96, 75 37.21 S 78.5 39.04, 80 39.14 S 83.51 37.99, 85 37.86 S 88.51 38.42, 90 38.29 S 93.5 36.94, 95 37 S 98.53 38.4, 100 38.71 S 103.5 39.14, 105 39.14 S 108.53 38.99, 110 38.71 S 113.5 37.24, 115 37.21 S 118.51 38.37, 120 38.5 S 123.5 38.01, 125 38.07 S 128.5 38.87, 130 38.93 S 133.5 38.6, 135 38.5 S 138.5 38.32, 140 38.29 S 143.5 38.19, 145 38.29 S 148.5 38.99, 150 38.93 S 153.5 37.83, 155 37.86 S 158.5 39.14, 160 39.14 S 163.51 38.02, 165 37.86 S 168.5 38.07, 170 38.07 S 173.51 37.7, 175 37.86 S 178.5 39.08, 180 39.14 S 183.5 38.35, 185 38.29 S 188.51 38.87, 190 38.71 S 193.5 37.21, 195 37.21 S 198.5 38.61, 200 38.71 S 203.52 38.11, 205 37.86"
          fill="none"/>
    <circle r="4" cx="5" cy="40" fill="#3023AE"/>
    <circle r="4" cx="205" cy="37.86" fill="#C86DD7"/>      
</svg>