<svg width="200" height="50" viewBox="0 0 210 50" xmlns="http://www.w3.org/2000/svg">
    <defs>
        <linearGradient x1="0%" y1="0%" x2="100%" y2="0%" id="a">
            <stop stop-color="#3023AE" offset="0%"/>
            <stop stop-color="#C86DD7" offset="100%"/>
        </linearGradient>
    </defs>
    <path stroke="url(#a)"
          stroke-width="3"
          stroke-linejoin="round"
          stroke-linecap="round"
          d="M5 40 C 6.47 39.7, 8.52 39.18, 10 38.97 S 13.5 38.53, 15 38.56 S 18.5 39.18, 20 39.2 S 23.73 39.47, 25 38.67 S 28.51 33.09, 30 32.94 S 33.66 36.97, 35 37.65 S 38.5 37.99, 40 37.99 S 43.5 37.6, 45 37.65 S 48.5 38.3, 50 38.33 S 53.94 38.93, 55 37.87 S 59.35 29.69, 60 28.34 S 64.02 18.38, 65 17.25 S 68.94 15.78, 70 16.84 S 74.26 25.89, 75 27.2 S 79.25 35.87, 80 34.57 S 83.52 10.26, 85 10 S 89.4 31.45, 90 32.82 S 93.52 32.53, 95 32.78 S 98.5 34.53, 100 34.53 S 103.5 32.89, 105 32.78 S 108.52 33.54, 110 33.77 S 113.51 34.2, 115 34.34 S 118.51 34.53, 120 34.68 S 123.5 35.45, 125 35.33 S 128.58 34.37, 130 33.89 S 133.5 32, 135 31.99 S 138.55 33.46, 140 33.85 S 143.5 34.64, 145 34.68 S 148.51 33.97, 150 34.15 S 153.52 35.6, 155 35.86 S 158.56 36.35, 160 35.94 S 163.5 33.01, 165 33.05 S 168.5 36.23, 170 36.2 S 173.55 33.25, 175 32.86 S 178.53 33.22, 180 33.54 S 183.52 34.81, 185 35.03 S 188.5 35, 190 35.03 S 193.54 35.56, 195 35.22 S 198.51 32.57, 200 32.71 S 203.77 35.31, 205 36.16"
          fill="none"/>
    <circle r="4" cx="5" cy="40" fill="#3023AE"/>
    <circle r="4" cx="205" cy="36.16" fill="#C86DD7"/>      
</svg>