<svg width="200" height="50" viewBox="0 0 210 50" xmlns="http://www.w3.org/2000/svg">
    <defs>
        <linearGradient x1="0%" y1="0%" x2="100%" y2="0%" id="a">
            <stop stop-color="#3023AE" offset="0%"/>
            <stop stop-color="#C86DD7" offset="100%"/>
        </linearGradient>
    </defs>
    <path stroke="url(#a)"
          stroke-width="3"
          stroke-linejoin="round"
          stroke-linecap="round"
          d="M5 40 C 5.25 38.52, 8.61 10.57, 10 10 S 14.47 34.5, 15 35.9 S 18.52 36.45, 20 36.71 S 23.51 37.44, 25 37.65 S 28.5 38.19, 30 38.09 S 33.5 37.03, 35 36.99 S 38.5 37.79, 40 37.83 S 43.5 37.33, 45 37.26 S 48.5 37.38, 50 37.39 S 53.5 37.39, 55 37.33 S 58.5 36.97, 60 36.98 S 63.5 37.34, 65 37.42 S 68.5 37.49, 70 37.5 S 73.5 37.44, 75 37.47 S 78.5 37.66, 80 37.67 S 83.52 37.77, 85 37.53 S 88.5 36.01, 90 36.05 S 93.52 37.61, 95 37.83 S 98.5 37.61, 100 37.5 S 103.5 37.18, 105 37.09 S 108.5 36.79, 110 36.89 S 113.51 37.55, 115 37.73 S 118.5 38.06, 120 38.1 S 123.5 38.11, 125 38.03 S 128.5 37.58, 130 37.59 S 133.5 38.09, 135 38.12 S 138.5 37.79, 140 37.77 S 143.5 37.97, 145 37.97 S 148.5 37.85, 150 37.8 S 153.51 37.8, 155 37.65 S 158.5 36.78, 160 36.81 S 163.51 37.67, 165 37.87 S 168.5 38.18, 170 38.13 S 173.5 37.57, 175 37.54 S 178.51 38.04, 180 37.91 S 183.5 36.7, 185 36.64 S 188.51 37.33, 190 37.51 S 193.5 37.88, 195 37.87 S 198.51 37.6, 200 37.47 S 203.51 37.13, 205 36.99"
          fill="none"/>
    <circle r="4" cx="5" cy="40" fill="#3023AE"/>
    <circle r="4" cx="205" cy="36.99" fill="#C86DD7"/>      
</svg>