<svg width="200" height="50" viewBox="0 0 210 50" xmlns="http://www.w3.org/2000/svg">
    <defs>
        <linearGradient x1="0%" y1="0%" x2="100%" y2="0%" id="a">
            <stop stop-color="#3023AE" offset="0%"/>
            <stop stop-color="#C86DD7" offset="100%"/>
        </linearGradient>
    </defs>
    <path stroke="url(#a)"
          stroke-width="3"
          stroke-linejoin="round"
          stroke-linecap="round"
          d="M5 40 C 5.26 38.52, 8.58 11.96, 10 11.47 S 14.45 35.12, 15 36.52 S 18.51 36.85, 20 37.05 S 23.5 37.8, 25 37.86 S 28.5 37.54, 30 37.46 S 33.5 37.28, 35 37.32 S 38.51 37.58, 40 37.72 S 43.52 38.04, 45 38.26 S 48.51 39, 50 39.2 S 53.5 39.52, 55 39.6 S 58.53 40.04, 60 39.73 S 63.53 37.76, 65 37.46 S 68.53 38.04, 70 37.72 S 73.53 35.59, 75 35.31 S 78.5 35.95, 80 35.85 S 83.5 34.56, 85 34.64 S 88.55 36.77, 90 36.38 S 93.61 32.52, 95 31.96 S 98.51 32.17, 100 32.37 S 103.53 33.01, 105 33.3 S 108.5 34.37, 110 34.37 S 113.58 33.78, 115 33.3 S 118.51 30.83, 120 31.03 S 123.62 34.05, 125 34.64 S 128.52 35.57, 130 35.31 S 133.54 33.23, 135 32.9 S 138.5 33.08, 140 33.04 S 143.53 32.32, 145 32.63 S 148.53 34.9, 150 35.18 S 153.51 34.37, 155 34.51 S 158.51 35.94, 160 36.12 S 163.52 35.97, 165 35.71 S 168.5 34.49, 170 34.37 S 174.43 36.3, 175 34.91 S 178.55 10.39, 180 10 S 184.4 30.86, 185 32.23 S 188.55 32.53, 190 32.9 S 193.5 34.78, 195 34.78 S 198.51 33.08, 200 32.9 S 203.51 33.37, 205 33.57"
          fill="none"/>
    <circle r="4" cx="5" cy="40" fill="#3023AE"/>
    <circle r="4" cx="205" cy="33.57" fill="#C86DD7"/>      
</svg>