<svg width="200" height="50" viewBox="0 0 210 50" xmlns="http://www.w3.org/2000/svg">
    <defs>
        <linearGradient x1="0%" y1="0%" x2="100%" y2="0%" id="a">
            <stop stop-color="#3023AE" offset="0%"/>
            <stop stop-color="#C86DD7" offset="100%"/>
        </linearGradient>
    </defs>
    <path stroke="url(#a)"
          stroke-width="3"
          stroke-linejoin="round"
          stroke-linecap="round"
          d="M5 40 C 6.45 39.61, 8.51 38.84, 10 38.64 S 13.92 39.68, 15 38.64 S 19.22 30.37, 20 29.09 S 23.55 21.87, 25 22.27 S 28.51 31.62, 30 31.82 S 33.99 24.75, 35 23.64 S 39.11 22.12, 40 20.91 S 43.5 10, 45 10 S 49.17 19.66, 50 20.91 S 53.76 24.15, 55 25 S 58.55 27.33, 60 27.73 S 63.68 28.45, 65 27.73 S 68.92 23.31, 70 22.27 S 73.68 17.46, 75 18.18 S 78.51 27.53, 80 27.73 S 83.92 20.59, 85 19.55 S 88.51 18.38, 90 18.18 S 94.22 16.9, 95 18.18 S 99.05 33.39, 100 34.55 S 103.92 31.49, 105 30.45 S 108.51 25.2, 110 25 S 113.61 28.52, 115 29.09 S 118.51 28.89, 120 29.09 S 123.5 30.45, 125 30.45 S 129.05 30.25, 130 29.09 S 133.84 19.13, 135 18.18 S 139.05 19.75, 140 20.91 S 143.68 29.73, 145 30.45 S 148.5 26.36, 150 26.36 S 153.68 31.17, 155 30.45 S 158.55 20.51, 160 20.91 S 163.91 32.14, 165 33.18 S 169.11 31.66, 170 30.45 S 173.61 20.12, 175 19.55 S 178.76 25.52, 180 26.36 S 183.68 25.64, 185 26.36 S 188.84 30.87, 190 31.82 S 193.61 35.12, 195 34.55 S 198.76 28.58, 200 27.73 S 203.5 27.73, 205 27.73"
          fill="none"/>
    <circle r="4" cx="5" cy="40" fill="#3023AE"/>
    <circle r="4" cx="205" cy="27.73" fill="#C86DD7"/>      
</svg>