<svg width="200" height="50" viewBox="0 0 210 50" xmlns="http://www.w3.org/2000/svg">
    <defs>
        <linearGradient x1="0%" y1="0%" x2="100%" y2="0%" id="a">
            <stop stop-color="#3023AE" offset="0%"/>
            <stop stop-color="#C86DD7" offset="100%"/>
        </linearGradient>
    </defs>
    <path stroke="url(#a)"
          stroke-width="3"
          stroke-linejoin="round"
          stroke-linecap="round"
          d="M5 40 C 5.25 38.52, 8.58 10.47, 10 10 S 14.47 35.31, 15 36.71 S 18.51 36.38, 20 36.52 S 23.5 37.59, 25 37.68 S 28.5 36.98, 30 37.1 S 33.5 38.45, 35 38.45 S 38.52 37.33, 40 37.1 S 43.53 36.62, 45 36.9 S 48.54 38.69, 50 39.03 S 53.5 39.2, 55 39.23 S 58.5 39.35, 60 39.23 S 63.51 38.62, 65 38.45 S 68.52 38.32, 70 38.06 S 73.51 36.88, 75 36.71 S 78.53 37.19, 80 36.9 S 83.53 35.05, 85 34.77 S 88.5 34.88, 90 34.97 S 93.51 35.18, 95 35.35 S 98.5 36.04, 100 36.13 S 103.5 35.94, 105 35.94 S 108.5 36.19, 110 36.13 S 113.54 35.89, 115 35.55 S 118.5 33.72, 120 33.81 S 123.55 35.76, 125 36.13 S 128.51 36.46, 130 36.32 S 133.5 35.28, 135 35.16 S 138.5 35.64, 140 35.55 S 143.5 34.7, 145 34.58 S 148.5 34.83, 150 34.77 S 153.56 33.77, 155 34.19 S 158.52 37.42, 160 37.68 S 163.51 36.14, 165 35.94 S 168.51 36.49, 170 36.32 S 173.5 34.83, 175 34.77 S 178.5 35.91, 180 35.94 S 183.52 34.71, 185 34.97 S 188.55 37.31, 190 37.68 S 193.52 37.71, 195 37.48 S 198.5 36.13, 200 36.13 S 203.55 37.09, 205 37.48"
          fill="none"/>
    <circle r="4" cx="5" cy="40" fill="#3023AE"/>
    <circle r="4" cx="205" cy="37.48" fill="#C86DD7"/>      
</svg>