<svg width="200" height="50" viewBox="0 0 210 50" xmlns="http://www.w3.org/2000/svg">
    <defs>
        <linearGradient x1="0%" y1="0%" x2="100%" y2="0%" id="a">
            <stop stop-color="#3023AE" offset="0%"/>
            <stop stop-color="#C86DD7" offset="100%"/>
        </linearGradient>
    </defs>
    <path stroke="url(#a)"
          stroke-width="3"
          stroke-linejoin="round"
          stroke-linecap="round"
          d="M5 40 C 6.49 39.82, 8.51 39.54, 10 39.4 S 13.62 39.66, 15 39.07 S 19.07 36.27, 20 35.09 S 23.74 27.28, 25 26.46 S 28.78 27.71, 30 28.58 S 33.68 32.92, 35 33.63 S 38.52 33.72, 40 33.96 S 43.56 34.8, 45 35.22 S 48.51 36.7, 50 36.88 S 53.5 36.5, 55 36.42 S 58.5 36.32, 60 36.35 S 63.51 36.45, 65 36.62 S 68.5 37.46, 70 37.48 S 73.5 36.76, 75 36.75 S 78.51 37.23, 80 37.41 S 83.51 37.73, 85 37.94 S 88.5 38.85, 90 38.81 S 93.51 37.89, 95 37.68 S 98.52 37.66, 100 37.41 S 103.52 36.25, 105 36.02 S 108.5 35.81, 110 35.88 S 113.5 36.49, 115 36.48 S 118.51 35.68, 120 35.82 S 123.53 37.13, 125 37.41 S 128.53 38.01, 130 37.74 S 134.49 36.96, 135 35.55 S 138.53 10.29, 140 10 S 144.3 32.23, 145 33.56 S 148.66 29.8, 150 29.12 S 153.59 27.94, 155 28.45 S 158.61 32.21, 160 32.77 S 163.5 32.51, 165 32.5 S 168.74 33.51, 170 32.7 S 173.53 26.38, 175 26.06 S 178.69 29.78, 180 30.51 S 183.51 31.78, 185 31.64 S 188.51 29.44, 190 29.58 S 193.63 31.96, 195 32.57 S 198.52 33.79, 200 34.03 S 203.5 34.12, 205 34.16"
          fill="none"/>
    <circle r="4" cx="5" cy="40" fill="#3023AE"/>
    <circle r="4" cx="205" cy="34.16" fill="#C86DD7"/>      
</svg>