<svg width="200" height="50" viewBox="0 0 210 50" xmlns="http://www.w3.org/2000/svg">
    <defs>
        <linearGradient x1="0%" y1="0%" x2="100%" y2="0%" id="a">
            <stop stop-color="#3023AE" offset="0%"/>
            <stop stop-color="#C86DD7" offset="100%"/>
        </linearGradient>
    </defs>
    <path stroke="url(#a)"
          stroke-width="3"
          stroke-linejoin="round"
          stroke-linecap="round"
          d="M5 40 C 6.45 39.62, 8.5 38.76, 10 38.7 S 13.51 39.39, 15 39.58 S 18.5 39.9, 20 39.96 S 23.5 39.96, 25 39.96 S 28.51 40.15, 30 39.96 S 33.5 38.69, 35 38.66 S 38.51 39.58, 40 39.73 S 43.5 39.66, 45 39.69 S 48.54 40.28, 50 39.92 S 53.51 37.45, 55 37.24 S 58.5 38.5, 60 38.54 S 63.5 37.57, 65 37.51 S 68.82 39.09, 70 38.16 S 73.51 29.81, 75 29.64 S 78.79 36.16, 80 37.05 S 83.5 36.97, 85 36.97 S 88.51 36.94, 90 37.08 S 93.5 37.91, 95 37.89 S 98.6 37.46, 100 36.93 S 103.52 34.35, 105 34.13 S 109.43 36.82, 110 35.43 S 113.51 9.82, 115 10 S 119.49 35.21, 120 36.62 S 123.51 37.4, 125 37.54 S 128.5 37.53, 130 37.58 S 133.5 37.95, 135 37.85 S 138.51 37.08, 140 36.89 S 143.5 36.67, 145 36.59 S 148.5 36.3, 150 36.36 S 153.5 36.91, 155 37.01 S 158.5 37.11, 160 37.01 S 163.5 36.34, 165 36.36 S 168.52 37.4, 170 37.16 S 173.5 34.77, 175 34.74 S 178.55 36.6, 180 36.97 S 183.5 37.2, 185 37.28 S 188.5 37.45, 190 37.51 S 193.5 37.6, 195 37.7 S 198.52 38.43, 200 38.2 S 203.61 36.73, 205 36.16"
          fill="none"/>
    <circle r="4" cx="5" cy="40" fill="#3023AE"/>
    <circle r="4" cx="205" cy="36.16" fill="#C86DD7"/>      
</svg>