<svg width="200" height="50" viewBox="0 0 210 50" xmlns="http://www.w3.org/2000/svg">
    <defs>
        <linearGradient x1="0%" y1="0%" x2="100%" y2="0%" id="a">
            <stop stop-color="#3023AE" offset="0%"/>
            <stop stop-color="#C86DD7" offset="100%"/>
        </linearGradient>
    </defs>
    <path stroke="url(#a)"
          stroke-width="3"
          stroke-linejoin="round"
          stroke-linecap="round"
          d="M5 40 C 5.68 38.66, 8.51 30.42, 10 30.24 S 13.65 38.12, 15 38.78 S 18.52 35.34, 20 35.12 S 24.38 38.69, 25 37.32 S 28.5 13.1, 30 13.17 S 33.86 36.83, 35 37.8 S 39.27 23.02, 40 21.71 S 44 18.64, 45 19.76 S 48.93 33.98, 50 32.93 S 53.5 9.93, 55 10 S 59.28 32.09, 60 33.41 S 63.57 28.74, 65 28.29 S 68.6 29.69, 70 30.24 S 73.63 31.6, 75 32.2 S 78.52 34.88, 80 34.63 S 83.5 30.49, 85 30.49 S 88.51 34.78, 90 34.63 S 93.57 29.96, 95 29.51 S 98.61 30.89, 100 31.46 S 103.59 33.14, 105 33.66 S 108.51 34.98, 110 35.12 S 113.5 34.63, 115 34.63 S 118.5 35.01, 120 35.12 S 123.52 35.12, 125 35.37 S 128.52 37.08, 130 36.83 S 133.68 34.37, 135 33.66 S 138.56 31.04, 140 31.46 S 143.68 35.88, 145 36.59 S 148.5 36.76, 150 36.83 S 153.5 37.14, 155 37.07 S 158.5 36.3, 160 36.34 S 163.52 37.54, 165 37.32 S 168.52 35.13, 170 34.88 S 173.57 35.16, 175 35.61 S 178.54 37.69, 180 38.05 S 184.25 39.35, 185 38.05 S 188.75 21.56, 190 20.73 S 194.22 30.18, 195 31.46 S 198.75 36.24, 200 37.07 S 203.53 37.76, 205 38.05"
          fill="none"/>
    <circle r="4" cx="5" cy="40" fill="#3023AE"/>
    <circle r="4" cx="205" cy="38.05" fill="#C86DD7"/>      
</svg>