<svg width="200" height="50" viewBox="0 0 210 50" xmlns="http://www.w3.org/2000/svg">
    <defs>
        <linearGradient x1="0%" y1="0%" x2="100%" y2="0%" id="a">
            <stop stop-color="#3023AE" offset="0%"/>
            <stop stop-color="#C86DD7" offset="100%"/>
        </linearGradient>
    </defs>
    <path stroke="url(#a)"
          stroke-width="3"
          stroke-linejoin="round"
          stroke-linecap="round"
          d="M5 40 C 5.29 38.53, 8.62 14.88, 10 14.29 S 14.37 34.35, 15 35.71 S 18.5 35.71, 20 35.71 S 23.5 35.71, 25 35.71 S 28.5 35.71, 30 35.71 S 33.62 36.3, 35 35.71 S 39.24 32.73, 40 31.43 S 44.37 19.93, 45 18.57 S 49.08 8.82, 50 10 S 54.08 30.25, 55 31.43 S 58.62 22.27, 60 22.86 S 63.62 35.12, 65 35.71 S 68.62 27.73, 70 27.14 S 73.62 30.84, 75 31.43 S 78.5 31.43, 80 31.43 S 83.62 32.02, 85 31.43 S 89.37 28.5, 90 27.14 S 93.86 9.02, 95 10 S 99.46 34.31, 100 35.71 S 104.24 37.01, 105 35.71 S 108.5 18.57, 110 18.57 S 113.86 34.73, 115 35.71 S 118.86 28.12, 120 27.14 S 123.62 27.73, 125 27.14 S 128.62 22.27, 130 22.86 S 133.86 30.45, 135 31.43 S 138.5 31.43, 140 31.43 S 144.08 32.61, 145 31.43 S 149.24 19.87, 150 18.57 S 154.08 13.11, 155 14.29 S 159.37 30.07, 160 31.43 S 163.62 35.12, 165 35.71 S 169.24 37.01, 170 35.71 S 173.86 19.55, 175 18.57 S 179.24 25.84, 180 27.14 S 183.62 35.12, 185 35.71 S 188.86 32.41, 190 31.43 S 193.5 27.14, 195 27.14 S 198.86 30.45, 200 31.43 S 203.86 34.73, 205 35.71"
          fill="none"/>
    <circle r="4" cx="5" cy="40" fill="#3023AE"/>
    <circle r="4" cx="205" cy="35.71" fill="#C86DD7"/>      
</svg>