<svg width="200" height="50" viewBox="0 0 210 50" xmlns="http://www.w3.org/2000/svg">
    <defs>
        <linearGradient x1="0%" y1="0%" x2="100%" y2="0%" id="a">
            <stop stop-color="#3023AE" offset="0%"/>
            <stop stop-color="#C86DD7" offset="100%"/>
        </linearGradient>
    </defs>
    <path stroke="url(#a)"
          stroke-width="3"
          stroke-linejoin="round"
          stroke-linecap="round"
          d="M5 40 C 5.26 38.52, 8.64 12.58, 10 11.96 S 14.32 34.1, 15 35.44 S 18.51 31.51, 20 31.69 S 23.69 35.95, 25 36.68 S 28.51 37.12, 30 37.27 S 33.53 37.97, 35 37.66 S 38.52 35.45, 40 35.18 S 43.98 36.92, 45 35.82 S 48.58 24.98, 50 24.49 S 53.85 31.36, 55 32.33 S 58.5 32.94, 60 32.93 S 63.58 32.72, 65 32.24 S 68.69 30.3, 70 29.56 S 73.52 26.84, 75 26.58 S 78.55 27.38, 80 27.77 S 83.5 29.19, 85 29.3 S 88.54 28.84, 90 28.49 S 94.03 28.06, 95 26.92 S 98.55 17.13, 100 16.73 S 103.89 23.18, 105 24.19 S 108.5 25.76, 110 25.85 S 113.61 25.34, 115 24.79 S 118.5 21.96, 120 21.89 S 123.51 24.19, 125 24.32 S 129.14 24.01, 130 22.78 S 133.57 10.45, 135 10 S 138.67 18.98, 140 19.67 S 143.52 15.42, 145 15.16 S 148.74 17.07, 150 17.88 S 153.6 21.01, 155 21.55 S 158.6 22.31, 160 21.76 S 163.79 18.52, 165 17.63 S 168.57 14.89, 170 14.43 S 173.61 13.87, 175 14.43 S 178.64 17.8, 180 18.44 S 183.63 19.77, 185 19.16 S 188.5 14.11, 190 14.01 S 193.75 17.65, 195 18.48 S 198.51 20.5, 200 20.65 S 203.54 19.81, 205 19.46"
          fill="none"/>
    <circle r="4" cx="5" cy="40" fill="#3023AE"/>
    <circle r="4" cx="205" cy="19.46" fill="#C86DD7"/>      
</svg>