<svg width="200" height="50" viewBox="0 0 210 50" xmlns="http://www.w3.org/2000/svg">
    <defs>
        <linearGradient x1="0%" y1="0%" x2="100%" y2="0%" id="a">
            <stop stop-color="#3023AE" offset="0%"/>
            <stop stop-color="#C86DD7" offset="100%"/>
        </linearGradient>
    </defs>
    <path stroke="url(#a)"
          stroke-width="3"
          stroke-linejoin="round"
          stroke-linecap="round"
          d="M5 40 C 5.25 38.52, 8.63 10.62, 10 10 S 14.42 34.11, 15 35.49 S 18.5 33.71, 20 33.76 S 23.57 35.36, 25 35.81 S 28.52 36.66, 30 36.9 S 33.51 37.23, 35 37.41 S 38.52 38.35, 40 38.09 S 43.51 35.87, 45 35.68 S 48.51 36.97, 50 36.81 S 54.03 35.78, 55 34.63 S 58.51 25.07, 60 24.93 S 63.82 32.74, 65 33.67 S 68.5 32.85, 70 32.85 S 73.5 33.73, 75 33.67 S 78.63 33.05, 80 32.44 S 83.64 29.85, 85 29.21 S 88.5 27.81, 90 27.71 S 93.58 28.09, 95 28.57 S 98.51 30.99, 100 31.12 S 103.56 29.86, 105 29.44 S 108.54 28.56, 110 28.21 S 113.91 28.06, 115 27.03 S 118.51 18.97, 120 18.79 S 123.84 24.85, 125 25.8 S 128.5 26.98, 130 27.03 S 133.55 26.54, 135 26.16 S 138.51 24.53, 140 24.39 S 143.51 25.05, 145 25.2 S 148.5 25.49, 150 25.39 S 153.55 24.91, 155 24.52 S 159.14 23.93, 160 22.7 S 163.76 11.16, 165 10.32 S 169 14.84, 170 15.96 S 173.64 20.88, 175 21.52 S 178.51 20.51, 180 20.65 S 183.58 21.94, 185 22.43 S 188.5 24.21, 190 24.11 S 193.68 22.5, 195 21.79 S 198.82 19.61, 200 18.69 S 203.91 14.99, 205 13.96"
          fill="none"/>
    <circle r="4" cx="5" cy="40" fill="#3023AE"/>
    <circle r="4" cx="205" cy="13.96" fill="#C86DD7"/>      
</svg>