<svg width="200" height="50" viewBox="0 0 210 50" xmlns="http://www.w3.org/2000/svg">
    <defs>
        <linearGradient x1="0%" y1="0%" x2="100%" y2="0%" id="a">
            <stop stop-color="#3023AE" offset="0%"/>
            <stop stop-color="#C86DD7" offset="100%"/>
        </linearGradient>
    </defs>
    <path stroke="url(#a)"
          stroke-width="3"
          stroke-linejoin="round"
          stroke-linecap="round"
          d="M5 40 C 5.25 38.52, 8.61 10.73, 10 10.18 S 14.41 34.64, 15 36.02 S 18.5 33.63, 20 33.62 S 23.6 35.43, 25 35.97 S 28.52 37.29, 30 37.51 S 33.5 37.41, 35 37.42 S 38.5 37.54, 40 37.56 S 43.51 37.74, 45 37.56 S 48.51 36.5, 50 36.33 S 53.5 36.55, 55 36.43 S 59.01 36.65, 60 35.52 S 63.53 25.3, 65 25.02 S 68.87 32.63, 70 33.62 S 73.51 33.63, 75 33.76 S 78.5 34.6, 80 34.48 S 83.63 33.6, 85 32.99 S 88.56 30.44, 90 30 S 93.54 30.29, 95 29.95 S 98.54 27.31, 100 27.65 S 103.56 31.85, 105 32.26 S 108.55 30.89, 110 30.5 S 113.52 29.8, 115 29.55 S 118.6 29.35, 120 28.82 S 123.82 26.68, 125 25.75 S 128.52 20.66, 130 20.9 S 133.79 26.5, 135 27.38 S 138.5 28.2, 140 28.19 S 143.52 27.57, 145 27.33 S 148.56 26.99, 150 26.56 S 153.5 24.29, 155 24.34 S 158.55 26.54, 160 26.92 S 163.53 27.26, 165 26.97 S 169.24 26.22, 170 24.93 S 173.53 10.3, 175 10 S 178.9 21.88, 180 22.9 S 183.51 19.47, 185 19.28 S 188.53 21.32, 190 21.63 S 193.54 21.01, 195 21.36 S 198.59 23.53, 200 24.03 S 203.52 24.66, 205 24.93"
          fill="none"/>
    <circle r="4" cx="5" cy="40" fill="#3023AE"/>
    <circle r="4" cx="205" cy="24.93" fill="#C86DD7"/>      
</svg>