<svg width="200" height="50" viewBox="0 0 210 50" xmlns="http://www.w3.org/2000/svg">
    <defs>
        <linearGradient x1="0%" y1="0%" x2="100%" y2="0%" id="a">
            <stop stop-color="#3023AE" offset="0%"/>
            <stop stop-color="#C86DD7" offset="100%"/>
        </linearGradient>
    </defs>
    <path stroke="url(#a)"
          stroke-width="3"
          stroke-linejoin="round"
          stroke-linecap="round"
          d="M5 40 C 5.25 38.52, 8.54 10.34, 10 10 S 14.37 36.34, 15 37.7 S 18.52 31.87, 20 31.64 S 23.71 35.37, 25 36.14 S 28.51 37.47, 30 37.61 S 33.5 37.08, 35 37.11 S 38.51 37.66, 40 37.84 S 43.53 38.58, 45 38.3 S 48.51 36.14, 50 35.96 S 53.5 37.1, 55 37.11 S 59.03 37.2, 60 36.05 S 63.53 25.51, 65 25.21 S 68.85 33.02, 70 33.98 S 73.5 33.44, 75 33.52 S 78.5 34.43, 80 34.49 S 83.51 34.07, 85 33.89 S 88.64 33.93, 90 33.29 S 93.63 29.77, 95 29.16 S 98.5 28.83, 100 28.84 S 103.58 28.76, 105 29.25 S 108.5 32.17, 110 32.28 S 113.52 30.24, 115 29.98 S 118.51 30.67, 120 30.49 S 123.68 29.46, 125 28.74 S 128.76 25.87, 130 25.02 S 133.55 21.46, 135 21.85 S 138.73 26.94, 140 27.73 S 143.5 28.09, 145 28.06 S 148.5 27.61, 150 27.55 S 153.55 28.01, 155 27.64 S 158.53 25.28, 160 24.98 S 163.57 25.13, 165 25.57 S 168.5 28.03, 170 28.06 S 173.63 26.37, 175 25.76 S 179.16 24.84, 180 23.6 S 183.75 11.79, 185 10.96 S 189.02 15.85, 190 16.98 S 193.69 21.72, 195 22.45 S 198.51 22.39, 200 22.54 S 203.52 23.19, 205 23.46"
          fill="none"/>
    <circle r="4" cx="5" cy="40" fill="#3023AE"/>
    <circle r="4" cx="205" cy="23.46" fill="#C86DD7"/>      
</svg>