<svg width="200" height="50" viewBox="0 0 210 50" xmlns="http://www.w3.org/2000/svg">
    <defs>
        <linearGradient x1="0%" y1="0%" x2="100%" y2="0%" id="a">
            <stop stop-color="#3023AE" offset="0%"/>
            <stop stop-color="#C86DD7" offset="100%"/>
        </linearGradient>
    </defs>
    <path stroke="url(#a)"
          stroke-width="3"
          stroke-linejoin="round"
          stroke-linecap="round"
          d="M5 40 C 5.25 38.52, 8.54 10.35, 10 10 S 14.38 36.23, 15 37.6 S 18.52 32.25, 20 32.03 S 23.67 35.43, 25 36.13 S 28.51 37.12, 30 37.33 S 33.5 37.47, 35 37.51 S 38.51 37.48, 40 37.6 S 43.5 38.4, 45 38.34 S 48.55 37.56, 50 37.19 S 53.5 35.9, 55 35.81 S 58.5 36.6, 60 36.59 S 64.06 36.88, 65 35.71 S 68.53 24.46, 70 24.15 S 73.95 32.52, 75 33.59 S 78.51 34.1, 80 34.29 S 83.51 34.97, 85 34.84 S 88.54 33.77, 90 33.41 S 93.65 33.05, 95 32.4 S 98.57 29.02, 100 28.57 S 103.52 29, 105 29.26 S 108.52 30.07, 110 30.32 S 113.5 30.87, 115 30.97 S 118.52 31.2, 120 30.97 S 123.51 29.62, 125 29.45 S 128.69 30.59, 130 29.86 S 133.8 24.77, 135 23.87 S 138.59 21.84, 140 22.35 S 143.72 26.69, 145 27.47 S 148.5 28.34, 150 28.39 S 153.53 28.1, 155 27.83 S 158.54 26.87, 160 26.54 S 163.5 25.5, 165 25.58 S 168.56 26.64, 170 27.05 S 173.53 28.73, 175 28.43 S 178.61 25.58, 180 25.02 S 184.12 25.6, 185 24.38 S 188.78 12.07, 190 11.2 S 194.02 16.14, 195 17.28 S 198.68 22.15, 200 22.86 S 203.5 22.7, 205 22.63"
          fill="none"/>
    <circle r="4" cx="5" cy="40" fill="#3023AE"/>
    <circle r="4" cx="205" cy="22.63" fill="#C86DD7"/>      
</svg>