<svg width="200" height="50" viewBox="0 0 210 50" xmlns="http://www.w3.org/2000/svg">
    <defs>
        <linearGradient x1="0%" y1="0%" x2="100%" y2="0%" id="a">
            <stop stop-color="#3023AE" offset="0%"/>
            <stop stop-color="#C86DD7" offset="100%"/>
        </linearGradient>
    </defs>
    <path stroke="url(#a)"
          stroke-width="3"
          stroke-linejoin="round"
          stroke-linecap="round"
          d="M5 40 C 5.25 38.52, 8.54 10.34, 10 10 S 14.38 36.28, 15 37.65 S 18.52 32.22, 20 31.99 S 23.68 35.37, 25 36.09 S 28.51 37.24, 30 37.42 S 33.5 37.28, 35 37.33 S 38.51 37.61, 40 37.75 S 43.51 38.42, 45 38.3 S 48.53 37.24, 50 36.92 S 53.5 36.19, 55 36.13 S 58.5 36.65, 60 36.55 S 64.06 36.66, 65 35.49 S 68.53 24.45, 70 24.17 S 73.95 32.53, 75 33.6 S 78.51 34.18, 80 34.34 S 83.51 34.81, 85 34.66 S 88.63 33.94, 90 33.33 S 93.54 30.54, 95 30.2 S 98.54 31.37, 100 31.03 S 103.5 27.74, 105 27.85 S 108.55 31.38, 110 31.76 S 113.51 30.6, 115 30.48 S 118.51 31.12, 120 30.94 S 123.51 29.45, 125 29.28 S 128.72 30.58, 130 29.79 S 133.76 23.95, 135 23.11 S 138.64 22.39, 140 23.02 S 143.66 27.08, 145 27.76 S 148.51 28.25, 150 28.13 S 153.51 27.11, 155 26.93 S 158.5 26.99, 160 26.89 S 163.5 26.3, 165 26.29 S 168.51 26.7, 170 26.84 S 173.51 27.39, 175 27.25 S 179.24 27.22, 180 25.92 S 183.52 10.3, 185 10.09 S 188.86 23.52, 190 24.49 S 193.54 18.91, 195 18.56 S 198.56 21.63, 200 22.06 S 203.51 21.7, 205 21.55"
          fill="none"/>
    <circle r="4" cx="5" cy="40" fill="#3023AE"/>
    <circle r="4" cx="205" cy="21.55" fill="#C86DD7"/>      
</svg>