<svg width="200" height="50" viewBox="0 0 210 50" xmlns="http://www.w3.org/2000/svg">
    <defs>
        <linearGradient x1="0%" y1="0%" x2="100%" y2="0%" id="a">
            <stop stop-color="#3023AE" offset="0%"/>
            <stop stop-color="#C86DD7" offset="100%"/>
        </linearGradient>
    </defs>
    <path stroke="url(#a)"
          stroke-width="3"
          stroke-linejoin="round"
          stroke-linecap="round"
          d="M5 40 C 5.25 38.52, 8.54 10.34, 10 10 S 14.38 36.29, 15 37.66 S 18.52 32.3, 20 32.05 S 23.68 35.28, 25 36 S 28.51 37.38, 30 37.52 S 33.5 36.82, 35 36.92 S 38.51 37.98, 40 38.16 S 43.51 38.34, 45 38.16 S 48.53 37.27, 50 36.97 S 53.5 36.22, 55 36.14 S 58.85 37.39, 60 36.42 S 63.64 28.36, 65 27.73 S 68.7 31.03, 70 31.78 S 73.55 33.09, 75 33.48 S 78.51 34.3, 80 34.44 S 83.51 34.58, 85 34.44 S 88.64 34.15, 90 33.52 S 93.57 30.26, 95 29.8 S 98.52 30.56, 100 30.31 S 103.53 27.82, 105 28.1 S 108.54 31.92, 110 32.24 S 113.52 30.57, 115 30.31 S 118.52 30.72, 120 30.49 S 123.5 28.7, 125 28.74 S 128.93 31.82, 130 30.77 S 133.61 19.47, 135 18.91 S 138.88 25.77, 140 26.77 S 143.51 27.64, 145 27.78 S 148.5 27.74, 150 27.69 S 153.52 27.7, 155 27.46 S 158.5 26.2, 160 26.08 S 163.5 26.61, 165 26.68 S 168.5 26.59, 170 26.58 S 173.51 26.75, 175 26.63 S 179.22 27.04, 180 25.76 S 183.53 10.37, 185 10.09 S 188.87 22.88, 190 23.87 S 193.52 19.09, 195 18.82 S 198.55 21.65, 200 22.04 S 203.51 21.68, 205 21.53"
          fill="none"/>
    <circle r="4" cx="5" cy="40" fill="#3023AE"/>
    <circle r="4" cx="205" cy="21.53" fill="#C86DD7"/>      
</svg>