<svg width="200" height="50" viewBox="0 0 210 50" xmlns="http://www.w3.org/2000/svg">
    <defs>
        <linearGradient x1="0%" y1="0%" x2="100%" y2="0%" id="a">
            <stop stop-color="#3023AE" offset="0%"/>
            <stop stop-color="#C86DD7" offset="100%"/>
        </linearGradient>
    </defs>
    <path stroke="url(#a)"
          stroke-width="3"
          stroke-linejoin="round"
          stroke-linecap="round"
          d="M5 40 C 5.25 38.52, 8.54 10.34, 10 10 S 14.5 36.24, 15 37.65 S 18.5 38.15, 20 38.22 S 23.5 38.18, 25 38.15 S 28.5 38, 30 38 S 33.5 38.15, 35 38.15 S 38.77 38.87, 40 38 S 43.54 31.45, 45 31.09 S 48.7 34.77, 50 35.51 S 53.52 37.04, 55 36.79 S 58.51 33.94, 60 33.8 S 63.55 35.47, 65 35.87 S 68.55 36.95, 70 36.58 S 73.58 33.79, 75 33.3 S 78.5 33.16, 80 33.16 S 83.51 33.11, 85 33.3 S 88.51 34.6, 90 34.44 S 93.53 32.5, 95 32.23 S 98.5 32.56, 100 32.59 S 103.58 32.94, 105 32.45 S 108.5 29.24, 110 29.17 S 113.5 31.93, 115 31.95 S 118.61 29.87, 120 29.31 S 123.51 28.04, 125 27.89 S 128.5 28.35, 130 28.31 S 133.5 27.72, 135 27.6 S 138.5 27.63, 140 27.53 S 143.58 26.47, 145 26.96 S 148.61 30.39, 150 30.95 S 153.52 31.16, 155 30.95 S 158.7 30.28, 160 29.52 S 163.64 25.74, 165 25.11 S 168.76 24.05, 170 24.89 S 173.64 31.26, 175 31.88 S 178.53 29.73, 180 29.45 S 183.5 30.07, 185 29.95 S 188.5 28.65, 190 28.67 S 193.5 30.11, 195 30.1 S 198.54 28.28, 200 28.6 S 203.79 31.41, 205 32.3"
          fill="none"/>
    <circle r="4" cx="5" cy="40" fill="#3023AE"/>
    <circle r="4" cx="205" cy="32.3" fill="#C86DD7"/>      
</svg>