<svg width="200" height="50" viewBox="0 0 210 50" xmlns="http://www.w3.org/2000/svg">
    <defs>
        <linearGradient x1="0%" y1="0%" x2="100%" y2="0%" id="a">
            <stop stop-color="#3023AE" offset="0%"/>
            <stop stop-color="#C86DD7" offset="100%"/>
        </linearGradient>
    </defs>
    <path stroke="url(#a)"
          stroke-width="3"
          stroke-linejoin="round"
          stroke-linecap="round"
          d="M5 40 C 5.95 38.84, 8.52 34.08, 10 33.85 S 13.53 38.18, 15 38.46 S 18.83 36.71, 20 35.77 S 23.55 30.77, 25 30.38 S 28.72 32.29, 30 33.08 S 33.52 36.77, 35 36.54 S 38.62 32.12, 40 31.54 S 43.52 32.08, 45 32.31 S 48.68 33.79, 50 33.08 S 53.68 27.63, 55 26.92 S 58.5 27.57, 60 27.69 S 63.5 27.81, 65 27.69 S 68.5 26.92, 70 26.92 S 73.54 27.35, 75 27.69 S 78.81 30.14, 80 29.23 S 83.52 19.77, 85 20 S 88.5 30.71, 90 30.77 S 93.74 21.2, 95 20.38 S 98.66 24.9, 100 24.23 S 103.51 15.55, 105 15.38 S 109.15 21.84, 110 23.08 S 113.81 29.09, 115 30 S 118.6 31.31, 120 30.77 S 123.62 26.73, 125 26.15 S 128.58 26.05, 130 26.54 S 133.5 29.56, 135 29.62 S 138.68 27.63, 140 26.92 S 143.57 24.67, 145 24.23 S 148.58 23.36, 150 23.85 S 153.58 27.2, 155 27.69 S 158.62 27.89, 160 27.31 S 163.54 23.8, 165 23.46 S 168.54 25.34, 170 25 S 173.68 21.86, 175 21.15 S 179 20.74, 180 19.62 S 183.52 9.77, 185 10 S 188.52 20.92, 190 21.15 S 193.55 11.93, 195 11.54 S 199 17.34, 200 18.46 S 203.85 21.72, 205 22.69"
          fill="none"/>
    <circle r="4" cx="5" cy="40" fill="#3023AE"/>
    <circle r="4" cx="205" cy="22.69" fill="#C86DD7"/>      
</svg>