<svg width="200" height="50" viewBox="0 0 210 50" xmlns="http://www.w3.org/2000/svg">
    <defs>
        <linearGradient x1="0%" y1="0%" x2="100%" y2="0%" id="a">
            <stop stop-color="#3023AE" offset="0%"/>
            <stop stop-color="#C86DD7" offset="100%"/>
        </linearGradient>
    </defs>
    <path stroke="url(#a)"
          stroke-width="3"
          stroke-linejoin="round"
          stroke-linecap="round"
          d="M5 40 C 5.25 38.52, 8.54 10.35, 10 10 S 14.34 36.25, 15 37.6 S 18.54 30.75, 20 30.4 S 23.59 34.69, 25 35.2 S 28.51 33.82, 30 34 S 33.78 37.28, 35 36.4 S 38.51 26.62, 40 26.8 S 43.65 36.95, 45 37.6 S 48.51 31.78, 50 31.6 S 53.54 36.05, 55 36.4 S 58.78 34.88, 60 34 S 63.51 29.38, 65 29.2 S 68.65 32.15, 70 32.8 S 73.54 33.65, 75 34 S 78.51 35.02, 80 35.2 S 83.54 35.55, 85 35.2 S 88.51 32.62, 90 32.8 S 93.71 35.63, 95 36.4 S 98.54 38.45, 100 38.8 S 103.5 38.8, 105 38.8 S 108.51 38.98, 110 38.8 S 113.5 37.6, 115 37.6 S 118.5 38.8, 120 38.8 S 123.51 37.78, 125 37.6 S 128.51 37.42, 130 37.6 S 133.51 38.62, 135 38.8 S 138.5 38.8, 140 38.8 S 143.5 38.8, 145 38.8 S 148.5 38.8, 150 38.8 S 153.5 38.8, 155 38.8 S 158.5 38.8, 160 38.8 S 163.54 39.15, 165 38.8 S 168.54 36.75, 170 36.4 S 173.5 36.4, 175 36.4 S 178.51 36.22, 180 36.4 S 183.5 37.6, 185 37.6 S 188.5 36.4, 190 36.4 S 193.54 37.25, 195 37.6 S 198.54 38.45, 200 38.8"
          fill="none"/>
    <circle r="4" cx="5" cy="40" fill="#3023AE"/>
    <circle r="4" cx="200" cy="38.8" fill="#C86DD7"/>      
</svg>