<svg width="200" height="50" viewBox="0 0 210 50" xmlns="http://www.w3.org/2000/svg">
    <defs>
        <linearGradient x1="0%" y1="0%" x2="100%" y2="0%" id="a">
            <stop stop-color="#3023AE" offset="0%"/>
            <stop stop-color="#C86DD7" offset="100%"/>
        </linearGradient>
    </defs>
    <path stroke="url(#a)"
          stroke-width="3"
          stroke-linejoin="round"
          stroke-linecap="round"
          d="M5 40 C 6.5 39.96, 8.5 39.87, 10 39.85 S 14.52 41.31, 15 39.89 S 18.73 10.8, 20 10 S 24.39 32.23, 25 33.6 S 28.5 32.57, 30 32.53 S 33.54 33.03, 35 33.35 S 38.5 34.84, 40 34.74 S 43.5 32.6, 45 32.66 S 48.54 35.48, 50 35.15 S 53.51 30.6, 55 30.43 S 58.64 33.36, 60 33.99 S 63.51 35.19, 65 35.04 S 68.59 33.48, 70 32.96 S 73.51 31.52, 75 31.35 S 78.51 31.64, 80 31.8 S 83.5 32.39, 85 32.45 S 88.5 32.22, 90 32.19 S 93.51 32.08, 95 32.23 S 98.5 33.09, 100 33.2 S 103.5 33, 105 32.98 S 108.51 32.92, 110 33.07 S 113.5 33.94, 115 33.97 S 118.5 33.16, 120 33.26 S 123.5 34.7, 125 34.66 S 128.5 33, 130 33 S 133.52 34.41, 135 34.63 S 138.51 34.63, 140 34.46 S 143.5 33.53, 145 33.46 S 148.51 33.8, 150 33.97 S 153.51 34.47, 155 34.63 S 158.5 35.16, 160 35.07 S 163.54 34.37, 165 34.01 S 168.51 32.82, 170 32.62 S 173.81 33.56, 175 32.64 S 178.5 24.98, 180 24.89 S 183.84 31.09, 185 32.04 S 188.5 32.98, 190 33.01 S 193.51 32.35, 195 32.21 S 198.5 32.02, 200 32.04 S 203.5 32.24, 205 32.32"
          fill="none"/>
    <circle r="4" cx="5" cy="40" fill="#3023AE"/>
    <circle r="4" cx="205" cy="32.32" fill="#C86DD7"/>      
</svg>