<svg width="200" height="50" viewBox="0 0 210 50" xmlns="http://www.w3.org/2000/svg">
    <defs>
        <linearGradient x1="0%" y1="0%" x2="100%" y2="0%" id="a">
            <stop stop-color="#3023AE" offset="0%"/>
            <stop stop-color="#C86DD7" offset="100%"/>
        </linearGradient>
    </defs>
    <path stroke="url(#a)"
          stroke-width="3"
          stroke-linejoin="round"
          stroke-linecap="round"
          d="M5 40 C 6.5 39.96, 8.5 39.88, 10 39.86 S 14.52 41.28, 15 39.86 S 18.74 10.81, 20 10 S 24.41 32.05, 25 33.43 S 28.5 33.24, 30 33.27 S 33.5 33.61, 35 33.63 S 38.5 33.27, 40 33.39 S 43.5 34.45, 45 34.43 S 48.56 33.68, 50 33.25 S 53.51 31.21, 55 31.4 S 58.58 34.06, 60 34.54 S 63.57 35.26, 65 34.79 S 68.59 31.76, 70 31.26 S 73.52 31.05, 75 31.26 S 78.5 32.6, 80 32.69 S 83.51 31.71, 85 31.87 S 88.5 33.81, 90 33.73 S 93.5 31.44, 95 31.35 S 98.53 32.88, 100 33.16 S 103.5 33.12, 105 33.23 S 108.5 33.9, 110 33.9 S 113.5 33.14, 115 33.23 S 118.5 34.47, 120 34.49 S 123.5 33.31, 125 33.34 S 128.51 34.52, 130 34.67 S 133.51 34.56, 135 34.36 S 138.5 33.4, 140 33.3 S 143.53 33.43, 145 33.72 S 148.51 35.16, 150 35.3 S 153.54 35.05, 155 34.69 S 158.52 33.06, 160 32.85 S 163.72 34.03, 165 33.25 S 168.57 27.15, 170 26.71 S 173.76 29.32, 175 30.16 S 178.52 33.2, 180 33.45 S 183.5 31.95, 185 31.85 S 188.5 32.85, 190 32.78 S 193.5 31.32, 195 31.35 S 198.52 32.73, 200 32.96 S 203.5 32.9, 205 32.87"
          fill="none"/>
    <circle r="4" cx="5" cy="40" fill="#3023AE"/>
    <circle r="4" cx="205" cy="32.87" fill="#C86DD7"/>      
</svg>