<svg width="200" height="50" viewBox="0 0 210 50" xmlns="http://www.w3.org/2000/svg">
    <defs>
        <linearGradient x1="0%" y1="0%" x2="100%" y2="0%" id="a">
            <stop stop-color="#3023AE" offset="0%"/>
            <stop stop-color="#C86DD7" offset="100%"/>
        </linearGradient>
    </defs>
    <path stroke="url(#a)"
          stroke-width="3"
          stroke-linejoin="round"
          stroke-linecap="round"
          d="M5 40 C 6.2 39.1, 9.53 37.67, 10 36.25 S 13.69 10.74, 15 10 S 19.24 29.33, 20 30.62 S 23.91 27.9, 25 26.87 S 28.53 21.53, 30 21.25 S 33.64 25.64, 35 25 S 38.64 15.92, 40 16.56 S 43.85 28.72, 45 29.69 S 49.13 26.22, 50 25 S 53.85 16.59, 55 15.62 S 58.6 16.03, 60 16.56 S 63.85 18.4, 65 19.37 S 68.53 24.72, 70 25 S 73.53 21.53, 75 21.25 S 78.69 23.86, 80 23.12 S 83.69 14.88, 85 15.62 S 89.17 27.5, 90 28.75 S 93.69 31.36, 95 30.62 S 98.6 23.65, 100 23.12 S 103.64 26.23, 105 26.87 S 108.51 27.95, 110 27.81 S 113.64 26.58, 115 25.94 S 118.5 23.12, 120 23.12 S 123.75 26.76, 125 25.94 S 128.96 17.64, 130 16.56 S 133.69 14.88, 135 15.62 S 138.64 21.55, 140 22.19 S 143.56 19.9, 145 20.31 S 148.51 24.86, 150 25 S 153.51 21.39, 155 21.25 S 158.6 23.53, 160 24.06 S 163.75 24.18, 165 25 S 168.8 29.72, 170 30.62 S 173.53 32.78, 175 32.5 S 178.51 28.61, 180 28.75 S 183.69 34.18, 185 33.44 S 188.6 23.65, 190 23.12 S 193.91 28.66, 195 29.69 S 198.6 33.03, 200 32.5 S 204.09 27.13, 205 25.94"
          fill="none"/>
    <circle r="4" cx="5" cy="40" fill="#3023AE"/>
    <circle r="4" cx="205" cy="25.939999999999998" fill="#C86DD7"/>      
</svg>