<svg width="200" height="50" viewBox="0 0 210 50" xmlns="http://www.w3.org/2000/svg">
    <defs>
        <linearGradient x1="0%" y1="0%" x2="100%" y2="0%" id="a">
            <stop stop-color="#3023AE" offset="0%"/>
            <stop stop-color="#C86DD7" offset="100%"/>
        </linearGradient>
    </defs>
    <path stroke="url(#a)"
          stroke-width="3"
          stroke-linejoin="round"
          stroke-linecap="round"
          d="M5 40 C 5.36 38.54, 8.82 20.42, 10 19.5 S 14.29 30.87, 15 32.19 S 18.59 38.57, 20 38.07 S 24.01 29.77, 25 28.64 S 28.67 25.93, 30 26.63 S 33.81 33, 35 33.92 S 38.62 33.78, 40 34.36 S 43.62 37.51, 45 38.11 S 48.51 38.54, 50 38.71 S 53.5 39.23, 55 39.28 S 58.5 39, 60 39.07 S 63.5 39.67, 65 39.76 S 68.5 39.64, 70 39.64 S 73.5 39.77, 75 39.76 S 78.5 39.59, 80 39.56 S 83.5 39.52, 85 39.56 S 88.5 39.8, 90 39.84 S 93.5 39.83, 95 39.84 S 98.5 39.87, 100 39.88 S 103.5 39.87, 105 39.88 S 108.5 40.03, 110 39.96 S 113.5 39.48, 115 39.4 S 118.5 39.34, 120 39.4 S 123.5 39.72, 125 39.8 S 128.5 39.95, 130 39.96 S 133.5 39.86, 135 39.84 S 138.5 39.85, 140 39.84 S 143.5 39.76, 145 39.76 S 148.5 39.83, 150 39.84 S 153.5 39.83, 155 39.84 S 158.5 39.87, 160 39.88 S 164.52 41.3, 165 39.88 S 169.51 11.42, 170 10 S 174.17 9.64, 175 10.89 S 179.37 23.78, 180 25.14 S 183.79 31.51, 185 32.39 S 188.54 32.09, 190 32.43 S 193.54 34.38, 195 34.72 S 198.52 34.54, 200 34.77 S 203.57 35.86, 205 36.3"
          fill="none"/>
    <circle r="4" cx="5" cy="40" fill="#3023AE"/>
    <circle r="4" cx="205" cy="36.3" fill="#C86DD7"/>      
</svg>