<svg width="200" height="50" viewBox="0 0 210 50" xmlns="http://www.w3.org/2000/svg">
    <defs>
        <linearGradient x1="0%" y1="0%" x2="100%" y2="0%" id="a">
            <stop stop-color="#3023AE" offset="0%"/>
            <stop stop-color="#C86DD7" offset="100%"/>
        </linearGradient>
    </defs>
    <path stroke="url(#a)"
          stroke-width="3"
          stroke-linejoin="round"
          stroke-linecap="round"
          d="M5 40 C 5.78 38.72, 9.43 33.21, 10 31.82 S 13.68 14.73, 15 15.45 S 19.38 35.91, 20 37.27 S 23.5 37.27, 25 37.27 S 28.5 37.27, 30 37.27 S 33.5 37.27, 35 37.27 S 38.5 37.27, 40 37.27 S 43.5 37.27, 45 37.27 S 48.5 37.27, 50 37.27 S 53.5 37.27, 55 37.27 S 58.5 37.27, 60 37.27 S 63.5 37.27, 65 37.27 S 68.5 37.27, 70 37.27 S 73.5 37.27, 75 37.27 S 78.5 37.27, 80 37.27 S 83.5 37.27, 85 37.27 S 88.5 37.27, 90 37.27 S 93.5 37.27, 95 37.27 S 98.84 38.22, 100 37.27 S 103.5 29.09, 105 29.09 S 108.55 36.87, 110 37.27 S 113.5 31.82, 115 31.82 S 118.68 37.99, 120 37.27 S 123.55 26.75, 125 26.36 S 128.99 33.44, 130 34.55 S 133.55 36.88, 135 37.27 S 138.5 37.27, 140 37.27 S 144.11 38.48, 145 37.27 S 148.5 23.64, 150 23.64 S 154.11 36.06, 155 37.27 S 158.5 37.27, 160 37.27 S 163.5 37.27, 165 37.27 S 168.5 37.27, 170 37.27 S 173.5 37.27, 175 37.27 S 178.5 37.27, 180 37.27 S 184.48 38.68, 185 37.27 S 188.55 10.39, 190 10 S 194.11 33.34, 195 34.55 S 198.99 24.75, 200 23.64 S 203.5 23.64, 205 23.64"
          fill="none"/>
    <circle r="4" cx="5" cy="40" fill="#3023AE"/>
    <circle r="4" cx="205" cy="23.64" fill="#C86DD7"/>      
</svg>