<svg width="200" height="50" viewBox="0 0 210 50" xmlns="http://www.w3.org/2000/svg">
    <defs>
        <linearGradient x1="0%" y1="0%" x2="100%" y2="0%" id="a">
            <stop stop-color="#3023AE" offset="0%"/>
            <stop stop-color="#C86DD7" offset="100%"/>
        </linearGradient>
    </defs>
    <path stroke="url(#a)"
          stroke-width="3"
          stroke-linejoin="round"
          stroke-linecap="round"
          d="M5 40 C 5.42 38.56, 9.24 24.16, 10 22.86 S 14.08 21.68, 15 22.86 S 19.08 34.53, 20 35.71 S 23.5 35.71, 25 35.71 S 28.5 35.71, 30 35.71 S 33.86 36.69, 35 35.71 S 38.62 27.73, 40 27.14 S 43.86 30.45, 45 31.43 S 48.62 35.12, 50 35.71 S 53.5 35.71, 55 35.71 S 58.5 35.71, 60 35.71 S 63.5 35.71, 65 35.71 S 68.5 35.71, 70 35.71 S 74.08 36.89, 75 35.71 S 79.08 24.04, 80 22.86 S 83.62 22.27, 85 22.86 S 88.62 26.55, 90 27.14 S 93.62 26.55, 95 27.14 S 98.62 32.02, 100 31.43 S 104.24 24.16, 105 22.86 S 108.86 13.31, 110 14.29 S 114.37 30.07, 115 31.43 S 119.37 37.07, 120 35.71 S 123.62 10.59, 125 10 S 129.46 30.03, 130 31.43 S 133.5 35.71, 135 35.71 S 138.86 32.41, 140 31.43 S 144.24 28.44, 145 27.14 S 148.62 13.7, 150 14.29 S 153.5 31.43, 155 31.43 S 158.62 14.88, 160 14.29 S 163.62 26.55, 165 27.14 S 168.86 17.59, 170 18.57 S 174.08 34.53, 175 35.71 S 178.86 32.41, 180 31.43 S 183.5 27.14, 185 27.14 S 188.86 30.45, 190 31.43 S 193.62 35.12, 195 35.71 S 198.62 36.3, 200 35.71 S 203.86 32.41, 205 31.43"
          fill="none"/>
    <circle r="4" cx="5" cy="40" fill="#3023AE"/>
    <circle r="4" cx="205" cy="31.43" fill="#C86DD7"/>      
</svg>