<svg width="200" height="50" viewBox="0 0 210 50" xmlns="http://www.w3.org/2000/svg">
    <defs>
        <linearGradient x1="0%" y1="0%" x2="100%" y2="0%" id="a">
            <stop stop-color="#3023AE" offset="0%"/>
            <stop stop-color="#C86DD7" offset="100%"/>
        </linearGradient>
    </defs>
    <path stroke="url(#a)"
          stroke-width="3"
          stroke-linejoin="round"
          stroke-linecap="round"
          d="M5 40 C 6.48 39.75, 8.5 39.21, 10 39.15 S 13.69 40.3, 15 39.58 S 18.5 33.66, 20 33.66 S 23.56 39.15, 25 39.58 S 28.69 37.34, 30 36.62 S 33.81 34.99, 35 34.08 S 38.69 29.73, 40 29.01 S 43.53 28.9, 45 28.59 S 48.66 26.22, 50 26.9 S 53.52 33.41, 55 33.66 S 59.42 29.97, 60 28.59 S 63.51 10.19, 65 10 S 69.31 25.99, 70 27.32 S 73.73 28.64, 75 29.44 S 78.71 32.9, 80 33.66 S 83.56 34.92, 85 35.35 S 88.51 36.49, 90 36.62 S 94.29 37.52, 95 36.2 S 98.53 18.34, 100 18.03 S 104.34 32.73, 105 34.08 S 108.62 37.73, 110 38.31 S 113.52 38.56, 115 38.31 S 118.51 36.49, 120 36.62 S 123.55 38.78, 125 39.15 S 128.51 39.34, 130 39.15 S 133.51 38.08, 135 37.89 S 138.5 37.83, 140 37.89 S 143.51 38.18, 145 38.31 S 148.51 38.92, 150 38.73 S 153.5 37.04, 155 37.04 S 158.52 38.48, 160 38.73 S 163.5 38.79, 165 38.73 S 168.5 38.31, 170 38.31 S 173.51 38.54, 175 38.73 S 178.5 39.52, 180 39.58 S 183.51 39.28, 185 39.15 S 188.5 38.79, 190 38.73 S 193.56 39.16, 195 38.73 S 198.51 35.96, 200 35.77 S 203.58 36.98, 205 37.46"
          fill="none"/>
    <circle r="4" cx="5" cy="40" fill="#3023AE"/>
    <circle r="4" cx="205" cy="37.46" fill="#C86DD7"/>      
</svg>