<svg width="200" height="50" viewBox="0 0 210 50" xmlns="http://www.w3.org/2000/svg">
    <defs>
        <linearGradient x1="0%" y1="0%" x2="100%" y2="0%" id="a">
            <stop stop-color="#3023AE" offset="0%"/>
            <stop stop-color="#C86DD7" offset="100%"/>
        </linearGradient>
    </defs>
    <path stroke="url(#a)"
          stroke-width="3"
          stroke-linejoin="round"
          stroke-linecap="round"
          d="M5 40 C 5.25 38.52, 8.51 10.14, 10 10 S 14.51 37.64, 15 39.06 S 18.5 39.06, 20 39.06 S 23.5 39.06, 25 39.06 S 28.5 39.06, 30 39.06 S 33.5 39.06, 35 39.06 S 38.5 39.06, 40 39.06 S 43.5 39.06, 45 39.06 S 48.5 39.06, 50 39.06 S 53.5 39.06, 55 39.06 S 58.5 39.06, 60 39.06 S 63.5 39.06, 65 39.06 S 68.5 39.06, 70 39.06 S 73.5 39.06, 75 39.06 S 78.5 39.06, 80 39.06"
          fill="none"/>
    <circle r="4" cx="5" cy="40" fill="#3023AE"/>
    <circle r="4" cx="80" cy="39.06" fill="#C86DD7"/>      
</svg>