<svg width="200" height="50" viewBox="0 0 210 50" xmlns="http://www.w3.org/2000/svg">
    <defs>
        <linearGradient x1="0%" y1="0%" x2="100%" y2="0%" id="a">
            <stop stop-color="#3023AE" offset="0%"/>
            <stop stop-color="#C86DD7" offset="100%"/>
        </linearGradient>
    </defs>
    <path stroke="url(#a)"
          stroke-width="3"
          stroke-linejoin="round"
          stroke-linecap="round"
          d="M5 40 C 5.51 38.59, 9.28 27.38, 10 26.07 S 14.17 23.04, 15 21.79 S 18.8 11.97, 20 11.07 S 23.51 14.45, 25 14.29 S 28.68 9.29, 30 10 S 33.62 19.05, 35 19.64 S 39.17 13.04, 40 14.29 S 43.68 33.93, 45 34.64 S 48.57 20.1, 50 19.64 S 53.86 30.45, 55 31.43 S 58.57 27.75, 60 28.21 S 63.51 34.48, 65 34.64 S 68.53 28.97, 70 29.29 S 73.8 37.69, 75 36.79 S 79.13 23.01, 80 21.79 S 83.98 21.76, 85 22.86 S 89.13 31.28, 90 32.5 S 93.53 36.48, 95 36.79 S 98.53 34.96, 100 34.64 S 103.53 34.95, 105 34.64 S 108.51 32.66, 110 32.5 S 113.5 33.57, 115 33.57 S 118.51 32.66, 120 32.5 S 123.53 32.19, 125 32.5 S 128.53 34.33, 130 34.64 S 133.68 35.35, 135 34.64 S 138.5 29.29, 140 29.29 S 143.57 34.18, 145 34.64 S 148.51 32.66, 150 32.5 S 153.68 32.86, 155 33.57 S 158.51 38.02, 160 37.86 S 163.8 33.4, 165 32.5 S 168.68 29.65, 170 30.36 S 173.53 37.55, 175 37.86 S 178.51 32.34, 180 32.5 S 183.74 38.12, 185 38.93 S 188.57 39.39, 190 38.93 S 193.51 35.87, 195 35.71 S 198.53 37.54, 200 37.86 S 203.5 37.86, 205 37.86"
          fill="none"/>
    <circle r="4" cx="5" cy="40" fill="#3023AE"/>
    <circle r="4" cx="205" cy="37.86" fill="#C86DD7"/>      
</svg>