<svg width="200" height="50" viewBox="0 0 210 50" xmlns="http://www.w3.org/2000/svg">
    <defs>
        <linearGradient x1="0%" y1="0%" x2="100%" y2="0%" id="a">
            <stop stop-color="#3023AE" offset="0%"/>
            <stop stop-color="#C86DD7" offset="100%"/>
        </linearGradient>
    </defs>
    <path stroke="url(#a)"
          stroke-width="3"
          stroke-linejoin="round"
          stroke-linecap="round"
          d="M5 40 C 6.5 39.99, 8.5 39.98, 10 39.98 S 14.53 41.4, 15 39.98 S 19.36 11.36, 20 10 S 24.45 17.37, 25 18.77 S 29.27 34.24, 30 35.55 S 33.56 36.23, 35 36.64 S 38.52 38.15, 40 38.37 S 43.5 38.04, 45 38.14 S 48.51 38.88, 50 39.02 S 53.5 39.14, 55 39.08 S 58.5 38.77, 60 38.65 S 63.5 38.28, 65 38.29 S 68.51 38.57, 70 38.74 S 73.5 39.35, 75 39.44 S 78.5 39.3, 80 39.32 S 83.5 39.56, 85 39.59 S 88.5 39.56, 90 39.55 S 93.5 39.5, 95 39.51 S 98.5 39.55, 100 39.59 S 103.5 39.75, 105 39.76 S 108.5 39.68, 110 39.64 S 113.5 39.49, 115 39.49 S 118.5 39.63, 120 39.64 S 123.5 39.62, 125 39.59 S 128.5 39.42, 130 39.44 S 133.5 39.7, 135 39.72 S 138.5 39.63, 140 39.59 S 143.5 39.46, 145 39.42 S 148.5 39.25, 150 39.29 S 153.5 39.69, 155 39.66 S 158.5 39.14, 160 39.12 S 163.5 39.51, 165 39.55 S 168.5 39.44, 170 39.42 S 173.5 39.38, 175 39.4 S 178.5 39.5, 180 39.53 S 183.5 39.61, 185 39.59 S 188.5 39.39, 190 39.38 S 193.5 39.54, 195 39.51 S 198.5 39.2, 200 39.21 S 203.5 39.46, 205 39.57"
          fill="none"/>
    <circle r="4" cx="5" cy="40" fill="#3023AE"/>
    <circle r="4" cx="205" cy="39.57" fill="#C86DD7"/>      
</svg>