<svg width="200" height="50" viewBox="0 0 210 50" xmlns="http://www.w3.org/2000/svg">
    <defs>
        <linearGradient x1="0%" y1="0%" x2="100%" y2="0%" id="a">
            <stop stop-color="#3023AE" offset="0%"/>
            <stop stop-color="#C86DD7" offset="100%"/>
        </linearGradient>
    </defs>
    <path stroke="url(#a)"
          stroke-width="3"
          stroke-linejoin="round"
          stroke-linecap="round"
          d="M5 40 C 6.49 39.82, 8.5 39.43, 10 39.39 S 13.5 39.65, 15 39.7 S 18.5 39.7, 20 39.7 S 23.5 39.7, 25 39.7 S 28.5 39.7, 30 39.7 S 33.5 39.7, 35 39.7 S 38.5 39.7, 40 39.7 S 43.5 39.7, 45 39.7 S 48.5 39.7, 50 39.7 S 53.5 39.7, 55 39.7 S 58.5 39.7, 60 39.7 S 63.5 39.7, 65 39.7 S 68.5 39.7, 70 39.7 S 73.5 39.7, 75 39.7 S 78.5 39.7, 80 39.7 S 83.5 39.7, 85 39.7 S 88.5 39.7, 90 39.7 S 93.5 39.7, 95 39.7 S 98.5 39.7, 100 39.7 S 103.5 39.7, 105 39.7 S 108.5 39.7, 110 39.7 S 113.5 39.7, 115 39.7 S 118.5 39.7, 120 39.7 S 123.5 39.7, 125 39.7 S 129.52 41.12, 130 39.7 S 134.36 11.36, 135 10 S 139.49 17.07, 140 18.48 S 144.34 36.53, 145 37.88 S 148.51 38.61, 150 38.79 S 153.5 39, 155 39.09 S 158.5 39.43, 160 39.39 S 163.5 38.88, 165 38.79 S 168.5 38.79, 170 38.79 S 173.5 38.88, 175 38.79 S 178.52 38.41, 180 38.18 S 183.51 37.13, 185 37.27 S 188.5 39, 190 39.09 S 193.5 37.92, 195 37.88 S 198.51 38.97, 200 38.79 S 203.62 37.26, 205 36.67"
          fill="none"/>
    <circle r="4" cx="5" cy="40" fill="#3023AE"/>
    <circle r="4" cx="205" cy="36.67" fill="#C86DD7"/>      
</svg>