<svg width="200" height="50" viewBox="0 0 210 50" xmlns="http://www.w3.org/2000/svg">
    <defs>
        <linearGradient x1="0%" y1="0%" x2="100%" y2="0%" id="a">
            <stop stop-color="#3023AE" offset="0%"/>
            <stop stop-color="#C86DD7" offset="100%"/>
        </linearGradient>
    </defs>
    <path stroke="url(#a)"
          stroke-width="3"
          stroke-linejoin="round"
          stroke-linecap="round"
          d="M5 40 C 6.34 39.33, 8.54 37.86, 10 37.5 S 13.5 37.5, 15 37.5 S 18.5 37.5, 20 37.5 S 23.5 37.5, 25 37.5 S 28.5 37.5, 30 37.5 S 33.5 37.5, 35 37.5 S 38.5 37.5, 40 37.5 S 43.5 37.5, 45 37.5 S 48.66 38.17, 50 37.5 S 53.54 32.86, 55 32.5 S 58.66 34.33, 60 35 S 63.66 38.17, 65 37.5 S 68.66 30.67, 70 30 S 73.5 32.5, 75 32.5 S 79.17 31.25, 80 30 S 83.66 16.83, 85 17.5 S 89.06 33.83, 90 35 S 93.5 30, 95 30 S 98.54 35.36, 100 35 S 103.54 27.14, 105 27.5 S 108.66 36.83, 110 37.5 S 113.94 33.56, 115 32.5 S 118.5 27.5, 120 27.5 S 123.54 32.14, 125 32.5 S 128.54 30.36, 130 30 S 133.54 30.36, 135 30 S 138.66 26.83, 140 27.5 S 143.94 33.94, 145 35 S 148.5 37.5, 150 37.5 S 153.8 35.9, 155 35 S 158.94 31.06, 160 30 S 163.54 24.64, 165 25 S 168.66 31.83, 170 32.5 S 173.54 30.36, 175 30 S 178.8 30.9, 180 30 S 183.66 21.83, 185 22.5 S 188.8 34.1, 190 35 S 194.44 31.39, 195 30 S 198.66 10.67, 200 10 S 204.53 23.58, 205 25"
          fill="none"/>
    <circle r="4" cx="5" cy="40" fill="#3023AE"/>
    <circle r="4" cx="205" cy="25" fill="#C86DD7"/>      
</svg>