<svg width="200" height="50" viewBox="0 0 210 50" xmlns="http://www.w3.org/2000/svg">
    <defs>
        <linearGradient x1="0%" y1="0%" x2="100%" y2="0%" id="a">
            <stop stop-color="#3023AE" offset="0%"/>
            <stop stop-color="#C86DD7" offset="100%"/>
        </linearGradient>
    </defs>
    <path stroke="url(#a)"
          stroke-width="3"
          stroke-linejoin="round"
          stroke-linecap="round"
          d="M5 40 C 5.25 38.52, 8.58 10.47, 10 10 S 14.52 35.25, 15 36.67 S 18.5 39.23, 20 39.33 S 23.5 37.33, 25 37.33 S 28.53 39.04, 30 39.33 S 33.5 39.33, 35 39.33 S 38.58 39.8, 40 39.33 S 43.58 36.47, 45 36 S 48.55 35.61, 50 36 S 53.55 38.28, 55 38.67 S 58.53 38.96, 60 38.67 S 63.5 36.77, 65 36.67 S 68.5 38.1, 70 38 S 73.51 36.2, 75 36 S 78.5 36.77, 80 36.67 S 83.51 35.53, 85 35.33 S 88.51 35.13, 90 35.33 S 93.5 36.67, 95 36.67 S 98.61 35.89, 100 35.33 S 103.75 33.5, 105 32.67 S 108.55 28.28, 110 28.67 S 113.64 34.7, 115 35.33 S 118.79 34.22, 120 33.33 S 123.61 28.56, 125 28 S 128.61 28.77, 130 29.33 S 133.51 32.2, 135 32 S 138.5 27.9, 140 28 S 143.61 33.23, 145 32.67 S 148.51 24.2, 150 24 S 153.94 30.27, 155 31.33 S 158.5 34, 160 34 S 163.87 32.31, 165 31.33 S 168.5 25.43, 170 25.33 S 173.58 30.19, 175 30.67 S 178.71 27.9, 180 28.67 S 183.53 36.38, 185 36.67 S 188.53 30.96, 190 30.67 S 193.5 34.57, 195 34.67 S 198.83 32.27, 200 31.33 S 203.9 27.69, 205 26.67"
          fill="none"/>
    <circle r="4" cx="5" cy="40" fill="#3023AE"/>
    <circle r="4" cx="205" cy="26.67" fill="#C86DD7"/>      
</svg>