<svg width="200" height="50" viewBox="0 0 210 50" xmlns="http://www.w3.org/2000/svg">
    <defs>
        <linearGradient x1="0%" y1="0%" x2="100%" y2="0%" id="a">
            <stop stop-color="#3023AE" offset="0%"/>
            <stop stop-color="#C86DD7" offset="100%"/>
        </linearGradient>
    </defs>
    <path stroke="url(#a)"
          stroke-width="3"
          stroke-linejoin="round"
          stroke-linecap="round"
          d="M5 40 C 5.25 38.52, 8.83 10.94, 10 10 S 14.36 30.56, 15 31.92 S 18.58 31.55, 20 31.06 S 23.56 28.88, 25 28.46 S 28.78 27.29, 30 28.17 S 33.72 34.89, 35 35.67 S 38.51 34.4, 40 34.23 S 43.53 34.22, 45 34.52 S 48.51 36.12, 50 36.25 S 53.54 35.72, 55 35.38 S 58.51 34.07, 60 33.94 S 63.51 34.65, 65 34.52 S 68.5 33.04, 70 33.08 S 73.52 34.55, 75 34.81 S 78.53 34.51, 80 34.81 S 83.6 36.3, 85 36.83 S 88.53 38.26, 90 38.56 S 93.51 38.98, 95 38.85 S 98.51 37.56, 100 37.69 S 103.52 39.5, 105 39.71 S 108.5 39.17, 110 39.13 S 113.5 39.42, 115 39.42 S 118.5 39.17, 120 39.13 S 123.5 39.09, 125 39.13 S 128.5 39.38, 130 39.42 S 133.5 39.51, 135 39.42 S 138.5 38.85, 140 38.85 S 143.5 39.51, 145 39.42 S 148.5 38.36, 150 38.27 S 153.52 38.64, 155 38.85 S 158.5 39.62, 160 39.71 S 163.5 39.51, 165 39.42 S 168.5 39.09, 170 39.13 S 173.5 39.62, 175 39.71 S 178.5 39.71, 180 39.71 S 183.5 39.71, 185 39.71 S 188.5 39.71, 190 39.71 S 193.5 39.71, 195 39.71 S 198.5 39.8, 200 39.71 S 203.51 39.3, 205 39.13"
          fill="none"/>
    <circle r="4" cx="5" cy="40" fill="#3023AE"/>
    <circle r="4" cx="205" cy="39.13" fill="#C86DD7"/>      
</svg>