<svg width="200" height="50" viewBox="0 0 210 50" xmlns="http://www.w3.org/2000/svg">
    <defs>
        <linearGradient x1="0%" y1="0%" x2="100%" y2="0%" id="a">
            <stop stop-color="#3023AE" offset="0%"/>
            <stop stop-color="#C86DD7" offset="100%"/>
        </linearGradient>
    </defs>
    <path stroke="url(#a)"
          stroke-width="3"
          stroke-linejoin="round"
          stroke-linecap="round"
          d="M5 40 C 5.47 38.58, 8.6 25.53, 10 25 S 14 35.13, 15 36.25 S 18.6 36.78, 20 36.25 S 23.8 33.4, 25 32.5 S 28.6 28.22, 30 28.75 S 33.8 35.35, 35 36.25 S 38.5 36.25, 40 36.25 S 43.5 36.25, 45 36.25 S 48.5 36.25, 50 36.25 S 53.5 36.25, 55 36.25 S 58.5 36.25, 60 36.25 S 63.5 36.25, 65 36.25 S 68.5 36.25, 70 36.25 S 73.5 36.25, 75 36.25 S 78.5 36.25, 80 36.25 S 83.5 36.25, 85 36.25 S 88.5 36.25, 90 36.25 S 93.5 36.25, 95 36.25 S 98.5 36.25, 100 36.25 S 103.5 36.25, 105 36.25 S 108.5 36.25, 110 36.25 S 113.5 36.25, 115 36.25 S 118.6 36.78, 120 36.25 S 123.8 33.4, 125 32.5 S 128.5 28.75, 130 28.75 S 133.6 31.97, 135 32.5 S 138.6 33.03, 140 32.5 S 143.6 28.22, 145 28.75 S 148.8 35.35, 150 36.25 S 153.5 36.25, 155 36.25 S 158.5 36.25, 160 36.25 S 163.8 37.15, 165 36.25 S 168.5 28.75, 170 28.75 S 173.5 36.25, 175 36.25 S 179.47 30.15, 180 28.75 S 183.6 9.47, 185 10 S 189.47 31.1, 190 32.5 S 193.6 35.72, 195 36.25 S 199 37.37, 200 36.25 S 204.39 26.37, 205 25"
          fill="none"/>
    <circle r="4" cx="5" cy="40" fill="#3023AE"/>
    <circle r="4" cx="205" cy="25" fill="#C86DD7"/>      
</svg>