<svg width="200" height="50" viewBox="0 0 210 50" xmlns="http://www.w3.org/2000/svg">
    <defs>
        <linearGradient x1="0%" y1="0%" x2="100%" y2="0%" id="a">
            <stop stop-color="#3023AE" offset="0%"/>
            <stop stop-color="#C86DD7" offset="100%"/>
        </linearGradient>
    </defs>
    <path stroke="url(#a)"
          stroke-width="3"
          stroke-linejoin="round"
          stroke-linecap="round"
          d="M5 40 C 6.34 39.33, 8.54 37.86, 10 37.5 S 13.5 37.5, 15 37.5 S 18.5 37.5, 20 37.5 S 23.5 37.5, 25 37.5 S 28.5 37.5, 30 37.5 S 33.5 37.5, 35 37.5 S 38.5 37.5, 40 37.5 S 43.5 37.5, 45 37.5 S 48.5 37.5, 50 37.5 S 53.5 37.5, 55 37.5 S 58.5 37.5, 60 37.5 S 63.5 37.5, 65 37.5 S 68.5 37.5, 70 37.5 S 73.5 37.5, 75 37.5 S 78.5 37.5, 80 37.5 S 83.5 37.5, 85 37.5 S 88.5 37.5, 90 37.5 S 93.5 37.5, 95 37.5 S 98.5 37.5, 100 37.5 S 103.5 37.5, 105 37.5 S 108.5 37.5, 110 37.5 S 113.5 37.5, 115 37.5 S 118.5 37.5, 120 37.5 S 123.5 37.5, 125 37.5 S 128.5 37.5, 130 37.5 S 133.5 37.5, 135 37.5 S 138.5 37.5, 140 37.5 S 143.5 37.5, 145 37.5 S 148.5 37.5, 150 37.5 S 153.5 37.5, 155 37.5 S 158.66 38.17, 160 37.5 S 164.33 33.84, 165 32.5 S 168.94 18.56, 170 17.5 S 173.94 21.44, 175 22.5 S 178.5 27.5, 180 27.5 S 183.54 22.14, 185 22.5 S 188.5 30, 190 30 S 193.66 23.17, 195 22.5 S 199.06 26.17, 200 25 S 204.53 11.42, 205 10"
          fill="none"/>
    <circle r="4" cx="5" cy="40" fill="#3023AE"/>
    <circle r="4" cx="205" cy="10" fill="#C86DD7"/>      
</svg>