<svg width="200" height="50" viewBox="0 0 210 50" xmlns="http://www.w3.org/2000/svg">
    <defs>
        <linearGradient x1="0%" y1="0%" x2="100%" y2="0%" id="a">
            <stop stop-color="#3023AE" offset="0%"/>
            <stop stop-color="#C86DD7" offset="100%"/>
        </linearGradient>
    </defs>
    <path stroke="url(#a)"
          stroke-width="3"
          stroke-linejoin="round"
          stroke-linecap="round"
          d="M5 40 C 5.48 38.58, 8.53 25.36, 10 25.06 S 14.15 36.72, 15 37.95 S 18.52 39.27, 20 39.53 S 23.5 39.67, 25 39.72 S 28.5 39.87, 30 39.88 S 33.5 39.77, 35 39.77 S 38.5 39.89, 40 39.88 S 43.5 39.67, 45 39.67 S 48.5 39.88, 50 39.91 S 53.5 39.93, 55 39.86 S 58.5 39.42, 60 39.42 S 63.5 39.77, 65 39.84 S 68.5 39.86, 70 39.86 S 73.5 39.8, 75 39.81 S 78.5 39.9, 80 39.93 S 83.51 40.11, 85 39.98 S 89.53 40.51, 90 39.09 S 93.52 10.22, 95 10 S 99.52 36.2, 100 37.62 S 103.52 39.12, 105 39.39 S 108.5 39.54, 110 39.42 S 113.5 38.59, 115 38.6 S 118.5 39.4, 120 39.51 S 123.5 39.34, 125 39.32 S 128.5 39.34, 130 39.39 S 133.5 39.62, 135 39.67 S 138.5 39.69, 140 39.7 S 143.5 39.76, 145 39.77 S 148.5 39.81, 150 39.74 S 153.5 39.32, 155 39.32 S 158.5 39.68, 160 39.77 S 163.5 39.94, 165 39.93 S 168.5 39.74, 170 39.72 S 173.5 39.76, 175 39.79 S 178.5 39.93, 180 39.95 S 183.5 39.93, 185 39.91 S 188.5 39.79, 190 39.79 S 193.5 39.91, 195 39.91 S 198.5 39.92, 200 39.81 S 203.51 39.35, 205 39.16"
          fill="none"/>
    <circle r="4" cx="5" cy="40" fill="#3023AE"/>
    <circle r="4" cx="205" cy="39.16" fill="#C86DD7"/>      
</svg>