<svg width="200" height="50" viewBox="0 0 210 50" xmlns="http://www.w3.org/2000/svg">
    <defs>
        <linearGradient x1="0%" y1="0%" x2="100%" y2="0%" id="a">
            <stop stop-color="#3023AE" offset="0%"/>
            <stop stop-color="#C86DD7" offset="100%"/>
        </linearGradient>
    </defs>
    <path stroke="url(#a)"
          stroke-width="3"
          stroke-linejoin="round"
          stroke-linecap="round"
          d="M5 40 C 5.25 38.52, 8.66 10.68, 10 10 S 14.51 33.47, 15 34.89 S 18.6 38.37, 20 38.91 S 23.5 38.69, 25 38.75 S 28.5 39.18, 30 39.29 S 33.5 39.48, 35 39.46 S 38.5 39.12, 40 39.13 S 43.5 39.4, 45 39.51 S 48.5 39.84, 50 39.84 S 53.5 39.55, 55 39.51 S 58.5 39.56, 60 39.57 S 63.76 40.41, 65 39.57 S 68.69 33.5, 70 32.77 S 73.7 33.27, 75 34.02 S 78.67 37.89, 80 38.59 S 83.51 39.13, 85 39.29 S 88.5 39.64, 90 39.67 S 93.51 39.69, 95 39.51 S 98.5 38.48, 100 38.48 S 103.51 39.35, 105 39.51 S 108.5 39.55, 110 39.57 S 113.5 39.7, 115 39.67 S 118.5 39.36, 120 39.35 S 123.51 39.72, 125 39.57 S 128.5 38.4, 130 38.37 S 133.5 39.26, 135 39.35 S 138.5 38.98, 140 38.97 S 143.6 39.82, 145 39.29 S 148.5 35.21, 150 35.22 S 153.63 38.75, 155 39.35 S 158.56 40.03, 160 39.62 S 163.5 36.54, 165 36.52 S 168.56 39.03, 170 39.46 S 173.5 39.54, 175 39.51 S 178.5 39.21, 180 39.24 S 183.5 39.68, 185 39.73 S 188.5 39.62, 190 39.57 S 193.5 39.43, 195 39.4 S 198.5 39.3, 200 39.35 S 203.5 39.62, 205 39.73"
          fill="none"/>
    <circle r="4" cx="5" cy="40" fill="#3023AE"/>
    <circle r="4" cx="205" cy="39.73" fill="#C86DD7"/>      
</svg>