<svg width="200" height="50" viewBox="0 0 210 50" xmlns="http://www.w3.org/2000/svg">
    <defs>
        <linearGradient x1="0%" y1="0%" x2="100%" y2="0%" id="a">
            <stop stop-color="#3023AE" offset="0%"/>
            <stop stop-color="#C86DD7" offset="100%"/>
        </linearGradient>
    </defs>
    <path stroke="url(#a)"
          stroke-width="3"
          stroke-linejoin="round"
          stroke-linecap="round"
          d="M5 40 C 6.5 39.96, 8.5 39.87, 10 39.86 S 13.5 39.92, 15 39.93 S 18.5 39.93, 20 39.93 S 23.5 39.93, 25 39.93 S 28.5 39.93, 30 39.93 S 33.5 39.93, 35 39.93 S 38.5 39.93, 40 39.93 S 43.5 39.93, 45 39.93 S 48.5 39.95, 50 39.93 S 53.5 39.9, 55 39.79 S 58.51 39.32, 60 39.17 S 64.07 39.94, 65 38.76 S 68.5 26.39, 70 26.48 S 74.09 38.19, 75 39.38 S 78.5 39.63, 80 39.66 S 83.51 39.75, 85 39.59 S 88.5 38.66, 90 38.62 S 93.5 39.2, 95 39.31 S 98.5 39.45, 100 39.38 S 103.5 38.91, 105 38.83 S 108.5 38.84, 110 38.83 S 113.5 38.78, 115 38.76 S 118.5 38.74, 120 38.69 S 123.5 38.52, 125 38.41 S 128.51 38.11, 130 37.93 S 133.51 37.31, 135 37.17 S 138.53 37.27, 140 36.97 S 143.5 35.21, 145 35.1 S 148.51 36.03, 150 36.21 S 154.47 37.68, 155 36.28 S 159.05 11.16, 160 10 S 164.41 22.69, 165 24.07 S 168.87 32.47, 170 33.45 S 173.55 33.16, 175 32.76 S 178.56 31.11, 180 30.69 S 183.53 30.16, 185 29.86 S 188.53 28.35, 190 28.62 S 193.59 31.2, 195 31.72 S 198.53 32.56, 200 32.28 S 203.66 30.46, 205 29.79"
          fill="none"/>
    <circle r="4" cx="5" cy="40" fill="#3023AE"/>
    <circle r="4" cx="205" cy="29.79" fill="#C86DD7"/>      
</svg>