<svg width="200" height="50" viewBox="0 0 210 50" xmlns="http://www.w3.org/2000/svg">
    <defs>
        <linearGradient x1="0%" y1="0%" x2="100%" y2="0%" id="a">
            <stop stop-color="#3023AE" offset="0%"/>
            <stop stop-color="#C86DD7" offset="100%"/>
        </linearGradient>
    </defs>
    <path stroke="url(#a)"
          stroke-width="3"
          stroke-linejoin="round"
          stroke-linecap="round"
          d="M5 40 C 5.25 38.52, 8.5 10.04, 10 10 S 14.52 38.3, 15 39.72 S 18.66 40.39, 20 39.72 S 23.75 35.55, 25 34.72 S 28.52 33.31, 30 33.06 S 33.52 33.31, 35 33.06 S 38.69 32.12, 40 31.39 S 43.55 27.9, 45 27.5 S 48.51 28.49, 50 28.61 S 53.54 28.69, 55 28.33 S 58.53 26.4, 60 26.11 S 63.64 25.75, 65 26.39 S 68.59 30.32, 70 30.83 S 73.51 30.17, 75 30 S 78.54 29.39, 80 29.72 S 83.52 31.97, 85 32.22 S 88.51 31.51, 90 31.39 S 93.52 31.14, 95 31.39 S 98.52 33.31, 100 33.06 S 103.59 30.23, 105 29.72 S 108.58 29.91, 110 29.44 S 113.5 26.47, 115 26.39 S 118.72 29.67, 120 28.89 S 123.5 20.24, 125 20.28 S 128.82 28.25, 130 29.17 S 133.54 27.7, 135 28.06 S 138.51 31.46, 140 31.67 S 143.5 29.52, 145 29.44 S 148.51 30.94, 150 31.11 S 153.5 30.48, 155 30.56 S 158.5 31.59, 160 31.67 S 163.54 31.44, 165 31.11 S 168.55 29.84, 170 29.44 S 173.52 28.58, 175 28.33 S 178.5 27.86, 180 27.78 S 183.59 27.27, 185 27.78 S 188.52 31.14, 190 31.39 S 193.5 29.44, 195 29.44 S 198.54 31.75, 200 31.39 S 203.88 27.94, 205 26.94"
          fill="none"/>
    <circle r="4" cx="5" cy="40" fill="#3023AE"/>
    <circle r="4" cx="205" cy="26.939999999999998" fill="#C86DD7"/>      
</svg>