<svg width="200" height="50" viewBox="0 0 210 50" xmlns="http://www.w3.org/2000/svg">
    <defs>
        <linearGradient x1="0%" y1="0%" x2="100%" y2="0%" id="a">
            <stop stop-color="#3023AE" offset="0%"/>
            <stop stop-color="#C86DD7" offset="100%"/>
        </linearGradient>
    </defs>
    <path stroke="url(#a)"
          stroke-width="3"
          stroke-linejoin="round"
          stroke-linecap="round"
          d="M5 40 C 6.5 39.98, 8.5 39.93, 10 39.92 S 13.5 39.9, 15 39.9 S 19.45 41.32, 20 39.92 S 24.09 15.47, 25 14.28 S 29.19 25.52, 30 26.78 S 33.87 28.9, 35 29.89 S 38.83 34.59, 40 35.53 S 43.53 37.6, 45 37.91 S 48.5 37.58, 50 37.67 S 53.5 38.43, 55 38.52 S 58.5 38.34, 60 38.27 S 63.5 38.14, 65 38.08 S 68.57 38.35, 70 37.88 S 73.52 35.04, 75 34.81 S 78.58 35.85, 80 36.33 S 83.5 38.21, 85 38.2 S 88.5 36.31, 90 36.24 S 93.55 37.34, 95 37.73 S 98.51 38.76, 100 38.94 S 103.5 38.97, 105 38.96 S 108.5 38.9, 110 38.89 S 113.51 39.03, 115 38.87 S 118.51 37.95, 120 37.82 S 123.92 39.08, 125 38.03 S 128.51 28.26, 130 28.1 S 133.91 35.96, 135 36.99 S 138.51 37.39, 140 37.52 S 144.49 39.27, 145 37.86 S 148.64 10.63, 150 10 S 154.47 31.81, 155 33.21 S 158.53 36.33, 160 36.64 S 163.5 35.25, 165 35.33 S 168.52 36.92, 170 37.15 S 173.52 37.09, 175 36.86 S 178.5 35.48, 180 35.6 S 183.55 37.3, 185 37.67 S 188.5 38.17, 190 38.16 S 193.68 38.34, 195 37.63 S 198.75 33.58, 200 32.75 S 203.59 31.49, 205 30.99"
          fill="none"/>
    <circle r="4" cx="5" cy="40" fill="#3023AE"/>
    <circle r="4" cx="205" cy="30.990000000000002" fill="#C86DD7"/>      
</svg>