<svg width="200" height="50" viewBox="0 0 210 50" xmlns="http://www.w3.org/2000/svg">
    <defs>
        <linearGradient x1="0%" y1="0%" x2="100%" y2="0%" id="a">
            <stop stop-color="#3023AE" offset="0%"/>
            <stop stop-color="#C86DD7" offset="100%"/>
        </linearGradient>
    </defs>
    <path stroke="url(#a)"
          stroke-width="3"
          stroke-linejoin="round"
          stroke-linecap="round"
          d="M5 40 C 5.25 38.52, 8.66 10.67, 10 10 S 14.48 33.63, 15 35.04 S 18.51 36.82, 20 36.97 S 23.5 36.14, 25 36.03 S 28.51 36.43, 30 36.22 S 33.5 34.59, 35 34.65 S 38.5 36.51, 40 36.63 S 43.52 35.67, 45 35.43 S 48.5 35.11, 50 35 S 53.5 34.71, 55 34.68 S 58.51 34.62, 60 34.77 S 63.51 35.55, 65 35.68 S 68.5 35.68, 70 35.65 S 73.5 35.54, 75 35.48 S 78.51 35.39, 80 35.23 S 83.5 34.5, 85 34.4 S 88.5 34.5, 90 34.58 S 93.51 35.1, 95 34.91 S 98.51 33.44, 100 33.31 S 103.51 33.86, 105 34.02 S 108.5 34.4, 110 34.41 S 113.5 34.18, 115 34.1 S 118.52 34.13, 120 33.88 S 123.5 32.47, 125 32.43 S 128.52 33.37, 130 33.59 S 133.54 34.23, 135 33.9 S 138.52 31.6, 140 31.34 S 143.53 32.44, 145 32.16 S 148.63 30.05, 150 29.45 S 153.55 27.38, 155 27.78 S 158.66 31.53, 160 32.2 S 163.53 33.03, 165 32.73 S 168.5 30.26, 170 30.14 S 173.51 31.76, 175 31.95 S 178.53 31.7, 180 31.42 S 183.52 30.28, 185 30.06 S 188.52 30.19, 190 29.93 S 193.5 28.4, 195 28.29 S 198.5 29.29, 200 29.21 S 203.56 28.16, 205 27.74"
          fill="none"/>
    <circle r="4" cx="5" cy="40" fill="#3023AE"/>
    <circle r="4" cx="205" cy="27.740000000000002" fill="#C86DD7"/>      
</svg>