<svg width="200" height="50" viewBox="0 0 210 50" xmlns="http://www.w3.org/2000/svg">
    <defs>
        <linearGradient x1="0%" y1="0%" x2="100%" y2="0%" id="a">
            <stop stop-color="#3023AE" offset="0%"/>
            <stop stop-color="#C86DD7" offset="100%"/>
        </linearGradient>
    </defs>
    <path stroke="url(#a)"
          stroke-width="3"
          stroke-linejoin="round"
          stroke-linecap="round"
          d="M5 40 C 5.47 38.58, 9.17 26.25, 10 25 S 13.5 25, 15 25 S 18.8 24.1, 20 25 S 23.8 31.6, 25 32.5 S 28.5 32.5, 30 32.5 S 33.5 32.5, 35 32.5 S 38.5 32.5, 40 32.5 S 43.5 32.5, 45 32.5 S 48.5 32.5, 50 32.5 S 53.8 33.4, 55 32.5 S 58.5 25, 60 25 S 63.5 32.5, 65 32.5 S 69.17 26.25, 70 25 S 73.8 16.6, 75 17.5 S 79.17 31.25, 80 32.5 S 84.39 33.87, 85 32.5 S 88.5 10, 90 10 S 93.8 31.6, 95 32.5 S 98.5 17.5, 100 17.5 S 104.17 31.25, 105 32.5 S 108.5 32.5, 110 32.5 S 113.5 32.5, 115 32.5 S 119.17 33.75, 120 32.5 S 123.5 17.5, 125 17.5 S 128.8 31.6, 130 32.5 S 133.5 25, 135 25 S 138.8 31.6, 140 32.5 S 143.5 32.5, 145 32.5 S 148.8 33.4, 150 32.5 S 154.39 26.37, 155 25 S 158.8 9.1, 160 10 S 164.39 31.13, 165 32.5 S 168.5 32.5, 170 32.5 S 173.5 32.5, 175 32.5 S 178.8 33.4, 180 32.5 S 183.5 25, 185 25 S 188.8 31.6, 190 32.5 S 193.5 32.5, 195 32.5 S 199.17 33.75, 200 32.5 S 204.53 18.92, 205 17.5"
          fill="none"/>
    <circle r="4" cx="5" cy="40" fill="#3023AE"/>
    <circle r="4" cx="205" cy="17.5" fill="#C86DD7"/>      
</svg>