<svg width="200" height="50" viewBox="0 0 210 50" xmlns="http://www.w3.org/2000/svg">
    <defs>
        <linearGradient x1="0%" y1="0%" x2="100%" y2="0%" id="a">
            <stop stop-color="#3023AE" offset="0%"/>
            <stop stop-color="#C86DD7" offset="100%"/>
        </linearGradient>
    </defs>
    <path stroke="url(#a)"
          stroke-width="3"
          stroke-linejoin="round"
          stroke-linecap="round"
          d="M5 40 C 5.75 38.7, 8.5 31.35, 10 31.31 S 13.86 38.77, 15 39.75 S 18.5 39.89, 20 39.92 S 23.5 39.92, 25 39.92 S 28.5 39.95, 30 39.92 S 33.5 39.75, 35 39.75 S 38.5 39.89, 40 39.92 S 43.5 39.92, 45 39.92 S 48.5 39.92, 50 39.92 S 53.5 39.92, 55 39.92 S 58.5 39.96, 60 39.92 S 63.5 39.71, 65 39.67 S 68.5 39.68, 70 39.67 S 73.5 39.63, 75 39.59 S 78.51 39.56, 80 39.43 S 83.5 38.74, 85 38.69 S 88.5 39.13, 90 39.1 S 93.5 38.57, 95 38.52 S 98.52 38.99, 100 38.77 S 103.5 37, 105 37.05 S 108.53 38.82, 110 39.1 S 113.5 38.98, 115 38.93 S 118.5 38.68, 120 38.77 S 123.5 39.44, 125 39.51 S 128.5 39.29, 130 39.26 S 134.51 40.76, 135 39.34 S 138.51 10.13, 140 10 S 144.45 37.05, 145 38.44 S 148.6 35.8, 150 35.25 S 153.61 33.94, 155 34.51 S 158.63 38.73, 160 39.34 S 163.51 39.05, 165 38.93 S 168.51 38.67, 170 38.52 S 173.5 37.85, 175 37.95 S 178.51 39, 180 39.18 S 183.5 39.16, 185 39.18 S 188.52 39.56, 190 39.34 S 193.5 37.75, 195 37.7 S 198.51 38.87, 200 39.02 S 203.5 38.79, 205 38.69"
          fill="none"/>
    <circle r="4" cx="5" cy="40" fill="#3023AE"/>
    <circle r="4" cx="205" cy="38.69" fill="#C86DD7"/>      
</svg>