<svg width="200" height="50" viewBox="0 0 210 50" xmlns="http://www.w3.org/2000/svg">
    <defs>
        <linearGradient x1="0%" y1="0%" x2="100%" y2="0%" id="a">
            <stop stop-color="#3023AE" offset="0%"/>
            <stop stop-color="#C86DD7" offset="100%"/>
        </linearGradient>
    </defs>
    <path stroke="url(#a)"
          stroke-width="3"
          stroke-linejoin="round"
          stroke-linecap="round"
          d="M5 40 C 6.49 39.84, 9.22 40.75, 10 39.47 S 13.51 23.8, 15 23.63 S 19.19 37.09, 20 38.36 S 23.51 39.18, 25 39.34 S 28.5 39.47, 30 39.42 S 34.41 40.41, 35 39.03 S 38.53 16.48, 40 16.19 S 44.39 35.71, 45 37.08 S 48.51 38.63, 50 38.45 S 54.04 37, 55 35.84 S 58.51 26.19, 60 26.37 S 64.02 35.9, 65 37.04 S 68.51 37.84, 70 38.01 S 73.51 38.37, 75 38.19 S 78.51 36.96, 80 36.77 S 83.5 36.81, 85 36.9 S 88.5 37.39, 90 37.39 S 93.5 36.96, 95 36.9 S 98.56 37.42, 100 36.99 S 103.5 33.86, 105 33.89 S 108.55 36.8, 110 37.17 S 113.51 36.55, 115 36.42 S 118.5 36.43, 120 36.33 S 123.5 35.66, 125 35.75 S 129.46 38.3, 130 36.9 S 133.53 10.3, 135 10 S 139.46 33.47, 140 34.87 S 143.5 35.77, 145 35.88 S 148.51 35.72, 150 35.58 S 153.51 35.06, 155 34.91 S 158.5 34.52, 160 34.6 S 163.5 35.4, 165 35.44 S 168.56 35.3, 170 34.87 S 173.77 33.28, 175 32.43 S 178.5 27.92, 180 27.96 S 183.63 32.08, 185 32.7 S 188.5 32.41, 190 32.48 S 193.53 33.45, 195 33.14 S 198.54 30.7, 200 30.35 S 203.5 30.6, 205 30.71"
          fill="none"/>
    <circle r="4" cx="5" cy="40" fill="#3023AE"/>
    <circle r="4" cx="205" cy="30.71" fill="#C86DD7"/>      
</svg>