<svg width="200" height="50" viewBox="0 0 210 50" xmlns="http://www.w3.org/2000/svg">
    <defs>
        <linearGradient x1="0%" y1="0%" x2="100%" y2="0%" id="a">
            <stop stop-color="#3023AE" offset="0%"/>
            <stop stop-color="#C86DD7" offset="100%"/>
        </linearGradient>
    </defs>
    <path stroke="url(#a)"
          stroke-width="3"
          stroke-linejoin="round"
          stroke-linecap="round"
          d="M5 40 C 6.25 39.17, 8.58 37.14, 10 36.67 S 13.94 37.73, 15 36.67 S 18.58 27.15, 20 26.67 S 23.94 32.27, 25 33.33 S 28.58 36.19, 30 36.67 S 33.5 36.67, 35 36.67 S 39.33 38.01, 40 36.67 S 43.75 17.5, 45 16.67 S 49.33 28.66, 50 30 S 53.58 36.2, 55 36.67 S 58.94 34.39, 60 33.33 S 63.94 27.73, 65 26.67 S 68.75 24.16, 70 23.33 S 73.75 19.17, 75 20 S 78.5 30, 80 30 S 83.5 20, 85 20 S 89.1 28.8, 90 30 S 93.5 33.33, 95 33.33 S 99.33 31.34, 100 30 S 103.58 13.8, 105 13.33 S 109.41 25.29, 110 26.67 S 113.58 36.2, 115 36.67 S 119.1 31.2, 120 30 S 123.75 24.16, 125 23.33 S 128.75 24.16, 130 23.33 S 133.94 15.61, 135 16.67 S 139.33 31.99, 140 33.33 S 143.5 36.67, 145 36.67 S 148.5 33.33, 150 33.33 S 153.58 37.14, 155 36.67 S 158.58 30.48, 160 30 S 164.1 34.53, 165 33.33 S 169.1 17.87, 170 16.67 S 174.1 18.8, 175 20 S 178.58 29.53, 180 30 S 183.58 22.86, 185 23.33 S 189.1 34.53, 190 33.33 S 193.58 9.52, 195 10 S 199.72 35.2, 200 36.67"
          fill="none"/>
    <circle r="4" cx="5" cy="40" fill="#3023AE"/>
    <circle r="4" cx="200" cy="36.67" fill="#C86DD7"/>      
</svg>