<svg width="200" height="50" viewBox="0 0 210 50" xmlns="http://www.w3.org/2000/svg">
    <defs>
        <linearGradient x1="0%" y1="0%" x2="100%" y2="0%" id="a">
            <stop stop-color="#3023AE" offset="0%"/>
            <stop stop-color="#C86DD7" offset="100%"/>
        </linearGradient>
    </defs>
    <path stroke="url(#a)"
          stroke-width="3"
          stroke-linejoin="round"
          stroke-linecap="round"
          d="M5 40 C 6.25 39.17, 8.58 37.14, 10 36.67 S 13.94 37.73, 15 36.67 S 18.58 27.15, 20 26.67 S 23.94 32.27, 25 33.33 S 28.58 36.19, 30 36.67 S 33.5 36.67, 35 36.67 S 38.5 36.67, 40 36.67 S 44.47 38.07, 45 36.67 S 48.5 10, 50 10 S 54.47 35.27, 55 36.67 S 58.5 36.67, 60 36.67 S 64.33 38.01, 65 36.67 S 68.58 17.15, 70 16.67 S 73.5 33.33, 75 33.33 S 78.5 16.67, 80 16.67 S 83.58 32.86, 85 33.33 S 88.58 20.47, 90 20 S 94.1 28.8, 95 30 S 98.5 33.33, 100 33.33 S 104.33 31.34, 105 30 S 108.58 13.8, 110 13.33 S 114.41 25.29, 115 26.67 S 118.94 35.61, 120 36.67 S 124.33 38.01, 125 36.67 S 128.5 16.67, 130 16.67 S 133.75 37.5, 135 36.67 S 138.75 10.83, 140 10 S 144.47 28.6, 145 30 S 148.5 36.67, 150 36.67 S 153.5 30, 155 30 S 158.5 36.67, 160 36.67 S 163.5 30, 165 30 S 168.58 36.2, 170 36.67 S 174.23 34.62, 175 33.33 S 179.1 21.2, 180 20 S 183.75 19.17, 185 20 S 188.75 25.84, 190 26.67 S 193.75 25.84, 195 26.67 S 199.1 34.53, 200 33.33 S 204.64 14.79, 205 13.33"
          fill="none"/>
    <circle r="4" cx="5" cy="40" fill="#3023AE"/>
    <circle r="4" cx="205" cy="13.329999999999998" fill="#C86DD7"/>      
</svg>