<svg width="200" height="50" viewBox="0 0 210 50" xmlns="http://www.w3.org/2000/svg">
    <defs>
        <linearGradient x1="0%" y1="0%" x2="100%" y2="0%" id="a">
            <stop stop-color="#3023AE" offset="0%"/>
            <stop stop-color="#C86DD7" offset="100%"/>
        </linearGradient>
    </defs>
    <path stroke="url(#a)"
          stroke-width="3"
          stroke-linejoin="round"
          stroke-linecap="round"
          d="M5 40 C 5.25 38.52, 8.51 10.16, 10 10 S 14.49 37.52, 15 38.93 S 18.51 38.02, 20 37.86 S 23.51 37.7, 25 37.86 S 28.51 38.77, 30 38.93 S 33.5 38.93, 35 38.93 S 38.5 38.93, 40 38.93 S 43.57 39.39, 45 38.93 S 48.68 36.42, 50 35.71 S 53.51 33.41, 55 33.57 S 58.53 37.1, 60 36.79 S 63.5 31.43, 65 31.43 S 68.62 36.2, 70 36.79 S 73.5 35.71, 75 35.71 S 78.57 36.33, 80 36.79 S 83.51 39.09, 85 38.93 S 88.51 35.87, 90 35.71 S 93.53 37.54, 95 37.86 S 98.5 37.86, 100 37.86 S 103.51 38.02, 105 37.86 S 108.51 36.63, 110 36.79 S 113.53 39.25, 115 38.93 S 118.57 35.1, 120 34.64 S 123.57 35.25, 125 35.71 S 128.57 37.4, 130 37.86 S 133.57 39.39, 135 38.93 S 138.5 34.64, 140 34.64 S 143.53 38.61, 145 38.93 S 148.57 37.25, 150 36.79 S 153.5 35.71, 155 35.71 S 158.5 36.79, 160 36.79 S 163.51 35.55, 165 35.71 S 168.53 37.54, 170 37.86 S 173.5 37.86, 175 37.86 S 178.51 38.02, 180 37.86 S 183.5 36.79, 185 36.79 S 188.5 37.86, 190 37.86 S 193.51 36.63, 195 36.79 S 198.62 38.34, 200 38.93"
          fill="none"/>
    <circle r="4" cx="5" cy="40" fill="#3023AE"/>
    <circle r="4" cx="200" cy="38.93" fill="#C86DD7"/>      
</svg>