<svg width="200" height="50" viewBox="0 0 210 50" xmlns="http://www.w3.org/2000/svg">
    <defs>
        <linearGradient x1="0%" y1="0%" x2="100%" y2="0%" id="a">
            <stop stop-color="#3023AE" offset="0%"/>
            <stop stop-color="#C86DD7" offset="100%"/>
        </linearGradient>
    </defs>
    <path stroke="url(#a)"
          stroke-width="3"
          stroke-linejoin="round"
          stroke-linecap="round"
          d="M5 40 C 5.66 38.65, 8.6 30.41, 10 29.87 S 13.68 35.44, 15 36.15 S 18.52 35.51, 20 35.26 S 23.5 34.39, 25 34.49 S 28.52 36.17, 30 35.9 S 33.68 33.4, 35 32.69 S 38.85 31.47, 40 30.51 S 43.63 24.97, 45 24.36 S 49.13 27.25, 50 26.03 S 53.51 10.11, 55 10.26 S 58.97 25.96, 60 27.05 S 63.52 21.02, 65 20.77 S 68.8 24.48, 70 25.38 S 74.18 29.59, 75 28.33 S 78.72 10.79, 80 10 S 84.18 20.93, 85 22.18 S 88.62 24.68, 90 25.26 S 93.5 26.29, 95 26.41 S 98.65 25.37, 100 26.03 S 103.82 30.36, 105 31.28 S 108.52 33.62, 110 33.85 S 113.51 32.65, 115 32.82 S 118.57 34.54, 120 35 S 123.5 35.99, 125 36.03 S 128.5 35.36, 130 35.26 S 133.5 35.44, 135 35.38 S 138.5 34.77, 140 34.87 S 143.5 36.01, 145 36.03 S 148.5 34.98, 150 35 S 153.52 35.89, 155 36.15 S 158.5 36.69, 160 36.79 S 163.5 36.79, 165 36.79 S 168.5 36.69, 170 36.79 S 173.5 37.38, 175 37.44 S 178.52 37.43, 180 37.18 S 183.5 35.67, 185 35.77 S 188.54 37.48, 190 37.82 S 193.51 38.21, 195 38.08 S 198.51 37.13, 200 36.92 S 203.5 36.74, 205 36.67"
          fill="none"/>
    <circle r="4" cx="5" cy="40" fill="#3023AE"/>
    <circle r="4" cx="205" cy="36.67" fill="#C86DD7"/>      
</svg>