<svg width="200" height="50" viewBox="0 0 210 50" xmlns="http://www.w3.org/2000/svg">
    <defs>
        <linearGradient x1="0%" y1="0%" x2="100%" y2="0%" id="a">
            <stop stop-color="#3023AE" offset="0%"/>
            <stop stop-color="#C86DD7" offset="100%"/>
        </linearGradient>
    </defs>
    <path stroke="url(#a)"
          stroke-width="3"
          stroke-linejoin="round"
          stroke-linecap="round"
          d="M5 40 C 6.5 40, 8.5 40, 10 40 S 13.51 40.14, 15 39.99 S 19.53 40.42, 20 39 S 23.54 10.36, 25 10 S 29.4 35.14, 30 36.51 S 33.55 32.32, 35 32.71 S 38.51 39.04, 40 39.21 S 43.5 33.81, 45 33.82 S 48.69 38.55, 50 39.28 S 53.5 39.3, 55 39.36 S 58.5 39.66, 60 39.67 S 63.5 39.47, 65 39.41 S 68.5 39.35, 70 39.29 S 73.5 39.07, 75 38.98 S 78.5 38.68, 80 38.7 S 83.5 39.07, 85 39.13 S 88.5 39.18, 90 39.07 S 93.51 38.56, 95 38.4 S 98.51 37.84, 100 38 S 103.52 39.22, 105 39.44 S 108.5 39.49, 110 39.46 S 113.5 39.3, 115 39.26 S 118.5 39.19, 120 39.21 S 123.5 39.34, 125 39.37 S 128.5 39.36, 130 39.39 S 133.5 39.51, 135 39.54 S 138.5 39.58, 140 39.59 S 143.5 39.58, 145 39.58 S 148.5 39.61, 150 39.57 S 153.5 39.3, 155 39.3 S 158.5 39.57, 160 39.6 S 163.5 39.55, 165 39.53 S 168.55 39.86, 170 39.48 S 173.54 37.25, 175 36.92 S 178.57 37.68, 180 37.24 S 183.5 33.77, 185 33.87 S 188.66 37.24, 190 37.92 S 193.51 38.74, 195 38.91 S 198.5 38.98, 200 39.06 S 203.5 39.33, 205 39.44"
          fill="none"/>
    <circle r="4" cx="5" cy="40" fill="#3023AE"/>
    <circle r="4" cx="205" cy="39.44" fill="#C86DD7"/>      
</svg>