<svg width="200" height="50" viewBox="0 0 210 50" xmlns="http://www.w3.org/2000/svg">
    <defs>
        <linearGradient x1="0%" y1="0%" x2="100%" y2="0%" id="a">
            <stop stop-color="#3023AE" offset="0%"/>
            <stop stop-color="#C86DD7" offset="100%"/>
        </linearGradient>
    </defs>
    <path stroke="url(#a)"
          stroke-width="3"
          stroke-linejoin="round"
          stroke-linecap="round"
          d="M5 40 C 6.49 39.81, 8.5 39.44, 10 39.35 S 13.5 39.53, 15 39.43 S 18.5 38.81, 20 38.71 S 23.5 38.75, 25 38.78 S 28.56 39.32, 30 38.9 S 34.21 37.14, 35 35.87 S 38.5 22.85, 40 22.84 S 44.08 34.63, 45 35.82 S 48.51 35.6, 50 35.81 S 53.51 37.05, 55 37.23 S 58.5 36.97, 60 37.04 S 63.51 37.87, 65 37.7 S 68.51 36.02, 70 35.88 S 73.5 36.61, 75 36.73 S 78.51 36.82, 80 36.66 S 83.52 35.92, 85 35.69 S 88.5 35.18, 90 35.09 S 93.51 34.93, 95 35.12 S 98.51 36.54, 100 36.35 S 103.51 34.01, 105 33.81 S 108.52 35.23, 110 35 S 113.61 32.8, 115 32.24 S 118.5 30.98, 120 30.95 S 123.65 32.67, 125 32.02 S 128.58 26.58, 130 26.1 S 133.64 28.05, 135 28.67 S 138.6 31.21, 140 30.67 S 143.53 25.12, 145 24.81 S 148.65 27.91, 150 28.56 S 153.5 29.75, 155 29.66 S 158.53 27.69, 160 27.99 S 163.52 31.43, 165 31.69 S 168.7 30.5, 170 29.74 S 173.51 25.98, 175 25.85 S 179.2 30.16, 180 28.89 S 183.61 10.56, 185 10 S 189.26 23.57, 190 24.87 S 193.71 26.84, 195 27.61 S 198.56 30.41, 200 30.81 S 203.51 30.52, 205 30.4"
          fill="none"/>
    <circle r="4" cx="5" cy="40" fill="#3023AE"/>
    <circle r="4" cx="205" cy="30.4" fill="#C86DD7"/>      
</svg>