<svg width="200" height="50" viewBox="0 0 210 50" xmlns="http://www.w3.org/2000/svg">
    <defs>
        <linearGradient x1="0%" y1="0%" x2="100%" y2="0%" id="a">
            <stop stop-color="#3023AE" offset="0%"/>
            <stop stop-color="#C86DD7" offset="100%"/>
        </linearGradient>
    </defs>
    <path stroke="url(#a)"
          stroke-width="3"
          stroke-linejoin="round"
          stroke-linecap="round"
          d="M5 40 C 5.25 38.52, 8.54 10.33, 10 10 S 14.51 36.3, 15 37.72 S 18.5 38.85, 20 38.95 S 23.5 38.42, 25 38.42 S 28.5 38.9, 30 38.95 S 33.5 38.72, 35 38.77 S 38.5 39.2, 40 39.3 S 43.5 39.39, 45 39.47 S 48.5 39.77, 50 39.82 S 53.5 39.82, 55 39.82 S 58.55 40.2, 60 39.82 S 63.55 37.57, 65 37.19 S 68.52 37.45, 70 37.19 S 73.5 35.47, 75 35.44 S 78.55 36.64, 80 37.02 S 83.5 38.07, 85 38.07 S 88.5 37.07, 90 37.02 S 93.5 37.64, 95 37.72 S 98.5 37.59, 100 37.54 S 103.5 37.42, 105 37.37 S 108.5 37.29, 110 37.19 S 113.5 36.72, 115 36.67 S 118.53 36.53, 120 36.84 S 123.52 38.54, 125 38.77 S 128.51 38.55, 130 38.42 S 133.5 37.89, 135 37.89 S 138.52 38.19, 140 38.42 S 143.51 39.29, 145 39.47 S 148.5 39.73, 150 39.65 S 153.5 39.03, 155 38.95 S 158.5 39.09, 160 39.12 S 163.5 39.04, 165 39.12 S 168.5 39.68, 170 39.65 S 173.51 39.08, 175 38.95 S 178.5 38.67, 180 38.77 S 183.51 39.52, 185 39.65 S 188.5 39.65, 190 39.65 S 193.5 39.62, 195 39.65 S 198.5 39.77, 200 39.82"
          fill="none"/>
    <circle r="4" cx="5" cy="40" fill="#3023AE"/>
    <circle r="4" cx="200" cy="39.82" fill="#C86DD7"/>      
</svg>