<svg width="200" height="50" viewBox="0 0 210 50" xmlns="http://www.w3.org/2000/svg">
    <defs>
        <linearGradient x1="0%" y1="0%" x2="100%" y2="0%" id="a">
            <stop stop-color="#3023AE" offset="0%"/>
            <stop stop-color="#C86DD7" offset="100%"/>
        </linearGradient>
    </defs>
    <path stroke="url(#a)"
          stroke-width="3"
          stroke-linejoin="round"
          stroke-linecap="round"
          d="M5 40 C 6.49 39.82, 8.5 39.45, 10 39.41 S 13.5 39.64, 15 39.71 S 18.5 39.83, 20 39.85 S 23.5 39.85, 25 39.85 S 28.5 39.85, 30 39.85 S 33.5 39.85, 35 39.85 S 38.5 39.85, 40 39.85 S 43.5 39.94, 45 39.85 S 48.5 39.3, 50 39.26 S 53.5 39.56, 55 39.56 S 58.51 39.41, 60 39.26 S 63.5 38.46, 65 38.53 S 68.51 39.58, 70 39.71 S 73.58 39.89, 75 39.41 S 79.16 37.56, 80 36.32 S 83.58 25.04, 85 24.56 S 89.15 34.18, 90 32.94 S 93.73 10.8, 95 10 S 99.38 25.25, 100 26.62 S 103.85 31.1, 105 32.06 S 108.57 34.54, 110 35 S 113.5 35.27, 115 35.29 S 118.51 35.02, 120 35.15 S 123.5 36.14, 125 36.18 S 128.5 35.44, 130 35.44 S 133.54 35.84, 135 36.18 S 138.5 37.81, 140 37.79 S 143.51 36.16, 145 36.03 S 148.5 37.02, 150 36.91 S 153.5 35.4, 155 35.29 S 158.5 36.11, 160 36.18 S 163.5 35.7, 165 35.74 S 168.5 36.4, 170 36.47 S 173.5 36.2, 175 36.18 S 178.5 36.34, 180 36.32 S 183.73 36.83, 185 36.03 S 188.7 30.75, 190 30 S 193.53 29.99, 195 30.29 S 198.71 31.3, 200 32.06 S 203.84 35.23, 205 36.18"
          fill="none"/>
    <circle r="4" cx="5" cy="40" fill="#3023AE"/>
    <circle r="4" cx="205" cy="36.18" fill="#C86DD7"/>      
</svg>