<svg width="200" height="50" viewBox="0 0 210 50" xmlns="http://www.w3.org/2000/svg">
    <defs>
        <linearGradient x1="0%" y1="0%" x2="100%" y2="0%" id="a">
            <stop stop-color="#3023AE" offset="0%"/>
            <stop stop-color="#C86DD7" offset="100%"/>
        </linearGradient>
    </defs>
    <path stroke="url(#a)"
          stroke-width="3"
          stroke-linejoin="round"
          stroke-linecap="round"
          d="M5 40 C 6.5 39.89, 8.5 39.69, 10 39.64 S 13.5 39.64, 15 39.64 S 18.5 39.64, 20 39.64 S 23.5 39.64, 25 39.64 S 28.5 39.64, 30 39.64 S 33.5 39.69, 35 39.64 S 38.5 39.28, 40 39.28 S 43.5 39.59, 45 39.64 S 48.5 39.64, 50 39.64 S 54.12 40.85, 55 39.64 S 58.68 26.61, 60 25.9 S 63.95 33.15, 65 34.22 S 68.64 35.38, 70 36.02 S 73.53 38.6, 75 38.92 S 78.5 38.08, 80 38.19 S 83.5 39.59, 85 39.64 S 88.51 38.71, 90 38.55 S 93.5 38.6, 95 38.55 S 98.5 38.3, 100 38.19 S 103.52 38.04, 105 37.83 S 108.5 36.7, 110 36.75 S 113.5 38.14, 115 38.19 S 118.57 37.57, 120 37.11 S 123.55 35.31, 125 34.94 S 129.44 35.97, 130 34.58 S 133.89 11.01, 135 10 S 139.38 24.17, 140 25.54 S 144.04 30.9, 145 32.05 S 148.74 38.29, 150 37.47 S 153.52 25.76, 155 25.54 S 158.56 35.6, 160 36.02 S 163.74 29.25, 165 28.43 S 168.64 28.88, 170 29.52 S 173.53 32.81, 175 33.13 S 178.5 31.8, 180 31.69 S 183.52 32.68, 185 32.41 S 188.51 29.72, 190 29.88 S 193.56 33.91, 195 33.49 S 198.56 27.41, 200 26.99 S 203.78 29.72, 205 30.6"
          fill="none"/>
    <circle r="4" cx="5" cy="40" fill="#3023AE"/>
    <circle r="4" cx="205" cy="30.6" fill="#C86DD7"/>      
</svg>