<svg width="200" height="50" viewBox="0 0 210 50" xmlns="http://www.w3.org/2000/svg">
    <defs>
        <linearGradient x1="0%" y1="0%" x2="100%" y2="0%" id="a">
            <stop stop-color="#3023AE" offset="0%"/>
            <stop stop-color="#C86DD7" offset="100%"/>
        </linearGradient>
    </defs>
    <path stroke="url(#a)"
          stroke-width="3"
          stroke-linejoin="round"
          stroke-linecap="round"
          d="M5 40 C 5.9 38.8, 8.75 34.16, 10 33.33 S 13.66 32.66, 15 33.33 S 18.58 37.85, 20 38.33 S 23.66 37.34, 25 36.67 S 28.85 34.29, 30 33.33 S 33.52 28.58, 35 28.33 S 38.5 31.67, 40 31.67 S 43.66 27.66, 45 28.33 S 48.52 36.42, 50 36.67 S 53.5 30, 55 30 S 58.52 36.92, 60 36.67 S 64.02 29.47, 65 28.33 S 69.02 26.14, 70 25 S 73.94 15.61, 75 16.67 S 78.94 33.94, 80 35 S 83.75 27.5, 85 26.67 S 88.66 27.66, 90 28.33 S 93.58 31.19, 95 31.67 S 99.02 32.81, 100 31.67 S 103.75 20.83, 105 20 S 108.75 24.17, 110 25 S 114.17 27.92, 115 26.67 S 119.02 8.86, 120 10 S 124.33 36.99, 125 38.33 S 128.66 30.67, 130 30 S 133.52 33.08, 135 33.33 S 138.66 32.34, 140 31.67 S 143.5 28.33, 145 28.33 S 148.5 31.67, 150 31.67 S 153.58 27.86, 155 28.33 S 158.52 34.75, 160 35 S 163.75 30.83, 165 30 S 168.58 27.86, 170 28.33 S 173.94 32.27, 175 33.33 S 178.5 38.33, 180 38.33 S 184.17 34.58, 185 33.33 S 188.58 22.85, 190 23.33 S 194.02 35.53, 195 36.67 S 198.58 35.48, 200 35 S 203.58 33.81, 205 33.33"
          fill="none"/>
    <circle r="4" cx="5" cy="40" fill="#3023AE"/>
    <circle r="4" cx="205" cy="33.33" fill="#C86DD7"/>      
</svg>