<svg width="200" height="50" viewBox="0 0 210 50" xmlns="http://www.w3.org/2000/svg">
    <defs>
        <linearGradient x1="0%" y1="0%" x2="100%" y2="0%" id="a">
            <stop stop-color="#3023AE" offset="0%"/>
            <stop stop-color="#C86DD7" offset="100%"/>
        </linearGradient>
    </defs>
    <path stroke="url(#a)"
          stroke-width="3"
          stroke-linejoin="round"
          stroke-linecap="round"
          d="M5 40 C 6.46 39.66, 8.5 38.87, 10 38.83 S 13.51 39.58, 15 39.71 S 18.5 39.71, 20 39.71 S 23.5 39.71, 25 39.71 S 28.5 39.71, 30 39.71 S 33.5 39.71, 35 39.71 S 38.5 39.71, 40 39.71 S 43.5 39.71, 45 39.71 S 48.5 39.71, 50 39.71 S 53.5 39.71, 55 39.71 S 58.5 39.71, 60 39.71 S 63.5 39.71, 65 39.71 S 68.5 39.71, 70 39.71 S 73.5 39.71, 75 39.71 S 78.5 39.71, 80 39.71 S 83.5 39.71, 85 39.71 S 88.5 39.71, 90 39.71 S 93.5 39.71, 95 39.71 S 98.5 39.71, 100 39.71 S 103.52 39.97, 105 39.71 S 108.54 38.3, 110 37.96 S 113.5 37.29, 115 37.38 S 118.54 38.2, 120 38.54 S 123.5 39.71, 125 39.71 S 128.51 38.71, 130 38.54 S 133.51 38.37, 135 38.54 S 138.51 39.84, 140 39.71 S 143.66 38.34, 145 37.67 S 148.5 34.72, 150 34.76 S 153.61 37.39, 155 37.96 S 158.52 38.61, 160 38.83 S 163.5 39.38, 165 39.42 S 168.5 39.17, 170 39.13 S 173.53 39.43, 175 39.13 S 178.51 37.26, 180 37.09 S 183.79 38.84, 185 37.96 S 188.6 30.34, 190 29.81 S 193.89 33.17, 195 34.17 S 199.43 40.22, 200 38.83 S 204.74 11.48, 205 10"
          fill="none"/>
    <circle r="4" cx="5" cy="40" fill="#3023AE"/>
    <circle r="4" cx="205" cy="10" fill="#C86DD7"/>      
</svg>