<svg width="200" height="50" viewBox="0 0 210 50" xmlns="http://www.w3.org/2000/svg">
    <defs>
        <linearGradient x1="0%" y1="0%" x2="100%" y2="0%" id="a">
            <stop stop-color="#3023AE" offset="0%"/>
            <stop stop-color="#C86DD7" offset="100%"/>
        </linearGradient>
    </defs>
    <path stroke="url(#a)"
          stroke-width="3"
          stroke-linejoin="round"
          stroke-linecap="round"
          d="M5 40 C 5.77 38.72, 8.57 32.16, 10 31.71 S 14.37 38.22, 15 36.86 S 18.55 10.37, 20 10 S 24.5 32.87, 25 34.29 S 28.55 38.2, 30 38.57 S 33.64 37.48, 35 36.86 S 38.5 34, 40 34 S 43.62 36.27, 45 36.86 S 48.51 38.12, 50 38.29 S 53.51 38.17, 55 38 S 58.51 37.27, 60 37.14 S 63.53 36.85, 65 37.14 S 68.53 38.85, 70 39.14 S 73.5 39.18, 75 39.14 S 78.5 38.95, 80 38.86 S 83.51 38.7, 85 38.57 S 88.51 37.83, 90 38 S 93.51 39.54, 95 39.71 S 98.51 39.27, 100 39.14 S 103.5 38.95, 105 38.86 S 108.51 38.7, 110 38.57 S 113.5 37.91, 115 38 S 118.51 39.27, 120 39.14 S 123.5 37.05, 125 37.14 S 128.51 39.54, 130 39.71 S 133.54 38.62, 135 38.29 S 138.5 37.52, 140 37.43 S 143.51 37.58, 145 37.71 S 148.51 38.12, 150 38.29 S 153.5 38.9, 155 38.86 S 158.54 38.33, 160 38 S 163.5 36.57, 165 36.57 S 168.5 37.96, 170 38 S 173.51 36.99, 175 36.86 S 178.52 36.93, 180 37.14 S 183.51 38.12, 185 38.29 S 188.5 38.25, 190 38.29 S 193.5 38.61, 195 38.57 S 198.51 38.17, 200 38 S 203.51 37.6, 205 37.43"
          fill="none"/>
    <circle r="4" cx="5" cy="40" fill="#3023AE"/>
    <circle r="4" cx="205" cy="37.43" fill="#C86DD7"/>      
</svg>