<svg width="200" height="50" viewBox="0 0 210 50" xmlns="http://www.w3.org/2000/svg">
    <defs>
        <linearGradient x1="0%" y1="0%" x2="100%" y2="0%" id="a">
            <stop stop-color="#3023AE" offset="0%"/>
            <stop stop-color="#C86DD7" offset="100%"/>
        </linearGradient>
    </defs>
    <path stroke="url(#a)"
          stroke-width="3"
          stroke-linejoin="round"
          stroke-linecap="round"
          d="M5 40 C 5.66 38.65, 9.47 31.11, 10 29.71 S 14 14.55, 15 13.43 S 18.86 17.59, 20 18.57 S 23.91 20.97, 25 22 S 28.62 27.41, 30 28 S 34.27 27.6, 35 26.29 S 38.81 10.92, 40 10 S 43.76 17.72, 45 18.57 S 49.08 15.68, 50 16.86 S 54 30.31, 55 31.43 S 58.51 28.13, 60 28 S 63.76 31.42, 65 30.57 S 68.71 21.91, 70 21.14 S 74.08 23.39, 75 24.57 S 78.62 33.41, 80 34 S 83.67 29.55, 85 28.86 S 88.51 28.73, 90 28.86 S 93.62 30.3, 95 29.71 S 98.51 24.7, 100 24.57 S 103.52 29.11, 105 28.86 S 108.58 22.37, 110 22.86 S 113.95 31.21, 115 32.29 S 118.51 33.27, 120 33.14 S 123.5 31.43, 125 31.43 S 128.52 32.89, 130 33.14 S 133.51 33.01, 135 33.14 S 138.5 34, 140 34 S 143.51 33.01, 145 33.14 S 148.58 35.35, 150 34.86 S 153.95 30.79, 155 29.71 S 158.67 23.88, 160 24.57 S 163.62 35.45, 165 34.86 S 168.95 21.37, 170 20.29 S 173.91 23.54, 175 24.57 S 178.95 28.63, 180 29.71 S 183.51 34.99, 185 34.86 S 188.51 28.73, 190 28.86 S 193.51 35.58, 195 35.71 S 198.5 29.71, 200 29.71 S 204.04 34.56, 205 35.71"
          fill="none"/>
    <circle r="4" cx="5" cy="40" fill="#3023AE"/>
    <circle r="4" cx="205" cy="35.71" fill="#C86DD7"/>      
</svg>