<svg width="200" height="50" viewBox="0 0 210 50" xmlns="http://www.w3.org/2000/svg">
    <defs>
        <linearGradient x1="0%" y1="0%" x2="100%" y2="0%" id="a">
            <stop stop-color="#3023AE" offset="0%"/>
            <stop stop-color="#C86DD7" offset="100%"/>
        </linearGradient>
    </defs>
    <path stroke="url(#a)"
          stroke-width="3"
          stroke-linejoin="round"
          stroke-linecap="round"
          d="M5 40 C 6.16 39.05, 8.6 36.47, 10 35.92 S 13.59 35.55, 15 36.06 S 18.69 40.29, 20 39.56 S 23.62 31.08, 25 30.49 S 28.86 34.28, 30 35.25 S 33.6 38.44, 35 38.97 S 38.5 38.99, 40 39 S 43.5 39.01, 45 39.07 S 48.5 39.32, 50 39.38 S 53.5 39.39, 55 39.44 S 58.5 39.66, 60 39.69 S 63.5 39.59, 65 39.62 S 68.52 40.13, 70 39.91 S 73.94 39.23, 75 38.17 S 78.58 30.35, 80 29.87 S 83.58 34.31, 85 34.79 S 88.51 33.37, 90 33.21 S 93.63 34.34, 95 33.72 S 98.7 29.46, 100 28.71 S 103.57 28.45, 105 27.99 S 108.62 26.06, 110 25.48 S 113.68 24.51, 115 23.79 S 118.94 21.07, 120 20 S 123.66 14.38, 125 13.7 S 128.57 15.35, 130 14.88 S 133.78 9.55, 135 10.42 S 139.07 20.81, 140 21.98 S 143.54 22.64, 145 22.99 S 148.61 24.96, 150 24.41 S 153.56 19.43, 155 19.02 S 158.61 20.98, 160 21.54 S 163.51 22.87, 165 23.07 S 168.71 23.67, 170 22.9 S 173.64 17.77, 175 17.13 S 178.6 17.66, 180 18.19 S 183.56 20.45, 185 20.89 S 188.96 22.31, 190 21.23 S 193.89 11.54, 195 10.53 S 198.5 12.22, 200 12.14 S 203.62 10.59, 205 10"
          fill="none"/>
    <circle r="4" cx="5" cy="40" fill="#3023AE"/>
    <circle r="4" cx="205" cy="10" fill="#C86DD7"/>      
</svg>