<svg width="200" height="50" viewBox="0 0 210 50" xmlns="http://www.w3.org/2000/svg">
    <defs>
        <linearGradient x1="0%" y1="0%" x2="100%" y2="0%" id="a">
            <stop stop-color="#3023AE" offset="0%"/>
            <stop stop-color="#C86DD7" offset="100%"/>
        </linearGradient>
    </defs>
    <path stroke="url(#a)"
          stroke-width="3"
          stroke-linejoin="round"
          stroke-linecap="round"
          d="M5 40 C 6.24 39.15, 8.58 37.04, 10 36.57 S 13.57 36.26, 15 36.7 S 18.64 40.26, 20 39.63 S 23.59 32.56, 25 32.05 S 28.78 35.12, 30 35.99 S 33.57 38.7, 35 39.15 S 38.5 39.14, 40 39.15 S 43.5 39.13, 45 39.19 S 48.5 39.49, 50 39.54 S 53.5 39.47, 55 39.5 S 58.5 39.72, 60 39.74 S 63.5 39.63, 65 39.66 S 68.52 40.18, 70 39.97 S 73.87 39.22, 75 38.23 S 78.55 31.56, 80 31.18 S 83.56 35.2, 85 35.63 S 88.51 34.33, 90 34.14 S 93.59 34.83, 95 34.32 S 98.61 31.08, 100 30.51 S 103.57 30.68, 105 30.22 S 108.64 27.94, 110 27.31 S 113.64 26.24, 115 25.61 S 118.76 23.52, 120 22.67 S 124.07 19.91, 125 18.73 S 128.65 9.35, 130 10 S 134.16 22.3, 135 23.54 S 138.55 24.36, 140 24.74 S 143.52 25.93, 145 26.16 S 148.61 26.87, 150 26.31 S 153.51 22.38, 155 22.17 S 158.59 24.38, 160 24.89 S 163.5 25.82, 165 25.81 S 168.68 25.56, 170 24.85 S 173.58 20.97, 175 20.48 S 178.61 20.84, 180 21.39 S 183.53 24.16, 185 24.45 S 188.94 24.45, 190 23.39 S 193.75 15.34, 195 14.51 S 198.5 16.66, 200 16.7 S 203.6 15.33, 205 14.8"
          fill="none"/>
    <circle r="4" cx="5" cy="40" fill="#3023AE"/>
    <circle r="4" cx="205" cy="14.8" fill="#C86DD7"/>      
</svg>