<svg width="200" height="50" viewBox="0 0 210 50" xmlns="http://www.w3.org/2000/svg">
    <defs>
        <linearGradient x1="0%" y1="0%" x2="100%" y2="0%" id="a">
            <stop stop-color="#3023AE" offset="0%"/>
            <stop stop-color="#C86DD7" offset="100%"/>
        </linearGradient>
    </defs>
    <path stroke="url(#a)"
          stroke-width="3"
          stroke-linejoin="round"
          stroke-linecap="round"
          d="M5 40 C 6.22 39.12, 8.58 36.88, 10 36.39 S 13.57 36.05, 15 36.51 S 18.66 40.27, 20 39.61 S 23.6 32.1, 25 31.57 S 28.8 34.92, 30 35.82 S 33.57 38.58, 35 39.05 S 38.5 39.07, 40 39.1 S 43.5 39.18, 45 39.23 S 48.5 39.37, 50 39.41 S 53.5 39.49, 55 39.53 S 58.5 39.67, 60 39.69 S 63.5 39.63, 65 39.66 S 68.51 40.09, 70 39.92 S 73.86 39.5, 75 38.52 S 78.58 31.83, 80 31.36 S 83.55 34.83, 85 35.23 S 88.5 34.18, 90 34.09 S 93.61 35.18, 95 34.62 S 98.68 30.8, 100 30.09 S 103.55 29.67, 105 29.27 S 108.55 27.71, 110 27.33 S 113.64 27.3, 115 26.67 S 118.99 23.85, 120 22.74 S 123.51 15.8, 125 15.65 S 128.69 22.5, 130 21.76 S 133.58 9.52, 135 10 S 139.16 23.92, 140 25.16 S 143.5 24.64, 145 24.69 S 148.57 25.95, 150 25.51 S 153.51 21.81, 155 21.63 S 158.55 23.89, 160 24.29 S 163.51 24.22, 165 24.41 S 168.62 26.19, 170 25.59 S 173.65 20.73, 175 20.07 S 178.55 20.33, 180 20.71 S 183.54 22.36, 185 22.7 S 188.74 23.82, 190 23.01 S 193.89 17.31, 195 16.3 S 198.53 14.21, 200 13.93 S 203.51 14.28, 205 14.43"
          fill="none"/>
    <circle r="4" cx="5" cy="40" fill="#3023AE"/>
    <circle r="4" cx="205" cy="14.43" fill="#C86DD7"/>      
</svg>