<svg width="200" height="50" viewBox="0 0 210 50" xmlns="http://www.w3.org/2000/svg">
    <defs>
        <linearGradient x1="0%" y1="0%" x2="100%" y2="0%" id="a">
            <stop stop-color="#3023AE" offset="0%"/>
            <stop stop-color="#C86DD7" offset="100%"/>
        </linearGradient>
    </defs>
    <path stroke="url(#a)"
          stroke-width="3"
          stroke-linejoin="round"
          stroke-linecap="round"
          d="M5 40 C 6.3 39.26, 8.55 37.55, 10 37.16 S 13.6 37.84, 15 37.29 S 18.5 33.25, 20 33.21 S 23.71 36.25, 25 37.01 S 28.54 38.79, 30 39.12 S 33.5 39.22, 35 39.24 S 38.5 39.15, 40 39.23 S 43.5 39.72, 45 39.76 S 48.5 39.52, 50 39.5 S 53.5 39.58, 55 39.65 S 58.51 40.13, 60 39.95 S 63.8 39.36, 65 38.46 S 68.57 32.97, 70 32.51 S 73.53 34.96, 75 35.26 S 78.58 35.02, 80 34.54 S 83.6 32.44, 85 31.91 S 88.57 31.22, 90 30.77 S 93.64 29.39, 95 28.76 S 98.96 27.24, 100 26.16 S 103.54 18.8, 105 18.46 S 108.62 24.42, 110 23.84 S 113.53 13.93, 115 14.24 S 119.07 24.75, 120 25.93 S 123.51 27.17, 125 27 S 128.52 25.08, 130 24.82 S 133.52 25.03, 135 25.24 S 138.52 26.05, 140 26.26 S 143.6 27.21, 145 26.68 S 148.58 22.95, 150 22.47 S 153.56 22.89, 155 23.3 S 158.51 25.49, 160 25.34 S 163.86 23.3, 165 22.32 S 168.63 17.37, 170 16.76 S 173.53 17.55, 175 17.85 S 178.5 18.82, 180 18.79 S 183.57 18.12, 185 17.66 S 188.66 16.22, 190 15.55 S 193.58 13.2, 195 12.71 S 198.55 12.48, 200 12.09 S 203.62 10.58, 205 10"
          fill="none"/>
    <circle r="4" cx="5" cy="40" fill="#3023AE"/>
    <circle r="4" cx="205" cy="10" fill="#C86DD7"/>      
</svg>