<svg width="200" height="50" viewBox="0 0 210 50" xmlns="http://www.w3.org/2000/svg">
    <defs>
        <linearGradient x1="0%" y1="0%" x2="100%" y2="0%" id="a">
            <stop stop-color="#3023AE" offset="0%"/>
            <stop stop-color="#C86DD7" offset="100%"/>
        </linearGradient>
    </defs>
    <path stroke="url(#a)"
          stroke-width="3"
          stroke-linejoin="round"
          stroke-linecap="round"
          d="M5 40 C 6.27 39.2, 8.57 37.26, 10 36.82 S 13.63 37.56, 15 36.95 S 18.5 32.31, 20 32.33 S 23.75 36.26, 25 37.09 S 28.53 38.68, 30 39 S 33.5 39.21, 35 39.24 S 38.5 39.16, 40 39.17 S 43.5 39.18, 45 39.28 S 48.5 39.82, 50 39.84 S 53.5 39.45, 55 39.42 S 58.5 39.54, 60 39.62 S 63.5 40, 65 39.93 S 68.82 40.06, 70 39.14 S 73.58 32.62, 75 32.13 S 78.54 35.35, 80 35.7 S 83.51 34.7, 85 34.55 S 88.6 35.21, 90 34.67 S 93.62 31.28, 95 30.7 S 98.56 30.92, 100 30.5 S 103.65 28.44, 105 27.79 S 108.94 26.77, 110 25.71 S 113.5 17.84, 115 17.74 S 118.81 25.97, 120 25.05 S 123.51 9.84, 125 10 S 129.19 24.88, 130 26.15 S 133.5 25.8, 135 25.71 S 138.51 25.72, 140 25.56 S 143.5 24.69, 145 24.63 S 148.51 24.95, 150 25.13 S 153.51 25.62, 155 25.81 S 158.62 27.01, 160 26.42 S 163.6 22.12, 165 21.57 S 168.56 22.06, 170 22.48 S 173.53 24.22, 175 24.5 S 178.85 25.32, 180 24.36 S 183.74 16.93, 185 16.12 S 188.5 17.95, 190 17.98 S 193.52 16.53, 195 16.32 S 198.5 16.46, 200 16.54 S 203.5 16.77, 205 16.87"
          fill="none"/>
    <circle r="4" cx="5" cy="40" fill="#3023AE"/>
    <circle r="4" cx="205" cy="16.87" fill="#C86DD7"/>      
</svg>