<svg width="200" height="50" viewBox="0 0 210 50" xmlns="http://www.w3.org/2000/svg">
    <defs>
        <linearGradient x1="0%" y1="0%" x2="100%" y2="0%" id="a">
            <stop stop-color="#3023AE" offset="0%"/>
            <stop stop-color="#C86DD7" offset="100%"/>
        </linearGradient>
    </defs>
    <path stroke="url(#a)"
          stroke-width="3"
          stroke-linejoin="round"
          stroke-linecap="round"
          d="M5 40 C 6.43 39.56, 8.5 38.55, 10 38.45 S 13.5 39.3, 15 39.3 S 19.3 39.8, 20 38.47 S 23.91 21.28, 25 20.25 S 29.21 27.72, 30 28.99 S 33.85 35.37, 35 36.34 S 38.5 37.31, 40 37.41 S 43.51 36.87, 45 37.01 S 48.52 38.12, 50 38.34 S 53.5 38.59, 55 38.5 S 58.5 37.85, 60 37.76 S 63.51 37.76, 65 37.89 S 68.5 38.59, 70 38.63 S 73.51 38.3, 75 38.15 S 78.5 37.61, 80 37.64 S 83.5 38.27, 85 38.34 S 88.5 38.14, 90 38.12 S 93.5 38.26, 95 38.19 S 98.5 37.66, 100 37.65 S 103.51 38.31, 105 38.15 S 108.55 36.95, 110 36.56 S 113.51 35.36, 115 35.49 S 118.52 37.17, 120 37.4 S 123.5 37.05, 125 37.06 S 128.51 37.6, 130 37.47 S 133.51 36.35, 135 36.18 S 138.5 36.27, 140 36.36 S 143.5 36.74, 145 36.75 S 148.5 36.48, 150 36.45 S 153.5 36.46, 155 36.53 S 158.5 36.89, 160 36.9 S 164.03 37.72, 165 36.58 S 168.57 25.62, 170 25.17 S 174.17 34.69, 175 33.44 S 178.5 9.88, 180 10 S 184.46 32.85, 185 34.25 S 188.52 35.58, 190 35.83 S 193.52 36.22, 195 35.95 S 198.5 34.09, 200 34.01 S 203.55 35, 205 35.4"
          fill="none"/>
    <circle r="4" cx="5" cy="40" fill="#3023AE"/>
    <circle r="4" cx="205" cy="35.4" fill="#C86DD7"/>      
</svg>