<svg width="200" height="50" viewBox="0 0 210 50" xmlns="http://www.w3.org/2000/svg">
    <defs>
        <linearGradient x1="0%" y1="0%" x2="100%" y2="0%" id="a">
            <stop stop-color="#3023AE" offset="0%"/>
            <stop stop-color="#C86DD7" offset="100%"/>
        </linearGradient>
    </defs>
    <path stroke="url(#a)"
          stroke-width="3"
          stroke-linejoin="round"
          stroke-linecap="round"
          d="M5 40 C 5.33 38.54, 8.6 18.38, 10 17.83 S 14.28 34.77, 15 36.09 S 18.55 35.71, 20 36.09 S 23.51 38.51, 25 38.7 S 28.5 37.39, 30 37.39 S 33.6 39.25, 35 38.7 S 38.96 34.56, 40 33.48 S 43.6 27.71, 45 28.26 S 48.6 36.84, 50 37.39 S 53.55 32.55, 55 32.17 S 58.5 34.78, 60 34.78 S 63.55 31.79, 65 32.17 S 68.74 36.57, 70 37.39 S 73.6 39.25, 75 38.7 S 78.82 34.4, 80 33.48 S 83.67 31.56, 85 30.87 S 88.51 28.07, 90 28.26 S 93.51 32.36, 95 32.17 S 98.55 26.58, 100 26.96 S 103.51 34.97, 105 34.78 S 108.89 26.66, 110 25.65 S 113.6 26.2, 115 25.65 S 118.6 21.19, 120 21.74 S 123.51 29.76, 125 29.57 S 128.51 20.24, 130 20.43 S 133.55 31.25, 135 30.87 S 138.89 18.84, 140 17.83 S 143.6 21.19, 145 21.74 S 148.51 21.93, 150 21.74 S 153.51 20.24, 155 20.43 S 158.67 22.35, 160 23.04 S 163.82 26.57, 165 25.65 S 168.6 15.77, 170 15.22 S 173.67 22.43, 175 21.74 S 178.55 9.62, 180 10 S 183.74 23.53, 185 24.35 S 188.55 16.9, 190 16.52 S 193.51 21.93, 195 21.74 S 198.51 15.41, 200 15.22 S 203.96 19.35, 205 20.43"
          fill="none"/>
    <circle r="4" cx="5" cy="40" fill="#3023AE"/>
    <circle r="4" cx="205" cy="20.43" fill="#C86DD7"/>      
</svg>