<svg width="200" height="50" viewBox="0 0 210 50" xmlns="http://www.w3.org/2000/svg">
    <defs>
        <linearGradient x1="0%" y1="0%" x2="100%" y2="0%" id="a">
            <stop stop-color="#3023AE" offset="0%"/>
            <stop stop-color="#C86DD7" offset="100%"/>
        </linearGradient>
    </defs>
    <path stroke="url(#a)"
          stroke-width="3"
          stroke-linejoin="round"
          stroke-linecap="round"
          d="M5 40 C 5.25 38.52, 8.9 11.02, 10 10 S 14.22 29.52, 15 30.8 S 18.53 26.65, 20 26.37 S 23.76 28.03, 25 28.88 S 28.63 32.57, 30 33.19 S 33.51 33.57, 35 33.43 S 38.5 32.12, 40 32.23 S 43.55 34.52, 45 34.14 S 49.03 30.74, 50 29.6 S 53.56 22.02, 55 22.43 S 58.92 31.43, 60 32.47 S 63.5 32.06, 65 31.99 S 68.51 31.79, 70 31.99 S 73.5 33.22, 75 33.31 S 78.5 32.59, 80 32.59 S 83.5 33.29, 85 33.31 S 88.51 32.57, 90 32.71 S 93.67 33.56, 95 34.26 S 98.54 37.64, 100 37.97 S 103.51 36.69, 105 36.53 S 108.5 36.93, 110 36.89 S 113.5 36.24, 115 36.29 S 118.5 37.21, 120 37.25 S 123.5 36.55, 125 36.53 S 128.54 36.78, 130 37.13 S 133.51 38.78, 135 38.92 S 138.51 38.23, 140 38.09 S 143.5 38.04, 145 37.97 S 148.5 37.52, 150 37.61 S 153.54 38.24, 155 38.57 S 158.51 39.72, 160 39.88 S 163.5 39.69, 165 39.64 S 168.5 39.63, 170 39.52 S 173.5 38.99, 175 38.92 S 178.5 38.95, 180 39.04 S 183.5 39.43, 185 39.52 S 188.5 39.6, 190 39.64 S 193.5 39.78, 195 39.76 S 198.5 39.56, 200 39.52 S 203.5 39.52, 205 39.52"
          fill="none"/>
    <circle r="4" cx="5" cy="40" fill="#3023AE"/>
    <circle r="4" cx="205" cy="39.52" fill="#C86DD7"/>      
</svg>