<svg width="200" height="50" viewBox="0 0 210 50" xmlns="http://www.w3.org/2000/svg">
    <defs>
        <linearGradient x1="0%" y1="0%" x2="100%" y2="0%" id="a">
            <stop stop-color="#3023AE" offset="0%"/>
            <stop stop-color="#C86DD7" offset="100%"/>
        </linearGradient>
    </defs>
    <path stroke="url(#a)"
          stroke-width="3"
          stroke-linejoin="round"
          stroke-linecap="round"
          d="M5 40 C 6.5 40, 8.5 40, 10 40 S 13.5 40, 15 40 S 18.5 40, 20 40 S 23.5 40, 25 40 S 28.5 40, 30 40 S 33.5 40, 35 40 S 38.5 40, 40 40 S 43.5 40, 45 40 S 48.5 40, 50 40 S 53.5 40.06, 55 40 S 58.5 39.6, 60 39.6 S 63.5 39.92, 65 39.98 S 68.5 39.98, 70 39.98 S 74.53 41.39, 75 39.97 S 78.56 10.41, 80 10 S 84.5 35.74, 85 37.15 S 88.5 37.98, 90 38.01 S 93.52 37.6, 95 37.35 S 98.5 36.33, 100 36.3 S 103.5 37.25, 105 37.13 S 108.5 35.42, 110 35.53 S 113.57 37.42, 115 37.88 S 118.5 38.81, 120 38.73 S 123.54 37.66, 125 37.33 S 128.5 36.35, 130 36.44 S 133.53 37.64, 135 37.93 S 138.5 38.39, 140 38.38 S 143.51 38, 145 37.88 S 148.5 37.61, 150 37.55 S 153.52 37.72, 155 37.46 S 158.5 35.73, 160 35.8 S 163.53 37.62, 165 37.92 S 168.5 37.89, 170 37.86 S 173.5 37.81, 175 37.7 S 178.5 37.15, 180 37.14 S 183.5 37.51, 185 37.61 S 188.98 38.9, 190 37.8 S 193.51 26.93, 195 26.79 S 198.95 35.76, 200 36.83 S 203.5 36.92, 205 36.96"
          fill="none"/>
    <circle r="4" cx="5" cy="40" fill="#3023AE"/>
    <circle r="4" cx="205" cy="36.96" fill="#C86DD7"/>      
</svg>