<svg width="200" height="50" viewBox="0 0 210 50" xmlns="http://www.w3.org/2000/svg">
    <defs>
        <linearGradient x1="0%" y1="0%" x2="100%" y2="0%" id="a">
            <stop stop-color="#3023AE" offset="0%"/>
            <stop stop-color="#C86DD7" offset="100%"/>
        </linearGradient>
    </defs>
    <path stroke="url(#a)"
          stroke-width="3"
          stroke-linejoin="round"
          stroke-linecap="round"
          d="M5 40 C 6.08 38.96, 8.98 36.3, 10 35.2 S 13.51 29.38, 15 29.2 S 18.51 34.18, 20 34 S 23.51 28.18, 25 28 S 28.54 33.15, 30 32.8 S 33.51 25.78, 35 25.6 S 38.78 30.72, 40 31.6 S 43.51 32.62, 45 32.8 S 48.51 32.98, 50 32.8 S 53.51 31.78, 55 31.6 S 58.65 32.25, 60 31.6 S 64.14 28.03, 65 26.8 S 69.23 18.49, 70 17.2 S 73.78 9.12, 75 10 S 79.19 23.14, 80 24.4 S 83.78 24.72, 85 25.6 S 88.85 30.64, 90 31.6 S 93.59 34.51, 95 34 S 98.54 28.35, 100 28 S 103.65 30.95, 105 31.6 S 108.71 33.57, 110 32.8 S 113.92 26.64, 115 25.6 S 118.59 22.69, 120 23.2 S 123.65 28.55, 125 29.2 S 128.54 28.35, 130 28 S 133.51 26.62, 135 26.8 S 138.51 29.02, 140 29.2 S 143.51 28.18, 145 28 S 148.51 27.82, 150 28 S 153.54 28.85, 155 29.2 S 158.54 30.05, 160 30.4 S 163.54 31.95, 165 31.6 S 168.65 28.65, 170 28 S 173.71 26.03, 175 26.8 S 178.78 33.12, 180 34 S 183.54 34.35, 185 34 S 188.85 32.56, 190 31.6 S 193.51 25.42, 195 25.6 S 198.5 32.8, 200 32.8 S 204.14 26.83, 205 25.6"
          fill="none"/>
    <circle r="4" cx="5" cy="40" fill="#3023AE"/>
    <circle r="4" cx="205" cy="25.6" fill="#C86DD7"/>      
</svg>