<svg width="200" height="50" viewBox="0 0 210 50" xmlns="http://www.w3.org/2000/svg">
    <defs>
        <linearGradient x1="0%" y1="0%" x2="100%" y2="0%" id="a">
            <stop stop-color="#3023AE" offset="0%"/>
            <stop stop-color="#C86DD7" offset="100%"/>
        </linearGradient>
    </defs>
    <path stroke="url(#a)"
          stroke-width="3"
          stroke-linejoin="round"
          stroke-linecap="round"
          d="M5 40 C 6.5 40, 8.5 39.99, 10 39.99 S 13.5 39.97, 15 39.97 S 18.5 39.99, 20 39.99 S 23.5 40, 25 39.99 S 29.53 41.36, 30 39.94 S 33.67 10.7, 35 10 S 39.48 33.23, 40 34.64 S 43.62 36.52, 45 37.1 S 48.86 39.81, 50 38.83 S 53.8 29.42, 55 28.52 S 58.82 30.42, 60 31.35 S 63.76 35.56, 65 36.41 S 68.53 37.93, 70 38.24 S 73.5 38.58, 75 38.49 S 78.5 37.71, 80 37.64 S 83.57 38.51, 85 38.05 S 88.52 34.67, 90 34.41 S 93.61 35.77, 95 36.32 S 98.54 38.03, 100 38.39 S 103.5 38.72, 105 38.82 S 108.5 39.04, 110 39.08 S 113.5 39.09, 115 39.07 S 118.5 38.98, 120 38.96 S 123.5 38.9, 125 38.91 S 128.5 38.98, 130 39.01 S 133.5 39.11, 135 39.1 S 138.5 38.96, 140 38.95 S 143.5 39.03, 145 39.02 S 148.5 38.87, 150 38.85 S 153.5 38.86, 155 38.89 S 158.5 39, 160 39.03 S 163.86 40.04, 165 39.07 S 168.51 30.69, 170 30.5 S 173.82 36.84, 175 37.76 S 178.5 38.21, 180 38.3 S 183.5 38.3, 185 38.33 S 188.5 38.54, 190 38.51 S 193.5 38.12, 195 38.14 S 198.5 38.64, 200 38.63 S 203.51 38.24, 205 38.07"
          fill="none"/>
    <circle r="4" cx="5" cy="40" fill="#3023AE"/>
    <circle r="4" cx="205" cy="38.07" fill="#C86DD7"/>      
</svg>