<svg width="200" height="50" viewBox="0 0 210 50" xmlns="http://www.w3.org/2000/svg">
    <defs>
        <linearGradient x1="0%" y1="0%" x2="100%" y2="0%" id="a">
            <stop stop-color="#3023AE" offset="0%"/>
            <stop stop-color="#C86DD7" offset="100%"/>
        </linearGradient>
    </defs>
    <path stroke="url(#a)"
          stroke-width="3"
          stroke-linejoin="round"
          stroke-linecap="round"
          d="M5 40 C 6.43 39.56, 8.5 38.58, 10 38.46 S 14.13 40.45, 15 39.23 S 19.51 25.83, 20 24.41 S 23.93 8.95, 25 10 S 29.44 32.81, 30 34.2 S 33.5 34.98, 35 35.1 S 38.51 34.78, 40 34.97 S 43.51 36.15, 45 36.36 S 48.5 36.4, 50 36.36 S 53.53 35.79, 55 36.08 S 58.56 37.89, 60 38.32 S 63.51 38.93, 65 39.09 S 68.64 40.01, 70 39.37 S 73.77 35.28, 75 34.41 S 78.56 32.71, 80 32.31 S 83.5 31.68, 85 31.61 S 88.5 31.74, 90 31.82 S 93.52 32.39, 95 32.17 S 98.56 30.78, 100 30.35 S 103.56 29.59, 105 29.16 S 108.62 27.92, 110 27.34 S 113.83 25.9, 115 24.97 S 118.56 19.8, 120 19.37 S 123.5 21.87, 125 21.96 S 128.55 19.61, 130 20 S 133.63 24.01, 135 24.62 S 138.52 24.74, 140 24.48 S 143.52 22.62, 145 22.87 S 148.58 26.65, 150 26.15 S 153.55 18.99, 155 19.37 S 158.72 27.95, 160 28.74 S 163.53 25.82, 165 25.52 S 168.51 26.56, 170 26.71 S 173.5 26.62, 175 26.5 S 178.5 25.85, 180 25.94 S 183.51 26.96, 185 27.13 S 188.56 27.48, 190 27.06 S 193.58 24.69, 195 24.2 S 198.72 24.35, 200 23.57 S 203.99 19.22, 205 18.11"
          fill="none"/>
    <circle r="4" cx="5" cy="40" fill="#3023AE"/>
    <circle r="4" cx="205" cy="18.11" fill="#C86DD7"/>      
</svg>