<svg width="200" height="50" viewBox="0 0 210 50" xmlns="http://www.w3.org/2000/svg">
    <defs>
        <linearGradient x1="0%" y1="0%" x2="100%" y2="0%" id="a">
            <stop stop-color="#3023AE" offset="0%"/>
            <stop stop-color="#C86DD7" offset="100%"/>
        </linearGradient>
    </defs>
    <path stroke="url(#a)"
          stroke-width="3"
          stroke-linejoin="round"
          stroke-linecap="round"
          d="M5 40 C 6.43 39.56, 8.5 38.58, 10 38.46 S 14.13 40.45, 15 39.23 S 19.51 25.83, 20 24.41 S 23.93 8.95, 25 10 S 29.44 32.81, 30 34.2 S 33.51 34.98, 35 35.1 S 38.51 34.84, 40 35.03 S 43.51 36.15, 45 36.36 S 48.5 36.47, 50 36.43 S 53.52 35.82, 55 36.08 S 58.56 37.75, 60 38.18 S 63.51 38.91, 65 39.09 S 68.64 40.01, 70 39.37 S 73.77 35.26, 75 34.41 S 78.56 32.85, 80 32.45 S 83.5 31.7, 85 31.61 S 88.5 31.75, 90 31.82 S 93.51 32.29, 95 32.1 S 98.56 30.98, 100 30.56 S 103.57 29.6, 105 29.16 S 108.62 28.06, 110 27.48 S 113.83 25.91, 115 24.97 S 118.55 19.74, 120 19.37 S 123.5 22.44, 125 22.45 S 128.53 19.12, 130 19.44 S 133.66 23.94, 135 24.62 S 138.52 24.74, 140 24.48 S 143.52 22.62, 145 22.87 S 148.58 26.64, 150 26.15 S 153.55 19.07, 155 19.44 S 158.73 27.88, 160 28.67 S 163.53 25.96, 165 25.66 S 168.51 26.51, 170 26.64 S 173.5 26.62, 175 26.5 S 178.5 25.77, 180 25.87 S 183.51 27.02, 185 27.2 S 188.56 27.47, 190 27.06 S 193.54 24.7, 195 24.34 S 198.74 25.43, 200 24.62 S 204.1 19.1, 205 17.9"
          fill="none"/>
    <circle r="4" cx="5" cy="40" fill="#3023AE"/>
    <circle r="4" cx="205" cy="17.9" fill="#C86DD7"/>      
</svg>