<svg width="200" height="50" viewBox="0 0 210 50" xmlns="http://www.w3.org/2000/svg">
    <defs>
        <linearGradient x1="0%" y1="0%" x2="100%" y2="0%" id="a">
            <stop stop-color="#3023AE" offset="0%"/>
            <stop stop-color="#C86DD7" offset="100%"/>
        </linearGradient>
    </defs>
    <path stroke="url(#a)"
          stroke-width="3"
          stroke-linejoin="round"
          stroke-linecap="round"
          d="M5 40 C 6.43 39.56, 8.5 38.58, 10 38.46 S 14.13 40.45, 15 39.23 S 19.51 25.83, 20 24.41 S 23.93 8.95, 25 10 S 29.44 32.81, 30 34.2 S 33.51 34.78, 35 34.9 S 38.52 34.8, 40 35.03 S 43.51 36.24, 45 36.43 S 48.5 36.32, 50 36.29 S 53.53 35.93, 55 36.22 S 58.56 37.83, 60 38.25 S 63.51 38.99, 65 39.16 S 68.67 40.07, 70 39.37 S 73.77 34.77, 75 33.92 S 78.53 32.77, 80 32.45 S 83.5 31.84, 85 31.75 S 88.5 31.78, 90 31.82 S 93.52 32.29, 95 32.03 S 98.56 30.49, 100 30.07 S 103.56 29.52, 105 29.09 S 108.61 27.62, 110 27.06 S 113.8 26, 115 25.1 S 118.56 19.92, 120 19.51 S 123.5 22.22, 125 22.24 S 128.53 19.34, 130 19.65 S 133.64 23.71, 135 24.34 S 138.51 24.4, 140 24.27 S 143.52 23.24, 145 23.5 S 148.61 26.57, 150 26.01 S 153.55 19.06, 155 19.44 S 158.73 27.81, 160 28.6 S 163.53 25.94, 165 25.66 S 168.51 26.53, 170 26.71 S 173.52 27.08, 175 26.85 S 178.5 25.14, 180 25.17 S 183.52 26.8, 185 27.06 S 188.54 27.26, 190 26.92 S 193.58 25.24, 195 24.76 S 198.76 24.42, 200 23.57 S 204.01 19.03, 205 17.9"
          fill="none"/>
    <circle r="4" cx="5" cy="40" fill="#3023AE"/>
    <circle r="4" cx="205" cy="17.9" fill="#C86DD7"/>      
</svg>