<svg width="200" height="50" viewBox="0 0 210 50" xmlns="http://www.w3.org/2000/svg">
    <defs>
        <linearGradient x1="0%" y1="0%" x2="100%" y2="0%" id="a">
            <stop stop-color="#3023AE" offset="0%"/>
            <stop stop-color="#C86DD7" offset="100%"/>
        </linearGradient>
    </defs>
    <path stroke="url(#a)"
          stroke-width="3"
          stroke-linejoin="round"
          stroke-linecap="round"
          d="M5 40 C 6.43 39.56, 8.5 38.59, 10 38.47 S 14.13 40.45, 15 39.23 S 19.51 25.86, 20 24.44 S 23.93 8.95, 25 10 S 29.44 32.89, 30 34.28 S 33.51 34.71, 35 34.84 S 38.52 34.88, 40 35.12 S 43.51 36.26, 45 36.44 S 48.5 36.33, 50 36.3 S 53.53 35.94, 55 36.23 S 58.56 37.84, 60 38.26 S 63.51 38.99, 65 39.16 S 68.68 40.08, 70 39.37 S 73.76 34.64, 75 33.79 S 78.54 32.86, 80 32.53 S 83.5 31.67, 85 31.56 S 88.5 31.69, 90 31.77 S 93.52 32.38, 95 32.12 S 98.57 30.47, 100 30.02 S 103.57 29.45, 105 28.98 S 108.59 27.25, 110 26.74 S 113.82 26.28, 115 25.35 S 118.56 19.28, 120 18.86 S 123.51 22.28, 125 22.42 S 128.55 19.4, 130 19.77 S 133.6 24.38, 135 24.93 S 138.51 23.84, 140 23.67 S 143.52 23.58, 145 23.81 S 148.58 25.7, 150 25.21 S 153.58 19.84, 155 20.33 S 158.65 28.04, 160 28.7 S 163.52 25.43, 165 25.21 S 168.51 27.09, 170 27.23 S 173.53 26.43, 175 26.12 S 178.53 24.86, 180 25.14 S 183.53 27.71, 185 28 S 188.58 27.58, 190 27.09 S 193.6 25.12, 195 24.58 S 198.79 24.14, 200 23.26 S 204.03 18.48, 205 17.33"
          fill="none"/>
    <circle r="4" cx="5" cy="40" fill="#3023AE"/>
    <circle r="4" cx="205" cy="17.33" fill="#C86DD7"/>      
</svg>