<svg width="200" height="50" viewBox="0 0 210 50" xmlns="http://www.w3.org/2000/svg">
    <defs>
        <linearGradient x1="0%" y1="0%" x2="100%" y2="0%" id="a">
            <stop stop-color="#3023AE" offset="0%"/>
            <stop stop-color="#C86DD7" offset="100%"/>
        </linearGradient>
    </defs>
    <path stroke="url(#a)"
          stroke-width="3"
          stroke-linejoin="round"
          stroke-linecap="round"
          d="M5 40 C 6.43 39.56, 8.5 38.58, 10 38.46 S 14.13 40.45, 15 39.23 S 19.51 25.79, 20 24.37 S 23.93 8.95, 25 10 S 29.45 32.72, 30 34.11 S 33.51 35.1, 35 35.23 S 38.51 34.79, 40 34.95 S 43.52 36.05, 45 36.29 S 48.5 36.61, 50 36.57 S 53.52 35.77, 55 36 S 58.57 37.67, 60 38.11 S 63.51 38.89, 65 39.09 S 68.64 40.06, 70 39.44 S 73.78 35.4, 75 34.53 S 78.55 32.75, 80 32.36 S 83.5 31.97, 85 31.87 S 88.5 31.63, 90 31.66 S 93.51 32.26, 95 32.08 S 98.55 30.86, 100 30.47 S 103.55 29.82, 105 29.42 S 108.64 28.37, 110 27.73 S 113.82 25.64, 115 24.72 S 118.55 20.32, 120 19.95 S 123.5 22.32, 125 22.2 S 128.56 18.77, 130 19.18 S 133.67 24.37, 135 25.07 S 138.55 24.82, 140 24.44 S 143.52 22.22, 145 22.48 S 148.55 26.58, 150 26.19 S 153.52 19.54, 155 19.81 S 158.7 27.27, 160 28.01 S 163.51 25.65, 165 25.49 S 168.52 26.74, 170 26.96 S 173.52 27.2, 175 26.96 S 178.5 25.42, 180 25.35 S 183.54 26.14, 185 26.47 S 188.52 27.83, 190 27.59 S 193.56 25.27, 195 24.86 S 198.76 25.57, 200 24.72 S 204.11 19.19, 205 17.99"
          fill="none"/>
    <circle r="4" cx="5" cy="40" fill="#3023AE"/>
    <circle r="4" cx="205" cy="17.99" fill="#C86DD7"/>      
</svg>