<svg width="200" height="50" viewBox="0 0 210 50" xmlns="http://www.w3.org/2000/svg">
    <defs>
        <linearGradient x1="0%" y1="0%" x2="100%" y2="0%" id="a">
            <stop stop-color="#3023AE" offset="0%"/>
            <stop stop-color="#C86DD7" offset="100%"/>
        </linearGradient>
    </defs>
    <path stroke="url(#a)"
          stroke-width="3"
          stroke-linejoin="round"
          stroke-linecap="round"
          d="M5 40 C 6.49 39.86, 8.5 39.56, 10 39.53 S 13.5 39.73, 15 39.77 S 18.5 39.77, 20 39.77 S 23.5 39.77, 25 39.77 S 28.53 40.04, 30 39.77 S 33.5 37.98, 35 37.91 S 38.5 39.27, 40 39.3 S 43.56 38.54, 45 38.14 S 48.5 36.51, 50 36.51 S 53.5 38.07, 55 38.14 S 58.51 37.12, 60 36.98 S 63.51 37.35, 65 37.21 S 68.5 36.02, 70 36.05 S 73.51 37.23, 75 37.44 S 78.5 37.47, 80 37.44 S 83.58 37.7, 85 37.21 S 88.63 34.56, 90 33.95 S 93.53 33.06, 95 32.79 S 98.5 32.12, 100 32.09 S 103.53 32.29, 105 32.56 S 108.51 34.12, 110 33.95 S 113.5 31.3, 115 31.4 S 118.53 34.34, 120 34.65 S 123.58 33.98, 125 33.49 S 129.02 32.3, 130 31.16 S 133.72 22.64, 135 21.86 S 138.58 24.63, 140 25.12 S 143.53 25.08, 145 25.35 S 148.63 26.37, 150 26.98 S 153.61 30.32, 155 29.77 S 158.73 23.82, 160 23.02 S 163.58 23, 165 23.49 S 168.55 26.14, 170 26.51 S 173.7 26.8, 175 26.05 S 178.68 21.41, 180 20.7 S 183.5 20.63, 185 20.7 S 188.58 21.65, 190 21.16 S 194 18.33, 195 17.21 S 198.63 10.61, 200 10 S 203.69 12.06, 205 12.79"
          fill="none"/>
    <circle r="4" cx="5" cy="40" fill="#3023AE"/>
    <circle r="4" cx="205" cy="12.79" fill="#C86DD7"/>      
</svg>