<svg width="200" height="50" viewBox="0 0 210 50" xmlns="http://www.w3.org/2000/svg">
    <defs>
        <linearGradient x1="0%" y1="0%" x2="100%" y2="0%" id="a">
            <stop stop-color="#3023AE" offset="0%"/>
            <stop stop-color="#C86DD7" offset="100%"/>
        </linearGradient>
    </defs>
    <path stroke="url(#a)"
          stroke-width="3"
          stroke-linejoin="round"
          stroke-linecap="round"
          d="M5 40 C 6.01 38.89, 8.51 34.67, 10 34.49 S 13.65 38.12, 15 38.78 S 18.5 39.3, 20 39.39 S 23.5 39.39, 25 39.39 S 28.5 39.39, 30 39.39 S 33.5 39.39, 35 39.39 S 38.5 39.39, 40 39.39 S 43.5 39.39, 45 39.39 S 48.5 39.39, 50 39.39 S 54.52 40.81, 55 39.39 S 58.99 11.11, 60 10 S 64.5 26.96, 65 28.37 S 68.96 37.08, 70 38.16 S 73.51 38.6, 75 38.78 S 78.5 39.3, 80 39.39 S 83.5 39.39, 85 39.39 S 88.5 39.39, 90 39.39 S 93.5 39.39, 95 39.39 S 98.5 39.39, 100 39.39 S 103.5 39.39, 105 39.39 S 108.5 39.39, 110 39.39 S 113.5 39.39, 115 39.39 S 118.5 39.39, 120 39.39 S 123.5 39.39, 125 39.39 S 128.5 39.39, 130 39.39 S 133.5 39.39, 135 39.39 S 138.5 39.39, 140 39.39 S 143.5 39.39, 145 39.39 S 148.5 39.39, 150 39.39 S 153.5 39.39, 155 39.39 S 158.5 39.39, 160 39.39 S 163.5 39.39, 165 39.39 S 168.5 39.39, 170 39.39 S 173.5 39.39, 175 39.39 S 178.5 39.39, 180 39.39 S 183.5 39.39, 185 39.39 S 188.5 39.39, 190 39.39 S 193.5 39.39, 195 39.39 S 198.86 40.37, 200 39.39 S 204.24 32.12, 205 30.82"
          fill="none"/>
    <circle r="4" cx="5" cy="40" fill="#3023AE"/>
    <circle r="4" cx="205" cy="30.82" fill="#C86DD7"/>      
</svg>