<svg width="200" height="50" viewBox="0 0 210 50" xmlns="http://www.w3.org/2000/svg">
    <defs>
        <linearGradient x1="0%" y1="0%" x2="100%" y2="0%" id="a">
            <stop stop-color="#3023AE" offset="0%"/>
            <stop stop-color="#C86DD7" offset="100%"/>
        </linearGradient>
    </defs>
    <path stroke="url(#a)"
          stroke-width="3"
          stroke-linejoin="round"
          stroke-linecap="round"
          d="M5 40 C 6.49 39.84, 9.04 40.63, 10 39.47 S 13.5 27.89, 15 27.89 S 19.02 38.33, 20 39.47 S 24.52 40.89, 25 39.47 S 28.55 10.38, 30 10 S 34.04 35.68, 35 36.84 S 38.53 22.42, 40 22.11 S 44.25 33.44, 45 34.74 S 48.64 38.83, 50 39.47 S 53.5 39.55, 55 39.47 S 58.5 38.95, 60 38.95 S 63.64 40.11, 65 39.47 S 68.5 34.29, 70 34.21 S 73.67 38.25, 75 38.95 S 78.5 39.39, 80 39.47 S 83.5 39.47, 85 39.47 S 88.5 39.47, 90 39.47 S 93.5 39.47, 95 39.47 S 98.5 39.47, 100 39.47 S 103.5 39.47, 105 39.47 S 108.5 39.47, 110 39.47 S 113.5 39.47, 115 39.47 S 118.5 39.47, 120 39.47 S 123.5 39.47, 125 39.47 S 128.5 39.47, 130 39.47 S 133.5 39.47, 135 39.47 S 138.5 39.47, 140 39.47 S 143.5 39.47, 145 39.47 S 148.5 39.47, 150 39.47 S 153.5 39.47, 155 39.47 S 158.5 39.47, 160 39.47 S 163.5 39.47, 165 39.47 S 168.5 39.47, 170 39.47 S 173.5 39.47, 175 39.47"
          fill="none"/>
    <circle r="4" cx="5" cy="40" fill="#3023AE"/>
    <circle r="4" cx="175" cy="39.47" fill="#C86DD7"/>      
</svg>