<svg width="200" height="50" viewBox="0 0 210 50" xmlns="http://www.w3.org/2000/svg">
    <defs>
        <linearGradient x1="0%" y1="0%" x2="100%" y2="0%" id="a">
            <stop stop-color="#3023AE" offset="0%"/>
            <stop stop-color="#C86DD7" offset="100%"/>
        </linearGradient>
    </defs>
    <path stroke="url(#a)"
          stroke-width="3"
          stroke-linejoin="round"
          stroke-linecap="round"
          d="M5 40 C 6.06 38.94, 8.66 35.67, 10 35 S 13.66 35.67, 15 35 S 18.5 30, 20 30 S 24.33 36.34, 25 35 S 28.5 10, 30 10 S 34.17 33.75, 35 35 S 39.17 26.25, 40 25 S 43.66 19.33, 45 20 S 49.17 28.75, 50 30 S 53.5 35, 55 35 S 59.17 31.25, 60 30 S 63.66 19.33, 65 20 S 68.66 34.33, 70 35 S 73.66 25.67, 75 25 S 78.94 28.94, 80 30 S 83.66 34.33, 85 35 S 88.5 35, 90 35 S 93.5 35, 95 35 S 98.5 35, 100 35 S 103.5 35, 105 35 S 108.66 35.67, 110 35 S 113.5 30, 115 30 S 118.66 34.33, 120 35 S 123.5 35, 125 35 S 128.66 35.67, 130 35 S 133.5 30, 135 30 S 138.66 35.67, 140 35 S 143.66 25.67, 145 25 S 148.66 29.33, 150 30 S 153.66 29.33, 155 30 S 158.66 34.33, 160 35 S 163.5 35, 165 35 S 168.5 35, 170 35"
          fill="none"/>
    <circle r="4" cx="5" cy="40" fill="#3023AE"/>
    <circle r="4" cx="170" cy="35" fill="#C86DD7"/>      
</svg>