<svg width="200" height="50" viewBox="0 0 210 50" xmlns="http://www.w3.org/2000/svg">
    <defs>
        <linearGradient x1="0%" y1="0%" x2="100%" y2="0%" id="a">
            <stop stop-color="#3023AE" offset="0%"/>
            <stop stop-color="#C86DD7" offset="100%"/>
        </linearGradient>
    </defs>
    <path stroke="url(#a)"
          stroke-width="3"
          stroke-linejoin="round"
          stroke-linecap="round"
          d="M5 40 C 5.81 38.74, 8.51 32.36, 10 32.17 S 13.78 37.83, 15 38.7 S 18.53 39.64, 20 39.35 S 23.55 37.12, 25 36.74 S 28.55 37.12, 30 36.74 S 33.51 34.32, 35 34.13 S 38.51 35.24, 40 35.43 S 43.64 36.05, 45 35.43 S 48.57 31.33, 50 30.87 S 53.51 32.36, 55 32.17 S 58.5 29.47, 60 29.57 S 63.57 32.37, 65 32.83 S 68.57 33.29, 70 32.83 S 73.89 30.58, 75 29.57 S 78.71 24.46, 80 23.7 S 83.82 24.62, 85 23.7 S 88.89 14.86, 90 15.87 S 93.67 32.14, 95 32.83 S 99 22.2, 100 21.09 S 103.57 21.28, 105 21.74 S 108.78 23.48, 110 24.35 S 113.5 29.01, 115 28.91 S 118.96 24.78, 120 23.7 S 123.67 19.17, 125 18.48 S 128.57 18.94, 130 18.48 S 133.86 16.19, 135 15.22 S 138.71 9.24, 140 10 S 143.96 20.01, 145 21.09 S 148.6 20.98, 150 20.43 S 153.74 16.35, 155 17.17 S 158.93 25.91, 160 26.96 S 163.74 27.78, 165 26.96 S 168.57 20.89, 170 20.43 S 173.86 24.67, 175 23.7 S 179.09 13.15, 180 11.96 S 183.5 10.65, 185 10.65 S 188.74 11.14, 190 11.96 S 193.89 16.16, 195 17.17 S 198.71 20.33, 200 21.09 S 203.6 22.49, 205 23.04"
          fill="none"/>
    <circle r="4" cx="5" cy="40" fill="#3023AE"/>
    <circle r="4" cx="205" cy="23.04" fill="#C86DD7"/>      
</svg>