<svg width="200" height="50" viewBox="0 0 210 50" xmlns="http://www.w3.org/2000/svg">
    <defs>
        <linearGradient x1="0%" y1="0%" x2="100%" y2="0%" id="a">
            <stop stop-color="#3023AE" offset="0%"/>
            <stop stop-color="#C86DD7" offset="100%"/>
        </linearGradient>
    </defs>
    <path stroke="url(#a)"
          stroke-width="3"
          stroke-linejoin="round"
          stroke-linecap="round"
          d="M5 40 C 5.25 38.52, 8.5 10.07, 10 10 S 14.52 38.08, 15 39.5 S 18.5 39.55, 20 39.58 S 23.5 39.65, 25 39.67 S 28.5 39.72, 30 39.72 S 33.5 39.71, 35 39.69 S 38.5 39.6, 40 39.61 S 43.5 39.77, 45 39.78 S 48.5 39.74, 50 39.69 S 53.5 39.49, 55 39.46 S 58.5 39.44, 60 39.48 S 63.5 39.67, 65 39.71 S 68.5 39.73, 70 39.73 S 73.5 39.75, 75 39.72 S 78.5 39.57, 80 39.56 S 83.5 39.66, 85 39.65 S 88.5 39.51, 90 39.5 S 93.5 39.57, 95 39.6 S 98.5 39.68, 100 39.69 S 103.5 39.68, 105 39.69 S 108.5 39.78, 110 39.79 S 113.5 39.8, 115 39.75 S 118.5 39.42, 120 39.43 S 123.5 39.75, 125 39.79 S 128.5 39.72, 130 39.71 S 133.5 39.75, 135 39.75 S 138.5 39.73, 140 39.71 S 143.5 39.61, 145 39.62 S 148.5 39.74, 150 39.75 S 153.5 39.72, 155 39.72 S 158.5 39.73, 160 39.75 S 163.5 39.85, 165 39.85 S 168.5 39.79, 170 39.77 S 173.5 39.69, 175 39.69 S 178.5 39.75, 180 39.76 S 183.5 39.74, 185 39.75 S 188.5 39.81, 190 39.82 S 193.5 39.83, 195 39.84 S 198.5 39.86, 200 39.87 S 203.5 39.88, 205 39.89"
          fill="none"/>
    <circle r="4" cx="5" cy="40" fill="#3023AE"/>
    <circle r="4" cx="205" cy="39.89" fill="#C86DD7"/>      
</svg>