<svg width="200" height="50" viewBox="0 0 210 50" xmlns="http://www.w3.org/2000/svg">
    <defs>
        <linearGradient x1="0%" y1="0%" x2="100%" y2="0%" id="a">
            <stop stop-color="#3023AE" offset="0%"/>
            <stop stop-color="#C86DD7" offset="100%"/>
        </linearGradient>
    </defs>
    <path stroke="url(#a)"
          stroke-width="3"
          stroke-linejoin="round"
          stroke-linecap="round"
          d="M5 40 C 6.5 39.93, 8.5 39.84, 10 39.77 S 13.57 40, 15 39.54 S 18.52 36.83, 20 36.56 S 23.56 37.28, 25 37.71 S 29.49 40.95, 30 39.54 S 33.78 10.87, 35 10 S 39.48 31.03, 40 32.44 S 43.78 36.38, 45 37.25 S 48.5 39.44, 50 39.54 S 53.51 38.11, 55 37.94 S 58.51 38.23, 60 38.4 S 63.51 38.94, 65 39.08 S 68.5 39.28, 70 39.31 S 73.5 39.38, 75 39.31 S 78.5 38.95, 80 38.85 S 83.5 38.6, 85 38.63 S 88.5 39.08, 90 39.08 S 93.5 38.66, 95 38.63 S 98.5 38.82, 100 38.85 S 103.5 38.82, 105 38.85 S 108.51 38.94, 110 39.08 S 113.5 39.77, 115 39.77 S 118.5 39.18, 120 39.08 S 123.5 39.15, 125 39.08 S 128.5 38.66, 130 38.63 S 133.5 38.78, 135 38.85 S 138.5 39.15, 140 39.08 S 143.5 38.37, 145 38.4 S 148.5 39.21, 150 39.31 S 153.5 39.15, 155 39.08 S 158.5 38.78, 160 38.85 S 163.51 39.74, 165 39.54 S 168.5 37.48, 170 37.48 S 173.52 39.27, 175 39.54 S 178.5 39.34, 180 39.31 S 183.5 39.38, 185 39.31 S 188.5 38.92, 190 38.85 S 193.5 38.85, 195 38.85 S 198.5 38.78, 200 38.85 S 203.51 39.17, 205 39.31"
          fill="none"/>
    <circle r="4" cx="5" cy="40" fill="#3023AE"/>
    <circle r="4" cx="205" cy="39.31" fill="#C86DD7"/>      
</svg>