<svg width="200" height="50" viewBox="0 0 210 50" xmlns="http://www.w3.org/2000/svg">
    <defs>
        <linearGradient x1="0%" y1="0%" x2="100%" y2="0%" id="a">
            <stop stop-color="#3023AE" offset="0%"/>
            <stop stop-color="#C86DD7" offset="100%"/>
        </linearGradient>
    </defs>
    <path stroke="url(#a)"
          stroke-width="3"
          stroke-linejoin="round"
          stroke-linecap="round"
          d="M5 40 C 6.49 39.85, 8.5 39.57, 10 39.5 S 13.53 39.79, 15 39.5 S 18.51 37.65, 20 37.5 S 23.52 38.28, 25 38.5 S 28.5 39, 30 39 S 33.51 38.65, 35 38.5 S 38.5 38.07, 40 38 S 43.5 37.93, 45 38 S 48.5 38.5, 50 38.5 S 53.54 38.36, 55 38 S 58.52 36.22, 60 36 S 63.5 36.5, 65 36.5 S 68.5 35.93, 70 36 S 73.52 36.78, 75 37 S 78.5 37.5, 80 37.5 S 83.52 37.22, 85 37 S 88.53 36.29, 90 36 S 93.52 35.22, 95 35 S 98.54 34.14, 100 34.5 S 103.61 36.94, 105 37.5 S 108.51 38.65, 110 38.5 S 113.56 36.93, 115 36.5 S 118.52 35.28, 120 35.5 S 124.29 39.32, 125 38 S 128.51 17.15, 130 17 S 134.29 35.68, 135 37 S 138.5 35.5, 140 35.5 S 143.52 36.78, 145 37 S 148.5 37.07, 150 37 S 153.5 36.5, 155 36.5 S 158.5 37.07, 160 37 S 163.69 36.72, 165 36 S 169.46 32.9, 170 31.5 S 173.52 10.22, 175 10 S 179.41 28.62, 180 30 S 183.5 33.5, 185 33.5 S 188.54 29.64, 190 30 S 193.77 35.14, 195 36 S 198.56 36.57, 200 37 S 203.61 38.44, 205 39"
          fill="none"/>
    <circle r="4" cx="5" cy="40" fill="#3023AE"/>
    <circle r="4" cx="205" cy="39" fill="#C86DD7"/>      
</svg>