<svg width="200" height="50" viewBox="0 0 210 50" xmlns="http://www.w3.org/2000/svg">
    <defs>
        <linearGradient x1="0%" y1="0%" x2="100%" y2="0%" id="a">
            <stop stop-color="#3023AE" offset="0%"/>
            <stop stop-color="#C86DD7" offset="100%"/>
        </linearGradient>
    </defs>
    <path stroke="url(#a)"
          stroke-width="3"
          stroke-linejoin="round"
          stroke-linecap="round"
          d="M5 40 C 6.43 39.55, 8.52 38.65, 10 38.42 S 13.52 38.65, 15 38.42 S 18.78 37.71, 20 36.84 S 23.54 31.67, 25 31.32 S 28.5 34.35, 30 34.47 S 33.64 32.75, 35 32.11 S 38.78 30.61, 40 29.74 S 43.91 26.03, 45 25 S 49.07 21.44, 50 20.26 S 53.52 12.14, 55 12.37 S 58.99 20.73, 60 21.84 S 63.82 22.49, 65 23.42 S 68.52 29.97, 70 29.74 S 73.54 22.19, 75 21.84 S 78.82 26.44, 80 27.37 S 83.69 30.47, 85 29.74 S 89.32 23.18, 90 21.84 S 93.57 10.45, 95 10 S 98.57 18.23, 100 18.68 S 103.57 12.71, 105 13.16 S 109.03 20.69, 110 21.84 S 113.52 24.77, 115 25 S 118.6 23.97, 120 23.42 S 123.82 20.12, 125 21.05 S 128.82 30.39, 130 31.32 S 133.95 30.02, 135 28.95 S 138.52 20.82, 140 21.05 S 143.6 29.98, 145 30.53 S 148.5 24.88, 150 25 S 153.69 32.05, 155 31.32 S 158.64 20.11, 160 19.47 S 163.5 26.7, 165 26.58 S 168.5 18.8, 170 18.68 S 173.99 24.68, 175 25.79 S 178.69 30.47, 180 29.74 S 183.91 21.29, 185 20.26 S 188.91 19.23, 190 20.26 S 193.5 29.74, 195 29.74 S 198.69 20.99, 200 20.26 S 203.82 23.28, 205 24.21"
          fill="none"/>
    <circle r="4" cx="5" cy="40" fill="#3023AE"/>
    <circle r="4" cx="205" cy="24.21" fill="#C86DD7"/>      
</svg>