<svg width="200" height="50" viewBox="0 0 210 50" xmlns="http://www.w3.org/2000/svg">
    <defs>
        <linearGradient x1="0%" y1="0%" x2="100%" y2="0%" id="a">
            <stop stop-color="#3023AE" offset="0%"/>
            <stop stop-color="#C86DD7" offset="100%"/>
        </linearGradient>
    </defs>
    <path stroke="url(#a)"
          stroke-width="3"
          stroke-linejoin="round"
          stroke-linecap="round"
          d="M5 40 C 6.49 39.86, 8.5 39.57, 10 39.52 S 13.5 39.63, 15 39.68 S 18.5 39.82, 20 39.84 S 23.5 39.89, 25 39.84 S 28.5 39.57, 30 39.52 S 33.5 39.57, 35 39.52 S 38.5 39.3, 40 39.2 S 43.5 38.83, 45 38.88 S 48.5 39.4, 50 39.52 S 53.5 39.63, 55 39.68 S 58.5 39.82, 60 39.84 S 63.5 39.86, 65 39.84 S 68.5 39.7, 70 39.68 S 73.64 40.31, 75 39.68 S 78.5 35.08, 80 35.03 S 83.64 38.73, 85 39.36 S 88.5 39.61, 90 39.68 S 93.5 39.86, 95 39.84 S 98.5 39.59, 100 39.52 S 103.5 39.43, 105 39.36 S 108.5 38.99, 110 39.04 S 113.5 39.63, 115 39.68 S 118.5 39.34, 120 39.36 S 123.5 39.89, 125 39.84 S 128.5 39.06, 130 39.04 S 133.5 39.58, 135 39.68 S 138.5 39.8, 140 39.68 S 143.51 39.07, 145 38.88 S 148.5 38.3, 150 38.4 S 153.51 39.33, 155 39.52 S 158.5 39.75, 160 39.68 S 164.19 40.31, 165 39.04 S 168.77 24.83, 170 23.96 S 174.16 30.74, 175 31.98 S 178.74 37.91, 180 38.72 S 183.5 38.42, 185 38.4 S 188.5 38.54, 190 38.56 S 193.51 38.42, 195 38.56 S 199.5 40.94, 200 39.52 S 204.75 11.48, 205 10"
          fill="none"/>
    <circle r="4" cx="5" cy="40" fill="#3023AE"/>
    <circle r="4" cx="205" cy="10" fill="#C86DD7"/>      
</svg>