<svg width="200" height="50" viewBox="0 0 210 50" xmlns="http://www.w3.org/2000/svg">
    <defs>
        <linearGradient x1="0%" y1="0%" x2="100%" y2="0%" id="a">
            <stop stop-color="#3023AE" offset="0%"/>
            <stop stop-color="#C86DD7" offset="100%"/>
        </linearGradient>
    </defs>
    <path stroke="url(#a)"
          stroke-width="3"
          stroke-linejoin="round"
          stroke-linecap="round"
          d="M5 40 C 5.25 38.52, 8.76 10.84, 10 10 S 14.46 31.84, 15 33.24 S 18.52 35.88, 20 36.13 S 23.53 35.21, 25 34.93 S 28.5 34.15, 30 34.25 S 33.51 35.44, 35 35.62 S 38.5 35.31, 40 35.43 S 43.5 36.36, 45 36.42 S 48.5 35.94, 50 35.85 S 53.5 35.77, 55 35.85 S 58.51 36.52, 60 36.37 S 63.5 34.98, 65 34.86 S 68.5 35.44, 70 35.56 S 73.5 35.68, 75 35.65 S 78.51 35.57, 80 35.38 S 83.5 34.34, 85 34.36 S 88.52 35.26, 90 35.5 S 93.5 35.91, 95 35.99 S 98.53 36.34, 100 36.02 S 103.5 33.88, 105 33.84 S 108.53 35.45, 110 35.75 S 113.5 35.94, 115 35.9 S 118.5 35.52, 120 35.48 S 123.51 35.85, 125 35.65 S 128.5 34.1, 130 34.13 S 133.54 35.48, 135 35.82 S 138.5 36.39, 140 36.45 S 143.5 36.28, 145 36.2 S 148.5 35.99, 150 35.92 S 153.5 35.73, 155 35.71 S 158.5 35.69, 160 35.76 S 163.5 36.06, 165 36.16 S 168.5 36.5, 170 36.46 S 173.55 36.29, 175 35.89 S 178.51 33.82, 180 33.69 S 183.53 34.74, 185 35.05 S 188.5 35.84, 190 35.81 S 193.5 34.92, 195 34.84 S 198.5 35.2, 200 35.3 S 203.5 35.45, 205 35.52"
          fill="none"/>
    <circle r="4" cx="5" cy="40" fill="#3023AE"/>
    <circle r="4" cx="205" cy="35.519999999999996" fill="#C86DD7"/>      
</svg>