<svg width="200" height="50" viewBox="0 0 210 50" xmlns="http://www.w3.org/2000/svg">
    <defs>
        <linearGradient x1="0%" y1="0%" x2="100%" y2="0%" id="a">
            <stop stop-color="#3023AE" offset="0%"/>
            <stop stop-color="#C86DD7" offset="100%"/>
        </linearGradient>
    </defs>
    <path stroke="url(#a)"
          stroke-width="3"
          stroke-linejoin="round"
          stroke-linecap="round"
          d="M5 40 C 5.25 38.52, 8.61 10.57, 10 10 S 14.46 34.48, 15 35.88 S 18.86 36.69, 20 35.71 S 23.5 27.2, 25 27.25 S 28.75 35.21, 30 36.05 S 33.75 34.8, 35 33.97 S 38.56 29.87, 40 29.46 S 43.56 30.75, 45 31.16 S 48.51 32.1, 50 32.27 S 53.51 32.12, 55 32.3 S 58.5 33.37, 60 33.48 S 63.53 33.31, 65 33.02 S 68.59 32.03, 70 31.52 S 73.5 29.45, 75 29.44 S 78.54 31.15, 80 31.48 S 83.5 31.59, 85 31.68 S 88.5 32.18, 90 32.08 S 93.51 31.2, 95 31.01 S 98.52 30.55, 100 30.8 S 103.51 32.52, 105 32.71 S 108.5 32.14, 110 32.05 S 113.5 32.01, 115 32.1 S 118.5 32.56, 120 32.66 S 123.5 32.71, 125 32.77 S 128.5 33.19, 130 33.09 S 133.52 32.29, 135 32.08 S 138.5 31.62, 140 31.65 S 143.51 32.42, 145 32.29 S 148.5 30.9, 150 30.8 S 153.51 31.45, 155 31.59 S 158.51 31.56, 160 31.76 S 163.5 32.82, 165 32.91 S 168.5 32.26, 170 32.33 S 173.5 33.43, 175 33.36 S 178.5 31.9, 180 31.89 S 183.53 33.01, 185 33.32 S 188.51 34.14, 190 34 S 193.5 32.5, 195 32.4 S 198.51 33.22, 200 33.35 S 203.5 33.28, 205 33.25"
          fill="none"/>
    <circle r="4" cx="5" cy="40" fill="#3023AE"/>
    <circle r="4" cx="205" cy="33.25" fill="#C86DD7"/>      
</svg>