<svg width="200" height="50" viewBox="0 0 210 50" xmlns="http://www.w3.org/2000/svg">
    <defs>
        <linearGradient x1="0%" y1="0%" x2="100%" y2="0%" id="a">
            <stop stop-color="#3023AE" offset="0%"/>
            <stop stop-color="#C86DD7" offset="100%"/>
        </linearGradient>
    </defs>
    <path stroke="url(#a)"
          stroke-width="3"
          stroke-linejoin="round"
          stroke-linecap="round"
          d="M5 40 C 6.5 39.99, 8.5 39.98, 10 39.98 S 14.35 41.33, 15 39.98 S 18.55 19.64, 20 19.27 S 24.27 36.15, 25 37.46 S 28.5 37.2, 30 37.08 S 33.51 36.83, 35 36.66 S 38.53 36.21, 40 35.93 S 43.5 34.83, 45 34.76 S 48.51 35.26, 50 35.44 S 53.5 35.99, 55 35.99 S 58.5 35.53, 60 35.42 S 63.51 35.11, 65 35.24 S 68.51 36.52, 70 36.31 S 73.52 34.08, 75 33.83 S 78.5 34.6, 80 34.6 S 84.31 35.14, 85 33.81 S 89.22 16.48, 90 15.2 S 93.71 16.58, 95 17.35 S 98.5 21.07, 100 21.19 S 103.7 18.86, 105 18.12 S 108.59 14.97, 110 15.49 S 113.55 21.44, 115 21.84 S 118.75 19.09, 120 18.27 S 123.73 16.06, 125 15.26 S 128.51 11.76, 130 11.97 S 133.53 16.36, 135 16.68 S 138.54 14.47, 140 14.12 S 143.54 13.94, 145 14.29 S 148.58 16.06, 150 16.55 S 153.75 18.58, 155 17.76 S 158.51 9.85, 160 10 S 163.92 17.72, 165 18.76 S 168.54 19.33, 170 19.67 S 173.59 20.55, 175 21.06 S 178.51 23.06, 180 23.25 S 183.5 22.28, 185 22.35 S 188.5 23.81, 190 23.7 S 193.51 21.51, 195 21.64 S 198.59 24.09, 200 24.6 S 203.51 25.07, 205 25.27"
          fill="none"/>
    <circle r="4" cx="5" cy="40" fill="#3023AE"/>
    <circle r="4" cx="205" cy="25.27" fill="#C86DD7"/>      
</svg>