<svg width="200" height="50" viewBox="0 0 210 50" xmlns="http://www.w3.org/2000/svg">
    <defs>
        <linearGradient x1="0%" y1="0%" x2="100%" y2="0%" id="a">
            <stop stop-color="#3023AE" offset="0%"/>
            <stop stop-color="#C86DD7" offset="100%"/>
        </linearGradient>
    </defs>
    <path stroke="url(#a)"
          stroke-width="3"
          stroke-linejoin="round"
          stroke-linecap="round"
          d="M5 40 C 6.5 39.94, 8.5 39.82, 10 39.81 S 14.52 41.37, 15 39.95 S 18.67 10.68, 20 10 S 24.48 33.41, 25 34.82 S 28.56 36.94, 30 37.34 S 33.5 37.54, 35 37.61 S 38.5 37.79, 40 37.82 S 43.7 38.54, 45 37.8 S 48.53 32.46, 50 32.15 S 53.6 35.14, 55 35.69 S 58.5 36.06, 60 36.1 S 63.51 36.08, 65 35.95 S 68.5 35.2, 70 35.24 S 73.5 36.17, 75 36.21 S 78.51 35.67, 80 35.48 S 83.5 34.83, 85 34.94 S 88.51 36.02, 90 36.22 S 93.5 36.27, 95 36.27 S 98.5 36.18, 100 36.2 S 103.5 36.38, 105 36.39 S 108.5 36.28, 110 36.24 S 113.5 36.11, 115 36.11 S 118.5 36.16, 120 36.21 S 123.5 36.37, 125 36.44 S 128.5 36.68, 130 36.69 S 133.51 36.73, 135 36.52 S 138.5 35.36, 140 35.3 S 143.51 35.97, 145 36.11 S 148.5 36.21, 150 36.27 S 153.5 36.55, 155 36.52 S 158.5 36.09, 160 36.06 S 163.5 36.22, 165 36.3 S 168.5 36.57, 170 36.6 S 173.5 36.55, 175 36.49 S 178.5 36.24, 180 36.18 S 183.5 36.03, 185 36.07 S 188.5 36.48, 190 36.46 S 193.5 36.05, 195 35.95 S 198.5 35.8, 200 35.77 S 203.5 35.77, 205 35.77"
          fill="none"/>
    <circle r="4" cx="5" cy="40" fill="#3023AE"/>
    <circle r="4" cx="205" cy="35.769999999999996" fill="#C86DD7"/>      
</svg>