<svg width="200" height="50" viewBox="0 0 210 50" xmlns="http://www.w3.org/2000/svg">
    <defs>
        <linearGradient x1="0%" y1="0%" x2="100%" y2="0%" id="a">
            <stop stop-color="#3023AE" offset="0%"/>
            <stop stop-color="#C86DD7" offset="100%"/>
        </linearGradient>
    </defs>
    <path stroke="url(#a)"
          stroke-width="3"
          stroke-linejoin="round"
          stroke-linecap="round"
          d="M5 40 C 6.5 39.94, 8.5 39.82, 10 39.81 S 14.52 41.37, 15 39.95 S 18.66 10.68, 20 10 S 24.48 33.5, 25 34.91 S 28.55 36.96, 30 37.35 S 33.5 37.53, 35 37.6 S 38.5 37.78, 40 37.81 S 43.69 38.57, 45 37.83 S 48.54 32.47, 50 32.15 S 53.61 35.08, 55 35.63 S 58.5 36.08, 60 36.13 S 63.51 36.09, 65 35.95 S 68.5 35.13, 70 35.17 S 73.5 36.2, 75 36.25 S 78.51 35.67, 80 35.49 S 83.5 34.94, 85 35.04 S 88.51 35.99, 90 36.17 S 93.5 36.25, 95 36.25 S 98.5 36.13, 100 36.17 S 103.5 36.52, 105 36.52 S 108.5 36.24, 110 36.18 S 113.5 36.09, 115 36.09 S 118.5 36.07, 120 36.15 S 123.5 36.57, 125 36.64 S 128.5 36.62, 130 36.6 S 133.51 36.72, 135 36.51 S 138.5 35.26, 140 35.22 S 143.51 36.1, 145 36.25 S 148.5 36.17, 150 36.2 S 153.5 36.48, 155 36.47 S 158.5 36.14, 160 36.13 S 163.5 36.37, 165 36.42 S 168.5 36.48, 170 36.48 S 173.5 36.46, 175 36.43 S 178.5 36.32, 180 36.28 S 183.5 36.18, 185 36.18 S 188.5 36.33, 190 36.31 S 193.5 36.17, 195 36.07 S 198.5 35.64, 200 35.61 S 203.5 35.81, 205 35.89"
          fill="none"/>
    <circle r="4" cx="5" cy="40" fill="#3023AE"/>
    <circle r="4" cx="205" cy="35.89" fill="#C86DD7"/>      
</svg>