<svg width="200" height="50" viewBox="0 0 210 50" xmlns="http://www.w3.org/2000/svg">
    <defs>
        <linearGradient x1="0%" y1="0%" x2="100%" y2="0%" id="a">
            <stop stop-color="#3023AE" offset="0%"/>
            <stop stop-color="#C86DD7" offset="100%"/>
        </linearGradient>
    </defs>
    <path stroke="url(#a)"
          stroke-width="3"
          stroke-linejoin="round"
          stroke-linecap="round"
          d="M5 40 C 6.12 39, 8.5 35.67, 10 35.55 S 13.6 38.7, 15 39.23 S 18.5 39.43, 20 39.36 S 23.58 39.25, 25 38.76 S 28.51 36.08, 30 35.92 S 33.53 37.35, 35 37.66 S 38.51 38.23, 40 38.06 S 43.5 36.59, 45 36.52 S 48.5 37.5, 50 37.62 S 53.52 37.54, 55 37.31 S 58.52 36.29, 60 36.04 S 63.55 36, 65 35.61 S 68.71 34.13, 70 33.36 S 73.53 29.92, 75 29.6 S 78.6 30.64, 80 31.19 S 83.55 33.15, 85 33.52 S 88.5 33.73, 90 33.71 S 93.51 33.56, 95 33.39 S 98.5 32.66, 100 32.56 S 103.5 32.66, 105 32.69 S 108.52 32.97, 110 32.73 S 113.5 31.16, 115 31.05 S 118.52 31.76, 120 32 S 123.5 32.75, 125 32.69 S 128.56 32.04, 130 31.62 S 133.52 30.03, 135 29.81 S 138.53 29.82, 140 30.11 S 143.5 31.71, 145 31.77 S 148.54 30.89, 150 30.53 S 153.51 29.48, 155 29.3 S 158.5 29.33, 160 29.34 S 163.5 29.44, 165 29.38 S 168.54 29.28, 170 28.96 S 173.51 27.33, 175 27.17 S 178.52 27.66, 180 27.88 S 183.5 28.66, 185 28.68 S 188.53 28.33, 190 28.03 S 193.5 26.63, 195 26.61 S 199.23 29.17, 200 27.88 S 204.6 11.44, 205 10"
          fill="none"/>
    <circle r="4" cx="5" cy="40" fill="#3023AE"/>
    <circle r="4" cx="205" cy="10" fill="#C86DD7"/>      
</svg>