<svg width="200" height="50" viewBox="0 0 210 50" xmlns="http://www.w3.org/2000/svg">
    <defs>
        <linearGradient x1="0%" y1="0%" x2="100%" y2="0%" id="a">
            <stop stop-color="#3023AE" offset="0%"/>
            <stop stop-color="#C86DD7" offset="100%"/>
        </linearGradient>
    </defs>
    <path stroke="url(#a)"
          stroke-width="3"
          stroke-linejoin="round"
          stroke-linecap="round"
          d="M5 40 C 6.5 39.93, 9.53 41.19, 10 39.77 S 13.72 10.78, 15 10 S 19.47 32.29, 20 33.69 S 23.57 35.96, 25 36.41 S 28.68 37.59, 30 36.87 S 33.57 31.43, 35 30.98 S 38.57 33.24, 40 33.69 S 43.5 34.14, 45 34.13 S 48.5 33.76, 50 33.65 S 53.5 33.48, 55 33.4 S 58.51 32.97, 60 33.13 S 63.52 34.24, 65 34.46 S 68.5 34.59, 70 34.58 S 73.5 34.38, 75 34.36 S 78.5 34.35, 80 34.42 S 83.5 34.74, 85 34.84 S 88.51 35.31, 90 35.1 S 93.5 33.55, 95 33.45 S 98.51 34.24, 100 34.43 S 103.5 34.75, 105 34.74 S 108.5 34.35, 110 34.39 S 113.5 34.95, 115 35 S 118.5 34.8, 120 34.7 S 123.5 34.34, 125 34.33 S 128.5 34.71, 130 34.62 S 133.5 33.75, 135 33.76 S 138.5 34.66, 140 34.71 S 143.5 34.09, 145 34.12 S 148.51 34.8, 150 34.93 S 153.5 34.97, 155 34.96 S 158.5 34.84, 160 34.89 S 163.5 35.22, 165 35.32 S 168.5 35.65, 170 35.56 S 173.5 34.8, 175 34.75 S 178.5 35.2, 180 35.25 S 183.5 35.06, 185 35.11 S 188.5 35.56, 190 35.61 S 193.5 35.36, 195 35.43 S 198.51 35.93, 200 36.06 S 203.5 36.23, 205 36.3"
          fill="none"/>
    <circle r="4" cx="5" cy="40" fill="#3023AE"/>
    <circle r="4" cx="205" cy="36.3" fill="#C86DD7"/>      
</svg>