<svg width="200" height="50" viewBox="0 0 210 50" xmlns="http://www.w3.org/2000/svg">
    <defs>
        <linearGradient x1="0%" y1="0%" x2="100%" y2="0%" id="a">
            <stop stop-color="#3023AE" offset="0%"/>
            <stop stop-color="#C86DD7" offset="100%"/>
        </linearGradient>
    </defs>
    <path stroke="url(#a)"
          stroke-width="3"
          stroke-linejoin="round"
          stroke-linecap="round"
          d="M5 40 C 5.67 38.66, 8.51 30.12, 10 29.91 S 13.85 37.62, 15 38.58 S 18.51 38.46, 20 38.31 S 23.72 38.33, 25 37.55 S 28.59 32.75, 30 32.25 S 33.59 33.47, 35 33.99 S 38.51 36.11, 40 35.95 S 43.51 33.05, 45 32.93 S 48.51 34.94, 50 35.12 S 53.51 34.27, 55 34.13 S 58.62 34.78, 60 34.19 S 63.63 30.48, 65 29.86 S 68.93 30.74, 70 29.69 S 73.9 21.09, 75 20.07 S 78.56 19.98, 80 20.39 S 83.7 22.2, 85 22.94 S 88.59 25.59, 90 26.1 S 93.5 26.6, 95 26.58 S 98.55 26.34, 100 25.95 S 103.53 24.16, 105 23.86 S 108.5 23.92, 110 23.89 S 113.51 23.82, 115 23.69 S 118.56 23.46, 120 23.03 S 123.52 20.45, 125 20.71 S 128.51 24.61, 130 24.77 S 133.51 21.99, 135 21.78 S 138.74 24.16, 140 23.35 S 143.55 15.76, 145 15.39 S 148.7 20.05, 150 20.79 S 153.55 21.45, 155 21.08 S 158.64 18.9, 160 18.27 S 163.5 16.52, 165 16.49 S 168.5 18.16, 170 18.1 S 173.52 16.31, 175 16.09 S 178.64 17.24, 180 16.62 S 183.57 11.96, 185 11.51 S 188.66 12.78, 190 13.46 S 193.5 16.62, 195 16.61 S 198.75 14.25, 200 13.42 S 203.76 10.85, 205 10"
          fill="none"/>
    <circle r="4" cx="5" cy="40" fill="#3023AE"/>
    <circle r="4" cx="205" cy="10" fill="#C86DD7"/>      
</svg>