<svg width="200" height="50" viewBox="0 0 210 50" xmlns="http://www.w3.org/2000/svg">
    <defs>
        <linearGradient x1="0%" y1="0%" x2="100%" y2="0%" id="a">
            <stop stop-color="#3023AE" offset="0%"/>
            <stop stop-color="#C86DD7" offset="100%"/>
        </linearGradient>
    </defs>
    <path stroke="url(#a)"
          stroke-width="3"
          stroke-linejoin="round"
          stroke-linecap="round"
          d="M5 40 C 5.66 38.65, 8.52 30.04, 10 29.82 S 13.86 37.56, 15 38.53 S 18.51 38.48, 20 38.32 S 23.74 38.27, 25 37.46 S 28.57 32.31, 30 31.85 S 33.61 33.64, 35 34.2 S 38.52 36.14, 40 35.91 S 43.5 32.73, 45 32.62 S 48.51 34.99, 50 35.18 S 53.51 34.07, 55 33.92 S 58.64 34.81, 60 34.18 S 63.62 29.85, 65 29.26 S 68.98 30.96, 70 29.86 S 73.97 19.48, 75 18.39 S 78.7 18.6, 80 19.35 S 83.76 23.32, 85 24.16 S 88.52 25.84, 90 26.11 S 93.5 26.08, 95 25.99 S 98.54 25.83, 100 25.48 S 103.52 23.8, 105 23.58 S 108.5 23.95, 110 24.01 S 113.58 24.45, 115 23.98 S 118.53 21.03, 120 20.72 S 123.57 21.38, 125 21.84 S 128.5 23.95, 130 23.95 S 133.52 22.1, 135 21.87 S 138.78 23.24, 140 22.37 S 143.51 14.9, 145 14.74 S 148.71 20.53, 150 21.29 S 153.63 21.26, 155 20.65 S 158.65 17.45, 160 16.8 S 163.51 15.68, 165 15.86 S 168.51 18.25, 170 18.04 S 173.51 14.62, 175 14.47 S 178.63 17.66, 180 17.05 S 183.56 10.42, 185 10 S 188.63 13.54, 190 14.16 S 193.5 14.67, 195 14.55 S 198.62 13.94, 200 13.35 S 203.72 11.06, 205 10.28"
          fill="none"/>
    <circle r="4" cx="5" cy="40" fill="#3023AE"/>
    <circle r="4" cx="205" cy="10.280000000000001" fill="#C86DD7"/>      
</svg>