<svg width="200" height="50" viewBox="0 0 210 50" xmlns="http://www.w3.org/2000/svg">
    <defs>
        <linearGradient x1="0%" y1="0%" x2="100%" y2="0%" id="a">
            <stop stop-color="#3023AE" offset="0%"/>
            <stop stop-color="#C86DD7" offset="100%"/>
        </linearGradient>
    </defs>
    <path stroke="url(#a)"
          stroke-width="3"
          stroke-linejoin="round"
          stroke-linecap="round"
          d="M5 40 C 6.5 39.94, 8.5 39.82, 10 39.81 S 14.52 41.37, 15 39.95 S 18.64 10.63, 20 10 S 24.48 33.92, 25 35.33 S 28.54 37, 30 37.33 S 33.5 37.53, 35 37.61 S 38.5 37.82, 40 37.85 S 43.7 38.58, 45 37.83 S 48.54 32.43, 50 32.1 S 53.61 34.97, 55 35.54 S 58.5 36.17, 60 36.22 S 63.51 36.02, 65 35.88 S 68.5 35.21, 70 35.27 S 73.5 36.22, 75 36.27 S 78.51 35.82, 80 35.63 S 83.5 34.91, 85 34.99 S 88.51 35.98, 90 36.19 S 93.5 36.42, 95 36.4 S 98.5 36.07, 100 36.08 S 103.5 36.46, 105 36.49 S 108.5 36.35, 110 36.28 S 113.5 36.06, 115 36.05 S 118.5 36.08, 120 36.2 S 123.5 36.76, 125 36.84 S 128.51 36.88, 130 36.76 S 133.51 36.19, 135 36.01 S 138.5 35.49, 140 35.52 S 143.51 36.05, 145 36.18 S 148.5 36.4, 150 36.41 S 153.5 36.26, 155 36.24 S 158.5 36.23, 160 36.26 S 163.5 36.4, 165 36.43 S 168.5 36.47, 170 36.48 S 173.5 36.54, 175 36.49 S 178.5 36.21, 180 36.17 S 183.5 36.22, 185 36.24 S 188.5 36.29, 190 36.28 S 193.51 36.27, 195 36.14 S 198.5 35.44, 200 35.42 S 203.51 35.82, 205 35.99"
          fill="none"/>
    <circle r="4" cx="5" cy="40" fill="#3023AE"/>
    <circle r="4" cx="205" cy="35.99" fill="#C86DD7"/>      
</svg>