<svg width="200" height="50" viewBox="0 0 210 50" xmlns="http://www.w3.org/2000/svg">
    <defs>
        <linearGradient x1="0%" y1="0%" x2="100%" y2="0%" id="a">
            <stop stop-color="#3023AE" offset="0%"/>
            <stop stop-color="#C86DD7" offset="100%"/>
        </linearGradient>
    </defs>
    <path stroke="url(#a)"
          stroke-width="3"
          stroke-linejoin="round"
          stroke-linecap="round"
          d="M5 40 C 5.66 38.65, 8.52 29.97, 10 29.75 S 13.86 37.52, 15 38.5 S 18.51 38.51, 20 38.35 S 23.75 38.24, 25 37.41 S 28.57 32.13, 30 31.68 S 33.62 33.7, 35 34.28 S 38.52 36.14, 40 35.89 S 43.51 32.72, 45 32.59 S 48.51 34.84, 50 35.05 S 53.51 34.11, 55 33.97 S 58.67 34.81, 60 34.13 S 63.62 29.43, 65 28.84 S 68.99 30.99, 70 29.88 S 73.96 18.9, 75 17.82 S 78.71 18.7, 80 19.47 S 83.76 22.93, 85 23.77 S 88.54 25.92, 90 26.26 S 93.51 26.27, 95 26.11 S 98.55 25.54, 100 25.16 S 103.52 23.69, 105 23.47 S 108.51 23.55, 110 23.69 S 113.6 24.92, 115 24.38 S 118.54 20.14, 120 19.81 S 123.61 21.57, 125 22.14 S 128.5 24, 130 23.92 S 133.53 21.86, 135 21.58 S 138.81 22.95, 140 22.04 S 143.5 14.01, 145 13.94 S 148.73 20.78, 150 21.58 S 153.69 21, 155 20.26 S 158.61 16.5, 160 15.94 S 163.52 16, 165 16.23 S 168.52 17.73, 170 17.49 S 173.5 14.69, 175 14.58 S 178.64 17.36, 180 16.74 S 183.56 10.41, 185 10 S 188.6 13.37, 190 13.91 S 193.51 14.07, 195 13.88 S 198.54 13.02, 200 12.66 S 203.54 11.8, 205 11.44"
          fill="none"/>
    <circle r="4" cx="5" cy="40" fill="#3023AE"/>
    <circle r="4" cx="205" cy="11.440000000000001" fill="#C86DD7"/>      
</svg>