<svg width="200" height="50" viewBox="0 0 210 50" xmlns="http://www.w3.org/2000/svg">
    <defs>
        <linearGradient x1="0%" y1="0%" x2="100%" y2="0%" id="a">
            <stop stop-color="#3023AE" offset="0%"/>
            <stop stop-color="#C86DD7" offset="100%"/>
        </linearGradient>
    </defs>
    <path stroke="url(#a)"
          stroke-width="3"
          stroke-linejoin="round"
          stroke-linecap="round"
          d="M5 40 C 5.67 38.66, 8.51 30.22, 10 30.01 S 13.85 37.64, 15 38.6 S 18.51 38.48, 20 38.33 S 23.71 38.34, 25 37.57 S 28.59 32.91, 30 32.4 S 33.59 33.47, 35 33.98 S 38.51 36.14, 40 36 S 43.5 33.13, 45 33.01 S 48.51 35.06, 50 35.23 S 53.51 34.3, 55 34.15 S 58.62 34.81, 60 34.23 S 63.63 30.6, 65 29.99 S 68.91 30.83, 70 29.8 S 73.89 21.52, 75 20.51 S 78.54 20.28, 80 20.63 S 83.69 22.14, 85 22.88 S 88.59 25.77, 90 26.29 S 93.5 26.62, 95 26.61 S 98.55 26.6, 100 26.22 S 103.53 24.32, 105 24 S 108.5 24.04, 110 24.03 S 113.5 24.02, 115 23.93 S 118.58 23.89, 120 23.42 S 123.53 20.33, 125 20.6 S 128.51 25.1, 130 25.27 S 133.52 22.03, 135 21.77 S 138.71 24.26, 140 23.49 S 143.56 16.23, 145 15.82 S 148.71 19.91, 150 20.67 S 153.54 22.04, 155 21.71 S 158.67 19.12, 160 18.43 S 163.5 16.48, 165 16.5 S 168.5 18.56, 170 18.55 S 173.53 16.73, 175 16.44 S 178.62 17.16, 180 16.58 S 183.56 12.64, 185 12.21 S 188.64 12.93, 190 13.57 S 193.5 16.88, 195 16.91 S 198.77 14.65, 200 13.8 S 203.81 10.91, 205 10"
          fill="none"/>
    <circle r="4" cx="5" cy="40" fill="#3023AE"/>
    <circle r="4" cx="205" cy="10" fill="#C86DD7"/>
</svg>