<svg width="200" height="50" viewBox="0 0 210 50" xmlns="http://www.w3.org/2000/svg">
    <defs>
        <linearGradient x1="0%" y1="0%" x2="100%" y2="0%" id="a">
            <stop stop-color="#3023AE" offset="0%"/>
            <stop stop-color="#C86DD7" offset="100%"/>
        </linearGradient>
    </defs>
    <path stroke="url(#a)"
          stroke-width="3"
          stroke-linejoin="round"
          stroke-linecap="round"
          d="M5 40 C 6.5 39.95, 8.5 39.83, 10 39.82 S 14.52 41.37, 15 39.95 S 18.6 10.54, 20 10 S 24.49 34.66, 25 36.07 S 28.52 37.23, 30 37.48 S 33.5 37.69, 35 37.73 S 38.61 38.35, 40 37.78 S 43.55 34.04, 45 33.65 S 48.54 34.71, 50 35.06 S 53.51 35.89, 55 36.04 S 58.51 36.19, 60 36.05 S 63.5 35.06, 65 35.09 S 68.5 36.18, 70 36.22 S 73.51 35.51, 75 35.35 S 78.5 35.08, 80 35.18 S 83.51 35.86, 85 36.03 S 88.5 36.34, 90 36.35 S 93.5 36.09, 95 36.09 S 98.5 36.29, 100 36.33 S 103.5 36.44, 105 36.36 S 108.5 35.8, 110 35.82 S 113.5 36.39, 115 36.5 S 118.5 36.55, 120 36.56 S 123.51 36.77, 125 36.59 S 128.5 35.4, 130 35.33 S 133.51 36, 135 36.13 S 138.5 36.17, 140 36.21 S 143.5 36.39, 145 36.38 S 148.5 36.15, 150 36.15 S 153.5 36.3, 155 36.36 S 158.5 36.53, 160 36.53 S 163.5 36.43, 165 36.37 S 168.5 36.1, 170 36.1 S 173.5 36.39, 175 36.39 S 178.5 36.17, 180 36.09 S 183.5 35.93, 185 35.87 S 188.5 35.63, 190 35.69 S 193.5 36.18, 195 36.24 S 198.5 36.17, 200 36.12 S 203.5 35.97, 205 35.9"
          fill="none"/>
    <circle r="4" cx="5" cy="40" fill="#3023AE"/>
    <circle r="4" cx="205" cy="35.9" fill="#C86DD7"/>      
</svg>