<svg width="200" height="50" viewBox="0 0 210 50" xmlns="http://www.w3.org/2000/svg">
    <defs>
        <linearGradient x1="0%" y1="0%" x2="100%" y2="0%" id="a">
            <stop stop-color="#3023AE" offset="0%"/>
            <stop stop-color="#C86DD7" offset="100%"/>
        </linearGradient>
    </defs>
    <path stroke="url(#a)"
          stroke-width="3"
          stroke-linejoin="round"
          stroke-linecap="round"
          d="M5 40 C 6.5 39.94, 8.5 39.82, 10 39.81 S 14.52 41.37, 15 39.95 S 18.62 10.59, 20 10 S 24.49 34.27, 25 35.68 S 28.53 37.14, 30 37.43 S 33.5 37.63, 35 37.68 S 38.5 37.84, 40 37.76 S 43.7 37.89, 45 37.15 S 48.51 32.24, 50 32.07 S 53.6 35.48, 55 36.02 S 58.5 36.02, 60 35.92 S 63.5 35.32, 65 35.37 S 68.5 36.26, 70 36.28 S 73.51 35.65, 75 35.51 S 78.5 35.35, 80 35.34 S 83.51 35.3, 85 35.47 S 88.5 36.36, 90 36.46 S 93.5 36.13, 95 36.12 S 98.5 36.37, 100 36.39 S 103.5 36.31, 105 36.26 S 108.5 36.04, 110 36.03 S 113.5 36.15, 115 36.21 S 118.5 36.34, 120 36.41 S 123.5 36.67, 125 36.68 S 128.51 36.65, 130 36.46 S 133.5 35.42, 135 35.37 S 138.51 35.99, 140 36.12 S 143.5 36.22, 145 36.27 S 148.5 36.46, 150 36.43 S 153.5 36.05, 155 36.07 S 158.5 36.5, 160 36.55 S 163.5 36.44, 165 36.42 S 168.5 36.48, 170 36.43 S 173.5 36.12, 175 36.11 S 178.5 36.35, 180 36.36 S 183.5 36.21, 185 36.16 S 188.5 36.1, 190 36.01 S 193.5 35.55, 195 35.58 S 198.5 36.09, 200 36.2 S 203.5 36.26, 205 36.29"
          fill="none"/>
    <circle r="4" cx="5" cy="40" fill="#3023AE"/>
    <circle r="4" cx="205" cy="36.29" fill="#C86DD7"/>      
</svg>