<svg width="200" height="50" viewBox="0 0 210 50" xmlns="http://www.w3.org/2000/svg">
    <defs>
        <linearGradient x1="0%" y1="0%" x2="100%" y2="0%" id="a">
            <stop stop-color="#3023AE" offset="0%"/>
            <stop stop-color="#C86DD7" offset="100%"/>
        </linearGradient>
    </defs>
    <path stroke="url(#a)"
          stroke-width="3"
          stroke-linejoin="round"
          stroke-linecap="round"
          d="M5 40 C 6.12 39, 8.5 35.65, 10 35.53 S 13.6 38.67, 15 39.2 S 18.5 39.39, 20 39.31 S 23.6 39.23, 25 38.69 S 28.5 35.58, 30 35.46 S 33.53 37.59, 35 37.9 S 38.51 37.73, 40 37.59 S 43.5 37.02, 45 36.94 S 48.5 37.01, 50 37.06 S 53.53 37.57, 55 37.27 S 58.53 35.29, 60 35 S 63.71 36.09, 65 35.32 S 68.63 29.62, 70 29.01 S 73.59 30.4, 75 30.91 S 78.55 32.22, 80 32.6 S 83.51 33.36, 85 33.55 S 88.52 34.12, 90 33.9 S 93.52 32.31, 95 32.06 S 98.5 32.15, 100 32.2 S 103.51 32.57, 105 32.42 S 108.51 31.34, 110 31.22 S 113.51 31.42, 115 31.6 S 118.5 32.46, 120 32.44 S 123.57 31.89, 125 31.44 S 128.51 29.54, 130 29.33 S 133.53 29.73, 135 30.03 S 138.5 31.38, 140 31.34 S 143.55 30.13, 145 29.75 S 148.5 28.76, 150 28.72 S 153.5 29.54, 155 29.48 S 158.5 28.36, 160 28.29 S 163.53 29.33, 165 29.03 S 168.5 26.37, 170 26.28 S 173.51 28.22, 175 28.41 S 178.52 27.81, 180 27.55 S 183.5 26.6, 185 26.63 S 189.23 29.05, 190 27.76 S 193.5 10.03, 195 10 S 199.29 26.25, 200 27.57 S 203.52 28.2, 205 28.46"
          fill="none"/>
    <circle r="4" cx="5" cy="40" fill="#3023AE"/>
    <circle r="4" cx="205" cy="28.46" fill="#C86DD7"/>      
</svg>