<svg width="200" height="50" viewBox="0 0 210 50" xmlns="http://www.w3.org/2000/svg">
    <defs>
        <linearGradient x1="0%" y1="0%" x2="100%" y2="0%" id="a">
            <stop stop-color="#3023AE" offset="0%"/>
            <stop stop-color="#C86DD7" offset="100%"/>
        </linearGradient>
    </defs>
    <path stroke="url(#a)"
          stroke-width="3"
          stroke-linejoin="round"
          stroke-linecap="round"
          d="M5 40 C 6.5 39.94, 8.5 39.82, 10 39.81 S 14.52 41.37, 15 39.95 S 18.62 10.59, 20 10 S 24.48 34.22, 25 35.63 S 28.53 37.01, 30 37.31 S 33.5 37.58, 35 37.66 S 38.5 37.85, 40 37.87 S 43.71 38.59, 45 37.82 S 48.53 32.23, 50 31.93 S 53.62 35.2, 55 35.79 S 58.5 36.22, 60 36.18 S 63.5 35.58, 65 35.52 S 68.5 35.66, 70 35.75 S 73.5 36.16, 75 36.13 S 78.51 35.72, 80 35.58 S 83.5 35.08, 85 35.17 S 88.51 36.01, 90 36.19 S 93.5 36.36, 95 36.36 S 98.5 36.16, 100 36.18 S 103.5 36.45, 105 36.48 S 108.5 36.44, 110 36.37 S 113.5 35.99, 115 35.98 S 118.5 36.18, 120 36.29 S 123.5 36.6, 125 36.69 S 128.5 37.01, 130 36.9 S 133.51 36.19, 135 35.98 S 138.5 35.47, 140 35.5 S 143.51 35.99, 145 36.16 S 148.5 36.63, 150 36.62 S 153.5 36.12, 155 36.06 S 158.5 36.17, 160 36.25 S 163.5 36.54, 165 36.6 S 168.5 36.68, 170 36.63 S 173.5 36.33, 175 36.26 S 178.5 36.15, 180 36.17 S 183.5 36.39, 185 36.39 S 188.5 36.2, 190 36.14 S 193.5 36.06, 195 35.98 S 198.5 35.58, 200 35.62 S 203.51 36.07, 205 36.26"
          fill="none"/>
    <circle r="4" cx="5" cy="40" fill="#3023AE"/>
    <circle r="4" cx="205" cy="36.26" fill="#C86DD7"/>      
</svg>