<svg width="200" height="50" viewBox="0 0 210 50" xmlns="http://www.w3.org/2000/svg">
    <defs>
        <linearGradient x1="0%" y1="0%" x2="100%" y2="0%" id="a">
            <stop stop-color="#3023AE" offset="0%"/>
            <stop stop-color="#C86DD7" offset="100%"/>
        </linearGradient>
    </defs>
    <path stroke="url(#a)"
          stroke-width="3"
          stroke-linejoin="round"
          stroke-linecap="round"
          d="M5 40 C 5.68 38.66, 8.52 30.32, 10 30.08 S 13.85 37.43, 15 38.4 S 18.51 38.65, 20 38.5 S 23.77 38.29, 25 37.42 S 28.55 31.84, 30 31.44 S 33.64 34.02, 35 34.65 S 38.54 36.37, 40 36.04 S 43.5 32.49, 45 32.37 S 48.52 34.99, 50 35.25 S 53.51 34.35, 55 34.15 S 58.68 34.59, 60 33.89 S 63.6 29.37, 65 28.83 S 69.09 31.2, 70 30.01 S 73.91 16.85, 75 15.82 S 78.87 19.59, 80 20.58 S 83.72 23.82, 85 24.6 S 88.53 26.37, 90 26.68 S 93.55 27.12, 95 26.73 S 98.56 24.42, 100 24 S 103.5 23.85, 105 23.8 S 108.5 23.61, 110 23.68 S 113.6 24.84, 115 24.3 S 118.5 19.86, 120 19.8 S 123.6 23.36, 125 23.89 S 128.53 23.88, 130 23.56 S 133.73 22.52, 135 21.73 S 138.55 17.7, 140 17.32 S 143.63 18.47, 145 19.09 S 148.51 22.01, 150 21.85 S 153.63 18.64, 155 18.03 S 158.51 17.58, 160 17.44 S 163.5 17.19, 165 17.08 S 168.51 16.86, 170 16.69 S 173.65 16.6, 175 15.94 S 178.54 12.1, 180 11.77 S 183.6 13.18, 185 13.72 S 188.5 15.6, 190 15.65 S 193.69 14.79, 195 14.05 S 198.5 9.98, 200 10 S 203.85 13.2, 205 14.16"
          fill="none"/>
    <circle r="4" cx="5" cy="40" fill="#3023AE"/>
    <circle r="4" cx="205" cy="14.16" fill="#C86DD7"/>      
</svg>