<svg width="200" height="50" viewBox="0 0 210 50" xmlns="http://www.w3.org/2000/svg">
    <defs>
        <linearGradient x1="0%" y1="0%" x2="100%" y2="0%" id="a">
            <stop stop-color="#3023AE" offset="0%"/>
            <stop stop-color="#C86DD7" offset="100%"/>
        </linearGradient>
    </defs>
    <path stroke="url(#a)"
          stroke-width="3"
          stroke-linejoin="round"
          stroke-linecap="round"
          d="M5 40 C 6.1 38.98, 8.51 35.49, 10 35.34 S 13.58 38.54, 15 39.02 S 18.58 39.23, 20 38.74 S 23.52 35.78, 25 35.55 S 28.5 37.08, 30 37.17 S 33.5 36.2, 35 36.18 S 38.5 36.99, 40 37.04 S 43.54 36.87, 45 36.52 S 48.54 34.98, 50 34.63 S 53.82 35.06, 55 34.13 S 58.65 27.42, 60 26.77 S 63.68 28.63, 65 29.34 S 68.56 31.7, 70 32.1 S 73.52 32.39, 75 32.14 S 78.52 30.66, 80 30.43 S 83.5 30.53, 85 30.56 S 88.53 30.87, 90 30.6 S 93.5 28.65, 95 28.71 S 98.5 30.88, 100 30.99 S 103.62 30.04, 105 29.46 S 108.5 26.88, 110 26.81 S 113.51 28.76, 115 28.97 S 118.55 28.61, 120 28.23 S 123.51 26.51, 125 26.38 S 128.5 27.37, 130 27.33 S 133.57 26.57, 135 26.13 S 138.5 24.34, 140 24.26 S 143.52 25.35, 145 25.59 S 148.53 26.17, 150 25.87 S 154.2 24.85, 155 23.58 S 158.5 10.02, 160 10 S 164.21 22.17, 165 23.45 S 168.54 25.9, 170 26.24 S 173.51 25.99, 175 25.81 S 178.51 25.19, 180 25 S 183.53 24.23, 185 24.51 S 188.62 26.3, 190 26.88 S 193.52 28.45, 195 28.72 S 198.5 28.66, 200 28.72 S 203.5 29, 205 29.12"
          fill="none"/>
    <circle r="4" cx="5" cy="40" fill="#3023AE"/>
    <circle r="4" cx="205" cy="29.119999999999997" fill="#C86DD7"/>      
</svg>