<svg width="200" height="50" viewBox="0 0 210 50" xmlns="http://www.w3.org/2000/svg">
    <defs>
        <linearGradient x1="0%" y1="0%" x2="100%" y2="0%" id="a">
            <stop stop-color="#3023AE" offset="0%"/>
            <stop stop-color="#C86DD7" offset="100%"/>
        </linearGradient>
    </defs>
    <path stroke="url(#a)"
          stroke-width="3"
          stroke-linejoin="round"
          stroke-linecap="round"
          d="M5 40 C 6.5 39.94, 8.5 39.82, 10 39.81 S 14.52 41.38, 15 39.96 S 18.6 10.54, 20 10 S 24.49 34.72, 25 36.13 S 28.52 37.37, 30 37.59 S 33.5 37.6, 35 37.64 S 38.64 38.53, 40 37.89 S 43.54 33.27, 45 32.93 S 48.57 35.12, 50 35.57 S 53.5 36.03, 55 36.06 S 58.51 35.92, 60 35.79 S 63.5 35.15, 65 35.2 S 68.5 36.04, 70 36.1 S 73.51 35.78, 75 35.62 S 78.5 34.94, 80 35.02 S 83.51 35.95, 85 36.14 S 88.5 36.33, 90 36.32 S 93.5 36.08, 95 36.07 S 98.5 36.27, 100 36.28 S 103.5 36.15, 105 36.12 S 108.5 36.04, 110 36.09 S 113.5 36.36, 115 36.44 S 118.5 36.62, 120 36.6 S 123.51 36.5, 125 36.32 S 128.5 35.43, 130 35.4 S 133.51 35.98, 135 36.13 S 138.5 36.36, 140 36.38 S 143.5 36.31, 145 36.26 S 148.5 36.01, 150 36.04 S 153.5 36.38, 155 36.49 S 158.5 36.86, 160 36.78 S 163.5 36.04, 165 35.94 S 168.5 36.06, 170 36.12 S 173.5 36.35, 175 36.34 S 178.5 36.16, 180 36.05 S 183.5 35.64, 185 35.61 S 188.5 35.71, 190 35.83 S 193.5 36.42, 195 36.41 S 198.5 35.77, 200 35.75 S 203.51 36.12, 205 36.28"
          fill="none"/>
    <circle r="4" cx="5" cy="40" fill="#3023AE"/>
    <circle r="4" cx="205" cy="36.28" fill="#C86DD7"/>      
</svg>