<svg width="200" height="50" viewBox="0 0 210 50" xmlns="http://www.w3.org/2000/svg">
    <defs>
        <linearGradient x1="0%" y1="0%" x2="100%" y2="0%" id="a">
            <stop stop-color="#3023AE" offset="0%"/>
            <stop stop-color="#C86DD7" offset="100%"/>
        </linearGradient>
    </defs>
    <path stroke="url(#a)"
          stroke-width="3"
          stroke-linejoin="round"
          stroke-linecap="round"
          d="M5 40 C 5.66 38.65, 8.52 30.01, 10 29.79 S 13.86 37.58, 15 38.55 S 18.51 38.45, 20 38.29 S 23.74 38.31, 25 37.5 S 28.58 32.4, 30 31.91 S 33.61 33.5, 35 34.06 S 38.51 36.16, 40 35.95 S 43.5 32.78, 45 32.67 S 48.51 35.02, 50 35.21 S 53.51 34.1, 55 33.93 S 58.62 34.68, 60 34.09 S 63.64 30.3, 65 29.67 S 68.97 30.56, 70 29.47 S 73.92 20.12, 75 19.07 S 78.62 19.16, 80 19.74 S 83.75 22.48, 85 23.3 S 88.55 25.94, 90 26.32 S 93.51 26.01, 95 25.89 S 98.53 25.77, 100 25.49 S 103.53 24.25, 105 23.96 S 108.5 23.55, 110 23.53 S 113.53 24.11, 115 23.8 S 118.55 21.76, 120 21.39 S 123.57 20.77, 125 21.24 S 128.5 24.62, 130 24.66 S 133.52 21.74, 135 21.48 S 138.74 23.71, 140 22.9 S 143.54 15.43, 145 15.07 S 148.7 19.64, 150 20.4 S 153.56 21.34, 155 20.9 S 158.66 18.04, 160 17.36 S 163.5 15.76, 165 15.82 S 168.51 17.89, 170 17.76 S 173.51 15.13, 175 14.98 S 178.61 17.33, 180 16.77 S 183.58 11.41, 185 10.94 S 188.63 12.85, 190 13.46 S 193.5 15.42, 195 15.35 S 198.68 13.71, 200 13 S 203.71 10.77, 205 10"
          fill="none"/>
    <circle r="4" cx="5" cy="40" fill="#3023AE"/>
    <circle r="4" cx="205" cy="10" fill="#C86DD7"/>      
</svg>