<svg width="200" height="50" viewBox="0 0 210 50" xmlns="http://www.w3.org/2000/svg">
    <defs>
        <linearGradient x1="0%" y1="0%" x2="100%" y2="0%" id="a">
            <stop stop-color="#3023AE" offset="0%"/>
            <stop stop-color="#C86DD7" offset="100%"/>
        </linearGradient>
    </defs>
    <path stroke="url(#a)"
          stroke-width="3"
          stroke-linejoin="round"
          stroke-linecap="round"
          d="M5 40 C 6.12 39, 8.5 35.64, 10 35.53 S 13.6 38.71, 15 39.25 S 18.5 39.42, 20 39.35 S 23.58 39.28, 25 38.79 S 28.51 36.09, 30 35.92 S 33.54 37.34, 35 37.67 S 38.51 38.35, 40 38.16 S 43.5 36.47, 45 36.4 S 48.51 37.57, 50 37.71 S 53.51 37.54, 55 37.34 S 58.53 36.61, 60 36.34 S 63.51 35.64, 65 35.49 S 68.8 36.25, 70 35.36 S 73.63 28.68, 75 28.07 S 78.68 30.15, 80 30.87 S 83.56 33.12, 85 33.55 S 88.5 33.87, 90 33.88 S 93.51 33.79, 95 33.6 S 98.51 32.77, 100 32.6 S 103.5 32.5, 105 32.49 S 108.5 32.65, 110 32.53 S 113.51 31.84, 115 31.7 S 118.51 31.44, 120 31.6 S 123.5 32.73, 125 32.76 S 128.5 31.93, 130 31.81 S 133.58 32.47, 135 31.98 S 138.5 28.41, 140 28.37 S 143.55 31.29, 145 31.69 S 148.56 31.57, 150 31.15 S 153.52 28.99, 155 28.76 S 158.51 29.45, 160 29.59 S 163.51 29.82, 165 29.68 S 168.51 28.88, 170 28.68 S 173.51 28.53, 175 28.32 S 178.51 27.14, 180 27.27 S 183.5 29.05, 185 29.16 S 188.55 28.37, 190 27.99 S 193.5 26.58, 195 26.57 S 199.22 29.2, 200 27.92 S 204.6 11.44, 205 10"
          fill="none"/>
    <circle r="4" cx="5" cy="40" fill="#3023AE"/>
    <circle r="4" cx="205" cy="10" fill="#C86DD7"/>      
</svg>