<svg width="200" height="50" viewBox="0 0 210 50" xmlns="http://www.w3.org/2000/svg">
    <defs>
        <linearGradient x1="0%" y1="0%" x2="100%" y2="0%" id="a">
            <stop stop-color="#3023AE" offset="0%"/>
            <stop stop-color="#C86DD7" offset="100%"/>
        </linearGradient>
    </defs>
    <path stroke="url(#a)"
          stroke-width="3"
          stroke-linejoin="round"
          stroke-linecap="round"
          d="M5 40 C 6.5 39.94, 8.5 39.82, 10 39.81 S 14.52 41.37, 15 39.95 S 18.65 10.66, 20 10 S 24.48 33.66, 25 35.07 S 28.55 36.96, 30 37.33 S 33.5 37.54, 35 37.61 S 38.5 37.78, 40 37.82 S 43.7 38.59, 45 37.85 S 48.54 32.44, 50 32.11 S 53.61 35.07, 55 35.63 S 58.5 36.04, 60 36.1 S 63.51 36.19, 65 36.04 S 68.5 35.05, 70 35.08 S 73.5 36.17, 75 36.24 S 78.51 35.75, 80 35.58 S 83.5 35.05, 85 35.13 S 88.51 35.93, 90 36.09 S 93.5 36.17, 95 36.2 S 98.5 36.25, 100 36.29 S 103.5 36.49, 105 36.46 S 108.5 36.11, 110 36.07 S 113.5 36.13, 115 36.17 S 118.5 36.26, 120 36.33 S 123.5 36.57, 125 36.61 S 128.5 36.62, 130 36.59 S 133.51 36.56, 135 36.38 S 138.5 35.41, 140 35.37 S 143.51 36, 145 36.13 S 148.5 36.18, 150 36.24 S 153.5 36.55, 155 36.53 S 158.5 36.13, 160 36.11 S 163.5 36.31, 165 36.37 S 168.5 36.52, 170 36.54 S 173.5 36.55, 175 36.49 S 178.5 36.23, 180 36.17 S 183.5 36.05, 185 36.09 S 188.5 36.45, 190 36.44 S 193.51 36.14, 195 36.01 S 198.5 35.6, 200 35.58 S 203.5 35.8, 205 35.89"
          fill="none"/>
    <circle r="4" cx="5" cy="40" fill="#3023AE"/>
    <circle r="4" cx="205" cy="35.89" fill="#C86DD7"/>      
</svg>