<svg width="200" height="50" viewBox="0 0 210 50" xmlns="http://www.w3.org/2000/svg">
    <defs>
        <linearGradient x1="0%" y1="0%" x2="100%" y2="0%" id="a">
            <stop stop-color="#3023AE" offset="0%"/>
            <stop stop-color="#C86DD7" offset="100%"/>
        </linearGradient>
    </defs>
    <path stroke="url(#a)"
          stroke-width="3"
          stroke-linejoin="round"
          stroke-linecap="round"
          d="M5 40 C 6.5 39.93, 9.53 41.19, 10 39.77 S 13.69 10.73, 15 10 S 19.47 32.77, 20 34.17 S 23.55 36.06, 25 36.46 S 28.69 37.66, 30 36.92 S 33.56 31.26, 35 30.83 S 38.56 33.5, 40 33.91 S 43.5 33.6, 45 33.64 S 48.5 34.25, 50 34.21 S 53.51 33.5, 55 33.36 S 58.51 33.1, 60 33.28 S 63.51 34.39, 65 34.58 S 68.5 34.57, 70 34.57 S 73.5 34.62, 75 34.57 S 78.5 34.15, 80 34.21 S 83.5 34.89, 85 35 S 88.51 35.15, 90 34.96 S 93.5 33.79, 95 33.7 S 98.51 34.18, 100 34.33 S 103.5 34.7, 105 34.73 S 108.5 34.47, 110 34.53 S 113.5 35.1, 115 35.1 S 118.5 34.63, 120 34.56 S 123.5 34.66, 125 34.65 S 128.51 34.59, 130 34.46 S 133.5 33.78, 135 33.8 S 138.5 34.53, 140 34.62 S 143.5 34.37, 145 34.43 S 148.5 34.93, 150 34.99 S 153.5 34.83, 155 34.83 S 158.51 34.86, 160 34.99 S 163.5 35.66, 165 35.7 S 168.51 35.41, 170 35.27 S 173.5 34.8, 175 34.79 S 178.5 35.12, 180 35.22 S 183.5 35.47, 185 35.49 S 188.5 35.33, 190 35.37 S 193.51 35.67, 195 35.79 S 198.5 36.08, 200 36.2 S 203.5 36.48, 205 36.6"
          fill="none"/>
    <circle r="4" cx="5" cy="40" fill="#3023AE"/>
    <circle r="4" cx="205" cy="36.6" fill="#C86DD7"/>      
</svg>