<svg width="200" height="50" viewBox="0 0 210 50" xmlns="http://www.w3.org/2000/svg">
    <defs>
        <linearGradient x1="0%" y1="0%" x2="100%" y2="0%" id="a">
            <stop stop-color="#3023AE" offset="0%"/>
            <stop stop-color="#C86DD7" offset="100%"/>
        </linearGradient>
    </defs>
    <path stroke="url(#a)"
          stroke-width="3"
          stroke-linejoin="round"
          stroke-linecap="round"
          d="M5 40 C 6.5 39.94, 8.5 39.82, 10 39.81 S 14.52 41.38, 15 39.96 S 18.58 10.47, 20 10 S 24.49 35.23, 25 36.64 S 28.51 37.35, 30 37.51 S 33.5 37.67, 35 37.7 S 38.69 38.43, 40 37.7 S 43.53 32.41, 45 32.11 S 48.59 35.11, 50 35.63 S 53.5 35.9, 55 35.83 S 58.5 35.14, 60 35.17 S 63.5 36.01, 65 36.04 S 68.51 35.5, 70 35.34 S 73.5 34.86, 75 34.96 S 78.51 35.85, 80 36.04 S 83.5 36.24, 85 36.24 S 88.5 36.02, 90 36.02 S 93.5 36.27, 95 36.26 S 98.5 35.95, 100 35.92 S 103.5 35.98, 105 36.07 S 108.5 36.41, 110 36.5 S 113.51 36.86, 115 36.66 S 118.5 35.28, 120 35.18 S 123.51 35.86, 125 35.99 S 128.5 35.98, 130 36.04 S 133.5 36.37, 135 36.36 S 138.5 35.98, 140 35.98 S 143.5 36.28, 145 36.35 S 148.5 36.47, 150 36.45 S 153.5 36.27, 155 36.2 S 158.5 35.98, 160 35.98 S 163.5 36.24, 165 36.23 S 168.5 36.05, 170 35.93 S 173.5 35.45, 175 35.45 S 178.51 35.76, 180 35.9 S 183.5 36.43, 185 36.39 S 188.5 35.62, 190 35.63 S 193.5 36.37, 195 36.47 S 198.5 36.33, 200 36.31 S 203.5 36.32, 205 36.33"
          fill="none"/>
    <circle r="4" cx="5" cy="40" fill="#3023AE"/>
    <circle r="4" cx="205" cy="36.33" fill="#C86DD7"/>      
</svg>