<svg width="200" height="50" viewBox="0 0 210 50" xmlns="http://www.w3.org/2000/svg">
    <defs>
        <linearGradient x1="0%" y1="0%" x2="100%" y2="0%" id="a">
            <stop stop-color="#3023AE" offset="0%"/>
            <stop stop-color="#C86DD7" offset="100%"/>
        </linearGradient>
    </defs>
    <path stroke="url(#a)"
          stroke-width="3"
          stroke-linejoin="round"
          stroke-linecap="round"
          d="M5 40 C 6.14 39.02, 8.51 35.85, 10 35.72 S 13.57 38.66, 15 39.1 S 18.58 39.29, 20 38.8 S 23.51 35.79, 25 35.61 S 28.51 37.45, 30 37.58 S 33.5 36.58, 35 36.51 S 38.5 37.08, 40 37.13 S 43.54 37.17, 45 36.83 S 48.54 35.09, 50 34.77 S 53.79 35.52, 55 34.63 S 58.63 28.05, 60 27.44 S 63.66 29.47, 65 30.15 S 68.55 32.17, 70 32.54 S 73.51 32.86, 75 32.66 S 78.52 31.44, 80 31.21 S 83.5 31.1, 85 31.08 S 88.51 31.19, 90 31.05 S 93.5 30.15, 95 30.17 S 98.5 31.13, 100 31.16 S 103.6 30.95, 105 30.4 S 108.5 27.24, 110 27.21 S 113.51 30.07, 115 30.23 S 118.55 28.65, 120 28.28 S 123.5 27.76, 125 27.71 S 128.5 28.05, 130 27.96 S 133.56 27.57, 135 27.14 S 138.5 24.94, 140 24.97 S 143.51 27.15, 145 27.31 S 148.52 26.26, 150 26.03 S 154.21 27.04, 155 25.77 S 158.5 9.95, 160 10 S 164.26 24.79, 165 26.1 S 168.51 27.49, 170 27.67 S 173.52 27.61, 175 27.34 S 178.51 26.03, 180 25.83 S 183.56 25.55, 185 25.98 S 188.59 28.35, 190 28.85 S 193.5 29.43, 195 29.52 S 198.51 29.27, 200 29.46 S 203.55 30.4, 205 30.78"
          fill="none"/>
    <circle r="4" cx="5" cy="40" fill="#3023AE"/>
    <circle r="4" cx="205" cy="30.78" fill="#C86DD7"/>      
</svg>