<svg width="200" height="50" viewBox="0 0 210 50" xmlns="http://www.w3.org/2000/svg">
    <defs>
        <linearGradient x1="0%" y1="0%" x2="100%" y2="0%" id="a">
            <stop stop-color="#3023AE" offset="0%"/>
            <stop stop-color="#C86DD7" offset="100%"/>
        </linearGradient>
    </defs>
    <path stroke="url(#a)"
          stroke-width="3"
          stroke-linejoin="round"
          stroke-linecap="round"
          d="M5 40 C 6.5 39.97, 8.5 39.91, 10 39.9 S 13.5 39.94, 15 39.95 S 18.5 39.98, 20 39.98 S 23.5 39.99, 25 39.98 S 28.5 39.93, 30 39.93 S 33.5 39.98, 35 39.98 S 38.5 39.93, 40 39.93 S 44.52 41.37, 45 39.95 S 48.53 10.28, 50 10 S 54.5 36.63, 55 38.04 S 58.5 38.21, 60 38.25 S 63.51 38.16, 65 38.3 S 68.51 39.29, 70 39.16 S 73.51 37.55, 75 37.41 S 78.5 38.37, 80 38.25 S 83.5 36.54, 85 36.6 S 88.53 38.4, 90 38.68 S 93.5 38.59, 95 38.49 S 98.54 38.34, 100 38.01 S 103.5 36.15, 105 36.21 S 108.53 38.11, 110 38.42 S 113.54 38.64, 115 38.3 S 118.51 36.25, 120 36.09 S 123.52 36.93, 125 37.2 S 128.52 37.69, 130 37.92 S 133.5 38.72, 135 38.78 S 138.5 38.31, 140 38.3 S 143.5 38.72, 145 38.68 S 148.51 38.22, 150 38.01 S 153.61 37.86, 155 37.29 S 158.51 34.07, 160 33.94 S 163.51 36.3, 165 36.45 S 168.5 35.03, 170 34.97 S 173.53 36.37, 175 36.07 S 178.82 33.85, 180 32.93 S 183.5 28.32, 185 28.26 S 188.78 31.62, 190 32.5 S 193.59 34.93, 195 35.45 S 198.52 35.97, 200 36.21 S 203.52 36.84, 205 37.1"
          fill="none"/>
    <circle r="4" cx="5" cy="40" fill="#3023AE"/>
    <circle r="4" cx="205" cy="37.1" fill="#C86DD7"/>      
</svg>