<svg width="200" height="50" viewBox="0 0 210 50" xmlns="http://www.w3.org/2000/svg">
    <defs>
        <linearGradient x1="0%" y1="0%" x2="100%" y2="0%" id="a">
            <stop stop-color="#3023AE" offset="0%"/>
            <stop stop-color="#C86DD7" offset="100%"/>
        </linearGradient>
    </defs>
    <path stroke="url(#a)"
          stroke-width="3"
          stroke-linejoin="round"
          stroke-linecap="round"
          d="M5 40 C 5.25 38.52, 8.62 10.59, 10 10 S 14.49 34.33, 15 35.74 S 18.56 37.52, 20 37.93 S 23.5 38.44, 25 38.55 S 28.5 38.66, 30 38.67 S 33.5 38.67, 35 38.65 S 38.5 38.56, 40 38.53 S 43.5 38.53, 45 38.48 S 48.5 38.2, 50 38.21 S 53.5 38.49, 55 38.56 S 58.5 38.64, 60 38.69 S 63.5 38.84, 65 38.88 S 68.5 38.96, 70 38.99 S 73.5 39.1, 75 39.1 S 78.5 39.04, 80 38.96 S 83.5 38.59, 85 38.54 S 88.5 38.6, 90 38.63 S 93.5 38.73, 95 38.74 S 98.5 38.66, 100 38.71 S 103.5 39.03, 105 39.06 S 108.5 38.9, 110 38.9 S 113.5 39.03, 115 39.03 S 118.5 38.96, 120 38.92 S 123.5 38.79, 125 38.75 S 128.55 39.04, 130 38.64 S 133.5 35.99, 135 35.99 S 138.55 38.26, 140 38.64 S 143.5 38.6, 145 38.61 S 148.5 38.66, 150 38.68 S 153.5 38.71, 155 38.72 S 158.5 38.77, 160 38.78 S 163.5 38.74, 165 38.76 S 168.5 38.93, 170 38.94 S 173.5 38.85, 175 38.84 S 178.5 38.96, 180 38.89 S 183.5 38.47, 185 38.38 S 188.5 38.26, 190 38.3 S 193.5 38.58, 195 38.68 S 198.5 38.93, 200 38.94 S 203.5 38.79, 205 38.72"
          fill="none"/>
    <circle r="4" cx="5" cy="40" fill="#3023AE"/>
    <circle r="4" cx="205" cy="38.72" fill="#C86DD7"/>      
</svg>