<svg width="200" height="50" viewBox="0 0 210 50" xmlns="http://www.w3.org/2000/svg">
    <defs>
        <linearGradient x1="0%" y1="0%" x2="100%" y2="0%" id="a">
            <stop stop-color="#3023AE" offset="0%"/>
            <stop stop-color="#C86DD7" offset="100%"/>
        </linearGradient>
    </defs>
    <path stroke="url(#a)"
          stroke-width="3"
          stroke-linejoin="round"
          stroke-linecap="round"
          d="M5 40 C 5.25 38.52, 8.62 10.59, 10 10 S 14.51 34.32, 15 35.74 S 18.6 38.17, 20 38.7 S 23.5 39.42, 25 39.53 S 28.51 39.56, 30 39.43 S 33.5 38.76, 35 38.64 S 38.5 38.53, 40 38.64 S 43.5 39.33, 45 39.38 S 48.5 38.98, 50 38.98 S 53.5 39.32, 55 39.38 S 58.61 39.93, 60 39.36 S 63.7 36, 65 35.25 S 68.58 33.13, 70 33.61 S 73.62 38.06, 75 38.66 S 78.5 37.86, 80 37.94 S 83.51 39, 85 39.17 S 88.5 39.07, 90 39.08 S 93.5 39.24, 95 39.23 S 98.5 39.03, 100 39 S 103.5 39.04, 105 39.04 S 108.5 39.01, 110 38.98 S 113.5 38.9, 115 38.83 S 118.5 38.6, 120 38.51 S 123.5 38.15, 125 38.21 S 128.51 39.12, 130 38.93 S 133.5 36.96, 135 36.93 S 138.54 38.37, 140 38.7 S 143.5 39.19, 145 39.19 S 148.5 38.76, 150 38.68 S 153.5 38.62, 155 38.66 S 158.5 38.92, 160 38.98 S 163.5 39.12, 165 39.09 S 168.53 39.08, 170 38.77 S 173.51 37.17, 175 36.98 S 178.53 37.19, 180 37.47 S 183.52 38.67, 185 38.89 S 188.5 38.94, 190 38.98 S 193.5 39.14, 195 39.13 S 198.5 38.9, 200 38.89 S 203.5 39.01, 205 39.06"
          fill="none"/>
    <circle r="4" cx="5" cy="40" fill="#3023AE"/>
    <circle r="4" cx="205" cy="39.06" fill="#C86DD7"/>      
</svg>