<svg width="200" height="50" viewBox="0 0 210 50" xmlns="http://www.w3.org/2000/svg">
    <defs>
        <linearGradient x1="0%" y1="0%" x2="100%" y2="0%" id="a">
            <stop stop-color="#3023AE" offset="0%"/>
            <stop stop-color="#C86DD7" offset="100%"/>
        </linearGradient>
    </defs>
    <path stroke="url(#a)"
          stroke-width="3"
          stroke-linejoin="round"
          stroke-linecap="round"
          d="M5 40 C 5.39 38.55, 8.63 21.87, 10 21.25 S 13.51 35.65, 15 35.49 S 18.76 21.01, 20 20.16 S 23.9 27.59, 25 28.61 S 28.55 29.03, 30 29.42 S 33.51 31.09, 35 31.27 S 38.5 30.65, 40 30.61 S 43.53 30.68, 45 30.99 S 48.54 32.35, 50 32.7 S 53.51 33.59, 55 33.4 S 58.5 31.48, 60 31.41 S 63.5 32.79, 65 32.91 S 68.58 32.67, 70 32.18 S 73.53 29.76, 75 29.49 S 78.59 29.81, 80 30.33 S 83.55 32.77, 85 33.15 S 88.5 33.03, 90 32.98 S 93.56 33.25, 95 32.84 S 98.68 30.86, 100 30.15 S 103.5 27.58, 105 27.46 S 108.51 29.18, 110 29.35 S 113.5 28.7, 115 28.61 S 119.29 30.04, 120 28.72 S 123.51 10.18, 125 10 S 129.27 26.19, 130 27.5 S 133.53 27.75, 135 28.06 S 138.55 30, 140 29.63 S 143.61 26.1, 145 25.54 S 148.53 25.31, 150 25.61 S 153.52 27.32, 155 27.57 S 158.55 26.91, 160 27.29 S 163.52 30.01, 165 30.22 S 168.51 28.87, 170 28.72 S 173.57 28.79, 175 29.24 S 178.52 31.58, 180 31.83 S 183.58 31.41, 185 30.92 S 188.5 28.32, 190 28.37 S 193.53 30.95, 195 31.23 S 198.52 30.05, 200 30.29 S 203.66 32.16, 205 32.84"
          fill="none"/>
    <circle r="4" cx="5" cy="40" fill="#3023AE"/>
    <circle r="4" cx="205" cy="32.84" fill="#C86DD7"/>      
</svg>