<svg width="200" height="50" viewBox="0 0 210 50" xmlns="http://www.w3.org/2000/svg">
    <defs>
        <linearGradient x1="0%" y1="0%" x2="100%" y2="0%" id="a">
            <stop stop-color="#3023AE" offset="0%"/>
            <stop stop-color="#C86DD7" offset="100%"/>
        </linearGradient>
    </defs>
    <path stroke="url(#a)"
          stroke-width="3"
          stroke-linejoin="round"
          stroke-linecap="round"
          d="M5 40 C 6.46 39.65, 8.5 38.9, 10 38.8 S 13.51 39.18, 15 39.31 S 18.5 39.58, 20 39.66 S 23.5 39.83, 25 39.83 S 28.5 39.66, 30 39.66 S 33.5 39.8, 35 39.83 S 38.5 39.83, 40 39.83 S 43.5 39.83, 45 39.83 S 48.5 39.83, 50 39.83 S 54.52 41.25, 55 39.83 S 58.67 10.69, 60 10 S 64.5 33.28, 65 34.69 S 68.61 37.54, 70 38.11 S 73.51 38.65, 75 38.8 S 78.5 39.24, 80 39.14 S 83.53 38.39, 85 38.11 S 88.5 37.16, 90 37.26 S 93.51 38.95, 95 38.8 S 98.79 37.12, 100 36.23 S 103.51 31.63, 105 31.43 S 108.67 34.17, 110 34.86 S 113.51 36.37, 115 36.57 S 118.54 35.9, 120 36.23 S 123.57 38.36, 125 38.8 S 128.52 39.56, 130 39.31 S 133.56 37.51, 135 37.09 S 138.5 36.35, 140 36.4 S 143.5 37.4, 145 37.43 S 148.5 36.52, 150 36.57 S 153.5 37.72, 155 37.77 S 158.95 37.99, 160 36.91 S 163.56 27.91, 165 27.49 S 168.79 33.11, 170 34 S 173.54 34.51, 175 34.86 S 178.53 36.12, 180 36.4 S 183.5 36.69, 185 36.74 S 188.5 36.66, 190 36.74 S 193.5 37.31, 195 37.26 S 198.51 36.53, 200 36.4 S 203.5 36.4, 205 36.4"
          fill="none"/>
    <circle r="4" cx="5" cy="40" fill="#3023AE"/>
    <circle r="4" cx="205" cy="36.4" fill="#C86DD7"/>      
</svg>