<svg width="200" height="50" viewBox="0 0 210 50" xmlns="http://www.w3.org/2000/svg">
    <defs>
        <linearGradient x1="0%" y1="0%" x2="100%" y2="0%" id="a">
            <stop stop-color="#3023AE" offset="0%"/>
            <stop stop-color="#C86DD7" offset="100%"/>
        </linearGradient>
    </defs>
    <path stroke="url(#a)"
          stroke-width="3"
          stroke-linejoin="round"
          stroke-linecap="round"
          d="M5 40 C 6.45 39.6, 8.5 38.67, 10 38.62 S 13.51 39.5, 15 39.66 S 18.5 39.66, 20 39.66 S 23.5 39.66, 25 39.66 S 28.5 39.66, 30 39.66 S 33.5 39.66, 35 39.66 S 38.5 39.66, 40 39.66 S 43.5 39.66, 45 39.66 S 48.5 39.66, 50 39.66 S 53.5 39.66, 55 39.66 S 58.5 39.66, 60 39.66 S 63.5 39.66, 65 39.66 S 68.5 39.66, 70 39.66 S 73.5 39.66, 75 39.66 S 78.5 39.66, 80 39.66 S 83.5 39.66, 85 39.66 S 88.5 39.66, 90 39.66 S 93.5 39.66, 95 39.66 S 98.5 39.66, 100 39.66 S 103.5 39.66, 105 39.66 S 108.5 39.66, 110 39.66 S 113.5 39.66, 115 39.66 S 118.5 39.66, 120 39.66 S 123.5 39.66, 125 39.66 S 128.5 39.66, 130 39.66 S 133.5 39.66, 135 39.66 S 138.5 39.66, 140 39.66 S 143.5 39.66, 145 39.66 S 149.52 41.08, 150 39.66 S 153.69 10.72, 155 10 S 159.5 32.73, 160 34.14 S 163.67 37.59, 165 38.28 S 168.5 39.36, 170 39.31 S 173.51 38.14, 175 37.93 S 178.54 38.28, 180 37.93 S 183.5 35.52, 185 35.52 S 188.53 37.63, 190 37.93 S 193.67 38.28, 195 37.59 S 199.29 34.08, 200 32.76 S 204.49 20.38, 205 18.97"
          fill="none"/>
    <circle r="4" cx="5" cy="40" fill="#3023AE"/>
    <circle r="4" cx="205" cy="18.97" fill="#C86DD7"/>      
</svg>