<svg width="200" height="50" viewBox="0 0 210 50" xmlns="http://www.w3.org/2000/svg">
    <defs>
        <linearGradient x1="0%" y1="0%" x2="100%" y2="0%" id="a">
            <stop stop-color="#3023AE" offset="0%"/>
            <stop stop-color="#C86DD7" offset="100%"/>
        </linearGradient>
    </defs>
    <path stroke="url(#a)"
          stroke-width="3"
          stroke-linejoin="round"
          stroke-linecap="round"
          d="M5 40 C 6.34 39.33, 8.66 38.17, 10 37.5 S 13.5 35, 15 35 S 18.5 37.5, 20 37.5 S 23.5 35, 25 35 S 28.54 37.14, 30 37.5 S 33.5 37.5, 35 37.5 S 38.54 37.86, 40 37.5 S 43.5 35, 45 35 S 48.66 38.17, 50 37.5 S 54.17 31.25, 55 30 S 58.66 23.17, 60 22.5 S 63.94 23.94, 65 25 S 69.06 33.67, 70 32.5 S 73.5 12.5, 75 12.5 S 79.44 31.11, 80 32.5 S 83.66 38.17, 85 37.5 S 88.8 28.4, 90 27.5 S 93.5 30, 95 30 S 98.54 27.14, 100 27.5 S 103.54 32.86, 105 32.5 S 108.54 24.64, 110 25 S 113.94 36.06, 115 35 S 119.44 16.39, 120 15 S 123.8 9.1, 125 10 S 128.66 21.83, 130 22.5 S 133.8 15.9, 135 15 S 139.39 13.63, 140 15 S 144.06 36.33, 145 37.5 S 149.49 28.91, 150 27.5 S 153.66 10.67, 155 10 S 158.8 21.6, 160 22.5 S 163.54 17.14, 165 17.5 S 168.8 24.1, 170 25 S 173.8 25.9, 175 25 S 178.94 18.56, 180 17.5 S 183.54 15.36, 185 15 S 188.8 14.1, 190 15 S 193.94 21.44, 195 22.5 S 198.54 25.36, 200 25 S 203.94 21.06, 205 20"
          fill="none"/>
    <circle r="4" cx="5" cy="40" fill="#3023AE"/>
    <circle r="4" cx="205" cy="20" fill="#C86DD7"/>      
</svg>