<svg width="200" height="50" viewBox="0 0 210 50" xmlns="http://www.w3.org/2000/svg">
    <defs>
        <linearGradient x1="0%" y1="0%" x2="100%" y2="0%" id="a">
            <stop stop-color="#3023AE" offset="0%"/>
            <stop stop-color="#C86DD7" offset="100%"/>
        </linearGradient>
    </defs>
    <path stroke="url(#a)"
          stroke-width="3"
          stroke-linejoin="round"
          stroke-linecap="round"
          d="M5 40 C 6.49 39.83, 8.5 39.47, 10 39.44 S 13.5 39.81, 15 39.81 S 18.53 39.74, 20 39.44 S 23.59 38.3, 25 37.78 S 29.49 37.15, 30 35.74 S 33.52 10.22, 35 10 S 39.52 32.84, 40 34.26 S 43.64 39, 45 39.63 S 48.5 39, 50 38.89 S 53.5 38.78, 55 38.89 S 58.51 39.49, 60 39.63 S 63.5 39.89, 65 39.81 S 68.5 39.15, 70 39.07 S 73.5 39.18, 75 39.26 S 78.5 39.57, 80 39.63 S 83.5 39.6, 85 39.63 S 88.5 39.81, 90 39.81 S 93.5 39.66, 95 39.63 S 98.5 39.66, 100 39.63 S 103.5 39.52, 105 39.44 S 108.5 39.07, 110 39.07 S 113.5 39.36, 115 39.44 S 118.5 39.71, 120 39.63 S 123.5 38.86, 125 38.89 S 128.51 39.67, 130 39.81 S 133.5 39.89, 135 39.81 S 138.5 39.34, 140 39.26 S 143.5 39.2, 145 39.26 S 148.5 39.6, 150 39.63 S 154.34 40.79, 155 39.44 S 158.51 19.43, 160 19.26 S 164.31 37, 165 38.33 S 168.52 38.48, 170 38.7 S 173.5 39.7, 175 39.81 S 178.51 39.58, 180 39.44 S 183.5 38.97, 185 38.89 S 188.5 38.86, 190 38.89 S 193.5 39.04, 195 39.07 S 198.5 39.07, 200 39.07 S 203.5 39.07, 205 39.07"
          fill="none"/>
    <circle r="4" cx="5" cy="40" fill="#3023AE"/>
    <circle r="4" cx="205" cy="39.07" fill="#C86DD7"/>      
</svg>