<svg width="200" height="50" viewBox="0 0 210 50" xmlns="http://www.w3.org/2000/svg">
    <defs>
        <linearGradient x1="0%" y1="0%" x2="100%" y2="0%" id="a">
            <stop stop-color="#3023AE" offset="0%"/>
            <stop stop-color="#C86DD7" offset="100%"/>
        </linearGradient>
    </defs>
    <path stroke="url(#a)"
          stroke-width="3"
          stroke-linejoin="round"
          stroke-linecap="round"
          d="M5 40 C 6.45 39.6, 9.05 39.77, 10 38.61 S 13.5 27.9, 15 27.85 S 19.02 37.16, 20 38.29 S 23.52 39.12, 25 39.35 S 28.5 39.77, 30 39.84 S 33.5 39.85, 35 39.84 S 38.52 39.98, 40 39.76 S 43.5 38.35, 45 38.37 S 48.52 39.7, 50 39.92 S 53.5 39.84, 55 39.84 S 58.5 39.91, 60 39.92 S 63.5 39.96, 65 39.92 S 68.5 39.68, 70 39.67 S 73.5 39.85, 75 39.84 S 78.5 39.58, 80 39.59 S 83.5 39.91, 85 39.92 S 88.5 39.67, 90 39.67 S 93.5 39.94, 95 39.92 S 98.5 39.51, 100 39.51 S 103.5 39.91, 105 39.92 S 108.5 39.65, 110 39.59 S 113.5 39.46, 115 39.51 S 118.5 39.99, 120 39.92 S 124.52 40.44, 125 39.02 S 128.83 10.94, 130 10 S 134.49 29.62, 135 31.03 S 138.75 36.89, 140 37.72 S 143.6 38.27, 145 37.72 S 148.51 33.67, 150 33.8 S 153.65 37.96, 155 38.61 S 158.56 39.03, 160 38.61 S 163.51 35.86, 165 35.68 S 168.59 36.88, 170 37.39 S 173.51 39.12, 175 39.27 S 178.5 38.36, 180 38.37 S 183.51 39.17, 185 39.35 S 188.5 39.65, 190 39.59 S 193.52 39.16, 195 38.94 S 198.5 38.11, 200 38.13 S 203.53 38.81, 205 39.1"
          fill="none"/>
    <circle r="4" cx="5" cy="40" fill="#3023AE"/>
    <circle r="4" cx="205" cy="39.1" fill="#C86DD7"/>      
</svg>