<svg width="200" height="50" viewBox="0 0 210 50" xmlns="http://www.w3.org/2000/svg">
    <defs>
        <linearGradient x1="0%" y1="0%" x2="100%" y2="0%" id="a">
            <stop stop-color="#3023AE" offset="0%"/>
            <stop stop-color="#C86DD7" offset="100%"/>
        </linearGradient>
    </defs>
    <path stroke="url(#a)"
          stroke-width="3"
          stroke-linejoin="round"
          stroke-linecap="round"
          d="M5 40 C 6.39 39.44, 8.53 38.29, 10 38 S 13.5 38, 15 38 S 18.5 38, 20 38 S 23.5 38, 25 38 S 29.5 39.41, 30 38 S 33.71 10.77, 35 10 S 39.46 30.6, 40 32 S 43.71 35.23, 45 36 S 48.5 38, 50 38 S 53.53 36.29, 55 36 S 58.5 36, 60 36 S 63.53 35.71, 65 36 S 68.53 37.71, 70 38 S 73.5 38, 75 38 S 78.5 38, 80 38 S 83.5 38, 85 38 S 88.5 38, 90 38 S 93.5 38, 95 38 S 98.5 38, 100 38 S 103.5 38, 105 38 S 108.5 38, 110 38 S 113.5 38, 115 38 S 118.5 38, 120 38 S 123.5 38, 125 38"
          fill="none"/>
    <circle r="4" cx="5" cy="40" fill="#3023AE"/>
    <circle r="4" cx="125" cy="38" fill="#C86DD7"/>      
</svg>