<svg width="200" height="50" viewBox="0 0 210 50" xmlns="http://www.w3.org/2000/svg">
    <defs>
        <linearGradient x1="0%" y1="0%" x2="100%" y2="0%" id="a">
            <stop stop-color="#3023AE" offset="0%"/>
            <stop stop-color="#C86DD7" offset="100%"/>
        </linearGradient>
    </defs>
    <path stroke="url(#a)"
          stroke-width="3"
          stroke-linejoin="round"
          stroke-linecap="round"
          d="M5 40 C 6.47 39.73, 8.5 39.1, 10 39.07 S 13.5 39.72, 15 39.82 S 18.5 39.73, 20 39.73 S 23.5 39.81, 25 39.83 S 28.5 39.84, 30 39.84 S 33.5 39.92, 35 39.86 S 38.5 39.48, 40 39.47 S 43.5 39.73, 45 39.78 S 48.5 39.79, 50 39.8 S 53.5 39.83, 55 39.82 S 59.52 41.18, 60 39.76 S 63.73 10.79, 65 10 S 69.49 32.11, 70 33.52 S 73.59 37.14, 75 37.65 S 78.5 37.15, 80 37.1 S 83.5 37.37, 85 37.32 S 88.5 36.85, 90 36.79 S 93.5 36.87, 95 36.91 S 98.52 37.33, 100 37.06 S 103.5 35.19, 105 35.07 S 108.53 36.01, 110 36.29 S 113.51 36.78, 115 36.99 S 118.5 37.67, 120 37.69 S 123.52 37.35, 125 37.12 S 128.6 36.68, 130 36.14 S 133.5 33.21, 135 33.29 S 138.64 36.04, 140 36.66 S 143.51 37.68, 145 37.85 S 148.5 37.74, 150 37.79 S 153.51 38.34, 155 38.21 S 158.5 36.99, 160 36.94 S 163.51 37.7, 165 37.88 S 168.52 38.35, 170 38.13 S 173.51 36.52, 175 36.37 S 178.53 36.83, 180 37.14 S 183.5 38.37, 185 38.46 S 188.5 37.79, 190 37.76 S 193.5 38.13, 195 38.23 S 198.5 38.42, 200 38.44 S 203.5 38.39, 205 38.37"
          fill="none"/>
    <circle r="4" cx="5" cy="40" fill="#3023AE"/>
    <circle r="4" cx="205" cy="38.37" fill="#C86DD7"/>      
</svg>