<svg width="200" height="50" viewBox="0 0 210 50" xmlns="http://www.w3.org/2000/svg">
    <defs>
        <linearGradient x1="0%" y1="0%" x2="100%" y2="0%" id="a">
            <stop stop-color="#3023AE" offset="0%"/>
            <stop stop-color="#C86DD7" offset="100%"/>
        </linearGradient>
    </defs>
    <path stroke="url(#a)"
          stroke-width="3"
          stroke-linejoin="round"
          stroke-linecap="round"
          d="M5 40 C 5.59 38.62, 8.53 28.69, 10 28.41 S 14.09 39.3, 15 38.11 S 19.19 16.61, 20 15.34 S 24.31 21.08, 25 22.41 S 28.92 33.59, 30 34.63 S 33.59 32.61, 35 32.11 S 38.84 32.04, 40 31.09 S 44.24 25.23, 45 23.93 S 48.61 13.41, 50 13.98 S 54.28 26.72, 55 28.03 S 58.51 32.01, 60 32.14 S 63.54 29.27, 65 28.92 S 68.5 29.69, 70 29.74 S 73.5 29.32, 75 29.26 S 78.5 29.37, 80 29.33 S 83.54 28.65, 85 29.01 S 88.54 31.46, 90 31.79 S 93.5 31.27, 95 31.25 S 98.5 31.59, 100 31.66 S 103.51 31.85, 105 31.73 S 109.37 32.2, 110 30.84 S 113.6 10.54, 115 10 S 119.28 25.64, 120 26.96 S 123.58 27.96, 125 28.44 S 128.51 30.18, 130 30.31 S 133.51 29.16, 135 29.33 S 138.56 31.06, 140 31.47 S 143.5 32.13, 145 32.2 S 148.5 31.96, 150 31.95 S 153.5 32.06, 155 32.14 S 158.51 32.33, 160 32.48 S 163.51 33.29, 165 33.15 S 168.51 31.78, 170 31.57 S 173.51 31.59, 175 31.76 S 178.54 32.42, 180 32.74 S 183.74 34.78, 185 33.97 S 188.55 26.7, 190 26.33 S 193.62 30.82, 195 31.41 S 198.51 30.52, 200 30.65 S 203.57 31.8, 205 32.26"
          fill="none"/>
    <circle r="4" cx="5" cy="40" fill="#3023AE"/>
    <circle r="4" cx="205" cy="32.26" fill="#C86DD7"/>      
</svg>