<svg width="200" height="50" viewBox="0 0 210 50" xmlns="http://www.w3.org/2000/svg">
    <defs>
        <linearGradient x1="0%" y1="0%" x2="100%" y2="0%" id="a">
            <stop stop-color="#3023AE" offset="0%"/>
            <stop stop-color="#C86DD7" offset="100%"/>
        </linearGradient>
    </defs>
    <path stroke="url(#a)"
          stroke-width="3"
          stroke-linejoin="round"
          stroke-linecap="round"
          d="M5 40 C 5.25 38.52, 8.54 10.33, 10 10 S 14.44 36.36, 15 37.75 S 18.52 35.11, 20 34.87 S 23.52 35.85, 25 36.11 S 28.51 36.85, 30 36.64 S 33.5 34.76, 35 34.7 S 38.5 36.31, 40 36.23 S 43.51 34.36, 45 34.18 S 48.52 34.74, 50 34.99 S 53.5 35.87, 55 35.84 S 58.5 34.82, 60 34.82 S 63.51 35.66, 65 35.87 S 68.51 36.38, 70 36.24 S 73.56 35.38, 75 34.95 S 78.55 33.61, 80 33.24 S 84.24 33.67, 85 32.38 S 88.5 16.34, 90 16.28 S 94.19 30.73, 95 31.99 S 98.5 31.82, 100 31.75 S 103.51 31.65, 105 31.5 S 108.55 31.13, 110 30.75 S 113.5 28.87, 115 28.9 S 118.51 30.74, 120 30.95 S 123.51 30.46, 125 30.28 S 128.51 29.87, 130 29.74 S 133.58 29.9, 135 29.41 S 138.5 26.31, 140 26.27 S 143.54 28.81, 145 29.14 S 148.5 28.54, 150 28.56 S 153.51 29.43, 155 29.3 S 158.5 27.6, 160 27.68 S 163.51 29.71, 165 29.86 S 168.5 28.7, 170 28.66 S 173.51 29.78, 175 29.61 S 178.52 27.73, 180 27.5 S 183.5 27.94, 185 28.06 S 188.58 28.75, 190 28.28 S 193.51 24.91, 195 24.73 S 198.57 26.62, 200 27.06 S 203.52 27.58, 205 27.8"
          fill="none"/>
    <circle r="4" cx="5" cy="40" fill="#3023AE"/>
    <circle r="4" cx="205" cy="27.8" fill="#C86DD7"/>      
</svg>