<svg width="200" height="50" viewBox="0 0 210 50" xmlns="http://www.w3.org/2000/svg">
    <defs>
        <linearGradient x1="0%" y1="0%" x2="100%" y2="0%" id="a">
            <stop stop-color="#3023AE" offset="0%"/>
            <stop stop-color="#C86DD7" offset="100%"/>
        </linearGradient>
    </defs>
    <path stroke="url(#a)"
          stroke-width="3"
          stroke-linejoin="round"
          stroke-linecap="round"
          d="M5 40 C 6.5 39.88, 8.5 39.61, 10 39.6 S 13.5 39.86, 15 39.9 S 19.52 41.32, 20 39.9 S 23.56 10.42, 25 10 S 29.51 35.55, 30 36.97 S 33.55 38.61, 35 38.99 S 38.5 39.51, 40 39.6 S 43.5 39.56, 45 39.6 S 48.5 39.86, 50 39.9 S 53.5 39.9, 55 39.9 S 58.5 39.93, 60 39.9 S 63.5 39.71, 65 39.7 S 68.5 39.81, 70 39.8 S 73.5 39.59, 75 39.6 S 78.5 39.9, 80 39.9 S 83.5 39.61, 85 39.6 S 88.5 39.76, 90 39.8 S 93.5 39.89, 95 39.9 S 98.5 39.9, 100 39.9 S 103.5 39.9, 105 39.9 S 108.5 39.9, 110 39.9 S 113.5 39.98, 115 39.9 S 118.5 39.39, 120 39.39 S 123.5 39.82, 125 39.9 S 128.5 39.9, 130 39.9 S 133.5 39.9, 135 39.9 S 138.5 39.9, 140 39.9 S 143.5 39.9, 145 39.9 S 148.5 39.9, 150 39.9 S 153.5 39.9, 155 39.9 S 158.5 39.9, 160 39.9 S 163.5 39.9, 165 39.9 S 168.5 39.9, 170 39.9 S 173.5 39.9, 175 39.9 S 178.5 39.9, 180 39.9 S 183.5 39.93, 185 39.9 S 188.5 39.73, 190 39.7 S 193.5 39.75, 195 39.7 S 198.53 39.69, 200 39.39 S 203.58 38.17, 205 37.68"
          fill="none"/>
    <circle r="4" cx="5" cy="40" fill="#3023AE"/>
    <circle r="4" cx="205" cy="37.68" fill="#C86DD7"/>      
</svg>