<svg width="200" height="50" viewBox="0 0 210 50" xmlns="http://www.w3.org/2000/svg">
    <defs>
        <linearGradient x1="0%" y1="0%" x2="100%" y2="0%" id="a">
            <stop stop-color="#3023AE" offset="0%"/>
            <stop stop-color="#C86DD7" offset="100%"/>
        </linearGradient>
    </defs>
    <path stroke="url(#a)"
          stroke-width="3"
          stroke-linejoin="round"
          stroke-linecap="round"
          d="M5 40 C 5.42 38.56, 8.51 23.02, 10 22.86 S 14.21 37.66, 15 38.93 S 18.5 38.93, 20 38.93 S 23.5 38.93, 25 38.93 S 28.5 38.93, 30 38.93 S 33.53 39.24, 35 38.93 S 39.03 37.93, 40 36.79 S 44.48 28.55, 45 27.14 S 48.8 9.1, 50 10 S 54.41 33.26, 55 34.64 S 58.57 34.03, 60 33.57 S 63.57 30.97, 65 31.43 S 68.74 35.98, 70 36.79 S 73.51 38.02, 75 37.86 S 78.51 35.87, 80 35.71 S 83.51 36.95, 85 36.79 S 88.68 35.35, 90 34.64 S 93.5 31.43, 95 31.43 S 98.51 34.48, 100 34.64 S 103.5 32.5, 105 32.5 S 108.5 34.64, 110 34.64 S 113.53 32.18, 115 32.5 S 118.57 37.25, 120 36.79 S 123.68 30, 125 29.29 S 128.51 31.27, 130 31.43 S 133.53 30.67, 135 30.36 S 138.68 30, 140 29.29 S 143.8 25.9, 145 25 S 148.51 21.63, 150 21.79 S 153.74 25.26, 155 26.07 S 158.53 27.9, 160 28.21 S 163.68 27.5, 165 28.21 S 168.68 32.86, 170 33.57 S 173.62 34.16, 175 33.57 S 178.68 28.58, 180 29.29 S 183.68 38.22, 185 38.93 S 188.51 34.8, 190 34.64 S 193.74 38.67, 195 37.86 S 198.57 28.67, 200 28.21 S 204.08 33.46, 205 34.64"
          fill="none"/>
    <circle r="4" cx="5" cy="40" fill="#3023AE"/>
    <circle r="4" cx="205" cy="34.64" fill="#C86DD7"/>      
</svg>