<svg width="200" height="50" viewBox="0 0 210 50" xmlns="http://www.w3.org/2000/svg">
    <defs>
        <linearGradient x1="0%" y1="0%" x2="100%" y2="0%" id="a">
            <stop stop-color="#3023AE" offset="0%"/>
            <stop stop-color="#C86DD7" offset="100%"/>
        </linearGradient>
    </defs>
    <path stroke="url(#a)"
          stroke-width="3"
          stroke-linejoin="round"
          stroke-linecap="round"
          d="M5 40 C 5.56 38.61, 8.5 27.81, 10 27.69 S 13.96 38.15, 15 39.23 S 18.68 38.79, 20 38.08 S 23.77 34.7, 25 33.85 S 28.6 30.61, 30 31.15 S 33.7 36.94, 35 37.69 S 38.83 37.86, 40 36.92 S 43.96 30.7, 45 29.62 S 48.72 25.75, 50 26.54 S 53.74 34.95, 55 35.77 S 58.77 33.93, 60 33.08 S 64.4 30.23, 65 28.85 S 68.77 9.15, 70 10 S 74.44 34.38, 75 35.77 S 78.51 34.79, 80 34.62 S 84.04 35.77, 85 34.62 S 88.5 22.69, 90 22.69 S 94.05 33.46, 95 34.62 S 98.5 34.94, 100 35 S 103.7 35.75, 105 35 S 108.5 29.11, 110 29.23 S 113.68 35.06, 115 35.77 S 118.62 35.2, 120 34.62 S 123.68 32.25, 125 31.54 S 128.66 28.56, 130 29.23 S 133.83 35.6, 135 36.54 S 138.6 37.85, 140 37.31 S 143.92 33.73, 145 32.69 S 148.5 27.57, 150 27.69 S 153.81 32.55, 155 33.46 S 158.53 35.1, 160 35.38 S 163.7 36.13, 165 35.38 S 168.62 30.2, 170 29.62 S 173.62 30.57, 175 31.15 S 178.54 33.51, 180 33.85 S 183.6 34, 185 33.46 S 188.53 30.28, 190 30 S 193.62 30.96, 195 31.54 S 198.55 33.84, 200 34.23 S 203.5 34.23, 205 34.23"
          fill="none"/>
    <circle r="4" cx="5" cy="40" fill="#3023AE"/>
    <circle r="4" cx="205" cy="34.230000000000004" fill="#C86DD7"/>      
</svg>