<svg width="200" height="50" viewBox="0 0 210 50" xmlns="http://www.w3.org/2000/svg">
    <defs>
        <linearGradient x1="0%" y1="0%" x2="100%" y2="0%" id="a">
            <stop stop-color="#3023AE" offset="0%"/>
            <stop stop-color="#C86DD7" offset="100%"/>
        </linearGradient>
    </defs>
    <path stroke="url(#a)"
          stroke-width="3"
          stroke-linejoin="round"
          stroke-linecap="round"
          d="M5 40 C 6.49 39.82, 8.5 39.49, 10 39.4 S 13.5 39.4, 15 39.4 S 18.5 39.4, 20 39.4 S 23.5 39.49, 25 39.4 S 28.5 38.8, 30 38.8 S 33.5 39.31, 35 39.4 S 38.5 39.4, 40 39.4 S 43.5 39.4, 45 39.4 S 48.5 39.4, 50 39.4 S 53.5 39.4, 55 39.4 S 58.5 39.4, 60 39.4 S 63.5 39.4, 65 39.4 S 68.5 39.4, 70 39.4 S 73.5 39.4, 75 39.4 S 78.5 39.4, 80 39.4 S 83.5 39.4, 85 39.4 S 88.5 39.4, 90 39.4 S 93.5 39.4, 95 39.4 S 98.5 39.4, 100 39.4 S 103.5 39.4, 105 39.4 S 108.5 39.4, 110 39.4 S 113.5 39.4, 115 39.4 S 118.5 39.4, 120 39.4 S 123.5 39.4, 125 39.4 S 128.5 39.4, 130 39.4 S 133.5 39.4, 135 39.4 S 139.52 40.82, 140 39.4 S 144.04 11.15, 145 10 S 149.52 25.98, 150 27.4 S 154.04 38.25, 155 39.4 S 158.5 39.4, 160 39.4 S 163.5 39.4, 165 39.4 S 168.5 39.4, 170 39.4 S 173.5 39.4, 175 39.4"
          fill="none"/>
    <circle r="4" cx="5" cy="40" fill="#3023AE"/>
    <circle r="4" cx="175" cy="39.4" fill="#C86DD7"/>      
</svg>