<svg width="200" height="50" viewBox="0 0 210 50" xmlns="http://www.w3.org/2000/svg">
    <defs>
        <linearGradient x1="0%" y1="0%" x2="100%" y2="0%" id="a">
            <stop stop-color="#3023AE" offset="0%"/>
            <stop stop-color="#C86DD7" offset="100%"/>
        </linearGradient>
    </defs>
    <path stroke="url(#a)"
          stroke-width="3"
          stroke-linejoin="round"
          stroke-linecap="round"
          d="M5 40 C 5.25 38.52, 8.68 10.72, 10 10 S 14.46 33.15, 15 34.55 S 18.51 35.74, 20 35.91 S 23.53 35.38, 25 35.68 S 28.57 37.5, 30 37.95 S 33.5 38.86, 35 38.86 S 38.5 37.98, 40 37.95 S 43.52 38.37, 45 38.64 S 48.51 39.6, 50 39.77 S 53.5 39.77, 55 39.77 S 58.5 39.84, 60 39.77 S 63.5 39.35, 65 39.32 S 68.5 39.52, 70 39.55 S 73.51 39.75, 75 39.55 S 78.5 38.18, 80 38.18 S 83.52 39.31, 85 39.55 S 88.5 39.8, 90 39.77 S 93.5 39.35, 95 39.32 S 98.5 39.55, 100 39.55 S 103.5 39.29, 105 39.32 S 108.5 39.7, 110 39.77 S 113.5 39.77, 115 39.77 S 118.5 39.77, 120 39.77 S 123.5 39.77, 125 39.77 S 128.5 39.77, 130 39.77 S 133.5 39.77, 135 39.77 S 138.5 39.77, 140 39.77 S 143.5 39.77, 145 39.77 S 148.5 39.77, 150 39.77 S 153.5 39.8, 155 39.77 S 158.52 39.79, 160 39.55 S 163.5 38.25, 165 38.18 S 168.51 38.89, 170 39.09 S 173.5 39.45, 175 39.55 S 178.5 39.74, 180 39.77 S 183.5 39.77, 185 39.77 S 188.5 39.77, 190 39.77 S 193.5 39.77, 195 39.77"
          fill="none"/>
    <circle r="4" cx="5" cy="40" fill="#3023AE"/>
    <circle r="4" cx="195" cy="39.77" fill="#C86DD7"/>      
</svg>