<svg width="200" height="50" viewBox="0 0 210 50" xmlns="http://www.w3.org/2000/svg">
    <defs>
        <linearGradient x1="0%" y1="0%" x2="100%" y2="0%" id="a">
            <stop stop-color="#3023AE" offset="0%"/>
            <stop stop-color="#C86DD7" offset="100%"/>
        </linearGradient>
    </defs>
    <path stroke="url(#a)"
          stroke-width="3"
          stroke-linejoin="round"
          stroke-linecap="round"
          d="M5 40 C 6.49 39.85, 8.5 39.57, 10 39.5 S 13.5 39.5, 15 39.5 S 18.51 39.65, 20 39.5 S 23.51 38.65, 25 38.5 S 29.5 39.92, 30 38.5 S 33.61 10.56, 35 10 S 39.51 33.08, 40 34.5 S 43.63 38.38, 45 39 S 48.5 39, 50 39 S 53.5 38.93, 55 39 S 58.5 39.43, 60 39.5 S 63.51 39.65, 65 39.5 S 68.52 38.72, 70 38.5 S 73.5 38.07, 75 38 S 78.5 38.07, 80 38 S 83.5 37.57, 85 37.5 S 88.52 37.28, 90 37.5 S 93.5 38.93, 95 39 S 98.5 38, 100 38 S 103.51 38.85, 105 39 S 108.56 39.43, 110 39 S 113.66 36.67, 115 36 S 118.53 33.71, 120 34 S 123.69 37.28, 125 38 S 128.51 39.35, 130 39.5 S 133.63 39.62, 135 39 S 138.52 35.22, 140 35 S 143.61 36.94, 145 37.5 S 148.53 38.71, 150 39 S 153.52 39.72, 155 39.5 S 158.5 37.57, 160 37.5 S 163.52 39.22, 165 39 S 168.51 36.15, 170 36 S 173.51 37.85, 175 38 S 178.5 37, 180 37 S 183.5 38.07, 185 38 S 188.5 36.57, 190 36.5 S 193.53 37.21, 195 37.5 S 198.63 39.12, 200 38.5 S 203.99 34.11, 205 33"
          fill="none"/>
    <circle r="4" cx="5" cy="40" fill="#3023AE"/>
    <circle r="4" cx="205" cy="33" fill="#C86DD7"/>      
</svg>