<svg width="200" height="50" viewBox="0 0 210 50" xmlns="http://www.w3.org/2000/svg">
    <defs>
        <linearGradient x1="0%" y1="0%" x2="100%" y2="0%" id="a">
            <stop stop-color="#3023AE" offset="0%"/>
            <stop stop-color="#C86DD7" offset="100%"/>
        </linearGradient>
    </defs>
    <path stroke="url(#a)"
          stroke-width="3"
          stroke-linejoin="round"
          stroke-linecap="round"
          d="M5 40 C 5.6 38.62, 9.02 29.59, 10 28.46 S 13.54 28.8, 15 28.46 S 18.9 25.13, 20 26.15 S 23.54 37.35, 25 37.69 S 29.29 29.78, 30 28.46 S 34.29 20.55, 35 19.23 S 39.12 8.78, 40 10 S 44.29 31.76, 45 33.08 S 48.54 28.12, 50 28.46 S 53.54 35.04, 55 35.38 S 58.64 31.4, 60 30.77 S 63.5 30.77, 65 30.77 S 68.54 30.43, 70 30.77 S 73.64 33.71, 75 33.08 S 78.5 26.15, 80 26.15 S 83.9 32.06, 85 33.08 S 89.21 36.66, 90 35.38 S 93.54 17.26, 95 16.92 S 98.9 32.06, 100 33.08 S 103.5 26.15, 105 26.15 S 108.5 33.08, 110 33.08 S 114.29 27.47, 115 26.15 S 118.64 13.99, 120 14.62 S 124.4 29.39, 125 30.77 S 128.64 37.06, 130 37.69 S 133.64 36.01, 135 35.38 S 138.5 33.08, 140 33.08 S 143.5 35.38, 145 35.38 S 148.54 32.74, 150 33.08 S 153.54 38.03, 155 37.69 S 158.54 31.11, 160 30.77 S 163.64 34.75, 165 35.38 S 168.54 35.04, 170 35.38 S 173.54 37.35, 175 37.69 S 178.5 37.69, 180 37.69 S 183.5 37.69, 185 37.69 S 188.5 37.69, 190 37.69 S 193.5 37.69, 195 37.69 S 198.5 37.69, 200 37.69"
          fill="none"/>
    <circle r="4" cx="5" cy="40" fill="#3023AE"/>
    <circle r="4" cx="200" cy="37.69" fill="#C86DD7"/>      
</svg>