<svg width="200" height="50" viewBox="0 0 210 50" xmlns="http://www.w3.org/2000/svg">
    <defs>
        <linearGradient x1="0%" y1="0%" x2="100%" y2="0%" id="a">
            <stop stop-color="#3023AE" offset="0%"/>
            <stop stop-color="#C86DD7" offset="100%"/>
        </linearGradient>
    </defs>
    <path stroke="url(#a)"
          stroke-width="3"
          stroke-linejoin="round"
          stroke-linecap="round"
          d="M5 40 C 6.49 39.87, 8.5 39.58, 10 39.57 S 13.5 39.89, 15 39.95 S 18.5 39.95, 20 39.95 S 23.5 39.95, 25 39.95 S 28.5 39.95, 30 39.95 S 33.5 39.95, 35 39.95 S 38.5 39.95, 40 39.95 S 43.5 39.95, 45 39.95 S 48.5 39.95, 50 39.95 S 53.5 39.95, 55 39.95 S 58.5 39.95, 60 39.95 S 63.5 39.95, 65 39.95 S 68.5 39.95, 70 39.95 S 73.5 39.95, 75 39.95 S 78.5 39.95, 80 39.95 S 83.5 39.95, 85 39.95 S 88.5 39.95, 90 39.95 S 93.5 39.95, 95 39.95 S 98.5 39.95, 100 39.95 S 103.5 39.95, 105 39.95 S 108.5 39.95, 110 39.95 S 113.5 39.95, 115 39.95 S 119.52 41.37, 120 39.95 S 123.53 10.28, 125 10 S 129.5 36.64, 130 38.05 S 133.5 38.03, 135 38.05 S 138.5 38.11, 140 38.16 S 143.5 38.44, 145 38.38 S 148.5 37.87, 150 37.78 S 153.5 37.84, 155 37.78 S 158.5 37.38, 160 37.4 S 163.5 37.93, 165 37.89 S 168.5 37.09, 170 37.13 S 173.51 38.02, 175 38.16 S 178.55 38.48, 180 38.1 S 183.51 35.65, 185 35.51 S 188.57 36.74, 190 37.18 S 193.51 38.44, 195 38.59 S 198.5 38.2, 200 38.21 S 203.51 38.52, 205 38.65"
          fill="none"/>
    <circle r="4" cx="5" cy="40" fill="#3023AE"/>
    <circle r="4" cx="205" cy="38.65" fill="#C86DD7"/>      
</svg>