<svg width="200" height="50" viewBox="0 0 210 50" xmlns="http://www.w3.org/2000/svg">
    <defs>
        <linearGradient x1="0%" y1="0%" x2="100%" y2="0%" id="a">
            <stop stop-color="#3023AE" offset="0%"/>
            <stop stop-color="#C86DD7" offset="100%"/>
        </linearGradient>
    </defs>
    <path stroke="url(#a)"
          stroke-width="3"
          stroke-linejoin="round"
          stroke-linecap="round"
          d="M5 40 C 6.47 39.71, 8.51 39.15, 10 39.03 S 13.51 39.31, 15 39.18 S 18.72 38.91, 20 38.13 S 23.84 33.99, 25 33.04 S 28.56 29.55, 30 29.98 S 33.73 35.24, 35 36.03 S 38.5 36.2, 40 36.18 S 43.56 36.3, 45 35.89 S 48.5 33.4, 50 33.34 S 53.51 35.32, 55 35.51 S 58.51 34.73, 60 34.61 S 63.51 34.81, 65 34.69 S 68.55 34.19, 70 33.79 S 73.51 32.12, 75 31.92 S 78.54 32.11, 80 32.44 S 83.52 34.4, 85 34.16 S 88.62 31.39, 90 30.8 S 93.53 29.59, 95 29.9 S 98.5 32.86, 100 32.89 S 103.61 30.69, 105 30.12 S 108.51 28.62, 110 28.78 S 113.51 31.04, 115 31.17 S 118.56 30.11, 120 29.68 S 123.52 28.45, 125 28.18 S 128.51 28.08, 130 27.88 S 133.59 27.35, 135 26.83 S 138.59 24.73, 140 24.21 S 143.5 23.18, 145 23.17 S 148.52 23.91, 150 24.14 S 153.5 24.74, 155 24.74 S 158.55 24.51, 160 24.14 S 163.59 22.7, 165 22.19 S 168.51 20.36, 170 20.55 S 173.97 24.56, 175 23.47 S 178.59 10.5, 180 10 S 183.53 19.65, 185 19.95 S 188.54 11.66, 190 12.02 S 194.09 21.23, 195 22.42 S 198.5 25.15, 200 25.04 S 203.76 22.51, 205 21.67"
          fill="none"/>
    <circle r="4" cx="5" cy="40" fill="#3023AE"/>
    <circle r="4" cx="205" cy="21.67" fill="#C86DD7"/>      
</svg>