<svg width="200" height="50" viewBox="0 0 210 50" xmlns="http://www.w3.org/2000/svg">
    <defs>
        <linearGradient x1="0%" y1="0%" x2="100%" y2="0%" id="a">
            <stop stop-color="#3023AE" offset="0%"/>
            <stop stop-color="#C86DD7" offset="100%"/>
        </linearGradient>
    </defs>
    <path stroke="url(#a)"
          stroke-width="3"
          stroke-linejoin="round"
          stroke-linecap="round"
          d="M5 40 C 6.47 39.7, 8.51 39.12, 10 38.99 S 13.51 39.3, 15 39.15 S 18.79 38.88, 20 37.99 S 23.79 32.69, 25 31.8 S 28.61 30.08, 30 30.64 S 33.67 35.12, 35 35.82 S 38.5 35.91, 40 35.9 S 43.58 36.22, 45 35.75 S 48.5 32.64, 50 32.58 S 53.54 35.02, 55 35.36 S 58.51 35.05, 60 34.9 S 63.52 34.59, 65 34.36 S 68.57 33.79, 70 33.35 S 73.51 31.42, 75 31.26 S 78.57 31.83, 80 32.27 S 83.58 34.83, 85 34.36 S 88.64 29.56, 90 28.94 S 93.64 29.16, 95 29.79 S 98.52 33.84, 100 33.58 S 103.62 28.6, 105 28.02 S 108.55 29.04, 110 29.41 S 113.5 30.54, 115 30.57 S 118.64 30.27, 120 29.64 S 123.51 26.11, 125 25.93 S 128.54 28.76, 130 28.4 S 133.57 23.91, 135 23.45 S 138.5 25.27, 140 25.15 S 143.51 22.84, 145 22.68 S 148.5 24.05, 150 24.07 S 153.5 22.83, 155 22.84 S 158.53 24.45, 160 24.15 S 163.61 21.38, 165 20.82 S 168.5 20.17, 170 20.13 S 173.93 21.58, 175 20.52 S 178.97 11.32, 180 10.23 S 183.91 8.97, 185 10 S 189.14 18.43, 190 19.66 S 193.53 24, 195 24.3 S 198.54 22.04, 200 21.68 S 203.5 21.79, 205 21.83"
          fill="none"/>
    <circle r="4" cx="5" cy="40" fill="#3023AE"/>
    <circle r="4" cx="205" cy="21.83" fill="#C86DD7"/>      
</svg>