<svg width="200" height="50" viewBox="0 0 210 50" xmlns="http://www.w3.org/2000/svg">
    <defs>
        <linearGradient x1="0%" y1="0%" x2="100%" y2="0%" id="a">
            <stop stop-color="#3023AE" offset="0%"/>
            <stop stop-color="#C86DD7" offset="100%"/>
        </linearGradient>
    </defs>
    <path stroke="url(#a)"
          stroke-width="3"
          stroke-linejoin="round"
          stroke-linecap="round"
          d="M5 40 C 6.48 39.79, 8.5 39.31, 10 39.28 S 13.5 39.74, 15 39.82 S 18.51 39.95, 20 39.82 S 23.5 38.92, 25 38.92 S 28.5 39.74, 30 39.82 S 33.5 39.51, 35 39.46 S 38.51 39.6, 40 39.46 S 43.5 38.63, 45 38.55 S 48.5 38.97, 50 38.92 S 53.51 38.38, 55 38.19 S 58.5 37.73, 60 37.65 S 63.5 37.7, 65 37.65 S 68.65 37.95, 70 37.29 S 73.66 33.45, 75 32.77 S 78.51 32.04, 80 32.23 S 83.52 33.8, 85 34.04 S 88.57 34.3, 90 33.86 S 93.56 31.38, 95 30.96 S 98.66 31.64, 100 30.96 S 103.63 26.52, 105 25.9 S 108.62 25.87, 110 26.45 S 113.5 29.98, 115 30.06 S 118.63 27.61, 120 26.99 S 123.55 25.91, 125 25.54 S 128.5 24.51, 130 24.46 S 133.53 25.47, 135 25.18 S 138.84 23.42, 140 22.47 S 143.57 17.51, 145 17.05 S 148.89 18.21, 150 19.22 S 153.86 25.11, 155 26.08 S 158.58 28.2, 160 27.71 S 163.51 22.84, 165 22.65 S 168.51 26.64, 170 26.45 S 173.52 21.12, 175 21.39 S 178.76 27.4, 180 28.25 S 183.54 27.91, 185 28.25 S 188.51 30.46, 190 30.6 S 193.52 29.37, 195 29.16 S 199.31 30.49, 200 29.16 S 204.62 11.45, 205 10"
          fill="none"/>
    <circle r="4" cx="5" cy="40" fill="#3023AE"/>
    <circle r="4" cx="205" cy="10" fill="#C86DD7"/>      
</svg>