<svg width="200" height="50" viewBox="0 0 210 50" xmlns="http://www.w3.org/2000/svg">
    <defs>
        <linearGradient x1="0%" y1="0%" x2="100%" y2="0%" id="a">
            <stop stop-color="#3023AE" offset="0%"/>
            <stop stop-color="#C86DD7" offset="100%"/>
        </linearGradient>
    </defs>
    <path stroke="url(#a)"
          stroke-width="3"
          stroke-linejoin="round"
          stroke-linecap="round"
          d="M5 40 C 5.25 38.52, 8.65 10.66, 10 10 S 14.51 33.68, 15 35.1 S 18.6 38.7, 20 39.25 S 23.77 39.91, 25 39.05 S 28.51 32.46, 30 32.3 S 33.75 37.17, 35 38 S 38.52 38.71, 40 38.95 S 43.5 39.49, 45 39.6 S 48.51 39.83, 50 39.7 S 53.5 38.79, 55 38.7 S 58.5 39.1, 60 39.1 S 63.5 38.69, 65 38.7 S 68.51 39, 70 39.15 S 73.51 39.83, 75 39.7 S 78.5 38.3, 80 38.25 S 83.51 39.16, 85 39.35 S 88.51 39.67, 90 39.5 S 93.52 38.43, 95 38.2 S 98.5 37.91, 100 37.95 S 103.51 38.25, 105 38.45 S 108.51 39.14, 110 39.3 S 113.5 39.58, 115 39.55 S 118.5 39.15, 120 39.1 S 123.5 39.18, 125 39.2 S 128.5 39.22, 130 39.25 S 133.5 39.41, 135 39.4 S 138.5 39.22, 140 39.15 S 143.5 38.79, 145 38.9 S 148.5 39.84, 150 39.9 S 153.5 39.39, 155 39.3 S 158.5 39.34, 160 39.3 S 163.5 39.04, 165 39.05 S 168.5 39.36, 170 39.35 S 173.5 38.96, 175 38.95 S 178.5 39.14, 180 39.25 S 183.5 39.71, 185 39.7 S 188.68 39.91, 190 39.2 S 193.51 34.43, 195 34.3 S 198.62 37.77, 200 38.35 S 203.5 38.46, 205 38.5"
          fill="none"/>
    <circle r="4" cx="5" cy="40" fill="#3023AE"/>
    <circle r="4" cx="205" cy="38.5" fill="#C86DD7"/>      
</svg>