<svg width="200" height="50" viewBox="0 0 210 50" xmlns="http://www.w3.org/2000/svg">
    <defs>
        <linearGradient x1="0%" y1="0%" x2="100%" y2="0%" id="a">
            <stop stop-color="#3023AE" offset="0%"/>
            <stop stop-color="#C86DD7" offset="100%"/>
        </linearGradient>
    </defs>
    <path stroke="url(#a)"
          stroke-width="3"
          stroke-linejoin="round"
          stroke-linecap="round"
          d="M5 40 C 5.25 38.52, 8.85 10.96, 10 10 S 14.48 30.23, 15 31.64 S 18.78 36.39, 20 37.26 S 23.53 38.46, 25 38.75 S 28.5 39.11, 30 39.21 S 33.5 39.38, 35 39.44 S 38.5 39.61, 40 39.62 S 43.5 39.5, 45 39.5 S 48.5 39.57, 50 39.61 S 53.5 39.73, 55 39.77 S 58.5 39.84, 60 39.85 S 63.5 39.86, 65 39.86 S 68.5 39.84, 70 39.84 S 73.5 39.89, 75 39.89 S 78.5 39.87, 80 39.87 S 83.5 39.87, 85 39.87 S 88.5 39.87, 90 39.88 S 93.5 39.91, 95 39.91 S 98.5 39.9, 100 39.9 S 103.5 40, 105 39.93 S 108.5 39.45, 110 39.42 S 113.5 39.66, 115 39.73 S 118.5 39.83, 120 39.86 S 123.5 39.9, 125 39.91 S 128.5 39.95, 130 39.95 S 133.5 39.91, 135 39.9 S 138.5 39.91, 140 39.91 S 143.5 39.93, 145 39.93 S 148.5 39.93, 150 39.93 S 153.5 39.92, 155 39.92 S 158.5 39.91, 160 39.91 S 163.5 39.93, 165 39.93 S 168.5 39.9, 170 39.9 S 173.5 39.96, 175 39.96 S 178.5 39.93, 180 39.93 S 183.5 39.95, 185 39.95 S 188.5 39.96, 190 39.96 S 193.5 39.97, 195 39.97 S 198.5 39.99, 200 39.96 S 203.5 39.83, 205 39.77"
          fill="none"/>
    <circle r="4" cx="5" cy="40" fill="#3023AE"/>
    <circle r="4" cx="205" cy="39.77" fill="#C86DD7"/>      
</svg>