<svg width="200" height="50" viewBox="0 0 210 50" xmlns="http://www.w3.org/2000/svg">
    <defs>
        <linearGradient x1="0%" y1="0%" x2="100%" y2="0%" id="a">
            <stop stop-color="#3023AE" offset="0%"/>
            <stop stop-color="#C86DD7" offset="100%"/>
        </linearGradient>
    </defs>
    <path stroke="url(#a)"
          stroke-width="3"
          stroke-linejoin="round"
          stroke-linecap="round"
          d="M5 40 C 5.47 38.58, 8.56 25.43, 10 25 S 14.04 35.85, 15 37 S 18.5 37, 20 37 S 23.5 37, 25 37 S 28.5 37, 30 37 S 33.5 37, 35 37 S 38.5 37, 40 37 S 43.71 37.77, 45 37 S 48.5 31, 50 31 S 53.56 37.43, 55 37 S 59.48 29.41, 60 28 S 63.71 9.23, 65 10 S 69.17 32.75, 70 34 S 73.56 24.57, 75 25 S 79.04 35.85, 80 37 S 83.5 37, 85 37 S 88.5 37, 90 37 S 93.56 37.43, 95 37 S 98.5 34, 100 34 S 103.56 36.57, 105 37 S 108.5 37, 110 37 S 113.56 37.43, 115 37 S 118.5 34, 120 34 S 123.56 36.57, 125 37 S 128.5 37, 130 37 S 133.5 37, 135 37 S 138.5 37, 140 37 S 143.5 37, 145 37 S 148.5 37, 150 37 S 153.5 37, 155 37 S 158.5 37, 160 37 S 163.5 37, 165 37 S 168.89 38, 170 37 S 173.5 28, 175 28 S 178.89 36, 180 37 S 183.5 37, 185 37 S 188.5 37, 190 37 S 193.71 37.77, 195 37 S 199.36 32.35, 200 31 S 204.53 17.42, 205 16"
          fill="none"/>
    <circle r="4" cx="5" cy="40" fill="#3023AE"/>
    <circle r="4" cx="205" cy="16" fill="#C86DD7"/>      
</svg>