<svg width="200" height="50" viewBox="0 0 210 50" xmlns="http://www.w3.org/2000/svg">
    <defs>
        <linearGradient x1="0%" y1="0%" x2="100%" y2="0%" id="a">
            <stop stop-color="#3023AE" offset="0%"/>
            <stop stop-color="#C86DD7" offset="100%"/>
        </linearGradient>
    </defs>
    <path stroke="url(#a)"
          stroke-width="3"
          stroke-linejoin="round"
          stroke-linecap="round"
          d="M5 40 C 5.58 38.62, 8.71 28.77, 10 28 S 13.71 33.23, 15 34 S 18.5 34, 20 34 S 23.5 34, 25 34 S 28.5 34, 30 34 S 33.71 34.77, 35 34 S 38.5 28, 40 28 S 43.71 33.23, 45 34 S 48.5 34, 50 34 S 53.5 34, 55 34 S 58.5 34, 60 34 S 63.5 34, 65 34 S 68.5 34, 70 34 S 73.5 34, 75 34 S 78.5 34, 80 34 S 83.5 34, 85 34 S 89.42 35.38, 90 34 S 93.5 10, 95 10 S 99.27 32.69, 100 34 S 103.5 28, 105 28 S 108.71 33.23, 110 34 S 113.5 34, 115 34 S 118.5 34, 120 34 S 123.5 34, 125 34 S 128.5 34, 130 34 S 133.5 34, 135 34 S 138.5 34, 140 34 S 143.5 34, 145 34 S 148.5 34, 150 34 S 153.5 34, 155 34 S 158.5 34, 160 34 S 163.5 34, 165 34 S 168.5 34, 170 34 S 173.5 34, 175 34 S 178.5 34, 180 34 S 183.5 34, 185 34 S 188.5 34, 190 34"
          fill="none"/>
    <circle r="4" cx="5" cy="40" fill="#3023AE"/>
    <circle r="4" cx="190" cy="34" fill="#C86DD7"/>      
</svg>