<svg width="200" height="50" viewBox="0 0 210 50" xmlns="http://www.w3.org/2000/svg">
    <defs>
        <linearGradient x1="0%" y1="0%" x2="100%" y2="0%" id="a">
            <stop stop-color="#3023AE" offset="0%"/>
            <stop stop-color="#C86DD7" offset="100%"/>
        </linearGradient>
    </defs>
    <path stroke="url(#a)"
          stroke-width="3"
          stroke-linejoin="round"
          stroke-linecap="round"
          d="M5 40 C 6.14 39.02, 9.08 36.89, 10 35.71 S 13.5 27.14, 15 27.14 S 18.5 35.71, 20 35.71 S 23.5 27.14, 25 27.14 S 28.86 34.73, 30 35.71 S 33.86 36.69, 35 35.71 S 38.86 28.12, 40 27.14 S 43.86 26.16, 45 27.14 S 48.86 34.73, 50 35.71 S 54.46 37.11, 55 35.71 S 58.5 10, 60 10 S 63.86 34.73, 65 35.71 S 68.62 19.16, 70 18.57 S 73.86 30.45, 75 31.43 S 78.62 26.55, 80 27.14 S 83.86 34.73, 85 35.71 S 88.5 35.71, 90 35.71 S 93.5 35.71, 95 35.71 S 98.86 36.69, 100 35.71 S 103.5 27.14, 105 27.14 S 108.86 34.73, 110 35.71 S 113.5 35.71, 115 35.71 S 118.5 35.71, 120 35.71 S 123.62 36.3, 125 35.71 S 128.86 32.41, 130 31.43 S 133.62 26.55, 135 27.14 S 138.86 34.73, 140 35.71 S 143.5 35.71, 145 35.71 S 148.5 35.71, 150 35.71 S 153.5 35.71, 155 35.71 S 158.5 35.71, 160 35.71 S 163.62 36.3, 165 35.71 S 168.5 31.43, 170 31.43 S 173.86 36.69, 175 35.71 S 178.86 23.84, 180 22.86 S 184.08 25.96, 185 27.14 S 188.62 35.12, 190 35.71 S 193.62 32.02, 195 31.43 S 198.5 31.43, 200 31.43"
          fill="none"/>
    <circle r="4" cx="5" cy="40" fill="#3023AE"/>
    <circle r="4" cx="200" cy="31.43" fill="#C86DD7"/>      
</svg>