<svg width="200" height="50" viewBox="0 0 210 50" xmlns="http://www.w3.org/2000/svg">
    <defs>
        <linearGradient x1="0%" y1="0%" x2="100%" y2="0%" id="a">
            <stop stop-color="#3023AE" offset="0%"/>
            <stop stop-color="#C86DD7" offset="100%"/>
        </linearGradient>
    </defs>
    <path stroke="url(#a)"
          stroke-width="3"
          stroke-linejoin="round"
          stroke-linecap="round"
          d="M5 40 C 6.14 39.02, 9.08 36.89, 10 35.71 S 13.5 27.14, 15 27.14 S 18.86 34.73, 20 35.71 S 23.62 36.3, 25 35.71 S 28.62 32.02, 30 31.43 S 33.5 31.43, 35 31.43 S 38.62 32.02, 40 31.43 S 43.62 26.55, 45 27.14 S 48.62 35.12, 50 35.71 S 53.5 31.43, 55 31.43 S 59.37 37.07, 60 35.71 S 63.86 10.98, 65 10 S 69.37 25.78, 70 27.14 S 73.62 30.84, 75 31.43 S 78.62 32.02, 80 31.43 S 83.62 26.55, 85 27.14 S 88.86 34.73, 90 35.71 S 93.5 35.71, 95 35.71 S 98.5 35.71, 100 35.71 S 103.62 36.3, 105 35.71 S 108.62 32.02, 110 31.43 S 113.62 30.84, 115 31.43 S 118.62 35.12, 120 35.71 S 123.5 35.71, 125 35.71 S 128.5 35.71, 130 35.71 S 133.86 36.69, 135 35.71 S 138.62 27.73, 140 27.14 S 143.86 30.45, 145 31.43 S 148.62 35.12, 150 35.71 S 153.5 35.71, 155 35.71 S 158.5 35.71, 160 35.71 S 163.5 35.71, 165 35.71 S 168.5 35.71, 170 35.71 S 173.62 36.3, 175 35.71 S 178.5 31.43, 180 31.43 S 183.86 36.69, 185 35.71 S 188.86 23.84, 190 22.86 S 194.08 25.96, 195 27.14 S 198.86 34.73, 200 35.71 S 203.5 35.71, 205 35.71"
          fill="none"/>
    <circle r="4" cx="5" cy="40" fill="#3023AE"/>
    <circle r="4" cx="205" cy="35.71" fill="#C86DD7"/>      
</svg>