<svg width="200" height="50" viewBox="0 0 210 50" xmlns="http://www.w3.org/2000/svg">
    <defs>
        <linearGradient x1="0%" y1="0%" x2="100%" y2="0%" id="a">
            <stop stop-color="#3023AE" offset="0%"/>
            <stop stop-color="#C86DD7" offset="100%"/>
        </linearGradient>
    </defs>
    <path stroke="url(#a)"
          stroke-width="3"
          stroke-linejoin="round"
          stroke-linecap="round"
          d="M5 40 C 5.91 38.81, 8.51 33.64, 10 33.45 S 13.65 38.07, 15 38.73 S 18.5 38.25, 20 38.36 S 23.51 39.26, 25 39.45 S 28.5 39.58, 30 39.64 S 33.5 39.79, 35 39.82 S 38.5 39.82, 40 39.82 S 43.52 40.04, 45 39.82 S 48.58 38.85, 50 38.36 S 53.5 36.44, 55 36.36 S 58.52 37.6, 60 37.82 S 63.51 37.98, 65 37.82 S 68.5 36.81, 70 36.73 S 73.5 37.3, 75 37.27 S 78.55 36.92, 80 36.55 S 83.5 34.62, 85 34.73 S 88.53 37.56, 90 37.27 S 93.53 33.02, 95 32.73 S 98.52 35, 100 35.27 S 103.56 34.97, 105 34.55 S 108.8 33.26, 110 32.36 S 113.58 27.58, 115 27.09 S 118.55 28.54, 120 28.91 S 123.6 30.18, 125 29.64 S 128.83 26.03, 130 25.09 S 133.78 22.51, 135 21.64 S 138.71 18.77, 140 18 S 143.5 15.72, 145 15.64 S 148.57 16.98, 150 17.45 S 153.78 19.78, 155 18.91 S 158.7 11.11, 160 10.36 S 163.85 12.13, 165 13.09 S 168.51 18.57, 170 18.73 S 173.87 15.17, 175 14.18 S 178.5 9.97, 180 10 S 183.9 13.34, 185 14.36 S 188.63 18.67, 190 19.27 S 193.81 17.82, 195 18.73 S 198.63 26.29, 200 26.91 S 203.79 24.15, 205 23.27"
          fill="none"/>
    <circle r="4" cx="5" cy="40" fill="#3023AE"/>
    <circle r="4" cx="205" cy="23.27" fill="#C86DD7"/>      
</svg>