<svg width="200" height="50" viewBox="0 0 210 50" xmlns="http://www.w3.org/2000/svg">
    <defs>
        <linearGradient x1="0%" y1="0%" x2="100%" y2="0%" id="a">
            <stop stop-color="#3023AE" offset="0%"/>
            <stop stop-color="#C86DD7" offset="100%"/>
        </linearGradient>
    </defs>
    <path stroke="url(#a)"
          stroke-width="3"
          stroke-linejoin="round"
          stroke-linecap="round"
          d="M5 40 C 6.47 39.71, 9.53 40.43, 10 39.01 S 13.51 10.21, 15 10 S 19.51 36.21, 20 37.63 S 23.51 38.8, 25 39.01 S 28.5 39.04, 30 39.01 S 33.59 39.32, 35 38.82 S 38.58 35.94, 40 35.46 S 43.57 35.01, 45 35.46 S 48.57 39.07, 50 38.62 S 53.5 32.33, 55 32.3 S 58.66 37.76, 60 38.42 S 63.52 37.47, 65 37.24 S 68.5 36.72, 70 36.84 S 73.55 37.66, 75 38.03 S 78.5 39.35, 80 39.41 S 83.5 38.42, 85 38.42 S 88.5 39.44, 90 39.41 S 93.51 38.43, 95 38.22 S 98.5 37.97, 100 38.03 S 103.51 38.77, 105 38.62 S 108.5 37.07, 110 37.04 S 113.51 38.27, 115 38.42 S 118.51 38.24, 120 38.03 S 123.5 36.98, 125 37.04 S 128.5 38.3, 130 38.42 S 133.5 37.77, 135 37.83 S 138.5 38.79, 140 38.82 S 143.58 38.51, 145 38.03 S 148.51 35.61, 150 35.46 S 153.59 36.54, 155 37.04 S 158.5 38.98, 160 39.01 S 163.52 37.47, 165 37.24 S 168.5 37.43, 170 37.43 S 173.5 37.18, 175 37.24 S 178.5 37.74, 180 37.83 S 183.53 38.15, 185 37.83 S 189 36.78, 190 35.66 S 193.52 26.35, 195 26.58 S 198.96 36.16, 200 37.24 S 203.5 37.1, 205 37.04"
          fill="none"/>
    <circle r="4" cx="5" cy="40" fill="#3023AE"/>
    <circle r="4" cx="205" cy="37.04" fill="#C86DD7"/>      
</svg>