<svg width="200" height="50" viewBox="0 0 210 50" xmlns="http://www.w3.org/2000/svg">
    <defs>
        <linearGradient x1="0%" y1="0%" x2="100%" y2="0%" id="a">
            <stop stop-color="#3023AE" offset="0%"/>
            <stop stop-color="#C86DD7" offset="100%"/>
        </linearGradient>
    </defs>
    <path stroke="url(#a)"
          stroke-width="3"
          stroke-linejoin="round"
          stroke-linecap="round"
          d="M5 40 C 5.47 38.58, 9.17 26.25, 10 25 S 13.6 25.53, 15 25 S 19 20.13, 20 21.25 S 24.17 35, 25 36.25 S 29.29 37.57, 30 36.25 S 33.5 17.5, 35 17.5 S 39.29 34.93, 40 36.25 S 43.5 36.25, 45 36.25 S 48.5 36.25, 50 36.25 S 53.5 36.25, 55 36.25 S 58.5 36.25, 60 36.25 S 64.29 37.57, 65 36.25 S 68.6 18.03, 70 17.5 S 73.8 31.6, 75 32.5 S 78.6 24.47, 80 25 S 83.8 35.35, 85 36.25 S 88.5 32.5, 90 32.5 S 93.6 35.72, 95 36.25 S 98.6 36.78, 100 36.25 S 104.47 33.9, 105 32.5 S 108.5 10, 110 10 S 114 31.38, 115 32.5 S 118.5 21.25, 120 21.25 S 124.17 31.25, 125 32.5 S 128.5 36.25, 130 36.25 S 133.5 32.5, 135 32.5 S 138.6 35.72, 140 36.25 S 143.5 36.25, 145 36.25 S 148.5 36.25, 150 36.25 S 153.5 36.25, 155 36.25 S 158.5 36.25, 160 36.25 S 163.5 36.25, 165 36.25 S 168.5 36.25, 170 36.25 S 173.5 36.25, 175 36.25 S 178.5 36.25, 180 36.25 S 183.5 36.25, 185 36.25 S 188.5 36.25, 190 36.25 S 193.5 36.25, 195 36.25 S 198.5 36.25, 200 36.25"
          fill="none"/>
    <circle r="4" cx="5" cy="40" fill="#3023AE"/>
    <circle r="4" cx="200" cy="36.25" fill="#C86DD7"/>      
</svg>