<svg width="200" height="50" viewBox="0 0 210 50" xmlns="http://www.w3.org/2000/svg">
    <defs>
        <linearGradient x1="0%" y1="0%" x2="100%" y2="0%" id="a">
            <stop stop-color="#3023AE" offset="0%"/>
            <stop stop-color="#C86DD7" offset="100%"/>
        </linearGradient>
    </defs>
    <path stroke="url(#a)"
          stroke-width="3"
          stroke-linejoin="round"
          stroke-linecap="round"
          d="M5 40 C 6.14 39.02, 8.62 36.3, 10 35.71 S 13.5 35.71, 15 35.71 S 18.5 35.71, 20 35.71 S 23.5 35.71, 25 35.71 S 28.5 35.71, 30 35.71 S 33.5 35.71, 35 35.71 S 38.5 35.71, 40 35.71 S 43.5 35.71, 45 35.71 S 48.5 35.71, 50 35.71 S 54.46 37.11, 55 35.71 S 58.5 10, 60 10 S 64.46 34.31, 65 35.71 S 68.86 36.69, 70 35.71 S 73.5 27.14, 75 27.14 S 78.86 36.69, 80 35.71 S 83.62 19.16, 85 18.57 S 89.24 30.13, 90 31.43 S 94.08 36.89, 95 35.71 S 98.5 18.57, 100 18.57 S 103.62 35.12, 105 35.71 S 108.5 22.86, 110 22.86 S 114.08 34.53, 115 35.71 S 118.5 35.71, 120 35.71 S 123.5 35.71, 125 35.71 S 128.62 36.3, 130 35.71 S 133.5 31.43, 135 31.43 S 138.62 35.12, 140 35.71 S 143.5 35.71, 145 35.71 S 148.5 35.71, 150 35.71 S 153.5 35.71, 155 35.71 S 158.5 35.71, 160 35.71 S 163.5 35.71, 165 35.71 S 168.5 35.71, 170 35.71 S 173.5 35.71, 175 35.71"
          fill="none"/>
    <circle r="4" cx="5" cy="40" fill="#3023AE"/>
    <circle r="4" cx="175" cy="35.71" fill="#C86DD7"/>      
</svg>