<svg width="200" height="50" viewBox="0 0 210 50" xmlns="http://www.w3.org/2000/svg">
    <defs>
        <linearGradient x1="0%" y1="0%" x2="100%" y2="0%" id="a">
            <stop stop-color="#3023AE" offset="0%"/>
            <stop stop-color="#C86DD7" offset="100%"/>
        </linearGradient>
    </defs>
    <path stroke="url(#a)"
          stroke-width="3"
          stroke-linejoin="round"
          stroke-linecap="round"
          d="M5 40 C 6.31 39.27, 8.53 37.47, 10 37.19 S 13.53 38.4, 15 38.12 S 18.64 35.95, 20 35.31 S 23.53 33.16, 25 33.44 S 28.51 37.05, 30 37.19 S 33.53 34.65, 35 34.37 S 38.6 35.84, 40 35.31 S 43.69 31.35, 45 30.62 S 48.5 29.69, 50 29.69 S 53.53 30.9, 55 30.62 S 58.51 27.67, 60 27.81 S 63.51 31.7, 65 31.56 S 68.96 27.95, 70 26.87 S 73.75 22.07, 75 21.25 S 78.69 19.58, 80 20.31 S 84.17 25.62, 85 26.87 S 88.51 35.17, 90 35.31 S 93.8 28.71, 95 27.81 S 98.64 28.45, 100 27.81 S 103.53 23.4, 105 23.12 S 108.6 25.41, 110 25.94 S 113.53 26.59, 115 26.87 S 118.8 28.71, 120 27.81 S 124 20.49, 125 19.37 S 128.5 16.56, 130 16.56 S 133.85 18.4, 135 19.37 S 138.51 25.14, 140 25 S 143.53 18.16, 145 18.44 S 148.53 27.15, 150 26.87 S 153.6 17.09, 155 16.56 S 158.64 22.48, 160 23.12 S 164.09 22.44, 165 21.25 S 168.91 8.97, 170 10 S 173.91 29.59, 175 30.62 S 178.91 20.4, 180 19.37 S 183.75 20.43, 185 21.25 S 188.56 26.35, 190 25.94 S 193.53 18.72, 195 18.44 S 199.05 22.9, 200 24.06 S 204.09 29.43, 205 30.62"
          fill="none"/>
    <circle r="4" cx="5" cy="40" fill="#3023AE"/>
    <circle r="4" cx="205" cy="30.619999999999997" fill="#C86DD7"/>      
</svg>