<svg width="200" height="50" viewBox="0 0 210 50" xmlns="http://www.w3.org/2000/svg">
    <defs>
        <linearGradient x1="0%" y1="0%" x2="100%" y2="0%" id="a">
            <stop stop-color="#3023AE" offset="0%"/>
            <stop stop-color="#C86DD7" offset="100%"/>
        </linearGradient>
    </defs>
    <path stroke="url(#a)"
          stroke-width="3"
          stroke-linejoin="round"
          stroke-linecap="round"
          d="M5 40 C 6.18 39.07, 8.52 36.28, 10 36.05 S 13.51 38.24, 15 38.42 S 18.52 37.47, 20 37.24 S 23.53 36.55, 25 36.84 S 28.51 39.39, 30 39.21 S 33.55 36.06, 35 35.66 S 38.57 36, 40 36.45 S 43.55 39.22, 45 38.82 S 48.53 33.97, 50 33.68 S 53.52 36.61, 55 36.84 S 58.64 35.9, 60 35.26 S 63.5 31.99, 65 32.11 S 68.59 35.55, 70 36.05 S 73.5 35.78, 75 35.66 S 78.57 35.71, 80 35.26 S 84.45 33.89, 85 32.5 S 88.78 10.87, 90 10 S 94.29 24.07, 95 25.39 S 98.71 27.78, 100 28.55 S 103.64 30.68, 105 31.32 S 108.5 33.41, 110 33.29 S 113.62 31.13, 115 30.53 S 118.53 29.24, 120 28.95 S 123.53 28.26, 125 28.55 S 128.59 31.42, 130 30.92 S 133.52 24.77, 135 25 S 138.69 31.77, 140 32.5 S 143.59 31.03, 145 30.53 S 148.57 29.4, 150 28.95 S 153.62 27.97, 155 27.37 S 158.52 24.38, 160 24.61 S 163.69 28.23, 165 28.95 S 168.52 29.9, 170 30.13 S 173.57 30.08, 175 30.53 S 178.51 33.11, 180 33.29 S 183.52 31.94, 185 31.71 S 188.59 32.21, 190 31.71 S 193.5 28.28, 195 28.16 S 198.5 30.98, 200 30.92 S 203.73 28.56, 205 27.76"
          fill="none"/>
    <circle r="4" cx="5" cy="40" fill="#3023AE"/>
    <circle r="4" cx="205" cy="27.759999999999998" fill="#C86DD7"/>      
</svg>