<svg width="200" height="50" viewBox="0 0 210 50" xmlns="http://www.w3.org/2000/svg">
    <defs>
        <linearGradient x1="0%" y1="0%" x2="100%" y2="0%" id="a">
            <stop stop-color="#3023AE" offset="0%"/>
            <stop stop-color="#C86DD7" offset="100%"/>
        </linearGradient>
    </defs>
    <path stroke="url(#a)"
          stroke-width="3"
          stroke-linejoin="round"
          stroke-linecap="round"
          d="M5 40 C 5.25 38.52, 8.56 10.42, 10 10 S 14.5 35.64, 15 37.06 S 18.53 38.25, 20 38.54 S 23.5 38.92, 25 39.02 S 28.5 39.17, 30 39.22 S 33.5 39.29, 35 39.33 S 38.5 39.44, 40 39.49 S 43.5 39.66, 45 39.67 S 48.5 39.59, 50 39.58 S 53.5 39.63, 55 39.6 S 58.5 39.41, 60 39.41 S 63.5 39.68, 65 39.62 S 68.5 39.04, 70 39.02 S 73.5 39.42, 75 39.51 S 78.5 39.62, 80 39.63 S 83.5 39.59, 85 39.61 S 88.5 39.75, 90 39.75 S 93.5 39.66, 95 39.63 S 98.51 39.74, 100 39.57 S 103.52 38.77, 105 38.51 S 108.51 37.95, 110 37.82 S 113.54 37.99, 115 37.65 S 118.52 35.71, 120 35.46 S 123.51 35.82, 125 35.95 S 128.51 36.16, 130 36.33 S 133.51 36.92, 135 37.11 S 138.51 37.81, 140 37.63 S 143.5 35.9, 145 35.89 S 148.51 37.36, 150 37.56 S 153.69 37.95, 155 37.21 S 158.57 32.34, 160 31.9 S 163.61 33.58, 165 34.14 S 168.52 35.69, 170 35.92 S 173.51 35.51, 175 35.67 S 178.53 37.24, 180 36.97 S 183.52 34.07, 185 33.82 S 188.56 34.86, 190 35.29 S 193.51 36.62, 195 36.81 S 198.5 36.54, 200 36.56 S 203.5 36.83, 205 36.94"
          fill="none"/>
    <circle r="4" cx="5" cy="40" fill="#3023AE"/>
    <circle r="4" cx="205" cy="36.94" fill="#C86DD7"/>      
</svg>