<svg width="200" height="50" viewBox="0 0 210 50" xmlns="http://www.w3.org/2000/svg">
    <defs>
        <linearGradient x1="0%" y1="0%" x2="100%" y2="0%" id="a">
            <stop stop-color="#3023AE" offset="0%"/>
            <stop stop-color="#C86DD7" offset="100%"/>
        </linearGradient>
    </defs>
    <path stroke="url(#a)"
          stroke-width="3"
          stroke-linejoin="round"
          stroke-linecap="round"
          d="M5 40 C 6.5 39.89, 8.5 39.67, 10 39.64 S 13.5 39.9, 15 39.82 S 18.5 39.21, 20 39.1 S 23.5 39.07, 25 39.1 S 28.5 39.25, 30 39.28 S 33.5 39.28, 35 39.28 S 38.5 39.25, 40 39.28 S 43.5 39.57, 45 39.46 S 48.5 38.55, 50 38.55 S 53.5 39.4, 55 39.46 S 58.5 39.03, 60 38.92 S 63.5 38.76, 65 38.73 S 68.51 38.89, 70 38.73 S 74.23 38.94, 75 37.65 S 78.5 21.9, 80 21.93 S 84.23 36.54, 85 37.83 S 88.5 38.52, 90 38.55 S 93.5 38.12, 95 38.01 S 98.5 37.88, 100 37.83 S 104.49 39.06, 105 37.65 S 108.7 10.75, 110 10 S 114.49 30.46, 115 31.87 S 118.76 36.98, 120 37.83 S 123.5 38.65, 125 38.73 S 128.54 38.71, 130 38.37 S 133.51 36.55, 135 36.39 S 138.51 37.16, 140 37.29 S 143.5 37.29, 145 37.29 S 148.51 37.48, 150 37.29 S 153.5 36.07, 155 36.02 S 158.51 36.79, 160 36.93 S 163.51 36.8, 165 36.93 S 168.51 37.67, 170 37.83 S 173.6 38.54, 175 38.01 S 178.53 34.33, 180 34.04 S 183.58 35.53, 185 36.02 S 188.51 37.28, 190 37.47 S 193.75 38.12, 195 37.29 S 198.66 31.46, 200 30.78 S 203.56 31.81, 205 32.23"
          fill="none"/>
    <circle r="4" cx="5" cy="40" fill="#3023AE"/>
    <circle r="4" cx="205" cy="32.230000000000004" fill="#C86DD7"/>      
</svg>