<svg width="200" height="50" viewBox="0 0 210 50" xmlns="http://www.w3.org/2000/svg">
    <defs>
        <linearGradient x1="0%" y1="0%" x2="100%" y2="0%" id="a">
            <stop stop-color="#3023AE" offset="0%"/>
            <stop stop-color="#C86DD7" offset="100%"/>
        </linearGradient>
    </defs>
    <path stroke="url(#a)"
          stroke-width="3"
          stroke-linejoin="round"
          stroke-linecap="round"
          d="M5 40 C 5.55 38.6, 8.53 27.53, 10 27.22 S 13.62 37.33, 15 37.91 S 18.58 31.87, 20 31.39 S 23.8 33.61, 25 34.52 S 28.6 38.41, 30 38.96 S 33.5 38.43, 35 38.43 S 38.51 38.8, 40 38.96 S 43.5 39.36, 45 39.48 S 48.5 39.7, 50 39.74 S 53.5 39.74, 55 39.74 S 58.5 39.74, 60 39.74 S 63.5 39.74, 65 39.74 S 68.5 39.74, 70 39.74 S 73.5 39.74, 75 39.74 S 78.5 39.78, 80 39.74 S 83.66 40.15, 85 39.48 S 88.64 35.42, 90 34.78 S 93.63 34.17, 95 34.78 S 98.63 38.61, 100 39.22 S 103.5 39.22, 105 39.22 S 108.5 39.22, 110 39.22 S 113.5 39.18, 115 39.22 S 118.5 39.52, 120 39.48 S 123.5 38.96, 125 38.96 S 128.5 39.44, 130 39.48 S 133.51 39.41, 135 39.22 S 138.5 38.21, 140 38.17 S 144.5 40.37, 145 38.96 S 148.6 10.55, 150 10 S 154.49 33.63, 155 35.04 S 158.63 37.04, 160 37.65 S 163.73 40.28, 165 39.48 S 168.68 32.11, 170 31.39 S 173.79 33.11, 175 34 S 178.63 38.09, 180 38.7 S 183.5 38.51, 185 38.43 S 188.51 38.01, 190 38.17 S 193.5 39.36, 195 39.48 S 198.5 39, 200 38.96 S 203.5 39.14, 205 39.22"
          fill="none"/>
    <circle r="4" cx="5" cy="40" fill="#3023AE"/>
    <circle r="4" cx="205" cy="39.22" fill="#C86DD7"/>      
</svg>