<svg width="200" height="50" viewBox="0 0 210 50" xmlns="http://www.w3.org/2000/svg">
    <defs>
        <linearGradient x1="0%" y1="0%" x2="100%" y2="0%" id="a">
            <stop stop-color="#3023AE" offset="0%"/>
            <stop stop-color="#C86DD7" offset="100%"/>
        </linearGradient>
    </defs>
    <path stroke="url(#a)"
          stroke-width="3"
          stroke-linejoin="round"
          stroke-linecap="round"
          d="M5 40 C 6.32 39.28, 8.52 37.54, 10 37.27 S 13.52 37.91, 15 38.18 S 18.51 38.95, 20 39.09 S 23.5 39.09, 25 39.09 S 28.5 39.09, 30 39.09 S 33.5 39.09, 35 39.09 S 38.52 39.36, 40 39.09 S 43.55 37.67, 45 37.27 S 48.52 36.09, 50 36.36 S 53.55 38.69, 55 39.09 S 58.5 39.09, 60 39.09 S 63.5 39.09, 65 39.09 S 68.5 39.09, 70 39.09 S 73.51 39.23, 75 39.09 S 78.5 38.18, 80 38.18 S 83.51 38.95, 85 39.09 S 88.5 39.09, 90 39.09 S 93.5 39.09, 95 39.09 S 98.5 39.09, 100 39.09 S 103.5 39.09, 105 39.09 S 108.5 39.09, 110 39.09 S 113.5 39.09, 115 39.09 S 118.5 39.09, 120 39.09 S 123.5 39.09, 125 39.09 S 128.5 39.09, 130 39.09 S 133.5 39.09, 135 39.09 S 138.5 39.09, 140 39.09 S 143.5 39.09, 145 39.09 S 148.5 39.09, 150 39.09 S 153.5 39.09, 155 39.09 S 158.5 39.09, 160 39.09 S 163.84 40.04, 165 39.09 S 169.51 32.33, 170 30.91 S 174.35 11.35, 175 10 S 179.07 8.82, 180 10 S 184.42 21.35, 185 22.73 S 188.89 32.63, 190 33.64 S 193.63 31.2, 195 31.82 S 198.55 37.78, 200 38.18 S 203.79 35.43, 205 34.55"
          fill="none"/>
    <circle r="4" cx="5" cy="40" fill="#3023AE"/>
    <circle r="4" cx="205" cy="34.55" fill="#C86DD7"/>      
</svg>