<svg width="200" height="50" viewBox="0 0 210 50" xmlns="http://www.w3.org/2000/svg">
    <defs>
        <linearGradient x1="0%" y1="0%" x2="100%" y2="0%" id="a">
            <stop stop-color="#3023AE" offset="0%"/>
            <stop stop-color="#C86DD7" offset="100%"/>
        </linearGradient>
    </defs>
    <path stroke="url(#a)"
          stroke-width="3"
          stroke-linejoin="round"
          stroke-linecap="round"
          d="M5 40 C 5.77 38.71, 8.75 32.5, 10 31.67 S 13.58 32.86, 15 33.33 S 18.58 34.52, 20 35 S 23.5 36.67, 25 36.67 S 28.5 35, 30 35 S 33.58 36.2, 35 36.67 S 38.52 38.08, 40 38.33 S 43.5 38.33, 45 38.33 S 48.58 38.8, 50 38.33 S 53.58 35.47, 55 35 S 58.52 34.75, 60 35 S 63.52 36.42, 65 36.67 S 68.66 37.34, 70 36.67 S 73.58 32.15, 75 31.67 S 78.75 32.5, 80 33.33 S 83.58 37.85, 85 38.33 S 88.85 37.63, 90 36.67 S 93.66 30.67, 95 30 S 98.58 31.2, 100 31.67 S 103.52 33.58, 105 33.33 S 108.66 29.33, 110 30 S 113.5 38.33, 115 38.33 S 118.85 30.96, 120 30 S 123.52 29.75, 125 30 S 128.58 31.2, 130 31.67 S 133.52 33.58, 135 33.33 S 138.66 30.67, 140 30 S 143.66 27.66, 145 28.33 S 148.52 34.75, 150 35 S 153.66 30.67, 155 30 S 158.5 30, 160 30 S 163.58 29.53, 165 30 S 169.33 34.67, 170 33.33 S 173.52 10.25, 175 10 S 178.94 30.61, 180 31.67 S 184.28 21.32, 185 20 S 188.66 12.66, 190 13.33 S 194.23 23.71, 195 25 S 198.75 29.17, 200 30 S 203.58 31.19, 205 31.67"
          fill="none"/>
    <circle r="4" cx="5" cy="40" fill="#3023AE"/>
    <circle r="4" cx="205" cy="31.67" fill="#C86DD7"/>      
</svg>