<svg width="200" height="50" viewBox="0 0 210 50" xmlns="http://www.w3.org/2000/svg">
    <defs>
        <linearGradient x1="0%" y1="0%" x2="100%" y2="0%" id="a">
            <stop stop-color="#3023AE" offset="0%"/>
            <stop stop-color="#C86DD7" offset="100%"/>
        </linearGradient>
    </defs>
    <path stroke="url(#a)"
          stroke-width="3"
          stroke-linejoin="round"
          stroke-linecap="round"
          d="M5 40 C 5.67 38.66, 8.71 30.77, 10 30 S 13.53 33.71, 15 34 S 18.53 31.71, 20 32 S 23.53 35.71, 25 36 S 28.53 33.71, 30 34 S 33.53 37.71, 35 38 S 38.5 36, 40 36 S 43.53 37.71, 45 38 S 48.61 38.56, 50 38 S 53.61 34.56, 55 34 S 58.53 33.71, 60 34 S 63.61 35.44, 65 36 S 68.83 38.94, 70 38 S 73.61 28.56, 75 28 S 78.83 33.06, 80 34 S 83.61 35.44, 85 36 S 88.71 38.77, 90 38 S 94.04 31.15, 95 30 S 98.61 25.44, 100 26 S 103.53 33.71, 105 34 S 108.53 27.71, 110 28 S 113.5 36, 115 36 S 118.83 28.94, 120 28 S 123.71 27.23, 125 28 S 128.53 33.71, 130 34 S 133.61 30.56, 135 30 S 138.53 30.29, 140 30 S 143.61 27.44, 145 28 S 148.61 34.56, 150 34 S 153.5 24, 155 24 S 158.53 33.71, 160 34 S 163.61 26.56, 165 26 S 168.94 31.06, 170 30 S 173.83 16.94, 175 16 S 178.5 22, 180 22 S 184.04 17.15, 185 16 S 188.94 8.94, 190 10 S 193.83 25.06, 195 26 S 198.53 17.71, 200 18 S 204.33 26.66, 205 28"
          fill="none"/>
    <circle r="4" cx="5" cy="40" fill="#3023AE"/>
    <circle r="4" cx="205" cy="28" fill="#C86DD7"/>      
</svg>