<svg width="200" height="50" viewBox="0 0 210 50" xmlns="http://www.w3.org/2000/svg">
    <defs>
        <linearGradient x1="0%" y1="0%" x2="100%" y2="0%" id="a">
            <stop stop-color="#3023AE" offset="0%"/>
            <stop stop-color="#C86DD7" offset="100%"/>
        </linearGradient>
    </defs>
    <path stroke="url(#a)"
          stroke-width="3"
          stroke-linejoin="round"
          stroke-linecap="round"
          d="M5 40 C 6 38.88, 8.5 34.46, 10 34.37 S 13.63 38.77, 15 39.37 S 18.51 38.94, 20 38.75 S 23.53 38.4, 25 38.12 S 28.54 37.23, 30 36.87 S 33.51 35.81, 35 35.62 S 38.54 35.26, 40 35.62 S 43.57 37.67, 45 38.12 S 48.5 38.75, 50 38.75 S 53.53 38.4, 55 38.12 S 58.53 37.15, 60 36.87 S 63.6 36.78, 65 36.25 S 68.5 33.21, 70 33.12 S 73.57 35.17, 75 35.62 S 78.54 36.61, 80 36.25 S 83.5 33.21, 85 33.12 S 88.57 36.07, 90 35.62 S 93.6 30.53, 95 30 S 98.53 31.59, 100 31.87 S 103.54 31.51, 105 31.87 S 108.51 34.56, 110 34.37 S 113.84 31.57, 115 30.62 S 118.5 26.25, 120 26.25 S 123.63 30.02, 125 30.62 S 128.6 31.15, 130 30.62 S 133.63 27.47, 135 26.87 S 139.24 27.54, 140 26.25 S 143.54 9.64, 145 10 S 149.38 27.39, 150 28.75 S 153.91 30.84, 155 31.87 S 158.76 37.27, 160 38.12 S 163.63 39.35, 165 38.75 S 168.69 34.49, 170 33.75 S 173.54 32.76, 175 33.12 S 178.51 36.06, 180 36.25 S 183.57 34.82, 185 34.37 S 188.6 33.65, 190 33.12 S 193.51 30.43, 195 30.62 S 198.53 34.65, 200 34.37 S 204 29.87, 205 28.75"
          fill="none"/>
    <circle r="4" cx="5" cy="40" fill="#3023AE"/>
    <circle r="4" cx="205" cy="28.75" fill="#C86DD7"/>      
</svg>