<svg width="200" height="50" viewBox="0 0 210 50" xmlns="http://www.w3.org/2000/svg">
    <defs>
        <linearGradient x1="0%" y1="0%" x2="100%" y2="0%" id="a">
            <stop stop-color="#3023AE" offset="0%"/>
            <stop stop-color="#C86DD7" offset="100%"/>
        </linearGradient>
    </defs>
    <path stroke="url(#a)"
          stroke-width="3"
          stroke-linejoin="round"
          stroke-linecap="round"
          d="M5 40 C 5.59 38.62, 8.5 28.33, 10 28.24 S 14 38.29, 15 39.41 S 18.5 39.41, 20 39.41 S 23.5 39.41, 25 39.41 S 28.5 39.41, 30 39.41 S 33.5 39.5, 35 39.41 S 38.51 38.99, 40 38.82 S 43.5 38.33, 45 38.24 S 48.52 38.5, 50 38.24 S 53.5 36.47, 55 36.47 S 58.51 38.42, 60 38.24 S 63.64 35.93, 65 35.29 S 68.56 33.95, 70 33.53 S 73.71 33.11, 75 32.35 S 78.51 27.47, 80 27.65 S 83.5 33.44, 85 33.53 S 88.59 27.74, 90 28.24 S 93.64 36.42, 95 37.06 S 98.77 33.81, 100 32.94 S 103.64 30.64, 105 30 S 108.51 28.42, 110 28.24 S 113.54 29.16, 115 28.82 S 118.54 26.22, 120 25.88 S 123.5 26.38, 125 26.47 S 128.59 26.97, 130 26.47 S 133.64 23.58, 135 22.94 S 138.5 21.67, 140 21.76 S 143.59 23.03, 145 23.53 S 148.5 25.2, 150 25.29 S 153.52 24.38, 155 24.12 S 158.5 23.62, 160 23.53 S 164.11 24.74, 165 23.53 S 168.52 10.26, 170 10 S 173.81 20.85, 175 21.76 S 178.71 18.41, 180 17.65 S 183.91 14.85, 185 15.88 S 188.56 26.64, 190 27.06 S 193.61 19.39, 195 18.82 S 198.71 22.18, 200 22.94 S 203.59 24.21, 205 24.71"
          fill="none"/>
    <circle r="4" cx="5" cy="40" fill="#3023AE"/>
    <circle r="4" cx="205" cy="24.71" fill="#C86DD7"/>      
</svg>