<svg width="200" height="50" viewBox="0 0 210 50" xmlns="http://www.w3.org/2000/svg">
    <defs>
        <linearGradient x1="0%" y1="0%" x2="100%" y2="0%" id="a">
            <stop stop-color="#3023AE" offset="0%"/>
            <stop stop-color="#C86DD7" offset="100%"/>
        </linearGradient>
    </defs>
    <path stroke="url(#a)"
          stroke-width="3"
          stroke-linejoin="round"
          stroke-linecap="round"
          d="M5 40 C 6.5 39.97, 8.5 39.97, 10 39.91 S 13.73 40.42, 15 39.63 S 18.86 34.65, 20 33.67 S 23.62 30.49, 25 31.07 S 28.7 37.09, 30 37.83 S 33.55 37.13, 35 36.74 S 38.51 35.31, 40 35.14 S 43.53 35.34, 45 35.62 S 48.52 37.28, 50 37.03 S 53.6 34.49, 55 33.94 S 58.52 33.37, 60 33.13 S 63.51 32.17, 65 32.35 S 68.51 34.18, 70 34.32 S 73.54 33.66, 75 33.32 S 78.5 32.09, 80 32 S 83.51 32.85, 85 32.7 S 89.4 32.35, 90 30.98 S 93.55 10.37, 95 10 S 99.29 27.08, 100 28.4 S 103.71 29.39, 105 28.62 S 108.58 22.89, 110 22.41 S 113.52 25.01, 115 25.23 S 118.51 23.73, 120 23.92 S 123.53 26.24, 125 26.52 S 128.57 26.25, 130 25.79 S 133.5 23.26, 135 23.26 S 138.5 25.88, 140 25.77 S 143.69 23.23, 145 22.51 S 148.79 21.17, 150 20.28 S 153.86 16.1, 155 15.12 S 158.81 10.73, 160 11.64 S 163.58 22.32, 165 22.79 S 168.62 15.53, 170 14.95 S 173.6 18.06, 175 18.59 S 178.51 18.57, 180 18.74 S 183.5 19.71, 185 19.71 S 188.53 19.04, 190 18.74 S 193.57 17.2, 195 17.65 S 198.64 21.28, 200 21.91 S 203.51 22.2, 205 22.32"
          fill="none"/>
    <circle r="4" cx="5" cy="40" fill="#3023AE"/>
    <circle r="4" cx="205" cy="22.32" fill="#C86DD7"/>      
</svg>