<svg width="200" height="50" viewBox="0 0 210 50" xmlns="http://www.w3.org/2000/svg">
    <defs>
        <linearGradient x1="0%" y1="0%" x2="100%" y2="0%" id="a">
            <stop stop-color="#3023AE" offset="0%"/>
            <stop stop-color="#C86DD7" offset="100%"/>
        </linearGradient>
    </defs>
    <path stroke="url(#a)"
          stroke-width="3"
          stroke-linejoin="round"
          stroke-linecap="round"
          d="M5 40 C 6.41 39.5, 8.57 38.71, 10 38.24 S 13.57 37.19, 15 36.72 S 18.5 34.88, 20 34.96 S 23.55 36.83, 25 37.23 S 28.92 38.77, 30 37.73 S 33.55 28.05, 35 27.65 S 38.76 34.12, 40 34.96 S 44.44 35.84, 45 34.45 S 49.14 11.23, 50 10 S 54.03 18.93, 55 20.08 S 58.86 20.87, 60 21.85 S 63.8 27.76, 65 28.66 S 68.61 29.97, 70 29.41 S 73.9 25.64, 75 24.62 S 78.79 20.97, 80 20.08 S 83.54 17.64, 85 17.31 S 88.88 16.83, 90 17.82 S 93.52 25.87, 95 26.13 S 99.13 20.8, 100 19.58 S 103.52 12.28, 105 12.02 S 108.52 17.56, 110 17.82 S 113.56 13.35, 115 13.78 S 118.7 20.09, 120 20.84 S 123.79 20.47, 125 19.58 S 128.7 14.28, 130 13.53 S 133.55 13.41, 135 13.78 S 138.57 15.58, 140 16.05 S 143.83 16.12, 145 17.06 S 148.52 24.34, 150 24.12 S 153.5 15.63, 155 15.55 S 158.73 22.81, 160 23.61 S 163.57 22.32, 165 21.85 S 168.54 20.01, 170 20.34 S 173.62 23.53, 175 24.12 S 178.53 24.92, 180 24.62 S 183.57 22.57, 185 22.1 S 188.56 20.91, 190 21.34 S 193.86 24.15, 195 25.13 S 198.55 29.55, 200 29.92 S 203.63 28.27, 205 27.65"
          fill="none"/>
    <circle r="4" cx="5" cy="40" fill="#3023AE"/>
    <circle r="4" cx="205" cy="27.65" fill="#C86DD7"/>      
</svg>