<svg width="200" height="50" viewBox="0 0 210 50" xmlns="http://www.w3.org/2000/svg">
    <defs>
        <linearGradient x1="0%" y1="0%" x2="100%" y2="0%" id="a">
            <stop stop-color="#3023AE" offset="0%"/>
            <stop stop-color="#C86DD7" offset="100%"/>
        </linearGradient>
    </defs>
    <path stroke="url(#a)"
          stroke-width="3"
          stroke-linejoin="round"
          stroke-linecap="round"
          d="M5 40 C 6.5 39.99, 8.5 40, 10 39.96 S 13.63 40.37, 15 39.75 S 18.55 35.82, 20 35.42 S 23.62 37.59, 25 37 S 28.51 30.93, 30 31.12 S 33.72 37.5, 35 38.28 S 38.53 37.56, 40 37.24 S 43.5 36.24, 45 36.12 S 48.5 36.46, 50 36.47 S 53.51 36.03, 55 36.18 S 58.52 37.75, 60 37.5 S 63.57 34.98, 65 34.52 S 68.5 34.32, 70 34.25 S 73.5 34.05, 75 34.05 S 78.5 34.17, 80 34.25 S 83.5 34.66, 85 34.59 S 88.51 33.99, 90 33.8 S 93.5 33.3, 95 33.28 S 98.51 33.82, 100 33.69 S 103.51 32.63, 105 32.44 S 109.39 33.81, 110 32.44 S 113.56 10.42, 115 10 S 119.35 28.18, 120 29.53 S 123.65 31.51, 125 30.86 S 128.6 25.26, 130 24.71 S 133.52 26.69, 135 26.94 S 138.5 26.28, 140 26.37 S 143.52 27.31, 145 27.55 S 148.5 28, 150 27.97 S 153.53 27.66, 155 27.36 S 158.5 26.01, 160 25.94 S 163.59 26.35, 165 26.86 S 168.71 30.36, 170 29.59 S 173.75 21.76, 175 20.93 S 178.59 23.46, 180 22.94 S 183.81 18.16, 185 17.25 S 188.75 14.49, 190 15.32 S 193.78 23, 195 23.87 S 198.74 23.28, 200 22.46 S 203.95 18.45, 205 17.38"
          fill="none"/>
    <circle r="4" cx="5" cy="40" fill="#3023AE"/>
    <circle r="4" cx="205" cy="17.38" fill="#C86DD7"/>      
</svg>