<svg width="200" height="50" viewBox="0 0 210 50" xmlns="http://www.w3.org/2000/svg">
    <defs>
        <linearGradient x1="0%" y1="0%" x2="100%" y2="0%" id="a">
            <stop stop-color="#3023AE" offset="0%"/>
            <stop stop-color="#C86DD7" offset="100%"/>
        </linearGradient>
    </defs>
    <path stroke="url(#a)"
          stroke-width="3"
          stroke-linejoin="round"
          stroke-linecap="round"
          d="M5 40 C 6.5 39.99, 8.5 39.98, 10 39.98 S 13.54 40.31, 15 39.97 S 18.72 38.45, 20 37.66 S 23.5 33.83, 25 33.8 S 28.51 37.27, 30 37.48 S 33.53 34.92, 35 35.22 S 39.45 40.91, 40 39.52 S 44.18 11.25, 45 10 S 49 23.18, 50 24.3 S 53.5 21.2, 55 21.13 S 58.69 23.13, 60 23.86 S 63.56 26.24, 65 26.67 S 68.5 26.81, 70 26.85 S 73.51 26.77, 75 26.95 S 78.51 27.89, 80 28.09 S 83.56 28.7, 85 28.29 S 88.51 25.4, 90 25.28 S 93.51 27.26, 95 27.46 S 98.52 26.85, 100 26.62 S 103.5 25.89, 105 25.93 S 108.5 26.9, 110 26.87 S 113.81 26.61, 115 25.7 S 118.62 19.82, 120 19.24 S 123.5 21.45, 125 21.53 S 128.58 20.26, 130 19.79 S 133.58 18.7, 135 18.21 S 138.52 16.16, 140 16.37 S 143.5 19.6, 145 19.64 S 148.53 16.35, 150 16.64 S 153.95 20.51, 155 21.58 S 158.75 26.04, 160 26.88 S 163.57 27.85, 165 28.29 S 168.5 29.9, 170 29.95 S 173.51 28.51, 175 28.64 S 178.57 30.39, 180 30.84 S 183.53 31.48, 185 31.76 S 188.52 32.5, 190 32.75 S 193.5 33.41, 195 33.47 S 198.5 33.06, 200 33.15 S 203.53 33.82, 205 34.1"
          fill="none"/>
    <circle r="4" cx="5" cy="40" fill="#3023AE"/>
    <circle r="4" cx="205" cy="34.1" fill="#C86DD7"/>      
</svg>