<svg width="200" height="50" viewBox="0 0 210 50" xmlns="http://www.w3.org/2000/svg">
    <defs>
        <linearGradient x1="0%" y1="0%" x2="100%" y2="0%" id="a">
            <stop stop-color="#3023AE" offset="0%"/>
            <stop stop-color="#C86DD7" offset="100%"/>
        </linearGradient>
    </defs>
    <path stroke="url(#a)"
          stroke-width="3"
          stroke-linejoin="round"
          stroke-linecap="round"
          d="M5 40 C 5.25 38.52, 8.6 10.53, 10 10 S 14.47 34.85, 15 36.25 S 18.51 36.44, 20 36.25 S 23.51 34.81, 25 35 S 28.54 37.14, 30 37.5 S 33.51 37.31, 35 37.5 S 38.54 39.11, 40 38.75 S 43.8 35.9, 45 35 S 48.51 31.06, 50 31.25 S 53.66 35.58, 55 36.25 S 59.12 37.46, 60 36.25 S 63.87 23.49, 65 22.5 S 68.94 26.44, 70 27.5 S 73.73 33.29, 75 32.5 S 78.87 22.24, 80 21.25 S 84.06 22.58, 85 23.75 S 88.73 32.96, 90 33.75 S 93.5 30, 95 30 S 98.51 33.56, 100 33.75 S 104 32.37, 105 31.25 S 109 23.62, 110 22.5 S 113.87 19.01, 115 20 S 118.87 30.26, 120 31.25 S 123.51 28.56, 125 28.75 S 128.5 32.5, 130 32.5 S 133.51 28.56, 135 28.75 S 138.51 33.94, 140 33.75 S 143.51 27.69, 145 27.5 S 148.8 31.6, 150 32.5 S 153.73 35.79, 155 35 S 159.12 27.46, 160 26.25 S 163.51 21.06, 165 21.25 S 168.8 26.6, 170 27.5 S 173.51 28.56, 175 28.75 S 178.6 28.22, 180 28.75 S 183.54 32.14, 185 32.5 S 189.12 32.46, 190 31.25 S 193.54 19.11, 195 18.75 S 199 27.63, 200 28.75 S 203.54 29.64, 205 30"
          fill="none"/>
    <circle r="4" cx="5" cy="40" fill="#3023AE"/>
    <circle r="4" cx="205" cy="30" fill="#C86DD7"/>      
</svg>