<svg width="200" height="50" viewBox="0 0 210 50" xmlns="http://www.w3.org/2000/svg">
    <defs>
        <linearGradient x1="0%" y1="0%" x2="100%" y2="0%" id="a">
            <stop stop-color="#3023AE" offset="0%"/>
            <stop stop-color="#C86DD7" offset="100%"/>
        </linearGradient>
    </defs>
    <path stroke="url(#a)"
          stroke-width="3"
          stroke-linejoin="round"
          stroke-linecap="round"
          d="M5 40 C 6.5 39.93, 8.5 39.79, 10 39.75 S 13.5 39.75, 15 39.75 S 18.5 39.75, 20 39.75 S 23.5 39.75, 25 39.75 S 28.5 39.75, 30 39.75 S 33.5 39.75, 35 39.75 S 38.5 39.75, 40 39.75 S 43.5 39.75, 45 39.75 S 48.5 39.75, 50 39.75 S 53.5 39.75, 55 39.75 S 58.5 39.75, 60 39.75 S 63.5 39.75, 65 39.75 S 68.5 39.75, 70 39.75 S 73.5 39.75, 75 39.75 S 78.5 39.75, 80 39.75 S 83.5 39.75, 85 39.75 S 88.5 39.75, 90 39.75 S 93.5 39.75, 95 39.75 S 98.5 39.75, 100 39.75 S 103.5 39.75, 105 39.75 S 108.5 39.75, 110 39.75 S 113.5 39.75, 115 39.75 S 118.5 39.75, 120 39.75 S 123.54 40.08, 125 39.75 S 129.52 38.9, 130 37.48 S 133.59 10.5, 135 10 S 139.43 32.56, 140 33.95 S 143.52 33.94, 145 34.2 S 148.55 35.31, 150 35.71 S 153.57 36.5, 155 36.97 S 158.5 38.99, 160 38.99 S 163.51 37.16, 165 36.97 S 168.5 37.62, 170 37.73 S 173.51 37.54, 175 37.73 S 178.5 38.91, 180 38.99 S 183.52 38.5, 185 38.24 S 188.51 37.08, 190 37.23 S 193.63 39.86, 195 39.24 S 198.55 33.09, 200 32.69 S 203.8 35.57, 205 36.47"
          fill="none"/>
    <circle r="4" cx="5" cy="40" fill="#3023AE"/>
    <circle r="4" cx="205" cy="36.47" fill="#C86DD7"/>      
</svg>