<svg width="200" height="50" viewBox="0 0 210 50" xmlns="http://www.w3.org/2000/svg">
    <defs>
        <linearGradient x1="0%" y1="0%" x2="100%" y2="0%" id="a">
            <stop stop-color="#3023AE" offset="0%"/>
            <stop stop-color="#C86DD7" offset="100%"/>
        </linearGradient>
    </defs>
    <path stroke="url(#a)"
          stroke-width="3"
          stroke-linejoin="round"
          stroke-linecap="round"
          d="M5 40 C 5.25 38.52, 8.54 10.34, 10 10 S 14.49 36.28, 15 37.69 S 18.5 37.69, 20 37.69 S 23.5 37.69, 25 37.69 S 28.77 38.54, 30 37.69 S 33.5 30.77, 35 30.77 S 38.77 36.84, 40 37.69 S 43.77 38.54, 45 37.69 S 48.54 31.11, 50 30.77 S 53.77 34.53, 55 35.38 S 58.5 37.69, 60 37.69 S 63.5 35.38, 65 35.38 S 68.54 37.35, 70 37.69 S 73.5 37.69, 75 37.69 S 78.5 37.69, 80 37.69 S 83.5 37.69, 85 37.69 S 88.5 37.69, 90 37.69 S 93.5 37.69, 95 37.69 S 98.5 37.69, 100 37.69 S 103.5 37.69, 105 37.69 S 108.5 37.69, 110 37.69 S 113.5 37.69, 115 37.69 S 118.64 38.32, 120 37.69 S 123.5 33.08, 125 33.08 S 128.64 37.06, 130 37.69 S 133.5 37.69, 135 37.69 S 138.5 37.69, 140 37.69 S 143.5 37.69, 145 37.69 S 148.5 37.69, 150 37.69 S 153.5 37.69, 155 37.69 S 158.5 37.69, 160 37.69 S 163.5 37.69, 165 37.69 S 168.77 38.54, 170 37.69 S 173.5 30.77, 175 30.77 S 178.77 36.84, 180 37.69 S 183.5 37.69, 185 37.69"
          fill="none"/>
    <circle r="4" cx="5" cy="40" fill="#3023AE"/>
    <circle r="4" cx="185" cy="37.69" fill="#C86DD7"/>      
</svg>