<svg width="200" height="50" viewBox="0 0 210 50" xmlns="http://www.w3.org/2000/svg">
    <defs>
        <linearGradient x1="0%" y1="0%" x2="100%" y2="0%" id="a">
            <stop stop-color="#3023AE" offset="0%"/>
            <stop stop-color="#C86DD7" offset="100%"/>
        </linearGradient>
    </defs>
    <path stroke="url(#a)"
          stroke-width="3"
          stroke-linejoin="round"
          stroke-linecap="round"
          d="M5 40 C 5.25 38.52, 8.52 10.25, 10 10 S 14.5 36.86, 15 38.28 S 18.51 38.34, 20 38.51 S 23.51 39.29, 25 39.43 S 28.5 39.43, 30 39.43 S 33.5 39.4, 35 39.43 S 38.5 39.59, 40 39.66 S 43.5 39.86, 45 39.89 S 48.5 39.89, 50 39.89 S 53.53 40.21, 55 39.89 S 58.58 38.19, 60 37.7 S 63.52 36.71, 65 36.44 S 68.51 35.72, 70 35.86 S 73.5 37.24, 75 37.36 S 78.52 36.89, 80 36.67 S 83.5 35.95, 85 35.86 S 88.5 35.99, 90 36.09 S 93.5 36.67, 95 36.55 S 98.5 35.29, 100 35.29 S 103.5 36.64, 105 36.55 S 108.53 35.03, 110 34.71 S 113.52 34.15, 115 34.37 S 118.51 36, 120 36.21 S 123.51 35.96, 125 35.75 S 128.51 35.04, 130 34.83 S 133.5 34.34, 135 34.37 S 138.51 34.87, 140 35.06 S 143.51 35.49, 145 35.63 S 148.51 36.13, 150 35.98 S 153.51 34.46, 155 34.6 S 158.53 36.58, 160 36.9 S 163.51 36.63, 165 36.78 S 168.51 37.79, 170 37.93 S 173.51 37.89, 175 37.7 S 178.5 36.74, 180 36.67 S 183.5 37.22, 185 37.24 S 188.5 36.69, 190 36.78 S 193.5 37.79, 195 37.82 S 198.51 37.18, 200 37.01 S 203.5 36.77, 205 36.67"
          fill="none"/>
    <circle r="4" cx="5" cy="40" fill="#3023AE"/>
    <circle r="4" cx="205" cy="36.67" fill="#C86DD7"/>      
</svg>