<svg width="200" height="50" viewBox="0 0 210 50" xmlns="http://www.w3.org/2000/svg">
    <defs>
        <linearGradient x1="0%" y1="0%" x2="100%" y2="0%" id="a">
            <stop stop-color="#3023AE" offset="0%"/>
            <stop stop-color="#C86DD7" offset="100%"/>
        </linearGradient>
    </defs>
    <path stroke="url(#a)"
          stroke-width="3"
          stroke-linejoin="round"
          stroke-linecap="round"
          d="M5 40 C 5.25 38.52, 8.52 10.25, 10 10 S 14.51 36.88, 15 38.3 S 18.5 38.74, 20 38.86 S 23.51 38.94, 25 39.09 S 28.5 39.89, 30 39.89 S 33.5 39.12, 35 39.09 S 38.5 39.56, 40 39.66 S 43.5 39.74, 45 39.77 S 48.5 39.87, 50 39.89 S 53.5 39.89, 55 39.89 S 58.53 40.21, 60 39.89 S 63.57 38.17, 65 37.73 S 68.51 37.02, 70 36.82 S 73.5 36.27, 75 36.36 S 78.5 37.39, 80 37.39 S 83.5 36.34, 85 36.36 S 88.5 37.52, 90 37.5 S 93.51 36.39, 95 36.25 S 98.5 36.61, 100 36.59 S 103.51 36.29, 105 36.14 S 108.5 35.52, 110 35.57 S 113.5 36.51, 115 36.48 S 118.51 35.53, 120 35.34 S 123.51 35.09, 125 35.23 S 128.51 36.06, 130 36.25 S 133.51 36.68, 135 36.48 S 138.51 35.04, 140 34.89 S 143.5 35.37, 145 35.45 S 148.5 35.38, 150 35.45 S 153.5 35.88, 155 35.91 S 158.5 35.59, 160 35.68 S 163.5 36.51, 165 36.48 S 168.5 35.48, 170 35.45 S 173.53 35.93, 175 36.25 S 178.53 37.33, 180 37.61 S 183.5 38.16, 185 38.18 S 188.51 37.88, 190 37.73 S 193.5 37.23, 195 37.16 S 198.5 37.29, 200 37.27 S 203.5 37.12, 205 37.05"
          fill="none"/>
    <circle r="4" cx="5" cy="40" fill="#3023AE"/>
    <circle r="4" cx="205" cy="37.05" fill="#C86DD7"/>      
</svg>