<svg width="200" height="50" viewBox="0 0 210 50" xmlns="http://www.w3.org/2000/svg">
    <defs>
        <linearGradient x1="0%" y1="0%" x2="100%" y2="0%" id="a">
            <stop stop-color="#3023AE" offset="0%"/>
            <stop stop-color="#C86DD7" offset="100%"/>
        </linearGradient>
    </defs>
    <path stroke="url(#a)"
          stroke-width="3"
          stroke-linejoin="round"
          stroke-linecap="round"
          d="M5 40 C 5.32 38.53, 8.5 17.15, 10 17.04 S 14.4 37.89, 15 39.26 S 18.5 39.68, 20 39.75 S 23.5 39.73, 25 39.75 S 28.5 39.86, 30 39.88 S 33.53 40.15, 35 39.88 S 38.66 38.7, 40 38.02 S 43.64 35.45, 45 34.81 S 48.52 33.55, 50 33.33 S 53.51 33.5, 55 33.33 S 58.53 32.53, 60 32.22 S 63.54 31.56, 65 31.23 S 68.55 30.39, 70 30 S 73.55 28.91, 75 28.52 S 78.59 27.79, 80 27.28 S 83.82 25.87, 85 24.94 S 88.98 20.48, 90 19.38 S 93.61 14.77, 95 14.2 S 98.73 14.51, 100 15.31 S 103.78 19.62, 105 20.49 S 108.51 22.67, 110 22.47 S 113.7 19.88, 115 19.14 S 118.51 16.92, 120 16.79 S 123.53 17.96, 125 18.27 S 128.52 19.13, 130 18.89 S 133.51 16.85, 135 16.67 S 138.57 17.19, 140 17.65 S 143.81 20.79, 145 19.88 S 148.62 10.58, 150 10 S 154 14.57, 155 15.68 S 158.61 20.54, 160 21.11 S 163.52 19.97, 165 19.75 S 168.54 19.96, 170 19.63 S 173.63 18.14, 175 17.53 S 178.55 14.8, 180 15.19 S 183.62 19.67, 185 20.25 S 188.61 19.95, 190 19.38 S 193.54 16.51, 195 16.17 S 198.56 16.63, 200 17.04 S 203.6 18.46, 205 19.01"
          fill="none"/>
    <circle r="4" cx="5" cy="40" fill="#3023AE"/>
    <circle r="4" cx="205" cy="19.01" fill="#C86DD7"/>      
</svg>