<svg width="200" height="50" viewBox="0 0 210 50" xmlns="http://www.w3.org/2000/svg">
    <defs>
        <linearGradient x1="0%" y1="0%" x2="100%" y2="0%" id="a">
            <stop stop-color="#3023AE" offset="0%"/>
            <stop stop-color="#C86DD7" offset="100%"/>
        </linearGradient>
    </defs>
    <path stroke="url(#a)"
          stroke-width="3"
          stroke-linejoin="round"
          stroke-linecap="round"
          d="M5 40 C 6.46 39.64, 8.53 39.03, 10 38.75 S 13.54 38.48, 15 38.12 S 18.5 36.16, 20 36.25 S 23.51 38.56, 25 38.75 S 29.51 38.92, 30 37.5 S 33.51 9.81, 35 10 S 39.36 37.39, 40 38.75 S 43.57 31.7, 45 31.25 S 48.6 35.09, 50 35.62 S 53.51 35.19, 55 35 S 58.53 34.09, 60 34.37 S 63.63 36.27, 65 36.87 S 68.76 39.6, 70 38.75 S 74.26 31.3, 75 30 S 78.54 21.61, 80 21.25 S 83.94 26.44, 85 27.5 S 88.57 30.8, 90 31.25 S 93.51 30.81, 95 30.62 S 98.5 30, 100 30 S 103.69 29.89, 105 30.62 S 108.51 35.43, 110 35.62 S 113.5 31.96, 115 31.87 S 118.53 34.72, 120 35 S 123.53 34.03, 125 33.75 S 128.51 32.93, 130 33.12 S 133.57 35.45, 135 35 S 138.5 30.09, 140 30 S 143.53 34.65, 145 34.37 S 148.53 27.84, 150 28.12 S 153.57 35.8, 155 36.25 S 158.69 31.99, 160 31.25 S 163.69 29.89, 165 30.62 S 168.51 36.68, 170 36.87 S 173.5 31.96, 175 31.87 S 178.51 36.06, 180 36.25 S 183.51 33.31, 185 33.12 S 188.73 35.79, 190 35 S 193.53 27.15, 195 26.87 S 198.66 32.45, 200 33.12 S 203.54 32.23, 205 31.87"
          fill="none"/>
    <circle r="4" cx="5" cy="40" fill="#3023AE"/>
    <circle r="4" cx="205" cy="31.869999999999997" fill="#C86DD7"/>      
</svg>