<svg width="200" height="50" viewBox="0 0 210 50" xmlns="http://www.w3.org/2000/svg">
    <defs>
        <linearGradient x1="0%" y1="0%" x2="100%" y2="0%" id="a">
            <stop stop-color="#3023AE" offset="0%"/>
            <stop stop-color="#C86DD7" offset="100%"/>
        </linearGradient>
    </defs>
    <path stroke="url(#a)"
          stroke-width="3"
          stroke-linejoin="round"
          stroke-linecap="round"
          d="M5 40 C 6.47 39.72, 8.5 39.13, 10 39.06 S 13.5 39.46, 15 39.53 S 18.5 39.53, 20 39.53 S 23.5 39.53, 25 39.53 S 28.5 39.53, 30 39.53 S 33.5 39.53, 35 39.53 S 38.5 39.53, 40 39.53 S 43.5 39.53, 45 39.53 S 48.5 39.53, 50 39.53 S 53.5 39.53, 55 39.53 S 58.5 39.53, 60 39.53 S 63.5 39.53, 65 39.53 S 69.52 40.95, 70 39.53 S 73.5 10, 75 10 S 79.52 38.11, 80 39.53 S 83.5 39.53, 85 39.53 S 88.5 39.53, 90 39.53 S 93.5 39.53, 95 39.53 S 98.5 39.53, 100 39.53 S 103.5 39.53, 105 39.53 S 108.5 39.53, 110 39.53 S 113.5 39.53, 115 39.53 S 118.5 39.53, 120 39.53 S 123.5 39.53, 125 39.53 S 128.5 39.53, 130 39.53 S 133.5 39.53, 135 39.53 S 138.5 39.53, 140 39.53 S 143.5 39.53, 145 39.53 S 148.5 39.53, 150 39.53 S 153.5 39.53, 155 39.53"
          fill="none"/>
    <circle r="4" cx="5" cy="40" fill="#3023AE"/>
    <circle r="4" cx="155" cy="39.53" fill="#C86DD7"/>      
</svg>