<svg width="200" height="50" viewBox="0 0 210 50" xmlns="http://www.w3.org/2000/svg">
    <defs>
        <linearGradient x1="0%" y1="0%" x2="100%" y2="0%" id="a">
            <stop stop-color="#3023AE" offset="0%"/>
            <stop stop-color="#C86DD7" offset="100%"/>
        </linearGradient>
    </defs>
    <path stroke="url(#a)"
          stroke-width="3"
          stroke-linejoin="round"
          stroke-linecap="round"
          d="M5 40 C 6.2 39.1, 8.6 36.78, 10 36.25 S 13.5 36.25, 15 36.25 S 19 37.37, 20 36.25 S 24.29 26.32, 25 25 S 29 16.38, 30 17.5 S 34.29 34.93, 35 36.25 S 38.5 36.25, 40 36.25 S 43.6 36.78, 45 36.25 S 48.5 32.5, 50 32.5 S 54.17 37.5, 55 36.25 S 59.17 18.75, 60 17.5 S 63.8 20.35, 65 21.25 S 68.6 24.47, 70 25 S 74 23.88, 75 25 S 78.6 36.78, 80 36.25 S 83.6 21.78, 85 21.25 S 89 33.62, 90 32.5 S 93.6 9.47, 95 10 S 99.29 34.93, 100 36.25 S 104 29.87, 105 28.75 S 108.6 25.53, 110 25 S 114 23.88, 115 25 S 118.8 35.35, 120 36.25 S 123.6 33.03, 125 32.5 S 129.17 33.75, 130 32.5 S 134 18.62, 135 17.5 S 139.29 19.93, 140 21.25 S 144.17 35, 145 36.25 S 148.6 36.78, 150 36.25 S 153.6 33.03, 155 32.5 S 158.6 33.03, 160 32.5 S 163.6 28.22, 165 28.75 S 168.6 35.72, 170 36.25 S 173.6 33.03, 175 32.5 S 178.6 31.97, 180 32.5 S 183.6 36.78, 185 36.25 S 188.5 28.75, 190 28.75 S 193.6 35.72, 195 36.25 S 198.6 33.03, 200 32.5 S 203.5 32.5, 205 32.5"
          fill="none"/>
    <circle r="4" cx="5" cy="40" fill="#3023AE"/>
    <circle r="4" cx="205" cy="32.5" fill="#C86DD7"/>      
</svg>