<svg width="200" height="50" viewBox="0 0 210 50" xmlns="http://www.w3.org/2000/svg">
    <defs>
        <linearGradient x1="0%" y1="0%" x2="100%" y2="0%" id="a">
            <stop stop-color="#3023AE" offset="0%"/>
            <stop stop-color="#C86DD7" offset="100%"/>
        </linearGradient>
    </defs>
    <path stroke="url(#a)"
          stroke-width="3"
          stroke-linejoin="round"
          stroke-linecap="round"
          d="M5 40 C 6.21 39.11, 8.53 36.61, 10 36.34 S 13.53 37.84, 15 38.14 S 18.5 38.3, 20 38.38 S 23.5 38.75, 25 38.65 S 28.55 38.11, 30 37.74 S 33.59 36.6, 35 36.1 S 38.51 34.34, 40 34.17 S 43.5 34.9, 45 34.93 S 48.51 34.21, 50 34.35 S 53.5 35.93, 55 35.9 S 58.55 34.54, 60 34.17 S 63.5 33.4, 65 33.38 S 68.5 34.08, 70 34.06 S 73.53 33.52, 75 33.23 S 78.5 32.07, 80 32.09 S 83.54 33.74, 85 33.39 S 88.7 30.46, 90 29.71 S 93.51 27.77, 95 27.62 S 98.5 28.76, 100 28.72 S 103.57 27.8, 105 27.33 S 108.72 26.23, 110 25.45 S 113.82 22.17, 115 21.25 S 118.63 18.27, 120 17.65 S 123.6 17.27, 125 16.73 S 128.51 13.62, 130 13.79 S 133.64 17.26, 135 17.89 S 138.6 18.94, 140 18.41 S 143.59 14.58, 145 14.08 S 148.51 14.73, 150 14.87 S 153.52 14.77, 155 15.02 S 158.66 17.26, 160 16.59 S 163.59 10.51, 165 10 S 168.82 12.02, 170 12.94 S 173.58 17.32, 175 17.8 S 178.52 16.12, 180 16.35 S 183.51 19.21, 185 19.37 S 188.51 17.63, 190 17.44 S 193.52 17.84, 195 18.1 S 198.55 19.57, 200 19.17 S 203.81 16.25, 205 15.34"
          fill="none"/>
    <circle r="4" cx="5" cy="40" fill="#3023AE"/>
    <circle r="4" cx="205" cy="15.34" fill="#C86DD7"/>      
</svg>