<svg width="200" height="50" viewBox="0 0 210 50" xmlns="http://www.w3.org/2000/svg">
    <defs>
        <linearGradient x1="0%" y1="0%" x2="100%" y2="0%" id="a">
            <stop stop-color="#3023AE" offset="0%"/>
            <stop stop-color="#C86DD7" offset="100%"/>
        </linearGradient>
    </defs>
    <path stroke="url(#a)"
          stroke-width="3"
          stroke-linejoin="round"
          stroke-linecap="round"
          d="M5 40 C 6.06 38.94, 8.54 35.36, 10 35 S 13.54 37.14, 15 37.5 S 18.5 37.5, 20 37.5 S 23.5 37.5, 25 37.5 S 28.5 37.5, 30 37.5 S 33.5 37.5, 35 37.5 S 38.5 37.5, 40 37.5 S 43.5 37.5, 45 37.5 S 48.5 37.5, 50 37.5 S 53.5 37.5, 55 37.5 S 58.5 37.5, 60 37.5 S 63.5 37.5, 65 37.5 S 68.5 37.5, 70 37.5 S 73.5 37.5, 75 37.5 S 78.5 37.5, 80 37.5 S 83.5 37.5, 85 37.5 S 88.5 37.5, 90 37.5 S 93.5 37.5, 95 37.5 S 98.5 37.5, 100 37.5 S 103.66 38.17, 105 37.5 S 108.66 33.17, 110 32.5 S 113.66 31.83, 115 32.5 S 118.66 36.83, 120 37.5 S 123.54 37.86, 125 37.5 S 128.5 35, 130 35 S 133.54 37.14, 135 37.5 S 138.5 37.5, 140 37.5 S 143.54 37.86, 145 37.5 S 148.5 35, 150 35 S 153.66 38.17, 155 37.5 S 158.8 30.9, 160 30 S 163.54 29.64, 165 30 S 168.8 31.6, 170 32.5 S 173.54 37.86, 175 37.5 S 178.54 30.36, 180 30 S 184.33 36.34, 185 35 S 188.94 11.06, 190 10 S 194.33 23.66, 195 25 S 198.8 29.1, 200 30 S 203.66 31.83, 205 32.5"
          fill="none"/>
    <circle r="4" cx="5" cy="40" fill="#3023AE"/>
    <circle r="4" cx="205" cy="32.5" fill="#C86DD7"/>      
</svg>