<svg width="200" height="50" viewBox="0 0 210 50" xmlns="http://www.w3.org/2000/svg">
    <defs>
        <linearGradient x1="0%" y1="0%" x2="100%" y2="0%" id="a">
            <stop stop-color="#3023AE" offset="0%"/>
            <stop stop-color="#C86DD7" offset="100%"/>
        </linearGradient>
    </defs>
    <path stroke="url(#a)"
          stroke-width="3"
          stroke-linejoin="round"
          stroke-linecap="round"
          d="M5 40 C 5.36 38.54, 8.94 21.06, 10 20 S 13.94 31.06, 15 30 S 18.5 10, 20 10 S 24.33 28.66, 25 30 S 28.5 30, 30 30 S 33.5 30, 35 30 S 38.5 30, 40 30 S 43.5 30, 45 30 S 48.5 30, 50 30 S 53.5 30, 55 30 S 58.5 30, 60 30 S 63.5 30, 65 30 S 68.5 30, 70 30 S 73.5 30, 75 30 S 78.5 30, 80 30 S 83.5 30, 85 30 S 88.5 30, 90 30 S 93.94 31.06, 95 30 S 98.5 20, 100 20 S 103.5 30, 105 30 S 109.33 21.34, 110 20 S 113.94 8.94, 115 10 S 119.33 28.66, 120 30 S 123.5 30, 125 30 S 128.5 30, 130 30 S 133.5 30, 135 30 S 139.33 31.34, 140 30 S 144.33 11.34, 145 10 S 149.33 8.66, 150 10 S 154.33 28.66, 155 30 S 158.5 30, 160 30 S 163.5 30, 165 30 S 168.5 30, 170 30 S 173.5 30, 175 30 S 178.5 30, 180 30 S 183.5 30, 185 30 S 188.5 30, 190 30 S 193.5 30, 195 30 S 198.5 30, 200 30"
          fill="none"/>
    <circle r="4" cx="5" cy="40" fill="#3023AE"/>
    <circle r="4" cx="200" cy="30" fill="#C86DD7"/>      
</svg>