<svg width="200" height="50" viewBox="0 0 210 50" xmlns="http://www.w3.org/2000/svg">
    <defs>
        <linearGradient x1="0%" y1="0%" x2="100%" y2="0%" id="a">
            <stop stop-color="#3023AE" offset="0%"/>
            <stop stop-color="#C86DD7" offset="100%"/>
        </linearGradient>
    </defs>
    <path stroke="url(#a)"
          stroke-width="3"
          stroke-linejoin="round"
          stroke-linecap="round"
          d="M5 40 C 6.29 39.24, 8.74 37.86, 10 37.05 S 13.52 33.83, 15 33.61 S 18.52 35.35, 20 35.57 S 23.51 34.93, 25 35.08 S 28.52 36.78, 30 36.56 S 33.51 33.76, 35 33.61 S 38.58 35.08, 40 35.57 S 43.74 37.86, 45 37.05 S 48.52 29.4, 50 29.18 S 53.74 34.76, 55 35.57 S 58.52 35.79, 60 35.57 S 63.56 33.68, 65 34.1 S 68.51 38.67, 70 38.52 S 73.71 33.87, 75 33.11 S 78.63 33.23, 80 32.62 S 83.54 28.33, 85 28.69 S 88.63 34.47, 90 35.08 S 93.63 33.72, 95 33.11 S 98.5 30.66, 100 30.66 S 103.51 32.96, 105 33.11 S 108.53 31.35, 110 31.64 S 113.52 34.86, 115 35.08 S 118.53 33.4, 120 33.11 S 123.6 33.66, 125 33.11 S 128.76 30.03, 130 29.18 S 133.5 26.23, 135 26.23 S 138.53 29.47, 140 29.18 S 143.51 24.11, 145 24.26 S 148.88 29.17, 150 30.16 S 153.65 33.77, 155 33.11 S 158.65 25.91, 160 25.25 S 163.53 28.49, 165 28.2 S 168.58 23.77, 170 23.28 S 173.58 25.24, 175 24.75 S 178.76 20.69, 180 19.84 S 183.6 18.42, 185 17.87 S 188.82 16.83, 190 15.9 S 193.65 10.66, 195 10 S 198.74 10.17, 200 10.98 S 203.98 15.29, 205 16.39"
          fill="none"/>
    <circle r="4" cx="5" cy="40" fill="#3023AE"/>
    <circle r="4" cx="205" cy="16.39" fill="#C86DD7"/>      
</svg>