<svg width="200" height="50" viewBox="0 0 210 50" xmlns="http://www.w3.org/2000/svg">
    <defs>
        <linearGradient x1="0%" y1="0%" x2="100%" y2="0%" id="a">
            <stop stop-color="#3023AE" offset="0%"/>
            <stop stop-color="#C86DD7" offset="100%"/>
        </linearGradient>
    </defs>
    <path stroke="url(#a)"
          stroke-width="3"
          stroke-linejoin="round"
          stroke-linecap="round"
          d="M5 40 C 6.31 39.28, 8.61 37.81, 10 37.25 S 13.5 36.04, 15 36 S 18.5 36.93, 20 37 S 23.5 36.43, 25 36.5 S 28.55 37.9, 30 37.5 S 33.5 33.82, 35 33.75 S 38.54 36.64, 40 37 S 43.5 36.18, 45 36.25 S 48.52 37.76, 50 37.5 S 53.65 35.14, 55 34.5 S 58.52 32.53, 60 32.75 S 63.5 35.96, 65 36 S 68.51 33.15, 70 33 S 73.58 34.5, 75 35 S 78.5 36.54, 80 36.5 S 83.74 35.57, 85 34.75 S 88.53 30.29, 90 30 S 93.5 32.79, 95 32.75 S 98.53 29.46, 100 29.75 S 103.5 34.79, 105 34.75 S 108.6 30.03, 110 29.5 S 113.52 31.22, 115 31 S 118.73 28.79, 120 28 S 123.71 25.52, 125 24.75 S 128.66 22.67, 130 22 S 133.5 19.64, 135 19.75 S 138.57 22.29, 140 22.75 S 143.6 23.53, 145 23 S 148.54 19.36, 150 19 S 153.69 19.78, 155 20.5 S 158.97 25.59, 160 24.5 S 163.74 10.82, 165 10 S 168.9 16.98, 170 18 S 173.5 19.21, 175 19.25 S 178.53 18.54, 180 18.25 S 183.53 17.54, 185 17.25 S 188.5 16.21, 190 16.25 S 193.51 17.65, 195 17.5 S 198.54 15.58, 200 15.25 S 203.5 15.25, 205 15.25"
          fill="none"/>
    <circle r="4" cx="5" cy="40" fill="#3023AE"/>
    <circle r="4" cx="205" cy="15.25" fill="#C86DD7"/>      
</svg>