<svg width="200" height="50" viewBox="0 0 210 50" xmlns="http://www.w3.org/2000/svg">
    <defs>
        <linearGradient x1="0%" y1="0%" x2="100%" y2="0%" id="a">
            <stop stop-color="#3023AE" offset="0%"/>
            <stop stop-color="#C86DD7" offset="100%"/>
        </linearGradient>
    </defs>
    <path stroke="url(#a)"
          stroke-width="3"
          stroke-linejoin="round"
          stroke-linecap="round"
          d="M5 40 C 6.37 39.38, 8.63 38.35, 10 37.73 S 13.5 35.53, 15 35.46 S 18.5 37.12, 20 37.23 S 23.5 36.15, 25 36.22 S 28.55 38.13, 30 37.73 S 33.5 33.56, 35 33.45 S 38.56 36.54, 40 36.97 S 43.5 36.39, 45 36.47 S 48.51 37.63, 50 37.48 S 53.66 36.14, 55 35.46 S 58.5 32.36, 60 32.44 S 63.5 35.86, 65 35.97 S 68.52 33.45, 70 33.19 S 73.56 33.77, 75 34.2 S 78.53 35.92, 80 36.22 S 83.56 36.65, 85 36.22 S 88.72 33.97, 90 33.19 S 93.56 30.6, 95 30.17 S 98.55 29.77, 100 30.17 S 103.51 32.75, 105 32.94 S 108.52 31.65, 110 31.43 S 113.6 31.96, 115 31.43 S 118.59 28.15, 120 27.65 S 123.7 28.65, 125 27.9 S 128.73 22.65, 130 21.85 S 133.5 21.64, 135 21.6 S 138.51 21.41, 140 21.6 S 143.5 22.94, 145 22.86 S 148.52 21.32, 150 21.09 S 153.56 20.91, 155 21.34 S 158.55 24.52, 160 24.12 S 164.13 19.79, 165 18.57 S 168.53 9.7, 170 10 S 173.88 19.6, 175 20.59 S 178.65 19.47, 180 18.82 S 183.5 15.84, 185 15.8 S 188.54 18.24, 190 18.57 S 193.55 18.44, 195 18.07 S 198.57 16.52, 200 16.05 S 203.55 15.16, 205 14.79"
          fill="none"/>
    <circle r="4" cx="5" cy="40" fill="#3023AE"/>
    <circle r="4" cx="205" cy="14.79" fill="#C86DD7"/>      
</svg>