<svg width="200" height="50" viewBox="0 0 210 50" xmlns="http://www.w3.org/2000/svg">
    <defs>
        <linearGradient x1="0%" y1="0%" x2="100%" y2="0%" id="a">
            <stop stop-color="#3023AE" offset="0%"/>
            <stop stop-color="#C86DD7" offset="100%"/>
        </linearGradient>
    </defs>
    <path stroke="url(#a)"
          stroke-width="3"
          stroke-linejoin="round"
          stroke-linecap="round"
          d="M5 40 C 6.38 39.41, 8.62 38.45, 10 37.86 S 13.5 35.78, 15 35.71 S 18.51 37.24, 20 37.38 S 23.5 36.63, 25 36.67 S 28.55 38, 30 37.62 S 33.5 34.16, 35 34.05 S 38.55 36.52, 40 36.9 S 43.52 36.46, 45 36.67 S 48.52 38.54, 50 38.33 S 53.7 35.98, 55 35.24 S 58.51 32.44, 60 32.62 S 63.51 36.25, 65 36.43 S 68.52 34.06, 70 33.81 S 73.53 34.48, 75 34.76 S 78.52 35.46, 80 35.71 S 83.53 36.74, 85 36.43 S 88.67 34.27, 90 33.57 S 93.56 31.6, 95 31.19 S 98.52 30.46, 100 30.71 S 103.52 32.61, 105 32.86 S 108.5 32.49, 110 32.38 S 113.61 32.7, 115 32.14 S 118.56 28.74, 120 28.33 S 123.63 29.91, 125 29.29 S 128.77 24.66, 130 23.81 S 133.53 22.66, 135 22.38 S 138.55 21.52, 140 21.9 S 143.5 25.11, 145 25 S 148.59 21.69, 150 21.19 S 153.62 20.84, 155 21.43 S 158.5 25.37, 160 25.48 S 164.19 23.4, 165 22.14 S 168.5 10.07, 170 10 S 173.9 20.65, 175 21.67 S 178.55 19.67, 180 19.29 S 183.5 19.02, 185 19.05 S 188.5 19.63, 190 19.52 S 193.51 18.54, 195 18.33 S 198.55 18.48, 200 18.1 S 203.65 16.36, 205 15.71"
          fill="none"/>
    <circle r="4" cx="5" cy="40" fill="#3023AE"/>
    <circle r="4" cx="205" cy="15.71" fill="#C86DD7"/>      
</svg>