<svg width="200" height="50" viewBox="0 0 210 50" xmlns="http://www.w3.org/2000/svg">
    <defs>
        <linearGradient x1="0%" y1="0%" x2="100%" y2="0%" id="a">
            <stop stop-color="#3023AE" offset="0%"/>
            <stop stop-color="#C86DD7" offset="100%"/>
        </linearGradient>
    </defs>
    <path stroke="url(#a)"
          stroke-width="3"
          stroke-linejoin="round"
          stroke-linecap="round"
          d="M5 40 C 5.26 38.52, 8.51 12.25, 10 12.11 S 14.49 37.65, 15 39.06 S 18.5 39.56, 20 39.65 S 23.5 39.62, 25 39.65 S 28.67 40.58, 30 39.88 S 33.56 34.78, 35 34.37 S 38.77 37.92, 40 37.07 S 43.81 28.37, 45 27.46 S 48.61 28.88, 50 29.45 S 53.54 31.23, 55 31.56 S 58.5 31.57, 60 31.68 S 63.5 32.27, 65 32.27 S 68.91 32.71, 70 31.68 S 73.59 23.28, 75 22.77 S 78.69 27.33, 80 28.05 S 83.52 28.02, 85 28.28 S 88.52 29.54, 90 29.8 S 93.55 29.65, 95 30.04 S 98.55 32.13, 100 32.5 S 103.53 32.93, 105 32.62 S 108.85 31.35, 110 30.39 S 113.65 24.96, 115 24.3 S 118.71 26.24, 120 25.47 S 123.9 19.34, 125 18.32 S 128.51 16.37, 130 16.21 S 133.65 16.61, 135 17.27 S 138.5 21.24, 140 21.13 S 143.51 16.75, 145 16.56 S 148.75 20.66, 150 19.84 S 153.5 9.89, 155 10 S 159.1 19.35, 160 20.55 S 163.52 23.1, 165 23.36 S 168.57 21.86, 170 22.3 S 173.64 25.77, 175 26.41 S 178.51 26.87, 180 26.99 S 183.5 27.3, 185 27.23 S 188.51 26.71, 190 26.52 S 193.64 26.58, 195 25.94 S 198.5 21.79, 200 21.84 S 203.88 25.29, 205 26.29"
          fill="none"/>
    <circle r="4" cx="5" cy="40" fill="#3023AE"/>
    <circle r="4" cx="205" cy="26.29" fill="#C86DD7"/>      
</svg>