<svg width="200" height="50" viewBox="0 0 210 50" xmlns="http://www.w3.org/2000/svg">
    <defs>
        <linearGradient x1="0%" y1="0%" x2="100%" y2="0%" id="a">
            <stop stop-color="#3023AE" offset="0%"/>
            <stop stop-color="#C86DD7" offset="100%"/>
        </linearGradient>
    </defs>
    <path stroke="url(#a)"
          stroke-width="3"
          stroke-linejoin="round"
          stroke-linecap="round"
          d="M5 40 C 5.43 38.56, 8.53 23.4, 10 23.12 S 14.17 36.87, 15 38.12 S 18.5 38.12, 20 38.12 S 23.53 38.4, 25 38.12 S 28.5 36.25, 30 36.25 S 33.53 37.84, 35 38.12 S 38.5 38.12, 40 38.12 S 43.69 38.85, 45 38.12 S 48.69 33.23, 50 32.5 S 53.53 32.78, 55 32.5 S 59.17 31.87, 60 30.62 S 63.91 18.53, 65 17.5 S 69.17 20, 70 21.25 S 73.91 31.47, 75 32.5 S 79.39 31.99, 80 30.62 S 83.69 10.73, 85 10 S 88.8 24.1, 90 25 S 93.91 16.47, 95 17.5 S 98.53 34.09, 100 34.37 S 103.69 20.1, 105 19.37 S 108.53 29.03, 110 28.75 S 113.53 17.78, 115 17.5 S 118.91 25.84, 120 26.87 S 123.8 27.77, 125 26.87 S 128.8 20.27, 130 19.37 S 133.5 19.37, 135 19.37 S 138.53 19.65, 140 19.37 S 144.24 16.21, 145 17.5 S 149.09 35.06, 150 36.25 S 153.53 30.9, 155 30.62 S 158.6 34.9, 160 34.37 S 163.53 27.15, 165 26.87 S 168.8 31.6, 170 32.5 S 174 35.49, 175 34.37 S 178.53 21.53, 180 21.25 S 183.53 32.78, 185 32.5 S 189.29 20.69, 190 19.37 S 193.69 14.48, 195 13.75 S 198.69 13.02, 200 13.75 S 204 18.25, 205 19.37"
          fill="none"/>
    <circle r="4" cx="5" cy="40" fill="#3023AE"/>
    <circle r="4" cx="205" cy="19.37" fill="#C86DD7"/>      
</svg>