<svg width="200" height="50" viewBox="0 0 210 50" xmlns="http://www.w3.org/2000/svg">
    <defs>
        <linearGradient x1="0%" y1="0%" x2="100%" y2="0%" id="a">
            <stop stop-color="#3023AE" offset="0%"/>
            <stop stop-color="#C86DD7" offset="100%"/>
        </linearGradient>
    </defs>
    <path stroke="url(#a)"
          stroke-width="3"
          stroke-linejoin="round"
          stroke-linecap="round"
          d="M5 40 C 5.41 38.56, 8.96 23.62, 10 22.54 S 13.7 28.95, 15 29.7 S 18.69 29.09, 20 28.36 S 23.52 24.36, 25 24.1 S 28.63 25.96, 30 26.57 S 33.63 27.97, 35 28.58 S 38.63 30.43, 40 31.04 S 43.67 32.37, 45 33.06 S 48.82 37.12, 50 36.19 S 53.67 25.91, 55 25.22 S 58.85 30.08, 60 31.04 S 63.51 33.34, 65 33.51 S 68.63 32.77, 70 32.16 S 73.55 29.42, 75 29.03 S 78.5 29.38, 80 29.48 S 83.5 29.73, 85 29.7 S 88.52 29.51, 90 29.25 S 93.74 28.73, 95 27.91 S 98.62 23.35, 100 22.76 S 103.55 23.27, 105 23.66 S 108.5 25.55, 110 25.45 S 113.73 23.79, 115 22.99 S 118.51 19.01, 120 19.18 S 123.73 23.3, 125 24.1 S 128.69 24.72, 130 25.45 S 133.67 30.39, 135 29.7 S 139.09 21.5, 140 20.3 S 143.96 17.57, 145 16.49 S 149.15 8.76, 150 10 S 154.32 29.7, 155 31.04 S 158.84 30.66, 160 29.7 S 163.51 22.96, 165 22.76 S 168.61 27.8, 170 28.36 S 173.56 26.37, 175 26.79 S 178.56 30.85, 180 31.27 S 183.51 29.9, 185 29.7 S 188.53 30.23, 190 29.93 S 193.58 28.17, 195 27.69 S 198.5 26.6, 200 26.57 S 203.52 27.2, 205 27.46"
          fill="none"/>
    <circle r="4" cx="5" cy="40" fill="#3023AE"/>
    <circle r="4" cx="205" cy="27.46" fill="#C86DD7"/>      
</svg>