<svg width="200" height="50" viewBox="0 0 210 50" xmlns="http://www.w3.org/2000/svg">
    <defs>
        <linearGradient x1="0%" y1="0%" x2="100%" y2="0%" id="a">
            <stop stop-color="#3023AE" offset="0%"/>
            <stop stop-color="#C86DD7" offset="100%"/>
        </linearGradient>
    </defs>
    <path stroke="url(#a)"
          stroke-width="3"
          stroke-linejoin="round"
          stroke-linecap="round"
          d="M5 40 C 6.5 39.99, 8.5 39.97, 10 39.97 S 13.5 39.97, 15 39.97 S 18.5 39.97, 20 39.97 S 23.5 39.97, 25 39.97 S 28.5 39.97, 30 39.97 S 33.5 39.97, 35 39.97 S 38.5 39.97, 40 39.97 S 43.5 39.97, 45 39.97 S 48.5 39.97, 50 39.97 S 53.5 39.97, 55 39.97 S 58.5 39.97, 60 39.97 S 63.5 39.97, 65 39.97 S 68.5 39.97, 70 39.97 S 74.53 41.39, 75 39.97 S 78.94 11.06, 80 10 S 84.24 28.64, 85 29.93 S 88.5 26.96, 90 27.06 S 93.84 29.63, 95 30.59 S 98.58 34.85, 100 35.33 S 103.55 34.32, 105 33.94 S 108.52 32.45, 110 32.7 S 113.63 35.01, 115 35.61 S 118.68 37.77, 120 37.06 S 123.55 30.65, 125 30.28 S 128.6 34, 130 34.53 S 133.5 34.04, 135 34.08 S 138.5 34.7, 140 34.81 S 143.51 34.97, 145 34.81 S 148.52 33.52, 150 33.77 S 153.51 36.29, 155 36.47 S 158.78 35.83, 160 34.95 S 163.5 29.35, 165 29.24 S 168.66 33.51, 170 34.19 S 173.5 34.32, 175 34.29 S 178.53 34.27, 180 33.98 S 183.5 32.38, 185 32.35 S 188.53 33.45, 190 33.77 S 193.5 34.51, 195 34.5 S 198.5 33.68, 200 33.67 S 203.52 34.23, 205 34.46"
          fill="none"/>
    <circle r="4" cx="5" cy="40" fill="#3023AE"/>
    <circle r="4" cx="205" cy="34.46" fill="#C86DD7"/>      
</svg>