<svg width="200" height="50" viewBox="0 0 210 50" xmlns="http://www.w3.org/2000/svg">
    <defs>
        <linearGradient x1="0%" y1="0%" x2="100%" y2="0%" id="a">
            <stop stop-color="#3023AE" offset="0%"/>
            <stop stop-color="#C86DD7" offset="100%"/>
        </linearGradient>
    </defs>
    <path stroke="url(#a)"
          stroke-width="3"
          stroke-linejoin="round"
          stroke-linecap="round"
          d="M5 40 C 5.25 38.52, 9.51 11.42, 10 10 S 13.94 10.29, 15 11.35 S 19.44 18.62, 20 20.01 S 24.19 35.02, 25 36.28 S 28.51 35.67, 30 35.48 S 33.5 35.04, 35 35.02 S 38.5 35.34, 40 35.37 S 43.5 35.19, 45 35.24 S 48.51 35.92, 50 35.73 S 53.52 34.14, 55 33.93 S 58.5 34.32, 60 34.29 S 63.51 33.83, 65 33.7 S 68.5 33.38, 70 33.41 S 73.5 33.83, 75 33.93 S 78.51 34.24, 80 34.1 S 83.51 33.14, 85 33 S 88.5 33.04, 90 33.16 S 93.5 33.74, 95 33.78 S 98.51 33.59, 100 33.46 S 103.53 33.18, 105 32.9 S 108.5 31.6, 110 31.59 S 113.71 33.57, 115 32.8 S 118.54 26, 120 25.64 S 123.71 29.59, 125 30.36 S 128.5 31.5, 130 31.6 S 133.76 30.17, 135 31.02 S 138.82 37.54, 140 38.47 S 143.5 38.85, 145 38.95 S 148.5 39.14, 150 39.14 S 153.5 38.93, 155 38.94 S 158.5 39.15, 160 39.22 S 163.5 39.42, 165 39.44 S 168.5 39.35, 170 39.36 S 173.5 39.44, 175 39.48 S 178.5 39.59, 180 39.61 S 183.5 39.62, 185 39.63 S 188.5 39.68, 190 39.67 S 193.5 39.58, 195 39.58 S 198.5 39.69, 200 39.69 S 203.5 39.63, 205 39.61"
          fill="none"/>
    <circle r="4" cx="5" cy="40" fill="#3023AE"/>
    <circle r="4" cx="205" cy="39.61" fill="#C86DD7"/>      
</svg>