<svg width="200" height="50" viewBox="0 0 210 50" xmlns="http://www.w3.org/2000/svg">
    <defs>
        <linearGradient x1="0%" y1="0%" x2="100%" y2="0%" id="a">
            <stop stop-color="#3023AE" offset="0%"/>
            <stop stop-color="#C86DD7" offset="100%"/>
        </linearGradient>
    </defs>
    <path stroke="url(#a)"
          stroke-width="3"
          stroke-linejoin="round"
          stroke-linecap="round"
          d="M5 40 C 5.25 38.52, 8.67 10.7, 10 10 S 14.5 33.29, 15 34.71 S 18.6 37.91, 20 38.45 S 23.5 38.47, 25 38.56 S 28.5 38.91, 30 39.02 S 33.5 39.34, 35 39.31 S 38.54 39.19, 40 38.85 S 43.54 37.35, 45 37.01 S 48.5 36.49, 50 36.49 S 53.5 36.91, 55 37.01 S 58.59 37.65, 60 37.13 S 63.52 33.58, 65 33.33 S 68.57 35.01, 70 35.46 S 73.55 36.1, 75 36.49 S 78.55 38.53, 80 38.16 S 83.5 34.03, 85 33.91 S 88.58 36.89, 90 37.36 S 93.5 37.23, 95 37.24 S 98.5 37.48, 100 37.41 S 103.5 36.75, 105 36.78 S 108.51 37.51, 110 37.64 S 113.51 37.82, 115 37.64 S 118.5 36.52, 120 36.44 S 123.5 37.04, 125 37.13 S 128.5 37.19, 130 37.07 S 133.5 36.35, 135 36.32 S 138.51 36.68, 140 36.84 S 143.5 37.38, 145 37.41 S 148.51 37.26, 150 37.07 S 153.5 36.22, 155 36.15 S 158.51 36.46, 160 36.61 S 163.52 37.36, 165 37.13 S 168.55 35.46, 170 35.06 S 173.5 34.27, 175 34.37 S 178.51 35.58, 180 35.75 S 183.5 35.54, 185 35.52 S 188.5 35.54, 190 35.63 S 193.51 36.29, 195 36.15 S 198.51 34.88, 200 34.71 S 203.5 34.91, 205 35"
          fill="none"/>
    <circle r="4" cx="5" cy="40" fill="#3023AE"/>
    <circle r="4" cx="205" cy="35" fill="#C86DD7"/>      
</svg>