<svg width="200" height="50" viewBox="0 0 210 50" xmlns="http://www.w3.org/2000/svg">
    <defs>
        <linearGradient x1="0%" y1="0%" x2="100%" y2="0%" id="a">
            <stop stop-color="#3023AE" offset="0%"/>
            <stop stop-color="#C86DD7" offset="100%"/>
        </linearGradient>
    </defs>
    <path stroke="url(#a)"
          stroke-width="3"
          stroke-linejoin="round"
          stroke-linecap="round"
          d="M5 40 C 6.5 40, 8.5 40, 10 40 S 13.5 40, 15 40 S 18.5 40, 20 40 S 23.5 40, 25 40 S 28.5 40, 30 40 S 33.5 40, 35 40 S 38.5 40, 40 40 S 43.5 40, 45 40 S 48.5 40, 50 40 S 53.5 40, 55 40 S 58.5 40, 60 40 S 63.5 40, 65 40 S 68.5 40, 70 40 S 73.5 40, 75 40 S 78.5 40, 80 40 S 83.5 40, 85 40 S 88.5 40, 90 40 S 93.5 40, 95 40 S 98.5 40, 100 40 S 103.5 40, 105 40 S 108.5 40, 110 40 S 114.53 41.42, 115 40 S 118.51 10.19, 120 10 S 124.51 37.29, 125 38.71 S 128.51 39.05, 130 39.17 S 133.5 39.61, 135 39.54 S 138.5 38.72, 140 38.72 S 143.5 39.46, 145 39.53 S 148.5 39.22, 150 39.21 S 153.5 39.44, 155 39.49 S 158.5 39.54, 160 39.54 S 163.5 39.51, 165 39.51 S 168.5 39.51, 170 39.53 S 173.5 39.66, 175 39.67 S 178.5 39.64, 180 39.63 S 183.5 39.59, 185 39.59 S 188.5 39.64, 190 39.66 S 193.5 39.72, 195 39.72 S 198.5 39.77, 200 39.67 S 203.51 39.21, 205 39.02"
          fill="none"/>
    <circle r="4" cx="5" cy="40" fill="#3023AE"/>
    <circle r="4" cx="205" cy="39.02" fill="#C86DD7"/>      
</svg>