<svg width="200" height="50" viewBox="0 0 210 50" xmlns="http://www.w3.org/2000/svg">
    <defs>
        <linearGradient x1="0%" y1="0%" x2="100%" y2="0%" id="a">
            <stop stop-color="#3023AE" offset="0%"/>
            <stop stop-color="#C86DD7" offset="100%"/>
        </linearGradient>
    </defs>
    <path stroke="url(#a)"
          stroke-width="3"
          stroke-linejoin="round"
          stroke-linecap="round"
          d="M5 40 C 5.66 38.65, 8.59 30.31, 10 29.8 S 13.82 37.31, 15 36.38 S 19.03 23.09, 20 21.94 S 24.04 25.71, 25 24.56 S 28.86 9.02, 30 10 S 34.41 31.81, 35 33.19 S 38.5 33.25, 40 33.27 S 43.5 33.25, 45 33.32 S 48.51 33.64, 50 33.77 S 53.5 34.06, 55 34.16 S 58.5 34.5, 60 34.47 S 63.5 33.94, 65 33.98 S 68.51 34.59, 70 34.77 S 73.5 35.14, 75 35.19 S 78.5 35.11, 80 35.1 S 83.5 35.09, 85 35.11 S 88.5 35.19, 90 35.25 S 93.5 35.55, 95 35.54 S 98.51 35.32, 100 35.19 S 103.5 34.74, 105 34.64 S 108.5 34.45, 110 34.52 S 113.51 34.94, 115 35.1 S 118.5 35.54, 120 35.59 S 123.5 35.44, 125 35.45 S 128.5 35.68, 130 35.63 S 133.5 35.14, 135 35.1 S 138.5 35.33, 140 35.39 S 143.5 35.44, 145 35.52 S 148.5 35.97, 150 35.95 S 153.5 35.43, 155 35.39 S 158.51 35.54, 160 35.67 S 163.5 36.22, 165 36.25 S 168.5 35.92, 170 35.89 S 173.5 35.97, 175 36.04 S 178.5 36.3, 180 36.34 S 183.5 36.24, 185 36.3 S 188.5 36.66, 190 36.73 S 193.5 36.72, 195 36.78 S 198.5 37.11, 200 37.16 S 203.5 37.13, 205 37.12"
          fill="none"/>
    <circle r="4" cx="5" cy="40" fill="#3023AE"/>
    <circle r="4" cx="205" cy="37.12" fill="#C86DD7"/>      
</svg>