<svg width="200" height="50" viewBox="0 0 210 50" xmlns="http://www.w3.org/2000/svg">
    <defs>
        <linearGradient x1="0%" y1="0%" x2="100%" y2="0%" id="a">
            <stop stop-color="#3023AE" offset="0%"/>
            <stop stop-color="#C86DD7" offset="100%"/>
        </linearGradient>
    </defs>
    <path stroke="url(#a)"
          stroke-width="3"
          stroke-linejoin="round"
          stroke-linecap="round"
          d="M5 40 C 6.5 39.91, 8.5 39.75, 10 39.71 S 13.5 39.71, 15 39.71 S 18.5 39.71, 20 39.71 S 23.5 39.71, 25 39.71 S 28.5 39.75, 30 39.71 S 33.51 39.59, 35 39.42 S 38.5 38.52, 40 38.56 S 43.5 39.62, 45 39.71 S 48.5 39.17, 50 39.13 S 53.5 39.38, 55 39.42 S 58.5 39.42, 60 39.42 S 63.58 39.91, 65 39.42 S 68.52 36.22, 70 35.96 S 73.51 37.86, 75 37.69 S 78.68 35.53, 80 34.81 S 83.55 32.59, 85 32.21 S 88.61 31.65, 90 32.21 S 94.38 37.62, 95 36.25 S 98.77 10.85, 100 10 S 104 28.21, 105 29.33 S 108.51 21.08, 110 21.25 S 113.97 29.39, 115 30.48 S 118.51 32.05, 120 31.92 S 123.5 29.62, 125 29.62 S 128.6 32.45, 130 31.92 S 133.5 25.96, 135 25.87 S 138.58 30.86, 140 31.35 S 143.5 29.29, 145 29.33 S 148.52 31.85, 150 31.63 S 153.72 28.66, 155 27.88 S 158.53 25.28, 160 25.58 S 163.5 29.9, 165 29.9 S 168.7 26.33, 170 25.58 S 173.55 24.51, 175 24.13 S 178.5 23.07, 180 22.98 S 183.5 23.52, 185 23.56 S 188.5 23.36, 190 23.27 S 193.5 23.02, 195 22.98 S 198.61 23.54, 200 22.98 S 203.83 19.88, 205 18.94"
          fill="none"/>
    <circle r="4" cx="5" cy="40" fill="#3023AE"/>
    <circle r="4" cx="205" cy="18.94" fill="#C86DD7"/>      
</svg>