<svg width="200" height="50" viewBox="0 0 210 50" xmlns="http://www.w3.org/2000/svg">
    <defs>
        <linearGradient x1="0%" y1="0%" x2="100%" y2="0%" id="a">
            <stop stop-color="#3023AE" offset="0%"/>
            <stop stop-color="#C86DD7" offset="100%"/>
        </linearGradient>
    </defs>
    <path stroke="url(#a)"
          stroke-width="3"
          stroke-linejoin="round"
          stroke-linecap="round"
          d="M5 40 C 5.74 38.69, 8.55 31.52, 10 31.12 S 13.77 36.36, 15 37.22 S 18.5 38.17, 20 38.13 S 23.5 36.9, 25 36.93 S 28.53 38.03, 30 38.31 S 33.51 38.7, 35 38.83 S 38.65 39.87, 40 39.21 S 43.55 34.34, 45 33.95 S 48.64 35.86, 50 36.49 S 53.54 38.26, 55 38.6 S 58.5 38.75, 60 38.8 S 63.5 39.01, 65 38.95 S 69.47 39.79, 70 38.39 S 74.36 13.83, 75 12.48 S 78.54 17.06, 80 17.39 S 84.09 13.57, 85 14.76 S 89.27 29.11, 90 30.42 S 93.62 32.14, 95 32.73 S 98.5 34.64, 100 34.71 S 103.52 33.43, 105 33.19 S 108.54 32.78, 110 33.11 S 113.54 35.09, 115 35.44 S 118.56 35.91, 120 35.5 S 123.62 33.18, 125 32.58 S 128.54 30.8, 130 31.15 S 133.6 34.4, 135 34.95 S 138.96 36.17, 140 35.09 S 143.79 25.51, 145 24.63 S 148.7 27.1, 150 27.85 S 154.27 31.73, 155 30.42 S 158.7 10.75, 160 10 S 164.4 23.28, 165 24.66 S 168.51 32.89, 170 33.05 S 173.6 26.29, 175 25.74 S 178.66 28.43, 180 29.1 S 183.53 30.39, 185 30.71 S 188.53 30.97, 190 31.27 S 193.51 32.9, 195 32.76 S 198.51 30.49, 200 30.3 S 203.54 31.13, 205 31.47"
          fill="none"/>
    <circle r="4" cx="5" cy="40" fill="#3023AE"/>
    <circle r="4" cx="205" cy="31.47" fill="#C86DD7"/>      
</svg>