<svg width="200" height="50" viewBox="0 0 210 50" xmlns="http://www.w3.org/2000/svg">
    <defs>
        <linearGradient x1="0%" y1="0%" x2="100%" y2="0%" id="a">
            <stop stop-color="#3023AE" offset="0%"/>
            <stop stop-color="#C86DD7" offset="100%"/>
        </linearGradient>
    </defs>
    <path stroke="url(#a)"
          stroke-width="3"
          stroke-linejoin="round"
          stroke-linecap="round"
          d="M5 40 C 6.49 39.87, 8.5 39.58, 10 39.55 S 13.5 39.74, 15 39.77 S 18.5 39.77, 20 39.77 S 23.5 39.77, 25 39.77 S 28.5 39.77, 30 39.77 S 33.5 39.77, 35 39.77 S 38.5 39.77, 40 39.77 S 43.5 39.77, 45 39.77 S 48.5 39.77, 50 39.77 S 53.5 39.77, 55 39.77 S 58.5 39.77, 60 39.77 S 63.5 39.77, 65 39.77 S 68.5 39.77, 70 39.77 S 73.5 39.77, 75 39.77 S 78.5 39.77, 80 39.77 S 83.5 39.77, 85 39.77 S 88.5 39.77, 90 39.77 S 93.5 39.77, 95 39.77 S 98.5 39.77, 100 39.77 S 103.5 39.77, 105 39.77 S 108.5 39.77, 110 39.77 S 113.5 39.77, 115 39.77 S 118.5 39.77, 120 39.77 S 123.5 39.77, 125 39.77 S 128.5 39.77, 130 39.77 S 133.5 39.77, 135 39.77 S 138.5 39.77, 140 39.77 S 143.5 39.77, 145 39.77 S 149.52 41.19, 150 39.77 S 154.48 11.41, 155 10 S 159.39 11.36, 160 12.73 S 164.33 30.93, 165 32.27 S 168.59 32.22, 170 32.73 S 173.72 36.69, 175 35.91 S 178.67 27.29, 180 26.59 S 183.9 29.66, 185 30.68 S 188.68 35.19, 190 35.91 S 193.51 36.28, 195 36.14 S 198.52 35.27, 200 35 S 203.51 34.52, 205 34.32"
          fill="none"/>
    <circle r="4" cx="5" cy="40" fill="#3023AE"/>
    <circle r="4" cx="205" cy="34.32" fill="#C86DD7"/>      
</svg>