<svg width="200" height="50" viewBox="0 0 210 50" xmlns="http://www.w3.org/2000/svg">
    <defs>
        <linearGradient x1="0%" y1="0%" x2="100%" y2="0%" id="a">
            <stop stop-color="#3023AE" offset="0%"/>
            <stop stop-color="#C86DD7" offset="100%"/>
        </linearGradient>
    </defs>
    <path stroke="url(#a)"
          stroke-width="3"
          stroke-linejoin="round"
          stroke-linecap="round"
          d="M5 40 C 5.25 38.52, 8.58 10.47, 10 10 S 14.47 35.27, 15 36.67 S 18.75 37.5, 20 36.67 S 23.58 30.48, 25 30 S 28.58 32.86, 30 33.33 S 33.58 32.85, 35 33.33 S 38.58 37.14, 40 36.67 S 43.58 30.48, 45 30 S 48.5 33.33, 50 33.33 S 53.58 29.52, 55 30 S 58.5 36.67, 60 36.67 S 63.5 30, 65 30 S 69.23 37.96, 70 36.67 S 73.58 13.81, 75 13.33 S 79.33 31.99, 80 33.33 S 83.58 33.8, 85 33.33 S 88.75 30.83, 90 30 S 93.75 25.84, 95 26.67 S 98.75 35.84, 100 36.67 S 103.5 33.33, 105 33.33 S 108.58 37.14, 110 36.67 S 113.5 30, 115 30 S 118.75 35.84, 120 36.67 S 123.5 36.67, 125 36.67 S 128.5 36.67, 130 36.67 S 133.5 36.67, 135 36.67 S 138.5 36.67, 140 36.67 S 143.5 36.67, 145 36.67 S 148.75 37.5, 150 36.67 S 153.5 30, 155 30 S 158.75 35.84, 160 36.67 S 163.5 36.67, 165 36.67 S 168.75 37.5, 170 36.67 S 173.75 30.83, 175 30 S 178.94 31.06, 180 30 S 183.75 19.17, 185 20 S 189.1 35.47, 190 36.67 S 193.5 33.33, 195 33.33 S 198.58 36.19, 200 36.67 S 203.5 36.67, 205 36.67"
          fill="none"/>
    <circle r="4" cx="5" cy="40" fill="#3023AE"/>
    <circle r="4" cx="205" cy="36.67" fill="#C86DD7"/>      
</svg>