<svg width="200" height="50" viewBox="0 0 210 50" xmlns="http://www.w3.org/2000/svg">
    <defs>
        <linearGradient x1="0%" y1="0%" x2="100%" y2="0%" id="a">
            <stop stop-color="#3023AE" offset="0%"/>
            <stop stop-color="#C86DD7" offset="100%"/>
        </linearGradient>
    </defs>
    <path stroke="url(#a)"
          stroke-width="3"
          stroke-linejoin="round"
          stroke-linecap="round"
          d="M5 40 C 6.48 39.74, 8.5 39.15, 10 39.12 S 13.54 40.17, 15 39.82 S 18.51 36.89, 20 36.75 S 23.62 39.44, 25 38.86 S 28.51 32.67, 30 32.54 S 33.69 37.25, 35 37.98 S 38.5 38.11, 40 38.16 S 43.64 38.95, 45 38.33 S 48.76 34.44, 50 33.6 S 53.53 31.27, 55 31.58 S 58.51 35.49, 60 35.7 S 64.15 34.22, 65 32.98 S 68.5 20.93, 70 21.05 S 74.15 32.53, 75 33.77 S 79.15 36.94, 80 35.7 S 83.6 19.67, 85 19.12 S 89.04 30.59, 90 31.75 S 93.51 31.36, 95 31.23 S 98.51 31.08, 100 30.88 S 104.33 31.25, 105 29.91 S 108.54 11.31, 110 10.96 S 113.78 26.67, 115 27.54 S 118.68 18.78, 120 18.07 S 123.93 21.13, 125 22.19 S 128.71 27.22, 130 27.98 S 133.51 27.9, 135 28.07 S 139.25 30.42, 140 29.12 S 143.75 11.71, 145 10.88 S 149.04 21.3, 150 22.46 S 154.06 24.15, 155 22.98 S 159.01 11.13, 160 10 S 164.05 10.42, 165 11.58 S 169.1 21.08, 170 22.28 S 173.58 24.5, 175 25 S 178.69 26.52, 180 25.79 S 183.53 19.75, 185 19.47 S 188.6 23.33, 190 23.86 S 193.58 23.75, 195 23.25 S 198.56 19.95, 200 20.35 S 204.01 24.92, 205 26.05"
          fill="none"/>
    <circle r="4" cx="5" cy="40" fill="#3023AE"/>
    <circle r="4" cx="205" cy="26.05" fill="#C86DD7"/>      
</svg>