<svg width="200" height="50" viewBox="0 0 210 50" xmlns="http://www.w3.org/2000/svg">
    <defs>
        <linearGradient x1="0%" y1="0%" x2="100%" y2="0%" id="a">
            <stop stop-color="#3023AE" offset="0%"/>
            <stop stop-color="#C86DD7" offset="100%"/>
        </linearGradient>
    </defs>
    <path stroke="url(#a)"
          stroke-width="3"
          stroke-linejoin="round"
          stroke-linecap="round"
          d="M5 40 C 6.48 39.76, 8.5 39.2, 10 39.18 S 13.54 40.17, 15 39.84 S 18.51 37.08, 20 36.96 S 23.54 39.34, 25 39.01 S 28.55 35.11, 30 34.74 S 33.58 35.99, 35 36.47 S 38.53 37.8, 40 38.11 S 43.59 39.11, 45 38.6 S 48.74 35.3, 50 34.49 S 53.54 31.84, 55 32.19 S 58.56 36.45, 60 36.88 S 64.09 36.34, 65 35.15 S 68.59 24.24, 70 23.73 S 74.02 30.39, 75 31.53 S 78.78 36.19, 80 35.32 S 83.59 24.88, 85 24.38 S 88.75 30.96, 90 31.78 S 93.5 31, 95 30.96 S 98.5 31.44, 100 31.53 S 103.51 31.37, 105 31.53 S 109.37 33.96, 110 32.6 S 113.55 10.38, 115 10 S 118.83 29.03, 120 29.97 S 123.71 18.81, 125 18.05 S 129.02 22.91, 130 24.05 S 133.65 29.08, 135 29.73 S 138.5 28.88, 140 28.9 S 144.23 31.18, 145 29.89 S 148.76 13.07, 150 12.22 S 154.07 21.89, 155 23.07 S 158.97 26.05, 160 24.96 S 164.06 13.64, 165 12.47 S 169.04 11.4, 170 12.55 S 174.11 23.26, 175 24.47 S 178.55 25.72, 180 26.11 S 183.67 27.87, 185 27.18 S 188.52 21.19, 190 20.93 S 193.6 24.92, 195 25.45 S 198.58 25.18, 200 24.71 S 203.66 22.84, 205 22.16"
          fill="none"/>
    <circle r="4" cx="5" cy="40" fill="#3023AE"/>
    <circle r="4" cx="205" cy="22.16" fill="#C86DD7"/>      
</svg>