<svg width="200" height="50" viewBox="0 0 210 50" xmlns="http://www.w3.org/2000/svg">
    <defs>
        <linearGradient x1="0%" y1="0%" x2="100%" y2="0%" id="a">
            <stop stop-color="#3023AE" offset="0%"/>
            <stop stop-color="#C86DD7" offset="100%"/>
        </linearGradient>
    </defs>
    <path stroke="url(#a)"
          stroke-width="3"
          stroke-linejoin="round"
          stroke-linecap="round"
          d="M5 40 C 6.48 39.75, 8.5 39.2, 10 39.17 S 13.53 40.15, 15 39.83 S 18.51 37.15, 20 37.02 S 23.54 39.27, 25 38.93 S 28.54 35.07, 30 34.71 S 33.58 35.97, 35 36.45 S 38.53 37.78, 40 38.1 S 43.59 39.11, 45 38.6 S 48.73 35.27, 50 34.46 S 53.54 31.88, 55 32.23 S 58.56 36.45, 60 36.86 S 64.07 36.22, 65 35.04 S 68.61 24.76, 70 24.21 S 74 29.95, 75 31.07 S 78.76 36.22, 80 35.37 S 83.59 24.73, 85 24.21 S 88.76 30.81, 90 31.65 S 93.5 31.03, 95 30.99 S 98.5 31.33, 100 31.4 S 103.51 31.32, 105 31.49 S 109.37 33.92, 110 32.56 S 113.54 10.35, 115 10 S 118.81 29.26, 120 30.17 S 123.73 18.39, 125 17.6 S 129.05 22.81, 130 23.97 S 133.66 29.16, 135 29.83 S 138.5 28.94, 140 28.93 S 144.23 31.04, 145 29.75 S 148.75 12.9, 150 12.07 S 154.08 21.87, 155 23.06 S 158.99 26.07, 160 24.96 S 164.02 13.28, 165 12.15 S 168.99 12.28, 170 13.39 S 174.08 22.04, 175 23.22 S 178.61 25.64, 180 26.2 S 183.67 27.95, 185 27.27 S 188.52 21.29, 190 21.07 S 193.56 25.36, 195 25.79 S 198.61 24.62, 200 24.05 S 203.65 22.3, 205 21.65"
          fill="none"/>
    <circle r="4" cx="5" cy="40" fill="#3023AE"/>
    <circle r="4" cx="205" cy="21.65" fill="#C86DD7"/>      
</svg>