<svg width="200" height="50" viewBox="0 0 210 50" xmlns="http://www.w3.org/2000/svg">
    <defs>
        <linearGradient x1="0%" y1="0%" x2="100%" y2="0%" id="a">
            <stop stop-color="#3023AE" offset="0%"/>
            <stop stop-color="#C86DD7" offset="100%"/>
        </linearGradient>
    </defs>
    <path stroke="url(#a)"
          stroke-width="3"
          stroke-linejoin="round"
          stroke-linecap="round"
          d="M5 40 C 6.48 39.75, 8.5 39.2, 10 39.17 S 13.53 40.15, 15 39.83 S 18.51 37.12, 20 37 S 23.54 39.36, 25 39 S 28.54 34.86, 30 34.5 S 33.59 35.98, 35 36.5 S 38.53 37.88, 40 38.17 S 43.6 39.03, 45 38.5 S 48.74 35.23, 50 34.42 S 53.53 31.76, 55 32.08 S 58.57 36.12, 60 36.58 S 64.14 36.56, 65 35.33 S 68.56 22.59, 70 22.17 S 74.09 31.23, 75 32.42 S 78.92 36.37, 80 35.33 S 83.54 23.08, 85 22.75 S 88.78 32.21, 90 33.08 S 93.51 30.07, 95 29.92 S 98.51 31.88, 100 32.08 S 103.5 31.24, 105 31.25 S 109.36 33.53, 110 32.17 S 113.85 10.97, 115 10 S 119.09 22.56, 120 23.75 S 123.5 23.09, 125 23 S 128.79 22.29, 130 23.17 S 133.75 29.43, 135 30.25 S 138.72 30.53, 140 29.75 S 144.11 25.38, 145 24.17 S 148.52 16.43, 150 16.17 S 153.55 22.03, 155 22.42 S 158.73 19.62, 160 18.83 S 163.67 16.87, 165 16.17 S 168.88 12.59, 170 13.58 S 174.07 23.82, 175 25 S 178.5 26.26, 180 26.25 S 183.65 25.56, 185 24.92 S 188.5 21.5, 190 21.5 S 193.57 24.47, 195 24.92 S 198.6 25.21, 200 24.67 S 203.78 21.95, 205 21.08"
          fill="none"/>
    <circle r="4" cx="5" cy="40" fill="#3023AE"/>
    <circle r="4" cx="205" cy="21.08" fill="#C86DD7"/>      
</svg>