<svg width="200" height="50" viewBox="0 0 210 50" xmlns="http://www.w3.org/2000/svg">
    <defs>
        <linearGradient x1="0%" y1="0%" x2="100%" y2="0%" id="a">
            <stop stop-color="#3023AE" offset="0%"/>
            <stop stop-color="#C86DD7" offset="100%"/>
        </linearGradient>
    </defs>
    <path stroke="url(#a)"
          stroke-width="3"
          stroke-linejoin="round"
          stroke-linecap="round"
          d="M5 40 C 6.48 39.75, 8.5 39.2, 10 39.17 S 13.53 40.15, 15 39.83 S 18.51 37.14, 20 37.02 S 23.53 39.33, 25 39.01 S 28.56 35.27, 30 34.86 S 33.57 35.73, 35 36.19 S 38.54 37.74, 40 38.09 S 43.59 39.1, 45 38.59 S 48.73 35.24, 50 34.45 S 53.54 32.05, 55 32.38 S 58.55 36.31, 60 36.69 S 64.06 36.2, 65 35.03 S 68.61 24.91, 70 24.34 S 74 29.77, 75 30.88 S 78.74 36.26, 80 35.44 S 83.6 24.88, 85 24.34 S 88.75 30.72, 90 31.55 S 93.5 31.01, 95 30.97 S 98.5 31.21, 100 31.3 S 103.51 31.38, 105 31.55 S 109.37 33.82, 110 32.46 S 113.53 10.3, 115 10 S 118.8 29.49, 120 30.39 S 123.75 18.28, 125 17.46 S 129.05 22.68, 130 23.84 S 133.67 29.02, 135 29.72 S 138.5 29.16, 140 29.14 S 144.22 30.84, 145 29.56 S 148.78 13.52, 150 12.65 S 154.05 21.27, 155 22.43 S 158.95 26, 160 24.92 S 163.99 13.26, 165 12.15 S 168.99 12.79, 170 13.9 S 174.03 21.94, 175 23.09 S 178.61 25.19, 180 25.75 S 183.64 27.78, 185 27.15 S 188.51 21.25, 190 21.1 S 193.56 25.73, 195 26.16 S 198.65 24.75, 200 24.09 S 203.69 22.01, 205 21.27"
          fill="none"/>
    <circle r="4" cx="5" cy="40" fill="#3023AE"/>
    <circle r="4" cx="205" cy="21.27" fill="#C86DD7"/>      
</svg>