<svg width="200" height="50" viewBox="0 0 210 50" xmlns="http://www.w3.org/2000/svg">
    <defs>
        <linearGradient x1="0%" y1="0%" x2="100%" y2="0%" id="a">
            <stop stop-color="#3023AE" offset="0%"/>
            <stop stop-color="#C86DD7" offset="100%"/>
        </linearGradient>
    </defs>
    <path stroke="url(#a)"
          stroke-width="3"
          stroke-linejoin="round"
          stroke-linecap="round"
          d="M5 40 C 6.48 39.75, 8.5 39.2, 10 39.17 S 13.54 40.16, 15 39.83 S 18.51 37.05, 20 36.93 S 23.54 39.34, 25 39.01 S 28.55 35.07, 30 34.7 S 33.58 35.96, 35 36.44 S 38.53 37.79, 40 38.09 S 43.59 39.01, 45 38.51 S 48.74 35.34, 50 34.53 S 53.54 31.8, 55 32.13 S 58.57 36.33, 60 36.77 S 64.13 36.41, 65 35.19 S 68.57 23.2, 70 22.76 S 74.07 30.95, 75 32.13 S 78.84 36.39, 80 35.44 S 83.59 24.51, 85 24.01 S 88.76 31.04, 90 31.88 S 93.5 30.85, 95 30.8 S 98.5 31.45, 100 31.55 S 103.5 31.39, 105 31.46 S 109.37 33.4, 110 32.04 S 113.58 10.47, 115 10 S 118.9 27.71, 120 28.73 S 123.67 19.98, 125 19.28 S 128.97 22.34, 130 23.43 S 133.69 29.07, 135 29.81 S 138.5 29.1, 140 29.06 S 144.23 30.85, 145 29.56 S 148.77 13.1, 150 12.24 S 154 21.39, 155 22.51 S 158.9 24.45, 160 23.43 S 164 14.43, 165 13.31 S 169.03 11.01, 170 12.15 S 174.11 23.87, 175 25.08 S 178.53 25.36, 180 25.66 S 183.66 27.82, 185 27.15 S 188.52 20.96, 190 20.69 S 193.61 24.77, 195 25.33 S 198.58 25.23, 200 24.75 S 203.69 22.67, 205 21.93"
          fill="none"/>
    <circle r="4" cx="5" cy="40" fill="#3023AE"/>
    <circle r="4" cx="205" cy="21.93" fill="#C86DD7"/>      
</svg>