<svg width="200" height="50" viewBox="0 0 210 50" xmlns="http://www.w3.org/2000/svg">
    <defs>
        <linearGradient x1="0%" y1="0%" x2="100%" y2="0%" id="a">
            <stop stop-color="#3023AE" offset="0%"/>
            <stop stop-color="#C86DD7" offset="100%"/>
        </linearGradient>
    </defs>
    <path stroke="url(#a)"
          stroke-width="3"
          stroke-linejoin="round"
          stroke-linecap="round"
          d="M5 40 C 6.48 39.75, 8.5 39.2, 10 39.17 S 13.54 40.16, 15 39.83 S 18.51 37.06, 20 36.94 S 23.54 39.34, 25 39.01 S 28.55 35.08, 30 34.71 S 33.58 35.97, 35 36.45 S 38.53 37.8, 40 38.1 S 43.59 39.01, 45 38.51 S 48.73 35.35, 50 34.55 S 53.53 31.84, 55 32.15 S 58.57 36.24, 60 36.69 S 64.13 36.51, 65 35.29 S 68.57 23.17, 70 22.73 S 74.07 31.05, 75 32.23 S 78.84 36.41, 80 35.45 S 83.59 24.47, 85 23.97 S 88.77 31.04, 90 31.9 S 93.5 30.96, 95 30.91 S 98.5 31.5, 100 31.57 S 103.5 31.31, 105 31.4 S 109.36 33.51, 110 32.15 S 113.6 10.53, 115 10 S 118.93 27.3, 120 28.35 S 123.66 20.51, 125 19.83 S 128.94 22.25, 130 23.31 S 133.71 29.07, 135 29.83 S 138.5 29.21, 140 29.17 S 144.24 30.88, 145 29.59 S 148.78 13.11, 150 12.23 S 153.98 21.3, 155 22.4 S 158.9 24.07, 160 23.06 S 163.94 14.28, 165 13.22 S 169.03 11.91, 170 13.06 S 174.07 23.86, 175 25.04 S 178.52 25.43, 180 25.7 S 183.64 27.49, 185 26.86 S 188.52 21.29, 190 21.07 S 193.58 24.88, 195 25.37 S 198.57 24.99, 200 24.55 S 203.63 22.92, 205 22.31"
          fill="none"/>
    <circle r="4" cx="5" cy="40" fill="#3023AE"/>
    <circle r="4" cx="205" cy="22.31" fill="#C86DD7"/>      
</svg>