<svg width="200" height="50" viewBox="0 0 210 50" xmlns="http://www.w3.org/2000/svg">
    <defs>
        <linearGradient x1="0%" y1="0%" x2="100%" y2="0%" id="a">
            <stop stop-color="#3023AE" offset="0%"/>
            <stop stop-color="#C86DD7" offset="100%"/>
        </linearGradient>
    </defs>
    <path stroke="url(#a)"
          stroke-width="3"
          stroke-linejoin="round"
          stroke-linecap="round"
          d="M5 40 C 6.48 39.75, 8.5 39.18, 10 39.15 S 13.54 40.16, 15 39.83 S 18.51 37.06, 20 36.93 S 23.55 39.36, 25 38.98 S 28.54 34.65, 30 34.29 S 33.6 35.97, 35 36.51 S 38.53 37.84, 40 38.12 S 43.6 38.91, 45 38.38 S 48.75 35.2, 50 34.37 S 53.54 31.39, 55 31.73 S 58.58 36.18, 60 36.68 S 64.17 36.48, 65 35.23 S 68.56 22.01, 70 21.59 S 74.11 31.13, 75 32.33 S 78.95 36.13, 80 35.06 S 83.53 22.4, 85 22.1 S 88.78 32.14, 90 33.01 S 93.5 29.35, 95 29.26 S 98.52 32.17, 100 32.41 S 103.51 31.01, 105 30.88 S 109.35 32.91, 110 31.56 S 113.96 11.08, 115 10 S 119.13 20.03, 120 21.25 S 123.54 23.64, 125 23.98 S 128.7 22.8, 130 23.55 S 133.7 29.02, 135 29.77 S 138.81 30.26, 140 29.35 S 144.02 23.24, 145 22.1 S 148.5 17.81, 150 17.76 S 153.55 22.14, 155 21.76 S 158.59 15.62, 160 15.11 S 163.54 18.52, 165 18.18 S 168.77 11.95, 170 12.81 S 174.08 23.99, 175 25.17 S 178.52 25.84, 180 25.6 S 183.56 23.97, 185 23.55 S 188.5 22.64, 190 22.7 S 193.51 24.15, 195 23.98 S 198.51 21.78, 200 21.59 S 203.54 22.37, 205 22.7"
          fill="none"/>
    <circle r="4" cx="5" cy="40" fill="#3023AE"/>
    <circle r="4" cx="205" cy="22.7" fill="#C86DD7"/>      
</svg>