<svg width="200" height="50" viewBox="0 0 210 50" xmlns="http://www.w3.org/2000/svg">
    <defs>
        <linearGradient x1="0%" y1="0%" x2="100%" y2="0%" id="a">
            <stop stop-color="#3023AE" offset="0%"/>
            <stop stop-color="#C86DD7" offset="100%"/>
        </linearGradient>
    </defs>
    <path stroke="url(#a)"
          stroke-width="3"
          stroke-linejoin="round"
          stroke-linecap="round"
          d="M5 40 C 6.48 39.77, 8.5 39.27, 10 39.21 S 13.54 39.9, 15 39.57 S 18.72 37.71, 20 36.93 S 23.5 33.39, 25 33.5 S 28.65 36.98, 30 37.64 S 33.68 39.08, 35 38.36 S 38.62 32.79, 40 32.21 S 43.55 33.75, 45 34.14 S 49.07 36.1, 50 34.93 S 53.5 21.63, 55 21.57 S 58.51 34.36, 60 34.5 S 63.57 22.95, 65 22.5 S 68.84 30.41, 70 31.36 S 73.54 30.98, 75 30.64 S 79.21 30.28, 80 29 S 83.78 15.38, 85 14.5 S 88.78 20.92, 90 21.79 S 93.61 21, 95 21.57 S 98.79 24.98, 100 25.86 S 103.97 29.95, 105 28.86 S 108.87 16.35, 110 15.36 S 113.5 20.04, 115 20.14 S 118.95 17.07, 120 16 S 123.73 9.2, 125 10 S 129.15 21.06, 130 22.29 S 133.51 24.59, 135 24.43 S 138.52 21.44, 140 21.21 S 143.51 23.02, 145 22.86 S 148.5 20.04, 150 20.14 S 153.57 23.04, 155 23.5 S 158.58 22.86, 160 23.36 S 163.59 26.49, 165 27 S 168.53 27.31, 170 27 S 173.55 25.25, 175 24.86 S 178.59 23.77, 180 24.29 S 183.6 28.03, 185 28.57 S 188.5 28.12, 190 28.14 S 193.51 28.88, 195 28.71 S 198.5 26.96, 200 27 S 203.61 28.44, 205 29"
          fill="none"/>
    <circle r="4" cx="5" cy="40" fill="#3023AE"/>
    <circle r="4" cx="205" cy="29" fill="#C86DD7"/>      
</svg>