<svg width="200" height="50" viewBox="0 0 210 50" xmlns="http://www.w3.org/2000/svg">
    <defs>
        <linearGradient x1="0%" y1="0%" x2="100%" y2="0%" id="a">
            <stop stop-color="#3023AE" offset="0%"/>
            <stop stop-color="#C86DD7" offset="100%"/>
        </linearGradient>
    </defs>
    <path stroke="url(#a)"
          stroke-width="3"
          stroke-linejoin="round"
          stroke-linecap="round"
          d="M5 40 C 6.48 39.76, 8.5 39.23, 10 39.18 S 13.54 40.03, 15 39.67 S 18.5 36.79, 20 36.7 S 23.61 39.66, 25 39.09 S 28.52 32.8, 30 32.58 S 33.7 36.87, 35 37.61 S 38.55 38.66, 40 38.27 S 43.73 35.69, 45 34.89 S 48.51 31.81, 50 32.01 S 53.56 35.79, 55 36.21 S 59.21 36.17, 60 34.89 S 63.51 20.26, 65 20.05 S 69.19 32.23, 70 33.49 S 74.09 36.75, 75 35.55 S 78.61 20.87, 80 20.3 S 83.96 30.35, 85 31.43 S 88.51 30.72, 90 30.6 S 93.51 30.45, 95 30.6 S 99.34 32.94, 100 31.59 S 103.98 11.1, 105 10 S 109.02 19.66, 110 20.8 S 113.69 20.9, 115 21.62 S 118.73 25.52, 120 26.32 S 123.54 27.53, 125 27.88 S 129.18 29.97, 130 28.71 S 133.77 13.33, 135 12.47 S 138.97 20.61, 140 21.7 S 143.99 24.21, 145 23.1 S 148.96 11.74, 150 10.66 S 154.13 11.58, 155 12.8 S 159.04 23.44, 160 24.59 S 163.57 25.29, 165 24.84 S 168.51 21.63, 170 21.46 S 173.53 23.39, 175 23.68 S 178.57 23.89, 180 23.43 S 183.5 20.37, 185 20.47 S 188.52 23.83, 190 24.09 S 193.61 21.65, 195 22.2 S 198.69 27.33, 200 28.05 S 203.5 27.82, 205 27.72"
          fill="none"/>
    <circle r="4" cx="5" cy="40" fill="#3023AE"/>
    <circle r="4" cx="205" cy="27.72" fill="#C86DD7"/>      
</svg>