<svg width="200" height="50" viewBox="0 0 210 50" xmlns="http://www.w3.org/2000/svg">
    <defs>
        <linearGradient x1="0%" y1="0%" x2="100%" y2="0%" id="a">
            <stop stop-color="#3023AE" offset="0%"/>
            <stop stop-color="#C86DD7" offset="100%"/>
        </linearGradient>
    </defs>
    <path stroke="url(#a)"
          stroke-width="3"
          stroke-linejoin="round"
          stroke-linecap="round"
          d="M5 40 C 6.48 39.77, 8.5 39.3, 10 39.24 S 13.54 39.91, 15 39.58 S 18.7 37.77, 20 37.02 S 23.5 33.66, 25 33.76 S 28.64 37.08, 30 37.71 S 33.66 39.09, 35 38.41 S 38.61 33.15, 40 32.59 S 43.55 34, 45 34.39 S 49.04 36.44, 50 35.29 S 53.51 22.63, 55 22.47 S 58.53 33.97, 60 34.25 S 63.58 24.81, 65 24.34 S 68.76 30.08, 70 30.92 S 73.51 31.32, 75 31.13 S 79.17 30.86, 80 29.61 S 83.52 16.33, 85 16.1 S 88.52 27.85, 90 28.08 S 93.57 18.06, 95 17.62 S 98.99 23.92, 100 25.03 S 103.57 29.03, 105 28.57 S 108.85 22.74, 110 21.78 S 113.51 20.43, 115 20.25 S 118.95 21.67, 120 20.6 S 123.6 10.54, 125 10 S 129.16 15.48, 130 16.72 S 133.79 23.8, 135 24.69 S 138.52 24.31, 140 24.06 S 143.53 23.31, 145 23.03 S 148.54 22.52, 150 22.19 S 153.52 20.54, 155 20.81 S 158.75 23.16, 160 24 S 163.6 26.98, 165 27.53 S 168.5 27.99, 170 27.94 S 173.66 27.86, 175 27.18 S 178.5 22.86, 180 22.89 S 183.73 26.59, 185 27.39 S 188.52 28.95, 190 29.19 S 193.51 29.11, 195 28.98 S 198.51 28.48, 200 28.29 S 203.51 27.85, 205 27.67"
          fill="none"/>
    <circle r="4" cx="5" cy="40" fill="#3023AE"/>
    <circle r="4" cx="205" cy="27.67" fill="#C86DD7"/>      
</svg>