<svg width="200" height="50" viewBox="0 0 210 50" xmlns="http://www.w3.org/2000/svg">
    <defs>
        <linearGradient x1="0%" y1="0%" x2="100%" y2="0%" id="a">
            <stop stop-color="#3023AE" offset="0%"/>
            <stop stop-color="#C86DD7" offset="100%"/>
        </linearGradient>
    </defs>
    <path stroke="url(#a)"
          stroke-width="3"
          stroke-linejoin="round"
          stroke-linecap="round"
          d="M5 40 C 6.48 39.74, 8.5 39.16, 10 39.12 S 13.55 40.12, 15 39.73 S 18.5 36.55, 20 36.46 S 23.62 39.71, 25 39.12 S 28.51 32.42, 30 32.21 S 33.7 36.95, 35 37.7 S 38.51 38.14, 40 37.96 S 43.67 37.15, 45 36.46 S 48.55 33.12, 50 32.74 S 53.55 33.42, 55 33.81 S 58.85 36.37, 60 35.4 S 63.83 26.34, 65 25.4 S 68.89 26.35, 70 27.35 S 73.57 34.89, 75 34.42 S 78.62 24.67, 80 24.07 S 83.69 29.35, 85 30.09 S 88.5 29.64, 90 29.73 S 93.5 30.63, 95 30.71 S 98.51 30.47, 100 30.27 S 104.34 30.73, 105 29.38 S 108.96 11.08, 110 10 S 113.99 17.92, 115 19.03 S 118.76 20.22, 120 21.06 S 123.78 24.97, 125 25.84 S 128.52 27.99, 130 28.23 S 134.18 28.69, 135 27.43 S 138.58 13.41, 140 12.92 S 143.71 23.21, 145 23.98 S 149.07 20.12, 150 18.94 S 153.88 12.33, 155 11.33 S 158.95 8.93, 160 10 S 164.14 20.27, 165 21.5 S 168.61 23.69, 170 24.25 S 173.67 26.17, 175 25.49 S 178.55 19.52, 180 19.12 S 183.59 22.22, 185 22.74 S 188.6 23.37, 190 22.83 S 193.61 18.28, 195 18.85 S 198.54 26.58, 200 26.9 S 204.02 22.2, 205 21.06"
          fill="none"/>
    <circle r="4" cx="5" cy="40" fill="#3023AE"/>
    <circle r="4" cx="205" cy="21.06" fill="#C86DD7"/>      
</svg>