<svg width="200" height="50" viewBox="0 0 210 50" xmlns="http://www.w3.org/2000/svg">
    <defs>
        <linearGradient x1="0%" y1="0%" x2="100%" y2="0%" id="a">
            <stop stop-color="#3023AE" offset="0%"/>
            <stop stop-color="#C86DD7" offset="100%"/>
        </linearGradient>
    </defs>
    <path stroke="url(#a)"
          stroke-width="3"
          stroke-linejoin="round"
          stroke-linecap="round"
          d="M5 40 C 6.48 39.73, 8.5 39.12, 10 39.09 S 13.54 40.18, 15 39.82 S 18.51 36.77, 20 36.65 S 23.57 39.44, 25 39 S 28.54 33.92, 30 33.56 S 33.63 35.94, 35 36.56 S 38.52 37.86, 40 38.1 S 43.61 38.76, 45 38.19 S 48.78 34.89, 50 34.02 S 53.54 30.67, 55 31.03 S 58.6 35.94, 60 36.47 S 64.26 36.13, 65 34.83 S 68.52 19.24, 70 18.97 S 74.21 31.74, 75 33.02 S 79.07 36.28, 80 35.11 S 83.6 20.95, 85 20.42 S 88.9 30.28, 90 31.3 S 93.51 29.49, 95 29.67 S 98.51 32.63, 100 32.48 S 103.54 29.01, 105 28.67 S 109.29 31.44, 110 30.12 S 113.99 11.11, 115 10 S 119.04 18, 120 19.15 S 123.67 21.26, 125 21.96 S 128.81 23.5, 130 24.41 S 133.55 29.21, 135 29.58 S 138.97 28.04, 140 26.95 S 143.83 19.91, 145 18.97 S 148.5 18.9, 150 18.97 S 153.69 20.16, 155 19.43 S 158.67 14.14, 160 13.44 S 163.5 14.07, 165 14.17 S 168.94 13.02, 170 14.08 S 173.99 23.12, 175 24.23 S 178.52 25.41, 180 25.14 S 183.64 23.06, 185 22.42 S 188.51 20.22, 190 20.42 S 193.5 23.83, 195 23.78 S 198.51 20.2, 200 20.06 S 203.69 22.14, 205 22.87"
          fill="none"/>
    <circle r="4" cx="5" cy="40" fill="#3023AE"/>
    <circle r="4" cx="205" cy="22.87" fill="#C86DD7"/>      
</svg>