<svg width="200" height="50" viewBox="0 0 210 50" xmlns="http://www.w3.org/2000/svg">
    <defs>
        <linearGradient x1="0%" y1="0%" x2="100%" y2="0%" id="a">
            <stop stop-color="#3023AE" offset="0%"/>
            <stop stop-color="#C86DD7" offset="100%"/>
        </linearGradient>
    </defs>
    <path stroke="url(#a)"
          stroke-width="3"
          stroke-linejoin="round"
          stroke-linecap="round"
          d="M5 40 C 5.96 38.85, 8.53 34.29, 10 34 S 13.61 37.44, 15 38 S 18.5 38, 20 38 S 23.5 38, 25 38 S 28.5 38, 30 38 S 33.53 38.29, 35 38 S 38.61 36.56, 40 36 S 43.83 34.94, 45 34 S 48.61 27.44, 50 28 S 53.83 37.06, 55 38 S 58.71 36.77, 60 36 S 63.71 32.77, 65 32 S 68.61 29.44, 70 30 S 73.53 36.29, 75 36 S 78.61 28.56, 80 28 S 83.71 31.23, 85 32 S 88.53 34.29, 90 34 S 93.53 30.29, 95 30 S 98.71 31.23, 100 32 S 103.53 35.71, 105 36 S 108.5 34, 110 34 S 113.53 35.71, 115 36 S 118.94 37.06, 120 36 S 123.71 26.77, 125 26 S 128.94 28.94, 130 30 S 133.61 35.44, 135 36 S 138.5 34, 140 34 S 143.53 35.71, 145 36 S 148.61 36.56, 150 36 S 153.83 32.94, 155 32 S 158.71 28.77, 160 28 S 163.71 26.77, 165 26 S 168.61 21.44, 170 22 S 173.94 31.06, 175 30 S 178.71 12.77, 180 12 S 184.33 22.66, 185 24 S 188.61 31.44, 190 32 S 193.53 27.71, 195 28 S 199.27 35.31, 200 34 S 204.69 11.47, 205 10"
          fill="none"/>
    <circle r="4" cx="5" cy="40" fill="#3023AE"/>
    <circle r="4" cx="205" cy="10" fill="#C86DD7"/>      
</svg>