<svg width="200" height="50" viewBox="0 0 210 50" xmlns="http://www.w3.org/2000/svg">
    <defs>
        <linearGradient x1="0%" y1="0%" x2="100%" y2="0%" id="a">
            <stop stop-color="#3023AE" offset="0%"/>
            <stop stop-color="#C86DD7" offset="100%"/>
        </linearGradient>
    </defs>
    <path stroke="url(#a)"
          stroke-width="3"
          stroke-linejoin="round"
          stroke-linecap="round"
          d="M5 40 C 5.88 38.78, 8.54 33.42, 10 33.08 S 13.64 37.06, 15 37.69 S 18.5 37.69, 20 37.69 S 23.5 37.69, 25 37.69 S 28.5 37.69, 30 37.69 S 33.5 37.69, 35 37.69 S 38.5 37.69, 40 37.69 S 43.54 38.03, 45 37.69 S 48.77 36.23, 50 35.38 S 53.54 31.11, 55 30.77 S 58.54 32.74, 60 33.08 S 63.54 32.74, 65 33.08 S 68.5 35.38, 70 35.38 S 73.64 33.71, 75 33.08 S 78.54 30.43, 80 30.77 S 83.64 36.01, 85 35.38 S 88.54 26.49, 90 26.15 S 93.77 32.23, 95 33.08 S 98.64 33.71, 100 33.08 S 103.5 28.46, 105 28.46 S 108.77 32.23, 110 33.08 S 113.5 35.38, 115 35.38 S 118.5 33.08, 120 33.08 S 123.54 35.04, 125 35.38 S 128.5 35.38, 130 35.38 S 133.9 36.4, 135 35.38 S 138.54 26.49, 140 26.15 S 143.64 32.45, 145 33.08 S 148.54 30.43, 150 30.77 S 153.54 35.04, 155 35.38 S 158.54 32.74, 160 33.08 S 163.54 37.35, 165 37.69 S 168.54 35.72, 170 35.38 S 173.9 36.4, 175 35.38 S 178.9 27.17, 180 26.15 S 183.54 25.81, 185 26.15 S 188.54 28.8, 190 28.46 S 193.5 23.85, 195 23.85 S 199.12 29.68, 200 28.46 S 204.61 11.45, 205 10"
          fill="none"/>
    <circle r="4" cx="5" cy="40" fill="#3023AE"/>
    <circle r="4" cx="205" cy="10" fill="#C86DD7"/>      
</svg>