<svg width="200" height="50" viewBox="0 0 210 50" xmlns="http://www.w3.org/2000/svg">
    <defs>
        <linearGradient x1="0%" y1="0%" x2="100%" y2="0%" id="a">
            <stop stop-color="#3023AE" offset="0%"/>
            <stop stop-color="#C86DD7" offset="100%"/>
        </linearGradient>
    </defs>
    <path stroke="url(#a)"
          stroke-width="3"
          stroke-linejoin="round"
          stroke-linecap="round"
          d="M5 40 C 6.49 39.81, 9.53 40.77, 10 39.35 S 13.92 11.04, 15 10 S 19.48 28.27, 20 29.68 S 23.92 36.06, 25 37.1 S 28.54 39.02, 30 39.35 S 33.51 39.49, 35 39.35 S 38.5 38.34, 40 38.39 S 43.6 40.22, 45 39.68 S 48.51 34.66, 50 34.52 S 53.63 38.09, 55 38.71 S 58.51 38.89, 60 39.03 S 63.5 39.73, 65 39.68 S 68.5 38.71, 70 38.71 S 73.5 39.58, 75 39.68 S 78.5 39.35, 80 39.35 S 83.5 39.63, 85 39.68 S 88.5 39.68, 90 39.68 S 93.5 39.68, 95 39.68 S 98.5 39.68, 100 39.68 S 103.5 39.68, 105 39.68 S 108.5 39.68, 110 39.68 S 113.5 39.68, 115 39.68 S 118.5 39.68, 120 39.68 S 123.5 39.73, 125 39.68 S 128.5 39.35, 130 39.35 S 133.5 39.63, 135 39.68 S 138.5 39.68, 140 39.68 S 143.53 39.97, 145 39.68 S 148.6 38.28, 150 37.74 S 153.51 35.62, 155 35.81 S 158.57 38.57, 160 39.03 S 163.57 39.49, 165 39.03 S 168.52 36.05, 170 35.81 S 173.57 36.96, 175 37.42 S 178.53 38.75, 180 39.03 S 183.5 39.25, 185 39.35 S 188.5 39.63, 190 39.68 S 193.5 39.68, 195 39.68 S 198.52 39.92, 200 39.68 S 203.57 38.52, 205 38.06"
          fill="none"/>
    <circle r="4" cx="5" cy="40" fill="#3023AE"/>
    <circle r="4" cx="205" cy="38.06" fill="#C86DD7"/>      
</svg>