<svg width="200" height="50" viewBox="0 0 210 50" xmlns="http://www.w3.org/2000/svg">
    <defs>
        <linearGradient x1="0%" y1="0%" x2="100%" y2="0%" id="a">
            <stop stop-color="#3023AE" offset="0%"/>
            <stop stop-color="#C86DD7" offset="100%"/>
        </linearGradient>
    </defs>
    <path stroke="url(#a)"
          stroke-width="3"
          stroke-linejoin="round"
          stroke-linecap="round"
          d="M5 40 C 5.25 38.52, 8.64 10.64, 10 10 S 14.47 33.91, 15 35.31 S 18.53 35.97, 20 36.25 S 23.53 36.91, 25 37.19 S 28.51 37.98, 30 38.12 S 33.75 38.94, 35 38.12 S 38.51 31.42, 40 31.56 S 43.8 38.16, 45 39.06 S 48.51 39.2, 50 39.06 S 53.56 38.53, 55 38.12 S 58.6 36.78, 60 36.25 S 63.56 33.96, 65 34.37 S 68.53 38.78, 70 39.06 S 73.6 36.78, 75 36.25 S 78.56 34.9, 80 35.31 S 83.56 38.65, 85 39.06 S 88.8 39.02, 90 38.12 S 93.6 32.09, 95 31.56 S 98.56 33.96, 100 34.37 S 103.5 34.37, 105 34.37 S 108.51 34.51, 110 34.37 S 113.51 33.58, 115 33.44 S 118.56 33.03, 120 33.44 S 123.53 35.97, 125 36.25 S 128.51 35.45, 130 35.31 S 133.56 35.72, 135 35.31 S 138.53 32.22, 140 32.5 S 143.56 36.78, 145 37.19 S 148.53 35.59, 150 35.31 S 153.53 35.03, 155 35.31 S 158.53 36.91, 160 37.19 S 163.75 38.01, 165 37.19 S 168.6 31.15, 170 30.62 S 173.53 33.16, 175 33.44 S 178.53 32.78, 180 32.5 S 183.64 30.92, 185 31.56 S 188.5 37.19, 190 37.19 S 193.53 31.84, 195 31.56 S 198.56 34.9, 200 35.31 S 203.53 34.65, 205 34.37"
          fill="none"/>
    <circle r="4" cx="5" cy="40" fill="#3023AE"/>
    <circle r="4" cx="205" cy="34.37" fill="#C86DD7"/>      
</svg>