<svg width="200" height="50" viewBox="0 0 210 50" xmlns="http://www.w3.org/2000/svg">
    <defs>
        <linearGradient x1="0%" y1="0%" x2="100%" y2="0%" id="a">
            <stop stop-color="#3023AE" offset="0%"/>
            <stop stop-color="#C86DD7" offset="100%"/>
        </linearGradient>
    </defs>
    <path stroke="url(#a)"
          stroke-width="3"
          stroke-linejoin="round"
          stroke-linecap="round"
          d="M5 40 C 6.08 38.96, 8.81 36.08, 10 35.16 S 14.25 33.56, 15 32.26 S 19.39 19.11, 20 17.74 S 23.81 9.08, 25 10 S 29.28 24.16, 30 25.48 S 33.5 28.39, 35 28.39 S 38.7 24.73, 40 25.48 S 43.65 33.54, 45 34.19 S 48.65 30.97, 50 30.32 S 53.5 29.35, 55 29.35 S 58.56 30.74, 60 30.32 S 63.5 26.45, 65 26.45 S 68.7 29.57, 70 30.32 S 73.53 31.97, 75 32.26 S 78.53 31.98, 80 32.26 S 83.51 34.05, 85 34.19 S 88.51 33.37, 90 33.23 S 93.5 33.23, 95 33.23 S 98.56 33.65, 100 33.23 S 103.53 30.04, 105 30.32 S 108.6 34.62, 110 35.16 S 113.56 34.61, 115 34.19 S 118.51 32.4, 120 32.26 S 123.5 33.23, 125 33.23 S 128.53 31.98, 130 32.26 S 133.51 35.02, 135 35.16 S 138.56 33.65, 140 33.23 S 143.65 31.61, 145 32.26 S 148.65 37.41, 150 38.06 S 153.7 37.85, 155 37.1 S 158.51 32.4, 160 32.26 S 163.53 35.85, 165 36.13 S 168.7 34.94, 170 34.19 S 173.65 29.67, 175 30.32 S 178.87 38.04, 180 39.03 S 183.53 39.31, 185 39.03 S 188.81 38.02, 190 37.1 S 193.51 31.43, 195 31.29 S 198.6 35.59, 200 36.13 S 203.53 35.45, 205 35.16"
          fill="none"/>
    <circle r="4" cx="5" cy="40" fill="#3023AE"/>
    <circle r="4" cx="205" cy="35.16" fill="#C86DD7"/>      
</svg>