<svg width="200" height="50" viewBox="0 0 210 50" xmlns="http://www.w3.org/2000/svg">
    <defs>
        <linearGradient x1="0%" y1="0%" x2="100%" y2="0%" id="a">
            <stop stop-color="#3023AE" offset="0%"/>
            <stop stop-color="#C86DD7" offset="100%"/>
        </linearGradient>
    </defs>
    <path stroke="url(#a)"
          stroke-width="3"
          stroke-linejoin="round"
          stroke-linecap="round"
          d="M5 40 C 6.01 38.89, 8.54 34.83, 10 34.51 S 13.66 37.12, 15 37.8 S 18.52 39.36, 20 39.63 S 23.5 39.63, 25 39.63 S 28.5 39.63, 30 39.63 S 33.5 39.63, 35 39.63 S 38.5 39.63, 40 39.63 S 43.5 39.63, 45 39.63 S 48.5 39.63, 50 39.63 S 53.5 39.63, 55 39.63 S 58.5 39.63, 60 39.63 S 63.5 39.63, 65 39.63 S 69.52 41.05, 70 39.63 S 73.63 10.6, 75 10 S 79.52 33.82, 80 35.24 S 83.61 39.07, 85 39.63 S 88.5 39.38, 90 39.27 S 93.5 38.9, 95 38.9 S 98.5 39.21, 100 39.27 S 103.5 39.27, 105 39.27 S 108.5 39.22, 110 39.27 S 113.5 39.58, 115 39.63 S 118.5 39.68, 120 39.63 S 123.5 39.27, 125 39.27 S 128.5 39.58, 130 39.63 S 133.5 39.63, 135 39.63 S 138.52 39.9, 140 39.63 S 143.5 37.8, 145 37.8 S 148.5 39.52, 150 39.63 S 153.5 38.65, 155 38.54 S 158.51 38.74, 160 38.9 S 163.5 39.57, 165 39.63 S 168.5 39.32, 170 39.27 S 173.5 39.22, 175 39.27 S 178.5 39.58, 180 39.63 S 183.68 40.35, 185 39.63 S 188.51 34.31, 190 34.15 S 193.68 37.82, 195 38.54 S 198.5 39.74, 200 39.63 S 203.59 38.32, 205 37.8"
          fill="none"/>
    <circle r="4" cx="5" cy="40" fill="#3023AE"/>
    <circle r="4" cx="205" cy="37.8" fill="#C86DD7"/>      
</svg>