<svg width="200" height="50" viewBox="0 0 210 50" xmlns="http://www.w3.org/2000/svg">
    <defs>
        <linearGradient x1="0%" y1="0%" x2="100%" y2="0%" id="a">
            <stop stop-color="#3023AE" offset="0%"/>
            <stop stop-color="#C86DD7" offset="100%"/>
        </linearGradient>
    </defs>
    <path stroke="url(#a)"
          stroke-width="3"
          stroke-linejoin="round"
          stroke-linecap="round"
          d="M5 40 C 6.5 39.99, 8.5 39.95, 10 39.95 S 13.5 39.97, 15 39.97 S 18.5 39.97, 20 39.97 S 23.5 39.98, 25 39.98 S 28.5 39.98, 30 39.98 S 33.5 39.98, 35 39.98 S 38.5 39.98, 40 39.98 S 43.5 39.98, 45 39.98 S 48.5 39.98, 50 39.98 S 53.5 39.98, 55 39.98 S 58.5 39.98, 60 39.98 S 63.5 39.98, 65 39.98 S 68.5 39.99, 70 39.98 S 73.5 39.93, 75 39.92 S 78.5 39.93, 80 39.94 S 83.5 39.97, 85 39.97 S 88.5 39.95, 90 39.95 S 93.5 39.97, 95 39.95 S 98.5 39.84, 100 39.84 S 103.5 39.96, 105 39.97 S 108.5 39.9, 110 39.89 S 113.5 39.91, 115 39.92 S 118.5 39.93, 120 39.94 S 123.5 39.98, 125 39.97 S 128.5 39.9, 130 39.86 S 133.65 40.36, 135 39.71 S 139.52 36.46, 140 35.04 S 143.82 10.92, 145 10 S 149.45 25.87, 150 27.27 S 153.88 34.6, 155 35.6 S 158.51 36, 160 36.16 S 163.5 36.58, 165 36.66 S 169.1 37.91, 170 36.71 S 173.69 23.97, 175 23.24 S 178.98 30.04, 180 31.14 S 183.63 33.34, 185 33.96 S 188.51 35.55, 190 35.68 S 193.5 34.74, 195 34.85 S 198.53 36.08, 200 36.39 S 203.51 36.79, 205 36.96"
          fill="none"/>
    <circle r="4" cx="5" cy="40" fill="#3023AE"/>
    <circle r="4" cx="205" cy="36.96" fill="#C86DD7"/>      
</svg>