<svg width="200" height="50" viewBox="0 0 210 50" xmlns="http://www.w3.org/2000/svg">
    <defs>
        <linearGradient x1="0%" y1="0%" x2="100%" y2="0%" id="a">
            <stop stop-color="#3023AE" offset="0%"/>
            <stop stop-color="#C86DD7" offset="100%"/>
        </linearGradient>
    </defs>
    <path stroke="url(#a)"
          stroke-width="3"
          stroke-linejoin="round"
          stroke-linecap="round"
          d="M5 40 C 5.6 38.62, 8.53 28.8, 10 28.51 S 13.98 36.91, 15 38.01 S 18.51 39.18, 20 39.32 S 24.08 40.15, 25 38.97 S 28.53 26.72, 30 26.44 S 34.06 35.91, 35 37.08 S 38.53 38.51, 40 38.81 S 43.5 39.11, 45 39.11 S 48.5 38.88, 50 38.78 S 53.55 38.82, 55 38.44 S 58.5 36.2, 60 36.17 S 63.5 38.33, 65 38.22 S 69.07 36.61, 70 35.43 S 74.45 27.01, 75 25.61 S 79.01 8.87, 80 10 S 84.49 35.59, 85 37 S 88.51 37.45, 90 37.59 S 93.51 38.1, 95 37.95 S 98.5 36.63, 100 36.58 S 103.51 37.4, 105 37.61 S 108.5 37.95, 110 37.97 S 113.51 37.93, 115 37.77 S 118.5 37.01, 120 36.93 S 123.5 37.2, 125 37.24 S 128.5 37.2, 130 37.18 S 133.5 37.18, 135 37.09 S 138.5 36.65, 140 36.6 S 143.5 36.78, 145 36.78 S 148.5 36.68, 150 36.62 S 153.5 36.41, 155 36.36 S 158.5 36.21, 160 36.28 S 163.51 36.69, 165 36.86 S 168.5 37.45, 170 37.41 S 173.51 36.74, 175 36.62 S 178.5 36.58, 180 36.59 S 183.5 36.69, 185 36.66 S 188.5 36.45, 190 36.38 S 193.53 36.45, 195 36.18 S 198.5 34.63, 200 34.53 S 203.53 35.22, 205 35.51"
          fill="none"/>
    <circle r="4" cx="5" cy="40" fill="#3023AE"/>
    <circle r="4" cx="205" cy="35.51" fill="#C86DD7"/>      
</svg>