<svg width="200" height="50" viewBox="0 0 210 50" xmlns="http://www.w3.org/2000/svg">
    <defs>
        <linearGradient x1="0%" y1="0%" x2="100%" y2="0%" id="a">
            <stop stop-color="#3023AE" offset="0%"/>
            <stop stop-color="#C86DD7" offset="100%"/>
        </linearGradient>
    </defs>
    <path stroke="url(#a)"
          stroke-width="3"
          stroke-linejoin="round"
          stroke-linecap="round"
          d="M5 40 C 6.5 39.9, 8.5 39.71, 10 39.66 S 13.5 39.66, 15 39.66 S 18.5 39.66, 20 39.66 S 23.5 39.66, 25 39.66 S 29.32 41, 30 39.66 S 33.56 20.54, 35 20.11 S 39.26 35.33, 40 36.63 S 43.5 37.59, 45 37.64 S 48.5 37.02, 50 36.97 S 53.51 37.45, 55 37.3 S 58.56 36.39, 60 35.96 S 63.51 34.47, 65 34.27 S 68.51 34.76, 70 34.61 S 74.12 34.48, 75 33.26 S 79.22 22.07, 80 20.79 S 83.95 15.67, 85 16.74 S 89.15 29.67, 90 30.9 S 93.66 30.56, 95 31.24 S 98.56 35.53, 100 35.96 S 103.5 34.22, 105 34.27 S 109.26 37.59, 110 36.29 S 113.91 17.77, 115 16.74 S 118.76 27.69, 120 26.85 S 124 11.12, 125 10 S 129.19 14.47, 130 15.73 S 133.89 24.5, 135 25.51 S 138.5 24.78, 140 24.83 S 143.98 24.74, 145 25.84 S 148.78 34.75, 150 35.62 S 153.51 33.07, 155 32.92 S 158.63 34.01, 160 34.61 S 163.59 37.82, 165 37.3 S 168.5 30.9, 170 30.9 S 173.55 36.91, 175 37.3 S 178.5 33.65, 180 33.6 S 183.58 36.49, 185 36.97 S 188.5 36.92, 190 36.97 S 193.5 37.2, 195 37.3 S 198.5 37.69, 200 37.64 S 203.51 37.17, 205 36.97"
          fill="none"/>
    <circle r="4" cx="5" cy="40" fill="#3023AE"/>
    <circle r="4" cx="205" cy="36.97" fill="#C86DD7"/>      
</svg>