<svg width="200" height="50" viewBox="0 0 210 50" xmlns="http://www.w3.org/2000/svg">
    <defs>
        <linearGradient x1="0%" y1="0%" x2="100%" y2="0%" id="a">
            <stop stop-color="#3023AE" offset="0%"/>
            <stop stop-color="#C86DD7" offset="100%"/>
        </linearGradient>
    </defs>
    <path stroke="url(#a)"
          stroke-width="3"
          stroke-linejoin="round"
          stroke-linecap="round"
          d="M5 40 C 5.26 38.52, 8.86 12.41, 10 11.43 S 13.52 31.64, 15 31.43 S 18.52 10.21, 20 10 S 24.19 28.73, 25 30 S 28.62 25.12, 30 25.71 S 33.5 34.29, 35 34.29 S 38.7 26.45, 40 25.71 S 43.7 27.83, 45 28.57 S 48.5 31.43, 50 31.43 S 53.62 27.98, 55 28.57 S 58.56 35.3, 60 35.71 S 63.51 31.64, 65 31.43 S 68.5 34.29, 70 34.29 S 73.52 31.64, 75 31.43 S 78.62 32.27, 80 32.86 S 83.56 35.3, 85 35.71 S 88.51 35.92, 90 35.71 S 93.56 33.88, 95 34.29 S 99.37 39.93, 100 38.57 S 104.01 13.99, 105 12.86 S 109.19 25.87, 110 27.14 S 114.24 29.87, 115 28.57 S 118.78 10.87, 120 10 S 124.33 20.09, 125 21.43 S 128.94 28.94, 130 30 S 133.56 31.02, 135 31.43 S 138.62 33.45, 140 32.86 S 143.52 26.93, 145 27.14 S 148.56 33.88, 150 34.29 S 153.5 30, 155 30 S 158.52 34.5, 160 34.29 S 163.86 29.55, 165 28.57 S 168.56 25.3, 170 25.71 S 173.7 30.69, 175 31.43 S 178.5 31.43, 180 31.43 S 183.62 32.02, 185 31.43 S 189.24 28.44, 190 27.14 S 193.78 15.16, 195 14.29 S 198.52 20.21, 200 20 S 204.14 14.09, 205 12.86"
          fill="none"/>
    <circle r="4" cx="5" cy="40" fill="#3023AE"/>
    <circle r="4" cx="205" cy="12.86" fill="#C86DD7"/>      
</svg>