<svg width="200" height="50" viewBox="0 0 210 50" xmlns="http://www.w3.org/2000/svg">
    <defs>
        <linearGradient x1="0%" y1="0%" x2="100%" y2="0%" id="a">
            <stop stop-color="#3023AE" offset="0%"/>
            <stop stop-color="#C86DD7" offset="100%"/>
        </linearGradient>
    </defs>
    <path stroke="url(#a)"
          stroke-width="3"
          stroke-linejoin="round"
          stroke-linecap="round"
          d="M5 40 C 6.39 39.44, 8.52 38.22, 10 38 S 13.5 38.5, 15 38.5 S 18.8 38.9, 20 38 S 23.53 31.29, 25 31 S 28.69 35.28, 30 36 S 33.52 36.72, 35 36.5 S 38.63 35.12, 40 34.5 S 43.53 31.71, 45 32 S 48.58 36, 50 36.5 S 53.5 35.57, 55 35.5 S 59.45 37.4, 60 36 S 63.5 10.07, 65 10 S 69.45 34.1, 70 35.5 S 73.53 35.79, 75 35.5 S 78.56 33.93, 80 33.5 S 83.52 32.72, 85 32.5 S 88.53 31.71, 90 32 S 93.54 34.14, 95 34.5 S 98.5 34.5, 100 34.5 S 103.5 34.57, 105 34.5 S 108.52 34.22, 110 34 S 113.5 33, 115 33 S 118.5 34.07, 120 34 S 123.5 32.5, 125 32.5 S 128.63 34.62, 130 34 S 133.54 28.36, 135 28 S 138.69 30.78, 140 31.5 S 143.5 33.57, 145 33.5 S 148.61 31.56, 150 31 S 153.56 29.93, 155 29.5 S 158.63 28.62, 160 28 S 163.69 24.28, 165 25 S 168.66 32.83, 170 33.5 S 173.53 30.29, 175 30 S 178.61 30.94, 180 31.5 S 183.53 33.71, 185 34 S 188.5 33.43, 190 33.5 S 193.53 34.21, 195 34.5 S 198.5 35.43, 200 35.5 S 203.51 35.15, 205 35"
          fill="none"/>
    <circle r="4" cx="5" cy="40" fill="#3023AE"/>
    <circle r="4" cx="205" cy="35" fill="#C86DD7"/>      
</svg>