<svg width="200" height="50" viewBox="0 0 210 50" xmlns="http://www.w3.org/2000/svg">
    <defs>
        <linearGradient x1="0%" y1="0%" x2="100%" y2="0%" id="a">
            <stop stop-color="#3023AE" offset="0%"/>
            <stop stop-color="#C86DD7" offset="100%"/>
        </linearGradient>
    </defs>
    <path stroke="url(#a)"
          stroke-width="3"
          stroke-linejoin="round"
          stroke-linecap="round"
          d="M5 40 C 6.47 39.71, 8.51 39.15, 10 39 S 13.5 39, 15 39 S 18.5 39, 20 39 S 23.5 39, 25 39 S 28.5 39, 30 39 S 33.5 39, 35 39 S 38.5 39, 40 39 S 43.51 39.15, 45 39 S 48.5 38, 50 38 S 53.53 39.29, 55 39 S 58.61 36.56, 60 36 S 63.56 34.57, 65 35 S 68.61 38.44, 70 39 S 73.5 39, 75 39 S 78.71 39.77, 80 39 S 83.94 34.06, 85 33 S 88.51 28.85, 90 29 S 93.77 33.14, 95 34 S 98.53 35.71, 100 36 S 103.53 36.29, 105 36 S 108.53 34.29, 110 34 S 113.53 33.71, 115 34 S 118.53 36.29, 120 36 S 123.5 32, 125 32 S 128.53 35.71, 130 36 S 133.56 34.43, 135 34 S 138.53 33.29, 140 33 S 143.5 32, 145 32 S 148.51 32.85, 150 33 S 154.04 34.15, 155 33 S 158.61 21.56, 160 21 S 163.51 28.85, 165 29 S 169.09 23.19, 170 22 S 173.56 16.43, 175 16 S 178.77 18.14, 180 19 S 183.5 23, 185 23 S 188.53 18.71, 190 19 S 193.77 25.86, 195 25 S 199.17 13.25, 200 12 S 203.61 10.56, 205 10"
          fill="none"/>
    <circle r="4" cx="5" cy="40" fill="#3023AE"/>
    <circle r="4" cx="205" cy="10" fill="#C86DD7"/>      
</svg>