<svg width="200" height="50" viewBox="0 0 210 50" xmlns="http://www.w3.org/2000/svg">
    <defs>
        <linearGradient x1="0%" y1="0%" x2="100%" y2="0%" id="a">
            <stop stop-color="#3023AE" offset="0%"/>
            <stop stop-color="#C86DD7" offset="100%"/>
        </linearGradient>
    </defs>
    <path stroke="url(#a)"
          stroke-width="3"
          stroke-linejoin="round"
          stroke-linecap="round"
          d="M5 40 C 5.25 38.52, 8.55 10.39, 10 10 S 14.41 35.94, 15 37.32 S 18.53 33.22, 20 33.5 S 23.63 38.64, 25 39.24 S 28.54 38.26, 30 37.9 S 33.51 36.61, 35 36.75 S 38.53 38.54, 40 38.85 S 44.32 40.18, 45 38.85 S 48.5 19.36, 50 19.36 S 54.28 37.54, 55 38.85 S 58.51 37.66, 60 37.52 S 63.5 37.84, 65 37.9 S 68.5 37.79, 70 37.9 S 73.5 38.66, 75 38.66 S 78.51 38.07, 80 37.9 S 83.5 37.58, 85 37.52 S 88.51 37.72, 90 37.52 S 93.51 36.32, 95 36.18 S 98.5 36.59, 100 36.56 S 103.5 35.93, 105 35.99 S 109.03 38.09, 110 36.94 S 113.52 24.37, 115 24.14 S 118.9 34.38, 120 35.41 S 123.53 33.78, 125 33.5 S 128.51 33.36, 130 33.5 S 133.57 34.02, 135 34.46 S 138.53 36.25, 140 36.56 S 143.51 36.7, 145 36.56 S 148.53 35.92, 150 35.61 S 153.51 34.66, 155 34.46 S 158.5 34.16, 160 34.27 S 163.5 35.22, 165 35.22 S 168.52 34.02, 170 34.27 S 173.54 36.61, 175 36.94 S 178.5 36.47, 180 36.56 S 183.54 37.85, 185 37.52 S 188.54 34.61, 190 34.27 S 193.56 34.81, 195 35.22 S 198.5 37.13, 200 37.13 S 203.6 35.76, 205 35.22"
          fill="none"/>
    <circle r="4" cx="5" cy="40" fill="#3023AE"/>
    <circle r="4" cx="205" cy="35.22" fill="#C86DD7"/>      
</svg>