<svg width="200" height="50" viewBox="0 0 210 50" xmlns="http://www.w3.org/2000/svg">
    <defs>
        <linearGradient x1="0%" y1="0%" x2="100%" y2="0%" id="a">
            <stop stop-color="#3023AE" offset="0%"/>
            <stop stop-color="#C86DD7" offset="100%"/>
        </linearGradient>
    </defs>
    <path stroke="url(#a)"
          stroke-width="3"
          stroke-linejoin="round"
          stroke-linecap="round"
          d="M5 40 C 5.25 38.52, 8.9 11.02, 10 10 S 14.43 29.35, 15 30.74 S 18.7 33.82, 20 34.57 S 23.56 36.05, 25 36.49 S 28.5 37.63, 30 37.61 S 33.5 36.26, 35 36.33 S 38.52 37.88, 40 38.09 S 43.5 37.75, 45 37.77 S 48.52 38, 50 38.24 S 53.51 39.5, 55 39.36 S 58.5 37.41, 60 37.29 S 63.52 38.35, 65 38.56 S 68.55 39.11, 70 38.72 S 73.51 36.02, 75 35.85 S 78.54 37.28, 80 37.61 S 83.5 38, 85 38.09 S 88.5 38.12, 90 38.24 S 93.51 38.71, 95 38.88 S 98.5 39.24, 100 39.36 S 103.5 39.73, 105 39.68 S 108.51 39.18, 110 39.04 S 113.51 38.86, 115 38.72 S 118.5 38.04, 120 38.09 S 123.51 38.85, 125 39.04 S 128.5 39.36, 130 39.36 S 133.5 38.97, 135 39.04 S 138.5 39.72, 140 39.84 S 143.5 39.84, 145 39.84 S 148.5 39.91, 150 39.84 S 153.5 39.41, 155 39.36 S 158.5 39.45, 160 39.52 S 163.5 39.79, 165 39.84 S 168.5 39.86, 170 39.84 S 173.5 39.68, 175 39.68 S 178.5 39.84, 180 39.84 S 183.5 39.68, 185 39.68 S 188.5 39.82, 190 39.84 S 193.5 39.84, 195 39.84"
          fill="none"/>
    <circle r="4" cx="5" cy="40" fill="#3023AE"/>
    <circle r="4" cx="195" cy="39.84" fill="#C86DD7"/>      
</svg>