<svg width="200" height="50" viewBox="0 0 210 50" xmlns="http://www.w3.org/2000/svg">
    <defs>
        <linearGradient x1="0%" y1="0%" x2="100%" y2="0%" id="a">
            <stop stop-color="#3023AE" offset="0%"/>
            <stop stop-color="#C86DD7" offset="100%"/>
        </linearGradient>
    </defs>
    <path stroke="url(#a)"
          stroke-width="3"
          stroke-linejoin="round"
          stroke-linecap="round"
          d="M5 40 C 5.34 38.54, 9.24 19.87, 10 18.57 S 13.62 22.27, 15 22.86 S 18.86 21.88, 20 22.86 S 24.08 30.25, 25 31.43 S 28.62 35.12, 30 35.71 S 33.5 35.71, 35 35.71 S 38.5 35.71, 40 35.71 S 43.5 35.71, 45 35.71 S 48.5 35.71, 50 35.71 S 53.5 35.71, 55 35.71 S 58.5 35.71, 60 35.71 S 63.5 35.71, 65 35.71 S 68.62 36.3, 70 35.71 S 74.08 32.61, 75 31.43 S 78.62 23.45, 80 22.86 S 84.08 28.32, 85 27.14 S 88.5 10, 90 10 S 93.62 26.55, 95 27.14 S 98.62 13.7, 100 14.29 S 104.37 30.07, 105 31.43 S 108.5 35.71, 110 35.71 S 113.5 31.43, 115 31.43 S 118.5 35.71, 120 35.71 S 123.5 31.43, 125 31.43 S 128.62 35.12, 130 35.71 S 133.5 35.71, 135 35.71 S 138.5 35.71, 140 35.71 S 143.62 36.3, 145 35.71 S 148.86 32.41, 150 31.43 S 154.37 28.5, 155 27.14 S 158.5 10, 160 10 S 163.86 26.16, 165 27.14 S 168.86 17.59, 170 18.57 S 173.86 36.69, 175 35.71 S 179.24 11.3, 180 10 S 184.37 17.21, 185 18.57 S 188.62 30.84, 190 31.43 S 193.62 23.45, 195 22.86 S 198.62 26.55, 200 27.14 S 203.5 27.14, 205 27.14"
          fill="none"/>
    <circle r="4" cx="5" cy="40" fill="#3023AE"/>
    <circle r="4" cx="205" cy="27.14" fill="#C86DD7"/>      
</svg>