<svg width="200" height="50" viewBox="0 0 210 50" xmlns="http://www.w3.org/2000/svg">
    <defs>
        <linearGradient x1="0%" y1="0%" x2="100%" y2="0%" id="a">
            <stop stop-color="#3023AE" offset="0%"/>
            <stop stop-color="#C86DD7" offset="100%"/>
        </linearGradient>
    </defs>
    <path stroke="url(#a)"
          stroke-width="3"
          stroke-linejoin="round"
          stroke-linecap="round"
          d="M5 40 C 6.3 39.26, 8.5 37.25, 10 37.14 S 13.53 38.97, 15 39.29 S 18.5 39.29, 20 39.29 S 23.5 39.29, 25 39.29 S 28.5 39.29, 30 39.29 S 33.5 39.29, 35 39.29 S 38.5 39.29, 40 39.29 S 43.5 39.29, 45 39.29 S 48.5 39.29, 50 39.29 S 53.5 39.29, 55 39.29 S 58.5 39.29, 60 39.29 S 63.5 39.29, 65 39.29 S 68.5 39.29, 70 39.29 S 73.5 39.29, 75 39.29 S 78.5 39.29, 80 39.29 S 83.5 39.29, 85 39.29 S 88.5 39.29, 90 39.29 S 93.5 39.29, 95 39.29 S 98.5 39.29, 100 39.29 S 103.5 39.29, 105 39.29 S 108.5 39.29, 110 39.29 S 113.5 39.29, 115 39.29 S 118.5 39.29, 120 39.29 S 123.5 39.29, 125 39.29 S 128.5 39.29, 130 39.29 S 133.56 39.7, 135 39.29 S 139.22 37.71, 140 36.43 S 144.17 24.11, 145 22.86 S 149.08 22.61, 150 21.43 S 154.01 8.87, 155 10 S 159.01 31.73, 160 32.86 S 163.56 21.84, 165 21.43 S 168.94 28.94, 170 30 S 173.52 31.22, 175 31.43 S 178.74 32.24, 180 31.43 S 184.08 26.18, 185 25 S 188.52 18.36, 190 18.57 S 193.59 25.93, 195 26.43 S 198.56 21.73, 200 22.14 S 204.14 28.06, 205 29.29"
          fill="none"/>
    <circle r="4" cx="5" cy="40" fill="#3023AE"/>
    <circle r="4" cx="205" cy="29.29" fill="#C86DD7"/>      
</svg>