<svg width="200" height="50" viewBox="0 0 210 50" xmlns="http://www.w3.org/2000/svg">
    <defs>
        <linearGradient x1="0%" y1="0%" x2="100%" y2="0%" id="a">
            <stop stop-color="#3023AE" offset="0%"/>
            <stop stop-color="#C86DD7" offset="100%"/>
        </linearGradient>
    </defs>
    <path stroke="url(#a)"
          stroke-width="3"
          stroke-linejoin="round"
          stroke-linecap="round"
          d="M5 40 C 5.26 38.52, 8.57 12.03, 10 11.58 S 14.42 35.46, 15 36.84 S 19.25 36.56, 20 35.26 S 23.52 19.24, 25 19.47 S 29.3 35.51, 30 36.84 S 33.5 38.42, 35 38.42 S 38.52 37.07, 40 36.84 S 43.5 36.84, 45 36.84 S 48.57 37.29, 50 36.84 S 53.73 34.48, 55 33.68 S 58.52 30.76, 60 30.53 S 63.64 31.47, 65 32.11 S 68.52 35.03, 70 35.26 S 73.57 33.23, 75 33.68 S 78.64 37.78, 80 38.42 S 84.2 39.69, 85 38.42 S 88.91 23.66, 90 22.63 S 93.91 27.92, 95 28.95 S 98.73 31.31, 100 32.11 S 103.57 34.81, 105 35.26 S 108.57 35.71, 110 35.26 S 113.82 33.04, 115 32.11 S 118.64 28.01, 120 27.37 S 124.14 28.6, 125 27.37 S 129.2 14.43, 130 13.16 S 134.2 10.31, 135 11.58 S 139.07 27.77, 140 28.95 S 143.57 24.66, 145 24.21 S 148.82 24.86, 150 25.79 S 153.82 31.18, 155 32.11 S 159.2 34.95, 160 33.68 S 163.82 17.25, 165 16.32 S 169.14 24.56, 170 25.79 S 173.5 30.53, 175 30.53 S 179.07 26.97, 180 25.79 S 183.64 17.25, 185 17.89 S 188.64 29.89, 190 30.53 S 194.34 23.98, 195 22.63 S 198.5 10, 200 10 S 204.45 21.24, 205 22.63"
          fill="none"/>
    <circle r="4" cx="5" cy="40" fill="#3023AE"/>
    <circle r="4" cx="205" cy="22.63" fill="#C86DD7"/>      
</svg>