<svg width="200" height="50" viewBox="0 0 210 50" xmlns="http://www.w3.org/2000/svg">
    <defs>
        <linearGradient x1="0%" y1="0%" x2="100%" y2="0%" id="a">
            <stop stop-color="#3023AE" offset="0%"/>
            <stop stop-color="#C86DD7" offset="100%"/>
        </linearGradient>
    </defs>
    <path stroke="url(#a)"
          stroke-width="3"
          stroke-linejoin="round"
          stroke-linecap="round"
          d="M5 40 C 5.65 38.65, 8.53 29.95, 10 29.64 S 13.94 36.8, 15 37.86 S 18.52 39.43, 20 39.64 S 24.15 40.53, 25 39.29 S 28.56 25.41, 30 25 S 33.76 35.59, 35 36.43 S 38.56 31.38, 40 31.79 S 43.78 38.42, 45 39.29 S 48.66 39.6, 50 38.93 S 53.5 34.34, 55 34.29 S 58.6 38.02, 60 38.57 S 63.5 38.32, 65 38.21 S 68.51 38.07, 70 37.86 S 73.5 36.74, 75 36.79 S 78.56 37.8, 80 38.21 S 83.52 39.43, 85 39.64 S 88.8 40.54, 90 39.64 S 93.62 32.73, 95 32.14 S 98.76 34.52, 100 35.36 S 103.62 38.34, 105 38.93 S 108.5 39.75, 110 39.64 S 113.53 38.52, 115 38.21 S 118.51 37.34, 120 37.5 S 123.51 39.13, 125 39.29 S 128.52 38.83, 130 38.57 S 133.5 37.39, 135 37.5 S 138.52 39.03, 140 39.29 S 143.5 39.4, 145 39.29 S 148.5 38.57, 150 38.57 S 153.5 39.4, 155 39.29 S 158.52 38.07, 160 37.86 S 163.5 37.97, 165 37.86 S 168.52 36.93, 170 37.14 S 173.5 39.24, 175 39.29 S 178.53 37.82, 180 37.5 S 184.35 38.49, 185 37.14 S 189.48 18.2, 190 16.79 S 193.7 9.26, 195 10 S 199.39 21.13, 200 22.5 S 204.33 31.16, 205 32.5"
          fill="none"/>
    <circle r="4" cx="5" cy="40" fill="#3023AE"/>
    <circle r="4" cx="205" cy="32.5" fill="#C86DD7"/>      
</svg>