<svg width="200" height="50" viewBox="0 0 210 50" xmlns="http://www.w3.org/2000/svg">
    <defs>
        <linearGradient x1="0%" y1="0%" x2="100%" y2="0%" id="a">
            <stop stop-color="#3023AE" offset="0%"/>
            <stop stop-color="#C86DD7" offset="100%"/>
        </linearGradient>
    </defs>
    <path stroke="url(#a)"
          stroke-width="3"
          stroke-linejoin="round"
          stroke-linecap="round"
          d="M5 40 C 6.4 39.46, 8.52 38.32, 10 38.07 S 13.5 38.27, 15 38.3 S 18.5 38.29, 20 38.27 S 23.6 38.68, 25 38.15 S 28.73 35.32, 30 34.52 S 33.53 32.16, 35 31.84 S 38.5 32.43, 40 32.33 S 43.51 31.37, 45 31.19 S 49.36 32.45, 50 31.09 S 54.1 11.2, 55 10 S 58.79 16.86, 60 17.75 S 63.83 16.41, 65 17.34 S 68.72 24.93, 70 25.71 S 73.5 23.32, 75 23.44 S 78.51 26.33, 80 26.48 S 84.15 25.71, 85 24.47 S 88.56 12.36, 90 11.96 S 93.87 20.69, 95 21.67 S 98.51 20.85, 100 20.64 S 103.51 20.12, 105 20.25 S 108.67 22.24, 110 21.54 S 113.53 14.68, 115 15 S 118.93 22.65, 120 23.7 S 123.5 24.69, 125 24.76 S 128.5 24.22, 130 24.19 S 133.58 24.05, 135 24.55 S 138.53 27.42, 140 27.69 S 143.53 26.7, 145 26.4 S 148.58 25.2, 150 25.68 S 153.9 30.8, 155 29.78 S 158.58 16.92, 160 16.44 S 163.62 26.98, 165 26.4 S 168.5 12.26, 170 12.21 S 173.9 25.05, 175 26.07 S 178.51 21.37, 180 21.51 S 183.66 26.33, 185 27 S 188.52 26.29, 190 26.51 S 193.53 28.19, 195 28.49 S 198.5 28.52, 200 28.52 S 203.5 28.52, 205 28.52"
          fill="none"/>
    <circle r="4" cx="5" cy="40" fill="#3023AE"/>
    <circle r="4" cx="205" cy="28.52" fill="#C86DD7"/>      
</svg>