<svg width="200" height="50" viewBox="0 0 210 50" xmlns="http://www.w3.org/2000/svg">
    <defs>
        <linearGradient x1="0%" y1="0%" x2="100%" y2="0%" id="a">
            <stop stop-color="#3023AE" offset="0%"/>
            <stop stop-color="#C86DD7" offset="100%"/>
        </linearGradient>
    </defs>
    <path stroke="url(#a)"
          stroke-width="3"
          stroke-linejoin="round"
          stroke-linecap="round"
          d="M5 40 C 5.34 38.54, 8.62 19.16, 10 18.57 S 14.27 34.4, 15 35.71 S 18.53 36.11, 20 36.43 S 23.5 37.86, 25 37.86 S 28.66 37.1, 30 36.43 S 33.59 33.36, 35 32.86 S 38.59 33.36, 40 32.86 S 43.5 29.18, 45 29.29 S 48.7 34.31, 50 33.57 S 53.5 23.57, 55 23.57 S 58.86 32.59, 60 33.57 S 63.52 32.35, 65 32.14 S 68.5 32.25, 70 32.14 S 73.59 31.93, 75 31.43 S 78.5 28.46, 80 28.57 S 83.7 31.4, 85 32.14 S 88.5 34.29, 90 34.29 S 93.86 33.12, 95 32.14 S 98.7 26.45, 100 25.71 S 103.78 25.56, 105 26.43 S 108.5 32.97, 110 32.86 S 113.62 26.3, 115 25.71 S 118.5 28.68, 120 28.57 S 123.52 24.79, 125 25 S 128.7 29.26, 130 30 S 133.59 31.21, 135 30.71 S 138.9 27.45, 140 26.43 S 143.62 22.02, 145 21.43 S 148.5 22.14, 150 22.14 S 153.56 21.84, 155 21.43 S 158.5 19.29, 160 19.29 S 163.59 20.93, 165 21.43 S 168.62 23.45, 170 22.86 S 173.94 18.2, 175 17.14 S 178.56 12.45, 180 12.86 S 183.7 19.26, 185 20 S 188.94 19.63, 190 18.57 S 193.66 9.33, 195 10 S 198.53 23.26, 200 23.57 S 204.4 13.51, 205 12.14"
          fill="none"/>
    <circle r="4" cx="5" cy="40" fill="#3023AE"/>
    <circle r="4" cx="205" cy="12.14" fill="#C86DD7"/>      
</svg>