<svg width="200" height="50" viewBox="0 0 210 50" xmlns="http://www.w3.org/2000/svg">
    <defs>
        <linearGradient x1="0%" y1="0%" x2="100%" y2="0%" id="a">
            <stop stop-color="#3023AE" offset="0%"/>
            <stop stop-color="#C86DD7" offset="100%"/>
        </linearGradient>
    </defs>
    <path stroke="url(#a)"
          stroke-width="3"
          stroke-linejoin="round"
          stroke-linecap="round"
          d="M5 40 C 5.81 38.74, 8.74 32.99, 10 32.17 S 13.51 33.67, 15 33.48 S 18.6 30.32, 20 30.87 S 23.74 36.57, 25 37.39 S 28.51 37.2, 30 37.39 S 33.74 39.52, 35 38.7 S 38.82 31.79, 40 30.87 S 43.6 31.42, 45 30.87 S 48.6 26.41, 50 26.96 S 53.6 34.23, 55 34.78 S 59.28 32.19, 60 30.87 S 64.19 17.78, 65 16.52 S 69.19 13.96, 70 15.22 S 73.6 31.62, 75 32.17 S 79.09 20.32, 80 19.13 S 83.5 19.13, 85 19.13 S 88.67 18.44, 90 19.13 S 93.6 23.8, 95 24.35 S 98.55 23.42, 100 23.04 S 103.6 21.19, 105 21.74 S 108.55 27.34, 110 26.96 S 114.09 20.32, 115 19.13 S 118.82 12.99, 120 13.91 S 124.14 25.73, 125 26.96 S 128.89 29.27, 130 28.26 S 133.74 17.01, 135 17.83 S 139.14 33.55, 140 34.78 S 143.67 32.86, 145 32.17 S 148.51 29.76, 150 29.57 S 153.67 31.56, 155 30.87 S 158.67 25.04, 160 24.35 S 163.6 26.2, 165 25.65 S 168.6 19.88, 170 20.43 S 173.51 29.76, 175 29.57 S 178.67 19.82, 180 19.13 S 184.03 23.21, 185 24.35 S 189.14 32.1, 190 30.87 S 194.09 11.19, 195 10 S 198.74 17.01, 200 17.83 S 203.55 16.9, 205 16.52"
          fill="none"/>
    <circle r="4" cx="5" cy="40" fill="#3023AE"/>
    <circle r="4" cx="205" cy="16.52" fill="#C86DD7"/>      
</svg>