<svg width="200" height="50" viewBox="0 0 210 50" xmlns="http://www.w3.org/2000/svg">
    <defs>
        <linearGradient x1="0%" y1="0%" x2="100%" y2="0%" id="a">
            <stop stop-color="#3023AE" offset="0%"/>
            <stop stop-color="#C86DD7" offset="100%"/>
        </linearGradient>
    </defs>
    <path stroke="url(#a)"
          stroke-width="3"
          stroke-linejoin="round"
          stroke-linecap="round"
          d="M5 40 C 6.12 39, 9.19 36.79, 10 35.53 S 13.97 25.56, 15 24.47 S 19.1 26.2, 20 25 S 24.07 9.87, 25 11.05 S 29.41 36.25, 30 37.63 S 33.62 35.05, 35 34.47 S 38.53 33.11, 40 33.42 S 43.5 36.62, 45 36.58 S 48.88 34.16, 50 33.16 S 53.53 27.94, 55 27.63 S 58.94 29.99, 60 31.05 S 63.78 36.76, 65 37.63 S 68.72 38.94, 70 38.16 S 73.57 32.03, 75 31.58 S 78.63 34.39, 80 35 S 83.52 36.32, 85 36.05 S 88.55 32.78, 90 33.16 S 93.63 38.07, 95 38.68 S 98.81 38.54, 100 37.63 S 103.98 32.15, 105 31.05 S 108.6 26.29, 110 26.84 S 113.9 33.98, 115 35 S 118.56 36.47, 120 36.05 S 123.82 33.04, 125 32.11 S 128.56 28.58, 130 28.16 S 133.5 29.09, 135 29.21 S 138.51 29.15, 140 28.95 S 143.53 28.2, 145 27.89 S 148.55 26.46, 150 26.84 S 153.5 30.53, 155 30.53 S 158.54 26.5, 160 26.84 S 163.66 32.22, 165 32.89 S 168.5 31.8, 170 31.84 S 173.5 33.04, 175 33.16 S 179.41 34.01, 180 32.63 S 183.98 11.1, 185 10 S 189.31 20.51, 190 21.84 S 193.73 28.67, 195 29.47 S 198.97 29.25, 200 28.16 S 204.28 20.27, 205 18.95"
          fill="none"/>
    <circle r="4" cx="5" cy="40" fill="#3023AE"/>
    <circle r="4" cx="205" cy="18.95" fill="#C86DD7"/>      
</svg>