<svg width="200" height="50" viewBox="0 0 210 50" xmlns="http://www.w3.org/2000/svg">
    <defs>
        <linearGradient x1="0%" y1="0%" x2="100%" y2="0%" id="a">
            <stop stop-color="#3023AE" offset="0%"/>
            <stop stop-color="#C86DD7" offset="100%"/>
        </linearGradient>
    </defs>
    <path stroke="url(#a)"
          stroke-width="3"
          stroke-linejoin="round"
          stroke-linecap="round"
          d="M5 40 C 6.5 39.98, 8.5 39.94, 10 39.94 S 13.5 39.97, 15 39.97 S 18.5 39.97, 20 39.97 S 23.5 39.97, 25 39.97 S 28.5 39.97, 30 39.97 S 33.5 39.97, 35 39.97 S 38.5 39.97, 40 39.97 S 43.5 39.98, 45 39.97 S 48.5 39.9, 50 39.9 S 53.5 39.94, 55 39.94 S 58.5 39.9, 60 39.9 S 64.52 41.39, 65 39.97 S 68.85 10.96, 70 10 S 74.5 30.22, 75 31.63 S 78.68 37.54, 80 38.26 S 83.5 36.98, 85 37.07 S 88.52 38.6, 90 38.87 S 93.5 38.88, 95 38.87 S 98.5 38.74, 100 38.81 S 103.5 39.33, 105 39.32 S 108.61 39.31, 110 38.74 S 113.5 35.29, 115 35.2 S 118.52 38.36, 120 38.13 S 123.51 33.78, 125 33.63 S 128.66 36.42, 130 37.1 S 133.52 38.45, 135 38.71 S 138.5 38.83, 140 38.87 S 143.5 38.94, 145 38.97 S 148.5 39.2, 150 39.1 S 153.5 38.3, 155 38.29 S 158.51 38.86, 160 39 S 163.5 39.26, 165 39.26 S 168.5 38.98, 170 38.97 S 173.5 39.23, 175 39.2 S 178.5 38.75, 180 38.78 S 183.5 39.31, 185 39.39 S 188.5 39.3, 190 39.29 S 193.5 39.31, 195 39.32 S 198.5 39.39, 200 39.36 S 203.5 39.18, 205 39.1"
          fill="none"/>
    <circle r="4" cx="5" cy="40" fill="#3023AE"/>
    <circle r="4" cx="205" cy="39.1" fill="#C86DD7"/>      
</svg>