<svg width="200" height="50" viewBox="0 0 210 50" xmlns="http://www.w3.org/2000/svg">
    <defs>
        <linearGradient x1="0%" y1="0%" x2="100%" y2="0%" id="a">
            <stop stop-color="#3023AE" offset="0%"/>
            <stop stop-color="#C86DD7" offset="100%"/>
        </linearGradient>
    </defs>
    <path stroke="url(#a)"
          stroke-width="3"
          stroke-linejoin="round"
          stroke-linecap="round"
          d="M5 40 C 5.88 38.78, 8.63 33.68, 10 33.08 S 13.61 35.06, 15 35.62 S 18.5 37.03, 20 37.08 S 23.83 36.86, 25 35.93 S 28.54 29.48, 30 29.12 S 33.7 32.71, 35 33.46 S 38.56 34.48, 40 34.89 S 43.5 36.34, 45 36.28 S 48.95 35.54, 50 34.47 S 54.23 27.32, 55 26.03 S 58.5 17.85, 60 17.82 S 63.82 26.74, 65 25.82 S 68.5 10.08, 70 10 S 73.71 24.5, 75 25.26 S 78.51 15.72, 80 15.87 S 83.52 26.52, 85 26.27 S 88.51 14, 90 14.21 S 94.06 26.49, 95 27.66 S 98.82 27.57, 100 26.65 S 103.56 20.29, 105 19.87 S 108.61 23.13, 110 23.7 S 113.5 24.02, 115 23.94 S 118.51 23.36, 120 23.17 S 123.5 22.65, 125 22.69 S 128.64 24.05, 130 23.42 S 133.99 19.14, 135 18.03 S 138.5 12.3, 140 12.4 S 143.83 17.75, 145 18.69 S 148.58 19.9, 150 20.39 S 153.53 21.83, 155 22.13 S 158.59 22.95, 160 22.44 S 163.53 18.8, 165 18.52 S 168.8 19.63, 170 20.53 S 173.68 25.24, 175 25.96 S 178.53 25.69, 180 25.99 S 183.52 27.79, 185 28.01 S 188.51 27.34, 190 27.49 S 193.52 28.76, 195 29.02 S 198.51 29.39, 200 29.26 S 203.53 28.5, 205 28.18"
          fill="none"/>
    <circle r="4" cx="5" cy="40" fill="#3023AE"/>
    <circle r="4" cx="205" cy="28.18" fill="#C86DD7"/>      
</svg>