<svg width="200" height="50" viewBox="0 0 210 50" xmlns="http://www.w3.org/2000/svg">
    <defs>
        <linearGradient x1="0%" y1="0%" x2="100%" y2="0%" id="a">
            <stop stop-color="#3023AE" offset="0%"/>
            <stop stop-color="#C86DD7" offset="100%"/>
        </linearGradient>
    </defs>
    <path stroke="url(#a)"
          stroke-width="3"
          stroke-linejoin="round"
          stroke-linecap="round"
          d="M5 40 C 6.49 39.81, 8.5 39.45, 10 39.37 S 13.5 39.5, 15 39.44 S 18.64 39.57, 20 38.94 S 23.79 35.66, 25 34.78 S 28.51 31.81, 30 31.64 S 33.53 33.35, 35 33.67 S 38.5 33.87, 40 33.83 S 43.5 33.41, 45 33.43 S 48.52 34.19, 50 33.97 S 53.52 32.24, 55 31.98 S 58.51 32.37, 60 32.18 S 63.59 31.19, 65 30.69 S 68.58 29.13, 70 28.64 S 73.53 27.52, 75 27.21 S 78.52 26.78, 80 26.51 S 83.58 25.89, 85 25.41 S 88.59 23.65, 90 23.15 S 93.52 22.09, 95 21.86 S 98.51 21.79, 100 21.61 S 103.76 21.47, 105 20.62 S 108.67 15.47, 110 14.79 S 113.5 15.49, 115 15.49 S 118.5 14.9, 120 14.81 S 123.5 14.91, 125 14.9 S 128.51 14.6, 130 14.72 S 133.67 15.04, 135 15.72 S 138.5 19.94, 140 19.85 S 143.69 15.88, 145 15.15 S 148.53 14.58, 150 14.27 S 153.55 12.66, 155 13.03 S 158.51 16.67, 160 16.8 S 163.52 14.16, 165 13.93 S 168.58 14.76, 170 15.24 S 173.52 17.02, 175 17.27 S 178.52 17.17, 180 16.94 S 183.7 16.47, 185 15.72 S 188.57 11.62, 190 11.17 S 193.51 12.71, 195 12.55 S 198.55 10.44, 200 10.07 S 203.5 10.02, 205 10"
          fill="none"/>
    <circle r="4" cx="5" cy="40" fill="#3023AE"/>
    <circle r="4" cx="205" cy="10" fill="#C86DD7"/>      
</svg>