<svg width="200" height="50" viewBox="0 0 210 50" xmlns="http://www.w3.org/2000/svg">
    <defs>
        <linearGradient x1="0%" y1="0%" x2="100%" y2="0%" id="a">
            <stop stop-color="#3023AE" offset="0%"/>
            <stop stop-color="#C86DD7" offset="100%"/>
        </linearGradient>
    </defs>
    <path stroke="url(#a)"
          stroke-width="3"
          stroke-linejoin="round"
          stroke-linecap="round"
          d="M5 40 C 5.9 38.8, 8.5 33.48, 10 33.38 S 13.67 38.64, 15 39.34 S 18.5 38.74, 20 38.66 S 23.5 38.83, 25 38.8 S 29.51 39.89, 30 38.47 S 33.52 10.26, 35 10 S 39.48 35.28, 40 36.69 S 43.51 36.9, 45 37.06 S 48.51 37.59, 50 37.73 S 53.5 38.09, 55 37.99 S 58.51 37.29, 60 37.08 S 63.52 36.35, 65 36.6 S 68.54 38.44, 70 38.77 S 73.5 38.86, 75 38.82 S 78.5 38.57, 80 38.47 S 83.5 38.21, 85 38.15 S 88.5 38.08, 90 38.09 S 93.5 38.22, 95 38.25 S 98.5 38.43, 100 38.32 S 103.5 37.47, 105 37.5 S 108.51 38.31, 110 38.5 S 113.5 38.75, 115 38.76 S 118.5 38.54, 120 38.54 S 123.5 38.71, 125 38.74 S 128.5 38.78, 130 38.77 S 133.5 38.7, 135 38.69 S 138.52 38.93, 140 38.69 S 143.5 37.17, 145 37.07 S 148.51 37.86, 150 38.04 S 153.5 38.34, 155 38.29 S 158.5 37.76, 160 37.72 S 163.5 38.12, 165 38.04 S 168.51 37.37, 170 37.21 S 173.5 36.96, 175 36.99 S 178.5 37.41, 180 37.42 S 183.5 37.09, 185 37.07 S 188.5 37.28, 190 37.28 S 193.5 37.11, 195 37.06 S 198.5 36.87, 200 36.92 S 203.51 37.27, 205 37.42"
          fill="none"/>
    <circle r="4" cx="5" cy="40" fill="#3023AE"/>
    <circle r="4" cx="205" cy="37.42" fill="#C86DD7"/>      
</svg>