<svg width="200" height="50" viewBox="0 0 210 50" xmlns="http://www.w3.org/2000/svg">
    <defs>
        <linearGradient x1="0%" y1="0%" x2="100%" y2="0%" id="a">
            <stop stop-color="#3023AE" offset="0%"/>
            <stop stop-color="#C86DD7" offset="100%"/>
        </linearGradient>
    </defs>
    <path stroke="url(#a)"
          stroke-width="3"
          stroke-linejoin="round"
          stroke-linecap="round"
          d="M5 40 C 5.33 38.54, 8.66 18.17, 10 17.5 S 14.26 33.7, 15 35 S 18.54 34.64, 20 35 S 23.54 37.14, 25 37.5 S 28.5 37.5, 30 37.5 S 33.5 37.5, 35 37.5 S 38.5 37.5, 40 37.5 S 43.5 37.5, 45 37.5 S 49.49 38.91, 50 37.5 S 54.44 11.39, 55 10 S 59.39 11.13, 60 12.5 S 64.26 31.2, 65 32.5 S 68.54 29.64, 70 30 S 73.8 34.1, 75 35 S 78.54 37.14, 80 37.5 S 83.5 37.5, 85 37.5 S 88.5 37.5, 90 37.5 S 93.5 37.5, 95 37.5 S 98.5 37.5, 100 37.5 S 103.5 37.5, 105 37.5 S 108.5 37.5, 110 37.5 S 113.5 37.5, 115 37.5 S 118.5 37.5, 120 37.5 S 123.5 37.5, 125 37.5 S 128.5 37.5, 130 37.5 S 133.5 37.5, 135 37.5 S 138.5 37.5, 140 37.5 S 143.5 37.5, 145 37.5 S 148.5 37.5, 150 37.5 S 153.5 37.5, 155 37.5 S 158.5 37.5, 160 37.5 S 163.5 37.5, 165 37.5 S 168.5 37.5, 170 37.5 S 173.5 37.5, 175 37.5 S 178.5 37.5, 180 37.5"
          fill="none"/>
    <circle r="4" cx="5" cy="40" fill="#3023AE"/>
    <circle r="4" cx="180" cy="37.5" fill="#C86DD7"/>      
</svg>