<svg width="200" height="50" viewBox="0 0 210 50" xmlns="http://www.w3.org/2000/svg">
    <defs>
        <linearGradient x1="0%" y1="0%" x2="100%" y2="0%" id="a">
            <stop stop-color="#3023AE" offset="0%"/>
            <stop stop-color="#C86DD7" offset="100%"/>
        </linearGradient>
    </defs>
    <path stroke="url(#a)"
          stroke-width="3"
          stroke-linejoin="round"
          stroke-linecap="round"
          d="M5 40 C 6.35 39.35, 8.51 37.78, 10 37.6 S 13.51 38.62, 15 38.8 S 18.5 38.8, 20 38.8 S 23.5 38.8, 25 38.8 S 28.5 38.8, 30 38.8 S 33.5 38.8, 35 38.8 S 38.5 38.8, 40 38.8 S 43.5 38.8, 45 38.8 S 48.5 38.8, 50 38.8 S 53.5 38.8, 55 38.8 S 58.5 38.8, 60 38.8 S 63.5 38.8, 65 38.8 S 68.5 38.8, 70 38.8 S 73.5 38.8, 75 38.8 S 78.5 38.8, 80 38.8 S 83.5 38.8, 85 38.8 S 88.5 38.8, 90 38.8 S 93.5 38.8, 95 38.8 S 98.5 38.8, 100 38.8 S 103.5 38.8, 105 38.8 S 108.5 38.8, 110 38.8 S 113.5 38.8, 115 38.8 S 119.51 40.22, 120 38.8 S 123.54 10.35, 125 10 S 129.42 35.02, 130 36.4 S 133.51 33.82, 135 34 S 138.5 37.6, 140 37.6 S 143.51 34.18, 145 34 S 148.51 36.22, 150 36.4 S 153.51 35.38, 155 35.2 S 158.59 34.69, 160 35.2 S 163.59 38.29, 165 38.8 S 168.5 38.8, 170 38.8 S 173.51 38.98, 175 38.8 S 178.51 37.78, 180 37.6 S 183.54 37.95, 185 37.6 S 188.5 35.2, 190 35.2 S 193.59 37.09, 195 37.6 S 198.54 39.15, 200 38.8 S 203.78 36.08, 205 35.2"
          fill="none"/>
    <circle r="4" cx="5" cy="40" fill="#3023AE"/>
    <circle r="4" cx="205" cy="35.2" fill="#C86DD7"/>      
</svg>