<svg width="200" height="50" viewBox="0 0 210 50" xmlns="http://www.w3.org/2000/svg">
    <defs>
        <linearGradient x1="0%" y1="0%" x2="100%" y2="0%" id="a">
            <stop stop-color="#3023AE" offset="0%"/>
            <stop stop-color="#C86DD7" offset="100%"/>
        </linearGradient>
    </defs>
    <path stroke="url(#a)"
          stroke-width="3"
          stroke-linejoin="round"
          stroke-linecap="round"
          d="M5 40 C 6.5 39.98, 8.5 39.93, 10 39.92 S 13.5 39.93, 15 39.94 S 18.5 39.97, 20 39.97 S 23.5 39.98, 25 39.97 S 28.5 39.93, 30 39.93 S 33.5 39.95, 35 39.96 S 38.5 39.97, 40 39.97 S 43.5 39.97, 45 39.97 S 48.5 39.96, 50 39.96 S 53.5 39.95, 55 39.95 S 58.5 39.96, 60 39.96 S 63.5 39.95, 65 39.95 S 68.5 39.97, 70 39.97 S 73.5 40, 75 39.96 S 78.5 39.75, 80 39.73 S 83.5 39.82, 85 39.85 S 88.5 39.92, 90 39.93 S 93.5 39.91, 95 39.91 S 98.5 39.92, 100 39.92 S 103.5 39.92, 105 39.92 S 108.5 39.92, 110 39.92 S 113.5 39.91, 115 39.91 S 118.5 39.94, 120 39.94 S 123.5 39.91, 125 39.91 S 128.5 39.94, 130 39.94 S 133.5 39.92, 135 39.92 S 138.5 39.92, 140 39.92 S 143.5 39.91, 145 39.91 S 148.5 39.92, 150 39.92 S 153.5 39.93, 155 39.93 S 158.5 39.91, 160 39.91 S 163.5 39.92, 165 39.92 S 168.5 39.91, 170 39.91 S 173.5 39.89, 175 39.89 S 178.5 39.91, 180 39.91 S 184.52 41.34, 185 39.92 S 188.5 10.02, 190 10 S 194.52 38.39, 195 39.81 S 198.5 39.87, 200 39.88 S 203.5 39.88, 205 39.88"
          fill="none"/>
    <circle r="4" cx="5" cy="40" fill="#3023AE"/>
    <circle r="4" cx="205" cy="39.88" fill="#C86DD7"/>      
</svg>