<svg width="200" height="50" viewBox="0 0 210 50" xmlns="http://www.w3.org/2000/svg">
    <defs>
        <linearGradient x1="0%" y1="0%" x2="100%" y2="0%" id="a">
            <stop stop-color="#3023AE" offset="0%"/>
            <stop stop-color="#C86DD7" offset="100%"/>
        </linearGradient>
    </defs>
    <path stroke="url(#a)"
          stroke-width="3"
          stroke-linejoin="round"
          stroke-linecap="round"
          d="M5 40 C 5.27 38.52, 8.59 12.79, 10 12.28 S 14.4 35.04, 15 36.41 S 18.5 35.21, 20 35.11 S 23.6 35.21, 25 35.76 S 28.54 38.69, 30 39.02 S 33.5 37.94, 35 38.04 S 38.52 39.43, 40 39.67 S 43.5 39.67, 45 39.67 S 48.5 39.67, 50 39.67 S 53.65 40.33, 55 39.67 S 58.67 35.47, 60 34.78 S 63.55 34.84, 65 34.46 S 68.5 32.17, 70 32.17 S 73.59 34.97, 75 34.46 S 78.65 29.25, 80 28.59 S 83.6 29.02, 85 29.57 S 88.62 33.09, 90 32.5 S 93.74 26.15, 95 25.33 S 98.54 25.65, 100 25.98 S 103.53 27.9, 105 27.61 S 108.56 24.44, 110 24.02 S 113.5 24.57, 115 24.67 S 118.51 24.52, 120 24.67 S 123.78 26.52, 125 25.65 S 128.51 17.69, 130 17.5 S 133.54 24.02, 135 24.35 S 138.74 20.6, 140 19.78 S 143.78 18.7, 145 17.83 S 148.74 13.43, 150 12.61 S 153.8 10.4, 155 11.3 S 158.51 20.3, 160 20.11 S 163.54 9.67, 165 10 S 168.78 21.52, 170 22.39 S 173.54 16.84, 175 17.17 S 178.64 24.05, 180 24.67 S 183.56 22.16, 185 21.74 S 188.57 21.28, 190 21.74 S 193.53 24.71, 195 25 S 198.65 24.36, 200 23.7 S 203.78 20.98, 205 20.11"
          fill="none"/>
    <circle r="4" cx="5" cy="40" fill="#3023AE"/>
    <circle r="4" cx="205" cy="20.11" fill="#C86DD7"/>      
</svg>