<svg width="200" height="50" viewBox="0 0 210 50" xmlns="http://www.w3.org/2000/svg">
    <defs>
        <linearGradient x1="0%" y1="0%" x2="100%" y2="0%" id="a">
            <stop stop-color="#3023AE" offset="0%"/>
            <stop stop-color="#C86DD7" offset="100%"/>
        </linearGradient>
    </defs>
    <path stroke="url(#a)"
          stroke-width="3"
          stroke-linejoin="round"
          stroke-linecap="round"
          d="M5 40 C 5.39 38.55, 8.69 22.03, 10 21.29 S 13.71 33.59, 15 34.36 S 18.71 28, 20 27.23 S 23.5 28.42, 25 28.42 S 28.5 27.14, 30 27.23 S 33.69 29.75, 35 29.01 S 38.99 22.69, 40 21.58 S 43.55 18.41, 45 18.02 S 48.62 19.49, 50 18.91 S 53.8 12.97, 55 13.86 S 58.98 25.24, 60 26.34 S 63.57 25.02, 65 24.55 S 68.51 22.94, 70 23.07 S 73.51 25.27, 75 25.45 S 78.9 25.28, 80 24.26 S 83.65 16.88, 85 16.24 S 88.8 18.61, 90 19.5 S 93.57 23.19, 95 23.66 S 98.5 22.81, 100 22.77 S 103.52 23.59, 105 23.37 S 108.56 21.72, 110 21.29 S 113.51 20.27, 115 20.4 S 118.73 21.39, 120 22.18 S 124.05 27.79, 125 26.63 S 128.51 10.18, 130 10 S 134.21 24.18, 135 25.45 S 138.54 25.69, 140 26.04 S 143.54 28.17, 145 27.82 S 148.51 23.84, 150 23.66 S 153.52 26.89, 155 26.63 S 158.51 22.01, 160 21.88 S 163.76 24.89, 165 25.74 S 168.5 28.67, 170 28.71 S 173.51 26.22, 175 26.04 S 178.62 26.94, 180 27.52 S 183.52 29.98, 185 30.2 S 188.6 29.55, 190 29.01 S 193.66 27.02, 195 26.34 S 198.59 23.46, 200 23.96 S 204.03 28.75, 205 29.9"
          fill="none"/>
    <circle r="4" cx="5" cy="40" fill="#3023AE"/>
    <circle r="4" cx="205" cy="29.9" fill="#C86DD7"/>      
</svg>