<svg width="200" height="50" viewBox="0 0 210 50" xmlns="http://www.w3.org/2000/svg">
    <defs>
        <linearGradient x1="0%" y1="0%" x2="100%" y2="0%" id="a">
            <stop stop-color="#3023AE" offset="0%"/>
            <stop stop-color="#C86DD7" offset="100%"/>
        </linearGradient>
    </defs>
    <path stroke="url(#a)"
          stroke-width="3"
          stroke-linejoin="round"
          stroke-linecap="round"
          d="M5 40 C 6.2 39.1, 8.51 36.44, 10 36.25 S 13.54 38.39, 15 38.75 S 18.66 39.42, 20 38.75 S 23.54 34.11, 25 33.75 S 28.66 35.58, 30 36.25 S 33.54 38.39, 35 38.75 S 38.51 38.94, 40 38.75 S 43.5 37.5, 45 37.5 S 48.54 39.11, 50 38.75 S 53.5 35, 55 35 S 58.54 38.39, 60 38.75 S 63.51 37.69, 65 37.5 S 68.51 37.31, 70 37.5 S 73.51 38.56, 75 38.75 S 78.5 38.75, 80 38.75 S 83.66 39.42, 85 38.75 S 88.6 34.28, 90 33.75 S 93.66 34.33, 95 35 S 98.6 39.28, 100 38.75 S 103.66 31.92, 105 31.25 S 108.51 33.94, 110 33.75 S 113.66 29.33, 115 30 S 118.87 37.76, 120 38.75 S 123.5 38.75, 125 38.75 S 128.5 38.75, 130 38.75 S 133.51 38.94, 135 38.75 S 138.6 38.03, 140 37.5 S 143.5 35, 145 35 S 148.51 37.69, 150 37.5 S 154.06 34.92, 155 33.75 S 158.54 25.36, 160 25 S 163.8 30.35, 165 31.25 S 168.51 32.31, 170 32.5 S 173.6 33.03, 175 32.5 S 178.73 29.54, 180 28.75 S 183.66 25.58, 185 26.25 S 189.21 35.03, 190 33.75 S 193.94 11.06, 195 10 S 199.29 22.43, 200 23.75 S 203.94 27.69, 205 28.75"
          fill="none"/>
    <circle r="4" cx="5" cy="40" fill="#3023AE"/>
    <circle r="4" cx="205" cy="28.75" fill="#C86DD7"/>      
</svg>