<svg width="200" height="50" viewBox="0 0 210 50" xmlns="http://www.w3.org/2000/svg">
    <defs>
        <linearGradient x1="0%" y1="0%" x2="100%" y2="0%" id="a">
            <stop stop-color="#3023AE" offset="0%"/>
            <stop stop-color="#C86DD7" offset="100%"/>
        </linearGradient>
    </defs>
    <path stroke="url(#a)"
          stroke-width="3"
          stroke-linejoin="round"
          stroke-linecap="round"
          d="M5 40 C 6.5 39.97, 8.5 39.91, 10 39.89 S 13.5 39.86, 15 39.86 S 18.5 39.95, 20 39.92 S 24.52 41.06, 25 39.64 S 28.55 10.4, 30 10 S 34.44 35.49, 35 36.88 S 38.5 34.78, 40 34.78 S 43.5 36.86, 45 36.88 S 48.5 34.94, 50 34.89 S 53.5 36.66, 55 36.55 S 58.51 34.27, 60 34.14 S 63.52 35.44, 65 35.69 S 68.56 36.28, 70 35.86 S 73.5 32.76, 75 32.76 S 78.5 35.75, 80 35.83 S 83.52 33.54, 85 33.29 S 88.5 34.12, 90 34.14 S 93.51 33.29, 95 33.45 S 98.5 35.22, 100 35.22 S 103.5 33.47, 105 33.43 S 108.53 34.64, 110 34.92 S 113.51 35.44, 115 35.3 S 118.5 33.95, 120 33.95 S 123.5 35.36, 125 35.33 S 128.53 34.09, 130 33.78 S 133.56 33.62, 135 33.2 S 138.5 30.97, 140 30.86 S 143.51 32.32, 145 32.49 S 148.51 31.81, 150 31.99 S 153.52 33.47, 155 33.73 S 158.5 33.85, 160 33.73 S 163.55 33.35, 165 32.96 S 168.52 31.28, 170 31.05 S 173.55 31.82, 175 31.44 S 178.52 28.63, 180 28.4 S 183.54 29.6, 185 29.92 S 188.51 30.44, 190 30.61 S 193.51 31.21, 195 31.08 S 198.51 29.87, 200 29.72 S 203.5 29.96, 205 30.06"
          fill="none"/>
    <circle r="4" cx="5" cy="40" fill="#3023AE"/>
    <circle r="4" cx="205" cy="30.060000000000002" fill="#C86DD7"/>      
</svg>