<svg width="200" height="50" viewBox="0 0 210 50" xmlns="http://www.w3.org/2000/svg">
    <defs>
        <linearGradient x1="0%" y1="0%" x2="100%" y2="0%" id="a">
            <stop stop-color="#3023AE" offset="0%"/>
            <stop stop-color="#C86DD7" offset="100%"/>
        </linearGradient>
    </defs>
    <path stroke="url(#a)"
          stroke-width="3"
          stroke-linejoin="round"
          stroke-linecap="round"
          d="M5 40 C 5.25 38.52, 8.82 10.93, 10 10 S 14.4 30.71, 15 32.08 S 18.53 32.5, 20 32.78 S 23.67 34.65, 25 33.96 S 28.5 27.64, 30 27.59 S 33.71 32.84, 35 33.61 S 38.5 33.51, 40 33.58 S 43.52 34.29, 45 34.06 S 48.55 32.4, 50 32.03 S 53.52 31.75, 55 31.49 S 58.54 30.64, 60 30.3 S 63.52 28.89, 65 29.14 S 68.58 31.5, 70 31.99 S 73.5 32.63, 75 32.6 S 78.5 31.7, 80 31.8 S 83.51 33.12, 85 33.26 S 88.52 32.96, 90 32.74 S 93.54 32.1, 95 31.75 S 98.5 30.3, 100 30.35 S 103.52 31.84, 105 32.07 S 108.52 32.16, 110 31.92 S 113.5 30.57, 115 30.48 S 118.54 31.7, 120 31.35 S 123.58 28.57, 125 28.08 S 128.5 27.83, 130 27.86 S 133.51 28.11, 135 28.26 S 138.5 28.82, 140 28.89 S 143.57 29.2, 145 28.75 S 148.54 26.06, 150 25.71 S 153.52 26.05, 155 26.32 S 158.5 27.55, 160 27.53 S 163.55 26.56, 165 26.18 S 168.5 25, 170 24.93 S 173.5 25.71, 175 25.71 S 178.61 25.5, 180 24.95 S 183.57 22.2, 185 21.74 S 188.53 21.99, 190 21.69 S 193.53 20.01, 195 19.69 S 198.5 19.6, 200 19.51 S 203.51 19.19, 205 19.06"
          fill="none"/>
    <circle r="4" cx="5" cy="40" fill="#3023AE"/>
    <circle r="4" cx="205" cy="19.06" fill="#C86DD7"/>      
</svg>