<svg width="200" height="50" viewBox="0 0 210 50" xmlns="http://www.w3.org/2000/svg">
    <defs>
        <linearGradient x1="0%" y1="0%" x2="100%" y2="0%" id="a">
            <stop stop-color="#3023AE" offset="0%"/>
            <stop stop-color="#C86DD7" offset="100%"/>
        </linearGradient>
    </defs>
    <path stroke="url(#a)"
          stroke-width="3"
          stroke-linejoin="round"
          stroke-linecap="round"
          d="M5 40 C 5.26 38.52, 8.84 12.18, 10 11.23 S 14.32 30.42, 15 31.76 S 18.58 31.34, 20 30.86 S 23.53 28.1, 25 28.39 S 28.6 32.32, 30 32.86 S 33.57 32.71, 35 32.26 S 38.57 30.14, 40 29.69 S 43.52 29.33, 45 29.08 S 48.53 27.68, 50 27.99 S 53.54 30.87, 55 31.2 S 58.5 30.12, 60 30.24 S 63.51 32.14, 65 31.98 S 68.53 29.43, 70 29.14 S 73.52 29.78, 75 29.99 S 78.51 30.78, 80 30.58 S 83.6 29.18, 85 28.65 S 88.58 27.31, 90 26.82 S 93.5 25.26, 95 25.22 S 98.5 26.56, 100 26.55 S 103.56 25.6, 105 25.16 S 108.5 23.53, 110 23.51 S 113.5 25.12, 115 25.03 S 118.53 23.21, 120 22.93 S 123.57 23.56, 125 23.11 S 128.63 20.36, 130 19.76 S 133.55 19.1, 135 18.72 S 138.6 17.68, 140 17.15 S 143.51 15.13, 145 14.94 S 148.54 15.53, 150 15.88 S 153.52 17.55, 155 17.32 S 158.5 14.38, 160 14.36 S 163.53 17.51, 165 17.2 S 168.62 12.85, 170 12.25 S 173.54 13.19, 175 12.86 S 178.53 10.28, 180 10 S 183.59 10.46, 185 10.98 S 188.58 13.24, 190 13.73 S 193.63 13.83, 195 14.45 S 198.53 17.95, 200 18.24 S 203.59 16.93, 205 16.42"
          fill="none"/>
    <circle r="4" cx="5" cy="40" fill="#3023AE"/>
    <circle r="4" cx="205" cy="16.42" fill="#C86DD7"/>      
</svg>