<svg width="200" height="50" viewBox="0 0 210 50" xmlns="http://www.w3.org/2000/svg">
    <defs>
        <linearGradient x1="0%" y1="0%" x2="100%" y2="0%" id="a">
            <stop stop-color="#3023AE" offset="0%"/>
            <stop stop-color="#C86DD7" offset="100%"/>
        </linearGradient>
    </defs>
    <path stroke="url(#a)"
          stroke-width="3"
          stroke-linejoin="round"
          stroke-linecap="round"
          d="M5 40 C 5.25 38.52, 8.84 10.95, 10 10 S 14.4 30.42, 15 31.79 S 18.54 33.1, 20 32.74 S 23.53 29.62, 25 29.33 S 28.63 30.12, 30 30.74 S 33.56 33.46, 35 33.87 S 38.56 34.02, 40 33.6 S 43.55 31.33, 45 30.94 S 48.5 31.05, 50 30.94 S 53.55 30.59, 55 30.22 S 58.51 28.21, 60 28.41 S 63.57 31.08, 65 31.54 S 68.5 31.56, 70 31.65 S 73.5 32.05, 75 32.16 S 78.51 32.52, 80 32.39 S 83.55 31.63, 85 31.26 S 88.5 29.93, 90 29.87 S 93.51 30.67, 95 30.85 S 98.51 31.19, 100 31.06 S 103.53 30.26, 105 29.96 S 108.59 29.5, 110 28.99 S 113.52 26.59, 115 26.37 S 118.52 27.27, 120 27.49 S 123.51 28.01, 125 27.88 S 128.57 27.11, 130 26.65 S 133.5 24.72, 135 24.68 S 138.51 26.22, 140 26.36 S 143.53 25.93, 145 25.61 S 148.51 24.35, 150 24.2 S 153.52 24.86, 155 24.63 S 158.61 23.19, 160 22.63 S 163.55 20.97, 165 20.59 S 168.51 20.21, 170 20 S 173.59 19.67, 175 19.17 S 178.5 16.53, 180 16.44 S 183.52 18.37, 185 18.6 S 188.5 18.06, 190 17.99 S 193.51 18.37, 195 18.16 S 198.5 16.49, 200 16.59 S 203.63 18.23, 205 18.85"
          fill="none"/>
    <circle r="4" cx="5" cy="40" fill="#3023AE"/>
    <circle r="4" cx="205" cy="18.85" fill="#C86DD7"/>      
</svg>