<svg width="200" height="50" viewBox="0 0 210 50" xmlns="http://www.w3.org/2000/svg">
    <defs>
        <linearGradient x1="0%" y1="0%" x2="100%" y2="0%" id="a">
            <stop stop-color="#3023AE" offset="0%"/>
            <stop stop-color="#C86DD7" offset="100%"/>
        </linearGradient>
    </defs>
    <path stroke="url(#a)"
          stroke-width="3"
          stroke-linejoin="round"
          stroke-linecap="round"
          d="M5 40 C 6.38 39.41, 8.53 38.17, 10 37.86 S 13.5 37.86, 15 37.86 S 18.5 37.86, 20 37.86 S 23.5 37.86, 25 37.86 S 28.5 37.86, 30 37.86 S 33.5 37.86, 35 37.86 S 38.5 37.86, 40 37.86 S 43.5 37.86, 45 37.86 S 48.5 37.86, 50 37.86 S 53.5 37.86, 55 37.86 S 58.5 37.86, 60 37.86 S 63.5 37.86, 65 37.86 S 68.5 37.86, 70 37.86 S 73.5 37.86, 75 37.86 S 78.5 37.86, 80 37.86 S 83.5 37.86, 85 37.86 S 88.5 37.86, 90 37.86 S 93.5 37.86, 95 37.86 S 98.5 37.86, 100 37.86 S 103.5 37.86, 105 37.86 S 108.5 37.86, 110 37.86 S 113.5 37.86, 115 37.86 S 119.49 39.27, 120 37.86 S 123.53 10.32, 125 10 S 129.49 34.3, 130 35.71 S 133.53 38.17, 135 37.86 S 138.5 33.57, 140 33.57 S 143.74 38.67, 145 37.86 S 148.53 27.46, 150 27.14 S 153.62 35.12, 155 35.71 S 158.53 31.11, 160 31.43 S 163.74 37.05, 165 37.86 S 168.62 38.45, 170 37.86 S 173.5 33.57, 175 33.57 S 178.62 37.27, 180 37.86 S 183.5 37.86, 185 37.86 S 188.53 38.18, 190 37.86 S 193.62 36.3, 195 35.71 S 198.53 33.88, 200 33.57 S 203.5 33.57, 205 33.57"
          fill="none"/>
    <circle r="4" cx="5" cy="40" fill="#3023AE"/>
    <circle r="4" cx="205" cy="33.57" fill="#C86DD7"/>      
</svg>