<svg width="200" height="50" viewBox="0 0 210 50" xmlns="http://www.w3.org/2000/svg">
    <defs>
        <linearGradient x1="0%" y1="0%" x2="100%" y2="0%" id="a">
            <stop stop-color="#3023AE" offset="0%"/>
            <stop stop-color="#C86DD7" offset="100%"/>
        </linearGradient>
    </defs>
    <path stroke="url(#a)"
          stroke-width="3"
          stroke-linejoin="round"
          stroke-linecap="round"
          d="M5 40 C 6.5 39.97, 8.5 39.91, 10 39.89 S 13.5 39.89, 15 39.89 S 18.5 39.89, 20 39.89 S 23.5 39.89, 25 39.89 S 28.5 39.89, 30 39.89 S 33.5 39.89, 35 39.89 S 38.5 39.89, 40 39.89 S 43.5 39.89, 45 39.89 S 48.5 39.89, 50 39.89 S 53.5 39.89, 55 39.89 S 58.5 39.89, 60 39.89 S 63.5 39.89, 65 39.89 S 68.5 39.89, 70 39.89 S 73.5 39.89, 75 39.89 S 78.5 39.89, 80 39.89 S 83.5 39.89, 85 39.89 S 88.5 39.89, 90 39.89 S 93.5 39.89, 95 39.89 S 98.5 39.89, 100 39.89 S 103.5 39.89, 105 39.89 S 108.5 39.89, 110 39.89 S 113.5 39.89, 115 39.89 S 118.5 39.89, 120 39.89 S 123.5 39.89, 125 39.89 S 128.5 39.89, 130 39.89 S 133.5 39.89, 135 39.89 S 138.5 39.89, 140 39.89 S 143.5 39.89, 145 39.89 S 148.5 39.89, 150 39.89 S 153.5 39.89, 155 39.89 S 158.5 39.89, 160 39.89 S 163.5 39.89, 165 39.89 S 168.5 39.89, 170 39.89 S 173.5 39.89, 175 39.89 S 178.5 39.89, 180 39.89 S 183.5 39.89, 185 39.89 S 188.5 39.89, 190 39.89 S 193.5 39.89, 195 39.89 S 199.52 41.31, 200 39.89 S 204.75 11.48, 205 10"
          fill="none"/>
    <circle r="4" cx="5" cy="40" fill="#3023AE"/>
    <circle r="4" cx="205" cy="10" fill="#C86DD7"/>      
</svg>