<svg width="200" height="50" viewBox="0 0 210 50" xmlns="http://www.w3.org/2000/svg">
    <defs>
        <linearGradient x1="0%" y1="0%" x2="100%" y2="0%" id="a">
            <stop stop-color="#3023AE" offset="0%"/>
            <stop stop-color="#C86DD7" offset="100%"/>
        </linearGradient>
    </defs>
    <path stroke="url(#a)"
          stroke-width="3"
          stroke-linejoin="round"
          stroke-linecap="round"
          d="M5 40 C 5.59 38.62, 9.28 29.52, 10 28.21 S 13.5 21.79, 15 21.79 S 18.98 27.11, 20 28.21 S 23.5 32.5, 25 32.5 S 28.98 29.31, 30 28.21 S 34.17 23.04, 35 21.79 S 38.53 13.53, 40 13.21 S 44.24 18.34, 45 19.64 S 48.98 29.26, 50 30.36 S 53.74 31.17, 55 30.36 S 58.62 24.52, 60 23.93 S 63.62 26.66, 65 26.07 S 68.68 20.35, 70 19.64 S 74.03 19.57, 75 20.71 S 79.08 30.25, 80 31.43 S 83.51 33.73, 85 33.57 S 88.5 30.36, 90 30.36 S 93.57 34.03, 95 33.57 S 98.68 27.85, 100 27.14 S 103.62 27.62, 105 28.21 S 108.98 30.33, 110 31.43 S 113.68 38.22, 115 38.93 S 118.57 37.25, 120 36.79 S 123.57 36.17, 125 35.71 S 128.53 33.88, 130 33.57 S 133.57 33.11, 135 33.57 S 138.53 36.48, 140 36.79 S 143.57 36.17, 145 35.71 S 149.31 34.9, 150 33.57 S 153.51 16.59, 155 16.43 S 158.51 32.34, 160 32.5 S 164.21 18.77, 165 17.5 S 168.57 15.97, 170 16.43 S 173.5 20.71, 175 20.71 S 178.68 17.14, 180 16.43 S 183.68 16.07, 185 15.36 S 188.68 11.78, 190 11.07 S 193.53 9.69, 195 10 S 198.5 13.21, 200 13.21 S 203.74 10.81, 205 10"
          fill="none"/>
    <circle r="4" cx="5" cy="40" fill="#3023AE"/>
    <circle r="4" cx="205" cy="10" fill="#C86DD7"/>      
</svg>