<svg width="200" height="50" viewBox="0 0 210 50" xmlns="http://www.w3.org/2000/svg">
    <defs>
        <linearGradient x1="0%" y1="0%" x2="100%" y2="0%" id="a">
            <stop stop-color="#3023AE" offset="0%"/>
            <stop stop-color="#C86DD7" offset="100%"/>
        </linearGradient>
    </defs>
    <path stroke="url(#a)"
          stroke-width="3"
          stroke-linejoin="round"
          stroke-linecap="round"
          d="M5 40 C 5.3 38.53, 9.53 17.25, 10 15.83 S 14.39 8.63, 15 10 S 19.51 36.91, 20 38.33 S 23.51 39.04, 25 39.17 S 28.5 39.17, 30 39.17 S 33.5 39.17, 35 39.17 S 38.5 39.17, 40 39.17 S 43.5 39.17, 45 39.17 S 48.5 39.17, 50 39.17 S 53.5 39.17, 55 39.17 S 58.52 39.42, 60 39.17 S 63.5 37.5, 65 37.5 S 68.52 38.92, 70 39.17 S 73.5 39.17, 75 39.17 S 78.5 39.17, 80 39.17 S 83.5 39.17, 85 39.17 S 88.5 39.17, 90 39.17 S 93.5 39.17, 95 39.17 S 98.5 39.17, 100 39.17 S 103.5 39.17, 105 39.17 S 108.5 39.17, 110 39.17 S 113.5 39.17, 115 39.17 S 118.51 39.3, 120 39.17 S 123.5 38.33, 125 38.33 S 128.51 39.04, 130 39.17 S 133.5 39.17, 135 39.17 S 138.5 39.17, 140 39.17 S 143.5 39.17, 145 39.17 S 148.5 39.17, 150 39.17 S 153.5 39.17, 155 39.17 S 158.5 39.17, 160 39.17 S 163.5 39.17, 165 39.17 S 168.5 39.17, 170 39.17 S 173.51 39.3, 175 39.17 S 178.54 38.69, 180 38.33 S 183.51 36.54, 185 36.67 S 188.52 38.92, 190 39.17 S 193.52 38.58, 195 38.33 S 198.51 37.62, 200 37.5 S 203.5 37.5, 205 37.5"
          fill="none"/>
    <circle r="4" cx="5" cy="40" fill="#3023AE"/>
    <circle r="4" cx="205" cy="37.5" fill="#C86DD7"/>      
</svg>