<svg width="200" height="50" viewBox="0 0 210 50" xmlns="http://www.w3.org/2000/svg">
    <defs>
        <linearGradient x1="0%" y1="0%" x2="100%" y2="0%" id="a">
            <stop stop-color="#3023AE" offset="0%"/>
            <stop stop-color="#C86DD7" offset="100%"/>
        </linearGradient>
    </defs>
    <path stroke="url(#a)"
          stroke-width="3"
          stroke-linejoin="round"
          stroke-linecap="round"
          d="M5 40 C 5.47 38.58, 9 26.12, 10 25 S 13.8 27.85, 15 28.75 S 19.29 33.82, 20 32.5 S 23.6 9.47, 25 10 S 29.39 34.88, 30 36.25 S 33.6 33.03, 35 32.5 S 38.6 31.97, 40 32.5 S 43.8 37.15, 45 36.25 S 48.5 25, 50 25 S 53.6 36.78, 55 36.25 S 58.8 22.15, 60 21.25 S 63.8 27.85, 65 28.75 S 68.8 27.85, 70 28.75 S 73.8 35.35, 75 36.25 S 78.5 36.25, 80 36.25 S 83.8 37.15, 85 36.25 S 88.5 28.75, 90 28.75 S 93.8 35.35, 95 36.25 S 98.6 36.78, 100 36.25 S 103.5 32.5, 105 32.5 S 108.6 36.78, 110 36.25 S 113.6 29.28, 115 28.75 S 118.8 31.6, 120 32.5 S 123.6 35.72, 125 36.25 S 128.8 37.15, 130 36.25 S 134 29.87, 135 28.75 S 138.5 25, 140 25 S 144.17 30, 145 28.75 S 148.5 10, 150 10 S 154.47 27.35, 155 28.75 S 158.5 36.25, 160 36.25 S 163.8 29.65, 165 28.75 S 168.8 27.85, 170 28.75 S 173.5 36.25, 175 36.25 S 179.29 30.07, 180 28.75 S 183.6 16.97, 185 17.5 S 189 31.38, 190 32.5 S 194.39 30.12, 195 28.75 S 198.6 10.53, 200 10 S 204.53 23.58, 205 25"
          fill="none"/>
    <circle r="4" cx="5" cy="40" fill="#3023AE"/>
    <circle r="4" cx="205" cy="25" fill="#C86DD7"/>      
</svg>