<svg width="200" height="50" viewBox="0 0 210 50" xmlns="http://www.w3.org/2000/svg">
    <defs>
        <linearGradient x1="0%" y1="0%" x2="100%" y2="0%" id="a">
            <stop stop-color="#3023AE" offset="0%"/>
            <stop stop-color="#C86DD7" offset="100%"/>
        </linearGradient>
    </defs>
    <path stroke="url(#a)"
          stroke-width="3"
          stroke-linejoin="round"
          stroke-linecap="round"
          d="M5 40 C 5.52 38.59, 8.5 26.62, 10 26.53 S 14.08 38.21, 15 39.39 S 18.5 39.39, 20 39.39 S 23.5 39.39, 25 39.39 S 28.51 39.57, 30 39.39 S 33.5 38.16, 35 38.16 S 38.52 39.66, 40 39.39 S 43.57 36.77, 45 36.33 S 48.54 35.97, 50 36.33 S 53.51 38.6, 55 38.78 S 58.52 37.82, 60 37.55 S 63.5 36.85, 65 36.94 S 68.52 38.43, 70 38.16 S 73.52 35.37, 75 35.1 S 78.59 36.85, 80 36.33 S 83.79 32.32, 85 31.43 S 88.52 28.71, 90 28.98 S 93.51 33.09, 95 33.27 S 98.57 30.64, 100 30.2 S 103.5 30.2, 105 30.2 S 108.69 30.92, 110 30.2 S 113.76 25.53, 115 24.69 S 118.54 23.11, 120 23.47 S 123.79 26.25, 125 27.14 S 128.52 31.09, 130 30.82 S 133.72 26.09, 135 25.31 S 138.52 24.42, 140 24.69 S 143.54 27.5, 145 27.14 S 148.59 21.72, 150 22.24 S 153.5 30.73, 155 30.82 S 158.65 23.52, 160 22.86 S 163.72 25.14, 165 25.92 S 168.52 28.71, 170 28.98 S 173.59 28.28, 175 27.76 S 178.99 26.42, 180 25.31 S 184.08 17.91, 185 16.73 S 188.76 13.29, 190 12.45 S 193.57 9.56, 195 10 S 199.08 14.33, 200 15.51 S 204.16 21.62, 205 22.86"
          fill="none"/>
    <circle r="4" cx="5" cy="40" fill="#3023AE"/>
    <circle r="4" cx="205" cy="22.86" fill="#C86DD7"/>      
</svg>