<svg width="200" height="50" viewBox="0 0 210 50" xmlns="http://www.w3.org/2000/svg">
    <defs>
        <linearGradient x1="0%" y1="0%" x2="100%" y2="0%" id="a">
            <stop stop-color="#3023AE" offset="0%"/>
            <stop stop-color="#C86DD7" offset="100%"/>
        </linearGradient>
    </defs>
    <path stroke="url(#a)"
          stroke-width="3"
          stroke-linejoin="round"
          stroke-linecap="round"
          d="M5 40 C 6.48 39.77, 8.5 39.35, 10 39.23 S 13.5 39.23, 15 39.23 S 18.5 39.23, 20 39.23 S 23.5 39.23, 25 39.23 S 28.5 39.23, 30 39.23 S 33.5 39.23, 35 39.23 S 38.5 39.23, 40 39.23 S 43.5 39.23, 45 39.23 S 48.5 39.23, 50 39.23 S 53.5 39.23, 55 39.23 S 58.5 39.23, 60 39.23 S 63.5 39.23, 65 39.23 S 68.5 39.23, 70 39.23 S 73.5 39.23, 75 39.23 S 78.5 39.23, 80 39.23 S 83.5 39.35, 85 39.23 S 88.5 38.46, 90 38.46 S 93.6 39.77, 95 39.23 S 98.72 35.41, 100 34.62 S 103.5 33.08, 105 33.08 S 108.6 35.16, 110 34.62 S 113.72 30.02, 115 29.23 S 118.68 29.17, 120 28.46 S 123.52 24.08, 125 23.85 S 128.81 26.01, 130 26.92 S 133.6 31, 135 31.54 S 138.5 30.65, 140 30.77 S 143.57 32.75, 145 32.31 S 148.81 28.6, 150 27.69 S 153.5 24.62, 155 24.62 S 158.77 28.54, 160 27.69 S 164.12 18.91, 165 17.69 S 168.72 14.64, 170 13.85 S 173.77 10.69, 175 11.54 S 179.24 19.48, 180 20.77 S 183.5 28.46, 185 28.46 S 188.77 21.62, 190 20.77 S 193.98 22.64, 195 21.54 S 198.77 10.85, 200 10 S 203.9 13.6, 205 14.62"
          fill="none"/>
    <circle r="4" cx="5" cy="40" fill="#3023AE"/>
    <circle r="4" cx="205" cy="14.620000000000001" fill="#C86DD7"/>      
</svg>