<svg width="200" height="50" viewBox="0 0 210 50" xmlns="http://www.w3.org/2000/svg">
    <defs>
        <linearGradient x1="0%" y1="0%" x2="100%" y2="0%" id="a">
            <stop stop-color="#3023AE" offset="0%"/>
            <stop stop-color="#C86DD7" offset="100%"/>
        </linearGradient>
    </defs>
    <path stroke="url(#a)"
          stroke-width="3"
          stroke-linejoin="round"
          stroke-linecap="round"
          d="M5 40 C 5.25 38.52, 8.97 11.09, 10 10 S 14.42 28.05, 15 29.43 S 18.72 33.24, 20 34.01 S 23.53 35.16, 25 35.46 S 28.52 36.28, 30 36.02 S 34.09 34.86, 35 33.67 S 38.99 23.99, 40 22.88 S 43.81 21.82, 45 22.73 S 48.88 29.52, 50 30.52 S 53.5 31.57, 55 31.64 S 58.65 31.64, 60 30.98 S 63.66 27.44, 65 26.78 S 68.53 26.32, 70 26.04 S 73.76 24.05, 75 24.9 S 78.86 31.94, 80 32.91 S 83.51 33.52, 85 33.37 S 88.5 31.84, 90 31.92 S 93.56 33.5, 95 33.93 S 98.5 34.95, 100 34.9 S 103.51 33.76, 105 33.58 S 108.54 33.34, 110 33.67 S 113.51 35.73, 115 35.86 S 118.5 34.63, 120 34.55 S 123.5 35.24, 125 35.31 S 128.51 35.18, 130 35.02 S 133.52 34.49, 135 34.25 S 138.51 33.57, 140 33.37 S 143.5 32.95, 145 32.91 S 149.05 34.23, 150 33.07 S 153.68 21.47, 155 20.75 S 158.58 27.13, 160 27.62 S 163.53 24.46, 165 24.19 S 168.73 24.96, 170 25.76 S 173.57 30, 175 30.46 S 178.5 29.03, 180 29.02 S 183.53 30.06, 185 30.37 S 188.54 30.8, 190 31.13 S 193.5 32.6, 195 32.61 S 198.5 31.32, 200 31.23 S 203.52 31.76, 205 31.99"
          fill="none"/>
    <circle r="4" cx="5" cy="40" fill="#3023AE"/>
    <circle r="4" cx="205" cy="31.990000000000002" fill="#C86DD7"/>      
</svg>