<svg width="200" height="50" viewBox="0 0 210 50" xmlns="http://www.w3.org/2000/svg">
    <defs>
        <linearGradient x1="0%" y1="0%" x2="100%" y2="0%" id="a">
            <stop stop-color="#3023AE" offset="0%"/>
            <stop stop-color="#C86DD7" offset="100%"/>
        </linearGradient>
    </defs>
    <path stroke="url(#a)"
          stroke-width="3"
          stroke-linejoin="round"
          stroke-linecap="round"
          d="M5 40 C 6.3 39.25, 8.54 37.45, 10 37.12 S 13.51 37.58, 15 37.76 S 18.54 38.65, 20 38.32 S 23.52 35.73, 25 35.52 S 28.51 36.7, 30 36.88 S 33.52 36.96, 35 36.72 S 38.53 35.57, 40 35.28 S 43.6 35.26, 45 34.72 S 48.54 31.79, 50 31.44 S 53.5 32.24, 55 32.32 S 58.5 32.02, 60 32 S 63.53 32.48, 65 32.16 S 68.65 30.5, 70 29.84 S 73.56 27.7, 75 27.28 S 78.5 26.96, 80 26.96 S 83.5 27.32, 85 27.28 S 88.55 27.11, 90 26.72 S 93.52 24.82, 95 24.56 S 98.51 24.79, 100 24.96 S 103.6 26.23, 105 25.68 S 108.81 21.95, 110 21.04 S 113.51 18.24, 115 18.08 S 118.83 20.94, 120 20 S 123.5 9.95, 125 10 S 129.01 19.19, 130 20.32 S 133.7 22.2, 135 21.44 S 138.94 15.54, 140 14.48 S 143.5 11.48, 145 11.36 S 148.5 13.72, 150 13.68 S 153.73 10.32, 155 11.12 S 158.52 19.77, 160 20 S 163.8 13.54, 165 12.64 S 168.74 11.66, 170 12.48 S 173.51 19.3, 175 19.12 S 178.59 11.78, 180 11.28 S 183.5 15.62, 185 15.6 S 188.5 11.01, 190 11.12 S 193.75 15.48, 195 16.32 S 198.52 18.09, 200 17.84 S 203.74 15.45, 205 14.64"
          fill="none"/>
    <circle r="4" cx="5" cy="40" fill="#3023AE"/>
    <circle r="4" cx="205" cy="14.64" fill="#C86DD7"/>      
</svg>