<svg width="200" height="50" viewBox="0 0 210 50" xmlns="http://www.w3.org/2000/svg">
    <defs>
        <linearGradient x1="0%" y1="0%" x2="100%" y2="0%" id="a">
            <stop stop-color="#3023AE" offset="0%"/>
            <stop stop-color="#C86DD7" offset="100%"/>
        </linearGradient>
    </defs>
    <path stroke="url(#a)"
          stroke-width="3"
          stroke-linejoin="round"
          stroke-linecap="round"
          d="M5 40 C 6.36 39.37, 8.9 38.72, 10 37.7 S 14.49 32.21, 15 30.8 S 18.73 9.21, 20 10 S 24.47 35.63, 25 37.03 S 28.51 36.67, 30 36.49 S 33.52 36.08, 35 35.82 S 38.5 34.63, 40 34.73 S 43.51 36.35, 45 36.51 S 48.5 35.91, 50 35.81 S 53.5 35.85, 55 35.81 S 58.5 35.59, 60 35.54 S 63.51 35.34, 65 35.49 S 68.51 36.42, 70 36.56 S 73.5 36.51, 75 36.4 S 78.68 36.52, 80 35.81 S 83.5 30.88, 85 30.98 S 88.66 35.79, 90 36.47 S 93.5 36.08, 95 36.02 S 98.51 35.94, 100 36.08 S 103.51 36.81, 105 36.99 S 108.5 37.3, 110 37.3 S 113.5 36.99, 115 36.98 S 118.5 37.19, 120 37.25 S 123.5 37.39, 125 37.41 S 128.5 37.3, 130 37.36 S 133.5 37.72, 135 37.78 S 138.5 37.72, 140 37.76 S 143.5 38.05, 145 38.05 S 148.5 37.82, 150 37.75 S 153.5 37.54, 155 37.59 S 158.5 38.03, 160 38.06 S 163.5 37.85, 165 37.81 S 168.5 37.76, 170 37.8 S 173.5 38.03, 175 38.05 S 178.5 37.95, 180 37.94 S 183.5 37.94, 185 37.96 S 188.5 38.03, 190 38.1 S 193.5 38.4, 195 38.43 S 198.5 38.31, 200 38.32 S 203.5 38.47, 205 38.53"
          fill="none"/>
    <circle r="4" cx="5" cy="40" fill="#3023AE"/>
    <circle r="4" cx="205" cy="38.53" fill="#C86DD7"/>      
</svg>