<svg width="200" height="50" viewBox="0 0 210 50" xmlns="http://www.w3.org/2000/svg">
    <defs>
        <linearGradient x1="0%" y1="0%" x2="100%" y2="0%" id="a">
            <stop stop-color="#3023AE" offset="0%"/>
            <stop stop-color="#C86DD7" offset="100%"/>
        </linearGradient>
    </defs>
    <path stroke="url(#a)"
          stroke-width="3"
          stroke-linejoin="round"
          stroke-linecap="round"
          d="M5 40 C 5.46 38.57, 8.67 25.04, 10 24.35 S 13.82 33.86, 15 34.78 S 18.74 32.99, 20 32.17 S 23.51 28.07, 25 28.26 S 28.74 32.66, 30 33.48 S 33.6 34.23, 35 34.78 S 38.51 37.58, 40 37.39 S 43.82 34.4, 45 33.48 S 48.55 29.19, 50 29.57 S 53.6 35.54, 55 36.09 S 59.46 34.88, 60 33.48 S 63.51 9.81, 65 10 S 69.46 33.38, 70 34.78 S 73.67 36.78, 75 36.09 S 78.74 30.39, 80 29.57 S 83.67 28.88, 85 29.57 S 88.6 34.23, 90 34.78 S 93.67 34.17, 95 33.48 S 98.51 29.76, 100 29.57 S 103.55 31.79, 105 32.17 S 108.82 33.09, 110 32.17 S 113.51 24.54, 115 24.35 S 118.51 30.68, 120 30.87 S 123.67 26.34, 125 25.65 S 128.74 24.83, 130 25.65 S 133.67 31.48, 135 32.17 S 138.6 31.42, 140 30.87 S 143.51 28.07, 145 28.26 S 148.82 31.25, 150 32.17 S 153.55 35.71, 155 36.09 S 158.51 34.59, 160 34.78 S 163.55 37.77, 165 37.39 S 168.51 32.36, 170 32.17 S 173.51 36.28, 175 36.09 S 178.5 30.87, 180 30.87 S 183.82 35.17, 185 36.09 S 188.6 39.25, 190 38.7 S 193.51 32.36, 195 32.17 S 198.6 36.84, 200 37.39 S 203.55 36.47, 205 36.09"
          fill="none"/>
    <circle r="4" cx="5" cy="40" fill="#3023AE"/>
    <circle r="4" cx="205" cy="36.09" fill="#C86DD7"/>      
</svg>