<svg width="200" height="50" viewBox="0 0 210 50" xmlns="http://www.w3.org/2000/svg">
    <defs>
        <linearGradient x1="0%" y1="0%" x2="100%" y2="0%" id="a">
            <stop stop-color="#3023AE" offset="0%"/>
            <stop stop-color="#C86DD7" offset="100%"/>
        </linearGradient>
    </defs>
    <path stroke="url(#a)"
          stroke-width="3"
          stroke-linejoin="round"
          stroke-linecap="round"
          d="M5 40 C 5.51 38.59, 8.64 26.78, 10 26.15 S 13.83 34.44, 15 35.38 S 18.64 34.86, 20 34.23 S 23.54 31.11, 25 30.77 S 28.64 31.29, 30 31.92 S 33.77 34.53, 35 35.38 S 38.51 39.02, 40 38.85 S 43.7 34.98, 45 34.23 S 48.51 32.91, 50 33.08 S 53.51 35.21, 55 35.38 S 58.51 34.06, 60 34.23 S 64.43 37.93, 65 36.54 S 68.54 9.66, 70 10 S 74.4 37.47, 75 38.85 S 78.58 33.57, 80 33.08 S 83.58 35.87, 85 35.38 S 88.51 29.45, 90 29.62 S 93.64 35.91, 95 36.54 S 98.7 34.98, 100 34.23 S 103.5 30.77, 105 30.77 S 108.54 33.89, 110 34.23 S 113.83 34.02, 115 33.08 S 118.51 26.32, 120 26.15 S 123.51 31.75, 125 31.92 S 128.51 27.48, 130 27.31 S 133.58 30.28, 135 30.77 S 138.51 30.6, 140 30.77 S 143.51 31.75, 145 31.92 S 148.51 31.75, 150 31.92 S 153.51 32.91, 155 33.08 S 158.54 32.74, 160 33.08 S 163.64 34.75, 165 35.38 S 168.51 37.86, 170 37.69 S 173.51 34.4, 175 34.23 S 178.51 36.37, 180 36.54 S 183.54 35.72, 185 35.38 S 188.51 34.06, 190 34.23 S 193.64 35.91, 195 36.54 S 198.58 39.34, 200 38.85 S 204.02 34.21, 205 33.08"
          fill="none"/>
    <circle r="4" cx="5" cy="40" fill="#3023AE"/>
    <circle r="4" cx="205" cy="33.08" fill="#C86DD7"/>      
</svg>