<svg width="200" height="50" viewBox="0 0 210 50" xmlns="http://www.w3.org/2000/svg">
    <defs>
        <linearGradient x1="0%" y1="0%" x2="100%" y2="0%" id="a">
            <stop stop-color="#3023AE" offset="0%"/>
            <stop stop-color="#C86DD7" offset="100%"/>
        </linearGradient>
    </defs>
    <path stroke="url(#a)"
          stroke-width="3"
          stroke-linejoin="round"
          stroke-linecap="round"
          d="M5 40 C 5.65 38.65, 8.6 30.12, 10 29.57 S 13.89 35.08, 15 36.09 S 18.5 38.7, 20 38.7 S 23.5 36.09, 25 36.09 S 28.55 38.32, 30 38.7 S 33.67 39.39, 35 38.7 S 38.67 34.17, 40 33.48 S 43.6 32.93, 45 33.48 S 48.5 37.39, 50 37.39 S 53.5 33.48, 55 33.48 S 58.67 36.7, 60 37.39 S 63.51 38.51, 65 38.7 S 68.51 38.89, 70 38.7 S 73.5 37.39, 75 37.39 S 78.51 38.51, 80 38.7 S 83.5 38.7, 85 38.7 S 88.6 39.25, 90 38.7 S 93.5 34.78, 95 34.78 S 98.51 38.51, 100 38.7 S 103.6 36.64, 105 36.09 S 108.55 34.4, 110 34.78 S 113.6 38.15, 115 38.7 S 118.55 39.08, 120 38.7 S 123.6 36.64, 125 36.09 S 128.55 34.4, 130 34.78 S 133.6 38.15, 135 38.7 S 139.51 40.12, 140 38.7 S 143.67 10.69, 145 10 S 149.51 32.06, 150 33.48 S 153.67 38.01, 155 38.7 S 158.5 38.7, 160 38.7 S 163.5 38.7, 165 38.7 S 168.67 39.39, 170 38.7 S 173.51 33.67, 175 33.48 S 178.6 36.84, 180 37.39 S 183.55 37.77, 185 37.39 S 188.51 34.97, 190 34.78 S 193.6 35.54, 195 36.09 S 198.55 38.32, 200 38.7 S 203.5 38.7, 205 38.7"
          fill="none"/>
    <circle r="4" cx="5" cy="40" fill="#3023AE"/>
    <circle r="4" cx="205" cy="38.7" fill="#C86DD7"/>      
</svg>