<svg width="200" height="50" viewBox="0 0 210 50" xmlns="http://www.w3.org/2000/svg">
    <defs>
        <linearGradient x1="0%" y1="0%" x2="100%" y2="0%" id="a">
            <stop stop-color="#3023AE" offset="0%"/>
            <stop stop-color="#C86DD7" offset="100%"/>
        </linearGradient>
    </defs>
    <path stroke="url(#a)"
          stroke-width="3"
          stroke-linejoin="round"
          stroke-linecap="round"
          d="M5 40 C 5.25 38.52, 8.5 10.1, 10 10 S 14.52 37.9, 15 39.32 S 18.5 39.49, 20 39.54 S 23.5 39.64, 25 39.68 S 28.5 39.76, 30 39.79 S 33.5 39.88, 35 39.86 S 38.5 39.69, 40 39.68 S 43.5 39.8, 45 39.82 S 48.5 39.86, 50 39.82 S 53.5 39.55, 55 39.54 S 58.5 39.73, 60 39.75 S 63.5 39.66, 65 39.68 S 68.5 39.87, 70 39.89 S 73.5 39.82, 75 39.79 S 78.5 39.68, 80 39.68 S 83.5 39.78, 85 39.82 S 88.5 39.92, 90 39.93 S 93.5 39.91, 95 39.89 S 98.5 39.84, 100 39.82 S 103.5 39.74, 105 39.75 S 108.5 39.87, 110 39.89 S 113.5 39.88, 115 39.89 S 118.5 39.95, 120 39.93 S 123.5 39.77, 125 39.75 S 128.5 39.81, 130 39.82 S 133.5 39.77, 135 39.79 S 138.5 39.96, 140 39.96 S 143.5 39.83, 145 39.82 S 148.5 39.85, 150 39.86 S 153.5 39.87, 155 39.86 S 158.5 39.84, 160 39.79 S 163.5 39.56, 165 39.54 S 168.5 39.63, 170 39.64 S 173.5 39.56, 175 39.61 S 178.5 39.92, 180 39.96 S 183.5 39.89, 185 39.89 S 188.5 39.96, 190 39.96 S 193.5 39.86, 195 39.86 S 198.5 39.92, 200 39.93 S 203.5 39.93, 205 39.93"
          fill="none"/>
    <circle r="4" cx="5" cy="40" fill="#3023AE"/>
    <circle r="4" cx="205" cy="39.93" fill="#C86DD7"/>      
</svg>