<svg width="200" height="50" viewBox="0 0 210 50" xmlns="http://www.w3.org/2000/svg">
    <defs>
        <linearGradient x1="0%" y1="0%" x2="100%" y2="0%" id="a">
            <stop stop-color="#3023AE" offset="0%"/>
            <stop stop-color="#C86DD7" offset="100%"/>
        </linearGradient>
    </defs>
    <path stroke="url(#a)"
          stroke-width="3"
          stroke-linejoin="round"
          stroke-linecap="round"
          d="M5 40 C 5.39 38.55, 8.51 21.71, 10 21.55 S 14.24 37.64, 15 38.93 S 18.52 38.88, 20 38.64 S 23.5 37.16, 25 37.28 S 28.53 39.11, 30 39.42 S 33.5 39.43, 35 39.42 S 38.51 39.52, 40 39.32 S 43.5 38, 45 38.06 S 48.51 39.54, 50 39.71 S 53.51 39.38, 55 39.22 S 58.5 38.65, 60 38.64 S 63.5 39.01, 65 39.13 S 68.5 39.45, 70 39.42 S 73.52 39.17, 75 38.93 S 78.5 37.84, 80 37.77 S 83.51 38.31, 85 38.45 S 88.5 38.7, 90 38.74 S 93.51 38.87, 95 38.74 S 98.5 37.95, 100 37.86 S 103.51 38.02, 105 38.16 S 108.5 38.73, 110 38.83 S 113.5 38.76, 115 38.83 S 118.51 39.46, 120 39.32 S 123.5 37.96, 125 37.86 S 128.5 38.54, 130 38.64 S 133.5 38.53, 135 38.54 S 138.5 38.78, 140 38.74 S 144.51 39.67, 145 38.25 S 148.5 10.09, 150 10 S 154.49 36.26, 155 37.67 S 158.5 37.61, 160 37.57 S 163.5 37.41, 165 37.38 S 168.5 37.34, 170 37.38 S 173.54 38, 175 37.67 S 178.5 35.03, 180 35.15 S 183.59 37.93, 185 38.45 S 188.52 39.05, 190 38.83 S 193.5 36.99, 195 36.99 S 198.51 38.7, 200 38.83 S 203.53 38.15, 205 37.86"
          fill="none"/>
    <circle r="4" cx="5" cy="40" fill="#3023AE"/>
    <circle r="4" cx="205" cy="37.86" fill="#C86DD7"/>      
</svg>