<svg width="200" height="50" viewBox="0 0 210 50" xmlns="http://www.w3.org/2000/svg">
    <defs>
        <linearGradient x1="0%" y1="0%" x2="100%" y2="0%" id="a">
            <stop stop-color="#3023AE" offset="0%"/>
            <stop stop-color="#C86DD7" offset="100%"/>
        </linearGradient>
    </defs>
    <path stroke="url(#a)"
          stroke-width="3"
          stroke-linejoin="round"
          stroke-linecap="round"
          d="M5 40 C 6.5 39.94, 8.51 39.94, 10 39.81 S 13.51 39.35, 15 39.15 S 18.51 38.65, 20 38.49 S 23.51 37.95, 25 38.11 S 28.51 39.37, 30 39.53 S 33.52 39.41, 35 39.15 S 38.5 37.77, 40 37.74 S 43.52 38.7, 45 38.96 S 49.51 40.95, 50 39.53 S 53.5 10.06, 55 10 S 59.5 37.74, 60 39.15 S 63.51 38.5, 65 38.3 S 68.5 37.86, 70 37.83 S 73.5 38.05, 75 38.11 S 78.5 38.12, 80 38.21 S 83.51 38.88, 85 38.68 S 88.5 36.96, 90 36.89 S 93.53 37.91, 95 38.21 S 98.61 39.51, 100 38.96 S 103.52 34.49, 105 34.25 S 108.58 36.87, 110 37.36 S 113.5 37.68, 115 37.74 S 118.51 37.6, 120 37.74 S 123.5 38.71, 125 38.68 S 128.5 37.56, 130 37.55 S 133.5 38.59, 135 38.58 S 138.5 37.44, 140 37.45 S 144.09 39.87, 145 38.68 S 148.5 24.53, 150 24.43 S 154.06 36.85, 155 38.02 S 158.51 37, 160 36.79 S 163.51 36.77, 165 36.6 S 168.5 35.62, 170 35.66 S 173.53 36.58, 175 36.89 S 178.5 37.7, 180 37.74 S 183.53 37.46, 185 37.17 S 188.5 35.84, 190 35.75 S 193.54 36.27, 195 36.6 S 198.5 38.05, 200 38.02 S 203.57 36.88, 205 36.42"
          fill="none"/>
    <circle r="4" cx="5" cy="40" fill="#3023AE"/>
    <circle r="4" cx="205" cy="36.42" fill="#C86DD7"/>      
</svg>