<svg width="200" height="50" viewBox="0 0 210 50" xmlns="http://www.w3.org/2000/svg">
    <defs>
        <linearGradient x1="0%" y1="0%" x2="100%" y2="0%" id="a">
            <stop stop-color="#3023AE" offset="0%"/>
            <stop stop-color="#C86DD7" offset="100%"/>
        </linearGradient>
    </defs>
    <path stroke="url(#a)"
          stroke-width="3"
          stroke-linejoin="round"
          stroke-linecap="round"
          d="M5 40 C 5.62 38.63, 8.75 29.72, 10 28.89 S 14.3 34.66, 15 33.33 S 18.54 10.33, 20 10 S 24.48 29.7, 25 31.11 S 28.78 36.34, 30 37.22 S 33.52 38.08, 35 38.33 S 38.5 38.89, 40 38.89 S 43.52 38.58, 45 38.33 S 48.51 37.39, 50 37.22 S 53.54 36.89, 55 37.22 S 58.54 39.11, 60 39.44 S 63.5 39.44, 65 39.44 S 68.58 39.91, 70 39.44 S 73.5 36.19, 75 36.11 S 78.5 38.81, 80 38.89 S 83.5 36.59, 85 36.67 S 88.51 39.27, 90 39.44 S 93.52 38.03, 95 37.78 S 98.54 38.11, 100 37.78 S 103.51 35.73, 105 35.56 S 108.6 36.13, 110 36.67 S 113.55 39.04, 115 39.44 S 118.5 39.44, 120 39.44 S 123.55 39.84, 125 39.44 S 128.5 36.75, 130 36.67 S 133.52 38.64, 135 38.89 S 138.5 38.41, 140 38.33 S 143.51 38.5, 145 38.33 S 148.54 37.55, 150 37.22 S 153.54 35.78, 155 36.11 S 158.58 38.97, 160 39.44 S 163.54 39.77, 165 39.44 S 168.6 37.76, 170 37.22 S 173.51 35.39, 175 35.56 S 178.54 38, 180 38.33 S 183.5 37.78, 185 37.78 S 188.5 38.25, 190 38.33 S 193.5 38.41, 195 38.33 S 198.55 38.18, 200 37.78 S 203.63 36.17, 205 35.56"
          fill="none"/>
    <circle r="4" cx="5" cy="40" fill="#3023AE"/>
    <circle r="4" cx="205" cy="35.56" fill="#C86DD7"/>      
</svg>