<svg width="200" height="50" viewBox="0 0 210 50" xmlns="http://www.w3.org/2000/svg">
    <defs>
        <linearGradient x1="0%" y1="0%" x2="100%" y2="0%" id="a">
            <stop stop-color="#3023AE" offset="0%"/>
            <stop stop-color="#C86DD7" offset="100%"/>
        </linearGradient>
    </defs>
    <path stroke="url(#a)"
          stroke-width="3"
          stroke-linejoin="round"
          stroke-linecap="round"
          d="M5 40 C 6.5 39.99, 8.5 39.98, 10 39.98 S 13.5 39.98, 15 39.98 S 18.5 39.98, 20 39.98 S 23.5 39.98, 25 39.98 S 28.5 39.98, 30 39.98 S 33.5 39.98, 35 39.98 S 38.5 39.98, 40 39.98 S 43.5 39.98, 45 39.98 S 48.5 39.98, 50 39.98 S 53.82 40.9, 55 39.98 S 58.53 32.46, 60 32.15 S 63.76 37.01, 65 37.85 S 68.51 38.75, 70 38.88 S 73.5 38.71, 75 38.75 S 78.5 39.11, 80 39.14 S 83.5 38.98, 85 38.96 S 88.5 39.08, 90 39.02 S 93.66 39.26, 95 38.59 S 98.5 34.17, 100 34.05 S 104.42 39.2, 105 37.81 S 108.57 10.45, 110 10 S 114.47 33.26, 115 34.66 S 118.51 36.29, 120 36.48 S 123.59 36.45, 125 35.93 S 128.5 32.7, 130 32.82 S 133.59 36.21, 135 36.73 S 138.54 36.85, 140 36.5 S 143.5 34.35, 145 34.36 S 148.52 36.32, 150 36.56 S 153.53 36.3, 155 35.99 S 158.5 34.34, 160 34.44 S 163.52 36.42, 165 36.67 S 168.51 36.3, 170 36.11 S 173.51 35.61, 175 35.42 S 178.51 34.68, 180 34.85 S 183.53 36.29, 185 36.56 S 188.5 36.75, 190 36.71 S 193.52 36.54, 195 36.28 S 198.5 34.86, 200 34.95 S 203.6 36.35, 205 36.89"
          fill="none"/>
    <circle r="4" cx="5" cy="40" fill="#3023AE"/>
    <circle r="4" cx="205" cy="36.89" fill="#C86DD7"/>      
</svg>