<svg width="200" height="50" viewBox="0 0 210 50" xmlns="http://www.w3.org/2000/svg">
    <defs>
        <linearGradient x1="0%" y1="0%" x2="100%" y2="0%" id="a">
            <stop stop-color="#3023AE" offset="0%"/>
            <stop stop-color="#C86DD7" offset="100%"/>
        </linearGradient>
    </defs>
    <path stroke="url(#a)"
          stroke-width="3"
          stroke-linejoin="round"
          stroke-linecap="round"
          d="M5 40 C 6.5 39.98, 8.7 40.68, 10 39.93 S 13.69 34.96, 15 34.22 S 18.66 33.59, 20 34.27 S 23.58 38.79, 25 39.28 S 28.68 38.43, 30 37.72 S 33.5 33.95, 35 33.86 S 38.51 36.93, 40 37.13 S 43.5 35.29, 45 35.19 S 49.45 37.82, 50 36.43 S 53.55 10.38, 55 10 S 59.36 32.44, 60 33.8 S 63.55 31.68, 65 31.31 S 68.53 30.96, 70 31.24 S 73.51 33.07, 75 33.19 S 78.51 32.24, 80 32.07 S 83.53 32.31, 85 32.03 S 88.52 30.41, 90 30.19 S 93.5 30.5, 95 30.55 S 98.5 30.65, 100 30.53 S 103.51 29.94, 105 29.74 S 108.51 29.33, 110 29.18 S 113.59 29.22, 115 28.71 S 118.61 26.14, 120 25.57 S 123.53 24.9, 125 24.59 S 128.59 23.94, 130 23.43 S 133.52 21.26, 135 21.01 S 138.56 22.15, 140 21.74 S 143.51 18.38, 145 18.2 S 148.52 20.81, 150 20.55 S 153.58 16.95, 155 16.47 S 158.5 17.23, 160 17.15 S 163.51 15.8, 165 15.94 S 168.59 18.57, 170 18.06 S 173.51 12.49, 175 12.32 S 178.54 16.6, 180 16.92 S 183.5 14.62, 185 14.52 S 188.5 16.32, 190 16.22 S 193.5 13.89, 195 13.85 S 198.56 16.33, 200 15.92 S 203.93 12.04, 205 10.99"
          fill="none"/>
    <circle r="4" cx="5" cy="40" fill="#3023AE"/>
    <circle r="4" cx="205" cy="10.989999999999998" fill="#C86DD7"/>      
</svg>