<svg width="200" height="50" viewBox="0 0 210 50" xmlns="http://www.w3.org/2000/svg">
    <defs>
        <linearGradient x1="0%" y1="0%" x2="100%" y2="0%" id="a">
            <stop stop-color="#3023AE" offset="0%"/>
            <stop stop-color="#C86DD7" offset="100%"/>
        </linearGradient>
    </defs>
    <path stroke="url(#a)"
          stroke-width="3"
          stroke-linejoin="round"
          stroke-linecap="round"
          d="M5 40 C 6.5 39.99, 8.61 40.51, 10 39.95 S 13.61 36.51, 15 35.96 S 18.53 35.69, 20 35.98 S 23.54 38.23, 25 37.9 S 28.51 33.88, 30 33.69 S 33.6 36.1, 35 36.63 S 38.5 37.56, 40 37.5 S 44.32 37.57, 45 36.23 S 48.58 18.43, 50 17.93 S 54.18 31.46, 55 32.72 S 58.5 33.22, 60 33.32 S 63.5 33.4, 65 33.37 S 68.53 33.38, 70 33.1 S 73.51 31.63, 75 31.46 S 78.5 31.92, 80 31.98 S 83.52 32.06, 85 31.85 S 88.53 30.84, 90 30.55 S 93.58 30.36, 95 29.87 S 98.59 27.57, 100 27.06 S 103.55 26.64, 105 26.27 S 108.52 24.73, 110 24.48 S 113.56 24.98, 115 24.56 S 118.5 21.69, 120 21.59 S 123.59 24.41, 125 23.91 S 128.59 18.57, 130 18.05 S 133.55 19.85, 135 20.25 S 138.56 21.26, 140 20.82 S 143.5 17.3, 145 17.21 S 148.54 19.85, 150 20.19 S 153.51 19.69, 155 19.54 S 158.51 19.31, 160 19.17 S 163.58 19.07, 165 18.58 S 168.51 15.91, 170 15.74 S 173.52 17.23, 175 17.47 S 178.5 17.37, 180 17.38 S 183.53 17.85, 185 17.56 S 188.72 16.18, 190 15.4 S 193.5 11.44, 195 11.48 S 198.52 15.92, 200 15.7 S 204.01 11.13, 205 10"
          fill="none"/>
    <circle r="4" cx="5" cy="40" fill="#3023AE"/>
    <circle r="4" cx="205" cy="10" fill="#C86DD7"/>      
</svg>