<svg width="200" height="50" viewBox="0 0 210 50" xmlns="http://www.w3.org/2000/svg">
    <defs>
        <linearGradient x1="0%" y1="0%" x2="100%" y2="0%" id="a">
            <stop stop-color="#3023AE" offset="0%"/>
            <stop stop-color="#C86DD7" offset="100%"/>
        </linearGradient>
    </defs>
    <path stroke="url(#a)"
          stroke-width="3"
          stroke-linejoin="round"
          stroke-linecap="round"
          d="M5 40 C 6.5 39.98, 8.68 40.65, 10 39.93 S 13.68 35.24, 15 34.53 S 18.65 33.91, 20 34.56 S 23.57 38.85, 25 39.32 S 28.67 38.53, 30 37.84 S 33.5 34.25, 35 34.17 S 38.51 37.09, 40 37.28 S 43.5 35.57, 45 35.47 S 49.45 38.01, 50 36.61 S 53.57 10.46, 55 10 S 59.36 32.06, 60 33.42 S 63.51 31.52, 65 31.33 S 68.51 31.99, 70 32.17 S 73.5 32.51, 75 32.54 S 78.51 32.52, 80 32.36 S 83.53 31.78, 85 31.46 S 88.5 30.26, 90 30.21 S 93.5 31.01, 95 31.12 S 98.55 31.37, 100 30.97 S 103.51 28.53, 105 28.39 S 108.52 30.3, 110 30.05 S 113.63 27.31, 115 26.7 S 118.56 25.97, 120 25.56 S 123.58 24.32, 125 23.84 S 128.51 22.43, 130 22.22 S 133.51 22.58, 135 22.44 S 138.6 21.82, 140 21.29 S 143.5 18.68, 145 18.68 S 148.65 21.92, 150 21.27 S 153.62 14.46, 155 13.88 S 158.65 16.4, 160 17.05 S 163.6 19.25, 165 18.72 S 168.51 13.51, 170 13.3 S 173.53 17.02, 175 17.32 S 178.5 15.41, 180 15.35 S 183.5 16.93, 185 16.92 S 188.5 15.38, 190 15.26 S 193.57 16.6, 195 16.13 S 198.57 12.45, 200 11.99 S 203.52 12.63, 205 12.9"
          fill="none"/>
    <circle r="4" cx="5" cy="40" fill="#3023AE"/>
    <circle r="4" cx="205" cy="12.899999999999999" fill="#C86DD7"/>      
</svg>