<svg width="200" height="50" viewBox="0 0 210 50" xmlns="http://www.w3.org/2000/svg">
    <defs>
        <linearGradient x1="0%" y1="0%" x2="100%" y2="0%" id="a">
            <stop stop-color="#3023AE" offset="0%"/>
            <stop stop-color="#C86DD7" offset="100%"/>
        </linearGradient>
    </defs>
    <path stroke="url(#a)"
          stroke-width="3"
          stroke-linejoin="round"
          stroke-linecap="round"
          d="M5 40 C 6.5 39.98, 8.72 40.71, 10 39.92 S 13.72 34.6, 15 33.82 S 18.68 33.16, 20 33.87 S 23.59 38.7, 25 39.22 S 28.7 38.31, 30 37.56 S 33.5 33.52, 35 33.43 S 38.52 36.72, 40 36.93 S 43.5 34.97, 45 34.86 S 49.35 37.53, 50 36.18 S 53.86 14.86, 55 13.88 S 59.23 26.26, 60 27.55 S 63.58 30.25, 65 30.72 S 68.52 30.61, 70 30.88 S 73.51 32.39, 75 32.54 S 78.51 32.05, 80 31.87 S 83.54 31.64, 85 31.3 S 88.51 29.75, 90 29.55 S 93.5 29.88, 95 29.94 S 98.5 30.02, 100 29.94 S 103.52 29.66, 105 29.4 S 108.51 28.39, 110 28.18 S 113.58 28.49, 115 28 S 118.63 25.37, 120 24.76 S 123.54 23.87, 125 23.51 S 128.59 22.76, 130 22.26 S 133.52 20.19, 135 19.96 S 138.5 20.84, 140 20.72 S 143.61 19.73, 145 19.17 S 148.5 16.66, 150 16.69 S 153.69 20.11, 155 19.37 S 158.64 11.68, 160 11.06 S 163.69 14.08, 165 14.81 S 168.62 17.25, 170 16.66 S 173.53 10.81, 175 10.53 S 178.55 14.37, 180 14.75 S 183.5 13.16, 185 13.16 S 188.51 14.96, 190 14.77 S 193.51 12.03, 195 11.89 S 198.53 14.13, 200 13.85 S 203.81 10.92, 205 10"
          fill="none"/>
    <circle r="4" cx="5" cy="40" fill="#3023AE"/>
    <circle r="4" cx="205" cy="10" fill="#C86DD7"/>      
</svg>