<svg width="200" height="50" viewBox="0 0 210 50" xmlns="http://www.w3.org/2000/svg">
    <defs>
        <linearGradient x1="0%" y1="0%" x2="100%" y2="0%" id="a">
            <stop stop-color="#3023AE" offset="0%"/>
            <stop stop-color="#C86DD7" offset="100%"/>
        </linearGradient>
    </defs>
    <path stroke="url(#a)"
          stroke-width="3"
          stroke-linejoin="round"
          stroke-linecap="round"
          d="M5 40 C 6.5 39.98, 8.7 40.68, 10 39.93 S 13.69 35, 15 34.26 S 18.66 33.63, 20 34.3 S 23.58 38.79, 25 39.28 S 28.68 38.44, 30 37.73 S 33.5 33.98, 35 33.89 S 38.51 36.95, 40 37.15 S 43.5 35.33, 45 35.23 S 49.45 37.84, 50 36.45 S 53.55 10.39, 55 10 S 59.36 32.41, 60 33.77 S 63.54 31.6, 65 31.25 S 68.53 31.07, 70 31.36 S 73.5 33.11, 75 33.21 S 78.51 32.16, 80 32 S 83.52 32.39, 85 32.12 S 88.52 30.4, 90 30.19 S 93.5 30.64, 95 30.69 S 98.51 30.68, 100 30.51 S 103.51 29.7, 105 29.52 S 108.51 29.43, 110 29.3 S 113.64 29.27, 115 28.64 S 118.58 25.19, 120 24.71 S 123.51 25.5, 125 25.29 S 128.63 23.89, 130 23.29 S 133.51 21.11, 135 20.91 S 138.57 22.37, 140 21.93 S 143.52 18.07, 145 17.83 S 148.52 20.56, 150 20.29 S 153.53 16.3, 155 16 S 158.5 18.26, 160 18.26 S 163.5 16.03, 165 15.99 S 168.59 18.52, 170 18 S 173.51 12.43, 175 12.28 S 178.54 16.67, 180 17.02 S 183.51 14.84, 185 14.67 S 188.5 15.9, 190 15.91 S 193.5 14.86, 195 14.76 S 198.59 15.76, 200 15.25 S 203.84 12.1, 205 11.15"
          fill="none"/>
    <circle r="4" cx="5" cy="40" fill="#3023AE"/>
    <circle r="4" cx="205" cy="11.149999999999999" fill="#C86DD7"/>      
</svg>