<svg width="200" height="50" viewBox="0 0 210 50" xmlns="http://www.w3.org/2000/svg">
    <defs>
        <linearGradient x1="0%" y1="0%" x2="100%" y2="0%" id="a">
            <stop stop-color="#3023AE" offset="0%"/>
            <stop stop-color="#C86DD7" offset="100%"/>
        </linearGradient>
    </defs>
    <path stroke="url(#a)"
          stroke-width="3"
          stroke-linejoin="round"
          stroke-linecap="round"
          d="M5 40 C 6.5 39.98, 8.7 40.67, 10 39.93 S 13.69 35.03, 15 34.3 S 18.66 33.68, 20 34.35 S 23.58 38.8, 25 39.28 S 28.68 38.46, 30 37.75 S 33.5 34.03, 35 33.94 S 38.51 36.97, 40 37.17 S 43.5 35.36, 45 35.26 S 48.5 36.57, 50 36.48 S 54.47 36.04, 55 34.64 S 58.57 10.46, 60 10 S 64.37 30.09, 65 31.45 S 68.52 31.44, 70 31.69 S 73.5 33, 75 33.11 S 78.51 32.56, 80 32.42 S 83.53 32.42, 85 32.14 S 88.52 30.73, 90 30.51 S 93.5 30.62, 95 30.64 S 98.5 30.7, 100 30.66 S 103.52 30.56, 105 30.34 S 108.51 29.32, 110 29.15 S 113.57 29.61, 115 29.17 S 118.61 26.66, 120 26.09 S 123.54 25.45, 125 25.09 S 128.58 24.11, 130 23.62 S 133.52 21.86, 135 21.64 S 138.5 22.27, 140 22.17 S 143.58 21.49, 145 20.99 S 148.5 18.66, 150 18.67 S 153.67 21.78, 155 21.09 S 158.6 14.05, 160 13.51 S 163.61 16.7, 165 17.26 S 168.59 18, 170 17.5 S 173.51 13.88, 175 13.73 S 178.54 16.16, 180 16.49 S 183.5 15.95, 185 15.97 S 188.52 16.88, 190 16.61 S 193.51 14.28, 195 14.15 S 198.5 15.83, 200 15.72 S 203.64 14.04, 205 13.41"
          fill="none"/>
    <circle r="4" cx="5" cy="40" fill="#3023AE"/>
    <circle r="4" cx="205" cy="13.41" fill="#C86DD7"/>      
</svg>