<svg width="200" height="50" viewBox="0 0 210 50" xmlns="http://www.w3.org/2000/svg">
    <defs>
        <linearGradient x1="0%" y1="0%" x2="100%" y2="0%" id="a">
            <stop stop-color="#3023AE" offset="0%"/>
            <stop stop-color="#C86DD7" offset="100%"/>
        </linearGradient>
    </defs>
    <path stroke="url(#a)"
          stroke-width="3"
          stroke-linejoin="round"
          stroke-linecap="round"
          d="M5 40 C 6.5 39.99, 8.61 40.52, 10 39.95 S 13.61 36.44, 15 35.88 S 18.53 35.6, 20 35.89 S 23.54 38.19, 25 37.85 S 28.51 33.74, 30 33.55 S 33.6 36.02, 35 36.56 S 38.5 37.5, 40 37.44 S 44.34 37.5, 45 36.15 S 48.59 17.61, 50 17.09 S 54.21 31.19, 55 32.46 S 58.5 33.03, 60 33.14 S 63.5 33.23, 65 33.2 S 68.53 33.22, 70 32.91 S 73.51 31.23, 75 31.07 S 78.5 31.78, 80 31.82 S 83.51 31.57, 85 31.37 S 88.53 30.76, 90 30.45 S 93.6 29.81, 95 29.27 S 98.58 27.09, 100 26.6 S 103.56 26.22, 105 25.8 S 108.52 23.88, 110 23.67 S 113.56 24.79, 115 24.37 S 118.51 20.96, 120 20.78 S 123.56 23.58, 125 23.15 S 128.6 18.33, 130 17.78 S 133.51 19.02, 135 19.23 S 138.52 19.41, 140 19.2 S 143.5 17.83, 145 17.79 S 148.51 18.75, 150 18.93 S 153.5 19.06, 155 19.03 S 158.52 18.95, 160 18.72 S 163.57 17.96, 165 17.51 S 168.52 15.77, 170 15.55 S 173.52 15.76, 175 16 S 178.53 16.93, 180 17.2 S 183.58 18.35, 185 17.85 S 188.81 14.61, 190 13.7 S 193.51 10.12, 195 10.25 S 198.5 14.64, 200 14.6 S 203.9 11.02, 205 10"
          fill="none"/>
    <circle r="4" cx="5" cy="40" fill="#3023AE"/>
    <circle r="4" cx="205" cy="10" fill="#C86DD7"/>      
</svg>