<svg width="200" height="50" viewBox="0 0 210 50" xmlns="http://www.w3.org/2000/svg">
    <defs>
        <linearGradient x1="0%" y1="0%" x2="100%" y2="0%" id="a">
            <stop stop-color="#3023AE" offset="0%"/>
            <stop stop-color="#C86DD7" offset="100%"/>
        </linearGradient>
    </defs>
    <path stroke="url(#a)"
          stroke-width="3"
          stroke-linejoin="round"
          stroke-linecap="round"
          d="M5 40 C 6.5 39.98, 8.66 40.61, 10 39.93 S 13.66 35.57, 15 34.9 S 18.63 34.33, 20 34.94 S 23.57 38.92, 25 39.36 S 28.65 38.64, 30 37.99 S 33.5 34.64, 35 34.56 S 38.51 37.29, 40 37.47 S 43.5 35.85, 45 35.76 S 49.46 38.24, 50 36.84 S 53.66 10.68, 55 10 S 59.39 30.39, 60 31.76 S 63.52 32.02, 65 32.27 S 68.5 33.36, 70 33.44 S 73.51 32.96, 75 32.79 S 78.53 32.59, 80 32.3 S 83.51 31.01, 85 30.82 S 88.5 30.98, 90 31.03 S 93.52 31.42, 95 31.17 S 98.5 29.45, 100 29.36 S 103.51 30.74, 105 30.54 S 108.66 28.66, 110 27.99 S 113.56 25.94, 115 25.52 S 118.54 25.41, 120 25.08 S 123.53 23.55, 125 23.27 S 128.52 23.43, 130 23.19 S 133.59 22.2, 135 21.68 S 138.5 19.49, 140 19.52 S 143.63 22.48, 145 21.87 S 148.61 15.61, 150 15.04 S 153.62 17.2, 155 17.78 S 158.59 19.73, 160 19.21 S 163.51 14.22, 165 14.1 S 168.54 18.03, 170 18.38 S 173.51 16.7, 175 16.53 S 178.5 17.18, 180 17.26 S 183.51 17.25, 185 17.05 S 188.63 16.53, 190 15.92 S 193.51 12.79, 195 12.62 S 198.51 14.62, 200 14.81 S 203.52 14.18, 205 13.92"
          fill="none"/>
    <circle r="4" cx="5" cy="40" fill="#3023AE"/>
    <circle r="4" cx="205" cy="13.920000000000002" fill="#C86DD7"/>      
</svg>