<svg width="200" height="50" viewBox="0 0 210 50" xmlns="http://www.w3.org/2000/svg">
    <defs>
        <linearGradient x1="0%" y1="0%" x2="100%" y2="0%" id="a">
            <stop stop-color="#3023AE" offset="0%"/>
            <stop stop-color="#C86DD7" offset="100%"/>
        </linearGradient>
    </defs>
    <path stroke="url(#a)"
          stroke-width="3"
          stroke-linejoin="round"
          stroke-linecap="round"
          d="M5 40 C 6.5 39.98, 8.69 40.66, 10 39.93 S 13.69 35.11, 15 34.39 S 18.65 33.77, 20 34.43 S 23.58 38.81, 25 39.29 S 28.67 38.48, 30 37.78 S 33.5 34.12, 35 34.03 S 38.51 37.02, 40 37.21 S 43.5 35.44, 45 35.34 S 49.45 37.93, 50 36.53 S 53.56 10.43, 55 10 S 59.36 32.15, 60 33.51 S 63.52 31.64, 65 31.4 S 68.51 31.67, 70 31.87 S 73.5 32.62, 75 32.72 S 78.51 32.67, 80 32.53 S 83.55 32.18, 85 31.8 S 88.51 30.03, 90 29.9 S 93.51 30.81, 95 30.94 S 98.54 31.14, 100 30.8 S 103.5 28.75, 105 28.64 S 108.51 30.18, 110 30.06 S 113.66 28.5, 115 27.82 S 118.57 25.45, 120 24.99 S 123.53 24.87, 125 24.6 S 128.58 23.62, 130 23.13 S 133.5 21.28, 135 21.17 S 138.59 22.89, 140 22.38 S 143.51 17.69, 145 17.57 S 148.58 22.03, 150 21.56 S 153.6 14.82, 155 14.28 S 158.55 17.3, 160 17.7 S 163.52 17.29, 165 17.06 S 168.57 16.57, 170 16.12 S 173.52 13.71, 175 13.92 S 178.51 17.4, 180 17.56 S 183.55 15.41, 185 15.02 S 188.51 14.69, 190 14.84 S 193.5 16.06, 195 16.03 S 198.67 15.35, 200 14.65 S 203.82 11.68, 205 10.76"
          fill="none"/>
    <circle r="4" cx="5" cy="40" fill="#3023AE"/>
    <circle r="4" cx="205" cy="10.760000000000002" fill="#C86DD7"/>      
</svg>