<svg width="200" height="50" viewBox="0 0 210 50" xmlns="http://www.w3.org/2000/svg">
    <defs>
        <linearGradient x1="0%" y1="0%" x2="100%" y2="0%" id="a">
            <stop stop-color="#3023AE" offset="0%"/>
            <stop stop-color="#C86DD7" offset="100%"/>
        </linearGradient>
    </defs>
    <path stroke="url(#a)"
          stroke-width="3"
          stroke-linejoin="round"
          stroke-linecap="round"
          d="M5 40 C 6.5 39.98, 8.68 40.64, 10 39.93 S 13.68 35.29, 15 34.59 S 18.64 33.98, 20 34.62 S 23.57 38.87, 25 39.33 S 28.66 38.54, 30 37.86 S 33.5 34.31, 35 34.23 S 38.51 37.11, 40 37.3 S 43.5 35.61, 45 35.51 S 49.45 38.05, 50 36.65 S 53.58 10.49, 55 10 S 59.37 31.85, 60 33.21 S 63.51 31.6, 65 31.47 S 68.51 32.17, 70 32.33 S 73.5 32.51, 75 32.52 S 78.51 32.57, 80 32.37 S 83.53 31.46, 85 31.18 S 88.5 30.5, 90 30.48 S 93.5 31.01, 95 31.07 S 98.54 31.21, 100 30.85 S 103.51 28.72, 105 28.59 S 108.53 30.26, 110 29.95 S 113.64 27.11, 115 26.48 S 118.55 25.73, 120 25.34 S 123.59 24.3, 125 23.79 S 128.51 21.93, 130 21.73 S 133.55 22.82, 135 22.44 S 138.52 19.37, 140 19.12 S 143.55 21.13, 145 20.74 S 148.52 16.72, 150 16.46 S 153.5 18.93, 155 18.98 S 158.5 16.87, 160 16.78 S 163.59 18.87, 165 18.36 S 168.5 13.23, 170 13.13 S 173.55 17.32, 175 17.7 S 178.51 15.95, 180 15.77 S 183.5 16.42, 185 16.49 S 188.51 16.41, 190 16.23 S 193.66 15.95, 195 15.28 S 198.52 11.46, 200 11.24 S 203.66 13.1, 205 13.78"
          fill="none"/>
    <circle r="4" cx="5" cy="40" fill="#3023AE"/>
    <circle r="4" cx="205" cy="13.780000000000001" fill="#C86DD7"/>      
</svg>