<svg width="200" height="50" viewBox="0 0 210 50" xmlns="http://www.w3.org/2000/svg">
    <defs>
        <linearGradient x1="0%" y1="0%" x2="100%" y2="0%" id="a">
            <stop stop-color="#3023AE" offset="0%"/>
            <stop stop-color="#C86DD7" offset="100%"/>
        </linearGradient>
    </defs>
    <path stroke="url(#a)"
          stroke-width="3"
          stroke-linejoin="round"
          stroke-linecap="round"
          d="M5 40 C 6.4 39.46, 8.57 38.54, 10 38.08 S 13.51 36.95, 15 36.77 S 19.48 38.27, 20 36.86 S 23.7 10.74, 25 10 S 29.33 29.8, 30 31.14 S 33.78 29.15, 35 30.02 S 38.89 37.3, 40 38.31 S 43.51 39.02, 45 39.18 S 48.5 39.35, 50 39.36 S 53.57 39.72, 55 39.28 S 58.55 36.65, 60 36.27 S 63.5 36.57, 65 36.69 S 68.5 37.03, 70 37.08 S 73.5 37.03, 75 37 S 78.51 37.08, 80 36.9 S 83.53 36.06, 85 35.76 S 88.51 34.68, 90 34.86 S 93.52 36.74, 95 36.96 S 98.5 36.43, 100 36.32 S 103.5 36.27, 105 36.24 S 108.5 36.18, 110 36.11 S 113.5 35.92, 115 35.8 S 118.5 35.29, 120 35.31 S 123.5 35.8, 125 35.92 S 128.5 36.2, 130 36.08 S 133.52 35.38, 135 35.14 S 138.5 34.49, 140 34.46 S 143.5 34.86, 145 34.92 S 148.51 34.68, 150 34.86 S 153.5 36, 155 36.1 S 158.5 35.57, 160 35.51 S 163.5 35.75, 165 35.68 S 168.53 35.34, 170 35.06 S 173.5 33.82, 175 33.79 S 178.52 34.62, 180 34.87 S 183.5 35.41, 185 35.47 S 188.54 35.62, 190 35.26 S 193.71 33.79, 195 33.02 S 198.52 29.55, 200 29.31 S 203.62 30.81, 205 31.39"
          fill="none"/>
    <circle r="4" cx="5" cy="40" fill="#3023AE"/>
    <circle r="4" cx="205" cy="31.39" fill="#C86DD7"/>      
</svg>