<svg width="200" height="50" viewBox="0 0 210 50" xmlns="http://www.w3.org/2000/svg">
    <defs>
        <linearGradient x1="0%" y1="0%" x2="100%" y2="0%" id="a">
            <stop stop-color="#3023AE" offset="0%"/>
            <stop stop-color="#C86DD7" offset="100%"/>
        </linearGradient>
    </defs>
    <path stroke="url(#a)"
          stroke-width="3"
          stroke-linejoin="round"
          stroke-linecap="round"
          d="M5 40 C 6.4 39.46, 8.57 38.54, 10 38.08 S 13.51 36.96, 15 36.78 S 19.48 38.26, 20 36.85 S 23.7 10.74, 25 10 S 29.33 29.81, 30 31.15 S 33.78 29.19, 35 30.06 S 38.89 37.27, 40 38.28 S 43.51 39.08, 45 39.23 S 48.5 39.28, 50 39.3 S 53.56 39.78, 55 39.36 S 58.55 36.79, 60 36.4 S 63.5 36.56, 65 36.66 S 68.5 37, 70 37.05 S 73.5 37.04, 75 37.02 S 78.51 37.1, 80 36.91 S 83.53 36.05, 85 35.75 S 88.51 34.64, 90 34.84 S 93.51 36.87, 95 37.07 S 98.5 36.28, 100 36.19 S 103.5 36.5, 105 36.46 S 108.5 36.01, 110 35.92 S 113.5 35.93, 115 35.85 S 118.5 35.39, 120 35.4 S 123.5 35.78, 125 35.89 S 128.5 36.24, 130 36.13 S 133.51 35.35, 135 35.15 S 138.5 34.88, 140 34.8 S 143.5 34.62, 145 34.64 S 148.51 34.72, 150 34.91 S 153.5 35.85, 155 35.94 S 158.5 35.53, 160 35.54 S 163.5 36.06, 165 35.98 S 168.53 35.26, 170 34.98 S 173.5 34.15, 175 34.09 S 178.51 34.37, 180 34.56 S 183.51 35.2, 185 35.35 S 188.53 35.91, 190 35.59 S 193.69 33.89, 195 33.16 S 198.54 30.3, 200 29.97 S 203.52 30.61, 205 30.88"
          fill="none"/>
    <circle r="4" cx="5" cy="40" fill="#3023AE"/>
    <circle r="4" cx="205" cy="30.880000000000003" fill="#C86DD7"/>      
</svg>