<svg width="200" height="50" viewBox="0 0 210 50" xmlns="http://www.w3.org/2000/svg">
    <defs>
        <linearGradient x1="0%" y1="0%" x2="100%" y2="0%" id="a">
            <stop stop-color="#3023AE" offset="0%"/>
            <stop stop-color="#C86DD7" offset="100%"/>
        </linearGradient>
    </defs>
    <path stroke="url(#a)"
          stroke-width="3"
          stroke-linejoin="round"
          stroke-linecap="round"
          d="M5 40 C 6.4 39.47, 8.57 38.56, 10 38.1 S 13.51 36.95, 15 36.77 S 19.48 38.27, 20 36.86 S 23.7 10.74, 25 10 S 29.31 29.85, 30 31.18 S 33.81 28.23, 35 29.14 S 38.94 37.71, 40 38.77 S 43.5 39.1, 45 39.21 S 48.54 39.88, 50 39.53 S 53.57 37.23, 55 36.78 S 58.5 36.42, 60 36.42 S 63.5 36.7, 65 36.75 S 68.5 36.78, 70 36.76 S 73.51 36.76, 75 36.59 S 78.53 35.87, 80 35.6 S 83.51 34.61, 85 34.73 S 88.52 36.2, 90 36.43 S 93.51 36.46, 95 36.31 S 98.5 35.48, 100 35.4 S 103.5 35.83, 105 35.78 S 108.5 35.08, 110 35.07 S 113.5 35.61, 115 35.71 S 118.5 35.86, 120 35.75 S 123.51 35.13, 125 34.96 S 128.5 34.72, 130 34.62 S 133.5 34.29, 135 34.28 S 138.52 34.3, 140 34.54 S 143.5 35.78, 145 35.89 S 148.5 35.38, 150 35.27 S 153.51 35.32, 155 35.17 S 158.51 34.44, 160 34.25 S 163.5 33.8, 165 33.86 S 168.52 34.41, 170 34.67 S 173.51 35.81, 175 35.64 S 178.72 34.29, 180 33.52 S 183.57 30.07, 185 29.61 S 188.54 29.92, 190 30.27 S 193.56 31.62, 195 32.02 S 198.5 32.98, 200 33.07 S 203.51 32.76, 205 32.63"
          fill="none"/>
    <circle r="4" cx="5" cy="40" fill="#3023AE"/>
    <circle r="4" cx="205" cy="32.63" fill="#C86DD7"/>      
</svg>