<svg width="200" height="50" viewBox="0 0 210 50" xmlns="http://www.w3.org/2000/svg">
    <defs>
        <linearGradient x1="0%" y1="0%" x2="100%" y2="0%" id="a">
            <stop stop-color="#3023AE" offset="0%"/>
            <stop stop-color="#C86DD7" offset="100%"/>
        </linearGradient>
    </defs>
    <path stroke="url(#a)"
          stroke-width="3"
          stroke-linejoin="round"
          stroke-linecap="round"
          d="M5 40 C 6.4 39.47, 8.57 38.56, 10 38.1 S 13.51 36.96, 15 36.78 S 19.48 38.27, 20 36.86 S 23.7 10.74, 25 10 S 29.32 29.82, 30 31.16 S 33.79 28.7, 35 29.59 S 38.92 37.52, 40 38.56 S 43.51 39.07, 45 39.2 S 48.52 39.67, 50 39.45 S 53.57 38.2, 55 37.75 S 58.5 36.44, 60 36.33 S 63.5 36.94, 65 37 S 68.5 36.78, 70 36.74 S 73.51 36.88, 75 36.74 S 78.53 36.12, 80 35.81 S 83.51 34.49, 85 34.63 S 88.52 36.47, 90 36.73 S 93.5 36.47, 95 36.4 S 98.5 36.38, 100 36.28 S 103.5 35.8, 105 35.72 S 108.5 35.84, 110 35.76 S 113.5 35.21, 115 35.21 S 118.5 35.64, 120 35.74 S 123.5 36.02, 125 35.91 S 128.52 35.23, 130 34.98 S 133.5 34.31, 135 34.24 S 138.51 34.41, 140 34.54 S 143.51 34.92, 145 35.13 S 148.5 35.96, 150 35.96 S 153.5 35.23, 155 35.16 S 158.51 35.64, 160 35.51 S 163.52 34.51, 165 34.29 S 168.5 33.94, 170 34.01 S 173.52 34.5, 175 34.76 S 178.5 35.88, 180 35.77 S 183.71 34.78, 185 34.01 S 188.57 30.24, 190 29.78 S 193.53 30.45, 195 30.75 S 198.53 31.52, 200 31.84 S 203.53 32.6, 205 32.91"
          fill="none"/>
    <circle r="4" cx="5" cy="40" fill="#3023AE"/>
    <circle r="4" cx="205" cy="32.91" fill="#C86DD7"/>      
</svg>