<svg width="200" height="50" viewBox="0 0 210 50" xmlns="http://www.w3.org/2000/svg">
    <defs>
        <linearGradient x1="0%" y1="0%" x2="100%" y2="0%" id="a">
            <stop stop-color="#3023AE" offset="0%"/>
            <stop stop-color="#C86DD7" offset="100%"/>
        </linearGradient>
    </defs>
    <path stroke="url(#a)"
          stroke-width="3"
          stroke-linejoin="round"
          stroke-linecap="round"
          d="M5 40 C 6.33 39.31, 8.51 37.58, 10 37.39 S 13.51 38.51, 15 38.7 S 19.14 39.93, 20 38.7 S 23.82 25.27, 25 24.35 S 28.96 29.79, 30 30.87 S 33.6 34.23, 35 34.78 S 38.5 34.78, 40 34.78 S 43.6 35.33, 45 34.78 S 48.51 31.06, 50 30.87 S 53.51 33.29, 55 33.48 S 58.51 32.36, 60 32.17 S 63.6 32.72, 65 32.17 S 68.51 28.07, 70 28.26 S 73.89 32.47, 75 33.48 S 78.55 37.77, 80 37.39 S 83.82 31.79, 85 30.87 S 88.55 29.95, 90 29.57 S 93.55 28.64, 95 28.26 S 98.6 26.41, 100 26.96 S 103.82 31.25, 105 32.17 S 108.51 34.97, 110 34.78 S 113.67 31.56, 115 30.87 S 118.74 30.39, 120 29.57 S 123.67 25.04, 125 24.35 S 128.55 23.97, 130 24.35 S 133.51 26.77, 135 26.96 S 138.74 26.47, 140 25.65 S 143.6 20.98, 145 20.43 S 148.67 22.43, 150 21.74 S 154.03 16.36, 155 15.22 S 158.55 9.62, 160 10 S 164.14 16.6, 165 17.83 S 169.24 23.06, 170 24.35 S 173.51 34.59, 175 34.78 S 179.19 26.91, 180 25.65 S 183.55 19.51, 185 19.13 S 188.55 22.66, 190 23.04 S 193.89 22.75, 195 21.74 S 198.67 14.6, 200 13.91 S 203.67 15.83, 205 16.52"
          fill="none"/>
    <circle r="4" cx="5" cy="40" fill="#3023AE"/>
    <circle r="4" cx="205" cy="16.52" fill="#C86DD7"/>      
</svg>