<svg width="200" height="50" viewBox="0 0 210 50" xmlns="http://www.w3.org/2000/svg">
    <defs>
        <linearGradient x1="0%" y1="0%" x2="100%" y2="0%" id="a">
            <stop stop-color="#3023AE" offset="0%"/>
            <stop stop-color="#C86DD7" offset="100%"/>
        </linearGradient>
    </defs>
    <path stroke="url(#a)"
          stroke-width="3"
          stroke-linejoin="round"
          stroke-linecap="round"
          d="M5 40 C 5.25 38.52, 8.66 10.68, 10 10 S 14.46 33.52, 15 34.92 S 18.52 35.7, 20 35.93 S 23.5 36.52, 25 36.44 S 28.57 35.86, 30 35.42 S 33.72 34.17, 35 33.39 S 38.72 30.1, 40 29.32 S 43.69 26.56, 45 27.29 S 48.66 34.24, 50 34.92 S 53.53 32.67, 55 32.37 S 58.55 33.25, 60 32.88 S 63.59 30.33, 65 29.83 S 68.66 30, 70 29.32 S 73.51 24.9, 75 24.75 S 78.53 28.01, 80 28.31 S 83.57 27.22, 85 26.78 S 88.69 24.52, 90 25.25 S 93.66 31.69, 95 32.37 S 98.53 30.04, 100 30.34 S 103.53 34.71, 105 34.41 S 108.95 29.38, 110 28.31 S 113.55 23.87, 115 24.24 S 118.55 30.48, 120 30.85 S 123.84 27.73, 125 26.78 S 128.72 23.49, 130 22.71 S 133.72 19.9, 135 20.68 S 138.64 29.43, 140 28.81 S 143.89 17.11, 145 16.1 S 148.51 19.81, 150 19.66 S 153.66 14.4, 155 15.08 S 158.61 24.18, 160 24.75 S 164.07 20.33, 165 19.15 S 168.61 11.46, 170 12.03 S 174.03 22.08, 175 23.22 S 178.55 24.1, 180 23.73 S 183.89 21.69, 185 20.68 S 188.5 14.58, 190 14.58 S 193.64 20.06, 195 20.68 S 198.55 19.52, 200 19.15 S 203.53 18.44, 205 18.14"
          fill="none"/>
    <circle r="4" cx="5" cy="40" fill="#3023AE"/>
    <circle r="4" cx="205" cy="18.14" fill="#C86DD7"/>      
</svg>