<svg width="200" height="50" viewBox="0 0 210 50" xmlns="http://www.w3.org/2000/svg">
    <defs>
        <linearGradient x1="0%" y1="0%" x2="100%" y2="0%" id="a">
            <stop stop-color="#3023AE" offset="0%"/>
            <stop stop-color="#C86DD7" offset="100%"/>
        </linearGradient>
    </defs>
    <path stroke="url(#a)"
          stroke-width="3"
          stroke-linejoin="round"
          stroke-linecap="round"
          d="M5 40 C 5.26 38.52, 8.77 12.49, 10 11.63 S 14.27 31.71, 15 33.02 S 18.5 29.49, 20 29.53 S 23.74 34.08, 25 33.26 S 28.59 23.54, 30 23.02 S 33.78 28.65, 35 29.53 S 38.73 31.03, 40 30.23 S 43.66 23.94, 45 23.26 S 48.58 24.63, 50 25.12 S 53.86 27.72, 55 26.74 S 59.22 17.79, 60 16.51 S 63.88 9.24, 65 10.23 S 68.5 25.38, 70 25.35 S 73.64 10.63, 75 10 S 78.9 19.68, 80 20.7 S 83.63 19.91, 85 19.3 S 88.56 15.85, 90 16.28 S 93.84 21.38, 95 22.33 S 98.7 23.67, 100 24.42 S 103.56 27.74, 105 28.14 S 108.56 27.61, 110 27.21 S 113.52 25.11, 115 25.35 S 118.56 28.44, 120 28.84 S 123.5 28.21, 125 28.14 S 128.53 28.64, 130 28.37 S 133.56 26.68, 135 26.28 S 138.8 26.48, 140 25.58 S 143.58 18.35, 145 18.84 S 148.82 28.14, 150 29.07 S 153.53 26.43, 155 26.74 S 158.65 30.5, 160 31.16 S 163.59 32.15, 165 31.63 S 168.51 27.58, 170 27.44 S 173.62 30.12, 175 30.7 S 178.53 31.9, 180 31.63 S 183.59 28.32, 185 28.84 S 188.56 34.95, 190 35.35 S 193.73 32.43, 195 31.63 S 198.59 29.59, 200 29.07 S 203.54 28.25, 205 27.91"
          fill="none"/>
    <circle r="4" cx="5" cy="40" fill="#3023AE"/>
    <circle r="4" cx="205" cy="27.91" fill="#C86DD7"/>      
</svg>