<svg width="200" height="50" viewBox="0 0 210 50" xmlns="http://www.w3.org/2000/svg">
    <defs>
        <linearGradient x1="0%" y1="0%" x2="100%" y2="0%" id="a">
            <stop stop-color="#3023AE" offset="0%"/>
            <stop stop-color="#C86DD7" offset="100%"/>
        </linearGradient>
    </defs>
    <path stroke="url(#a)"
          stroke-width="3"
          stroke-linejoin="round"
          stroke-linecap="round"
          d="M5 40 C 6.5 39.94, 8.5 39.82, 10 39.79 S 13.5 39.79, 15 39.79 S 18.5 39.79, 20 39.79 S 23.5 39.79, 25 39.79 S 28.5 39.79, 30 39.79 S 33.61 40.36, 35 39.79 S 38.72 36.47, 40 35.68 S 43.5 33.57, 45 33.63 S 49.42 37.48, 50 36.1 S 53.51 10.15, 55 10 S 59.45 33.68, 60 35.07 S 63.51 35.15, 65 35.27 S 68.51 36.07, 70 35.89 S 73.52 34.25, 75 34.04 S 78.53 34.18, 80 34.45 S 83.56 35.47, 85 35.89 S 88.51 37.18, 90 37.33 S 93.5 36.95, 95 36.92 S 98.5 37.15, 100 37.12 S 103.64 37.35, 105 36.71 S 108.94 33.46, 110 32.4 S 113.52 26.43, 115 26.64 S 118.83 32.9, 120 33.84 S 123.5 34.69, 125 34.66 S 128.52 33.87, 130 33.63 S 133.51 33.13, 135 33.01 S 138.5 32.78, 140 32.81 S 143.78 34.1, 145 33.22 S 148.65 26.28, 150 25.62 S 153.62 27.7, 155 28.29 S 158.5 29.84, 160 29.93 S 163.56 29.32, 165 28.9 S 168.65 27.71, 170 27.05 S 173.62 23.38, 175 23.97 S 178.51 31.25, 180 31.37 S 183.6 25.34, 185 24.79 S 188.52 27.68, 190 27.47 S 194.09 24.55, 195 23.36 S 198.58 14.79, 200 14.32 S 204.02 18.94, 205 20.07"
          fill="none"/>
    <circle r="4" cx="5" cy="40" fill="#3023AE"/>
    <circle r="4" cx="205" cy="20.07" fill="#C86DD7"/>      
</svg>