<svg width="200" height="50" viewBox="0 0 210 50" xmlns="http://www.w3.org/2000/svg">
    <defs>
        <linearGradient x1="0%" y1="0%" x2="100%" y2="0%" id="a">
            <stop stop-color="#3023AE" offset="0%"/>
            <stop stop-color="#C86DD7" offset="100%"/>
        </linearGradient>
    </defs>
    <path stroke="url(#a)"
          stroke-width="3"
          stroke-linejoin="round"
          stroke-linecap="round"
          d="M5 40 C 6.5 39.94, 8.5 39.83, 10 39.8 S 13.5 39.8, 15 39.8 S 18.5 39.8, 20 39.8 S 23.5 39.8, 25 39.8 S 28.5 39.8, 30 39.8 S 33.63 40.41, 35 39.8 S 38.73 36.16, 40 35.37 S 43.51 33.38, 45 33.56 S 49.41 37.96, 50 36.58 S 53.51 10.15, 55 10 S 59.45 34.18, 60 35.57 S 63.5 35.11, 65 35.17 S 68.54 36.3, 70 35.97 S 73.5 32.98, 75 32.95 S 78.57 35.31, 80 35.77 S 83.51 36.02, 85 36.17 S 88.5 36.69, 90 36.78 S 93.51 36.6, 95 36.78 S 98.58 38.48, 100 37.99 S 103.55 33.74, 105 33.36 S 108.75 36.2, 110 35.37 S 113.54 27.04, 115 26.71 S 118.85 32.18, 120 33.15 S 123.5 35.11, 125 35.17 S 128.54 33.89, 130 33.56 S 133.5 33.07, 135 32.95 S 138.55 33.13, 140 32.75 S 143.67 31.04, 145 30.34 S 148.52 27.76, 150 27.52 S 153.56 28.31, 155 28.72 S 158.5 30.46, 160 30.34 S 163.63 28.53, 165 27.92 S 168.5 26.03, 170 25.91 S 173.61 26.55, 175 27.11 S 178.57 30.39, 180 29.93 S 183.64 24.52, 185 23.89 S 188.67 26, 190 25.3 S 193.67 19.36, 195 18.66 S 198.58 20.56, 200 20.07 S 203.92 16.27, 205 15.23"
          fill="none"/>
    <circle r="4" cx="5" cy="40" fill="#3023AE"/>
    <circle r="4" cx="205" cy="15.23" fill="#C86DD7"/>      
</svg>