<svg width="200" height="50" viewBox="0 0 210 50" xmlns="http://www.w3.org/2000/svg">
    <defs>
        <linearGradient x1="0%" y1="0%" x2="100%" y2="0%" id="a">
            <stop stop-color="#3023AE" offset="0%"/>
            <stop stop-color="#C86DD7" offset="100%"/>
        </linearGradient>
    </defs>
    <path stroke="url(#a)"
          stroke-width="3"
          stroke-linejoin="round"
          stroke-linecap="round"
          d="M5 40 C 6.5 39.94, 8.5 39.83, 10 39.8 S 13.5 39.8, 15 39.8 S 18.5 39.8, 20 39.8 S 23.5 39.8, 25 39.8 S 28.5 39.8, 30 39.8 S 33.62 40.39, 35 39.8 S 38.71 36.3, 40 35.54 S 43.5 33.83, 45 33.92 S 49.42 37.53, 50 36.15 S 53.5 10.12, 55 10 S 59.45 33.94, 60 35.34 S 63.5 35.22, 65 35.34 S 68.54 36.48, 70 36.15 S 73.51 33.26, 75 33.11 S 78.57 34.68, 80 35.14 S 83.52 36.08, 85 36.35 S 88.5 36.87, 90 36.96 S 93.5 36.9, 95 36.96 S 98.55 37.74, 100 37.36 S 103.55 34.7, 105 34.32 S 108.83 35.67, 110 34.73 S 113.5 26.34, 115 26.22 S 118.9 32.9, 120 33.92 S 123.5 35.66, 125 35.54 S 128.56 33.52, 130 33.11 S 133.5 32.79, 135 32.7 S 138.5 32.38, 140 32.5 S 143.78 34.38, 145 33.51 S 148.65 26.07, 150 25.41 S 153.65 27.99, 155 28.65 S 158.5 30.18, 160 30.27 S 163.64 29.89, 165 29.26 S 168.58 26.1, 170 25.61 S 173.68 25.09, 175 25.81 S 178.53 31.38, 180 31.08 S 183.53 24.08, 185 23.78 S 188.66 29.73, 190 29.05 S 194.08 19.9, 195 18.72 S 198.5 16.22, 200 16.28 S 203.7 18.38, 205 19.12"
          fill="none"/>
    <circle r="4" cx="5" cy="40" fill="#3023AE"/>
    <circle r="4" cx="205" cy="19.12" fill="#C86DD7"/>      
</svg>