<svg width="200" height="50" viewBox="0 0 210 50" xmlns="http://www.w3.org/2000/svg">
    <defs>
        <linearGradient x1="0%" y1="0%" x2="100%" y2="0%" id="a">
            <stop stop-color="#3023AE" offset="0%"/>
            <stop stop-color="#C86DD7" offset="100%"/>
        </linearGradient>
    </defs>
    <path stroke="url(#a)"
          stroke-width="3"
          stroke-linejoin="round"
          stroke-linecap="round"
          d="M5 40 C 6.5 39.94, 8.5 39.83, 10 39.8 S 13.5 39.8, 15 39.8 S 18.5 39.8, 20 39.8 S 23.5 39.8, 25 39.8 S 28.5 39.8, 30 39.8 S 33.62 40.39, 35 39.8 S 38.71 36.27, 40 35.51 S 43.5 33.79, 45 33.88 S 49.42 37.5, 50 36.12 S 53.5 10.12, 55 10 S 59.44 33.92, 60 35.31 S 63.5 34.98, 65 35.1 S 68.52 36.33, 70 36.12 S 73.52 33.88, 75 33.67 S 78.54 34.33, 80 34.69 S 83.54 35.76, 85 36.12 S 88.51 36.99, 90 37.14 S 93.5 37.17, 95 37.14 S 98.51 37.12, 100 36.94 S 103.57 36.39, 105 35.92 S 108.95 34.74, 110 33.67 S 113.5 25.62, 115 25.71 S 118.91 33.26, 120 34.29 S 123.52 35.31, 125 35.1 S 128.53 33.16, 130 32.86 S 133.5 33.06, 135 33.06 S 138.5 32.8, 140 32.86 S 143.8 34.37, 145 33.47 S 148.68 26.01, 150 25.31 S 153.66 27.48, 155 28.16 S 158.51 30.26, 160 30.41 S 163.63 29.79, 165 29.18 S 168.61 26.49, 170 25.92 S 173.69 24.38, 175 25.1 S 178.5 31.49, 180 31.43 S 183.59 25.21, 185 24.69 S 188.6 28.3, 190 27.76 S 194.06 21.99, 195 20.82 S 198.5 15.34, 200 15.31 S 203.97 19.52, 205 20.61"
          fill="none"/>
    <circle r="4" cx="5" cy="40" fill="#3023AE"/>
    <circle r="4" cx="205" cy="20.61" fill="#C86DD7"/>      
</svg>