<svg width="200" height="50" viewBox="0 0 210 50" xmlns="http://www.w3.org/2000/svg">
    <defs>
        <linearGradient x1="0%" y1="0%" x2="100%" y2="0%" id="a">
            <stop stop-color="#3023AE" offset="0%"/>
            <stop stop-color="#C86DD7" offset="100%"/>
        </linearGradient>
    </defs>
    <path stroke="url(#a)"
          stroke-width="3"
          stroke-linejoin="round"
          stroke-linecap="round"
          d="M5 40 C 6.5 39.94, 8.5 39.83, 10 39.8 S 13.5 39.8, 15 39.8 S 18.5 39.8, 20 39.8 S 23.5 39.8, 25 39.8 S 28.5 39.8, 30 39.8 S 33.61 40.37, 35 39.8 S 38.72 36.49, 40 35.71 S 43.5 33.61, 45 33.67 S 49.42 37.5, 50 36.12 S 53.5 10.12, 55 10 S 59.45 33.91, 60 35.31 S 63.5 35.22, 65 35.31 S 68.51 36.1, 70 35.92 S 73.52 34.29, 75 34.08 S 78.53 34.19, 80 34.49 S 83.56 35.71, 85 36.12 S 88.51 37.23, 90 37.35 S 93.5 37, 95 36.94 S 98.51 37.12, 100 36.94 S 103.57 36.18, 105 35.71 S 108.92 34.71, 110 33.67 S 113.5 26.03, 115 26.12 S 118.86 33.31, 120 34.29 S 123.5 34.78, 125 34.69 S 128.53 33.97, 130 33.67 S 133.5 32.77, 135 32.65 S 138.51 32.74, 140 32.86 S 143.77 34.33, 145 33.47 S 148.69 26.64, 150 25.92 S 153.63 27.35, 155 27.96 S 158.51 30.26, 160 30.41 S 163.62 29.57, 165 28.98 S 168.59 26.64, 170 26.12 S 173.66 24.63, 175 25.31 S 178.51 31.4, 180 31.22 S 183.57 24.52, 185 24.08 S 188.58 28.65, 190 28.16 S 194.03 21.76, 195 20.61 S 198.5 16.39, 200 16.33 S 203.81 19.28, 205 20.2"
          fill="none"/>
    <circle r="4" cx="5" cy="40" fill="#3023AE"/>
    <circle r="4" cx="205" cy="20.2" fill="#C86DD7"/>      
</svg>