<svg width="200" height="50" viewBox="0 0 210 50" xmlns="http://www.w3.org/2000/svg">
    <defs>
        <linearGradient x1="0%" y1="0%" x2="100%" y2="0%" id="a">
            <stop stop-color="#3023AE" offset="0%"/>
            <stop stop-color="#C86DD7" offset="100%"/>
        </linearGradient>
    </defs>
    <path stroke="url(#a)"
          stroke-width="3"
          stroke-linejoin="round"
          stroke-linecap="round"
          d="M5 40 C 6.5 39.94, 8.5 39.83, 10 39.8 S 13.5 39.8, 15 39.8 S 18.5 39.8, 20 39.8 S 23.5 39.8, 25 39.8 S 28.5 39.8, 30 39.8 S 33.61 40.37, 35 39.8 S 38.72 36.49, 40 35.71 S 43.5 33.61, 45 33.67 S 49.42 37.5, 50 36.12 S 53.5 10.12, 55 10 S 59.45 33.91, 60 35.31 S 63.5 35.19, 65 35.31 S 68.52 36.33, 70 36.12 S 73.52 34.12, 75 33.88 S 78.54 34.16, 80 34.49 S 83.56 35.71, 85 36.12 S 88.51 37.23, 90 37.35 S 93.5 37, 95 36.94 S 98.5 37, 100 36.94 S 103.61 37.1, 105 36.53 S 108.95 33.93, 110 32.86 S 113.52 26.12, 115 26.33 S 118.84 33.34, 120 34.29 S 123.5 34.58, 125 34.49 S 128.52 33.94, 130 33.67 S 133.5 32.77, 135 32.65 S 138.51 32.71, 140 32.86 S 143.78 34.54, 145 33.67 S 148.69 26.43, 150 25.71 S 153.63 27.55, 155 28.16 S 158.51 30.08, 160 30.2 S 163.61 29.55, 165 28.98 S 168.59 26.64, 170 26.12 S 173.68 24.61, 175 25.31 S 178.52 31.64, 180 31.43 S 183.57 24.35, 185 23.88 S 188.54 28.52, 190 28.16 S 194.06 22.6, 195 21.43 S 198.51 15.86, 200 15.71 S 203.91 19.38, 205 20.41"
          fill="none"/>
    <circle r="4" cx="5" cy="40" fill="#3023AE"/>
    <circle r="4" cx="205" cy="20.41" fill="#C86DD7"/>      
</svg>