<svg width="200" height="50" viewBox="0 0 210 50" xmlns="http://www.w3.org/2000/svg">
    <defs>
        <linearGradient x1="0%" y1="0%" x2="100%" y2="0%" id="a">
            <stop stop-color="#3023AE" offset="0%"/>
            <stop stop-color="#C86DD7" offset="100%"/>
        </linearGradient>
    </defs>
    <path stroke="url(#a)"
          stroke-width="3"
          stroke-linejoin="round"
          stroke-linecap="round"
          d="M5 40 C 6.5 39.94, 8.5 39.83, 10 39.8 S 13.5 39.8, 15 39.8 S 18.5 39.8, 20 39.8 S 23.5 39.8, 25 39.8 S 28.5 39.8, 30 39.8 S 33.63 40.41, 35 39.8 S 38.7 36.13, 40 35.37 S 43.5 33.84, 45 33.96 S 49.42 37.55, 50 36.17 S 53.5 10.06, 55 10 S 59.45 34.38, 60 35.77 S 63.5 35.17, 65 35.17 S 68.52 36.04, 70 35.77 S 73.5 33.42, 75 33.36 S 78.56 34.96, 80 35.37 S 83.51 35.96, 85 36.17 S 88.5 36.66, 90 36.78 S 93.51 36.83, 95 36.98 S 98.57 38.25, 100 37.79 S 103.55 34.14, 105 33.76 S 108.79 36.05, 110 35.17 S 113.52 26.78, 115 26.51 S 118.87 32.38, 120 33.36 S 123.5 35.14, 125 35.17 S 128.54 33.89, 130 33.56 S 133.5 33.07, 135 32.95 S 138.51 32.9, 140 32.75 S 143.75 32.78, 145 31.95 S 148.56 26.54, 150 26.11 S 153.66 28.26, 155 28.93 S 158.51 31.32, 160 31.14 S 163.66 28.39, 165 27.72 S 168.51 26.32, 170 26.11 S 173.65 25.66, 175 26.31 S 178.57 31.4, 180 30.94 S 183.64 23.72, 185 23.09 S 188.62 26.89, 190 26.31 S 193.77 19.72, 195 18.86 S 198.52 19.53, 200 19.26 S 203.63 17.66, 205 17.05"
          fill="none"/>
    <circle r="4" cx="5" cy="40" fill="#3023AE"/>
    <circle r="4" cx="205" cy="17.05" fill="#C86DD7"/>      
</svg>