<svg width="200" height="50" viewBox="0 0 210 50" xmlns="http://www.w3.org/2000/svg">
    <defs>
        <linearGradient x1="0%" y1="0%" x2="100%" y2="0%" id="a">
            <stop stop-color="#3023AE" offset="0%"/>
            <stop stop-color="#C86DD7" offset="100%"/>
        </linearGradient>
    </defs>
    <path stroke="url(#a)"
          stroke-width="3"
          stroke-linejoin="round"
          stroke-linecap="round"
          d="M5 40 C 6.5 39.94, 8.5 39.83, 10 39.8 S 13.5 39.8, 15 39.8 S 18.5 39.8, 20 39.8 S 23.5 39.8, 25 39.8 S 28.5 39.8, 30 39.8 S 33.62 40.39, 35 39.8 S 38.71 36.27, 40 35.51 S 43.5 33.79, 45 33.88 S 49.42 37.5, 50 36.12 S 53.5 10.12, 55 10 S 59.44 33.92, 60 35.31 S 63.5 34.98, 65 35.1 S 68.52 36.33, 70 36.12 S 73.52 33.88, 75 33.67 S 78.54 34.33, 80 34.69 S 83.54 35.76, 85 36.12 S 88.51 36.99, 90 37.14 S 93.5 37.17, 95 37.14 S 98.52 37.15, 100 36.94 S 103.58 36.2, 105 35.71 S 108.92 34.51, 110 33.47 S 113.5 26.06, 115 26.12 S 118.9 32.87, 120 33.88 S 123.51 35.43, 125 35.31 S 128.54 33.39, 130 33.06 S 133.5 33.12, 135 33.06 S 138.5 32.56, 140 32.65 S 143.79 34.56, 145 33.67 S 148.69 26.03, 150 25.31 S 153.66 27.48, 155 28.16 S 158.51 30.26, 160 30.41 S 163.63 29.79, 165 29.18 S 168.62 26.51, 170 25.92 S 173.7 24.16, 175 24.9 S 178.5 31.66, 180 31.63 S 183.6 25.23, 185 24.69 S 188.61 28.33, 190 27.76 S 194.05 21.77, 195 20.61 S 198.5 15.57, 200 15.51 S 203.91 19.17, 205 20.2"
          fill="none"/>
    <circle r="4" cx="5" cy="40" fill="#3023AE"/>
    <circle r="4" cx="205" cy="20.2" fill="#C86DD7"/>      
</svg>