<svg width="200" height="50" viewBox="0 0 210 50" xmlns="http://www.w3.org/2000/svg">
    <defs>
        <linearGradient x1="0%" y1="0%" x2="100%" y2="0%" id="a">
            <stop stop-color="#3023AE" offset="0%"/>
            <stop stop-color="#C86DD7" offset="100%"/>
        </linearGradient>
    </defs>
    <path stroke="url(#a)"
          stroke-width="3"
          stroke-linejoin="round"
          stroke-linecap="round"
          d="M5 40 C 5.55 38.61, 9.53 28.83, 10 27.41 S 14.05 8.84, 15 10 S 19.1 38.53, 20 39.73 S 23.53 23.7, 25 23.39 S 29.04 36.44, 30 37.59 S 33.53 35.73, 35 35.45 S 38.51 35.51, 40 35.71 S 43.53 36.51, 45 36.79 S 48.51 37.43, 50 37.59 S 53.5 37.74, 55 37.86 S 58.5 38.47, 60 38.39 S 63.5 37.36, 65 37.32 S 68.5 38.04, 70 38.12 S 73.5 37.94, 75 37.86 S 78.5 37.51, 80 37.59 S 83.5 38.31, 85 38.39 S 88.5 38, 90 38.12 S 93.5 39.12, 95 39.2 S 98.51 38.86, 100 38.66 S 103.5 37.86, 105 37.86 S 108.52 38.42, 110 38.66 S 113.51 39.66, 115 39.46 S 118.53 37.6, 120 37.32 S 123.53 37.31, 125 37.59 S 128.51 39, 130 39.2 S 133.5 39.05, 135 38.93 S 138.5 38.51, 140 38.39 S 143.5 38.08, 145 38.12 S 148.5 38.62, 150 38.66 S 153.5 38.43, 155 38.39 S 158.5 38.27, 160 38.39 S 163.5 39.16, 165 39.2 S 168.5 38.74, 170 38.66 S 173.51 38.82, 175 38.66 S 178.5 37.59, 180 37.59 S 183.5 38.66, 185 38.66 S 188.5 37.71, 190 37.59 S 193.5 37.98, 195 37.86 S 198.5 36.91, 200 36.79 S 203.5 36.97, 205 37.05"
          fill="none"/>
    <circle r="4" cx="5" cy="40" fill="#3023AE"/>
    <circle r="4" cx="205" cy="37.05" fill="#C86DD7"/>      
</svg>