<svg width="200" height="50" viewBox="0 0 210 50" xmlns="http://www.w3.org/2000/svg">
    <defs>
        <linearGradient x1="0%" y1="0%" x2="100%" y2="0%" id="a">
            <stop stop-color="#3023AE" offset="0%"/>
            <stop stop-color="#C86DD7" offset="100%"/>
        </linearGradient>
    </defs>
    <path stroke="url(#a)"
          stroke-width="3"
          stroke-linejoin="round"
          stroke-linecap="round"
          d="M5 40 C 6.47 39.72, 8.5 39.15, 10 39.06 S 13.5 39.37, 15 39.37 S 18.5 39.11, 20 39.06 S 23.5 39.11, 25 39.06 S 28.51 38.94, 30 38.75 S 33.54 38.17, 35 37.81 S 38.54 36.61, 40 36.25 S 43.5 35.31, 45 35.31 S 48.5 36.3, 50 36.25 S 53.51 34.86, 55 35 S 58.51 37, 60 37.19 S 63.58 36.74, 65 36.25 S 68.5 33.7, 70 33.75 S 73.5 36.47, 75 36.56 S 78.53 34.65, 80 34.37 S 83.51 34.5, 85 34.69 S 88.51 35.76, 90 35.62 S 93.6 34.28, 95 33.75 S 98.5 31.82, 100 31.87 S 103.52 33.83, 105 34.06 S 108.52 33.67, 110 33.44 S 113.52 32.73, 115 32.5 S 118.58 32.36, 120 31.87 S 123.63 29.66, 125 29.06 S 128.53 27.22, 130 27.5 S 133.5 31.03, 135 30.94 S 138.52 27.1, 140 26.87 S 143.56 28.96, 145 29.37 S 148.6 30.22, 150 29.69 S 153.69 26.36, 155 25.62 S 158.53 24.38, 160 24.06 S 163.5 23.44, 165 23.44 S 168.63 24.66, 170 24.06 S 173.84 20.01, 175 19.06 S 178.51 16.13, 180 15.94 S 183.69 17.08, 185 17.81 S 188.5 21.65, 190 21.56 S 194.02 18.32, 195 17.19 S 198.73 9.21, 200 10 S 204.48 22.03, 205 23.44"
          fill="none"/>
    <circle r="4" cx="5" cy="40" fill="#3023AE"/>
    <circle r="4" cx="205" cy="23.44" fill="#C86DD7"/>      
</svg>