<svg width="200" height="50" viewBox="0 0 210 50" xmlns="http://www.w3.org/2000/svg">
    <defs>
        <linearGradient x1="0%" y1="0%" x2="100%" y2="0%" id="a">
            <stop stop-color="#3023AE" offset="0%"/>
            <stop stop-color="#C86DD7" offset="100%"/>
        </linearGradient>
    </defs>
    <path stroke="url(#a)"
          stroke-width="3"
          stroke-linejoin="round"
          stroke-linecap="round"
          d="M5 40 C 5.61 38.63, 8.65 29.45, 10 28.8 S 13.59 34.65, 15 35.16 S 18.5 32.42, 20 32.4 S 23.51 34.9, 25 35.02 S 28.51 33.44, 30 33.23 S 33.58 34.11, 35 33.64 S 38.51 30.09, 40 29.91 S 43.55 32.8, 45 32.4 S 48.61 27.7, 50 27.14 S 53.61 27.82, 55 28.39 S 58.51 31.17, 60 31.29 S 63.52 29.45, 65 29.22 S 68.5 29.71, 70 29.77 S 73.92 30.67, 75 29.63 S 78.68 20.8, 80 20.09 S 83.8 23.34, 85 24.24 S 88.51 27.74, 90 27.56 S 93.6 23.54, 95 23 S 98.6 24.22, 100 23.69 S 103.64 19.9, 105 19.26 S 108.82 19.92, 110 18.99 S 113.54 11.06, 115 11.38 S 118.66 20.53, 120 21.2 S 123.94 17.43, 125 16.36 S 128.5 11.05, 130 11.11 S 133.81 15.86, 135 16.77 S 138.57 18.26, 140 18.71 S 143.52 20.18, 145 19.95 S 148.52 17.45, 150 17.19 S 153.78 19.04, 155 18.16 S 158.51 10.19, 160 10 S 163.56 16.49, 165 16.91 S 168.66 13.57, 170 12.9 S 173.55 12.32, 175 11.94 S 178.52 10.04, 180 10.28 S 183.57 13.14, 185 13.59 S 188.57 13.01, 190 13.46 S 193.58 17.26, 195 16.77 S 198.51 9.83, 200 10 S 204.2 16.61, 205 17.88"
          fill="none"/>
    <circle r="4" cx="5" cy="40" fill="#3023AE"/>
    <circle r="4" cx="205" cy="17.88" fill="#C86DD7"/>      
</svg>