<svg width="200" height="50" viewBox="0 0 210 50" xmlns="http://www.w3.org/2000/svg">
    <defs>
        <linearGradient x1="0%" y1="0%" x2="100%" y2="0%" id="a">
            <stop stop-color="#3023AE" offset="0%"/>
            <stop stop-color="#C86DD7" offset="100%"/>
        </linearGradient>
    </defs>
    <path stroke="url(#a)"
          stroke-width="3"
          stroke-linejoin="round"
          stroke-linecap="round"
          d="M5 40 C 6.49 39.86, 8.51 39.69, 10 39.54 S 13.5 39.09, 15 39 S 18.5 38.89, 20 38.94 S 23.5 39.26, 25 39.34 S 29.52 40.89, 30 39.47 S 33.57 10.45, 35 10 S 39.49 34.94, 40 36.35 S 43.55 37.51, 45 37.88 S 48.5 38.79, 50 38.87 S 53.5 38.5, 55 38.41 S 58.5 38.18, 60 38.27 S 63.5 38.93, 65 39 S 68.51 38.93, 70 38.74 S 73.5 37.73, 75 37.74 S 78.51 38.63, 80 38.81 S 83.5 38.93, 85 38.94 S 88.5 38.91, 90 38.87 S 93.5 38.61, 95 38.67 S 98.5 39.21, 100 39.27 S 103.51 39.2, 105 39.07 S 108.5 38.42, 110 38.41 S 113.5 39.04, 115 39 S 118.5 38.12, 120 38.14 S 123.5 39.09, 125 39.14 S 128.5 38.45, 130 38.47 S 133.5 39.17, 135 39.27 S 138.5 39.14, 140 39.14 S 143.5 39.25, 145 39.27 S 148.5 39.27, 150 39.27 S 153.5 39.26, 155 39.27 S 158.5 39.42, 160 39.34 S 163.5 38.79, 165 38.74 S 168.5 38.93, 170 39 S 173.5 39.18, 175 39.2 S 178.5 39.2, 180 39.14 S 183.5 38.87, 185 38.81 S 188.51 38.61, 190 38.74 S 193.5 39.66, 195 39.67 S 198.5 38.88, 200 38.81 S 203.5 39.08, 205 39.2"
          fill="none"/>
    <circle r="4" cx="5" cy="40" fill="#3023AE"/>
    <circle r="4" cx="205" cy="39.2" fill="#C86DD7"/>      
</svg>