<svg width="200" height="50" viewBox="0 0 210 50" xmlns="http://www.w3.org/2000/svg">
    <defs>
        <linearGradient x1="0%" y1="0%" x2="100%" y2="0%" id="a">
            <stop stop-color="#3023AE" offset="0%"/>
            <stop stop-color="#C86DD7" offset="100%"/>
        </linearGradient>
    </defs>
    <path stroke="url(#a)"
          stroke-width="3"
          stroke-linejoin="round"
          stroke-linecap="round"
          d="M5 40 C 6.5 39.96, 8.5 39.95, 10 39.88 S 13.54 39.86, 15 39.53 S 18.56 38.07, 20 37.64 S 23.52 36.27, 25 36.5 S 28.69 39.9, 30 39.17 S 33.52 31.16, 35 30.92 S 38.86 36.59, 40 37.56 S 43.5 39.29, 45 39.41 S 48.5 38.37, 50 38.35 S 53.5 39.21, 55 39.29 S 58.5 38.89, 60 38.9 S 63.5 39.29, 65 39.37 S 68.5 39.46, 70 39.45 S 74.02 40.42, 75 39.29 S 78.55 28.26, 80 27.89 S 83.88 35.74, 85 36.74 S 88.77 37.68, 90 36.82 S 94.48 31.11, 95 29.7 S 98.94 11.06, 100 10 S 103.91 18.68, 105 19.71 S 108.81 18.6, 110 19.52 S 113.74 26.65, 115 27.46 S 118.58 25.48, 120 25.96 S 123.53 31.12, 125 30.84 S 128.53 24.39, 130 24.08 S 133.6 28.19, 135 28.72 S 139.21 29.16, 140 27.89 S 143.5 12.83, 145 12.71 S 149.14 25.87, 150 27.1 S 154.02 28.2, 155 27.06 S 158.5 15.57, 160 15.47 S 163.75 25.52, 165 26.36 S 168.52 22.45, 170 22.19 S 173.63 23.99, 175 24.59 S 178.54 26.91, 180 26.55 S 183.55 22.53, 185 22.15 S 188.52 23.69, 190 23.92 S 193.5 23.67, 195 23.72 S 198.62 23.69, 200 24.27 S 203.79 27.01, 205 27.89"
          fill="none"/>
    <circle r="4" cx="5" cy="40" fill="#3023AE"/>
    <circle r="4" cx="205" cy="27.89" fill="#C86DD7"/>      
</svg>