<svg width="200" height="50" viewBox="0 0 210 50" xmlns="http://www.w3.org/2000/svg">
    <defs>
        <linearGradient x1="0%" y1="0%" x2="100%" y2="0%" id="a">
            <stop stop-color="#3023AE" offset="0%"/>
            <stop stop-color="#C86DD7" offset="100%"/>
        </linearGradient>
    </defs>
    <path stroke="url(#a)"
          stroke-width="3"
          stroke-linejoin="round"
          stroke-linecap="round"
          d="M5 40 C 6.5 39.96, 8.5 39.97, 10 39.88 S 13.67 40.07, 15 39.37 S 18.5 34.55, 20 34.59 S 23.63 39.05, 25 39.65 S 28.97 40.07, 30 38.98 S 33.5 29, 35 29.06 S 38.9 38.39, 40 39.41 S 43.5 38.45, 45 38.39 S 48.5 38.95, 50 39.02 S 53.5 38.82, 55 38.86 S 58.5 39.2, 60 39.29 S 63.5 39.47, 65 39.45 S 69.06 40.31, 70 39.14 S 73.53 27.36, 75 27.06 S 78.64 36.47, 80 37.1 S 84.01 32.78, 85 31.65 S 89.37 27.01, 90 25.65 S 93.89 11.01, 95 10 S 99.09 15.32, 100 16.51 S 103.83 22.12, 105 23.06 S 108.72 23.81, 110 24.59 S 113.5 29.21, 115 29.18 S 118.58 24.86, 120 24.39 S 123.62 26.46, 125 25.88 S 128.75 21.02, 130 20.2 S 133.72 18.54, 135 19.33 S 138.74 27.21, 140 26.39 S 143.5 12.73, 145 12.82 S 148.87 26.03, 150 27.02 S 153.59 22.05, 155 21.53 S 158.6 22.78, 160 23.33 S 163.51 25.59, 165 25.45 S 168.61 22.95, 170 22.39 S 173.5 21.32, 175 21.41 S 178.66 22.32, 180 22.98 S 183.55 25.98, 185 26.35 S 188.87 26.48, 190 25.49 S 193.62 18.16, 195 17.57 S 198.72 20.44, 200 21.22 S 203.65 22.96, 205 23.61"
          fill="none"/>
    <circle r="4" cx="5" cy="40" fill="#3023AE"/>
    <circle r="4" cx="205" cy="23.61" fill="#C86DD7"/>      
</svg>