<svg width="200" height="50" viewBox="0 0 210 50" xmlns="http://www.w3.org/2000/svg">
    <defs>
        <linearGradient x1="0%" y1="0%" x2="100%" y2="0%" id="a">
            <stop stop-color="#3023AE" offset="0%"/>
            <stop stop-color="#C86DD7" offset="100%"/>
        </linearGradient>
    </defs>
    <path stroke="url(#a)"
          stroke-width="3"
          stroke-linejoin="round"
          stroke-linecap="round"
          d="M5 40 C 6.5 40, 8.5 40, 10 39.99 S 13.51 40.1, 15 39.96 S 18.59 39.52, 20 39.02 S 24.04 37.55, 25 36.4 S 28.53 26.77, 30 27.07 S 33.74 37.65, 35 38.47 S 38.55 33.99, 40 33.6 S 44.17 37.05, 45 35.8 S 49.46 20.05, 50 18.65 S 54.18 8.74, 55 10 S 59.43 32.6, 60 33.99 S 63.51 34.3, 65 34.46 S 68.52 34.82, 70 35.05 S 73.51 35.88, 75 36.01 S 78.5 36, 80 35.9 S 83.5 35.44, 85 35.35 S 88.5 35.23, 90 35.32 S 93.5 35.88, 95 35.98 S 98.5 36.03, 100 35.96 S 103.51 35.7, 105 35.53 S 108.51 34.95, 110 34.82 S 113.5 34.75, 115 34.68 S 118.51 34.21, 120 34.35 S 123.52 35.41, 125 35.65 S 128.5 35.95, 130 35.96 S 133.5 35.67, 135 35.72 S 138.5 36.26, 140 36.32 S 143.5 36.08, 145 36.13 S 148.5 36.52, 150 36.63 S 153.5 36.82, 155 36.88 S 158.5 36.92, 160 37 S 163.5 37.32, 165 37.43 S 168.5 37.7, 170 37.72 S 173.5 37.53, 175 37.57 S 178.5 37.91, 180 37.96 S 183.5 37.88, 185 37.89 S 188.5 38, 190 38.06 S 193.5 38.28, 195 38.32 S 198.5 38.34, 200 38.36 S 203.5 38.41, 205 38.43"
          fill="none"/>
    <circle r="4" cx="5" cy="40" fill="#3023AE"/>
    <circle r="4" cx="205" cy="38.43" fill="#C86DD7"/>      
</svg>