<svg width="200" height="50" viewBox="0 0 210 50" xmlns="http://www.w3.org/2000/svg">
    <defs>
        <linearGradient x1="0%" y1="0%" x2="100%" y2="0%" id="a">
            <stop stop-color="#3023AE" offset="0%"/>
            <stop stop-color="#C86DD7" offset="100%"/>
        </linearGradient>
    </defs>
    <path stroke="url(#a)"
          stroke-width="3"
          stroke-linejoin="round"
          stroke-linecap="round"
          d="M5 40 C 6.5 40, 8.5 40, 10 39.99 S 13.51 40.1, 15 39.96 S 18.59 39.53, 20 39.03 S 24.03 37.58, 25 36.43 S 28.53 26.89, 30 27.19 S 33.74 37.67, 35 38.48 S 38.55 34.04, 40 33.66 S 44.16 37.08, 45 35.84 S 49.46 20.27, 50 18.87 S 54.18 8.75, 55 10 S 59.43 32.68, 60 34.07 S 63.51 34.37, 65 34.54 S 68.52 34.97, 70 35.19 S 73.5 35.92, 75 36.02 S 78.5 35.99, 80 35.89 S 83.5 35.44, 85 35.37 S 88.5 35.31, 90 35.41 S 93.5 35.94, 95 36.02 S 98.5 36.01, 100 35.93 S 103.51 35.63, 105 35.46 S 108.5 34.86, 110 34.77 S 113.5 34.94, 115 34.88 S 118.51 34.28, 120 34.4 S 123.52 35.48, 125 35.71 S 128.5 35.91, 130 35.92 S 133.5 35.72, 135 35.79 S 138.5 36.31, 140 36.37 S 143.5 36.16, 145 36.2 S 148.5 36.57, 150 36.67 S 153.5 36.84, 155 36.89 S 158.5 36.92, 160 37.01 S 163.5 37.39, 165 37.51 S 168.5 37.77, 170 37.78 S 173.5 37.51, 175 37.56 S 178.5 38.06, 180 38.1 S 183.5 37.87, 185 37.86 S 188.5 37.96, 190 38.04 S 193.5 38.34, 195 38.4 S 198.5 38.44, 200 38.44 S 203.5 38.43, 205 38.42"
          fill="none"/>
    <circle r="4" cx="5" cy="40" fill="#3023AE"/>
    <circle r="4" cx="205" cy="38.42" fill="#C86DD7"/>      
</svg>