<svg width="200" height="50" viewBox="0 0 210 50" xmlns="http://www.w3.org/2000/svg">
    <defs>
        <linearGradient x1="0%" y1="0%" x2="100%" y2="0%" id="a">
            <stop stop-color="#3023AE" offset="0%"/>
            <stop stop-color="#C86DD7" offset="100%"/>
        </linearGradient>
    </defs>
    <path stroke="url(#a)"
          stroke-width="3"
          stroke-linejoin="round"
          stroke-linecap="round"
          d="M5 40 C 6.5 40, 8.5 40, 10 40 S 13.5 40.07, 15 39.98 S 18.92 40.46, 20 39.42 S 23.5 30.32, 25 30.27 S 28.71 38.34, 30 39.11 S 33.52 36.47, 35 36.24 S 39.47 38.94, 40 37.54 S 43.52 10.27, 45 10 S 49.46 34.32, 50 35.72 S 53.51 35.9, 55 36.08 S 58.51 36.79, 60 36.93 S 63.5 37.1, 65 37.05 S 68.5 36.65, 70 36.59 S 73.5 36.58, 75 36.66 S 78.5 37.12, 80 37.13 S 83.51 36.9, 85 36.75 S 88.5 36.19, 90 36.1 S 93.5 36.09, 95 36.15 S 98.51 36.36, 100 36.49 S 103.5 36.98, 105 37.05 S 108.5 36.95, 110 36.99 S 113.5 37.25, 115 37.31 S 118.5 37.35, 120 37.42 S 123.5 37.71, 125 37.78 S 128.5 37.78, 130 37.87 S 133.5 38.29, 135 38.36 S 138.5 38.28, 140 38.32 S 143.5 38.58, 145 38.61 S 148.5 38.47, 150 38.49 S 153.5 38.69, 155 38.75 S 158.5 38.86, 160 38.89 S 163.5 38.91, 165 38.93 S 168.5 38.99, 170 39.03 S 173.5 39.13, 175 39.17 S 178.5 39.26, 180 39.28 S 183.5 39.33, 185 39.31 S 188.5 39.15, 190 39.16 S 193.5 39.31, 195 39.36 S 198.5 39.46, 200 39.47 S 203.5 39.46, 205 39.45"
          fill="none"/>
    <circle r="4" cx="5" cy="40" fill="#3023AE"/>
    <circle r="4" cx="205" cy="39.45" fill="#C86DD7"/>      
</svg>