<svg width="200" height="50" viewBox="0 0 210 50" xmlns="http://www.w3.org/2000/svg">
    <defs>
        <linearGradient x1="0%" y1="0%" x2="100%" y2="0%" id="a">
            <stop stop-color="#3023AE" offset="0%"/>
            <stop stop-color="#C86DD7" offset="100%"/>
        </linearGradient>
    </defs>
    <path stroke="url(#a)"
          stroke-width="3"
          stroke-linejoin="round"
          stroke-linecap="round"
          d="M5 40 C 6.5 40, 8.5 40, 10 40 S 13.5 40.07, 15 39.98 S 18.93 40.46, 20 39.41 S 23.5 30.2, 25 30.15 S 28.72 38.32, 30 39.1 S 33.52 36.43, 35 36.19 S 39.46 38.91, 40 37.51 S 43.53 10.29, 45 10 S 49.46 34.13, 50 35.53 S 53.51 35.84, 55 36.05 S 58.51 36.8, 60 36.93 S 63.5 36.98, 65 36.94 S 68.5 36.75, 70 36.69 S 73.5 36.51, 75 36.57 S 78.5 37.04, 80 37.08 S 83.51 36.97, 85 36.81 S 88.5 36.14, 90 36.04 S 93.5 36.1, 95 36.16 S 98.51 36.29, 100 36.42 S 103.5 36.98, 105 37.05 S 108.5 36.87, 110 36.91 S 113.5 37.25, 115 37.32 S 118.5 37.3, 120 37.36 S 123.5 37.64, 125 37.71 S 128.5 37.76, 130 37.84 S 133.5 38.14, 135 38.23 S 138.5 38.38, 140 38.42 S 143.5 38.5, 145 38.51 S 148.5 38.49, 150 38.51 S 153.5 38.58, 155 38.64 S 158.5 38.91, 160 38.94 S 163.5 38.83, 165 38.84 S 168.5 39, 170 39.04 S 173.5 39.04, 175 39.08 S 178.5 39.28, 180 39.31 S 183.5 39.29, 185 39.27 S 188.5 39.14, 190 39.15 S 193.5 39.28, 195 39.32 S 198.5 39.4, 200 39.43 S 203.5 39.48, 205 39.5"
          fill="none"/>
    <circle r="4" cx="5" cy="40" fill="#3023AE"/>
    <circle r="4" cx="205" cy="39.5" fill="#C86DD7"/>      
</svg>