<svg width="200" height="50" viewBox="0 0 210 50" xmlns="http://www.w3.org/2000/svg">
    <defs>
        <linearGradient x1="0%" y1="0%" x2="100%" y2="0%" id="a">
            <stop stop-color="#3023AE" offset="0%"/>
            <stop stop-color="#C86DD7" offset="100%"/>
        </linearGradient>
    </defs>
    <path stroke="url(#a)"
          stroke-width="3"
          stroke-linejoin="round"
          stroke-linecap="round"
          d="M5 40 C 6.5 40, 8.5 39.99, 10 39.99 S 13.51 40.11, 15 39.97 S 18.58 39.54, 20 39.06 S 24.01 37.71, 25 36.58 S 28.53 27.4, 30 27.69 S 33.73 37.75, 35 38.54 S 38.55 34.27, 40 33.9 S 44.14 37.23, 45 36 S 49.46 21.09, 50 19.69 S 54.16 8.76, 55 10 S 59.44 33.07, 60 34.46 S 63.51 34.49, 65 34.67 S 68.51 35.43, 70 35.64 S 73.5 36.03, 75 36.06 S 78.5 35.94, 80 35.86 S 83.5 35.55, 85 35.5 S 88.5 35.47, 90 35.55 S 93.5 35.96, 95 36.06 S 98.51 36.37, 100 36.24 S 103.52 35.41, 105 35.19 S 108.5 34.81, 110 34.76 S 113.5 34.8, 115 34.84 S 118.51 34.86, 120 35.03 S 123.51 35.86, 125 36.01 S 128.5 36, 130 36.02 S 133.5 36.08, 135 36.13 S 138.5 36.29, 140 36.33 S 143.5 36.33, 145 36.41 S 148.5 36.76, 150 36.85 S 153.5 36.94, 155 37.02 S 158.5 37.3, 160 37.41 S 163.5 37.73, 165 37.78 S 168.5 37.69, 170 37.72 S 173.5 37.9, 175 37.95 S 178.5 38.03, 180 38.03 S 183.5 37.94, 185 37.98 S 188.5 38.24, 190 38.32 S 193.5 38.49, 195 38.5 S 198.5 38.42, 200 38.42 S 203.5 38.49, 205 38.52"
          fill="none"/>
    <circle r="4" cx="5" cy="40" fill="#3023AE"/>
    <circle r="4" cx="205" cy="38.52" fill="#C86DD7"/>      
</svg>