<svg width="200" height="50" viewBox="0 0 210 50" xmlns="http://www.w3.org/2000/svg">
    <defs>
        <linearGradient x1="0%" y1="0%" x2="100%" y2="0%" id="a">
            <stop stop-color="#3023AE" offset="0%"/>
            <stop stop-color="#C86DD7" offset="100%"/>
        </linearGradient>
    </defs>
    <path stroke="url(#a)"
          stroke-width="3"
          stroke-linejoin="round"
          stroke-linecap="round"
          d="M5 40 C 6.5 40, 8.5 40, 10 40 S 13.5 40.07, 15 39.98 S 18.54 39.7, 20 39.37 S 23.81 38.6, 25 37.69 S 28.51 31.49, 30 31.69 S 33.62 38.44, 35 39.02 S 38.52 36.13, 40 35.88 S 44.46 38.7, 45 37.3 S 48.53 10.3, 50 10 S 54.47 33.86, 55 35.26 S 58.51 36.06, 60 36.24 S 63.51 36.31, 65 36.45 S 68.51 37.06, 70 37.19 S 73.5 37.32, 75 37.29 S 78.5 37.07, 80 37.01 S 83.5 36.9, 85 36.91 S 88.5 37.03, 90 37.09 S 93.5 37.33, 95 37.34 S 98.5 37.23, 100 37.13 S 103.5 36.77, 105 36.65 S 108.5 36.41, 110 36.36 S 113.5 36.2, 115 36.3 S 118.51 36.91, 120 37.06 S 123.5 37.3, 125 37.31 S 128.5 37.09, 130 37.13 S 133.5 37.53, 135 37.58 S 138.5 37.42, 140 37.44 S 143.5 37.62, 145 37.71 S 148.5 37.98, 150 38.03 S 153.5 37.99, 155 38.04 S 158.5 38.29, 160 38.36 S 163.5 38.53, 165 38.54 S 168.5 38.42, 170 38.45 S 173.5 38.71, 175 38.73 S 178.5 38.55, 180 38.56 S 183.5 38.74, 185 38.81 S 188.5 39.01, 190 39.02 S 193.5 38.87, 195 38.86 S 198.5 38.91, 200 38.95 S 203.5 39.09, 205 39.15"
          fill="none"/>
    <circle r="4" cx="5" cy="40" fill="#3023AE"/>
    <circle r="4" cx="205" cy="39.15" fill="#C86DD7"/>      
</svg>