<svg width="200" height="50" viewBox="0 0 210 50" xmlns="http://www.w3.org/2000/svg">
    <defs>
        <linearGradient x1="0%" y1="0%" x2="100%" y2="0%" id="a">
            <stop stop-color="#3023AE" offset="0%"/>
            <stop stop-color="#C86DD7" offset="100%"/>
        </linearGradient>
    </defs>
    <path stroke="url(#a)"
          stroke-width="3"
          stroke-linejoin="round"
          stroke-linecap="round"
          d="M5 40 C 6.5 40, 8.5 40, 10 40 S 13.5 40.08, 15 39.98 S 18.54 39.7, 20 39.36 S 23.81 38.59, 25 37.67 S 28.51 31.41, 30 31.61 S 33.62 38.43, 35 39.01 S 38.52 36.1, 40 35.84 S 44.46 38.68, 45 37.28 S 48.53 10.32, 50 10 S 54.47 33.71, 55 35.11 S 58.51 36.06, 60 36.25 S 63.51 36.28, 65 36.41 S 68.5 37.03, 70 37.15 S 73.5 37.22, 75 37.22 S 78.5 37.19, 80 37.14 S 83.5 36.91, 85 36.89 S 88.5 36.92, 90 36.98 S 93.5 37.25, 95 37.3 S 98.5 37.38, 100 37.29 S 103.51 36.87, 105 36.71 S 108.5 36.3, 110 36.25 S 113.5 36.28, 115 36.37 S 118.51 36.7, 120 36.84 S 123.5 37.26, 125 37.3 S 128.5 37.1, 130 37.13 S 133.5 37.48, 135 37.52 S 138.5 37.39, 140 37.42 S 143.5 37.67, 145 37.74 S 148.5 37.87, 150 37.91 S 153.5 37.95, 155 38.01 S 158.5 38.22, 160 38.29 S 163.5 38.47, 165 38.49 S 168.5 38.41, 170 38.44 S 173.5 38.64, 175 38.67 S 178.5 38.62, 180 38.63 S 183.5 38.65, 185 38.71 S 188.5 38.97, 190 39 S 193.5 38.93, 195 38.92 S 198.5 38.9, 200 38.92 S 203.5 39.03, 205 39.08"
          fill="none"/>
    <circle r="4" cx="5" cy="40" fill="#3023AE"/>
    <circle r="4" cx="205" cy="39.08" fill="#C86DD7"/>      
</svg>