<svg width="200" height="50" viewBox="0 0 210 50" xmlns="http://www.w3.org/2000/svg">
    <defs>
        <linearGradient x1="0%" y1="0%" x2="100%" y2="0%" id="a">
            <stop stop-color="#3023AE" offset="0%"/>
            <stop stop-color="#C86DD7" offset="100%"/>
        </linearGradient>
    </defs>
    <path stroke="url(#a)"
          stroke-width="3"
          stroke-linejoin="round"
          stroke-linecap="round"
          d="M5 40 C 6.5 40, 8.5 39.99, 10 39.99 S 13.51 40.11, 15 39.97 S 18.58 39.53, 20 39.03 S 24.03 37.6, 25 36.46 S 28.53 26.97, 30 27.27 S 33.74 37.68, 35 38.49 S 38.55 34.08, 40 33.7 S 44.16 37.11, 45 35.87 S 49.46 20.41, 50 19.01 S 54.17 8.75, 55 10 S 59.43 32.69, 60 34.08 S 63.51 34.39, 65 34.58 S 68.52 35.16, 70 35.37 S 73.5 35.94, 75 36.02 S 78.5 35.99, 80 35.89 S 83.5 35.46, 85 35.38 S 88.5 35.28, 90 35.37 S 93.5 35.91, 95 36.01 S 98.5 36.15, 100 36.06 S 103.52 35.64, 105 35.42 S 108.5 34.68, 110 34.59 S 113.5 34.83, 115 34.84 S 118.51 34.53, 120 34.68 S 123.51 35.65, 125 35.83 S 128.5 35.91, 130 35.92 S 133.5 35.82, 135 35.89 S 138.5 36.37, 140 36.41 S 143.5 36.13, 145 36.15 S 148.51 36.43, 150 36.57 S 153.5 37.01, 155 37.08 S 158.5 36.94, 160 37.01 S 163.5 37.42, 165 37.54 S 168.5 37.78, 170 37.79 S 173.5 37.61, 175 37.64 S 178.5 37.95, 180 38 S 183.5 37.95, 185 37.96 S 188.5 38, 190 38.07 S 193.5 38.36, 195 38.42 S 198.5 38.48, 200 38.47 S 203.5 38.39, 205 38.35"
          fill="none"/>
    <circle r="4" cx="5" cy="40" fill="#3023AE"/>
    <circle r="4" cx="205" cy="38.35" fill="#C86DD7"/>      
</svg>