<svg width="200" height="50" viewBox="0 0 210 50" xmlns="http://www.w3.org/2000/svg">
    <defs>
        <linearGradient x1="0%" y1="0%" x2="100%" y2="0%" id="a">
            <stop stop-color="#3023AE" offset="0%"/>
            <stop stop-color="#C86DD7" offset="100%"/>
        </linearGradient>
    </defs>
    <path stroke="url(#a)"
          stroke-width="3"
          stroke-linejoin="round"
          stroke-linecap="round"
          d="M5 40 C 6.5 40, 8.5 39.99, 10 39.99 S 13.51 40.11, 15 39.97 S 18.58 39.53, 20 39.04 S 24.02 37.62, 25 36.48 S 28.53 27.07, 30 27.37 S 33.74 37.69, 35 38.5 S 38.55 34.13, 40 33.75 S 44.15 37.14, 45 35.9 S 49.46 20.57, 50 19.17 S 54.17 8.75, 55 10 S 59.43 32.8, 60 34.19 S 63.51 34.34, 65 34.53 S 68.52 35.25, 70 35.47 S 73.5 35.93, 75 36 S 78.5 36, 80 35.92 S 83.5 35.53, 85 35.45 S 88.5 35.28, 90 35.37 S 93.5 35.98, 95 36.08 S 98.5 36.12, 100 36.01 S 103.51 35.56, 105 35.35 S 108.5 34.67, 110 34.61 S 113.5 34.89, 115 34.93 S 118.51 34.74, 120 34.87 S 123.51 35.62, 125 35.77 S 128.5 35.86, 130 35.87 S 133.5 35.74, 135 35.83 S 138.5 36.44, 140 36.5 S 143.5 36.21, 145 36.23 S 148.5 36.52, 150 36.64 S 153.5 36.95, 155 37.02 S 158.5 37.05, 160 37.14 S 163.5 37.51, 165 37.61 S 168.5 37.78, 170 37.78 S 173.5 37.6, 175 37.64 S 178.5 38.04, 180 38.08 S 183.5 37.9, 185 37.91 S 188.5 38.07, 190 38.15 S 193.5 38.42, 195 38.46 S 198.5 38.42, 200 38.41 S 203.5 38.4, 205 38.39"
          fill="none"/>
    <circle r="4" cx="5" cy="40" fill="#3023AE"/>
    <circle r="4" cx="205" cy="38.39" fill="#C86DD7"/>      
</svg>