<svg width="200" height="50" viewBox="0 0 210 50" xmlns="http://www.w3.org/2000/svg">
    <defs>
        <linearGradient x1="0%" y1="0%" x2="100%" y2="0%" id="a">
            <stop stop-color="#3023AE" offset="0%"/>
            <stop stop-color="#C86DD7" offset="100%"/>
        </linearGradient>
    </defs>
    <path stroke="url(#a)"
          stroke-width="3"
          stroke-linejoin="round"
          stroke-linecap="round"
          d="M5 40 C 6.5 40, 8.5 40, 10 40 S 13.5 40.07, 15 39.98 S 18.54 39.71, 20 39.39 S 23.79 38.66, 25 37.77 S 28.51 31.8, 30 31.99 S 33.61 38.49, 35 39.05 S 38.52 36.27, 40 36.03 S 44.46 38.81, 45 37.41 S 48.53 10.29, 50 10 S 54.47 34.06, 55 35.46 S 58.51 36.28, 60 36.44 S 63.51 36.42, 65 36.55 S 68.5 37.23, 70 37.34 S 73.5 37.32, 75 37.26 S 78.5 36.98, 80 36.93 S 83.5 36.83, 85 36.9 S 88.5 37.3, 90 37.37 S 93.5 37.45, 95 37.35 S 98.51 36.84, 100 36.7 S 103.5 36.48, 105 36.44 S 108.5 36.36, 110 36.41 S 113.51 36.63, 115 36.77 S 118.5 37.27, 120 37.33 S 123.5 37.16, 125 37.18 S 128.5 37.43, 130 37.47 S 133.5 37.44, 135 37.48 S 138.5 37.66, 140 37.73 S 143.5 37.94, 145 37.98 S 148.5 37.97, 150 38.03 S 153.5 38.29, 155 38.37 S 158.5 38.54, 160 38.55 S 163.5 38.43, 165 38.46 S 168.5 38.74, 170 38.76 S 173.5 38.6, 175 38.61 S 178.5 38.74, 180 38.8 S 183.5 38.98, 185 39 S 188.5 38.94, 190 38.95 S 193.5 39.01, 195 39.04 S 198.5 39.11, 200 39.14 S 203.5 39.2, 205 39.23"
          fill="none"/>
    <circle r="4" cx="5" cy="40" fill="#3023AE"/>
    <circle r="4" cx="205" cy="39.23" fill="#C86DD7"/>      
</svg>