<svg width="200" height="50" viewBox="0 0 210 50" xmlns="http://www.w3.org/2000/svg">
    <defs>
        <linearGradient x1="0%" y1="0%" x2="100%" y2="0%" id="a">
            <stop stop-color="#3023AE" offset="0%"/>
            <stop stop-color="#C86DD7" offset="100%"/>
        </linearGradient>
    </defs>
    <path stroke="url(#a)"
          stroke-width="3"
          stroke-linejoin="round"
          stroke-linecap="round"
          d="M5 40 C 5.25 38.52, 9.52 11.42, 10 10 S 14.14 9.27, 15 10.5 S 19.47 22.89, 20 24.29 S 23.52 37.26, 25 37.05 S 28.6 23.39, 30 22.86 S 33.99 32.15, 35 33.26 S 38.5 33.76, 40 33.78 S 43.5 33.3, 45 33.37 S 48.5 34.14, 50 34.24 S 53.5 34.08, 55 34.05 S 58.5 34.09, 60 34.01 S 63.5 33.64, 65 33.54 S 68.5 33.23, 70 33.31 S 73.5 34.06, 75 34.09 S 78.5 33.51, 80 33.51 S 83.5 34.12, 85 34.08 S 88.51 33.4, 90 33.22 S 93.5 32.92, 95 32.89 S 98.52 33.23, 100 33.02 S 103.5 31.5, 105 31.46 S 108.51 32.58, 110 32.78 S 113.51 32.91, 115 32.78 S 118.5 32, 120 31.94 S 123.5 32.4, 125 32.41 S 128.5 31.98, 130 32.01 S 133.51 32.39, 135 32.58 S 138.5 33.15, 140 33.27 S 143.51 33.23, 145 33.39 S 148.5 34.4, 150 34.33 S 153.5 32.96, 155 32.92 S 158.51 33.86, 160 34.07 S 163.5 34.29, 165 34.31 S 168.5 34.15, 170 34.22 S 173.5 34.75, 175 34.76 S 178.51 34.43, 180 34.28 S 183.5 33.67, 185 33.75 S 188.5 34.72, 190 34.82 S 193.5 34.47, 195 34.43 S 198.5 34.61, 200 34.58 S 203.5 34.36, 205 34.26"
          fill="none"/>
    <circle r="4" cx="5" cy="40" fill="#3023AE"/>
    <circle r="4" cx="205" cy="34.26" fill="#C86DD7"/>      
</svg>