<svg width="200" height="50" viewBox="0 0 210 50" xmlns="http://www.w3.org/2000/svg">
    <defs>
        <linearGradient x1="0%" y1="0%" x2="100%" y2="0%" id="a">
            <stop stop-color="#3023AE" offset="0%"/>
            <stop stop-color="#C86DD7" offset="100%"/>
        </linearGradient>
    </defs>
    <path stroke="url(#a)"
          stroke-width="3"
          stroke-linejoin="round"
          stroke-linecap="round"
          d="M5 40 C 5.97 38.86, 8.62 34.68, 10 34.1 S 13.53 35.5, 15 35.8 S 18.52 35.92, 20 36.16 S 23.51 37.6, 25 37.41 S 28.87 35.86, 30 34.88 S 33.52 29.03, 35 28.76 S 38.66 32.38, 40 33.05 S 43.55 33.32, 45 33.72 S 48.54 35.48, 50 35.83 S 53.51 36.3, 55 36.11 S 58.52 34.82, 60 34.58 S 63.5 34.43, 65 34.46 S 68.52 34.53, 70 34.75 S 73.53 35.66, 75 35.97 S 78.5 36.82, 80 36.86 S 83.51 36.43, 85 36.22 S 88.5 35.56, 90 35.48 S 93.5 35.8, 95 35.69 S 98.5 34.63, 100 34.74 S 103.51 36.56, 105 36.44 S 108.52 34.15, 110 33.92 S 113.51 35.02, 115 34.89 S 118.53 33.35, 120 33.05 S 123.51 33, 125 32.86 S 128.55 31.69, 130 32.08 S 133.54 35.16, 135 35.52 S 138.53 34.83, 140 34.54 S 143.5 33.58, 145 33.54 S 148.52 34.51, 150 34.3 S 153.51 32.27, 155 32.11 S 158.52 33, 160 33.26 S 163.54 34.22, 165 33.86 S 169.42 32.17, 170 30.79 S 173.5 9.98, 175 10 S 179.3 29.6, 180 30.93 S 183.5 28.98, 185 28.89 S 188.51 30.56, 190 30.35 S 193.5 27.52, 195 27.47 S 198.54 30.38, 200 30.03 S 203.94 26.1, 205 25.04"
          fill="none"/>
    <circle r="4" cx="5" cy="40" fill="#3023AE"/>
    <circle r="4" cx="205" cy="25.04" fill="#C86DD7"/>      
</svg>