<svg width="200" height="50" viewBox="0 0 210 50" xmlns="http://www.w3.org/2000/svg">
    <defs>
        <linearGradient x1="0%" y1="0%" x2="100%" y2="0%" id="a">
            <stop stop-color="#3023AE" offset="0%"/>
            <stop stop-color="#C86DD7" offset="100%"/>
        </linearGradient>
    </defs>
    <path stroke="url(#a)"
          stroke-width="3"
          stroke-linejoin="round"
          stroke-linecap="round"
          d="M5 40 C 5.25 38.52, 8.51 10.18, 10 10 S 14.51 37.38, 15 38.8 S 18.51 39.01, 20 39.16 S 23.5 39.79, 25 39.82 S 28.52 39.64, 30 39.38 S 33.9 39.11, 35 38.09 S 38.53 30.34, 40 30.03 S 43.69 35.23, 45 35.97 S 48.53 35.35, 50 35.66 S 53.52 37.81, 55 38.05 S 58.5 37.34, 60 37.25 S 63.51 37.28, 65 37.43 S 68.51 38.1, 70 38.27 S 73.5 38.51, 75 38.54 S 78.5 38.43, 80 38.45 S 83.5 38.6, 85 38.67 S 88.5 38.95, 90 38.89 S 93.5 38.34, 95 38.27 S 98.51 38.58, 100 38.45 S 103.5 37.44, 105 37.39 S 108.5 38.06, 110 38.14 S 113.5 38.01, 115 37.92 S 118.5 37.45, 120 37.52 S 123.51 38.53, 125 38.36 S 129.01 37.5, 130 36.37 S 133.53 27.19, 135 26.88 S 138.8 33.38, 140 34.28 S 143.52 34.07, 145 34.33 S 148.53 35.75, 150 36.06 S 153.51 36.61, 155 36.45 S 158.5 35.04, 160 34.99 S 163.53 35.83, 165 36.14 S 168.54 37.43, 170 37.08 S 173.5 33.86, 175 33.75 S 178.54 36.03, 180 36.37 S 183.5 36.08, 185 36.06 S 188.5 36.27, 190 36.23 S 193.51 35.92, 195 35.79 S 198.5 35.34, 200 35.35 S 203.51 35.72, 205 35.88"
          fill="none"/>
    <circle r="4" cx="5" cy="40" fill="#3023AE"/>
    <circle r="4" cx="205" cy="35.88" fill="#C86DD7"/>      
</svg>