<svg width="200" height="50" viewBox="0 0 210 50" xmlns="http://www.w3.org/2000/svg">
    <defs>
        <linearGradient x1="0%" y1="0%" x2="100%" y2="0%" id="a">
            <stop stop-color="#3023AE" offset="0%"/>
            <stop stop-color="#C86DD7" offset="100%"/>
        </linearGradient>
    </defs>
    <path stroke="url(#a)"
          stroke-width="3"
          stroke-linejoin="round"
          stroke-linecap="round"
          d="M5 40 C 5.25 38.52, 8.56 10.4, 10 10 S 14.52 35.78, 15 37.2 S 18.7 40.51, 20 39.75 S 23.59 31.86, 25 31.36 S 28.51 36, 30 36.19 S 33.52 32.86, 35 32.63 S 38.5 34.7, 40 34.66 S 43.54 32.7, 45 32.37 S 48.55 32.74, 50 32.37 S 53.57 29.39, 55 29.83 S 58.55 35.05, 60 35.42 S 63.5 32.48, 65 32.37 S 68.55 34.29, 70 34.66 S 73.5 34.84, 75 34.92 S 78.52 34.94, 80 35.17 S 83.51 36.29, 85 36.44 S 88.5 36.15, 90 36.19 S 93.54 37.02, 95 36.69 S 98.66 34.58, 100 33.9 S 103.53 31.91, 105 31.61 S 108.57 31.42, 110 31.86 S 113.52 34.43, 115 34.66 S 118.5 33.5, 120 33.39 S 123.57 33.46, 125 33.9 S 128.59 35.94, 130 36.44 S 133.5 37.54, 135 37.46 S 138.51 36.08, 140 35.93 S 143.5 36.44, 145 36.44 S 148.78 36.8, 150 35.93 S 153.73 30.12, 155 29.32 S 158.52 29.84, 160 29.58 S 163.56 27.14, 165 27.54 S 168.72 31.59, 170 32.37 S 173.5 33.75, 175 33.64 S 178.5 31.57, 180 31.61 S 183.65 33.25, 185 33.9 S 188.5 36.33, 190 36.44 S 193.56 35.06, 195 34.66 S 198.5 33.6, 200 33.64 S 203.55 34.55, 205 34.92"
          fill="none"/>
    <circle r="4" cx="5" cy="40" fill="#3023AE"/>
    <circle r="4" cx="205" cy="34.92" fill="#C86DD7"/>      
</svg>