<svg width="200" height="50" viewBox="0 0 210 50" xmlns="http://www.w3.org/2000/svg">
    <defs>
        <linearGradient x1="0%" y1="0%" x2="100%" y2="0%" id="a">
            <stop stop-color="#3023AE" offset="0%"/>
            <stop stop-color="#C86DD7" offset="100%"/>
        </linearGradient>
    </defs>
    <path stroke="url(#a)"
          stroke-width="3"
          stroke-linejoin="round"
          stroke-linecap="round"
          d="M5 40 C 5.25 38.52, 8.51 10.18, 10 10 S 14.45 37.38, 15 38.78 S 18.64 36.24, 20 35.61 S 23.6 34.7, 25 34.15 S 28.51 31.53, 30 31.71 S 33.5 35.37, 35 35.37 S 38.61 32.28, 40 31.71 S 43.51 31.37, 45 31.22 S 48.55 30.34, 50 30.73 S 53.5 33.79, 55 33.9 S 58.52 31.24, 60 31.46 S 63.57 34.92, 65 35.37 S 68.5 34.52, 70 34.63 S 73.51 35.92, 75 36.1 S 78.5 35.81, 80 35.85 S 83.52 36.59, 85 36.34 S 88.79 35.04, 90 34.15 S 93.53 29.31, 95 29.02 S 98.71 31.44, 100 32.2 S 103.5 34.81, 105 34.88 S 108.5 32.57, 110 32.68 S 113.63 35.01, 115 35.61 S 118.5 37.18, 120 37.07 S 123.5 34.99, 125 34.88 S 128.51 36.2, 130 36.34 S 134.1 37.05, 135 35.85 S 138.69 23.66, 140 22.93 S 143.78 29.37, 145 30.24 S 148.55 29.61, 150 30 S 153.54 32.61, 155 32.93 S 158.51 32.02, 160 32.2 S 163.52 33.93, 165 34.15 S 168.5 33.55, 170 33.66 S 173.5 34.84, 175 34.88 S 178.5 33.79, 180 33.9 S 183.5 35.61, 185 35.61 S 188.5 33.97, 190 33.9 S 193.52 34.87, 195 35.12 S 198.64 36.24, 200 35.61 S 203.95 31.56, 205 30.49"
          fill="none"/>
    <circle r="4" cx="5" cy="40" fill="#3023AE"/>
    <circle r="4" cx="205" cy="30.490000000000002" fill="#C86DD7"/>      
</svg>