<svg width="200" height="50" viewBox="0 0 210 50" xmlns="http://www.w3.org/2000/svg">
    <defs>
        <linearGradient x1="0%" y1="0%" x2="100%" y2="0%" id="a">
            <stop stop-color="#3023AE" offset="0%"/>
            <stop stop-color="#C86DD7" offset="100%"/>
        </linearGradient>
    </defs>
    <path stroke="url(#a)"
          stroke-width="3"
          stroke-linejoin="round"
          stroke-linecap="round"
          d="M5 40 C 5.57 38.61, 8.5 27.87, 10 27.79 S 14.04 38.28, 15 39.44 S 18.5 39.81, 20 39.89 S 23.5 39.97, 25 39.98 S 28.5 40.08, 30 39.98 S 33.51 39.44, 35 39.29 S 38.5 39.03, 40 38.99 S 43.5 38.98, 45 39 S 48.5 39.03, 50 39.1 S 53.5 39.38, 55 39.44 S 58.5 39.47, 60 39.5 S 63.5 39.63, 65 39.62 S 68.5 39.47, 70 39.46 S 73.5 39.59, 75 39.56 S 78.5 39.23, 80 39.23 S 83.5 39.56, 85 39.58 S 88.5 39.42, 90 39.39 S 93.5 39.37, 95 39.39 S 98.5 39.53, 100 39.52 S 103.5 39.34, 105 39.35 S 108.5 39.57, 110 39.58 S 113.5 39.4, 115 39.41 S 119.52 41.06, 120 39.64 S 123.5 10.09, 125 10 S 129.51 37.6, 130 39.02 S 133.5 39.12, 135 39.2 S 138.5 39.55, 140 39.56 S 143.5 39.26, 145 39.25 S 148.5 39.42, 150 39.46 S 153.5 39.52, 155 39.52 S 158.5 39.43, 160 39.43 S 163.5 39.51, 165 39.52 S 168.5 39.51, 170 39.5 S 173.5 39.45, 175 39.44 S 178.5 39.46, 180 39.46 S 183.5 39.38, 185 39.41 S 188.5 39.65, 190 39.67 S 193.5 39.57, 195 39.54 S 198.5 39.51, 200 39.5 S 203.5 39.5, 205 39.5"
          fill="none"/>
    <circle r="4" cx="5" cy="40" fill="#3023AE"/>
    <circle r="4" cx="205" cy="39.5" fill="#C86DD7"/>      
</svg>