<svg width="200" height="50" viewBox="0 0 210 50" xmlns="http://www.w3.org/2000/svg">
    <defs>
        <linearGradient x1="0%" y1="0%" x2="100%" y2="0%" id="a">
            <stop stop-color="#3023AE" offset="0%"/>
            <stop stop-color="#C86DD7" offset="100%"/>
        </linearGradient>
    </defs>
    <path stroke="url(#a)"
          stroke-width="3"
          stroke-linejoin="round"
          stroke-linecap="round"
          d="M5 40 C 6.2 39.1, 8.6 36.78, 10 36.25 S 13.5 36.25, 15 36.25 S 18.5 36.25, 20 36.25 S 23.5 36.25, 25 36.25 S 28.5 36.25, 30 36.25 S 33.5 36.25, 35 36.25 S 38.5 36.25, 40 36.25 S 43.5 36.25, 45 36.25 S 48.5 36.25, 50 36.25 S 53.6 36.78, 55 36.25 S 59.47 33.9, 60 32.5 S 63.6 9.47, 65 10 S 69.39 34.88, 70 36.25 S 73.6 33.03, 75 32.5 S 78.6 31.97, 80 32.5 S 83.6 35.72, 85 36.25 S 88.5 36.25, 90 36.25 S 93.5 36.25, 95 36.25 S 98.5 36.25, 100 36.25 S 103.5 36.25, 105 36.25 S 108.5 36.25, 110 36.25 S 113.6 36.78, 115 36.25 S 119 33.62, 120 32.5 S 123.6 25.53, 125 25 S 129 27.63, 130 28.75 S 133.8 35.35, 135 36.25 S 138.5 36.25, 140 36.25 S 143.5 36.25, 145 36.25 S 148.5 36.25, 150 36.25 S 153.5 36.25, 155 36.25 S 158.6 36.78, 160 36.25 S 164.17 33.75, 165 32.5 S 168.6 20.72, 170 21.25 S 174.17 35, 175 36.25 S 178.5 36.25, 180 36.25 S 183.5 36.25, 185 36.25 S 188.8 37.15, 190 36.25 S 193.5 28.75, 195 28.75 S 199.17 35, 200 36.25"
          fill="none"/>
    <circle r="4" cx="5" cy="40" fill="#3023AE"/>
    <circle r="4" cx="200" cy="36.25" fill="#C86DD7"/>      
</svg>