<svg width="200" height="50" viewBox="0 0 210 50" xmlns="http://www.w3.org/2000/svg">
    <defs>
        <linearGradient x1="0%" y1="0%" x2="100%" y2="0%" id="a">
            <stop stop-color="#3023AE" offset="0%"/>
            <stop stop-color="#C86DD7" offset="100%"/>
        </linearGradient>
    </defs>
    <path stroke="url(#a)"
          stroke-width="3"
          stroke-linejoin="round"
          stroke-linecap="round"
          d="M5 40 C 6.48 39.76, 8.5 39.31, 10 39.19 S 13.5 39.19, 15 39.19 S 18.5 39.19, 20 39.19 S 23.5 39.19, 25 39.19 S 28.5 39.19, 30 39.19 S 33.5 39.19, 35 39.19 S 39.36 40.55, 40 39.19 S 44.08 19.3, 45 18.11 S 49.15 24.98, 50 26.22 S 53.83 31.76, 55 32.7 S 58.52 34.08, 60 34.32 S 63.65 34.98, 65 34.32 S 68.52 29.22, 70 29.46 S 73.61 36.51, 75 35.95 S 78.57 25.87, 80 25.41 S 83.88 31.7, 85 32.7 S 88.65 34.98, 90 34.32 S 93.74 28.66, 95 27.84 S 98.65 28.5, 100 27.84 S 103.7 23.71, 105 22.97 S 108.5 22.28, 110 22.16 S 113.88 21.16, 115 22.16 S 118.74 30.26, 120 31.08 S 123.74 29.47, 125 28.65 S 128.65 25.25, 130 24.59 S 134.15 25.02, 135 23.78 S 138.5 10, 140 10 S 144.18 22.52, 145 23.78 S 148.5 25.29, 150 25.41 S 153.52 24.83, 155 24.59 S 158.61 24.34, 160 23.78 S 163.5 20.42, 165 20.54 S 168.54 24.94, 170 24.59 S 173.7 17.37, 175 18.11 S 178.5 30.39, 180 30.27 S 183.74 18.12, 185 17.3 S 188.7 23.04, 190 23.78 S 193.5 23.09, 195 22.97 S 198.5 22.97, 200 22.97 S 203.5 22.97, 205 22.97"
          fill="none"/>
    <circle r="4" cx="5" cy="40" fill="#3023AE"/>
    <circle r="4" cx="205" cy="22.97" fill="#C86DD7"/>      
</svg>