<svg width="200" height="50" viewBox="0 0 210 50" xmlns="http://www.w3.org/2000/svg">
    <defs>
        <linearGradient x1="0%" y1="0%" x2="100%" y2="0%" id="a">
            <stop stop-color="#3023AE" offset="0%"/>
            <stop stop-color="#C86DD7" offset="100%"/>
        </linearGradient>
    </defs>
    <path stroke="url(#a)"
          stroke-width="3"
          stroke-linejoin="round"
          stroke-linecap="round"
          d="M5 40 C 5.67 38.66, 9 31.11, 10 30 S 13.63 28.28, 15 28.89 S 18.69 33.71, 20 34.44 S 23.54 34.11, 25 34.44 S 28.5 36.67, 30 36.67 S 33.51 34.61, 35 34.44 S 38.54 35.23, 40 35.56 S 43.51 36.5, 45 36.67 S 48.54 36.34, 50 36.67 S 53.5 38.89, 55 38.89 S 58.51 36.84, 60 36.67 S 63.58 38.26, 65 37.78 S 68.51 33.16, 70 33.33 S 73.54 38.56, 75 38.89 S 78.58 36.03, 80 35.56 S 83.54 35.89, 85 35.56 S 88.54 33, 90 33.33 S 93.58 37.3, 95 37.78 S 98.69 37.4, 100 36.67 S 103.54 31.89, 105 32.22 S 108.75 38.06, 110 38.89 S 113.5 38.89, 115 38.89 S 118.5 38.89, 120 38.89 S 123.51 39.06, 125 38.89 S 128.5 37.78, 130 37.78 S 133.51 38.72, 135 38.89 S 138.5 38.89, 140 38.89 S 143.51 39.06, 145 38.89 S 148.54 38.11, 150 37.78 S 154.49 38.08, 155 36.67 S 158.82 10.92, 160 10 S 164.41 27.51, 165 28.89 S 168.69 32.6, 170 33.33 S 173.51 34.27, 175 34.44 S 178.51 34.27, 180 34.44 S 183.63 36.17, 185 35.56 S 188.54 29.67, 190 30 S 193.75 36.95, 195 37.78 S 198.5 36.67, 200 36.67 S 203.54 37.45, 205 37.78"
          fill="none"/>
    <circle r="4" cx="5" cy="40" fill="#3023AE"/>
    <circle r="4" cx="205" cy="37.78" fill="#C86DD7"/>      
</svg>