<svg width="200" height="50" viewBox="0 0 210 50" xmlns="http://www.w3.org/2000/svg">
    <defs>
        <linearGradient x1="0%" y1="0%" x2="100%" y2="0%" id="a">
            <stop stop-color="#3023AE" offset="0%"/>
            <stop stop-color="#C86DD7" offset="100%"/>
        </linearGradient>
    </defs>
    <path stroke="url(#a)"
          stroke-width="3"
          stroke-linejoin="round"
          stroke-linecap="round"
          d="M5 40 C 5.26 38.52, 8.53 11.93, 10 11.65 S 14.47 36.72, 15 38.12 S 18.51 38.19, 20 38.01 S 23.5 36.96, 25 36.91 S 28.51 37.52, 30 37.68 S 33.51 37.81, 35 38.01 S 38.52 38.75, 40 39.01 S 43.5 39.68, 45 39.78 S 48.64 40.31, 50 39.67 S 53.67 35.74, 55 35.04 S 58.51 34.24, 60 34.37 S 63.52 35.67, 65 35.92 S 68.5 36.08, 70 36.03 S 73.54 35.94, 75 35.59 S 78.5 33.55, 80 33.6 S 83.5 35.8, 85 35.92 S 88.51 34.5, 90 34.37 S 94.43 36.43, 95 35.04 S 98.54 10.32, 100 10 S 104.32 31.49, 105 32.83 S 108.54 29.95, 110 29.63 S 113.52 30.37, 115 30.62 S 118.55 30.91, 120 31.29 S 123.51 33.45, 125 33.27 S 128.5 30.09, 130 30.07 S 133.51 33.31, 135 33.16 S 138.77 29.94, 140 29.08 S 143.5 26.21, 145 26.21 S 148.62 28.49, 150 29.08 S 153.72 31.3, 155 30.51 S 158.52 22.65, 160 22.9 S 163.71 31.4, 165 32.17 S 168.54 29.21, 170 28.86 S 173.54 30.09, 175 29.74 S 178.53 26.74, 180 26.43 S 183.5 27.7, 185 27.65 S 188.69 26.82, 190 26.1 S 193.7 22.89, 195 22.13 S 198.69 19.54, 200 20.26 S 204.16 26.41, 205 27.65"
          fill="none"/>
    <circle r="4" cx="5" cy="40" fill="#3023AE"/>
    <circle r="4" cx="205" cy="27.65" fill="#C86DD7"/>      
</svg>