<svg width="200" height="50" viewBox="0 0 210 50" xmlns="http://www.w3.org/2000/svg">
    <defs>
        <linearGradient x1="0%" y1="0%" x2="100%" y2="0%" id="a">
            <stop stop-color="#3023AE" offset="0%"/>
            <stop stop-color="#C86DD7" offset="100%"/>
        </linearGradient>
    </defs>
    <path stroke="url(#a)"
          stroke-width="3"
          stroke-linejoin="round"
          stroke-linecap="round"
          d="M5 40 C 5.25 38.52, 8.52 10.27, 10 10 S 14.51 36.76, 15 38.18 S 18.5 39, 20 39.09 S 23.5 38.75, 25 38.79 S 28.51 39.25, 30 39.39 S 33.5 39.7, 35 39.7 S 38.5 39.39, 40 39.39 S 43.5 39.74, 45 39.7 S 48.51 39.27, 50 39.09 S 53.5 38.44, 55 38.48 S 58.52 39.61, 60 39.39 S 63.51 37.11, 65 36.97 S 68.52 38.21, 70 38.48 S 73.51 38.65, 75 38.79 S 78.5 39.3, 80 39.39 S 83.5 39.39, 85 39.39 S 88.5 39.34, 90 39.39 S 93.5 39.65, 95 39.7 S 98.5 39.79, 100 39.7 S 103.55 39.49, 105 39.09 S 108.5 37.06, 110 36.97 S 113.51 38.3, 115 38.48 S 118.5 38.09, 120 38.18 S 123.5 39.05, 125 39.09 S 128.87 39.47, 130 38.48 S 133.5 30.3, 135 30.3 S 138.82 37.55, 140 38.48 S 143.5 38.18, 145 38.18 S 148.5 38.39, 150 38.48 S 153.5 38.83, 155 38.79 S 158.5 38.27, 160 38.18 S 163.5 38.09, 165 38.18 S 168.5 38.83, 170 38.79 S 173.59 38.39, 175 37.88 S 178.52 35.38, 180 35.15 S 183.5 36.27, 185 36.36 S 188.52 35.49, 190 35.76 S 193.53 37.87, 195 38.18 S 198.51 37.74, 200 37.88 S 203.54 38.74, 205 39.09"
          fill="none"/>
    <circle r="4" cx="5" cy="40" fill="#3023AE"/>
    <circle r="4" cx="205" cy="39.09" fill="#C86DD7"/>      
</svg>