<svg width="200" height="50" viewBox="0 0 210 50" xmlns="http://www.w3.org/2000/svg">
    <defs>
        <linearGradient x1="0%" y1="0%" x2="100%" y2="0%" id="a">
            <stop stop-color="#3023AE" offset="0%"/>
            <stop stop-color="#C86DD7" offset="100%"/>
        </linearGradient>
    </defs>
    <path stroke="url(#a)"
          stroke-width="3"
          stroke-linejoin="round"
          stroke-linecap="round"
          d="M5 40 C 6.5 39.98, 8.5 39.98, 10 39.93 S 13.5 39.68, 15 39.69 S 18.5 39.93, 20 39.97 S 23.5 39.97, 25 39.97 S 28.5 39.97, 30 39.97 S 33.5 39.97, 35 39.97 S 38.5 39.97, 40 39.97 S 43.5 39.97, 45 39.97 S 48.5 39.99, 50 39.97 S 54.53 41.25, 55 39.83 S 58.56 10.42, 60 10 S 64.5 35.52, 65 36.93 S 68.51 38.21, 70 38.08 S 73.5 36.12, 75 36.03 S 78.52 37.22, 80 37.49 S 83.5 37.95, 85 37.84 S 88.5 36.88, 90 36.76 S 93.5 37.01, 95 37.04 S 98.5 36.93, 100 36.97 S 103.5 37.4, 105 37.32 S 108.51 36.61, 110 36.45 S 113.5 36.28, 115 36.24 S 118.5 36.14, 120 36.17 S 124.03 37.56, 125 36.41 S 128.5 24.3, 130 24.32 S 134.06 35.35, 135 36.52 S 138.5 36.87, 140 36.79 S 143.51 36.12, 145 35.99 S 148.54 36.26, 150 35.92 S 153.5 33.75, 155 33.69 S 158.55 35.12, 160 35.51 S 163.51 36.24, 165 36.41 S 168.5 36.64, 170 36.66 S 173.5 36.58, 175 36.55 S 178.5 36.4, 180 36.45 S 183.5 36.9, 185 36.86 S 188.51 36.34, 190 36.2 S 193.5 35.79, 195 35.89 S 198.5 36.81, 200 36.9 S 203.51 36.61, 205 36.48"
          fill="none"/>
    <circle r="4" cx="5" cy="40" fill="#3023AE"/>
    <circle r="4" cx="205" cy="36.48" fill="#C86DD7"/>      
</svg>