<svg width="200" height="50" viewBox="0 0 210 50" xmlns="http://www.w3.org/2000/svg">
    <defs>
        <linearGradient x1="0%" y1="0%" x2="100%" y2="0%" id="a">
            <stop stop-color="#3023AE" offset="0%"/>
            <stop stop-color="#C86DD7" offset="100%"/>
        </linearGradient>
    </defs>
    <path stroke="url(#a)"
          stroke-width="3"
          stroke-linejoin="round"
          stroke-linecap="round"
          d="M5 40 C 6.29 39.23, 8.51 37.17, 10 37.01 S 13.53 38.61, 15 38.91 S 18.5 39.14, 20 39.08 S 23.5 38.59, 25 38.5 S 28.5 38.48, 30 38.45 S 33.5 38.41, 35 38.33 S 38.56 38.35, 40 37.93 S 43.84 36.34, 45 35.39 S 48.5 29.88, 50 29.81 S 53.5 34.98, 55 34.93 S 58.61 30.02, 60 29.46 S 63.68 31.62, 65 30.9 S 68.56 24.41, 70 23.99 S 73.52 27.75, 75 27.97 S 79.17 26.74, 80 25.49 S 83.79 13.71, 85 12.82 S 88.53 17.82, 90 18.12 S 93.61 15.39, 95 14.84 S 98.65 14.8, 100 14.15 S 103.53 9.71, 105 10 S 108.68 15.39, 110 16.1 S 113.5 15.44, 115 15.41 S 118.5 15.84, 120 15.87 S 123.63 15.04, 125 15.64 S 128.51 20.38, 130 20.25 S 133.75 15.6, 135 14.78 S 138.66 13.01, 140 13.69 S 143.81 18.93, 145 19.85 S 148.65 20.75, 150 21.4 S 153.69 23.95, 155 24.68 S 158.55 26.6, 160 26.99 S 163.5 27.38, 165 27.39 S 168.5 26.96, 170 27.04 S 173.5 27.8, 175 27.91 S 178.51 27.66, 180 27.79 S 183.5 28.67, 185 28.77 S 188.52 28.7, 190 28.43 S 193.51 26.76, 195 26.93 S 198.55 29.2, 200 29.58 S 203.5 29.58, 205 29.58"
          fill="none"/>
    <circle r="4" cx="5" cy="40" fill="#3023AE"/>
    <circle r="4" cx="205" cy="29.58" fill="#C86DD7"/>      
</svg>