<svg width="200" height="50" viewBox="0 0 210 50" xmlns="http://www.w3.org/2000/svg">
    <defs>
        <linearGradient x1="0%" y1="0%" x2="100%" y2="0%" id="a">
            <stop stop-color="#3023AE" offset="0%"/>
            <stop stop-color="#C86DD7" offset="100%"/>
        </linearGradient>
    </defs>
    <path stroke="url(#a)"
          stroke-width="3"
          stroke-linejoin="round"
          stroke-linecap="round"
          d="M5 40 C 5.25 38.52, 8.56 10.42, 10 10 S 14.51 35.68, 15 37.1 S 18.53 38.75, 20 39.03 S 23.6 39.57, 25 39.03 S 28.5 35.16, 30 35.16 S 33.6 38.49, 35 39.03 S 38.5 39.03, 40 39.03 S 43.5 39.03, 45 39.03 S 48.5 39.03, 50 39.03 S 53.5 39.03, 55 39.03 S 58.5 39.03, 60 39.03 S 63.5 39.03, 65 39.03 S 68.5 39.03, 70 39.03 S 73.5 39.03, 75 39.03 S 78.5 39.03, 80 39.03 S 83.5 39.03, 85 39.03 S 88.5 39.03, 90 39.03 S 93.5 39.03, 95 39.03 S 98.5 39.03, 100 39.03 S 103.5 39.03, 105 39.03 S 108.5 39.03, 110 39.03 S 113.5 39.03, 115 39.03 S 118.5 39.03, 120 39.03 S 123.53 39.31, 125 39.03 S 128.5 37.1, 130 37.1 S 133.53 38.75, 135 39.03 S 138.5 39.03, 140 39.03 S 143.53 39.31, 145 39.03 S 148.51 37.24, 150 37.1 S 153.5 38.06, 155 38.06 S 158.51 36.96, 160 37.1 S 163.5 39.03, 165 39.03 S 168.51 37.24, 170 37.1 S 173.5 38.06, 175 38.06 S 178.5 37.1, 180 37.1 S 183.56 38.48, 185 38.06 S 188.5 34.19, 190 34.19 S 193.56 37.64, 195 38.06 S 198.51 37.24, 200 37.1 S 203.5 37.1, 205 37.1"
          fill="none"/>
    <circle r="4" cx="5" cy="40" fill="#3023AE"/>
    <circle r="4" cx="205" cy="37.1" fill="#C86DD7"/>      
</svg>