<svg width="200" height="50" viewBox="0 0 210 50" xmlns="http://www.w3.org/2000/svg">
    <defs>
        <linearGradient x1="0%" y1="0%" x2="100%" y2="0%" id="a">
            <stop stop-color="#3023AE" offset="0%"/>
            <stop stop-color="#C86DD7" offset="100%"/>
        </linearGradient>
    </defs>
    <path stroke="url(#a)"
          stroke-width="3"
          stroke-linejoin="round"
          stroke-linecap="round"
          d="M5 40 C 6.49 39.81, 8.5 39.46, 10 39.36 S 13.5 39.36, 15 39.36 S 18.51 39.55, 20 39.36 S 23.51 38.28, 25 38.09 S 28.51 38.28, 30 38.09 S 33.5 36.72, 35 36.81 S 38.55 38.35, 40 38.72 S 44.51 40.78, 45 39.36 S 48.55 10.37, 50 10 S 54.48 35.4, 55 36.81 S 58.51 36.62, 60 36.81 S 63.51 37.9, 65 38.09 S 68.53 38.37, 70 38.09 S 73.5 36.17, 75 36.17 S 78.55 37.72, 80 38.09 S 83.5 38.72, 85 38.72 S 88.5 38.09, 90 38.09 S 93.5 38.72, 95 38.72 S 98.51 38.28, 100 38.09 S 103.5 37.36, 105 37.45 S 108.5 38.72, 110 38.72 S 113.5 37.45, 115 37.45 S 118.53 38.44, 120 38.72 S 123.5 39.36, 125 39.36 S 128.51 38.91, 130 38.72 S 133.88 39.09, 135 38.09 S 138.66 30.47, 140 29.79 S 143.74 32.17, 145 32.98 S 148.74 35.36, 150 36.17 S 153.55 38.99, 155 39.36 S 158.55 39.09, 160 38.72 S 163.51 37, 165 36.81 S 168.5 37.45, 170 37.45 S 173.51 37, 175 36.81 S 178.51 35.98, 180 36.17 S 183.57 37.63, 185 38.09 S 188.51 39.17, 190 39.36 S 193.5 39.36, 195 39.36 S 198.55 39.73, 200 39.36 S 203.66 37.49, 205 36.81"
          fill="none"/>
    <circle r="4" cx="5" cy="40" fill="#3023AE"/>
    <circle r="4" cx="205" cy="36.81" fill="#C86DD7"/>      
</svg>