<svg width="200" height="50" viewBox="0 0 210 50" xmlns="http://www.w3.org/2000/svg">
    <defs>
        <linearGradient x1="0%" y1="0%" x2="100%" y2="0%" id="a">
            <stop stop-color="#3023AE" offset="0%"/>
            <stop stop-color="#C86DD7" offset="100%"/>
        </linearGradient>
    </defs>
    <path stroke="url(#a)"
          stroke-width="3"
          stroke-linejoin="round"
          stroke-linecap="round"
          d="M5 40 C 5.26 38.52, 9.46 13.49, 10 12.09 S 13.51 13.94, 15 14.11 S 18.61 13.79, 20 13.22 S 23.68 9.29, 25 10 S 29.19 17.35, 30 18.61 S 33.78 24.7, 35 25.57 S 38.5 25.7, 40 25.69 S 43.55 25.11, 45 25.49 S 48.6 28.84, 50 28.29 S 53.76 22.39, 55 21.54 S 58.5 21.32, 60 21.41 S 63.52 21.9, 65 22.12 S 68.55 22.52, 70 22.9 S 73.5 24.65, 75 24.74 S 78.5 23.46, 80 23.5 S 83.63 24.37, 85 24.99 S 88.6 27.5, 90 28.04 S 93.5 28.95, 95 28.87 S 98.59 28.02, 100 27.51 S 103.66 25.92, 105 25.26 S 108.66 23.25, 110 22.57 S 113.53 19.85, 115 20.15 S 118.63 23.99, 120 24.61 S 123.5 24.63, 125 24.66 S 128.52 24.58, 130 24.79 S 133.59 25.58, 135 26.1 S 138.54 28.78, 140 28.46 S 143.53 24.2, 145 23.9 S 148.58 25.91, 150 26.4 S 153.51 27.19, 155 27.36 S 158.51 27.36, 160 27.56 S 163.52 28.5, 165 28.72 S 168.5 28.92, 170 29.04 S 173.51 29.35, 175 29.52 S 178.59 29.63, 180 30.15 S 183.5 33.32, 185 33.22 S 188.76 30.29, 190 29.45 S 193.54 26.79, 195 26.47 S 198.51 27.4, 200 27.25 S 203.59 25.95, 205 25.44"
          fill="none"/>
    <circle r="4" cx="5" cy="40" fill="#3023AE"/>
    <circle r="4" cx="205" cy="25.439999999999998" fill="#C86DD7"/>      
</svg>