<svg width="200" height="50" viewBox="0 0 210 50" xmlns="http://www.w3.org/2000/svg">
    <defs>
        <linearGradient x1="0%" y1="0%" x2="100%" y2="0%" id="a">
            <stop stop-color="#3023AE" offset="0%"/>
            <stop stop-color="#C86DD7" offset="100%"/>
        </linearGradient>
    </defs>
    <path stroke="url(#a)"
          stroke-width="3"
          stroke-linejoin="round"
          stroke-linecap="round"
          d="M5 40 C 6.5 39.99, 8.5 39.97, 10 39.97 S 13.5 39.98, 15 39.98 S 18.5 39.98, 20 39.98 S 23.5 39.98, 25 39.98 S 28.5 39.98, 30 39.98 S 33.5 39.98, 35 39.98 S 38.5 39.98, 40 39.98 S 43.5 39.98, 45 39.98 S 48.5 39.98, 50 39.98 S 53.5 39.98, 55 39.98 S 58.5 39.98, 60 39.98 S 63.5 39.98, 65 39.98 S 68.5 39.98, 70 39.98 S 73.5 39.98, 75 39.98 S 78.5 39.98, 80 39.98 S 83.5 39.98, 85 39.98 S 88.5 39.98, 90 39.98 S 93.5 39.98, 95 39.98 S 99.53 41.4, 100 39.98 S 103.9 11.02, 105 10 S 109.47 29.37, 110 30.77 S 113.72 35.85, 115 36.63 S 118.53 36.5, 120 36.81 S 123.54 38.37, 125 38.73 S 128.5 39.19, 130 39.29 S 133.5 39.43, 135 39.42 S 138.5 39.18, 140 39.19 S 143.5 39.44, 145 39.52 S 148.5 39.73, 150 39.75 S 153.5 39.65, 155 39.64 S 158.5 39.69, 160 39.7 S 163.5 39.68, 165 39.69 S 168.5 39.77, 170 39.74 S 173.5 39.48, 175 39.49 S 178.5 39.76, 180 39.8 S 183.5 39.77, 185 39.77 S 188.5 39.95, 190 39.83 S 193.5 39.01, 195 38.99 S 198.5 39.73, 200 39.69 S 203.53 38.99, 205 38.7"
          fill="none"/>
    <circle r="4" cx="5" cy="40" fill="#3023AE"/>
    <circle r="4" cx="205" cy="38.7" fill="#C86DD7"/>      
</svg>