<svg width="200" height="50" viewBox="0 0 210 50" xmlns="http://www.w3.org/2000/svg">
    <defs>
        <linearGradient x1="0%" y1="0%" x2="100%" y2="0%" id="a">
            <stop stop-color="#3023AE" offset="0%"/>
            <stop stop-color="#C86DD7" offset="100%"/>
        </linearGradient>
    </defs>
    <path stroke="url(#a)"
          stroke-width="3"
          stroke-linejoin="round"
          stroke-linecap="round"
          d="M5 40 C 6.49 39.86, 8.5 39.61, 10 39.54 S 13.5 39.54, 15 39.54 S 18.5 39.54, 20 39.54 S 23.5 39.54, 25 39.54 S 28.59 40.06, 30 39.54 S 33.62 36.43, 35 35.85 S 38.57 34.92, 40 35.38 S 43.51 38.87, 45 39.08 S 48.55 37.17, 50 36.77 S 53.53 36.04, 55 36.31 S 58.5 38.62, 60 38.62 S 63.5 36.31, 65 36.31 S 68.5 38.62, 70 38.62 S 73.5 36.38, 75 36.31 S 78.5 38.08, 80 38.15 S 83.5 36.84, 85 36.77 S 88.51 37.55, 90 37.69 S 93.51 37.83, 95 37.69 S 98.5 36.77, 100 36.77 S 103.77 38.54, 105 37.69 S 108.64 30.48, 110 29.85 S 113.69 32.35, 115 33.08 S 118.59 34.86, 120 35.38 S 123.5 36.77, 125 36.77 S 128.51 35.52, 130 35.38 S 133.51 35.64, 135 35.85 S 138.51 36.56, 140 36.77 S 143.5 37.23, 145 37.23 S 148.55 37.17, 150 36.77 S 153.5 34.39, 155 34.46 S 158.55 36.83, 160 37.23 S 163.53 37.5, 165 37.23 S 168.5 35.31, 170 35.38 S 173.55 37.29, 175 37.69 S 179.49 39.56, 180 38.15 S 183.9 11.02, 185 10 S 189.45 27.52, 190 28.92 S 193.59 34.86, 195 35.38 S 198.51 32.83, 200 32.62 S 203.55 33.6, 205 34"
          fill="none"/>
    <circle r="4" cx="5" cy="40" fill="#3023AE"/>
    <circle r="4" cx="205" cy="34" fill="#C86DD7"/>      
</svg>