<svg width="200" height="50" viewBox="0 0 210 50" xmlns="http://www.w3.org/2000/svg">
    <defs>
        <linearGradient x1="0%" y1="0%" x2="100%" y2="0%" id="a">
            <stop stop-color="#3023AE" offset="0%"/>
            <stop stop-color="#C86DD7" offset="100%"/>
        </linearGradient>
    </defs>
    <path stroke="url(#a)"
          stroke-width="3"
          stroke-linejoin="round"
          stroke-linecap="round"
          d="M5 40 C 5.86 38.77, 8.5 32.97, 10 32.86 S 13.7 38.55, 15 39.29 S 18.5 38.57, 20 38.57 S 23.5 39.29, 25 39.29 S 28.5 38.68, 30 38.57 S 33.5 38.57, 35 38.57 S 38.5 38.46, 40 38.57 S 43.5 39.4, 45 39.29 S 48.53 38.18, 50 37.86 S 53.56 37.55, 55 37.14 S 58.7 35.74, 60 35 S 63.5 31.43, 65 31.43 S 68.66 34.33, 70 35 S 73.53 36.12, 75 36.43 S 78.78 38.01, 80 37.14 S 83.52 29.5, 85 29.29 S 88.94 34.65, 90 35.71 S 93.52 39.08, 95 39.29 S 98.7 37.88, 100 37.14 S 103.59 34.07, 105 33.57 S 108.59 33.07, 110 33.57 S 113.66 36.47, 115 37.14 S 118.52 38.36, 120 38.57 S 123.86 39.55, 125 38.57 S 128.82 30.93, 130 30 S 133.78 29.84, 135 30.71 S 138.52 36.93, 140 37.14 S 143.56 32.55, 145 32.14 S 148.66 33.62, 150 34.29 S 153.62 36.55, 155 37.14 S 158.53 38.88, 160 38.57 S 163.7 35.74, 165 35 S 168.74 33.67, 170 32.86 S 174.4 29.94, 175 28.57 S 178.82 10.93, 180 10 S 184.4 19.34, 185 20.71 S 188.9 31.84, 190 32.86 S 193.53 30.32, 195 30 S 198.62 30.12, 200 30.71 S 203.78 33.42, 205 34.29"
          fill="none"/>
    <circle r="4" cx="5" cy="40" fill="#3023AE"/>
    <circle r="4" cx="205" cy="34.29" fill="#C86DD7"/>      
</svg>