<svg width="200" height="50" viewBox="0 0 210 50" xmlns="http://www.w3.org/2000/svg">
    <defs>
        <linearGradient x1="0%" y1="0%" x2="100%" y2="0%" id="a">
            <stop stop-color="#3023AE" offset="0%"/>
            <stop stop-color="#C86DD7" offset="100%"/>
        </linearGradient>
    </defs>
    <path stroke="url(#a)"
          stroke-width="3"
          stroke-linejoin="round"
          stroke-linecap="round"
          d="M5 40 C 6.5 39.96, 8.5 39.89, 10 39.88 S 13.5 39.93, 15 39.94 S 18.5 39.94, 20 39.94 S 23.5 39.94, 25 39.94 S 28.5 39.94, 30 39.94 S 33.5 39.94, 35 39.94 S 38.5 39.94, 40 39.94 S 43.5 39.94, 45 39.94 S 48.5 39.94, 50 39.94 S 53.5 39.94, 55 39.94 S 58.5 39.94, 60 39.94 S 63.5 39.94, 65 39.94 S 68.54 40.28, 70 39.94 S 73.51 37.73, 75 37.58 S 78.53 38.66, 80 38.96 S 83.5 39.53, 85 39.65 S 88.5 39.74, 90 39.77 S 93.5 39.92, 95 39.83 S 98.5 39.2, 100 39.19 S 103.5 39.84, 105 39.77 S 108.52 38.96, 110 38.73 S 113.51 38.07, 115 38.21 S 118.51 39.5, 120 39.65 S 123.5 39.21, 125 39.19 S 128.5 39.5, 130 39.54 S 133.51 39.64, 135 39.48 S 138.5 38.5, 140 38.45 S 143.51 38.97, 145 39.14 S 148.5 39.54, 150 39.6 S 153.5 39.52, 155 39.54 S 158.77 40.57, 160 39.71 S 163.57 32.98, 165 32.51 S 168.7 35.68, 170 36.43 S 173.54 37.94, 175 38.27 S 178.5 38.72, 180 38.68 S 183.51 38.14, 185 37.98 S 189.5 38.99, 190 37.58 S 193.81 10.91, 195 10 S 199.48 28.57, 200 29.98 S 204.12 35.62, 205 36.83"
          fill="none"/>
    <circle r="4" cx="5" cy="40" fill="#3023AE"/>
    <circle r="4" cx="205" cy="36.83" fill="#C86DD7"/>      
</svg>