<svg width="200" height="50" viewBox="0 0 210 50" xmlns="http://www.w3.org/2000/svg">
    <defs>
        <linearGradient x1="0%" y1="0%" x2="100%" y2="0%" id="a">
            <stop stop-color="#3023AE" offset="0%"/>
            <stop stop-color="#C86DD7" offset="100%"/>
        </linearGradient>
    </defs>
    <path stroke="url(#a)"
          stroke-width="3"
          stroke-linejoin="round"
          stroke-linecap="round"
          d="M5 40 C 5.9 38.8, 8.94 34.39, 10 33.33 S 13.5 30, 15 30 S 18.75 32.5, 20 33.33 S 23.58 36.19, 25 36.67 S 28.5 36.67, 30 36.67 S 33.5 36.67, 35 36.67 S 38.5 36.67, 40 36.67 S 43.5 36.67, 45 36.67 S 48.5 36.67, 50 36.67 S 53.58 37.15, 55 36.67 S 58.5 33.33, 60 33.33 S 63.58 36.19, 65 36.67 S 68.5 36.67, 70 36.67 S 73.94 37.73, 75 36.67 S 78.75 27.5, 80 26.67 S 83.94 28.94, 85 30 S 88.58 36.2, 90 36.67 S 93.58 33.81, 95 33.33 S 99.1 34.53, 100 33.33 S 103.58 20.47, 105 20 S 109.23 28.71, 110 30 S 113.75 37.5, 115 36.67 S 118.5 23.33, 120 23.33 S 123.94 35.61, 125 36.67 S 128.5 33.33, 130 33.33 S 133.58 36.19, 135 36.67 S 138.5 36.67, 140 36.67 S 143.75 37.5, 145 36.67 S 148.5 30, 150 30 S 153.5 36.67, 155 36.67 S 158.58 30.48, 160 30 S 163.58 32.86, 165 33.33 S 168.5 33.33, 170 33.33 S 173.94 34.39, 175 33.33 S 178.75 24.16, 180 23.33 S 183.58 26.19, 185 26.67 S 188.75 25.84, 190 26.67 S 193.58 33.81, 195 33.33 S 199.41 24.71, 200 23.33 S 204.47 11.4, 205 10"
          fill="none"/>
    <circle r="4" cx="5" cy="40" fill="#3023AE"/>
    <circle r="4" cx="205" cy="10" fill="#C86DD7"/>      
</svg>