<svg width="200" height="50" viewBox="0 0 210 50" xmlns="http://www.w3.org/2000/svg">
    <defs>
        <linearGradient x1="0%" y1="0%" x2="100%" y2="0%" id="a">
            <stop stop-color="#3023AE" offset="0%"/>
            <stop stop-color="#C86DD7" offset="100%"/>
        </linearGradient>
    </defs>
    <path stroke="url(#a)"
          stroke-width="3"
          stroke-linejoin="round"
          stroke-linecap="round"
          d="M5 40 C 5.25 38.52, 8.7 10.74, 10 10 S 14.5 32.87, 15 34.29 S 18.67 37.87, 20 38.57 S 23.51 39.38, 25 39.52 S 28.5 39.52, 30 39.52 S 33.5 39.52, 35 39.52 S 38.5 39.52, 40 39.52 S 43.5 39.52, 45 39.52 S 48.5 39.52, 50 39.52 S 53.5 39.52, 55 39.52 S 58.5 39.52, 60 39.52 S 63.5 39.52, 65 39.52 S 68.5 39.52, 70 39.52 S 73.5 39.52, 75 39.52 S 78.5 39.52, 80 39.52 S 83.5 39.52, 85 39.52 S 88.5 39.52, 90 39.52 S 93.5 39.52, 95 39.52 S 98.5 39.52, 100 39.52 S 103.5 39.52, 105 39.52 S 108.5 39.52, 110 39.52 S 113.5 39.52, 115 39.52 S 118.5 39.52, 120 39.52 S 123.5 39.52, 125 39.52 S 128.5 39.52, 130 39.52 S 133.5 39.52, 135 39.52"
          fill="none"/>
    <circle r="4" cx="5" cy="40" fill="#3023AE"/>
    <circle r="4" cx="135" cy="39.52" fill="#C86DD7"/>      
</svg>