<svg width="200" height="50" viewBox="0 0 210 50" xmlns="http://www.w3.org/2000/svg">
    <defs>
        <linearGradient x1="0%" y1="0%" x2="100%" y2="0%" id="a">
            <stop stop-color="#3023AE" offset="0%"/>
            <stop stop-color="#C86DD7" offset="100%"/>
        </linearGradient>
    </defs>
    <path stroke="url(#a)"
          stroke-width="3"
          stroke-linejoin="round"
          stroke-linecap="round"
          d="M5 40 C 6.47 39.72, 8.52 39.27, 10 39.06 S 13.5 38.45, 15 38.57 S 18.51 40.02, 20 39.86 S 23.54 37.85, 25 37.51 S 28.5 37.48, 30 37.54 S 33.5 37.94, 35 37.94 S 38.5 37.56, 40 37.57 S 43.54 38.39, 45 38.03 S 48.55 35.49, 50 35.11 S 54.39 36.77, 55 35.4 S 58.5 12.54, 60 12.63 S 64.45 34.63, 65 36.02 S 68.52 37.65, 70 37.88 S 73.5 37.67, 75 37.57 S 79.49 38.61, 80 37.2 S 83.5 10.09, 85 10 S 89.34 35.25, 90 36.6 S 93.5 30.43, 95 30.51 S 98.8 36.22, 100 37.11 S 103.5 37.87, 105 37.94 S 108.5 37.65, 110 37.6 S 113.5 37.55, 115 37.63 S 118.5 38.07, 120 38.14 S 123.53 38.41, 125 38.11 S 128.5 36.2, 130 36.08 S 133.52 37.07, 135 37.34 S 138.5 37.89, 140 37.88 S 143.5 37.32, 145 37.28 S 148.5 37.55, 150 37.63 S 153.5 37.84, 155 37.83 S 158.5 37.57, 160 37.57 S 163.5 37.82, 165 37.8 S 168.5 37.48, 170 37.43 S 173.5 37.37, 175 37.45 S 178.5 37.87, 180 37.94 S 183.5 37.91, 185 37.94 S 188.5 38.11, 190 38.11 S 193.5 37.92, 195 37.94 S 198.5 38.18, 200 38.23 S 203.5 38.25, 205 38.26"
          fill="none"/>
    <circle r="4" cx="5" cy="40" fill="#3023AE"/>
    <circle r="4" cx="205" cy="38.26" fill="#C86DD7"/>      
</svg>