<svg width="200" height="50" viewBox="0 0 210 50" xmlns="http://www.w3.org/2000/svg">
    <defs>
        <linearGradient x1="0%" y1="0%" x2="100%" y2="0%" id="a">
            <stop stop-color="#3023AE" offset="0%"/>
            <stop stop-color="#C86DD7" offset="100%"/>
        </linearGradient>
    </defs>
    <path stroke="url(#a)"
          stroke-width="3"
          stroke-linejoin="round"
          stroke-linecap="round"
          d="M5 40 C 5.68 38.66, 8.59 30.72, 10 30.2 S 13.62 35.74, 15 36.33 S 18.54 34.85, 20 34.49 S 23.57 33.44, 25 33.88 S 28.59 37.03, 30 37.55 S 33.59 38.07, 35 37.55 S 38.5 33.97, 40 33.88 S 43.52 36.67, 45 36.94 S 48.54 36.07, 50 35.71 S 53.5 34.4, 55 34.49 S 58.59 35.81, 60 36.33 S 63.86 39.14, 65 38.16 S 68.79 28.65, 70 27.76 S 73.86 29.84, 75 30.82 S 78.5 36.24, 80 36.33 S 83.76 32.27, 85 31.43 S 88.62 29, 90 29.59 S 93.52 35.98, 95 35.71 S 98.54 28.12, 100 27.76 S 103.72 32.49, 105 33.27 S 108.51 34.06, 110 33.88 S 113.57 32.48, 115 32.04 S 118.52 30.55, 120 30.82 S 123.57 33.44, 125 33.88 S 128.57 34.32, 130 33.88 S 133.86 31.8, 135 30.82 S 138.54 25.67, 140 25.31 S 143.65 27.71, 145 28.37 S 148.52 30.47, 150 30.2 S 153.5 26.53, 155 26.53 S 158.62 29.61, 160 30.2 S 163.83 31.75, 165 30.82 S 168.69 22.96, 170 22.24 S 173.5 25.4, 175 25.31 S 178.62 22.22, 180 21.63 S 183.65 20.36, 185 21.02 S 188.51 26.71, 190 26.53 S 194.22 21.08, 195 19.8 S 198.72 10.78, 200 10 S 203.79 12.78, 205 13.67"
          fill="none"/>
    <circle r="4" cx="5" cy="40" fill="#3023AE"/>
    <circle r="4" cx="205" cy="13.670000000000002" fill="#C86DD7"/>      
</svg>