<svg width="200" height="50" viewBox="0 0 210 50" xmlns="http://www.w3.org/2000/svg">
    <defs>
        <linearGradient x1="0%" y1="0%" x2="100%" y2="0%" id="a">
            <stop stop-color="#3023AE" offset="0%"/>
            <stop stop-color="#C86DD7" offset="100%"/>
        </linearGradient>
    </defs>
    <path stroke="url(#a)"
          stroke-width="3"
          stroke-linejoin="round"
          stroke-linecap="round"
          d="M5 40 C 5.61 38.63, 8.51 28.86, 10 28.69 S 13.88 37.86, 15 38.86 S 18.5 37.51, 20 37.58 S 23.5 39.24, 25 39.36 S 28.5 38.46, 30 38.35 S 33.51 38.47, 35 38.6 S 38.51 39.09, 40 39.24 S 43.5 39.64, 45 39.62 S 48.5 39.17, 50 39.11 S 53.5 39.16, 55 39.24 S 58.5 39.6, 60 39.62 S 63.5 39.46, 65 39.36 S 68.5 39.04, 70 38.98 S 73.5 38.9, 75 38.98 S 78.5 39.47, 80 39.49 S 83.5 39.2, 85 39.11 S 88.5 38.94, 90 38.86 S 93.5 38.64, 95 38.6 S 98.5 38.54, 100 38.6 S 103.5 38.9, 105 38.98 S 108.5 39.13, 110 39.11 S 114.51 40.28, 115 38.86 S 118.54 10.33, 120 10 S 124.49 35.16, 125 36.57 S 128.52 37.48, 130 37.71 S 133.5 38.09, 135 38.09 S 138.51 37.9, 140 37.71 S 143.5 36.88, 145 36.82 S 148.51 37.2, 150 37.33 S 153.52 37.95, 155 37.71 S 158.52 35.91, 160 35.68 S 163.51 36.06, 165 36.19 S 168.5 36.65, 170 36.57 S 173.52 35.91, 175 35.68 S 178.53 35.32, 180 35.04 S 183.5 33.65, 185 33.77 S 188.5 35.79, 190 35.81 S 193.51 34.07, 195 33.9 S 198.53 34.36, 200 34.66 S 203.55 35.56, 205 35.93"
          fill="none"/>
    <circle r="4" cx="5" cy="40" fill="#3023AE"/>
    <circle r="4" cx="205" cy="35.93" fill="#C86DD7"/>      
</svg>