<svg width="200" height="50" viewBox="0 0 210 50" xmlns="http://www.w3.org/2000/svg">
    <defs>
        <linearGradient x1="0%" y1="0%" x2="100%" y2="0%" id="a">
            <stop stop-color="#3023AE" offset="0%"/>
            <stop stop-color="#C86DD7" offset="100%"/>
        </linearGradient>
    </defs>
    <path stroke="url(#a)"
          stroke-width="3"
          stroke-linejoin="round"
          stroke-linecap="round"
          d="M5 40 C 6.09 38.97, 8.85 36.26, 10 35.3 S 13.64 32.33, 15 31.69 S 18.51 30.76, 20 30.6 S 23.5 30.6, 25 30.6 S 28.52 30.81, 30 30.6 S 33.51 29.32, 35 29.16 S 38.5 29.63, 40 29.52 S 43.62 29.03, 45 28.43 S 48.7 25.93, 50 25.18 S 53.57 23.11, 55 22.65 S 58.81 21.02, 60 21.93 S 63.68 29.53, 65 30.24 S 68.98 28.45, 70 27.35 S 73.83 20.33, 75 19.4 S 78.74 18.58, 80 19.4 S 83.74 25.08, 85 25.9 S 88.52 25.68, 90 25.9 S 93.57 27.81, 95 27.35 S 99.25 23.95, 100 22.65 S 103.5 9.95, 105 10 S 109.19 21.75, 110 23.01 S 113.61 24.99, 115 25.54 S 118.53 26.67, 120 26.99 S 123.57 28.17, 125 27.71 S 128.68 23.02, 130 23.73 S 133.66 32.45, 135 33.13 S 138.55 29.17, 140 28.8 S 143.55 30.23, 145 30.6 S 148.5 31.44, 150 31.33 S 153.51 29.72, 155 29.88 S 158.5 32.41, 160 32.41 S 163.5 29.99, 165 29.88 S 168.5 31.74, 170 31.69 S 173.52 29.74, 175 29.52 S 178.5 30.19, 180 30.24 S 183.61 29.33, 185 29.88 S 188.62 33.62, 190 34.22 S 193.51 34.38, 195 34.22 S 198.5 33.08, 200 33.13 S 203.56 34.16, 205 34.58"
          fill="none"/>
    <circle r="4" cx="5" cy="40" fill="#3023AE"/>
    <circle r="4" cx="205" cy="34.58" fill="#C86DD7"/>      
</svg>