<svg width="200" height="50" viewBox="0 0 210 50" xmlns="http://www.w3.org/2000/svg">
    <defs>
        <linearGradient x1="0%" y1="0%" x2="100%" y2="0%" id="a">
            <stop stop-color="#3023AE" offset="0%"/>
            <stop stop-color="#C86DD7" offset="100%"/>
        </linearGradient>
    </defs>
    <path stroke="url(#a)"
          stroke-width="3"
          stroke-linejoin="round"
          stroke-linecap="round"
          d="M5 40 C 6.49 39.84, 8.53 39.78, 10 39.48 S 13.52 38.2, 15 37.93 S 18.52 37.94, 20 37.67 S 23.56 36.53, 25 36.12 S 28.51 34.67, 30 34.83 S 33.55 36.79, 35 37.16 S 38.64 38.04, 40 37.41 S 43.58 32.98, 45 32.5 S 48.63 33.45, 50 34.05 S 53.52 37.13, 55 36.9 S 58.52 32.77, 60 32.5 S 63.51 34.94, 65 35.09 S 68.87 34.52, 70 33.53 S 74.41 27.67, 75 26.29 S 78.64 9.37, 80 10 S 84.35 29.6, 85 30.95 S 88.6 31.23, 90 30.69 S 93.5 27.15, 95 27.07 S 98.58 29.69, 100 30.17 S 103.5 30.51, 105 30.43 S 108.52 29.89, 110 29.66 S 113.6 28.34, 115 28.88 S 118.53 33.23, 120 33.53 S 123.52 31.18, 125 30.95 S 128.53 32.28, 130 31.98 S 133.54 29.22, 135 28.88 S 138.55 30.04, 140 29.66 S 143.5 26.33, 145 26.29 S 148.52 29.17, 150 29.4 S 153.5 27.72, 155 27.84 S 158.63 29.57, 160 30.17 S 163.63 31.64, 165 32.24 S 168.55 34.94, 170 34.57 S 173.73 30.45, 175 29.66 S 178.55 28.74, 180 28.36 S 183.5 27.03, 185 27.07 S 188.61 28.05, 190 28.62 S 193.56 30.8, 195 31.21 S 198.68 32.19, 200 31.47 S 204.01 26.91, 205 25.78"
          fill="none"/>
    <circle r="4" cx="5" cy="40" fill="#3023AE"/>
    <circle r="4" cx="205" cy="25.78" fill="#C86DD7"/>      
</svg>