<svg width="200" height="50" viewBox="0 0 210 50" xmlns="http://www.w3.org/2000/svg">
    <defs>
        <linearGradient x1="0%" y1="0%" x2="100%" y2="0%" id="a">
            <stop stop-color="#3023AE" offset="0%"/>
            <stop stop-color="#C86DD7" offset="100%"/>
        </linearGradient>
    </defs>
    <path stroke="url(#a)"
          stroke-width="3"
          stroke-linejoin="round"
          stroke-linecap="round"
          d="M5 40 C 5.25 38.52, 8.57 10.46, 10 10 S 14.51 35.36, 15 36.78 S 18.55 38.69, 20 39.08 S 23.5 39.4, 25 39.44 S 28.59 39.87, 30 39.36 S 33.5 35.85, 35 35.82 S 38.58 38.64, 40 39.13 S 43.5 39.27, 45 39.25 S 48.5 39.02, 50 39.01 S 53.5 39.23, 55 39.17 S 58.51 38.71, 60 38.58 S 63.5 38.22, 65 38.28 S 68.5 38.91, 70 39 S 73.5 38.92, 75 38.9 S 78.51 38.98, 80 38.85 S 83.51 38.15, 85 38.02 S 88.5 38.07, 90 37.99 S 93.51 37.36, 95 37.5 S 98.79 39.83, 100 38.94 S 103.91 31.16, 105 30.13 S 108.77 28.7, 110 29.56 S 113.87 36.15, 115 37.14 S 118.5 38.35, 120 38.36 S 123.5 37.25, 125 37.21 S 128.51 37.93, 130 38.07 S 134.48 39.53, 135 38.12 S 138.61 11.3, 140 10.73 S 144.47 32.59, 145 33.99 S 148.56 36.59, 150 37.02 S 153.5 37.03, 155 36.95 S 158.5 36.41, 160 36.48 S 163.51 37.22, 165 37.4 S 168.5 37.73, 170 37.68 S 173.5 37.14, 175 37.05 S 178.54 37.44, 180 37.08 S 183.52 34.82, 185 34.55 S 188.53 35, 190 35.27 S 193.51 36.24, 195 36.41 S 198.5 36.4, 200 36.38 S 203.5 36.3, 205 36.26"
          fill="none"/>
    <circle r="4" cx="5" cy="40" fill="#3023AE"/>
    <circle r="4" cx="205" cy="36.26" fill="#C86DD7"/>      
</svg>