<svg width="200" height="50" viewBox="0 0 210 50" xmlns="http://www.w3.org/2000/svg">
    <defs>
        <linearGradient x1="0%" y1="0%" x2="100%" y2="0%" id="a">
            <stop stop-color="#3023AE" offset="0%"/>
            <stop stop-color="#C86DD7" offset="100%"/>
        </linearGradient>
    </defs>
    <path stroke="url(#a)"
          stroke-width="3"
          stroke-linejoin="round"
          stroke-linecap="round"
          d="M5 40 C 6.49 39.83, 9.4 40.81, 10 39.44 S 14.12 18.44, 15 17.22 S 18.78 26.44, 20 25.56 S 23.69 9.27, 25 10 S 29.49 29.7, 30 31.11 S 33.85 36.82, 35 37.78 S 38.5 39.44, 40 39.44 S 43.5 37.86, 45 37.78 S 48.5 38.81, 50 38.89 S 53.5 38.25, 55 38.33 S 58.6 39.98, 60 39.44 S 63.51 34.61, 65 34.44 S 68.6 37.79, 70 38.33 S 73.51 38.16, 75 38.33 S 78.5 39.36, 80 39.44 S 83.5 38.89, 85 38.89 S 88.52 39.69, 90 39.44 S 93.51 37.39, 95 37.22 S 98.54 38, 100 38.33 S 103.51 39.27, 105 39.44 S 108.5 39.44, 110 39.44 S 113.5 39.44, 115 39.44 S 118.5 39.44, 120 39.44 S 123.5 39.44, 125 39.44 S 128.5 39.44, 130 39.44 S 133.97 40.53, 135 39.44 S 138.54 29.22, 140 28.89 S 143.91 36.19, 145 37.22 S 148.51 38.16, 150 38.33 S 153.51 38.16, 155 38.33 S 158.51 39.27, 160 39.44 S 163.5 39.44, 165 39.44 S 168.5 39.44, 170 39.44 S 173.5 39.44, 175 39.44 S 178.5 39.44, 180 39.44 S 183.5 39.44, 185 39.44 S 188.5 39.44, 190 39.44"
          fill="none"/>
    <circle r="4" cx="5" cy="40" fill="#3023AE"/>
    <circle r="4" cx="190" cy="39.44" fill="#C86DD7"/>      
</svg>