<svg width="200" height="50" viewBox="0 0 210 50" xmlns="http://www.w3.org/2000/svg">
    <defs>
        <linearGradient x1="0%" y1="0%" x2="100%" y2="0%" id="a">
            <stop stop-color="#3023AE" offset="0%"/>
            <stop stop-color="#C86DD7" offset="100%"/>
        </linearGradient>
    </defs>
    <path stroke="url(#a)"
          stroke-width="3"
          stroke-linejoin="round"
          stroke-linecap="round"
          d="M5 40 C 6.5 39.99, 8.5 39.97, 10 39.97 S 13.5 39.97, 15 39.97 S 18.5 39.97, 20 39.97 S 23.5 39.99, 25 39.97 S 28.5 39.87, 30 39.84 S 33.5 39.77, 35 39.76 S 38.5 39.77, 40 39.76 S 43.5 39.64, 45 39.66 S 48.5 39.9, 50 39.92 S 54.52 41.24, 55 39.82 S 58.61 10.57, 60 10 S 64.5 34.32, 65 35.73 S 68.56 37.69, 70 38.12 S 73.5 38.64, 75 38.72 S 78.5 38.69, 80 38.66 S 83.5 38.51, 85 38.51 S 88.5 38.68, 90 38.69 S 93.5 38.62, 95 38.61 S 98.5 38.66, 100 38.64 S 103.5 38.55, 105 38.48 S 108.5 38.13, 110 38.14 S 113.5 38.45, 115 38.53 S 118.5 38.64, 120 38.66 S 123.5 38.67, 125 38.69 S 128.5 38.77, 130 38.8 S 133.5 38.86, 135 38.87 S 138.5 38.93, 140 38.87 S 143.5 38.52, 145 38.48 S 148.5 38.56, 150 38.61 S 153.5 38.85, 155 38.82 S 158.5 38.4, 160 38.38 S 163.5 38.61, 165 38.69 S 168.5 38.85, 170 38.9 S 173.5 38.97, 175 39.01 S 178.5 39.21, 180 39.19 S 183.5 38.94, 185 38.9 S 188.5 38.97, 190 38.93 S 193.5 38.65, 195 38.61 S 198.5 38.64, 200 38.64 S 203.5 38.6, 205 38.59"
          fill="none"/>
    <circle r="4" cx="5" cy="40" fill="#3023AE"/>
    <circle r="4" cx="205" cy="38.59" fill="#C86DD7"/>      
</svg>