<svg width="200" height="50" viewBox="0 0 210 50" xmlns="http://www.w3.org/2000/svg">
    <defs>
        <linearGradient x1="0%" y1="0%" x2="100%" y2="0%" id="a">
            <stop stop-color="#3023AE" offset="0%"/>
            <stop stop-color="#C86DD7" offset="100%"/>
        </linearGradient>
    </defs>
    <path stroke="url(#a)"
          stroke-width="3"
          stroke-linejoin="round"
          stroke-linecap="round"
          d="M5 40 C 6.48 39.77, 8.5 39.35, 10 39.23 S 13.5 39.23, 15 39.23 S 18.5 39.23, 20 39.23 S 23.5 39.23, 25 39.23 S 28.5 39.23, 30 39.23 S 33.5 39.23, 35 39.23 S 38.94 40.29, 40 39.23 S 44.05 30.39, 45 29.23 S 48.94 25.86, 50 26.92 S 54.02 38.1, 55 39.23 S 58.5 38.58, 60 38.46 S 63.5 38.46, 65 38.46 S 68.54 38.8, 70 38.46 S 73.5 36.03, 75 36.15 S 78.57 38.79, 80 39.23 S 83.5 39.23, 85 39.23 S 88.5 39.35, 90 39.23 S 93.5 38.46, 95 38.46 S 98.5 39.11, 100 39.23 S 103.5 39.35, 105 39.23 S 108.52 38.69, 110 38.46 S 113.5 37.57, 115 37.69 S 118.52 39, 120 39.23 S 123.68 39.94, 125 39.23 S 128.54 34.19, 130 33.85 S 133.52 36.69, 135 36.92 S 138.5 35.5, 140 35.38 S 143.6 35.61, 145 36.15 S 148.57 38.79, 150 39.23 S 153.5 39.23, 155 39.23 S 158.5 39.35, 160 39.23 S 163.5 38.46, 165 38.46 S 168.5 39.11, 170 39.23 S 173.9 40.25, 175 39.23 S 179.09 31.19, 180 30 S 183.54 25.81, 185 26.15 S 189.21 33.59, 190 32.31 S 193.57 9.56, 195 10 S 199.46 33.98, 200 35.38 S 203.52 35.92, 205 36.15"
          fill="none"/>
    <circle r="4" cx="5" cy="40" fill="#3023AE"/>
    <circle r="4" cx="205" cy="36.15" fill="#C86DD7"/>      
</svg>