<svg width="200" height="50" viewBox="0 0 210 50" xmlns="http://www.w3.org/2000/svg">
    <defs>
        <linearGradient x1="0%" y1="0%" x2="100%" y2="0%" id="a">
            <stop stop-color="#3023AE" offset="0%"/>
            <stop stop-color="#C86DD7" offset="100%"/>
        </linearGradient>
    </defs>
    <path stroke="url(#a)"
          stroke-width="3"
          stroke-linejoin="round"
          stroke-linecap="round"
          d="M5 40 C 6.06 38.94, 8.66 35.67, 10 35 S 13.5 35, 15 35 S 18.5 35, 20 35 S 23.5 35, 25 35 S 29.17 36.25, 30 35 S 33.66 20.67, 35 20 S 39.17 28.75, 40 30 S 43.5 35, 45 35 S 48.66 30.67, 50 30 S 53.5 30, 55 30 S 59.17 31.25, 60 30 S 63.66 15.67, 65 15 S 69.33 23.66, 70 25 S 73.94 33.94, 75 35 S 78.5 35, 80 35 S 84.17 36.25, 85 35 S 88.5 20, 90 20 S 94.17 33.75, 95 35 S 99.44 36.39, 100 35 S 103.66 10.67, 105 10 S 109.44 28.61, 110 30 S 113.94 36.06, 115 35 S 118.66 20.67, 120 20 S 124.17 28.75, 125 30 S 128.66 34.33, 130 35 S 133.5 35, 135 35 S 138.5 35, 140 35 S 143.5 35, 145 35 S 148.5 35, 150 35"
          fill="none"/>
    <circle r="4" cx="5" cy="40" fill="#3023AE"/>
    <circle r="4" cx="150" cy="35" fill="#C86DD7"/>      
</svg>