<svg width="200" height="50" viewBox="0 0 210 50" xmlns="http://www.w3.org/2000/svg">
    <defs>
        <linearGradient x1="0%" y1="0%" x2="100%" y2="0%" id="a">
            <stop stop-color="#3023AE" offset="0%"/>
            <stop stop-color="#C86DD7" offset="100%"/>
        </linearGradient>
    </defs>
    <path stroke="url(#a)"
          stroke-width="3"
          stroke-linejoin="round"
          stroke-linecap="round"
          d="M5 40 C 6.47 39.71, 8.5 39.06, 10 39.02 S 13.94 40.82, 15 39.75 S 18.65 29.59, 20 28.93 S 24.3 36.17, 25 34.84 S 28.58 10.49, 30 10 S 34.27 30.08, 35 31.39 S 38.64 27.31, 40 27.95 S 43.84 35.12, 45 36.07 S 48.52 35.82, 50 36.07 S 53.52 37.54, 55 37.79 S 58.51 37.61, 60 37.79 S 63.52 38.77, 65 39.02 S 68.5 39.51, 70 39.51 S 73.5 39.06, 75 39.02 S 78.5 39.19, 80 39.26 S 83.51 39.66, 85 39.51 S 88.5 38.32, 90 38.28 S 93.51 39.11, 95 39.26 S 98.5 39.22, 100 39.26 S 103.5 39.44, 105 39.51 S 108.5 39.71, 110 39.75 S 113.51 39.9, 115 39.75 S 118.5 38.77, 120 38.77 S 123.51 39.6, 125 39.75 S 128.5 39.79, 130 39.75 S 133.5 39.55, 135 39.51 S 138.5 39.47, 140 39.51 S 143.5 39.82, 145 39.75 S 148.5 39.06, 150 39.02 S 153.5 39.51, 155 39.51 S 158.5 39.09, 160 39.02 S 163.5 38.98, 165 39.02 S 168.5 39.22, 170 39.26 S 173.5 39.33, 175 39.26 S 178.5 38.73, 180 38.77 S 183.51 39.36, 185 39.51 S 188.5 39.86, 190 39.75 S 193.5 38.77, 195 38.77 S 198.5 39.82, 200 39.75 S 203.56 38.7, 205 38.28"
          fill="none"/>
    <circle r="4" cx="5" cy="40" fill="#3023AE"/>
    <circle r="4" cx="205" cy="38.28" fill="#C86DD7"/>      
</svg>