<svg width="200" height="50" viewBox="0 0 210 50" xmlns="http://www.w3.org/2000/svg">
    <defs>
        <linearGradient x1="0%" y1="0%" x2="100%" y2="0%" id="a">
            <stop stop-color="#3023AE" offset="0%"/>
            <stop stop-color="#C86DD7" offset="100%"/>
        </linearGradient>
    </defs>
    <path stroke="url(#a)"
          stroke-width="3"
          stroke-linejoin="round"
          stroke-linecap="round"
          d="M5 40 C 5.25 38.52, 9.16 11.25, 10 10 S 14.44 23.72, 15 25.11 S 18.88 33.96, 20 34.96 S 23.54 33.71, 25 34.07 S 28.65 36.78, 30 37.43 S 33.52 38.63, 35 38.88 S 38.5 39.05, 40 39.1 S 43.5 39.32, 45 39.22 S 48.5 38.46, 50 38.43 S 53.51 38.84, 55 38.99 S 58.5 39.36, 60 39.44 S 63.5 39.65, 65 39.55 S 68.5 38.85, 70 38.77 S 73.51 39.12, 75 38.99 S 78.5 37.75, 80 37.87 S 83.52 39.56, 85 39.78 S 88.5 39.36, 90 39.33 S 93.5 39.57, 95 39.55 S 98.5 39.24, 100 39.22 S 103.5 39.39, 105 39.44 S 108.5 39.55, 110 39.55 S 113.5 39.42, 115 39.44 S 118.5 39.69, 120 39.66 S 123.5 39.25, 125 39.22 S 128.5 39.52, 130 39.44 S 133.5 38.68, 135 38.66 S 138.5 39.26, 140 39.33 S 143.5 39.07, 145 39.1 S 148.5 39.52, 150 39.55 S 153.5 39.41, 155 39.33 S 158.5 39.01, 160 38.99 S 163.5 39.12, 165 39.22 S 168.5 39.59, 170 39.66 S 173.5 39.71, 175 39.66 S 178.5 39.35, 180 39.33 S 183.5 39.5, 185 39.55 S 188.5 39.63, 190 39.66 S 193.5 39.81, 195 39.78 S 199.34 40.79, 200 39.44 S 204.63 20.96, 205 19.51"
          fill="none"/>
    <circle r="4" cx="5" cy="40" fill="#3023AE"/>
    <circle r="4" cx="205" cy="19.51" fill="#C86DD7"/>      
</svg>