<svg width="200" height="50" viewBox="0 0 210 50" xmlns="http://www.w3.org/2000/svg">
    <defs>
        <linearGradient x1="0%" y1="0%" x2="100%" y2="0%" id="a">
            <stop stop-color="#3023AE" offset="0%"/>
            <stop stop-color="#C86DD7" offset="100%"/>
        </linearGradient>
    </defs>
    <path stroke="url(#a)"
          stroke-width="3"
          stroke-linejoin="round"
          stroke-linecap="round"
          d="M5 40 C 5.25 38.52, 8.7 10.74, 10 10 S 14.51 32.9, 15 34.32 S 18.51 39.07, 20 39.19 S 23.52 35.38, 25 35.14 S 28.54 37.22, 30 37.57 S 33.5 37.57, 35 37.57 S 38.52 37.81, 40 37.57 S 43.5 36.07, 45 35.95 S 48.57 36.3, 50 36.76 S 53.57 39.65, 55 39.19 S 58.61 34.07, 60 33.51 S 63.52 35.38, 65 35.14 S 68.52 31.65, 70 31.89 S 73.65 36.1, 75 36.76 S 78.5 36.76, 80 36.76 S 83.5 36.64, 85 36.76 S 88.52 37.81, 90 37.57 S 93.5 35.26, 95 35.14 S 98.61 37.32, 100 36.76 S 103.52 30.84, 105 31.08 S 108.61 37.82, 110 38.38 S 113.5 35.14, 115 35.14 S 118.51 38.5, 120 38.38 S 123.52 34.56, 125 34.32 S 128.57 36.3, 130 36.76 S 133.52 37.81, 135 37.57 S 138.7 35.88, 140 35.14 S 143.51 32.01, 145 31.89 S 148.52 34.08, 150 34.32 S 153.5 33.63, 155 33.51 S 158.52 33.27, 160 33.51 S 163.57 34.68, 165 35.14 S 168.5 36.76, 170 36.76 S 173.5 35.26, 175 35.14 S 178.54 35.6, 180 35.95 S 183.5 37.57, 185 37.57 S 188.5 35.95, 190 35.95 S 193.5 37.45, 195 37.57 S 198.65 37.42, 200 36.76 S 203.84 33.65, 205 32.7"
          fill="none"/>
    <circle r="4" cx="5" cy="40" fill="#3023AE"/>
    <circle r="4" cx="205" cy="32.7" fill="#C86DD7"/>      
</svg>