<svg width="200" height="50" viewBox="0 0 210 50" xmlns="http://www.w3.org/2000/svg">
    <defs>
        <linearGradient x1="0%" y1="0%" x2="100%" y2="0%" id="a">
            <stop stop-color="#3023AE" offset="0%"/>
            <stop stop-color="#C86DD7" offset="100%"/>
        </linearGradient>
    </defs>
    <path stroke="url(#a)"
          stroke-width="3"
          stroke-linejoin="round"
          stroke-linecap="round"
          d="M5 40 C 5.25 38.52, 8.96 11.08, 10 10 S 14.4 28.16, 15 29.53 S 18.65 33.45, 20 32.79 S 23.59 24.13, 25 24.65 S 29.07 35.34, 30 36.51 S 33.51 37.04, 35 37.21 S 38.53 37.36, 40 37.67 S 43.53 39.03, 45 39.3 S 48.5 39.46, 50 39.53 S 53.5 39.73, 55 39.77 S 58.5 39.77, 60 39.77 S 63.5 39.77, 65 39.77 S 68.5 39.77, 70 39.77 S 73.5 39.77, 75 39.77 S 78.5 39.77, 80 39.77 S 83.5 39.77, 85 39.77 S 88.5 39.77, 90 39.77 S 93.5 39.77, 95 39.77 S 98.5 39.77, 100 39.77 S 103.5 39.77, 105 39.77"
          fill="none"/>
    <circle r="4" cx="5" cy="40" fill="#3023AE"/>
    <circle r="4" cx="105" cy="39.77" fill="#C86DD7"/>      
</svg>