<svg width="200" height="50" viewBox="0 0 210 50" xmlns="http://www.w3.org/2000/svg">
    <defs>
        <linearGradient x1="0%" y1="0%" x2="100%" y2="0%" id="a">
            <stop stop-color="#3023AE" offset="0%"/>
            <stop stop-color="#C86DD7" offset="100%"/>
        </linearGradient>
    </defs>
    <path stroke="url(#a)"
          stroke-width="3"
          stroke-linejoin="round"
          stroke-linecap="round"
          d="M5 40 C 6.5 39.96, 8.5 39.89, 10 39.87 S 13.5 39.87, 15 39.87 S 18.5 39.99, 20 39.87 S 23.5 39.07, 25 39.07 S 28.5 39.75, 30 39.87 S 33.5 39.87, 35 39.87 S 38.5 39.95, 40 39.87 S 43.5 39.38, 45 39.34 S 49.11 40.8, 50 39.6 S 53.56 26.28, 55 25.86 S 58.81 35.79, 60 36.7 S 63.5 33.42, 65 33.52 S 68.6 36.82, 70 37.36 S 73.5 37.34, 75 37.36 S 78.5 37.47, 80 37.49 S 83.5 37.61, 85 37.49 S 88.5 36.78, 90 36.7 S 93.7 37.71, 95 36.96 S 98.56 31.32, 100 30.88 S 103.56 33.5, 105 33.92 S 108.53 33.52, 110 33.79 S 113.51 35.61, 115 35.77 S 118.51 34.69, 120 34.85 S 123.51 36.69, 125 36.83 S 128.52 35.99, 130 35.77 S 133.5 35.29, 135 35.37 S 138.5 36.26, 140 36.3 S 143.56 36.06, 145 35.64 S 148.51 33.59, 150 33.39 S 153.52 34.08, 155 34.32 S 158.52 34.73, 160 34.98 S 163.5 35.96, 165 36.04 S 168.51 35.37, 170 35.51 S 173.53 37.27, 175 36.96 S 179.48 34.8, 180 33.39 S 183.88 11, 185 10 S 189.43 23.02, 190 24.41 S 193.87 33.46, 195 34.45 S 198.52 32.89, 200 33.13 S 203.7 35.29, 205 36.04"
          fill="none"/>
    <circle r="4" cx="5" cy="40" fill="#3023AE"/>
    <circle r="4" cx="205" cy="36.04" fill="#C86DD7"/>      
</svg>