<svg width="200" height="50" viewBox="0 0 210 50" xmlns="http://www.w3.org/2000/svg">
    <defs>
        <linearGradient x1="0%" y1="0%" x2="100%" y2="0%" id="a">
            <stop stop-color="#3023AE" offset="0%"/>
            <stop stop-color="#C86DD7" offset="100%"/>
        </linearGradient>
    </defs>
    <path stroke="url(#a)"
          stroke-width="3"
          stroke-linejoin="round"
          stroke-linecap="round"
          d="M5 40 C 5.33 38.54, 9.17 18.75, 10 17.5 S 14.17 23.75, 15 25 S 18.8 31.6, 20 32.5 S 23.5 32.5, 25 32.5 S 28.5 32.5, 30 32.5 S 33.5 32.5, 35 32.5 S 38.8 33.4, 40 32.5 S 43.8 25.9, 45 25 S 48.8 24.1, 50 25 S 53.8 31.6, 55 32.5 S 59.39 33.87, 60 32.5 S 64.17 11.25, 65 10 S 69.17 16.25, 70 17.5 S 74.17 23.75, 75 25 S 78.8 31.6, 80 32.5 S 83.8 33.4, 85 32.5 S 88.5 25, 90 25 S 93.8 31.6, 95 32.5 S 98.5 32.5, 100 32.5 S 103.5 32.5, 105 32.5 S 108.5 32.5, 110 32.5 S 113.5 32.5, 115 32.5 S 118.5 32.5, 120 32.5 S 123.5 32.5, 125 32.5 S 128.5 32.5, 130 32.5 S 133.5 32.5, 135 32.5 S 138.5 32.5, 140 32.5 S 143.5 32.5, 145 32.5 S 148.5 32.5, 150 32.5 S 153.5 32.5, 155 32.5 S 158.5 32.5, 160 32.5 S 163.5 32.5, 165 32.5 S 168.5 32.5, 170 32.5 S 173.5 32.5, 175 32.5 S 178.5 32.5, 180 32.5 S 183.8 33.4, 185 32.5 S 188.5 25, 190 25 S 194.17 31.25, 195 32.5"
          fill="none"/>
    <circle r="4" cx="5" cy="40" fill="#3023AE"/>
    <circle r="4" cx="195" cy="32.5" fill="#C86DD7"/>      
</svg>