<svg width="200" height="50" viewBox="0 0 210 50" xmlns="http://www.w3.org/2000/svg">
    <defs>
        <linearGradient x1="0%" y1="0%" x2="100%" y2="0%" id="a">
            <stop stop-color="#3023AE" offset="0%"/>
            <stop stop-color="#C86DD7" offset="100%"/>
        </linearGradient>
    </defs>
    <path stroke="url(#a)"
          stroke-width="3"
          stroke-linejoin="round"
          stroke-linecap="round"
          d="M5 40 C 5.35 38.54, 8.91 19.98, 10 18.95 S 13.88 31.5, 15 30.5 S 18.54 10.35, 20 10 S 24.51 26.68, 25 28.1 S 29.03 37.6, 30 38.75 S 33.52 40.14, 35 39.92 S 38.7 38.02, 40 37.27 S 43.54 34.54, 45 34.18 S 48.5 34.69, 50 34.81 S 53.5 34.93, 55 34.99 S 58.5 35.28, 60 35.21 S 63.51 34.65, 65 34.5 S 68.52 34.43, 70 34.18 S 73.57 33.24, 75 32.8 S 78.51 31.28, 80 31.11 S 83.59 31.13, 85 31.63 S 88.56 34.24, 90 34.66 S 93.65 35.17, 95 34.51 S 98.76 30.61, 100 29.77 S 103.56 28.14, 105 27.71 S 108.5 26.75, 110 26.81 S 113.51 28.3, 115 28.13 S 118.51 25.83, 120 25.7 S 123.5 27.13, 125 27.25 S 128.5 26.57, 130 26.47 S 133.52 26.85, 135 26.58 S 138.5 24.75, 140 24.67 S 143.54 25.74, 145 26.06 S 148.51 26.69, 150 26.87 S 153.5 27.4, 155 27.29 S 158.53 26.41, 160 26.13 S 163.5 25.46, 165 25.38 S 168.54 25.95, 170 25.6 S 173.55 23.36, 175 22.99 S 178.5 23.02, 180 23.08 S 183.52 23.13, 185 23.36 S 188.5 24.62, 190 24.63 S 193.5 23.56, 195 23.44 S 198.5 23.95, 200 23.85 S 203.53 23.11, 205 22.8"
          fill="none"/>
    <circle r="4" cx="5" cy="40" fill="#3023AE"/>
    <circle r="4" cx="205" cy="22.8" fill="#C86DD7"/>      
</svg>