<svg width="200" height="50" viewBox="0 0 210 50" xmlns="http://www.w3.org/2000/svg">
    <defs>
        <linearGradient x1="0%" y1="0%" x2="100%" y2="0%" id="a">
            <stop stop-color="#3023AE" offset="0%"/>
            <stop stop-color="#C86DD7" offset="100%"/>
        </linearGradient>
    </defs>
    <path stroke="url(#a)"
          stroke-width="3"
          stroke-linejoin="round"
          stroke-linecap="round"
          d="M5 40 C 5.25 38.52, 8.63 10.61, 10 10 S 14.51 34.17, 15 35.59 S 18.55 38.74, 20 39.12 S 23.52 38.5, 25 38.24 S 28.51 37.22, 30 37.35 S 33.52 38.86, 35 39.12 S 38.52 39.38, 40 39.12 S 43.52 37.61, 45 37.35 S 48.52 37.09, 50 37.35 S 53.51 38.99, 55 39.12 S 58.5 38.24, 60 38.24 S 63.51 38.99, 65 39.12 S 68.51 39.25, 70 39.12 S 73.5 38.24, 75 38.24 S 78.51 38.99, 80 39.12 S 83.5 39.12, 85 39.12 S 88.5 39.12, 90 39.12 S 93.51 39.25, 95 39.12 S 98.5 38.24, 100 38.24 S 103.51 39.25, 105 39.12 S 108.52 37.61, 110 37.35 S 113.52 37.09, 115 37.35 S 118.52 38.86, 120 39.12 S 123.51 39.25, 125 39.12 S 128.52 38.5, 130 38.24 S 133.51 37.22, 135 37.35 S 138.55 39.5, 140 39.12 S 143.5 34.71, 145 34.71 S 148.55 38.74, 150 39.12 S 153.52 37.61, 155 37.35 S 158.52 37.09, 160 37.35 S 163.52 38.86, 165 39.12 S 168.5 39.12, 170 39.12 S 173.5 39.12, 175 39.12 S 178.52 39.38, 180 39.12 S 183.72 38.14, 185 37.35 S 188.52 32.68, 190 32.94 S 193.72 38.33, 195 39.12 S 198.63 39.73, 200 39.12 S 203.88 35.7, 205 34.71"
          fill="none"/>
    <circle r="4" cx="5" cy="40" fill="#3023AE"/>
    <circle r="4" cx="205" cy="34.71" fill="#C86DD7"/>      
</svg>