<svg width="200" height="50" viewBox="0 0 210 50" xmlns="http://www.w3.org/2000/svg">
    <defs>
        <linearGradient x1="0%" y1="0%" x2="100%" y2="0%" id="a">
            <stop stop-color="#3023AE" offset="0%"/>
            <stop stop-color="#C86DD7" offset="100%"/>
        </linearGradient>
    </defs>
    <path stroke="url(#a)"
          stroke-width="3"
          stroke-linejoin="round"
          stroke-linecap="round"
          d="M5 40 C 6.14 39.02, 8.62 36.3, 10 35.71 S 13.5 35.71, 15 35.71 S 18.5 35.71, 20 35.71 S 23.5 35.71, 25 35.71 S 28.5 35.71, 30 35.71 S 33.5 35.71, 35 35.71 S 38.5 35.71, 40 35.71 S 43.5 35.71, 45 35.71 S 48.86 36.69, 50 35.71 S 54.46 28.54, 55 27.14 S 58.5 10, 60 10 S 64.46 25.74, 65 27.14 S 68.86 34.73, 70 35.71 S 73.5 35.71, 75 35.71 S 78.62 36.3, 80 35.71 S 83.5 31.43, 85 31.43 S 88.5 35.71, 90 35.71 S 93.62 32.02, 95 31.43 S 98.5 31.43, 100 31.43 S 103.5 31.43, 105 31.43 S 108.5 31.43, 110 31.43 S 113.5 31.43, 115 31.43 S 118.62 32.02, 120 31.43 S 123.5 27.14, 125 27.14 S 128.86 30.45, 130 31.43 S 133.62 36.3, 135 35.71 S 138.5 27.14, 140 27.14 S 143.86 34.73, 145 35.71 S 148.5 35.71, 150 35.71 S 153.5 35.71, 155 35.71 S 158.5 35.71, 160 35.71 S 163.5 35.71, 165 35.71 S 168.5 35.71, 170 35.71 S 173.5 35.71, 175 35.71 S 178.5 35.71, 180 35.71"
          fill="none"/>
    <circle r="4" cx="5" cy="40" fill="#3023AE"/>
    <circle r="4" cx="180" cy="35.71" fill="#C86DD7"/>      
</svg>