<svg width="200" height="50" viewBox="0 0 210 50" xmlns="http://www.w3.org/2000/svg">
    <defs>
        <linearGradient x1="0%" y1="0%" x2="100%" y2="0%" id="a">
            <stop stop-color="#3023AE" offset="0%"/>
            <stop stop-color="#C86DD7" offset="100%"/>
        </linearGradient>
    </defs>
    <path stroke="url(#a)"
          stroke-width="3"
          stroke-linejoin="round"
          stroke-linecap="round"
          d="M5 40 C 5.25 38.52, 8.73 10.8, 10 10 S 14.5 32.31, 15 33.72 S 18.63 37.48, 20 38.1 S 23.53 38.53, 25 38.22 S 28.53 36.27, 30 35.97 S 33.53 35.91, 35 36.21 S 38.55 37.59, 40 37.98 S 43.52 38.72, 45 38.93 S 48.52 39.67, 50 39.41 S 53.52 37.36, 55 37.15 S 58.5 37.89, 60 37.98 S 63.51 37.63, 65 37.75 S 68.51 38.65, 70 38.81 S 73.5 38.72, 75 38.81 S 78.5 39.36, 80 39.41 S 83.5 39.19, 85 39.17 S 88.5 39.27, 90 39.29 S 93.5 39.22, 95 39.29 S 98.5 39.72, 100 39.76 S 103.5 39.58, 105 39.53 S 108.5 39.38, 110 39.41 S 113.5 39.73, 115 39.76 S 118.5 39.62, 120 39.64 S 123.5 39.84, 125 39.88 S 128.5 39.92, 130 39.88 S 133.5 39.69, 135 39.64 S 138.5 39.55, 140 39.53 S 143.5 39.53, 145 39.53 S 148.5 39.53, 150 39.53 S 153.5 39.5, 155 39.53 S 158.5 39.73, 160 39.76 S 163.5 39.74, 165 39.76 S 168.5 39.9, 170 39.88 S 173.5 39.69, 175 39.64 S 178.51 39.74, 180 39.53 S 183.52 38.43, 185 38.22 S 188.5 38.21, 190 38.1 S 193.51 37.67, 195 37.51 S 198.5 36.97, 200 37.04 S 203.53 37.7, 205 37.98"
          fill="none"/>
    <circle r="4" cx="5" cy="40" fill="#3023AE"/>
    <circle r="4" cx="205" cy="37.98" fill="#C86DD7"/>      
</svg>