<svg width="200" height="50" viewBox="0 0 210 50" xmlns="http://www.w3.org/2000/svg">
    <defs>
        <linearGradient x1="0%" y1="0%" x2="100%" y2="0%" id="a">
            <stop stop-color="#3023AE" offset="0%"/>
            <stop stop-color="#C86DD7" offset="100%"/>
        </linearGradient>
    </defs>
    <path stroke="url(#a)"
          stroke-width="3"
          stroke-linejoin="round"
          stroke-linecap="round"
          d="M5 40 C 5.78 38.72, 8.55 32.22, 10 31.82 S 13.68 36.55, 15 37.27 S 18.5 37.27, 20 37.27 S 23.5 37.27, 25 37.27 S 28.5 37.27, 30 37.27 S 33.5 37.27, 35 37.27 S 38.5 37.27, 40 37.27 S 43.5 37.27, 45 37.27 S 48.68 37.99, 50 37.27 S 53.84 32.77, 55 31.82 S 58.68 28.37, 60 29.09 S 63.84 36.32, 65 37.27 S 68.5 37.27, 70 37.27 S 73.5 37.27, 75 37.27 S 78.5 37.27, 80 37.27 S 83.55 37.66, 85 37.27 S 89.11 35.76, 90 34.55 S 93.55 23.25, 95 23.64 S 98.99 36.16, 100 37.27 S 103.55 34.94, 105 34.55 S 108.84 35.5, 110 34.55 S 113.55 26.76, 115 26.36 S 119.22 33.1, 120 31.82 S 123.5 10, 125 10 S 129.38 30.46, 130 31.82 S 133.55 31.42, 135 31.82 S 138.55 34.15, 140 34.55 S 144.3 35.88, 145 34.55 S 148.5 15.45, 150 15.45 S 154.3 33.22, 155 34.55 S 158.5 34.55, 160 34.55 S 163.55 34.16, 165 34.55 S 168.68 37.99, 170 37.27 S 174.3 30.42, 175 29.09 S 179.11 19.39, 180 18.18 S 183.5 15.45, 185 15.45 S 189.3 16.85, 190 18.18 S 193.99 33.44, 195 34.55 S 198.55 29.49, 200 29.09 S 203.68 31.1, 205 31.82"
          fill="none"/>
    <circle r="4" cx="5" cy="40" fill="#3023AE"/>
    <circle r="4" cx="205" cy="31.82" fill="#C86DD7"/>      
</svg>