<svg width="200" height="50" viewBox="0 0 210 50" xmlns="http://www.w3.org/2000/svg">
    <defs>
        <linearGradient x1="0%" y1="0%" x2="100%" y2="0%" id="a">
            <stop stop-color="#3023AE" offset="0%"/>
            <stop stop-color="#C86DD7" offset="100%"/>
        </linearGradient>
    </defs>
    <path stroke="url(#a)"
          stroke-width="3"
          stroke-linejoin="round"
          stroke-linecap="round"
          d="M5 40 C 6.5 39.93, 8.5 39.86, 10 39.75 S 13.5 39.3, 15 39.26 S 18.5 39.58, 20 39.51 S 23.5 38.88, 25 38.77 S 28.5 38.66, 30 38.77 S 33.54 39.83, 35 39.51 S 38.53 36.85, 40 36.56 S 43.56 37.12, 45 37.54 S 48.54 39.19, 50 39.51 S 53.5 39.75, 55 39.75 S 58.52 39.73, 60 39.51 S 63.51 38.43, 65 38.28 S 68.5 38.45, 70 38.52 S 73.5 38.73, 75 38.77 S 78.5 38.77, 80 38.77 S 83.5 38.7, 85 38.77 S 88.51 39.44, 90 39.26 S 93.54 37.86, 95 37.54 S 98.5 37.09, 100 37.05 S 103.51 37.15, 105 37.3 S 108.52 38.29, 110 38.03 S 113.53 35.86, 115 35.57 S 118.5 36.03, 120 36.07 S 123.85 36.78, 125 35.82 S 129.46 29.1, 130 27.7 S 133.6 9.45, 135 10 S 139.4 30.27, 140 31.64 S 143.63 32.26, 145 32.87 S 148.64 35.44, 150 36.07 S 153.52 37.32, 155 37.54 S 158.52 37.76, 160 37.54 S 163.5 36.18, 165 36.07 S 168.52 37.02, 170 36.8 S 173.5 34.52, 175 34.59 S 178.75 38.13, 180 37.3 S 183.74 28.76, 185 27.95 S 188.78 30.03, 190 30.9 S 193.62 34.5, 195 35.08 S 198.51 34.9, 200 35.08 S 203.54 35.95, 205 36.31"
          fill="none"/>
    <circle r="4" cx="5" cy="40" fill="#3023AE"/>
    <circle r="4" cx="205" cy="36.31" fill="#C86DD7"/>      
</svg>