<svg width="200" height="50" viewBox="0 0 210 50" xmlns="http://www.w3.org/2000/svg">
    <defs>
        <linearGradient x1="0%" y1="0%" x2="100%" y2="0%" id="a">
            <stop stop-color="#3023AE" offset="0%"/>
            <stop stop-color="#C86DD7" offset="100%"/>
        </linearGradient>
    </defs>
    <path stroke="url(#a)"
          stroke-width="3"
          stroke-linejoin="round"
          stroke-linecap="round"
          d="M5 40 C 6.5 39.98, 8.5 39.94, 10 39.94 S 13.5 39.97, 15 39.97 S 18.5 39.97, 20 39.97 S 23.5 39.97, 25 39.97 S 28.5 39.97, 30 39.97 S 33.5 39.97, 35 39.97 S 38.5 39.97, 40 39.97 S 43.5 39.97, 45 39.97 S 48.5 39.97, 50 39.97 S 53.5 39.97, 55 39.97 S 58.5 39.97, 60 39.97 S 63.5 39.97, 65 39.97 S 68.5 39.97, 70 39.97 S 73.5 39.97, 75 39.97 S 78.5 39.97, 80 39.97 S 83.5 39.97, 85 39.97 S 88.5 39.97, 90 39.97 S 93.5 39.97, 95 39.97 S 98.5 39.97, 100 39.97 S 103.5 39.97, 105 39.97 S 108.5 39.97, 110 39.97 S 113.5 39.97, 115 39.97 S 118.5 39.97, 120 39.97 S 123.5 39.97, 125 39.97 S 128.5 39.97, 130 39.97 S 133.5 39.97, 135 39.97 S 138.5 39.97, 140 39.97 S 143.5 39.97, 145 39.97 S 148.5 39.97, 150 39.97 S 153.5 39.97, 155 39.97 S 158.5 39.99, 160 39.97 S 163.5 39.89, 165 39.81 S 168.5 39.5, 170 39.45 S 173.5 39.46, 175 39.48 S 178.5 39.52, 180 39.59 S 183.5 39.89, 185 39.92 S 188.5 39.78, 190 39.78 S 193.5 39.9, 195 39.92 S 199.52 41.31, 200 39.89 S 204.75 11.48, 205 10"
          fill="none"/>
    <circle r="4" cx="5" cy="40" fill="#3023AE"/>
    <circle r="4" cx="205" cy="10" fill="#C86DD7"/>      
</svg>