<svg width="200" height="50" viewBox="0 0 210 50" xmlns="http://www.w3.org/2000/svg">
    <defs>
        <linearGradient x1="0%" y1="0%" x2="100%" y2="0%" id="a">
            <stop stop-color="#3023AE" offset="0%"/>
            <stop stop-color="#C86DD7" offset="100%"/>
        </linearGradient>
    </defs>
    <path stroke="url(#a)"
          stroke-width="3"
          stroke-linejoin="round"
          stroke-linecap="round"
          d="M5 40 C 6.14 39.02, 8.53 36.02, 10 35.71 S 13.53 37.54, 15 37.86 S 18.5 37.86, 20 37.86 S 23.5 37.86, 25 37.86 S 28.5 37.86, 30 37.86 S 33.5 37.86, 35 37.86 S 38.98 38.96, 40 37.86 S 43.5 27.14, 45 27.14 S 48.98 36.76, 50 37.86 S 53.5 37.86, 55 37.86 S 58.5 37.86, 60 37.86 S 63.5 37.86, 65 37.86 S 68.5 37.86, 70 37.86 S 73.5 37.86, 75 37.86 S 78.62 38.45, 80 37.86 S 83.5 33.57, 85 33.57 S 88.62 37.27, 90 37.86 S 93.5 37.86, 95 37.86 S 98.5 37.86, 100 37.86 S 103.74 38.67, 105 37.86 S 108.5 31.43, 110 31.43 S 113.74 37.05, 115 37.86 S 118.5 37.86, 120 37.86 S 123.5 37.86, 125 37.86 S 129.49 39.27, 130 37.86 S 133.5 10, 135 10 S 139.49 36.45, 140 37.86 S 143.5 37.86, 145 37.86 S 148.5 37.86, 150 37.86 S 153.5 37.86, 155 37.86 S 158.5 37.86, 160 37.86 S 163.5 37.86, 165 37.86 S 168.5 37.86, 170 37.86 S 173.5 37.86, 175 37.86 S 178.5 37.86, 180 37.86 S 183.5 37.86, 185 37.86 S 188.53 38.18, 190 37.86 S 193.74 36.52, 195 35.71 S 198.5 31.43, 200 31.43 S 203.86 34.73, 205 35.71"
          fill="none"/>
    <circle r="4" cx="5" cy="40" fill="#3023AE"/>
    <circle r="4" cx="205" cy="35.71" fill="#C86DD7"/>      
</svg>