<svg width="200" height="50" viewBox="0 0 210 50" xmlns="http://www.w3.org/2000/svg">
    <defs>
        <linearGradient x1="0%" y1="0%" x2="100%" y2="0%" id="a">
            <stop stop-color="#3023AE" offset="0%"/>
            <stop stop-color="#C86DD7" offset="100%"/>
        </linearGradient>
    </defs>
    <path stroke="url(#a)"
          stroke-width="3"
          stroke-linejoin="round"
          stroke-linecap="round"
          d="M5 40 C 5.51 38.59, 8.69 26.78, 10 26.05 S 14.09 33.25, 15 34.44 S 18.53 38.79, 20 39.06 S 23.51 36.16, 25 36.29 S 28.51 39.75, 30 39.92 S 33.59 37.93, 35 37.42 S 38.51 36.5, 40 36.33 S 43.5 36.25, 45 36.26 S 48.51 36.57, 50 36.4 S 53.52 35.33, 55 35.11 S 58.5 34.88, 60 34.9 S 63.51 35.4, 65 35.25 S 68.51 34.06, 70 33.92 S 73.5 34.25, 75 34.34 S 78.54 34.87, 80 34.54 S 83.51 32.3, 85 32.11 S 88.5 33.36, 90 33.29 S 93.72 32.44, 95 31.66 S 98.55 27.65, 100 27.25 S 103.54 28.58, 105 28.93 S 108.53 29.36, 110 29.65 S 113.53 31.15, 115 30.87 S 118.53 28.06, 120 27.75 S 123.5 28.86, 125 28.75 S 129.29 28.33, 130 27.01 S 133.59 10.51, 135 10 S 139.21 22.15, 140 23.43 S 143.55 25.91, 145 26.28 S 148.5 25.99, 150 25.94 S 153.51 26.08, 155 25.94 S 158.5 25.1, 160 25 S 163.52 25.54, 165 25.29 S 168.54 23.64, 170 23.31 S 173.51 23.17, 175 23.01 S 178.53 22.57, 180 22.26 S 183.51 20.74, 185 20.87 S 188.51 23.31, 190 23.16 S 193.51 20.05, 195 19.85 S 198.5 21.75, 200 21.81 S 203.57 20.69, 205 20.24"
          fill="none"/>
    <circle r="4" cx="5" cy="40" fill="#3023AE"/>
    <circle r="4" cx="205" cy="20.24" fill="#C86DD7"/>      
</svg>