<svg width="200" height="50" viewBox="0 0 210 50" xmlns="http://www.w3.org/2000/svg">
    <defs>
        <linearGradient x1="0%" y1="0%" x2="100%" y2="0%" id="a">
            <stop stop-color="#3023AE" offset="0%"/>
            <stop stop-color="#C86DD7" offset="100%"/>
        </linearGradient>
    </defs>
    <path stroke="url(#a)"
          stroke-width="3"
          stroke-linejoin="round"
          stroke-linecap="round"
          d="M5 40 C 5.96 38.85, 8.71 34.77, 10 34 S 13.56 33.57, 15 34 S 18.56 36.57, 20 37 S 23.5 37, 25 37 S 28.5 37, 30 37 S 33.5 37, 35 37 S 38.5 37, 40 37 S 43.5 37, 45 37 S 48.5 37, 50 37 S 53.56 37.43, 55 37 S 58.5 34, 60 34 S 63.56 36.57, 65 37 S 68.5 37, 70 37 S 74.04 38.15, 75 37 S 79.04 26.15, 80 25 S 83.71 24.23, 85 25 S 88.56 30.57, 90 31 S 93.56 28.43, 95 28 S 98.71 28.77, 100 28 S 103.89 21, 105 22 S 109.17 35.75, 110 37 S 113.56 37.43, 115 37 S 119.27 35.31, 120 34 S 124.04 20.15, 125 19 S 129.17 20.75, 130 22 S 133.71 33.23, 135 34 S 138.56 28.43, 140 28 S 143.5 31, 145 31 S 148.89 29, 150 28 S 154.04 23.15, 155 22 S 158.71 15.23, 160 16 S 163.71 28.77, 165 28 S 168.71 10.77, 170 10 S 174.17 20.75, 175 22 S 178.89 26, 180 25 S 183.56 13.43, 185 13 S 189.36 20.65, 190 22 S 193.71 33.23, 195 34 S 198.5 28, 200 28 S 204.04 32.85, 205 34"
          fill="none"/>
    <circle r="4" cx="5" cy="40" fill="#3023AE"/>
    <circle r="4" cx="205" cy="34" fill="#C86DD7"/>      
</svg>