<svg width="200" height="50" viewBox="0 0 210 50" xmlns="http://www.w3.org/2000/svg">
    <defs>
        <linearGradient x1="0%" y1="0%" x2="100%" y2="0%" id="a">
            <stop stop-color="#3023AE" offset="0%"/>
            <stop stop-color="#C86DD7" offset="100%"/>
        </linearGradient>
    </defs>
    <path stroke="url(#a)"
          stroke-width="3"
          stroke-linejoin="round"
          stroke-linecap="round"
          d="M5 40 C 5.25 38.52, 8.51 10.18, 10 10 S 14.51 37.34, 15 38.76 S 18.5 39.14, 20 39.24 S 23.5 39.43, 25 39.43 S 28.5 39.2, 30 39.24 S 33.5 39.61, 35 39.71 S 38.5 39.89, 40 39.9 S 43.53 40.1, 45 39.81 S 48.55 38.27, 50 37.9 S 53.54 37.59, 55 37.24 S 58.5 35.58, 60 35.52 S 63.5 36.77, 65 36.86 S 68.5 36.06, 70 36.1 S 73.5 37.21, 75 37.14 S 78.5 35.71, 80 35.62 S 83.51 36.37, 85 36.57 S 88.51 36.81, 90 36.95 S 93.53 37.84, 95 37.52 S 98.51 34.97, 100 34.76 S 103.55 35.71, 105 36.1 S 108.51 37.29, 110 37.43 S 113.5 37.06, 115 37.05 S 118.5 37.44, 120 37.33 S 123.5 36.39, 125 36.29 S 128.51 36.53, 130 36.67 S 133.51 37.06, 135 37.24 S 138.5 37.91, 140 37.9 S 143.52 37.37, 145 37.14 S 148.5 36.49, 150 36.38 S 153.5 36.29, 155 36.38 S 158.51 36.77, 160 36.95 S 163.51 37.44, 165 37.62 S 168.52 37.94, 170 38.19 S 173.51 39.17, 175 39.33 S 178.5 39.33, 180 39.24 S 183.5 38.85, 185 38.76 S 188.5 38.58, 190 38.67 S 193.5 39.29, 195 39.33 S 198.5 38.95, 200 38.95 S 203.5 39.22, 205 39.33"
          fill="none"/>
    <circle r="4" cx="5" cy="40" fill="#3023AE"/>
    <circle r="4" cx="205" cy="39.33" fill="#C86DD7"/>      
</svg>