<svg width="200" height="50" viewBox="0 0 210 50" xmlns="http://www.w3.org/2000/svg">
    <defs>
        <linearGradient x1="0%" y1="0%" x2="100%" y2="0%" id="a">
            <stop stop-color="#3023AE" offset="0%"/>
            <stop stop-color="#C86DD7" offset="100%"/>
        </linearGradient>
    </defs>
    <path stroke="url(#a)"
          stroke-width="3"
          stroke-linejoin="round"
          stroke-linecap="round"
          d="M5 40 C 5.25 38.52, 8.94 11.06, 10 10 S 14.44 28.61, 15 30 S 18.66 34.33, 20 35 S 23.5 35, 25 35 S 28.5 35, 30 35 S 33.5 35, 35 35 S 38.5 35, 40 35 S 43.5 35, 45 35 S 48.5 35, 50 35 S 53.5 35, 55 35 S 58.5 35, 60 35 S 63.5 35, 65 35 S 68.5 35, 70 35 S 73.5 35, 75 35 S 78.5 35, 80 35 S 83.5 35, 85 35 S 88.5 35, 90 35 S 93.5 35, 95 35 S 98.5 35, 100 35 S 103.5 35, 105 35 S 108.5 35, 110 35 S 113.5 35, 115 35 S 118.66 35.67, 120 35 S 124.17 31.25, 125 30 S 128.66 19.33, 130 20 S 134.17 33.75, 135 35 S 138.5 35, 140 35 S 144.33 36.34, 145 35 S 149.17 16.25, 150 15 S 154.33 18.66, 155 20 S 159.17 33.75, 160 35 S 163.5 35, 165 35 S 168.5 35, 170 35 S 173.5 35, 175 35 S 178.66 35.67, 180 35 S 183.5 30, 185 30 S 188.5 35, 190 35 S 193.5 30, 195 30 S 198.94 33.94, 200 35"
          fill="none"/>
    <circle r="4" cx="5" cy="40" fill="#3023AE"/>
    <circle r="4" cx="200" cy="35" fill="#C86DD7"/>      
</svg>