<svg width="200" height="50" viewBox="0 0 210 50" xmlns="http://www.w3.org/2000/svg">
    <defs>
        <linearGradient x1="0%" y1="0%" x2="100%" y2="0%" id="a">
            <stop stop-color="#3023AE" offset="0%"/>
            <stop stop-color="#C86DD7" offset="100%"/>
        </linearGradient>
    </defs>
    <path stroke="url(#a)"
          stroke-width="3"
          stroke-linejoin="round"
          stroke-linecap="round"
          d="M5 40 C 6.5 40, 8.81 40.9, 10 39.99 S 14.53 33.81, 15 32.39 S 18.67 9.31, 20 10 S 24.49 36.14, 25 37.55 S 28.5 37.41, 30 37.51 S 33.5 38.3, 35 38.22 S 38.5 36.96, 40 36.96 S 43.5 38.15, 45 38.25 S 48.63 38.26, 50 37.64 S 53.52 33.92, 55 33.7 S 58.63 35.53, 60 36.14 S 63.5 38, 65 38.12 S 68.5 36.89, 70 36.91 S 73.51 38.07, 75 38.26 S 78.5 38.17, 80 38.22 S 83.5 38.59, 85 38.58 S 88.5 38.2, 90 38.15 S 93.5 38.15, 95 38.22 S 98.5 38.59, 100 38.59 S 103.51 38.38, 105 38.21 S 108.5 37.49, 110 37.47 S 113.5 38, 115 38.05 S 118.5 37.76, 120 37.78 S 123.5 38.19, 125 38.18 S 128.5 37.72, 130 37.73 S 133.5 38.18, 135 38.28 S 138.5 38.39, 140 38.39 S 143.5 38.35, 145 38.29 S 148.5 38.09, 150 38.02 S 154.27 39.15, 155 37.84 S 158.5 20.05, 160 19.93 S 164.27 35.75, 165 37.06 S 168.5 37.82, 170 37.88 S 173.56 37.89, 175 37.48 S 178.56 35.47, 180 35.04 S 183.6 35.05, 185 34.5 S 188.53 30.81, 190 31.11 S 193.68 35.8, 195 36.51 S 198.5 36.46, 200 36.46 S 203.5 36.48, 205 36.49"
          fill="none"/>
    <circle r="4" cx="5" cy="40" fill="#3023AE"/>
    <circle r="4" cx="205" cy="36.49" fill="#C86DD7"/>      
</svg>