<svg width="200" height="50" viewBox="0 0 210 50" xmlns="http://www.w3.org/2000/svg">
    <defs>
        <linearGradient x1="0%" y1="0%" x2="100%" y2="0%" id="a">
            <stop stop-color="#3023AE" offset="0%"/>
            <stop stop-color="#C86DD7" offset="100%"/>
        </linearGradient>
    </defs>
    <path stroke="url(#a)"
          stroke-width="3"
          stroke-linejoin="round"
          stroke-linecap="round"
          d="M5 40 C 5.99 38.87, 8.56 34.7, 10 34.29 S 13.62 36.55, 15 37.14 S 18.52 38.36, 20 38.57 S 23.5 38.57, 25 38.57 S 28.52 38.78, 30 38.57 S 33.56 37.55, 35 37.14 S 38.62 36.3, 40 35.71 S 43.86 33.84, 45 32.86 S 48.86 28.12, 50 27.14 S 53.7 23.55, 55 24.29 S 58.62 32.27, 60 32.86 S 63.52 28.78, 65 28.57 S 68.62 32.02, 70 31.43 S 73.7 25.03, 75 24.29 S 79.08 24.53, 80 25.71 S 83.52 36.93, 85 37.14 S 88.62 27.73, 90 27.14 S 93.52 32.65, 95 32.86 S 99.19 29.84, 100 28.57 S 103.56 17.55, 105 17.14 S 108.94 24.65, 110 25.71 S 113.7 27.88, 115 27.14 S 118.52 19.79, 120 20 S 123.94 27.51, 125 28.57 S 129.08 31.18, 130 30 S 134.24 17.01, 135 15.71 S 138.62 12.27, 140 12.86 S 144.08 18.82, 145 20 S 148.56 25.3, 150 25.71 S 153.86 21.88, 155 22.86 S 158.56 33.88, 160 34.29 S 163.94 26.77, 165 25.71 S 168.62 23.7, 170 24.29 S 173.7 30.74, 175 30 S 179.33 19.91, 180 18.57 S 183.7 9.26, 185 10 S 188.7 23.55, 190 24.29 S 193.78 16.58, 195 15.71 S 198.56 16.73, 200 17.14 S 203.56 18.16, 205 18.57"
          fill="none"/>
    <circle r="4" cx="5" cy="40" fill="#3023AE"/>
    <circle r="4" cx="205" cy="18.57" fill="#C86DD7"/>      
</svg>