<svg width="200" height="50" viewBox="0 0 210 50" xmlns="http://www.w3.org/2000/svg">
    <defs>
        <linearGradient x1="0%" y1="0%" x2="100%" y2="0%" id="a">
            <stop stop-color="#3023AE" offset="0%"/>
            <stop stop-color="#C86DD7" offset="100%"/>
        </linearGradient>
    </defs>
    <path stroke="url(#a)"
          stroke-width="3"
          stroke-linejoin="round"
          stroke-linecap="round"
          d="M5 40 C 6.48 39.76, 8.5 39.24, 10 39.18 S 13.5 39.53, 15 39.59 S 18.5 39.59, 20 39.59 S 23.5 39.59, 25 39.59 S 28.53 39.89, 30 39.59 S 33.54 37.89, 35 37.53 S 38.52 36.88, 40 37.12 S 43.54 38.82, 45 39.18 S 49.51 41.01, 50 39.59 S 53.61 10.57, 55 10 S 59.41 34.1, 60 35.48 S 64.35 34.77, 65 33.42 S 68.79 15.41, 70 14.52 S 74 24.92, 75 26.03 S 78.91 24.59, 80 25.62 S 83.68 34.77, 85 35.48 S 88.72 31.75, 90 30.96 S 93.72 28.53, 95 29.32 S 98.72 36.33, 100 37.12 S 103.52 35.72, 105 35.48 S 108.5 35.54, 110 35.48 S 113.53 34.77, 115 35.07 S 118.5 37.47, 120 37.53 S 123.5 35.42, 125 35.48 S 128.54 37.59, 130 37.95 S 133.58 38.42, 135 37.95 S 138.5 34.72, 140 34.66 S 143.54 37.17, 145 37.53 S 148.52 37.36, 150 37.12 S 153.5 35.89, 155 35.89 S 158.54 37.48, 160 37.12 S 163.54 33.78, 165 33.42 S 168.66 34, 170 34.66 S 173.5 38.42, 175 38.36 S 178.56 34.67, 180 34.25 S 183.52 35.72, 185 35.48 S 188.53 32.3, 190 32.6 S 193.61 38.1, 195 37.53 S 198.75 29.31, 200 28.49 S 203.66 30.3, 205 30.96"
          fill="none"/>
    <circle r="4" cx="5" cy="40" fill="#3023AE"/>
    <circle r="4" cx="205" cy="30.96" fill="#C86DD7"/>      
</svg>