<svg width="200" height="50" viewBox="0 0 210 50" xmlns="http://www.w3.org/2000/svg">
    <defs>
        <linearGradient x1="0%" y1="0%" x2="100%" y2="0%" id="a">
            <stop stop-color="#3023AE" offset="0%"/>
            <stop stop-color="#C86DD7" offset="100%"/>
        </linearGradient>
    </defs>
    <path stroke="url(#a)"
          stroke-width="3"
          stroke-linejoin="round"
          stroke-linecap="round"
          d="M5 40 C 5.25 38.52, 8.54 10.34, 10 10 S 14.48 36.28, 15 37.69 S 18.5 37.1, 20 37.18 S 23.5 38.17, 25 38.21 S 28.5 37.48, 30 37.44 S 33.5 37.83, 35 37.95 S 38.51 38.02, 40 38.21 S 43.51 39.04, 45 39.23 S 48.5 39.49, 50 39.49 S 53.5 39.31, 55 39.23 S 58.5 38.93, 60 38.97 S 63.5 39.41, 65 39.49 S 68.5 39.53, 70 39.49 S 73.5 39.23, 75 39.23 S 78.5 39.45, 80 39.49 S 83.57 39.93, 85 39.49 S 88.5 36.49, 90 36.41 S 93.56 38.56, 95 38.97 S 98.5 39.34, 100 39.23 S 103.5 38.13, 105 38.21 S 108.51 39.55, 110 39.74 S 113.5 39.49, 115 39.49 S 118.5 39.7, 120 39.74 S 123.51 39.89, 125 39.74 S 128.5 38.76, 130 38.72 S 133.5 39.37, 135 39.49 S 138.5 39.57, 140 39.49 S 143.5 38.93, 145 38.97 S 148.5 39.66, 150 39.74 S 153.5 39.53, 155 39.49 S 158.5 39.57, 160 39.49 S 163.5 39.01, 165 38.97 S 168.5 39.11, 170 39.23 S 173.5 39.7, 175 39.74 S 178.5 39.49, 180 39.49 S 183.5 39.74, 185 39.74 S 188.52 39.75, 190 39.49 S 193.5 37.91, 195 37.95 S 198.59 39.23, 200 39.74"
          fill="none"/>
    <circle r="4" cx="5" cy="40" fill="#3023AE"/>
    <circle r="4" cx="200" cy="39.74" fill="#C86DD7"/>      
</svg>