<svg width="200" height="50" viewBox="0 0 210 50" xmlns="http://www.w3.org/2000/svg">
    <defs>
        <linearGradient x1="0%" y1="0%" x2="100%" y2="0%" id="a">
            <stop stop-color="#3023AE" offset="0%"/>
            <stop stop-color="#C86DD7" offset="100%"/>
        </linearGradient>
    </defs>
    <path stroke="url(#a)"
          stroke-width="3"
          stroke-linejoin="round"
          stroke-linecap="round"
          d="M5 40 C 5.43 38.56, 8.52 23.55, 10 23.31 S 14.08 37.18, 15 38.37 S 18.56 36.64, 20 36.22 S 23.5 35.43, 25 35.48 S 28.51 36.44, 30 36.57 S 33.55 36.75, 35 36.35 S 38.5 33.78, 40 33.81 S 43.56 36.12, 45 36.53 S 48.5 36.56, 50 36.66 S 53.5 37.2, 55 37.23 S 58.51 37.01, 60 36.84 S 63.55 36.48, 65 36.09 S 68.74 34.97, 70 34.16 S 73.66 30.3, 75 29.63 S 78.5 29.07, 80 29.15 S 83.5 30.16, 85 30.16 S 88.53 29.43, 90 29.15 S 93.6 28.82, 95 28.27 S 98.5 25.31, 100 25.2 S 103.51 27.32, 105 27.53 S 108.68 27.31, 110 26.6 S 113.54 22.5, 115 22.17 S 118.5 24.25, 120 24.32 S 123.51 22.4, 125 22.61 S 128.55 25.34, 130 25.72 S 133.5 25.29, 135 25.2 S 138.52 24.92, 140 25.15 S 143.51 26.58, 145 26.78 S 148.5 26.48, 150 26.52 S 153.54 27.4, 155 27.04 S 158.55 24.46, 160 24.06 S 163.52 24.01, 165 24.28 S 168.51 26.09, 170 25.9 S 173.53 23.3, 175 23 S 178.58 24.32, 180 23.84 S 183.73 20.45, 185 19.66 S 188.92 18.64, 190 17.6 S 193.64 10.64, 195 10 S 199.02 11.77, 200 12.9 S 204.25 20.25, 205 21.55"
          fill="none"/>
    <circle r="4" cx="5" cy="40" fill="#3023AE"/>
    <circle r="4" cx="205" cy="21.55" fill="#C86DD7"/>      
</svg>