<svg width="200" height="50" viewBox="0 0 210 50" xmlns="http://www.w3.org/2000/svg">
    <defs>
        <linearGradient x1="0%" y1="0%" x2="100%" y2="0%" id="a">
            <stop stop-color="#3023AE" offset="0%"/>
            <stop stop-color="#C86DD7" offset="100%"/>
        </linearGradient>
    </defs>
    <path stroke="url(#a)"
          stroke-width="3"
          stroke-linejoin="round"
          stroke-linecap="round"
          d="M5 40 C 5.71 38.68, 8.53 31.04, 10 30.76 S 13.85 37.11, 15 38.07 S 18.51 38.95, 20 39.14 S 23.5 39.29, 25 39.32 S 28.5 39.38, 30 39.36 S 33.5 39.26, 35 39.21 S 38.51 39.21, 40 39.03 S 43.5 37.98, 45 38 S 48.5 39.03, 50 39.14 S 53.5 38.75, 55 38.71 S 58.5 38.78, 60 38.85 S 63.5 39.19, 65 39.21 S 68.5 38.99, 70 39 S 73.5 39.29, 75 39.28 S 78.5 38.95, 80 38.96 S 83.5 39.37, 85 39.36 S 88.51 39.01, 90 38.89 S 93.5 38.53, 95 38.53 S 98.52 39.15, 100 38.89 S 103.5 36.77, 105 36.78 S 108.54 38.63, 110 38.96 S 113.5 39.07, 115 39.03 S 118.5 38.71, 120 38.68 S 123.5 38.93, 125 38.85 S 128.53 38.45, 130 38.14 S 133.5 36.61, 135 36.71 S 138.52 38.51, 140 38.78 S 143.5 38.57, 145 38.53 S 148.51 38.65, 150 38.53 S 153.5 37.76, 155 37.71 S 158.5 38.15, 160 38.21 S 163.5 38.18, 165 38.1 S 168.5 37.75, 170 37.67 S 173.5 37.54, 175 37.57 S 179.49 39.3, 180 37.89 S 183.52 10.21, 185 10 S 189.48 35.05, 190 36.46 S 193.51 36.78, 195 36.96 S 198.53 37.94, 200 37.64 S 203.68 35.64, 205 34.92"
          fill="none"/>
    <circle r="4" cx="5" cy="40" fill="#3023AE"/>
    <circle r="4" cx="205" cy="34.92" fill="#C86DD7"/>      
</svg>