<svg width="200" height="50" viewBox="0 0 210 50" xmlns="http://www.w3.org/2000/svg">
    <defs>
        <linearGradient x1="0%" y1="0%" x2="100%" y2="0%" id="a">
            <stop stop-color="#3023AE" offset="0%"/>
            <stop stop-color="#C86DD7" offset="100%"/>
        </linearGradient>
    </defs>
    <path stroke="url(#a)"
          stroke-width="3"
          stroke-linejoin="round"
          stroke-linecap="round"
          d="M5 40 C 6.32 39.28, 8.55 37.67, 10 37.27 S 13.5 37.27, 15 37.27 S 18.5 37.27, 20 37.27 S 23.5 37.27, 25 37.27 S 28.5 37.27, 30 37.27 S 33.5 37.27, 35 37.27 S 38.5 37.27, 40 37.27 S 43.5 37.27, 45 37.27 S 48.5 37.27, 50 37.27 S 53.5 37.27, 55 37.27 S 58.5 37.27, 60 37.27 S 63.5 37.27, 65 37.27 S 68.5 37.27, 70 37.27 S 73.5 37.27, 75 37.27 S 78.5 37.27, 80 37.27 S 83.5 37.27, 85 37.27 S 88.5 37.27, 90 37.27 S 93.5 37.27, 95 37.27 S 98.55 37.66, 100 37.27 S 103.55 34.94, 105 34.55 S 108.55 34.95, 110 34.55 S 113.55 31.43, 115 31.82 S 118.68 36.55, 120 37.27 S 123.55 37.66, 125 37.27 S 129.3 35.88, 130 34.55 S 133.55 18.58, 135 18.18 S 139.22 30.54, 140 31.82 S 143.68 33.83, 145 34.55 S 148.68 37.99, 150 37.27 S 153.5 29.09, 155 29.09 S 158.68 36.55, 160 37.27 S 163.99 35.66, 165 34.55 S 168.99 27.47, 170 26.36 S 173.68 22.92, 175 23.64 S 178.84 30.87, 180 31.82 S 183.84 32.77, 185 31.82 S 189.38 25, 190 23.64 S 193.84 10.95, 195 10 S 199.11 14.24, 200 15.45 S 204.22 22.36, 205 23.64"
          fill="none"/>
    <circle r="4" cx="5" cy="40" fill="#3023AE"/>
    <circle r="4" cx="205" cy="23.64" fill="#C86DD7"/>      
</svg>