<svg width="200" height="50" viewBox="0 0 210 50" xmlns="http://www.w3.org/2000/svg">
    <defs>
        <linearGradient x1="0%" y1="0%" x2="100%" y2="0%" id="a">
            <stop stop-color="#3023AE" offset="0%"/>
            <stop stop-color="#C86DD7" offset="100%"/>
        </linearGradient>
    </defs>
    <path stroke="url(#a)"
          stroke-width="3"
          stroke-linejoin="round"
          stroke-linecap="round"
          d="M5 40 C 5.34 38.54, 8.56 19.21, 10 18.8 S 14.31 35.8, 15 37.13 S 18.5 38.02, 20 38.02 S 23.51 36.97, 25 37.13 S 28.53 38.78, 30 39.1 S 33.5 39.28, 35 39.28 S 38.56 39.51, 40 39.1 S 43.53 36.7, 45 36.41 S 48.52 37.34, 50 37.13 S 53.51 35.16, 55 34.97 S 58.51 35.68, 60 35.87 S 63.52 35.97, 65 36.23 S 68.5 37.58, 70 37.66 S 73.5 36.77, 75 36.77 S 78.5 37.61, 80 37.66 S 83.5 37.1, 85 37.13 S 88.5 37.76, 90 37.84 S 93.55 38.05, 95 37.66 S 98.53 35.44, 100 35.15 S 103.53 35.4, 105 35.69 S 108.51 36.97, 110 37.13 S 113.5 36.8, 115 36.77 S 118.51 37.08, 120 36.95 S 124.48 37.28, 125 35.87 S 128.67 10.69, 130 10 S 134.46 29.26, 135 30.66 S 138.6 35.5, 140 36.05 S 143.59 35.12, 145 34.61 S 148.51 32.65, 150 32.46 S 153.51 33.16, 155 33.35 S 158.5 33.68, 160 33.71 S 163.5 33.58, 165 33.53 S 168.52 33.08, 170 33.35 S 173.58 34.84, 175 35.33 S 178.5 36.72, 180 36.77 S 183.52 35.93, 185 35.69 S 188.5 35.18, 190 35.15 S 193.52 35.3, 195 35.51 S 198.73 37.39, 200 36.59 S 204.16 30.46, 205 29.22"
          fill="none"/>
    <circle r="4" cx="5" cy="40" fill="#3023AE"/>
    <circle r="4" cx="205" cy="29.22" fill="#C86DD7"/>      
</svg>