<svg width="200" height="50" viewBox="0 0 210 50" xmlns="http://www.w3.org/2000/svg">
    <defs>
        <linearGradient x1="0%" y1="0%" x2="100%" y2="0%" id="a">
            <stop stop-color="#3023AE" offset="0%"/>
            <stop stop-color="#C86DD7" offset="100%"/>
        </linearGradient>
    </defs>
    <path stroke="url(#a)"
          stroke-width="3"
          stroke-linejoin="round"
          stroke-linecap="round"
          d="M5 40 C 5.28 38.53, 8.58 14.06, 10 13.58 S 14.42 35.26, 15 36.64 S 18.5 37.34, 20 37.31 S 23.52 36.19, 25 36.42 S 28.55 38.49, 30 38.88 S 33.5 39.1, 35 39.1 S 38.59 39.39, 40 38.88 S 43.54 35.88, 45 35.52 S 48.51 36.55, 50 36.42 S 53.54 34.96, 55 34.63 S 58.5 34.11, 60 34.18 S 63.57 34.62, 65 35.07 S 68.51 37.18, 70 37.31 S 73.5 35.97, 75 35.97 S 78.5 37.31, 80 37.31 S 83.5 35.9, 85 35.97 S 88.51 37.56, 90 37.76 S 93.61 37.87, 95 37.31 S 98.56 34.15, 100 33.73 S 103.55 34.01, 105 34.4 S 108.53 36.12, 110 36.42 S 113.5 36.45, 115 36.42 S 118.52 36.45, 120 36.19 S 124.46 36.03, 125 34.63 S 129.11 11.21, 130 10 S 134.45 19.57, 135 20.97 S 139.07 34.34, 140 35.52 S 143.64 34.37, 145 33.73 S 148.51 31.02, 150 30.82 S 153.5 32.39, 155 32.39 S 158.5 30.85, 160 30.82 S 163.52 31.93, 165 32.16 S 168.52 32.12, 170 32.39 S 173.54 33.63, 175 33.96 S 178.51 34.43, 180 34.63 S 183.5 35.33, 185 35.3 S 188.51 34.6, 190 34.4 S 193.5 33.86, 195 33.96 S 198.78 35.94, 200 35.07 S 204.22 28.07, 205 26.79"
          fill="none"/>
    <circle r="4" cx="5" cy="40" fill="#3023AE"/>
    <circle r="4" cx="205" cy="26.79" fill="#C86DD7"/>      
</svg>