<svg width="200" height="50" viewBox="0 0 210 50" xmlns="http://www.w3.org/2000/svg">
    <defs>
        <linearGradient x1="0%" y1="0%" x2="100%" y2="0%" id="a">
            <stop stop-color="#3023AE" offset="0%"/>
            <stop stop-color="#C86DD7" offset="100%"/>
        </linearGradient>
    </defs>
    <path stroke="url(#a)"
          stroke-width="3"
          stroke-linejoin="round"
          stroke-linecap="round"
          d="M5 40 C 6.5 40, 8.5 39.99, 10 39.99 S 13.95 41.05, 15 39.98 S 19.53 31.27, 20 29.85 S 23.85 9.03, 25 10 S 29.5 36.87, 30 38.29 S 33.5 38.47, 35 38.51 S 38.5 38.52, 40 38.55 S 43.5 38.68, 45 38.73 S 48.5 38.88, 50 38.89 S 53.5 38.81, 55 38.78 S 58.5 38.76, 60 38.69 S 63.5 38.33, 65 38.29 S 68.5 38.38, 70 38.41 S 73.5 38.53, 75 38.51 S 78.5 38.33, 80 38.29 S 83.5 38.25, 85 38.25 S 88.5 38.32, 90 38.32 S 93.5 38.27, 95 38.24 S 98.5 38.12, 100 38.09 S 103.5 38.01, 105 38.03 S 108.5 38.23, 110 38.24 S 113.5 38.09, 115 38.09 S 118.5 38.23, 120 38.23 S 123.5 38.2, 125 38.1 S 128.5 37.62, 130 37.57 S 133.5 37.72, 135 37.74 S 138.5 37.67, 140 37.69 S 143.5 37.84, 145 37.9 S 148.5 38.05, 150 38.11 S 153.5 38.33, 155 38.33 S 158.5 38.21, 160 38.14 S 163.5 37.86, 165 37.84 S 168.5 38, 170 38.03 S 173.5 38.05, 175 38.06 S 178.5 38.09, 180 38.13 S 183.5 38.36, 185 38.36 S 188.5 38.15, 190 38.13 S 193.5 38.25, 195 38.21 S 198.5 37.87, 200 37.84 S 203.5 37.97, 205 38.03"
          fill="none"/>
    <circle r="4" cx="5" cy="40" fill="#3023AE"/>
    <circle r="4" cx="205" cy="38.03" fill="#C86DD7"/>      
</svg>