<svg width="200" height="50" viewBox="0 0 210 50" xmlns="http://www.w3.org/2000/svg">
    <defs>
        <linearGradient x1="0%" y1="0%" x2="100%" y2="0%" id="a">
            <stop stop-color="#3023AE" offset="0%"/>
            <stop stop-color="#C86DD7" offset="100%"/>
        </linearGradient>
    </defs>
    <path stroke="url(#a)"
          stroke-width="3"
          stroke-linejoin="round"
          stroke-linecap="round"
          d="M5 40 C 6.5 40, 8.5 39.99, 10 39.99 S 13.94 41.04, 15 39.98 S 19.53 31.44, 20 30.02 S 23.84 9.04, 25 10 S 29.5 36.88, 30 38.3 S 33.5 38.44, 35 38.48 S 38.5 38.54, 40 38.58 S 43.5 38.74, 45 38.76 S 48.5 38.76, 50 38.74 S 53.5 38.72, 55 38.65 S 58.5 38.31, 60 38.26 S 63.5 38.29, 65 38.31 S 68.5 38.43, 70 38.4 S 73.5 38.17, 75 38.13 S 78.5 38.14, 80 38.16 S 83.5 38.26, 85 38.26 S 88.5 38.23, 90 38.17 S 93.5 37.89, 95 37.87 S 98.5 38.01, 100 38.03 S 103.5 37.97, 105 37.98 S 108.5 38.1, 110 38.12 S 113.5 38.18, 115 38.09 S 118.5 37.64, 120 37.55 S 123.5 37.51, 125 37.51 S 128.5 37.49, 130 37.54 S 133.5 37.73, 135 37.82 S 138.5 38.05, 140 38.11 S 143.5 38.2, 145 38.19 S 148.5 38.11, 150 38.03 S 153.5 37.65, 155 37.64 S 158.5 37.88, 160 37.94 S 163.5 37.99, 165 38.03 S 168.5 38.23, 170 38.23 S 173.5 38.02, 175 38.02 S 178.5 38.25, 180 38.23 S 183.5 37.91, 185 37.87 S 188.5 37.93, 190 37.97 S 193.5 38.13, 195 38.15 S 198.5 38.12, 200 38.11 S 203.5 38.07, 205 38.05"
          fill="none"/>
    <circle r="4" cx="5" cy="40" fill="#3023AE"/>
    <circle r="4" cx="205" cy="38.05" fill="#C86DD7"/>      
</svg>