<svg width="200" height="50" viewBox="0 0 210 50" xmlns="http://www.w3.org/2000/svg">
    <defs>
        <linearGradient x1="0%" y1="0%" x2="100%" y2="0%" id="a">
            <stop stop-color="#3023AE" offset="0%"/>
            <stop stop-color="#C86DD7" offset="100%"/>
        </linearGradient>
    </defs>
    <path stroke="url(#a)"
          stroke-width="3"
          stroke-linejoin="round"
          stroke-linecap="round"
          d="M5 40 C 6.5 40, 8.5 39.99, 10 39.99 S 13.94 41.05, 15 39.98 S 19.53 31.31, 20 29.89 S 23.85 9.03, 25 10 S 29.5 36.9, 30 38.32 S 33.5 38.5, 35 38.53 S 38.5 38.49, 40 38.52 S 43.5 38.68, 45 38.73 S 48.5 38.83, 50 38.84 S 53.5 38.82, 55 38.79 S 58.5 38.7, 60 38.61 S 63.5 38.22, 65 38.21 S 68.5 38.48, 70 38.51 S 73.5 38.43, 75 38.39 S 78.5 38.3, 80 38.26 S 83.5 38.12, 85 38.14 S 88.5 38.39, 90 38.41 S 93.5 38.32, 95 38.25 S 98.5 37.97, 100 37.94 S 103.5 38.02, 105 38.05 S 108.5 38.12, 110 38.14 S 113.5 38.2, 115 38.21 S 118.5 38.29, 120 38.23 S 123.5 37.92, 125 37.82 S 128.5 37.6, 130 37.57 S 133.5 37.55, 135 37.59 S 138.5 37.77, 140 37.82 S 143.5 37.85, 145 37.92 S 148.5 38.27, 150 38.31 S 153.5 38.22, 155 38.18 S 158.5 38.11, 160 38.06 S 163.5 37.85, 165 37.84 S 168.5 37.96, 170 38 S 173.5 38.04, 175 38.08 S 178.5 38.26, 180 38.27 S 183.5 38.18, 185 38.17 S 188.5 38.2, 190 38.17 S 193.5 38.02, 195 37.99 S 198.5 37.94, 200 37.97 S 203.5 38.12, 205 38.19"
          fill="none"/>
    <circle r="4" cx="5" cy="40" fill="#3023AE"/>
    <circle r="4" cx="205" cy="38.19" fill="#C86DD7"/>      
</svg>