<svg width="200" height="50" viewBox="0 0 210 50" xmlns="http://www.w3.org/2000/svg">
    <defs>
        <linearGradient x1="0%" y1="0%" x2="100%" y2="0%" id="a">
            <stop stop-color="#3023AE" offset="0%"/>
            <stop stop-color="#C86DD7" offset="100%"/>
        </linearGradient>
    </defs>
    <path stroke="url(#a)"
          stroke-width="3"
          stroke-linejoin="round"
          stroke-linecap="round"
          d="M5 40 C 6.5 40, 8.5 39.99, 10 39.99 S 13.95 41.05, 15 39.98 S 19.53 31.26, 20 29.84 S 23.86 9.03, 25 10 S 29.5 36.91, 30 38.33 S 33.5 38.45, 35 38.49 S 38.5 38.54, 40 38.57 S 43.5 38.67, 45 38.72 S 48.5 38.88, 50 38.89 S 53.5 38.82, 55 38.79 S 58.5 38.78, 60 38.71 S 63.5 38.33, 65 38.29 S 68.5 38.41, 70 38.44 S 73.5 38.5, 75 38.48 S 78.5 38.33, 80 38.3 S 83.5 38.32, 85 38.31 S 88.5 38.25, 90 38.25 S 93.5 38.3, 95 38.28 S 98.5 38.16, 100 38.12 S 103.5 38, 105 38.02 S 108.5 38.22, 110 38.23 S 113.5 38.11, 115 38.11 S 118.5 38.19, 120 38.2 S 123.5 38.27, 125 38.18 S 128.5 37.66, 130 37.59 S 133.5 37.68, 135 37.7 S 138.5 37.67, 140 37.7 S 143.5 37.83, 145 37.89 S 148.5 38.03, 150 38.1 S 153.5 38.32, 155 38.33 S 158.5 38.21, 160 38.16 S 163.5 38.05, 165 38.01 S 168.5 37.86, 170 37.88 S 173.5 38.15, 175 38.17 S 178.5 37.99, 180 38.02 S 183.5 38.37, 185 38.38 S 188.5 38.09, 190 38.07 S 193.5 38.24, 195 38.22 S 198.5 37.96, 200 37.93 S 203.5 37.99, 205 38.02"
          fill="none"/>
    <circle r="4" cx="5" cy="40" fill="#3023AE"/>
    <circle r="4" cx="205" cy="38.02" fill="#C86DD7"/>      
</svg>