<svg width="200" height="50" viewBox="0 0 210 50" xmlns="http://www.w3.org/2000/svg">
    <defs>
        <linearGradient x1="0%" y1="0%" x2="100%" y2="0%" id="a">
            <stop stop-color="#3023AE" offset="0%"/>
            <stop stop-color="#C86DD7" offset="100%"/>
        </linearGradient>
    </defs>
    <path stroke="url(#a)"
          stroke-width="3"
          stroke-linejoin="round"
          stroke-linecap="round"
          d="M5 40 C 6.5 40, 8.5 39.99, 10 39.99 S 14.53 41.41, 15 39.99 S 18.52 10.24, 20 10 S 24.51 36.97, 25 38.39 S 28.5 38.57, 30 38.61 S 33.5 38.65, 35 38.69 S 38.5 38.85, 40 38.88 S 43.5 38.9, 45 38.86 S 48.5 38.65, 50 38.58 S 53.5 38.41, 55 38.4 S 58.5 38.5, 60 38.5 S 63.5 38.45, 65 38.41 S 68.5 38.25, 70 38.25 S 73.5 38.41, 75 38.39 S 78.5 38.17, 80 38.14 S 83.5 38.21, 85 38.22 S 88.5 38.2, 90 38.21 S 93.5 38.34, 95 38.31 S 98.5 38.06, 100 37.98 S 103.5 37.8, 105 37.77 S 108.5 37.76, 110 37.79 S 113.5 37.91, 115 38 S 118.5 38.38, 120 38.42 S 123.5 38.37, 125 38.3 S 128.5 37.99, 130 37.97 S 133.5 38.09, 135 38.14 S 138.5 38.24, 140 38.28 S 143.5 38.45, 145 38.44 S 148.5 38.27, 150 38.24 S 153.5 38.22, 155 38.22 S 158.5 38.19, 160 38.22 S 163.5 38.39, 165 38.4 S 168.5 38.3, 170 38.31 S 173.5 38.4, 175 38.45 S 178.5 38.69, 180 38.65 S 183.5 38.25, 185 38.21 S 188.5 38.35, 190 38.4 S 193.5 38.5, 195 38.54 S 198.5 38.61, 200 38.67 S 203.5 38.85, 205 38.92"
          fill="none"/>
    <circle r="4" cx="5" cy="40" fill="#3023AE"/>
    <circle r="4" cx="205" cy="38.92" fill="#C86DD7"/>      
</svg>