<svg width="200" height="50" viewBox="0 0 210 50" xmlns="http://www.w3.org/2000/svg">
    <defs>
        <linearGradient x1="0%" y1="0%" x2="100%" y2="0%" id="a">
            <stop stop-color="#3023AE" offset="0%"/>
            <stop stop-color="#C86DD7" offset="100%"/>
        </linearGradient>
    </defs>
    <path stroke="url(#a)"
          stroke-width="3"
          stroke-linejoin="round"
          stroke-linecap="round"
          d="M5 40 C 6.5 40, 8.5 39.99, 10 39.99 S 13.94 41.04, 15 39.98 S 19.53 31.35, 20 29.93 S 23.85 9.04, 25 10 S 29.5 36.91, 30 38.33 S 33.5 38.48, 35 38.52 S 38.5 38.55, 40 38.58 S 43.5 38.69, 45 38.72 S 48.5 38.77, 50 38.78 S 53.5 38.83, 55 38.8 S 58.5 38.65, 60 38.56 S 63.5 38.18, 65 38.17 S 68.5 38.49, 70 38.49 S 73.5 38.2, 75 38.19 S 78.5 38.43, 80 38.41 S 83.5 38.06, 85 38.05 S 88.5 38.36, 90 38.37 S 93.5 38.21, 95 38.15 S 98.5 37.96, 100 37.96 S 103.5 38.11, 105 38.12 S 108.5 38.03, 110 38.04 S 113.5 38.19, 115 38.2 S 118.5 38.2, 120 38.12 S 123.5 37.73, 125 37.65 S 128.5 37.57, 130 37.57 S 133.5 37.62, 135 37.66 S 138.5 37.78, 140 37.84 S 143.5 37.98, 145 38.05 S 148.5 38.32, 150 38.32 S 153.5 38.15, 155 38.07 S 158.5 37.78, 160 37.78 S 163.5 38.01, 165 38.05 S 168.5 38.02, 170 38.02 S 173.5 38.02, 175 38.06 S 178.5 38.28, 180 38.28 S 183.5 38.08, 185 38.07 S 188.5 38.27, 190 38.23 S 193.5 37.82, 195 37.8 S 198.5 38.02, 200 38.09 S 203.5 38.21, 205 38.26"
          fill="none"/>
    <circle r="4" cx="5" cy="40" fill="#3023AE"/>
    <circle r="4" cx="205" cy="38.26" fill="#C86DD7"/>      
</svg>