<svg width="200" height="50" viewBox="0 0 210 50" xmlns="http://www.w3.org/2000/svg">
    <defs>
        <linearGradient x1="0%" y1="0%" x2="100%" y2="0%" id="a">
            <stop stop-color="#3023AE" offset="0%"/>
            <stop stop-color="#C86DD7" offset="100%"/>
        </linearGradient>
    </defs>
    <path stroke="url(#a)"
          stroke-width="3"
          stroke-linejoin="round"
          stroke-linecap="round"
          d="M5 40 C 6.5 40, 8.5 39.99, 10 39.99 S 14.53 41.41, 15 39.99 S 18.52 10.23, 20 10 S 24.5 36.99, 25 38.41 S 28.5 38.56, 30 38.6 S 33.5 38.67, 35 38.71 S 38.5 38.87, 40 38.89 S 43.5 38.88, 45 38.84 S 48.5 38.7, 50 38.63 S 53.5 38.39, 55 38.38 S 58.5 38.57, 60 38.57 S 63.5 38.4, 65 38.35 S 68.5 38.25, 70 38.26 S 73.5 38.44, 75 38.43 S 78.5 38.23, 80 38.19 S 83.5 38.18, 85 38.19 S 88.5 38.21, 90 38.23 S 93.5 38.33, 95 38.31 S 98.5 38.15, 100 38.07 S 103.5 37.83, 105 37.79 S 108.5 37.76, 110 37.79 S 113.5 37.93, 115 38.01 S 118.5 38.26, 120 38.31 S 123.5 38.36, 125 38.32 S 128.5 38.1, 130 38.07 S 133.5 38.06, 135 38.09 S 138.5 38.24, 140 38.29 S 143.5 38.42, 145 38.42 S 148.5 38.32, 150 38.3 S 153.5 38.3, 155 38.28 S 158.5 38.15, 160 38.16 S 163.5 38.34, 165 38.37 S 168.5 38.36, 170 38.36 S 173.5 38.34, 175 38.4 S 178.5 38.76, 180 38.74 S 183.5 38.3, 185 38.24 S 188.5 38.32, 190 38.36 S 193.5 38.45, 195 38.49 S 198.5 38.57, 200 38.63 S 203.5 38.81, 205 38.89"
          fill="none"/>
    <circle r="4" cx="5" cy="40" fill="#3023AE"/>
    <circle r="4" cx="205" cy="38.89" fill="#C86DD7"/>      
</svg>