<svg width="200" height="50" viewBox="0 0 210 50" xmlns="http://www.w3.org/2000/svg">
    <defs>
        <linearGradient x1="0%" y1="0%" x2="100%" y2="0%" id="a">
            <stop stop-color="#3023AE" offset="0%"/>
            <stop stop-color="#C86DD7" offset="100%"/>
        </linearGradient>
    </defs>
    <path stroke="url(#a)"
          stroke-width="3"
          stroke-linejoin="round"
          stroke-linecap="round"
          d="M5 40 C 6.5 40, 8.5 39.99, 10 39.99 S 13.94 41.04, 15 39.98 S 19.53 31.37, 20 29.95 S 23.85 9.04, 25 10 S 29.5 36.93, 30 38.35 S 33.5 38.47, 35 38.5 S 38.5 38.5, 40 38.54 S 43.5 38.73, 45 38.76 S 48.5 38.76, 50 38.77 S 53.5 38.84, 55 38.8 S 58.5 38.58, 60 38.49 S 63.5 38.18, 65 38.18 S 68.5 38.48, 70 38.48 S 73.5 38.23, 75 38.21 S 78.5 38.39, 80 38.36 S 83.5 38.04, 85 38.04 S 88.5 38.32, 90 38.33 S 93.5 38.16, 95 38.1 S 98.5 37.92, 100 37.93 S 103.5 38.15, 105 38.17 S 108.5 38.05, 110 38.05 S 113.5 38.18, 115 38.18 S 118.5 38.15, 120 38.05 S 123.5 37.56, 125 37.5 S 128.5 37.63, 130 37.65 S 133.5 37.61, 135 37.64 S 138.5 37.79, 140 37.87 S 143.5 38.13, 145 38.18 S 148.5 38.23, 150 38.21 S 153.5 38.13, 155 38.05 S 158.5 37.7, 160 37.69 S 163.5 37.94, 165 38 S 168.5 38.05, 170 38.09 S 173.5 38.24, 175 38.25 S 178.5 38.15, 180 38.13 S 183.5 38.15, 185 38.13 S 188.5 38.04, 190 38.01 S 193.5 37.93, 195 37.95 S 198.5 38.12, 200 38.16 S 203.5 38.18, 205 38.19"
          fill="none"/>
    <circle r="4" cx="5" cy="40" fill="#3023AE"/>
    <circle r="4" cx="205" cy="38.19" fill="#C86DD7"/>      
</svg>