<svg width="200" height="50" viewBox="0 0 210 50" xmlns="http://www.w3.org/2000/svg">
    <defs>
        <linearGradient x1="0%" y1="0%" x2="100%" y2="0%" id="a">
            <stop stop-color="#3023AE" offset="0%"/>
            <stop stop-color="#C86DD7" offset="100%"/>
        </linearGradient>
    </defs>
    <path stroke="url(#a)"
          stroke-width="3"
          stroke-linejoin="round"
          stroke-linecap="round"
          d="M5 40 C 6.5 40, 8.5 39.99, 10 39.99 S 13.95 41.05, 15 39.98 S 19.53 31.27, 20 29.85 S 23.85 9.03, 25 10 S 29.5 36.87, 30 38.29 S 33.5 38.47, 35 38.51 S 38.5 38.51, 40 38.54 S 43.5 38.69, 45 38.74 S 48.5 38.85, 50 38.86 S 53.5 38.83, 55 38.8 S 58.5 38.75, 60 38.67 S 63.5 38.31, 65 38.27 S 68.5 38.36, 70 38.4 S 73.5 38.58, 75 38.55 S 78.5 38.27, 80 38.23 S 83.5 38.27, 85 38.28 S 88.5 38.31, 90 38.31 S 93.5 38.29, 95 38.25 S 98.5 38.09, 100 38.06 S 103.5 38.05, 105 38.07 S 108.5 38.2, 110 38.21 S 113.5 38.12, 115 38.12 S 118.5 38.19, 120 38.19 S 123.5 38.18, 125 38.09 S 128.5 37.62, 130 37.56 S 133.5 37.66, 135 37.68 S 138.5 37.65, 140 37.69 S 143.5 37.86, 145 37.93 S 148.5 38.12, 150 38.17 S 153.5 38.29, 155 38.28 S 158.5 38.19, 160 38.12 S 163.5 37.83, 165 37.82 S 168.5 38.05, 170 38.08 S 173.5 38.04, 175 38.05 S 178.5 38.11, 180 38.15 S 183.5 38.36, 185 38.35 S 188.5 38.07, 190 38.05 S 193.5 38.21, 195 38.19 S 198.5 37.92, 200 37.9 S 203.5 37.99, 205 38.03"
          fill="none"/>
    <circle r="4" cx="5" cy="40" fill="#3023AE"/>
    <circle r="4" cx="205" cy="38.03" fill="#C86DD7"/>      
</svg>