<svg width="200" height="50" viewBox="0 0 210 50" xmlns="http://www.w3.org/2000/svg">
    <defs>
        <linearGradient x1="0%" y1="0%" x2="100%" y2="0%" id="a">
            <stop stop-color="#3023AE" offset="0%"/>
            <stop stop-color="#C86DD7" offset="100%"/>
        </linearGradient>
    </defs>
    <path stroke="url(#a)"
          stroke-width="3"
          stroke-linejoin="round"
          stroke-linecap="round"
          d="M5 40 C 6.5 40, 8.5 39.99, 10 39.99 S 13.95 41.05, 15 39.98 S 19.53 31.26, 20 29.84 S 23.86 9.03, 25 10 S 29.5 36.91, 30 38.33 S 33.5 38.45, 35 38.49 S 38.5 38.54, 40 38.57 S 43.5 38.67, 45 38.72 S 48.5 38.9, 50 38.91 S 53.5 38.82, 55 38.79 S 58.5 38.78, 60 38.71 S 63.5 38.4, 65 38.35 S 68.5 38.37, 70 38.39 S 73.5 38.5, 75 38.49 S 78.5 38.33, 80 38.31 S 83.5 38.36, 85 38.35 S 88.5 38.22, 90 38.21 S 93.5 38.31, 95 38.3 S 98.5 38.21, 100 38.17 S 103.5 37.99, 105 38 S 108.5 38.23, 110 38.24 S 113.5 38.07, 115 38.07 S 118.5 38.24, 120 38.26 S 123.5 38.26, 125 38.18 S 128.5 37.78, 130 37.7 S 133.5 37.67, 135 37.66 S 138.5 37.62, 140 37.66 S 143.5 37.86, 145 37.92 S 148.5 38, 150 38.06 S 153.5 38.31, 155 38.33 S 158.5 38.21, 160 38.17 S 163.5 38.12, 165 38.07 S 168.5 37.81, 170 37.82 S 173.5 38.13, 175 38.16 S 178.5 38, 180 38.03 S 183.5 38.32, 185 38.34 S 188.5 38.19, 190 38.17 S 193.5 38.22, 195 38.19 S 198.5 37.98, 200 37.95 S 203.5 37.97, 205 37.98"
          fill="none"/>
    <circle r="4" cx="5" cy="40" fill="#3023AE"/>
    <circle r="4" cx="205" cy="37.98" fill="#C86DD7"/>      
</svg>