<svg width="200" height="50" viewBox="0 0 210 50" xmlns="http://www.w3.org/2000/svg">
    <defs>
        <linearGradient x1="0%" y1="0%" x2="100%" y2="0%" id="a">
            <stop stop-color="#3023AE" offset="0%"/>
            <stop stop-color="#C86DD7" offset="100%"/>
        </linearGradient>
    </defs>
    <path stroke="url(#a)"
          stroke-width="3"
          stroke-linejoin="round"
          stroke-linecap="round"
          d="M5 40 C 5.28 38.53, 8.6 14.28, 10 13.75 S 14.39 34.88, 15 36.25 S 19 37.37, 20 36.25 S 23.6 25.53, 25 25 S 29 31.38, 30 32.5 S 33.6 36.78, 35 36.25 S 39.39 30.12, 40 28.75 S 43.5 13.75, 45 13.75 S 49.17 27.5, 50 28.75 S 53.6 29.28, 55 28.75 S 58.8 25.9, 60 25 S 63.6 20.72, 65 21.25 S 68.8 29.65, 70 28.75 S 73.8 14.65, 75 13.75 S 78.6 21.78, 80 21.25 S 83.8 9.1, 85 10 S 89.39 27.38, 90 28.75 S 93.5 32.5, 95 32.5 S 98.8 29.65, 100 28.75 S 103.8 24.1, 105 25 S 109 35.13, 110 36.25 S 113.5 36.25, 115 36.25 S 118.6 36.78, 120 36.25 S 124.29 33.82, 125 32.5 S 128.5 17.5, 130 17.5 S 134.29 31.18, 135 32.5 S 138.6 36.78, 140 36.25 S 143.6 29.28, 145 28.75 S 148.6 31.97, 150 32.5 S 153.6 31.97, 155 32.5 S 158.6 35.72, 160 36.25 S 163.8 37.15, 165 36.25 S 169.29 30.07, 170 28.75 S 173.6 16.97, 175 17.5 S 178.8 31.6, 180 32.5 S 183.5 25, 185 25 S 189 31.38, 190 32.5 S 193.6 35.72, 195 36.25 S 198.6 36.78, 200 36.25 S 203.8 33.4, 205 32.5"
          fill="none"/>
    <circle r="4" cx="5" cy="40" fill="#3023AE"/>
    <circle r="4" cx="205" cy="32.5" fill="#C86DD7"/>      
</svg>