<svg width="200" height="50" viewBox="0 0 210 50" xmlns="http://www.w3.org/2000/svg">
    <defs>
        <linearGradient x1="0%" y1="0%" x2="100%" y2="0%" id="a">
            <stop stop-color="#3023AE" offset="0%"/>
            <stop stop-color="#C86DD7" offset="100%"/>
        </linearGradient>
    </defs>
    <path stroke="url(#a)"
          stroke-width="3"
          stroke-linejoin="round"
          stroke-linecap="round"
          d="M5 40 C 6.48 39.78, 8.5 39.32, 10 39.26 S 13.5 39.66, 15 39.63 S 18.51 39.23, 20 39.05 S 23.5 38.48, 25 38.39 S 28.5 38.45, 30 38.43 S 33.5 38.34, 35 38.27 S 38.5 38.02, 40 37.94 S 43.51 37.92, 45 37.73 S 48.55 37.04, 50 36.66 S 53.65 35.78, 55 35.13 S 58.52 32.09, 60 31.87 S 63.56 33.24, 65 33.65 S 68.51 34.57, 70 34.72 S 73.51 34.86, 75 34.68 S 78.53 33.82, 80 33.52 S 83.51 32.77, 85 32.61 S 88.53 32.73, 90 32.45 S 93.5 30.78, 95 30.72 S 98.5 32.03, 100 32.04 S 103.64 31.43, 105 30.8 S 109.35 28.76, 110 27.41 S 113.65 9.34, 115 10 S 119.41 30.9, 120 32.28 S 123.52 33.21, 125 33.48 S 128.54 34.46, 130 34.1 S 133.62 31.58, 135 31 S 138.52 29.7, 140 29.93 S 143.55 32.14, 145 32.53 S 148.5 32.58, 150 32.61 S 153.51 32.55, 155 32.7 S 158.5 33.64, 160 33.6 S 163.5 32.3, 165 32.41 S 168.53 34, 170 34.31 S 173.51 34.66, 175 34.51 S 178.52 33.54, 180 33.31 S 183.52 33.2, 185 32.94 S 188.51 31.38, 190 31.58 S 193.53 34.01, 195 34.31 S 198.65 34.31, 200 33.65 S 203.86 30.36, 205 29.39"
          fill="none"/>
    <circle r="4" cx="5" cy="40" fill="#3023AE"/>
    <circle r="4" cx="205" cy="29.39" fill="#C86DD7"/>      
</svg>