<svg width="200" height="50" viewBox="0 0 210 50" xmlns="http://www.w3.org/2000/svg">
    <defs>
        <linearGradient x1="0%" y1="0%" x2="100%" y2="0%" id="a">
            <stop stop-color="#3023AE" offset="0%"/>
            <stop stop-color="#C86DD7" offset="100%"/>
        </linearGradient>
    </defs>
    <path stroke="url(#a)"
          stroke-width="3"
          stroke-linejoin="round"
          stroke-linecap="round"
          d="M5 40 C 5.6 38.62, 8.81 29.42, 10 28.51 S 14.29 33.66, 15 32.34 S 18.6 10.54, 20 10 S 24.23 27.23, 25 28.51 S 28.6 27.14, 30 26.6 S 33.51 24.87, 35 24.68 S 38.5 25.32, 40 25.32 S 43.51 24.87, 45 24.68 S 48.81 23.13, 50 24.04 S 53.5 32.34, 55 32.34 S 59.13 25.26, 60 24.04 S 63.88 19.3, 65 18.3 S 68.7 14.36, 70 15.11 S 73.95 22.97, 75 24.04 S 78.55 24.95, 80 25.32 S 83.51 26.79, 85 26.6 S 88.51 23.85, 90 24.04 S 93.7 27.12, 95 27.87 S 98.6 30.33, 100 29.79 S 103.66 24.72, 105 24.04 S 108.53 24.4, 110 24.68 S 113.57 25.5, 115 25.96 S 118.63 27.26, 120 27.87 S 123.55 30.8, 125 30.43 S 128.51 25.13, 130 25.32 S 133.85 30.74, 135 31.7 S 138.5 33.72, 140 33.62 S 143.7 31.81, 145 31.06 S 148.53 27.59, 150 27.87 S 153.74 32.17, 155 32.98 S 158.6 34.8, 160 34.26 S 163.53 29.43, 165 29.15 S 168.6 31.8, 170 32.34 S 173.55 33.35, 175 32.98 S 178.55 30.16, 180 29.79 S 183.5 30.33, 185 30.43 S 188.51 30.24, 190 30.43 S 193.63 31.09, 195 31.7 S 198.5 34.89, 200 34.89 S 203.74 32.51, 205 31.7"
          fill="none"/>
    <circle r="4" cx="5" cy="40" fill="#3023AE"/>
    <circle r="4" cx="205" cy="31.7" fill="#C86DD7"/>      
</svg>