<svg width="200" height="50" viewBox="0 0 210 50" xmlns="http://www.w3.org/2000/svg">
    <defs>
        <linearGradient x1="0%" y1="0%" x2="100%" y2="0%" id="a">
            <stop stop-color="#3023AE" offset="0%"/>
            <stop stop-color="#C86DD7" offset="100%"/>
        </linearGradient>
    </defs>
    <path stroke="url(#a)"
          stroke-width="3"
          stroke-linejoin="round"
          stroke-linecap="round"
          d="M5 40 C 6.45 39.61, 8.51 38.84, 10 38.64 S 13.5 38.64, 15 38.64 S 18.5 38.64, 20 38.64 S 23.5 38.64, 25 38.64 S 28.5 38.64, 30 38.64 S 33.5 38.64, 35 38.64 S 38.5 38.64, 40 38.64 S 43.5 38.64, 45 38.64 S 48.5 38.64, 50 38.64 S 53.5 38.64, 55 38.64 S 58.5 38.64, 60 38.64 S 63.5 38.64, 65 38.64 S 68.5 38.64, 70 38.64 S 73.5 38.64, 75 38.64 S 78.5 38.64, 80 38.64 S 83.5 38.64, 85 38.64 S 88.5 38.64, 90 38.64 S 93.51 38.84, 95 38.64 S 98.5 37.27, 100 37.27 S 103.5 38.64, 105 38.64 S 108.5 37.27, 110 37.27 S 113.5 38.64, 115 38.64 S 119.51 38.69, 120 37.27 S 124.17 11.25, 125 10 S 129.34 20.92, 130 22.27 S 133.84 29.5, 135 30.45 S 138.84 29.5, 140 30.45 S 143.68 37.92, 145 38.64 S 148.55 36.31, 150 35.91 S 153.51 36.11, 155 35.91 S 158.55 34.15, 160 34.55 S 163.61 38.07, 165 38.64 S 168.5 38.64, 170 38.64 S 173.55 39.04, 175 38.64 S 178.51 36.11, 180 35.91 S 183.55 36.87, 185 37.27 S 188.51 38.44, 190 38.64 S 193.5 38.64, 195 38.64 S 198.5 38.64, 200 38.64"
          fill="none"/>
    <circle r="4" cx="5" cy="40" fill="#3023AE"/>
    <circle r="4" cx="200" cy="38.64" fill="#C86DD7"/>      
</svg>