<svg width="200" height="50" viewBox="0 0 210 50" xmlns="http://www.w3.org/2000/svg">
    <defs>
        <linearGradient x1="0%" y1="0%" x2="100%" y2="0%" id="a">
            <stop stop-color="#3023AE" offset="0%"/>
            <stop stop-color="#C86DD7" offset="100%"/>
        </linearGradient>
    </defs>
    <path stroke="url(#a)"
          stroke-width="3"
          stroke-linejoin="round"
          stroke-linecap="round"
          d="M5 40 C 5.25 38.52, 8.94 11.06, 10 10 S 13.5 30, 15 30 S 18.66 10.67, 20 10 S 24.33 23.66, 25 25 S 28.66 29.33, 30 30 S 34.33 31.34, 35 30 S 38.94 11.06, 40 10 S 44.17 18.75, 45 20 S 48.66 24.33, 50 25 S 53.94 23.94, 55 25 S 58.94 33.94, 60 35 S 63.94 36.06, 65 35 S 68.5 25, 70 25 S 73.94 33.94, 75 35 S 78.5 35, 80 35 S 83.66 35.67, 85 35 S 88.94 31.06, 90 30 S 93.5 25, 95 25 S 98.94 28.94, 100 30 S 103.5 35, 105 35 S 109.44 31.39, 110 30 S 113.5 10, 115 10 S 119.44 28.61, 120 30 S 123.66 34.33, 125 35 S 128.5 35, 130 35 S 133.5 35, 135 35 S 138.5 35, 140 35 S 143.5 35, 145 35 S 148.5 35, 150 35 S 153.5 35, 155 35 S 158.66 35.67, 160 35 S 163.66 30.67, 165 30 S 168.94 31.06, 170 30 S 173.66 20.67, 175 20 S 178.5 25, 180 25 S 183.94 18.94, 185 20 S 188.5 35, 190 35 S 193.66 20.67, 195 20 S 199.17 28.75, 200 30 S 203.94 33.94, 205 35"
          fill="none"/>
    <circle r="4" cx="5" cy="40" fill="#3023AE"/>
    <circle r="4" cx="205" cy="35" fill="#C86DD7"/>      
</svg>