<svg width="200" height="50" viewBox="0 0 210 50" xmlns="http://www.w3.org/2000/svg">
    <defs>
        <linearGradient x1="0%" y1="0%" x2="100%" y2="0%" id="a">
            <stop stop-color="#3023AE" offset="0%"/>
            <stop stop-color="#C86DD7" offset="100%"/>
        </linearGradient>
    </defs>
    <path stroke="url(#a)"
          stroke-width="3"
          stroke-linejoin="round"
          stroke-linecap="round"
          d="M5 40 C 6.22 39.12, 9.09 37.6, 10 36.4 S 13.54 27.15, 15 26.8 S 19.04 32.85, 20 34 S 23.65 38.15, 25 38.8 S 28.51 38.98, 30 38.8 S 33.54 37.95, 35 37.6 S 38.51 36.22, 40 36.4 S 43.54 38.45, 45 38.8 S 48.5 38.8, 50 38.8 S 53.5 38.8, 55 38.8 S 58.5 38.8, 60 38.8 S 63.5 38.8, 65 38.8 S 68.5 38.8, 70 38.8 S 73.5 38.8, 75 38.8 S 78.5 38.8, 80 38.8 S 83.5 38.8, 85 38.8 S 88.5 38.8, 90 38.8 S 93.5 38.8, 95 38.8 S 98.5 38.8, 100 38.8 S 103.5 38.8, 105 38.8 S 109.51 40.22, 110 38.8 S 113.51 10.18, 115 10 S 119.51 36.18, 120 37.6 S 123.65 39.45, 125 38.8 S 128.5 32.8, 130 32.8 S 133.65 38.15, 135 38.8 S 138.5 37.6, 140 37.6 S 143.59 39.31, 145 38.8 S 148.5 34, 150 34 S 153.65 38.15, 155 38.8 S 158.5 38.8, 160 38.8 S 163.5 38.8, 165 38.8 S 168.5 38.8, 170 38.8 S 173.5 38.8, 175 38.8 S 178.5 38.8, 180 38.8 S 183.5 38.8, 185 38.8 S 188.51 38.98, 190 38.8 S 193.59 38.11, 195 37.6 S 198.51 35.02, 200 35.2 S 203.78 37.92, 205 38.8"
          fill="none"/>
    <circle r="4" cx="5" cy="40" fill="#3023AE"/>
    <circle r="4" cx="205" cy="38.8" fill="#C86DD7"/>      
</svg>