<svg width="200" height="50" viewBox="0 0 210 50" xmlns="http://www.w3.org/2000/svg">
    <defs>
        <linearGradient x1="0%" y1="0%" x2="100%" y2="0%" id="a">
            <stop stop-color="#3023AE" offset="0%"/>
            <stop stop-color="#C86DD7" offset="100%"/>
        </linearGradient>
    </defs>
    <path stroke="url(#a)"
          stroke-width="3"
          stroke-linejoin="round"
          stroke-linecap="round"
          d="M5 40 C 6.06 38.94, 8.66 35.67, 10 35 S 14.33 36.34, 15 35 S 19.17 16.25, 20 15 S 23.94 18.94, 25 20 S 28.94 23.94, 30 25 S 33.66 30.67, 35 30 S 38.66 19.33, 40 20 S 43.5 35, 45 35 S 48.5 20, 50 20 S 54.17 33.75, 55 35 S 58.5 35, 60 35 S 63.5 35, 65 35 S 68.66 35.67, 70 35 S 73.5 30, 75 30 S 78.66 34.33, 80 35 S 83.5 35, 85 35 S 88.66 35.67, 90 35 S 93.5 30, 95 30 S 98.66 34.33, 100 35 S 103.5 35, 105 35 S 108.66 35.67, 110 35 S 113.66 30.67, 115 30 S 118.94 31.06, 120 30 S 123.66 20.67, 125 20 S 128.66 25.67, 130 25 S 133.94 16.06, 135 15 S 138.66 15.67, 140 15 S 144.17 8.75, 145 10 S 149.33 28.66, 150 30 S 153.66 29.33, 155 30 S 158.66 34.33, 160 35 S 163.5 35, 165 35 S 168.66 35.67, 170 35 S 174.17 31.25, 175 30 S 178.94 21.06, 180 20 S 184.17 18.75, 185 20 S 188.66 34.33, 190 35 S 193.5 25, 195 25 S 198.94 36.06, 200 35 S 204.64 16.46, 205 15"
          fill="none"/>
    <circle r="4" cx="5" cy="40" fill="#3023AE"/>
    <circle r="4" cx="205" cy="15" fill="#C86DD7"/>      
</svg>