<svg width="200" height="50" viewBox="0 0 210 50" xmlns="http://www.w3.org/2000/svg">
    <defs>
        <linearGradient x1="0%" y1="0%" x2="100%" y2="0%" id="a">
            <stop stop-color="#3023AE" offset="0%"/>
            <stop stop-color="#C86DD7" offset="100%"/>
        </linearGradient>
    </defs>
    <path stroke="url(#a)"
          stroke-width="3"
          stroke-linejoin="round"
          stroke-linecap="round"
          d="M5 40 C 5.7 38.67, 8.51 30.65, 10 30.45 S 14.34 39.99, 15 38.64 S 18.51 10.2, 20 10 S 24.26 35.96, 25 37.27 S 28.68 28.45, 30 27.73 S 33.99 30.71, 35 31.82 S 38.76 37.79, 40 38.64 S 43.84 39.59, 45 38.64 S 48.5 30.45, 50 30.45 S 53.84 37.69, 55 38.64 S 58.51 38.84, 60 38.64 S 63.5 37.27, 65 37.27 S 68.5 38.64, 70 38.64 S 73.51 37.47, 75 37.27 S 78.5 37.27, 80 37.27 S 83.51 37.07, 85 37.27 S 88.51 38.44, 90 38.64 S 93.51 38.84, 95 38.64 S 98.5 37.27, 100 37.27 S 103.51 38.84, 105 38.64 S 108.51 36.11, 110 35.91 S 113.55 36.87, 115 37.27 S 118.51 38.44, 120 38.64 S 123.51 38.84, 125 38.64 S 128.5 37.27, 130 37.27 S 133.51 38.44, 135 38.64 S 138.55 39.04, 140 38.64 S 143.61 36.48, 145 35.91 S 148.55 34.15, 150 34.55 S 153.61 38.07, 155 38.64 S 158.5 38.64, 160 38.64 S 163.5 38.64, 165 38.64 S 168.5 38.64, 170 38.64"
          fill="none"/>
    <circle r="4" cx="5" cy="40" fill="#3023AE"/>
    <circle r="4" cx="170" cy="38.64" fill="#C86DD7"/>      
</svg>