<svg width="200" height="50" viewBox="0 0 210 50" xmlns="http://www.w3.org/2000/svg">
    <defs>
        <linearGradient x1="0%" y1="0%" x2="100%" y2="0%" id="a">
            <stop stop-color="#3023AE" offset="0%"/>
            <stop stop-color="#C86DD7" offset="100%"/>
        </linearGradient>
    </defs>
    <path stroke="url(#a)"
          stroke-width="3"
          stroke-linejoin="round"
          stroke-linecap="round"
          d="M5 40 C 5.25 38.52, 8.76 10.84, 10 10 S 14.45 31.79, 15 33.19 S 18.66 34.77, 20 35.45 S 23.58 37.77, 25 38.24 S 28.5 38.7, 30 38.77 S 33.5 38.6, 35 38.68 S 38.5 39.33, 40 39.3 S 43.5 38.5, 45 38.5 S 48.51 39.17, 50 39.31 S 53.5 39.41, 55 39.43 S 58.5 39.46, 60 39.47 S 63.5 39.48, 65 39.5 S 68.5 39.62, 70 39.6 S 73.51 39.47, 75 39.34 S 78.5 38.69, 80 38.72 S 83.51 39.41, 85 39.55 S 88.5 39.61, 90 39.63 S 93.5 39.66, 95 39.66 S 98.5 39.64, 100 39.64 S 103.5 39.63, 105 39.63 S 108.5 39.6, 110 39.61 S 113.5 39.7, 115 39.72 S 118.5 39.73, 120 39.73 S 123.5 39.7, 125 39.69 S 128.5 39.68, 130 39.65 S 133.5 39.51, 135 39.51 S 138.5 39.66, 140 39.67 S 143.5 39.57, 145 39.56 S 148.5 39.6, 150 39.62 S 153.5 39.7, 155 39.72 S 158.5 39.74, 160 39.74 S 163.5 39.71, 165 39.7 S 168.5 39.7, 170 39.7 S 173.5 39.7, 175 39.67 S 178.5 39.52, 180 39.5 S 183.5 39.51, 185 39.55 S 188.5 39.78, 190 39.75 S 193.5 39.39, 195 39.36 S 198.5 39.51, 200 39.56 S 203.5 39.64, 205 39.67"
          fill="none"/>
    <circle r="4" cx="5" cy="40" fill="#3023AE"/>
    <circle r="4" cx="205" cy="39.67" fill="#C86DD7"/>      
</svg>