<svg width="200" height="50" viewBox="0 0 210 50" xmlns="http://www.w3.org/2000/svg">
    <defs>
        <linearGradient x1="0%" y1="0%" x2="100%" y2="0%" id="a">
            <stop stop-color="#3023AE" offset="0%"/>
            <stop stop-color="#C86DD7" offset="100%"/>
        </linearGradient>
    </defs>
    <path stroke="url(#a)"
          stroke-width="3"
          stroke-linejoin="round"
          stroke-linecap="round"
          d="M5 40 C 5.25 38.52, 8.6 10.54, 10 10 S 14.38 34.75, 15 36.12 S 18.5 32.14, 20 32.22 S 23.68 35.96, 25 36.66 S 28.51 37.37, 30 37.53 S 33.5 37.71, 35 37.72 S 38.5 37.6, 40 37.6 S 43.5 37.8, 45 37.72 S 48.53 37.39, 50 37.08 S 53.51 35.74, 55 35.6 S 58.5 36.07, 60 36.17 S 63.5 36.3, 65 36.26 S 68.5 35.81, 70 35.9 S 73.5 36.81, 75 36.84 S 78.52 36.29, 80 36.07 S 83.51 35.25, 85 35.39 S 88.5 36.93, 90 36.98 S 93.5 35.77, 95 35.74 S 98.5 36.69, 100 36.76 S 103.5 36.27, 105 36.23 S 108.5 36.52, 110 36.51 S 113.5 36.22, 115 36.13 S 118.51 35.77, 120 35.94 S 123.51 37.14, 125 37.28 S 128.5 36.87, 130 36.85 S 133.5 37.13, 135 37.14 S 138.5 37.02, 140 36.94 S 143.5 36.62, 145 36.61 S 148.5 36.78, 150 36.88 S 153.5 37.19, 155 37.25 S 158.5 37.29, 160 37.27 S 163.51 37.3, 165 37.14 S 168.5 36.32, 170 36.22 S 173.5 36.45, 175 36.48 S 178.5 36.36, 180 36.45 S 183.5 37, 185 37.06 S 188.51 37.06, 190 36.85 S 193.52 35.89, 195 35.65 S 198.5 35.29, 200 35.2 S 203.5 35.09, 205 35.04"
          fill="none"/>
    <circle r="4" cx="5" cy="40" fill="#3023AE"/>
    <circle r="4" cx="205" cy="35.04" fill="#C86DD7"/>      
</svg>