<svg width="200" height="50" viewBox="0 0 210 50" xmlns="http://www.w3.org/2000/svg">
    <defs>
        <linearGradient x1="0%" y1="0%" x2="100%" y2="0%" id="a">
            <stop stop-color="#3023AE" offset="0%"/>
            <stop stop-color="#C86DD7" offset="100%"/>
        </linearGradient>
    </defs>
    <path stroke="url(#a)"
          stroke-width="3"
          stroke-linejoin="round"
          stroke-linecap="round"
          d="M5 40 C 5.25 38.52, 8.61 10.56, 10 10 S 14.5 34.55, 15 35.96 S 18.52 37.85, 20 38.08 S 23.5 37.56, 25 37.5 S 28.52 37.46, 30 37.69 S 33.5 38.98, 35 39.04 S 38.51 38.28, 40 38.08 S 43.61 38.25, 45 37.69 S 48.52 33.81, 50 34.04 S 53.57 38.79, 55 39.23 S 58.51 37.29, 60 37.12 S 63.53 37.8, 65 38.08 S 68.5 38.98, 70 39.04 S 73.5 38.46, 75 38.46 S 78.5 38.95, 80 39.04 S 83.5 38.98, 85 39.04 S 88.5 39.42, 90 39.42 S 93.51 39.24, 95 39.04 S 98.51 38.22, 100 38.08 S 103.5 37.99, 105 38.08 S 108.5 38.53, 110 38.65 S 113.5 38.82, 115 38.85 S 118.5 38.91, 120 38.85 S 123.5 38.55, 125 38.46 S 128.5 38.24, 130 38.27 S 133.51 38.51, 135 38.65 S 138.5 39.14, 140 39.23 S 143.5 39.29, 145 39.23 S 148.5 38.85, 150 38.85 S 153.51 39.09, 155 39.23 S 158.5 39.84, 160 39.81 S 163.52 39.27, 165 39.04 S 168.5 38.27, 170 38.27 S 173.5 38.98, 175 39.04 S 178.5 38.71, 180 38.65 S 183.53 38.93, 185 38.65 S 188.51 36.59, 190 36.73 S 193.53 39.34, 195 39.62 S 198.51 38.79, 200 38.65 S 203.5 38.65, 205 38.65"
          fill="none"/>
    <circle r="4" cx="5" cy="40" fill="#3023AE"/>
    <circle r="4" cx="205" cy="38.65" fill="#C86DD7"/>      
</svg>