<svg width="200" height="50" viewBox="0 0 210 50" xmlns="http://www.w3.org/2000/svg">
    <defs>
        <linearGradient x1="0%" y1="0%" x2="100%" y2="0%" id="a">
            <stop stop-color="#3023AE" offset="0%"/>
            <stop stop-color="#C86DD7" offset="100%"/>
        </linearGradient>
    </defs>
    <path stroke="url(#a)"
          stroke-width="3"
          stroke-linejoin="round"
          stroke-linecap="round"
          d="M5 40 C 5.25 38.52, 8.51 10.17, 10 10 S 14.52 37.42, 15 38.84 S 18.5 39.42, 20 39.53 S 23.5 39.56, 25 39.58 S 28.5 39.63, 30 39.65 S 33.5 39.71, 35 39.7 S 38.5 39.61, 40 39.61 S 43.5 39.69, 45 39.7 S 48.5 39.68, 50 39.69 S 53.5 39.72, 55 39.74 S 58.5 39.83, 60 39.84 S 63.5 39.82, 65 39.82 S 68.5 39.82, 70 39.82 S 73.5 39.85, 75 39.85 S 78.5 39.81, 80 39.82 S 83.5 39.88, 85 39.89 S 88.5 39.91, 90 39.88 S 93.5 39.72, 95 39.72 S 98.5 39.88, 100 39.88 S 103.5 39.76, 105 39.74 S 108.5 39.72, 110 39.72 S 113.5 39.73, 115 39.74 S 118.5 39.8, 120 39.81 S 123.5 39.81, 125 39.82 S 128.5 39.85, 130 39.85 S 133.5 39.84, 135 39.84 S 138.5 39.85, 140 39.84 S 143.5 39.84, 145 39.8 S 148.5 39.58, 150 39.57 S 153.5 39.71, 155 39.73 S 158.5 39.69, 160 39.71 S 163.5 39.83, 165 39.85 S 168.5 39.85, 170 39.82 S 173.5 39.7, 175 39.67 S 178.5 39.65, 180 39.64 S 183.5 39.62, 185 39.62 S 188.5 39.6, 190 39.61 S 193.5 39.71, 195 39.71 S 198.5 39.64, 200 39.63 S 203.5 39.63, 205 39.63"
          fill="none"/>
    <circle r="4" cx="5" cy="40" fill="#3023AE"/>
    <circle r="4" cx="205" cy="39.63" fill="#C86DD7"/>      
</svg>