<svg width="200" height="50" viewBox="0 0 210 50" xmlns="http://www.w3.org/2000/svg">
    <defs>
        <linearGradient x1="0%" y1="0%" x2="100%" y2="0%" id="a">
            <stop stop-color="#3023AE" offset="0%"/>
            <stop stop-color="#C86DD7" offset="100%"/>
        </linearGradient>
    </defs>
    <path stroke="url(#a)"
          stroke-width="3"
          stroke-linejoin="round"
          stroke-linecap="round"
          d="M5 40 C 5.82 38.75, 8.61 32.96, 10 32.39 S 13.77 35.01, 15 35.87 S 18.57 38.89, 20 39.35 S 23.5 39.13, 25 39.13 S 28.5 39.35, 30 39.35 S 33.51 39.26, 35 39.13 S 38.51 38.64, 40 38.48 S 43.5 38.07, 45 38.04 S 48.5 38.26, 50 38.26 S 53.56 38.48, 55 38.04 S 58.53 35.54, 60 35.22 S 63.52 35.61, 65 35.87 S 68.5 36.99, 70 36.96 S 73.51 35.78, 75 35.65 S 78.5 36.12, 80 36.09 S 83.52 35.69, 85 35.43 S 89.39 35.72, 90 34.35 S 94.43 14.43, 95 13.04 S 99.34 8.66, 100 10 S 104.49 31.85, 105 33.26 S 108.6 36.84, 110 37.39 S 113.51 36.98, 115 37.17 S 118.5 38.63, 120 38.7 S 123.5 37.68, 125 37.61 S 128.51 38.13, 130 38.26 S 133.5 38.51, 135 38.48 S 138.54 38.39, 140 38.04 S 143.52 35.83, 145 36.09 S 148.57 39.32, 150 39.78 S 153.53 39.67, 155 39.35 S 158.51 37.77, 160 37.61 S 163.5 38.16, 165 38.26 S 168.51 38.1, 170 38.26 S 173.51 39.19, 175 39.35 S 178.5 39.42, 180 39.35 S 183.51 39.1, 185 38.91 S 188.5 38.07, 190 38.04 S 193.5 38.6, 195 38.7 S 198.5 38.77, 200 38.7 S 203.51 38.39, 205 38.26"
          fill="none"/>
    <circle r="4" cx="5" cy="40" fill="#3023AE"/>
    <circle r="4" cx="205" cy="38.26" fill="#C86DD7"/>      
</svg>