<svg width="200" height="50" viewBox="0 0 210 50" xmlns="http://www.w3.org/2000/svg">
    <defs>
        <linearGradient x1="0%" y1="0%" x2="100%" y2="0%" id="a">
            <stop stop-color="#3023AE" offset="0%"/>
            <stop stop-color="#C86DD7" offset="100%"/>
        </linearGradient>
    </defs>
    <path stroke="url(#a)"
          stroke-width="3"
          stroke-linejoin="round"
          stroke-linecap="round"
          d="M5 40 C 5.25 38.52, 8.6 10.54, 10 10 S 14.5 34.74, 15 36.15 S 18.54 38.03, 20 38.35 S 23.51 38.15, 25 38.35 S 28.5 39.64, 30 39.72 S 33.5 38.98, 35 38.9 S 38.5 39.25, 40 39.17 S 43.5 38.39, 45 38.35 S 48.5 38.86, 50 38.9 S 53.5 38.58, 55 38.62 S 58.51 39.05, 60 39.17 S 63.5 39.45, 65 39.45 S 68.5 39.17, 70 39.17 S 73.51 39.57, 75 39.45 S 78.5 38.31, 80 38.35 S 83.51 39.52, 85 39.72 S 88.5 39.72, 90 39.72 S 93.5 39.72, 95 39.72 S 98.51 39.84, 100 39.72 S 103.51 39.06, 105 38.9 S 108.51 38.5, 110 38.62 S 113.51 39.6, 115 39.72 S 118.5 39.49, 120 39.45 S 123.51 39.61, 125 39.45 S 128.5 38.35, 130 38.35 S 133.51 39.33, 135 39.45 S 138.5 39.17, 140 39.17 S 143.5 39.45, 145 39.45 S 148.5 39.21, 150 39.17 S 153.5 39.21, 155 39.17 S 158.5 38.94, 160 38.9 S 163.5 38.9, 165 38.9 S 168.5 38.94, 170 38.9 S 173.5 38.54, 175 38.62 S 178.51 39.57, 180 39.45 S 183.5 37.84, 185 37.8 S 188.51 38.97, 190 39.17 S 193.5 39.13, 195 39.17 S 198.5 39.41, 200 39.45 S 203.5 39.45, 205 39.45"
          fill="none"/>
    <circle r="4" cx="5" cy="40" fill="#3023AE"/>
    <circle r="4" cx="205" cy="39.45" fill="#C86DD7"/>      
</svg>