<svg width="200" height="50" viewBox="0 0 210 50" xmlns="http://www.w3.org/2000/svg">
    <defs>
        <linearGradient x1="0%" y1="0%" x2="100%" y2="0%" id="a">
            <stop stop-color="#3023AE" offset="0%"/>
            <stop stop-color="#C86DD7" offset="100%"/>
        </linearGradient>
    </defs>
    <path stroke="url(#a)"
          stroke-width="3"
          stroke-linejoin="round"
          stroke-linecap="round"
          d="M5 40 C 5.44 38.57, 9.19 24.84, 10 23.58 S 13.89 23.52, 15 24.53 S 18.63 32.13, 20 32.74 S 24.4 30.32, 25 28.95 S 28.6 10.53, 30 10 S 34.28 23.84, 35 25.16 S 38.51 28.46, 40 28.32 S 43.6 23.68, 45 24.21 S 48.82 31.18, 50 32.11 S 53.75 32.94, 55 32.11 S 59.05 26.63, 60 25.47 S 63.58 19.3, 65 19.79 S 68.96 27.87, 70 28.95 S 73.55 30.58, 75 30.21 S 78.73 27.22, 80 26.42 S 83.7 23.15, 85 23.89 S 88.82 31.18, 90 32.11 S 93.77 32.65, 95 31.79 S 98.86 26.13, 100 25.16 S 103.61 22.69, 105 23.26 S 108.56 28.85, 110 29.26 S 113.55 26.48, 115 26.11 S 118.56 26.33, 120 26.74 S 123.71 29.72, 125 28.95 S 128.66 21.42, 130 20.74 S 133.91 22.86, 135 23.89 S 138.88 31.2, 140 30.21 S 143.53 15.33, 145 15.05 S 148.63 27.71, 150 28.32 S 153.54 19.15, 155 19.47 S 159.02 29.39, 160 30.53 S 163.56 30.75, 165 31.16 S 168.66 34.05, 170 33.37 S 173.52 26.34, 175 26.11 S 178.79 30.91, 180 31.79 S 183.5 33.37, 185 33.37 S 189.02 32.93, 190 31.79 S 193.5 21.77, 195 21.68 S 198.98 30.06, 200 31.16 S 203.55 32.05, 205 32.42"
          fill="none"/>
    <circle r="4" cx="5" cy="40" fill="#3023AE"/>
    <circle r="4" cx="205" cy="32.42" fill="#C86DD7"/>      
</svg>