<svg width="200" height="50" viewBox="0 0 210 50" xmlns="http://www.w3.org/2000/svg">
    <defs>
        <linearGradient x1="0%" y1="0%" x2="100%" y2="0%" id="a">
            <stop stop-color="#3023AE" offset="0%"/>
            <stop stop-color="#C86DD7" offset="100%"/>
        </linearGradient>
    </defs>
    <path stroke="url(#a)"
          stroke-width="3"
          stroke-linejoin="round"
          stroke-linecap="round"
          d="M5 40 C 5.25 38.52, 8.61 10.56, 10 10 S 14.46 34.54, 15 35.94 S 18.5 35.95, 20 36.02 S 23.52 36.16, 25 36.43 S 28.5 37.77, 30 37.82 S 33.52 37.03, 35 36.76 S 38.5 36.14, 40 36.02 S 43.51 35.84, 45 35.98 S 48.5 36.95, 50 36.96 S 53.5 35.98, 55 36.06 S 59.45 38.9, 60 37.5 S 63.54 10.85, 65 10.49 S 69.45 33.63, 70 35.03 S 73.52 35.77, 75 35.98 S 78.5 36.41, 80 36.47 S 83.5 36.39, 85 36.35 S 88.5 36.11, 90 36.18 S 93.5 36.9, 95 36.84 S 98.5 35.8, 100 35.81 S 103.51 36.79, 105 36.92 S 108.5 36.65, 110 36.68 S 113.5 37.03, 115 37.13 S 118.5 37.32, 120 37.33 S 123.5 37.29, 125 37.17 S 128.54 36.89, 130 36.55 S 133.53 35.11, 135 34.83 S 138.55 34.24, 140 34.62 S 143.6 36.92, 145 37.46 S 148.5 38.39, 150 38.44 S 153.5 37.88, 155 37.78 S 158.5 37.82, 160 37.78 S 163.5 37.49, 165 37.5 S 168.5 37.85, 170 37.87 S 173.5 37.61, 175 37.62 S 178.5 37.93, 180 37.91 S 183.5 37.44, 185 37.5 S 188.5 38.27, 190 38.32 S 193.5 37.92, 195 37.82 S 198.5 37.63, 200 37.66 S 203.5 37.92, 205 38.03"
          fill="none"/>
    <circle r="4" cx="5" cy="40" fill="#3023AE"/>
    <circle r="4" cx="205" cy="38.03" fill="#C86DD7"/>      
</svg>