<svg width="200" height="50" viewBox="0 0 210 50" xmlns="http://www.w3.org/2000/svg">
    <defs>
        <linearGradient x1="0%" y1="0%" x2="100%" y2="0%" id="a">
            <stop stop-color="#3023AE" offset="0%"/>
            <stop stop-color="#C86DD7" offset="100%"/>
        </linearGradient>
    </defs>
    <path stroke="url(#a)"
          stroke-width="3"
          stroke-linejoin="round"
          stroke-linecap="round"
          d="M5 40 C 6.37 39.39, 9.53 39.2, 10 37.78 S 14.19 11.26, 15 10 S 19.49 20.81, 20 22.22 S 24.23 36.49, 25 37.78 S 28.63 39.5, 30 38.89 S 33.58 33.8, 35 33.33 S 38.51 35.39, 40 35.56 S 43.58 33.97, 45 34.44 S 48.58 38.41, 50 38.89 S 53.94 38.84, 55 37.78 S 58.63 29.5, 60 28.89 S 63.88 32.33, 65 33.33 S 68.63 37.17, 70 37.78 S 73.54 38.11, 75 37.78 S 78.51 35.39, 80 35.56 S 83.58 38.42, 85 38.89 S 88.5 38.89, 90 38.89 S 93.5 38.89, 95 38.89 S 98.5 38.89, 100 38.89 S 103.51 39.06, 105 38.89 S 108.5 37.78, 110 37.78 S 113.51 38.72, 115 38.89 S 118.5 38.89, 120 38.89 S 123.51 39.06, 125 38.89 S 128.54 38.11, 130 37.78 S 133.51 36.5, 135 36.67 S 138.54 38.56, 140 38.89 S 143.5 38.89, 145 38.89 S 148.5 38.89, 150 38.89 S 153.5 38.89, 155 38.89 S 158.5 38.89, 160 38.89 S 163.5 38.89, 165 38.89 S 168.5 38.89, 170 38.89 S 173.5 38.89, 175 38.89 S 178.5 38.89, 180 38.89 S 183.5 38.89, 185 38.89 S 188.5 38.89, 190 38.89 S 193.5 38.89, 195 38.89"
          fill="none"/>
    <circle r="4" cx="5" cy="40" fill="#3023AE"/>
    <circle r="4" cx="195" cy="38.89" fill="#C86DD7"/>      
</svg>