<svg width="200" height="50" viewBox="0 0 210 50" xmlns="http://www.w3.org/2000/svg">
    <defs>
        <linearGradient x1="0%" y1="0%" x2="100%" y2="0%" id="a">
            <stop stop-color="#3023AE" offset="0%"/>
            <stop stop-color="#C86DD7" offset="100%"/>
        </linearGradient>
    </defs>
    <path stroke="url(#a)"
          stroke-width="3"
          stroke-linejoin="round"
          stroke-linecap="round"
          d="M5 40 C 5.25 38.52, 8.72 10.79, 10 10 S 14.49 32.41, 15 33.82 S 18.68 37.25, 20 37.95 S 24.44 40.53, 25 39.14 S 28.83 13.91, 30 12.98 S 34.41 29.79, 35 31.17 S 38.69 35.55, 40 36.28 S 43.7 37.53, 45 36.78 S 48.5 30.59, 50 30.5 S 53.86 35.23, 55 36.21 S 58.55 38.7, 60 39.09 S 63.58 39.41, 65 38.93 S 69.27 37.04, 70 35.73 S 73.51 20.73, 75 20.91 S 79.26 35.64, 80 36.95 S 83.52 38.43, 85 38.69 S 88.5 38.68, 90 38.71 S 93.5 38.89, 95 38.9 S 98.5 38.78, 100 38.76 S 103.5 38.73, 105 38.76 S 108.5 38.96, 110 38.95 S 113.5 38.64, 115 38.69 S 118.5 39.3, 120 39.26 S 123.5 38.41, 125 38.42 S 128.5 39.29, 130 39.36 S 133.5 39.01, 135 38.9 S 138.54 38.96, 140 38.62 S 143.5 36.58, 145 36.59 S 148.52 38.43, 150 38.69 S 153.5 38.3, 155 38.35 S 158.5 38.93, 160 39 S 163.5 38.94, 165 38.85 S 168.5 38.37, 170 38.4 S 173.5 39.01, 175 39.07 S 178.5 38.83, 180 38.81 S 183.5 38.84, 185 38.93 S 188.5 39.33, 190 39.38 S 193.5 39.37, 195 39.26 S 198.5 38.7, 200 38.64 S 203.5 38.81, 205 38.88"
          fill="none"/>
    <circle r="4" cx="5" cy="40" fill="#3023AE"/>
    <circle r="4" cx="205" cy="38.88" fill="#C86DD7"/>      
</svg>