<svg width="200" height="50" viewBox="0 0 210 50" xmlns="http://www.w3.org/2000/svg">
    <defs>
        <linearGradient x1="0%" y1="0%" x2="100%" y2="0%" id="a">
            <stop stop-color="#3023AE" offset="0%"/>
            <stop stop-color="#C86DD7" offset="100%"/>
        </linearGradient>
    </defs>
    <path stroke="url(#a)"
          stroke-width="3"
          stroke-linejoin="round"
          stroke-linecap="round"
          d="M5 40 C 5.83 38.75, 9.39 33.87, 10 32.5 S 13.8 18.4, 15 17.5 S 19.17 23.75, 20 25 S 24 31.38, 25 32.5 S 28.6 35.72, 30 36.25 S 33.8 37.15, 35 36.25 S 38.8 29.65, 40 28.75 S 43.8 27.85, 45 28.75 S 48.8 35.35, 50 36.25 S 54.29 37.57, 55 36.25 S 58.5 17.5, 60 17.5 S 64.29 34.93, 65 36.25 S 68.5 36.25, 70 36.25 S 73.5 36.25, 75 36.25 S 78.6 36.78, 80 36.25 S 83.6 33.03, 85 32.5 S 88.5 32.5, 90 32.5 S 93.8 33.4, 95 32.5 S 98.6 25.53, 100 25 S 103.6 29.28, 105 28.75 S 108.8 22.15, 110 21.25 S 114.17 20, 115 21.25 S 119 35.13, 120 36.25 S 124 33.62, 125 32.5 S 129.29 26.32, 130 25 S 133.6 13.22, 135 13.75 S 139.17 27.5, 140 28.75 S 143.6 28.22, 145 28.75 S 148.5 32.5, 150 32.5 S 153.5 28.75, 155 28.75 S 158.6 31.97, 160 32.5 S 163.5 32.5, 165 32.5 S 168.6 33.03, 170 32.5 S 173.8 29.65, 175 28.75 S 178.5 25, 180 25 S 184 29.87, 185 28.75 S 188.6 13.22, 190 13.75 S 193.6 33.03, 195 32.5 S 199.17 11.25, 200 10 S 204.17 16.25, 205 17.5"
          fill="none"/>
    <circle r="4" cx="5" cy="40" fill="#3023AE"/>
    <circle r="4" cx="205" cy="17.5" fill="#C86DD7"/>      
</svg>