<svg width="200" height="50" viewBox="0 0 210 50" xmlns="http://www.w3.org/2000/svg">
    <defs>
        <linearGradient x1="0%" y1="0%" x2="100%" y2="0%" id="a">
            <stop stop-color="#3023AE" offset="0%"/>
            <stop stop-color="#C86DD7" offset="100%"/>
        </linearGradient>
    </defs>
    <path stroke="url(#a)"
          stroke-width="3"
          stroke-linejoin="round"
          stroke-linecap="round"
          d="M5 40 C 5.96 38.85, 8.52 34.25, 10 34 S 13.62 37.7, 15 38.29 S 18.51 38.16, 20 38.29 S 23.51 39.01, 25 39.14 S 28.58 39.63, 30 39.14 S 33.58 36.2, 35 35.71 S 38.58 36.2, 40 35.71 S 43.58 31.8, 45 32.29 S 48.76 38.29, 50 39.14 S 53.5 39.14, 55 39.14 S 58.52 39.39, 60 39.14 S 63.52 37.68, 65 37.43 S 68.51 37.3, 70 37.43 S 73.51 38.16, 75 38.29 S 78.55 38.66, 80 38.29 S 83.5 35.71, 85 35.71 S 88.58 37.8, 90 38.29 S 93.51 39.01, 95 39.14 S 98.52 39.39, 100 39.14 S 103.5 37.43, 105 37.43 S 108.52 38.89, 110 39.14 S 113.62 39.73, 115 39.14 S 119.21 36.14, 120 34.86 S 123.55 23.23, 125 22.86 S 129.21 31.01, 130 32.29 S 133.71 38.37, 135 39.14 S 138.55 38.66, 140 38.29 S 143.51 36.7, 145 36.57 S 148.52 37.18, 150 37.43 S 153.51 38.16, 155 38.29 S 158.51 38.42, 160 38.29 S 163.51 37.56, 165 37.43 S 168.5 37.43, 170 37.43 S 173.62 38.02, 175 37.43 S 178.51 33.01, 180 33.14 S 183.55 37.92, 185 38.29 S 189.5 37.12, 190 35.71 S 193.52 10.25, 195 10 S 199.47 32.6, 200 34 S 203.67 35.88, 205 36.57"
          fill="none"/>
    <circle r="4" cx="5" cy="40" fill="#3023AE"/>
    <circle r="4" cx="205" cy="36.57" fill="#C86DD7"/>      
</svg>