<svg width="200" height="50" viewBox="0 0 210 50" xmlns="http://www.w3.org/2000/svg">
    <defs>
        <linearGradient x1="0%" y1="0%" x2="100%" y2="0%" id="a">
            <stop stop-color="#3023AE" offset="0%"/>
            <stop stop-color="#C86DD7" offset="100%"/>
        </linearGradient>
    </defs>
    <path stroke="url(#a)"
          stroke-width="3"
          stroke-linejoin="round"
          stroke-linecap="round"
          d="M5 40 C 6.26 39.18, 8.53 37.03, 10 36.73 S 13.52 38.22, 15 37.97 S 18.72 35.83, 20 35.05 S 23.5 31.87, 25 31.86 S 28.66 34.34, 30 35 S 33.5 36.89, 35 36.8 S 39.08 35.55, 40 34.37 S 43.66 24.7, 45 24.02 S 48.66 28.58, 50 29.25 S 53.53 29.25, 55 28.97 S 58.6 27.9, 60 27.35 S 63.59 25.56, 65 25.04 S 68.51 23.48, 70 23.64 S 73.6 26.68, 75 26.13 S 78.56 20.12, 80 19.71 S 83.72 22.48, 85 23.26 S 88.65 25.1, 90 25.75 S 93.55 28.41, 95 28.03 S 98.51 23.37, 100 23.16 S 103.56 26.2, 105 26.61 S 108.5 26.11, 110 26 S 113.55 26.22, 115 25.85 S 118.5 23.39, 120 23.47 S 123.52 26.1, 125 26.36 S 128.53 24.95, 130 25.22 S 133.51 28.37, 135 28.21 S 138.54 24.51, 140 24.15 S 143.5 25.71, 145 25.75 S 148.51 24.27, 150 24.43 S 153.5 26.92, 155 26.84 S 158.59 24.42, 160 23.9 S 163.5 23.07, 165 23.14 S 169.05 25.51, 170 24.35 S 174.14 12.07, 175 10.84 S 178.89 8.99, 180 10 S 184.11 18.76, 185 19.97 S 188.62 22.99, 190 23.57 S 193.5 24.19, 195 24.13 S 198.69 23.92, 200 23.19 S 203.9 19.54, 205 18.52"
          fill="none"/>
    <circle r="4" cx="5" cy="40" fill="#3023AE"/>
    <circle r="4" cx="205" cy="18.52" fill="#C86DD7"/>      
</svg>