<svg width="200" height="50" viewBox="0 0 210 50" xmlns="http://www.w3.org/2000/svg">
    <defs>
        <linearGradient x1="0%" y1="0%" x2="100%" y2="0%" id="a">
            <stop stop-color="#3023AE" offset="0%"/>
            <stop stop-color="#C86DD7" offset="100%"/>
        </linearGradient>
    </defs>
    <path stroke="url(#a)"
          stroke-width="3"
          stroke-linejoin="round"
          stroke-linecap="round"
          d="M5 40 C 6.5 39.99, 8.5 39.97, 10 39.96 S 13.5 39.96, 15 39.96 S 18.5 39.96, 20 39.96 S 23.5 39.96, 25 39.96 S 28.5 39.96, 30 39.96 S 33.5 39.96, 35 39.96 S 38.5 39.96, 40 39.96 S 43.5 39.96, 45 39.96 S 48.5 39.96, 50 39.96 S 53.5 39.96, 55 39.96 S 58.5 39.96, 60 39.96 S 63.5 39.96, 65 39.96 S 68.5 39.96, 70 39.96 S 73.5 39.96, 75 39.96 S 78.5 39.96, 80 39.96 S 83.5 39.96, 85 39.96 S 88.5 39.96, 90 39.96 S 93.5 39.96, 95 39.96 S 98.5 39.96, 100 39.96 S 103.5 39.96, 105 39.96 S 108.5 40.02, 110 39.96 S 113.5 39.53, 115 39.53 S 118.5 39.9, 120 39.96 S 123.5 39.97, 125 39.96 S 128.5 39.98, 130 39.88 S 133.5 39.32, 135 39.3 S 139.52 41.15, 140 39.73 S 143.85 10.96, 145 10 S 149.51 29.96, 150 31.38 S 153.83 37.75, 155 38.68 S 158.5 39.28, 160 39.34 S 163.5 39.09, 165 39.11 S 168.5 39.4, 170 39.5 S 173.5 39.77, 175 39.81 S 178.5 39.76, 180 39.77 S 183.5 39.92, 185 39.88 S 188.5 39.53, 190 39.53 S 193.5 39.84, 195 39.88 S 198.5 39.86, 200 39.81 S 203.5 39.61, 205 39.53"
          fill="none"/>
    <circle r="4" cx="5" cy="40" fill="#3023AE"/>
    <circle r="4" cx="205" cy="39.53" fill="#C86DD7"/>      
</svg>