<svg width="200" height="50" viewBox="0 0 210 50" xmlns="http://www.w3.org/2000/svg">
    <defs>
        <linearGradient x1="0%" y1="0%" x2="100%" y2="0%" id="a">
            <stop stop-color="#3023AE" offset="0%"/>
            <stop stop-color="#C86DD7" offset="100%"/>
        </linearGradient>
    </defs>
    <path stroke="url(#a)"
          stroke-width="3"
          stroke-linejoin="round"
          stroke-linecap="round"
          d="M5 40 C 6.49 39.83, 8.5 39.55, 10 39.44 S 13.51 39.39, 15 39.25 S 18.5 38.62, 20 38.51 S 23.5 38.4, 25 38.51 S 28.5 39.25, 30 39.25 S 33.59 39.01, 35 38.51 S 38.5 35.74, 40 35.71 S 44.46 39.72, 45 38.32 S 48.73 10.8, 50 10 S 54.07 30.81, 55 31.99 S 58.61 23.24, 60 22.67 S 64.03 29.03, 65 27.89 S 68.68 10.22, 70 10.93 S 74.39 31.92, 75 33.29 S 78.53 32.99, 80 33.29 S 83.51 35.17, 85 35.34 S 88.5 34.38, 90 34.41 S 93.5 35.45, 95 35.53 S 98.5 34.94, 100 34.97 S 103.5 35.63, 105 35.71 S 108.5 35.59, 110 35.53 S 113.52 35.12, 115 35.34 S 118.53 36.72, 120 37.02 S 123.5 37.36, 125 37.39 S 128.53 37.5, 130 37.2 S 133.55 35.72, 135 35.34 S 138.52 34.35, 140 34.6 S 143.54 36.69, 145 37.02 S 148.62 37.42, 150 36.83 S 153.5 32.7, 155 32.73 S 158.55 36.64, 160 37.02 S 163.5 35.23, 165 35.34 S 168.5 37.65, 170 37.76 S 173.5 36.03, 175 36.09 S 178.5 38.08, 180 38.14 S 183.5 36.57, 185 36.46 S 188.52 37.17, 190 37.39 S 193.5 37.89, 195 37.95 S 198.5 37.87, 200 37.76 S 203.51 37.37, 205 37.2"
          fill="none"/>
    <circle r="4" cx="5" cy="40" fill="#3023AE"/>
    <circle r="4" cx="205" cy="37.2" fill="#C86DD7"/>      
</svg>