<svg width="200" height="50" viewBox="0 0 210 50" xmlns="http://www.w3.org/2000/svg">
    <defs>
        <linearGradient x1="0%" y1="0%" x2="100%" y2="0%" id="a">
            <stop stop-color="#3023AE" offset="0%"/>
            <stop stop-color="#C86DD7" offset="100%"/>
        </linearGradient>
    </defs>
    <path stroke="url(#a)"
          stroke-width="3"
          stroke-linejoin="round"
          stroke-linecap="round"
          d="M5 40 C 6.49 39.82, 8.5 39.4, 10 39.39 S 13.5 39.83, 15 39.91 S 18.5 39.91, 20 39.91 S 23.5 39.95, 25 39.91 S 29.52 41.07, 30 39.65 S 33.67 10.7, 35 10 S 39.51 32.98, 40 34.4 S 43.65 38.04, 45 38.69 S 48.51 39.07, 50 39.21 S 53.5 39.62, 55 39.65 S 58.5 39.39, 60 39.39 S 63.5 39.61, 65 39.65 S 68.5 39.61, 70 39.65 S 73.5 39.94, 75 39.91 S 78.5 39.48, 80 39.48 S 83.5 39.85, 85 39.91 S 88.5 39.91, 90 39.91 S 93.5 39.91, 95 39.91 S 98.5 39.91, 100 39.91 S 103.5 39.91, 105 39.91 S 108.5 39.91, 110 39.91 S 113.5 39.91, 115 39.91 S 118.5 39.91, 120 39.91 S 123.5 39.91, 125 39.91 S 128.5 39.91, 130 39.91 S 133.5 39.91, 135 39.91 S 138.5 39.91, 140 39.91 S 143.5 39.91, 145 39.91 S 148.5 39.91, 150 39.91 S 153.5 39.91, 155 39.91"
          fill="none"/>
    <circle r="4" cx="5" cy="40" fill="#3023AE"/>
    <circle r="4" cx="155" cy="39.91" fill="#C86DD7"/>      
</svg>