<svg width="200" height="50" viewBox="0 0 210 50" xmlns="http://www.w3.org/2000/svg">
    <defs>
        <linearGradient x1="0%" y1="0%" x2="100%" y2="0%" id="a">
            <stop stop-color="#3023AE" offset="0%"/>
            <stop stop-color="#C86DD7" offset="100%"/>
        </linearGradient>
    </defs>
    <path stroke="url(#a)"
          stroke-width="3"
          stroke-linejoin="round"
          stroke-linecap="round"
          d="M5 40 C 6.5 39.97, 8.5 39.98, 10 39.9 S 13.5 39.51, 15 39.48 S 18.97 40.78, 20 39.69 S 23.64 29.46, 25 28.83 S 29.3 36.35, 30 35.03 S 33.5 9.91, 35 10 S 39.49 34.25, 40 35.66 S 43.51 37.53, 45 37.41 S 48.51 34.97, 50 34.83 S 53.5 36.37, 55 36.48 S 58.52 35.77, 60 35.55 S 63.5 35.12, 65 35.03 S 68.54 35.28, 70 34.93 S 73.57 33.1, 75 32.66 S 78.52 31.59, 80 31.83 S 83.6 33.77, 85 34.31 S 88.5 35.67, 90 35.66 S 93.51 34.35, 95 34.21 S 98.51 34.54, 100 34.72 S 103.5 35.42, 105 35.45 S 108.5 34.9, 110 34.93 S 113.51 35.78, 115 35.66 S 118.51 34.27, 120 34.1 S 123.51 34.35, 125 34.52 S 128.51 35.07, 130 35.24 S 133.5 35.6, 135 35.66 S 138.5 35.63, 140 35.66 S 143.52 36.08, 145 35.86 S 148.83 35.14, 150 34.21 S 153.57 28.35, 155 27.9 S 158.55 30.73, 160 31.1 S 163.5 30.49, 165 30.48 S 168.62 30.4, 170 31 S 173.55 34.45, 175 34.83 S 178.52 33.84, 180 33.59 S 183.51 33.03, 185 33.17 S 188.54 34.17, 190 34.52 S 193.51 35.4, 195 35.55 S 198.5 35.44, 200 35.55 S 203.52 36.06, 205 36.28"
          fill="none"/>
    <circle r="4" cx="5" cy="40" fill="#3023AE"/>
    <circle r="4" cx="205" cy="36.28" fill="#C86DD7"/>      
</svg>