<svg width="200" height="50" viewBox="0 0 210 50" xmlns="http://www.w3.org/2000/svg">
    <defs>
        <linearGradient x1="0%" y1="0%" x2="100%" y2="0%" id="a">
            <stop stop-color="#3023AE" offset="0%"/>
            <stop stop-color="#C86DD7" offset="100%"/>
        </linearGradient>
    </defs>
    <path stroke="url(#a)"
          stroke-width="3"
          stroke-linejoin="round"
          stroke-linecap="round"
          d="M5 40 C 6.31 39.26, 8.52 37.42, 10 37.17 S 13.52 38.55, 15 38.3 S 19.49 36.88, 20 35.47 S 23.5 10.65, 25 10.57 S 29.35 33.56, 30 34.91 S 33.79 32.4, 35 31.51 S 38.5 27.46, 40 27.55 S 43.69 31.34, 45 32.08 S 48.52 32.96, 50 33.21 S 53.54 34.1, 55 33.77 S 58.66 31.62, 60 30.94 S 63.58 28.2, 65 28.68 S 68.58 33.86, 70 34.34 S 73.79 32.97, 75 32.08 S 78.89 27.99, 80 26.98 S 84.24 24.31, 85 23.02 S 88.56 9.59, 90 10 S 94.24 24.56, 95 25.85 S 98.69 26.24, 100 26.98 S 103.5 31.51, 105 31.51 S 108.58 27.46, 110 26.98 S 113.66 27.43, 115 28.11 S 118.5 32.16, 120 32.08 S 123.51 27.72, 125 27.55 S 128.86 29.97, 130 30.94 S 133.52 35.79, 135 36.04 S 138.95 33.71, 140 32.64 S 143.89 26.86, 145 25.85 S 148.63 22.96, 150 23.58 S 153.95 29.31, 155 30.38 S 158.63 33.15, 160 33.77 S 163.52 35.16, 165 34.91 S 168.63 32.7, 170 32.08 S 173.52 30.13, 175 30.38 S 178.56 33.36, 180 33.77 S 183.56 32.8, 185 33.21 S 188.51 36.43, 190 36.6 S 193.56 34.75, 195 34.34 S 198.5 33.86, 200 33.77 S 203.5 33.77, 205 33.77"
          fill="none"/>
    <circle r="4" cx="5" cy="40" fill="#3023AE"/>
    <circle r="4" cx="205" cy="33.769999999999996" fill="#C86DD7"/>      
</svg>