<svg width="200" height="50" viewBox="0 0 210 50" xmlns="http://www.w3.org/2000/svg">
    <defs>
        <linearGradient x1="0%" y1="0%" x2="100%" y2="0%" id="a">
            <stop stop-color="#3023AE" offset="0%"/>
            <stop stop-color="#C86DD7" offset="100%"/>
        </linearGradient>
    </defs>
    <path stroke="url(#a)"
          stroke-width="3"
          stroke-linejoin="round"
          stroke-linecap="round"
          d="M5 40 C 5.43 38.56, 8.51 23.29, 10 23.15 S 14.2 37.82, 15 39.09 S 18.5 38.98, 20 39.07 S 23.5 39.61, 25 39.66 S 28.5 39.42, 30 39.39 S 33.5 39.43, 35 39.43 S 38.5 39.35, 40 39.37 S 43.5 39.53, 45 39.55 S 48.82 40.43, 50 39.51 S 54.4 33.12, 55 31.75 S 58.67 15.9, 60 16.59 S 64.39 35.53, 65 36.9 S 68.5 38.88, 70 38.85 S 73.5 36.79, 75 36.68 S 78.53 37.83, 80 38.12 S 83.5 38.59, 85 38.68 S 88.53 39.02, 90 38.73 S 93.5 36.82, 95 36.7 S 98.53 37.64, 100 37.92 S 103.5 38.52, 105 38.58 S 108.5 38.42, 110 38.32 S 113.5 37.9, 115 37.94 S 118.62 39.18, 120 38.58 S 123.5 33.59, 125 33.61 S 128.69 37.99, 130 38.71 S 133.5 39.03, 135 39.11 S 138.5 39.21, 140 39.23 S 143.5 39.22, 145 39.23 S 148.52 39.53, 150 39.31 S 153.5 37.81, 155 37.77 S 158.5 39.02, 160 39.07 S 163.5 38.05, 165 38.1 S 168.6 39.94, 170 39.41 S 173.51 34.46, 175 34.3 S 178.61 37.79, 180 38.36 S 183.5 38.4, 185 38.42 S 188.5 38.46, 190 38.5 S 193.52 38.93, 195 38.71 S 199.51 38.45, 200 37.03 S 204.73 11.47, 205 10"
          fill="none"/>
    <circle r="4" cx="5" cy="40" fill="#3023AE"/>
    <circle r="4" cx="205" cy="10" fill="#C86DD7"/>      
</svg>