<svg width="200" height="50" viewBox="0 0 210 50" xmlns="http://www.w3.org/2000/svg">
    <defs>
        <linearGradient x1="0%" y1="0%" x2="100%" y2="0%" id="a">
            <stop stop-color="#3023AE" offset="0%"/>
            <stop stop-color="#C86DD7" offset="100%"/>
        </linearGradient>
    </defs>
    <path stroke="url(#a)"
          stroke-width="3"
          stroke-linejoin="round"
          stroke-linecap="round"
          d="M5 40 C 5.25 38.52, 9.03 11.14, 10 10 S 14.06 27.1, 15 28.27 S 18.81 21.46, 20 22.38 S 24.21 34.7, 25 35.97 S 28.57 37.97, 30 38.44 S 33.51 39.09, 35 39.25 S 38.5 39.49, 40 39.5 S 43.52 39.56, 45 39.33 S 48.5 37.97, 50 37.98 S 53.51 39.28, 55 39.42 S 58.5 38.93, 60 38.95 S 63.5 39.49, 65 39.58 S 68.51 39.71, 70 39.58 S 73.5 38.8, 75 38.69 S 78.5 38.74, 80 38.83 S 83.5 39.2, 85 39.3 S 88.5 39.46, 90 39.48 S 93.5 39.41, 95 39.41 S 98.5 39.49, 100 39.5 S 103.5 39.47, 105 39.48 S 108.5 39.57, 110 39.57 S 113.5 39.49, 115 39.48 S 118.5 39.54, 120 39.51 S 123.5 39.28, 125 39.29 S 128.5 39.53, 130 39.58 S 133.5 39.63, 135 39.65 S 138.5 39.79, 140 39.7 S 143.51 39.17, 145 39.04 S 148.5 38.72, 150 38.8 S 153.7 40.35, 155 39.59 S 158.51 33.17, 160 32.97 S 163.73 37.46, 165 38.26 S 168.5 39.29, 170 39.27 S 173.5 38.18, 175 38.14 S 178.51 38.84, 180 39.02 S 183.5 39.35, 185 39.35 S 188.5 39.07, 190 39.04 S 193.5 39.11, 195 39.17 S 198.5 39.36, 200 39.41 S 203.5 39.46, 205 39.48"
          fill="none"/>
    <circle r="4" cx="5" cy="40" fill="#3023AE"/>
    <circle r="4" cx="205" cy="39.48" fill="#C86DD7"/>      
</svg>