<svg width="200" height="50" viewBox="0 0 210 50" xmlns="http://www.w3.org/2000/svg">
    <defs>
        <linearGradient x1="0%" y1="0%" x2="100%" y2="0%" id="a">
            <stop stop-color="#3023AE" offset="0%"/>
            <stop stop-color="#C86DD7" offset="100%"/>
        </linearGradient>
    </defs>
    <path stroke="url(#a)"
          stroke-width="3"
          stroke-linejoin="round"
          stroke-linecap="round"
          d="M5 40 C 6.46 39.67, 8.5 38.97, 10 38.89 S 13.54 39.77, 15 39.44 S 19.12 37.89, 20 36.67 S 23.75 26.39, 25 25.56 S 28.97 28.91, 30 30 S 33.82 35.19, 35 36.11 S 38.55 38.18, 40 37.78 S 43.54 33.66, 45 33.33 S 48.58 35.08, 50 35.56 S 53.58 37.15, 55 36.67 S 58.85 33.18, 60 32.22 S 63.5 28.25, 65 28.33 S 68.72 32, 70 32.78 S 73.51 34.61, 75 34.44 S 78.5 31.67, 80 31.67 S 83.6 33.9, 85 34.44 S 88.52 35.31, 90 35.56 S 93.5 36.19, 95 36.11 S 98.75 35.83, 100 35 S 103.63 30.05, 105 29.44 S 108.66 29.89, 110 30.56 S 113.52 34.69, 115 34.44 S 118.5 28.89, 120 28.89 S 123.5 34.44, 125 34.44 S 129.15 30.12, 130 28.89 S 133.5 19.92, 135 20 S 139.21 28.17, 140 29.44 S 143.58 36.58, 145 36.11 S 148.5 26.03, 150 26.11 S 153.51 36.5, 155 36.67 S 158.97 28.31, 160 27.22 S 163.55 26.51, 165 26.11 S 169.21 25.71, 170 24.44 S 173.58 10.47, 175 10 S 179.1 19.91, 180 21.11 S 183.82 22.41, 185 23.33 S 188.94 27.83, 190 28.89 S 193.69 32.6, 195 33.33 S 198.5 34.52, 200 34.44 S 203.58 33.25, 205 32.78"
          fill="none"/>
    <circle r="4" cx="5" cy="40" fill="#3023AE"/>
    <circle r="4" cx="205" cy="32.78" fill="#C86DD7"/>      
</svg>