<svg width="200" height="50" viewBox="0 0 210 50" xmlns="http://www.w3.org/2000/svg">
    <defs>
        <linearGradient x1="0%" y1="0%" x2="100%" y2="0%" id="a">
            <stop stop-color="#3023AE" offset="0%"/>
            <stop stop-color="#C86DD7" offset="100%"/>
        </linearGradient>
    </defs>
    <path stroke="url(#a)"
          stroke-width="3"
          stroke-linejoin="round"
          stroke-linecap="round"
          d="M5 40 C 5.67 38.66, 8.55 30.4, 10 30 S 13.75 38.05, 15 37.22 S 19.28 24.65, 20 23.33 S 23.88 17.89, 25 18.89 S 28.54 31.89, 30 32.22 S 33.5 21.19, 35 21.11 S 38.66 31, 40 31.67 S 43.58 26.59, 45 26.11 S 48.6 27.79, 50 28.33 S 53.5 30.08, 55 30 S 58.55 27.38, 60 27.78 S 63.55 32.38, 65 32.78 S 68.51 30.73, 70 30.56 S 73.54 31.34, 75 31.67 S 78.63 33.39, 80 32.78 S 83.58 27.7, 85 27.22 S 88.5 29.44, 90 29.44 S 93.69 27.95, 95 27.22 S 98.75 24.72, 100 23.89 S 103.55 20.16, 105 20.56 S 108.72 27.45, 110 26.67 S 113.55 14.84, 115 14.44 S 119.02 22.75, 120 23.89 S 123.5 26.03, 125 26.11 S 129.12 25.66, 130 24.44 S 134.15 13.45, 135 12.22 S 138.5 9.92, 140 10 S 143.72 12, 145 12.78 S 148.82 15.19, 150 16.11 S 153.52 20.31, 155 20.56 S 158.51 17.61, 160 17.78 S 163.91 20.64, 165 21.67 S 168.52 27.47, 170 27.22 S 173.94 21.06, 175 20 S 178.5 17.3, 180 17.22 S 183.54 19.77, 185 19.44 S 188.69 14.27, 190 15 S 193.75 24.17, 195 25 S 198.63 22.28, 200 21.67 S 203.54 20.89, 205 20.56"
          fill="none"/>
    <circle r="4" cx="5" cy="40" fill="#3023AE"/>
    <circle r="4" cx="205" cy="20.56" fill="#C86DD7"/>      
</svg>