<svg width="200" height="50" viewBox="0 0 210 50" xmlns="http://www.w3.org/2000/svg">
    <defs>
        <linearGradient x1="0%" y1="0%" x2="100%" y2="0%" id="a">
            <stop stop-color="#3023AE" offset="0%"/>
            <stop stop-color="#C86DD7" offset="100%"/>
        </linearGradient>
    </defs>
    <path stroke="url(#a)"
          stroke-width="3"
          stroke-linejoin="round"
          stroke-linecap="round"
          d="M5 40 C 6.2 39.1, 8.6 36.78, 10 36.25 S 13.5 36.25, 15 36.25 S 18.5 36.25, 20 36.25 S 23.5 36.25, 25 36.25 S 28.5 36.25, 30 36.25 S 33.5 36.25, 35 36.25 S 38.5 36.25, 40 36.25 S 43.5 36.25, 45 36.25 S 48.5 36.25, 50 36.25 S 53.5 36.25, 55 36.25 S 58.5 36.25, 60 36.25 S 63.5 36.25, 65 36.25 S 68.5 36.25, 70 36.25 S 73.5 36.25, 75 36.25 S 78.5 36.25, 80 36.25 S 83.5 36.25, 85 36.25 S 88.5 36.25, 90 36.25 S 93.5 36.25, 95 36.25 S 98.5 36.25, 100 36.25 S 103.5 36.25, 105 36.25 S 108.5 36.25, 110 36.25 S 114 37.37, 115 36.25 S 118.8 25.9, 120 25 S 123.6 28.22, 125 28.75 S 128.6 28.22, 130 28.75 S 133.8 31.6, 135 32.5 S 138.8 37.15, 140 36.25 S 143.5 25, 145 25 S 149 35.13, 150 36.25 S 153.5 36.25, 155 36.25 S 158.5 36.25, 160 36.25 S 163.8 37.15, 165 36.25 S 168.6 29.28, 170 28.75 S 173.6 33.03, 175 32.5 S 179 26.12, 180 25 S 184.17 22.5, 185 21.25 S 189 8.88, 190 10 S 194.17 31.25, 195 32.5 S 198.6 25.53, 200 25 S 203.8 27.85, 205 28.75"
          fill="none"/>
    <circle r="4" cx="5" cy="40" fill="#3023AE"/>
    <circle r="4" cx="205" cy="28.75" fill="#C86DD7"/>      
</svg>