<svg width="200" height="50" viewBox="0 0 210 50" xmlns="http://www.w3.org/2000/svg">
    <defs>
        <linearGradient x1="0%" y1="0%" x2="100%" y2="0%" id="a">
            <stop stop-color="#3023AE" offset="0%"/>
            <stop stop-color="#C86DD7" offset="100%"/>
        </linearGradient>
    </defs>
    <path stroke="url(#a)"
          stroke-width="3"
          stroke-linejoin="round"
          stroke-linecap="round"
          d="M5 40 C 5.25 38.52, 8.5 10.12, 10 10 S 14.51 37.79, 15 39.21 S 18.5 39.21, 20 39.21 S 23.5 39.21, 25 39.21 S 28.5 39.21, 30 39.21 S 33.57 39.66, 35 39.21 S 38.52 36.28, 40 36.05 S 43.57 37.18, 45 37.63 S 48.52 38.98, 50 39.21 S 53.5 39.21, 55 39.21 S 58.78 40.08, 60 39.21 S 63.54 32.46, 65 32.11 S 68.78 35.97, 70 36.84 S 73.5 39.09, 75 39.21 S 78.52 37.86, 80 37.63 S 83.52 37.4, 85 37.63 S 88.52 38.98, 90 39.21 S 93.5 39.33, 95 39.21 S 98.5 38.42, 100 38.42 S 103.5 39.09, 105 39.21 S 108.5 39.21, 110 39.21 S 113.5 39.21, 115 39.21 S 118.5 39.21, 120 39.21 S 123.5 39.21, 125 39.21 S 128.5 39.33, 130 39.21 S 133.5 38.42, 135 38.42 S 138.5 39.21, 140 39.21 S 143.5 38.42, 145 38.42 S 148.5 39.09, 150 39.21 S 153.5 39.21, 155 39.21 S 158.5 39.21, 160 39.21 S 163.5 39.33, 165 39.21 S 168.5 38.42, 170 38.42 S 173.5 39.09, 175 39.21 S 178.5 39.21, 180 39.21 S 183.57 39.66, 185 39.21 S 188.52 36.28, 190 36.05 S 193.57 37.18, 195 37.63 S 198.5 39.09, 200 39.21 S 203.52 38.65, 205 38.42"
          fill="none"/>
    <circle r="4" cx="5" cy="40" fill="#3023AE"/>
    <circle r="4" cx="205" cy="38.42" fill="#C86DD7"/>      
</svg>