<svg width="200" height="50" viewBox="0 0 210 50" xmlns="http://www.w3.org/2000/svg">
    <defs>
        <linearGradient x1="0%" y1="0%" x2="100%" y2="0%" id="a">
            <stop stop-color="#3023AE" offset="0%"/>
            <stop stop-color="#C86DD7" offset="100%"/>
        </linearGradient>
    </defs>
    <path stroke="url(#a)"
          stroke-width="3"
          stroke-linejoin="round"
          stroke-linecap="round"
          d="M5 40 C 5.83 38.75, 9.11 33.71, 10 32.5 S 14.04 27.65, 15 26.5 S 18.6 19.97, 20 20.5 S 24.04 29.1, 25 30.25 S 28.5 32.5, 30 32.5 S 33.67 30.95, 35 30.25 S 39.27 28.56, 40 27.25 S 43.84 13.2, 45 12.25 S 48.71 18.23, 50 19 S 54.07 17.07, 55 18.25 S 58.54 31.42, 60 31.75 S 63.76 21.34, 65 20.5 S 68.52 24.78, 70 25 S 73.5 21.89, 75 22 S 78.84 24.8, 80 25.75 S 83.56 30.68, 85 30.25 S 88.63 23.37, 90 22.75 S 93.67 26.45, 95 25.75 S 98.54 17.83, 100 17.5 S 103.5 23.39, 105 23.5 S 108.54 17.92, 110 18.25 S 113.5 25.75, 115 25.75 S 119.17 19.5, 120 18.25 S 123.5 10.86, 125 10.75 S 128.97 16.41, 130 17.5 S 133.5 21.36, 135 21.25 S 138.76 17.59, 140 16.75 S 143.63 13.88, 145 14.5 S 148.54 20.92, 150 21.25 S 153.56 17.18, 155 16.75 S 158.63 17.63, 160 18.25 S 163.71 20.48, 165 21.25 S 168.52 24.03, 170 24.25 S 173.8 23.65, 175 22.75 S 178.93 17.8, 180 16.75 S 183.76 13.84, 185 13 S 188.97 8.91, 190 10 S 193.5 23.5, 195 23.5 S 198.84 10.95, 200 10 S 203.97 14.16, 205 15.25"
          fill="none"/>
    <circle r="4" cx="5" cy="40" fill="#3023AE"/>
    <circle r="4" cx="205" cy="15.25" fill="#C86DD7"/>      
</svg>