<svg width="200" height="50" viewBox="0 0 210 50" xmlns="http://www.w3.org/2000/svg">
    <defs>
        <linearGradient x1="0%" y1="0%" x2="100%" y2="0%" id="a">
            <stop stop-color="#3023AE" offset="0%"/>
            <stop stop-color="#C86DD7" offset="100%"/>
        </linearGradient>
    </defs>
    <path stroke="url(#a)"
          stroke-width="3"
          stroke-linejoin="round"
          stroke-linecap="round"
          d="M5 40 C 6.25 39.17, 8.52 36.92, 10 36.67 S 13.52 38.08, 15 38.33 S 18.5 38.33, 20 38.33 S 23.52 38.58, 25 38.33 S 29.28 37.99, 30 36.67 S 33.52 20.25, 35 20 S 39.23 33.71, 40 35 S 43.58 36.2, 45 36.67 S 48.52 38.08, 50 38.33 S 53.5 38.33, 55 38.33 S 58.52 38.58, 60 38.33 S 63.5 36.67, 65 36.67 S 68.66 39, 70 38.33 S 73.58 32.14, 75 31.67 S 78.66 34.33, 80 35 S 83.58 36.2, 85 36.67 S 88.52 38.08, 90 38.33 S 93.66 39, 95 38.33 S 99.5 34.74, 100 33.33 S 103.58 9.52, 105 10 S 109.41 35.29, 110 36.67 S 113.5 33.33, 115 33.33 S 118.66 36, 120 36.67 S 123.52 38.08, 125 38.33 S 128.5 38.33, 130 38.33 S 133.75 39.16, 135 38.33 S 138.58 32.14, 140 31.67 S 143.66 34.33, 145 35 S 148.75 37.5, 150 36.67 S 154.44 29.72, 155 28.33 S 158.58 11.19, 160 11.67 S 164.33 30.33, 165 31.67 S 168.52 31.42, 170 31.67 S 173.66 32.66, 175 33.33 S 178.5 36.67, 180 36.67 S 183.58 33.81, 185 33.33 S 188.66 32.66, 190 33.33 S 193.66 37.66, 195 38.33 S 198.66 39, 200 38.33 S 203.94 34.39, 205 33.33"
          fill="none"/>
    <circle r="4" cx="5" cy="40" fill="#3023AE"/>
    <circle r="4" cx="205" cy="33.33" fill="#C86DD7"/>      
</svg>