<svg width="200" height="50" viewBox="0 0 210 50" xmlns="http://www.w3.org/2000/svg">
    <defs>
        <linearGradient x1="0%" y1="0%" x2="100%" y2="0%" id="a">
            <stop stop-color="#3023AE" offset="0%"/>
            <stop stop-color="#C86DD7" offset="100%"/>
        </linearGradient>
    </defs>
    <path stroke="url(#a)"
          stroke-width="3"
          stroke-linejoin="round"
          stroke-linecap="round"
          d="M5 40 C 6.32 39.28, 8.55 37.67, 10 37.27 S 13.5 37.27, 15 37.27 S 18.5 37.27, 20 37.27 S 23.5 37.27, 25 37.27 S 28.68 37.99, 30 37.27 S 33.68 32.54, 35 31.82 S 38.55 31.42, 40 31.82 S 43.84 35.5, 45 34.55 S 48.55 23.25, 50 23.64 S 53.68 37.99, 55 37.27 S 59.22 19.46, 60 18.18 S 63.84 19.96, 65 20.91 S 68.68 25.64, 70 26.36 S 73.55 26.75, 75 26.36 S 78.84 22.69, 80 23.64 S 83.55 34.16, 85 34.55 S 88.55 25.97, 90 26.36 S 93.99 36.16, 95 37.27 S 98.5 37.27, 100 37.27 S 104.11 38.48, 105 37.27 S 109.3 24.97, 110 23.64 S 113.5 18.18, 115 18.18 S 118.99 22.53, 120 23.64 S 123.99 27.98, 125 29.09 S 128.84 33.6, 130 34.55 S 133.68 37.99, 135 37.27 S 138.5 29.09, 140 29.09 S 143.84 36.32, 145 37.27 S 148.55 37.66, 150 37.27 S 153.5 34.55, 155 34.55 S 158.84 38.22, 160 37.27 S 164.48 27.77, 165 26.36 S 168.68 10.72, 170 10 S 174.38 19.55, 175 20.91 S 179.11 30.61, 180 31.82 S 183.68 33.83, 185 34.55 S 188.55 36.88, 190 37.27 S 194.3 38.6, 195 37.27 S 198.55 18.57, 200 18.18 S 204.56 33.12, 205 34.55"
          fill="none"/>
    <circle r="4" cx="5" cy="40" fill="#3023AE"/>
    <circle r="4" cx="205" cy="34.55" fill="#C86DD7"/>      
</svg>