<svg width="200" height="50" viewBox="0 0 210 50" xmlns="http://www.w3.org/2000/svg">
    <defs>
        <linearGradient x1="0%" y1="0%" x2="100%" y2="0%" id="a">
            <stop stop-color="#3023AE" offset="0%"/>
            <stop stop-color="#C86DD7" offset="100%"/>
        </linearGradient>
    </defs>
    <path stroke="url(#a)"
          stroke-width="3"
          stroke-linejoin="round"
          stroke-linecap="round"
          d="M5 40 C 5.67 38.66, 8.66 30.67, 10 30 S 13.66 34.33, 15 35 S 19.17 36.25, 20 35 S 23.5 20, 25 20 S 29.17 33.75, 30 35 S 33.5 35, 35 35 S 38.5 35, 40 35 S 43.5 35, 45 35 S 48.94 36.06, 50 35 S 53.66 25.67, 55 25 S 58.94 28.94, 60 30 S 63.66 35.67, 65 35 S 69.33 26.34, 70 25 S 73.94 13.94, 75 15 S 79.33 33.66, 80 35 S 83.5 35, 85 35 S 88.94 36.06, 90 35 S 94.33 26.34, 95 25 S 98.94 16.06, 100 15 S 104.17 13.75, 105 15 S 109.33 28.66, 110 30 S 113.5 35, 115 35 S 118.5 30, 120 30 S 123.5 35, 125 35 S 129.33 31.34, 130 30 S 133.66 15.67, 135 15 S 139.33 23.66, 140 25 S 143.94 33.94, 145 35 S 148.94 36.06, 150 35 S 153.94 26.06, 155 25 S 158.66 24.33, 160 25 S 163.5 30, 165 30 S 168.66 25.67, 170 25 S 173.5 25, 175 25 S 179.17 26.25, 180 25 S 183.5 10, 185 10 S 189.44 23.61, 190 25 S 193.5 35, 195 35 S 199.17 26.25, 200 25 S 203.94 21.06, 205 20"
          fill="none"/>
    <circle r="4" cx="5" cy="40" fill="#3023AE"/>
    <circle r="4" cx="205" cy="20" fill="#C86DD7"/>      
</svg>