<svg width="200" height="50" viewBox="0 0 210 50" xmlns="http://www.w3.org/2000/svg">
    <defs>
        <linearGradient x1="0%" y1="0%" x2="100%" y2="0%" id="a">
            <stop stop-color="#3023AE" offset="0%"/>
            <stop stop-color="#C86DD7" offset="100%"/>
        </linearGradient>
    </defs>
    <path stroke="url(#a)"
          stroke-width="3"
          stroke-linejoin="round"
          stroke-linecap="round"
          d="M5 40 C 6.43 39.54, 8.98 39.48, 10 38.38 S 13.51 28.98, 15 29.18 S 18.86 38.72, 20 39.7 S 23.54 38.09, 25 37.74 S 28.5 37.44, 30 37.33 S 33.51 37.23, 35 37.03 S 38.52 36.23, 40 35.97 S 43.5 35.35, 45 35.3 S 48.51 35.8, 50 35.64 S 53.55 34.59, 55 34.21 S 58.5 33.05, 60 32.99 S 63.5 33.81, 65 33.8 S 68.51 33.02, 70 32.89 S 73.6 33.48, 75 32.94 S 78.58 29.53, 80 29.05 S 83.5 29.6, 85 29.54 S 88.5 28.78, 90 28.66 S 93.6 29.27, 95 28.74 S 98.59 25.42, 100 24.91 S 103.52 25.37, 105 25.15 S 108.5 23.31, 110 23.43 S 113.58 26.41, 115 25.93 S 118.59 20.53, 120 20.02 S 123.5 22.36, 125 22.32 S 128.59 20.25, 130 19.75 S 133.5 18.85, 135 18.79 S 138.5 19.26, 140 19.38 S 143.84 20.53, 145 19.58 S 148.92 12.26, 150 11.22 S 153.51 9.86, 155 10 S 158.85 11.23, 160 12.19 S 163.86 17.42, 165 18.39 S 168.52 20.5, 170 20.72 S 173.5 19.88, 175 19.88 S 178.5 20.6, 180 20.69 S 183.5 20.58, 185 20.46 S 188.53 19.58, 190 19.9 S 193.6 22.09, 195 22.64 S 198.5 23.85, 200 23.8 S 203.56 22.73, 205 22.3"
          fill="none"/>
    <circle r="4" cx="5" cy="40" fill="#3023AE"/>
    <circle r="4" cx="205" cy="22.3" fill="#C86DD7"/>      
</svg>