<svg width="200" height="50" viewBox="0 0 210 50" xmlns="http://www.w3.org/2000/svg">
    <defs>
        <linearGradient x1="0%" y1="0%" x2="100%" y2="0%" id="a">
            <stop stop-color="#3023AE" offset="0%"/>
            <stop stop-color="#C86DD7" offset="100%"/>
        </linearGradient>
    </defs>
    <path stroke="url(#a)"
          stroke-width="3"
          stroke-linejoin="round"
          stroke-linecap="round"
          d="M5 40 C 6.39 39.45, 9.1 39.21, 10 38.01 S 13.53 26.37, 15 26.66 S 19.08 38.77, 20 39.95 S 23.53 39.79, 25 39.48 S 28.52 38.1, 30 37.84 S 33.5 37.78, 35 37.69 S 38.5 37.36, 40 37.24 S 43.51 37.05, 45 36.89 S 48.51 36.36, 50 36.17 S 53.5 35.64, 55 35.6 S 58.5 35.87, 60 35.87 S 63.52 35.89, 65 35.63 S 68.55 34.45, 70 34.08 S 73.5 33.16, 75 33.11 S 78.51 33.59, 80 33.73 S 83.5 34.12, 85 34.04 S 88.51 33.38, 90 33.22 S 93.54 33.32, 95 32.99 S 98.62 31.53, 100 30.94 S 103.52 28.92, 105 28.68 S 108.52 29.11, 110 29.35 S 113.5 30.31, 115 30.28 S 118.57 29.61, 120 29.16 S 123.58 27.59, 125 27.11 S 128.55 26.17, 130 25.79 S 133.54 24.81, 135 24.46 S 138.51 23.25, 140 23.41 S 143.52 25.3, 145 25.55 S 148.68 25.84, 150 25.12 S 153.53 20.38, 155 20.1 S 158.51 23.1, 160 23.24 S 163.73 21.81, 165 21.01 S 168.5 16.9, 170 16.97 S 173.56 21.03, 175 21.46 S 178.54 20.3, 180 19.94 S 183.81 19.91, 185 18.99 S 188.68 12.95, 190 12.24 S 193.54 13.97, 195 13.64 S 198.54 10.34, 200 10 S 203.55 10.93, 205 11.31"
          fill="none"/>
    <circle r="4" cx="5" cy="40" fill="#3023AE"/>
    <circle r="4" cx="205" cy="11.309999999999999" fill="#C86DD7"/>      
</svg>