<svg width="200" height="50" viewBox="0 0 210 50" xmlns="http://www.w3.org/2000/svg">
    <defs>
        <linearGradient x1="0%" y1="0%" x2="100%" y2="0%" id="a">
            <stop stop-color="#3023AE" offset="0%"/>
            <stop stop-color="#C86DD7" offset="100%"/>
        </linearGradient>
    </defs>
    <path stroke="url(#a)"
          stroke-width="3"
          stroke-linejoin="round"
          stroke-linecap="round"
          d="M5 40 C 6.43 39.54, 8.97 39.49, 10 38.4 S 13.51 29.13, 15 29.33 S 18.86 38.78, 20 39.75 S 23.54 38.14, 25 37.8 S 28.5 37.55, 30 37.45 S 33.51 37.31, 35 37.1 S 38.52 36.31, 40 36.05 S 43.5 35.4, 45 35.34 S 48.51 35.75, 50 35.63 S 53.54 34.85, 55 34.52 S 58.5 33.45, 60 33.35 S 63.5 33.91, 65 33.85 S 68.5 33.06, 70 32.94 S 73.58 33.52, 75 33.04 S 78.56 30, 80 29.57 S 83.5 30.08, 85 30.01 S 88.51 29.29, 90 29.13 S 93.63 29.56, 95 28.95 S 98.54 25.02, 100 24.68 S 103.52 26.83, 105 26.6 S 108.5 23.2, 110 23.1 S 113.52 26.13, 115 25.92 S 118.6 22.22, 120 21.67 S 123.5 22.07, 125 21.97 S 128.57 21.43, 130 20.98 S 133.51 18.99, 135 18.85 S 138.51 19.88, 140 20.04 S 143.77 20.79, 145 19.93 S 148.94 14.14, 150 13.08 S 153.5 10.07, 155 10 S 158.82 11.69, 160 12.61 S 163.85 16.86, 165 17.83 S 168.55 20.67, 170 21.04 S 173.5 20.36, 175 20.34 S 178.52 20.67, 180 20.91 S 183.53 22.25, 185 21.93 S 188.51 18.62, 190 18.75 S 193.69 22.06, 195 22.79 S 198.51 24.52, 200 24.36 S 203.67 22.41, 205 21.71"
          fill="none"/>
    <circle r="4" cx="5" cy="40" fill="#3023AE"/>
    <circle r="4" cx="205" cy="21.71" fill="#C86DD7"/>      
</svg>