<svg width="200" height="50" viewBox="0 0 210 50" xmlns="http://www.w3.org/2000/svg">
    <defs>
        <linearGradient x1="0%" y1="0%" x2="100%" y2="0%" id="a">
            <stop stop-color="#3023AE" offset="0%"/>
            <stop stop-color="#C86DD7" offset="100%"/>
        </linearGradient>
    </defs>
    <path stroke="url(#a)"
          stroke-width="3"
          stroke-linejoin="round"
          stroke-linecap="round"
          d="M5 40 C 5.25 38.52, 8.55 10.37, 10 10 S 14.47 36.08, 15 37.48 S 18.5 36.48, 20 36.44 S 23.53 36.9, 25 37.18 S 28.5 38.46, 30 38.37 S 33.51 36.76, 35 36.58 S 38.51 36.98, 40 37.18 S 43.54 37.59, 45 37.92 S 48.51 39.21, 50 39.41 S 53.5 39.35, 55 39.26 S 58.51 38.97, 60 38.81 S 63.51 38.09, 65 38.22 S 68.52 39.46, 70 39.7 S 73.5 39.83, 75 39.85 S 78.51 39.98, 80 39.85 S 83.66 39.64, 85 38.96 S 88.58 35.29, 90 34.8 S 93.51 35.72, 95 35.54 S 98.5 33.59, 100 33.61 S 103.51 35.56, 105 35.69 S 108.53 34.81, 110 34.5 S 113.5 33.72, 115 33.61 S 118.5 33.85, 120 33.76 S 123.57 33.48, 125 33.02 S 128.51 30.68, 130 30.5 S 133.59 31.31, 135 31.83 S 138.5 34.23, 140 34.21 S 144.16 32.92, 145 31.68 S 148.5 19.46, 150 19.5 S 154.06 30.81, 155 31.98 S 158.65 31.34, 160 31.98 S 163.8 35.84, 165 36.73 S 168.52 39.15, 170 39.41 S 173.54 38.84, 175 38.51 S 178.5 37.22, 180 37.18 S 183.5 38.33, 185 38.22 S 188.5 36.33, 190 36.44 S 193.53 38.66, 195 38.96 S 198.51 38.64, 200 38.51 S 203.51 38.2, 205 38.07"
          fill="none"/>
    <circle r="4" cx="5" cy="40" fill="#3023AE"/>
    <circle r="4" cx="205" cy="38.07" fill="#C86DD7"/>      
</svg>