<svg width="200" height="50" viewBox="0 0 210 50" xmlns="http://www.w3.org/2000/svg">
    <defs>
        <linearGradient x1="0%" y1="0%" x2="100%" y2="0%" id="a">
            <stop stop-color="#3023AE" offset="0%"/>
            <stop stop-color="#C86DD7" offset="100%"/>
        </linearGradient>
    </defs>
    <path stroke="url(#a)"
          stroke-width="3"
          stroke-linejoin="round"
          stroke-linecap="round"
          d="M5 40 C 5.25 38.52, 8.73 10.8, 10 10 S 14.45 32.34, 15 33.74 S 18.5 35.32, 20 35.36 S 23.53 34.31, 25 34 S 28.51 33.42, 30 33.26 S 33.5 32.82, 35 32.92 S 38.51 33.8, 40 33.92 S 43.52 34, 45 33.74 S 48.5 32.3, 50 32.19 S 53.5 33.03, 55 33.02 S 58.5 32.11, 60 32.11 S 63.5 33, 65 33 S 68.51 32.34, 70 32.13 S 73.5 31.63, 75 31.61 S 78.5 31.91, 80 32.01 S 83.5 32.2, 85 32.31 S 88.5 32.84, 90 32.74 S 93.51 31.82, 95 31.63 S 98.5 31.43, 100 31.43 S 103.51 31.52, 105 31.65 S 108.5 32.38, 110 32.27 S 113.5 30.98, 115 30.89 S 118.51 31.51, 120 31.67 S 123.5 31.84, 125 31.95 S 128.52 32.19, 130 32.41 S 133.5 33.43, 135 33.4 S 138.51 32.35, 140 32.23 S 143.5 32.68, 145 32.58 S 148.51 31.43, 150 31.57 S 153.52 33.29, 155 33.52 S 158.5 33.18, 160 33.1 S 163.5 33.05, 165 32.96 S 168.5 32.6, 170 32.49 S 173.5 32.23, 175 32.25 S 178.51 32.44, 180 32.62 S 183.51 33.32, 185 33.46 S 188.5 33.53, 190 33.56 S 193.5 33.57, 195 33.64 S 198.5 34.09, 200 34.04 S 203.52 33.51, 205 33.28"
          fill="none"/>
    <circle r="4" cx="5" cy="40" fill="#3023AE"/>
    <circle r="4" cx="205" cy="33.28" fill="#C86DD7"/>      
</svg>