<svg width="200" height="50" viewBox="0 0 210 50" xmlns="http://www.w3.org/2000/svg">
    <defs>
        <linearGradient x1="0%" y1="0%" x2="100%" y2="0%" id="a">
            <stop stop-color="#3023AE" offset="0%"/>
            <stop stop-color="#C86DD7" offset="100%"/>
        </linearGradient>
    </defs>
    <path stroke="url(#a)"
          stroke-width="3"
          stroke-linejoin="round"
          stroke-linecap="round"
          d="M5 40 C 5.25 38.52, 8.51 10.14, 10 10 S 14.52 37.63, 15 39.05 S 18.5 39.72, 20 39.82 S 23.5 39.72, 25 39.7 S 28.5 39.66, 30 39.7 S 33.5 39.97, 35 39.94 S 38.5 39.53, 40 39.52 S 43.5 39.82, 45 39.88 S 48.5 39.95, 50 39.94 S 53.5 39.85, 55 39.82 S 58.5 39.77, 60 39.76 S 63.5 39.73, 65 39.76 S 68.5 39.91, 70 39.94 S 73.5 39.94, 75 39.94 S 78.5 39.94, 80 39.94 S 83.5 39.94, 85 39.94 S 88.5 39.94, 90 39.94 S 93.51 40.11, 95 39.94 S 98.5 38.83, 100 38.81 S 103.51 39.65, 105 39.82 S 108.5 39.92, 110 39.94 S 113.5 39.94, 115 39.94 S 118.5 39.94, 120 39.94 S 123.5 39.94, 125 39.94 S 128.5 39.94, 130 39.94 S 133.5 39.94, 135 39.94 S 138.5 39.95, 140 39.94 S 143.5 39.89, 145 39.88 S 148.5 39.88, 150 39.88 S 153.5 39.9, 155 39.88 S 158.5 39.75, 160 39.76 S 163.5 39.91, 165 39.94 S 168.5 39.95, 170 39.94 S 173.5 39.88, 175 39.88 S 178.5 39.93, 180 39.94 S 183.5 39.96, 185 39.94 S 188.5 39.85, 190 39.82 S 193.5 39.77, 195 39.76 S 198.5 39.76, 200 39.76"
          fill="none"/>
    <circle r="4" cx="5" cy="40" fill="#3023AE"/>
    <circle r="4" cx="200" cy="39.76" fill="#C86DD7"/>      
</svg>