<svg width="200" height="50" viewBox="0 0 210 50" xmlns="http://www.w3.org/2000/svg">
    <defs>
        <linearGradient x1="0%" y1="0%" x2="100%" y2="0%" id="a">
            <stop stop-color="#3023AE" offset="0%"/>
            <stop stop-color="#C86DD7" offset="100%"/>
        </linearGradient>
    </defs>
    <path stroke="url(#a)"
          stroke-width="3"
          stroke-linejoin="round"
          stroke-linecap="round"
          d="M5 40 C 6.46 39.67, 8.75 39.72, 10 38.89 S 13.5 33.41, 15 33.33 S 18.6 37.79, 20 38.33 S 23.5 37.3, 25 37.22 S 28.51 37.61, 30 37.78 S 33.5 38.33, 35 38.33 S 38.5 37.86, 40 37.78 S 43.51 37.61, 45 37.78 S 48.51 38.72, 50 38.89 S 53.5 38.97, 55 38.89 S 58.58 38.8, 60 38.33 S 63.5 35.48, 65 35.56 S 68.54 38.56, 70 38.89 S 73.51 37.95, 75 37.78 S 78.52 38.03, 80 37.78 S 83.51 35.94, 85 36.11 S 88.55 38.49, 90 38.89 S 93.5 38.89, 95 38.89 S 98.5 38.81, 100 38.89 S 103.5 39.36, 105 39.44 S 108.5 39.44, 110 39.44 S 113.5 39.44, 115 39.44 S 118.58 39.91, 120 39.44 S 123.5 36.19, 125 36.11 S 128.5 38.89, 130 38.89 S 133.66 36.78, 135 36.11 S 138.5 33.81, 140 33.89 S 143.5 36.67, 145 36.67 S 148.58 34.37, 150 33.89 S 153.55 32.93, 155 33.33 S 158.5 36.67, 160 36.67 S 163.66 34, 165 33.33 S 168.54 31.34, 170 31.67 S 173.52 35.31, 175 35.56 S 178.55 33.73, 180 33.33 S 183.52 32.53, 185 32.78 S 188.52 34.75, 190 35 S 193.52 34.69, 195 34.44 S 199.43 34.72, 200 33.33 S 204.69 11.47, 205 10"
          fill="none"/>
    <circle r="4" cx="5" cy="40" fill="#3023AE"/>
    <circle r="4" cx="205" cy="10" fill="#C86DD7"/>      
</svg>