<svg width="200" height="50" viewBox="0 0 210 50" xmlns="http://www.w3.org/2000/svg">
    <defs>
        <linearGradient x1="0%" y1="0%" x2="100%" y2="0%" id="a">
            <stop stop-color="#3023AE" offset="0%"/>
            <stop stop-color="#C86DD7" offset="100%"/>
        </linearGradient>
    </defs>
    <path stroke="url(#a)"
          stroke-width="3"
          stroke-linejoin="round"
          stroke-linecap="round"
          d="M5 40 C 5.25 38.52, 8.56 10.43, 10 10 S 14.48 35.59, 15 37 S 18.52 37.03, 20 37.3 S 23.53 39.11, 25 38.8 S 28.5 35.16, 30 35.2 S 33.58 38.63, 35 39.1 S 38.5 38.5, 40 38.5 S 43.52 39.32, 45 39.1 S 48.52 37.27, 50 37 S 53.52 37.08, 55 37.3 S 58.5 38.41, 60 38.5 S 63.52 38.17, 65 37.9 S 68.51 36.83, 70 36.7 S 73.52 37.22, 75 37 S 78.5 35.24, 80 35.2 S 83.52 36.43, 85 36.7 S 88.52 37.22, 90 37 S 93.66 35.88, 95 35.2 S 98.89 32.9, 100 31.9 S 103.52 25.93, 105 26.2 S 108.62 33.12, 110 33.7 S 113.51 30.27, 115 30.4 S 118.8 33.7, 120 34.6 S 123.51 37.77, 125 37.9 S 128.58 35.97, 130 35.5 S 133.5 34.51, 135 34.6 S 138.51 35.92, 140 36.1 S 143.55 35.41, 145 35.8 S 148.5 38.71, 150 38.8 S 153.54 36.75, 155 36.4 S 158.51 36.58, 160 36.4 S 163.5 35.11, 165 35.2 S 168.54 36.65, 170 37 S 173.5 37.56, 175 37.6 S 178.5 37.26, 180 37.3 S 183.55 38.29, 185 37.9 S 188.5 34.69, 190 34.6 S 193.54 36.95, 195 37.3 S 198.53 37.31, 200 37 S 203.59 35.71, 205 35.2"
          fill="none"/>
    <circle r="4" cx="5" cy="40" fill="#3023AE"/>
    <circle r="4" cx="205" cy="35.2" fill="#C86DD7"/>      
</svg>