<svg width="200" height="50" viewBox="0 0 210 50" xmlns="http://www.w3.org/2000/svg">
    <defs>
        <linearGradient x1="0%" y1="0%" x2="100%" y2="0%" id="a">
            <stop stop-color="#3023AE" offset="0%"/>
            <stop stop-color="#C86DD7" offset="100%"/>
        </linearGradient>
    </defs>
    <path stroke="url(#a)"
          stroke-width="3"
          stroke-linejoin="round"
          stroke-linecap="round"
          d="M5 40 C 5.25 38.52, 8.74 10.82, 10 10 S 14.41 32.12, 15 33.5 S 18.53 33.21, 20 33.5 S 23.54 35.14, 25 35.5 S 28.53 35.71, 30 36 S 33.53 37.79, 35 37.5 S 38.5 34, 40 34 S 43.56 37.07, 45 37.5 S 48.51 36.85, 50 37 S 53.54 38.14, 55 38.5 S 58.51 39.35, 60 39.5 S 63.63 40.12, 65 39.5 S 68.53 35.29, 70 35 S 73.51 37.35, 75 37.5 S 78.58 36.5, 80 36 S 83.54 34.36, 85 34 S 88.56 33.07, 90 33.5 S 93.5 37, 95 37 S 98.58 34, 100 33.5 S 103.5 33.5, 105 33.5 S 108.5 33.57, 110 33.5 S 113.51 32.85, 115 33 S 118.51 34.35, 120 34.5 S 123.53 34.29, 125 34 S 128.53 32.79, 130 32.5 S 133.5 32.07, 135 32 S 138.52 31.78, 140 32 S 143.53 33.21, 145 33.5 S 148.56 34.43, 150 34 S 153.58 31, 155 30.5 S 158.5 30.43, 160 30.5 S 163.61 30.44, 165 31 S 168.58 34, 170 34.5 S 173.77 35.36, 175 34.5 S 178.66 28.17, 180 27.5 S 183.63 28.88, 185 29.5 S 188.58 31.5, 190 32 S 193.52 33.22, 195 33 S 198.52 30.28, 200 30.5 S 203.83 33.56, 205 34.5"
          fill="none"/>
    <circle r="4" cx="5" cy="40" fill="#3023AE"/>
    <circle r="4" cx="205" cy="34.5" fill="#C86DD7"/>      
</svg>