<svg width="200" height="50" viewBox="0 0 210 50" xmlns="http://www.w3.org/2000/svg">
    <defs>
        <linearGradient x1="0%" y1="0%" x2="100%" y2="0%" id="a">
            <stop stop-color="#3023AE" offset="0%"/>
            <stop stop-color="#C86DD7" offset="100%"/>
        </linearGradient>
    </defs>
    <path stroke="url(#a)"
          stroke-width="3"
          stroke-linejoin="round"
          stroke-linecap="round"
          d="M5 40 C 5.49 38.58, 8.63 26.12, 10 25.52 S 14.08 34.45, 15 35.63 S 18.58 37.9, 20 38.39 S 23.5 39.01, 25 39.08 S 28.51 38.99, 30 38.85 S 33.51 38.33, 35 38.16 S 38.5 37.6, 40 37.7 S 43.51 38.68, 45 38.85 S 49.51 40.27, 50 38.85 S 53.5 10.12, 55 10 S 59.45 36.66, 60 38.05 S 63.5 35.32, 65 35.29 S 68.56 37.41, 70 37.82 S 73.5 38.09, 75 38.16 S 78.5 38.23, 80 38.28 S 83.5 38.61, 85 38.51 S 88.5 37.59, 90 37.59 S 93.5 38.61, 95 38.51 S 98.5 37.02, 100 36.9 S 103.5 37.6, 105 37.7 S 108.5 37.57, 110 37.59 S 113.5 37.87, 115 37.82 S 118.5 37.27, 120 37.24 S 123.5 37.64, 125 37.59 S 128.56 37.32, 130 36.9 S 133.5 34.62, 135 34.71 S 138.52 37.25, 140 37.47 S 143.51 36.36, 145 36.21 S 148.5 36.32, 150 36.44 S 153.5 36.92, 155 37.01 S 158.5 36.99, 160 37.01 S 163.58 37.6, 165 37.13 S 168.5 33.75, 170 33.68 S 173.57 36.23, 175 36.67 S 178.5 36.69, 180 36.78 S 183.5 37.21, 185 37.24 S 188.5 37.03, 190 37.01 S 193.5 37.16, 195 37.13 S 198.51 36.94, 200 36.78 S 203.51 36.3, 205 36.09"
          fill="none"/>
    <circle r="4" cx="5" cy="40" fill="#3023AE"/>
    <circle r="4" cx="205" cy="36.09" fill="#C86DD7"/>      
</svg>