<svg width="200" height="50" viewBox="0 0 210 50" xmlns="http://www.w3.org/2000/svg">
    <defs>
        <linearGradient x1="0%" y1="0%" x2="100%" y2="0%" id="a">
            <stop stop-color="#3023AE" offset="0%"/>
            <stop stop-color="#C86DD7" offset="100%"/>
        </linearGradient>
    </defs>
    <path stroke="url(#a)"
          stroke-width="3"
          stroke-linejoin="round"
          stroke-linecap="round"
          d="M5 40 C 5.87 38.78, 8.5 33.08, 10 32.97 S 13.76 38.42, 15 39.26 S 18.5 39.66, 20 39.7 S 23.5 39.52, 25 39.51 S 28.5 39.65, 30 39.66 S 33.5 39.57, 35 39.56 S 38.5 39.59, 40 39.61 S 43.5 39.65, 45 39.7 S 48.5 39.91, 50 39.95 S 53.51 40.16, 55 39.95 S 58.52 38.81, 60 38.57 S 63.51 38.53, 65 38.33 S 68.51 37.44, 70 37.25 S 73.5 37.06, 75 37.05 S 78.54 37.49, 80 37.15 S 83.5 34.81, 85 34.69 S 89.38 37.73, 90 36.36 S 93.6 13.09, 95 12.56 S 99.19 31.36, 100 32.62 S 103.66 28.73, 105 28.05 S 108.51 27.38, 110 27.56 S 113.5 29.19, 115 29.23 S 118.51 27.98, 120 27.85 S 123.52 28.61, 125 28.34 S 128.56 26.47, 130 26.03 S 133.51 25.42, 135 25.3 S 138.53 25.48, 140 25.2 S 143.91 24.46, 145 23.43 S 148.61 16.36, 150 15.8 S 153.56 19.03, 155 19.44 S 158.6 19.2, 160 18.66 S 163.51 15.69, 165 15.56 S 168.53 17.49, 170 17.77 S 173.55 17.06, 175 17.43 S 178.52 20.08, 180 20.33 S 183.59 19.66, 185 19.15 S 188.7 17.49, 190 16.74 S 193.73 14.18, 195 13.39 S 198.58 11.02, 200 10.54 S 203.51 10.16, 205 10"
          fill="none"/>
    <circle r="4" cx="5" cy="40" fill="#3023AE"/>
    <circle r="4" cx="205" cy="10" fill="#C86DD7"/>      
</svg>