<svg width="200" height="50" viewBox="0 0 210 50" xmlns="http://www.w3.org/2000/svg">
    <defs>
        <linearGradient x1="0%" y1="0%" x2="100%" y2="0%" id="a">
            <stop stop-color="#3023AE" offset="0%"/>
            <stop stop-color="#C86DD7" offset="100%"/>
        </linearGradient>
    </defs>
    <path stroke="url(#a)"
          stroke-width="3"
          stroke-linejoin="round"
          stroke-linecap="round"
          d="M5 40 C 5.83 38.75, 8.5 32.51, 10 32.45 S 13.76 38.73, 15 39.57 S 18.5 39.18, 20 39.2 S 23.5 39.68, 25 39.73 S 28.5 39.55, 30 39.52 S 33.5 39.5, 35 39.52 S 38.5 39.67, 40 39.68 S 43.5 39.55, 45 39.57 S 48.5 39.74, 50 39.79 S 53.5 39.87, 55 39.89 S 58.5 39.97, 60 39.95 S 63.53 40.04, 65 39.73 S 68.51 37.98, 70 37.82 S 73.5 38.76, 75 38.67 S 78.52 37.45, 80 37.23 S 83.5 37.17, 85 37.18 S 88.54 37.62, 90 37.29 S 93.51 35.13, 95 34.95 S 98.51 35.87, 100 36.06 S 104.46 37.62, 105 36.22 S 108.59 10.52, 110 10 S 114.3 31.18, 115 32.5 S 118.6 29.36, 120 28.83 S 123.5 28.77, 125 28.72 S 128.51 28.37, 130 28.51 S 133.5 29.58, 135 29.63 S 138.53 29.14, 140 28.83 S 143.51 27.74, 145 27.55 S 148.55 27.94, 150 27.55 S 153.52 25.13, 155 24.89 S 158.51 26.17, 160 25.96 S 163.82 24.43, 165 23.51 S 168.63 18.8, 170 18.19 S 173.55 18.71, 175 19.1 S 178.52 21.1, 180 20.85 S 183.81 18.31, 185 17.39 S 188.59 12.62, 190 13.14 S 193.67 20.36, 195 21.06 S 198.51 18.6, 200 18.4 S 203.55 19.34, 205 19.73"
          fill="none"/>
    <circle r="4" cx="5" cy="40" fill="#3023AE"/>
    <circle r="4" cx="205" cy="19.73" fill="#C86DD7"/>      
</svg>