<svg width="200" height="50" viewBox="0 0 210 50" xmlns="http://www.w3.org/2000/svg">
    <defs>
        <linearGradient x1="0%" y1="0%" x2="100%" y2="0%" id="a">
            <stop stop-color="#3023AE" offset="0%"/>
            <stop stop-color="#C86DD7" offset="100%"/>
        </linearGradient>
    </defs>
    <path stroke="url(#a)"
          stroke-width="3"
          stroke-linejoin="round"
          stroke-linecap="round"
          d="M5 40 C 5.81 38.73, 8.5 32.2, 10 32.14 S 13.77 38.75, 15 39.61 S 18.5 39.09, 20 39.11 S 23.5 39.65, 25 39.72 S 28.5 39.58, 30 39.56 S 33.5 39.55, 35 39.56 S 38.5 39.6, 40 39.61 S 43.5 39.59, 45 39.61 S 48.5 39.69, 50 39.72 S 53.5 39.8, 55 39.83 S 58.5 39.92, 60 39.94 S 63.52 40.19, 65 39.94 S 68.52 38.53, 70 38.28 S 73.51 38.38, 75 38.23 S 78.5 37.35, 80 37.29 S 83.5 37.96, 85 37.84 S 88.55 36.9, 90 36.51 S 93.5 35.2, 95 35.18 S 98.51 36.23, 100 36.4 S 104.47 37.75, 105 36.35 S 108.6 10.55, 110 10 S 114.31 31.09, 115 32.42 S 118.54 29.54, 120 29.21 S 123.54 30.49, 125 30.15 S 128.5 26.9, 130 26.88 S 133.5 29.93, 135 30.04 S 138.5 27.7, 140 27.6 S 143.51 29.55, 145 29.37 S 148.61 26.93, 150 26.38 S 153.52 25.6, 155 25.39 S 158.5 24.99, 160 24.94 S 163.55 25.44, 165 25.06 S 168.87 23.33, 170 22.34 S 173.57 16.69, 175 16.25 S 178.54 18.91, 180 19.24 S 183.51 18.66, 185 18.52 S 188.73 19.09, 190 18.3 S 193.55 11.88, 195 12.27 S 198.67 20.27, 200 20.96 S 203.78 18.29, 205 17.42"
          fill="none"/>
    <circle r="4" cx="5" cy="40" fill="#3023AE"/>
    <circle r="4" cx="205" cy="17.42" fill="#C86DD7"/>      
</svg>