<svg width="200" height="50" viewBox="0 0 210 50" xmlns="http://www.w3.org/2000/svg">
    <defs>
        <linearGradient x1="0%" y1="0%" x2="100%" y2="0%" id="a">
            <stop stop-color="#3023AE" offset="0%"/>
            <stop stop-color="#C86DD7" offset="100%"/>
        </linearGradient>
    </defs>
    <path stroke="url(#a)"
          stroke-width="3"
          stroke-linejoin="round"
          stroke-linecap="round"
          d="M5 40 C 6.39 39.44, 8.5 38.06, 10 38 S 13.52 39.36, 15 39.6 S 18.5 39.6, 20 39.6 S 23.5 39.6, 25 39.6 S 28.5 39.6, 30 39.6 S 33.5 39.6, 35 39.6 S 38.5 39.6, 40 39.6 S 43.5 39.6, 45 39.6 S 48.5 39.6, 50 39.6 S 53.5 39.6, 55 39.6 S 58.5 39.6, 60 39.6 S 63.5 39.6, 65 39.6 S 68.5 39.6, 70 39.6 S 73.5 39.6, 75 39.6 S 78.5 39.6, 80 39.6 S 83.5 39.6, 85 39.6 S 88.5 39.6, 90 39.6 S 93.5 39.72, 95 39.6 S 98.5 38.8, 100 38.8 S 103.5 39.48, 105 39.6 S 108.5 39.66, 110 39.6 S 113.51 39.38, 115 39.2 S 118.5 38.4, 120 38.4 S 123.5 39.14, 125 39.2 S 128.5 38.92, 130 38.8 S 133.5 38.28, 135 38.4 S 138.51 39.42, 140 39.6 S 143.5 39.66, 145 39.6 S 148.5 39.32, 150 39.2 S 153.5 38.74, 155 38.8 S 158.5 39.72, 160 39.6 S 163.51 38.18, 165 38 S 168.57 38.86, 170 38.4 S 173.57 35.26, 175 34.8 S 179.44 36.59, 180 35.2 S 184.23 11.29, 185 10 S 189.11 17.19, 190 18.4 S 193.61 24.16, 195 23.6 S 198.67 13.71, 200 14.4 S 204.51 27.38, 205 28.8"
          fill="none"/>
    <circle r="4" cx="5" cy="40" fill="#3023AE"/>
    <circle r="4" cx="205" cy="28.8" fill="#C86DD7"/>      
</svg>