<svg width="200" height="50" viewBox="0 0 210 50" xmlns="http://www.w3.org/2000/svg">
    <defs>
        <linearGradient x1="0%" y1="0%" x2="100%" y2="0%" id="a">
            <stop stop-color="#3023AE" offset="0%"/>
            <stop stop-color="#C86DD7" offset="100%"/>
        </linearGradient>
    </defs>
    <path stroke="url(#a)"
          stroke-width="3"
          stroke-linejoin="round"
          stroke-linecap="round"
          d="M5 40 C 6.06 38.94, 8.66 35.67, 10 35 S 13.5 35, 15 35 S 18.5 35, 20 35 S 23.5 35, 25 35 S 28.5 35, 30 35 S 33.5 35, 35 35 S 38.5 35, 40 35 S 43.5 35, 45 35 S 48.5 35, 50 35 S 54.17 36.25, 55 35 S 58.5 20, 60 20 S 63.94 33.94, 65 35 S 68.66 30.67, 70 30 S 73.66 29.33, 75 30 S 78.5 35, 80 35 S 83.5 30, 85 30 S 88.66 34.33, 90 35 S 93.66 35.67, 95 35 S 98.66 30.67, 100 30 S 103.66 29.33, 105 30 S 108.66 35.67, 110 35 S 113.66 25.67, 115 25 S 118.94 31.06, 120 30 S 124.33 16.34, 125 15 S 129.17 8.75, 130 10 S 134.44 28.61, 135 30 S 138.94 36.06, 140 35 S 143.5 20, 145 20 S 149.17 33.75, 150 35 S 153.5 35, 155 35 S 158.5 35, 160 35 S 163.5 35, 165 35 S 168.5 35, 170 35 S 173.94 36.06, 175 35 S 179.33 26.34, 180 25 S 183.66 14.33, 185 15 S 189.33 28.66, 190 30 S 193.94 36.06, 195 35 S 198.66 20.67, 200 20 S 204.33 28.66, 205 30"
          fill="none"/>
    <circle r="4" cx="5" cy="40" fill="#3023AE"/>
    <circle r="4" cx="205" cy="30" fill="#C86DD7"/>      
</svg>