<svg width="200" height="50" viewBox="0 0 210 50" xmlns="http://www.w3.org/2000/svg">
    <defs>
        <linearGradient x1="0%" y1="0%" x2="100%" y2="0%" id="a">
            <stop stop-color="#3023AE" offset="0%"/>
            <stop stop-color="#C86DD7" offset="100%"/>
        </linearGradient>
    </defs>
    <path stroke="url(#a)"
          stroke-width="3"
          stroke-linejoin="round"
          stroke-linecap="round"
          d="M5 40 C 5.67 38.66, 8.58 30.47, 10 30 S 13.88 35.67, 15 36.67 S 18.63 39.5, 20 38.89 S 23.5 32.22, 25 32.22 S 28.75 38.06, 30 38.89 S 33.5 38.89, 35 38.89 S 38.51 39.06, 40 38.89 S 43.63 38.39, 45 37.78 S 48.51 34.27, 50 34.44 S 53.63 38.28, 55 38.89 S 58.5 38.89, 60 38.89 S 63.5 38.89, 65 38.89 S 68.5 38.89, 70 38.89 S 73.5 38.89, 75 38.89 S 78.5 38.89, 80 38.89 S 83.54 39.22, 85 38.89 S 88.51 36.84, 90 36.67 S 93.54 37.45, 95 37.78 S 98.51 38.72, 100 38.89 S 103.5 38.89, 105 38.89 S 108.5 38.89, 110 38.89 S 113.5 38.89, 115 38.89 S 118.54 39.22, 120 38.89 S 124.51 38.09, 125 36.67 S 128.51 9.83, 130 10 S 134.45 36.38, 135 37.78 S 138.51 35.39, 140 35.56 S 143.5 38.89, 145 38.89 S 148.51 35.73, 150 35.56 S 153.58 37.31, 155 37.78 S 158.51 39.06, 160 38.89 S 163.82 37.59, 165 36.67 S 168.54 30.78, 170 31.11 S 173.63 38.28, 175 38.89 S 178.54 35.89, 180 35.56 S 183.5 36.67, 185 36.67 S 188.51 35.39, 190 35.56 S 193.5 37.78, 195 37.78 S 198.5 35.56, 200 35.56 S 203.63 37.17, 205 37.78"
          fill="none"/>
    <circle r="4" cx="5" cy="40" fill="#3023AE"/>
    <circle r="4" cx="205" cy="37.78" fill="#C86DD7"/>      
</svg>