<svg width="200" height="50" viewBox="0 0 210 50" xmlns="http://www.w3.org/2000/svg">
    <defs>
        <linearGradient x1="0%" y1="0%" x2="100%" y2="0%" id="a">
            <stop stop-color="#3023AE" offset="0%"/>
            <stop stop-color="#C86DD7" offset="100%"/>
        </linearGradient>
    </defs>
    <path stroke="url(#a)"
          stroke-width="3"
          stroke-linejoin="round"
          stroke-linecap="round"
          d="M5 40 C 6.5 39.96, 8.5 39.89, 10 39.85 S 13.5 39.72, 15 39.71 S 19.52 41.2, 20 39.78 S 24.47 11.4, 25 10 S 28.74 12.46, 30 13.28 S 33.88 15.49, 35 16.49 S 38.51 22.04, 40 22.24 S 43.5 17.75, 45 17.85 S 48.7 22.19, 50 22.94 S 53.5 23.59, 55 23.6 S 58.55 23.39, 60 23.01 S 63.64 21.59, 65 20.95 S 68.5 18.25, 70 18.29 S 73.5 21.15, 75 21.24 S 78.51 19.12, 80 18.92 S 83.59 19.41, 85 19.91 S 88.51 22.28, 90 22.49 S 93.52 21.05, 95 21.31 S 98.5 24.14, 100 24.26 S 103.53 22.4, 105 22.09 S 108.58 21.69, 110 22.16 S 113.63 24.81, 115 25.41 S 118.51 26.74, 120 26.55 S 123.57 24.56, 125 24.12 S 128.5 23.57, 130 23.49 S 133.55 23.22, 135 23.6 S 138.56 25.73, 140 26.14 S 143.5 26.51, 145 26.47 S 148.51 26.04, 150 25.88 S 153.58 24.92, 155 25.41 S 158.5 29.3, 160 29.35 S 163.55 26.14, 165 25.74 S 168.5 26.65, 170 26.58 S 173.52 25.05, 175 25.26 S 179.14 29.25, 180 28.02 S 183.52 11.32, 185 11.07 S 189.16 25.09, 190 26.33 S 193.51 25.94, 195 25.81 S 198.5 25.47, 200 25.48 S 203.5 25.76, 205 25.88"
          fill="none"/>
    <circle r="4" cx="5" cy="40" fill="#3023AE"/>
    <circle r="4" cx="205" cy="25.880000000000003" fill="#C86DD7"/>      
</svg>