<svg width="200" height="50" viewBox="0 0 210 50" xmlns="http://www.w3.org/2000/svg">
    <defs>
        <linearGradient x1="0%" y1="0%" x2="100%" y2="0%" id="a">
            <stop stop-color="#3023AE" offset="0%"/>
            <stop stop-color="#C86DD7" offset="100%"/>
        </linearGradient>
    </defs>
    <path stroke="url(#a)"
          stroke-width="3"
          stroke-linejoin="round"
          stroke-linecap="round"
          d="M5 40 C 6.5 39.99, 8.5 39.98, 10 39.98 S 13.5 39.98, 15 39.98 S 18.5 39.99, 20 39.98 S 23.5 39.95, 25 39.94 S 28.5 39.91, 30 39.91 S 33.5 39.96, 35 39.96 S 38.5 39.9, 40 39.89 S 43.5 39.91, 45 39.91 S 48.5 39.9, 50 39.91 S 53.5 39.98, 55 39.98 S 58.5 39.96, 60 39.94 S 64.52 41.27, 65 39.85 S 69.44 11.39, 70 10 S 74.37 13.73, 75 15.09 S 79.34 30.12, 80 31.47 S 83.71 34.59, 85 35.36 S 88.51 37.3, 90 37.47 S 93.51 36.65, 95 36.49 S 98.5 36.3, 100 36.4 S 103.52 37.4, 105 37.16 S 108.59 35.29, 110 34.78 S 113.52 33.31, 115 33.52 S 118.57 35.77, 120 36.21 S 123.51 36.42, 125 36.6 S 128.5 37.43, 130 37.4 S 133.5 36.45, 135 36.43 S 138.5 37.18, 140 37.25 S 143.5 36.85, 145 36.92 S 148.5 37.63, 150 37.7 S 153.5 37.43, 155 37.36 S 158.5 37.33, 160 37.23 S 163.5 36.61, 165 36.71 S 168.5 37.76, 170 37.88 S 173.5 37.49, 175 37.49 S 178.5 37.81, 180 37.88 S 183.5 37.94, 185 37.94 S 188.5 37.81, 190 37.86 S 193.5 38.17, 195 38.29 S 198.5 38.63, 200 38.64 S 203.5 38.46, 205 38.38"
          fill="none"/>
    <circle r="4" cx="5" cy="40" fill="#3023AE"/>
    <circle r="4" cx="205" cy="38.38" fill="#C86DD7"/>      
</svg>