<svg width="200" height="50" viewBox="0 0 210 50" xmlns="http://www.w3.org/2000/svg">
    <defs>
        <linearGradient x1="0%" y1="0%" x2="100%" y2="0%" id="a">
            <stop stop-color="#3023AE" offset="0%"/>
            <stop stop-color="#C86DD7" offset="100%"/>
        </linearGradient>
    </defs>
    <path stroke="url(#a)"
          stroke-width="3"
          stroke-linejoin="round"
          stroke-linecap="round"
          d="M5 40 C 6.5 40, 8.5 39.99, 10 39.99 S 13.5 39.99, 15 39.99 S 18.5 39.99, 20 39.99 S 23.5 39.96, 25 39.96 S 28.5 39.96, 30 39.96 S 33.5 39.96, 35 39.96 S 38.5 39.95, 40 39.95 S 43.5 39.95, 45 39.95 S 48.5 39.94, 50 39.95 S 53.5 39.99, 55 39.99 S 58.5 39.97, 60 39.96 S 63.5 39.95, 65 39.94 S 69.52 41.29, 70 39.87 S 73.68 10.72, 75 10 S 79.48 33.03, 80 34.44 S 83.6 36.41, 85 36.95 S 88.51 38.12, 90 38.32 S 93.5 38.35, 95 38.28 S 98.5 37.89, 100 37.87 S 103.5 38.1, 105 38.15 S 108.54 38.55, 110 38.23 S 113.51 36.11, 115 35.95 S 118.53 36.86, 120 37.16 S 123.52 37.77, 125 37.99 S 128.5 38.59, 130 38.63 S 133.5 38.36, 135 38.29 S 138.5 38.17, 140 38.15 S 143.5 38.11, 145 38.15 S 148.5 38.35, 150 38.43 S 153.5 38.66, 155 38.68 S 158.5 38.6, 160 38.56 S 163.5 38.5, 165 38.43 S 168.5 38.07, 170 38.12 S 173.5 38.64, 175 38.74 S 178.5 38.78, 180 38.76 S 183.5 38.56, 185 38.59 S 188.5 38.92, 190 38.95 S 193.5 38.82, 195 38.82 S 198.5 38.9, 200 38.96 S 203.5 39.13, 205 39.2"
          fill="none"/>
    <circle r="4" cx="5" cy="40" fill="#3023AE"/>
    <circle r="4" cx="205" cy="39.2" fill="#C86DD7"/>      
</svg>