<svg width="200" height="50" viewBox="0 0 210 50" xmlns="http://www.w3.org/2000/svg">
    <defs>
        <linearGradient x1="0%" y1="0%" x2="100%" y2="0%" id="a">
            <stop stop-color="#3023AE" offset="0%"/>
            <stop stop-color="#C86DD7" offset="100%"/>
        </linearGradient>
    </defs>
    <path stroke="url(#a)"
          stroke-width="3"
          stroke-linejoin="round"
          stroke-linecap="round"
          d="M5 40 C 5.55 38.6, 9.18 28.59, 10 27.33 S 13.88 23.64, 15 24.64 S 18.96 35.15, 20 36.23 S 23.5 35.12, 25 35.06 S 28.52 36.05, 30 35.83 S 33.55 33.97, 35 33.59 S 38.52 33.44, 40 33.18 S 43.73 32.62, 45 31.82 S 48.55 27.21, 50 26.84 S 53.65 28.62, 55 29.27 S 58.51 31.84, 60 31.68 S 63.56 28.61, 65 28.2 S 68.57 29.32, 70 28.87 S 73.56 25.49, 75 25.07 S 78.62 26.52, 80 25.94 S 84.05 22.04, 85 20.88 S 88.52 14.01, 90 13.79 S 93.74 18.59, 95 19.4 S 98.51 20.41, 100 20.26 S 103.52 18.17, 105 18.39 S 108.51 21.54, 110 21.74 S 113.8 20.64, 115 19.74 S 118.65 14.87, 120 14.23 S 123.62 15.57, 125 14.99 S 128.62 10.59, 130 10 S 133.74 9.92, 135 10.73 S 138.7 15.63, 140 16.38 S 143.56 16.04, 145 16.47 S 148.61 18.84, 150 19.41 S 153.5 20.67, 155 20.6 S 158.54 19.3, 160 18.94 S 163.52 17.91, 165 18.13 S 168.5 20.36, 170 20.43 S 173.62 19.18, 175 18.6 S 178.56 15.77, 180 16.2 S 183.72 20.84, 185 21.62 S 188.56 21.84, 190 22.24 S 193.53 24.12, 195 24.42 S 198.51 24.06, 200 24.25 S 203.56 25.26, 205 25.67"
          fill="none"/>
    <circle r="4" cx="5" cy="40" fill="#3023AE"/>
    <circle r="4" cx="205" cy="25.67" fill="#C86DD7"/>      
</svg>