<svg width="200" height="50" viewBox="0 0 210 50" xmlns="http://www.w3.org/2000/svg">
    <defs>
        <linearGradient x1="0%" y1="0%" x2="100%" y2="0%" id="a">
            <stop stop-color="#3023AE" offset="0%"/>
            <stop stop-color="#C86DD7" offset="100%"/>
        </linearGradient>
    </defs>
    <path stroke="url(#a)"
          stroke-width="3"
          stroke-linejoin="round"
          stroke-linecap="round"
          d="M5 40 C 5.56 38.61, 9.34 28.81, 10 27.46 S 13.87 18.5, 15 19.49 S 19.25 34.9, 20 36.2 S 23.5 36.94, 25 36.86 S 28.5 35.74, 30 35.68 S 33.5 36.37, 35 36.47 S 38.5 36.44, 40 36.37 S 43.54 36.32, 45 35.97 S 48.51 34.16, 50 33.98 S 53.51 34.95, 55 34.79 S 58.54 33.29, 60 32.94 S 63.51 32.55, 65 32.38 S 68.67 32.49, 70 31.8 S 73.51 27.37, 75 27.19 S 78.64 29.96, 80 30.59 S 83.54 31.48, 85 31.82 S 88.52 33.17, 90 32.9 S 93.56 30.42, 95 30.01 S 98.5 30.02, 100 30.05 S 103.6 30.78, 105 30.24 S 108.52 26.46, 110 26.21 S 113.51 28.36, 115 28.52 S 118.75 28.1, 120 27.27 S 123.56 22.26, 125 21.83 S 128.78 25.13, 130 24.26 S 133.61 15.23, 135 14.67 S 138.85 19.27, 140 20.24 S 143.53 22.77, 145 23.08 S 148.51 22.53, 150 22.37 S 153.52 22.25, 155 22.04 S 158.52 20.7, 160 20.94 S 163.56 23.25, 165 23.66 S 168.56 24.19, 170 23.76 S 173.77 21.55, 175 20.69 S 178.64 17.36, 180 16.73 S 183.55 15.67, 185 16.06 S 188.53 19.71, 190 19.43 S 193.91 15.2, 195 14.17 S 198.51 9.82, 200 10 S 203.98 14.26, 205 15.36"
          fill="none"/>
    <circle r="4" cx="5" cy="40" fill="#3023AE"/>
    <circle r="4" cx="205" cy="15.36" fill="#C86DD7"/>      
</svg>