<svg width="200" height="50" viewBox="0 0 210 50" xmlns="http://www.w3.org/2000/svg">
    <defs>
        <linearGradient x1="0%" y1="0%" x2="100%" y2="0%" id="a">
            <stop stop-color="#3023AE" offset="0%"/>
            <stop stop-color="#C86DD7" offset="100%"/>
        </linearGradient>
    </defs>
    <path stroke="url(#a)"
          stroke-width="3"
          stroke-linejoin="round"
          stroke-linecap="round"
          d="M5 40 C 5.57 38.61, 9.16 29, 10 27.76 S 13.85 24.19, 15 25.16 S 18.94 35.15, 20 36.21 S 23.5 35.19, 25 35.16 S 28.51 36.23, 30 36.04 S 33.56 34.32, 35 33.9 S 38.53 33.39, 40 33.1 S 43.72 32.68, 45 31.9 S 48.53 27.34, 50 27.06 S 53.63 29.37, 55 29.99 S 58.51 31.79, 60 31.61 S 63.54 29.13, 65 28.77 S 68.58 29.65, 70 29.17 S 73.58 25.84, 75 25.36 S 78.62 26.35, 80 25.77 S 84.01 22.29, 85 21.17 S 88.5 14.54, 90 14.44 S 93.73 19.7, 95 20.49 S 98.51 20.86, 100 20.66 S 103.53 18.85, 105 19.14 S 108.5 22.68, 110 22.63 S 113.85 19.77, 115 18.81 S 118.58 14.71, 120 14.24 S 123.62 16.1, 125 15.51 S 128.52 10.27, 130 10 S 133.79 12.79, 135 13.67 S 138.62 16.67, 140 17.26 S 143.56 17.53, 145 17.94 S 148.56 19.64, 150 20.07 S 153.5 21, 155 20.91 S 158.53 19.76, 160 19.44 S 163.54 18.4, 165 18.73 S 168.5 21.75, 170 21.67 S 173.59 18.68, 175 18.17 S 178.63 17.45, 180 18.07 S 183.62 22.11, 185 22.71 S 188.53 22.09, 190 22.4 S 193.58 24.34, 195 24.83 S 198.51 25.68, 200 25.84 S 203.5 25.9, 205 25.93"
          fill="none"/>
    <circle r="4" cx="5" cy="40" fill="#3023AE"/>
    <circle r="4" cx="205" cy="25.93" fill="#C86DD7"/>      
</svg>