<svg width="200" height="50" viewBox="0 0 210 50" xmlns="http://www.w3.org/2000/svg">
    <defs>
        <linearGradient x1="0%" y1="0%" x2="100%" y2="0%" id="a">
            <stop stop-color="#3023AE" offset="0%"/>
            <stop stop-color="#C86DD7" offset="100%"/>
        </linearGradient>
    </defs>
    <path stroke="url(#a)"
          stroke-width="3"
          stroke-linejoin="round"
          stroke-linecap="round"
          d="M5 40 C 5.33 38.54, 8.8 18.4, 10 17.5 S 14.17 31.25, 15 32.5 S 18.5 32.5, 20 32.5 S 23.5 32.5, 25 32.5 S 28.5 32.5, 30 32.5 S 33.5 32.5, 35 32.5 S 38.5 32.5, 40 32.5 S 43.8 33.4, 45 32.5 S 48.8 25.9, 50 25 S 53.5 25, 55 25 S 58.8 24.1, 60 25 S 63.5 32.5, 65 32.5 S 68.5 25, 70 25 S 73.8 31.6, 75 32.5 S 78.5 32.5, 80 32.5 S 83.5 32.5, 85 32.5 S 88.5 32.5, 90 32.5 S 93.5 32.5, 95 32.5 S 98.5 32.5, 100 32.5 S 103.5 32.5, 105 32.5 S 109.17 33.75, 110 32.5 S 113.5 17.5, 115 17.5 S 119.17 31.25, 120 32.5 S 123.5 32.5, 125 32.5 S 128.8 33.4, 130 32.5 S 133.5 25, 135 25 S 138.8 33.4, 140 32.5 S 143.5 17.5, 145 17.5 S 149.17 31.25, 150 32.5 S 153.5 32.5, 155 32.5 S 158.5 32.5, 160 32.5 S 163.5 32.5, 165 32.5 S 169.17 33.75, 170 32.5 S 173.5 17.5, 175 17.5 S 178.8 33.4, 180 32.5 S 183.5 10, 185 10 S 189.39 31.13, 190 32.5 S 193.5 32.5, 195 32.5 S 198.5 32.5, 200 32.5 S 203.5 32.5, 205 32.5"
          fill="none"/>
    <circle r="4" cx="5" cy="40" fill="#3023AE"/>
    <circle r="4" cx="205" cy="32.5" fill="#C86DD7"/>      
</svg>