<svg width="200" height="50" viewBox="0 0 210 50" xmlns="http://www.w3.org/2000/svg">
    <defs>
        <linearGradient x1="0%" y1="0%" x2="100%" y2="0%" id="a">
            <stop stop-color="#3023AE" offset="0%"/>
            <stop stop-color="#C86DD7" offset="100%"/>
        </linearGradient>
    </defs>
    <path stroke="url(#a)"
          stroke-width="3"
          stroke-linejoin="round"
          stroke-linecap="round"
          d="M5 40 C 5.53 38.59, 8.6 27.17, 10 26.62 S 13.96 34.98, 15 36.06 S 18.88 38.04, 20 37.04 S 23.65 27.84, 25 27.18 S 29.25 33.41, 30 32.11 S 33.62 10.58, 35 10 S 39.39 26.52, 40 27.89 S 43.52 32.52, 45 32.25 S 48.54 26.39, 50 26.06 S 53.61 29.43, 55 30 S 58.51 29.95, 60 30.14 S 63.51 31.48, 65 31.27 S 68.61 29.3, 70 28.73 S 73.57 26.74, 75 27.18 S 78.52 31.6, 80 31.83 S 83.5 28.67, 85 28.73 S 88.54 31.9, 90 32.25 S 93.51 31.34, 95 31.13 S 98.51 30.72, 100 30.85 S 103.55 31.58, 105 31.97 S 108.51 33.37, 110 33.52 S 113.69 33.7, 115 32.96 S 118.55 28.28, 120 27.89 S 123.57 29.84, 125 30.28 S 128.51 30.84, 130 30.99 S 133.5 31.19, 135 31.27 S 138.55 31.16, 140 31.55 S 143.54 33.59, 145 33.94 S 148.5 33.9, 150 33.94 S 153.55 34.6, 155 34.23 S 158.51 31.62, 160 31.41 S 163.5 32.74, 165 32.82 S 168.6 32.52, 170 31.97 S 173.59 29.39, 175 28.87 S 178.51 28.12, 180 28.31 S 183.59 29.64, 185 30.14 S 188.51 32.04, 190 31.83 S 193.5 28.83, 195 28.73 S 198.5 31.09, 200 31.13 S 203.62 29.6, 205 29.01"
          fill="none"/>
    <circle r="4" cx="5" cy="40" fill="#3023AE"/>
    <circle r="4" cx="205" cy="29.009999999999998" fill="#C86DD7"/>      
</svg>