<svg width="200" height="50" viewBox="0 0 210 50" xmlns="http://www.w3.org/2000/svg">
    <defs>
        <linearGradient x1="0%" y1="0%" x2="100%" y2="0%" id="a">
            <stop stop-color="#3023AE" offset="0%"/>
            <stop stop-color="#C86DD7" offset="100%"/>
        </linearGradient>
    </defs>
    <path stroke="url(#a)"
          stroke-width="3"
          stroke-linejoin="round"
          stroke-linecap="round"
          d="M5 40 C 5.25 38.52, 9.21 11.28, 10 10 S 14.45 22.45, 15 23.85 S 19.12 34.16, 20 35.38 S 24.29 39.01, 25 37.69 S 29.35 18.27, 30 16.92 S 33.77 17.77, 35 16.92 S 39.12 8.78, 40 10 S 44.35 29.42, 45 30.77 S 48.64 30.14, 50 30.77 S 53.5 35.38, 55 35.38 S 58.64 31.4, 60 30.77 S 63.64 31.4, 65 30.77 S 68.54 25.81, 70 26.15 S 73.77 32.23, 75 33.08 S 78.54 33.42, 80 33.08 S 83.54 30.43, 85 30.77 S 88.54 35.72, 90 35.38 S 93.54 28.12, 95 28.46 S 98.5 37.69, 100 37.69 S 103.54 28.8, 105 28.46 S 108.77 34.53, 110 35.38 S 113.5 35.38, 115 35.38 S 118.54 35.04, 120 35.38 S 123.54 37.35, 125 37.69 S 128.5 37.69, 130 37.69 S 133.5 37.69, 135 37.69 S 138.5 37.69, 140 37.69 S 143.5 37.69, 145 37.69 S 148.5 37.69, 150 37.69 S 153.5 37.69, 155 37.69 S 158.5 37.69, 160 37.69 S 163.5 37.69, 165 37.69 S 168.5 37.69, 170 37.69 S 173.5 37.69, 175 37.69 S 178.5 37.69, 180 37.69 S 183.5 37.69, 185 37.69"
          fill="none"/>
    <circle r="4" cx="5" cy="40" fill="#3023AE"/>
    <circle r="4" cx="185" cy="37.69" fill="#C86DD7"/>      
</svg>