<svg width="200" height="50" viewBox="0 0 210 50" xmlns="http://www.w3.org/2000/svg">
    <defs>
        <linearGradient x1="0%" y1="0%" x2="100%" y2="0%" id="a">
            <stop stop-color="#3023AE" offset="0%"/>
            <stop stop-color="#C86DD7" offset="100%"/>
        </linearGradient>
    </defs>
    <path stroke="url(#a)"
          stroke-width="3"
          stroke-linejoin="round"
          stroke-linecap="round"
          d="M5 40 C 6.05 38.93, 8.83 35.85, 10 34.91 S 13.55 31.57, 15 31.96 S 18.68 36.88, 20 37.59 S 23.5 37.24, 25 37.32 S 28.53 38.43, 30 38.12 S 33.51 35.02, 35 35.18 S 38.61 38.64, 40 39.2 S 43.52 39.44, 45 39.2 S 48.56 38.01, 50 37.59 S 53.5 36.21, 55 36.25 S 58.5 37.82, 60 37.86 S 63.85 37.48, 65 36.52 S 68.51 29.71, 70 29.55 S 73.65 34.8, 75 35.45 S 78.5 34.49, 80 34.37 S 83.53 34.32, 85 34.64 S 88.51 36.32, 90 36.52 S 93.5 36.1, 95 35.98 S 98.54 36.06, 100 35.71 S 103.5 33.69, 105 33.57 S 108.58 34.42, 110 34.91 S 113.72 37.84, 115 37.05 S 119.18 30, 120 28.75 S 124.15 23.02, 125 21.79 S 128.54 14.64, 130 14.29 S 133.92 18.33, 135 19.37 S 138.5 23.85, 140 23.93 S 143.74 20.72, 145 19.91 S 148.68 16.79, 150 17.5 S 153.6 24.74, 155 25.27 S 158.51 21.45, 160 21.25 S 163.57 24.39, 165 23.93 S 168.5 18.16, 170 18.04 S 173.83 24.06, 175 23.12 S 178.72 10.79, 180 10 S 183.92 15.92, 185 16.96 S 188.65 18.99, 190 19.64 S 193.51 21.95, 195 21.79 S 198.53 18.29, 200 18.57 S 203.95 22.59, 205 23.66"
          fill="none"/>
    <circle r="4" cx="5" cy="40" fill="#3023AE"/>
    <circle r="4" cx="205" cy="23.66" fill="#C86DD7"/>      
</svg>