<svg width="200" height="50" viewBox="0 0 210 50" xmlns="http://www.w3.org/2000/svg">
    <defs>
        <linearGradient x1="0%" y1="0%" x2="100%" y2="0%" id="a">
            <stop stop-color="#3023AE" offset="0%"/>
            <stop stop-color="#C86DD7" offset="100%"/>
        </linearGradient>
    </defs>
    <path stroke="url(#a)"
          stroke-width="3"
          stroke-linejoin="round"
          stroke-linecap="round"
          d="M5 40 C 5.59 38.62, 8.62 28.96, 10 28.38 S 13.66 35.1, 15 35.78 S 18.51 33.31, 20 33.46 S 23.56 36.4, 25 36.81 S 28.52 36.55, 30 36.32 S 33.54 35.59, 35 35.24 S 38.51 34.02, 40 33.89 S 43.5 34.48, 45 34.38 S 48.51 33.4, 50 33.24 S 53.67 34, 55 33.3 S 58.79 28.84, 60 27.95 S 63.64 26.53, 65 25.89 S 68.5 23.16, 70 23.24 S 73.63 25.82, 75 26.43 S 78.56 27.31, 80 27.73 S 83.5 29.34, 85 29.35 S 88.62 28.37, 90 27.78 S 93.53 25.31, 95 25.03 S 98.53 25.61, 100 25.89 S 103.53 26.62, 105 26.92 S 108.93 29, 110 27.95 S 113.67 17.83, 115 17.14 S 118.57 23.27, 120 22.81 S 124.08 15.07, 125 13.89 S 128.64 9.37, 130 10 S 133.66 17.86, 135 18.54 S 138.81 15.99, 140 15.08 S 143.61 10.35, 145 10.92 S 149.07 18.01, 150 19.19 S 153.69 22.84, 155 23.57 S 158.59 25.26, 160 24.76 S 163.57 20.49, 165 20.05 S 168.55 21.3, 170 21.68 S 173.51 22.57, 175 22.7 S 178.63 21.94, 180 22.54 S 183.53 26.76, 185 27.08 S 188.58 25.19, 190 24.7 S 193.5 23.6, 195 23.62 S 198.52 24.58, 200 24.81 S 203.5 25.08, 205 25.19"
          fill="none"/>
    <circle r="4" cx="5" cy="40" fill="#3023AE"/>
    <circle r="4" cx="205" cy="25.189999999999998" fill="#C86DD7"/>      
</svg>