<svg width="200" height="50" viewBox="0 0 210 50" xmlns="http://www.w3.org/2000/svg">
    <defs>
        <linearGradient x1="0%" y1="0%" x2="100%" y2="0%" id="a">
            <stop stop-color="#3023AE" offset="0%"/>
            <stop stop-color="#C86DD7" offset="100%"/>
        </linearGradient>
    </defs>
    <path stroke="url(#a)"
          stroke-width="3"
          stroke-linejoin="round"
          stroke-linecap="round"
          d="M5 40 C 6.5 39.97, 8.5 39.92, 10 39.91 S 13.5 39.95, 15 39.96 S 18.5 39.96, 20 39.96 S 23.5 39.96, 25 39.96 S 28.5 39.96, 30 39.96 S 33.5 39.96, 35 39.96 S 38.5 39.96, 40 39.96 S 43.5 39.96, 45 39.96 S 48.5 39.96, 50 39.96 S 53.5 39.96, 55 39.96 S 58.5 39.96, 60 39.96 S 63.5 39.99, 65 39.96 S 68.55 40.17, 70 39.78 S 73.5 37.31, 75 37.3 S 78.55 39.35, 80 39.73 S 83.5 39.9, 85 39.91 S 88.5 39.85, 90 39.82 S 93.5 39.76, 95 39.73 S 98.5 39.57, 100 39.6 S 103.5 39.92, 105 39.91 S 108.5 39.58, 110 39.56 S 113.5 39.73, 115 39.78 S 119.52 41.29, 120 39.87 S 123.6 10.54, 125 10 S 129.51 34.6, 130 36.02 S 133.59 38.35, 135 38.85 S 138.5 39.47, 140 39.56 S 143.5 39.43, 145 39.47 S 148.5 39.79, 150 39.82 S 153.5 39.71, 155 39.65 S 158.5 39.45, 160 39.42 S 163.5 39.41, 165 39.42 S 168.5 39.44, 170 39.47 S 173.5 39.63, 175 39.65 S 178.5 39.61, 180 39.6 S 183.5 39.63, 185 39.6 S 188.5 39.41, 190 39.42 S 193.5 39.67, 195 39.69 S 198.5 39.59, 200 39.56 S 203.5 39.52, 205 39.51"
          fill="none"/>
    <circle r="4" cx="5" cy="40" fill="#3023AE"/>
    <circle r="4" cx="205" cy="39.51" fill="#C86DD7"/>      
</svg>