<svg width="200" height="50" viewBox="0 0 210 50" xmlns="http://www.w3.org/2000/svg">
    <defs>
        <linearGradient x1="0%" y1="0%" x2="100%" y2="0%" id="a">
            <stop stop-color="#3023AE" offset="0%"/>
            <stop stop-color="#C86DD7" offset="100%"/>
        </linearGradient>
    </defs>
    <path stroke="url(#a)"
          stroke-width="3"
          stroke-linejoin="round"
          stroke-linecap="round"
          d="M5 40 C 6.18 39.08, 9 37.2, 10 36.09 S 13.55 28.53, 15 28.91 S 18.93 37.65, 20 38.7 S 23.5 38.6, 25 38.7 S 28.5 39.25, 30 39.35 S 33.5 39.35, 35 39.35 S 38.5 39.35, 40 39.35 S 43.5 39.35, 45 39.35 S 48.5 39.45, 50 39.35 S 53.51 38.89, 55 38.7 S 58.53 38.33, 60 38.04 S 63.51 36.55, 65 36.74 S 68.5 39.25, 70 39.35 S 74.52 38.81, 75 37.39 S 78.53 10.29, 80 10 S 84.52 34.01, 85 35.43 S 88.51 39.16, 90 39.35 S 93.64 37.36, 95 36.74 S 98.5 34.88, 100 34.78 S 103.53 35.8, 105 36.09 S 108.51 36.55, 110 36.74 S 113.5 37.29, 115 37.39 S 118.5 37.29, 120 37.39 S 123.57 38.5, 125 38.04 S 128.51 33.94, 130 34.13 S 133.6 39.9, 135 39.35 S 138.64 30.84, 140 30.22 S 143.5 34.88, 145 34.78 S 148.5 29.47, 150 29.57 S 153.74 34.61, 155 35.43 S 158.5 35.99, 160 36.09 S 163.53 35.8, 165 36.09 S 168.5 37.94, 170 38.04 S 173.51 36.55, 175 36.74 S 178.55 38.97, 180 39.35 S 183.53 39.64, 185 39.35 S 189.19 38.65, 190 37.39 S 193.6 24.25, 195 23.7 S 199.12 32.27, 200 33.48 S 203.82 36.47, 205 37.39"
          fill="none"/>
    <circle r="4" cx="5" cy="40" fill="#3023AE"/>
    <circle r="4" cx="205" cy="37.39" fill="#C86DD7"/>      
</svg>