<svg width="200" height="50" viewBox="0 0 210 50" xmlns="http://www.w3.org/2000/svg">
    <defs>
        <linearGradient x1="0%" y1="0%" x2="100%" y2="0%" id="a">
            <stop stop-color="#3023AE" offset="0%"/>
            <stop stop-color="#C86DD7" offset="100%"/>
        </linearGradient>
    </defs>
    <path stroke="url(#a)"
          stroke-width="3"
          stroke-linejoin="round"
          stroke-linecap="round"
          d="M5 40 C 5.25 38.52, 8.53 10.27, 10 10 S 14.52 36.73, 15 38.15 S 18.51 39.4, 20 39.54 S 23.5 39.15, 25 39.08 S 28.5 38.98, 30 39.08 S 34.15 41.01, 35 39.77 S 38.55 24.94, 40 24.54 S 44.13 35.78, 45 37 S 48.51 38.48, 50 38.62 S 53.5 37.92, 55 37.92 S 58.5 38.59, 60 38.62 S 63.51 38.01, 65 38.15 S 68.52 39.3, 70 39.54 S 73.5 39.8, 75 39.77 S 78.5 39.34, 80 39.31 S 83.5 39.54, 85 39.54 S 88.5 39.31, 90 39.31 S 93.5 39.57, 95 39.54 S 98.5 39.11, 100 39.08 S 103.5 39.28, 105 39.31 S 108.5 39.38, 110 39.31 S 113.5 38.85, 115 38.85 S 118.51 39.17, 120 39.31 S 123.5 39.84, 125 39.77 S 128.5 38.92, 130 38.85 S 133.51 39.17, 135 39.31 S 138.5 39.84, 140 39.77 S 143.51 39.02, 145 38.85 S 148.51 38.48, 150 38.62 S 153.51 39.6, 155 39.77 S 158.5 39.8, 160 39.77 S 163.5 39.54, 165 39.54 S 168.5 39.77, 170 39.77 S 173.5 39.54, 175 39.54 S 178.5 39.74, 180 39.77 S 183.5 39.77, 185 39.77 S 188.5 39.8, 190 39.77 S 193.5 39.54, 195 39.54 S 198.51 39.91, 200 39.77 S 203.54 38.96, 205 38.62"
          fill="none"/>
    <circle r="4" cx="5" cy="40" fill="#3023AE"/>
    <circle r="4" cx="205" cy="38.62" fill="#C86DD7"/>      
</svg>