<svg width="200" height="50" viewBox="0 0 210 50" xmlns="http://www.w3.org/2000/svg">
    <defs>
        <linearGradient x1="0%" y1="0%" x2="100%" y2="0%" id="a">
            <stop stop-color="#3023AE" offset="0%"/>
            <stop stop-color="#C86DD7" offset="100%"/>
        </linearGradient>
    </defs>
    <path stroke="url(#a)"
          stroke-width="3"
          stroke-linejoin="round"
          stroke-linecap="round"
          d="M5 40 C 5.4 38.55, 8.71 22.77, 10 22 S 14.04 32.85, 15 34 S 18.71 34.77, 20 34 S 23.5 28, 25 28 S 28.71 33.23, 30 34 S 33.71 34.77, 35 34 S 38.5 28, 40 28 S 43.71 33.23, 45 34 S 48.5 34, 50 34 S 53.5 34, 55 34 S 58.5 34, 60 34 S 63.5 34, 65 34 S 68.71 34.77, 70 34 S 73.5 28, 75 28 S 78.71 33.23, 80 34 S 83.5 34, 85 34 S 88.5 34, 90 34 S 93.5 34, 95 34 S 98.5 34, 100 34 S 103.5 34, 105 34 S 108.5 34, 110 34 S 113.5 34, 115 34 S 118.5 34, 120 34 S 123.5 34, 125 34 S 129.42 35.38, 130 34 S 133.5 10, 135 10 S 139.42 32.62, 140 34 S 144.27 35.31, 145 34 S 148.5 16, 150 16 S 153.71 33.23, 155 34 S 158.5 22, 160 22 S 164.04 32.85, 165 34 S 169.04 35.15, 170 34 S 174.27 23.31, 175 22 S 178.71 15.23, 180 16 S 184.27 26.69, 185 28 S 188.71 33.23, 190 34 S 193.5 34, 195 34 S 198.71 34.77, 200 34 S 204.04 29.15, 205 28"
          fill="none"/>
    <circle r="4" cx="5" cy="40" fill="#3023AE"/>
    <circle r="4" cx="205" cy="28" fill="#C86DD7"/>      
</svg>