<svg width="200" height="50" viewBox="0 0 210 50" xmlns="http://www.w3.org/2000/svg">
    <defs>
        <linearGradient x1="0%" y1="0%" x2="100%" y2="0%" id="a">
            <stop stop-color="#3023AE" offset="0%"/>
            <stop stop-color="#C86DD7" offset="100%"/>
        </linearGradient>
    </defs>
    <path stroke="url(#a)"
          stroke-width="3"
          stroke-linejoin="round"
          stroke-linecap="round"
          d="M5 40 C 5.27 38.52, 9.53 14.32, 10 12.9 S 14.41 8.62, 15 10 S 19.48 34.72, 20 36.13 S 23.56 36.68, 25 37.1 S 28.51 39.17, 30 39.03 S 33.76 36.97, 35 36.13 S 38.56 31.84, 40 32.26 S 43.76 38.19, 45 39.03 S 48.51 39.17, 50 39.03 S 53.5 38.06, 55 38.06 S 58.51 38.89, 60 39.03 S 63.5 39.03, 65 39.03 S 68.5 39.03, 70 39.03 S 73.5 39.03, 75 39.03 S 78.5 39.03, 80 39.03 S 83.5 39.03, 85 39.03 S 88.5 39.03, 90 39.03 S 93.5 39.03, 95 39.03 S 98.5 39.03, 100 39.03 S 103.5 39.03, 105 39.03 S 108.5 39.03, 110 39.03 S 113.5 39.03, 115 39.03 S 118.5 39.03, 120 39.03 S 123.5 39.03, 125 39.03 S 128.5 39.03, 130 39.03 S 133.5 39.03, 135 39.03 S 138.5 39.03, 140 39.03 S 143.5 39.03, 145 39.03 S 148.5 39.03, 150 39.03 S 153.5 39.03, 155 39.03 S 158.5 39.03, 160 39.03"
          fill="none"/>
    <circle r="4" cx="5" cy="40" fill="#3023AE"/>
    <circle r="4" cx="160" cy="39.03" fill="#C86DD7"/>      
</svg>