<svg width="200" height="50" viewBox="0 0 210 50" xmlns="http://www.w3.org/2000/svg">
    <defs>
        <linearGradient x1="0%" y1="0%" x2="100%" y2="0%" id="a">
            <stop stop-color="#3023AE" offset="0%"/>
            <stop stop-color="#C86DD7" offset="100%"/>
        </linearGradient>
    </defs>
    <path stroke="url(#a)"
          stroke-width="3"
          stroke-linejoin="round"
          stroke-linecap="round"
          d="M5 40 C 6.47 39.7, 8.5 39.06, 10 38.98 S 13.5 39.41, 15 39.49 S 18.5 39.49, 20 39.49 S 23.5 39.49, 25 39.49 S 28.5 39.49, 30 39.49 S 33.5 39.49, 35 39.49 S 38.5 39.49, 40 39.49 S 43.5 39.49, 45 39.49 S 48.5 39.49, 50 39.49 S 53.5 39.49, 55 39.49 S 58.5 39.49, 60 39.49 S 63.5 39.49, 65 39.49 S 68.5 39.49, 70 39.49 S 73.5 39.49, 75 39.49 S 78.5 39.49, 80 39.49 S 83.5 39.49, 85 39.49 S 88.5 39.49, 90 39.49 S 93.57 39.93, 95 39.49 S 98.59 36.94, 100 36.44 S 103.66 36.61, 105 35.93 S 108.81 32.27, 110 31.36 S 113.52 28.08, 115 28.31 S 118.55 32.51, 120 32.88 S 123.51 30.7, 125 30.85 S 128.51 34.05, 130 33.9 S 133.61 30.4, 135 29.83 S 138.5 29.75, 140 29.83 S 143.52 30.57, 145 30.34 S 148.53 28.01, 150 28.31 S 153.78 31.5, 155 32.37 S 158.5 35.42, 160 35.42 S 163.81 33.28, 165 32.37 S 169.12 29.01, 170 27.8 S 173.53 18.34, 175 18.64 S 178.5 29.75, 180 29.83 S 184.32 20.49, 185 19.15 S 188.55 10.37, 190 10 S 194.45 15.21, 195 16.61 S 199.38 34.06, 200 35.42 S 203.72 37.69, 205 38.47"
          fill="none"/>
    <circle r="4" cx="5" cy="40" fill="#3023AE"/>
    <circle r="4" cx="205" cy="38.47" fill="#C86DD7"/>      
</svg>