<svg width="200" height="50" viewBox="0 0 210 50" xmlns="http://www.w3.org/2000/svg">
    <defs>
        <linearGradient x1="0%" y1="0%" x2="100%" y2="0%" id="a">
            <stop stop-color="#3023AE" offset="0%"/>
            <stop stop-color="#C86DD7" offset="100%"/>
        </linearGradient>
    </defs>
    <path stroke="url(#a)"
          stroke-width="3"
          stroke-linejoin="round"
          stroke-linecap="round"
          d="M5 40 C 6.49 39.84, 9.53 40.87, 10 39.45 S 14.18 11.26, 15 10 S 19.38 22.72, 20 24.09 S 23.53 31.78, 25 32.1 S 28.54 26.6, 30 26.24 S 33.55 29.22, 35 29.61 S 38.61 29.47, 40 28.9 S 43.52 25.74, 45 25.52 S 48.56 26.98, 50 27.4 S 54 29.52, 55 28.4 S 58.57 16.63, 60 16.19 S 63.96 24.22, 65 25.3 S 68.5 26.46, 70 26.57 S 73.6 25.47, 75 26.02 S 78.5 30.43, 80 30.5 S 83.61 27.03, 85 26.46 S 88.5 26.51, 90 26.41 S 93.5 25.9, 95 25.8 S 98.5 25.78, 100 25.75 S 103.54 25.23, 105 25.58 S 108.54 27.77, 110 28.12 S 113.51 28.15, 115 27.96 S 118.51 27.02, 120 26.85 S 123.51 26.64, 125 26.85 S 128.5 28.17, 130 28.23 S 133.5 27.19, 135 27.24 S 138.53 28.25, 140 28.56 S 143.51 29.19, 145 29.34 S 148.5 29.49, 150 29.56 S 154.02 30.97, 155 29.83 S 158.52 18.15, 160 17.9 S 164.03 26.98, 165 28.12 S 168.5 29.65, 170 29.61 S 173.51 28.01, 175 27.85 S 178.5 28.51, 180 28.56 S 183.52 27.97, 185 28.18 S 188.51 29.85, 190 30 S 193.5 29.24, 195 29.17 S 198.54 29.85, 200 29.5 S 203.69 27.46, 205 26.74"
          fill="none"/>
    <circle r="4" cx="5" cy="40" fill="#3023AE"/>
    <circle r="4" cx="205" cy="26.740000000000002" fill="#C86DD7"/>      
</svg>