<svg width="200" height="50" viewBox="0 0 210 50" xmlns="http://www.w3.org/2000/svg">
    <defs>
        <linearGradient x1="0%" y1="0%" x2="100%" y2="0%" id="a">
            <stop stop-color="#3023AE" offset="0%"/>
            <stop stop-color="#C86DD7" offset="100%"/>
        </linearGradient>
    </defs>
    <path stroke="url(#a)"
          stroke-width="3"
          stroke-linejoin="round"
          stroke-linecap="round"
          d="M5 40 C 6.5 39.94, 8.5 39.82, 10 39.81 S 14.28 41.24, 15 39.92 S 18.86 22.56, 20 21.58 S 24.06 30.15, 25 31.32 S 28.63 33.49, 30 34.11 S 33.63 35.24, 35 35.86 S 38.56 38.23, 40 38.65 S 43.5 38.76, 45 38.79 S 48.5 38.88, 50 38.82 S 53.5 38.32, 55 38.42 S 58.51 39.31, 60 39.5 S 63.5 39.69, 65 39.73 S 68.5 39.81, 70 39.8 S 73.5 39.65, 75 39.64 S 78.5 39.72, 80 39.7 S 83.54 39.86, 85 39.5 S 88.5 37.27, 90 37.23 S 93.53 38.91, 95 39.22 S 98.5 39.29, 100 39.33 S 103.5 39.46, 105 39.51 S 108.5 39.68, 110 39.67 S 113.5 39.46, 115 39.45 S 118.5 39.57, 120 39.62 S 123.5 39.78, 125 39.81 S 128.5 39.92, 130 39.8 S 133.51 39.16, 135 39.03 S 138.65 39.58, 140 38.93 S 144.4 35.57, 145 34.2 S 149.43 17.5, 150 16.11 S 154.12 8.79, 155 10 S 159.46 28.4, 160 29.8 S 163.81 35.23, 165 36.14 S 168.53 37.13, 170 37.41 S 173.5 38.15, 175 38.07 S 178.51 37.02, 180 36.88 S 183.51 36.91, 185 37.12 S 188.5 38.16, 190 38.28 S 193.5 37.92, 195 37.92 S 198.51 38.14, 200 38.28 S 203.51 38.71, 205 38.89"
          fill="none"/>
    <circle r="4" cx="5" cy="40" fill="#3023AE"/>
    <circle r="4" cx="205" cy="38.89" fill="#C86DD7"/>      
</svg>