<svg width="200" height="50" viewBox="0 0 210 50" xmlns="http://www.w3.org/2000/svg">
    <defs>
        <linearGradient x1="0%" y1="0%" x2="100%" y2="0%" id="a">
            <stop stop-color="#3023AE" offset="0%"/>
            <stop stop-color="#C86DD7" offset="100%"/>
        </linearGradient>
    </defs>
    <path stroke="url(#a)"
          stroke-width="3"
          stroke-linejoin="round"
          stroke-linecap="round"
          d="M5 40 C 6.5 39.96, 8.5 39.88, 10 39.86 S 13.5 39.88, 15 39.86 S 18.5 39.75, 20 39.71 S 24.2 40.84, 25 39.57 S 28.51 24.09, 30 23.92 S 33.89 37.41, 35 38.42 S 38.53 33.24, 40 32.97 S 43.68 35.86, 45 36.56 S 48.54 37.92, 50 38.28 S 53.5 39, 55 39 S 58.5 38.35, 60 38.28 S 63.53 38.86, 65 38.56 S 68.51 36.44, 70 36.27 S 73.5 37.42, 75 37.42 S 78.51 36.14, 80 36.27 S 83.53 37.98, 85 38.28 S 89.5 39.69, 90 38.28 S 93.53 10.28, 95 10 S 99.49 35, 100 36.41 S 103.51 37.57, 105 37.7 S 108.53 37.59, 110 37.27 S 113.5 35.53, 115 35.55 S 118.5 37.36, 120 37.42 S 123.5 35.98, 125 35.98 S 128.52 37.21, 130 37.42 S 133.5 37.51, 135 37.42 S 139.18 38.09, 140 36.84 S 143.52 22.41, 145 22.2 S 149.11 34.2, 150 35.41 S 153.5 35.8, 155 35.69 S 158.5 34.65, 160 34.69 S 163.53 35.68, 165 35.98 S 168.5 36.72, 170 36.7 S 173.51 36.01, 175 35.84 S 179.44 36.94, 180 35.55 S 183.5 10.96, 185 11 S 189.45 34.45, 190 35.84 S 193.5 36.27, 195 36.27 S 198.51 35.97, 200 35.84 S 203.51 35.54, 205 35.41"
          fill="none"/>
    <circle r="4" cx="5" cy="40" fill="#3023AE"/>
    <circle r="4" cx="205" cy="35.41" fill="#C86DD7"/>      
</svg>