<svg width="200" height="50" viewBox="0 0 210 50" xmlns="http://www.w3.org/2000/svg">
    <defs>
        <linearGradient x1="0%" y1="0%" x2="100%" y2="0%" id="a">
            <stop stop-color="#3023AE" offset="0%"/>
            <stop stop-color="#C86DD7" offset="100%"/>
        </linearGradient>
    </defs>
    <path stroke="url(#a)"
          stroke-width="3"
          stroke-linejoin="round"
          stroke-linecap="round"
          d="M5 40 C 5.94 38.83, 8.63 34.43, 10 33.82 S 13.52 35.33, 15 35.59 S 18.59 36.09, 20 35.59 S 23.88 33.05, 25 32.06 S 28.83 27.69, 30 26.76 S 33.67 24.82, 35 24.12 S 38.77 20.6, 40 21.47 S 43.97 30.09, 45 31.18 S 49.2 33.33, 50 32.06 S 53.63 15.9, 55 15.29 S 58.83 26.72, 60 27.65 S 63.55 23.62, 65 23.24 S 68.88 24.01, 70 25 S 73.52 31.8, 75 32.06 S 79.13 27.98, 80 26.76 S 83.5 17.94, 85 17.94 S 88.72 25.97, 90 26.76 S 93.59 23.62, 95 24.12 S 98.77 31.16, 100 30.29 S 103.63 17.67, 105 17.06 S 108.52 26.14, 110 25.88 S 113.67 15.99, 115 15.29 S 118.52 20.85, 120 20.59 S 123.97 14.62, 125 13.53 S 128.52 9.74, 130 10 S 133.63 14.68, 135 15.29 S 138.83 13.48, 140 14.41 S 143.51 23.11, 145 23.24 S 148.63 15.9, 150 15.29 S 153.5 18.82, 155 18.82 S 158.52 15.03, 160 15.29 S 163.52 20.85, 165 20.59 S 168.63 14.14, 170 13.53 S 173.67 15.48, 175 16.18 S 178.5 18.82, 180 18.82 S 183.72 16.97, 185 16.18 S 189.06 11.48, 190 12.65 S 193.72 27.74, 195 28.53 S 198.77 19.69, 200 18.82 S 203.67 20.77, 205 21.47"
          fill="none"/>
    <circle r="4" cx="5" cy="40" fill="#3023AE"/>
    <circle r="4" cx="205" cy="21.47" fill="#C86DD7"/>      
</svg>