<svg width="200" height="50" viewBox="0 0 210 50" xmlns="http://www.w3.org/2000/svg">
    <defs>
        <linearGradient x1="0%" y1="0%" x2="100%" y2="0%" id="a">
            <stop stop-color="#3023AE" offset="0%"/>
            <stop stop-color="#C86DD7" offset="100%"/>
        </linearGradient>
    </defs>
    <path stroke="url(#a)"
          stroke-width="3"
          stroke-linejoin="round"
          stroke-linecap="round"
          d="M5 40 C 6.5 39.98, 8.5 39.95, 10 39.94 S 13.5 39.94, 15 39.94 S 18.5 39.94, 20 39.94 S 23.5 39.94, 25 39.94 S 28.5 39.94, 30 39.94 S 33.5 39.94, 35 39.94 S 38.5 39.94, 40 39.94 S 43.5 39.94, 45 39.94 S 48.5 39.94, 50 39.94 S 53.5 39.94, 55 39.94 S 58.5 39.94, 60 39.94 S 64.52 41.36, 65 39.94 S 69.01 11.13, 70 10 S 74.37 27.2, 75 28.56 S 78.62 31.23, 80 31.81 S 83.62 33.36, 85 32.77 S 88.54 27.16, 90 27.5 S 93.85 34.15, 95 35.12 S 98.53 35.61, 100 35.91 S 103.53 37.43, 105 37.14 S 108.51 34.1, 110 33.94 S 113.61 35.5, 115 36.07 S 118.52 37.79, 120 38.04 S 123.57 38.22, 125 37.76 S 128.52 35.09, 130 34.84 S 133.54 35.73, 135 36.07 S 138.52 36.91, 140 37.14 S 143.5 37.59, 145 37.59 S 148.5 37.23, 150 37.14 S 153.51 37.12, 155 36.97 S 158.5 36.1, 160 36.13 S 163.5 37.14, 165 37.14 S 168.52 36.37, 170 36.13 S 173.51 35.31, 175 35.51 S 178.53 37.18, 180 37.48 S 183.51 37.72, 185 37.53 S 188.54 36.52, 190 36.19 S 193.5 35.22, 195 35.29 S 198.52 36.41, 200 36.64 S 203.5 36.79, 205 36.86"
          fill="none"/>
    <circle r="4" cx="5" cy="40" fill="#3023AE"/>
    <circle r="4" cx="205" cy="36.86" fill="#C86DD7"/>      
</svg>