<svg width="200" height="50" viewBox="0 0 210 50" xmlns="http://www.w3.org/2000/svg">
    <defs>
        <linearGradient x1="0%" y1="0%" x2="100%" y2="0%" id="a">
            <stop stop-color="#3023AE" offset="0%"/>
            <stop stop-color="#C86DD7" offset="100%"/>
        </linearGradient>
    </defs>
    <path stroke="url(#a)"
          stroke-width="3"
          stroke-linejoin="round"
          stroke-linecap="round"
          d="M5 40 C 5.48 38.58, 9.53 26.74, 10 25.32 S 13.51 9.83, 15 10 S 19.44 25.1, 20 26.49 S 23.99 33.7, 25 34.81 S 28.56 36.98, 30 37.4 S 33.57 38.18, 35 37.73 S 38.51 34.43, 40 34.29 S 43.51 36.61, 45 36.82 S 48.68 36.42, 50 35.71 S 53.53 31.11, 55 31.43 S 58.79 36.97, 60 37.86 S 63.51 38.65, 65 38.83 S 68.5 39.2, 70 39.09 S 73.5 38.13, 75 38.12 S 78.51 38.87, 80 39.03 S 83.5 39.19, 85 39.22 S 88.5 39.22, 90 39.22 S 93.5 39.18, 95 39.22 S 98.5 39.48, 100 39.48 S 103.5 39.25, 105 39.22 S 108.5 39.26, 110 39.29 S 113.5 39.42, 115 39.42 S 118.5 39.32, 120 39.29 S 123.5 39.29, 125 39.22 S 128.5 38.91, 130 38.83 S 133.5 38.7, 135 38.7 S 138.5 38.82, 140 38.83 S 143.5 38.77, 145 38.77 S 148.5 38.87, 150 38.83 S 153.5 38.44, 155 38.51 S 158.5 39.34, 160 39.29 S 163.51 38.35, 165 38.18 S 168.5 38.03, 170 38.12 S 173.51 38.6, 175 38.77 S 178.5 39.29, 180 39.29 S 183.5 38.81, 185 38.77 S 188.5 38.99, 190 39.03 S 193.5 39.04, 195 39.03 S 198.5 38.96, 200 38.96 S 203.5 39.01, 205 39.03"
          fill="none"/>
    <circle r="4" cx="5" cy="40" fill="#3023AE"/>
    <circle r="4" cx="205" cy="39.03" fill="#C86DD7"/>      
</svg>