<svg width="200" height="50" viewBox="0 0 210 50" xmlns="http://www.w3.org/2000/svg">
    <defs>
        <linearGradient x1="0%" y1="0%" x2="100%" y2="0%" id="a">
            <stop stop-color="#3023AE" offset="0%"/>
            <stop stop-color="#C86DD7" offset="100%"/>
        </linearGradient>
    </defs>
    <path stroke="url(#a)"
          stroke-width="3"
          stroke-linejoin="round"
          stroke-linecap="round"
          d="M5 40 C 5.25 38.52, 8.62 10.59, 10 10 S 14.49 34.3, 15 35.71 S 18.58 37.1, 20 37.59 S 23.51 39, 25 39.2 S 28.5 38.93, 30 38.93 S 33.5 39.3, 35 39.2 S 38.5 38.28, 40 38.26 S 43.51 39.2, 45 39.06 S 48.53 37.62, 50 37.32 S 53.53 36.75, 55 37.05 S 58.53 39.01, 60 39.33 S 63.5 39.26, 65 39.2 S 68.5 38.89, 70 38.93 S 73.5 39.38, 75 39.46 S 78.5 39.5, 80 39.46 S 83.51 39.4, 85 39.2 S 88.5 38.12, 90 38.12 S 93.52 38.98, 95 39.2 S 98.5 39.62, 100 39.6 S 103.5 39.04, 105 39.06 S 108.5 39.73, 110 39.73 S 113.5 39.12, 115 39.06 S 118.5 39.25, 120 39.33 S 123.5 39.54, 125 39.6 S 128.51 39.87, 130 39.73 S 133.51 38.8, 135 38.66 S 138.5 38.75, 140 38.79 S 143.5 39.01, 145 38.93 S 148.5 38.2, 150 38.26 S 153.51 39.53, 155 39.33 S 158.52 37.16, 160 36.92 S 163.51 37.54, 165 37.72 S 168.5 38.14, 170 38.12 S 173.51 37.43, 175 37.59 S 178.5 39.3, 180 39.2 S 183.54 37.25, 185 36.92 S 188.5 36.86, 190 36.92 S 193.51 37.18, 195 37.32 S 198.5 37.76, 200 37.86 S 203.5 37.95, 205 37.99"
          fill="none"/>
    <circle r="4" cx="5" cy="40" fill="#3023AE"/>
    <circle r="4" cx="205" cy="37.99" fill="#C86DD7"/>      
</svg>