<svg width="200" height="50" viewBox="0 0 210 50" xmlns="http://www.w3.org/2000/svg">
    <defs>
        <linearGradient x1="0%" y1="0%" x2="100%" y2="0%" id="a">
            <stop stop-color="#3023AE" offset="0%"/>
            <stop stop-color="#C86DD7" offset="100%"/>
        </linearGradient>
    </defs>
    <path stroke="url(#a)"
          stroke-width="3"
          stroke-linejoin="round"
          stroke-linecap="round"
          d="M5 40 C 5.35 38.54, 8.53 19.39, 10 19.11 S 14.11 36.89, 15 38.1 S 18.71 33.55, 20 32.78 S 23.55 32.55, 25 32.15 S 28.5 30.09, 30 30 S 33.54 31.17, 35 31.52 S 38.55 32.8, 40 32.41 S 43.81 29.78, 45 28.86 S 48.52 24.94, 50 24.68 S 53.52 26.86, 55 27.09 S 59.06 27.37, 60 26.2 S 63.84 15.63, 65 14.68 S 68.66 17.31, 70 17.97 S 73.5 19.69, 75 19.62 S 78.5 17.53, 80 17.47 S 83.5 19.13, 85 19.24 S 88.59 18.75, 90 18.23 S 93.59 15.07, 95 15.57 S 98.63 22.38, 100 21.77 S 104.03 12.28, 105 11.14 S 108.76 9.15, 110 10 S 113.87 16.98, 115 17.97 S 118.52 18.49, 120 18.73 S 123.5 19.6, 125 19.62 S 128.5 18.84, 130 18.86 S 133.79 18.86, 135 19.75 S 138.78 25.32, 140 26.2 S 143.51 26.77, 145 26.96 S 148.5 27.39, 150 27.47 S 153.56 27.05, 155 27.47 S 158.58 29.91, 160 30.38 S 163.5 30.72, 165 30.76 S 168.56 30.19, 170 30.63 S 173.52 33.54, 175 33.8 S 178.51 32.62, 180 32.41 S 183.53 32.11, 185 32.41 S 188.53 34.11, 190 34.43 S 193.5 34.47, 195 34.56 S 198.53 34.76, 200 35.06 S 203.56 36.14, 205 36.58"
          fill="none"/>
    <circle r="4" cx="5" cy="40" fill="#3023AE"/>
    <circle r="4" cx="205" cy="36.58" fill="#C86DD7"/>      
</svg>