<svg width="200" height="50" viewBox="0 0 210 50" xmlns="http://www.w3.org/2000/svg">
    <defs>
        <linearGradient x1="0%" y1="0%" x2="100%" y2="0%" id="a">
            <stop stop-color="#3023AE" offset="0%"/>
            <stop stop-color="#C86DD7" offset="100%"/>
        </linearGradient>
    </defs>
    <path stroke="url(#a)"
          stroke-width="3"
          stroke-linejoin="round"
          stroke-linecap="round"
          d="M5 40 C 6.5 39.92, 8.5 39.73, 10 39.73 S 13.5 39.95, 15 39.99 S 18.5 39.99, 20 39.99 S 23.5 39.99, 25 39.99 S 28.5 39.99, 30 39.99 S 33.5 40.01, 35 39.99 S 38.5 39.84, 40 39.83 S 43.5 39.88, 45 39.9 S 48.5 39.95, 50 39.96 S 53.5 39.99, 55 39.96 S 58.51 39.87, 60 39.73 S 63.55 39.41, 65 39.03 S 68.52 37.36, 70 37.09 S 73.5 37.29, 75 37.19 S 78.54 36.76, 80 36.42 S 83.55 35.28, 85 34.88 S 88.5 33.75, 90 33.66 S 93.54 34.64, 95 34.29 S 98.69 31.95, 100 31.23 S 103.59 29.3, 105 28.79 S 108.6 28.16, 110 27.63 S 113.54 25.36, 115 25.02 S 118.62 25.89, 120 25.31 S 123.56 21.25, 125 20.84 S 128.52 22.21, 130 22.45 S 133.53 22.13, 135 22.44 S 138.51 24.7, 140 24.55 S 143.57 21.9, 145 21.45 S 148.66 22.07, 150 21.41 S 153.68 17.22, 155 16.51 S 158.51 16.19, 160 16.01 S 163.55 14.93, 165 15.32 S 168.51 18.82, 170 18.69 S 173.53 14.19, 175 14.47 S 178.68 19.89, 180 20.6 S 183.53 20.1, 185 19.8 S 188.93 19.61, 190 18.56 S 193.57 10.45, 195 10 S 198.96 14.34, 200 15.42 S 203.93 19.31, 205 20.36"
          fill="none"/>
    <circle r="4" cx="5" cy="40" fill="#3023AE"/>
    <circle r="4" cx="205" cy="20.36" fill="#C86DD7"/>      
</svg>