<svg width="200" height="50" viewBox="0 0 210 50" xmlns="http://www.w3.org/2000/svg">
    <defs>
        <linearGradient x1="0%" y1="0%" x2="100%" y2="0%" id="a">
            <stop stop-color="#3023AE" offset="0%"/>
            <stop stop-color="#C86DD7" offset="100%"/>
        </linearGradient>
    </defs>
    <path stroke="url(#a)"
          stroke-width="3"
          stroke-linejoin="round"
          stroke-linecap="round"
          d="M5 40 C 6.5 39.92, 8.5 39.74, 10 39.74 S 13.5 39.95, 15 39.99 S 18.5 39.99, 20 39.99 S 23.5 39.99, 25 39.99 S 28.5 39.99, 30 39.99 S 33.5 40.01, 35 39.99 S 38.5 39.86, 40 39.85 S 43.5 39.89, 45 39.91 S 48.5 39.97, 50 39.97 S 53.5 39.96, 55 39.94 S 58.5 39.91, 60 39.86 S 63.53 39.95, 65 39.63 S 68.53 38.02, 70 37.71 S 73.5 37.6, 75 37.49 S 78.51 37.19, 80 37 S 83.57 36.7, 85 36.24 S 88.51 34, 90 33.8 S 93.5 34.93, 95 34.9 S 98.68 34.35, 100 33.63 S 103.59 29.98, 105 29.46 S 108.51 30.15, 110 29.94 S 113.65 28.73, 115 28.08 S 118.57 25.6, 120 25.16 S 123.57 25.43, 125 24.98 S 128.52 22.29, 130 22.05 S 133.52 23.11, 135 23.33 S 138.53 23.22, 140 23.51 S 143.52 25.53, 145 25.3 S 148.56 22.39, 150 21.96 S 153.62 22.86, 155 22.28 S 158.67 18.46, 160 17.77 S 163.51 17.3, 165 17.12 S 168.55 16.15, 170 16.53 S 173.5 19.82, 175 19.73 S 178.5 15.89, 180 15.95 S 183.71 19.39, 185 20.16 S 188.52 22.15, 190 21.92 S 193.61 19.17, 195 18.6 S 198.86 18.76, 200 17.78 S 204.19 11.26, 205 10"
          fill="none"/>
    <circle r="4" cx="5" cy="40" fill="#3023AE"/>
    <circle r="4" cx="205" cy="10" fill="#C86DD7"/>      
</svg>