<svg width="200" height="50" viewBox="0 0 210 50" xmlns="http://www.w3.org/2000/svg">
    <defs>
        <linearGradient x1="0%" y1="0%" x2="100%" y2="0%" id="a">
            <stop stop-color="#3023AE" offset="0%"/>
            <stop stop-color="#C86DD7" offset="100%"/>
        </linearGradient>
    </defs>
    <path stroke="url(#a)"
          stroke-width="3"
          stroke-linejoin="round"
          stroke-linecap="round"
          d="M5 40 C 5.31 38.53, 8.82 17.41, 10 16.48 S 14.31 30.8, 15 32.13 S 18.53 35.52, 20 35.8 S 23.5 34.02, 25 34.01 S 28.52 35.48, 30 35.73 S 33.5 35.66, 35 35.67 S 38.5 35.88, 40 35.79 S 43.54 35.44, 45 35.08 S 48.53 33.58, 50 33.29 S 53.51 32.92, 55 33.13 S 58.51 34.56, 60 34.68 S 63.5 34.05, 65 33.95 S 68.68 34.7, 70 33.99 S 73.7 29.36, 75 28.62 S 78.5 28.37, 80 28.31 S 83.55 27.81, 85 28.21 S 88.58 30.61, 90 31.09 S 93.5 31.63, 95 31.58 S 98.96 31.84, 100 30.76 S 103.56 21.59, 105 21.18 S 108.66 27.27, 110 27.94 S 113.5 26.28, 115 26.16 S 118.55 27.55, 120 27.17 S 123.52 23.76, 125 23.52 S 128.52 25.32, 130 25.58 S 133.52 25.49, 135 25.27 S 138.52 24.29, 140 24.08 S 144.13 25.06, 145 23.84 S 148.71 10.77, 150 10 S 153.51 17.68, 155 17.84 S 158.5 10.94, 160 11.04 S 163.68 17.78, 165 18.49 S 168.59 15.91, 170 16.42 S 173.51 21.91, 175 22.09 S 178.55 17.23, 180 17.6 S 183.67 23.92, 185 24.61 S 188.5 22.75, 190 22.79 S 193.83 25.83, 195 24.89 S 198.7 15.52, 200 14.77 S 203.87 18.14, 205 19.13"
          fill="none"/>
    <circle r="4" cx="5" cy="40" fill="#3023AE"/>
    <circle r="4" cx="205" cy="19.13" fill="#C86DD7"/>      
</svg>