<svg width="200" height="50" viewBox="0 0 210 50" xmlns="http://www.w3.org/2000/svg">
    <defs>
        <linearGradient x1="0%" y1="0%" x2="100%" y2="0%" id="a">
            <stop stop-color="#3023AE" offset="0%"/>
            <stop stop-color="#C86DD7" offset="100%"/>
        </linearGradient>
    </defs>
    <path stroke="url(#a)"
          stroke-width="3"
          stroke-linejoin="round"
          stroke-linecap="round"
          d="M5 40 C 5.58 38.62, 8.51 28.26, 10 28.12 S 14 37.92, 15 39.04 S 18.5 39.29, 20 39.4 S 23.5 39.71, 25 39.76 S 28.5 39.74, 30 39.76 S 33.5 39.86, 35 39.88 S 38.5 39.88, 40 39.88 S 43.5 39.88, 45 39.88 S 48.5 39.88, 50 39.88 S 53.5 39.88, 55 39.88 S 58.52 40.13, 60 39.88 S 63.53 38.5, 65 38.2 S 68.5 37.8, 70 37.84 S 73.53 38.72, 75 38.44 S 78.65 36.57, 80 35.92 S 83.73 34.43, 85 33.64 S 88.62 30.26, 90 29.68 S 93.55 29.04, 95 29.44 S 98.58 31.96, 100 32.44 S 103.51 32.66, 105 32.8 S 108.54 33.75, 110 33.4 S 114.38 31.77, 115 30.4 S 118.75 12.04, 120 11.2 S 124.24 22.39, 125 23.68 S 128.53 27.94, 130 28.24 S 134.02 26.86, 135 25.72 S 138.54 16.93, 140 16.6 S 143.57 22.99, 145 23.44 S 148.53 20.04, 150 19.72 S 153.75 20.45, 155 21.28 S 158.65 25.67, 160 26.32 S 163.55 26.45, 165 26.08 S 169.21 25.07, 170 23.8 S 173.55 10.38, 175 10 S 179.28 19.84, 180 21.16 S 183.56 27.93, 185 28.36 S 188.56 24.58, 190 24.16 S 193.56 25.91, 195 25.48 S 198.51 21.03, 200 21.16 S 203.96 25.24, 205 26.32"
          fill="none"/>
    <circle r="4" cx="5" cy="40" fill="#3023AE"/>
    <circle r="4" cx="205" cy="26.32" fill="#C86DD7"/>      
</svg>