<svg width="200" height="50" viewBox="0 0 210 50" xmlns="http://www.w3.org/2000/svg">
    <defs>
        <linearGradient x1="0%" y1="0%" x2="100%" y2="0%" id="a">
            <stop stop-color="#3023AE" offset="0%"/>
            <stop stop-color="#C86DD7" offset="100%"/>
        </linearGradient>
    </defs>
    <path stroke="url(#a)"
          stroke-width="3"
          stroke-linejoin="round"
          stroke-linecap="round"
          d="M5 40 C 6.37 39.4, 8.5 37.9, 10 37.82 S 13.52 39.21, 15 39.45 S 18.5 39.45, 20 39.45 S 23.57 39.92, 25 39.45 S 28.5 36.18, 30 36.18 S 33.57 38.98, 35 39.45 S 38.5 39.45, 40 39.45 S 43.5 39.45, 45 39.45 S 48.5 39.45, 50 39.45 S 53.5 39.45, 55 39.45 S 58.5 39.45, 60 39.45 S 63.5 39.45, 65 39.45 S 68.5 39.45, 70 39.45 S 73.5 39.45, 75 39.45 S 78.5 39.45, 80 39.45 S 83.5 39.45, 85 39.45 S 88.5 39.45, 90 39.45 S 93.5 39.45, 95 39.45 S 98.5 39.45, 100 39.45 S 103.5 39.45, 105 39.45 S 108.5 39.45, 110 39.45 S 113.5 39.45, 115 39.45 S 118.5 39.45, 120 39.45 S 123.5 39.45, 125 39.45 S 128.5 39.45, 130 39.45 S 133.5 39.45, 135 39.45 S 138.5 39.45, 140 39.45 S 143.5 39.45, 145 39.45 S 148.5 39.45, 150 39.45 S 153.5 39.45, 155 39.45 S 158.5 39.45, 160 39.45 S 163.5 39.45, 165 39.45 S 168.5 39.45, 170 39.45 S 174.22 40.73, 175 39.45 S 179.45 24.49, 180 23.09 S 183.68 13.1, 185 13.82 S 189.2 27.28, 190 28.55 S 193.55 29.25, 195 29.64 S 199.32 32.61, 200 31.27 S 204.66 11.46, 205 10"
          fill="none"/>
    <circle r="4" cx="5" cy="40" fill="#3023AE"/>
    <circle r="4" cx="205" cy="10" fill="#C86DD7"/>      
</svg>