<svg width="200" height="50" viewBox="0 0 210 50" xmlns="http://www.w3.org/2000/svg">
    <defs>
        <linearGradient x1="0%" y1="0%" x2="100%" y2="0%" id="a">
            <stop stop-color="#3023AE" offset="0%"/>
            <stop stop-color="#C86DD7" offset="100%"/>
        </linearGradient>
    </defs>
    <path stroke="url(#a)"
          stroke-width="3"
          stroke-linejoin="round"
          stroke-linecap="round"
          d="M5 40 C 5.77 38.71, 8.85 32.63, 10 31.67 S 13.52 31.92, 15 31.67 S 18.58 29.53, 20 30 S 23.52 35.25, 25 35 S 28.52 28.58, 30 28.33 S 33.94 32.27, 35 33.33 S 38.58 37.85, 40 38.33 S 43.5 36.67, 45 36.67 S 48.52 38.58, 50 38.33 S 53.5 35, 55 35 S 58.5 38.33, 60 38.33 S 63.5 35, 65 35 S 68.58 37.86, 70 38.33 S 73.5 38.33, 75 38.33 S 78.52 38.58, 80 38.33 S 83.5 36.67, 85 36.67 S 88.58 38.81, 90 38.33 S 93.66 34, 95 33.33 S 98.5 33.33, 100 33.33 S 103.52 33.08, 105 33.33 S 108.52 34.75, 110 35 S 113.58 34.53, 115 35 S 118.5 38.33, 120 38.33 S 123.58 35.47, 125 35 S 128.5 35, 130 35 S 133.52 34.75, 135 35 S 138.58 36.2, 140 36.67 S 143.5 38.33, 145 38.33 S 148.58 37.14, 150 36.67 S 153.58 35.48, 155 35 S 158.52 33.58, 160 33.33 S 163.66 32.66, 165 33.33 S 168.52 38.58, 170 38.33 S 174.5 33.08, 175 31.67 S 178.94 11.06, 180 10 S 183.85 20.71, 185 21.67 S 188.75 17.5, 190 18.33 S 193.94 27.27, 195 28.33 S 198.85 29.29, 200 28.33 S 204.23 21.29, 205 20"
          fill="none"/>
    <circle r="4" cx="5" cy="40" fill="#3023AE"/>
    <circle r="4" cx="205" cy="20" fill="#C86DD7"/>      
</svg>