<svg width="200" height="50" viewBox="0 0 210 50" xmlns="http://www.w3.org/2000/svg">
    <defs>
        <linearGradient x1="0%" y1="0%" x2="100%" y2="0%" id="a">
            <stop stop-color="#3023AE" offset="0%"/>
            <stop stop-color="#C86DD7" offset="100%"/>
        </linearGradient>
    </defs>
    <path stroke="url(#a)"
          stroke-width="3"
          stroke-linejoin="round"
          stroke-linecap="round"
          d="M5 40 C 5.67 38.66, 9.33 31.34, 10 30 S 13.58 20.47, 15 20 S 18.58 26.2, 20 26.67 S 23.5 23.33, 25 23.33 S 28.5 26.67, 30 26.67 S 33.94 22.27, 35 23.33 S 39.1 35.47, 40 36.67 S 43.5 36.67, 45 36.67 S 48.5 36.67, 50 36.67 S 53.5 36.67, 55 36.67 S 58.5 36.67, 60 36.67 S 63.5 36.67, 65 36.67 S 68.5 36.67, 70 36.67 S 73.5 36.67, 75 36.67 S 78.5 36.67, 80 36.67 S 83.5 36.67, 85 36.67 S 88.5 36.67, 90 36.67 S 93.5 36.67, 95 36.67 S 99.1 37.87, 100 36.67 S 104.33 24.67, 105 23.33 S 108.58 16.19, 110 16.67 S 114.23 25.38, 115 26.67 S 118.75 32.5, 120 33.33 S 123.58 32.85, 125 33.33 S 128.58 36.19, 130 36.67 S 133.5 36.67, 135 36.67 S 138.5 36.67, 140 36.67 S 143.5 36.67, 145 36.67 S 148.5 36.67, 150 36.67 S 153.5 36.67, 155 36.67 S 159.33 38.01, 160 36.67 S 163.58 17.15, 165 16.67 S 168.58 32.86, 170 33.33 S 173.5 20, 175 20 S 178.5 33.33, 180 33.33 S 183.94 21.06, 185 20 S 188.94 24.39, 190 23.33 S 194.1 8.8, 195 10 S 199.33 35.33, 200 36.67 S 204.1 31.2, 205 30"
          fill="none"/>
    <circle r="4" cx="5" cy="40" fill="#3023AE"/>
    <circle r="4" cx="205" cy="30" fill="#C86DD7"/>      
</svg>