<svg width="200" height="50" viewBox="0 0 210 50" xmlns="http://www.w3.org/2000/svg">
    <defs>
        <linearGradient x1="0%" y1="0%" x2="100%" y2="0%" id="a">
            <stop stop-color="#3023AE" offset="0%"/>
            <stop stop-color="#C86DD7" offset="100%"/>
        </linearGradient>
    </defs>
    <path stroke="url(#a)"
          stroke-width="3"
          stroke-linejoin="round"
          stroke-linecap="round"
          d="M5 40 C 5.25 38.52, 8.5 10.11, 10 10 S 14.51 37.84, 15 39.26 S 18.5 39.05, 20 39.1 S 23.5 39.53, 25 39.62 S 28.5 39.64, 30 39.67 S 33.5 39.81, 35 39.84 S 38.5 39.85, 40 39.84 S 43.5 39.81, 45 39.8 S 48.5 39.79, 50 39.8 S 53.5 39.9, 55 39.86 S 58.5 39.56, 60 39.55 S 63.5 39.76, 65 39.8 S 68.5 39.82, 70 39.82 S 73.5 39.81, 75 39.82 S 78.5 39.87, 80 39.86 S 83.5 39.75, 85 39.75 S 88.5 39.88, 90 39.87 S 93.5 39.72, 95 39.71 S 98.5 39.78, 100 39.8 S 103.5 39.84, 105 39.84 S 108.5 39.77, 110 39.78 S 113.5 39.9, 115 39.91 S 118.5 39.86, 120 39.84 S 123.5 39.81, 125 39.8 S 128.52 39.99, 130 39.76 S 133.5 38.29, 135 38.26 S 138.52 39.34, 140 39.57 S 143.5 39.75, 145 39.78 S 148.5 39.8, 150 39.75 S 153.5 39.52, 155 39.44 S 158.5 39.19, 160 39.22 S 163.5 39.62, 165 39.67 S 168.5 39.54, 170 39.57 S 173.5 39.83, 175 39.86 S 178.51 39.93, 180 39.8 S 183.5 39.06, 185 39.02 S 188.5 39.45, 190 39.55 S 193.5 39.63, 195 39.66 S 198.5 39.74, 200 39.75 S 203.5 39.74, 205 39.73"
          fill="none"/>
    <circle r="4" cx="5" cy="40" fill="#3023AE"/>
    <circle r="4" cx="205" cy="39.73" fill="#C86DD7"/>      
</svg>