<svg width="200" height="50" viewBox="0 0 210 50" xmlns="http://www.w3.org/2000/svg">
    <defs>
        <linearGradient x1="0%" y1="0%" x2="100%" y2="0%" id="a">
            <stop stop-color="#3023AE" offset="0%"/>
            <stop stop-color="#C86DD7" offset="100%"/>
        </linearGradient>
    </defs>
    <path stroke="url(#a)"
          stroke-width="3"
          stroke-linejoin="round"
          stroke-linecap="round"
          d="M5 40 C 5.76 38.7, 9.08 32.61, 10 31.43 S 13.62 26.55, 15 27.14 S 18.86 34.73, 20 35.71 S 23.5 35.71, 25 35.71 S 28.62 36.3, 30 35.71 S 33.62 32.02, 35 31.43 S 39.08 32.61, 40 31.43 S 43.62 19.16, 45 18.57 S 48.86 26.16, 50 27.14 S 53.86 26.16, 55 27.14 S 59.24 37.01, 60 35.71 S 63.62 10.59, 65 10 S 69.37 30.07, 70 31.43 S 73.62 32.02, 75 31.43 S 78.62 26.55, 80 27.14 S 83.86 34.73, 85 35.71 S 88.5 35.71, 90 35.71 S 93.5 35.71, 95 35.71 S 98.5 35.71, 100 35.71 S 103.5 35.71, 105 35.71 S 108.5 35.71, 110 35.71 S 113.5 35.71, 115 35.71 S 118.5 35.71, 120 35.71 S 123.5 35.71, 125 35.71 S 128.5 35.71, 130 35.71 S 133.5 35.71, 135 35.71 S 138.5 35.71, 140 35.71 S 143.5 35.71, 145 35.71 S 148.62 36.3, 150 35.71 S 153.5 31.43, 155 31.43 S 158.62 35.12, 160 35.71 S 163.5 35.71, 165 35.71 S 168.86 36.69, 170 35.71 S 173.5 27.14, 175 27.14 S 178.86 34.73, 180 35.71 S 183.5 35.71, 185 35.71 S 189.08 36.89, 190 35.71 S 193.86 23.84, 195 22.86 S 198.86 26.16, 200 27.14"
          fill="none"/>
    <circle r="4" cx="5" cy="40" fill="#3023AE"/>
    <circle r="4" cx="200" cy="27.14" fill="#C86DD7"/>      
</svg>