<svg width="200" height="50" viewBox="0 0 210 50" xmlns="http://www.w3.org/2000/svg">
    <defs>
        <linearGradient x1="0%" y1="0%" x2="100%" y2="0%" id="a">
            <stop stop-color="#3023AE" offset="0%"/>
            <stop stop-color="#C86DD7" offset="100%"/>
        </linearGradient>
    </defs>
    <path stroke="url(#a)"
          stroke-width="3"
          stroke-linejoin="round"
          stroke-linecap="round"
          d="M5 40 C 5.73 38.69, 8.56 31.43, 10 31 S 13.71 36.23, 15 37 S 18.5 37, 20 37 S 23.5 37, 25 37 S 28.5 37, 30 37 S 33.5 37, 35 37 S 38.5 37, 40 37 S 43.5 37, 45 37 S 48.5 37, 50 37 S 53.5 37, 55 37 S 58.5 37, 60 37 S 63.5 37, 65 37 S 68.56 37.43, 70 37 S 74.04 35.15, 75 34 S 78.5 25, 80 25 S 84.17 35.25, 85 34 S 88.71 10.77, 90 10 S 94.42 26.62, 95 28 S 98.89 33, 100 34 S 103.56 36.57, 105 37 S 108.5 37, 110 37 S 113.56 37.43, 115 37 S 118.56 34.43, 120 34 S 123.56 33.57, 125 34 S 128.56 36.57, 130 37 S 133.56 37.43, 135 37 S 138.89 35, 140 34 S 143.56 28.43, 145 28 S 148.71 30.23, 150 31 S 153.56 34.43, 155 34 S 158.5 28, 160 28 S 163.71 34.77, 165 34 S 168.56 21.57, 170 22 S 173.5 37, 175 37 S 178.5 22, 180 22 S 183.71 36.23, 185 37 S 188.56 28.43, 190 28 S 193.71 34.77, 195 34 S 199.42 23.38, 200 22 S 204.42 11.38, 205 10"
          fill="none"/>
    <circle r="4" cx="5" cy="40" fill="#3023AE"/>
    <circle r="4" cx="205" cy="10" fill="#C86DD7"/>      
</svg>