<svg width="200" height="50" viewBox="0 0 210 50" xmlns="http://www.w3.org/2000/svg">
    <defs>
        <linearGradient x1="0%" y1="0%" x2="100%" y2="0%" id="a">
            <stop stop-color="#3023AE" offset="0%"/>
            <stop stop-color="#C86DD7" offset="100%"/>
        </linearGradient>
    </defs>
    <path stroke="url(#a)"
          stroke-width="3"
          stroke-linejoin="round"
          stroke-linecap="round"
          d="M5 40 C 5.79 38.72, 8.87 32.86, 10 31.87 S 13.51 31.44, 15 31.25 S 18.69 31.36, 20 30.62 S 23.63 26.22, 25 25.62 S 28.6 26.78, 30 26.25 S 33.66 21.2, 35 21.87 S 38.6 31.78, 40 31.25 S 43.57 18.57, 45 18.12 S 48.57 27.67, 50 28.12 S 54.28 22.56, 55 21.25 S 58.6 9.47, 60 10 S 64.03 23.85, 65 25 S 68.6 22.4, 70 21.87 S 73.87 22.24, 75 21.25 S 78.87 14.11, 80 13.12 S 83.69 11.76, 85 12.5 S 89 17.63, 90 18.75 S 93.5 23.66, 95 23.75 S 98.87 20.36, 100 19.37 S 103.5 15.09, 105 15 S 108.91 17.72, 110 18.75 S 113.5 24.37, 115 24.37 S 118.54 18.39, 120 18.75 S 123.57 26.42, 125 26.87 S 128.51 21.68, 130 21.87 S 133.76 27.27, 135 28.12 S 138.51 28.94, 140 28.75 S 143.53 26.59, 145 26.87 S 148.5 30.71, 150 30.62 S 153.5 26.16, 155 26.25 S 158.5 31.34, 160 31.25 S 163.57 26.07, 165 25.62 S 168.73 27.33, 170 28.12 S 173.53 31.59, 175 31.87 S 178.54 30.36, 180 30 S 183.54 29.01, 185 29.37 S 188.6 31.97, 190 32.5 S 193.5 33.12, 195 33.12 S 198.54 32.14, 200 32.5 S 203.73 34.83, 205 35.62"
          fill="none"/>
    <circle r="4" cx="5" cy="40" fill="#3023AE"/>
    <circle r="4" cx="205" cy="35.62" fill="#C86DD7"/>      
</svg>