<svg width="200" height="50" viewBox="0 0 210 50" xmlns="http://www.w3.org/2000/svg">
    <defs>
        <linearGradient x1="0%" y1="0%" x2="100%" y2="0%" id="a">
            <stop stop-color="#3023AE" offset="0%"/>
            <stop stop-color="#C86DD7" offset="100%"/>
        </linearGradient>
    </defs>
    <path stroke="url(#a)"
          stroke-width="3"
          stroke-linejoin="round"
          stroke-linecap="round"
          d="M5 40 C 5.47 38.58, 8.51 25.17, 10 25 S 14.1 37.67, 15 38.87 S 18.5 38.25, 20 38.31 S 23.5 39.14, 25 39.25 S 28.5 39.06, 30 39.06 S 33.5 39.14, 35 39.25 S 38.5 39.73, 40 39.81 S 43.5 39.81, 45 39.81 S 48.5 39.81, 50 39.81 S 53.53 40.11, 55 39.81 S 58.58 38.23, 60 37.75 S 63.53 36.74, 65 36.44 S 68.51 35.5, 70 35.69 S 73.5 37.86, 75 37.75 S 78.54 35.3, 80 34.94 S 83.51 35.14, 85 35.31 S 88.5 36, 90 36.06 S 93.5 35.77, 95 35.69 S 98.54 35.83, 100 35.5 S 103.52 33.69, 105 33.44 S 108.5 33.84, 110 33.81 S 113.53 33.53, 115 33.25 S 118.51 32.08, 120 31.94 S 123.51 32.14, 125 32.31 S 128.5 33.14, 130 33.06 S 133.51 31.92, 135 31.75 S 138.52 32.16, 140 31.94 S 143.58 30.73, 145 30.25 S 148.59 29.06, 150 28.56 S 153.62 27.28, 155 26.69 S 158.79 25.14, 160 24.25 S 163.75 20.19, 165 19.37 S 168.52 17.91, 170 17.69 S 173.54 18.2, 175 17.87 S 178.82 16.37, 180 15.44 S 183.61 9.43, 185 10 S 189.19 18.3, 190 19.56 S 193.51 25.42, 195 25.56 S 198.62 21.09, 200 20.5 S 203.52 21.03, 205 21.25"
          fill="none"/>
    <circle r="4" cx="5" cy="40" fill="#3023AE"/>
    <circle r="4" cx="205" cy="21.25" fill="#C86DD7"/>      
</svg>