<svg width="200" height="50" viewBox="0 0 210 50" xmlns="http://www.w3.org/2000/svg">
    <defs>
        <linearGradient x1="0%" y1="0%" x2="100%" y2="0%" id="a">
            <stop stop-color="#3023AE" offset="0%"/>
            <stop stop-color="#C86DD7" offset="100%"/>
        </linearGradient>
    </defs>
    <path stroke="url(#a)"
          stroke-width="3"
          stroke-linejoin="round"
          stroke-linecap="round"
          d="M5 40 C 6.5 40, 8.5 39.99, 10 39.99 S 13.5 40.01, 15 39.99 S 19.51 41.3, 20 39.88 S 23.52 11.33, 25 11.08 S 29.49 36.79, 30 38.2 S 33.51 38.54, 35 38.71 S 38.51 39.17, 40 39.32 S 43.5 39.63, 45 39.7 S 48.5 39.9, 50 39.82 S 53.53 39.44, 55 39.14 S 58.52 38, 60 37.75 S 63.5 37.46, 65 37.47 S 68.5 37.71, 70 37.82 S 73.5 38.29, 75 38.23 S 78.51 37.58, 80 37.41 S 83.5 37.16, 85 37.07 S 88.5 36.83, 90 36.79 S 93.51 36.96, 95 36.83 S 98.5 35.95, 100 35.92 S 103.5 36.53, 105 36.61 S 108.53 36.76, 110 36.46 S 113.51 34.69, 115 34.55 S 118.52 35.76, 120 35.53 S 123.5 33.14, 125 33.02 S 128.66 35.43, 130 34.75 S 133.7 28.64, 135 27.9 S 138.76 28.2, 140 29.05 S 143.69 34.04, 145 34.77 S 148.5 34.73, 150 34.61 S 153.5 34.08, 155 33.99 S 158.5 33.92, 160 34.01 S 163.72 35.37, 165 34.59 S 168.51 28.05, 170 27.9 S 173.7 32.85, 175 33.6 S 178.51 33.83, 180 33.64 S 183.52 32.56, 185 32.34 S 188.55 32.58, 190 32.19 S 194.38 31.03, 195 29.66 S 198.99 11.11, 200 10 S 204.25 17.42, 205 18.72"
          fill="none"/>
    <circle r="4" cx="5" cy="40" fill="#3023AE"/>
    <circle r="4" cx="205" cy="18.72" fill="#C86DD7"/>      
</svg>