<svg width="200" height="50" viewBox="0 0 210 50" xmlns="http://www.w3.org/2000/svg">
    <defs>
        <linearGradient x1="0%" y1="0%" x2="100%" y2="0%" id="a">
            <stop stop-color="#3023AE" offset="0%"/>
            <stop stop-color="#C86DD7" offset="100%"/>
        </linearGradient>
    </defs>
    <path stroke="url(#a)"
          stroke-width="3"
          stroke-linejoin="round"
          stroke-linecap="round"
          d="M5 40 C 6.5 40, 8.5 39.99, 10 39.99 S 13.5 40.01, 15 39.99 S 19.53 41.29, 20 39.87 S 23.52 10.25, 25 10 S 29.5 36.76, 30 38.18 S 33.51 38.42, 35 38.58 S 38.51 39.11, 40 39.28 S 43.5 39.62, 45 39.7 S 48.5 39.86, 50 39.8 S 53.53 39.59, 55 39.27 S 58.53 37.91, 60 37.63 S 63.5 37.34, 65 37.36 S 68.5 37.66, 70 37.77 S 73.5 38.16, 75 38.12 S 78.51 37.67, 80 37.49 S 83.5 37.01, 85 36.91 S 88.5 36.84, 90 36.83 S 93.51 37, 95 36.83 S 98.5 35.72, 100 35.68 S 103.5 36.52, 105 36.58 S 108.52 36.31, 110 36.07 S 113.51 35.09, 115 34.96 S 118.52 35.48, 120 35.22 S 123.51 33.38, 125 33.21 S 128.5 34.08, 130 34.07 S 134 34.23, 135 33.11 S 138.52 22.63, 140 22.88 S 144.02 33.7, 145 34.83 S 148.51 34.62, 150 34.43 S 153.51 33.73, 155 33.58 S 158.51 33.28, 160 33.45 S 163.71 35.5, 165 34.73 S 168.51 27.57, 170 27.43 S 173.71 33.05, 175 33.82 S 178.53 33.68, 180 33.39 S 183.51 32.03, 185 31.86 S 188.52 32.01, 190 32.23 S 194.35 34.67, 195 33.32 S 199.34 12.81, 200 11.46 S 203.57 12.58, 205 13.03"
          fill="none"/>
    <circle r="4" cx="5" cy="40" fill="#3023AE"/>
    <circle r="4" cx="205" cy="13.030000000000001" fill="#C86DD7"/>      
</svg>