<svg width="200" height="50" viewBox="0 0 210 50" xmlns="http://www.w3.org/2000/svg">
    <defs>
        <linearGradient x1="0%" y1="0%" x2="100%" y2="0%" id="a">
            <stop stop-color="#3023AE" offset="0%"/>
            <stop stop-color="#C86DD7" offset="100%"/>
        </linearGradient>
    </defs>
    <path stroke="url(#a)"
          stroke-width="3"
          stroke-linejoin="round"
          stroke-linecap="round"
          d="M5 40 C 6.5 40, 8.5 39.99, 10 39.99 S 13.5 40.01, 15 39.99 S 19.49 41.29, 20 39.88 S 23.52 12.31, 25 12.07 S 29.47 36.85, 30 38.25 S 33.51 38.61, 35 38.77 S 38.51 39.22, 40 39.35 S 43.5 39.59, 45 39.67 S 48.5 39.95, 50 39.87 S 53.53 39.41, 55 39.11 S 58.52 38.07, 60 37.84 S 63.5 37.53, 65 37.54 S 68.5 37.77, 70 37.88 S 73.5 38.32, 75 38.26 S 78.51 37.61, 80 37.46 S 83.5 37.38, 85 37.28 S 88.5 36.89, 90 36.82 S 93.5 36.91, 95 36.81 S 98.5 36.21, 100 36.18 S 103.5 36.51, 105 36.59 S 108.53 36.98, 110 36.69 S 113.51 34.8, 115 34.64 S 118.51 35.77, 120 35.59 S 123.51 33.55, 125 33.41 S 128.93 35.73, 130 34.68 S 133.5 23.72, 135 23.65 S 139 33.12, 140 34.24 S 143.5 34.75, 145 34.82 S 148.5 34.85, 150 34.74 S 153.5 34.17, 155 34.11 S 158.5 34.22, 160 34.32 S 163.73 35.59, 165 34.8 S 168.51 28.26, 170 28.11 S 173.69 33.05, 175 33.78 S 178.51 33.86, 180 33.72 S 183.51 33.02, 185 32.84 S 188.63 33.13, 190 32.52 S 194.39 29.79, 195 28.42 S 198.79 10.89, 200 10 S 204.38 19.74, 205 21.11"
          fill="none"/>
    <circle r="4" cx="5" cy="40" fill="#3023AE"/>
    <circle r="4" cx="205" cy="21.11" fill="#C86DD7"/>      
</svg>