<svg width="200" height="50" viewBox="0 0 210 50" xmlns="http://www.w3.org/2000/svg">
    <defs>
        <linearGradient x1="0%" y1="0%" x2="100%" y2="0%" id="a">
            <stop stop-color="#3023AE" offset="0%"/>
            <stop stop-color="#C86DD7" offset="100%"/>
        </linearGradient>
    </defs>
    <path stroke="url(#a)"
          stroke-width="3"
          stroke-linejoin="round"
          stroke-linecap="round"
          d="M5 40 C 6.5 40, 8.5 39.99, 10 39.99 S 13.5 40.01, 15 39.99 S 19.5 41.29, 20 39.88 S 23.52 12.24, 25 11.97 S 29.48 36.63, 30 38.04 S 33.51 38.84, 35 39.03 S 38.5 39.22, 40 39.32 S 43.5 39.64, 45 39.72 S 48.52 40.12, 50 39.88 S 53.52 38.35, 55 38.12 S 58.5 38.43, 60 38.32 S 63.5 37.48, 65 37.41 S 68.5 37.81, 70 37.87 S 73.51 37.97, 75 37.84 S 78.5 37.06, 80 36.98 S 83.5 37.35, 85 37.32 S 88.52 36.98, 90 36.75 S 93.5 35.79, 95 35.79 S 98.5 36.63, 100 36.73 S 103.52 36.71, 105 36.49 S 108.51 35.41, 110 35.24 S 113.52 35.63, 115 35.37 S 118.51 33.62, 120 33.46 S 123.5 34.39, 125 34.33 S 128.94 34.11, 130 33.05 S 133.52 24.14, 135 24.4 S 138.95 33.73, 140 34.8 S 143.51 34.74, 145 34.6 S 148.5 33.97, 150 33.88 S 153.5 33.91, 155 34.03 S 158.72 35.45, 160 34.68 S 163.51 28.15, 165 28 S 168.65 33.02, 170 33.67 S 173.5 32.91, 175 32.83 S 178.5 33.12, 180 33.12 S 183.94 33.89, 185 32.83 S 189.4 24.53, 190 23.16 S 193.5 9.88, 195 10 S 199.23 22.66, 200 23.95 S 203.7 26.09, 205 26.84"
          fill="none"/>
    <circle r="4" cx="5" cy="40" fill="#3023AE"/>
    <circle r="4" cx="205" cy="26.84" fill="#C86DD7"/>      
</svg>