<svg width="200" height="50" viewBox="0 0 210 50" xmlns="http://www.w3.org/2000/svg">
    <defs>
        <linearGradient x1="0%" y1="0%" x2="100%" y2="0%" id="a">
            <stop stop-color="#3023AE" offset="0%"/>
            <stop stop-color="#C86DD7" offset="100%"/>
        </linearGradient>
    </defs>
    <path stroke="url(#a)"
          stroke-width="3"
          stroke-linejoin="round"
          stroke-linecap="round"
          d="M5 40 C 6.5 40, 8.5 39.99, 10 39.99 S 13.5 40.01, 15 39.99 S 19.51 41.3, 20 39.88 S 23.51 11.45, 25 11.26 S 29.5 37.19, 30 38.6 S 33.51 39.1, 35 39.27 S 38.5 39.76, 40 39.77 S 43.54 39.7, 45 39.36 S 48.53 37.73, 50 37.42 S 53.5 37.19, 55 37.22 S 58.5 37.59, 60 37.6 S 63.51 37.47, 65 37.3 S 68.51 36.58, 70 36.44 S 73.51 36.53, 75 36.38 S 78.5 35.46, 80 35.46 S 83.5 36.34, 85 36.35 S 88.53 35.81, 90 35.51 S 93.53 34.59, 95 34.29 S 98.51 33.61, 100 33.44 S 103.98 34.27, 105 33.17 S 108.5 22.6, 110 22.65 S 113.99 32.42, 115 33.53 S 118.5 33.78, 120 33.73 S 123.5 33.27, 125 33.21 S 128.5 33.22, 130 33.34 S 133.74 34.8, 135 33.99 S 138.5 27.02, 140 26.9 S 143.63 32.59, 145 33.2 S 148.52 31.59, 150 31.37 S 154.07 32.89, 155 31.72 S 159.37 20.17, 160 18.81 S 163.67 9.3, 165 10 S 169.17 22.8, 170 24.05 S 173.55 25.35, 175 24.97 S 178.53 21.77, 180 21.45 S 183.5 22.7, 185 22.81 S 188.55 21.83, 190 22.2 S 193.54 25.03, 195 25.39 S 198.51 24.56, 200 24.69 S 203.57 25.81, 205 26.26"
          fill="none"/>
    <circle r="4" cx="5" cy="40" fill="#3023AE"/>
    <circle r="4" cx="205" cy="26.259999999999998" fill="#C86DD7"/>      
</svg>