<svg width="200" height="50" viewBox="0 0 210 50" xmlns="http://www.w3.org/2000/svg">
    <defs>
        <linearGradient x1="0%" y1="0%" x2="100%" y2="0%" id="a">
            <stop stop-color="#3023AE" offset="0%"/>
            <stop stop-color="#C86DD7" offset="100%"/>
        </linearGradient>
    </defs>
    <path stroke="url(#a)"
          stroke-width="3"
          stroke-linejoin="round"
          stroke-linecap="round"
          d="M5 40 C 6.5 40, 8.5 39.99, 10 39.99 S 13.5 40.01, 15 39.99 S 19.53 41.29, 20 39.87 S 23.52 10.25, 25 10 S 29.5 36.76, 30 38.18 S 33.51 38.42, 35 38.58 S 38.51 39.11, 40 39.28 S 43.5 39.62, 45 39.7 S 48.5 39.87, 50 39.81 S 53.53 39.59, 55 39.27 S 58.53 37.9, 60 37.62 S 63.5 37.34, 65 37.37 S 68.5 37.69, 70 37.8 S 73.5 38.13, 75 38.08 S 78.51 37.66, 80 37.49 S 83.5 37.03, 85 36.93 S 88.5 36.82, 90 36.81 S 93.51 37.02, 95 36.85 S 98.5 35.72, 100 35.68 S 103.5 36.5, 105 36.57 S 108.52 36.38, 110 36.14 S 113.51 35.07, 115 34.93 S 118.52 35.45, 120 35.2 S 123.51 33.38, 125 33.22 S 128.5 34.11, 130 34.1 S 134.01 34.24, 135 33.12 S 138.52 22.54, 140 22.8 S 144.02 33.77, 145 34.9 S 148.51 34.51, 150 34.33 S 153.5 33.79, 155 33.67 S 158.51 33.36, 160 33.52 S 163.72 35.56, 165 34.77 S 168.51 27.47, 170 27.33 S 173.72 33.02, 175 33.8 S 178.53 33.7, 180 33.42 S 183.51 32.06, 185 31.9 S 188.51 32.19, 190 32.36 S 194.34 34.41, 195 33.06 S 199.34 13.35, 200 12 S 203.52 12.52, 205 12.74"
          fill="none"/>
    <circle r="4" cx="5" cy="40" fill="#3023AE"/>
    <circle r="4" cx="205" cy="12.739999999999998" fill="#C86DD7"/>      
</svg>