<svg width="200" height="50" viewBox="0 0 210 50" xmlns="http://www.w3.org/2000/svg">
    <defs>
        <linearGradient x1="0%" y1="0%" x2="100%" y2="0%" id="a">
            <stop stop-color="#3023AE" offset="0%"/>
            <stop stop-color="#C86DD7" offset="100%"/>
        </linearGradient>
    </defs>
    <path stroke="url(#a)"
          stroke-width="3"
          stroke-linejoin="round"
          stroke-linecap="round"
          d="M5 40 C 6.5 40, 8.5 39.99, 10 39.99 S 13.5 40.01, 15 39.99 S 19.53 41.29, 20 39.87 S 23.52 10.25, 25 10 S 29.51 36.73, 30 38.15 S 33.51 38.54, 35 38.71 S 38.51 39.14, 40 39.28 S 43.5 39.58, 45 39.66 S 48.51 39.97, 50 39.84 S 53.53 39.14, 55 38.82 S 58.52 37.92, 60 37.69 S 63.5 37.25, 65 37.26 S 68.5 37.68, 70 37.78 S 73.5 38.01, 75 37.91 S 78.51 37.21, 80 37.08 S 83.5 37.09, 85 37.03 S 88.5 36.77, 90 36.66 S 93.5 36.39, 95 36.29 S 98.5 35.91, 100 35.96 S 103.5 36.73, 105 36.62 S 108.52 35.44, 110 35.23 S 113.51 35.33, 115 35.18 S 118.52 34.43, 120 34.21 S 123.5 33.81, 125 33.71 S 129.03 34.69, 130 33.54 S 133.51 21.64, 135 21.84 S 139.06 33.71, 140 34.88 S 143.5 34.49, 145 34.37 S 148.51 34.28, 150 34.11 S 153.5 33.26, 155 33.26 S 158.68 34.82, 160 34.11 S 163.5 27.99, 165 27.9 S 168.69 32.82, 170 33.54 S 173.51 33.61, 175 33.41 S 178.51 32.31, 180 32.17 S 183.5 32.39, 185 32.5 S 189.18 34.15, 190 32.89 S 194.39 18.47, 195 17.1 S 198.76 9.68, 200 10.53 S 204.48 22.55, 205 23.96"
          fill="none"/>
    <circle r="4" cx="5" cy="40" fill="#3023AE"/>
    <circle r="4" cx="205" cy="23.96" fill="#C86DD7"/>      
</svg>