<svg width="200" height="50" viewBox="0 0 210 50" xmlns="http://www.w3.org/2000/svg">
    <defs>
        <linearGradient x1="0%" y1="0%" x2="100%" y2="0%" id="a">
            <stop stop-color="#3023AE" offset="0%"/>
            <stop stop-color="#C86DD7" offset="100%"/>
        </linearGradient>
    </defs>
    <path stroke="url(#a)"
          stroke-width="3"
          stroke-linejoin="round"
          stroke-linecap="round"
          d="M5 40 C 6.5 40, 8.5 39.99, 10 39.99 S 13.5 40.01, 15 39.99 S 19.49 41.29, 20 39.88 S 23.52 12.43, 25 12.16 S 29.48 36.66, 30 38.07 S 33.51 38.81, 35 39 S 38.5 39.22, 40 39.32 S 43.5 39.6, 45 39.69 S 48.51 40.08, 50 39.89 S 53.52 38.7, 55 38.44 S 58.51 38.3, 60 38.15 S 63.5 37.47, 65 37.43 S 68.5 37.83, 70 37.91 S 73.51 38.11, 75 37.97 S 78.5 37.06, 80 36.97 S 83.5 37.38, 85 37.35 S 88.51 36.99, 90 36.8 S 93.5 36.08, 95 36.04 S 98.5 36.46, 100 36.55 S 103.51 36.78, 105 36.64 S 108.51 35.78, 110 35.58 S 113.52 35.54, 115 35.28 S 118.51 33.97, 120 33.84 S 123.5 34.47, 125 34.39 S 128.97 34.4, 130 33.31 S 133.53 23.49, 135 23.79 S 138.98 34.25, 140 35.35 S 143.51 34.73, 145 34.54 S 148.5 34.13, 150 34.04 S 153.5 33.83, 155 33.94 S 158.69 35.51, 160 34.78 S 163.51 28.49, 165 28.35 S 168.68 33.16, 170 33.87 S 173.51 33.89, 175 33.68 S 178.51 32.65, 180 32.47 S 183.61 33.02, 185 32.47 S 189.39 29.88, 190 28.51 S 193.79 10.89, 195 10 S 199.22 19.9, 200 21.18 S 203.97 25.36, 205 26.45"
          fill="none"/>
    <circle r="4" cx="5" cy="40" fill="#3023AE"/>
    <circle r="4" cx="205" cy="26.45" fill="#C86DD7"/>      
</svg>