<svg width="200" height="50" viewBox="0 0 210 50" xmlns="http://www.w3.org/2000/svg">
    <defs>
        <linearGradient x1="0%" y1="0%" x2="100%" y2="0%" id="a">
            <stop stop-color="#3023AE" offset="0%"/>
            <stop stop-color="#C86DD7" offset="100%"/>
        </linearGradient>
    </defs>
    <path stroke="url(#a)"
          stroke-width="3"
          stroke-linejoin="round"
          stroke-linecap="round"
          d="M5 40 C 6.5 40, 8.5 39.99, 10 39.99 S 13.5 40.01, 15 39.99 S 19.51 41.3, 20 39.88 S 23.52 11.14, 25 10.87 S 29.5 36.64, 30 38.05 S 33.51 38.74, 35 38.95 S 38.5 39.34, 40 39.46 S 43.5 39.7, 45 39.76 S 48.54 40.21, 50 39.88 S 53.54 37.87, 55 37.53 S 58.5 37.55, 60 37.56 S 63.5 37.53, 65 37.6 S 68.5 38.06, 70 38.03 S 73.51 37.58, 75 37.42 S 78.51 37.1, 80 36.97 S 83.5 36.62, 85 36.54 S 88.51 36.55, 90 36.42 S 93.5 35.67, 95 35.7 S 98.5 36.69, 100 36.62 S 103.52 35.45, 105 35.22 S 108.51 35.24, 110 35.05 S 113.51 34.13, 115 33.92 S 118.5 33.72, 120 33.63 S 123.99 34.42, 125 33.31 S 128.52 22.37, 130 22.64 S 134.02 33.99, 135 35.12 S 138.52 34.4, 140 34.17 S 143.5 33.61, 145 33.56 S 148.5 33.72, 150 33.81 S 153.73 34.97, 155 34.17 S 158.51 27.66, 160 27.53 S 163.66 32.61, 165 33.28 S 168.5 32.64, 170 32.53 S 173.5 32.53, 175 32.56 S 179.07 33.89, 180 32.71 S 184.4 21.28, 185 19.91 S 188.62 9.41, 190 10 S 194.19 22.92, 195 24.19 S 198.5 25.72, 200 25.71 S 203.57 24.57, 205 24.11"
          fill="none"/>
    <circle r="4" cx="5" cy="40" fill="#3023AE"/>
    <circle r="4" cx="205" cy="24.11" fill="#C86DD7"/>      
</svg>