<svg width="200" height="50" viewBox="0 0 210 50" xmlns="http://www.w3.org/2000/svg">
    <defs>
        <linearGradient x1="0%" y1="0%" x2="100%" y2="0%" id="a">
            <stop stop-color="#3023AE" offset="0%"/>
            <stop stop-color="#C86DD7" offset="100%"/>
        </linearGradient>
    </defs>
    <path stroke="url(#a)"
          stroke-width="3"
          stroke-linejoin="round"
          stroke-linecap="round"
          d="M5 40 C 6.5 40, 8.5 39.99, 10 39.99 S 13.5 40, 15 39.99 S 19.47 41.29, 20 39.89 S 23.51 13.84, 25 13.66 S 29.45 37.28, 30 38.68 S 33.51 39.13, 35 39.3 S 38.5 39.76, 40 39.79 S 43.53 39.82, 45 39.5 S 48.53 37.94, 50 37.64 S 53.5 37.4, 55 37.43 S 58.5 37.81, 60 37.82 S 63.5 37.61, 65 37.5 S 68.51 37.2, 70 37.06 S 73.51 36.69, 75 36.53 S 78.5 36, 80 35.99 S 83.5 36.42, 85 36.46 S 88.53 36.59, 90 36.29 S 93.53 34.76, 95 34.45 S 98.5 34.25, 100 34.18 S 103.52 34.19, 105 33.98 S 108.87 33.72, 110 32.74 S 113.52 25.08, 115 25.31 S 118.87 33.32, 120 34.3 S 123.5 34.1, 125 33.98 S 128.5 33.4, 130 33.49 S 133.67 35.25, 135 34.57 S 138.51 28.52, 140 28.36 S 143.6 32.95, 145 33.49 S 148.51 32.4, 150 32.23 S 153.75 33.21, 155 32.38 S 159.39 26.98, 160 25.61 S 163.52 10.24, 165 10 S 169.24 22.69, 170 23.98 S 173.5 27.07, 175 26.97 S 178.55 23.74, 180 23.34 S 183.5 24.21, 185 24.23 S 188.52 23.19, 190 23.46 S 193.54 25.68, 195 26.03 S 198.51 25.65, 200 25.83 S 203.55 26.81, 205 27.21"
          fill="none"/>
    <circle r="4" cx="5" cy="40" fill="#3023AE"/>
    <circle r="4" cx="205" cy="27.21" fill="#C86DD7"/>      
</svg>