<svg width="200" height="50" viewBox="0 0 210 50" xmlns="http://www.w3.org/2000/svg">
    <defs>
        <linearGradient x1="0%" y1="0%" x2="100%" y2="0%" id="a">
            <stop stop-color="#3023AE" offset="0%"/>
            <stop stop-color="#C86DD7" offset="100%"/>
        </linearGradient>
    </defs>
    <path stroke="url(#a)"
          stroke-width="3"
          stroke-linejoin="round"
          stroke-linecap="round"
          d="M5 40 C 6.5 40, 8.5 39.99, 10 39.99 S 13.5 40.01, 15 39.99 S 19.49 41.29, 20 39.88 S 23.52 12.44, 25 12.21 S 29.47 36.91, 30 38.31 S 33.51 38.54, 35 38.7 S 38.51 39.2, 40 39.35 S 43.5 39.65, 45 39.72 S 48.5 39.88, 50 39.81 S 53.53 39.57, 55 39.28 S 58.52 38.08, 60 37.82 S 63.5 37.48, 65 37.5 S 68.5 37.82, 70 37.94 S 73.5 38.32, 75 38.27 S 78.51 37.78, 80 37.61 S 83.5 37.22, 85 37.14 S 88.5 37.11, 90 37.08 S 93.51 37.08, 95 36.94 S 98.5 36.13, 100 36.11 S 103.5 36.78, 105 36.82 S 108.52 36.63, 110 36.37 S 113.5 35.13, 115 35.03 S 118.52 35.93, 120 35.69 S 123.51 33.54, 125 33.41 S 128.5 34.86, 130 34.83 S 133.95 34.26, 135 33.19 S 138.52 24.33, 140 24.58 S 143.96 33.83, 145 34.91 S 148.5 34.98, 150 34.88 S 153.5 34.34, 155 34.24 S 158.5 34.14, 160 34.23 S 163.71 35.62, 165 34.86 S 168.51 28.51, 170 28.38 S 173.69 33.3, 175 34.02 S 178.51 34.08, 180 33.87 S 183.51 32.79, 185 32.61 S 188.51 32.48, 190 32.68 S 194.39 35.3, 195 33.93 S 199.22 11.28, 200 10 S 204.16 16.21, 205 17.46"
          fill="none"/>
    <circle r="4" cx="5" cy="40" fill="#3023AE"/>
    <circle r="4" cx="205" cy="17.46" fill="#C86DD7"/>      
</svg>