<svg width="200" height="50" viewBox="0 0 210 50" xmlns="http://www.w3.org/2000/svg">
    <defs>
        <linearGradient x1="0%" y1="0%" x2="100%" y2="0%" id="a">
            <stop stop-color="#3023AE" offset="0%"/>
            <stop stop-color="#C86DD7" offset="100%"/>
        </linearGradient>
    </defs>
    <path stroke="url(#a)"
          stroke-width="3"
          stroke-linejoin="round"
          stroke-linecap="round"
          d="M5 40 C 6.46 39.64, 8.5 38.79, 10 38.75 S 13.51 39.6, 15 39.75 S 18.51 39.94, 20 39.75 S 23.5 38.5, 25 38.5 S 28.5 39.64, 30 39.75 S 33.5 39.25, 35 39.25 S 38.5 39.68, 40 39.75 S 43.5 39.75, 45 39.75 S 48.5 39.75, 50 39.75 S 53.5 39.75, 55 39.75 S 59.52 41.17, 60 39.75 S 63.54 10.36, 65 10 S 69.48 35.84, 70 37.25 S 73.51 36.81, 75 37 S 78.52 38.72, 80 38.5 S 83.52 35.72, 85 35.5 S 88.54 36.64, 90 37 S 93.5 37.93, 95 38 S 98.51 37.69, 100 37.5 S 103.53 36.46, 105 36.75 S 108.5 39.57, 110 39.5 S 113.55 36.65, 115 36.25 S 118.51 36.56, 120 36.75 S 123.51 37.31, 125 37.5 S 128.51 38.15, 130 38 S 133.51 36.65, 135 36.5 S 138.5 37.04, 140 37 S 143.5 36.21, 145 36.25 S 148.51 37.06, 150 37.25 S 153.5 37.43, 155 37.5 S 158.51 37.9, 160 37.75 S 163.89 37.5, 165 36.5 S 168.5 28.82, 170 28.75 S 173.71 35.23, 175 36 S 178.53 34.46, 180 34.75 S 183.61 38.56, 185 38 S 188.53 31.04, 190 30.75 S 193.73 35.21, 195 36 S 198.51 37.19, 200 37 S 203.63 35.37, 205 34.75"
          fill="none"/>
    <circle r="4" cx="5" cy="40" fill="#3023AE"/>
    <circle r="4" cx="205" cy="34.75" fill="#C86DD7"/>      
</svg>