<svg width="200" height="50" viewBox="0 0 210 50" xmlns="http://www.w3.org/2000/svg">
    <defs>
        <linearGradient x1="0%" y1="0%" x2="100%" y2="0%" id="a">
            <stop stop-color="#3023AE" offset="0%"/>
            <stop stop-color="#C86DD7" offset="100%"/>
        </linearGradient>
    </defs>
    <path stroke="url(#a)"
          stroke-width="3"
          stroke-linejoin="round"
          stroke-linecap="round"
          d="M5 40 C 6.42 39.52, 8.5 38.41, 10 38.33 S 13.51 39.27, 15 39.44 S 18.5 39.44, 20 39.44 S 23.5 39.44, 25 39.44 S 28.5 39.44, 30 39.44 S 33.5 39.44, 35 39.44 S 38.5 39.44, 40 39.44 S 43.5 39.44, 45 39.44 S 48.5 39.44, 50 39.44 S 53.5 39.44, 55 39.44 S 58.5 39.44, 60 39.44 S 63.5 39.44, 65 39.44 S 68.5 39.44, 70 39.44 S 73.5 39.44, 75 39.44 S 78.5 39.44, 80 39.44 S 83.5 39.44, 85 39.44 S 88.5 39.44, 90 39.44 S 93.5 39.44, 95 39.44 S 98.5 39.44, 100 39.44 S 103.5 39.44, 105 39.44 S 108.5 39.44, 110 39.44 S 113.5 39.44, 115 39.44 S 118.5 39.44, 120 39.44 S 123.5 39.44, 125 39.44 S 128.5 39.44, 130 39.44 S 133.5 39.44, 135 39.44 S 138.5 39.44, 140 39.44 S 143.5 39.44, 145 39.44 S 148.5 39.44, 150 39.44 S 153.5 39.44, 155 39.44 S 158.5 39.44, 160 39.44 S 163.5 39.44, 165 39.44 S 168.5 39.44, 170 39.44 S 174.52 40.86, 175 39.44 S 178.54 10.33, 180 10 S 184.44 35.83, 185 37.22 S 188.5 34.92, 190 35 S 193.6 37.24, 195 37.78 S 198.51 38.72, 200 38.89 S 203.5 38.89, 205 38.89"
          fill="none"/>
    <circle r="4" cx="5" cy="40" fill="#3023AE"/>
    <circle r="4" cx="205" cy="38.89" fill="#C86DD7"/>      
</svg>