<svg width="200" height="50" viewBox="0 0 210 50" xmlns="http://www.w3.org/2000/svg">
    <defs>
        <linearGradient x1="0%" y1="0%" x2="100%" y2="0%" id="a">
            <stop stop-color="#3023AE" offset="0%"/>
            <stop stop-color="#C86DD7" offset="100%"/>
        </linearGradient>
    </defs>
    <path stroke="url(#a)"
          stroke-width="3"
          stroke-linejoin="round"
          stroke-linecap="round"
          d="M5 40 C 6.2 39.1, 8.6 36.78, 10 36.25 S 13.5 36.25, 15 36.25 S 18.5 36.25, 20 36.25 S 23.5 36.25, 25 36.25 S 28.5 36.25, 30 36.25 S 33.5 36.25, 35 36.25 S 38.5 36.25, 40 36.25 S 43.5 36.25, 45 36.25 S 48.8 37.15, 50 36.25 S 53.6 29.28, 55 28.75 S 58.6 31.97, 60 32.5 S 63.6 31.97, 65 32.5 S 68.6 35.72, 70 36.25 S 74.17 37.5, 75 36.25 S 79.47 22.65, 80 21.25 S 84 8.88, 85 10 S 89.47 31.1, 90 32.5 S 93.6 35.72, 95 36.25 S 98.5 36.25, 100 36.25 S 103.5 36.25, 105 36.25 S 108.5 36.25, 110 36.25 S 113.5 36.25, 115 36.25 S 118.5 36.25, 120 36.25 S 123.5 36.25, 125 36.25 S 128.5 36.25, 130 36.25 S 133.6 36.78, 135 36.25 S 138.6 33.03, 140 32.5 S 143.6 31.97, 145 32.5 S 148.6 35.72, 150 36.25 S 153.5 36.25, 155 36.25 S 158.5 36.25, 160 36.25 S 163.5 36.25, 165 36.25 S 168.5 36.25, 170 36.25 S 173.5 36.25, 175 36.25 S 178.5 36.25, 180 36.25 S 183.5 36.25, 185 36.25 S 188.5 36.25, 190 36.25 S 193.5 36.25, 195 36.25 S 199.47 37.65, 200 36.25 S 204.72 11.47, 205 10"
          fill="none"/>
    <circle r="4" cx="5" cy="40" fill="#3023AE"/>
    <circle r="4" cx="205" cy="10" fill="#C86DD7"/>      
</svg>