<svg width="200" height="50" viewBox="0 0 210 50" xmlns="http://www.w3.org/2000/svg">
    <defs>
        <linearGradient x1="0%" y1="0%" x2="100%" y2="0%" id="a">
            <stop stop-color="#3023AE" offset="0%"/>
            <stop stop-color="#C86DD7" offset="100%"/>
        </linearGradient>
    </defs>
    <path stroke="url(#a)"
          stroke-width="3"
          stroke-linejoin="round"
          stroke-linecap="round"
          d="M5 40 C 6.4 39.46, 8.51 38.2, 10 38.06 S 13.51 38.89, 15 39.03 S 18.5 39.03, 20 39.03 S 23.5 39.03, 25 39.03 S 28.5 39.03, 30 39.03 S 33.5 39.03, 35 39.03 S 38.5 39.03, 40 39.03 S 43.5 39.03, 45 39.03 S 48.5 39.03, 50 39.03 S 53.5 39.03, 55 39.03 S 58.5 39.03, 60 39.03 S 63.5 39.03, 65 39.03 S 68.5 39.03, 70 39.03 S 73.5 39.03, 75 39.03 S 78.5 39.03, 80 39.03 S 83.5 39.03, 85 39.03 S 88.5 39.03, 90 39.03 S 93.5 39.03, 95 39.03 S 99.51 40.45, 100 39.03 S 103.53 10.28, 105 10 S 109.36 35.74, 110 37.1 S 113.56 31.71, 115 31.29 S 118.7 33.44, 120 34.19 S 123.56 36.68, 125 37.1 S 128.51 36.96, 130 37.1 S 133.53 38.35, 135 38.06 S 138.53 35.44, 140 35.16 S 143.53 35.84, 145 36.13 S 148.51 36.96, 150 37.1 S 153.53 36.82, 155 37.1 S 158.65 39.68, 160 39.03 S 163.53 32.54, 165 32.26 S 168.76 37.94, 170 37.1 S 173.53 25.77, 175 25.48 S 178.6 34.62, 180 35.16 S 184.43 30.74, 185 29.35 S 188.56 10.55, 190 10.97 S 194.25 30.96, 195 32.26 S 198.6 28.93, 200 28.39 S 203.5 28.39, 205 28.39"
          fill="none"/>
    <circle r="4" cx="5" cy="40" fill="#3023AE"/>
    <circle r="4" cx="205" cy="28.39" fill="#C86DD7"/>      
</svg>