<svg width="200" height="50" viewBox="0 0 210 50" xmlns="http://www.w3.org/2000/svg">
    <defs>
        <linearGradient x1="0%" y1="0%" x2="100%" y2="0%" id="a">
            <stop stop-color="#3023AE" offset="0%"/>
            <stop stop-color="#C86DD7" offset="100%"/>
        </linearGradient>
    </defs>
    <path stroke="url(#a)"
          stroke-width="3"
          stroke-linejoin="round"
          stroke-linecap="round"
          d="M5 40 C 6.21 39.12, 8.54 36.71, 10 36.35 S 13.55 37.19, 15 37.56 S 18.51 38.77, 20 38.93 S 23.51 38.81, 25 38.63 S 28.5 37.74, 30 37.72 S 33.5 38.57, 35 38.48 S 38.5 37, 40 37.11 S 43.51 39.08, 45 39.24 S 48.56 38.59, 50 38.17 S 53.94 37.41, 55 36.35 S 58.53 28.41, 60 28.12 S 63.74 33.56, 65 34.37 S 68.5 34.45, 70 34.52 S 73.55 35.2, 75 34.82 S 78.95 33, 80 31.93 S 83.52 24.85, 85 24.62 S 88.5 30.3, 90 30.41 S 93.79 26.27, 95 25.38 S 98.52 22.85, 100 23.1 S 103.62 27.65, 105 27.06 S 108.55 19.21, 110 18.83 S 113.75 23.64, 115 24.47 S 118.51 25.39, 120 25.53 S 123.53 25.67, 125 25.38 S 128.8 24.45, 130 23.55 S 133.64 18.54, 135 17.92 S 138.68 18.26, 140 18.98 S 143.63 22.79, 145 23.4 S 148.61 22.85, 150 23.4 S 154.01 28.49, 155 27.36 S 159 13.1, 160 11.98 S 163.67 15.4, 165 16.09 S 168.76 16.31, 170 17.16 S 173.67 22.25, 175 22.94 S 179.08 23.53, 180 22.34 S 183.62 10.59, 185 10 S 189.01 16.94, 190 18.07 S 193.75 20.6, 195 21.42 S 198.62 25.21, 200 24.62 S 204.16 18.41, 205 17.16"
          fill="none"/>
    <circle r="4" cx="5" cy="40" fill="#3023AE"/>
    <circle r="4" cx="205" cy="17.16" fill="#C86DD7"/>      
</svg>