<svg width="200" height="50" viewBox="0 0 210 50" xmlns="http://www.w3.org/2000/svg">
    <defs>
        <linearGradient x1="0%" y1="0%" x2="100%" y2="0%" id="a">
            <stop stop-color="#3023AE" offset="0%"/>
            <stop stop-color="#C86DD7" offset="100%"/>
        </linearGradient>
    </defs>
    <path stroke="url(#a)"
          stroke-width="3"
          stroke-linejoin="round"
          stroke-linecap="round"
          d="M5 40 C 5.47 38.58, 9.38 26.36, 10 25 S 13.92 17.14, 15 18.18 S 19.05 33.39, 20 34.55 S 23.84 31.4, 25 30.45 S 29.11 27.57, 30 26.36 S 33.99 17.93, 35 16.82 S 38.76 14.6, 40 15.45 S 43.5 23.64, 45 23.64 S 48.84 16.4, 50 15.45 S 53.68 16.17, 55 15.45 S 58.61 10.57, 60 10 S 64.05 10.2, 65 11.36 S 68.68 21.55, 70 22.27 S 73.68 16.1, 75 16.82 S 78.55 28.13, 80 27.73 S 83.76 14.94, 85 14.09 S 88.76 20.06, 90 20.91 S 93.92 21.95, 95 20.91 S 98.61 10.79, 100 11.36 S 103.61 24.43, 105 25 S 108.51 15.25, 110 15.45 S 113.61 26.93, 115 26.36 S 118.68 12.08, 120 11.36 S 123.99 19.8, 125 20.91 S 128.84 23.22, 130 22.27 S 133.99 13.84, 135 12.73 S 138.51 11.16, 140 11.36 S 144.17 12.84, 145 14.09 S 148.51 26.56, 150 26.36 S 153.99 13.84, 155 12.73 S 158.91 14.41, 160 15.45 S 163.61 21.7, 165 22.27 S 169.05 20.71, 170 19.55 S 173.84 10.95, 175 10 S 179.05 10.2, 180 11.36 S 183.92 21.23, 185 22.27 S 189.05 22.07, 190 20.91 S 193.51 9.8, 195 10 S 199.11 21.06, 200 22.27 S 203.55 23.24, 205 23.64"
          fill="none"/>
    <circle r="4" cx="5" cy="40" fill="#3023AE"/>
    <circle r="4" cx="205" cy="23.64" fill="#C86DD7"/>      
</svg>