<svg width="200" height="50" viewBox="0 0 210 50" xmlns="http://www.w3.org/2000/svg">
    <defs>
        <linearGradient x1="0%" y1="0%" x2="100%" y2="0%" id="a">
            <stop stop-color="#3023AE" offset="0%"/>
            <stop stop-color="#C86DD7" offset="100%"/>
        </linearGradient>
    </defs>
    <path stroke="url(#a)"
          stroke-width="3"
          stroke-linejoin="round"
          stroke-linecap="round"
          d="M5 40 C 5.25 38.52, 8.98 11.1, 10 10 S 14.43 27.86, 15 29.25 S 18.75 33.34, 20 34.16 S 23.53 35.54, 25 35.81 S 28.5 36, 30 36.02 S 33.5 35.92, 35 35.92 S 38.5 35.97, 40 36 S 43.5 36.18, 45 36.15 S 48.5 35.87, 50 35.78 S 53.53 35.83, 55 35.53 S 58.5 33.84, 60 33.74 S 63.52 34.6, 65 34.86 S 68.51 35.37, 70 35.53 S 73.51 35.78, 75 35.96 S 78.52 36.99, 80 36.76 S 83.5 34.47, 85 34.41 S 88.5 36.23, 90 36.34 S 93.52 35.41, 95 35.16 S 98.5 34.7, 100 34.68 S 103.5 34.92, 105 35.01 S 108.51 35.11, 110 35.31 S 113.51 36.18, 115 36.33 S 118.5 36.22, 120 36.34 S 123.5 37.13, 125 37.12 S 128.51 36.43, 130 36.29 S 133.5 36.16, 135 36.16 S 138.5 36.31, 140 36.26 S 143.5 35.83, 145 35.83 S 148.51 36.09, 150 36.29 S 153.5 37.18, 155 37.17 S 158.52 36.49, 160 36.25 S 163.5 35.56, 165 35.56 S 168.52 35.97, 170 36.22 S 173.5 37.2, 175 37.28 S 178.5 36.81, 180 36.73 S 183.5 36.66, 185 36.73 S 188.51 37.36, 190 37.22 S 193.51 35.97, 195 35.76 S 198.5 35.72, 200 35.83 S 203.51 36.28, 205 36.47"
          fill="none"/>
    <circle r="4" cx="5" cy="40" fill="#3023AE"/>
    <circle r="4" cx="205" cy="36.47" fill="#C86DD7"/>      
</svg>