<svg width="200" height="50" viewBox="0 0 210 50" xmlns="http://www.w3.org/2000/svg">
    <defs>
        <linearGradient x1="0%" y1="0%" x2="100%" y2="0%" id="a">
            <stop stop-color="#3023AE" offset="0%"/>
            <stop stop-color="#C86DD7" offset="100%"/>
        </linearGradient>
    </defs>
    <path stroke="url(#a)"
          stroke-width="3"
          stroke-linejoin="round"
          stroke-linecap="round"
          d="M5 40 C 6.5 39.93, 9.44 41.16, 10 39.77 S 14.04 16.22, 15 15.07 S 18.8 26.87, 20 27.77 S 23.51 22.77, 25 22.6 S 28.52 26.41, 30 26.66 S 33.51 24.48, 35 24.27 S 38.55 24.87, 40 25.26 S 43.52 27.24, 45 26.99 S 48.51 23.76, 50 23.6 S 53.53 26.22, 55 25.93 S 58.51 21.79, 60 21.66 S 63.51 24.94, 65 25.08 S 68.52 22.83, 70 22.62 S 73.53 23.38, 75 23.65 S 78.53 24.17, 80 24.48 S 83.5 25.88, 85 25.78 S 88.56 24.23, 90 23.83 S 93.53 23.26, 95 22.99 S 98.5 22.07, 100 21.98 S 103.52 22.6, 105 22.37 S 108.52 20.66, 110 20.43 S 113.5 20.68, 115 20.8 S 118.51 21.39, 120 21.23 S 124 20.87, 125 19.75 S 128.83 9.06, 130 10 S 134.3 26.48, 135 27.81 S 138.51 28.73, 140 28.88 S 143.5 28.8, 145 28.79 S 148.5 28.71, 150 28.81 S 153.52 29.19, 155 29.43 S 158.52 30.17, 160 30.4 S 163.5 30.99, 165 30.99 S 168.51 30.56, 170 30.37 S 173.51 29.57, 175 29.71 S 178.5 31.29, 180 31.29 S 183.51 29.91, 185 29.74 S 188.5 30.18, 190 30.17 S 193.52 29.42, 195 29.66 S 198.54 31.46, 200 31.78 S 203.5 31.84, 205 31.86"
          fill="none"/>
    <circle r="4" cx="5" cy="40" fill="#3023AE"/>
    <circle r="4" cx="205" cy="31.86" fill="#C86DD7"/>      
</svg>