<svg width="200" height="50" viewBox="0 0 210 50" xmlns="http://www.w3.org/2000/svg">
    <defs>
        <linearGradient x1="0%" y1="0%" x2="100%" y2="0%" id="a">
            <stop stop-color="#3023AE" offset="0%"/>
            <stop stop-color="#C86DD7" offset="100%"/>
        </linearGradient>
    </defs>
    <path stroke="url(#a)"
          stroke-width="3"
          stroke-linejoin="round"
          stroke-linecap="round"
          d="M5 40 C 6.5 39.97, 9.21 41.17, 10 39.9 S 14.18 25.24, 15 23.98 S 18.62 23.94, 20 24.52 S 23.5 28.11, 25 28.14 S 28.51 24.56, 30 24.72 S 33.51 29.02, 35 29.19 S 38.52 26.11, 40 25.87 S 43.52 27.37, 45 27.59 S 48.55 26.99, 50 27.37 S 53.59 30.75, 55 30.24 S 58.53 24.07, 60 23.75 S 63.59 27.55, 65 28.06 S 68.61 27.96, 70 27.39 S 73.5 24, 75 23.92 S 78.52 26.61, 80 26.84 S 83.51 25.6, 85 25.46 S 88.5 25.85, 90 25.87 S 93.51 25.47, 95 25.61 S 98.53 26.51, 100 26.83 S 103.51 27.96, 105 27.76 S 108.53 25.78, 110 25.51 S 113.5 26.01, 115 25.9 S 118.51 24.94, 120 24.8 S 123.5 25.02, 125 24.98 S 128.53 24.82, 130 24.53 S 133.51 23.21, 135 23.03 S 138.5 23.39, 140 23.35 S 143.5 22.75, 145 22.79 S 148.5 23.58, 150 23.6 S 154.11 24.11, 155 22.9 S 158.63 9.4, 160 10 S 164.33 25.95, 165 27.29 S 168.57 29.64, 170 30.09 S 173.5 30.41, 175 30.41 S 178.5 30.13, 180 30.11 S 183.5 30.16, 185 30.25 S 188.5 30.76, 190 30.74 S 193.5 30.02, 195 30.11 S 198.52 31.06, 200 31.33 S 203.51 31.74, 205 31.92"
          fill="none"/>
    <circle r="4" cx="5" cy="40" fill="#3023AE"/>
    <circle r="4" cx="205" cy="31.92" fill="#C86DD7"/>      
</svg>