<svg width="200" height="50" viewBox="0 0 210 50" xmlns="http://www.w3.org/2000/svg">
    <defs>
        <linearGradient x1="0%" y1="0%" x2="100%" y2="0%" id="a">
            <stop stop-color="#3023AE" offset="0%"/>
            <stop stop-color="#C86DD7" offset="100%"/>
        </linearGradient>
    </defs>
    <path stroke="url(#a)"
          stroke-width="3"
          stroke-linejoin="round"
          stroke-linecap="round"
          d="M5 40 C 6.5 39.97, 9.22 41.18, 10 39.9 S 14.24 24.78, 15 23.48 S 18.66 22.07, 20 22.75 S 23.5 28.48, 25 28.53 S 28.5 23.08, 30 23.08 S 33.54 28.15, 35 28.5 S 38.53 25.8, 40 25.48 S 43.5 26.23, 45 26.34 S 48.52 25.94, 50 26.21 S 53.54 28.49, 55 28.16 S 58.5 24.08, 60 23.99 S 63.56 27.14, 65 27.57 S 68.54 27.3, 70 26.95 S 73.55 25.52, 75 25.14 S 78.51 24.16, 80 24.31 S 83.5 26.23, 85 26.15 S 88.51 23.93, 90 23.8 S 93.5 25.19, 95 25.26 S 98.51 24.17, 100 24.29 S 103.55 25.72, 105 26.09 S 108.52 27.11, 110 26.86 S 113.51 24.58, 115 24.37 S 118.5 25.49, 120 25.45 S 123.54 24.43, 125 24.1 S 128.51 23.07, 130 23.2 S 133.55 25.32, 135 24.95 S 138.54 21, 140 20.64 S 143.52 22.22, 145 22.46 S 148.5 22.26, 150 22.24 S 153.5 22.35, 155 22.32 S 158.55 22.46, 160 22.06 S 164.04 20.74, 165 19.59 S 168.86 9.03, 170 10 S 174.32 26.76, 175 28.1 S 178.52 29.57, 180 29.84 S 183.51 30.08, 185 29.94 S 188.5 28.92, 190 28.87 S 193.52 29.38, 195 29.59 S 198.5 30.35, 200 30.31 S 203.53 29.61, 205 29.32"
          fill="none"/>
    <circle r="4" cx="5" cy="40" fill="#3023AE"/>
    <circle r="4" cx="205" cy="29.32" fill="#C86DD7"/>      
</svg>