<svg width="200" height="50" viewBox="0 0 210 50" xmlns="http://www.w3.org/2000/svg">
    <defs>
        <linearGradient x1="0%" y1="0%" x2="100%" y2="0%" id="a">
            <stop stop-color="#3023AE" offset="0%"/>
            <stop stop-color="#C86DD7" offset="100%"/>
        </linearGradient>
    </defs>
    <path stroke="url(#a)"
          stroke-width="3"
          stroke-linejoin="round"
          stroke-linecap="round"
          d="M5 40 C 6.5 39.93, 9.41 41.16, 10 39.78 S 14.01 17.68, 15 16.55 S 18.76 27.46, 20 28.31 S 23.51 23.57, 25 23.41 S 28.52 26.96, 30 27.21 S 33.51 25.25, 35 25.08 S 38.6 25.56, 40 26.1 S 43.56 29.34, 45 28.92 S 48.54 23.52, 50 23.19 S 53.5 26.68, 55 26.65 S 58.51 23.15, 60 22.97 S 63.51 25.26, 65 25.43 S 68.5 24.19, 70 24.13 S 73.5 25.03, 75 25.06 S 78.52 24.07, 80 24.3 S 83.5 26.54, 85 26.58 S 88.54 24.92, 90 24.56 S 93.53 24.42, 95 24.13 S 98.5 22.62, 100 22.6 S 103.51 24.18, 105 24 S 108.54 21.78, 110 21.42 S 113.51 21.33, 115 21.51 S 118.5 22.69, 120 22.64 S 124.07 22.33, 125 21.15 S 128.76 9.16, 130 10 S 134.32 26.59, 135 27.93 S 138.51 29.34, 140 29.55 S 143.5 29.36, 145 29.35 S 148.5 29.41, 150 29.51 S 153.5 29.93, 155 30.03 S 158.52 29.98, 160 30.21 S 163.5 31.54, 165 31.6 S 168.51 30.72, 170 30.58 S 173.5 30.61, 175 30.66 S 178.5 30.82, 180 30.92 S 183.5 31.45, 185 31.33 S 188.5 30.23, 190 30.13 S 193.53 30.37, 195 30.65 S 198.51 31.87, 200 32.02 S 203.5 31.75, 205 31.64"
          fill="none"/>
    <circle r="4" cx="5" cy="40" fill="#3023AE"/>
    <circle r="4" cx="205" cy="31.64" fill="#C86DD7"/>      
</svg>