<svg width="200" height="50" viewBox="0 0 210 50" xmlns="http://www.w3.org/2000/svg">
    <defs>
        <linearGradient x1="0%" y1="0%" x2="100%" y2="0%" id="a">
            <stop stop-color="#3023AE" offset="0%"/>
            <stop stop-color="#C86DD7" offset="100%"/>
        </linearGradient>
    </defs>
    <path stroke="url(#a)"
          stroke-width="3"
          stroke-linejoin="round"
          stroke-linecap="round"
          d="M5 40 C 6.5 39.96, 9.31 41.21, 10 39.88 S 14.28 22.1, 15 20.78 S 18.67 20.94, 20 21.64 S 23.5 26.06, 25 26.06 S 28.51 21.49, 30 21.62 S 33.53 26.6, 35 26.91 S 38.53 24.04, 40 23.72 S 43.52 24.54, 45 24.76 S 48.58 24.71, 50 25.19 S 53.64 28.78, 55 28.14 S 58.54 20.82, 60 20.49 S 63.66 25.23, 65 25.9 S 68.68 26.18, 70 25.46 S 73.51 20.63, 75 20.47 S 78.55 24.01, 80 24.39 S 83.52 23.3, 85 23.06 S 88.5 22.74, 90 22.74 S 93.51 22.87, 95 23.05 S 98.55 23.55, 100 23.92 S 103.51 25.75, 105 25.57 S 108.51 22.88, 110 22.69 S 113.5 24.39, 115 24.27 S 118.56 22.32, 120 21.88 S 123.5 21.14, 125 21.23 S 128.53 22.75, 130 22.46 S 133.54 19.57, 135 19.25 S 138.5 20.16, 140 20.25 S 143.51 19.72, 145 19.85 S 148.5 21.15, 150 21.1 S 153.64 20.12, 155 19.49 S 158.91 17.52, 160 16.49 S 164 8.88, 165 10 S 169.29 26.37, 170 27.69 S 173.5 28.44, 175 28.51 S 178.5 28.22, 180 28.19 S 183.5 28.28, 185 28.34 S 188.5 28.53, 190 28.56 S 193.5 28.43, 195 28.55 S 198.52 29.11, 200 29.37 S 203.53 30.03, 205 30.31"
          fill="none"/>
    <circle r="4" cx="5" cy="40" fill="#3023AE"/>
    <circle r="4" cx="205" cy="30.310000000000002" fill="#C86DD7"/>      
</svg>