<svg width="200" height="50" viewBox="0 0 210 50" xmlns="http://www.w3.org/2000/svg">
    <defs>
        <linearGradient x1="0%" y1="0%" x2="100%" y2="0%" id="a">
            <stop stop-color="#3023AE" offset="0%"/>
            <stop stop-color="#C86DD7" offset="100%"/>
        </linearGradient>
    </defs>
    <path stroke="url(#a)"
          stroke-width="3"
          stroke-linejoin="round"
          stroke-linecap="round"
          d="M5 40 C 6.5 39.97, 9.21 41.18, 10 39.91 S 14.18 25.2, 15 23.94 S 18.65 23.98, 20 24.63 S 23.5 28.76, 25 28.75 S 28.5 24.45, 30 24.55 S 33.52 29.21, 35 29.44 S 38.54 26.44, 40 26.11 S 43.52 26.95, 45 27.17 S 48.55 27.19, 50 27.56 S 53.57 30.14, 55 29.68 S 58.51 24.52, 60 24.32 S 63.6 27.78, 65 28.32 S 68.6 28.75, 70 28.2 S 73.52 24.65, 75 24.4 S 78.56 26.05, 80 26.49 S 83.54 27.76, 85 27.44 S 88.51 24.47, 90 24.29 S 93.53 25.93, 95 26.25 S 98.5 26.36, 100 26.44 S 103.5 26.69, 105 26.77 S 108.5 26.96, 110 26.97 S 113.53 27.1, 115 26.81 S 118.55 25.35, 120 24.97 S 123.51 24.08, 125 24.22 S 128.5 25.93, 130 25.9 S 133.56 24.42, 135 23.99 S 138.51 23.05, 140 22.91 S 143.5 22.95, 145 23.04 S 148.5 23.47, 150 23.53 S 153.51 23.57, 155 23.41 S 159.1 23.67, 160 22.47 S 163.72 9.22, 165 10 S 169.34 27.2, 170 28.54 S 173.53 29.95, 175 30.23 S 178.5 30.48, 180 30.45 S 183.5 30.07, 185 30.05 S 188.51 30.21, 190 30.34 S 193.5 30.97, 195 30.92 S 198.5 29.96, 200 30 S 203.54 30.84, 205 31.19"
          fill="none"/>
    <circle r="4" cx="5" cy="40" fill="#3023AE"/>
    <circle r="4" cx="205" cy="31.189999999999998" fill="#C86DD7"/>      
</svg>