<svg width="200" height="50" viewBox="0 0 210 50" xmlns="http://www.w3.org/2000/svg">
    <defs>
        <linearGradient x1="0%" y1="0%" x2="100%" y2="0%" id="a">
            <stop stop-color="#3023AE" offset="0%"/>
            <stop stop-color="#C86DD7" offset="100%"/>
        </linearGradient>
    </defs>
    <path stroke="url(#a)"
          stroke-width="3"
          stroke-linejoin="round"
          stroke-linecap="round"
          d="M5 40 C 6.5 39.97, 9.2 41.18, 10 39.91 S 14.22 25.38, 15 24.1 S 18.66 22.82, 20 23.49 S 23.5 29.02, 25 29.05 S 28.5 23.68, 30 23.66 S 33.54 28.57, 35 28.93 S 38.52 26.43, 40 26.16 S 43.5 27.02, 45 27.09 S 48.51 26.45, 50 26.64 S 53.53 28.66, 55 28.39 S 58.5 24.85, 60 24.79 S 63.55 27.58, 65 27.97 S 68.52 27.72, 70 27.49 S 73.56 26.83, 75 26.41 S 78.5 24.57, 80 24.58 S 83.5 26.52, 85 26.49 S 88.5 24.51, 90 24.4 S 93.5 25.61, 95 25.73 S 98.5 25.09, 100 25.18 S 103.55 25.98, 105 26.36 S 108.51 28.01, 110 27.8 S 113.51 25.15, 115 24.95 S 118.5 26.52, 120 26.44 S 123.57 24.84, 125 24.4 S 128.52 23.1, 130 23.36 S 133.52 26.37, 135 26.14 S 138.57 22.27, 140 21.82 S 143.5 22.9, 145 22.98 S 148.5 22.39, 150 22.35 S 153.51 22.54, 155 22.73 S 158.53 23.93, 160 23.63 S 164.11 21.9, 165 20.69 S 168.82 9.07, 170 10 S 174.33 27.2, 175 28.54 S 178.53 29.67, 180 29.96 S 183.5 30.58, 185 30.49 S 188.5 29.41, 190 29.35 S 193.51 29.92, 195 30.11 S 198.5 30.73, 200 30.64 S 203.54 29.85, 205 29.52"
          fill="none"/>
    <circle r="4" cx="5" cy="40" fill="#3023AE"/>
    <circle r="4" cx="205" cy="29.52" fill="#C86DD7"/>      
</svg>