<svg width="200" height="50" viewBox="0 0 210 50" xmlns="http://www.w3.org/2000/svg">
    <defs>
        <linearGradient x1="0%" y1="0%" x2="100%" y2="0%" id="a">
            <stop stop-color="#3023AE" offset="0%"/>
            <stop stop-color="#C86DD7" offset="100%"/>
        </linearGradient>
    </defs>
    <path stroke="url(#a)"
          stroke-width="3"
          stroke-linejoin="round"
          stroke-linecap="round"
          d="M5 40 C 6.5 39.97, 9.24 41.19, 10 39.9 S 14.26 24.22, 15 22.91 S 18.66 21.47, 20 22.15 S 23.5 27.91, 25 27.97 S 28.5 22.53, 30 22.56 S 33.54 27.84, 35 28.19 S 38.55 25.35, 40 24.96 S 43.5 25.38, 45 25.49 S 48.55 25.34, 50 25.71 S 53.54 28.4, 55 28.04 S 58.51 23.36, 60 23.23 S 63.59 26.67, 65 27.18 S 68.57 27.32, 70 26.88 S 73.56 24.51, 75 24.08 S 78.52 23.64, 80 23.87 S 83.51 25.83, 85 25.65 S 88.5 22.78, 90 22.69 S 93.51 24.93, 95 25.08 S 98.51 23.54, 100 23.67 S 103.55 25.58, 105 25.98 S 108.53 26.74, 110 26.42 S 113.52 24.08, 115 23.82 S 118.5 24.79, 120 24.69 S 123.52 23.45, 125 23.18 S 128.5 22.85, 130 22.87 S 133.53 23.58, 135 23.29 S 138.52 21.12, 140 20.91 S 143.5 21.76, 145 21.86 S 148.5 21.54, 150 21.57 S 153.5 22.15, 155 22.07 S 158.61 21.62, 160 21.06 S 163.99 19.19, 165 18.08 S 168.95 8.93, 170 10 S 174.32 26.91, 175 28.24 S 178.51 29.35, 180 29.49 S 183.5 29.25, 185 29.15 S 188.5 28.81, 190 28.82 S 193.51 29.08, 195 29.25 S 198.5 29.99, 200 29.95 S 203.53 29.27, 205 28.99"
          fill="none"/>
    <circle r="4" cx="5" cy="40" fill="#3023AE"/>
    <circle r="4" cx="205" cy="28.990000000000002" fill="#C86DD7"/>      
</svg>