<svg width="200" height="50" viewBox="0 0 210 50" xmlns="http://www.w3.org/2000/svg">
    <defs>
        <linearGradient x1="0%" y1="0%" x2="100%" y2="0%" id="a">
            <stop stop-color="#3023AE" offset="0%"/>
            <stop stop-color="#C86DD7" offset="100%"/>
        </linearGradient>
    </defs>
    <path stroke="url(#a)"
          stroke-width="3"
          stroke-linejoin="round"
          stroke-linecap="round"
          d="M5 40 C 6.5 39.97, 9.23 41.18, 10 39.89 S 14.25 24.65, 15 23.35 S 18.62 21.94, 20 22.53 S 23.54 27.31, 25 27.65 S 28.5 24.91, 30 24.87 S 33.51 27.15, 35 27.36 S 38.52 26.53, 40 26.28 S 43.52 25.47, 45 25.7 S 48.51 27.97, 50 27.81 S 53.5 24.64, 55 24.61 S 58.55 27.21, 60 27.6 S 63.58 27.77, 65 27.3 S 68.54 24.64, 70 24.29 S 73.54 24.55, 75 24.88 S 78.52 26.77, 80 26.55 S 83.53 23.69, 85 23.4 S 88.54 24.27, 90 24.61 S 93.55 25.33, 95 25.71 S 98.51 27.4, 100 27.26 S 103.52 25, 105 24.75 S 108.5 25.65, 110 25.54 S 113.52 24.27, 115 24.04 S 118.5 24.01, 120 23.96 S 123.53 24, 125 23.72 S 128.52 22.26, 130 22.03 S 133.5 22.14, 135 22.18 S 138.5 22.24, 140 22.3 S 143.51 22.79, 145 22.58 S 149.07 22.07, 150 20.9 S 153.79 9.11, 155 10 S 159.33 26.93, 160 28.27 S 163.51 29.8, 165 30.01 S 168.5 29.76, 170 29.66 S 173.5 29.37, 175 29.36 S 178.51 29.47, 180 29.61 S 183.5 30.2, 185 30.3 S 188.51 30.09, 190 30.3 S 193.51 31.59, 195 31.71 S 198.5 31.23, 200 31.12 S 203.5 31, 205 30.95"
          fill="none"/>
    <circle r="4" cx="5" cy="40" fill="#3023AE"/>
    <circle r="4" cx="205" cy="30.95" fill="#C86DD7"/>      
</svg>