<svg width="200" height="50" viewBox="0 0 210 50" xmlns="http://www.w3.org/2000/svg">
    <defs>
        <linearGradient x1="0%" y1="0%" x2="100%" y2="0%" id="a">
            <stop stop-color="#3023AE" offset="0%"/>
            <stop stop-color="#C86DD7" offset="100%"/>
        </linearGradient>
    </defs>
    <path stroke="url(#a)"
          stroke-width="3"
          stroke-linejoin="round"
          stroke-linecap="round"
          d="M5 40 C 6.5 39.97, 9.2 41.18, 10 39.91 S 14.22 25.46, 15 24.18 S 18.66 22.88, 20 23.55 S 23.5 29.14, 25 29.16 S 28.5 23.71, 30 23.69 S 33.55 28.65, 35 29.02 S 38.53 26.5, 40 26.22 S 43.5 27.01, 45 27.1 S 48.51 26.61, 50 26.8 S 53.53 28.64, 55 28.36 S 58.5 24.93, 60 24.88 S 63.55 27.65, 65 28.03 S 68.52 27.73, 70 27.51 S 73.56 26.93, 75 26.52 S 78.5 24.65, 80 24.65 S 83.5 26.57, 85 26.54 S 88.5 24.55, 90 24.44 S 93.51 25.66, 95 25.8 S 98.5 25.27, 100 25.38 S 103.54 26.18, 105 26.52 S 108.52 27.92, 110 27.7 S 113.51 25.23, 115 25.05 S 118.5 26.52, 120 26.47 S 123.57 25.14, 125 24.7 S 128.51 23.19, 130 23.39 S 133.51 26.26, 135 26.07 S 138.57 22.53, 140 22.08 S 143.5 22.84, 145 22.92 S 148.5 22.61, 150 22.6 S 153.51 22.68, 155 22.83 S 158.53 23.93, 160 23.62 S 164.11 21.92, 165 20.71 S 168.82 9.08, 170 10 S 174.33 27.2, 175 28.54 S 178.52 29.9, 180 30.17 S 183.5 30.45, 185 30.36 S 188.5 29.59, 190 29.56 S 193.51 30.03, 195 30.18 S 198.5 30.64, 200 30.56 S 203.53 29.9, 205 29.62"
          fill="none"/>
    <circle r="4" cx="5" cy="40" fill="#3023AE"/>
    <circle r="4" cx="205" cy="29.619999999999997" fill="#C86DD7"/>      
</svg>