<svg width="200" height="50" viewBox="0 0 210 50" xmlns="http://www.w3.org/2000/svg">
    <defs>
        <linearGradient x1="0%" y1="0%" x2="100%" y2="0%" id="a">
            <stop stop-color="#3023AE" offset="0%"/>
            <stop stop-color="#C86DD7" offset="100%"/>
        </linearGradient>
    </defs>
    <path stroke="url(#a)"
          stroke-width="3"
          stroke-linejoin="round"
          stroke-linecap="round"
          d="M5 40 C 5.25 38.52, 8.65 10.65, 10 10 S 14.43 33.77, 15 35.16 S 18.53 33.9, 20 34.19 S 23.6 36.56, 25 37.1 S 28.53 37.78, 30 38.06 S 33.51 38.89, 35 39.03 S 38.53 39.31, 40 39.03 S 43.51 37.24, 45 37.1 S 48.53 37.78, 50 38.06 S 53.51 39.17, 55 39.03 S 58.56 37.52, 60 37.1 S 63.51 36.27, 65 36.13 S 68.53 35.85, 70 36.13 S 73.5 38.06, 75 38.06 S 78.51 36.27, 80 36.13 S 83.51 36.96, 85 37.1 S 88.53 36.82, 90 37.1 S 93.53 38.75, 95 39.03 S 98.5 39.03, 100 39.03 S 103.5 39.03, 105 39.03 S 108.5 39.03, 110 39.03 S 113.5 39.03, 115 39.03 S 118.5 39.03, 120 39.03 S 123.5 39.03, 125 39.03 S 128.5 39.03, 130 39.03 S 133.5 39.03, 135 39.03 S 138.51 39.17, 140 39.03 S 143.53 38.34, 145 38.06 S 148.51 36.96, 150 37.1 S 153.51 38.89, 155 39.03 S 158.51 38.2, 160 38.06 S 163.51 37.92, 165 38.06 S 168.51 38.89, 170 39.03 S 173.51 39.17, 175 39.03 S 178.5 38.06, 180 38.06 S 183.51 38.89, 185 39.03 S 188.5 39.03, 190 39.03 S 193.5 39.03, 195 39.03 S 198.56 39.45, 200 39.03 S 203.7 36.88, 205 36.13"
          fill="none"/>
    <circle r="4" cx="5" cy="40" fill="#3023AE"/>
    <circle r="4" cx="205" cy="36.13" fill="#C86DD7"/>      
</svg>