<svg width="200" height="50" viewBox="0 0 210 50" xmlns="http://www.w3.org/2000/svg">
    <defs>
        <linearGradient x1="0%" y1="0%" x2="100%" y2="0%" id="a">
            <stop stop-color="#3023AE" offset="0%"/>
            <stop stop-color="#C86DD7" offset="100%"/>
        </linearGradient>
    </defs>
    <path stroke="url(#a)"
          stroke-width="3"
          stroke-linejoin="round"
          stroke-linecap="round"
          d="M5 40 C 6.38 39.41, 8.5 37.97, 10 37.86 S 13.66 39.96, 15 39.29 S 18.62 33.45, 20 32.86 S 23.59 34.5, 25 35 S 28.59 35.93, 30 36.43 S 33.56 38.16, 35 38.57 S 38.5 39.18, 40 39.29 S 43.5 39.29, 45 39.29 S 48.52 39.5, 50 39.29 S 53.52 38.07, 55 37.86 S 59.49 39.27, 60 37.86 S 63.5 10, 65 10 S 69.41 36.48, 70 37.86 S 74.22 34.85, 75 33.57 S 79.08 22.61, 80 21.43 S 84.05 19.55, 85 20.71 S 89.17 32.32, 90 33.57 S 93.52 35.5, 95 35.71 S 98.53 35.31, 100 35 S 103.5 33.68, 105 33.57 S 108.56 33.88, 110 34.29 S 113.56 36.84, 115 36.43 S 118.56 31.84, 120 31.43 S 123.53 33.26, 125 33.57 S 128.62 34.16, 130 33.57 S 133.52 29.5, 135 29.29 S 138.78 31.27, 140 32.14 S 143.5 36.32, 145 36.43 S 148.52 33.07, 150 32.86 S 153.5 34.89, 155 35 S 158.5 33.46, 160 33.57 S 163.5 35.71, 165 35.71 S 168.5 33.68, 170 33.57 S 173.56 35.41, 175 35 S 178.59 31.21, 180 30.71 S 183.74 30.62, 185 31.43 S 188.66 36.47, 190 37.14 S 193.66 37.1, 195 36.43 S 198.53 32.45, 200 32.14 S 203.62 33.7, 205 34.29"
          fill="none"/>
    <circle r="4" cx="5" cy="40" fill="#3023AE"/>
    <circle r="4" cx="205" cy="34.29" fill="#C86DD7"/>      
</svg>