<svg width="200" height="50" viewBox="0 0 210 50" xmlns="http://www.w3.org/2000/svg">
    <defs>
        <linearGradient x1="0%" y1="0%" x2="100%" y2="0%" id="a">
            <stop stop-color="#3023AE" offset="0%"/>
            <stop stop-color="#C86DD7" offset="100%"/>
        </linearGradient>
    </defs>
    <path stroke="url(#a)"
          stroke-width="3"
          stroke-linejoin="round"
          stroke-linecap="round"
          d="M5 40 C 6 38.88, 8.53 34.65, 10 34.37 S 14.43 39.51, 15 38.12 S 18.69 10.73, 20 10 S 24.43 31.11, 25 32.5 S 28.69 33.64, 30 34.37 S 33.53 38.4, 35 38.12 S 38.6 33.03, 40 32.5 S 43.91 35.4, 45 34.37 S 48.6 22.59, 50 23.12 S 53.8 37.22, 55 38.12 S 58.91 31.65, 60 30.62 S 63.53 28.47, 65 28.75 S 68.69 31.77, 70 32.5 S 73.6 33.84, 75 34.37 S 78.5 36.25, 80 36.25 S 84.09 35.56, 85 34.37 S 88.5 23.12, 90 23.12 S 93.53 34.09, 95 34.37 S 98.53 25.28, 100 25 S 103.5 32.5, 105 32.5 S 108.91 26.03, 110 25 S 113.69 22.39, 115 23.12 S 118.91 29.59, 120 30.62 S 123.8 33.4, 125 32.5 S 128.5 23.12, 130 23.12 S 133.5 32.5, 135 32.5 S 138.69 22.39, 140 23.12 S 144 37, 145 38.12 S 148.69 35.1, 150 34.37 S 153.5 32.5, 155 32.5 S 158.69 33.64, 160 34.37 S 163.53 37.84, 165 38.12 S 168.6 36.78, 170 36.25 S 173.6 34.9, 175 34.37 S 178.53 32.22, 180 32.5 S 183.69 35.52, 185 36.25 S 188.5 38.12, 190 38.12 S 193.5 36.25, 195 36.25 S 199.17 39.37, 200 38.12 S 204.57 22.69, 205 21.25"
          fill="none"/>
    <circle r="4" cx="5" cy="40" fill="#3023AE"/>
    <circle r="4" cx="205" cy="21.25" fill="#C86DD7"/>      
</svg>