<svg width="200" height="50" viewBox="0 0 210 50" xmlns="http://www.w3.org/2000/svg">
    <defs>
        <linearGradient x1="0%" y1="0%" x2="100%" y2="0%" id="a">
            <stop stop-color="#3023AE" offset="0%"/>
            <stop stop-color="#C86DD7" offset="100%"/>
        </linearGradient>
    </defs>
    <path stroke="url(#a)"
          stroke-width="3"
          stroke-linejoin="round"
          stroke-linecap="round"
          d="M5 40 C 6.5 39.88, 8.5 39.73, 10 39.61 S 13.5 39.22, 15 39.22 S 18.5 39.55, 20 39.61 S 23.5 39.61, 25 39.61 S 28.51 39.78, 30 39.61 S 33.51 38.61, 35 38.44 S 38.51 38.27, 40 38.44 S 43.51 39.44, 45 39.61 S 48.5 39.61, 50 39.61 S 53.5 39.61, 55 39.61 S 58.5 39.61, 60 39.61 S 63.5 39.67, 65 39.61 S 68.5 39.28, 70 39.22 S 74.51 40.64, 75 39.22 S 78.6 10.55, 80 10 S 84.49 33.91, 85 35.32 S 88.5 37.6, 90 37.66 S 93.62 36.3, 95 35.71 S 98.53 33.09, 100 33.38 S 103.58 37.16, 105 37.66 S 109.02 38.02, 110 36.88 S 114.24 27.27, 115 25.97 S 118.79 18.85, 120 19.74 S 124.08 32.2, 125 33.38 S 128.68 33.32, 130 32.6 S 133.53 27.63, 135 27.92 S 138.68 33.83, 140 34.55 S 143.54 33.04, 145 33.38 S 148.53 37.17, 150 36.88 S 153.57 31.88, 155 31.43 S 158.66 33.09, 160 33.77 S 163.54 36.15, 165 36.49 S 168.5 36.16, 170 36.1 S 173.52 36.33, 175 36.1 S 178.58 35.05, 180 34.55 S 183.51 32.77, 185 32.6 S 188.5 33.44, 190 33.38 S 193.6 31.67, 195 32.21 S 198.55 36.87, 200 37.27 S 203.64 35.57, 205 34.94"
          fill="none"/>
    <circle r="4" cx="5" cy="40" fill="#3023AE"/>
    <circle r="4" cx="205" cy="34.94" fill="#C86DD7"/>      
</svg>