<svg width="200" height="50" viewBox="0 0 210 50" xmlns="http://www.w3.org/2000/svg">
    <defs>
        <linearGradient x1="0%" y1="0%" x2="100%" y2="0%" id="a">
            <stop stop-color="#3023AE" offset="0%"/>
            <stop stop-color="#C86DD7" offset="100%"/>
        </linearGradient>
    </defs>
    <path stroke="url(#a)"
          stroke-width="3"
          stroke-linejoin="round"
          stroke-linecap="round"
          d="M5 40 C 6.5 39.97, 8.51 40.04, 10 39.89 S 13.56 39.42, 15 38.99 S 18.98 37.97, 20 36.87 S 24.34 29.48, 25 28.13 S 28.64 17.02, 30 16.38 S 33.74 22.62, 35 23.43 S 38.57 22.3, 40 22.76 S 43.84 25.73, 45 26.68 S 48.64 30.29, 50 30.93 S 53.5 31.45, 55 31.38 S 58.81 31.41, 60 30.49 S 63.53 23.97, 65 23.66 S 68.85 27.4, 70 28.36 S 73.53 31.77, 75 32.05 S 79.09 31.45, 80 30.26 S 83.52 19.22, 85 18.96 S 88.88 29.47, 90 28.47 S 93.7 10.74, 95 10 S 99.33 21.42, 100 22.76 S 103.54 29.59, 105 29.93 S 108.59 25.62, 110 25.11 S 113.66 25.66, 115 26.34 S 118.57 29.69, 120 30.15 S 123.53 29.87, 125 29.59 S 128.51 28.08, 130 28.25 S 133.54 30.38, 135 30.71 S 138.5 30.49, 140 30.49 S 143.5 30.74, 145 30.71 S 148.55 30.63, 150 30.26 S 153.51 27.98, 155 28.13 S 158.5 31.39, 160 31.27 S 163.5 27.32, 165 27.35 S 168.73 30.69, 170 31.49 S 173.55 33.25, 175 33.62 S 178.54 34.43, 180 34.07 S 183.52 31.38, 185 31.16 S 188.6 32.06, 190 32.61 S 193.52 34.85, 195 35.07 S 198.54 34.43, 200 34.07 S 203.56 33.03, 205 32.61"
          fill="none"/>
    <circle r="4" cx="5" cy="40" fill="#3023AE"/>
    <circle r="4" cx="205" cy="32.61" fill="#C86DD7"/>      
</svg>