<svg width="200" height="50" viewBox="0 0 210 50" xmlns="http://www.w3.org/2000/svg">
    <defs>
        <linearGradient x1="0%" y1="0%" x2="100%" y2="0%" id="a">
            <stop stop-color="#3023AE" offset="0%"/>
            <stop stop-color="#C86DD7" offset="100%"/>
        </linearGradient>
    </defs>
    <path stroke="url(#a)"
          stroke-width="3"
          stroke-linejoin="round"
          stroke-linecap="round"
          d="M5 40 C 6.04 38.92, 8.51 34.97, 10 34.78 S 14.44 40.09, 15 38.7 S 18.51 10.19, 20 10 S 24.51 35.97, 25 37.39 S 28.51 38.51, 30 38.7 S 33.5 38.7, 35 38.7 S 38.5 38.7, 40 38.7 S 43.5 38.7, 45 38.7 S 48.6 39.25, 50 38.7 S 53.55 35.16, 55 34.78 S 58.55 35.71, 60 36.09 S 63.5 37.39, 65 37.39 S 68.51 35.9, 70 36.09 S 73.55 38.32, 75 38.7 S 78.5 38.7, 80 38.7 S 83.5 38.7, 85 38.7 S 88.5 38.7, 90 38.7 S 93.5 38.7, 95 38.7 S 98.5 38.7, 100 38.7 S 103.5 38.7, 105 38.7 S 108.5 38.7, 110 38.7 S 113.5 38.7, 115 38.7 S 118.5 38.7, 120 38.7 S 123.5 38.7, 125 38.7 S 128.5 38.7, 130 38.7 S 133.5 38.7, 135 38.7 S 138.5 38.7, 140 38.7 S 143.5 38.7, 145 38.7 S 148.5 38.7, 150 38.7 S 153.5 38.7, 155 38.7"
          fill="none"/>
    <circle r="4" cx="5" cy="40" fill="#3023AE"/>
    <circle r="4" cx="155" cy="38.7" fill="#C86DD7"/>      
</svg>