<svg width="200" height="50" viewBox="0 0 210 50" xmlns="http://www.w3.org/2000/svg">
    <defs>
        <linearGradient x1="0%" y1="0%" x2="100%" y2="0%" id="a">
            <stop stop-color="#3023AE" offset="0%"/>
            <stop stop-color="#C86DD7" offset="100%"/>
        </linearGradient>
    </defs>
    <path stroke="url(#a)"
          stroke-width="3"
          stroke-linejoin="round"
          stroke-linecap="round"
          d="M5 40 C 5.66 38.66, 8.52 30.12, 10 29.89 S 13.84 37.47, 15 38.42 S 18.51 38.23, 20 38.03 S 23.5 37.09, 25 37.05 S 28.52 37.55, 30 37.77 S 34.22 39.84, 35 38.56 S 38.68 22.13, 40 21.42 S 44.03 32.03, 45 33.17 S 48.53 33.48, 50 33.17 S 53.53 30.76, 55 31.07 S 58.6 34.74, 60 35.27 S 63.52 35.15, 65 34.88 S 68.5 33.45, 70 33.44 S 73.54 34.47, 75 34.81 S 78.52 35.58, 80 35.8 S 83.5 36.21, 85 36.32 S 88.5 36.64, 90 36.52 S 93.51 35.68, 95 35.54 S 98.5 35.65, 100 35.6 S 103.51 35.42, 105 35.21 S 108.52 34.44, 110 34.22 S 113.51 33.57, 115 33.76 S 118.5 35.45, 120 35.47 S 123.78 34.76, 125 33.89 S 128.76 29.22, 130 28.38 S 133.73 26.32, 135 27.13 S 138.57 34.31, 140 34.75 S 143.53 30.5, 145 30.22 S 148.64 32.2, 150 32.84 S 154.12 36.17, 155 34.95 S 158.53 19.29, 160 18.99 S 163.58 32.44, 165 32.91 S 168.52 22.5, 170 22.28 S 173.95 30.33, 175 31.4 S 178.51 32.57, 180 32.39 S 184.39 31.59, 185 30.22 S 188.92 11.04, 190 10 S 194.2 19.3, 195 20.57 S 198.76 26.8, 200 25.95 S 204.43 15.07, 205 13.68"
          fill="none"/>
    <circle r="4" cx="5" cy="40" fill="#3023AE"/>
    <circle r="4" cx="205" cy="13.68" fill="#C86DD7"/>      
</svg>