<svg width="200" height="50" viewBox="0 0 210 50" xmlns="http://www.w3.org/2000/svg">
    <defs>
        <linearGradient x1="0%" y1="0%" x2="100%" y2="0%" id="a">
            <stop stop-color="#3023AE" offset="0%"/>
            <stop stop-color="#C86DD7" offset="100%"/>
        </linearGradient>
    </defs>
    <path stroke="url(#a)"
          stroke-width="3"
          stroke-linejoin="round"
          stroke-linecap="round"
          d="M5 40 C 5.25 38.52, 8.57 10.44, 10 10 S 14.49 35.51, 15 36.92 S 18.5 37.67, 20 37.75 S 23.5 37.48, 25 37.46 S 28.51 37.46, 30 37.61 S 33.5 38.37, 35 38.44 S 38.54 38.39, 40 38.05 S 43.52 36.39, 45 36.14 S 48.56 35.94, 50 36.34 S 53.52 38.68, 55 38.93 S 58.5 38.12, 60 38.05 S 63.5 38.4, 65 38.44 S 68.52 38.52, 70 38.29 S 73.75 37.7, 75 36.87 S 78.61 32.17, 80 31.6 S 83.51 32.85, 85 32.72 S 88.65 30.06, 90 30.72 S 93.79 36.72, 95 37.61 S 98.5 38.05, 100 38.09 S 103.5 37.92, 105 37.85 S 108.5 37.49, 110 37.61 S 113.5 38.52, 115 38.63 S 118.5 38.41, 120 38.34 S 123.5 38.2, 125 38.14 S 128.51 38.07, 130 37.95 S 133.51 37.48, 135 37.31 S 138.52 36.53, 140 36.78 S 143.53 38.65, 145 38.97 S 148.58 39.42, 150 38.93 S 153.5 35.61, 155 35.5 S 158.51 37.99, 160 38.19 S 163.5 36.83, 165 36.82 S 168.53 37.86, 170 38.14 S 173.5 38.76, 175 38.73 S 178.5 38.05, 180 37.95 S 183.5 38.07, 185 38.05 S 188.54 38.14, 190 37.8 S 193.5 35.81, 195 35.75 S 198.5 37.42, 200 37.41 S 203.58 36.19, 205 35.7"
          fill="none"/>
    <circle r="4" cx="5" cy="40" fill="#3023AE"/>
    <circle r="4" cx="205" cy="35.7" fill="#C86DD7"/>      
</svg>