<svg width="200" height="50" viewBox="0 0 210 50" xmlns="http://www.w3.org/2000/svg">
    <defs>
        <linearGradient x1="0%" y1="0%" x2="100%" y2="0%" id="a">
            <stop stop-color="#3023AE" offset="0%"/>
            <stop stop-color="#C86DD7" offset="100%"/>
        </linearGradient>
    </defs>
    <path stroke="url(#a)"
          stroke-width="3"
          stroke-linejoin="round"
          stroke-linecap="round"
          d="M5 40 C 6.5 39.95, 8.5 39.86, 10 39.84 S 13.5 39.84, 15 39.84 S 18.5 39.84, 20 39.84 S 23.5 39.84, 25 39.84 S 28.5 39.84, 30 39.84 S 33.5 39.84, 35 39.84 S 38.5 39.94, 40 39.84 S 43.5 39.32, 45 39.2 S 48.5 38.94, 50 39.04 S 53.5 39.72, 55 39.84 S 58.5 39.96, 60 39.84 S 63.52 39.28, 65 39.04 S 68.59 38.76, 70 38.24 S 73.63 35.98, 75 35.37 S 78.5 33.85, 80 33.78 S 83.56 34.46, 85 34.89 S 88.53 36.53, 90 36.81 S 93.53 36.51, 95 36.81 S 98.5 38.78, 100 38.88 S 103.5 37.55, 105 37.45 S 108.5 38.12, 110 38.24 S 113.5 38.14, 115 38.24 S 118.5 38.86, 120 38.88 S 124.51 39.82, 125 38.4 S 128.54 10.33, 130 10 S 134.48 34.76, 135 36.17 S 138.5 37.17, 140 37.29 S 143.5 36.97, 145 36.97 S 148.51 37.12, 150 37.29 S 153.5 38.07, 155 38.09 S 158.5 37.43, 160 37.45 S 163.5 38.17, 165 38.24 S 168.5 37.91, 170 37.93 S 173.5 38.4, 175 38.4 S 178.5 37.91, 180 37.93 S 183.5 38.56, 185 38.56 S 188.5 37.98, 190 37.93 S 193.5 38.15, 195 38.24 S 198.5 38.63, 200 38.56 S 203.52 38, 205 37.77"
          fill="none"/>
    <circle r="4" cx="5" cy="40" fill="#3023AE"/>
    <circle r="4" cx="205" cy="37.77" fill="#C86DD7"/>      
</svg>