<svg width="200" height="50" viewBox="0 0 210 50" xmlns="http://www.w3.org/2000/svg">
    <defs>
        <linearGradient x1="0%" y1="0%" x2="100%" y2="0%" id="a">
            <stop stop-color="#3023AE" offset="0%"/>
            <stop stop-color="#C86DD7" offset="100%"/>
        </linearGradient>
    </defs>
    <path stroke="url(#a)"
          stroke-width="3"
          stroke-linejoin="round"
          stroke-linecap="round"
          d="M5 40 C 6.5 39.99, 8.5 39.96, 10 39.95 S 14.46 41.35, 15 39.95 S 19.52 15.21, 20 13.79 S 24.36 8.65, 25 10 S 29.47 33.44, 30 34.84 S 33.56 36, 35 36.42 S 38.53 37.45, 40 37.74 S 43.5 38.33, 45 38.42 S 48.51 38.51, 50 38.32 S 53.65 37.81, 55 37.16 S 58.5 33.57, 60 33.53 S 63.56 36.47, 65 36.89 S 68.51 36.61, 70 36.42 S 73.52 35.9, 75 35.63 S 78.5 34.69, 80 34.58 S 83.5 34.88, 85 34.89 S 88.53 34.41, 90 34.68 S 93.51 36.6, 95 36.74 S 98.52 35.85, 100 35.63 S 103.61 35.82, 105 35.26 S 108.5 31.57, 110 31.63 S 113.57 35.18, 115 35.63 S 118.52 35.01, 120 34.74 S 123.5 33.77, 125 33.79 S 128.51 35.03, 130 34.89 S 133.51 32.71, 135 32.84 S 138.55 35.42, 140 35.79 S 143.5 35.35, 145 35.42 S 148.5 36.24, 150 36.26 S 153.5 35.42, 155 35.53 S 158.5 36.91, 160 37 S 163.5 36.25, 165 36.16 S 168.5 36.49, 170 36.42 S 173.5 35.76, 175 35.68 S 178.5 35.9, 180 35.89 S 183.5 35.62, 185 35.63 S 188.5 35.96, 190 35.95 S 193.5 35.41, 195 35.53 S 198.51 36.61, 200 36.74 S 203.5 36.52, 205 36.42"
          fill="none"/>
    <circle r="4" cx="5" cy="40" fill="#3023AE"/>
    <circle r="4" cx="205" cy="36.42" fill="#C86DD7"/>      
</svg>