<svg width="200" height="50" viewBox="0 0 210 50" xmlns="http://www.w3.org/2000/svg">
    <defs>
        <linearGradient x1="0%" y1="0%" x2="100%" y2="0%" id="a">
            <stop stop-color="#3023AE" offset="0%"/>
            <stop stop-color="#C86DD7" offset="100%"/>
        </linearGradient>
    </defs>
    <path stroke="url(#a)"
          stroke-width="3"
          stroke-linejoin="round"
          stroke-linecap="round"
          d="M5 40 C 5.83 38.75, 8.6 33.03, 10 32.5 S 13.6 35.72, 15 36.25 S 18.5 36.25, 20 36.25 S 23.5 36.25, 25 36.25 S 28.5 36.25, 30 36.25 S 33.5 36.25, 35 36.25 S 38.5 36.25, 40 36.25 S 43.8 37.15, 45 36.25 S 49.17 30, 50 28.75 S 53.5 21.25, 55 21.25 S 58.6 28.22, 60 28.75 S 63.6 24.47, 65 25 S 68.6 31.97, 70 32.5 S 74.29 30.07, 75 28.75 S 78.6 14.28, 80 13.75 S 84.29 23.68, 85 25 S 88.6 31.97, 90 32.5 S 93.6 28.22, 95 28.75 S 98.6 36.78, 100 36.25 S 103.8 25.9, 105 25 S 109 27.63, 110 28.75 S 113.5 36.25, 115 36.25 S 118.6 29.28, 120 28.75 S 124.29 33.82, 125 32.5 S 128.6 10.53, 130 10 S 134 27.63, 135 28.75 S 138.6 21.78, 140 21.25 S 144 26.12, 145 25 S 148.6 9.47, 150 10 S 154.17 27.5, 155 28.75 S 158.6 25.53, 160 25 S 163.6 24.47, 165 25 S 168.8 29.65, 170 28.75 S 173.6 16.97, 175 17.5 S 179 31.38, 180 32.5 S 183.8 29.65, 185 28.75 S 188.8 25.9, 190 25 S 193.8 22.15, 195 21.25 S 199 16.38, 200 17.5 S 204.53 31.08, 205 32.5"
          fill="none"/>
    <circle r="4" cx="5" cy="40" fill="#3023AE"/>
    <circle r="4" cx="205" cy="32.5" fill="#C86DD7"/>      
</svg>