<svg width="200" height="50" viewBox="0 0 210 50" xmlns="http://www.w3.org/2000/svg">
    <defs>
        <linearGradient x1="0%" y1="0%" x2="100%" y2="0%" id="a">
            <stop stop-color="#3023AE" offset="0%"/>
            <stop stop-color="#C86DD7" offset="100%"/>
        </linearGradient>
    </defs>
    <path stroke="url(#a)"
          stroke-width="3"
          stroke-linejoin="round"
          stroke-linecap="round"
          d="M5 40 C 5.25 38.52, 8.92 11.04, 10 10 S 14.46 28.97, 15 30.37 S 18.82 35.22, 20 36.14 S 23.54 37.81, 25 38.14 S 28.51 38.22, 30 38.4 S 33.5 39.3, 35 39.37 S 38.5 38.89, 40 38.9 S 43.5 39.38, 45 39.46 S 48.5 39.44, 50 39.45 S 53.5 39.52, 55 39.5 S 58.5 39.42, 60 39.34 S 63.5 38.99, 65 38.99 S 68.5 39.3, 70 39.37 S 73.5 39.49, 75 39.49 S 78.5 39.39, 80 39.36 S 83.5 39.23, 85 39.26 S 88.5 39.55, 90 39.55 S 93.5 39.28, 95 39.23 S 98.5 39.23, 100 39.22 S 103.5 39.18, 105 39.18 S 108.5 39.23, 110 39.24 S 113.5 39.25, 115 39.23 S 118.5 39.06, 120 39.09 S 123.5 39.41, 125 39.44 S 128.5 39.33, 130 39.32 S 133.5 39.39, 135 39.39 S 138.5 39.32, 140 39.32 S 143.5 39.34, 145 39.37 S 148.5 39.47, 150 39.49 S 153.5 39.54, 155 39.48 S 158.5 39.1, 160 39.08 S 163.5 39.36, 165 39.33 S 168.5 38.92, 170 38.86 S 173.5 38.9, 175 38.91 S 178.5 38.95, 180 38.92 S 183.5 38.74, 185 38.71 S 188.5 38.68, 190 38.72 S 193.5 38.92, 195 38.95 S 198.5 38.9, 200 38.94 S 203.5 39.13, 205 39.21"
          fill="none"/>
    <circle r="4" cx="5" cy="40" fill="#3023AE"/>
    <circle r="4" cx="205" cy="39.21" fill="#C86DD7"/>      
</svg>