<svg width="200" height="50" viewBox="0 0 210 50" xmlns="http://www.w3.org/2000/svg">
    <defs>
        <linearGradient x1="0%" y1="0%" x2="100%" y2="0%" id="a">
            <stop stop-color="#3023AE" offset="0%"/>
            <stop stop-color="#C86DD7" offset="100%"/>
        </linearGradient>
    </defs>
    <path stroke="url(#a)"
          stroke-width="3"
          stroke-linejoin="round"
          stroke-linecap="round"
          d="M5 40 C 5.49 38.58, 8.5 25.69, 10 25.6 S 13.93 38.34, 15 39.39 S 18.52 35.62, 20 35.39 S 23.57 37.38, 25 37.82 S 28.5 38.47, 30 38.45 S 33.5 37.67, 35 37.66 S 38.5 38.26, 40 38.36 S 44.22 39.64, 45 38.36 S 48.54 22.33, 50 21.98 S 54.08 34.77, 55 35.96 S 59.1 36.16, 60 34.96 S 63.55 23.01, 65 22.64 S 68.93 31.37, 70 32.42 S 73.53 32.84, 75 32.53 S 78.5 30.24, 80 30.32 S 83.59 33.56, 85 33.05 S 88.56 27.13, 90 26.71 S 93.6 29.61, 95 30.15 S 98.5 30.7, 100 30.6 S 103.51 29.63, 105 29.45 S 108.5 29.41, 110 29.42 S 113.51 29.64, 115 29.51 S 119.32 29.9, 120 28.57 S 123.66 10.68, 125 10 S 129.04 22.3, 130 23.46 S 133.55 21.74, 135 22.11 S 138.62 25.4, 140 25.98 S 143.7 27.09, 145 26.34 S 148.54 20.54, 150 20.18 S 153.66 24.51, 155 23.84 S 158.53 15.53, 160 15.23 S 163.73 21.03, 165 21.82 S 168.51 21.32, 170 21.46 S 173.57 22.28, 175 22.73 S 178.66 23.95, 180 24.63 S 183.5 27.77, 185 27.77 S 188.52 24.89, 190 24.64 S 193.53 26.42, 195 26.1 S 198.73 23.26, 200 22.47 S 203.67 20.56, 205 19.87"
          fill="none"/>
    <circle r="4" cx="5" cy="40" fill="#3023AE"/>
    <circle r="4" cx="205" cy="19.87" fill="#C86DD7"/>      
</svg>