<svg width="200" height="50" viewBox="0 0 210 50" xmlns="http://www.w3.org/2000/svg">
    <defs>
        <linearGradient x1="0%" y1="0%" x2="100%" y2="0%" id="a">
            <stop stop-color="#3023AE" offset="0%"/>
            <stop stop-color="#C86DD7" offset="100%"/>
        </linearGradient>
    </defs>
    <path stroke="url(#a)"
          stroke-width="3"
          stroke-linejoin="round"
          stroke-linecap="round"
          d="M5 40 C 6.5 39.88, 8.51 39.75, 10 39.6 S 13.51 39.2, 15 38.99 S 18.56 38.62, 20 38.19 S 23.5 35.85, 25 35.97 S 28.58 38.5, 30 38.99 S 33.5 39.43, 35 39.4 S 38.5 38.79, 40 38.79 S 43.5 39.37, 45 39.4 S 48.5 38.99, 50 38.99 S 53.5 39.34, 55 39.4 S 58.5 39.37, 60 39.4 S 63.5 39.6, 65 39.6 S 68.5 39.43, 70 39.4 S 73.5 39.4, 75 39.4 S 78.5 39.4, 80 39.4 S 83.5 39.37, 85 39.4 S 88.5 39.54, 90 39.6 S 93.5 39.77, 95 39.8 S 98.5 39.8, 100 39.8 S 103.5 39.83, 105 39.8 S 108.5 39.63, 110 39.6 S 113.5 39.63, 115 39.6 S 118.5 39.4, 120 39.4 S 123.5 39.63, 125 39.6 S 128.5 39.16, 130 39.19 S 133.5 39.86, 135 39.8 S 138.5 38.82, 140 38.79 S 143.5 39.51, 145 39.6 S 148.5 39.37, 150 39.4 S 153.5 39.74, 155 39.8 S 158.5 39.8, 160 39.8 S 163.5 39.8, 165 39.8 S 168.5 39.8, 170 39.8 S 173.5 39.8, 175 39.8 S 178.5 39.8, 180 39.8 S 183.5 39.89, 185 39.8 S 189.52 40.61, 190 39.19 S 193.91 11.03, 195 10 S 199.36 28.37, 200 29.73 S 203.57 30.88, 205 31.34"
          fill="none"/>
    <circle r="4" cx="5" cy="40" fill="#3023AE"/>
    <circle r="4" cx="205" cy="31.34" fill="#C86DD7"/>      
</svg>