<svg width="200" height="50" viewBox="0 0 210 50" xmlns="http://www.w3.org/2000/svg">
    <defs>
        <linearGradient x1="0%" y1="0%" x2="100%" y2="0%" id="a">
            <stop stop-color="#3023AE" offset="0%"/>
            <stop stop-color="#C86DD7" offset="100%"/>
        </linearGradient>
    </defs>
    <path stroke="url(#a)"
          stroke-width="3"
          stroke-linejoin="round"
          stroke-linecap="round"
          d="M5 40 C 5.47 38.58, 8.66 25.67, 10 25 S 13.66 35.67, 15 35 S 18.5 20, 20 20 S 24.17 33.75, 25 35 S 28.5 35, 30 35 S 33.94 36.06, 35 35 S 39.17 26.25, 40 25 S 43.94 18.94, 45 20 S 48.94 33.94, 50 35 S 53.5 30, 55 30 S 58.66 34.33, 60 35 S 63.5 35, 65 35 S 68.5 35, 70 35 S 73.5 35, 75 35 S 78.66 35.67, 80 35 S 83.5 30, 85 30 S 88.5 35, 90 35 S 93.5 30, 95 30 S 98.66 35.67, 100 35 S 103.5 25, 105 25 S 108.66 34.33, 110 35 S 113.5 30, 115 30 S 118.5 35, 120 35 S 123.5 30, 125 30 S 128.5 35, 130 35 S 133.5 30, 135 30 S 138.66 34.33, 140 35 S 143.5 35, 145 35 S 148.66 35.67, 150 35 S 154.17 31.25, 155 30 S 158.66 19.33, 160 20 S 164.17 33.75, 165 35 S 168.5 35, 170 35 S 174.44 36.39, 175 35 S 178.5 10, 180 10 S 184.33 33.66, 185 35 S 188.66 30.67, 190 30 S 193.66 29.33, 195 30 S 198.66 34.33, 200 35 S 203.5 35, 205 35"
          fill="none"/>
    <circle r="4" cx="5" cy="40" fill="#3023AE"/>
    <circle r="4" cx="205" cy="35" fill="#C86DD7"/>      
</svg>