<svg width="200" height="50" viewBox="0 0 210 50" xmlns="http://www.w3.org/2000/svg">
    <defs>
        <linearGradient x1="0%" y1="0%" x2="100%" y2="0%" id="a">
            <stop stop-color="#3023AE" offset="0%"/>
            <stop stop-color="#C86DD7" offset="100%"/>
        </linearGradient>
    </defs>
    <path stroke="url(#a)"
          stroke-width="3"
          stroke-linejoin="round"
          stroke-linecap="round"
          d="M5 40 C 5.47 38.58, 8.8 25.9, 10 25 S 13.6 31.97, 15 32.5 S 18.8 29.65, 20 28.75 S 23.8 24.1, 25 25 S 28.8 35.35, 30 36.25 S 34.17 33.75, 35 32.5 S 39.17 22.5, 40 21.25 S 44 16.38, 45 17.5 S 49 31.38, 50 32.5 S 54.39 30.12, 55 28.75 S 58.6 10.53, 60 10 S 64.39 23.63, 65 25 S 68.6 31.97, 70 32.5 S 73.6 28.22, 75 28.75 S 78.8 35.35, 80 36.25 S 83.6 36.78, 85 36.25 S 89.47 33.9, 90 32.5 S 93.6 9.47, 95 10 S 99.39 34.88, 100 36.25 S 103.5 32.5, 105 32.5 S 108.6 35.72, 110 36.25 S 113.6 36.78, 115 36.25 S 118.8 33.4, 120 32.5 S 124.17 30, 125 28.75 S 128.6 18.03, 130 17.5 S 134 23.88, 135 25 S 139 27.63, 140 28.75 S 143.6 35.72, 145 36.25 S 148.8 33.4, 150 32.5 S 154.17 30, 155 28.75 S 158.8 16.6, 160 17.5 S 164.17 35, 165 36.25 S 168.8 33.4, 170 32.5 S 173.8 29.65, 175 28.75 S 179.29 26.32, 180 25 S 183.6 9.47, 185 10 S 189.47 27.35, 190 28.75 S 193.5 36.25, 195 36.25 S 198.6 29.28, 200 28.75 S 203.8 31.6, 205 32.5"
          fill="none"/>
    <circle r="4" cx="5" cy="40" fill="#3023AE"/>
    <circle r="4" cx="205" cy="32.5" fill="#C86DD7"/>      
</svg>