<svg width="200" height="50" viewBox="0 0 210 50" xmlns="http://www.w3.org/2000/svg">
    <defs>
        <linearGradient x1="0%" y1="0%" x2="100%" y2="0%" id="a">
            <stop stop-color="#3023AE" offset="0%"/>
            <stop stop-color="#C86DD7" offset="100%"/>
        </linearGradient>
    </defs>
    <path stroke="url(#a)"
          stroke-width="3"
          stroke-linejoin="round"
          stroke-linecap="round"
          d="M5 40 C 6.5 39.99, 8.5 39.95, 10 39.95 S 13.61 40.54, 15 39.98 S 19.18 37.18, 20 35.93 S 23.52 24.48, 25 24.74 S 28.5 37.81, 30 37.71 S 34.49 25.46, 35 24.05 S 38.86 9.03, 40 10 S 44.42 31.17, 45 32.55 S 48.5 34.1, 50 33.99 S 53.5 31.76, 55 31.79 S 58.55 33.85, 60 34.22 S 63.5 34.43, 65 34.33 S 68.52 33.79, 70 33.58 S 73.5 32.9, 75 32.89 S 78.51 33.32, 80 33.51 S 83.5 34.26, 85 34.19 S 88.54 33.35, 90 33.03 S 93.51 32.2, 95 31.99 S 98.5 31.71, 100 31.65 S 103.53 31.27, 105 31.57 S 108.56 33.24, 110 33.67 S 113.5 34.42, 115 34.54 S 118.5 34.43, 120 34.48 S 123.5 34.9, 125 34.85 S 128.51 34, 130 34.15 S 133.51 35.69, 135 35.88 S 138.5 35.48, 140 35.4 S 143.5 35.35, 145 35.32 S 148.5 35.12, 150 35.2 S 153.51 35.74, 155 35.88 S 158.51 35.99, 160 36.12 S 163.5 36.68, 165 36.77 S 168.5 36.75, 170 36.72 S 173.5 36.56, 175 36.59 S 178.5 36.97, 180 36.93 S 183.5 36.36, 185 36.33 S 188.5 36.69, 190 36.72 S 193.81 37.46, 195 36.55 S 198.5 29.13, 200 29.13 S 204.16 35.33, 205 36.57"
          fill="none"/>
    <circle r="4" cx="5" cy="40" fill="#3023AE"/>
    <circle r="4" cx="205" cy="36.57" fill="#C86DD7"/>      
</svg>