<svg width="200" height="50" viewBox="0 0 210 50" xmlns="http://www.w3.org/2000/svg">
    <defs>
        <linearGradient x1="0%" y1="0%" x2="100%" y2="0%" id="a">
            <stop stop-color="#3023AE" offset="0%"/>
            <stop stop-color="#C86DD7" offset="100%"/>
        </linearGradient>
    </defs>
    <path stroke="url(#a)"
          stroke-width="3"
          stroke-linejoin="round"
          stroke-linecap="round"
          d="M5 40 C 6.32 39.28, 8.64 37.9, 10 37.28 S 13.87 36.42, 15 35.43 S 18.62 29.1, 20 28.52 S 23.76 30.39, 25 31.23 S 28.52 35.05, 30 35.31 S 33.88 33.96, 35 32.96 S 38.51 26.62, 40 26.42 S 43.66 30.94, 45 31.6 S 48.5 31.42, 50 31.36 S 53.55 31.61, 55 31.23 S 58.64 29.41, 60 28.77 S 63.51 26.39, 65 26.54 S 68.66 30.43, 70 29.75 S 73.77 22.33, 75 21.48 S 78.66 22.16, 80 22.84 S 83.58 26.05, 85 26.54 S 88.5 26.26, 90 26.3 S 93.55 26.41, 95 26.79 S 98.58 28.4, 100 28.89 S 103.51 30.38, 105 30.25 S 108.53 28.29, 110 28.02 S 113.57 27.96, 115 28.4 S 119.28 32.43, 120 31.11 S 123.59 10.51, 125 10 S 129.26 26.22, 130 27.53 S 133.51 27.63, 135 27.78 S 138.5 28.41, 140 28.52 S 143.53 28.81, 145 28.52 S 148.54 26.18, 150 26.54 S 153.89 29.99, 155 30.99 S 158.5 35.45, 160 35.56 S 163.63 32.34, 165 31.73 S 168.53 30.84, 170 31.11 S 173.5 33.69, 175 33.58 S 178.61 30.94, 180 30.37 S 184.01 30.64, 185 29.51 S 188.56 18.6, 190 19.01 S 194.03 31.21, 195 32.35 S 198.5 30.76, 200 30.74 S 203.56 31.79, 205 32.22"
          fill="none"/>
    <circle r="4" cx="5" cy="40" fill="#3023AE"/>
    <circle r="4" cx="205" cy="32.22" fill="#C86DD7"/>      
</svg>