<svg width="200" height="50" viewBox="0 0 210 50" xmlns="http://www.w3.org/2000/svg">
    <defs>
        <linearGradient x1="0%" y1="0%" x2="100%" y2="0%" id="a">
            <stop stop-color="#3023AE" offset="0%"/>
            <stop stop-color="#C86DD7" offset="100%"/>
        </linearGradient>
    </defs>
    <path stroke="url(#a)"
          stroke-width="3"
          stroke-linejoin="round"
          stroke-linecap="round"
          d="M5 40 C 6.49 39.79, 9.53 40.72, 10 39.3 S 14.17 11.25, 15 10 S 19.42 22.81, 20 24.19 S 23.93 32.9, 25 33.95 S 28.5 33.98, 30 33.95 S 33.53 33.99, 35 33.72 S 38.9 33.11, 40 32.09 S 43.54 24.08, 45 24.42 S 48.7 33.67, 50 34.42 S 53.5 30.33, 55 30.23 S 58.66 33.04, 60 33.72 S 63.5 35.42, 65 35.35 S 68.5 33.26, 70 33.26 S 73.51 35.21, 75 35.35 S 78.51 34.36, 80 34.19 S 83.51 34.33, 85 34.19 S 88.81 34.17, 90 33.26 S 93.54 26.17, 95 26.51 S 98.81 34.67, 100 35.58 S 103.5 34.29, 105 34.19 S 108.53 34.61, 110 34.88 S 113.51 35.88, 115 36.05 S 118.5 36.09, 120 36.05 S 123.5 35.88, 125 35.81 S 128.5 35.61, 130 35.58 S 133.54 35.92, 135 35.58 S 138.5 33.19, 140 33.26 S 143.51 35.88, 145 36.05 S 148.5 34.35, 150 34.42 S 153.5 36.54, 155 36.51 S 158.5 34.29, 160 34.19 S 163.55 35.44, 165 35.81 S 168.5 36.67, 170 36.74 S 173.54 36.62, 175 36.28 S 178.5 34.52, 180 34.42 S 183.51 35.41, 185 35.58 S 188.5 35.61, 190 35.58 S 193.53 35.62, 195 35.35 S 198.51 33.58, 200 33.72 S 203.66 35.6, 205 36.28"
          fill="none"/>
    <circle r="4" cx="5" cy="40" fill="#3023AE"/>
    <circle r="4" cx="205" cy="36.28" fill="#C86DD7"/>      
</svg>