<svg width="200" height="50" viewBox="0 0 210 50" xmlns="http://www.w3.org/2000/svg">
    <defs>
        <linearGradient x1="0%" y1="0%" x2="100%" y2="0%" id="a">
            <stop stop-color="#3023AE" offset="0%"/>
            <stop stop-color="#C86DD7" offset="100%"/>
        </linearGradient>
    </defs>
    <path stroke="url(#a)"
          stroke-width="3"
          stroke-linejoin="round"
          stroke-linecap="round"
          d="M5 40 C 6.5 39.96, 8.5 39.87, 10 39.85 S 13.53 40.14, 15 39.85 S 18.56 38.29, 20 37.87 S 23.5 37.02, 25 36.95 S 28.54 37.08, 30 37.41 S 33.53 38.93, 35 39.24 S 38.5 39.47, 40 39.54 S 43.5 39.72, 45 39.7 S 48.79 40.28, 50 39.39 S 54.06 33.56, 55 32.39 S 58.64 26.26, 60 26.9 S 64.24 38.4, 65 37.11 S 68.87 10.98, 70 10 S 74.45 27.03, 75 28.43 S 78.97 34.34, 80 35.43 S 83.5 39, 85 39.09 S 88.59 36.56, 90 36.04 S 93.51 35.29, 95 35.43 S 98.54 36.62, 100 36.95 S 103.53 37.41, 105 37.72 S 108.51 38.89, 110 39.09 S 113.5 38.98, 115 39.09 S 118.5 39.76, 120 39.85 S 123.5 39.72, 125 39.7 S 128.5 39.68, 130 39.7 S 134.42 41.24, 135 39.85 S 138.75 16.45, 140 15.63 S 144.4 31.92, 145 33.3 S 148.7 37.88, 150 38.63 S 153.5 39.09, 155 39.09 S 158.5 38.65, 160 38.63 S 163.5 38.89, 165 38.93 S 168.5 39, 170 38.93 S 173.5 38.41, 175 38.48 S 178.5 39.28, 180 39.39 S 183.5 39.24, 185 39.24 S 188.5 39.41, 190 39.39 S 193.5 39.16, 195 39.09 S 198.62 39.52, 200 38.93 S 203.84 35.77, 205 34.82"
          fill="none"/>
    <circle r="4" cx="5" cy="40" fill="#3023AE"/>
    <circle r="4" cx="205" cy="34.82" fill="#C86DD7"/>      
</svg>