<svg width="200" height="50" viewBox="0 0 210 50" xmlns="http://www.w3.org/2000/svg">
    <defs>
        <linearGradient x1="0%" y1="0%" x2="100%" y2="0%" id="a">
            <stop stop-color="#3023AE" offset="0%"/>
            <stop stop-color="#C86DD7" offset="100%"/>
        </linearGradient>
    </defs>
    <path stroke="url(#a)"
          stroke-width="3"
          stroke-linejoin="round"
          stroke-linecap="round"
          d="M5 40 C 5.25 38.52, 8.57 10.45, 10 10 S 14.49 35.43, 15 36.84 S 18.54 37.53, 20 37.88 S 23.52 38.99, 25 39.21 S 28.5 39.34, 30 39.37 S 33.5 39.39, 35 39.39 S 38.5 39.36, 40 39.39 S 43.5 39.53, 45 39.57 S 48.5 39.67, 50 39.68 S 53.5 39.66, 55 39.66 S 58.5 39.68, 60 39.68 S 63.5 39.65, 65 39.65 S 68.5 39.71, 70 39.7 S 73.5 39.62, 75 39.61 S 78.5 39.63, 80 39.64 S 83.5 39.66, 85 39.66 S 88.5 39.61, 90 39.61 S 93.5 39.68, 95 39.69 S 98.5 39.68, 100 39.69 S 103.5 39.77, 105 39.78 S 108.5 39.84, 110 39.77 S 113.5 39.41, 115 39.34 S 118.5 39.33, 120 39.33 S 123.5 39.32, 125 39.35 S 128.5 39.52, 130 39.53 S 133.5 39.45, 135 39.44 S 138.5 39.46, 140 39.46 S 143.5 39.41, 145 39.42 S 148.5 39.52, 150 39.55 S 153.5 39.63, 155 39.64 S 158.5 39.66, 160 39.65 S 163.5 39.59, 165 39.58 S 168.5 39.55, 170 39.55 S 173.5 39.55, 175 39.55 S 178.5 39.55, 180 39.57 S 183.5 39.69, 185 39.7 S 188.5 39.66, 190 39.64 S 193.5 39.58, 195 39.57 S 198.5 39.55, 200 39.54 S 203.5 39.51, 205 39.5"
          fill="none"/>
    <circle r="4" cx="5" cy="40" fill="#3023AE"/>
    <circle r="4" cx="205" cy="39.5" fill="#C86DD7"/>      
</svg>