<svg width="200" height="50" viewBox="0 0 210 50" xmlns="http://www.w3.org/2000/svg">
    <defs>
        <linearGradient x1="0%" y1="0%" x2="100%" y2="0%" id="a">
            <stop stop-color="#3023AE" offset="0%"/>
            <stop stop-color="#C86DD7" offset="100%"/>
        </linearGradient>
    </defs>
    <path stroke="url(#a)"
          stroke-width="3"
          stroke-linejoin="round"
          stroke-linecap="round"
          d="M5 40 C 5.25 38.52, 8.57 10.47, 10 10 S 14.49 35.32, 15 36.73 S 18.54 37.5, 20 37.84 S 23.52 38.86, 25 39.09 S 28.5 39.31, 30 39.37 S 33.5 39.48, 35 39.48 S 38.5 39.37, 40 39.38 S 43.5 39.55, 45 39.58 S 48.5 39.59, 50 39.61 S 53.5 39.72, 55 39.72 S 58.5 39.62, 60 39.62 S 63.5 39.71, 65 39.72 S 68.5 39.69, 70 39.69 S 73.5 39.72, 75 39.71 S 78.5 39.62, 80 39.61 S 83.5 39.66, 85 39.67 S 88.5 39.68, 90 39.67 S 93.5 39.62, 95 39.62 S 98.5 39.69, 100 39.7 S 103.5 39.7, 105 39.71 S 108.5 39.76, 110 39.77 S 113.5 39.85, 115 39.81 S 118.5 39.53, 120 39.47 S 123.5 39.43, 125 39.4 S 128.5 39.26, 130 39.27 S 133.5 39.44, 135 39.48 S 138.5 39.55, 140 39.55 S 143.5 39.51, 145 39.5 S 148.5 39.47, 150 39.46 S 153.5 39.38, 155 39.41 S 158.5 39.62, 160 39.65 S 163.5 39.63, 165 39.64 S 168.5 39.7, 170 39.7 S 173.5 39.63, 175 39.61 S 178.5 39.57, 180 39.56 S 183.5 39.57, 185 39.57 S 188.5 39.56, 190 39.58 S 193.5 39.7, 195 39.71 S 198.5 39.69, 200 39.67 S 203.5 39.61, 205 39.59"
          fill="none"/>
    <circle r="4" cx="5" cy="40" fill="#3023AE"/>
    <circle r="4" cx="205" cy="39.59" fill="#C86DD7"/>      
</svg>