<svg width="200" height="50" viewBox="0 0 210 50" xmlns="http://www.w3.org/2000/svg">
    <defs>
        <linearGradient x1="0%" y1="0%" x2="100%" y2="0%" id="a">
            <stop stop-color="#3023AE" offset="0%"/>
            <stop stop-color="#C86DD7" offset="100%"/>
        </linearGradient>
    </defs>
    <path stroke="url(#a)"
          stroke-width="3"
          stroke-linejoin="round"
          stroke-linecap="round"
          d="M5 40 C 5.25 38.52, 9.08 11.18, 10 10 S 14.44 25.77, 15 27.16 S 18.78 33.97, 20 34.85 S 23.5 34.36, 25 34.37 S 28.56 34.48, 30 34.9 S 33.52 37.03, 35 37.3 S 38.5 36.75, 40 36.71 S 43.53 36.71, 45 37.01 S 48.51 38.55, 50 38.74 S 53.5 38.24, 55 38.26 S 58.5 38.79, 60 38.89 S 63.5 38.9, 65 38.92 S 68.5 39.01, 70 39.02 S 73.5 38.97, 75 38.97 S 78.5 39.1, 80 39.05 S 83.5 38.62, 85 38.61 S 88.5 38.85, 90 38.95 S 93.5 39.28, 95 39.27 S 98.5 38.98, 100 38.88 S 103.5 38.56, 105 38.61 S 108.5 39.13, 110 39.19 S 113.5 39.01, 115 39 S 118.5 39.09, 120 39.11 S 123.5 39.14, 125 39.16 S 128.5 39.2, 130 39.24 S 133.5 39.41, 135 39.4 S 138.5 39.15, 140 39.15 S 143.5 39.39, 145 39.43 S 148.6 39.92, 150 39.39 S 154.06 36.79, 155 35.62 S 158.58 27.48, 160 27.01 S 163.73 31.54, 165 32.33 S 168.53 32.93, 170 33.25 S 173.52 34.22, 175 34.48 S 178.53 34.7, 180 35.01 S 183.56 36.19, 185 36.6 S 188.52 37.58, 190 37.82 S 193.51 38.43, 195 38.22 S 198.57 36.88, 200 36.43 S 203.55 35.46, 205 35.07"
          fill="none"/>
    <circle r="4" cx="5" cy="40" fill="#3023AE"/>
    <circle r="4" cx="205" cy="35.07" fill="#C86DD7"/>      
</svg>