<svg width="200" height="50" viewBox="0 0 210 50" xmlns="http://www.w3.org/2000/svg">
    <defs>
        <linearGradient x1="0%" y1="0%" x2="100%" y2="0%" id="a">
            <stop stop-color="#3023AE" offset="0%"/>
            <stop stop-color="#C86DD7" offset="100%"/>
        </linearGradient>
    </defs>
    <path stroke="url(#a)"
          stroke-width="3"
          stroke-linejoin="round"
          stroke-linecap="round"
          d="M5 40 C 5.25 38.52, 8.77 10.85, 10 10 S 14.42 31.72, 15 33.1 S 18.55 33.27, 20 33.66 S 23.57 35.38, 25 35.82 S 28.51 36.57, 30 36.76 S 33.52 36.84, 35 37.08 S 38.52 38.18, 40 38.4 S 43.5 38.5, 45 38.58 S 48.5 38.9, 50 38.94 S 53.5 38.89, 55 38.86 S 58.5 38.71, 60 38.71 S 63.5 38.79, 65 38.85 S 68.5 39.14, 70 39.14 S 73.5 38.89, 75 38.82 S 78.5 38.67, 80 38.7 S 83.5 38.95, 85 39 S 88.5 39.02, 90 39.04 S 93.5 39.12, 95 39.14 S 98.5 39.17, 100 39.2 S 103.5 39.29, 105 39.31 S 108.96 40.44, 110 39.36 S 113.83 29.84, 115 28.9 S 118.6 30.8, 120 31.34 S 123.58 32.25, 125 32.73 S 128.59 34.22, 130 34.73 S 133.57 35.93, 135 36.38 S 138.5 37.84, 140 37.88 S 143.55 37.01, 145 36.62 S 148.5 35.09, 150 35.17 S 153.56 36.71, 155 37.13 S 158.51 37.9, 160 38.05 S 163.5 38.1, 165 38.11 S 168.5 38.16, 170 38.11 S 173.51 37.94, 175 37.8 S 178.5 37.19, 180 37.18 S 183.5 37.69, 185 37.75 S 188.5 37.55, 190 37.56 S 193.5 37.79, 195 37.83 S 198.5 37.84, 200 37.85 S 203.5 37.91, 205 37.93"
          fill="none"/>
    <circle r="4" cx="5" cy="40" fill="#3023AE"/>
    <circle r="4" cx="205" cy="37.93" fill="#C86DD7"/>      
</svg>