<svg width="200" height="50" viewBox="0 0 210 50" xmlns="http://www.w3.org/2000/svg">
    <defs>
        <linearGradient x1="0%" y1="0%" x2="100%" y2="0%" id="a">
            <stop stop-color="#3023AE" offset="0%"/>
            <stop stop-color="#C86DD7" offset="100%"/>
        </linearGradient>
    </defs>
    <path stroke="url(#a)"
          stroke-width="3"
          stroke-linejoin="round"
          stroke-linecap="round"
          d="M5 40 C 5.25 38.52, 8.75 10.82, 10 10 S 14.41 32.06, 15 33.44 S 18.57 32.71, 20 33.16 S 23.57 36.17, 25 36.62 S 28.51 36.08, 30 36.29 S 33.53 37.72, 35 38 S 38.5 38.06, 40 38.18 S 43.5 38.68, 45 38.8 S 48.5 38.95, 50 38.95 S 53.5 38.89, 55 38.83 S 58.5 38.51, 60 38.54 S 63.5 39.01, 65 39.06 S 68.5 38.91, 70 38.85 S 73.5 38.66, 75 38.68 S 78.5 38.92, 80 38.97 S 83.5 39, 85 39.03 S 88.5 39.12, 90 39.14 S 93.5 39.13, 95 39.15 S 98.5 39.27, 100 39.3 S 104.09 40.56, 105 39.37 S 108.81 27.1, 110 26.18 S 113.81 30.75, 115 31.67 S 118.56 33.49, 120 33.9 S 123.6 34, 125 34.54 S 128.56 37.34, 130 37.75 S 133.55 37.76, 135 37.36 S 138.5 35.05, 140 34.97 S 143.56 36.44, 145 36.85 S 148.51 37.6, 150 37.79 S 153.5 38.11, 155 38.13 S 158.5 38.01, 160 37.95 S 163.51 37.87, 165 37.73 S 168.5 37.01, 170 37.02 S 173.5 37.75, 175 37.82 S 178.5 37.51, 180 37.5 S 183.5 37.73, 185 37.78 S 188.5 37.79, 190 37.83 S 193.5 38.09, 195 38.05 S 198.55 37.99, 200 37.59 S 203.64 35.92, 205 35.29"
          fill="none"/>
    <circle r="4" cx="5" cy="40" fill="#3023AE"/>
    <circle r="4" cx="205" cy="35.29" fill="#C86DD7"/>      
</svg>