<svg width="200" height="50" viewBox="0 0 210 50" xmlns="http://www.w3.org/2000/svg">
    <defs>
        <linearGradient x1="0%" y1="0%" x2="100%" y2="0%" id="a">
            <stop stop-color="#3023AE" offset="0%"/>
            <stop stop-color="#C86DD7" offset="100%"/>
        </linearGradient>
    </defs>
    <path stroke="url(#a)"
          stroke-width="3"
          stroke-linejoin="round"
          stroke-linecap="round"
          d="M5 40 C 5.25 38.52, 9.14 11.23, 10 10 S 14.45 24.26, 15 25.66 S 19.06 34.31, 20 35.48 S 23.53 37.86, 25 38.16 S 28.51 37.68, 30 37.54 S 33.5 37.18, 35 37.25 S 38.52 37.79, 40 38.04 S 43.51 38.78, 45 38.97 S 48.5 39.23, 50 39.3 S 53.5 39.42, 55 39.45 S 58.5 39.53, 60 39.53 S 63.5 39.42, 65 39.45 S 68.5 39.72, 70 39.76 S 73.5 39.73, 75 39.73 S 78.5 39.74, 80 39.74 S 83.5 39.72, 85 39.71 S 88.5 39.67, 90 39.68 S 93.5 39.73, 95 39.76 S 98.5 39.84, 100 39.85 S 103.5 39.87, 105 39.86 S 108.5 39.77, 110 39.76 S 113.5 39.81, 115 39.81 S 118.5 39.76, 120 39.76 S 123.5 39.81, 125 39.8 S 128.5 39.66, 130 39.66 S 133.5 39.81, 135 39.81 S 138.5 39.64, 140 39.64 S 143.5 39.8, 145 39.82 S 148.5 39.78, 150 39.79 S 153.5 39.89, 155 39.89 S 158.5 39.77, 160 39.77 S 163.5 39.86, 165 39.86 S 168.5 39.79, 170 39.79 S 173.5 39.83, 175 39.83 S 178.5 39.79, 180 39.78 S 183.5 39.73, 185 39.76 S 188.5 39.94, 190 39.95 S 193.5 39.83, 195 39.81 S 198.5 39.81, 200 39.81 S 203.5 39.8, 205 39.8"
          fill="none"/>
    <circle r="4" cx="5" cy="40" fill="#3023AE"/>
    <circle r="4" cx="205" cy="39.8" fill="#C86DD7"/>      
</svg>