<svg width="200" height="50" viewBox="0 0 210 50" xmlns="http://www.w3.org/2000/svg">
    <defs>
        <linearGradient x1="0%" y1="0%" x2="100%" y2="0%" id="a">
            <stop stop-color="#3023AE" offset="0%"/>
            <stop stop-color="#C86DD7" offset="100%"/>
        </linearGradient>
    </defs>
    <path stroke="url(#a)"
          stroke-width="3"
          stroke-linejoin="round"
          stroke-linecap="round"
          d="M5 40 C 5.45 38.57, 9.53 25.71, 10 24.29 S 13.62 10.59, 15 10 S 19.25 18.71, 20 20.01 S 23.96 26.21, 25 27.29 S 28.51 30.21, 30 30.4 S 33.56 28.11, 35 28.54 S 38.77 32.52, 40 33.38 S 43.57 36, 45 35.54 S 48.95 31.19, 50 30.12 S 53.57 24.98, 55 25.43 S 58.87 32.31, 60 33.3 S 63.53 33.93, 65 34.24 S 68.56 35, 70 35.42 S 73.55 36.8, 75 37.17 S 78.5 37.91, 80 37.96 S 83.51 37.61, 85 37.48 S 88.5 37.14, 90 37.12 S 93.53 37.07, 95 37.35 S 98.51 38.84, 100 39.03 S 103.5 38.68, 105 38.62 S 108.5 38.52, 110 38.62 S 113.51 39.13, 115 39.26 S 118.5 39.49, 120 39.49 S 123.5 39.31, 125 39.24 S 128.51 39.15, 130 39.01 S 133.5 38.37, 135 38.29 S 138.5 38.33, 140 38.45 S 143.5 38.96, 145 39.08 S 148.5 39.34, 150 39.26 S 153.51 38.69, 155 38.55 S 158.5 38.33, 160 38.32 S 163.5 38.47, 165 38.45 S 168.5 38.19, 170 38.19 S 173.5 38.44, 175 38.47 S 178.5 38.42, 180 38.42 S 183.5 38.47, 185 38.45 S 188.51 38.13, 190 38.29 S 193.51 39.38, 195 39.54 S 198.5 39.38, 200 39.34 S 203.5 39.3, 205 39.29"
          fill="none"/>
    <circle r="4" cx="5" cy="40" fill="#3023AE"/>
    <circle r="4" cx="205" cy="39.29" fill="#C86DD7"/>      
</svg>