<svg width="200" height="50" viewBox="0 0 210 50" xmlns="http://www.w3.org/2000/svg">
    <defs>
        <linearGradient x1="0%" y1="0%" x2="100%" y2="0%" id="a">
            <stop stop-color="#3023AE" offset="0%"/>
            <stop stop-color="#C86DD7" offset="100%"/>
        </linearGradient>
    </defs>
    <path stroke="url(#a)"
          stroke-width="3"
          stroke-linejoin="round"
          stroke-linecap="round"
          d="M5 40 C 6.4 39.46, 8.5 38.19, 10 38.09 S 13.51 39.23, 15 39.36 S 18.5 39.05, 20 38.94 S 23.5 38.65, 25 38.62 S 28.55 39.13, 30 38.73 S 33.5 35.87, 35 35.87 S 38.56 39.16, 40 38.73 S 43.51 33.11, 45 32.9 S 48.64 36.73, 50 37.35 S 53.5 37.43, 55 37.46 S 58.5 37.58, 60 37.56 S 63.52 37.59, 65 37.35 S 68.51 36.1, 70 35.97 S 73.5 36.58, 75 36.5 S 78.52 35.71, 80 35.44 S 83.5 34.78, 85 34.7 S 88.5 34.89, 90 34.91 S 93.51 34.6, 95 34.81 S 98.51 36.48, 100 36.29 S 103.5 33.59, 105 33.53 S 109.41 37.25, 110 35.87 S 113.71 10.77, 115 10 S 119.33 28.59, 120 29.93 S 123.55 29.66, 125 30.04 S 128.52 32.31, 130 32.58 S 133.54 31.48, 135 31.84 S 138.51 34.83, 140 35.02 S 143.56 33.52, 145 33.11 S 148.51 32.29, 150 32.16 S 153.5 32.23, 155 32.26 S 158.53 32.68, 160 32.37 S 163.52 29.92, 165 30.14 S 168.53 33.55, 170 33.85 S 173.51 32.35, 175 32.16 S 178.51 32.41, 180 32.58 S 183.5 33.24, 185 33.32 S 188.5 33.09, 190 33.11 S 193.5 33.43, 195 33.43 S 198.5 33.06, 200 33.11 S 203.51 33.56, 205 33.75"
          fill="none"/>
    <circle r="4" cx="5" cy="40" fill="#3023AE"/>
    <circle r="4" cx="205" cy="33.75" fill="#C86DD7"/>      
</svg>