<svg width="200" height="50" viewBox="0 0 210 50" xmlns="http://www.w3.org/2000/svg">
    <defs>
        <linearGradient x1="0%" y1="0%" x2="100%" y2="0%" id="a">
            <stop stop-color="#3023AE" offset="0%"/>
            <stop stop-color="#C86DD7" offset="100%"/>
        </linearGradient>
    </defs>
    <path stroke="url(#a)"
          stroke-width="3"
          stroke-linejoin="round"
          stroke-linecap="round"
          d="M5 40 C 6.19 39.09, 8.53 36.43, 10 36.16 S 13.53 37.88, 15 38.15 S 18.52 38.28, 20 38.01 S 23.51 36.47, 25 36.33 S 28.5 36.99, 30 37.05 S 33.5 36.83, 35 36.76 S 38.5 36.72, 40 36.6 S 43.58 36.45, 45 35.96 S 48.51 33.34, 50 33.15 S 53.52 34.46, 55 34.7 S 58.5 34.81, 60 34.79 S 63.5 34.69, 65 34.58 S 68.51 34.23, 70 34.04 S 73.52 33.51, 75 33.27 S 78.53 32.7, 80 32.4 S 83.63 31.85, 85 31.24 S 88.57 28.45, 90 27.99 S 93.5 28.05, 95 27.99 S 98.5 27.52, 100 27.61 S 103.5 28.6, 105 28.62 S 108.53 28.05, 110 27.73 S 113.51 26.62, 115 26.44 S 118.5 26.56, 120 26.49 S 123.5 25.86, 125 25.95 S 128.52 26.83, 130 27.1 S 133.5 27.8, 135 27.77 S 138.5 26.82, 140 26.92 S 143.5 28.54, 145 28.47 S 148.52 26.68, 150 26.42 S 154.22 27.96, 155 26.68 S 158.5 9.91, 160 10 S 164.24 26.02, 165 27.31 S 168.5 27.15, 170 27.1 S 173.5 26.83, 175 26.95 S 178.51 27.71, 180 27.88 S 183.51 28.24, 185 28.06 S 188.5 26.59, 190 26.65 S 193.51 28.63, 195 28.44 S 198.55 25.71, 200 25.34 S 203.51 25.74, 205 25.91"
          fill="none"/>
    <circle r="4" cx="5" cy="40" fill="#3023AE"/>
    <circle r="4" cx="205" cy="25.91" fill="#C86DD7"/>      
</svg>