<svg width="200" height="50" viewBox="0 0 210 50" xmlns="http://www.w3.org/2000/svg">
    <defs>
        <linearGradient x1="0%" y1="0%" x2="100%" y2="0%" id="a">
            <stop stop-color="#3023AE" offset="0%"/>
            <stop stop-color="#C86DD7" offset="100%"/>
        </linearGradient>
    </defs>
    <path stroke="url(#a)"
          stroke-width="3"
          stroke-linejoin="round"
          stroke-linecap="round"
          d="M5 40 C 6.5 39.99, 8.5 39.95, 10 39.95 S 13.5 39.99, 15 40 S 18.5 40, 20 40 S 23.5 40, 25 40 S 28.5 40, 30 40 S 33.5 40, 35 40 S 38.5 40, 40 40 S 43.5 40, 45 40 S 49.53 41.42, 50 40 S 53.59 10.5, 55 10 S 59.48 35.02, 60 36.43 S 63.5 36.9, 65 36.96 S 68.66 37.51, 70 36.84 S 73.55 32.37, 75 31.99 S 78.59 33.67, 80 34.19 S 83.5 35.62, 85 35.71 S 88.85 35.79, 90 34.82 S 93.52 27.01, 95 27.28 S 98.89 35.62, 100 36.63 S 103.5 36.32, 105 36.32 S 108.5 36.61, 110 36.65 S 113.5 36.56, 115 36.56 S 118.5 36.67, 120 36.62 S 123.5 36.23, 125 36.22 S 128.5 36.57, 130 36.55 S 133.5 36.07, 135 36.08 S 138.51 36.46, 140 36.62 S 143.5 37.11, 145 37.18 S 148.52 37.27, 150 37.06 S 153.54 36.11, 155 35.75 S 158.5 34.68, 160 34.59 S 163.5 35.01, 165 35.13 S 168.5 35.31, 170 35.38 S 173.5 35.47, 175 35.58 S 178.5 36, 180 36.11 S 183.5 36.28, 185 36.34 S 188.5 36.45, 190 36.49 S 193.5 36.72, 195 36.63 S 198.52 36.15, 200 35.88 S 203.53 35.14, 205 34.83"
          fill="none"/>
    <circle r="4" cx="5" cy="40" fill="#3023AE"/>
    <circle r="4" cx="205" cy="34.83" fill="#C86DD7"/>      
</svg>