<svg width="200" height="50" viewBox="0 0 210 50" xmlns="http://www.w3.org/2000/svg">
    <defs>
        <linearGradient x1="0%" y1="0%" x2="100%" y2="0%" id="a">
            <stop stop-color="#3023AE" offset="0%"/>
            <stop stop-color="#C86DD7" offset="100%"/>
        </linearGradient>
    </defs>
    <path stroke="url(#a)"
          stroke-width="3"
          stroke-linejoin="round"
          stroke-linecap="round"
          d="M5 40 C 6.5 39.99, 8.5 39.97, 10 39.97 S 13.58 40.47, 15 39.99 S 18.53 36.92, 20 36.61 S 23.54 37.58, 25 37.91 S 28.5 38.76, 30 38.85 S 33.5 38.49, 35 38.52 S 38.5 39.05, 40 39.06 S 43.5 38.65, 45 38.62 S 48.5 38.91, 50 38.87 S 53.5 38.46, 55 38.34 S 58.5 38.14, 60 38.08 S 63.5 37.84, 65 37.91 S 68.5 38.49, 70 38.52 S 73.54 38.42, 75 38.08 S 78.51 36.38, 80 36.18 S 83.51 36.87, 85 36.75 S 88.52 35.6, 90 35.36 S 93.85 36.1, 95 35.14 S 98.71 27.74, 100 26.97 S 103.69 28.45, 105 29.18 S 108.54 32.18, 110 32.53 S 113.79 32.45, 115 31.57 S 118.58 25.76, 120 25.28 S 123.52 27.99, 125 28.21 S 128.65 27.39, 130 26.75 S 133.93 24.51, 135 23.46 S 138.61 17.56, 140 17 S 143.53 19.18, 145 19.47 S 148.59 19.52, 150 19 S 153.6 16.34, 155 15.8 S 158.51 14.92, 160 15.13 S 163.58 16.7, 165 17.18 S 168.52 18.76, 170 18.5 S 173.62 16.02, 175 15.44 S 178.51 14.18, 180 14.31 S 183.58 15.81, 185 16.29 S 188.54 18, 190 17.67 S 193.53 14.34, 195 14.04 S 198.61 16.16, 200 15.6 S 204 11.12, 205 10"
          fill="none"/>
    <circle r="4" cx="5" cy="40" fill="#3023AE"/>
    <circle r="4" cx="205" cy="10" fill="#C86DD7"/>      
</svg>