<svg width="200" height="50" viewBox="0 0 210 50" xmlns="http://www.w3.org/2000/svg">
    <defs>
        <linearGradient x1="0%" y1="0%" x2="100%" y2="0%" id="a">
            <stop stop-color="#3023AE" offset="0%"/>
            <stop stop-color="#C86DD7" offset="100%"/>
        </linearGradient>
    </defs>
    <path stroke="url(#a)"
          stroke-width="3"
          stroke-linejoin="round"
          stroke-linecap="round"
          d="M5 40 C 6.5 39.99, 8.5 40.08, 10 39.98 S 13.54 39.68, 15 39.33 S 18.5 37.6, 20 37.57 S 23.52 38.86, 25 39.11 S 28.5 39.25, 30 39.24 S 33.5 39.05, 35 39.03 S 38.5 39.16, 40 39.09 S 43.5 38.65, 45 38.58 S 48.5 38.56, 50 38.59 S 53.51 38.96, 55 38.8 S 58.52 37.76, 60 37.51 S 63.51 37.24, 65 37.1 S 68.7 37.33, 70 36.59 S 73.58 31.89, 75 31.4 S 78.56 32.7, 80 33.11 S 83.58 34.71, 85 34.21 S 88.58 30.07, 90 29.6 S 93.52 31.12, 95 30.9 S 98.81 29.04, 100 28.12 S 103.55 23.55, 105 23.16 S 108.5 25.56, 110 25.44 S 113.53 22.66, 115 22.38 S 118.52 23.25, 120 23.51 S 123.51 24.26, 125 24.13 S 128.54 22.95, 130 22.63 S 133.52 21.67, 135 21.92 S 138.5 24.32, 140 24.33 S 143.61 22.53, 145 21.96 S 149.04 21.39, 150 20.24 S 153.63 10.61, 155 10 S 159.15 14.53, 160 15.77 S 163.87 23.62, 165 24.61 S 168.51 24.74, 170 24.54 S 173.61 23.82, 175 23.27 S 178.52 20.8, 180 20.56 S 183.65 21.01, 185 21.65 S 188.72 24.53, 190 25.32 S 193.54 27.51, 195 27.84 S 198.51 27.41, 200 27.6 S 203.56 28.66, 205 29.09"
          fill="none"/>
    <circle r="4" cx="5" cy="40" fill="#3023AE"/>
    <circle r="4" cx="205" cy="29.09" fill="#C86DD7"/>      
</svg>