<svg width="200" height="50" viewBox="0 0 210 50" xmlns="http://www.w3.org/2000/svg">
    <defs>
        <linearGradient x1="0%" y1="0%" x2="100%" y2="0%" id="a">
            <stop stop-color="#3023AE" offset="0%"/>
            <stop stop-color="#C86DD7" offset="100%"/>
        </linearGradient>
    </defs>
    <path stroke="url(#a)"
          stroke-width="3"
          stroke-linejoin="round"
          stroke-linecap="round"
          d="M5 40 C 6.5 40, 8.5 39.99, 10 39.99 S 13.52 40.27, 15 40 S 18.51 38.31, 20 38.17 S 23.51 38.86, 25 39.05 S 28.5 39.37, 30 39.42 S 33.5 39.39, 35 39.4 S 38.5 39.52, 40 39.51 S 43.5 39.33, 45 39.31 S 48.5 39.43, 50 39.39 S 53.5 39.06, 55 39.01 S 58.5 39.04, 60 39.06 S 63.5 39.12, 65 39.14 S 68.5 39.31, 70 39.19 S 73.51 38.48, 75 38.35 S 78.5 38.36, 80 38.29 S 83.5 37.96, 85 37.89 S 88.62 38.42, 90 37.84 S 93.56 34.15, 95 33.71 S 98.55 34.43, 100 34.8 S 103.51 36.06, 105 36.23 S 108.58 36.42, 110 35.92 S 113.52 32.97, 115 32.72 S 118.5 34.19, 120 34.23 S 123.55 33.4, 125 33 S 128.64 32.14, 130 31.5 S 133.51 28.47, 135 28.3 S 138.52 30.11, 140 30.33 S 143.59 30.32, 145 29.8 S 148.51 26.82, 150 26.61 S 153.55 28.03, 155 28.41 S 158.5 29.26, 160 29.25 S 163.51 28.48, 165 28.35 S 168.51 28.53, 170 28.39 S 173.5 27.35, 175 27.4 S 178.5 28.61, 180 28.73 S 183.51 28.32, 185 28.19 S 188.55 28.22, 190 27.85 S 193.5 25.75, 195 25.68 S 199.19 28.66, 200 27.4 S 204.59 11.44, 205 10"
          fill="none"/>
    <circle r="4" cx="5" cy="40" fill="#3023AE"/>
    <circle r="4" cx="205" cy="10" fill="#C86DD7"/>      
</svg>