<svg width="200" height="50" viewBox="0 0 210 50" xmlns="http://www.w3.org/2000/svg">
    <defs>
        <linearGradient x1="0%" y1="0%" x2="100%" y2="0%" id="a">
            <stop stop-color="#3023AE" offset="0%"/>
            <stop stop-color="#C86DD7" offset="100%"/>
        </linearGradient>
    </defs>
    <path stroke="url(#a)"
          stroke-width="3"
          stroke-linejoin="round"
          stroke-linecap="round"
          d="M5 40 C 6.5 40, 8.5 39.99, 10 39.99 S 13.53 40.28, 15 39.99 S 18.51 38.19, 20 38.04 S 23.51 38.81, 25 39.01 S 28.5 39.31, 30 39.37 S 33.5 39.39, 35 39.39 S 38.5 39.4, 40 39.39 S 43.5 39.36, 45 39.35 S 48.5 39.39, 50 39.33 S 53.5 39.03, 55 38.96 S 58.5 38.84, 60 38.88 S 63.5 39.18, 65 39.21 S 68.51 39.27, 70 39.1 S 73.51 38.23, 75 38.1 S 78.5 38.32, 80 38.25 S 83.5 37.78, 85 37.66 S 88.63 38.05, 90 37.45 S 93.57 33.75, 95 33.3 S 98.56 33.85, 100 34.28 S 103.51 36.1, 105 36.26 S 108.62 35.94, 110 35.35 S 113.52 32.24, 115 31.98 S 118.5 33.49, 120 33.6 S 123.61 33.27, 125 32.7 S 128.63 30.14, 130 29.53 S 133.5 28.25, 135 28.27 S 138.5 29.64, 140 29.65 S 143.59 28.84, 145 28.34 S 148.5 26.11, 150 26.09 S 153.54 27.86, 155 28.22 S 158.51 28.7, 160 28.55 S 163.52 27.45, 165 27.21 S 168.5 26.9, 170 26.94 S 173.51 27.27, 175 27.46 S 178.51 28.39, 180 28.24 S 183.51 26.62, 185 26.43 S 188.51 27.12, 190 26.95 S 193.53 25.58, 195 25.29 S 199.18 26.26, 200 25 S 204.53 11.42, 205 10"
          fill="none"/>
    <circle r="4" cx="5" cy="40" fill="#3023AE"/>
    <circle r="4" cx="205" cy="10" fill="#C86DD7"/>      
</svg>