<svg width="200" height="50" viewBox="0 0 210 50" xmlns="http://www.w3.org/2000/svg">
    <defs>
        <linearGradient x1="0%" y1="0%" x2="100%" y2="0%" id="a">
            <stop stop-color="#3023AE" offset="0%"/>
            <stop stop-color="#C86DD7" offset="100%"/>
        </linearGradient>
    </defs>
    <path stroke="url(#a)"
          stroke-width="3"
          stroke-linejoin="round"
          stroke-linecap="round"
          d="M5 40 C 6.5 39.99, 8.5 39.97, 10 39.97 S 13.59 40.5, 15 39.99 S 18.53 36.62, 20 36.32 S 23.55 37.56, 25 37.95 S 28.5 38.91, 30 39 S 33.5 38.56, 35 38.56 S 38.5 39.03, 40 39.02 S 43.5 38.55, 45 38.52 S 48.5 38.92, 50 38.85 S 53.5 38.15, 55 38.04 S 58.5 38.13, 60 38.12 S 63.5 37.88, 65 37.97 S 68.51 38.86, 70 38.72 S 73.53 37.33, 75 37.02 S 78.51 36.78, 80 36.58 S 83.5 35.77, 85 35.67 S 88.76 36.72, 90 35.88 S 93.7 29.68, 95 28.94 S 98.5 30.1, 100 30.19 S 103.54 29.24, 105 29.57 S 108.54 32.78, 110 32.45 S 113.67 28.02, 115 27.33 S 118.5 27.28, 120 27.25 S 123.56 27.57, 125 27.16 S 128.82 25.33, 130 24.4 S 133.81 20.18, 135 19.26 S 138.51 16.47, 140 16.67 S 143.51 20.76, 145 20.61 S 148.74 16.47, 150 15.65 S 153.51 13.97, 155 14.13 S 158.59 16.21, 160 16.73 S 163.53 18.13, 165 17.86 S 168.57 15.33, 170 14.87 S 173.5 14.53, 175 14.64 S 178.54 15.23, 180 15.59 S 183.52 17.31, 185 17.1 S 188.53 14.43, 190 14.15 S 193.61 15.8, 195 15.23 S 198.51 10.17, 200 10 S 203.84 13.13, 205 14.08"
          fill="none"/>
    <circle r="4" cx="5" cy="40" fill="#3023AE"/>
    <circle r="4" cx="205" cy="14.079999999999998" fill="#C86DD7"/>      
</svg>