<svg width="200" height="50" viewBox="0 0 210 50" xmlns="http://www.w3.org/2000/svg">
    <defs>
        <linearGradient x1="0%" y1="0%" x2="100%" y2="0%" id="a">
            <stop stop-color="#3023AE" offset="0%"/>
            <stop stop-color="#C86DD7" offset="100%"/>
        </linearGradient>
    </defs>
    <path stroke="url(#a)"
          stroke-width="3"
          stroke-linejoin="round"
          stroke-linecap="round"
          d="M5 40 C 6.5 39.99, 8.5 39.97, 10 39.97 S 13.57 40.46, 15 39.99 S 18.53 37.01, 20 36.69 S 23.53 37.49, 25 37.8 S 28.5 38.71, 30 38.81 S 33.5 38.45, 35 38.49 S 38.5 39.03, 40 39.05 S 43.5 38.67, 45 38.64 S 48.5 38.91, 50 38.86 S 53.5 38.43, 55 38.32 S 58.5 38.17, 60 38.1 S 63.5 37.75, 65 37.82 S 68.5 38.51, 70 38.55 S 73.54 38.47, 75 38.12 S 78.52 36.38, 80 36.16 S 83.5 36.79, 85 36.67 S 88.51 35.59, 90 35.38 S 93.85 36.24, 95 35.27 S 98.7 27.68, 100 26.93 S 103.66 28.8, 105 29.48 S 108.54 31.65, 110 31.99 S 113.74 32.62, 115 31.81 S 118.6 26.14, 120 25.59 S 123.51 27.72, 125 27.88 S 128.62 27.27, 130 26.68 S 133.91 24.62, 135 23.59 S 138.63 17.75, 140 17.15 S 143.57 18.72, 145 19.19 S 148.6 20.98, 150 20.43 S 153.69 15.99, 155 15.26 S 158.51 14.69, 160 14.86 S 163.58 15.93, 165 16.4 S 168.52 18.41, 170 18.18 S 173.56 15.3, 175 14.87 S 178.5 15.16, 180 15.2 S 183.54 14.84, 185 15.17 S 188.5 17.43, 190 17.42 S 193.54 15.42, 195 15.09 S 198.66 15.85, 200 15.17 S 203.96 11.08, 205 10"
          fill="none"/>
    <circle r="4" cx="5" cy="40" fill="#3023AE"/>
    <circle r="4" cx="205" cy="10" fill="#C86DD7"/>      
</svg>