<svg width="200" height="50" viewBox="0 0 210 50" xmlns="http://www.w3.org/2000/svg">
    <defs>
        <linearGradient x1="0%" y1="0%" x2="100%" y2="0%" id="a">
            <stop stop-color="#3023AE" offset="0%"/>
            <stop stop-color="#C86DD7" offset="100%"/>
        </linearGradient>
    </defs>
    <path stroke="url(#a)"
          stroke-width="3"
          stroke-linejoin="round"
          stroke-linecap="round"
          d="M5 40 C 6.5 40, 8.5 39.99, 10 39.99 S 13.53 40.29, 15 39.99 S 18.5 38.09, 20 37.97 S 23.51 38.98, 25 39.18 S 28.5 39.28, 30 39.32 S 33.5 39.46, 35 39.46 S 38.5 39.35, 40 39.34 S 43.5 39.43, 45 39.4 S 48.5 39.21, 50 39.15 S 53.5 39.01, 55 38.98 S 58.5 38.92, 60 38.97 S 63.5 39.41, 65 39.34 S 68.51 38.68, 70 38.51 S 73.5 38.28, 75 38.18 S 78.5 37.9, 80 37.84 S 83.62 38.33, 85 37.75 S 88.57 34.14, 90 33.68 S 93.54 34.17, 95 34.53 S 98.51 35.97, 100 36.12 S 103.6 36.09, 105 35.54 S 108.52 32.47, 110 32.21 S 113.5 33.68, 115 33.75 S 118.62 33.27, 120 32.68 S 123.63 30.04, 125 29.44 S 128.51 28.19, 130 28.31 S 133.51 30.47, 135 30.27 S 138.55 27.39, 140 26.99 S 143.52 27.29, 145 27.51 S 148.5 28.41, 150 28.48 S 153.5 28.07, 155 27.98 S 158.51 27.99, 160 27.86 S 163.5 27.09, 165 27.12 S 168.51 27.89, 170 28.03 S 173.5 28.15, 175 28.03 S 178.57 27.68, 180 27.22 S 183.5 24.83, 185 24.82 S 189.16 28.41, 190 27.17 S 193.5 10, 195 10 S 199.3 25.84, 200 27.17 S 203.6 28.54, 205 29.08"
          fill="none"/>
    <circle r="4" cx="5" cy="40" fill="#3023AE"/>
    <circle r="4" cx="205" cy="29.08" fill="#C86DD7"/>      
</svg>