<svg width="200" height="50" viewBox="0 0 210 50" xmlns="http://www.w3.org/2000/svg">
    <defs>
        <linearGradient x1="0%" y1="0%" x2="100%" y2="0%" id="a">
            <stop stop-color="#3023AE" offset="0%"/>
            <stop stop-color="#C86DD7" offset="100%"/>
        </linearGradient>
    </defs>
    <path stroke="url(#a)"
          stroke-width="3"
          stroke-linejoin="round"
          stroke-linecap="round"
          d="M5 40 C 6.5 39.99, 8.5 39.97, 10 39.97 S 13.59 40.5, 15 39.99 S 18.53 36.68, 20 36.39 S 23.54 37.64, 25 38 S 28.5 38.8, 30 38.87 S 33.5 38.46, 35 38.49 S 38.5 39.04, 40 39.05 S 43.5 38.6, 45 38.57 S 48.5 38.9, 50 38.85 S 53.5 38.33, 55 38.22 S 58.5 38.13, 60 38.09 S 63.5 37.9, 65 37.96 S 68.5 38.48, 70 38.48 S 73.54 38.32, 75 37.97 S 78.51 36.28, 80 36.08 S 83.51 36.78, 85 36.65 S 88.65 35.85, 90 35.19 S 93.69 32.5, 95 31.78 S 98.56 30.1, 100 29.68 S 103.56 28.49, 105 28.9 S 108.55 32.18, 110 32.55 S 113.81 32.39, 115 31.47 S 118.58 25.29, 120 24.8 S 123.51 27.81, 125 28 S 128.67 26.81, 130 26.11 S 133.95 23.77, 135 22.7 S 138.57 16.39, 140 15.93 S 143.55 19.13, 145 19.5 S 148.66 19.1, 150 18.44 S 153.56 14.97, 155 14.56 S 158.55 15.18, 160 15.58 S 163.52 17.04, 165 17.29 S 168.53 17.61, 170 17.29 S 173.55 15.47, 175 15.1 S 178.5 14.78, 180 14.77 S 183.56 14.64, 185 15.05 S 188.53 17.9, 190 17.58 S 193.57 13.33, 195 12.86 S 198.56 14.72, 200 14.31 S 203.86 10.98, 205 10"
          fill="none"/>
    <circle r="4" cx="5" cy="40" fill="#3023AE"/>
    <circle r="4" cx="205" cy="10" fill="#C86DD7"/>      
</svg>