<svg width="200" height="50" viewBox="0 0 210 50" xmlns="http://www.w3.org/2000/svg">
    <defs>
        <linearGradient x1="0%" y1="0%" x2="100%" y2="0%" id="a">
            <stop stop-color="#3023AE" offset="0%"/>
            <stop stop-color="#C86DD7" offset="100%"/>
        </linearGradient>
    </defs>
    <path stroke="url(#a)"
          stroke-width="3"
          stroke-linejoin="round"
          stroke-linecap="round"
          d="M5 40 C 6.5 40, 8.5 40, 10 39.99 S 13.54 40.32, 15 39.96 S 18.5 37.64, 20 37.54 S 23.52 38.99, 25 39.26 S 28.5 39.38, 30 39.37 S 33.5 39.23, 35 39.22 S 38.5 39.33, 40 39.28 S 43.5 38.98, 45 38.9 S 48.5 38.73, 50 38.76 S 53.5 39.18, 55 39.07 S 58.51 38.19, 60 38.01 S 63.5 37.92, 65 37.84 S 68.64 38.1, 70 37.47 S 73.59 33.75, 75 33.24 S 78.54 33.51, 80 33.86 S 83.52 35.9, 85 35.63 S 88.56 32.46, 90 32.05 S 93.51 32.98, 95 32.81 S 98.71 31.67, 100 30.9 S 103.55 27.23, 105 26.86 S 108.5 28.5, 110 28.39 S 113.55 26.52, 115 26.14 S 118.51 25.59, 120 25.76 S 123.5 27.21, 125 27.28 S 128.51 26.41, 130 26.23 S 133.5 26.09, 135 26.07 S 138.5 26.17, 140 26.1 S 143.51 25.75, 145 25.6 S 148.5 25.14, 150 25.09 S 154.17 26.49, 155 25.24 S 158.5 9.89, 160 10 S 164.29 24.68, 165 26 S 168.51 28.47, 170 28.59 S 173.53 27.13, 175 26.83 S 178.67 27.28, 180 26.58 S 183.51 21.41, 185 21.55 S 188.79 26.63, 190 27.52 S 193.55 28.57, 195 28.96 S 198.52 29.99, 200 30.21 S 203.5 30.35, 205 30.41"
          fill="none"/>
    <circle r="4" cx="5" cy="40" fill="#3023AE"/>
    <circle r="4" cx="205" cy="30.41" fill="#C86DD7"/>      
</svg>