<svg width="200" height="50" viewBox="0 0 210 50" xmlns="http://www.w3.org/2000/svg">
    <defs>
        <linearGradient x1="0%" y1="0%" x2="100%" y2="0%" id="a">
            <stop stop-color="#3023AE" offset="0%"/>
            <stop stop-color="#C86DD7" offset="100%"/>
        </linearGradient>
    </defs>
    <path stroke="url(#a)"
          stroke-width="3"
          stroke-linejoin="round"
          stroke-linecap="round"
          d="M5 40 C 6.5 39.99, 8.5 39.97, 10 39.97 S 13.57 40.46, 15 39.99 S 18.54 37.02, 20 36.69 S 23.53 37.46, 25 37.77 S 28.5 38.68, 30 38.79 S 33.5 38.44, 35 38.48 S 38.5 39.02, 40 39.04 S 43.5 38.66, 45 38.63 S 48.5 38.9, 50 38.86 S 53.5 38.45, 55 38.34 S 58.5 38.18, 60 38.1 S 63.5 37.73, 65 37.79 S 68.5 38.48, 70 38.53 S 73.54 38.49, 75 38.14 S 78.52 36.35, 80 36.13 S 83.5 36.77, 85 36.65 S 88.51 35.54, 90 35.35 S 93.86 36.33, 95 35.36 S 98.7 27.58, 100 26.84 S 103.65 29.04, 105 29.69 S 108.53 31.38, 110 31.69 S 113.73 32.57, 115 31.77 S 118.6 25.98, 120 25.43 S 123.51 27.64, 125 27.83 S 128.62 27.32, 130 26.73 S 133.91 24.61, 135 23.58 S 138.64 17.92, 140 17.28 S 143.57 18.4, 145 18.86 S 148.59 21.01, 150 20.51 S 153.73 16.09, 155 15.29 S 158.51 14.07, 160 14.24 S 163.6 15.9, 165 16.44 S 168.52 18.37, 170 18.12 S 173.55 15.17, 175 14.77 S 178.5 15.37, 180 15.39 S 183.52 14.61, 185 14.88 S 188.5 17.18, 190 17.22 S 193.55 15.55, 195 15.16 S 198.67 15.22, 200 14.53 S 203.89 11.01, 205 10"
          fill="none"/>
    <circle r="4" cx="5" cy="40" fill="#3023AE"/>
    <circle r="4" cx="205" cy="10" fill="#C86DD7"/>      
</svg>