<svg width="200" height="50" viewBox="0 0 210 50" xmlns="http://www.w3.org/2000/svg">
    <defs>
        <linearGradient x1="0%" y1="0%" x2="100%" y2="0%" id="a">
            <stop stop-color="#3023AE" offset="0%"/>
            <stop stop-color="#C86DD7" offset="100%"/>
        </linearGradient>
    </defs>
    <path stroke="url(#a)"
          stroke-width="3"
          stroke-linejoin="round"
          stroke-linecap="round"
          d="M5 40 C 6.5 39.99, 8.5 39.97, 10 39.97 S 13.6 40.52, 15 39.99 S 18.53 36.49, 20 36.17 S 23.55 37.43, 25 37.83 S 28.5 38.81, 30 38.9 S 33.5 38.39, 35 38.41 S 38.5 39.01, 40 39.02 S 43.5 38.5, 45 38.47 S 48.5 38.85, 50 38.79 S 53.51 38.21, 55 38.08 S 58.5 37.92, 60 37.91 S 63.5 37.92, 65 37.99 S 68.5 38.4, 70 38.37 S 73.54 38.14, 75 37.78 S 78.51 36.08, 80 35.89 S 83.51 36.65, 85 36.5 S 88.74 35.67, 90 34.86 S 93.64 30.71, 95 30.07 S 98.53 30.45, 100 30.16 S 103.53 27.75, 105 28.07 S 108.55 31.95, 110 32.32 S 113.88 31.58, 115 30.59 S 118.58 23.95, 120 23.47 S 123.52 26.99, 125 27.24 S 128.7 25.87, 130 25.13 S 133.98 22.62, 135 21.52 S 138.56 14.7, 140 14.28 S 143.62 17.99, 145 18.58 S 148.77 19.38, 150 18.52 S 153.61 12.1, 155 11.53 S 158.65 13.76, 160 14.42 S 163.5 16.38, 165 16.42 S 168.52 14.93, 170 14.7 S 173.5 14.88, 175 14.87 S 178.55 15, 180 14.63 S 183.54 11.96, 185 12.32 S 188.54 17.42, 190 17.08 S 193.63 10.63, 195 10.01 S 198.5 12.53, 200 12.53 S 203.66 10.68, 205 10"
          fill="none"/>
    <circle r="4" cx="5" cy="40" fill="#3023AE"/>
    <circle r="4" cx="205" cy="10" fill="#C86DD7"/>      
</svg>