<svg width="200" height="50" viewBox="0 0 210 50" xmlns="http://www.w3.org/2000/svg">
    <defs>
        <linearGradient x1="0%" y1="0%" x2="100%" y2="0%" id="a">
            <stop stop-color="#3023AE" offset="0%"/>
            <stop stop-color="#C86DD7" offset="100%"/>
        </linearGradient>
    </defs>
    <path stroke="url(#a)"
          stroke-width="3"
          stroke-linejoin="round"
          stroke-linecap="round"
          d="M5 40 C 6.37 39.39, 8.5 37.85, 10 37.78 S 13.53 39.25, 15 39.56 S 18.5 39.86, 20 39.89 S 23.5 39.78, 25 39.78 S 28.51 40.04, 30 39.89 S 33.77 39.64, 35 38.78 S 38.74 33.7, 40 32.89 S 43.93 33.38, 45 32.33 S 48.65 23.65, 50 23 S 53.61 26.99, 55 27.56 S 58.53 27.39, 60 27.11 S 63.52 25.44, 65 25.67 S 68.53 28.36, 70 28.67 S 73.62 28.38, 75 27.78 S 78.57 24.78, 80 24.33 S 83.51 24.87, 85 24.67 S 88.53 23.31, 90 23 S 93.52 22.79, 95 22.56 S 98.71 20.68, 100 21.44 S 103.76 27.59, 105 28.44 S 109.28 29.65, 110 28.33 S 113.68 10.72, 115 10 S 118.95 21.82, 120 22.89 S 123.52 19.88, 125 20.11 S 128.66 23.76, 130 24.44 S 133.75 24.4, 135 25.22 S 138.87 30.01, 140 31 S 144.03 35.14, 145 34 S 149.09 20.41, 150 19.22 S 153.56 20.57, 155 21 S 158.77 21.36, 160 22.22 S 163.61 27.43, 165 28 S 168.67 25.64, 170 26.33 S 173.9 32.2, 175 33.22 S 178.63 36.29, 180 35.67 S 183.59 29.19, 185 28.67 S 188.5 32.03, 190 32 S 193.5 28.42, 195 28.44 S 198.57 31.66, 200 32.11 S 203.51 31.72, 205 31.56"
          fill="none"/>
    <circle r="4" cx="5" cy="40" fill="#3023AE"/>
    <circle r="4" cx="205" cy="31.560000000000002" fill="#C86DD7"/>      
</svg>