<svg width="200" height="50" viewBox="0 0 210 50" xmlns="http://www.w3.org/2000/svg">
    <defs>
        <linearGradient x1="0%" y1="0%" x2="100%" y2="0%" id="a">
            <stop stop-color="#3023AE" offset="0%"/>
            <stop stop-color="#C86DD7" offset="100%"/>
        </linearGradient>
    </defs>
    <path stroke="url(#a)"
          stroke-width="3"
          stroke-linejoin="round"
          stroke-linecap="round"
          d="M5 40 C 6.41 39.5, 8.5 38.3, 10 38.23 S 13.52 39.33, 15 39.56 S 18.5 39.73, 20 39.75 S 23.5 39.7, 25 39.7 S 28.72 40.53, 30 39.75 S 33.96 34.68, 35 33.6 S 38.5 29.3, 40 29.36 S 43.69 33.26, 45 33.99 S 48.64 35.62, 50 34.98 S 53.69 30.03, 55 29.31 S 58.55 29.85, 60 29.46 S 63.52 26.91, 65 26.65 S 68.52 27.48, 70 27.73 S 73.52 28.55, 75 28.33 S 78.52 26.51, 80 26.26 S 83.51 26.78, 85 26.65 S 88.66 26.05, 90 25.37 S 93.93 22.64, 95 21.58 S 98.55 15.86, 100 15.47 S 103.5 18.88, 105 18.92 S 108.5 15.83, 110 15.76 S 113.61 17.86, 115 18.42 S 118.85 20.77, 120 19.8 S 123.7 10.75, 125 10 S 128.54 13.64, 130 13.99 S 133.55 12.03, 135 12.41 S 138.71 15.84, 140 16.6 S 143.52 18.58, 145 18.33 S 148.52 15.16, 150 14.93 S 153.52 16.58, 155 16.8 S 158.55 16.77, 160 16.4 S 163.5 14.17, 165 14.24 S 168.5 16.94, 170 16.85 S 173.5 13.76, 175 13.65 S 178.55 15.74, 180 16.11 S 183.56 16.59, 185 16.16 S 188.55 12.7, 190 13.1 S 193.51 18.77, 195 18.92 S 198.73 14.89, 200 14.09 S 203.57 13, 205 12.56"
          fill="none"/>
    <circle r="4" cx="5" cy="40" fill="#3023AE"/>
    <circle r="4" cx="205" cy="12.559999999999999" fill="#C86DD7"/>      
</svg>