<svg width="200" height="50" viewBox="0 0 210 50" xmlns="http://www.w3.org/2000/svg">
    <defs>
        <linearGradient x1="0%" y1="0%" x2="100%" y2="0%" id="a">
            <stop stop-color="#3023AE" offset="0%"/>
            <stop stop-color="#C86DD7" offset="100%"/>
        </linearGradient>
    </defs>
    <path stroke="url(#a)"
          stroke-width="3"
          stroke-linejoin="round"
          stroke-linecap="round"
          d="M5 40 C 5.4 38.55, 8.58 22.26, 10 21.78 S 13.82 37.58, 15 36.65 S 18.51 14.09, 20 13.9 S 24.33 34.01, 25 35.35 S 28.8 34.95, 30 34.05 S 33.66 28.59, 35 27.91 S 38.51 28.82, 40 28.97 S 43.51 28.7, 45 28.9 S 48.54 30.68, 50 30.33 S 53.62 27.09, 55 26.49 S 58.52 25.76, 60 25.99 S 63.53 27.73, 65 28.04 S 68.5 28.17, 70 28.1 S 73.7 28.3, 75 27.54 S 78.51 22.42, 80 22.27 S 83.69 25.83, 85 26.55 S 88.53 27.52, 90 27.79 S 93.52 28.64, 95 28.41 S 98.55 26.63, 100 26.24 S 103.51 25.55, 105 25.74 S 108.5 27.44, 110 27.54 S 113.52 26.66, 115 26.43 S 118.5 25.95, 120 25.99 S 123.53 26.97, 125 26.67 S 128.56 24.38, 130 23.95 S 133.58 24.19, 135 23.7 S 138.5 20.49, 140 20.48 S 143.51 23.43, 145 23.64 S 148.5 21.94, 150 21.9 S 153.7 24.13, 155 23.39 S 158.64 16.84, 160 16.2 S 163.5 18.62, 165 18.68 S 168.59 17.15, 170 16.63 S 173.55 14.62, 175 15.02 S 178.52 19.09, 180 19.36 S 183.51 16.98, 185 16.82 S 188.51 18.16, 190 18.31 S 193.8 18.72, 195 17.81 S 198.82 11.66, 200 10.74 S 203.52 10.22, 205 10"
          fill="none"/>
    <circle r="4" cx="5" cy="40" fill="#3023AE"/>
    <circle r="4" cx="205" cy="10" fill="#C86DD7"/>      
</svg>