<svg width="200" height="50" viewBox="0 0 210 50" xmlns="http://www.w3.org/2000/svg">
    <defs>
        <linearGradient x1="0%" y1="0%" x2="100%" y2="0%" id="a">
            <stop stop-color="#3023AE" offset="0%"/>
            <stop stop-color="#C86DD7" offset="100%"/>
        </linearGradient>
    </defs>
    <path stroke="url(#a)"
          stroke-width="3"
          stroke-linejoin="round"
          stroke-linecap="round"
          d="M5 40 C 6.34 39.33, 8.54 37.86, 10 37.5 S 13.51 37.31, 15 37.5 S 18.51 38.56, 20 38.75 S 23.5 38.75, 25 38.75 S 28.5 38.75, 30 38.75 S 33.51 38.94, 35 38.75 S 39.47 38.9, 40 37.5 S 43.66 13.17, 45 12.5 S 49.33 31.16, 50 32.5 S 53.51 32.31, 55 32.5 S 58.73 32.96, 60 33.75 S 63.54 39.11, 65 38.75 S 68.5 31.25, 70 31.25 S 73.8 37.85, 75 38.75 S 78.5 38.75, 80 38.75 S 83.5 38.75, 85 38.75 S 88.6 39.28, 90 38.75 S 93.8 35.9, 95 35 S 99.44 32.64, 100 31.25 S 103.51 9.81, 105 10 S 109.51 31.08, 110 32.5 S 113.6 38.22, 115 38.75 S 118.8 37.15, 120 36.25 S 123.54 30.89, 125 31.25 S 128.8 37.85, 130 38.75 S 133.5 38.75, 135 38.75 S 138.5 38.75, 140 38.75 S 143.5 38.75, 145 38.75 S 148.54 39.11, 150 38.75 S 153.5 36.25, 155 36.25 S 158.54 38.39, 160 38.75 S 163.6 39.28, 165 38.75 S 168.6 35.53, 170 35 S 173.5 35, 175 35 S 178.54 34.64, 180 35 S 183.5 37.5, 185 37.5 S 188.51 34.81, 190 35 S 193.54 38.39, 195 38.75 S 198.51 37.69, 200 37.5 S 203.5 37.5, 205 37.5"
          fill="none"/>
    <circle r="4" cx="5" cy="40" fill="#3023AE"/>
    <circle r="4" cx="205" cy="37.5" fill="#C86DD7"/>      
</svg>