<svg width="200" height="50" viewBox="0 0 210 50" xmlns="http://www.w3.org/2000/svg">
    <defs>
        <linearGradient x1="0%" y1="0%" x2="100%" y2="0%" id="a">
            <stop stop-color="#3023AE" offset="0%"/>
            <stop stop-color="#C86DD7" offset="100%"/>
        </linearGradient>
    </defs>
    <path stroke="url(#a)"
          stroke-width="3"
          stroke-linejoin="round"
          stroke-linecap="round"
          d="M5 40 C 5.9 38.8, 9.08 34.47, 10 33.28 S 13.9 28.09, 15 27.07 S 18.73 24.76, 20 23.97 S 23.51 20.71, 25 20.86 S 28.51 24.84, 30 25 S 33.79 22.78, 35 21.9 S 38.67 18.45, 40 17.76 S 43.51 16.88, 45 16.72 S 48.5 16.64, 50 16.72 S 53.55 17.61, 55 17.24 S 58.57 14.58, 60 14.14 S 63.81 13.22, 65 14.14 S 68.5 21.82, 70 21.9 S 73.76 15.5, 75 14.66 S 78.61 14.6, 80 15.17 S 83.64 18.16, 85 18.79 S 88.61 20.4, 90 19.83 S 93.59 15.17, 95 14.66 S 98.64 16.84, 100 16.21 S 103.7 9.26, 105 10 S 108.57 21.46, 110 21.9 S 113.96 14.18, 115 13.1 S 118.52 11.78, 120 11.55 S 124.13 10.33, 125 11.55 S 128.7 24.78, 130 25.52 S 133.98 18.34, 135 17.24 S 138.76 13.82, 140 14.66 S 143.51 24.13, 145 23.97 S 148.81 14.54, 150 13.62 S 153.57 15.77, 155 16.21 S 159.08 15.53, 160 16.72 S 163.87 28.15, 165 29.14 S 168.52 25.75, 170 25.52 S 173.52 27.36, 175 27.59 S 178.52 27.3, 180 27.07 S 183.81 25.11, 185 26.03 S 188.55 34.45, 190 34.83 S 193.57 29.07, 195 28.62 S 198.5 31.72, 200 31.72 S 203.73 29.41, 205 28.62"
          fill="none"/>
    <circle r="4" cx="5" cy="40" fill="#3023AE"/>
    <circle r="4" cx="205" cy="28.619999999999997" fill="#C86DD7"/>      
</svg>