<svg width="200" height="50" viewBox="0 0 210 50" xmlns="http://www.w3.org/2000/svg">
    <defs>
        <linearGradient x1="0%" y1="0%" x2="100%" y2="0%" id="a">
            <stop stop-color="#3023AE" offset="0%"/>
            <stop stop-color="#C86DD7" offset="100%"/>
        </linearGradient>
    </defs>
    <path stroke="url(#a)"
          stroke-width="3"
          stroke-linejoin="round"
          stroke-linecap="round"
          d="M5 40 C 6.36 39.37, 8.5 37.81, 10 37.69 S 13.52 39, 15 39.23 S 18.5 39.35, 20 39.23 S 24.51 39.88, 25 38.46 S 28.5 10, 30 10 S 34.42 37.08, 35 38.46 S 38.5 33.85, 40 33.85 S 43.68 37.75, 45 38.46 S 48.52 39.46, 50 39.23 S 53.52 37.15, 55 36.92 S 58.54 37.35, 60 37.69 S 63.52 39, 65 39.23 S 68.5 39.23, 70 39.23 S 73.5 39.23, 75 39.23 S 78.5 39.23, 80 39.23 S 83.5 39.35, 85 39.23 S 88.5 38.46, 90 38.46 S 93.5 39.11, 95 39.23 S 98.5 39.23, 100 39.23 S 103.5 39.35, 105 39.23 S 108.5 38.46, 110 38.46 S 113.5 39.11, 115 39.23 S 118.5 39.23, 120 39.23 S 123.5 39.23, 125 39.23 S 128.5 39.23, 130 39.23 S 133.5 39.23, 135 39.23 S 138.5 39.23, 140 39.23 S 143.5 39.23, 145 39.23 S 148.5 39.23, 150 39.23 S 153.5 39.23, 155 39.23 S 158.5 39.23, 160 39.23 S 163.5 39.23, 165 39.23 S 168.5 39.23, 170 39.23 S 173.5 39.23, 175 39.23"
          fill="none"/>
    <circle r="4" cx="5" cy="40" fill="#3023AE"/>
    <circle r="4" cx="175" cy="39.23" fill="#C86DD7"/>      
</svg>