<svg width="200" height="50" viewBox="0 0 210 50" xmlns="http://www.w3.org/2000/svg">
    <defs>
        <linearGradient x1="0%" y1="0%" x2="100%" y2="0%" id="a">
            <stop stop-color="#3023AE" offset="0%"/>
            <stop stop-color="#C86DD7" offset="100%"/>
        </linearGradient>
    </defs>
    <path stroke="url(#a)"
          stroke-width="3"
          stroke-linejoin="round"
          stroke-linecap="round"
          d="M5 40 C 6.48 39.75, 8.5 39.2, 10 39.14 S 13.5 39.51, 15 39.57 S 18.5 39.57, 20 39.57 S 23.5 39.57, 25 39.57 S 28.5 39.57, 30 39.57 S 33.5 39.57, 35 39.57 S 38.5 39.57, 40 39.57 S 43.5 39.57, 45 39.57 S 48.5 39.57, 50 39.57 S 53.5 39.57, 55 39.57 S 58.5 39.57, 60 39.57 S 63.51 39.76, 65 39.57 S 68.52 38.54, 70 38.29 S 73.52 38.11, 75 37.86 S 78.62 37.16, 80 36.57 S 84 34.69, 85 33.57 S 88.98 26.53, 90 25.43 S 93.52 23.11, 95 22.86 S 98.55 24.08, 100 23.71 S 103.6 20.83, 105 20.29 S 108.53 20.18, 110 19.86 S 113.51 18.01, 115 18.14 S 118.55 21.08, 120 20.71 S 123.67 16.26, 125 15.57 S 128.51 15.7, 130 15.57 S 133.69 15.44, 135 14.71 S 138.62 9.41, 140 10 S 143.79 18.12, 145 19 S 148.84 18.24, 150 17.29 S 153.5 10.86, 155 10.86 S 158.89 16.29, 160 17.29 S 163.58 19.37, 165 19.86 S 168.71 21.48, 170 20.71 S 173.55 14.23, 175 13.86 S 178.76 17.29, 180 18.14 S 183.69 21.44, 185 20.71 S 188.5 12.63, 190 12.57 S 193.55 20.66, 195 20.29 S 198.86 10.98, 200 10 S 203.58 11.22, 205 11.71"
          fill="none"/>
    <circle r="4" cx="5" cy="40" fill="#3023AE"/>
    <circle r="4" cx="205" cy="11.71" fill="#C86DD7"/>      
</svg>