<svg width="200" height="50" viewBox="0 0 210 50" xmlns="http://www.w3.org/2000/svg">
    <defs>
        <linearGradient x1="0%" y1="0%" x2="100%" y2="0%" id="a">
            <stop stop-color="#3023AE" offset="0%"/>
            <stop stop-color="#C86DD7" offset="100%"/>
        </linearGradient>
    </defs>
    <path stroke="url(#a)"
          stroke-width="3"
          stroke-linejoin="round"
          stroke-linecap="round"
          d="M5 40 C 5.29 38.53, 8.66 15.67, 10 15 S 14.33 33.66, 15 35 S 18.5 35, 20 35 S 23.5 35, 25 35 S 28.5 35, 30 35 S 33.5 35, 35 35 S 38.5 35, 40 35 S 43.5 35, 45 35 S 48.5 35, 50 35 S 53.5 35, 55 35 S 58.5 35, 60 35 S 63.66 35.67, 65 35 S 68.94 31.06, 70 30 S 73.94 26.06, 75 25 S 78.94 18.94, 80 20 S 83.94 33.94, 85 35 S 88.66 30.67, 90 30 S 93.66 29.33, 95 30 S 98.66 34.33, 100 35 S 103.5 35, 105 35 S 108.5 35, 110 35 S 113.66 35.67, 115 35 S 118.5 30, 120 30 S 123.66 34.33, 125 35 S 128.5 35, 130 35 S 134.17 36.25, 135 35 S 138.66 20.67, 140 20 S 143.94 31.06, 145 30 S 148.66 9.33, 150 10 S 154.33 33.66, 155 35 S 159.17 31.25, 160 30 S 163.66 19.33, 165 20 S 169.17 33.75, 170 35 S 173.5 35, 175 35 S 178.66 35.67, 180 35 S 184.44 31.39, 185 30 S 188.94 11.06, 190 10 S 194.33 18.66, 195 20 S 198.5 30, 200 30 S 204.33 21.34, 205 20"
          fill="none"/>
    <circle r="4" cx="5" cy="40" fill="#3023AE"/>
    <circle r="4" cx="205" cy="20" fill="#C86DD7"/>      
</svg>