<svg width="200" height="50" viewBox="0 0 210 50" xmlns="http://www.w3.org/2000/svg">
    <defs>
        <linearGradient x1="0%" y1="0%" x2="100%" y2="0%" id="a">
            <stop stop-color="#3023AE" offset="0%"/>
            <stop stop-color="#C86DD7" offset="100%"/>
        </linearGradient>
    </defs>
    <path stroke="url(#a)"
          stroke-width="3"
          stroke-linejoin="round"
          stroke-linecap="round"
          d="M5 40 C 5.96 38.85, 9.38 35.36, 10 34 S 13.56 17.73, 15 18.13 S 19.27 35.48, 20 36.79 S 24.48 37.64, 25 36.23 S 28.53 10.28, 30 10 S 34.43 32.97, 35 34.36 S 38.55 34.86, 40 34.48 S 43.5 31.84, 45 31.76 S 49.25 35.26, 50 33.96 S 53.5 14.36, 55 14.34 S 59.28 32.51, 60 33.83 S 63.5 32.71, 65 32.61 S 68.5 33.01, 70 33.13 S 73.54 33.72, 75 33.38 S 78.8 31.72, 80 30.81 S 83.62 26.4, 85 25.81 S 88.77 27.35, 90 26.5 S 94.03 20.03, 95 18.89 S 98.93 13.73, 100 14.78 S 104.21 27.43, 105 28.71 S 108.52 31.18, 110 30.95 S 113.51 27.29, 115 27.15 S 118.53 29.7, 120 29.99 S 123.5 29.23, 125 29.11 S 128.5 29.26, 130 29.18 S 133.54 28.88, 135 28.55 S 138.5 27.05, 140 26.93 S 143.55 27.35, 145 27.74 S 148.5 29.65, 150 29.6 S 153.5 27.43, 155 27.42 S 158.52 29.28, 160 29.54 S 163.52 29.44, 165 29.18 S 168.54 28.11, 170 27.76 S 173.51 26.95, 175 26.8 S 178.5 26.76, 180 26.73 S 183.56 27.01, 185 26.6 S 188.85 24.85, 190 23.88 S 193.61 17.61, 195 18.17 S 198.95 26.8, 200 27.87 S 203.51 28.16, 205 28.28"
          fill="none"/>
    <circle r="4" cx="5" cy="40" fill="#3023AE"/>
    <circle r="4" cx="205" cy="28.28" fill="#C86DD7"/>      
</svg>