<svg width="200" height="50" viewBox="0 0 210 50" xmlns="http://www.w3.org/2000/svg">
    <defs>
        <linearGradient x1="0%" y1="0%" x2="100%" y2="0%" id="a">
            <stop stop-color="#3023AE" offset="0%"/>
            <stop stop-color="#C86DD7" offset="100%"/>
        </linearGradient>
    </defs>
    <path stroke="url(#a)"
          stroke-width="3"
          stroke-linejoin="round"
          stroke-linecap="round"
          d="M5 40 C 6.5 40, 8.5 39.99, 10 39.99 S 13.5 39.99, 15 39.99 S 18.5 39.99, 20 39.99 S 23.5 39.99, 25 39.99 S 28.5 39.99, 30 39.99 S 33.5 39.99, 35 39.99 S 38.5 39.99, 40 39.99 S 43.5 39.99, 45 39.99 S 48.5 39.99, 50 39.99 S 53.5 39.99, 55 39.99 S 58.5 39.99, 60 39.99 S 63.5 39.99, 65 39.99 S 69.53 41.41, 70 39.99 S 73.54 10.34, 75 10 S 79.49 36.24, 80 37.65 S 83.51 37.47, 85 37.63 S 88.5 38.66, 90 38.71 S 93.5 37.97, 95 37.98 S 98.51 38.63, 100 38.78 S 103.5 39, 105 39 S 108.51 38.97, 110 38.79 S 113.5 37.84, 115 37.8 S 118.5 38.38, 120 38.5 S 123.51 38.73, 125 38.6 S 128.51 37.8, 130 37.65 S 133.5 37.53, 135 37.59 S 138.5 37.97, 140 38.03 S 143.51 38.14, 145 38 S 148.55 37.49, 150 37.12 S 153.5 35.36, 155 35.42 S 158.54 37.16, 160 37.49 S 163.5 37.77, 165 37.7 S 168.5 36.95, 170 37.02 S 173.51 37.95, 175 38.15 S 178.5 38.35, 180 38.34 S 183.52 38.3, 185 38.08 S 188.5 36.87, 190 36.86 S 193.5 38.01, 195 38.02 S 198.5 37, 200 36.91 S 203.51 37.25, 205 37.4"
          fill="none"/>
    <circle r="4" cx="5" cy="40" fill="#3023AE"/>
    <circle r="4" cx="205" cy="37.4" fill="#C86DD7"/>      
</svg>