<svg width="200" height="50" viewBox="0 0 210 50" xmlns="http://www.w3.org/2000/svg">
    <defs>
        <linearGradient x1="0%" y1="0%" x2="100%" y2="0%" id="a">
            <stop stop-color="#3023AE" offset="0%"/>
            <stop stop-color="#C86DD7" offset="100%"/>
        </linearGradient>
    </defs>
    <path stroke="url(#a)"
          stroke-width="3"
          stroke-linejoin="round"
          stroke-linecap="round"
          d="M5 40 C 6.5 40, 8.5 39.99, 10 39.99 S 13.5 39.99, 15 39.99 S 18.5 39.99, 20 39.99 S 23.5 39.99, 25 39.99 S 28.5 39.99, 30 39.99 S 33.5 39.99, 35 39.99 S 38.5 39.99, 40 39.99 S 43.5 39.99, 45 39.99 S 48.5 39.99, 50 39.99 S 53.5 39.99, 55 39.99 S 58.5 39.99, 60 39.99 S 63.5 39.99, 65 39.99 S 68.5 39.99, 70 39.99 S 73.5 39.99, 75 39.99 S 78.5 39.99, 80 39.99 S 84.53 41.41, 85 39.99 S 88.54 10.33, 90 10 S 94.5 36.29, 95 37.7 S 98.5 37.86, 100 37.97 S 103.51 38.32, 105 38.46 S 108.5 38.89, 110 38.89 S 113.5 38.49, 115 38.45 S 118.5 38.49, 120 38.59 S 123.5 39.03, 125 39.12 S 128.5 39.19, 130 39.17 S 133.51 39.12, 135 38.97 S 138.5 38.22, 140 38.16 S 143.5 38.47, 145 38.59 S 148.5 38.93, 150 38.94 S 153.51 38.79, 155 38.63 S 158.5 37.98, 160 37.89 S 163.5 37.98, 165 38.02 S 168.5 38.09, 170 38.15 S 173.5 38.39, 175 38.41 S 178.51 38.46, 180 38.3 S 183.55 37.68, 185 37.31 S 188.5 35.66, 190 35.76 S 193.54 37.6, 195 37.95 S 198.5 38.18, 200 38.15 S 203.51 37.85, 205 37.72"
          fill="none"/>
    <circle r="4" cx="5" cy="40" fill="#3023AE"/>
    <circle r="4" cx="205" cy="37.72" fill="#C86DD7"/>      
</svg>