<svg width="200" height="50" viewBox="0 0 210 50" xmlns="http://www.w3.org/2000/svg">
    <defs>
        <linearGradient x1="0%" y1="0%" x2="100%" y2="0%" id="a">
            <stop stop-color="#3023AE" offset="0%"/>
            <stop stop-color="#C86DD7" offset="100%"/>
        </linearGradient>
    </defs>
    <path stroke="url(#a)"
          stroke-width="3"
          stroke-linejoin="round"
          stroke-linecap="round"
          d="M5 40 C 5.54 38.6, 8.53 27.35, 10 27.05 S 14.05 36.79, 15 37.95 S 18.5 39.22, 20 39.32 S 23.5 38.74, 25 38.64 S 28.5 38.54, 30 38.64 S 33.58 39.8, 35 39.32 S 38.68 35.95, 40 35.23 S 43.5 33.96, 45 33.86 S 48.53 34.85, 50 34.55 S 53.68 32.54, 55 31.82 S 58.58 29.57, 60 29.09 S 63.95 29.48, 65 28.41 S 68.95 19.93, 70 18.86 S 73.5 18.18, 75 18.18 S 78.55 19.26, 80 18.86 S 83.53 15.15, 85 15.45 S 88.58 21.39, 90 20.91 S 93.58 12.53, 95 12.05 S 98.5 17.5, 100 17.5 S 103.5 12.15, 105 12.05 S 108.51 17.02, 110 16.82 S 113.61 11.25, 115 10.68 S 118.88 11.73, 120 12.73 S 123.99 18.44, 125 19.55 S 128.92 24.68, 130 23.64 S 134.11 11.21, 135 10 S 138.84 9.05, 140 10 S 143.58 17.7, 145 18.18 S 148.53 13.11, 150 13.41 S 153.76 19.38, 155 20.23 S 158.5 20.33, 160 20.23 S 163.84 18.6, 165 19.55 S 168.68 27.69, 170 28.41 S 173.72 25.78, 175 25 S 178.72 21.49, 180 22.27 S 183.76 30.29, 185 31.14 S 188.5 29.09, 190 29.09 S 193.53 30.84, 195 31.14 S 198.53 31.44, 200 31.14 S 203.61 29.66, 205 29.09"
          fill="none"/>
    <circle r="4" cx="5" cy="40" fill="#3023AE"/>
    <circle r="4" cx="205" cy="29.09" fill="#C86DD7"/>      
</svg>