<svg width="200" height="50" viewBox="0 0 210 50" xmlns="http://www.w3.org/2000/svg">
    <defs>
        <linearGradient x1="0%" y1="0%" x2="100%" y2="0%" id="a">
            <stop stop-color="#3023AE" offset="0%"/>
            <stop stop-color="#C86DD7" offset="100%"/>
        </linearGradient>
    </defs>
    <path stroke="url(#a)"
          stroke-width="3"
          stroke-linejoin="round"
          stroke-linecap="round"
          d="M5 40 C 5.93 38.82, 8.51 33.87, 10 33.68 S 13.63 38.13, 15 38.74 S 18.5 38.11, 20 38.11 S 23.53 39.02, 25 38.74 S 28.56 36.62, 30 36.21 S 33.51 35.75, 35 35.89 S 38.53 37.44, 40 37.16 S 43.71 34.77, 45 34 S 48.51 31.35, 50 31.16 S 53.5 32.69, 55 32.74 S 58.58 30.98, 60 31.47 S 63.51 36.02, 65 36.21 S 68.73 33.54, 70 32.74 S 73.5 29.98, 75 29.89 S 78.64 31.47, 80 32.11 S 83.54 34.31, 85 34.63 S 88.57 34.77, 90 34.32 S 93.6 32, 95 31.47 S 98.51 30.39, 100 30.53 S 103.53 32.14, 105 32.42 S 109.29 33.74, 110 32.42 S 114.22 15.07, 115 13.79 S 118.88 15.01, 120 16 S 123.66 21.95, 125 22.63 S 128.53 21.33, 130 21.05 S 133.5 20.65, 135 20.74 S 138.51 21.49, 140 21.68 S 143.63 22.61, 145 22 S 148.6 17.79, 150 17.26 S 153.64 18.85, 155 18.21 S 158.5 12.53, 160 12.53 S 163.56 17.8, 165 18.21 S 168.54 15.69, 170 15.37 S 173.53 15.72, 175 16 S 178.53 17.54, 180 17.26 S 183.79 14.99, 185 14.11 S 188.52 9.77, 190 10 S 193.7 14.94, 195 15.68 S 198.54 15.36, 200 15.68 S 203.63 17.28, 205 17.89"
          fill="none"/>
    <circle r="4" cx="5" cy="40" fill="#3023AE"/>
    <circle r="4" cx="205" cy="17.89" fill="#C86DD7"/>      
</svg>