<svg width="200" height="50" viewBox="0 0 210 50" xmlns="http://www.w3.org/2000/svg">
    <defs>
        <linearGradient x1="0%" y1="0%" x2="100%" y2="0%" id="a">
            <stop stop-color="#3023AE" offset="0%"/>
            <stop stop-color="#C86DD7" offset="100%"/>
        </linearGradient>
    </defs>
    <path stroke="url(#a)"
          stroke-width="3"
          stroke-linejoin="round"
          stroke-linecap="round"
          d="M5 40 C 6.49 39.82, 8.5 39.45, 10 39.39 S 13.5 39.59, 15 39.58 S 18.5 39.33, 20 39.35 S 23.5 39.79, 25 39.72 S 28.86 39.86, 30 38.88 S 33.65 31.76, 35 31.1 S 38.5 34.1, 40 33.99 S 43.56 30.76, 45 30.36 S 48.51 31.03, 50 31.2 S 53.5 31.56, 55 31.48 S 59.37 32, 60 30.64 S 63.53 10.28, 65 10 S 69.32 27.43, 70 28.77 S 73.57 29.16, 75 29.61 S 78.52 31.62, 80 31.89 S 83.5 31.53, 85 31.43 S 88.5 31.36, 90 31.24 S 93.5 30.72, 95 30.64 S 98.55 31.13, 100 30.73 S 103.51 27.74, 105 27.89 S 108.5 31.78, 110 31.71 S 113.61 27.97, 115 27.42 S 118.5 27.66, 120 27.75 S 123.5 28.12, 125 28.03 S 128.59 26.62, 130 27.14 S 133.51 31.9, 135 31.75 S 138.6 26.66, 140 26.12 S 143.5 27.85, 145 27.89 S 148.58 26.87, 150 26.4 S 154.14 25.81, 155 24.58 S 158.51 11.86, 160 12.05 S 164.29 24.57, 165 25.89 S 168.58 30.25, 170 30.73 S 173.52 29.46, 175 29.24 S 178.51 29.43, 180 29.24 S 183.5 28.01, 185 27.98 S 188.78 29.93, 190 29.05 S 193.73 21.56, 195 20.76 S 198.86 21.75, 200 22.72 S 204.09 28.05, 205 29.24"
          fill="none"/>
    <circle r="4" cx="5" cy="40" fill="#3023AE"/>
    <circle r="4" cx="205" cy="29.240000000000002" fill="#C86DD7"/>      
</svg>