<svg width="200" height="50" viewBox="0 0 210 50" xmlns="http://www.w3.org/2000/svg">
    <defs>
        <linearGradient x1="0%" y1="0%" x2="100%" y2="0%" id="a">
            <stop stop-color="#3023AE" offset="0%"/>
            <stop stop-color="#C86DD7" offset="100%"/>
        </linearGradient>
    </defs>
    <path stroke="url(#a)"
          stroke-width="3"
          stroke-linejoin="round"
          stroke-linecap="round"
          d="M5 40 C 6.45 39.62, 8.52 38.96, 10 38.7 S 13.5 38.26, 15 38.26 S 18.5 38.7, 20 38.7 S 23.51 38.45, 25 38.26 S 28.5 37.39, 30 37.39 S 33.51 38.13, 35 38.26 S 38.51 38.07, 40 38.26 S 43.51 39.38, 45 39.57 S 48.53 39.89, 50 39.57 S 53.5 37.46, 55 37.39 S 58.53 38.81, 60 39.13 S 63.51 39.7, 65 39.57 S 68.55 38.64, 70 38.26 S 73.5 37.02, 75 36.96 S 78.6 38.38, 80 37.83 S 83.52 32.78, 85 33.04 S 88.74 38.75, 90 39.57 S 93.6 40.12, 95 39.57 S 98.58 36.14, 100 35.65 S 103.55 35.71, 105 36.09 S 108.5 38.2, 110 38.26 S 113.51 36.65, 115 36.52 S 118.55 37.01, 120 37.39 S 123.52 38.87, 125 39.13 S 128.5 39.13, 130 39.13 S 134.51 40.55, 135 39.13 S 138.55 10.38, 140 10 S 144.46 35.12, 145 36.52 S 148.51 35.52, 150 35.65 S 153.69 38.13, 155 37.39 S 158.53 29.68, 160 30 S 163.72 38.79, 165 39.57 S 168.53 36.41, 170 36.09 S 173.53 37.07, 175 37.39 S 178.51 38.07, 180 38.26 S 183.5 38.76, 185 38.7 S 188.53 38.15, 190 37.83 S 193.55 36.9, 195 36.52 S 198.53 34.9, 200 35.22 S 203.77 37.84, 205 38.7"
          fill="none"/>
    <circle r="4" cx="5" cy="40" fill="#3023AE"/>
    <circle r="4" cx="205" cy="38.7" fill="#C86DD7"/>      
</svg>