<svg width="200" height="50" viewBox="0 0 210 50" xmlns="http://www.w3.org/2000/svg">
    <defs>
        <linearGradient x1="0%" y1="0%" x2="100%" y2="0%" id="a">
            <stop stop-color="#3023AE" offset="0%"/>
            <stop stop-color="#C86DD7" offset="100%"/>
        </linearGradient>
    </defs>
    <path stroke="url(#a)"
          stroke-width="3"
          stroke-linejoin="round"
          stroke-linecap="round"
          d="M5 40 C 5.54 38.6, 9.3 28.24, 10 26.91 S 13.64 20.33, 15 20.96 S 18.97 30.45, 20 31.54 S 23.71 30.82, 25 31.58 S 28.77 36.55, 30 37.41 S 33.52 38.32, 35 38.57 S 38.5 39.1, 40 39.09 S 44.01 39.62, 45 38.5 S 48.52 28.02, 50 27.79 S 53.98 35.85, 55 36.95 S 58.54 38.33, 60 38.67 S 63.51 39.17, 65 39.31 S 68.5 39.56, 70 39.58 S 73.51 39.63, 75 39.46 S 78.5 38.5, 80 38.43 S 83.5 39.03, 85 39.02 S 88.66 39.01, 90 38.34 S 93.5 34.1, 95 34.01 S 98.66 37.1, 100 37.77 S 103.52 38.82, 105 39.04 S 108.5 39.38, 110 39.27 S 113.5 38.3, 115 38.29 S 118.51 39, 120 39.2 S 123.5 39.59, 125 39.66 S 128.5 39.71, 130 39.7 S 133.5 39.61, 135 39.6 S 138.5 39.65, 140 39.62 S 143.52 39.67, 145 39.42 S 148.5 37.91, 150 37.93 S 153.52 39.31, 155 39.55 S 158.5 39.54, 160 39.57 S 163.5 39.71, 165 39.73 S 168.5 39.73, 170 39.73 S 173.5 39.75, 175 39.75 S 178.5 39.75, 180 39.76 S 183.5 39.8, 185 39.8 S 188.65 40.4, 190 39.75 S 194.52 36.39, 195 34.97 S 198.5 9.9, 200 10 S 204.71 34.2, 205 35.67"
          fill="none"/>
    <circle r="4" cx="5" cy="40" fill="#3023AE"/>
    <circle r="4" cx="205" cy="35.67" fill="#C86DD7"/>      
</svg>