<svg width="200" height="50" viewBox="0 0 210 50" xmlns="http://www.w3.org/2000/svg">
    <defs>
        <linearGradient x1="0%" y1="0%" x2="100%" y2="0%" id="a">
            <stop stop-color="#3023AE" offset="0%"/>
            <stop stop-color="#C86DD7" offset="100%"/>
        </linearGradient>
    </defs>
    <path stroke="url(#a)"
          stroke-width="3"
          stroke-linejoin="round"
          stroke-linecap="round"
          d="M5 40 C 5.25 38.52, 8.63 10.62, 10 10 S 14.5 34.05, 15 35.46 S 18.54 38.62, 20 38.29 S 23.5 33.31, 25 33.22 S 28.65 37.05, 30 37.7 S 33.5 37.99, 35 38.06 S 38.51 38.35, 40 38.2 S 43.66 37.71, 45 37.03 S 48.51 32.94, 50 33.11 S 53.65 37.55, 55 38.2 S 58.87 38.94, 60 37.95 S 63.83 30.35, 65 29.41 S 68.77 29.07, 70 29.92 S 73.56 35.91, 75 36.33 S 78.5 32.86, 80 32.84 S 83.51 36.04, 85 36.21 S 88.51 34.15, 90 33.95 S 93.51 34.71, 95 34.84 S 98.5 34.73, 100 34.8 S 103.51 35.44, 105 35.28 S 108.81 34.64, 110 33.73 S 113.51 27.5, 115 27.66 S 118.77 33.92, 120 34.78 S 123.51 34.48, 125 34.68 S 128.52 35.85, 130 36.1 S 133.5 36.42, 135 36.35 S 138.5 35.66, 140 35.6 S 143.5 36.01, 145 35.92 S 148.5 34.89, 150 34.98 S 153.52 36.25, 155 36.49 S 158.5 36.58, 160 36.62 S 163.5 36.8, 165 36.78 S 168.5 36.51, 170 36.51 S 173.5 36.77, 175 36.78 S 178.51 36.76, 180 36.56 S 183.5 35.48, 185 35.41 S 188.5 36.06, 190 36.12 S 193.5 35.87, 195 35.8 S 198.51 35.77, 200 35.64 S 203.52 35.13, 205 34.91"
          fill="none"/>
    <circle r="4" cx="5" cy="40" fill="#3023AE"/>
    <circle r="4" cx="205" cy="34.91" fill="#C86DD7"/>      
</svg>