<svg width="200" height="50" viewBox="0 0 210 50" xmlns="http://www.w3.org/2000/svg">
    <defs>
        <linearGradient x1="0%" y1="0%" x2="100%" y2="0%" id="a">
            <stop stop-color="#3023AE" offset="0%"/>
            <stop stop-color="#C86DD7" offset="100%"/>
        </linearGradient>
    </defs>
    <path stroke="url(#a)"
          stroke-width="3"
          stroke-linejoin="round"
          stroke-linecap="round"
          d="M5 40 C 5.44 38.57, 9.36 25.11, 10 23.75 S 13.61 19.3, 15 18.73 S 18.51 19.39, 20 19.6 S 23.53 20.42, 25 20.15 S 28.57 18.2, 30 17.75 S 33.51 16.85, 35 16.98 S 38.66 17.95, 40 18.62 S 43.56 22.41, 45 22 S 48.51 15.96, 50 15.78 S 53.61 20.24, 55 20.8 S 58.52 20.06, 60 19.82 S 63.53 18.89, 65 19.16 S 68.5 21.77, 70 21.67 S 73.55 18.88, 75 18.51 S 78.51 19.35, 80 19.16 S 83.51 17.01, 85 17.2 S 88.51 20.66, 90 20.47 S 93.5 15.97, 95 15.89 S 98.69 19.2, 100 19.93 S 103.55 21.82, 105 21.45 S 108.78 18.29, 110 17.42 S 113.58 14.84, 115 14.36 S 118.51 14.25, 120 14.04 S 123.72 12.17, 125 12.95 S 128.65 19.49, 130 20.15 S 133.51 18.01, 135 17.85 S 138.54 19.4, 140 19.05 S 143.6 16, 145 15.45 S 148.6 14.58, 150 15.13 S 153.55 18.99, 155 19.38 S 158.53 18.15, 160 17.85 S 163.56 17.72, 165 17.31 S 168.53 15.34, 170 15.02 S 173.5 15.02, 175 15.13 S 178.5 15.81, 180 15.78 S 183.7 15.66, 185 14.91 S 188.52 10.23, 190 10 S 193.58 12.89, 195 13.38 S 198.51 13.36, 200 13.49 S 203.52 14.02, 205 14.25"
          fill="none"/>
    <circle r="4" cx="5" cy="40" fill="#3023AE"/>
    <circle r="4" cx="205" cy="14.25" fill="#C86DD7"/>      
</svg>