<svg width="200" height="50" viewBox="0 0 210 50" xmlns="http://www.w3.org/2000/svg">
    <defs>
        <linearGradient x1="0%" y1="0%" x2="100%" y2="0%" id="a">
            <stop stop-color="#3023AE" offset="0%"/>
            <stop stop-color="#C86DD7" offset="100%"/>
        </linearGradient>
    </defs>
    <path stroke="url(#a)"
          stroke-width="3"
          stroke-linejoin="round"
          stroke-linecap="round"
          d="M5 40 C 6.5 39.99, 9.39 41.34, 10 39.97 S 14.14 18.85, 15 17.62 S 18.91 24.77, 20 25.8 S 23.5 26.97, 25 27.09 S 28.62 27.18, 30 26.6 S 33.55 23.25, 35 22.88 S 38.57 23.61, 40 24.06 S 43.58 25.56, 45 26.04 S 48.5 27.41, 50 27.47 S 53.52 26.68, 55 26.43 S 58.63 26.41, 60 25.8 S 63.59 22.45, 65 21.94 S 68.67 22.88, 70 22.18 S 73.51 16.84, 75 16.68 S 78.84 20.19, 80 21.14 S 83.51 24.77, 85 24.93 S 88.71 22.94, 90 22.18 S 93.94 20.07, 95 19.01 S 98.5 12.14, 100 12.19 S 103.57 18.88, 105 19.33 S 108.5 15.36, 110 15.32 S 113.71 18.29, 115 19.05 S 118.65 21.86, 120 21.21 S 123.56 14.68, 125 14.28 S 128.64 17.79, 130 18.42 S 133.5 18.8, 135 18.91 S 138.63 19.77, 140 19.15 S 143.68 15.11, 145 14.39 S 148.56 13.27, 150 13.69 S 153.69 16.61, 155 17.34 S 158.54 19.62, 160 19.29 S 163.66 15.76, 165 15.08 S 168.66 14.91, 170 14.25 S 173.55 9.74, 175 10.14 S 178.57 16.58, 180 17.03 S 183.53 13.55, 185 13.27 S 188.57 15.62, 190 15.15 S 193.51 9.85, 195 10 S 198.51 16.02, 200 16.16 S 203.96 12.05, 205 10.97"
          fill="none"/>
    <circle r="4" cx="5" cy="40" fill="#3023AE"/>
    <circle r="4" cx="205" cy="10.969999999999999" fill="#C86DD7"/>      
</svg>