<svg width="200" height="50" viewBox="0 0 210 50" xmlns="http://www.w3.org/2000/svg">
    <defs>
        <linearGradient x1="0%" y1="0%" x2="100%" y2="0%" id="a">
            <stop stop-color="#3023AE" offset="0%"/>
            <stop stop-color="#C86DD7" offset="100%"/>
        </linearGradient>
    </defs>
    <path stroke="url(#a)"
          stroke-width="3"
          stroke-linejoin="round"
          stroke-linecap="round"
          d="M5 40 C 5.56 38.61, 8.51 27.83, 10 27.63 S 13.99 37.53, 15 38.64 S 18.72 39.46, 20 38.68 S 23.5 32.51, 25 32.56 S 29.39 40.39, 30 39.02 S 33.51 10.19, 35 10 S 39.49 36.3, 40 37.71 S 43.5 37.58, 45 37.63 S 48.51 37.94, 50 38.06 S 53.5 38.45, 55 38.45 S 58.51 38.2, 60 38.03 S 63.5 37.4, 65 37.34 S 68.5 37.61, 70 37.6 S 73.62 37.83, 75 37.25 S 78.52 33.13, 80 33.37 S 83.68 38.14, 85 38.86 S 88.5 38.82, 90 38.83 S 93.5 38.86, 95 38.9 S 98.5 39.05, 100 39.08 S 103.5 39.05, 105 39.07 S 108.5 39.22, 110 39.19 S 113.5 38.88, 115 38.88 S 118.5 39.15, 120 39.19 S 123.5 39.14, 125 39.13 S 128.5 39.05, 130 39.1 S 133.5 39.43, 135 39.44 S 138.5 39.12, 140 39.14 S 143.5 39.53, 145 39.56 S 148.5 39.39, 150 39.35 S 153.5 39.36, 155 39.3 S 158.5 38.95, 160 38.93 S 163.5 39.16, 165 39.16 S 168.5 39.01, 170 38.96 S 173.5 38.84, 175 38.85 S 178.5 38.98, 180 39.04 S 183.5 39.21, 185 39.26 S 188.5 39.34, 190 39.35 S 193.5 39.36, 195 39.33 S 198.5 39.14, 200 39.16 S 203.5 39.38, 205 39.47"
          fill="none"/>
    <circle r="4" cx="5" cy="40" fill="#3023AE"/>
    <circle r="4" cx="205" cy="39.47" fill="#C86DD7"/>      
</svg>