<svg width="200" height="50" viewBox="0 0 210 50" xmlns="http://www.w3.org/2000/svg">
    <defs>
        <linearGradient x1="0%" y1="0%" x2="100%" y2="0%" id="a">
            <stop stop-color="#3023AE" offset="0%"/>
            <stop stop-color="#C86DD7" offset="100%"/>
        </linearGradient>
    </defs>
    <path stroke="url(#a)"
          stroke-width="3"
          stroke-linejoin="round"
          stroke-linecap="round"
          d="M5 40 C 5.25 38.52, 8.55 10.39, 10 10 S 14.5 35.87, 15 37.28 S 18.5 38.3, 20 38.38 S 23.5 37.88, 25 37.82 S 28.5 37.92, 30 37.96 S 33.5 38.06, 35 38.11 S 38.52 38.54, 40 38.32 S 43.5 36.72, 45 36.63 S 48.52 37.49, 50 37.74 S 53.5 38.23, 55 38.31 S 58.5 38.25, 60 38.28 S 63.5 38.57, 65 38.52 S 68.5 37.95, 70 37.92 S 73.5 38.29, 75 38.33 S 78.5 38.24, 80 38.21 S 83.5 38.14, 85 38.11 S 88.5 38.01, 90 38.04 S 93.5 38.3, 95 38.34 S 98.5 38.26, 100 38.3 S 103.5 38.58, 105 38.61 S 108.5 38.56, 110 38.53 S 113.5 38.42, 115 38.42 S 118.5 38.48, 120 38.5 S 123.5 38.51, 125 38.53 S 128.5 38.58, 130 38.61 S 133.5 38.7, 135 38.7 S 138.5 38.66, 140 38.58 S 143.5 38.19, 145 38.14 S 148.5 38.22, 150 38.27 S 153.5 38.42, 155 38.48 S 158.5 38.67, 160 38.67 S 163.5 38.48, 165 38.48 S 168.5 38.61, 170 38.65 S 173.5 38.82, 175 38.73 S 178.5 38.11, 180 38.08 S 183.5 38.43, 185 38.53 S 188.5 38.72, 190 38.74 S 193.5 38.66, 195 38.65 S 198.5 38.67, 200 38.67 S 203.5 38.63, 205 38.62"
          fill="none"/>
    <circle r="4" cx="5" cy="40" fill="#3023AE"/>
    <circle r="4" cx="205" cy="38.62" fill="#C86DD7"/>      
</svg>