<svg width="200" height="50" viewBox="0 0 210 50" xmlns="http://www.w3.org/2000/svg">
    <defs>
        <linearGradient x1="0%" y1="0%" x2="100%" y2="0%" id="a">
            <stop stop-color="#3023AE" offset="0%"/>
            <stop stop-color="#C86DD7" offset="100%"/>
        </linearGradient>
    </defs>
    <path stroke="url(#a)"
          stroke-width="3"
          stroke-linejoin="round"
          stroke-linecap="round"
          d="M5 40 C 6.5 40, 8.5 40, 10 40 S 13.5 39.99, 15 39.99 S 18.5 40, 20 40 S 24.08 41.17, 25 39.99 S 29.53 28.56, 30 27.14 S 33.82 9.07, 35 10 S 39.48 33.63, 40 35.04 S 43.55 36.69, 45 37.06 S 48.5 37.5, 50 37.55 S 53.5 37.36, 55 37.4 S 58.52 38.02, 60 37.8 S 63.5 36.01, 65 35.93 S 68.51 37.09, 70 37.28 S 73.5 37.14, 75 37.23 S 78.5 37.82, 80 37.9 S 83.5 37.8, 85 37.77 S 88.5 37.66, 90 37.67 S 93.5 37.78, 95 37.83 S 98.5 37.99, 100 38 S 103.5 37.92, 105 37.88 S 108.5 37.85, 110 37.74 S 113.5 37.1, 115 37.15 S 118.51 37.89, 120 38.06 S 123.5 38.23, 125 38.27 S 128.5 38.35, 130 38.34 S 133.5 38.24, 135 38.21 S 138.5 38.08, 140 38.12 S 143.5 38.43, 145 38.46 S 148.5 38.27, 150 38.29 S 153.5 38.52, 155 38.59 S 158.5 38.75, 160 38.79 S 163.5 38.81, 165 38.83 S 168.5 38.92, 170 38.94 S 173.5 38.95, 175 38.95 S 178.5 38.93, 180 38.95 S 183.5 39.09, 185 39.11 S 188.5 39.06, 190 39.08 S 193.5 39.21, 195 39.22 S 198.5 39.17, 200 39.15 S 203.5 39.09, 205 39.07"
          fill="none"/>
    <circle r="4" cx="5" cy="40" fill="#3023AE"/>
    <circle r="4" cx="205" cy="39.07" fill="#C86DD7"/>      
</svg>