<svg width="200" height="50" viewBox="0 0 210 50" xmlns="http://www.w3.org/2000/svg">
    <defs>
        <linearGradient x1="0%" y1="0%" x2="100%" y2="0%" id="a">
            <stop stop-color="#3023AE" offset="0%"/>
            <stop stop-color="#C86DD7" offset="100%"/>
        </linearGradient>
    </defs>
    <path stroke="url(#a)"
          stroke-width="3"
          stroke-linejoin="round"
          stroke-linecap="round"
          d="M5 40 C 5.57 38.61, 8.68 28.45, 10 27.73 S 13.84 33.6, 15 34.55 S 18.55 36.31, 20 35.91 S 23.55 32.22, 25 31.82 S 28.61 33.75, 30 33.18 S 33.76 28.58, 35 27.73 S 38.5 26.36, 40 26.36 S 43.99 26.62, 45 27.73 S 48.68 36.55, 50 37.27 S 53.91 34.22, 55 33.18 S 58.51 27.53, 60 27.73 S 63.55 34.95, 65 34.55 S 69.05 26.16, 70 25 S 73.5 22.27, 75 22.27 S 78.84 24.05, 80 25 S 83.84 31.4, 85 30.45 S 88.61 16.25, 90 16.82 S 93.76 35.4, 95 34.55 S 98.51 10.2, 100 10 S 104.26 31.87, 105 33.18 S 109.17 28.98, 110 27.73 S 113.5 18.18, 115 18.18 S 118.84 26.78, 120 27.73 S 123.76 27.21, 125 26.36 S 128.76 21.75, 130 20.91 S 133.5 19.55, 135 19.55 S 138.61 20.34, 140 20.91 S 143.61 24.21, 145 23.64 S 148.68 16.1, 150 16.82 S 153.99 27.98, 155 29.09 S 158.55 27.33, 160 27.73 S 163.51 31.62, 165 31.82 S 168.76 29.94, 170 29.09 S 173.84 24.05, 175 25 S 178.76 36.42, 180 37.27 S 183.76 32.67, 185 31.82 S 188.84 31.4, 190 30.45 S 193.76 24.48, 195 23.64 S 198.68 24.36, 200 23.64 S 203.99 19.29, 205 18.18"
          fill="none"/>
    <circle r="4" cx="5" cy="40" fill="#3023AE"/>
    <circle r="4" cx="205" cy="18.18" fill="#C86DD7"/>      
</svg>