<svg width="200" height="50" viewBox="0 0 210 50" xmlns="http://www.w3.org/2000/svg">
    <defs>
        <linearGradient x1="0%" y1="0%" x2="100%" y2="0%" id="a">
            <stop stop-color="#3023AE" offset="0%"/>
            <stop stop-color="#C86DD7" offset="100%"/>
        </linearGradient>
    </defs>
    <path stroke="url(#a)"
          stroke-width="3"
          stroke-linejoin="round"
          stroke-linecap="round"
          d="M5 40 C 5.85 38.77, 8.81 33.7, 10 32.78 S 13.51 32.43, 15 32.24 S 18.5 31.61, 20 31.49 S 23.5 31.47, 25 31.47 S 28.63 32.07, 30 31.47 S 33.63 27.71, 35 27.1 S 38.52 26.78, 40 27.04 S 43.51 28.66, 45 28.84 S 48.53 28.52, 50 28.23 S 53.5 26.81, 55 26.89 S 58.5 28.7, 60 28.77 S 63.5 27.44, 65 27.35 S 68.55 28.59, 70 28.2 S 73.5 24.66, 75 24.65 S 78.52 27.84, 80 28.1 S 83.5 26.47, 85 26.38 S 88.51 27.69, 90 27.48 S 93.51 25.14, 95 24.99 S 98.5 26.57, 100 26.5 S 103.63 25.13, 105 24.52 S 109.15 23.3, 110 22.06 S 113.5 9.95, 115 10 S 119.15 21.18, 120 22.42 S 123.52 24.74, 125 24.52 S 128.53 21.24, 130 20.95 S 133.51 22.41, 135 22.57 S 138.65 22.66, 140 22.01 S 143.67 18.48, 145 17.79 S 148.51 16.65, 150 16.81 S 153.6 18.34, 155 18.87 S 158.51 20.44, 160 20.59 S 163.5 19.91, 165 19.87 S 168.5 20.36, 170 20.33 S 173.5 19.63, 175 19.67 S 178.5 20.67, 180 20.62 S 183.53 19.64, 185 19.36 S 188.55 19.08, 190 18.71 S 193.5 16.76, 195 16.81 S 198.57 19.51, 200 19.07 S 203.97 14.84, 205 13.75"
          fill="none"/>
    <circle r="4" cx="5" cy="40" fill="#3023AE"/>
    <circle r="4" cx="205" cy="13.75" fill="#C86DD7"/>      
</svg>