<svg width="200" height="50" viewBox="0 0 210 50" xmlns="http://www.w3.org/2000/svg">
    <defs>
        <linearGradient x1="0%" y1="0%" x2="100%" y2="0%" id="a">
            <stop stop-color="#3023AE" offset="0%"/>
            <stop stop-color="#C86DD7" offset="100%"/>
        </linearGradient>
    </defs>
    <path stroke="url(#a)"
          stroke-width="3"
          stroke-linejoin="round"
          stroke-linecap="round"
          d="M5 40 C 5.25 38.52, 9.31 11.33, 10 10 S 14.44 19.43, 15 20.82 S 19.13 33.42, 20 34.64 S 23.51 34.56, 25 34.75 S 28.53 35.62, 30 35.93 S 33.52 36.65, 35 36.89 S 38.58 38.01, 40 37.54 S 43.5 33.54, 45 33.57 S 48.69 37.02, 50 37.75 S 53.51 38.95, 55 39.14 S 58.51 39.2, 60 39.04 S 63.5 38.13, 65 38.07 S 68.5 38.55, 70 38.61 S 73.5 38.42, 75 38.5 S 78.5 39.06, 80 39.14 S 83.5 39.12, 85 39.04 S 88.5 38.66, 90 38.61 S 93.5 38.71, 95 38.71 S 98.5 38.62, 100 38.61 S 103.5 38.6, 105 38.61 S 108.5 38.68, 110 38.71 S 113.5 38.93, 115 38.82 S 118.5 37.99, 120 37.96 S 123.51 38.4, 125 38.61 S 128.5 39.28, 130 39.36 S 133.5 39.19, 135 39.14 S 138.5 38.99, 140 39.04 S 143.5 39.4, 145 39.46 S 148.5 39.46, 150 39.46 S 153.5 39.47, 155 39.46 S 158.5 39.42, 160 39.36 S 163.5 39.04, 165 39.04 S 168.5 39.35, 170 39.36 S 173.5 39.16, 175 39.14 S 178.5 39.31, 180 39.25 S 183.5 38.76, 185 38.71 S 188.5 38.82, 190 38.93 S 193.5 39.43, 195 39.46 S 198.5 39.15, 200 39.14 S 203.5 39.29, 205 39.36"
          fill="none"/>
    <circle r="4" cx="5" cy="40" fill="#3023AE"/>
    <circle r="4" cx="205" cy="39.36" fill="#C86DD7"/>      
</svg>