<svg width="200" height="50" viewBox="0 0 210 50" xmlns="http://www.w3.org/2000/svg">
    <defs>
        <linearGradient x1="0%" y1="0%" x2="100%" y2="0%" id="a">
            <stop stop-color="#3023AE" offset="0%"/>
            <stop stop-color="#C86DD7" offset="100%"/>
        </linearGradient>
    </defs>
    <path stroke="url(#a)"
          stroke-width="3"
          stroke-linejoin="round"
          stroke-linecap="round"
          d="M5 40 C 5.25 38.52, 8.52 10.26, 10 10 S 14.51 36.81, 15 38.23 S 18.5 38.92, 20 39.03 S 23.5 38.96, 25 38.97 S 28.5 39.05, 30 39.12 S 33.5 39.39, 35 39.42 S 38.5 39.36, 40 39.33 S 43.5 39.18, 45 39.2 S 48.5 39.49, 50 39.45 S 53.5 38.93, 55 38.95 S 58.5 39.47, 60 39.58 S 63.5 39.73, 65 39.7 S 68.5 39.42, 70 39.39 S 73.5 39.55, 75 39.51 S 78.5 39.16, 80 39.14 S 83.5 39.34, 85 39.39 S 88.5 39.46, 90 39.47 S 93.5 39.51, 95 39.48 S 98.93 40.32, 100 39.27 S 103.51 29.84, 105 29.67 S 108.91 37.13, 110 38.16 S 113.51 38.98, 115 39.18 S 118.5 39.44, 120 39.48 S 123.5 39.45, 125 39.44 S 128.5 39.4, 130 39.39 S 133.5 39.45, 135 39.39 S 138.5 38.95, 140 38.96 S 143.5 39.37, 145 39.45 S 148.5 39.55, 150 39.51 S 153.5 39.18, 155 39.18 S 158.5 39.54, 160 39.52 S 163.5 39.12, 165 39.05 S 168.5 39, 170 39.06 S 173.5 39.47, 175 39.44 S 179.09 40.04, 180 38.84 S 183.52 26.5, 185 26.23 S 188.95 35.93, 190 37.01 S 193.51 36.36, 195 36.52 S 198.52 37.78, 200 38.05 S 203.5 38.26, 205 38.35"
          fill="none"/>
    <circle r="4" cx="5" cy="40" fill="#3023AE"/>
    <circle r="4" cx="205" cy="38.35" fill="#C86DD7"/>      
</svg>