<svg width="200" height="50" viewBox="0 0 210 50" xmlns="http://www.w3.org/2000/svg">
    <defs>
        <linearGradient x1="0%" y1="0%" x2="100%" y2="0%" id="a">
            <stop stop-color="#3023AE" offset="0%"/>
            <stop stop-color="#C86DD7" offset="100%"/>
        </linearGradient>
    </defs>
    <path stroke="url(#a)"
          stroke-width="3"
          stroke-linejoin="round"
          stroke-linecap="round"
          d="M5 40 C 5.51 38.59, 8.52 26.54, 10 26.32 S 14.1 37.33, 15 38.53 S 19.5 41.13, 20 39.71 S 23.73 10.8, 25 10 S 29.51 31.96, 30 33.38 S 33.72 38.35, 35 39.12 S 38.5 39.32, 40 39.41 S 43.5 39.71, 45 39.71 S 48.5 39.39, 50 39.41 S 53.5 39.78, 55 39.85 S 58.53 40.13, 60 39.85 S 63.5 37.96, 65 37.94 S 68.53 39.43, 70 39.71 S 73.5 39.89, 75 39.85 S 78.5 39.43, 80 39.41 S 83.5 39.73, 85 39.71 S 88.5 39.26, 90 39.26 S 93.5 39.73, 95 39.71 S 98.5 39.12, 100 39.12 S 103.5 39.75, 105 39.71 S 108.5 38.8, 110 38.82 S 113.5 39.76, 115 39.85 S 118.5 39.5, 120 39.41 S 123.5 39.22, 125 39.26 S 128.5 39.62, 130 39.71 S 133.5 39.85, 135 39.85 S 138.5 39.73, 140 39.71 S 143.5 39.69, 145 39.71 S 148.5 39.87, 150 39.85 S 153.5 39.6, 155 39.56 S 158.5 39.63, 160 39.56 S 163.5 39.1, 165 39.12 S 168.5 39.62, 170 39.71 S 173.56 40.13, 175 39.71 S 178.65 37.42, 180 36.76 S 183.51 34.67, 185 34.85 S 188.61 37.39, 190 37.94 S 193.5 38.71, 195 38.82 S 198.5 38.66, 200 38.68 S 203.5 38.88, 205 38.97"
          fill="none"/>
    <circle r="4" cx="5" cy="40" fill="#3023AE"/>
    <circle r="4" cx="205" cy="38.97" fill="#C86DD7"/>      
</svg>