<svg width="200" height="50" viewBox="0 0 210 50" xmlns="http://www.w3.org/2000/svg">
    <defs>
        <linearGradient x1="0%" y1="0%" x2="100%" y2="0%" id="a">
            <stop stop-color="#3023AE" offset="0%"/>
            <stop stop-color="#C86DD7" offset="100%"/>
        </linearGradient>
    </defs>
    <path stroke="url(#a)"
          stroke-width="3"
          stroke-linejoin="round"
          stroke-linecap="round"
          d="M5 40 C 5.25 38.52, 8.59 10.52, 10 10 S 14.5 34.89, 15 36.3 S 18.56 37.76, 20 38.17 S 23.51 38.98, 25 39.17 S 28.5 39.48, 30 39.46 S 33.5 39.07, 35 39.04 S 38.5 39.2, 40 39.27 S 43.53 39.83, 45 39.51 S 48.61 37.68, 50 37.12 S 53.51 35.31, 55 35.52 S 58.59 38.01, 60 38.51 S 63.51 38.89, 65 39.06 S 68.5 39.53, 70 39.62 S 73.5 39.66, 75 39.68 S 78.5 39.77, 80 39.77 S 83.5 39.66, 85 39.65 S 88.5 39.71, 90 39.71 S 93.5 39.65, 95 39.63 S 98.5 39.62, 100 39.58 S 103.53 39.65, 105 39.37 S 108.56 38.13, 110 37.71 S 113.51 36.3, 115 36.48 S 118.51 38.69, 120 38.89 S 123.5 37.88, 125 37.82 S 128.51 38.32, 130 38.46 S 133.5 38.67, 135 38.79 S 138.5 39.23, 140 39.27 S 143.5 38.99, 145 39.03 S 148.5 39.46, 150 39.53 S 153.5 39.52, 155 39.49 S 158.5 39.33, 160 39.34 S 163.5 39.52, 165 39.53 S 168.5 39.43, 170 39.43 S 173.51 39.7, 175 39.51 S 178.5 38.23, 180 38.16 S 183.51 38.86, 185 39.01 S 188.5 39.12, 190 39.19 S 193.5 39.44, 195 39.5 S 198.5 39.57, 200 39.59 S 203.5 39.62, 205 39.63"
          fill="none"/>
    <circle r="4" cx="5" cy="40" fill="#3023AE"/>
    <circle r="4" cx="205" cy="39.63" fill="#C86DD7"/>      
</svg>