<svg width="200" height="50" viewBox="0 0 210 50" xmlns="http://www.w3.org/2000/svg">
    <defs>
        <linearGradient x1="0%" y1="0%" x2="100%" y2="0%" id="a">
            <stop stop-color="#3023AE" offset="0%"/>
            <stop stop-color="#C86DD7" offset="100%"/>
        </linearGradient>
    </defs>
    <path stroke="url(#a)"
          stroke-width="3"
          stroke-linejoin="round"
          stroke-linecap="round"
          d="M5 40 C 6.19 39.09, 8.5 36.18, 10 36.17 S 13.6 39.38, 15 39.91 S 18.5 39.94, 20 39.93 S 23.5 39.87, 25 39.86 S 28.53 40.17, 30 39.88 S 33.63 38.53, 35 37.92 S 38.58 35.93, 40 35.44 S 43.52 34.71, 45 34.49 S 48.54 34.27, 50 33.95 S 53.5 32.3, 55 32.29 S 58.53 33.58, 60 33.88 S 63.52 34.55, 65 34.33 S 68.75 33.23, 70 32.41 S 73.5 27.79, 75 27.78 S 78.59 31.84, 80 32.34 S 83.52 31.54, 85 31.3 S 88.5 30.81, 90 30.71 S 93.51 30.42, 95 30.61 S 98.51 32.13, 100 31.99 S 103.52 29.88, 105 29.65 S 108.56 30.86, 110 30.45 S 113.6 27.31, 115 26.78 S 118.5 26.73, 120 26.71 S 123.5 26.74, 125 26.62 S 128.52 26.15, 130 25.93 S 133.52 25.36, 135 25.11 S 138.66 24.87, 140 24.21 S 143.58 20.66, 145 20.17 S 148.51 20.52, 150 20.73 S 153.55 21.19, 155 21.58 S 158.51 23.56, 160 23.4 S 163.58 20.98, 165 20.5 S 168.58 20.49, 170 20.02 S 173.52 17.44, 175 17.21 S 178.5 18.5, 180 18.44 S 183.5 16.84, 185 16.81 S 188.5 18.35, 190 18.23 S 193.5 16.12, 195 16.03 S 198.72 18.41, 200 17.64 S 204.18 11.26, 205 10"
          fill="none"/>
    <circle r="4" cx="5" cy="40" fill="#3023AE"/>
    <circle r="4" cx="205" cy="10" fill="#C86DD7"/>      
</svg>