<svg width="200" height="50" viewBox="0 0 210 50" xmlns="http://www.w3.org/2000/svg">
    <defs>
        <linearGradient x1="0%" y1="0%" x2="100%" y2="0%" id="a">
            <stop stop-color="#3023AE" offset="0%"/>
            <stop stop-color="#C86DD7" offset="100%"/>
        </linearGradient>
    </defs>
    <path stroke="url(#a)"
          stroke-width="3"
          stroke-linejoin="round"
          stroke-linecap="round"
          d="M5 40 C 5.28 38.53, 8.66 14.24, 10 13.57 S 14.31 33.65, 15 34.98 S 18.5 33, 20 33.01 S 23.55 34.68, 25 35.05 S 28.51 35.75, 30 35.56 S 33.54 34.09, 35 33.74 S 38.5 33.24, 40 33.16 S 43.51 33.09, 45 33.23 S 48.59 33.58, 50 34.1 S 53.53 37.24, 55 36.94 S 58.51 31.88, 60 32.06 S 63.52 37.96, 65 38.18 S 68.5 33.61, 70 33.52 S 73.63 37, 75 37.6 S 78.53 37.6, 80 37.89 S 83.5 39.56, 85 39.56 S 88.91 38.92, 90 37.89 S 93.96 31.18, 95 30.1 S 98.55 27.93, 100 27.55 S 103.59 28, 105 27.48 S 108.63 24.44, 110 23.83 S 113.55 23.41, 115 23.03 S 118.59 21.73, 120 21.21 S 123.61 19.88, 125 19.32 S 128.76 18.05, 130 17.21 S 133.64 13.18, 135 12.55 S 138.57 12.15, 140 12.62 S 143.51 15.96, 145 15.83 S 148.62 12.33, 150 11.75 S 153.5 11.67, 155 11.67 S 158.51 11.54, 160 11.75 S 163.52 13.32, 165 13.06 S 168.52 10.23, 170 10 S 173.5 11.53, 175 11.53 S 178.5 9.97, 180 10 S 183.68 11.05, 185 11.75 S 188.52 15.1, 190 15.32 S 193.63 13.82, 195 13.2 S 198.56 10.37, 200 10.8 S 203.98 15.09, 205 16.19"
          fill="none"/>
    <circle r="4" cx="5" cy="40" fill="#3023AE"/>
    <circle r="4" cx="205" cy="16.19" fill="#C86DD7"/>      
</svg>