<svg width="200" height="50" viewBox="0 0 210 50" xmlns="http://www.w3.org/2000/svg">
    <defs>
        <linearGradient x1="0%" y1="0%" x2="100%" y2="0%" id="a">
            <stop stop-color="#3023AE" offset="0%"/>
            <stop stop-color="#C86DD7" offset="100%"/>
        </linearGradient>
    </defs>
    <path stroke="url(#a)"
          stroke-width="3"
          stroke-linejoin="round"
          stroke-linecap="round"
          d="M5 40 C 5.27 38.53, 8.66 13.72, 10 13.04 S 14.33 33.54, 15 34.88 S 18.5 33.25, 20 33.24 S 23.54 34.44, 25 34.8 S 28.51 35.85, 30 35.69 S 33.52 33.98, 35 33.76 S 38.52 34.44, 40 34.21 S 43.5 32.23, 45 32.2 S 48.58 33.5, 50 33.99 S 53.5 35.72, 55 35.69 S 58.5 33.67, 60 33.76 S 63.51 36.08, 65 36.29 S 68.5 35.07, 70 35.17 S 73.55 36.57, 75 36.96 S 78.52 37.6, 80 37.85 S 83.52 38.41, 85 38.66 S 88.63 40.16, 90 39.55 S 93.93 35.26, 95 34.21 S 98.79 30.57, 100 29.68 S 103.62 27.44, 105 26.86 S 108.53 25.83, 110 25.52 S 113.59 25.29, 115 24.78 S 118.58 22.37, 120 21.88 S 123.59 21.79, 125 21.29 S 128.68 19.03, 130 18.32 S 133.66 16.55, 135 15.87 S 138.52 13.53, 140 13.27 S 143.55 13.68, 145 14.08 S 148.54 16.34, 150 16.01 S 153.62 12.45, 155 11.86 S 158.5 11.71, 160 11.71 S 163.52 11.6, 165 11.86 S 168.53 13.76, 170 13.49 S 173.51 10.16, 175 10 S 178.5 12.37, 180 12.45 S 183.51 10.72, 185 10.52 S 188.63 10.51, 190 11.11 S 193.53 14.59, 195 14.9 S 198.57 13.64, 200 13.19 S 203.56 12.19, 205 11.78"
          fill="none"/>
    <circle r="4" cx="5" cy="40" fill="#3023AE"/>
    <circle r="4" cx="205" cy="11.780000000000001" fill="#C86DD7"/>      
</svg>