<svg width="200" height="50" viewBox="0 0 210 50" xmlns="http://www.w3.org/2000/svg">
    <defs>
        <linearGradient x1="0%" y1="0%" x2="100%" y2="0%" id="a">
            <stop stop-color="#3023AE" offset="0%"/>
            <stop stop-color="#C86DD7" offset="100%"/>
        </linearGradient>
    </defs>
    <path stroke="url(#a)"
          stroke-width="3"
          stroke-linejoin="round"
          stroke-linecap="round"
          d="M5 40 C 5.25 38.52, 8.51 10.19, 10 10 S 14.52 37.28, 15 38.7 S 18.5 39.35, 20 39.35 S 23.5 38.65, 25 38.7 S 28.5 39.67, 30 39.67 S 33.51 38.84, 35 38.7 S 38.51 38.56, 40 38.7 S 43.51 39.53, 45 39.67 S 48.5 39.77, 50 39.67 S 53.51 39.16, 55 39.02 S 58.5 38.65, 60 38.7 S 63.5 39.25, 65 39.35 S 68.51 39.54, 70 39.35 S 73.5 38.04, 75 38.04 S 78.51 39.2, 80 39.35 S 83.5 39.07, 85 39.02 S 88.53 39.31, 90 39.02 S 93.5 36.97, 95 37.07 S 98.53 39.38, 100 39.67 S 103.55 39.4, 105 39.02 S 108.5 37.17, 110 37.07 S 113.52 38.13, 115 38.37 S 118.5 38.6, 120 38.7 S 123.51 39.17, 125 39.02 S 128.51 37.91, 130 37.72 S 133.55 38.1, 135 37.72 S 138.52 34.87, 140 35.11 S 143.59 38.84, 145 39.35 S 148.51 38.85, 150 38.7 S 153.51 38.23, 155 38.37 S 158.51 39.48, 160 39.67 S 163.53 39.96, 165 39.67 S 168.53 38.01, 170 37.72 S 173.5 37.62, 175 37.72 S 178.5 38.47, 180 38.37 S 183.5 37.12, 185 37.07 S 188.5 37.94, 190 38.04 S 193.5 37.67, 195 37.72 S 198.52 38.13, 200 38.37 S 203.53 39.06, 205 39.35"
          fill="none"/>
    <circle r="4" cx="5" cy="40" fill="#3023AE"/>
    <circle r="4" cx="205" cy="39.35" fill="#C86DD7"/>      
</svg>