<svg width="200" height="50" viewBox="0 0 210 50" xmlns="http://www.w3.org/2000/svg">
    <defs>
        <linearGradient x1="0%" y1="0%" x2="100%" y2="0%" id="a">
            <stop stop-color="#3023AE" offset="0%"/>
            <stop stop-color="#C86DD7" offset="100%"/>
        </linearGradient>
    </defs>
    <path stroke="url(#a)"
          stroke-width="3"
          stroke-linejoin="round"
          stroke-linecap="round"
          d="M5 40 C 5.28 38.53, 8.61 14.27, 10 13.7 S 14.41 34.51, 15 35.89 S 18.52 37.36, 20 37.12 S 24.11 35.46, 25 34.25 S 28.5 23.62, 30 23.56 S 34.02 32.71, 35 33.84 S 38.59 35.59, 40 35.07 S 43.59 30.66, 45 30.14 S 49.33 32.71, 50 31.37 S 53.5 10, 55 10 S 59.36 30.01, 60 31.37 S 63.5 31.31, 65 31.37 S 68.5 31.78, 70 31.78 S 73.5 31.37, 75 31.37 S 78.5 31.78, 80 31.78 S 83.56 31.79, 85 31.37 S 88.51 28.78, 90 28.9 S 93.54 31.83, 95 32.19 S 98.51 31.55, 100 31.37 S 103.72 31.75, 105 30.96 S 108.54 24.85, 110 25.21 S 113.7 32.67, 115 33.42 S 118.54 31.32, 120 30.96 S 123.54 30.6, 125 30.96 S 128.54 33.78, 130 33.42 S 133.57 28.96, 135 28.49 S 138.51 30.26, 140 30.14 S 143.51 27.49, 145 27.67 S 148.5 31.31, 150 31.37 S 153.54 28.44, 155 28.08 S 158.68 29.61, 160 28.9 S 163.56 22.32, 165 22.74 S 168.75 30.96, 170 31.78 S 173.5 29.26, 175 29.32 S 178.5 32.25, 180 32.19 S 183.72 29.69, 185 28.9 S 188.63 26.65, 190 26.03 S 193.5 24.32, 195 24.38 S 199.13 27.66, 200 26.44 S 204.55 11.84, 205 10.41"
          fill="none"/>
    <circle r="4" cx="5" cy="40" fill="#3023AE"/>
    <circle r="4" cx="205" cy="10.41" fill="#C86DD7"/>      
</svg>