<svg width="200" height="50" viewBox="0 0 210 50" xmlns="http://www.w3.org/2000/svg">
    <defs>
        <linearGradient x1="0%" y1="0%" x2="100%" y2="0%" id="a">
            <stop stop-color="#3023AE" offset="0%"/>
            <stop stop-color="#C86DD7" offset="100%"/>
        </linearGradient>
    </defs>
    <path stroke="url(#a)"
          stroke-width="3"
          stroke-linejoin="round"
          stroke-linecap="round"
          d="M5 40 C 6.47 39.7, 8.5 39.06, 10 38.98 S 13.5 39.41, 15 39.49 S 18.5 39.49, 20 39.49 S 23.5 39.49, 25 39.49 S 28.5 39.49, 30 39.49 S 33.5 39.49, 35 39.49 S 38.5 39.49, 40 39.49 S 43.5 39.49, 45 39.49 S 48.5 39.49, 50 39.49 S 54.52 40.91, 55 39.49 S 59.4 11.37, 60 10 S 64.48 15.2, 65 16.61 S 69.21 35.67, 70 36.95 S 73.51 33.03, 75 32.88 S 78.52 35.7, 80 35.93 S 83.92 35.45, 85 34.41 S 88.61 26.84, 90 26.27 S 93.89 29.33, 95 30.34 S 98.66 34.74, 100 35.42 S 103.52 35.19, 105 35.42 S 108.53 36.65, 110 36.95 S 113.5 37.38, 115 37.46 S 118.5 37.38, 120 37.46 S 123.51 37.82, 125 37.97 S 128.5 38.4, 130 38.47 S 133.51 38.32, 135 38.47 S 138.64 40.11, 140 39.49 S 143.52 34.13, 145 33.9 S 148.69 38.7, 150 37.97 S 153.92 29.35, 155 28.31 S 158.53 28.01, 160 28.31 S 163.66 29.66, 165 30.34 S 168.78 32.52, 170 33.39 S 173.57 37.02, 175 37.46 S 178.5 36.52, 180 36.44 S 183.5 37.03, 185 36.95 S 188.52 35.7, 190 35.93 S 193.52 38.24, 195 38.47 S 198.51 37.61, 200 37.46 S 203.5 37.46, 205 37.46"
          fill="none"/>
    <circle r="4" cx="5" cy="40" fill="#3023AE"/>
    <circle r="4" cx="205" cy="37.46" fill="#C86DD7"/>      
</svg>