<svg width="200" height="50" viewBox="0 0 210 50" xmlns="http://www.w3.org/2000/svg">
    <defs>
        <linearGradient x1="0%" y1="0%" x2="100%" y2="0%" id="a">
            <stop stop-color="#3023AE" offset="0%"/>
            <stop stop-color="#C86DD7" offset="100%"/>
        </linearGradient>
    </defs>
    <path stroke="url(#a)"
          stroke-width="3"
          stroke-linejoin="round"
          stroke-linecap="round"
          d="M5 40 C 6.34 39.32, 8.5 37.56, 10 37.44 S 13.5 39.21, 15 39.22 S 19.48 38.92, 20 37.51 S 24.14 13.64, 25 12.41 S 28.96 22.21, 30 23.29 S 34.04 23.9, 35 22.75 S 39.07 12.42, 40 11.24 S 44.18 8.75, 45 10 S 49.19 25.21, 50 26.48 S 53.6 25.17, 55 25.7 S 58.54 29.94, 60 30.28 S 63.62 28.61, 65 28.03 S 68.51 25.95, 70 26.09 S 73.55 28.58, 75 28.96 S 78.53 28.42, 80 28.73 S 83.52 30.84, 85 31.06 S 88.52 29.98, 90 30.21 S 93.57 32.17, 95 32.62 S 98.5 33.26, 100 33.32 S 103.51 33.14, 105 33.01 S 108.51 32.67, 110 32.46 S 113.52 31.35, 115 31.61 S 118.53 33.98, 120 34.25 S 123.5 33.38, 125 33.47 S 128.5 34.78, 130 34.87 S 133.5 34.01, 135 34.09 S 138.51 35.61, 140 35.41 S 143.51 32.91, 145 32.77 S 148.55 34.1, 150 34.48 S 153.5 35.39, 155 35.41 S 158.52 34.42, 160 34.64 S 163.52 36.67, 165 36.89 S 168.52 36.34, 170 36.11 S 173.51 35.47, 175 35.34 S 178.51 35.4, 180 35.26 S 183.51 34.55, 185 34.4 S 188.51 34.12, 190 34.25 S 193.5 35.17, 195 35.26 S 198.59 35.38, 200 34.87 S 203.74 32.43, 205 31.61"
          fill="none"/>
    <circle r="4" cx="5" cy="40" fill="#3023AE"/>
    <circle r="4" cx="205" cy="31.61" fill="#C86DD7"/>      
</svg>