<svg width="200" height="50" viewBox="0 0 210 50" xmlns="http://www.w3.org/2000/svg">
    <defs>
        <linearGradient x1="0%" y1="0%" x2="100%" y2="0%" id="a">
            <stop stop-color="#3023AE" offset="0%"/>
            <stop stop-color="#C86DD7" offset="100%"/>
        </linearGradient>
    </defs>
    <path stroke="url(#a)"
          stroke-width="3"
          stroke-linejoin="round"
          stroke-linecap="round"
          d="M5 40 C 5.25 38.52, 8.51 10.2, 10 10 S 14.51 37.23, 15 38.65 S 18.5 38.99, 20 39.09 S 23.5 39.27, 25 39.33 S 28.5 39.46, 30 39.5 S 33.5 39.64, 35 39.59 S 38.5 39.14, 40 39.14 S 43.5 39.56, 45 39.61 S 48.5 39.47, 50 39.46 S 53.5 39.5, 55 39.53 S 58.5 39.66, 60 39.68 S 63.5 39.76, 65 39.66 S 68.51 39.16, 70 39.01 S 73.5 38.56, 75 38.65 S 78.51 39.45, 80 39.58 S 83.5 39.61, 85 39.52 S 88.5 38.99, 90 38.99 S 93.5 39.4, 95 39.5 S 98.5 39.65, 100 39.68 S 103.5 39.74, 105 39.71 S 108.5 39.48, 110 39.47 S 113.5 39.63, 115 39.67 S 118.5 39.76, 120 39.72 S 123.5 39.47, 125 39.41 S 128.5 39.28, 130 39.31 S 133.5 39.56, 135 39.6 S 138.5 39.66, 140 39.55 S 143.5 38.92, 145 38.87 S 148.5 39.08, 150 39.19 S 153.5 39.56, 155 39.63 S 158.5 39.66, 160 39.67 S 163.5 39.73, 165 39.7 S 168.5 39.48, 170 39.46 S 173.5 39.54, 175 39.56 S 178.5 39.55, 180 39.58 S 183.5 39.73, 185 39.74 S 188.5 39.63, 190 39.62 S 193.5 39.69, 195 39.7 S 198.5 39.69, 200 39.69 S 203.5 39.72, 205 39.73"
          fill="none"/>
    <circle r="4" cx="5" cy="40" fill="#3023AE"/>
    <circle r="4" cx="205" cy="39.73" fill="#C86DD7"/>      
</svg>