<svg width="200" height="50" viewBox="0 0 210 50" xmlns="http://www.w3.org/2000/svg">
    <defs>
        <linearGradient x1="0%" y1="0%" x2="100%" y2="0%" id="a">
            <stop stop-color="#3023AE" offset="0%"/>
            <stop stop-color="#C86DD7" offset="100%"/>
        </linearGradient>
    </defs>
    <path stroke="url(#a)"
          stroke-width="3"
          stroke-linejoin="round"
          stroke-linecap="round"
          d="M5 40 C 6.49 39.8, 9.17 40.59, 10 39.34 S 13.5 24.93, 15 24.87 S 19.15 37.72, 20 38.95 S 23.5 39.22, 25 39.34 S 28.5 39.66, 30 39.74 S 33.5 39.85, 35 39.87 S 38.53 40.18, 40 39.87 S 43.5 37.78, 45 37.76 S 48.53 39.43, 50 39.74 S 53.5 39.85, 55 39.87 S 58.5 39.87, 60 39.87 S 63.5 39.87, 65 39.87 S 68.5 39.87, 70 39.87 S 73.5 39.87, 75 39.87 S 78.5 39.87, 80 39.87 S 83.5 39.87, 85 39.87 S 88.5 39.87, 90 39.87 S 93.5 39.87, 95 39.87 S 98.5 39.87, 100 39.87 S 103.5 39.87, 105 39.87 S 108.5 39.87, 110 39.87 S 113.5 39.87, 115 39.87 S 118.5 39.87, 120 39.87 S 124.52 41.29, 125 39.87 S 129.49 11.41, 130 10 S 134.33 10.77, 135 12.11 S 139.48 28.59, 140 30 S 143.91 38.31, 145 39.34 S 148.5 39.41, 150 39.47 S 153.5 39.68, 155 39.74 S 158.5 39.87, 160 39.87 S 163.5 39.76, 165 39.74 S 168.5 39.72, 170 39.74 S 173.51 40.01, 175 39.87 S 178.5 38.84, 180 38.82 S 183.5 39.62, 185 39.74 S 188.5 39.61, 190 39.61 S 193.5 39.72, 195 39.74 S 198.5 39.74, 200 39.74"
          fill="none"/>
    <circle r="4" cx="5" cy="40" fill="#3023AE"/>
    <circle r="4" cx="200" cy="39.74" fill="#C86DD7"/>      
</svg>