<svg width="200" height="50" viewBox="0 0 210 50" xmlns="http://www.w3.org/2000/svg">
    <defs>
        <linearGradient x1="0%" y1="0%" x2="100%" y2="0%" id="a">
            <stop stop-color="#3023AE" offset="0%"/>
            <stop stop-color="#C86DD7" offset="100%"/>
        </linearGradient>
    </defs>
    <path stroke="url(#a)"
          stroke-width="3"
          stroke-linejoin="round"
          stroke-linecap="round"
          d="M5 40 C 5.25 38.52, 8.88 11, 10 10 S 14.34 29.73, 15 31.07 S 18.53 30.53, 20 30.23 S 23.51 28.82, 25 29 S 28.51 31.33, 30 31.47 S 33.59 30.43, 35 29.91 S 38.52 27.96, 40 27.75 S 43.5 28.44, 45 28.47 S 48.5 27.86, 50 27.93 S 53.51 29.06, 55 28.94 S 58.9 28.12, 60 27.1 S 63.53 19.91, 65 19.61 S 68.68 24.37, 70 25.09 S 73.5 25.02, 75 25.08 S 78.56 25.04, 80 25.47 S 83.5 28.15, 85 28.07 S 88.5 24.97, 90 24.94 S 93.51 27.65, 95 27.85 S 98.53 25.96, 100 26.27 S 103.63 29.37, 105 29.98 S 108.5 30.62, 110 30.74 S 113.51 30.56, 115 30.76 S 118.53 31.78, 120 32.08 S 123.53 32.52, 125 32.81 S 128.52 33.84, 130 34.08 S 133.5 34.34, 135 34.4 S 138.5 34.54, 140 34.47 S 143.5 33.96, 145 33.96 S 148.53 34.16, 150 34.46 S 153.52 35.77, 155 36.01 S 158.5 36.02, 160 36.09 S 163.51 36.34, 165 36.47 S 168.5 36.85, 170 36.93 S 173.5 36.92, 175 37.02 S 178.5 37.55, 180 37.61 S 183.5 37.35, 185 37.39 S 188.5 37.82, 190 37.85 S 193.5 37.59, 195 37.57 S 198.5 37.69, 200 37.72 S 203.5 37.77, 205 37.79"
          fill="none"/>
    <circle r="4" cx="5" cy="40" fill="#3023AE"/>
    <circle r="4" cx="205" cy="37.79" fill="#C86DD7"/>      
</svg>