<svg width="200" height="50" viewBox="0 0 210 50" xmlns="http://www.w3.org/2000/svg">
    <defs>
        <linearGradient x1="0%" y1="0%" x2="100%" y2="0%" id="a">
            <stop stop-color="#3023AE" offset="0%"/>
            <stop stop-color="#C86DD7" offset="100%"/>
        </linearGradient>
    </defs>
    <path stroke="url(#a)"
          stroke-width="3"
          stroke-linejoin="round"
          stroke-linecap="round"
          d="M5 40 C 5.25 38.52, 8.53 10.31, 10 10 S 14.49 36.45, 15 37.86 S 18.62 38.45, 20 37.86 S 23.5 33.57, 25 33.57 S 28.53 37.55, 30 37.86 S 33.5 35.71, 35 35.71 S 38.5 37.86, 40 37.86 S 43.5 35.71, 45 35.71 S 48.53 37.54, 50 37.86 S 53.5 37.86, 55 37.86 S 58.5 37.86, 60 37.86 S 63.53 38.18, 65 37.86 S 68.53 36.03, 70 35.71 S 73.74 36.52, 75 35.71 S 78.53 28.97, 80 29.29 S 83.86 36.88, 85 37.86 S 88.5 37.86, 90 37.86 S 93.5 37.86, 95 37.86 S 98.5 37.86, 100 37.86 S 103.5 37.86, 105 37.86 S 108.5 37.86, 110 37.86 S 113.5 37.86, 115 37.86 S 118.5 37.86, 120 37.86 S 123.5 37.86, 125 37.86 S 128.5 37.86, 130 37.86 S 133.5 37.86, 135 37.86 S 138.5 37.86, 140 37.86 S 143.5 37.86, 145 37.86 S 148.5 37.86, 150 37.86 S 153.5 37.86, 155 37.86 S 158.62 38.45, 160 37.86 S 163.98 34.67, 165 33.57 S 168.53 27.45, 170 27.14 S 173.98 30.33, 175 31.43 S 178.74 37.05, 180 37.86 S 183.62 38.45, 185 37.86 S 188.5 33.57, 190 33.57 S 193.53 37.55, 195 37.86 S 198.5 35.71, 200 35.71 S 203.62 37.27, 205 37.86"
          fill="none"/>
    <circle r="4" cx="5" cy="40" fill="#3023AE"/>
    <circle r="4" cx="205" cy="37.86" fill="#C86DD7"/>      
</svg>