<svg width="200" height="50" viewBox="0 0 210 50" xmlns="http://www.w3.org/2000/svg">
    <defs>
        <linearGradient x1="0%" y1="0%" x2="100%" y2="0%" id="a">
            <stop stop-color="#3023AE" offset="0%"/>
            <stop stop-color="#C86DD7" offset="100%"/>
        </linearGradient>
    </defs>
    <path stroke="url(#a)"
          stroke-width="3"
          stroke-linejoin="round"
          stroke-linecap="round"
          d="M5 40 C 6.5 39.96, 8.5 39.89, 10 39.88 S 13.5 39.93, 15 39.94 S 18.5 39.96, 20 39.94 S 23.5 39.85, 25 39.83 S 28.5 39.83, 30 39.83 S 33.5 39.86, 35 39.83 S 38.5 39.69, 40 39.65 S 43.5 39.51, 45 39.53 S 48.5 39.87, 50 39.77 S 53.51 39.02, 55 38.89 S 58.51 39.03, 60 38.89 S 63.5 38.03, 65 37.96 S 68.51 38.56, 70 38.43 S 73.51 37.22, 75 37.09 S 78.5 37.52, 80 37.55 S 83.5 37.42, 85 37.32 S 88.5 36.88, 90 36.85 S 93.5 37.15, 95 37.15 S 98.51 36.98, 100 36.85 S 103.52 36.5, 105 36.27 S 108.54 35.62, 110 35.28 S 113.54 34.3, 115 33.94 S 118.63 33.4, 120 32.78 S 123.51 29.52, 125 29.4 S 128.52 31.69, 130 31.96 S 133.66 31.87, 135 31.2 S 139 28.07, 140 26.95 S 143.66 20.76, 145 20.08 S 148.6 21.35, 150 21.88 S 153.5 23.82, 155 23.86 S 158.54 21.84, 160 22.17 S 163.54 26.44, 165 26.08 S 168.8 20.58, 170 19.67 S 173.68 19.22, 175 18.5 S 178.53 14.48, 180 14.19 S 183.57 16.08, 185 16.52 S 188.63 17.89, 190 17.28 S 193.51 11.86, 195 12.04 S 198.53 18.8, 200 18.5 S 204.24 11.29, 205 10"
          fill="none"/>
    <circle r="4" cx="5" cy="40" fill="#3023AE"/>
    <circle r="4" cx="205" cy="10" fill="#C86DD7"/>      
</svg>