<svg width="200" height="50" viewBox="0 0 210 50" xmlns="http://www.w3.org/2000/svg">
    <defs>
        <linearGradient x1="0%" y1="0%" x2="100%" y2="0%" id="a">
            <stop stop-color="#3023AE" offset="0%"/>
            <stop stop-color="#C86DD7" offset="100%"/>
        </linearGradient>
    </defs>
    <path stroke="url(#a)"
          stroke-width="3"
          stroke-linejoin="round"
          stroke-linecap="round"
          d="M5 40 C 5.25 38.52, 8.55 10.37, 10 10 S 14.52 36.03, 15 37.45 S 18.51 39.64, 20 39.81 S 23.5 38.68, 25 38.58 S 28.5 39.11, 30 39.15 S 33.5 38.88, 35 38.87 S 38.5 38.99, 40 39.06 S 43.5 39.3, 45 39.34 S 48.5 39.37, 50 39.34 S 53.5 39.09, 55 39.15 S 58.5 39.76, 60 39.72 S 63.5 38.91, 65 38.87 S 68.51 39.3, 70 39.43 S 73.5 39.76, 75 39.72 S 78.52 39.37, 80 39.15 S 83.5 38.21, 85 38.21 S 88.51 39.02, 90 39.15 S 93.5 39.1, 95 39.06 S 98.5 38.91, 100 38.87 S 103.5 38.76, 105 38.77 S 108.5 39.07, 110 38.96 S 113.5 38.05, 115 38.02 S 118.51 38.59, 120 38.77 S 123.5 39.31, 125 39.25 S 128.51 38.61, 130 38.4 S 133.5 37.8, 135 37.83 S 138.51 38.45, 140 38.58 S 143.58 39.15, 145 38.68 S 148.5 35.32, 150 35.28 S 153.56 37.99, 155 38.4 S 158.5 38.05, 160 38.11 S 163.51 38.63, 165 38.77 S 168.5 39.07, 170 39.06 S 173.5 38.77, 175 38.68 S 178.5 38.4, 180 38.49 S 183.5 39.18, 185 39.25 S 188.51 39.17, 190 38.96 S 193.5 37.9, 195 37.83 S 198.5 38.48, 200 38.49 S 203.51 38.09, 205 37.92"
          fill="none"/>
    <circle r="4" cx="5" cy="40" fill="#3023AE"/>
    <circle r="4" cx="205" cy="37.92" fill="#C86DD7"/>      
</svg>