<svg width="200" height="50" viewBox="0 0 210 50" xmlns="http://www.w3.org/2000/svg">
    <defs>
        <linearGradient x1="0%" y1="0%" x2="100%" y2="0%" id="a">
            <stop stop-color="#3023AE" offset="0%"/>
            <stop stop-color="#C86DD7" offset="100%"/>
        </linearGradient>
    </defs>
    <path stroke="url(#a)"
          stroke-width="3"
          stroke-linejoin="round"
          stroke-linecap="round"
          d="M5 40 C 5.25 38.52, 8.5 10.1, 10 10 S 14.5 37.95, 15 39.36 S 18.5 38.29, 20 38.24 S 23.52 38.83, 25 39.04 S 28.5 39.56, 30 39.68 S 33.5 39.82, 35 39.84 S 38.53 40.14, 40 39.84 S 43.56 38.2, 45 37.77 S 48.52 37.02, 50 36.81 S 53.5 36.28, 55 36.33 S 58.5 37.18, 60 37.13 S 63.53 36.32, 65 36.01 S 68.5 35.17, 70 35.05 S 73.52 34.97, 75 35.21 S 78.5 36.55, 80 36.65 S 83.5 35.87, 85 35.85 S 88.5 36.42, 90 36.49 S 93.58 36.83, 95 36.33 S 98.53 33.26, 100 32.98 S 103.5 34.48, 105 34.41 S 108.52 32.71, 110 32.5 S 113.58 32.48, 115 32.98 S 118.56 35.6, 120 36.01 S 123.53 36.15, 125 35.85 S 128.52 34.18, 130 33.94 S 133.5 34.21, 135 34.26 S 138.5 34.33, 140 34.26 S 143.5 33.73, 145 33.78 S 148.5 34.64, 150 34.57 S 153.5 33.25, 155 33.3 S 158.53 34.59, 160 34.89 S 163.51 35.56, 165 35.37 S 168.52 33.86, 170 33.62 S 173.51 33.61, 175 33.78 S 178.56 34.32, 180 34.73 S 183.5 36.6, 185 36.65 S 188.52 35.31, 190 35.05 S 193.55 34.52, 195 34.89 S 198.52 37.37, 200 37.61 S 203.54 36.82, 205 36.49"
          fill="none"/>
    <circle r="4" cx="5" cy="40" fill="#3023AE"/>
    <circle r="4" cx="205" cy="36.49" fill="#C86DD7"/>      
</svg>