<svg width="200" height="50" viewBox="0 0 210 50" xmlns="http://www.w3.org/2000/svg">
    <defs>
        <linearGradient x1="0%" y1="0%" x2="100%" y2="0%" id="a">
            <stop stop-color="#3023AE" offset="0%"/>
            <stop stop-color="#C86DD7" offset="100%"/>
        </linearGradient>
    </defs>
    <path stroke="url(#a)"
          stroke-width="3"
          stroke-linejoin="round"
          stroke-linecap="round"
          d="M5 40 C 5.32 38.53, 8.61 17.39, 10 16.82 S 13.99 34.8, 15 35.91 S 18.68 28.45, 20 27.73 S 23.76 31.3, 25 30.45 S 29.34 22.26, 30 20.91 S 33.61 10.57, 35 10 S 39.05 15.66, 40 16.82 S 43.76 23.12, 45 22.27 S 48.55 10.39, 50 10 S 54.43 18.16, 55 19.55 S 59.05 33.39, 60 34.55 S 63.76 32.67, 65 31.82 S 68.5 27.73, 70 27.73 S 73.61 31.25, 75 31.82 S 78.51 31.62, 80 31.82 S 83.76 34.03, 85 33.18 S 88.51 25.2, 90 25 S 94.05 30.66, 95 31.82 S 98.92 38.31, 100 37.27 S 103.51 22.07, 105 22.27 S 109.11 37.43, 110 38.64 S 113.68 36.63, 115 35.91 S 118.55 32.78, 120 33.18 S 123.68 37.92, 125 38.64 S 128.5 38.64, 130 38.64 S 133.51 38.84, 135 38.64 S 138.5 37.27, 140 37.27 S 143.68 39.36, 145 38.64 S 148.68 32.54, 150 31.82 S 153.61 32.61, 155 33.18 S 158.55 35.51, 160 35.91 S 163.68 36.63, 165 35.91 S 168.51 30.25, 170 30.45 S 173.68 36.55, 175 37.27 S 178.5 35.91, 180 35.91 S 183.55 36.87, 185 37.27 S 188.51 38.44, 190 38.64 S 193.5 38.64, 195 38.64 S 198.5 38.64, 200 38.64 S 203.5 38.64, 205 38.64"
          fill="none"/>
    <circle r="4" cx="5" cy="40" fill="#3023AE"/>
    <circle r="4" cx="205" cy="38.64" fill="#C86DD7"/>      
</svg>