<svg width="200" height="50" viewBox="0 0 210 50" xmlns="http://www.w3.org/2000/svg">
    <defs>
        <linearGradient x1="0%" y1="0%" x2="100%" y2="0%" id="a">
            <stop stop-color="#3023AE" offset="0%"/>
            <stop stop-color="#C86DD7" offset="100%"/>
        </linearGradient>
    </defs>
    <path stroke="url(#a)"
          stroke-width="3"
          stroke-linejoin="round"
          stroke-linecap="round"
          d="M5 40 C 6.44 39.58, 8.5 38.6, 10 38.56 S 13.51 39.58, 15 39.76 S 18.86 40.74, 20 39.76 S 23.55 31.5, 25 31.12 S 28.75 36.28, 30 37.12 S 33.54 38.19, 35 37.84 S 38.98 35.82, 40 34.72 S 44.22 28.32, 45 27.04 S 48.52 18.19, 50 18.4 S 53.85 29.44, 55 28.48 S 58.92 11.04, 60 10 S 64.26 17.57, 65 18.88 S 68.65 27.11, 70 27.76 S 73.52 23.89, 75 23.68 S 78.53 26.04, 80 26.32 S 83.5 25.6, 85 25.6 S 88.59 25.81, 90 26.32 S 93.67 28.5, 95 29.2 S 98.58 31.12, 100 31.6 S 103.51 32.42, 105 32.56 S 108.51 32.42, 110 32.56 S 113.5 33.63, 115 33.52 S 118.51 31.66, 120 31.84 S 123.5 34.72, 125 34.72 S 128.5 31.91, 130 31.84 S 133.61 33.67, 135 34.24 S 138.6 35.38, 140 35.92 S 143.51 37.94, 145 38.08 S 148.5 36.77, 150 36.88 S 153.52 38.59, 155 38.8 S 158.5 38.39, 160 38.32 S 163.5 38.43, 165 38.32 S 168.5 37.53, 170 37.6 S 173.5 38.69, 175 38.8 S 178.51 38.18, 180 38.32 S 183.51 39.58, 185 39.76 S 188.5 39.52, 190 39.52 S 193.5 39.83, 195 39.76 S 198.5 39.08, 200 39.04 S 203.51 39.38, 205 39.52"
          fill="none"/>
    <circle r="4" cx="5" cy="40" fill="#3023AE"/>
    <circle r="4" cx="205" cy="39.52" fill="#C86DD7"/>      
</svg>