<svg width="200" height="50" viewBox="0 0 210 50" xmlns="http://www.w3.org/2000/svg">
    <defs>
        <linearGradient x1="0%" y1="0%" x2="100%" y2="0%" id="a">
            <stop stop-color="#3023AE" offset="0%"/>
            <stop stop-color="#C86DD7" offset="100%"/>
        </linearGradient>
    </defs>
    <path stroke="url(#a)"
          stroke-width="3"
          stroke-linejoin="round"
          stroke-linecap="round"
          d="M5 40 C 5.54 38.6, 8.86 28.12, 10 27.14 S 13.86 30.45, 15 31.43 S 18.62 35.12, 20 35.71 S 23.5 35.71, 25 35.71 S 29.08 36.89, 30 35.71 S 34.08 24.04, 35 22.86 S 38.5 22.86, 40 22.86 S 43.86 21.88, 45 22.86 S 48.62 30.84, 50 31.43 S 54.37 28.5, 55 27.14 S 58.62 9.41, 60 10 S 64.46 30.03, 65 31.43 S 68.5 35.71, 70 35.71 S 73.5 31.43, 75 31.43 S 79.08 36.89, 80 35.71 S 83.86 19.55, 85 18.57 S 89.08 25.96, 90 27.14 S 93.86 30.45, 95 31.43 S 98.62 36.3, 100 35.71 S 103.86 28.12, 105 27.14 S 108.62 26.55, 110 27.14 S 113.62 32.02, 115 31.43 S 118.86 23.84, 120 22.86 S 123.86 21.88, 125 22.86 S 128.62 30.84, 130 31.43 S 133.62 26.55, 135 27.14 S 138.62 35.12, 140 35.71 S 144.08 32.61, 145 31.43 S 148.62 23.45, 150 22.86 S 154.08 25.96, 155 27.14 S 158.62 35.12, 160 35.71 S 163.86 32.41, 165 31.43 S 168.62 27.73, 170 27.14 S 173.62 27.73, 175 27.14 S 178.62 22.27, 180 22.86 S 183.86 30.45, 185 31.43 S 188.62 30.84, 190 31.43 S 193.5 35.71, 195 35.71 S 199.37 32.79, 200 31.43 S 204.58 15.73, 205 14.29"
          fill="none"/>
    <circle r="4" cx="5" cy="40" fill="#3023AE"/>
    <circle r="4" cx="205" cy="14.29" fill="#C86DD7"/>      
</svg>