<svg width="200" height="50" viewBox="0 0 210 50" xmlns="http://www.w3.org/2000/svg">
    <defs>
        <linearGradient x1="0%" y1="0%" x2="100%" y2="0%" id="a">
            <stop stop-color="#3023AE" offset="0%"/>
            <stop stop-color="#C86DD7" offset="100%"/>
        </linearGradient>
    </defs>
    <path stroke="url(#a)"
          stroke-width="3"
          stroke-linejoin="round"
          stroke-linecap="round"
          d="M5 40 C 5.44 38.57, 8.84 24.59, 10 23.64 S 13.99 30.71, 15 31.82 S 18.5 34.55, 20 34.55 S 23.68 32.54, 25 31.82 S 28.68 28.37, 30 29.09 S 33.84 36.32, 35 37.27 S 38.55 37.66, 40 37.27 S 43.5 34.55, 45 34.55 S 48.84 38.22, 50 37.27 S 53.68 27.08, 55 26.36 S 58.84 30.87, 60 31.82 S 63.55 34.15, 65 34.55 S 68.55 34.16, 70 34.55 S 73.55 37.67, 75 37.27 S 78.68 32.54, 80 31.82 S 83.68 32.54, 85 31.82 S 88.68 25.64, 90 26.36 S 93.99 36.16, 95 37.27 S 98.68 37.99, 100 37.27 S 103.55 32.21, 105 31.82 S 108.68 33.83, 110 34.55 S 113.55 36.88, 115 37.27 S 118.55 37.66, 120 37.27 S 123.55 34.94, 125 34.55 S 128.68 35.27, 130 34.55 S 133.5 29.09, 135 29.09 S 138.55 34.95, 140 34.55 S 143.5 26.36, 145 26.36 S 148.5 34.55, 150 34.55 S 153.55 26.76, 155 26.36 S 158.55 32.21, 160 31.82 S 163.68 22.92, 165 23.64 S 169.11 36.06, 170 37.27 S 174.48 38.68, 175 37.27 S 178.99 11.11, 180 10 S 184.43 24.97, 185 26.36 S 188.68 33.83, 190 34.55 S 193.55 31.43, 195 31.82 S 198.68 36.55, 200 37.27 S 203.5 37.27, 205 37.27"
          fill="none"/>
    <circle r="4" cx="5" cy="40" fill="#3023AE"/>
    <circle r="4" cx="205" cy="37.27" fill="#C86DD7"/>      
</svg>