<svg width="200" height="50" viewBox="0 0 210 50" xmlns="http://www.w3.org/2000/svg">
    <defs>
        <linearGradient x1="0%" y1="0%" x2="100%" y2="0%" id="a">
            <stop stop-color="#3023AE" offset="0%"/>
            <stop stop-color="#C86DD7" offset="100%"/>
        </linearGradient>
    </defs>
    <path stroke="url(#a)"
          stroke-width="3"
          stroke-linejoin="round"
          stroke-linecap="round"
          d="M5 40 C 6.2 39.1, 8.6 36.78, 10 36.25 S 13.6 36.78, 15 36.25 S 18.6 33.03, 20 32.5 S 23.5 32.5, 25 32.5 S 28.5 32.5, 30 32.5 S 33.6 31.97, 35 32.5 S 38.6 35.72, 40 36.25 S 43.5 36.25, 45 36.25 S 48.5 36.25, 50 36.25 S 53.5 36.25, 55 36.25 S 58.5 36.25, 60 36.25 S 63.5 36.25, 65 36.25 S 68.5 36.25, 70 36.25 S 73.5 36.25, 75 36.25 S 78.5 36.25, 80 36.25 S 83.5 36.25, 85 36.25 S 88.5 36.25, 90 36.25 S 93.5 36.25, 95 36.25 S 98.5 36.25, 100 36.25 S 103.5 36.25, 105 36.25 S 108.6 36.78, 110 36.25 S 113.5 32.5, 115 32.5 S 118.6 35.72, 120 36.25 S 123.5 36.25, 125 36.25 S 128.5 36.25, 130 36.25 S 133.6 36.78, 135 36.25 S 138.5 32.5, 140 32.5 S 143.6 36.78, 145 36.25 S 148.5 28.75, 150 28.75 S 153.8 35.35, 155 36.25 S 158.6 36.78, 160 36.25 S 164.17 33.75, 165 32.5 S 168.6 21.78, 170 21.25 S 174 27.63, 175 28.75 S 179.29 33.82, 180 32.5 S 183.6 10.53, 185 10 S 189 27.63, 190 28.75 S 193.6 21.78, 195 21.25 S 199 23.88, 200 25 S 204.17 31.25, 205 32.5"
          fill="none"/>
    <circle r="4" cx="5" cy="40" fill="#3023AE"/>
    <circle r="4" cx="205" cy="32.5" fill="#C86DD7"/>      
</svg>