<svg width="200" height="50" viewBox="0 0 210 50" xmlns="http://www.w3.org/2000/svg">
    <defs>
        <linearGradient x1="0%" y1="0%" x2="100%" y2="0%" id="a">
            <stop stop-color="#3023AE" offset="0%"/>
            <stop stop-color="#C86DD7" offset="100%"/>
        </linearGradient>
    </defs>
    <path stroke="url(#a)"
          stroke-width="3"
          stroke-linejoin="round"
          stroke-linecap="round"
          d="M5 40 C 6.06 38.94, 9.17 36.25, 10 35 S 13.54 24.64, 15 25 S 18.94 36.44, 20 37.5 S 23.8 35.9, 25 35 S 28.8 30.9, 30 30 S 33.66 26.83, 35 27.5 S 38.8 35.9, 40 35 S 43.66 20.67, 45 20 S 48.54 29.64, 50 30 S 53.66 23.17, 55 22.5 S 58.5 25, 60 25 S 63.5 22.5, 65 22.5 S 69.06 26.17, 70 25 S 73.54 9.64, 75 10 S 79.26 26.2, 80 27.5 S 83.54 27.86, 85 27.5 S 88.5 25, 90 25 S 93.8 26.6, 95 27.5 S 98.54 32.14, 100 32.5 S 103.66 29.33, 105 30 S 108.8 36.6, 110 37.5 S 113.5 37.5, 115 37.5 S 118.54 37.86, 120 37.5 S 123.54 35.36, 125 35 S 128.66 35.67, 130 35 S 133.8 30.9, 135 30 S 138.66 26.83, 140 27.5 S 143.54 34.64, 145 35 S 148.8 30.9, 150 30 S 153.8 26.6, 155 27.5 S 158.66 36.83, 160 37.5 S 163.8 33.4, 165 32.5 S 168.5 30, 170 30 S 173.5 32.5, 175 32.5 S 178.66 30.67, 180 30 S 183.54 27.86, 185 27.5 S 188.94 26.44, 190 27.5 S 193.5 37.5, 195 37.5 S 199.26 28.8, 200 27.5 S 204.17 21.25, 205 20"
          fill="none"/>
    <circle r="4" cx="5" cy="40" fill="#3023AE"/>
    <circle r="4" cx="205" cy="20" fill="#C86DD7"/>      
</svg>