<svg width="200" height="50" viewBox="0 0 210 50" xmlns="http://www.w3.org/2000/svg">
    <defs>
        <linearGradient x1="0%" y1="0%" x2="100%" y2="0%" id="a">
            <stop stop-color="#3023AE" offset="0%"/>
            <stop stop-color="#C86DD7" offset="100%"/>
        </linearGradient>
    </defs>
    <path stroke="url(#a)"
          stroke-width="3"
          stroke-linejoin="round"
          stroke-linecap="round"
          d="M5 40 C 5.53 38.6, 8.75 27.5, 10 26.67 S 13.94 34.39, 15 33.33 S 18.58 17.14, 20 16.67 S 24.23 28.71, 25 30 S 28.5 33.33, 30 33.33 S 33.94 31.06, 35 30 S 38.58 22.86, 40 23.33 S 43.75 32.5, 45 33.33 S 48.58 30.47, 50 30 S 53.75 29.17, 55 30 S 58.58 36.2, 60 36.67 S 63.75 34.16, 65 33.33 S 69.23 31.29, 70 30 S 74.33 18.01, 75 16.67 S 79.1 8.8, 80 10 S 84.47 28.6, 85 30 S 88.5 36.67, 90 36.67 S 93.94 31.06, 95 30 S 98.58 27.14, 100 26.67 S 103.75 25.84, 105 26.67 S 108.75 32.5, 110 33.33 S 113.75 34.16, 115 33.33 S 118.5 26.67, 120 26.67 S 123.94 32.27, 125 33.33 S 128.94 37.73, 130 36.67 S 133.75 24.16, 135 23.33 S 138.58 29.52, 140 30 S 143.75 27.5, 145 26.67 S 148.94 22.27, 150 23.33 S 153.94 35.61, 155 36.67 S 158.75 34.16, 160 33.33 S 163.75 30.83, 165 30 S 168.75 25.84, 170 26.67 S 173.58 37.15, 175 36.67 S 179.1 24.53, 180 23.33 S 183.5 23.33, 185 23.33 S 188.5 23.33, 190 23.33 S 194.1 22.13, 195 23.33 S 199.47 35.27, 200 36.67"
          fill="none"/>
    <circle r="4" cx="5" cy="40" fill="#3023AE"/>
    <circle r="4" cx="200" cy="36.67" fill="#C86DD7"/>      
</svg>