<svg width="200" height="50" viewBox="0 0 210 50" xmlns="http://www.w3.org/2000/svg">
    <defs>
        <linearGradient x1="0%" y1="0%" x2="100%" y2="0%" id="a">
            <stop stop-color="#3023AE" offset="0%"/>
            <stop stop-color="#C86DD7" offset="100%"/>
        </linearGradient>
    </defs>
    <path stroke="url(#a)"
          stroke-width="3"
          stroke-linejoin="round"
          stroke-linecap="round"
          d="M5 40 C 5.43 38.56, 8.75 24.16, 10 23.33 S 13.94 32.27, 15 33.33 S 18.5 33.33, 20 33.33 S 23.58 33.8, 25 33.33 S 29.1 31.2, 30 30 S 33.94 21.06, 35 20 S 39.23 18.71, 40 20 S 43.5 36.67, 45 36.67 S 48.75 20.83, 50 20 S 53.94 28.94, 55 30 S 58.75 29.17, 60 30 S 63.58 37.14, 65 36.67 S 69.1 27.87, 70 26.67 S 73.58 22.86, 75 23.33 S 79.1 28.8, 80 30 S 83.94 37.73, 85 36.67 S 88.5 20, 90 20 S 93.94 35.61, 95 36.67 S 98.5 30, 100 30 S 103.58 36.2, 105 36.67 S 108.94 34.39, 110 33.33 S 113.58 27.14, 115 26.67 S 118.5 30, 120 30 S 123.75 25.84, 125 26.67 S 128.94 35.61, 130 36.67 S 133.75 37.5, 135 36.67 S 139.23 31.29, 140 30 S 143.5 20, 145 20 S 149.1 28.8, 150 30 S 153.58 32.86, 155 33.33 S 158.58 32.85, 160 33.33 S 164.1 37.87, 165 36.67 S 168.94 21.06, 170 20 S 174.1 25.47, 175 26.67 S 178.94 32.27, 180 33.33 S 183.5 36.67, 185 36.67 S 189.47 34.73, 190 33.33 S 193.75 10.83, 195 10 S 199.41 25.29, 200 26.67 S 204.1 32.13, 205 33.33"
          fill="none"/>
    <circle r="4" cx="5" cy="40" fill="#3023AE"/>
    <circle r="4" cx="205" cy="33.33" fill="#C86DD7"/>      
</svg>