<svg width="200" height="50" viewBox="0 0 210 50" xmlns="http://www.w3.org/2000/svg">
    <defs>
        <linearGradient x1="0%" y1="0%" x2="100%" y2="0%" id="a">
            <stop stop-color="#3023AE" offset="0%"/>
            <stop stop-color="#C86DD7" offset="100%"/>
        </linearGradient>
    </defs>
    <path stroke="url(#a)"
          stroke-width="3"
          stroke-linejoin="round"
          stroke-linecap="round"
          d="M5 40 C 5.25 38.52, 8.56 10.41, 10 10 S 14.44 35.75, 15 37.14 S 18.53 34.68, 20 35 S 23.59 38.79, 25 39.29 S 28.56 38.98, 30 38.57 S 33.5 36.32, 35 36.43 S 38.56 38.88, 40 39.29 S 43.5 39.29, 45 39.29 S 48.5 39.29, 50 39.29 S 53.5 39.29, 55 39.29 S 58.5 39.29, 60 39.29 S 63.52 39.5, 65 39.29 S 68.5 37.97, 70 37.86 S 74.4 39.94, 75 38.57 S 78.5 15.11, 80 15 S 84.41 36.48, 85 37.86 S 88.52 38.36, 90 38.57 S 93.59 39.79, 95 39.29 S 98.5 35, 100 35 S 103.62 38.7, 105 39.29 S 108.5 39.29, 110 39.29 S 113.7 40.03, 115 39.29 S 118.5 33.68, 120 33.57 S 123.7 37.83, 125 38.57 S 128.52 39.5, 130 39.29 S 133.5 37.25, 135 37.14 S 138.53 38.25, 140 38.57 S 143.5 39.18, 145 39.29 S 148.5 39.29, 150 39.29 S 153.5 39.29, 155 39.29 S 158.5 39.29, 160 39.29 S 163.5 39.29, 165 39.29 S 168.53 39.61, 170 39.29 S 173.5 37.14, 175 37.14 S 178.53 38.97, 180 39.29 S 183.5 39.29, 185 39.29 S 188.52 39.5, 190 39.29 S 193.5 37.86, 195 37.86 S 198.5 39.18, 200 39.29 S 203.52 38.78, 205 38.57"
          fill="none"/>
    <circle r="4" cx="5" cy="40" fill="#3023AE"/>
    <circle r="4" cx="205" cy="38.57" fill="#C86DD7"/>      
</svg>