<svg width="200" height="50" viewBox="0 0 210 50" xmlns="http://www.w3.org/2000/svg">
    <defs>
        <linearGradient x1="0%" y1="0%" x2="100%" y2="0%" id="a">
            <stop stop-color="#3023AE" offset="0%"/>
            <stop stop-color="#C86DD7" offset="100%"/>
        </linearGradient>
    </defs>
    <path stroke="url(#a)"
          stroke-width="3"
          stroke-linejoin="round"
          stroke-linecap="round"
          d="M5 40 C 5.8 38.73, 8.58 32.5, 10 32.02 S 13.72 35.83, 15 36.61 S 18.54 37.8, 20 38.15 S 23.51 38.86, 25 39.02 S 28.5 39.1, 30 39.19 S 33.5 39.61, 35 39.61 S 38.5 39.26, 40 39.19 S 43.5 39.13, 45 39.13 S 48.5 39.22, 50 39.16 S 53.5 38.67, 55 38.74 S 58.5 39.54, 60 39.64 S 64.52 40.86, 65 39.44 S 68.55 10.38, 70 10 S 74.49 35.4, 75 36.81 S 78.54 37.15, 80 37.48 S 83.55 39.48, 85 39.1 S 88.52 35.1, 90 34.88 S 93.61 37.07, 95 37.62 S 98.5 38.75, 100 38.85 S 103.54 38.65, 105 38.32 S 108.57 37.06, 110 36.61 S 113.52 34.94, 115 35.16 S 118.56 37.65, 120 38.07 S 123.5 38.08, 125 38.07 S 128.5 38.02, 130 38.01 S 133.5 38.09, 135 37.99 S 138.51 37.54, 140 37.37 S 143.5 36.8, 145 36.84 S 148.51 37.49, 150 37.65 S 153.51 37.74, 155 37.93 S 158.5 38.91, 160 38.94 S 163.5 38.21, 165 38.1 S 168.68 38.92, 170 38.21 S 173.5 32.85, 175 32.75 S 178.65 36.89, 180 37.54 S 183.5 37.61, 185 37.57 S 188.5 37.29, 190 37.29 S 193.51 37.41, 195 37.57 S 198.51 38.17, 200 38.35 S 203.51 38.67, 205 38.8"
          fill="none"/>
    <circle r="4" cx="5" cy="40" fill="#3023AE"/>
    <circle r="4" cx="205" cy="38.8" fill="#C86DD7"/>      
</svg>