<svg width="200" height="50" viewBox="0 0 210 50" xmlns="http://www.w3.org/2000/svg">
    <defs>
        <linearGradient x1="0%" y1="0%" x2="100%" y2="0%" id="a">
            <stop stop-color="#3023AE" offset="0%"/>
            <stop stop-color="#C86DD7" offset="100%"/>
        </linearGradient>
    </defs>
    <path stroke="url(#a)"
          stroke-width="3"
          stroke-linejoin="round"
          stroke-linecap="round"
          d="M5 40 C 6.5 39.97, 8.5 39.9, 10 39.89 S 13.5 39.94, 15 39.95 S 18.5 39.95, 20 39.95 S 23.5 39.95, 25 39.95 S 28.5 39.95, 30 39.95 S 33.5 39.95, 35 39.95 S 38.5 39.95, 40 39.95 S 43.5 39.95, 45 39.95 S 48.5 39.95, 50 39.95 S 53.5 39.95, 55 39.95 S 59.52 41.37, 60 39.95 S 63.98 11.1, 65 10 S 69.46 27.7, 70 29.1 S 73.86 35.14, 75 36.12 S 78.5 37.82, 80 37.71 S 83.54 35.7, 85 35.37 S 88.53 35.19, 90 35.48 S 93.5 37.24, 95 37.34 S 98.51 36.3, 100 36.17 S 103.52 36.27, 105 36.49 S 108.51 37.49, 110 37.66 S 113.53 37.94, 115 37.66 S 118.64 36.38, 120 35.74 S 123.5 32.92, 125 32.98 S 128.61 35.55, 130 36.12 S 133.51 36.96, 135 37.13 S 138.5 37.37, 140 37.29 S 143.62 37.18, 145 36.6 S 148.5 33.07, 150 33.09 S 153.62 36.18, 155 36.76 S 158.59 37.79, 160 37.29 S 163.51 33.41, 165 33.24 S 168.6 35.62, 170 36.17 S 173.5 37.1, 175 37.18 S 178.51 36.9, 180 36.7 S 183.5 35.91, 185 35.85 S 188.5 36.44, 190 36.33 S 193.5 35.15, 195 35.11 S 198.5 35.97, 200 36.06 S 203.5 35.84, 205 35.74"
          fill="none"/>
    <circle r="4" cx="5" cy="40" fill="#3023AE"/>
    <circle r="4" cx="205" cy="35.74" fill="#C86DD7"/>      
</svg>