<svg width="200" height="50" viewBox="0 0 210 50" xmlns="http://www.w3.org/2000/svg">
    <defs>
        <linearGradient x1="0%" y1="0%" x2="100%" y2="0%" id="a">
            <stop stop-color="#3023AE" offset="0%"/>
            <stop stop-color="#C86DD7" offset="100%"/>
        </linearGradient>
    </defs>
    <path stroke="url(#a)"
          stroke-width="3"
          stroke-linejoin="round"
          stroke-linecap="round"
          d="M5 40 C 5.25 38.52, 8.66 10.67, 10 10 S 14.44 33.61, 15 35 S 18.66 35.67, 20 35 S 23.94 31.06, 25 30 S 28.5 25, 30 25 S 33.94 28.94, 35 30 S 38.66 34.33, 40 35 S 43.94 36.06, 45 35 S 48.66 25.67, 50 25 S 53.66 29.33, 55 30 S 58.5 30, 60 30 S 63.66 29.33, 65 30 S 68.5 35, 70 35 S 73.66 30.67, 75 30 S 78.66 29.33, 80 30 S 83.66 34.33, 85 35 S 88.5 35, 90 35 S 93.5 35, 95 35 S 98.5 35, 100 35 S 103.5 35, 105 35 S 108.5 35, 110 35 S 113.5 35, 115 35 S 118.5 35, 120 35 S 123.5 35, 125 35 S 128.5 35, 130 35 S 133.5 35, 135 35 S 138.5 35, 140 35 S 143.94 36.06, 145 35 S 148.5 25, 150 25 S 153.66 34.33, 155 35 S 158.5 30, 160 30 S 163.66 34.33, 165 35 S 168.5 35, 170 35 S 173.5 35, 175 35"
          fill="none"/>
    <circle r="4" cx="5" cy="40" fill="#3023AE"/>
    <circle r="4" cx="175" cy="35" fill="#C86DD7"/>      
</svg>