<svg width="200" height="50" viewBox="0 0 210 50" xmlns="http://www.w3.org/2000/svg">
    <defs>
        <linearGradient x1="0%" y1="0%" x2="100%" y2="0%" id="a">
            <stop stop-color="#3023AE" offset="0%"/>
            <stop stop-color="#C86DD7" offset="100%"/>
        </linearGradient>
    </defs>
    <path stroke="url(#a)"
          stroke-width="3"
          stroke-linejoin="round"
          stroke-linecap="round"
          d="M5 40 C 5.76 38.7, 8.74 32.24, 10 31.43 S 13.74 32.76, 15 33.57 S 18.62 38.45, 20 37.86 S 24.08 30.47, 25 29.29 S 28.86 24.02, 30 25 S 34.08 36.68, 35 37.86 S 38.53 38.18, 40 37.86 S 43.5 35.71, 45 35.71 S 48.53 38.17, 50 37.86 S 53.5 33.57, 55 33.57 S 58.53 38.17, 60 37.86 S 63.53 31.75, 65 31.43 S 68.53 35.4, 70 35.71 S 73.53 33.88, 75 33.57 S 78.86 34.55, 80 33.57 S 83.5 25, 85 25 S 88.86 32.59, 90 33.57 S 93.62 34.16, 95 33.57 S 98.98 30.39, 100 29.29 S 103.53 23.18, 105 22.86 S 108.62 26.55, 110 27.14 S 113.5 27.14, 115 27.14 S 118.86 26.16, 120 27.14 S 123.86 34.73, 125 35.71 S 128.98 36.81, 130 35.71 S 133.62 25.59, 135 25 S 138.98 30.33, 140 31.43 S 143.62 35.12, 145 35.71 S 148.53 36.02, 150 35.71 S 153.74 34.38, 155 33.57 S 158.53 28.98, 160 29.29 S 164.17 36.96, 165 35.71 S 168.86 15.27, 170 14.29 S 174.08 25.96, 175 27.14 S 179.24 28.44, 180 27.14 S 183.53 10.31, 185 10 S 189.37 23.64, 190 25 S 193.98 30.33, 195 31.43 S 198.98 36.81, 200 35.71 S 204.53 22.13, 205 20.71"
          fill="none"/>
    <circle r="4" cx="5" cy="40" fill="#3023AE"/>
    <circle r="4" cx="205" cy="20.71" fill="#C86DD7"/>      
</svg>