<svg width="200" height="50" viewBox="0 0 210 50" xmlns="http://www.w3.org/2000/svg">
    <defs>
        <linearGradient x1="0%" y1="0%" x2="100%" y2="0%" id="a">
            <stop stop-color="#3023AE" offset="0%"/>
            <stop stop-color="#C86DD7" offset="100%"/>
        </linearGradient>
    </defs>
    <path stroke="url(#a)"
          stroke-width="3"
          stroke-linejoin="round"
          stroke-linecap="round"
          d="M5 40 C 5.42 38.56, 9.24 24.16, 10 22.86 S 14.08 21.68, 15 22.86 S 18.86 34.73, 20 35.71 S 23.62 32.02, 25 31.43 S 29.08 32.61, 30 31.43 S 33.5 18.57, 35 18.57 S 39.24 30.13, 40 31.43 S 43.62 35.12, 45 35.71 S 48.5 35.71, 50 35.71 S 53.5 35.71, 55 35.71 S 58.5 35.71, 60 35.71 S 64.46 37.11, 65 35.71 S 68.86 10.98, 70 10 S 74.46 25.74, 75 27.14 S 78.62 35.12, 80 35.71 S 83.5 31.43, 85 31.43 S 88.62 35.12, 90 35.71 S 93.5 35.71, 95 35.71 S 98.5 35.71, 100 35.71 S 103.5 35.71, 105 35.71 S 108.5 35.71, 110 35.71 S 113.5 35.71, 115 35.71 S 118.86 36.69, 120 35.71 S 123.5 27.14, 125 27.14 S 128.62 35.12, 130 35.71 S 133.86 32.41, 135 31.43 S 138.62 26.55, 140 27.14 S 143.86 34.73, 145 35.71 S 148.62 36.3, 150 35.71 S 153.86 32.41, 155 31.43 S 158.86 28.12, 160 27.14 S 163.62 22.27, 165 22.86 S 169.08 30.25, 170 31.43 S 173.5 35.71, 175 35.71 S 178.5 31.43, 180 31.43 S 183.62 35.12, 185 35.71 S 188.5 35.71, 190 35.71 S 193.5 35.71, 195 35.71 S 198.5 35.71, 200 35.71 S 203.5 35.71, 205 35.71"
          fill="none"/>
    <circle r="4" cx="5" cy="40" fill="#3023AE"/>
    <circle r="4" cx="205" cy="35.71" fill="#C86DD7"/>      
</svg>