<svg width="200" height="50" viewBox="0 0 210 50" xmlns="http://www.w3.org/2000/svg">
    <defs>
        <linearGradient x1="0%" y1="0%" x2="100%" y2="0%" id="a">
            <stop stop-color="#3023AE" offset="0%"/>
            <stop stop-color="#C86DD7" offset="100%"/>
        </linearGradient>
    </defs>
    <path stroke="url(#a)"
          stroke-width="3"
          stroke-linejoin="round"
          stroke-linecap="round"
          d="M5 40 C 5.9 38.8, 8.58 33.8, 10 33.33 S 13.58 36.19, 15 36.67 S 18.5 36.67, 20 36.67 S 23.5 36.67, 25 36.67 S 28.5 36.67, 30 36.67 S 33.5 36.67, 35 36.67 S 38.5 36.67, 40 36.67 S 43.5 36.67, 45 36.67 S 48.5 36.67, 50 36.67 S 53.5 36.67, 55 36.67 S 58.5 36.67, 60 36.67 S 63.5 36.67, 65 36.67 S 68.5 36.67, 70 36.67 S 73.5 36.67, 75 36.67 S 78.5 36.67, 80 36.67 S 83.5 36.67, 85 36.67 S 88.5 36.67, 90 36.67 S 93.5 36.67, 95 36.67 S 98.5 36.67, 100 36.67 S 103.75 37.5, 105 36.67 S 108.5 30, 110 30 S 114.33 38.01, 115 36.67 S 118.5 10, 120 10 S 124.33 35.33, 125 36.67 S 128.58 30.48, 130 30 S 133.58 32.86, 135 33.33 S 138.58 32.85, 140 33.33 S 143.58 36.19, 145 36.67 S 148.5 36.67, 150 36.67 S 153.5 36.67, 155 36.67 S 158.5 36.67, 160 36.67 S 163.94 37.73, 165 36.67 S 168.75 27.5, 170 26.67 S 173.5 30, 175 30 S 178.58 26.2, 180 26.67 S 183.75 32.5, 185 33.33 S 188.58 32.85, 190 33.33 S 193.58 36.19, 195 36.67 S 198.5 36.67, 200 36.67"
          fill="none"/>
    <circle r="4" cx="5" cy="40" fill="#3023AE"/>
    <circle r="4" cx="200" cy="36.67" fill="#C86DD7"/>      
</svg>