<svg width="200" height="50" viewBox="0 0 210 50" xmlns="http://www.w3.org/2000/svg">
    <defs>
        <linearGradient x1="0%" y1="0%" x2="100%" y2="0%" id="a">
            <stop stop-color="#3023AE" offset="0%"/>
            <stop stop-color="#C86DD7" offset="100%"/>
        </linearGradient>
    </defs>
    <path stroke="url(#a)"
          stroke-width="3"
          stroke-linejoin="round"
          stroke-linecap="round"
          d="M5 40 C 6.06 38.94, 8.66 35.67, 10 35 S 13.5 35, 15 35 S 18.5 35, 20 35 S 23.5 35, 25 35 S 28.5 35, 30 35 S 33.5 35, 35 35 S 38.5 35, 40 35 S 43.5 35, 45 35 S 48.5 35, 50 35 S 53.5 35, 55 35 S 58.5 35, 60 35 S 63.5 35, 65 35 S 68.5 35, 70 35 S 73.5 35, 75 35 S 78.5 35, 80 35 S 83.5 35, 85 35 S 88.5 35, 90 35 S 93.5 35, 95 35 S 98.5 35, 100 35 S 104.17 36.25, 105 35 S 108.5 20, 110 20 S 114.17 33.75, 115 35 S 118.5 35, 120 35 S 124.33 36.34, 125 35 S 128.5 15, 130 15 S 134.33 33.66, 135 35 S 138.5 35, 140 35 S 144.17 36.25, 145 35 S 148.5 20, 150 20 S 153.94 33.94, 155 35 S 158.94 31.06, 160 30 S 163.5 25, 165 25 S 168.5 30, 170 30 S 173.94 26.06, 175 25 S 178.94 18.94, 180 20 S 183.94 36.06, 185 35 S 188.66 10.67, 190 10 S 193.94 28.94, 195 30 S 198.5 20, 200 20 S 204.33 28.66, 205 30"
          fill="none"/>
    <circle r="4" cx="5" cy="40" fill="#3023AE"/>
    <circle r="4" cx="205" cy="30" fill="#C86DD7"/>      
</svg>