<svg width="200" height="50" viewBox="0 0 210 50" xmlns="http://www.w3.org/2000/svg">
    <defs>
        <linearGradient x1="0%" y1="0%" x2="100%" y2="0%" id="a">
            <stop stop-color="#3023AE" offset="0%"/>
            <stop stop-color="#C86DD7" offset="100%"/>
        </linearGradient>
    </defs>
    <path stroke="url(#a)"
          stroke-width="3"
          stroke-linejoin="round"
          stroke-linecap="round"
          d="M5 40 C 5.47 38.58, 8.8 25.9, 10 25 S 13.8 31.6, 15 32.5 S 18.5 32.5, 20 32.5 S 24.17 33.75, 25 32.5 S 28.5 17.5, 30 17.5 S 34.17 31.25, 35 32.5 S 38.5 32.5, 40 32.5 S 43.5 32.5, 45 32.5 S 48.5 32.5, 50 32.5 S 54.39 33.87, 55 32.5 S 58.5 10, 60 10 S 64.39 31.13, 65 32.5 S 68.5 32.5, 70 32.5 S 74.39 33.87, 75 32.5 S 78.5 10, 80 10 S 84.39 31.13, 85 32.5 S 88.8 33.4, 90 32.5 S 93.5 25, 95 25 S 98.8 31.6, 100 32.5 S 103.5 32.5, 105 32.5 S 108.5 32.5, 110 32.5 S 113.5 32.5, 115 32.5 S 118.5 32.5, 120 32.5 S 123.5 32.5, 125 32.5 S 128.5 32.5, 130 32.5 S 133.5 32.5, 135 32.5 S 138.5 32.5, 140 32.5 S 143.5 32.5, 145 32.5 S 148.5 32.5, 150 32.5 S 153.5 32.5, 155 32.5 S 158.5 32.5, 160 32.5 S 163.5 32.5, 165 32.5 S 168.5 32.5, 170 32.5 S 173.5 32.5, 175 32.5"
          fill="none"/>
    <circle r="4" cx="5" cy="40" fill="#3023AE"/>
    <circle r="4" cx="175" cy="32.5" fill="#C86DD7"/>      
</svg>