<svg width="200" height="50" viewBox="0 0 210 50" xmlns="http://www.w3.org/2000/svg">
    <defs>
        <linearGradient x1="0%" y1="0%" x2="100%" y2="0%" id="a">
            <stop stop-color="#3023AE" offset="0%"/>
            <stop stop-color="#C86DD7" offset="100%"/>
        </linearGradient>
    </defs>
    <path stroke="url(#a)"
          stroke-width="3"
          stroke-linejoin="round"
          stroke-linecap="round"
          d="M5 40 C 5.31 38.53, 8.53 16.29, 10 16 S 14.38 36.63, 15 38 S 18.5 38, 20 38 S 24.04 39.15, 25 38 S 29.5 27.41, 30 26 S 33.71 10.77, 35 10 S 38.94 18.94, 40 20 S 43.94 18.94, 45 20 S 49.21 28.73, 50 30 S 53.71 36.77, 55 36 S 58.94 25.06, 60 24 S 63.61 26.56, 65 26 S 68.5 20, 70 20 S 73.94 24.94, 75 26 S 78.71 29.23, 80 30 S 83.61 31.44, 85 32 S 88.61 34.56, 90 34 S 94.04 29.15, 95 28 S 98.71 21.23, 100 22 S 104.13 32.78, 105 34 S 108.71 36.77, 110 36 S 113.94 29.06, 115 28 S 118.71 25.23, 120 26 S 124.04 32.85, 125 34 S 128.83 38.94, 130 38 S 134.13 27.22, 135 26 S 138.83 24.94, 140 24 S 143.5 18, 145 18 S 149.04 22.85, 150 24 S 153.61 29.44, 155 30 S 159.27 29.31, 160 28 S 163.53 11.71, 165 12 S 169.13 28.78, 170 30 S 173.61 26.56, 175 26 S 178.71 26.77, 180 26 S 183.71 19.23, 185 20 S 188.53 31.71, 190 32 S 193.71 22.77, 195 22 S 198.5 26, 200 26 S 203.83 22.94, 205 22"
          fill="none"/>
    <circle r="4" cx="5" cy="40" fill="#3023AE"/>
    <circle r="4" cx="205" cy="22" fill="#C86DD7"/>      
</svg>