<svg width="200" height="50" viewBox="0 0 210 50" xmlns="http://www.w3.org/2000/svg">
    <defs>
        <linearGradient x1="0%" y1="0%" x2="100%" y2="0%" id="a">
            <stop stop-color="#3023AE" offset="0%"/>
            <stop stop-color="#C86DD7" offset="100%"/>
        </linearGradient>
    </defs>
    <path stroke="url(#a)"
          stroke-width="3"
          stroke-linejoin="round"
          stroke-linecap="round"
          d="M5 40 C 6.36 39.37, 8.64 38.32, 10 37.69 S 13.54 35.72, 15 35.38 S 18.5 35.38, 20 35.38 S 23.54 35.72, 25 35.38 S 28.54 32.74, 30 33.08 S 34.02 38.82, 35 37.69 S 39.21 22.82, 40 21.54 S 43.9 20.52, 45 21.54 S 48.54 31.11, 50 30.77 S 53.64 19.86, 55 19.23 S 58.54 26.49, 60 26.15 S 63.54 17.26, 65 16.92 S 68.64 24.48, 70 23.85 S 73.54 12.65, 75 12.31 S 79.29 20.22, 80 21.54 S 83.64 31.4, 85 30.77 S 88.5 16.92, 90 16.92 S 93.77 29.92, 95 30.77 S 98.77 24.7, 100 23.85 S 103.77 24.7, 105 23.85 S 108.9 17.94, 110 16.92 S 114.12 13.4, 115 14.62 S 119.02 29.64, 120 30.77 S 123.77 25.3, 125 26.15 S 128.9 36.67, 130 37.69 S 134.02 36.51, 135 35.38 S 139.29 27.47, 140 26.15 S 144.21 18.2, 145 16.92 S 148.64 9.37, 150 10 S 153.77 20.69, 155 21.54 S 158.54 16.58, 160 16.92 S 164.12 22.63, 165 23.85 S 168.77 29.92, 170 30.77 S 174.12 31.99, 175 30.77 S 178.9 17.94, 180 16.92 S 183.64 22.17, 185 21.54 S 188.64 12.94, 190 12.31 S 193.77 16.07, 195 16.92 S 199.12 18.01, 200 19.23 S 204.4 29.39, 205 30.77"
          fill="none"/>
    <circle r="4" cx="5" cy="40" fill="#3023AE"/>
    <circle r="4" cx="205" cy="30.77" fill="#C86DD7"/>      
</svg>