<svg width="200" height="50" viewBox="0 0 210 50" xmlns="http://www.w3.org/2000/svg">
    <defs>
        <linearGradient x1="0%" y1="0%" x2="100%" y2="0%" id="a">
            <stop stop-color="#3023AE" offset="0%"/>
            <stop stop-color="#C86DD7" offset="100%"/>
        </linearGradient>
    </defs>
    <path stroke="url(#a)"
          stroke-width="3"
          stroke-linejoin="round"
          stroke-linecap="round"
          d="M5 40 C 6.41 39.49, 8.5 38.29, 10 38.18 S 13.52 38.99, 15 39.24 S 18.5 39.83, 20 39.85 S 23.5 39.39, 25 39.39 S 28.5 39.78, 30 39.85 S 33.5 39.85, 35 39.85 S 38.5 39.85, 40 39.85 S 43.5 39.85, 45 39.85 S 48.68 40.57, 50 39.85 S 53.64 35.03, 55 34.39 S 58.56 35.58, 60 35.15 S 63.52 31.09, 65 31.36 S 68.66 36.3, 70 36.97 S 73.52 36.61, 75 36.36 S 78.5 35.3, 80 35.3 S 83.5 36.27, 85 36.36 S 88.5 35.82, 90 35.91 S 93.5 37.08, 95 36.97 S 98.51 35.33, 100 35.15 S 103.51 35.62, 105 35.76 S 108.51 36.22, 110 36.06 S 113.51 34.54, 115 34.7 S 118.58 36.63, 120 37.12 S 123.52 37.91, 125 38.18 S 128.5 39.03, 130 38.94 S 133.51 37.72, 135 37.58 S 138.5 37.92, 140 38.03 S 143.51 38.15, 145 38.33 S 148.51 39.1, 150 39.24 S 153.5 39.35, 155 39.24 S 158.5 38.48, 160 38.48 S 163.5 39.17, 165 39.24 S 168.93 39.99, 170 38.94 S 173.63 30.01, 175 29.39 S 178.81 35.31, 180 34.39 S 183.8 22.58, 185 21.67 S 188.88 27.82, 190 26.82 S 194.23 14.02, 195 12.73 S 198.5 9.96, 200 10 S 203.72 12.25, 205 13.03"
          fill="none"/>
    <circle r="4" cx="5" cy="40" fill="#3023AE"/>
    <circle r="4" cx="205" cy="13.030000000000001" fill="#C86DD7"/>      
</svg>