<svg width="200" height="50" viewBox="0 0 210 50" xmlns="http://www.w3.org/2000/svg">
    <defs>
        <linearGradient x1="0%" y1="0%" x2="100%" y2="0%" id="a">
            <stop stop-color="#3023AE" offset="0%"/>
            <stop stop-color="#C86DD7" offset="100%"/>
        </linearGradient>
    </defs>
    <path stroke="url(#a)"
          stroke-width="3"
          stroke-linejoin="round"
          stroke-linecap="round"
          d="M5 40 C 6.47 39.72, 8.5 39.1, 10 39.04 S 13.5 39.49, 15 39.58 S 18.5 39.58, 20 39.61 S 23.5 39.78, 25 39.79 S 28.52 39.89, 30 39.65 S 33.5 38.25, 35 38.2 S 38.51 39.2, 40 39.33 S 43.5 39.1, 45 39.1 S 48.5 39.36, 50 39.34 S 53.5 39.05, 55 38.99 S 58.5 38.97, 60 38.91 S 63.5 38.56, 65 38.56 S 68.51 39.04, 70 38.91 S 73.51 37.83, 75 37.7 S 78.5 38.18, 80 38.07 S 83.67 37.65, 85 36.96 S 89.48 34.3, 90 32.89 S 93.52 9.74, 95 10 S 99.48 33.25, 100 34.66 S 103.55 36.97, 105 37.35 S 108.5 37.33, 110 37.31 S 113.5 37.29, 115 37.22 S 118.5 36.83, 120 36.83 S 123.5 37.14, 125 37.23 S 128.5 37.4, 130 37.46 S 133.5 37.62, 135 37.61 S 138.58 37.91, 140 37.42 S 143.51 34.28, 145 34.15 S 148.57 36.08, 150 36.55 S 153.5 37.34, 155 37.42 S 158.76 37.95, 160 37.11 S 163.5 30.66, 165 30.64 S 168.76 36.12, 170 36.97 S 173.5 37.43, 175 37.53 S 178.5 37.72, 180 37.67 S 183.5 37.28, 185 37.21 S 188.5 37.15, 190 37.18 S 193.5 37.39, 195 37.38 S 198.5 37.1, 200 37.13 S 203.51 37.42, 205 37.55"
          fill="none"/>
    <circle r="4" cx="5" cy="40" fill="#3023AE"/>
    <circle r="4" cx="205" cy="37.55" fill="#C86DD7"/>      
</svg>