<svg width="200" height="50" viewBox="0 0 210 50" xmlns="http://www.w3.org/2000/svg">
    <defs>
        <linearGradient x1="0%" y1="0%" x2="100%" y2="0%" id="a">
            <stop stop-color="#3023AE" offset="0%"/>
            <stop stop-color="#C86DD7" offset="100%"/>
        </linearGradient>
    </defs>
    <path stroke="url(#a)"
          stroke-width="3"
          stroke-linejoin="round"
          stroke-linecap="round"
          d="M5 40 C 6.44 39.57, 8.52 38.72, 10 38.5 S 13.5 38.5, 15 38.5 S 18.5 38.5, 20 38.5 S 23.5 38.5, 25 38.5 S 28.5 38.5, 30 38.5 S 33.5 38.5, 35 38.5 S 38.5 38.5, 40 38.5 S 43.5 38.5, 45 38.5 S 48.5 38.5, 50 38.5 S 53.5 38.5, 55 38.5 S 58.5 38.5, 60 38.5 S 63.5 38.5, 65 38.5 S 68.5 38.5, 70 38.5 S 73.5 38.5, 75 38.5 S 78.5 38.5, 80 38.5 S 83.5 38.5, 85 38.5 S 88.5 38.5, 90 38.5 S 93.5 38.5, 95 38.5 S 98.5 38.5, 100 38.5 S 103.5 38.5, 105 38.5 S 108.5 38.5, 110 38.5 S 113.5 38.5, 115 38.5 S 118.5 38.5, 120 38.5 S 123.5 38.5, 125 38.5 S 128.5 38.5, 130 38.5 S 133.5 38.5, 135 38.5 S 138.5 38.5, 140 38.5 S 144.42 39.88, 145 38.5 S 149.39 15.87, 150 14.5 S 153.52 15.78, 155 16 S 158.52 15.78, 160 16 S 163.97 16.41, 165 17.5 S 168.8 25.6, 170 26.5 S 173.63 25.62, 175 25 S 178.89 23, 180 22 S 184.04 17.15, 185 16 S 189.04 8.85, 190 10 S 194.22 26.72, 195 28 S 198.5 26.5, 200 26.5 S 203.56 27.57, 205 28"
          fill="none"/>
    <circle r="4" cx="5" cy="40" fill="#3023AE"/>
    <circle r="4" cx="205" cy="28" fill="#C86DD7"/>      
</svg>