<svg width="200" height="50" viewBox="0 0 210 50" xmlns="http://www.w3.org/2000/svg">
    <defs>
        <linearGradient x1="0%" y1="0%" x2="100%" y2="0%" id="a">
            <stop stop-color="#3023AE" offset="0%"/>
            <stop stop-color="#C86DD7" offset="100%"/>
        </linearGradient>
    </defs>
    <path stroke="url(#a)"
          stroke-width="3"
          stroke-linejoin="round"
          stroke-linecap="round"
          d="M5 40 C 6.5 40, 8.5 39.99, 10 39.99 S 13.5 39.99, 15 39.99 S 18.5 39.99, 20 39.99 S 23.5 39.99, 25 39.99 S 28.5 39.99, 30 39.99 S 33.5 39.99, 35 39.99 S 38.5 39.99, 40 39.99 S 43.5 39.99, 45 39.99 S 48.5 39.99, 50 39.99 S 53.5 39.99, 55 39.99 S 58.5 40.08, 60 39.96 S 63.5 39.19, 65 39.19 S 68.5 39.86, 70 39.98 S 73.5 40.01, 75 39.99 S 78.59 40.36, 80 39.86 S 83.51 36.61, 85 36.44 S 88.57 38.28, 90 38.72 S 93.5 39.4, 95 39.49 S 98.5 39.28, 100 39.29 S 103.5 39.58, 105 39.58 S 108.5 39.38, 110 39.28 S 113.5 39.04, 115 38.94 S 118.5 38.53, 120 38.58 S 123.5 39.2, 125 39.26 S 128.5 38.98, 130 38.99 S 133.5 39.4, 135 39.36 S 138.5 38.76, 140 38.72 S 143.5 38.98, 145 39.09 S 148.5 39.41, 150 39.45 S 153.5 39.43, 155 39.34 S 158.5 38.84, 160 38.86 S 163.5 39.38, 165 39.46 S 168.5 39.41, 170 39.41 S 173.5 39.48, 175 39.45 S 178.5 39.27, 180 39.21 S 184.51 40.44, 185 39.02 S 189.14 11.23, 190 10 S 194.48 23.44, 195 24.85 S 199.05 35.93, 200 37.09 S 203.5 37.02, 205 36.99"
          fill="none"/>
    <circle r="4" cx="5" cy="40" fill="#3023AE"/>
    <circle r="4" cx="205" cy="36.99" fill="#C86DD7"/>      
</svg>