<svg width="200" height="50" viewBox="0 0 210 50" xmlns="http://www.w3.org/2000/svg">
    <defs>
        <linearGradient x1="0%" y1="0%" x2="100%" y2="0%" id="a">
            <stop stop-color="#3023AE" offset="0%"/>
            <stop stop-color="#C86DD7" offset="100%"/>
        </linearGradient>
    </defs>
    <path stroke="url(#a)"
          stroke-width="3"
          stroke-linejoin="round"
          stroke-linecap="round"
          d="M5 40 C 6.49 39.81, 8.5 39.36, 10 39.35 S 13.5 39.91, 15 39.9 S 18.51 39.42, 20 39.29 S 23.5 39.1, 25 39.05 S 28.51 39.1, 30 38.95 S 34.45 39.46, 35 38.06 S 39.37 14.73, 40 13.37 S 44.08 15.37, 45 16.56 S 49.14 25.06, 50 26.29 S 53.71 30.01, 55 30.78 S 59.2 33.55, 60 32.28 S 64.39 16.17, 65 14.8 S 69.31 8.67, 70 10 S 74.32 32.91, 75 34.25 S 78.51 29.86, 80 29.69 S 83.57 32.64, 85 33.1 S 88.55 32.56, 90 32.93 S 93.5 35.51, 95 35.61 S 98.5 33.45, 100 33.57 S 103.61 35.82, 105 36.39 S 108.54 37.35, 110 37.69 S 113.51 38.83, 115 38.71 S 118.5 36.83, 120 36.87 S 123.53 38.69, 125 39.01 S 128.5 39.01, 130 39.05 S 133.5 39.22, 135 39.25 S 138.5 39.2, 140 39.25 S 143.5 39.55, 145 39.56 S 148.52 39.56, 150 39.32 S 153.51 38.12, 155 37.93 S 158.51 37.88, 160 38.03 S 163.51 38.71, 165 38.91 S 168.5 39.24, 170 39.35 S 173.5 39.77, 175 39.66 S 178.5 38.7, 180 38.61 S 183.5 39.01, 185 39.05 S 188.5 38.85, 190 38.88 S 193.5 39.14, 195 39.25 S 198.5 39.61, 200 39.63 S 203.5 39.46, 205 39.39"
          fill="none"/>
    <circle r="4" cx="5" cy="40" fill="#3023AE"/>
    <circle r="4" cx="205" cy="39.39" fill="#C86DD7"/>      
</svg>