<svg width="200" height="50" viewBox="0 0 210 50" xmlns="http://www.w3.org/2000/svg">
    <defs>
        <linearGradient x1="0%" y1="0%" x2="100%" y2="0%" id="a">
            <stop stop-color="#3023AE" offset="0%"/>
            <stop stop-color="#C86DD7" offset="100%"/>
        </linearGradient>
    </defs>
    <path stroke="url(#a)"
          stroke-width="3"
          stroke-linejoin="round"
          stroke-linecap="round"
          d="M5 40 C 6.11 38.99, 8.5 35.49, 10 35.46 S 13.52 39.54, 15 39.8 S 18.98 38.34, 20 37.24 S 23.5 28.92, 25 28.95 S 28.96 36.35, 30 37.43 S 33.53 39.09, 35 39.41 S 38.5 39.61, 40 39.61 S 43.5 39.47, 45 39.41 S 48.51 39.36, 50 39.21 S 53.5 38.36, 55 38.42 S 58.51 39.46, 60 39.61 S 63.5 39.47, 65 39.41 S 68.5 39.15, 70 39.21 S 73.5 39.71, 75 39.8 S 78.5 39.8, 80 39.8 S 83.5 39.8, 85 39.8 S 88.5 39.8, 90 39.8 S 93.5 39.8, 95 39.8 S 98.5 39.8, 100 39.8 S 103.5 39.8, 105 39.8 S 108.5 39.83, 110 39.8 S 113.5 39.64, 115 39.61 S 118.5 39.58, 120 39.61 S 123.5 39.8, 125 39.8 S 128.5 39.67, 130 39.61 S 133.5 39.38, 135 39.41 S 138.5 39.74, 140 39.8 S 143.5 39.83, 145 39.8 S 148.5 39.64, 150 39.61 S 153.5 39.58, 155 39.61 S 158.5 39.77, 160 39.8 S 163.5 39.8, 165 39.8 S 168.55 40.2, 170 39.8 S 173.92 38.08, 175 37.04 S 179.48 31.54, 180 30.13 S 183.78 9.13, 185 10 S 189.5 35.83, 190 37.24 S 193.5 38.09, 195 38.03 S 198.5 36.78, 200 36.84 S 203.57 37.97, 205 38.42"
          fill="none"/>
    <circle r="4" cx="5" cy="40" fill="#3023AE"/>
    <circle r="4" cx="205" cy="38.42" fill="#C86DD7"/>      
</svg>