<svg width="200" height="50" viewBox="0 0 210 50" xmlns="http://www.w3.org/2000/svg">
    <defs>
        <linearGradient x1="0%" y1="0%" x2="100%" y2="0%" id="a">
            <stop stop-color="#3023AE" offset="0%"/>
            <stop stop-color="#C86DD7" offset="100%"/>
        </linearGradient>
    </defs>
    <path stroke="url(#a)"
          stroke-width="3"
          stroke-linejoin="round"
          stroke-linecap="round"
          d="M5 40 C 6.3 39.25, 8.53 37.39, 10 37.1 S 13.51 38.2, 15 38.06 S 18.56 36.55, 20 36.13 S 23.5 35.16, 25 35.16 S 28.53 35.84, 30 36.13 S 33.81 38.02, 35 37.1 S 39.15 29.63, 40 28.39 S 43.5 22.58, 45 22.58 S 48.97 27.3, 50 28.39 S 53.6 32.69, 55 33.23 S 59.07 33.43, 60 32.26 S 63.56 21.07, 65 20.65 S 68.53 29.07, 70 29.35 S 73.56 22.16, 75 22.58 S 78.65 31.61, 80 32.26 S 83.81 28.34, 85 27.42 S 88.65 25.17, 90 24.52 S 93.56 22.16, 95 22.58 S 98.56 27, 100 27.42 S 103.53 25.77, 105 25.48 S 108.6 26.02, 110 25.48 S 113.53 21.32, 115 21.61 S 118.6 27.96, 120 27.42 S 123.51 17.6, 125 17.74 S 128.97 27.3, 130 28.39 S 133.53 28.68, 135 28.39 S 139.28 27.77, 140 26.45 S 144.15 11.24, 145 10 S 148.76 11.1, 150 11.94 S 154.07 15.6, 155 16.77 S 158.7 23.77, 160 24.52 S 163.56 22.16, 165 22.58 S 168.51 27.56, 170 27.42 S 173.87 22.6, 175 21.61 S 178.51 18.85, 180 18.71 S 183.87 19.66, 185 20.65 S 188.76 28.26, 190 27.42 S 193.87 14.86, 195 13.87 S 199.07 17.54, 200 18.71 S 204.19 25.19, 205 26.45"
          fill="none"/>
    <circle r="4" cx="5" cy="40" fill="#3023AE"/>
    <circle r="4" cx="205" cy="26.45" fill="#C86DD7"/>      
</svg>