<svg width="200" height="50" viewBox="0 0 210 50" xmlns="http://www.w3.org/2000/svg">
    <defs>
        <linearGradient x1="0%" y1="0%" x2="100%" y2="0%" id="a">
            <stop stop-color="#3023AE" offset="0%"/>
            <stop stop-color="#C86DD7" offset="100%"/>
        </linearGradient>
    </defs>
    <path stroke="url(#a)"
          stroke-width="3"
          stroke-linejoin="round"
          stroke-linecap="round"
          d="M5 40 C 6.45 39.61, 8.5 38.73, 10 38.64 S 14.34 40.75, 15 39.4 S 18.56 18.76, 20 18.33 S 24.23 35.09, 25 36.38 S 28.51 34.82, 30 34.96 S 33.56 36.89, 35 37.31 S 38.5 37.74, 40 37.84 S 43.5 37.9, 45 38.01 S 48.5 38.53, 50 38.57 S 53.5 38.32, 55 38.31 S 58.5 38.43, 60 38.47 S 63.5 38.6, 65 38.61 S 68.5 38.49, 70 38.54 S 73.5 38.94, 75 38.94 S 78.5 38.61, 80 38.51 S 83.5 38.36, 85 38.24 S 88.5 37.74, 90 37.71 S 93.51 37.9, 95 38.04 S 98.5 38.54, 100 38.64 S 103.5 38.74, 105 38.71 S 108.51 38.59, 110 38.47 S 113.5 37.96, 115 37.88 S 118.51 38.06, 120 37.94 S 123.5 37.06, 125 37.05 S 128.5 37.88, 130 37.88 S 133.53 37.35, 135 37.08 S 138.51 36.22, 140 36.02 S 143.5 35.7, 145 35.75 S 148.5 36.32, 150 36.38 S 153.5 36.14, 155 36.18 S 158.5 36.75, 160 36.65 S 163.5 35.4, 165 35.49 S 168.51 37.1, 170 37.28 S 173.51 36.91, 175 36.71 S 178.5 36.06, 180 35.95 S 184.46 37.35, 185 35.95 S 189.16 11.24, 190 10 S 194.4 19.81, 195 21.18 S 199.12 31.66, 200 32.87 S 203.62 34.4, 205 34.99"
          fill="none"/>
    <circle r="4" cx="5" cy="40" fill="#3023AE"/>
    <circle r="4" cx="205" cy="34.99" fill="#C86DD7"/>      
</svg>