<svg width="200" height="50" viewBox="0 0 210 50" xmlns="http://www.w3.org/2000/svg">
    <defs>
        <linearGradient x1="0%" y1="0%" x2="100%" y2="0%" id="a">
            <stop stop-color="#3023AE" offset="0%"/>
            <stop stop-color="#C86DD7" offset="100%"/>
        </linearGradient>
    </defs>
    <path stroke="url(#a)"
          stroke-width="3"
          stroke-linejoin="round"
          stroke-linecap="round"
          d="M5 40 C 6.44 39.56, 9.18 39.73, 10 38.48 S 13.81 25.68, 15 24.77 S 18.92 29.82, 20 30.86 S 23.71 33.69, 25 34.46 S 28.56 36.41, 30 36.83 S 33.51 37.23, 35 37.41 S 38.5 37.96, 40 38.06 S 43.5 38.06, 45 38.06 S 48.5 38.01, 50 38.06 S 53.5 38.31, 55 38.38 S 58.5 38.56, 60 38.54 S 63.52 38.48, 65 38.25 S 68.5 37.04, 70 36.99 S 73.51 37.72, 75 37.89 S 78.5 38.11, 80 38.12 S 83.5 37.95, 85 37.99 S 88.51 38.57, 90 38.41 S 93.52 37.19, 95 36.95 S 98.5 36.68, 100 36.76 S 103.53 37.75, 105 37.47 S 108.55 35.26, 110 34.88 S 113.51 34.72, 115 34.88 S 118.5 35.9, 120 35.98 S 123.51 35.59, 125 35.4 S 128.51 34.54, 130 34.69 S 133.51 36.27, 135 36.4 S 138.51 35.75, 140 35.59 S 144.45 36.73, 145 35.33 S 149.19 11.26, 150 10 S 154.39 18.38, 155 19.75 S 159.12 31.31, 160 32.52 S 163.52 33.3, 165 33.52 S 168.5 33.92, 170 33.97 S 173.51 33.67, 175 33.84 S 178.51 34.97, 180 35.14 S 183.5 35.08, 185 34.98 S 188.5 34.41, 190 34.46 S 193.5 35.3, 195 35.3 S 198.5 34.56, 200 34.49 S 203.5 34.72, 205 34.82"
          fill="none"/>
    <circle r="4" cx="5" cy="40" fill="#3023AE"/>
    <circle r="4" cx="205" cy="34.82" fill="#C86DD7"/>      
</svg>