<svg width="200" height="50" viewBox="0 0 210 50" xmlns="http://www.w3.org/2000/svg">
    <defs>
        <linearGradient x1="0%" y1="0%" x2="100%" y2="0%" id="a">
            <stop stop-color="#3023AE" offset="0%"/>
            <stop stop-color="#C86DD7" offset="100%"/>
        </linearGradient>
    </defs>
    <path stroke="url(#a)"
          stroke-width="3"
          stroke-linejoin="round"
          stroke-linecap="round"
          d="M5 40 C 5.76 38.7, 8.62 32.02, 10 31.43 S 13.62 35.12, 15 35.71 S 18.5 35.71, 20 35.71 S 23.5 35.71, 25 35.71 S 28.5 35.71, 30 35.71 S 33.5 35.71, 35 35.71 S 38.5 35.71, 40 35.71 S 43.86 36.69, 45 35.71 S 48.86 28.12, 50 27.14 S 54.24 28.44, 55 27.14 S 58.86 10.98, 60 10 S 63.62 17.98, 65 18.57 S 68.62 13.7, 70 14.29 S 73.62 22.27, 75 22.86 S 79.08 17.39, 80 18.57 S 84.08 34.53, 85 35.71 S 88.86 32.41, 90 31.43 S 93.62 26.55, 95 27.14 S 98.5 35.71, 100 35.71 S 103.62 27.73, 105 27.14 S 108.62 30.84, 110 31.43 S 113.5 31.43, 115 31.43 S 118.62 32.02, 120 31.43 S 123.62 26.55, 125 27.14 S 128.86 34.73, 130 35.71 S 133.86 36.69, 135 35.71 S 138.86 28.12, 140 27.14 S 143.86 26.16, 145 27.14 S 148.86 34.73, 150 35.71 S 153.62 36.3, 155 35.71 S 158.62 32.02, 160 31.43 S 163.62 30.84, 165 31.43 S 168.62 35.12, 170 35.71 S 173.5 35.71, 175 35.71 S 178.5 35.71, 180 35.71 S 183.62 36.3, 185 35.71 S 188.5 31.43, 190 31.43 S 193.86 36.69, 195 35.71 S 198.5 22.86, 200 22.86 S 204.46 34.31, 205 35.71"
          fill="none"/>
    <circle r="4" cx="5" cy="40" fill="#3023AE"/>
    <circle r="4" cx="205" cy="35.71" fill="#C86DD7"/>      
</svg>