<svg width="200" height="50" viewBox="0 0 210 50" xmlns="http://www.w3.org/2000/svg">
    <defs>
        <linearGradient x1="0%" y1="0%" x2="100%" y2="0%" id="a">
            <stop stop-color="#3023AE" offset="0%"/>
            <stop stop-color="#C86DD7" offset="100%"/>
        </linearGradient>
    </defs>
    <path stroke="url(#a)"
          stroke-width="3"
          stroke-linejoin="round"
          stroke-linecap="round"
          d="M5 40 C 5.33 38.54, 8.6 18.03, 10 17.5 S 14.29 34.93, 15 36.25 S 18.6 36.78, 20 36.25 S 24 33.62, 25 32.5 S 28.5 25, 30 25 S 34 31.38, 35 32.5 S 38.6 35.72, 40 36.25 S 43.5 36.25, 45 36.25 S 48.5 36.25, 50 36.25 S 54.17 37.5, 55 36.25 S 59 22.37, 60 21.25 S 63.6 25.53, 65 25 S 69 16.38, 70 17.5 S 73.5 36.25, 75 36.25 S 79 18.62, 80 17.5 S 83.6 24.47, 85 25 S 88.5 21.25, 90 21.25 S 93.5 25, 95 25 S 98.8 20.35, 100 21.25 S 103.6 31.97, 105 32.5 S 108.5 25, 110 25 S 113.5 32.5, 115 32.5 S 118.6 25.53, 120 25 S 123.6 28.22, 125 28.75 S 128.8 29.65, 130 28.75 S 133.6 20.72, 135 21.25 S 138.6 31.97, 140 32.5 S 144.17 26.25, 145 25 S 149 16.38, 150 17.5 S 154.29 34.93, 155 36.25 S 158.8 37.15, 160 36.25 S 164.39 30.12, 165 28.75 S 169.29 15.07, 170 13.75 S 173.6 9.47, 175 10 S 178.8 16.6, 180 17.5 S 183.5 17.5, 185 17.5 S 188.5 17.5, 190 17.5 S 193.8 18.4, 195 17.5 S 199.29 8.68, 200 10 S 204.72 34.78, 205 36.25"
          fill="none"/>
    <circle r="4" cx="5" cy="40" fill="#3023AE"/>
    <circle r="4" cx="205" cy="36.25" fill="#C86DD7"/>      
</svg>