<svg width="200" height="50" viewBox="0 0 210 50" xmlns="http://www.w3.org/2000/svg">
    <defs>
        <linearGradient x1="0%" y1="0%" x2="100%" y2="0%" id="a">
            <stop stop-color="#3023AE" offset="0%"/>
            <stop stop-color="#C86DD7" offset="100%"/>
        </linearGradient>
    </defs>
    <path stroke="url(#a)"
          stroke-width="3"
          stroke-linejoin="round"
          stroke-linecap="round"
          d="M5 40 C 5.79 38.72, 8.62 32.44, 10 31.86 S 13.63 35.19, 15 35.81 S 18.56 35.97, 20 36.4 S 24.47 40.24, 25 38.84 S 28.66 10.68, 30 10 S 34.46 32.32, 35 33.72 S 38.56 35.5, 40 35.93 S 43.5 36.69, 45 36.74 S 49.16 37.52, 50 36.28 S 53.5 21.93, 55 21.98 S 59.19 35.37, 60 36.63 S 63.51 37.3, 65 37.44 S 68.5 37.65, 70 37.56 S 73.51 37.03, 75 36.86 S 78.5 36.42, 80 36.4 S 83.51 36.53, 85 36.74 S 88.5 37.69, 90 37.79 S 93.5 37.56, 95 37.44 S 98.5 37.1, 100 36.98 S 103.5 36.54, 105 36.63 S 108.51 37.72, 110 37.56 S 113.5 35.6, 115 35.58 S 119.4 38.82, 120 37.44 S 123.5 12.68, 125 12.56 S 129.44 35.24, 130 36.63 S 133.5 37.24, 135 37.33 S 138.5 37.09, 140 37.21 S 143.5 38.26, 145 38.14 S 148.51 36.57, 150 36.4 S 153.5 37.07, 155 36.98 S 158.5 35.88, 160 35.81 S 163.5 36.6, 165 36.51 S 168.5 35.3, 170 35.23 S 173.52 35.79, 175 36.05 S 178.53 36.71, 180 36.98 S 183.51 37.75, 185 37.91 S 188.5 38, 190 38.02 S 193.51 37.86, 195 38.02 S 198.51 38.9, 200 39.07 S 203.5 39.15, 205 39.19"
          fill="none"/>
    <circle r="4" cx="5" cy="40" fill="#3023AE"/>
    <circle r="4" cx="205" cy="39.19" fill="#C86DD7"/>      
</svg>