<svg width="200" height="50" viewBox="0 0 210 50" xmlns="http://www.w3.org/2000/svg">
    <defs>
        <linearGradient x1="0%" y1="0%" x2="100%" y2="0%" id="a">
            <stop stop-color="#3023AE" offset="0%"/>
            <stop stop-color="#C86DD7" offset="100%"/>
        </linearGradient>
    </defs>
    <path stroke="url(#a)"
          stroke-width="3"
          stroke-linejoin="round"
          stroke-linecap="round"
          d="M5 40 C 6.29 39.24, 8.67 37.73, 10 37.04 S 13.55 35.19, 15 34.81 S 18.5 34.38, 20 34.44 S 23.59 34.69, 25 35.19 S 28.52 37.74, 30 37.96 S 33.5 36.7, 35 36.67 S 38.5 37.75, 40 37.78 S 43.51 36.99, 45 36.85 S 48.52 36.63, 50 36.85 S 53.5 38.27, 55 38.33 S 58.52 37.44, 60 37.22 S 63.52 37.1, 65 36.85 S 68.5 35.59, 70 35.56 S 73.57 36.22, 75 36.67 S 78.51 38.51, 80 38.7 S 83.51 38.1, 85 37.96 S 89.19 39.04, 90 37.78 S 93.89 23.42, 95 22.41 S 98.88 27.7, 100 28.7 S 103.51 31.16, 105 31.3 S 108.56 29.2, 110 29.63 S 113.51 34.45, 115 34.26 S 119.02 29.47, 120 28.33 S 123.5 22.53, 125 22.59 S 128.77 27.84, 130 28.7 S 133.5 29.66, 135 29.63 S 139.32 29.86, 140 28.52 S 143.5 9.97, 145 10 S 148.77 27.84, 150 28.7 S 153.74 17.86, 155 17.04 S 159.08 21.04, 160 22.22 S 163.85 28.85, 165 29.81 S 168.6 31.1, 170 30.56 S 173.59 26.45, 175 25.93 S 178.53 26.55, 180 26.85 S 183.54 28.29, 185 27.96 S 188.58 25.1, 190 24.63 S 193.51 24.44, 195 24.63 S 198.58 25.46, 200 25.93 S 203.61 27.4, 205 27.96"
          fill="none"/>
    <circle r="4" cx="5" cy="40" fill="#3023AE"/>
    <circle r="4" cx="205" cy="27.96" fill="#C86DD7"/>      
</svg>