<svg width="200" height="50" viewBox="0 0 210 50" xmlns="http://www.w3.org/2000/svg">
    <defs>
        <linearGradient x1="0%" y1="0%" x2="100%" y2="0%" id="a">
            <stop stop-color="#3023AE" offset="0%"/>
            <stop stop-color="#C86DD7" offset="100%"/>
        </linearGradient>
    </defs>
    <path stroke="url(#a)"
          stroke-width="3"
          stroke-linejoin="round"
          stroke-linecap="round"
          d="M5 40 C 5.62 38.64, 8.55 29.49, 10 29.09 S 13.55 36.87, 15 37.27 S 18.5 31.82, 20 31.82 S 23.5 37.27, 25 37.27 S 28.5 31.82, 30 31.82 S 33.68 37.99, 35 37.27 S 39.11 27.57, 40 26.36 S 43.55 23.24, 45 23.64 S 49.11 27.88, 50 29.09 S 53.55 37.67, 55 37.27 S 59.11 27.57, 60 26.36 S 64.22 24.92, 65 23.64 S 68.84 10.95, 70 10 S 74.22 14.17, 75 15.45 S 78.68 25.64, 80 26.36 S 83.55 20.51, 85 20.91 S 88.99 27.98, 90 29.09 S 93.99 32.93, 95 31.82 S 99.38 19.54, 100 18.18 S 103.68 9.28, 105 10 S 108.68 22.92, 110 23.64 S 113.99 16.56, 115 15.45 S 118.55 12.33, 120 12.73 S 123.99 17.07, 125 18.18 S 129.3 22.31, 130 23.64 S 134.11 36.06, 135 37.27 S 138.68 37.99, 140 37.27 S 144.11 33.03, 145 31.82 S 148.84 24.59, 150 23.64 S 153.68 22.92, 155 23.64 S 158.68 28.37, 160 29.09 S 163.5 29.09, 165 29.09 S 169.11 30.3, 170 29.09 S 173.5 15.45, 175 15.45 S 178.99 27.98, 180 29.09 S 183.84 25.41, 185 26.36 S 188.99 36.16, 190 37.27 S 193.5 37.27, 195 37.27 S 198.68 37.99, 200 37.27 S 203.99 32.93, 205 31.82"
          fill="none"/>
    <circle r="4" cx="5" cy="40" fill="#3023AE"/>
    <circle r="4" cx="205" cy="31.82" fill="#C86DD7"/>      
</svg>