<svg width="200" height="50" viewBox="0 0 210 50" xmlns="http://www.w3.org/2000/svg">
    <defs>
        <linearGradient x1="0%" y1="0%" x2="100%" y2="0%" id="a">
            <stop stop-color="#3023AE" offset="0%"/>
            <stop stop-color="#C86DD7" offset="100%"/>
        </linearGradient>
    </defs>
    <path stroke="url(#a)"
          stroke-width="3"
          stroke-linejoin="round"
          stroke-linecap="round"
          d="M5 40 C 5.25 38.52, 8.53 10.29, 10 10 S 14.47 36.63, 15 38.03 S 18.63 37.33, 20 36.72 S 23.5 33.54, 25 33.61 S 28.58 36.72, 30 37.21 S 33.5 37.05, 35 37.05 S 38.5 37.23, 40 37.21 S 43.5 36.84, 45 36.89 S 48.51 37.69, 50 37.54 S 53.5 35.83, 55 35.9 S 58.5 37.93, 60 38.03 S 63.5 36.53, 65 36.56 S 68.5 38.15, 70 38.2 S 73.5 36.99, 75 36.89 S 78.5 37.54, 80 37.54 S 83.5 36.79, 85 36.89 S 88.52 37.98, 90 38.2 S 93.5 38.36, 95 38.36 S 98.5 38.22, 100 38.2 S 103.5 38.2, 105 38.2 S 108.5 38.23, 110 38.2 S 113.5 38.1, 115 38.03 S 118.5 37.65, 120 37.7 S 123.5 38.33, 125 38.36 S 128.57 38.34, 130 37.87 S 133.51 35.23, 135 35.08 S 138.52 36.62, 140 36.89 S 143.5 36.89, 145 36.89 S 148.51 36.72, 150 36.89 S 153.51 37.86, 155 38.03 S 158.53 38.32, 160 38.03 S 163.5 36.02, 165 36.07 S 168.5 38.34, 170 38.36 S 173.51 36.42, 175 36.23 S 178.53 36.76, 180 37.05 S 183.51 38.03, 185 38.2 S 188.51 38.35, 190 38.2 S 193.52 37.45, 195 37.21 S 198.5 36.49, 200 36.56 S 203.54 37.37, 205 37.7"
          fill="none"/>
    <circle r="4" cx="5" cy="40" fill="#3023AE"/>
    <circle r="4" cx="205" cy="37.7" fill="#C86DD7"/>      
</svg>