<svg width="200" height="50" viewBox="0 0 210 50" xmlns="http://www.w3.org/2000/svg">
    <defs>
        <linearGradient x1="0%" y1="0%" x2="100%" y2="0%" id="a">
            <stop stop-color="#3023AE" offset="0%"/>
            <stop stop-color="#C86DD7" offset="100%"/>
        </linearGradient>
    </defs>
    <path stroke="url(#a)"
          stroke-width="3"
          stroke-linejoin="round"
          stroke-linecap="round"
          d="M5 40 C 5.25 38.52, 8.61 10.55, 10 10 S 14.36 34.67, 15 36.03 S 18.52 31.64, 20 31.39 S 23.88 35.32, 25 34.32 S 28.6 23.04, 30 22.5 S 33.91 29.45, 35 30.48 S 38.62 31.44, 40 32.03 S 43.53 34.49, 45 34.8 S 48.5 34.21, 50 34.13 S 53.54 34.63, 55 34.29 S 58.5 31.74, 60 31.81 S 63.54 34.4, 65 34.74 S 68.52 34.41, 70 34.15 S 73.51 33.17, 75 32.99 S 78.5 32.98, 80 32.94 S 83.54 32.37, 85 32.73 S 88.55 35.05, 90 35.44 S 93.51 35.3, 95 35.43 S 98.51 36.1, 100 36.29 S 103.51 36.88, 105 36.73 S 108.5 35.38, 110 35.26 S 113.5 35.88, 115 35.95 S 118.5 35.6, 120 35.71 S 123.52 36.49, 125 36.71 S 128.52 37.47, 130 37.22 S 133.5 35.1, 135 35.01 S 138.5 36.5, 140 36.6 S 143.5 35.82, 145 35.71 S 148.5 35.8, 150 35.84 S 153.51 35.82, 155 36 S 158.51 36.93, 160 37.07 S 163.5 36.89, 165 36.96 S 168.5 37.49, 170 37.57 S 173.5 37.55, 175 37.51 S 178.5 37.3, 180 37.33 S 183.5 37.65, 185 37.69 S 188.53 37.9, 190 37.62 S 193.5 35.81, 195 35.76 S 198.52 37.01, 200 37.26 S 203.5 37.4, 205 37.46"
          fill="none"/>
    <circle r="4" cx="5" cy="40" fill="#3023AE"/>
    <circle r="4" cx="205" cy="37.46" fill="#C86DD7"/>      
</svg>