<svg width="200" height="50" viewBox="0 0 210 50" xmlns="http://www.w3.org/2000/svg">
    <defs>
        <linearGradient x1="0%" y1="0%" x2="100%" y2="0%" id="a">
            <stop stop-color="#3023AE" offset="0%"/>
            <stop stop-color="#C86DD7" offset="100%"/>
        </linearGradient>
    </defs>
    <path stroke="url(#a)"
          stroke-width="3"
          stroke-linejoin="round"
          stroke-linecap="round"
          d="M5 40 C 6.5 39.97, 8.63 40.51, 10 39.9 S 13.51 35.68, 15 35.51 S 18.54 38.44, 20 38.77 S 24.37 39.09, 25 37.73 S 28.71 18.12, 30 17.35 S 33.83 30.83, 35 31.76 S 38.83 26.24, 40 25.3 S 43.57 23.28, 45 23.72 S 48.56 28.78, 50 28.36 S 53.5 20.79, 55 20.81 S 58.82 27.58, 60 28.5 S 63.61 29.16, 65 28.6 S 69.21 25.74, 70 24.46 S 73.82 13.29, 75 12.37 S 78.52 16.41, 80 16.66 S 83.59 14.55, 85 14.05 S 88.89 12.1, 90 13.11 S 94.14 21.89, 95 23.12 S 98.76 26.53, 100 27.37 S 103.77 30.74, 105 29.88 S 108.73 21.16, 110 20.36 S 113.73 22.72, 115 23.52 S 118.57 26.19, 120 26.63 S 124.04 27.73, 125 26.58 S 128.54 14.35, 130 14.69 S 133.91 27.87, 135 28.9 S 138.71 24.82, 140 24.06 S 143.6 22.48, 145 23.03 S 148.58 27.51, 150 28.01 S 153.52 26.3, 155 26.53 S 158.52 29.36, 160 29.59 S 163.86 29.03, 165 28.06 S 169.02 22.19, 170 21.05 S 173.72 17.15, 175 16.37 S 178.5 15.05, 180 14.98 S 183.66 16.54, 185 15.87 S 188.96 8.92, 190 10 S 193.72 25.49, 195 26.28 S 199.17 17.42, 200 16.17 S 203.94 12.19, 205 11.13"
          fill="none"/>
    <circle r="4" cx="5" cy="40" fill="#3023AE"/>
    <circle r="4" cx="205" cy="11.129999999999999" fill="#C86DD7"/>      
</svg>