<svg width="200" height="50" viewBox="0 0 210 50" xmlns="http://www.w3.org/2000/svg">
    <defs>
        <linearGradient x1="0%" y1="0%" x2="100%" y2="0%" id="a">
            <stop stop-color="#3023AE" offset="0%"/>
            <stop stop-color="#C86DD7" offset="100%"/>
        </linearGradient>
    </defs>
    <path stroke="url(#a)"
          stroke-width="3"
          stroke-linejoin="round"
          stroke-linecap="round"
          d="M5 40 C 6.26 39.19, 8.5 36.91, 10 36.81 S 13.55 38.99, 15 39.36 S 18.5 39.36, 20 39.36 S 23.51 39.55, 25 39.36 S 28.51 38.28, 30 38.09 S 33.5 38, 35 38.09 S 38.51 38.91, 40 38.72 S 43.57 37.27, 45 36.81 S 48.51 35.72, 50 35.53 S 53.53 35.25, 55 35.53 S 58.53 37.73, 60 37.45 S 63.53 33.9, 65 33.62 S 68.57 35.07, 70 35.53 S 73.7 37.56, 75 36.81 S 78.53 30.07, 80 29.79 S 83.7 34.14, 85 34.89 S 88.55 35.16, 90 35.53 S 93.5 37.55, 95 37.45 S 98.55 35.26, 100 34.89 S 103.5 34.89, 105 34.89 S 109.23 36.17, 110 34.89 S 113.5 18.39, 115 18.3 S 119.05 33.1, 120 34.26 S 123.57 30.89, 125 30.43 S 128.66 30.38, 130 31.06 S 133.57 35.07, 135 35.53 S 138.5 34.16, 140 34.26 S 143.51 35.98, 145 36.17 S 148.55 35.9, 150 35.53 S 153.88 34.62, 155 33.62 S 159.42 27.98, 160 26.6 S 163.7 9.25, 165 10 S 169.34 30.99, 170 32.34 S 173.55 30.06, 175 30.43 S 178.55 34.52, 180 34.89 S 183.63 33.59, 185 32.98 S 188.7 31.18, 190 30.43 S 193.51 27.42, 195 27.23 S 198.7 29.9, 200 29.15 S 204.18 22.75, 205 21.49"
          fill="none"/>
    <circle r="4" cx="5" cy="40" fill="#3023AE"/>
    <circle r="4" cx="205" cy="21.49" fill="#C86DD7"/>      
</svg>