<svg width="200" height="50" viewBox="0 0 210 50" xmlns="http://www.w3.org/2000/svg">
    <defs>
        <linearGradient x1="0%" y1="0%" x2="100%" y2="0%" id="a">
            <stop stop-color="#3023AE" offset="0%"/>
            <stop stop-color="#C86DD7" offset="100%"/>
        </linearGradient>
    </defs>
    <path stroke="url(#a)"
          stroke-width="3"
          stroke-linejoin="round"
          stroke-linecap="round"
          d="M5 40 C 5.25 38.52, 8.5 10.09, 10 10 S 14.52 37.95, 15 39.37 S 18.51 39.51, 20 39.37 S 23.5 38.37, 25 38.42 S 28.51 39.49, 30 39.68 S 33.5 39.68, 35 39.68 S 38.58 40.17, 40 39.68 S 43.58 36.7, 45 36.21 S 48.52 35.98, 50 36.21 S 53.51 37.6, 55 37.79 S 58.51 37.61, 60 37.47 S 63.51 36.98, 65 36.84 S 68.5 36.62, 70 36.53 S 73.51 36.4, 75 36.21 S 78.5 35.31, 80 35.26 S 83.51 35.75, 85 35.89 S 88.53 35.93, 90 36.21 S 93.5 37.74, 95 37.79 S 98.63 37.14, 100 36.53 S 103.6 33.9, 105 33.37 S 108.51 32.6, 110 32.74 S 113.5 34.23, 115 34.32 S 118.5 33.47, 120 33.37 S 123.51 33.82, 125 33.68 S 128.56 32.01, 130 32.42 S 133.56 36.12, 135 36.53 S 138.64 35.9, 140 35.26 S 143.61 32.36, 145 31.79 S 148.6 30.63, 150 31.16 S 153.56 35.17, 155 35.58 S 158.55 34.37, 160 34 S 163.57 33.5, 165 33.05 S 168.5 30.79, 170 30.84 S 173.51 33.18, 175 33.37 S 178.5 32.11, 180 32.11 S 183.55 33, 185 33.37 S 188.51 34.49, 190 34.63 S 193.51 34.46, 195 34.32 S 198.51 33.87, 200 33.68 S 203.51 33.24, 205 33.05"
          fill="none"/>
    <circle r="4" cx="5" cy="40" fill="#3023AE"/>
    <circle r="4" cx="205" cy="33.05" fill="#C86DD7"/>      
</svg>