<svg width="200" height="50" viewBox="0 0 210 50" xmlns="http://www.w3.org/2000/svg">
    <defs>
        <linearGradient x1="0%" y1="0%" x2="100%" y2="0%" id="a">
            <stop stop-color="#3023AE" offset="0%"/>
            <stop stop-color="#C86DD7" offset="100%"/>
        </linearGradient>
    </defs>
    <path stroke="url(#a)"
          stroke-width="3"
          stroke-linejoin="round"
          stroke-linecap="round"
          d="M5 40 C 5.25 38.52, 8.5 10.09, 10 10 S 14.52 37.95, 15 39.37 S 18.5 39.46, 20 39.37 S 23.5 38.74, 25 38.74 S 28.51 39.23, 30 39.37 S 33.5 39.63, 35 39.68 S 38.6 40.21, 40 39.68 S 43.58 36.38, 45 35.89 S 48.54 35.88, 50 36.21 S 53.51 37.97, 55 38.11 S 58.51 37.35, 60 37.16 S 63.5 36.93, 65 36.84 S 68.5 36.58, 70 36.53 S 73.52 36.76, 75 36.53 S 78.51 34.81, 80 34.95 S 83.5 37.52, 85 37.47 S 88.5 34.58, 90 34.63 S 93.53 37.51, 95 37.79 S 98.6 37.06, 100 36.53 S 103.61 34.57, 105 34 S 108.5 32.42, 110 32.42 S 113.51 33.86, 115 34 S 118.5 33.42, 120 33.37 S 123.51 33.82, 125 33.68 S 128.57 31.97, 130 32.42 S 133.55 36.47, 135 36.84 S 138.64 35.59, 140 34.95 S 143.6 32.64, 145 32.11 S 148.58 30.67, 150 31.16 S 153.6 35.05, 155 35.58 S 158.56 35.36, 160 34.95 S 163.56 33.15, 165 32.74 S 168.52 32.34, 170 32.11 S 173.5 31.11, 175 31.16 S 178.53 32.14, 180 32.42 S 183.57 32.6, 185 33.05 S 188.52 35.35, 190 35.58 S 193.56 35.04, 195 34.63 S 198.5 32.83, 200 32.74 S 203.55 33.63, 205 34"
          fill="none"/>
    <circle r="4" cx="5" cy="40" fill="#3023AE"/>
    <circle r="4" cx="205" cy="34" fill="#C86DD7"/>      
</svg>