<svg width="200" height="50" viewBox="0 0 210 50" xmlns="http://www.w3.org/2000/svg">
    <defs>
        <linearGradient x1="0%" y1="0%" x2="100%" y2="0%" id="a">
            <stop stop-color="#3023AE" offset="0%"/>
            <stop stop-color="#C86DD7" offset="100%"/>
        </linearGradient>
    </defs>
    <path stroke="url(#a)"
          stroke-width="3"
          stroke-linejoin="round"
          stroke-linecap="round"
          d="M5 40 C 5.25 38.52, 8.58 10.47, 10 10 S 14.41 35.29, 15 36.67 S 18.52 33.08, 20 33.33 S 23.58 37.85, 25 38.33 S 28.5 36.67, 30 36.67 S 33.5 38.33, 35 38.33 S 38.58 37.14, 40 36.67 S 43.52 34.75, 45 35 S 48.58 37.86, 50 38.33 S 53.5 38.33, 55 38.33 S 58.66 39, 60 38.33 S 63.52 33.58, 65 33.33 S 68.58 36.19, 70 36.67 S 73.52 36.92, 75 36.67 S 78.52 35.25, 80 35 S 83.52 34.75, 85 35 S 88.52 36.92, 90 36.67 S 94.1 34.53, 95 33.33 S 99.33 24.67, 100 23.33 S 103.66 12.66, 105 13.33 S 108.66 27.66, 110 28.33 S 113.85 19.29, 115 18.33 S 118.66 19.33, 120 20 S 123.75 22.5, 125 23.33 S 128.75 25.84, 130 26.67 S 133.85 29.04, 135 30 S 138.58 35.47, 140 35 S 144.02 27.81, 145 26.67 S 148.5 23.33, 150 23.33 S 153.66 26, 155 26.67 S 159.02 29.47, 160 28.33 S 163.66 14.33, 165 15 S 168.75 32.5, 170 33.33 S 174.23 22.96, 175 21.67 S 179.02 17.81, 180 16.67 S 184.17 8.75, 185 10 S 188.85 30.71, 190 31.67 S 193.52 18.08, 195 18.33 S 198.66 34, 200 33.33 S 204.64 14.79, 205 13.33"
          fill="none"/>
    <circle r="4" cx="5" cy="40" fill="#3023AE"/>
    <circle r="4" cx="205" cy="13.329999999999998" fill="#C86DD7"/>      
</svg>