<svg width="200" height="50" viewBox="0 0 210 50" xmlns="http://www.w3.org/2000/svg">
    <defs>
        <linearGradient x1="0%" y1="0%" x2="100%" y2="0%" id="a">
            <stop stop-color="#3023AE" offset="0%"/>
            <stop stop-color="#C86DD7" offset="100%"/>
        </linearGradient>
    </defs>
    <path stroke="url(#a)"
          stroke-width="3"
          stroke-linejoin="round"
          stroke-linecap="round"
          d="M5 40 C 5.47 38.58, 8.8 25.9, 10 25 S 14 31.38, 15 32.5 S 19.39 37.62, 20 36.25 S 23.8 10.9, 25 10 S 29 27.63, 30 28.75 S 34 22.37, 35 21.25 S 38.6 18.03, 40 17.5 S 43.6 16.97, 45 17.5 S 49.17 20, 50 21.25 S 53.8 31.6, 55 32.5 S 58.6 28.22, 60 28.75 S 63.5 36.25, 65 36.25 S 69 29.87, 70 28.75 S 73.5 25, 75 25 S 78.6 28.22, 80 28.75 S 83.6 28.22, 85 28.75 S 88.6 31.97, 90 32.5 S 93.5 32.5, 95 32.5 S 98.6 33.03, 100 32.5 S 104 29.87, 105 28.75 S 108.6 21.78, 110 21.25 S 113.5 25, 115 25 S 118.5 21.25, 120 21.25 S 123.5 25, 125 25 S 129 20.13, 130 21.25 S 133.8 37.15, 135 36.25 S 139.17 15, 140 13.75 S 143.8 20.35, 145 21.25 S 148.5 21.25, 150 21.25 S 153.8 20.35, 155 21.25 S 159.17 27.5, 160 28.75 S 163.8 35.35, 165 36.25 S 168.5 36.25, 170 36.25 S 173.5 36.25, 175 36.25 S 178.5 36.25, 180 36.25 S 184 37.37, 185 36.25 S 188.5 25, 190 25 S 194 35.13, 195 36.25 S 198.6 36.78, 200 36.25 S 203.8 33.4, 205 32.5"
          fill="none"/>
    <circle r="4" cx="5" cy="40" fill="#3023AE"/>
    <circle r="4" cx="205" cy="32.5" fill="#C86DD7"/>      
</svg>