<svg width="200" height="50" viewBox="0 0 210 50" xmlns="http://www.w3.org/2000/svg">
    <defs>
        <linearGradient x1="0%" y1="0%" x2="100%" y2="0%" id="a">
            <stop stop-color="#3023AE" offset="0%"/>
            <stop stop-color="#C86DD7" offset="100%"/>
        </linearGradient>
    </defs>
    <path stroke="url(#a)"
          stroke-width="3"
          stroke-linejoin="round"
          stroke-linecap="round"
          d="M5 40 C 5.25 38.52, 9.18 11.26, 10 10 S 14.45 23.23, 15 24.62 S 18.99 34.16, 20 35.27 S 23.56 35.22, 25 35.65 S 28.5 38.19, 30 38.3 S 33.9 37.42, 35 36.39 S 38.59 29.46, 40 28.94 S 43.65 32.06, 45 32.72 S 48.5 33.71, 50 33.82 S 53.5 33.54, 55 33.47 S 58.5 33.46, 60 33.34 S 63.51 32.52, 65 32.69 S 68.51 34.36, 70 34.49 S 73.52 33.77, 75 33.53 S 78.51 33.1, 80 32.89 S 83.51 32, 85 32.15 S 88.5 33.86, 90 33.87 S 93.52 32.48, 95 32.21 S 98.5 32.03, 100 32.05 S 103.5 32.25, 105 32.35 S 108.5 32.79, 110 32.75 S 113.56 32.46, 115 32.05 S 118.54 30.22, 120 29.89 S 123.55 29.43, 125 29.82 S 128.55 32.22, 130 32.6 S 133.51 32.58, 135 32.41 S 138.54 31.8, 140 31.47 S 143.5 30.13, 145 30.16 S 148.53 31.37, 150 31.67 S 153.5 32.13, 155 32.21 S 158.5 32.24, 160 32.18 S 163.5 31.73, 165 31.83 S 168.51 32.69, 170 32.84 S 173.51 33.03, 175 32.86 S 178.5 31.85, 180 31.73 S 183.54 31.76, 185 32.09 S 188.53 33.74, 190 34.02 S 193.5 33.93, 195 33.96 S 198.5 34.29, 200 34.22 S 203.51 33.73, 205 33.52"
          fill="none"/>
    <circle r="4" cx="5" cy="40" fill="#3023AE"/>
    <circle r="4" cx="205" cy="33.519999999999996" fill="#C86DD7"/>      
</svg>