<svg width="200" height="50" viewBox="0 0 210 50" xmlns="http://www.w3.org/2000/svg">
    <defs>
        <linearGradient x1="0%" y1="0%" x2="100%" y2="0%" id="a">
            <stop stop-color="#3023AE" offset="0%"/>
            <stop stop-color="#C86DD7" offset="100%"/>
        </linearGradient>
    </defs>
    <path stroke="url(#a)"
          stroke-width="3"
          stroke-linejoin="round"
          stroke-linecap="round"
          d="M5 40 C 5.25 38.52, 9.04 11.15, 10 10 S 14.39 26.66, 15 28.03 S 18.87 31.69, 20 32.68 S 23.62 36.16, 25 36.74 S 28.5 36.8, 30 36.91 S 33.53 37.18, 35 37.46 S 38.5 38.89, 40 38.84 S 43.77 38.01, 45 37.14 S 48.56 32.2, 50 31.78 S 53.54 33.84, 55 34.19 S 58.51 34, 60 34.16 S 63.5 35.24, 65 35.29 S 68.5 34.46, 70 34.5 S 73.5 35.47, 75 35.54 S 78.52 35.17, 80 34.95 S 83.5 34.02, 85 34.06 S 88.52 34.99, 90 35.24 S 93.5 35.72, 95 35.72 S 98.51 35.35, 100 35.23 S 103.51 35.07, 105 34.89 S 108.5 34.14, 110 34.03 S 113.51 33.98, 115 34.13 S 118.51 34.88, 120 35.04 S 123.51 35.37, 125 35.17 S 128.52 33.93, 130 33.71 S 133.5 33.59, 135 33.7 S 138.5 34.42, 140 34.42 S 143.5 33.69, 145 33.71 S 148.5 34.52, 150 34.55 S 153.5 34.03, 155 33.92 S 158.55 34.21, 160 33.84 S 163.53 31.68, 165 31.36 S 168.54 31.33, 170 31.66 S 173.55 33.25, 175 33.63 S 178.5 34.2, 180 34.27 S 183.51 34.25, 185 34.11 S 188.51 33.53, 190 33.36 S 193.53 33.23, 195 32.95 S 198.5 31.37, 200 31.47 S 203.62 33.04, 205 33.63"
          fill="none"/>
    <circle r="4" cx="5" cy="40" fill="#3023AE"/>
    <circle r="4" cx="205" cy="33.63" fill="#C86DD7"/>      
</svg>