<svg width="200" height="50" viewBox="0 0 210 50" xmlns="http://www.w3.org/2000/svg">
    <defs>
        <linearGradient x1="0%" y1="0%" x2="100%" y2="0%" id="a">
            <stop stop-color="#3023AE" offset="0%"/>
            <stop stop-color="#C86DD7" offset="100%"/>
        </linearGradient>
    </defs>
    <path stroke="url(#a)"
          stroke-width="3"
          stroke-linejoin="round"
          stroke-linecap="round"
          d="M5 40 C 5.25 38.52, 9.04 11.15, 10 10 S 14.39 26.6, 15 27.97 S 18.87 31.66, 20 32.65 S 23.62 36.17, 25 36.75 S 28.5 36.74, 30 36.86 S 33.53 37.27, 35 37.56 S 38.5 38.94, 40 38.84 S 43.81 37.84, 45 36.92 S 48.54 31.45, 50 31.12 S 53.56 34.21, 55 34.64 S 58.5 33.99, 60 34.08 S 63.5 35.23, 65 35.26 S 68.5 34.19, 70 34.26 S 73.5 35.65, 75 35.71 S 78.52 34.94, 80 34.69 S 83.5 33.9, 85 34.01 S 88.52 35.21, 90 35.45 S 93.5 35.69, 95 35.62 S 98.51 35.16, 100 35 S 103.52 34.79, 105 34.57 S 108.5 33.54, 110 33.51 S 113.53 34.12, 115 34.4 S 118.5 35.4, 120 35.44 S 123.52 34.91, 125 34.64 S 128.51 33.78, 130 33.64 S 133.5 33.6, 135 33.72 S 138.5 34.5, 140 34.44 S 143.5 33.33, 145 33.34 S 148.5 34.47, 150 34.53 S 153.5 33.8, 155 33.75 S 158.6 34.77, 160 34.22 S 163.52 30.08, 165 29.81 S 168.64 31.77, 170 32.4 S 173.51 34.23, 175 34.42 S 178.5 33.72, 180 33.67 S 183.5 34.21, 185 34.1 S 188.51 33.11, 190 32.92 S 193.52 33.06, 195 32.83 S 198.51 31.21, 200 31.38 S 203.67 33.3, 205 34"
          fill="none"/>
    <circle r="4" cx="5" cy="40" fill="#3023AE"/>
    <circle r="4" cx="205" cy="34" fill="#C86DD7"/>      
</svg>