<svg width="200" height="50" viewBox="0 0 210 50" xmlns="http://www.w3.org/2000/svg">
    <defs>
        <linearGradient x1="0%" y1="0%" x2="100%" y2="0%" id="a">
            <stop stop-color="#3023AE" offset="0%"/>
            <stop stop-color="#C86DD7" offset="100%"/>
        </linearGradient>
    </defs>
    <path stroke="url(#a)"
          stroke-width="3"
          stroke-linejoin="round"
          stroke-linecap="round"
          d="M5 40 C 5.25 38.52, 9.03 11.14, 10 10 S 14.4 26.91, 15 28.28 S 18.84 31.78, 20 32.73 S 23.62 35.9, 25 36.5 S 28.5 36.94, 30 37.06 S 33.52 37.05, 35 37.3 S 38.51 38.6, 40 38.78 S 43.73 39.31, 45 38.51 S 48.67 33.17, 50 32.48 S 53.52 33.12, 55 33.36 S 58.52 33.85, 60 34.1 S 63.52 34.84, 65 35.07 S 68.5 35.68, 70 35.65 S 73.5 34.92, 75 34.85 S 78.5 35.11, 80 35.15 S 83.5 35.24, 85 35.13 S 88.5 34.31, 90 34.39 S 93.51 35.5, 95 35.68 S 98.5 35.65, 100 35.57 S 103.51 35.28, 105 35.15 S 108.52 34.91, 110 34.68 S 113.5 33.56, 115 33.58 S 118.53 34.53, 120 34.82 S 123.5 35.55, 125 35.56 S 128.52 35.15, 130 34.89 S 133.51 33.92, 135 33.79 S 138.5 33.93, 140 34.04 S 143.5 34.62, 145 34.54 S 148.5 33.41, 150 33.48 S 153.5 34.91, 155 34.98 S 158.51 34.09, 160 33.95 S 163.54 34.38, 165 34.02 S 168.54 31.81, 170 31.46 S 173.54 31.25, 175 31.61 S 178.55 33.52, 180 33.92 S 183.5 34.29, 185 34.35 S 188.51 34.49, 190 34.35 S 193.51 33.57, 195 33.39 S 198.51 33.28, 200 33.12 S 203.52 32.54, 205 32.3"
          fill="none"/>
    <circle r="4" cx="5" cy="40" fill="#3023AE"/>
    <circle r="4" cx="205" cy="32.3" fill="#C86DD7"/>      
</svg>