<svg width="200" height="50" viewBox="0 0 210 50" xmlns="http://www.w3.org/2000/svg">
    <defs>
        <linearGradient x1="0%" y1="0%" x2="100%" y2="0%" id="a">
            <stop stop-color="#3023AE" offset="0%"/>
            <stop stop-color="#C86DD7" offset="100%"/>
        </linearGradient>
    </defs>
    <path stroke="url(#a)"
          stroke-width="3"
          stroke-linejoin="round"
          stroke-linecap="round"
          d="M5 40 C 5.25 38.52, 9.19 11.26, 10 10 S 14.45 22.97, 15 24.37 S 19.01 34.36, 20 35.49 S 23.55 35.34, 25 35.74 S 28.5 38.17, 30 38.25 S 33.91 37.28, 35 36.25 S 38.59 29.28, 40 28.77 S 43.66 31.96, 45 32.63 S 48.5 33.63, 50 33.75 S 53.5 33.48, 55 33.41 S 58.5 33.38, 60 33.27 S 63.51 32.51, 65 32.69 S 68.5 34.36, 70 34.46 S 73.53 33.65, 75 33.36 S 78.51 32.6, 80 32.46 S 83.51 32.22, 85 32.43 S 88.5 33.94, 90 33.88 S 93.53 32.28, 95 32 S 98.5 31.94, 100 31.97 S 103.5 32.07, 105 32.17 S 108.5 32.66, 110 32.65 S 113.58 32.56, 115 32.08 S 118.52 29.54, 120 29.27 S 123.57 29.79, 125 30.25 S 128.54 32.13, 130 32.46 S 133.52 32.74, 135 32.5 S 138.55 31.24, 140 30.84 S 143.52 29.49, 145 29.73 S 148.54 32.13, 150 32.48 S 153.5 32.16, 155 32.1 S 158.5 32.06, 160 32.05 S 163.51 31.93, 165 32.05 S 168.5 32.8, 170 32.87 S 173.52 32.72, 175 32.51 S 178.5 31.36, 180 31.43 S 183.55 32.58, 185 32.96 S 188.51 33.9, 190 34.08 S 193.5 34.16, 195 34.14 S 198.5 34.03, 200 33.94 S 203.51 33.65, 205 33.52"
          fill="none"/>
    <circle r="4" cx="5" cy="40" fill="#3023AE"/>
    <circle r="4" cx="205" cy="33.519999999999996" fill="#C86DD7"/>      
</svg>