<svg width="200" height="50" viewBox="0 0 210 50" xmlns="http://www.w3.org/2000/svg">
    <defs>
        <linearGradient x1="0%" y1="0%" x2="100%" y2="0%" id="a">
            <stop stop-color="#3023AE" offset="0%"/>
            <stop stop-color="#C86DD7" offset="100%"/>
        </linearGradient>
    </defs>
    <path stroke="url(#a)"
          stroke-width="3"
          stroke-linejoin="round"
          stroke-linecap="round"
          d="M5 40 C 6.5 40, 9.43 41.38, 10 39.99 S 14.53 17.23, 15 15.81 S 19.35 8.65, 20 10 S 24.48 35.29, 25 36.7 S 28.5 36.96, 30 37.02 S 33.5 37.05, 35 37.08 S 38.5 37.18, 40 37.2 S 43.5 37.23, 45 37.19 S 48.5 36.99, 50 36.94 S 53.5 36.92, 55 36.86 S 58.5 36.6, 60 36.57 S 63.5 36.62, 65 36.69 S 68.51 36.89, 70 37.01 S 73.5 37.55, 75 37.52 S 78.5 36.84, 80 36.78 S 83.5 37.01, 85 37.11 S 88.5 37.44, 90 37.45 S 93.5 37.24, 95 37.21 S 98.5 37.27, 100 37.28 S 103.5 37.23, 105 37.25 S 108.52 37.17, 110 37.42 S 113.53 38.65, 115 38.93 S 118.5 39.26, 120 39.32 S 123.5 39.33, 125 39.35 S 128.5 39.43, 130 39.45 S 133.5 39.45, 135 39.49 S 138.5 39.67, 140 39.71 S 143.5 39.73, 145 39.73 S 148.5 39.71, 150 39.7 S 153.5 39.67, 155 39.68 S 158.5 39.74, 160 39.75 S 163.5 39.79, 165 39.78 S 168.5 39.71, 170 39.71 S 173.5 39.75, 175 39.76 S 178.5 39.8, 180 39.81 S 183.5 39.79, 185 39.8 S 188.5 39.84, 190 39.85 S 193.5 39.85, 195 39.85 S 198.5 39.87, 200 39.86 S 203.5 39.81, 205 39.79"
          fill="none"/>
    <circle r="4" cx="5" cy="40" fill="#3023AE"/>
    <circle r="4" cx="205" cy="39.79" fill="#C86DD7"/>      
</svg>