<svg width="200" height="50" viewBox="0 0 210 50" xmlns="http://www.w3.org/2000/svg">
    <defs>
        <linearGradient x1="0%" y1="0%" x2="100%" y2="0%" id="a">
            <stop stop-color="#3023AE" offset="0%"/>
            <stop stop-color="#C86DD7" offset="100%"/>
        </linearGradient>
    </defs>
    <path stroke="url(#a)"
          stroke-width="3"
          stroke-linejoin="round"
          stroke-linecap="round"
          d="M5 40 C 5.25 38.52, 9.07 11.18, 10 10 S 14.4 25.9, 15 27.28 S 18.91 31.99, 20 33.02 S 23.57 36.35, 25 36.8 S 28.52 35.88, 30 36.14 S 33.55 38.16, 35 38.53 S 38.56 39.08, 40 38.66 S 43.86 36.57, 45 35.6 S 48.53 30.49, 50 30.19 S 53.64 32.93, 55 33.56 S 58.51 34.68, 60 34.82 S 63.5 34.45, 65 34.52 S 68.5 35.26, 70 35.26 S 73.52 34.75, 75 34.52 S 78.5 33.59, 80 33.7 S 83.52 34.99, 85 35.24 S 88.5 35.46, 90 35.37 S 93.51 34.81, 95 34.65 S 98.51 34.5, 100 34.29 S 103.5 33.19, 105 33.23 S 108.52 34.26, 110 34.53 S 113.5 35.13, 115 35.06 S 118.53 34.38, 120 34.07 S 123.5 32.98, 125 32.96 S 128.5 33.84, 130 33.93 S 133.5 33.51, 135 33.55 S 138.5 34.2, 140 34.19 S 143.5 33.54, 145 33.45 S 148.56 33.99, 150 33.57 S 153.53 30.86, 155 30.55 S 158.58 30.97, 160 31.45 S 163.53 33.66, 165 33.95 S 168.5 33.43, 170 33.43 S 173.5 34.02, 175 33.92 S 178.52 33.02, 180 32.79 S 183.52 32.61, 185 32.39 S 188.52 31.11, 190 31.33 S 193.53 33.54, 195 33.85 S 198.5 33.54, 200 33.44 S 203.5 33.26, 205 33.18"
          fill="none"/>
    <circle r="4" cx="5" cy="40" fill="#3023AE"/>
    <circle r="4" cx="205" cy="33.18" fill="#C86DD7"/>      
</svg>