<svg width="200" height="50" viewBox="0 0 210 50" xmlns="http://www.w3.org/2000/svg">
    <defs>
        <linearGradient x1="0%" y1="0%" x2="100%" y2="0%" id="a">
            <stop stop-color="#3023AE" offset="0%"/>
            <stop stop-color="#C86DD7" offset="100%"/>
        </linearGradient>
    </defs>
    <path stroke="url(#a)"
          stroke-width="3"
          stroke-linejoin="round"
          stroke-linecap="round"
          d="M5 40 C 5.25 38.52, 9 11.12, 10 10 S 14.39 27.45, 15 28.82 S 18.8 31.73, 20 32.63 S 23.66 35.66, 25 36.32 S 28.5 37.52, 30 37.57 S 33.51 36.46, 35 36.64 S 38.53 38.43, 40 38.75 S 43.53 39.09, 45 38.79 S 48.85 37.65, 50 36.69 S 53.54 30.78, 55 30.45 S 58.64 33.82, 60 34.45 S 63.51 34.95, 65 35.12 S 68.5 35.63, 70 35.56 S 73.5 34.64, 75 34.68 S 78.5 35.77, 80 35.85 S 83.52 35.43, 85 35.2 S 88.5 34.26, 90 34.29 S 93.52 35.1, 95 35.37 S 98.5 36.08, 100 36.12 S 103.51 35.8, 105 35.66 S 108.5 35.29, 110 35.19 S 113.52 35.18, 115 34.96 S 118.5 33.7, 120 33.71 S 123.53 34.75, 125 35.03 S 128.5 35.63, 130 35.64 S 133.52 35.34, 135 35.11 S 138.51 34.21, 140 34.06 S 143.5 34.02, 145 34.11 S 148.5 34.72, 150 34.69 S 153.5 33.9, 155 33.94 S 158.5 34.91, 160 34.94 S 163.51 34.26, 165 34.13 S 168.51 34.24, 170 34.1 S 173.57 33.62, 175 33.16 S 178.5 30.84, 180 30.89 S 183.59 32.95, 185 33.47 S 188.5 34.46, 190 34.55 S 193.5 34.06, 195 34.05 S 198.5 34.55, 200 34.45 S 203.53 33.7, 205 33.39"
          fill="none"/>
    <circle r="4" cx="5" cy="40" fill="#3023AE"/>
    <circle r="4" cx="205" cy="33.39" fill="#C86DD7"/>      
</svg>