<svg width="200" height="50" viewBox="0 0 210 50" xmlns="http://www.w3.org/2000/svg">
    <defs>
        <linearGradient x1="0%" y1="0%" x2="100%" y2="0%" id="a">
            <stop stop-color="#3023AE" offset="0%"/>
            <stop stop-color="#C86DD7" offset="100%"/>
        </linearGradient>
    </defs>
    <path stroke="url(#a)"
          stroke-width="3"
          stroke-linejoin="round"
          stroke-linecap="round"
          d="M5 40 C 5.25 38.52, 9 11.12, 10 10 S 14.39 27.43, 15 28.8 S 18.81 31.64, 20 32.55 S 23.66 35.74, 25 36.41 S 28.5 37.47, 30 37.52 S 33.51 36.54, 35 36.72 S 38.53 38.44, 40 38.74 S 43.54 39.11, 45 38.78 S 48.85 37.41, 50 36.45 S 53.53 30.73, 55 30.42 S 58.65 33.71, 60 34.36 S 63.51 35.03, 65 35.22 S 68.5 35.72, 70 35.62 S 73.5 34.51, 75 34.55 S 78.5 35.81, 80 35.89 S 83.52 35.35, 85 35.11 S 88.5 34.22, 90 34.27 S 93.52 35.21, 95 35.46 S 98.5 35.95, 100 35.98 S 103.51 35.8, 105 35.67 S 108.5 35.18, 110 35.08 S 113.51 35.21, 115 35.02 S 118.5 33.8, 120 33.8 S 123.52 34.73, 125 34.99 S 128.5 35.56, 130 35.54 S 133.52 35.11, 135 34.88 S 138.5 34.1, 140 33.98 S 143.51 33.97, 145 34.09 S 148.5 34.87, 150 34.8 S 153.5 33.57, 155 33.63 S 158.5 35.11, 160 35.17 S 163.51 34.16, 165 34.01 S 168.53 34.5, 170 34.19 S 173.54 32.22, 175 31.87 S 178.52 31.53, 180 31.79 S 183.56 33.22, 185 33.63 S 188.5 34.52, 190 34.64 S 193.5 34.5, 195 34.4 S 198.51 34.13, 200 33.97 S 203.51 33.51, 205 33.32"
          fill="none"/>
    <circle r="4" cx="5" cy="40" fill="#3023AE"/>
    <circle r="4" cx="205" cy="33.32" fill="#C86DD7"/>      
</svg>