<svg width="200" height="50" viewBox="0 0 210 50" xmlns="http://www.w3.org/2000/svg">
    <defs>
        <linearGradient x1="0%" y1="0%" x2="100%" y2="0%" id="a">
            <stop stop-color="#3023AE" offset="0%"/>
            <stop stop-color="#C86DD7" offset="100%"/>
        </linearGradient>
    </defs>
    <path stroke="url(#a)"
          stroke-width="3"
          stroke-linejoin="round"
          stroke-linecap="round"
          d="M5 40 C 5.25 38.52, 9 11.12, 10 10 S 14.39 27.46, 15 28.83 S 18.8 31.75, 20 32.65 S 23.65 35.63, 25 36.29 S 28.5 37.53, 30 37.58 S 33.51 36.45, 35 36.63 S 38.53 38.44, 40 38.76 S 43.53 39.09, 45 38.79 S 48.85 37.67, 50 36.71 S 53.54 30.79, 55 30.46 S 58.64 33.83, 60 34.46 S 63.51 34.97, 65 35.13 S 68.5 35.59, 70 35.53 S 73.5 34.69, 75 34.74 S 78.5 35.79, 80 35.85 S 83.52 35.37, 85 35.15 S 88.5 34.34, 90 34.36 S 93.52 35.05, 95 35.31 S 98.5 36.09, 100 36.14 S 103.51 35.79, 105 35.65 S 108.5 35.3, 110 35.2 S 113.52 35.23, 115 35 S 118.5 33.65, 120 33.66 S 123.53 34.78, 125 35.07 S 128.5 35.65, 130 35.66 S 133.52 35.36, 135 35.12 S 138.51 34.23, 140 34.07 S 143.5 33.93, 145 34.04 S 148.5 34.81, 150 34.79 S 153.5 33.9, 155 33.92 S 158.5 34.87, 160 34.93 S 163.51 34.44, 165 34.29 S 168.51 34.11, 170 33.95 S 173.57 33.67, 175 33.23 S 178.5 30.85, 180 30.88 S 183.59 32.9, 185 33.42 S 188.5 34.49, 190 34.58 S 193.5 34.02, 195 34.01 S 198.5 34.61, 200 34.51 S 203.54 33.7, 205 33.36"
          fill="none"/>
    <circle r="4" cx="5" cy="40" fill="#3023AE"/>
    <circle r="4" cx="205" cy="33.36" fill="#C86DD7"/>      
</svg>