<svg width="200" height="50" viewBox="0 0 210 50" xmlns="http://www.w3.org/2000/svg">
    <defs>
        <linearGradient x1="0%" y1="0%" x2="100%" y2="0%" id="a">
            <stop stop-color="#3023AE" offset="0%"/>
            <stop stop-color="#C86DD7" offset="100%"/>
        </linearGradient>
    </defs>
    <path stroke="url(#a)"
          stroke-width="3"
          stroke-linejoin="round"
          stroke-linecap="round"
          d="M5 40 C 5.25 38.52, 9 11.12, 10 10 S 14.39 27.37, 15 28.74 S 18.81 31.62, 20 32.54 S 23.66 35.79, 25 36.46 S 28.5 37.46, 30 37.5 S 33.51 36.55, 35 36.73 S 38.53 38.43, 40 38.73 S 43.55 39.17, 45 38.8 S 48.84 37.13, 50 36.18 S 53.53 30.85, 55 30.55 S 58.64 33.5, 60 34.14 S 63.52 35.06, 65 35.28 S 68.5 35.71, 70 35.61 S 73.5 34.55, 75 34.6 S 78.5 35.88, 80 35.94 S 83.52 35.24, 85 35 S 88.5 34.26, 90 34.33 S 93.52 35.2, 95 35.45 S 98.5 36.05, 100 36.03 S 103.5 35.44, 105 35.33 S 108.5 35.38, 110 35.28 S 113.51 34.86, 115 34.67 S 118.5 33.96, 120 34.01 S 123.52 34.76, 125 34.99 S 128.5 35.62, 130 35.57 S 133.52 34.93, 135 34.68 S 138.5 34, 140 33.91 S 143.51 33.91, 145 34.05 S 148.5 34.93, 150 34.87 S 153.5 33.68, 155 33.68 S 158.5 34.77, 160 34.85 S 163.5 34.3, 165 34.2 S 168.56 34.58, 170 34.18 S 173.54 31.75, 175 31.4 S 178.55 31.44, 180 31.81 S 183.55 33.56, 185 33.96 S 188.5 34.47, 190 34.56 S 193.51 34.73, 195 34.58 S 198.52 33.76, 200 33.54 S 203.51 33.22, 205 33.08"
          fill="none"/>
    <circle r="4" cx="5" cy="40" fill="#3023AE"/>
    <circle r="4" cx="205" cy="33.08" fill="#C86DD7"/>      
</svg>