<svg width="200" height="50" viewBox="0 0 210 50" xmlns="http://www.w3.org/2000/svg">
    <defs>
        <linearGradient x1="0%" y1="0%" x2="100%" y2="0%" id="a">
            <stop stop-color="#3023AE" offset="0%"/>
            <stop stop-color="#C86DD7" offset="100%"/>
        </linearGradient>
    </defs>
    <path stroke="url(#a)"
          stroke-width="3"
          stroke-linejoin="round"
          stroke-linecap="round"
          d="M5 40 C 5.25 38.52, 9.01 11.12, 10 10 S 14.39 27.31, 15 28.68 S 18.82 31.62, 20 32.54 S 23.66 35.85, 25 36.51 S 28.5 37.44, 30 37.48 S 33.51 36.6, 35 36.78 S 38.53 38.43, 40 38.71 S 43.55 39.1, 45 38.7 S 48.83 36.9, 50 35.96 S 53.53 30.94, 55 30.66 S 58.64 33.41, 60 34.04 S 63.52 35.07, 65 35.3 S 68.5 35.65, 70 35.58 S 73.5 34.79, 75 34.8 S 78.5 35.61, 80 35.66 S 83.52 35.34, 85 35.11 S 88.5 34.03, 90 34.13 S 93.52 35.54, 95 35.79 S 98.5 35.85, 100 35.79 S 103.5 35.52, 105 35.42 S 108.51 35.25, 110 35.12 S 113.51 34.74, 115 34.58 S 118.5 33.98, 120 34.05 S 123.51 34.81, 125 35.02 S 128.5 35.53, 130 35.47 S 133.53 34.87, 135 34.59 S 138.5 33.63, 140 33.6 S 143.51 34.22, 145 34.38 S 148.5 34.76, 150 34.67 S 153.5 33.78, 155 33.78 S 158.5 34.65, 160 34.69 S 163.5 34.09, 165 34.06 S 168.58 34.97, 170 34.5 S 173.54 31.1, 175 30.75 S 178.59 31.56, 180 32.07 S 183.53 34.07, 185 34.36 S 188.5 34.02, 190 34.05 S 193.5 34.68, 195 34.59 S 198.52 33.63, 200 33.42 S 203.5 33.24, 205 33.16"
          fill="none"/>
    <circle r="4" cx="5" cy="40" fill="#3023AE"/>
    <circle r="4" cx="205" cy="33.16" fill="#C86DD7"/>      
</svg>