<svg width="200" height="50" viewBox="0 0 210 50" xmlns="http://www.w3.org/2000/svg">
    <defs>
        <linearGradient x1="0%" y1="0%" x2="100%" y2="0%" id="a">
            <stop stop-color="#3023AE" offset="0%"/>
            <stop stop-color="#C86DD7" offset="100%"/>
        </linearGradient>
    </defs>
    <path stroke="url(#a)"
          stroke-width="3"
          stroke-linejoin="round"
          stroke-linecap="round"
          d="M5 40 C 5.25 38.52, 8.52 10.22, 10 10 S 14.52 37.08, 15 38.5 S 18.5 39.23, 20 39.34 S 23.5 39.28, 25 39.25 S 28.5 39.12, 30 39.15 S 33.5 39.4, 35 39.44 S 38.5 39.38, 40 39.44 S 43.5 39.74, 45 39.81 S 48.5 39.97, 50 39.91 S 53.64 40.08, 55 39.44 S 58.61 35.76, 60 35.2 S 63.5 35.47, 65 35.39 S 68.51 34.82, 70 34.64 S 73.5 34.17, 75 34.17 S 78.6 35.19, 80 34.64 S 83.67 30.92, 85 30.22 S 88.51 29.22, 90 29.37 S 93.63 30.64, 95 31.25 S 98.5 33.7, 100 33.79 S 103.51 31.95, 105 31.82 S 108.5 33.06, 110 32.95 S 113.52 31.31, 115 31.07 S 118.5 31.38, 120 31.35 S 123.5 30.99, 125 30.88 S 128.5 30.7, 130 30.6 S 133.51 30.03, 135 30.22 S 138.52 32.15, 140 31.91 S 143.5 28.55, 145 28.62 S 148.53 32.1, 150 32.38 S 153.5 30.61, 155 30.5 S 158.52 31.39, 160 31.63 S 163.53 31.78, 165 32.1 S 168.56 34.2, 170 33.79 S 173.53 29.56, 175 29.28 S 178.5 31.87, 180 31.91 S 183.5 29.57, 185 29.56 S 188.5 31.72, 190 31.82 S 193.5 30.26, 195 30.22 S 198.51 31.72, 200 31.54 S 203.66 29.68, 205 29"
          fill="none"/>
    <circle r="4" cx="5" cy="40" fill="#3023AE"/>
    <circle r="4" cx="205" cy="29" fill="#C86DD7"/>      
</svg>