<svg width="200" height="50" viewBox="0 0 210 50" xmlns="http://www.w3.org/2000/svg">
    <defs>
        <linearGradient x1="0%" y1="0%" x2="100%" y2="0%" id="a">
            <stop stop-color="#3023AE" offset="0%"/>
            <stop stop-color="#C86DD7" offset="100%"/>
        </linearGradient>
    </defs>
    <path stroke="url(#a)"
          stroke-width="3"
          stroke-linejoin="round"
          stroke-linecap="round"
          d="M5 40 C 5.66 38.65, 8.91 30.75, 10 29.72 S 13.52 30.78, 15 30.56 S 18.52 28.03, 20 28.25 S 23.51 32.22, 25 32.03 S 28.65 27.64, 30 26.99 S 33.51 27.07, 35 27.2 S 38.6 28.36, 40 27.83 S 43.81 24.35, 45 23.43 S 48.66 20.75, 50 20.07 S 53.5 18.3, 55 18.39 S 58.64 20.07, 60 20.7 S 63.57 23.46, 65 23.01 S 68.79 18.44, 70 17.55 S 73.51 15.79, 75 15.66 S 78.51 16.58, 80 16.71 S 83.51 16.69, 85 16.5 S 88.51 15.58, 90 15.45 S 93.68 16.38, 95 15.66 S 98.51 9.81, 100 10 S 103.61 16.36, 105 16.92 S 108.55 13.62, 110 13.99 S 113.75 18.6, 115 19.44 S 118.52 20.48, 120 20.7 S 123.51 20.75, 125 20.91 S 128.59 21.25, 130 21.75 S 133.5 24.54, 135 24.48 S 138.51 21.14, 140 21.33 S 143.52 25.51, 145 25.73 S 148.51 22.61, 150 22.8 S 153.53 26.68, 155 26.99 S 158.52 25.15, 160 24.9 S 163.57 24.86, 165 25.31 S 168.68 27.32, 170 28.04 S 173.51 30.64, 175 30.77 S 178.55 29.28, 180 28.88 S 183.54 27.7, 185 28.04 S 188.52 30.94, 190 31.19 S 193.63 30.33, 195 29.72 S 198.52 27, 200 26.78 S 203.56 27.83, 205 28.25"
          fill="none"/>
    <circle r="4" cx="5" cy="40" fill="#3023AE"/>
    <circle r="4" cx="205" cy="28.25" fill="#C86DD7"/>      
</svg>