<svg width="200" height="50" viewBox="0 0 210 50" xmlns="http://www.w3.org/2000/svg">
    <defs>
        <linearGradient x1="0%" y1="0%" x2="100%" y2="0%" id="a">
            <stop stop-color="#3023AE" offset="0%"/>
            <stop stop-color="#C86DD7" offset="100%"/>
        </linearGradient>
    </defs>
    <path stroke="url(#a)"
          stroke-width="3"
          stroke-linejoin="round"
          stroke-linecap="round"
          d="M5 40 C 6.27 39.2, 9.28 38.19, 10 36.87 S 13.5 21.64, 15 21.64 S 19.22 35.59, 20 36.87 S 23.55 37.82, 25 38.21 S 28.51 39.35, 30 39.55 S 33.5 39.55, 35 39.55 S 38.51 39.75, 40 39.55 S 44.52 39.63, 45 38.21 S 48.73 10.8, 50 10 S 54.52 30.52, 55 31.94 S 58.78 38.68, 60 39.55 S 63.5 39.17, 65 39.1 S 68.5 39.1, 70 39.1 S 73.5 39.03, 75 39.1 S 78.51 39.68, 80 39.55 S 83.5 38.21, 85 38.21 S 88.51 39.35, 90 39.55 S 93.5 39.55, 95 39.55 S 98.51 39.68, 100 39.55 S 103.5 38.73, 105 38.66 S 108.51 38.97, 110 39.1 S 113.5 39.48, 115 39.55 S 118.5 39.55, 120 39.55 S 123.5 39.55, 125 39.55 S 128.5 39.55, 130 39.55 S 133.5 39.55, 135 39.55 S 138.5 39.55, 140 39.55 S 143.5 39.55, 145 39.55 S 148.5 39.55, 150 39.55 S 153.5 39.55, 155 39.55 S 158.5 39.55, 160 39.55 S 163.5 39.55, 165 39.55 S 168.5 39.55, 170 39.55 S 173.5 39.62, 175 39.55 S 178.51 39.3, 180 39.1 S 183.5 38.21, 185 38.21 S 188.51 38.9, 190 39.1 S 193.5 39.55, 195 39.55 S 198.5 39.1, 200 39.1 S 203.51 39.42, 205 39.55"
          fill="none"/>
    <circle r="4" cx="5" cy="40" fill="#3023AE"/>
    <circle r="4" cx="205" cy="39.55" fill="#C86DD7"/>      
</svg>