<svg width="200" height="50" viewBox="0 0 210 50" xmlns="http://www.w3.org/2000/svg">
    <defs>
        <linearGradient x1="0%" y1="0%" x2="100%" y2="0%" id="a">
            <stop stop-color="#3023AE" offset="0%"/>
            <stop stop-color="#C86DD7" offset="100%"/>
        </linearGradient>
    </defs>
    <path stroke="url(#a)"
          stroke-width="3"
          stroke-linejoin="round"
          stroke-linecap="round"
          d="M5 40 C 6.3 39.26, 8.62 37.73, 10 37.14 S 13.51 35.54, 15 35.71 S 18.51 38.16, 20 38.29 S 23.5 36.61, 25 36.57 S 28.7 38.74, 30 38 S 33.97 31.95, 35 30.86 S 38.54 27.76, 40 27.43 S 43.67 27.88, 45 28.57 S 48.53 32.28, 50 32.57 S 53.54 30.9, 55 30.57 S 58.75 31.11, 60 30.29 S 63.55 24.37, 65 24 S 68.86 26.73, 70 27.71 S 73.58 32.08, 75 32.57 S 78.51 31.27, 80 31.14 S 83.53 32, 85 31.71 S 88.54 29.47, 90 29.14 S 93.51 29.26, 95 29.43 S 98.51 30.42, 100 30.29 S 103.52 28.78, 105 28.57 S 108.52 29.07, 110 28.86 S 113.5 27.14, 115 27.14 S 118.61 28.3, 120 28.86 S 123.59 31.66, 125 31.14 S 128.67 25.83, 130 25.14 S 133.54 25.67, 135 26 S 138.56 27.02, 140 27.43 S 143.58 28.37, 145 28.86 S 148.55 31.23, 150 30.86 S 153.64 26.91, 155 26.29 S 158.55 26.66, 160 26.29 S 163.52 23.46, 165 23.71 S 168.54 27.67, 170 28 S 173.57 26.45, 175 26 S 178.86 25.84, 180 24.86 S 183.89 18.44, 185 17.43 S 188.64 16.33, 190 15.71 S 193.7 13.6, 195 12.86 S 198.8 9.11, 200 10 S 204.34 18.94, 205 20.29"
          fill="none"/>
    <circle r="4" cx="5" cy="40" fill="#3023AE"/>
    <circle r="4" cx="205" cy="20.29" fill="#C86DD7"/>      
</svg>