<svg width="200" height="50" viewBox="0 0 210 50" xmlns="http://www.w3.org/2000/svg">
    <defs>
        <linearGradient x1="0%" y1="0%" x2="100%" y2="0%" id="a">
            <stop stop-color="#3023AE" offset="0%"/>
            <stop stop-color="#C86DD7" offset="100%"/>
        </linearGradient>
    </defs>
    <path stroke="url(#a)"
          stroke-width="3"
          stroke-linejoin="round"
          stroke-linecap="round"
          d="M5 40 C 6.5 39.99, 9.53 41.38, 10 39.96 S 13.58 10.48, 15 10 S 19.49 35.19, 20 36.6 S 23.52 37.13, 25 37.36 S 28.51 38.02, 30 38.15 S 33.5 38.2, 35 38.26 S 38.5 38.49, 40 38.56 S 43.51 38.88, 45 38.76 S 48.52 37.96, 50 37.74 S 53.5 37.19, 55 37.25 S 58.51 38.31, 60 38.15 S 63.54 36.53, 65 36.19 S 68.51 35.68, 70 35.85 S 73.52 37.06, 75 37.3 S 78.5 37.57, 80 37.45 S 83.5 36.57, 85 36.49 S 88.5 36.9, 90 36.93 S 93.5 36.74, 95 36.66 S 98.5 36.31, 100 36.39 S 103.5 37.08, 105 37.18 S 108.5 36.97, 110 37.07 S 113.5 37.86, 115 37.88 S 118.5 37.3, 120 37.23 S 123.5 37.42, 125 37.43 S 128.5 37.39, 130 37.29 S 133.5 36.83, 135 36.78 S 138.5 37.03, 140 36.96 S 143.5 36.4, 145 36.3 S 148.5 36.34, 150 36.32 S 153.5 36.05, 155 36.14 S 158.5 36.83, 160 36.93 S 163.51 37.01, 165 36.84 S 168.5 35.87, 170 35.79 S 173.51 36.16, 175 36.3 S 178.5 36.85, 180 36.76 S 183.51 35.83, 185 35.7 S 188.5 35.9, 190 35.92 S 193.5 35.84, 195 35.81 S 198.5 35.62, 200 35.69 S 203.51 36.1, 205 36.28"
          fill="none"/>
    <circle r="4" cx="5" cy="40" fill="#3023AE"/>
    <circle r="4" cx="205" cy="36.28" fill="#C86DD7"/>      
</svg>