<svg width="200" height="50" viewBox="0 0 210 50" xmlns="http://www.w3.org/2000/svg">
    <defs>
        <linearGradient x1="0%" y1="0%" x2="100%" y2="0%" id="a">
            <stop stop-color="#3023AE" offset="0%"/>
            <stop stop-color="#C86DD7" offset="100%"/>
        </linearGradient>
    </defs>
    <path stroke="url(#a)"
          stroke-width="3"
          stroke-linejoin="round"
          stroke-linecap="round"
          d="M5 40 C 5.96 38.85, 9.04 35.15, 10 34 S 13.53 27.71, 15 28 S 18.83 35.06, 20 36 S 23.83 36.94, 25 36 S 28.5 28, 30 28 S 33.83 35.06, 35 36 S 38.71 36.77, 40 36 S 43.5 30, 45 30 S 48.61 35.44, 50 36 S 54.21 35.27, 55 34 S 58.61 20.56, 60 20 S 63.61 29.44, 65 30 S 68.71 24.77, 70 24 S 73.83 23.06, 75 24 S 78.83 31.06, 80 32 S 83.61 32.56, 85 32 S 88.83 28.94, 90 28 S 93.71 24.77, 95 24 S 98.83 21.06, 100 22 S 104.13 30.78, 105 32 S 108.5 36, 110 36 S 113.94 33.06, 115 32 S 118.71 26.77, 120 26 S 123.5 26, 125 26 S 128.94 27.06, 130 26 S 133.94 17.06, 135 16 S 139.21 14.73, 140 16 S 144.13 30.78, 145 32 S 149.38 31.37, 150 30 S 154.21 11.27, 155 10 S 159.13 12.78, 160 14 S 163.5 24, 165 24 S 168.71 14.77, 170 14 S 174.27 16.69, 175 18 S 178.83 31.06, 180 32 S 183.83 26.94, 185 26 S 188.61 24.56, 190 24 S 193.5 22, 195 22 S 198.94 22.94, 200 24 S 204.21 30.73, 205 32"
          fill="none"/>
    <circle r="4" cx="5" cy="40" fill="#3023AE"/>
    <circle r="4" cx="205" cy="32" fill="#C86DD7"/>      
</svg>