<svg width="200" height="50" viewBox="0 0 210 50" xmlns="http://www.w3.org/2000/svg">
    <defs>
        <linearGradient x1="0%" y1="0%" x2="100%" y2="0%" id="a">
            <stop stop-color="#3023AE" offset="0%"/>
            <stop stop-color="#C86DD7" offset="100%"/>
        </linearGradient>
    </defs>
    <path stroke="url(#a)"
          stroke-width="3"
          stroke-linejoin="round"
          stroke-linecap="round"
          d="M5 40 C 5.58 38.61, 8.5 28.02, 10 27.96 S 14.03 38.45, 15 39.59 S 18.5 39.64, 20 39.67 S 23.54 40.17, 25 39.82 S 28.55 37.64, 30 37.25 S 33.51 37.26, 35 37.1 S 38.51 36.35, 40 36.15 S 43.51 35.92, 45 35.74 S 48.53 35.21, 50 34.91 S 53.51 33.93, 55 33.73 S 58.5 33.54, 60 33.55 S 63.51 33.67, 65 33.82 S 68.5 34.57, 70 34.53 S 73.52 33.8, 75 33.55 S 78.53 33.1, 80 32.81 S 83.54 31.93, 85 31.57 S 88.53 30.61, 90 30.33 S 93.54 29.99, 95 29.64 S 98.51 28.13, 100 27.96 S 103.51 28.34, 105 28.49 S 108.53 29.28, 110 28.99 S 113.59 27.05, 115 26.54 S 118.51 25.58, 120 25.41 S 123.52 25.67, 125 25.41 S 128.53 23.96, 130 23.64 S 133.5 23.33, 135 23.22 S 138.54 23.29, 140 22.93 S 143.5 20.87, 145 20.77 S 148.5 22.29, 150 22.25 S 153.63 21.11, 155 20.5 S 158.52 18.04, 160 17.78 S 163.53 18.43, 165 18.73 S 168.55 20.22, 170 19.85 S 173.64 16.8, 175 16.18 S 178.51 15.47, 180 15.27 S 183.56 15.24, 185 14.82 S 188.5 12.36, 190 12.37 S 193.64 14.29, 195 14.91 S 198.65 17.61, 200 16.95 S 204.12 11.22, 205 10"
          fill="none"/>
    <circle r="4" cx="5" cy="40" fill="#3023AE"/>
    <circle r="4" cx="205" cy="10" fill="#C86DD7"/>      
</svg>