<svg width="200" height="50" viewBox="0 0 210 50" xmlns="http://www.w3.org/2000/svg">
    <defs>
        <linearGradient x1="0%" y1="0%" x2="100%" y2="0%" id="a">
            <stop stop-color="#3023AE" offset="0%"/>
            <stop stop-color="#C86DD7" offset="100%"/>
        </linearGradient>
    </defs>
    <path stroke="url(#a)"
          stroke-width="3"
          stroke-linejoin="round"
          stroke-linecap="round"
          d="M5 40 C 5.25 38.52, 8.58 10.49, 10 10 S 14.45 35.14, 15 36.54 S 18.54 35.04, 20 35.38 S 23.58 38.36, 25 38.85 S 28.5 38.85, 30 38.85 S 33.5 38.85, 35 38.85 S 38.5 38.85, 40 38.85 S 43.5 38.85, 45 38.85 S 48.5 38.85, 50 38.85 S 53.5 38.85, 55 38.85 S 58.5 38.85, 60 38.85 S 63.5 38.85, 65 38.85 S 69.32 40.19, 70 38.85 S 73.5 19.23, 75 19.23 S 79.32 37.51, 80 38.85 S 83.5 38.85, 85 38.85 S 88.5 38.85, 90 38.85 S 93.5 38.85, 95 38.85 S 98.5 38.85, 100 38.85 S 103.5 38.85, 105 38.85 S 108.5 38.85, 110 38.85 S 113.5 38.85, 115 38.85 S 118.5 38.85, 120 38.85 S 123.54 39.19, 125 38.85 S 128.5 36.54, 130 36.54 S 133.54 38.51, 135 38.85 S 138.5 38.85, 140 38.85 S 143.5 38.85, 145 38.85 S 148.5 38.85, 150 38.85 S 153.5 38.85, 155 38.85 S 158.5 38.85, 160 38.85 S 163.5 38.85, 165 38.85 S 168.5 38.85, 170 38.85 S 173.5 38.85, 175 38.85 S 178.5 38.85, 180 38.85"
          fill="none"/>
    <circle r="4" cx="5" cy="40" fill="#3023AE"/>
    <circle r="4" cx="180" cy="38.85" fill="#C86DD7"/>      
</svg>