<svg width="200" height="50" viewBox="0 0 210 50" xmlns="http://www.w3.org/2000/svg">
    <defs>
        <linearGradient x1="0%" y1="0%" x2="100%" y2="0%" id="a">
            <stop stop-color="#3023AE" offset="0%"/>
            <stop stop-color="#C86DD7" offset="100%"/>
        </linearGradient>
    </defs>
    <path stroke="url(#a)"
          stroke-width="3"
          stroke-linejoin="round"
          stroke-linecap="round"
          d="M5 40 C 5.28 38.53, 9.29 15.07, 10 13.75 S 13.6 21.78, 15 21.25 S 18.8 9.1, 20 10 S 24.29 27.43, 25 28.75 S 28.5 28.75, 30 28.75 S 33.6 29.28, 35 28.75 S 38.6 24.47, 40 25 S 44 31.38, 45 32.5 S 48.6 36.78, 50 36.25 S 54.17 30, 55 28.75 S 58.8 20.35, 60 21.25 S 63.6 36.78, 65 36.25 S 68.8 18.4, 70 17.5 S 74 27.63, 75 28.75 S 78.5 28.75, 80 28.75 S 83.8 27.85, 85 28.75 S 88.8 35.35, 90 36.25 S 93.5 36.25, 95 36.25 S 98.5 36.25, 100 36.25 S 103.5 36.25, 105 36.25 S 108.5 36.25, 110 36.25 S 113.5 36.25, 115 36.25 S 118.6 36.78, 120 36.25 S 123.5 32.5, 125 32.5 S 128.6 35.72, 130 36.25 S 133.8 37.15, 135 36.25 S 138.5 28.75, 140 28.75 S 143.5 36.25, 145 36.25 S 148.5 28.75, 150 28.75 S 153.8 35.35, 155 36.25 S 158.5 36.25, 160 36.25 S 163.8 37.15, 165 36.25 S 168.8 29.65, 170 28.75 S 173.8 27.85, 175 28.75 S 178.8 35.35, 180 36.25 S 183.5 36.25, 185 36.25 S 188.5 36.25, 190 36.25 S 193.6 36.78, 195 36.25 S 198.5 32.5, 200 32.5 S 203.8 35.35, 205 36.25"
          fill="none"/>
    <circle r="4" cx="5" cy="40" fill="#3023AE"/>
    <circle r="4" cx="205" cy="36.25" fill="#C86DD7"/>      
</svg>