<svg width="200" height="50" viewBox="0 0 210 50" xmlns="http://www.w3.org/2000/svg">
    <defs>
        <linearGradient x1="0%" y1="0%" x2="100%" y2="0%" id="a">
            <stop stop-color="#3023AE" offset="0%"/>
            <stop stop-color="#C86DD7" offset="100%"/>
        </linearGradient>
    </defs>
    <path stroke="url(#a)"
          stroke-width="3"
          stroke-linejoin="round"
          stroke-linecap="round"
          d="M5 40 C 6.5 39.89, 9.53 41.06, 10 39.64 S 13.83 10.94, 15 10 S 19.33 30.25, 20 31.59 S 23.5 30.29, 25 30.2 S 28.5 31.04, 30 31 S 33.53 29.65, 35 29.95 S 38.63 32.43, 40 33.05 S 43.54 34.12, 45 34.45 S 48.5 35.33, 50 35.32 S 53.5 34.4, 55 34.36 S 58.5 35.1, 60 35.02 S 63.51 33.96, 65 33.84 S 68.5 34.18, 70 34.2 S 73.51 34.13, 75 34 S 78.5 33.23, 80 33.3 S 83.52 34.26, 85 34.5 S 88.5 34.85, 90 34.89 S 93.54 35.15, 95 34.8 S 98.7 33.27, 100 32.52 S 103.56 29.43, 105 29 S 108.55 29.17, 110 29.55 S 113.58 31.15, 115 31.64 S 118.52 32.73, 120 32.98 S 123.51 33.11, 125 33.3 S 128.52 34.02, 130 34.25 S 133.51 34.68, 135 34.84 S 138.51 35.2, 140 35.34 S 143.5 35.67, 145 35.77 S 148.5 35.93, 150 36.02 S 153.5 36.31, 155 36.39 S 158.5 36.53, 160 36.55 S 163.5 36.5, 165 36.5 S 168.5 36.55, 170 36.55 S 173.52 36.29, 175 36.52 S 178.52 37.86, 180 38.09 S 183.5 38.07, 185 38.09 S 188.5 38.17, 190 38.2 S 193.5 38.28, 195 38.3 S 198.5 38.27, 200 38.36 S 203.51 38.75, 205 38.91"
          fill="none"/>
    <circle r="4" cx="5" cy="40" fill="#3023AE"/>
    <circle r="4" cx="205" cy="38.91" fill="#C86DD7"/>      
</svg>