<svg width="200" height="50" viewBox="0 0 210 50" xmlns="http://www.w3.org/2000/svg">
    <defs>
        <linearGradient x1="0%" y1="0%" x2="100%" y2="0%" id="a">
            <stop stop-color="#3023AE" offset="0%"/>
            <stop stop-color="#C86DD7" offset="100%"/>
        </linearGradient>
    </defs>
    <path stroke="url(#a)"
          stroke-width="3"
          stroke-linejoin="round"
          stroke-linecap="round"
          d="M5 40 C 5.25 38.52, 8.63 10.6, 10 10 S 14.5 34.22, 15 35.63 S 18.58 37.75, 20 38.25 S 23.51 39, 25 39.13 S 28.5 39.04, 30 39.13 S 33.5 39.62, 35 39.71 S 38.5 39.75, 40 39.71 S 43.5 39.42, 45 39.42 S 48.57 40.17, 50 39.71 S 53.5 36.25, 55 36.21 S 58.58 38.92, 60 39.42 S 63.5 39.71, 65 39.71 S 68.5 39.42, 70 39.42 S 73.5 39.71, 75 39.71 S 78.5 39.51, 80 39.42 S 83.5 39.22, 85 39.13 S 88.5 38.83, 90 38.83 S 93.5 39.09, 95 39.13 S 98.5 39.04, 100 39.13 S 103.5 39.71, 105 39.71 S 108.53 39.43, 110 39.13 S 113.5 37.76, 115 37.67 S 118.52 38.28, 120 38.54 S 123.58 39.91, 125 39.42 S 128.5 35.14, 130 35.05 S 133.56 38.41, 135 38.83 S 138.51 38.13, 140 37.96 S 143.51 37.54, 145 37.67 S 148.52 38.57, 150 38.83 S 153.5 39.46, 155 39.42 S 158.52 38.8, 160 38.54 S 163.5 37.58, 165 37.67 S 168.9 40.15, 170 39.13 S 173.51 28.48, 175 28.35 S 178.84 37.3, 180 38.25 S 183.51 36.67, 185 36.5 S 188.56 36.67, 190 37.09 S 193.53 39.12, 195 39.42 S 198.54 39.47, 200 39.13 S 203.61 37.66, 205 37.09"
          fill="none"/>
    <circle r="4" cx="5" cy="40" fill="#3023AE"/>
    <circle r="4" cx="205" cy="37.09" fill="#C86DD7"/>      
</svg>