<svg width="200" height="50" viewBox="0 0 210 50" xmlns="http://www.w3.org/2000/svg">
    <defs>
        <linearGradient x1="0%" y1="0%" x2="100%" y2="0%" id="a">
            <stop stop-color="#3023AE" offset="0%"/>
            <stop stop-color="#C86DD7" offset="100%"/>
        </linearGradient>
    </defs>
    <path stroke="url(#a)"
          stroke-width="3"
          stroke-linejoin="round"
          stroke-linecap="round"
          d="M5 40 C 6.48 39.73, 8.5 39.14, 10 39.1 S 13.5 39.65, 15 39.71 S 18.51 39.68, 20 39.5 S 23.5 38.53, 25 38.51 S 28.5 39.26, 30 39.36 S 33.5 39.13, 35 39.21 S 38.5 39.82, 40 39.91 S 43.5 39.8, 45 39.8 S 48.5 39.92, 50 39.94 S 53.5 39.94, 55 39.94 S 58.5 39.97, 60 39.97 S 63.5 39.92, 65 39.91 S 68.5 39.87, 70 39.88 S 73.5 39.96, 75 39.97 S 78.5 39.97, 80 39.97 S 83.5 39.97, 85 39.97 S 88.5 39.97, 90 39.97 S 93.5 39.94, 95 39.94 S 98.5 39.97, 100 39.97 S 103.5 39.97, 105 39.97 S 108.5 39.97, 110 39.97 S 113.5 39.97, 115 39.97 S 118.5 39.97, 120 39.97 S 123.5 39.97, 125 39.97 S 128.5 39.94, 130 39.94 S 133.5 39.97, 135 39.97 S 138.5 39.94, 140 39.94 S 143.5 39.95, 145 39.94 S 148.5 39.92, 150 39.88 S 153.5 39.67, 155 39.68 S 158.5 39.91, 160 39.94 S 163.5 40, 165 39.91 S 168.5 39.39, 170 39.36 S 173.5 39.62, 175 39.68 S 178.5 39.74, 180 39.74 S 184.33 41.02, 185 39.68 S 189.36 21.23, 190 19.87 S 193.93 19.41, 195 18.36 S 198.54 9.64, 200 10 S 204.37 19.45, 205 20.81"
          fill="none"/>
    <circle r="4" cx="5" cy="40" fill="#3023AE"/>
    <circle r="4" cx="205" cy="20.81" fill="#C86DD7"/>      
</svg>