<svg width="200" height="50" viewBox="0 0 210 50" xmlns="http://www.w3.org/2000/svg">
    <defs>
        <linearGradient x1="0%" y1="0%" x2="100%" y2="0%" id="a">
            <stop stop-color="#3023AE" offset="0%"/>
            <stop stop-color="#C86DD7" offset="100%"/>
        </linearGradient>
    </defs>
    <path stroke="url(#a)"
          stroke-width="3"
          stroke-linejoin="round"
          stroke-linecap="round"
          d="M5 40 C 6.5 40, 8.5 40.05, 10 39.99 S 13.82 40.52, 15 39.59 S 18.5 32.1, 20 32.07 S 23.79 38.5, 25 39.39 S 28.5 39.37, 30 39.38 S 33.5 39.42, 35 39.45 S 38.5 39.58, 40 39.6 S 43.5 39.56, 45 39.57 S 48.5 39.64, 50 39.67 S 53.5 39.74, 55 39.76 S 58.5 39.78, 60 39.8 S 63.52 40.11, 65 39.87 S 68.54 38.51, 70 38.19 S 73.53 37.96, 75 37.67 S 78.55 36.62, 80 36.22 S 83.5 34.94, 85 34.91 S 88.5 35.99, 90 36.01 S 93.52 35.27, 95 35.04 S 98.5 34.5, 100 34.44 S 103.51 34.5, 105 34.64 S 109.09 36.57, 110 35.38 S 113.58 22.01, 115 21.53 S 118.9 31.02, 120 32.04 S 123.51 31, 125 30.86 S 128.53 31.36, 130 31.08 S 133.55 29.38, 135 28.98 S 138.51 28.47, 140 28.3 S 143.51 28.01, 145 27.84 S 149.27 28.47, 150 27.16 S 153.5 10.06, 155 10 S 159.22 25.51, 160 26.79 S 163.52 26.59, 165 26.37 S 168.62 25.91, 170 25.33 S 173.58 22.69, 175 22.21 S 178.52 21.74, 180 21.99 S 183.53 24.18, 185 23.9 S 188.69 20.84, 190 20.12 S 193.54 18.77, 195 18.41 S 198.54 17.96, 200 17.62 S 203.57 16.53, 205 16.09"
          fill="none"/>
    <circle r="4" cx="5" cy="40" fill="#3023AE"/>
    <circle r="4" cx="205" cy="16.09" fill="#C86DD7"/>      
</svg>