<svg width="200" height="50" viewBox="0 0 210 50" xmlns="http://www.w3.org/2000/svg">
    <defs>
        <linearGradient x1="0%" y1="0%" x2="100%" y2="0%" id="a">
            <stop stop-color="#3023AE" offset="0%"/>
            <stop stop-color="#C86DD7" offset="100%"/>
        </linearGradient>
    </defs>
    <path stroke="url(#a)"
          stroke-width="3"
          stroke-linejoin="round"
          stroke-linecap="round"
          d="M5 40 C 6.29 39.24, 8.6 37.6, 10 37.06 S 13.53 35.81, 15 36.12 S 18.58 38.71, 20 39.2 S 23.5 39.63, 25 39.61 S 28.5 39.08, 30 39.08 S 33.5 39.52, 35 39.59 S 38.5 39.63, 40 39.56 S 43.5 39.22, 45 39.13 S 48.5 39, 50 38.97 S 53.5 38.94, 55 38.92 S 58.5 38.84, 60 38.83 S 63.5 38.84, 65 38.88 S 68.5 39.19, 70 39.13 S 73.5 38.53, 75 38.46 S 78.5 38.61, 80 38.65 S 83.5 38.78, 85 38.74 S 88.5 38.38, 90 38.37 S 93.5 38.75, 95 38.65 S 98.53 38.02, 100 37.71 S 103.5 36.64, 105 36.54 S 108.5 37.08, 110 37.06 S 113.5 36.41, 115 36.38 S 118.51 36.68, 120 36.88 S 123.51 37.58, 125 37.73 S 128.5 37.98, 130 37.91 S 133.51 37.42, 135 37.27 S 138.5 36.94, 140 36.93 S 143.5 37.15, 145 37.22 S 148.51 37.58, 150 37.41 S 153.54 36.43, 155 36.08 S 158.94 36.06, 160 35 S 163.8 27.01, 165 26.12 S 168.52 27.31, 170 27.57 S 173.53 27.56, 175 27.87 S 178.5 29.72, 180 29.7 S 183.84 28.66, 185 27.71 S 189.26 22.89, 190 21.58 S 193.65 10.65, 195 10 S 199.07 15.63, 200 16.81 S 204.03 21.6, 205 22.75"
          fill="none"/>
    <circle r="4" cx="5" cy="40" fill="#3023AE"/>
    <circle r="4" cx="205" cy="22.75" fill="#C86DD7"/>      
</svg>