<svg width="200" height="50" viewBox="0 0 210 50" xmlns="http://www.w3.org/2000/svg">
    <defs>
        <linearGradient x1="0%" y1="0%" x2="100%" y2="0%" id="a">
            <stop stop-color="#3023AE" offset="0%"/>
            <stop stop-color="#C86DD7" offset="100%"/>
        </linearGradient>
    </defs>
    <path stroke="url(#a)"
          stroke-width="3"
          stroke-linejoin="round"
          stroke-linecap="round"
          d="M5 40 C 6.34 39.33, 8.5 37.53, 10 37.52 S 13.54 39.55, 15 39.9 S 18.5 39.9, 20 39.9 S 23.5 39.9, 25 39.9 S 28.5 39.9, 30 39.9 S 33.5 39.9, 35 39.9 S 38.52 40.12, 40 39.9 S 43.87 39.44, 45 38.45 S 49.07 32.28, 50 31.1 S 53.81 26.63, 55 25.72 S 58.62 24.04, 60 23.45 S 63.56 21.08, 65 21.48 S 68.51 26.04, 70 26.24 S 73.5 22.86, 75 22.83 S 78.76 25.18, 80 26.03 S 83.54 29.33, 85 29.66 S 88.52 28.07, 90 28.31 S 93.56 31.74, 95 31.31 S 98.6 25.86, 100 25.31 S 103.63 26.77, 105 27.38 S 108.62 29.16, 110 29.76 S 113.51 31.88, 115 31.72 S 118.5 28.81, 120 28.72 S 123.5 30.99, 125 31.1 S 128.53 29.74, 130 29.45 S 133.56 28.74, 135 29.14 S 138.56 31.82, 140 32.24 S 143.65 32.69, 145 32.03 S 148.82 28.31, 150 27.38 S 153.92 25.21, 155 24.17 S 158.5 17.81, 160 17.76 S 163.52 23.6, 165 23.86 S 169.12 20.74, 170 19.52 S 173.51 10.2, 175 10 S 179.11 16.97, 180 18.17 S 183.55 23.06, 185 23.45 S 188.61 21.43, 190 20.86 S 193.6 18.77, 195 19.31 S 198.62 24.1, 200 24.69 S 203.54 23.88, 205 23.55"
          fill="none"/>
    <circle r="4" cx="5" cy="40" fill="#3023AE"/>
    <circle r="4" cx="205" cy="23.55" fill="#C86DD7"/>      
</svg>