<svg width="200" height="50" viewBox="0 0 210 50" xmlns="http://www.w3.org/2000/svg">
    <defs>
        <linearGradient x1="0%" y1="0%" x2="100%" y2="0%" id="a">
            <stop stop-color="#3023AE" offset="0%"/>
            <stop stop-color="#C86DD7" offset="100%"/>
        </linearGradient>
    </defs>
    <path stroke="url(#a)"
          stroke-width="3"
          stroke-linejoin="round"
          stroke-linecap="round"
          d="M5 40 C 5.47 38.58, 9.17 26.25, 10 25 S 13.94 23.94, 15 25 S 18.66 34.33, 20 35 S 23.94 31.06, 25 30 S 28.66 24.33, 30 25 S 33.94 36.06, 35 35 S 38.5 15, 40 15 S 44.33 33.66, 45 35 S 48.5 35, 50 35 S 54.17 36.25, 55 35 S 58.66 20.67, 60 20 S 63.66 29.33, 65 30 S 68.66 24.33, 70 25 S 73.94 33.94, 75 35 S 79.44 36.39, 80 35 S 84.33 11.34, 85 10 S 89.33 13.66, 90 15 S 93.94 28.94, 95 30 S 98.5 25, 100 25 S 103.66 29.33, 105 30 S 108.66 29.33, 110 30 S 113.5 35, 115 35 S 119.33 31.34, 120 30 S 123.66 15.67, 125 15 S 128.5 25, 130 25 S 133.5 15, 135 15 S 138.66 24.33, 140 25 S 143.94 21.06, 145 20 S 148.66 15.67, 150 15 S 154.17 13.75, 155 15 S 158.94 28.94, 160 30 S 163.66 24.33, 165 25 S 168.66 34.33, 170 35 S 174.33 31.34, 175 30 S 178.66 15.67, 180 15 S 184.33 23.66, 185 25 S 188.5 35, 190 35 S 194.44 26.39, 195 25 S 198.5 10, 200 10 S 204.53 23.58, 205 25"
          fill="none"/>
    <circle r="4" cx="5" cy="40" fill="#3023AE"/>
    <circle r="4" cx="205" cy="25" fill="#C86DD7"/>      
</svg>