<svg width="200" height="50" viewBox="0 0 210 50" xmlns="http://www.w3.org/2000/svg">
    <defs>
        <linearGradient x1="0%" y1="0%" x2="100%" y2="0%" id="a">
            <stop stop-color="#3023AE" offset="0%"/>
            <stop stop-color="#C86DD7" offset="100%"/>
        </linearGradient>
    </defs>
    <path stroke="url(#a)"
          stroke-width="3"
          stroke-linejoin="round"
          stroke-linecap="round"
          d="M5 40 C 5.57 38.61, 8.51 27.91, 10 27.77 S 14 37.94, 15 39.06 S 18.5 38.95, 20 38.98 S 23.5 39.21, 25 39.25 S 28.51 39.43, 30 39.25 S 33.51 38.19, 35 38.04 S 38.51 38.1, 40 38.23 S 43.5 38.85, 45 38.94 S 48.61 39.4, 50 38.83 S 53.64 35.47, 55 34.83 S 59.44 35.5, 60 34.11 S 63.51 10.15, 65 10 S 69.46 31.73, 70 33.13 S 73.57 35.62, 75 36.08 S 78.91 37.37, 80 36.34 S 83.54 26.97, 85 26.64 S 88.61 33.51, 90 34.08 S 94.04 31.88, 95 30.72 S 98.81 22.92, 100 22 S 103.77 22.16, 105 23.02 S 108.68 28.26, 110 28.98 S 113.61 29.01, 115 28.45 S 118.58 25.43, 120 24.94 S 123.55 24.65, 125 25.02 S 128.66 26.84, 130 27.51 S 133.54 29.69, 135 30.04 S 138.53 29.63, 140 29.92 S 143.56 32.45, 145 32.04 S 148.56 27.48, 150 27.06 S 153.69 28.36, 155 29.09 S 158.52 32.37, 160 32.6 S 163.53 30.34, 165 30.64 S 168.61 34.08, 170 34.64 S 173.51 34.78, 175 34.64 S 178.54 34.03, 180 33.7 S 183.54 32.74, 185 32.38 S 188.5 31.09, 190 31.21 S 193.53 32.86, 195 33.17 S 198.51 33.45, 200 33.32 S 203.53 32.6, 205 32.3"
          fill="none"/>
    <circle r="4" cx="5" cy="40" fill="#3023AE"/>
    <circle r="4" cx="205" cy="32.3" fill="#C86DD7"/>      
</svg>