<svg width="200" height="50" viewBox="0 0 210 50" xmlns="http://www.w3.org/2000/svg">
    <defs>
        <linearGradient x1="0%" y1="0%" x2="100%" y2="0%" id="a">
            <stop stop-color="#3023AE" offset="0%"/>
            <stop stop-color="#C86DD7" offset="100%"/>
        </linearGradient>
    </defs>
    <path stroke="url(#a)"
          stroke-width="3"
          stroke-linejoin="round"
          stroke-linecap="round"
          d="M5 40 C 5.25 38.52, 9.37 11.36, 10 10 S 14.22 17.11, 15 18.39 S 19.22 25.08, 20 26.36 S 24.08 33.58, 25 34.76 S 28.52 38.91, 30 39.16 S 33.5 36.49, 35 36.43 S 38.51 38.61, 40 38.74 S 43.5 37.18, 45 37.27 S 48.54 39.03, 50 39.37 S 53.5 39.52, 55 39.58 S 58.51 39.95, 60 39.79 S 63.51 38.69, 65 38.53 S 68.5 38.65, 70 38.74 S 73.53 39.47, 75 39.16 S 78.5 36.61, 80 36.64 S 83.57 38.92, 85 39.37 S 88.5 39.76, 90 39.79 S 93.5 39.67, 95 39.58 S 98.5 39.22, 100 39.16 S 103.5 39.07, 105 39.16 S 108.5 39.7, 110 39.79 S 113.5 39.79, 115 39.79 S 118.5 39.82, 120 39.79 S 123.51 39.71, 125 39.58 S 128.5 38.98, 130 38.95 S 133.5 39.34, 135 39.37 S 138.5 39.13, 140 39.16 S 143.5 39.49, 145 39.58 S 148.5 39.79, 150 39.79 S 153.5 39.64, 155 39.58 S 158.5 39.46, 160 39.37 S 163.5 38.95, 165 38.95 S 168.51 39.24, 170 39.37 S 173.5 39.79, 175 39.79 S 178.5 39.37, 180 39.37 S 183.5 39.73, 185 39.79 S 188.5 39.79, 190 39.79 S 193.5 39.79, 195 39.79"
          fill="none"/>
    <circle r="4" cx="5" cy="40" fill="#3023AE"/>
    <circle r="4" cx="195" cy="39.79" fill="#C86DD7"/>      
</svg>