<svg width="200" height="50" viewBox="0 0 210 50" xmlns="http://www.w3.org/2000/svg">
    <defs>
        <linearGradient x1="0%" y1="0%" x2="100%" y2="0%" id="a">
            <stop stop-color="#3023AE" offset="0%"/>
            <stop stop-color="#C86DD7" offset="100%"/>
        </linearGradient>
    </defs>
    <path stroke="url(#a)"
          stroke-width="3"
          stroke-linejoin="round"
          stroke-linecap="round"
          d="M5 40 C 6.5 39.99, 8.5 39.96, 10 39.96 S 13.5 39.98, 15 39.98 S 18.5 39.96, 20 39.95 S 23.5 39.95, 25 39.94 S 29.52 41.33, 30 39.91 S 33.74 10.82, 35 10 S 39.44 32.03, 40 33.42 S 43.5 34.96, 45 34.97 S 48.5 33.41, 50 33.5 S 53.55 35.14, 55 35.54 S 58.61 36.83, 60 36.27 S 63.56 31.95, 65 31.54 S 68.5 33.35, 70 33.42 S 73.57 32.47, 75 32.02 S 78.55 30.62, 80 30.25 S 83.51 29.61, 85 29.44 S 88.5 28.97, 90 29.08 S 93.57 29.73, 95 30.18 S 98.51 32.44, 100 32.25 S 103.76 29.73, 105 28.89 S 108.53 25.12, 110 25.44 S 113.76 30.23, 115 31.08 S 118.51 32.19, 120 32.32 S 123.51 32.09, 125 31.94 S 128.72 32.12, 130 31.34 S 133.61 26.43, 135 25.86 S 138.52 27.53, 140 27.26 S 143.52 23.83, 145 24.05 S 148.69 28.02, 150 28.76 S 153.5 29.77, 155 29.68 S 158.52 28.38, 160 28.14 S 163.5 28.16, 165 28.07 S 168.51 27.36, 170 27.57 S 173.56 29.03, 175 29.47 S 178.5 30.57, 180 30.61 S 183.5 29.66, 185 29.77 S 188.56 31.77, 190 31.34 S 193.52 27.02, 195 26.8 S 198.54 29.5, 200 29.85 S 203.51 29.41, 205 29.22"
          fill="none"/>
    <circle r="4" cx="5" cy="40" fill="#3023AE"/>
    <circle r="4" cx="205" cy="29.22" fill="#C86DD7"/>      
</svg>