<svg width="200" height="50" viewBox="0 0 210 50" xmlns="http://www.w3.org/2000/svg">
    <defs>
        <linearGradient x1="0%" y1="0%" x2="100%" y2="0%" id="a">
            <stop stop-color="#3023AE" offset="0%"/>
            <stop stop-color="#C86DD7" offset="100%"/>
        </linearGradient>
    </defs>
    <path stroke="url(#a)"
          stroke-width="3"
          stroke-linejoin="round"
          stroke-linecap="round"
          d="M5 40 C 6.5 39.98, 8.5 39.94, 10 39.94 S 13.5 39.98, 15 39.99 S 18.5 40, 20 39.99 S 23.5 39.94, 25 39.93 S 28.5 39.92, 30 39.93 S 33.5 39.97, 35 39.97 S 39.53 41.38, 40 39.96 S 44.02 11.13, 45 10 S 49.41 27.03, 50 28.41 S 53.71 32.39, 55 33.15 S 58.53 34.01, 60 34.32 S 63.5 35.2, 65 35.27 S 68.52 35.02, 70 34.76 S 73.5 33.4, 75 33.51 S 78.56 35.09, 80 35.52 S 83.51 36.38, 85 36.51 S 88.69 37.16, 90 36.42 S 93.54 31.21, 95 30.87 S 98.54 33.73, 100 34.07 S 103.5 33.12, 105 33.19 S 108.6 35.11, 110 34.57 S 113.59 29.89, 115 29.37 S 118.5 30.82, 120 30.87 S 123.51 29.86, 125 29.68 S 128.5 29.54, 130 29.64 S 133.51 30.51, 135 30.34 S 138.56 28.08, 140 28.49 S 143.6 32.62, 145 33.15 S 148.61 32.8, 150 32.24 S 153.52 29.38, 155 29.14 S 158.68 31.3, 160 30.59 S 163.5 23.79, 165 23.78 S 168.84 29.54, 170 30.5 S 173.52 31.81, 175 32.06 S 178.5 32.13, 180 32.18 S 183.5 32.39, 185 32.41 S 188.5 32.32, 190 32.29 S 193.52 32.45, 195 32.22 S 198.86 31.72, 200 30.74 S 204.14 24.87, 205 23.64"
          fill="none"/>
    <circle r="4" cx="5" cy="40" fill="#3023AE"/>
    <circle r="4" cx="205" cy="23.64" fill="#C86DD7"/>      
</svg>