<svg width="200" height="50" viewBox="0 0 210 50" xmlns="http://www.w3.org/2000/svg">
    <defs>
        <linearGradient x1="0%" y1="0%" x2="100%" y2="0%" id="a">
            <stop stop-color="#3023AE" offset="0%"/>
            <stop stop-color="#C86DD7" offset="100%"/>
        </linearGradient>
    </defs>
    <path stroke="url(#a)"
          stroke-width="3"
          stroke-linejoin="round"
          stroke-linecap="round"
          d="M5 40 C 6.5 39.99, 8.5 39.95, 10 39.95 S 13.5 39.98, 15 39.99 S 18.5 39.99, 20 39.99 S 23.5 39.99, 25 39.99 S 28.5 39.99, 30 39.99 S 33.5 39.97, 35 39.96 S 38.5 39.92, 40 39.92 S 43.5 39.98, 45 39.99 S 48.5 39.99, 50 39.98 S 54.53 41.35, 55 39.93 S 58.64 10.63, 60 10 S 64.46 33.87, 65 35.27 S 68.51 35.66, 70 35.8 S 73.52 35.99, 75 36.22 S 78.5 37.29, 80 37.36 S 83.5 36.78, 85 36.69 S 88.51 36.96, 90 36.79 S 93.5 35.48, 95 35.57 S 98.52 37.17, 100 37.42 S 103.5 37.23, 105 37.29 S 108.5 37.76, 110 37.82 S 113.5 37.7, 115 37.67 S 118.66 38.29, 120 37.63 S 123.51 32.88, 125 32.73 S 128.54 36.26, 130 36.62 S 133.5 35.18, 135 35.2 S 138.5 36.83, 140 36.75 S 143.55 35.03, 145 34.64 S 148.5 34.1, 150 34.03 S 153.5 34.23, 155 34.2 S 158.51 33.95, 160 33.82 S 163.5 33.32, 165 33.31 S 168.5 33.61, 170 33.72 S 173.52 34.3, 175 34.06 S 178.51 31.9, 180 32.09 S 183.57 34.88, 185 35.34 S 188.5 35.34, 190 35.32 S 193.5 35.26, 195 35.21 S 198.59 35.5, 200 35 S 203.75 32.49, 205 31.66"
          fill="none"/>
    <circle r="4" cx="5" cy="40" fill="#3023AE"/>
    <circle r="4" cx="205" cy="31.66" fill="#C86DD7"/>      
</svg>