<svg width="200" height="50" viewBox="0 0 210 50" xmlns="http://www.w3.org/2000/svg">
    <defs>
        <linearGradient x1="0%" y1="0%" x2="100%" y2="0%" id="a">
            <stop stop-color="#3023AE" offset="0%"/>
            <stop stop-color="#C86DD7" offset="100%"/>
        </linearGradient>
    </defs>
    <path stroke="url(#a)"
          stroke-width="3"
          stroke-linejoin="round"
          stroke-linecap="round"
          d="M5 40 C 6.5 39.99, 8.5 39.96, 10 39.96 S 13.5 39.98, 15 39.98 S 18.5 39.96, 20 39.95 S 23.5 39.95, 25 39.94 S 29.52 41.32, 30 39.9 S 33.76 10.84, 35 10 S 39.44 31.78, 40 33.17 S 43.5 34.58, 45 34.63 S 48.5 33.39, 50 33.5 S 53.55 34.95, 55 35.34 S 58.58 36.67, 60 36.18 S 63.57 32.29, 65 31.85 S 68.51 32.97, 70 33.1 S 73.57 33.18, 75 32.73 S 78.59 30.44, 80 29.93 S 83.5 29.16, 85 29.09 S 88.5 29.39, 90 29.43 S 93.55 28.95, 95 29.35 S 98.5 32.21, 100 32.17 S 103.74 29.89, 105 29.07 S 108.51 25.54, 110 25.69 S 113.74 29.23, 115 30.05 S 118.53 31.89, 120 32.2 S 123.5 32.21, 125 32.14 S 128.69 32.49, 130 31.76 S 133.63 27.21, 135 26.59 S 138.55 27.65, 140 27.25 S 143.5 23.83, 145 23.86 S 148.72 26.66, 150 27.44 S 153.5 29.85, 155 29.95 S 158.54 28.45, 160 28.12 S 163.5 27.8, 165 27.71 S 168.52 27.26, 170 27.49 S 173.54 28.93, 175 29.28 S 178.5 29.81, 180 29.87 S 183.5 29.58, 185 29.67 S 188.51 30.35, 190 30.5 S 193.6 31.2, 195 30.66 S 198.52 26.88, 200 26.63 S 203.64 28.35, 205 28.99"
          fill="none"/>
    <circle r="4" cx="5" cy="40" fill="#3023AE"/>
    <circle r="4" cx="205" cy="28.990000000000002" fill="#C86DD7"/>      
</svg>