<svg width="200" height="50" viewBox="0 0 210 50" xmlns="http://www.w3.org/2000/svg">
    <defs>
        <linearGradient x1="0%" y1="0%" x2="100%" y2="0%" id="a">
            <stop stop-color="#3023AE" offset="0%"/>
            <stop stop-color="#C86DD7" offset="100%"/>
        </linearGradient>
    </defs>
    <path stroke="url(#a)"
          stroke-width="3"
          stroke-linejoin="round"
          stroke-linecap="round"
          d="M5 40 C 6.5 39.92, 8.5 39.8, 10 39.72 S 13.5 39.44, 15 39.44 S 18.5 39.68, 20 39.72 S 23.5 39.72, 25 39.72 S 28.5 39.72, 30 39.72 S 33.5 39.72, 35 39.72 S 38.5 39.72, 40 39.72 S 43.5 39.72, 45 39.72 S 48.5 39.72, 50 39.72 S 54.52 41.14, 55 39.72 S 58.58 10.48, 60 10 S 64.35 35.01, 65 36.36 S 68.51 30.92, 70 30.75 S 73.76 34.39, 75 35.23 S 78.56 37.07, 80 37.48 S 83.51 38.21, 85 38.04 S 88.51 36.49, 90 36.36 S 93.52 36.95, 95 37.2 S 98.51 38.21, 100 38.04 S 103.52 36.32, 105 36.07 S 108.54 36.69, 110 36.36 S 113.5 33.83, 115 33.83 S 118.56 35.95, 120 36.36 S 123.53 36.93, 125 36.64 S 128.51 34.56, 130 34.39 S 133.5 35.51, 135 35.51 S 138.66 35.07, 140 34.39 S 143.65 31.11, 145 30.47 S 148.5 29.67, 150 29.63 S 153.54 29.86, 155 30.19 S 158.57 31.43, 160 31.87 S 163.65 32.62, 165 33.27 S 168.55 36.27, 170 36.64 S 173.52 36.04, 175 35.79 S 178.53 34.66, 180 34.95 S 183.51 37.63, 185 37.76 S 188.51 36, 190 35.79 S 193.5 36.27, 195 36.36 S 198.53 36.65, 200 36.36 S 203.6 34.94, 205 34.39"
          fill="none"/>
    <circle r="4" cx="5" cy="40" fill="#3023AE"/>
    <circle r="4" cx="205" cy="34.39" fill="#C86DD7"/>      
</svg>