<svg width="200" height="50" viewBox="0 0 210 50" xmlns="http://www.w3.org/2000/svg">
    <defs>
        <linearGradient x1="0%" y1="0%" x2="100%" y2="0%" id="a">
            <stop stop-color="#3023AE" offset="0%"/>
            <stop stop-color="#C86DD7" offset="100%"/>
        </linearGradient>
    </defs>
    <path stroke="url(#a)"
          stroke-width="3"
          stroke-linejoin="round"
          stroke-linecap="round"
          d="M5 40 C 6.5 39.91, 8.5 39.8, 10 39.71 S 13.5 39.41, 15 39.41 S 18.5 39.67, 20 39.71 S 23.5 39.71, 25 39.71 S 28.5 39.71, 30 39.71 S 33.5 39.71, 35 39.71 S 38.5 39.71, 40 39.71 S 43.5 39.71, 45 39.71 S 48.5 39.71, 50 39.71 S 53.5 39.71, 55 39.71 S 58.52 39.93, 60 39.71 S 64.52 39.66, 65 38.24 S 68.53 10.3, 70 10 S 74.4 34.8, 75 36.18 S 78.56 33.36, 80 32.94 S 83.64 32.6, 85 33.24 S 88.63 37.04, 90 37.65 S 93.51 37.48, 95 37.65 S 98.51 39, 100 38.82 S 103.52 36.73, 105 36.47 S 108.53 36.76, 110 37.06 S 113.51 38.4, 115 38.53 S 118.54 38.28, 120 37.94 S 123.53 36.48, 125 36.18 S 128.52 36.1, 130 35.88 S 133.5 34.62, 135 34.71 S 138.53 36.17, 140 36.47 S 143.52 36.98, 145 36.76 S 148.5 34.96, 150 35 S 153.5 37.06, 155 37.06 S 158.55 35.38, 160 35 S 163.64 35.05, 165 34.41 S 168.64 30.93, 170 30.29 S 173.52 29.49, 175 29.71 S 178.54 31.42, 180 31.76 S 183.56 31.64, 185 32.06 S 188.52 34.49, 190 34.71 S 193.53 33.23, 195 33.53 S 198.59 36.26, 200 36.76 S 203.5 36.97, 205 37.06"
          fill="none"/>
    <circle r="4" cx="5" cy="40" fill="#3023AE"/>
    <circle r="4" cx="205" cy="37.06" fill="#C86DD7"/>      
</svg>