<svg width="200" height="50" viewBox="0 0 210 50" xmlns="http://www.w3.org/2000/svg">
    <defs>
        <linearGradient x1="0%" y1="0%" x2="100%" y2="0%" id="a">
            <stop stop-color="#3023AE" offset="0%"/>
            <stop stop-color="#C86DD7" offset="100%"/>
        </linearGradient>
    </defs>
    <path stroke="url(#a)"
          stroke-width="3"
          stroke-linejoin="round"
          stroke-linecap="round"
          d="M5 40 C 6.5 39.91, 8.5 39.79, 10 39.7 S 13.5 39.4, 15 39.4 S 18.5 39.66, 20 39.7 S 23.5 39.7, 25 39.7 S 28.5 39.7, 30 39.7 S 33.5 39.7, 35 39.7 S 38.5 39.7, 40 39.7 S 43.5 39.7, 45 39.7 S 48.5 39.7, 50 39.7 S 53.5 39.7, 55 39.7 S 59.52 41.12, 60 39.7 S 63.66 10.68, 65 10 S 69.44 33.21, 70 34.6 S 73.63 35.52, 75 34.9 S 78.55 29.71, 80 30.1 S 83.78 36.72, 85 37.6 S 88.52 37.08, 90 37.3 S 93.54 39.45, 95 39.1 S 98.5 34.99, 100 34.9 S 103.56 38.07, 105 38.5 S 108.51 38.08, 110 37.9 S 113.54 37.65, 115 37.3 S 118.56 35.93, 120 35.5 S 123.5 34.34, 125 34.3 S 128.54 34.85, 130 35.2 S 133.5 36.7, 135 36.7 S 138.51 35.33, 140 35.2 S 143.5 35.8, 145 35.8 S 148.52 35.47, 150 35.2 S 153.59 34.51, 155 34 S 158.68 32.31, 160 31.6 S 163.51 28.78, 165 28.6 S 168.56 29.97, 170 30.4 S 173.62 31.02, 175 31.6 S 178.55 34.21, 180 34.6 S 183.52 34.08, 185 34.3 S 188.52 35.88, 190 36.1 S 193.5 35.84, 195 35.8 S 198.54 35.45, 200 35.8 S 203.65 37.55, 205 38.2"
          fill="none"/>
    <circle r="4" cx="5" cy="40" fill="#3023AE"/>
    <circle r="4" cx="205" cy="38.2" fill="#C86DD7"/>      
</svg>