<svg width="200" height="50" viewBox="0 0 210 50" xmlns="http://www.w3.org/2000/svg">
    <defs>
        <linearGradient x1="0%" y1="0%" x2="100%" y2="0%" id="a">
            <stop stop-color="#3023AE" offset="0%"/>
            <stop stop-color="#C86DD7" offset="100%"/>
        </linearGradient>
    </defs>
    <path stroke="url(#a)"
          stroke-width="3"
          stroke-linejoin="round"
          stroke-linecap="round"
          d="M5 40 C 5.57 38.61, 8.51 27.95, 10 27.78 S 14 37.78, 15 38.89 S 18.5 38.89, 20 38.89 S 23.5 38.89, 25 38.89 S 28.5 38.89, 30 38.89 S 33.5 38.89, 35 38.89 S 38.69 39.62, 40 38.89 S 43.51 33.5, 45 33.33 S 48.63 38.39, 50 37.78 S 53.69 29.62, 55 28.89 S 58.69 31.49, 60 32.22 S 63.69 35.17, 65 34.44 S 69.43 28.06, 70 26.67 S 73.58 10.48, 75 10 S 79.38 21.96, 80 23.33 S 83.82 31.3, 85 32.22 S 88.69 31.84, 90 31.11 S 93.58 27.14, 95 26.67 S 98.5 27.78, 100 27.78 S 103.75 25.84, 105 26.67 S 108.58 33.97, 110 34.44 S 113.82 30.92, 115 30 S 118.54 26.34, 120 26.67 S 123.5 32.22, 125 32.22 S 128.63 27.28, 130 26.67 S 134.15 29.01, 135 27.78 S 138.58 11.75, 140 12.22 S 144.19 29.85, 145 31.11 S 148.58 28.25, 150 27.78 S 153.54 27.45, 155 27.78 S 158.54 30.33, 160 30 S 163.5 25.56, 165 25.56 S 168.88 29, 170 30 S 173.54 34.77, 175 34.44 S 178.58 28.25, 180 27.78 S 183.58 30.64, 185 31.11 S 188.75 31.94, 190 31.11 S 193.54 24.11, 195 24.44 S 198.51 33.16, 200 33.33 S 204.19 26.82, 205 25.56"
          fill="none"/>
    <circle r="4" cx="5" cy="40" fill="#3023AE"/>
    <circle r="4" cx="205" cy="25.560000000000002" fill="#C86DD7"/>      
</svg>