<svg width="200" height="50" viewBox="0 0 210 50" xmlns="http://www.w3.org/2000/svg">
    <defs>
        <linearGradient x1="0%" y1="0%" x2="100%" y2="0%" id="a">
            <stop stop-color="#3023AE" offset="0%"/>
            <stop stop-color="#C86DD7" offset="100%"/>
        </linearGradient>
    </defs>
    <path stroke="url(#a)"
          stroke-width="3"
          stroke-linejoin="round"
          stroke-linecap="round"
          d="M5 40 C 6.48 39.76, 8.5 39.23, 10 39.19 S 13.5 39.65, 15 39.73 S 18.5 39.73, 20 39.73 S 23.5 39.73, 25 39.73 S 28.5 39.73, 30 39.73 S 33.5 39.73, 35 39.73 S 38.5 39.73, 40 39.73 S 43.67 40.42, 45 39.73 S 48.51 34.79, 50 34.59 S 53.59 37.88, 55 38.38 S 58.51 38.31, 60 38.11 S 63.51 36.87, 65 37.03 S 68.54 38.84, 70 39.19 S 73.5 39.46, 75 39.46 S 78.53 39.51, 80 39.19 S 83.52 37.54, 85 37.3 S 88.54 37.93, 90 37.57 S 94.49 36.27, 95 34.86 S 98.51 9.88, 100 10 S 104.47 34.27, 105 35.68 S 108.51 36.92, 110 36.76 S 113.5 34.59, 115 34.59 S 118.52 36.52, 120 36.76 S 123.68 36.93, 125 36.22 S 128.5 31.31, 130 31.35 S 133.74 35.67, 135 36.49 S 138.52 38.08, 140 37.84 S 143.52 35.1, 145 34.86 S 148.52 36.46, 150 36.22 S 153.5 33.2, 155 33.24 S 158.55 36.1, 160 36.49 S 163.51 36.11, 165 35.95 S 168.5 35.33, 170 35.41 S 173.52 36.25, 175 36.49 S 178.5 36.95, 180 37.03 S 183.54 37.39, 185 37.03 S 188.51 34.75, 190 34.59 S 193.6 36.48, 195 35.95 S 198.51 30.97, 200 30.81 S 203.83 33.92, 205 34.86"
          fill="none"/>
    <circle r="4" cx="5" cy="40" fill="#3023AE"/>
    <circle r="4" cx="205" cy="34.86" fill="#C86DD7"/>      
</svg>