<svg width="200" height="50" viewBox="0 0 210 50" xmlns="http://www.w3.org/2000/svg">
    <defs>
        <linearGradient x1="0%" y1="0%" x2="100%" y2="0%" id="a">
            <stop stop-color="#3023AE" offset="0%"/>
            <stop stop-color="#C86DD7" offset="100%"/>
        </linearGradient>
    </defs>
    <path stroke="url(#a)"
          stroke-width="3"
          stroke-linejoin="round"
          stroke-linecap="round"
          d="M5 40 C 5.25 38.52, 8.54 10.36, 10 10 S 14.5 36.14, 15 37.55 S 18.5 38.17, 20 38.26 S 23.5 38.11, 25 38.17 S 28.5 38.56, 30 38.63 S 33.5 38.63, 35 38.63 S 38.5 38.63, 40 38.66 S 43.5 38.84, 45 38.85 S 48.5 38.76, 50 38.7 S 53.5 38.53, 55 38.45 S 58.5 38.14, 60 38.17 S 63.5 38.54, 65 38.63 S 68.53 39.07, 70 38.76 S 73.5 36.61, 75 36.52 S 78.54 37.84, 80 38.17 S 83.57 39.22, 85 38.76 S 88.52 35.14, 90 34.91 S 93.56 36.83, 95 37.24 S 98.5 37.69, 100 37.76 S 103.5 37.63, 105 37.73 S 108.5 38.31, 110 38.42 S 113.5 38.51, 115 38.45 S 119.41 39.42, 120 38.04 S 123.74 16.09, 125 15.28 S 129.35 30.23, 130 31.58 S 133.68 35.27, 135 35.99 S 138.53 36.74, 140 37.02 S 143.5 37.87, 145 37.86 S 148.5 36.86, 150 36.93 S 153.51 38.18, 155 38.32 S 158.5 37.8, 160 37.86 S 163.5 38.69, 165 38.7 S 168.5 38.06, 170 37.95 S 173.51 38.11, 175 37.98 S 178.5 37.12, 180 37.11 S 183.5 37.79, 185 37.89 S 189.02 38.94, 190 37.8 S 193.5 26.3, 195 26.21 S 199 36.06, 200 37.17 S 203.5 37.26, 205 37.3"
          fill="none"/>
    <circle r="4" cx="5" cy="40" fill="#3023AE"/>
    <circle r="4" cx="205" cy="37.3" fill="#C86DD7"/>      
</svg>