<svg width="200" height="50" viewBox="0 0 210 50" xmlns="http://www.w3.org/2000/svg">
    <defs>
        <linearGradient x1="0%" y1="0%" x2="100%" y2="0%" id="a">
            <stop stop-color="#3023AE" offset="0%"/>
            <stop stop-color="#C86DD7" offset="100%"/>
        </linearGradient>
    </defs>
    <path stroke="url(#a)"
          stroke-width="3"
          stroke-linejoin="round"
          stroke-linecap="round"
          d="M5 40 C 6.49 39.84, 8.5 39.55, 10 39.47 S 13.51 39.63, 15 39.47 S 18.5 38.42, 20 38.42 S 23.5 39.47, 25 39.47 S 28.5 38.5, 30 38.42 S 33.51 38.79, 35 38.95 S 38.51 39.63, 40 39.47 S 43.67 38.59, 45 37.89 S 48.5 34.29, 50 34.21 S 53.59 36.85, 55 37.37 S 58.52 37.66, 60 37.89 S 63.51 38.79, 65 38.95 S 68.52 39.18, 70 38.95 S 73.5 37.37, 75 37.37 S 78.5 39.03, 80 38.95 S 83.52 37.07, 85 36.84 S 88.5 37.37, 90 37.37 S 93.52 37.07, 95 36.84 S 98.53 35.48, 100 35.79 S 103.52 38.72, 105 38.95 S 108.55 37.75, 110 37.37 S 113.51 36.48, 115 36.32 S 118.57 35.87, 120 36.32 S 123.51 39.31, 125 39.47 S 128.55 37.75, 130 37.37 S 133.53 36.53, 135 36.84 S 138.53 39.16, 140 39.47 S 143.5 39.03, 145 38.95 S 148.5 39.03, 150 38.95 S 153.5 38.5, 155 38.42 S 158.51 38.26, 160 38.42 S 163.55 39.85, 165 39.47 S 168.52 36.02, 170 35.79 S 173.51 37.73, 175 37.89 S 179.49 38.25, 180 36.84 S 183.59 10.52, 185 10 S 189.49 31.75, 190 33.16 S 193.7 36.62, 195 37.37 S 198.57 38.5, 200 38.95"
          fill="none"/>
    <circle r="4" cx="5" cy="40" fill="#3023AE"/>
    <circle r="4" cx="200" cy="38.95" fill="#C86DD7"/>      
</svg>