<svg width="200" height="50" viewBox="0 0 210 50" xmlns="http://www.w3.org/2000/svg">
    <defs>
        <linearGradient x1="0%" y1="0%" x2="100%" y2="0%" id="a">
            <stop stop-color="#3023AE" offset="0%"/>
            <stop stop-color="#C86DD7" offset="100%"/>
        </linearGradient>
    </defs>
    <path stroke="url(#a)"
          stroke-width="3"
          stroke-linejoin="round"
          stroke-linecap="round"
          d="M5 40 C 6.5 39.98, 8.5 39.94, 10 39.93 S 13.5 39.93, 15 39.93 S 18.5 39.93, 20 39.93 S 23.5 39.93, 25 39.93 S 28.5 39.93, 30 39.93 S 33.5 39.93, 35 39.93 S 38.5 39.93, 40 39.93 S 43.5 39.93, 45 39.93 S 48.5 39.93, 50 39.93 S 53.5 39.93, 55 39.93 S 58.5 39.93, 60 39.93 S 63.5 39.93, 65 39.93 S 68.5 39.93, 70 39.93 S 73.5 39.93, 75 39.93 S 78.5 39.93, 80 39.93 S 83.5 39.93, 85 39.93 S 88.5 39.93, 90 39.93 S 93.5 39.93, 95 39.93 S 98.5 39.93, 100 39.93 S 103.5 39.93, 105 39.93 S 108.5 39.93, 110 39.93 S 113.5 39.93, 115 39.93 S 118.5 39.93, 120 39.93 S 123.5 39.93, 125 39.93 S 128.5 39.93, 130 39.93 S 133.5 39.93, 135 39.93 S 138.5 39.93, 140 39.93 S 143.5 39.93, 145 39.93 S 148.5 39.93, 150 39.93 S 153.5 39.93, 155 39.93 S 158.5 39.93, 160 39.93 S 163.97 41.02, 165 39.93 S 169.52 30.81, 170 29.39 S 173.5 10.03, 175 10 S 179.37 27.83, 180 29.19 S 183.5 31.71, 185 31.68 S 188.54 28.64, 190 29 S 194.29 35.49, 195 34.17 S 199.33 11.73, 200 10.39 S 203.8 13.23, 205 14.13"
          fill="none"/>
    <circle r="4" cx="5" cy="40" fill="#3023AE"/>
    <circle r="4" cx="205" cy="14.129999999999999" fill="#C86DD7"/>      
</svg>