<svg width="200" height="50" viewBox="0 0 210 50" xmlns="http://www.w3.org/2000/svg">
    <defs>
        <linearGradient x1="0%" y1="0%" x2="100%" y2="0%" id="a">
            <stop stop-color="#3023AE" offset="0%"/>
            <stop stop-color="#C86DD7" offset="100%"/>
        </linearGradient>
    </defs>
    <path stroke="url(#a)"
          stroke-width="3"
          stroke-linejoin="round"
          stroke-linecap="round"
          d="M5 40 C 5.44 38.57, 8.55 24.04, 10 23.64 S 13.99 36.16, 15 37.27 S 18.55 34.94, 20 34.55 S 23.55 34.16, 25 34.55 S 28.55 36.88, 30 37.27 S 33.5 37.27, 35 37.27 S 39.48 38.68, 40 37.27 S 44.22 11.28, 45 10 S 49.22 19.63, 50 20.91 S 54.22 25.08, 55 26.36 S 58.55 36.87, 60 37.27 S 63.68 29.81, 65 29.09 S 68.68 31.1, 70 31.82 S 73.55 34.15, 75 34.55 S 78.55 34.16, 80 34.55 S 84.43 38.66, 85 37.27 S 88.5 10, 90 10 S 94.43 35.88, 95 37.27 S 98.55 34.94, 100 34.55 S 103.5 34.55, 105 34.55 S 108.55 34.95, 110 34.55 S 113.55 32.22, 115 31.82 S 118.55 32.22, 120 31.82 S 123.5 29.09, 125 29.09 S 128.84 30.87, 130 31.82 S 133.55 37.67, 135 37.27 S 138.5 29.09, 140 29.09 S 143.84 36.32, 145 37.27 S 148.84 38.22, 150 37.27 S 154.3 30.42, 155 29.09 S 158.84 17.23, 160 18.18 S 164.3 35.94, 165 37.27 S 168.5 37.27, 170 37.27 S 173.55 37.66, 175 37.27 S 178.5 34.55, 180 34.55 S 183.55 36.88, 185 37.27 S 188.5 37.27, 190 37.27 S 193.5 37.27, 195 37.27 S 198.55 37.66, 200 37.27 S 203.68 35.27, 205 34.55"
          fill="none"/>
    <circle r="4" cx="5" cy="40" fill="#3023AE"/>
    <circle r="4" cx="205" cy="34.55" fill="#C86DD7"/>      
</svg>