<svg width="200" height="50" viewBox="0 0 210 50" xmlns="http://www.w3.org/2000/svg">
    <defs>
        <linearGradient x1="0%" y1="0%" x2="100%" y2="0%" id="a">
            <stop stop-color="#3023AE" offset="0%"/>
            <stop stop-color="#C86DD7" offset="100%"/>
        </linearGradient>
    </defs>
    <path stroke="url(#a)"
          stroke-width="3"
          stroke-linejoin="round"
          stroke-linecap="round"
          d="M5 40 C 5.25 38.52, 8.57 10.45, 10 10 S 14.5 35.47, 15 36.89 S 18.5 38.42, 20 38.51 S 23.5 37.58, 25 37.49 S 28.5 37.94, 30 37.91 S 33.51 37.45, 35 37.31 S 38.5 36.96, 40 36.98 S 43.5 37.51, 45 37.45 S 48.51 36.74, 50 36.61 S 53.5 36.49, 55 36.61 S 58.5 37.4, 60 37.4 S 63.5 36.69, 65 36.61 S 68.5 36.93, 70 36.89 S 73.5 36.38, 75 36.33 S 78.51 36.73, 80 36.56 S 83.51 35.33, 85 35.17 S 88.5 35.4, 90 35.5 S 93.5 35.79, 95 35.87 S 98.51 36.16, 100 36.01 S 103.5 34.99, 105 34.89 S 108.5 35.44, 110 35.36 S 113.56 34.79, 115 34.38 S 118.53 32.8, 120 32.52 S 123.5 32.58, 125 32.48 S 128.51 31.73, 130 31.87 S 133.5 33.42, 135 33.45 S 138.51 32.23, 140 32.06 S 143.5 32.3, 145 32.29 S 148.51 32.18, 150 32.01 S 153.5 31.2, 155 31.13 S 158.57 32.01, 160 31.55 S 163.58 28.35, 165 27.88 S 168.5 28.24, 170 28.25 S 173.5 28, 175 27.97 S 178.61 28.58, 180 28.02 S 184.22 25.21, 185 23.93 S 188.5 11.59, 190 11.53 S 193.87 22.58, 195 23.56 S 198.6 20.75, 200 20.22 S 203.51 19.93, 205 19.8"
          fill="none"/>
    <circle r="4" cx="5" cy="40" fill="#3023AE"/>
    <circle r="4" cx="205" cy="19.8" fill="#C86DD7"/>      
</svg>