<svg width="200" height="50" viewBox="0 0 210 50" xmlns="http://www.w3.org/2000/svg">
    <defs>
        <linearGradient x1="0%" y1="0%" x2="100%" y2="0%" id="a">
            <stop stop-color="#3023AE" offset="0%"/>
            <stop stop-color="#C86DD7" offset="100%"/>
        </linearGradient>
    </defs>
    <path stroke="url(#a)"
          stroke-width="3"
          stroke-linejoin="round"
          stroke-linecap="round"
          d="M5 40 C 5.25 38.52, 8.57 10.45, 10 10 S 14.5 35.42, 15 36.84 S 18.5 38.46, 20 38.56 S 23.5 37.59, 25 37.49 S 28.5 37.94, 30 37.91 S 33.51 37.39, 35 37.26 S 38.5 37, 40 37.03 S 43.5 37.51, 45 37.45 S 48.51 36.74, 50 36.61 S 53.51 36.43, 55 36.56 S 58.5 37.44, 60 37.45 S 63.5 36.71, 65 36.61 S 68.5 36.83, 70 36.8 S 73.5 36.46, 75 36.42 S 78.51 36.71, 80 36.52 S 83.51 35.29, 85 35.12 S 88.51 35.27, 90 35.4 S 93.5 35.86, 95 35.96 S 98.51 36.25, 100 36.1 S 103.51 35.07, 105 34.94 S 108.5 35.32, 110 35.22 S 113.54 34.6, 115 34.24 S 118.53 33.05, 120 32.76 S 123.5 32.36, 125 32.24 S 128.5 31.85, 130 31.97 S 133.5 33, 135 33.03 S 138.5 32.22, 140 32.15 S 143.5 32.58, 145 32.57 S 148.51 32.25, 150 32.06 S 153.51 31.46, 155 31.32 S 158.59 31.65, 160 31.13 S 163.55 28.05, 165 27.65 S 168.5 28.36, 170 28.39 S 173.5 27.91, 175 27.88 S 178.6 28.73, 180 28.2 S 184.24 25.36, 185 24.07 S 188.51 11.44, 190 11.25 S 193.89 21.76, 195 22.77 S 198.56 20.73, 200 20.31 S 203.51 20.02, 205 19.89"
          fill="none"/>
    <circle r="4" cx="5" cy="40" fill="#3023AE"/>
    <circle r="4" cx="205" cy="19.89" fill="#C86DD7"/>      
</svg>