<svg width="200" height="50" viewBox="0 0 210 50" xmlns="http://www.w3.org/2000/svg">
    <defs>
        <linearGradient x1="0%" y1="0%" x2="100%" y2="0%" id="a">
            <stop stop-color="#3023AE" offset="0%"/>
            <stop stop-color="#C86DD7" offset="100%"/>
        </linearGradient>
    </defs>
    <path stroke="url(#a)"
          stroke-width="3"
          stroke-linejoin="round"
          stroke-linecap="round"
          d="M5 40 C 6.44 39.57, 9.53 39.94, 10 38.52 S 13.5 9.89, 15 10 S 19.47 37.86, 20 39.26 S 23.66 37.34, 25 36.67 S 28.54 33.93, 30 34.26 S 33.64 38.26, 35 38.89 S 38.51 38.75, 40 38.89 S 43.5 39.7, 45 39.81 S 48.5 39.63, 50 39.63 S 53.5 39.78, 55 39.81 S 58.5 39.81, 60 39.81 S 63.5 39.81, 65 39.81 S 68.5 39.81, 70 39.81 S 73.5 39.84, 75 39.81 S 78.5 39.66, 80 39.63 S 83.5 39.69, 85 39.63 S 88.5 39.23, 90 39.26 S 93.56 40.24, 95 39.81 S 98.63 36.91, 100 36.3 S 103.57 34.92, 105 35.37 S 108.51 39.58, 110 39.44 S 113.5 34.44, 115 34.44 S 118.68 38.73, 120 39.44 S 123.5 39.92, 125 39.81 S 128.5 38.81, 130 38.7 S 133.5 39.13, 135 39.07 S 138.5 38.44, 140 38.33 S 143.51 38.14, 145 38.33 S 148.5 39.55, 150 39.63 S 153.52 39.11, 155 38.89 S 158.5 38.18, 160 38.15 S 163.51 38.56, 165 38.7 S 168.5 38.96, 170 39.07 S 173.5 39.33, 175 39.44 S 178.5 39.75, 180 39.81 S 183.5 39.89, 185 39.81 S 188.5 39.32, 190 39.26 S 193.5 39.36, 195 39.44 S 198.5 39.78, 200 39.81 S 203.5 39.68, 205 39.63"
          fill="none"/>
    <circle r="4" cx="5" cy="40" fill="#3023AE"/>
    <circle r="4" cx="205" cy="39.63" fill="#C86DD7"/>      
</svg>