<svg width="200" height="50" viewBox="0 0 210 50" xmlns="http://www.w3.org/2000/svg">
    <defs>
        <linearGradient x1="0%" y1="0%" x2="100%" y2="0%" id="a">
            <stop stop-color="#3023AE" offset="0%"/>
            <stop stop-color="#C86DD7" offset="100%"/>
        </linearGradient>
    </defs>
    <path stroke="url(#a)"
          stroke-width="3"
          stroke-linejoin="round"
          stroke-linecap="round"
          d="M5 40 C 5.73 38.69, 8.69 31.73, 10 31 S 13.6 33.89, 15 34.43 S 18.5 34.86, 20 34.86 S 23.55 34.8, 25 34.43 S 28.56 32.72, 30 32.29 S 33.51 31.56, 35 31.43 S 38.6 31.97, 40 31.43 S 43.5 27.57, 45 27.57 S 48.51 31.3, 50 31.43 S 53.51 28.56, 55 28.43 S 58.53 30.26, 60 30.57 S 63.55 30.2, 65 30.57 S 68.62 33.73, 70 33.14 S 73.81 27.21, 75 26.29 S 78.53 25.12, 80 25.43 S 83.71 29.2, 85 28.43 S 88.62 20.02, 90 19.43 S 93.95 23.06, 95 24.14 S 98.55 29.34, 100 29.71 S 103.52 26.46, 105 26.71 S 108.5 31.37, 110 31.43 S 113.62 27.73, 115 27.14 S 118.58 26.65, 120 27.14 S 123.56 30.14, 125 30.57 S 128.6 30.68, 130 30.14 S 133.64 27.35, 135 26.71 S 139.23 26.72, 140 25.43 S 143.52 9.75, 145 10 S 149.24 25.84, 150 27.14 S 153.52 26.89, 155 27.14 S 158.51 28.73, 160 28.86 S 163.5 28.06, 165 28 S 168.55 28.06, 170 28.43 S 173.58 31.06, 175 30.57 S 178.91 26.03, 180 25 S 183.56 20.71, 185 21.14 S 188.69 28.73, 190 28 S 194.06 16.74, 195 15.57 S 198.51 15.38, 200 15.57 S 203.55 16.49, 205 16.86"
          fill="none"/>
    <circle r="4" cx="5" cy="40" fill="#3023AE"/>
    <circle r="4" cx="205" cy="16.86" fill="#C86DD7"/>      
</svg>