<svg width="200" height="50" viewBox="0 0 210 50" xmlns="http://www.w3.org/2000/svg">
    <defs>
        <linearGradient x1="0%" y1="0%" x2="100%" y2="0%" id="a">
            <stop stop-color="#3023AE" offset="0%"/>
            <stop stop-color="#C86DD7" offset="100%"/>
        </linearGradient>
    </defs>
    <path stroke="url(#a)"
          stroke-width="3"
          stroke-linejoin="round"
          stroke-linecap="round"
          d="M5 40 C 6.44 39.57, 8.5 38.58, 10 38.49 S 13.5 39.39, 15 39.43 S 18.5 38.79, 20 38.74 S 23.5 39.17, 25 39.12 S 28.51 38.55, 30 38.42 S 34.5 39.65, 35 38.24 S 38.55 10.38, 40 10 S 44.47 34.25, 45 35.65 S 48.51 36.33, 50 36.47 S 53.51 36.47, 55 36.6 S 58.5 37.26, 60 37.35 S 63.51 37.39, 65 37.23 S 68.71 37.05, 70 36.28 S 73.56 31.72, 75 31.3 S 78.66 32.71, 80 33.38 S 83.5 36.31, 85 36.28 S 88.56 33.6, 90 33.19 S 93.54 33.09, 95 33.45 S 98.55 35.25, 100 35.65 S 103.51 36.39, 105 36.22 S 108.55 34.92, 110 34.52 S 113.52 33.18, 115 33.45 S 118.6 35.81, 120 36.34 S 123.5 37.13, 125 37.23 S 128.5 37.06, 130 37.04 S 133.5 37, 135 37.1 S 138.98 38.83, 140 37.73 S 143.58 26.87, 145 26.39 S 148.81 33.48, 150 34.39 S 153.5 33.9, 155 34.01 S 158.51 35.29, 160 35.15 S 163.5 33.02, 165 33.07 S 168.52 35.24, 170 35.46 S 173.52 34.85, 175 34.58 S 178.51 33.44, 180 33.63 S 183.52 35.58, 185 35.84 S 188.53 35.71, 190 35.4 S 193.52 33.93, 195 33.7 S 198.52 33.59, 200 33.82 S 203.56 34.85, 205 35.27"
          fill="none"/>
    <circle r="4" cx="5" cy="40" fill="#3023AE"/>
    <circle r="4" cx="205" cy="35.269999999999996" fill="#C86DD7"/>      
</svg>