<svg width="200" height="50" viewBox="0 0 210 50" xmlns="http://www.w3.org/2000/svg">
    <defs>
        <linearGradient x1="0%" y1="0%" x2="100%" y2="0%" id="a">
            <stop stop-color="#3023AE" offset="0%"/>
            <stop stop-color="#C86DD7" offset="100%"/>
        </linearGradient>
    </defs>
    <path stroke="url(#a)"
          stroke-width="3"
          stroke-linejoin="round"
          stroke-linecap="round"
          d="M5 40 C 5.7 38.67, 8.67 31.26, 10 30.57 S 13.52 34.61, 15 34.86 S 18.52 32.04, 20 32.29 S 23.58 36.08, 25 36.57 S 28.71 36.48, 30 35.71 S 34.39 31.94, 35 30.57 S 38.91 14.46, 40 13.43 S 43.91 20.11, 45 21.14 S 48.62 22.27, 50 22.86 S 53.5 25.43, 55 25.43 S 58.71 22.09, 60 22.86 S 63.55 31.8, 65 31.43 S 68.76 21.14, 70 20.29 S 73.58 24.08, 75 24.57 S 79.15 24.95, 80 23.71 S 83.95 11.08, 85 10 S 88.81 12.51, 90 13.43 S 93.58 17.22, 95 17.71 S 99.18 15.6, 100 16.86 S 103.95 32.06, 105 33.14 S 108.86 28.12, 110 27.14 S 113.52 24.32, 115 24.57 S 118.52 28.61, 120 28.86 S 123.62 26.88, 125 26.29 S 128.51 24.44, 130 24.57 S 133.51 27.27, 135 27.14 S 138.5 23.71, 140 23.71 S 143.76 26.29, 145 27.14 S 148.51 30.44, 150 30.57 S 153.95 29.08, 155 28 S 158.52 20.54, 160 20.29 S 163.67 25.6, 165 26.29 S 168.55 25.8, 170 25.43 S 174 24.83, 175 23.71 S 178.55 14.66, 180 14.29 S 184.3 19.81, 185 21.14 S 188.67 32.45, 190 33.14 S 193.52 26.54, 195 26.29 S 198.5 31.43, 200 31.43 S 203.95 27.37, 205 26.29"
          fill="none"/>
    <circle r="4" cx="5" cy="40" fill="#3023AE"/>
    <circle r="4" cx="205" cy="26.29" fill="#C86DD7"/>      
</svg>