<svg width="200" height="50" viewBox="0 0 210 50" xmlns="http://www.w3.org/2000/svg">
    <defs>
        <linearGradient x1="0%" y1="0%" x2="100%" y2="0%" id="a">
            <stop stop-color="#3023AE" offset="0%"/>
            <stop stop-color="#C86DD7" offset="100%"/>
        </linearGradient>
    </defs>
    <path stroke="url(#a)"
          stroke-width="3"
          stroke-linejoin="round"
          stroke-linecap="round"
          d="M5 40 C 6.48 39.73, 8.54 39.43, 10 39.1 S 13.5 37.76, 15 37.76 S 18.52 38.84, 20 39.1 S 23.5 39.48, 25 39.55 S 29.52 40.97, 30 39.55 S 33.7 10.75, 35 10 S 39.49 32.32, 40 33.73 S 43.7 37.01, 45 37.76 S 48.51 39.68, 50 39.55 S 53.75 37.71, 55 36.87 S 58.52 32.58, 60 32.84 S 63.61 38.1, 65 38.66 S 68.51 36.74, 70 36.87 S 73.51 39.35, 75 39.55 S 78.5 38.28, 80 38.21 S 83.5 39.03, 85 39.1 S 88.5 38.59, 90 38.66 S 93.5 39.62, 95 39.55 S 98.51 38.34, 100 38.21 S 103.5 38.59, 105 38.66 S 108.51 38.79, 110 38.66 S 113.5 37.69, 115 37.76 S 118.51 38.97, 120 39.1 S 123.5 38.66, 125 38.66 S 128.51 38.97, 130 39.1 S 133.5 39.48, 135 39.55 S 138.51 39.68, 140 39.55 S 143.5 38.66, 145 38.66 S 148.51 39.42, 150 39.55 S 153.5 39.55, 155 39.55 S 158.5 39.55, 160 39.55 S 163.5 39.55, 165 39.55 S 168.5 39.55, 170 39.55 S 173.5 39.55, 175 39.55 S 178.5 39.55, 180 39.55 S 183.5 39.55, 185 39.55 S 188.5 39.55, 190 39.55 S 193.5 39.55, 195 39.55 S 198.5 39.55, 200 39.55"
          fill="none"/>
    <circle r="4" cx="5" cy="40" fill="#3023AE"/>
    <circle r="4" cx="200" cy="39.55" fill="#C86DD7"/>      
</svg>