<svg width="200" height="50" viewBox="0 0 210 50" xmlns="http://www.w3.org/2000/svg">
    <defs>
        <linearGradient x1="0%" y1="0%" x2="100%" y2="0%" id="a">
            <stop stop-color="#3023AE" offset="0%"/>
            <stop stop-color="#C86DD7" offset="100%"/>
        </linearGradient>
    </defs>
    <path stroke="url(#a)"
          stroke-width="3"
          stroke-linejoin="round"
          stroke-linecap="round"
          d="M5 40 C 5.25 38.52, 8.5 10.07, 10 10 S 14.52 38.08, 15 39.5 S 18.5 39.5, 20 39.5 S 23.5 39.5, 25 39.5 S 28.5 39.5, 30 39.5 S 33.5 39.5, 35 39.5 S 38.5 39.57, 40 39.5 S 43.53 39.29, 45 39 S 48.5 37.57, 50 37.5 S 53.5 38.5, 55 38.5 S 58.51 37.35, 60 37.5 S 63.53 39.21, 65 39.5 S 68.58 40, 70 39.5 S 73.5 36.07, 75 36 S 78.99 40.11, 80 39 S 83.53 25.29, 85 25 S 88.97 35.91, 90 37 S 93.56 35.93, 95 35.5 S 98.53 33.71, 100 34 S 103.56 37.07, 105 37.5 S 108.5 37.07, 110 37 S 113.51 37.15, 115 37 S 118.58 36.5, 120 36 S 123.77 34.36, 125 33.5 S 128.52 28.78, 130 29 S 133.54 35.36, 135 35 S 138.63 27.12, 140 26.5 S 143.83 29.56, 145 30.5 S 148.52 34.28, 150 34.5 S 153.5 32.07, 155 32 S 158.51 34.15, 160 34 S 163.53 31.29, 165 31 S 168.58 31.5, 170 32 S 173.52 34.28, 175 34.5 S 178.52 33.28, 180 33.5 S 183.61 35.44, 185 36 S 188.61 38.06, 190 37.5 S 194.43 33.39, 195 32 S 198.53 12.71, 200 13 S 204.65 32.54, 205 34"
          fill="none"/>
    <circle r="4" cx="5" cy="40" fill="#3023AE"/>
    <circle r="4" cx="205" cy="34" fill="#C86DD7"/>      
</svg>