<svg width="200" height="50" viewBox="0 0 210 50" xmlns="http://www.w3.org/2000/svg">
    <defs>
        <linearGradient x1="0%" y1="0%" x2="100%" y2="0%" id="a">
            <stop stop-color="#3023AE" offset="0%"/>
            <stop stop-color="#C86DD7" offset="100%"/>
        </linearGradient>
    </defs>
    <path stroke="url(#a)"
          stroke-width="3"
          stroke-linejoin="round"
          stroke-linecap="round"
          d="M5 40 C 6.01 38.89, 8.68 35.27, 10 34.55 S 13.55 34.16, 15 34.55 S 18.5 37.27, 20 37.27 S 23.5 34.55, 25 34.55 S 28.99 38.38, 30 37.27 S 33.68 24.36, 35 23.64 S 39.11 30.61, 40 31.82 S 43.55 37.67, 45 37.27 S 48.55 29.48, 50 29.09 S 53.84 33.6, 55 34.55 S 58.99 38.38, 60 37.27 S 64.11 24.85, 65 23.64 S 68.68 22.92, 70 23.64 S 73.55 28.7, 75 29.09 S 78.55 26.76, 80 26.36 S 83.55 25.96, 85 26.36 S 88.99 30.2, 90 29.09 S 93.68 16.17, 95 15.45 S 98.68 22.92, 100 23.64 S 104.11 19.7, 105 20.91 S 108.68 37.99, 110 37.27 S 113.55 15.84, 115 15.45 S 118.5 34.55, 120 34.55 S 124.43 16.84, 125 15.45 S 129.11 8.79, 130 10 S 134.38 27.73, 135 29.09 S 138.55 32.22, 140 31.82 S 144.11 27.57, 145 26.36 S 148.55 18.57, 150 18.18 S 153.5 23.64, 155 23.64 S 158.55 17.79, 160 18.18 S 164.11 25.15, 165 26.36 S 168.68 32.54, 170 31.82 S 173.99 22.02, 175 20.91 S 178.55 20.51, 180 20.91 S 183.68 22.92, 185 23.64 S 188.55 25.97, 190 26.36 S 193.68 25.64, 195 26.36 S 199.11 33.03, 200 31.82 S 204.62 14.18, 205 12.73"
          fill="none"/>
    <circle r="4" cx="5" cy="40" fill="#3023AE"/>
    <circle r="4" cx="205" cy="12.73" fill="#C86DD7"/>      
</svg>