<svg width="200" height="50" viewBox="0 0 210 50" xmlns="http://www.w3.org/2000/svg">
    <defs>
        <linearGradient x1="0%" y1="0%" x2="100%" y2="0%" id="a">
            <stop stop-color="#3023AE" offset="0%"/>
            <stop stop-color="#C86DD7" offset="100%"/>
        </linearGradient>
    </defs>
    <path stroke="url(#a)"
          stroke-width="3"
          stroke-linejoin="round"
          stroke-linecap="round"
          d="M5 40 C 6.5 39.92, 8.5 39.76, 10 39.72 S 13.5 39.72, 15 39.72 S 18.5 39.72, 20 39.72 S 24.08 40.91, 25 39.72 S 29.52 28.21, 30 26.79 S 33.64 9.36, 35 10 S 39.4 30.09, 40 31.47 S 43.63 32.52, 45 33.12 S 48.5 35.87, 50 35.87 S 53.5 33.04, 55 33.12 S 58.56 35.99, 60 36.42 S 63.5 36.19, 65 36.15 S 68.86 37.12, 70 36.15 S 73.51 27.82, 75 27.61 S 78.83 33.83, 80 34.77 S 83.5 35.56, 85 35.6 S 88.5 35.13, 90 35.05 S 93.5 35.01, 95 35.05 S 98.5 35.36, 100 35.32 S 103.58 35.24, 105 34.77 S 108.5 32.1, 110 32.02 S 113.55 33.82, 115 34.22 S 118.5 34.81, 120 34.77 S 123.5 33.9, 125 33.94 S 128.5 35.13, 130 35.05 S 133.59 33.9, 135 33.39 S 138.75 32.3, 140 31.47 S 143.54 26.43, 145 26.79 S 148.66 33.27, 150 33.94 S 153.51 31.86, 155 31.74 S 158.5 33.12, 160 33.12 S 163.67 32.44, 165 31.74 S 168.52 28.13, 170 27.89 S 173.51 29.97, 175 30.09 S 178.53 28.44, 180 28.72 S 183.59 31.52, 185 32.02 S 188.76 33.14, 190 32.29 S 193.5 25.22, 195 25.14 S 198.58 31.27, 200 31.74 S 203.75 29.27, 205 28.44"
          fill="none"/>
    <circle r="4" cx="5" cy="40" fill="#3023AE"/>
    <circle r="4" cx="205" cy="28.439999999999998" fill="#C86DD7"/>      
</svg>