<svg width="200" height="50" viewBox="0 0 210 50" xmlns="http://www.w3.org/2000/svg">
    <defs>
        <linearGradient x1="0%" y1="0%" x2="100%" y2="0%" id="a">
            <stop stop-color="#3023AE" offset="0%"/>
            <stop stop-color="#C86DD7" offset="100%"/>
        </linearGradient>
    </defs>
    <path stroke="url(#a)"
          stroke-width="3"
          stroke-linejoin="round"
          stroke-linecap="round"
          d="M5 40 C 6.2 39.1, 8.6 36.78, 10 36.25 S 13.6 36.78, 15 36.25 S 18.8 33.4, 20 32.5 S 23.5 28.75, 25 28.75 S 28.8 33.4, 30 32.5 S 33.6 20.72, 35 21.25 S 39 35.13, 40 36.25 S 44.29 33.82, 45 32.5 S 48.8 18.4, 50 17.5 S 54.29 23.68, 55 25 S 58.5 36.25, 60 36.25 S 63.6 25.53, 65 25 S 69 31.38, 70 32.5 S 73.6 35.72, 75 36.25 S 79.29 37.57, 80 36.25 S 83.5 17.5, 85 17.5 S 88.8 37.15, 90 36.25 S 93.6 10.53, 95 10 S 99.47 31.1, 100 32.5 S 103.6 35.72, 105 36.25 S 108.5 36.25, 110 36.25 S 113.6 36.78, 115 36.25 S 118.6 33.03, 120 32.5 S 123.6 31.97, 125 32.5 S 128.5 36.25, 130 36.25 S 133.5 32.5, 135 32.5 S 138.5 36.25, 140 36.25 S 144.29 33.82, 145 32.5 S 148.8 18.4, 150 17.5 S 154.29 23.68, 155 25 S 159 35.13, 160 36.25 S 163.8 37.15, 165 36.25 S 168.6 29.28, 170 28.75 S 173.8 31.6, 175 32.5 S 178.6 35.72, 180 36.25 S 183.5 36.25, 185 36.25 S 188.5 36.25, 190 36.25 S 194.39 37.62, 195 36.25 S 199 14.87, 200 13.75 S 204.39 23.63, 205 25"
          fill="none"/>
    <circle r="4" cx="5" cy="40" fill="#3023AE"/>
    <circle r="4" cx="205" cy="25" fill="#C86DD7"/>      
</svg>