<svg width="200" height="50" viewBox="0 0 210 50" xmlns="http://www.w3.org/2000/svg">
    <defs>
        <linearGradient x1="0%" y1="0%" x2="100%" y2="0%" id="a">
            <stop stop-color="#3023AE" offset="0%"/>
            <stop stop-color="#C86DD7" offset="100%"/>
        </linearGradient>
    </defs>
    <path stroke="url(#a)"
          stroke-width="3"
          stroke-linejoin="round"
          stroke-linecap="round"
          d="M5 40 C 6.26 39.19, 8.51 36.95, 10 36.79 S 13.53 38.62, 15 38.93 S 18.62 39.52, 20 38.93 S 23.74 35.45, 25 34.64 S 28.51 32.34, 30 32.5 S 33.62 35.12, 35 35.71 S 38.57 36.33, 40 36.79 S 43.57 39.39, 45 38.93 S 48.57 34.03, 50 33.57 S 53.62 35.12, 55 35.71 S 58.57 37.4, 60 37.86 S 63.57 39.39, 65 38.93 S 68.57 35.1, 70 34.64 S 73.62 35.12, 75 35.71 S 78.51 39.09, 80 38.93 S 83.57 35.1, 85 34.64 S 88.62 35.12, 90 35.71 S 93.92 39.97, 95 38.93 S 99.13 27.29, 100 26.07 S 103.92 23.96, 105 25 S 108.8 34.81, 110 35.71 S 113.5 32.5, 115 32.5 S 118.86 36.69, 120 35.71 S 123.51 23.77, 125 23.93 S 128.57 36.33, 130 36.79 S 134.21 28.41, 135 27.14 S 138.57 21.17, 140 20.71 S 143.57 23.47, 145 23.93 S 148.62 23.34, 150 23.93 S 153.62 27.62, 155 28.21 S 158.53 28.52, 160 28.21 S 164.08 27.25, 165 26.07 S 168.86 16.34, 170 15.36 S 173.86 16.52, 175 17.5 S 179.03 22.79, 180 23.93 S 183.51 29.45, 185 29.29 S 189.31 24.19, 190 22.86 S 193.5 10, 195 10 S 199.34 21.51, 200 22.86 S 204.17 29.11, 205 30.36"
          fill="none"/>
    <circle r="4" cx="5" cy="40" fill="#3023AE"/>
    <circle r="4" cx="205" cy="30.36" fill="#C86DD7"/>      
</svg>