<svg width="200" height="50" viewBox="0 0 210 50" xmlns="http://www.w3.org/2000/svg">
    <defs>
        <linearGradient x1="0%" y1="0%" x2="100%" y2="0%" id="a">
            <stop stop-color="#3023AE" offset="0%"/>
            <stop stop-color="#C86DD7" offset="100%"/>
        </linearGradient>
    </defs>
    <path stroke="url(#a)"
          stroke-width="3"
          stroke-linejoin="round"
          stroke-linecap="round"
          d="M5 40 C 5.29 38.53, 9.44 16.39, 10 15 S 13.54 14.64, 15 15 S 19.06 16.33, 20 17.5 S 23.5 27.5, 25 27.5 S 28.54 17.86, 30 17.5 S 33.54 24.64, 35 25 S 38.66 20.67, 40 20 S 43.94 18.94, 45 20 S 48.8 29.1, 50 30 S 53.66 28.17, 55 27.5 S 58.5 25, 60 25 S 63.94 28.56, 65 27.5 S 68.8 15.9, 70 15 S 74.06 18.83, 75 20 S 78.66 26.83, 80 27.5 S 83.5 25, 85 25 S 88.94 28.56, 90 27.5 S 93.8 14.1, 95 15 S 98.66 34.33, 100 35 S 104.06 21.17, 105 20 S 108.54 22.14, 110 22.5 S 113.8 23.4, 115 22.5 S 118.8 14.1, 120 15 S 124.06 28.83, 125 30 S 128.54 27.86, 130 27.5 S 134.26 28.8, 135 27.5 S 138.94 11.06, 140 10 S 144.17 16.25, 145 17.5 S 148.8 24.1, 150 25 S 153.5 25, 155 25 S 159.17 26.25, 160 25 S 163.94 11.06, 165 10 S 168.94 13.94, 170 15 S 173.8 19.1, 175 20 S 178.54 22.86, 180 22.5 S 183.66 16.83, 185 17.5 S 188.66 26.83, 190 27.5 S 193.8 23.4, 195 22.5 S 198.5 20, 200 20 S 203.66 21.83, 205 22.5"
          fill="none"/>
    <circle r="4" cx="5" cy="40" fill="#3023AE"/>
    <circle r="4" cx="205" cy="22.5" fill="#C86DD7"/>      
</svg>