<svg width="200" height="50" viewBox="0 0 210 50" xmlns="http://www.w3.org/2000/svg">
    <defs>
        <linearGradient x1="0%" y1="0%" x2="100%" y2="0%" id="a">
            <stop stop-color="#3023AE" offset="0%"/>
            <stop stop-color="#C86DD7" offset="100%"/>
        </linearGradient>
    </defs>
    <path stroke="url(#a)"
          stroke-width="3"
          stroke-linejoin="round"
          stroke-linecap="round"
          d="M5 40 C 5.25 38.52, 8.5 10.05, 10 10 S 14.52 38.27, 15 39.69 S 18.5 39.81, 20 39.84 S 23.5 39.85, 25 39.86 S 28.5 39.87, 30 39.88 S 33.5 39.9, 35 39.9 S 38.5 39.89, 40 39.89 S 43.5 39.91, 45 39.91 S 48.5 39.92, 50 39.92 S 53.5 39.91, 55 39.91 S 58.5 39.9, 60 39.9 S 63.5 39.93, 65 39.94 S 68.5 39.95, 70 39.95 S 73.5 39.93, 75 39.93 S 78.5 39.95, 80 39.96 S 83.5 39.98, 85 39.98 S 88.5 39.97, 90 39.97 S 93.5 39.97, 95 39.97 S 98.5 39.95, 100 39.95 S 103.5 39.97, 105 39.97 S 108.5 39.98, 110 39.98 S 113.5 39.96, 115 39.96 S 118.5 39.96, 120 39.95 S 123.5 39.91, 125 39.91 S 128.5 39.97, 130 39.98 S 133.5 39.95, 135 39.95 S 138.5 39.98, 140 39.98 S 143.5 39.96, 145 39.96 S 148.5 39.96, 150 39.96 S 153.5 39.98, 155 39.98 S 158.5 39.96, 160 39.96 S 163.5 39.96, 165 39.96 S 168.5 39.98, 170 39.98 S 173.5 39.99, 175 39.99 S 178.5 39.98, 180 39.98 S 183.5 39.98, 185 39.98 S 188.5 39.97, 190 39.97 S 193.5 39.97, 195 39.97 S 198.5 39.98, 200 39.98 S 203.5 39.98, 205 39.98"
          fill="none"/>
    <circle r="4" cx="5" cy="40" fill="#3023AE"/>
    <circle r="4" cx="205" cy="39.98" fill="#C86DD7"/>      
</svg>