<svg width="200" height="50" viewBox="0 0 210 50" xmlns="http://www.w3.org/2000/svg">
    <defs>
        <linearGradient x1="0%" y1="0%" x2="100%" y2="0%" id="a">
            <stop stop-color="#3023AE" offset="0%"/>
            <stop stop-color="#C86DD7" offset="100%"/>
        </linearGradient>
    </defs>
    <path stroke="url(#a)"
          stroke-width="3"
          stroke-linejoin="round"
          stroke-linecap="round"
          d="M5 40 C 6.49 39.82, 8.5 39.49, 10 39.4 S 13.5 39.4, 15 39.4 S 18.5 39.4, 20 39.4 S 23.5 39.4, 25 39.4 S 28.5 39.49, 30 39.4 S 33.51 38.98, 35 38.8 S 38.5 38.11, 40 38.2 S 43.5 39.4, 45 39.4 S 48.5 38.29, 50 38.2 S 53.5 38.8, 55 38.8 S 58.5 38.11, 60 38.2 S 63.51 39.22, 65 39.4 S 68.51 39.58, 70 39.4 S 73.5 38.2, 75 38.2 S 78.5 39.49, 80 39.4 S 83.54 37.95, 85 37.6 S 88.52 36.73, 90 37 S 93.54 39.05, 95 39.4 S 98.5 39.4, 100 39.4 S 103.5 39.4, 105 39.4 S 108.5 39.49, 110 39.4 S 113.5 38.8, 115 38.8 S 119.01 40.53, 120 39.4 S 123.54 27.75, 125 27.4 S 128.95 35.93, 130 37 S 133.5 37.6, 135 37.6 S 138.5 37.09, 140 37 S 143.5 36.91, 145 37 S 148.5 37.51, 150 37.6 S 153.51 37.78, 155 37.6 S 158.5 36.49, 160 36.4 S 163.52 36.73, 165 37 S 168.51 38.38, 170 38.2 S 173.59 36.31, 175 35.8 S 178.5 34.6, 180 34.6 S 183.5 35.89, 185 35.8 S 188.98 35.1, 190 34 S 194.42 26.38, 195 25 S 198.59 10.51, 200 10 S 204.4 20.03, 205 21.4"
          fill="none"/>
    <circle r="4" cx="5" cy="40" fill="#3023AE"/>
    <circle r="4" cx="205" cy="21.4" fill="#C86DD7"/>      
</svg>