<svg width="200" height="50" viewBox="0 0 210 50" xmlns="http://www.w3.org/2000/svg">
    <defs>
        <linearGradient x1="0%" y1="0%" x2="100%" y2="0%" id="a">
            <stop stop-color="#3023AE" offset="0%"/>
            <stop stop-color="#C86DD7" offset="100%"/>
        </linearGradient>
    </defs>
    <path stroke="url(#a)"
          stroke-width="3"
          stroke-linejoin="round"
          stroke-linecap="round"
          d="M5 40 C 6.48 39.76, 8.5 39.21, 10 39.2 S 13.5 39.84, 15 39.95 S 18.5 39.95, 20 39.95 S 23.5 39.95, 25 39.95 S 28.5 39.95, 30 39.95 S 33.5 39.95, 35 39.95 S 38.5 39.95, 40 39.95 S 43.5 39.95, 45 39.95 S 48.5 39.95, 50 39.95 S 53.5 39.95, 55 39.95 S 58.5 39.95, 60 39.95 S 63.5 39.95, 65 39.95 S 69.52 41.37, 70 39.95 S 73.51 10.14, 75 10 S 79.51 37.57, 80 38.99 S 83.5 38.97, 85 39.09 S 88.5 39.69, 90 39.79 S 93.5 39.73, 95 39.73 S 98.5 39.77, 100 39.79 S 103.5 39.9, 105 39.89 S 108.5 39.74, 110 39.73 S 113.5 39.83, 115 39.84 S 118.5 39.8, 120 39.79 S 123.5 39.78, 125 39.79 S 128.5 39.86, 130 39.84 S 133.5 39.61, 135 39.63 S 138.5 39.91, 140 39.95 S 143.5 39.89, 145 39.89 S 148.5 39.95, 150 39.95 S 153.5 39.9, 155 39.89 S 158.5 39.89, 160 39.89 S 163.5 39.9, 165 39.89 S 168.5 39.78, 170 39.79 S 173.5 39.94, 175 39.95 S 178.5 39.9, 180 39.89 S 183.5 39.88, 185 39.89 S 188.5 39.94, 190 39.95 S 193.5 39.95, 195 39.95 S 198.5 39.97, 200 39.95 S 203.5 39.87, 205 39.84"
          fill="none"/>
    <circle r="4" cx="5" cy="40" fill="#3023AE"/>
    <circle r="4" cx="205" cy="39.84" fill="#C86DD7"/>      
</svg>