<svg width="200" height="50" viewBox="0 0 210 50" xmlns="http://www.w3.org/2000/svg">
    <defs>
        <linearGradient x1="0%" y1="0%" x2="100%" y2="0%" id="a">
            <stop stop-color="#3023AE" offset="0%"/>
            <stop stop-color="#C86DD7" offset="100%"/>
        </linearGradient>
    </defs>
    <path stroke="url(#a)"
          stroke-width="3"
          stroke-linejoin="round"
          stroke-linecap="round"
          d="M5 40 C 5.25 38.52, 8.67 10.7, 10 10 S 14.46 33.31, 15 34.71 S 18.53 35.84, 20 36.15 S 23.51 36.63, 25 36.81 S 28.5 37.23, 30 37.34 S 33.5 37.54, 35 37.52 S 38.52 37.43, 40 37.2 S 43.53 36.26, 45 35.94 S 48.5 34.89, 50 35.01 S 53.53 36.39, 55 36.71 S 58.5 37.16, 60 37.2 S 63.5 37.06, 65 36.95 S 68.5 36.43, 70 36.46 S 73.5 37.14, 75 37.17 S 78.5 36.8, 80 36.68 S 83.5 36.36, 85 36.39 S 88.5 36.83, 90 36.88 S 93.5 36.78, 95 36.75 S 98.5 36.66, 100 36.69 S 103.5 36.9, 105 36.94 S 108.5 37.02, 110 36.99 S 113.5 36.74, 115 36.74 S 118.5 37.03, 120 36.97 S 123.5 36.36, 125 36.31 S 128.5 36.55, 130 36.65 S 133.5 36.88, 135 36.99 S 138.5 37.34, 140 37.39 S 143.5 37.4, 145 37.34 S 148.5 37.07, 150 37.01 S 153.5 37.02, 155 36.97 S 158.5 36.75, 160 36.67 S 163.5 36.43, 165 36.42 S 168.5 36.53, 170 36.63 S 173.5 37.03, 175 37.08 S 178.5 36.98, 180 36.98 S 183.5 37.11, 185 37.07 S 188.5 36.79, 190 36.73 S 193.5 36.71, 195 36.7 S 198.5 36.7, 200 36.64 S 203.5 36.42, 205 36.33"
          fill="none"/>
    <circle r="4" cx="5" cy="40" fill="#3023AE"/>
    <circle r="4" cx="205" cy="36.33" fill="#C86DD7"/>      
</svg>