<svg width="200" height="50" viewBox="0 0 210 50" xmlns="http://www.w3.org/2000/svg">
    <defs>
        <linearGradient x1="0%" y1="0%" x2="100%" y2="0%" id="a">
            <stop stop-color="#3023AE" offset="0%"/>
            <stop stop-color="#C86DD7" offset="100%"/>
        </linearGradient>
    </defs>
    <path stroke="url(#a)"
          stroke-width="3"
          stroke-linejoin="round"
          stroke-linecap="round"
          d="M5 40 C 6.14 39.02, 8.78 36.58, 10 35.71 S 13.78 33.73, 15 32.86 S 18.5 28.57, 20 28.57 S 23.56 32.45, 25 32.86 S 28.78 32.3, 30 31.43 S 33.59 26.21, 35 25.71 S 38.62 27.27, 40 27.86 S 43.53 29.69, 45 30 S 48.52 29.79, 50 30 S 53.62 32.02, 55 31.43 S 58.78 26.58, 60 25.71 S 63.59 23.78, 65 24.29 S 68.82 30.22, 70 29.29 S 74.05 17.59, 75 16.43 S 78.62 16.55, 80 17.14 S 83.66 20.04, 85 20.71 S 88.62 21.55, 90 22.14 S 93.52 24.79, 95 25 S 98.66 24.24, 100 23.57 S 103.62 20.59, 105 20 S 108.5 19.4, 110 19.29 S 113.53 19.61, 115 19.29 S 118.9 18.16, 120 17.14 S 123.62 9.41, 125 10 S 128.94 20.37, 130 21.43 S 133.5 20.11, 135 20 S 138.62 20.12, 140 20.71 S 143.78 23.42, 145 24.29 S 148.52 28.07, 150 27.86 S 153.59 23.36, 155 22.86 S 158.52 24.08, 160 24.29 S 163.53 23.98, 165 24.29 S 168.98 25.33, 170 26.43 S 173.7 34.26, 175 35 S 178.62 32.73, 180 32.14 S 183.52 30.92, 185 30.71 S 188.5 30.71, 190 30.71 S 193.74 29.9, 195 30.71 S 198.53 36.82, 200 37.14 S 203.86 33.84, 205 32.86"
          fill="none"/>
    <circle r="4" cx="5" cy="40" fill="#3023AE"/>
    <circle r="4" cx="205" cy="32.86" fill="#C86DD7"/>      
</svg>