<svg width="200" height="50" viewBox="0 0 210 50" xmlns="http://www.w3.org/2000/svg">
    <defs>
        <linearGradient x1="0%" y1="0%" x2="100%" y2="0%" id="a">
            <stop stop-color="#3023AE" offset="0%"/>
            <stop stop-color="#C86DD7" offset="100%"/>
        </linearGradient>
    </defs>
    <path stroke="url(#a)"
          stroke-width="3"
          stroke-linejoin="round"
          stroke-linecap="round"
          d="M5 40 C 6 38.88, 8.69 35.17, 10 34.44 S 13.58 33.96, 15 34.44 S 18.5 37.78, 20 37.78 S 23.51 34.27, 25 34.44 S 28.51 39.06, 30 38.89 S 33.58 33.8, 35 33.33 S 38.69 36.29, 40 35.56 S 44.23 29.07, 45 27.78 S 48.54 18.56, 50 18.89 S 53.94 28.94, 55 30 S 58.5 28.89, 60 28.89 S 63.51 30.17, 65 30 S 68.94 28.84, 70 27.78 S 73.94 21.06, 75 20 S 78.5 17.78, 80 17.78 S 83.58 19.53, 85 20 S 88.69 20.38, 90 21.11 S 94.05 24.4, 95 25.56 S 99.19 34.59, 100 33.33 S 104.05 11.16, 105 10 S 109.19 19.85, 110 21.11 S 113.69 26.29, 115 25.56 S 118.63 16.17, 120 15.56 S 124.05 19.95, 125 21.11 S 129.05 26.62, 130 27.78 S 133.63 32.72, 135 33.33 S 138.51 32.39, 140 32.22 S 143.54 32.55, 145 32.22 S 148.54 30.33, 150 30 S 153.63 30.61, 155 30 S 158.58 25.09, 160 25.56 S 163.69 32.6, 165 33.33 S 168.63 31.72, 170 31.11 S 173.58 28.42, 175 28.89 S 178.75 33.61, 180 34.44 S 183.63 36.17, 185 35.56 S 188.75 30.83, 190 30 S 193.63 28.28, 195 28.89 S 198.88 33.44, 200 34.44 S 203.75 36.95, 205 37.78"
          fill="none"/>
    <circle r="4" cx="5" cy="40" fill="#3023AE"/>
    <circle r="4" cx="205" cy="37.78" fill="#C86DD7"/>      
</svg>