<svg width="200" height="50" viewBox="0 0 210 50" xmlns="http://www.w3.org/2000/svg">
    <defs>
        <linearGradient x1="0%" y1="0%" x2="100%" y2="0%" id="a">
            <stop stop-color="#3023AE" offset="0%"/>
            <stop stop-color="#C86DD7" offset="100%"/>
        </linearGradient>
    </defs>
    <path stroke="url(#a)"
          stroke-width="3"
          stroke-linejoin="round"
          stroke-linecap="round"
          d="M5 40 C 6.5 39.96, 8.5 39.87, 10 39.85 S 13.5 39.85, 15 39.85 S 18.5 39.85, 20 39.85 S 23.5 39.85, 25 39.85 S 28.5 39.85, 30 39.85 S 33.5 39.85, 35 39.85 S 38.5 39.96, 40 39.85 S 43.51 39.25, 45 39.09 S 48.5 38.83, 50 38.78 S 54.51 40.2, 55 38.78 S 58.54 10.35, 60 10 S 64.46 34.95, 65 36.35 S 68.51 35.84, 70 36.04 S 73.53 37.41, 75 37.72 S 79.28 39.49, 80 38.17 S 83.57 19.75, 85 19.29 S 89.27 33.66, 90 34.97 S 93.54 36.78, 95 37.11 S 98.55 37.64, 100 37.26 S 104.48 35.93, 105 34.52 S 108.55 10.7, 110 10.3 S 114.45 30.39, 115 31.78 S 119.02 36.57, 120 35.43 S 123.5 20.24, 125 20.2 S 128.94 34.07, 130 35.13 S 133.65 30.91, 135 30.25 S 138.97 31.34, 140 30.25 S 143.51 19.43, 145 19.59 S 148.81 30.41, 150 31.32 S 153.51 27.41, 155 27.21 S 158.5 29.93, 160 29.95 S 163.5 27.27, 165 27.36 S 168.53 30.27, 170 30.56 S 173.52 29.59, 175 29.34 S 178.53 28.57, 180 28.88 S 183.5 31.45, 185 31.47 S 188.81 29.96, 190 29.04 S 193.52 23.94, 195 23.71 S 198.54 27.16, 200 27.51 S 203.55 26.54, 205 26.14"
          fill="none"/>
    <circle r="4" cx="5" cy="40" fill="#3023AE"/>
    <circle r="4" cx="205" cy="26.14" fill="#C86DD7"/>      
</svg>