<svg width="200" height="50" viewBox="0 0 210 50" xmlns="http://www.w3.org/2000/svg">
    <defs>
        <linearGradient x1="0%" y1="0%" x2="100%" y2="0%" id="a">
            <stop stop-color="#3023AE" offset="0%"/>
            <stop stop-color="#C86DD7" offset="100%"/>
        </linearGradient>
    </defs>
    <path stroke="url(#a)"
          stroke-width="3"
          stroke-linejoin="round"
          stroke-linecap="round"
          d="M5 40 C 5.9 38.8, 8.53 33.61, 10 33.33 S 13.71 37.35, 15 38.11 S 18.5 39.12, 20 39.22 S 23.5 38.72, 25 38.76 S 28.51 39.38, 30 39.52 S 33.5 39.68, 35 39.69 S 38.5 39.58, 40 39.57 S 43.5 39.63, 45 39.61 S 48.5 39.47, 50 39.46 S 53.5 39.53, 55 39.52 S 58.5 39.33, 60 39.36 S 63.5 39.69, 65 39.7 S 68.5 39.48, 70 39.46 S 73.5 39.53, 75 39.57 S 78.5 39.71, 80 39.73 S 83.5 39.7, 85 39.69 S 88.5 39.65, 90 39.63 S 93.5 39.53, 95 39.55 S 98.5 39.75, 100 39.75 S 103.5 39.59, 105 39.55 S 109.52 40.91, 110 39.49 S 113.53 10.28, 115 10 S 119.51 36.17, 120 37.59 S 123.51 38.73, 125 38.92 S 128.5 38.94, 130 38.85 S 133.5 38.26, 135 38.32 S 138.55 39.62, 140 39.25 S 143.51 35.91, 145 35.77 S 148.56 37.87, 150 38.28 S 153.5 38.54, 155 38.59 S 158.5 38.59, 160 38.61 S 163.5 38.71, 165 38.71 S 168.5 38.66, 170 38.64 S 173.5 38.67, 175 38.56 S 178.51 38.1, 180 37.89 S 183.5 37.2, 185 37.17 S 188.5 37.67, 190 37.71 S 194.46 38.82, 195 37.42 S 198.51 11.74, 200 11.53 S 204.7 34.54, 205 36.01"
          fill="none"/>
    <circle r="4" cx="5" cy="40" fill="#3023AE"/>
    <circle r="4" cx="205" cy="36.01" fill="#C86DD7"/>      
</svg>