<svg width="200" height="50" viewBox="0 0 210 50" xmlns="http://www.w3.org/2000/svg">
    <defs>
        <linearGradient x1="0%" y1="0%" x2="100%" y2="0%" id="a">
            <stop stop-color="#3023AE" offset="0%"/>
            <stop stop-color="#C86DD7" offset="100%"/>
        </linearGradient>
    </defs>
    <path stroke="url(#a)"
          stroke-width="3"
          stroke-linejoin="round"
          stroke-linecap="round"
          d="M5 40 C 6.5 39.99, 8.5 39.95, 10 39.95 S 13.5 39.97, 15 39.97 S 18.5 39.97, 20 39.97 S 23.5 39.97, 25 39.97 S 28.5 39.97, 30 39.97 S 33.5 39.97, 35 39.97 S 38.5 39.97, 40 39.97 S 43.5 39.97, 45 39.97 S 48.5 39.97, 50 39.97 S 53.5 39.97, 55 39.97 S 58.5 39.98, 60 39.97 S 63.5 39.97, 65 39.9 S 68.51 39.64, 70 39.51 S 73.5 38.96, 75 39 S 78.5 39.69, 80 39.8 S 83.5 39.74, 85 39.74 S 88.5 39.78, 90 39.8 S 93.5 39.91, 95 39.87 S 98.5 39.61, 100 39.56 S 103.59 40.04, 105 39.54 S 108.63 36.64, 110 36.03 S 113.64 35.76, 115 35.13 S 118.54 31.09, 120 31.42 S 123.79 36.47, 125 37.36 S 128.51 38.53, 130 38.74 S 133.5 38.64, 135 38.74 S 138.5 39.39, 140 39.44 S 143.5 39.15, 145 39.05 S 149.51 40.19, 150 38.77 S 153.57 10.45, 155 10 S 159.46 34.19, 160 35.59 S 163.55 35.76, 165 36.16 S 168.51 38.18, 170 38.33 S 173.53 37.47, 175 37.18 S 178.5 36.31, 180 36.39 S 183.5 37.66, 185 37.69 S 188.58 37.06, 190 36.57 S 193.6 34.79, 195 34.26 S 198.55 33.17, 200 32.8 S 203.54 32.02, 205 31.7"
          fill="none"/>
    <circle r="4" cx="5" cy="40" fill="#3023AE"/>
    <circle r="4" cx="205" cy="31.7" fill="#C86DD7"/>      
</svg>