<svg width="200" height="50" viewBox="0 0 210 50" xmlns="http://www.w3.org/2000/svg">
    <defs>
        <linearGradient x1="0%" y1="0%" x2="100%" y2="0%" id="a">
            <stop stop-color="#3023AE" offset="0%"/>
            <stop stop-color="#C86DD7" offset="100%"/>
        </linearGradient>
    </defs>
    <path stroke="url(#a)"
          stroke-width="3"
          stroke-linejoin="round"
          stroke-linecap="round"
          d="M5 40 C 6.5 39.99, 8.5 39.95, 10 39.95 S 13.5 39.97, 15 39.97 S 18.5 39.97, 20 39.97 S 23.5 39.97, 25 39.97 S 28.5 39.97, 30 39.97 S 33.5 39.97, 35 39.97 S 38.5 39.97, 40 39.97 S 43.5 39.97, 45 39.97 S 48.5 39.97, 50 39.97 S 53.5 39.97, 55 39.97 S 58.5 39.98, 60 39.97 S 63.5 39.97, 65 39.9 S 68.51 39.64, 70 39.51 S 73.5 38.96, 75 39 S 78.5 39.69, 80 39.8 S 83.5 39.74, 85 39.74 S 88.5 39.78, 90 39.8 S 93.5 39.91, 95 39.87 S 98.5 39.59, 100 39.54 S 103.59 40.06, 105 39.56 S 108.63 36.58, 110 35.98 S 113.64 35.83, 115 35.19 S 118.54 30.97, 120 31.3 S 123.8 36.51, 125 37.41 S 128.51 38.63, 130 38.82 S 133.5 38.63, 135 38.72 S 138.5 39.39, 140 39.44 S 143.5 39.12, 145 39.03 S 149.51 40.24, 150 38.82 S 153.58 10.47, 155 10 S 159.47 34.12, 160 35.52 S 163.56 35.83, 165 36.24 S 168.51 38.2, 170 38.34 S 173.53 37.45, 175 37.16 S 178.5 36.28, 180 36.37 S 183.5 37.79, 185 37.75 S 188.57 36.57, 190 36.13 S 193.64 35.32, 195 34.68 S 198.52 31.69, 200 31.45 S 203.57 32.62, 205 33.09"
          fill="none"/>
    <circle r="4" cx="5" cy="40" fill="#3023AE"/>
    <circle r="4" cx="205" cy="33.09" fill="#C86DD7"/>      
</svg>