<svg width="200" height="50" viewBox="0 0 210 50" xmlns="http://www.w3.org/2000/svg">
    <defs>
        <linearGradient x1="0%" y1="0%" x2="100%" y2="0%" id="a">
            <stop stop-color="#3023AE" offset="0%"/>
            <stop stop-color="#C86DD7" offset="100%"/>
        </linearGradient>
    </defs>
    <path stroke="url(#a)"
          stroke-width="3"
          stroke-linejoin="round"
          stroke-linecap="round"
          d="M5 40 C 6.5 39.98, 8.5 39.94, 10 39.94 S 13.5 39.97, 15 39.97 S 18.5 39.97, 20 39.97 S 23.5 39.97, 25 39.97 S 28.5 39.97, 30 39.97 S 33.5 39.97, 35 39.97 S 38.5 39.97, 40 39.97 S 43.5 39.97, 45 39.97 S 48.5 39.97, 50 39.97 S 53.5 39.97, 55 39.97 S 58.5 39.97, 60 39.97 S 63.5 39.98, 65 39.97 S 68.5 39.99, 70 39.92 S 73.5 39.6, 75 39.48 S 78.5 39.1, 80 39.12 S 83.5 39.52, 85 39.61 S 88.5 39.69, 90 39.72 S 93.5 39.81, 95 39.83 S 98.5 39.84, 100 39.83 S 103.5 39.82, 105 39.78 S 108.5 39.63, 110 39.59 S 113.68 40.24, 115 39.53 S 118.58 34.68, 120 34.2 S 123.65 36.82, 125 36.16 S 128.54 29.01, 130 29.34 S 133.91 37.42, 135 38.45 S 138.5 38.73, 140 38.76 S 143.5 38.59, 145 38.67 S 148.5 39.21, 150 39.28 S 153.5 39.24, 155 39.14 S 159.51 40.01, 160 38.59 S 163.66 10.68, 165 10 S 169.47 32.14, 170 33.54 S 173.6 35.69, 175 36.24 S 178.52 37.23, 180 37.46 S 183.51 37.96, 185 37.82 S 188.5 36.67, 190 36.55 S 193.51 36.88, 195 37.04 S 198.51 37.86, 200 37.65 S 203.61 36.21, 205 35.66"
          fill="none"/>
    <circle r="4" cx="5" cy="40" fill="#3023AE"/>
    <circle r="4" cx="205" cy="35.66" fill="#C86DD7"/>      
</svg>