<svg width="200" height="50" viewBox="0 0 210 50" xmlns="http://www.w3.org/2000/svg">
    <defs>
        <linearGradient x1="0%" y1="0%" x2="100%" y2="0%" id="a">
            <stop stop-color="#3023AE" offset="0%"/>
            <stop stop-color="#C86DD7" offset="100%"/>
        </linearGradient>
    </defs>
    <path stroke="url(#a)"
          stroke-width="3"
          stroke-linejoin="round"
          stroke-linecap="round"
          d="M5 40 C 5.67 38.66, 8.66 30.67, 10 30 S 13.66 34.33, 15 35 S 18.66 35.67, 20 35 S 23.94 31.06, 25 30 S 28.66 24.33, 30 25 S 33.94 33.94, 35 35 S 38.5 35, 40 35 S 43.5 35, 45 35 S 48.5 35, 50 35 S 53.5 35, 55 35 S 58.5 35, 60 35 S 63.5 35, 65 35 S 68.5 35, 70 35 S 73.5 35, 75 35 S 78.5 35, 80 35 S 83.5 35, 85 35 S 88.5 35, 90 35 S 93.5 35, 95 35 S 98.5 35, 100 35 S 104.17 36.25, 105 35 S 108.66 20.67, 110 20 S 113.5 30, 115 30 S 118.94 21.06, 120 20 S 124.17 18.75, 125 20 S 129.17 33.75, 130 35 S 133.94 36.06, 135 35 S 138.5 25, 140 25 S 144.17 36.25, 145 35 S 148.5 10, 150 10 S 154.44 33.61, 155 35 S 158.5 35, 160 35 S 163.5 35, 165 35 S 168.94 36.06, 170 35 S 173.5 25, 175 25 S 178.94 33.94, 180 35 S 183.66 35.67, 185 35 S 188.5 30, 190 30 S 193.66 35.67, 195 35 S 199.33 26.34, 200 25 S 204.33 16.34, 205 15"
          fill="none"/>
    <circle r="4" cx="5" cy="40" fill="#3023AE"/>
    <circle r="4" cx="205" cy="15" fill="#C86DD7"/>      
</svg>