<svg width="200" height="50" viewBox="0 0 210 50" xmlns="http://www.w3.org/2000/svg">
    <defs>
        <linearGradient x1="0%" y1="0%" x2="100%" y2="0%" id="a">
            <stop stop-color="#3023AE" offset="0%"/>
            <stop stop-color="#C86DD7" offset="100%"/>
        </linearGradient>
    </defs>
    <path stroke="url(#a)"
          stroke-width="3"
          stroke-linejoin="round"
          stroke-linecap="round"
          d="M5 40 C 5.25 38.52, 8.8 10.9, 10 10 S 14.39 31.13, 15 32.5 S 18.5 32.5, 20 32.5 S 23.5 32.5, 25 32.5 S 28.5 32.5, 30 32.5 S 33.5 32.5, 35 32.5 S 38.5 32.5, 40 32.5 S 43.5 32.5, 45 32.5 S 48.5 32.5, 50 32.5 S 53.5 32.5, 55 32.5 S 58.8 33.4, 60 32.5 S 63.8 25.9, 65 25 S 69.17 26.25, 70 25 S 73.8 9.1, 75 10 S 79.39 31.13, 80 32.5 S 83.5 32.5, 85 32.5 S 88.5 32.5, 90 32.5 S 93.5 32.5, 95 32.5 S 98.5 32.5, 100 32.5 S 104.17 33.75, 105 32.5 S 108.8 18.4, 110 17.5 S 114.17 23.75, 115 25 S 118.8 31.6, 120 32.5 S 123.5 32.5, 125 32.5 S 128.5 32.5, 130 32.5 S 133.8 33.4, 135 32.5 S 138.5 25, 140 25 S 143.5 32.5, 145 32.5 S 148.5 25, 150 25 S 153.8 33.4, 155 32.5 S 158.8 18.4, 160 17.5 S 164.17 23.75, 165 25 S 168.8 31.6, 170 32.5 S 173.5 32.5, 175 32.5 S 178.5 32.5, 180 32.5 S 183.5 32.5, 185 32.5 S 188.5 32.5, 190 32.5 S 193.5 32.5, 195 32.5 S 198.5 32.5, 200 32.5 S 203.5 32.5, 205 32.5"
          fill="none"/>
    <circle r="4" cx="5" cy="40" fill="#3023AE"/>
    <circle r="4" cx="205" cy="32.5" fill="#C86DD7"/>      
</svg>