<svg width="200" height="50" viewBox="0 0 210 50" xmlns="http://www.w3.org/2000/svg">
    <defs>
        <linearGradient x1="0%" y1="0%" x2="100%" y2="0%" id="a">
            <stop stop-color="#3023AE" offset="0%"/>
            <stop stop-color="#C86DD7" offset="100%"/>
        </linearGradient>
    </defs>
    <path stroke="url(#a)"
          stroke-width="3"
          stroke-linejoin="round"
          stroke-linecap="round"
          d="M5 40 C 5.25 38.52, 9.53 11.42, 10 10 S 13.5 10, 15 10 S 18.5 10, 20 10 S 23.5 10, 25 10 S 28.5 10, 30 10 S 33.5 10, 35 10 S 38.5 10, 40 10 S 43.5 10, 45 10 S 48.5 10, 50 10 S 53.5 10, 55 10 S 58.5 10, 60 10 S 63.5 10, 65 10 S 68.5 10, 70 10 S 73.5 10, 75 10 S 78.5 10, 80 10 S 83.5 10, 85 10 S 88.5 10, 90 10 S 93.5 10, 95 10 S 98.5 10, 100 10 S 103.5 10, 105 10 S 108.5 10, 110 10 S 113.5 10, 115 10 S 118.5 10, 120 10 S 123.5 10, 125 10 S 128.5 10, 130 10 S 133.5 10, 135 10 S 138.5 10, 140 10 S 143.5 10, 145 10 S 148.5 10, 150 10 S 153.5 10, 155 10 S 158.5 10, 160 10 S 163.5 10, 165 10 S 168.5 10, 170 10 S 173.5 10, 175 10 S 178.5 10, 180 10 S 183.5 10, 185 10 S 188.5 10, 190 10 S 193.5 10, 195 10 S 198.5 10, 200 10 S 203.5 10, 205 10"
          fill="none"/>
    <circle r="4" cx="5" cy="40" fill="#3023AE"/>
    <circle r="4" cx="205" cy="10" fill="#C86DD7"/>      
</svg>