<svg width="200" height="50" viewBox="0 0 210 50" xmlns="http://www.w3.org/2000/svg">
    <defs>
        <linearGradient x1="0%" y1="0%" x2="100%" y2="0%" id="a">
            <stop stop-color="#3023AE" offset="0%"/>
            <stop stop-color="#C86DD7" offset="100%"/>
        </linearGradient>
    </defs>
    <path stroke="url(#a)"
          stroke-width="3"
          stroke-linejoin="round"
          stroke-linecap="round"
          d="M5 40 C 6.25 39.16, 8.6 37.18, 10 36.64 S 13.54 36.47, 15 36.11 S 18.95 35.22, 20 34.15 S 23.65 26.66, 25 26 S 28.59 28.72, 30 29.22 S 33.5 29.47, 35 29.53 S 38.5 29.56, 40 29.63 S 43.57 30.47, 45 30.02 S 48.79 27.35, 50 26.46 S 53.53 22.92, 55 22.62 S 58.5 24.45, 60 24.4 S 63.74 23.12, 65 22.3 S 68.54 18.24, 70 17.91 S 73.55 20.43, 75 20.06 S 78.5 15.29, 80 15.35 S 83.83 19.53, 85 20.46 S 88.53 22.98, 90 23.3 S 93.94 23.67, 95 22.61 S 98.59 13.84, 100 13.32 S 103.81 18.04, 105 18.95 S 108.5 20.95, 110 20.93 S 113.5 18.85, 115 18.79 S 118.66 21.23, 120 20.56 S 123.52 14.03, 125 13.78 S 128.56 18.42, 130 18.84 S 133.54 17.04, 135 16.69 S 138.5 16.51, 140 16.46 S 143.56 16.74, 145 16.33 S 148.5 13.58, 150 13.63 S 153.58 16.18, 155 16.65 S 158.55 16.54, 160 16.92 S 163.54 18.94, 165 19.29 S 168.51 19.45, 170 19.32 S 173.54 18.74, 175 18.41 S 178.5 16.92, 180 17.04 S 183.8 18.32, 185 19.22 S 188.9 25.53, 190 24.51 S 194.13 11.22, 195 10 S 198.58 9.97, 200 10.45 S 203.71 12.64, 205 13.4"
          fill="none"/>
    <circle r="4" cx="5" cy="40" fill="#3023AE"/>
    <circle r="4" cx="205" cy="13.399999999999999" fill="#C86DD7"/>      
</svg>