<svg width="200" height="50" viewBox="0 0 210 50" xmlns="http://www.w3.org/2000/svg">
    <defs>
        <linearGradient x1="0%" y1="0%" x2="100%" y2="0%" id="a">
            <stop stop-color="#3023AE" offset="0%"/>
            <stop stop-color="#C86DD7" offset="100%"/>
        </linearGradient>
    </defs>
    <path stroke="url(#a)"
          stroke-width="3"
          stroke-linejoin="round"
          stroke-linecap="round"
          d="M5 40 C 6.26 39.19, 8.6 37.31, 10 36.78 S 13.54 36.53, 15 36.2 S 18.9 35.51, 20 34.49 S 23.64 27.55, 25 26.91 S 28.56 29.36, 30 29.77 S 33.5 29.76, 35 29.77 S 38.5 29.76, 40 29.86 S 43.55 30.87, 45 30.47 S 48.77 27.98, 50 27.13 S 53.52 23.82, 55 23.56 S 58.5 25.41, 60 25.34 S 63.73 23.89, 65 23.09 S 68.53 19.37, 70 19.06 S 73.53 20.71, 75 21.01 S 78.67 21.78, 80 21.08 S 83.6 15.18, 85 15.72 S 88.79 24.05, 90 24.94 S 93.74 23.86, 95 23.04 S 98.8 19.34, 100 18.44 S 103.58 15.07, 105 15.55 S 108.59 21.32, 110 21.83 S 113.5 19.3, 115 19.18 S 118.55 21.45, 120 21.05 S 123.53 16.72, 125 16.41 S 128.53 18.65, 130 18.93 S 133.5 18.34, 135 18.28 S 138.56 18.92, 140 18.51 S 143.52 15.71, 145 15.45 S 148.52 16.52, 150 16.76 S 153.51 16.88, 155 17.05 S 158.51 17.69, 160 17.87 S 163.56 17.81, 165 18.24 S 168.5 20.77, 170 20.85 S 173.54 19.12, 175 18.76 S 178.52 18.66, 180 18.41 S 183.7 16.34, 185 17.09 S 188.56 23.83, 190 24.23 S 194.14 21.11, 195 19.88 S 198.83 10.94, 200 10 S 203.59 11.28, 205 11.78"
          fill="none"/>
    <circle r="4" cx="5" cy="40" fill="#3023AE"/>
    <circle r="4" cx="205" cy="11.780000000000001" fill="#C86DD7"/>      
</svg>