<svg width="200" height="50" viewBox="0 0 210 50" xmlns="http://www.w3.org/2000/svg">
    <defs>
        <linearGradient x1="0%" y1="0%" x2="100%" y2="0%" id="a">
            <stop stop-color="#3023AE" offset="0%"/>
            <stop stop-color="#C86DD7" offset="100%"/>
        </linearGradient>
    </defs>
    <path stroke="url(#a)"
          stroke-width="3"
          stroke-linejoin="round"
          stroke-linecap="round"
          d="M5 40 C 6.3 39.24, 8.62 37.66, 10 37.08 S 13.51 36.03, 15 35.83 S 18.51 35.86, 20 35.73 S 23.89 35.99, 25 34.98 S 28.84 27.61, 30 26.66 S 33.55 26.45, 35 26.84 S 38.52 29.09, 40 29.32 S 43.5 28.39, 45 28.37 S 48.5 29.08, 50 29.2 S 53.5 29.2, 55 29.18 S 58.5 29.15, 60 29.06 S 63.59 29.1, 65 28.6 S 68.75 26.31, 70 25.49 S 73.53 22.37, 75 22.05 S 78.53 23.01, 80 23.3 S 83.54 24.4, 85 24.04 S 88.78 21.7, 90 20.82 S 93.5 16.94, 95 16.85 S 98.51 20.06, 100 20.19 S 103.5 17.75, 105 17.72 S 108.67 20.67, 110 19.97 S 113.58 12.91, 115 12.42 S 119 15.44, 120 16.55 S 123.63 22.9, 125 23.52 S 128.52 21.37, 130 21.1 S 133.58 22.2, 135 21.71 S 139.03 18.78, 140 17.64 S 143.51 10.13, 145 10 S 148.96 15.7, 150 16.79 S 153.54 20.12, 155 20.48 S 158.65 19.92, 160 19.27 S 163.5 15.52, 165 15.64 S 168.52 19.8, 170 20.05 S 173.92 18.35, 175 17.31 S 178.51 10.56, 180 10.42 S 183.75 15.52, 185 16.35 S 188.51 17.23, 190 17.03 S 193.53 15.3, 195 14.98 S 198.52 15.09, 200 14.86 S 203.56 13.84, 205 13.43"
          fill="none"/>
    <circle r="4" cx="5" cy="40" fill="#3023AE"/>
    <circle r="4" cx="205" cy="13.43" fill="#C86DD7"/>      
</svg>