<svg width="200" height="50" viewBox="0 0 210 50" xmlns="http://www.w3.org/2000/svg">
    <defs>
        <linearGradient x1="0%" y1="0%" x2="100%" y2="0%" id="a">
            <stop stop-color="#3023AE" offset="0%"/>
            <stop stop-color="#C86DD7" offset="100%"/>
        </linearGradient>
    </defs>
    <path stroke="url(#a)"
          stroke-width="3"
          stroke-linejoin="round"
          stroke-linecap="round"
          d="M5 40 C 6.29 39.23, 8.62 37.62, 10 37.03 S 13.52 35.93, 15 35.7 S 18.5 35.54, 20 35.51 S 23.88 36.46, 25 35.47 S 28.93 27.71, 30 26.66 S 33.54 25.33, 35 25.67 S 38.54 28.67, 40 29 S 43.5 27.98, 45 27.91 S 48.52 28.26, 50 28.5 S 53.5 29.51, 55 29.51 S 58.51 28.66, 60 28.52 S 63.59 29.09, 65 28.58 S 68.77 25.77, 70 24.92 S 73.52 21.91, 75 21.65 S 78.52 22.93, 80 23.15 S 83.56 23.51, 85 23.1 S 88.57 20.81, 90 20.34 S 93.63 20.43, 95 19.82 S 98.53 16.14, 100 15.86 S 103.61 17.34, 105 17.9 S 108.5 20.01, 110 19.92 S 113.94 18.35, 115 17.29 S 118.58 9.53, 120 10 S 124.02 19.46, 125 20.6 S 128.5 21.58, 130 21.65 S 133.55 21.44, 135 21.04 S 138.81 19.83, 140 18.91 S 143.85 14.27, 145 13.31 S 148.61 9.98, 150 10.55 S 153.91 16.41, 155 17.44 S 158.5 20.08, 160 19.99 S 163.55 17.21, 165 16.83 S 168.51 17.21, 170 17.37 S 173.7 18.64, 175 17.88 S 178.65 12.2, 180 11.54 S 183.74 12.18, 185 12.99 S 188.5 17.99, 190 17.96 S 193.59 13.28, 195 12.76 S 198.52 14.06, 200 14.28 S 203.5 14.23, 205 14.21"
          fill="none"/>
    <circle r="4" cx="5" cy="40" fill="#3023AE"/>
    <circle r="4" cx="205" cy="14.21" fill="#C86DD7"/>      
</svg>