<svg width="200" height="50" viewBox="0 0 210 50" xmlns="http://www.w3.org/2000/svg">
    <defs>
        <linearGradient x1="0%" y1="0%" x2="100%" y2="0%" id="a">
            <stop stop-color="#3023AE" offset="0%"/>
            <stop stop-color="#C86DD7" offset="100%"/>
        </linearGradient>
    </defs>
    <path stroke="url(#a)"
          stroke-width="3"
          stroke-linejoin="round"
          stroke-linecap="round"
          d="M5 40 C 6.22 39.13, 8.63 37.06, 10 36.45 S 13.5 35.54, 15 35.55 S 18.54 36.89, 20 36.53 S 24.08 34.26, 25 33.07 S 28.59 24.07, 30 23.56 S 33.64 28.82, 35 29.45 S 38.5 28.29, 40 28.2 S 43.5 28.7, 45 28.82 S 48.51 28.86, 50 29 S 53.55 30.11, 55 29.73 S 58.7 27.14, 60 26.38 S 63.6 24.43, 65 23.89 S 68.5 22.53, 70 22.56 S 73.51 24.27, 75 24.09 S 78.8 22.28, 80 21.38 S 83.51 16.81, 85 16.64 S 88.53 19.98, 90 20.25 S 93.5 18.53, 95 18.49 S 98.86 20.97, 100 20 S 103.52 9.76, 105 10 S 109.02 20.52, 110 21.65 S 113.5 21.52, 115 21.56 S 118.6 22.46, 120 21.91 S 124.01 18.75, 125 17.62 S 128.5 10.44, 130 10.55 S 133.87 17.34, 135 18.33 S 138.5 19.32, 140 19.29 S 143.5 18.23, 145 18.16 S 148.5 18.81, 150 18.85 S 153.86 19.37, 155 18.4 S 158.51 10.48, 160 10.31 S 163.69 16.52, 165 17.25 S 168.53 16.13, 170 15.84 S 173.5 15.26, 175 15.25 S 178.54 16.12, 180 15.76 S 183.53 13.09, 185 12.78 S 188.51 13.82, 190 13.67 S 193.51 11.62, 195 11.8 S 198.62 14.27, 200 14.87 S 203.55 15.78, 205 16.15"
          fill="none"/>
    <circle r="4" cx="5" cy="40" fill="#3023AE"/>
    <circle r="4" cx="205" cy="16.15" fill="#C86DD7"/>      
</svg>