<svg width="200" height="50" viewBox="0 0 210 50" xmlns="http://www.w3.org/2000/svg">
    <defs>
        <linearGradient x1="0%" y1="0%" x2="100%" y2="0%" id="a">
            <stop stop-color="#3023AE" offset="0%"/>
            <stop stop-color="#C86DD7" offset="100%"/>
        </linearGradient>
    </defs>
    <path stroke="url(#a)"
          stroke-width="3"
          stroke-linejoin="round"
          stroke-linecap="round"
          d="M5 40 C 6.3 39.25, 8.62 37.69, 10 37.11 S 13.52 36.02, 15 35.8 S 18.5 35.72, 20 35.62 S 23.87 36.12, 25 35.13 S 28.86 27.79, 30 26.81 S 33.54 26.16, 35 26.51 S 38.53 28.95, 40 29.24 S 43.5 28.49, 45 28.46 S 48.5 28.91, 50 29.01 S 53.5 29.12, 55 29.14 S 58.5 29.23, 60 29.16 S 63.62 29.28, 65 28.69 S 68.73 25.72, 70 24.92 S 73.52 22.61, 75 22.39 S 78.51 23.27, 80 23.41 S 83.53 23.62, 85 23.33 S 88.74 22.26, 90 21.45 S 93.53 17.26, 95 16.95 S 98.52 19.05, 100 19.31 S 103.5 18.76, 105 18.72 S 108.5 19.13, 110 19.01 S 113.81 18.84, 115 17.93 S 118.61 10.76, 120 11.32 S 123.93 20.89, 125 21.94 S 128.5 21.11, 130 21.17 S 133.56 22.75, 135 22.33 S 139.06 19.46, 140 18.29 S 143.54 10.36, 145 10 S 148.92 14.77, 150 15.81 S 153.59 19.18, 155 19.7 S 158.58 19.96, 160 19.48 S 163.5 16.31, 165 16.3 S 168.54 19.11, 170 19.44 S 173.9 19.58, 175 18.56 S 178.6 10.73, 180 10.18 S 183.82 13.69, 185 14.61 S 188.5 18.07, 190 18.01 S 193.58 14.68, 195 14.2 S 198.5 14.59, 200 14.65 S 203.5 14.59, 205 14.57"
          fill="none"/>
    <circle r="4" cx="5" cy="40" fill="#3023AE"/>
    <circle r="4" cx="205" cy="14.57" fill="#C86DD7"/>      
</svg>