<svg width="200" height="50" viewBox="0 0 210 50" xmlns="http://www.w3.org/2000/svg">
    <defs>
        <linearGradient x1="0%" y1="0%" x2="100%" y2="0%" id="a">
            <stop stop-color="#3023AE" offset="0%"/>
            <stop stop-color="#C86DD7" offset="100%"/>
        </linearGradient>
    </defs>
    <path stroke="url(#a)"
          stroke-width="3"
          stroke-linejoin="round"
          stroke-linecap="round"
          d="M5 40 C 6.3 39.24, 8.62 37.66, 10 37.08 S 13.52 36.04, 15 35.82 S 18.5 35.68, 20 35.62 S 23.87 36.42, 25 35.43 S 28.9 27.85, 30 26.83 S 33.54 25.85, 35 26.19 S 38.53 28.86, 40 29.16 S 43.5 28.29, 45 28.23 S 48.51 28.58, 50 28.79 S 53.5 29.6, 55 29.61 S 58.51 28.96, 60 28.83 S 63.58 29.24, 65 28.74 S 68.75 26.16, 70 25.33 S 73.53 22.41, 75 22.1 S 78.52 23.01, 80 23.23 S 83.54 23.95, 85 23.6 S 88.67 21.53, 90 20.84 S 93.55 18.84, 95 18.46 S 98.5 18.33, 100 18.23 S 103.53 17.5, 105 17.82 S 108.5 20.32, 110 20.39 S 113.96 19.39, 115 18.31 S 118.58 9.52, 120 10 S 124.02 20.55, 125 21.69 S 128.5 21.7, 130 21.67 S 133.53 21.77, 135 21.46 S 138.96 20.65, 140 19.57 S 143.73 11.87, 145 11.07 S 148.83 12.37, 150 13.31 S 153.73 18.25, 155 19.05 S 158.52 19.89, 160 19.67 S 163.52 17.84, 165 17.59 S 168.5 17.91, 170 18 S 173.7 18.96, 175 18.21 S 178.67 12.89, 180 12.2 S 183.75 12.24, 185 13.07 S 188.5 18.75, 190 18.79 S 193.62 13.95, 195 13.35 S 198.52 14.22, 200 14.44 S 203.51 14.73, 205 14.86"
          fill="none"/>
    <circle r="4" cx="5" cy="40" fill="#3023AE"/>
    <circle r="4" cx="205" cy="14.86" fill="#C86DD7"/>      
</svg>