<svg width="200" height="50" viewBox="0 0 210 50" xmlns="http://www.w3.org/2000/svg">
    <defs>
        <linearGradient x1="0%" y1="0%" x2="100%" y2="0%" id="a">
            <stop stop-color="#3023AE" offset="0%"/>
            <stop stop-color="#C86DD7" offset="100%"/>
        </linearGradient>
    </defs>
    <path stroke="url(#a)"
          stroke-width="3"
          stroke-linejoin="round"
          stroke-linecap="round"
          d="M5 40 C 6.26 39.18, 8.6 37.3, 10 36.76 S 13.51 36.32, 15 36.18 S 18.54 36.21, 20 35.85 S 23.96 34.81, 25 33.73 S 28.68 26.13, 30 25.42 S 33.6 27.83, 35 28.36 S 38.51 29.01, 40 29.16 S 43.5 29.35, 45 29.37 S 48.5 29.28, 50 29.28 S 53.5 29.38, 55 29.39 S 58.6 29.89, 60 29.35 S 63.74 26.31, 65 25.5 S 68.52 23.14, 70 22.89 S 73.51 23.67, 75 23.83 S 78.56 24.38, 80 23.98 S 83.77 21.9, 85 21.04 S 88.5 17.03, 90 16.96 S 93.53 20.29, 95 20.57 S 98.5 18.91, 100 18.87 S 103.88 21.29, 105 20.29 S 108.51 9.87, 110 10 S 114.13 19.93, 115 21.15 S 118.5 24, 120 24.02 S 123.62 21.87, 125 21.29 S 128.94 20.87, 130 19.81 S 133.6 11.85, 135 11.31 S 138.9 14.93, 140 15.95 S 143.59 20.06, 145 20.57 S 148.6 20.08, 150 19.54 S 153.5 16.68, 155 16.74 S 158.5 19.86, 160 19.94 S 163.82 18.19, 165 17.26 S 168.51 11.89, 170 12.04 S 173.57 17.8, 175 18.25 S 178.55 15.62, 180 15.22 S 183.5 15.42, 185 15.52 S 188.55 16.25, 190 15.86 S 193.51 13.02, 195 12.83 S 198.51 14.75, 200 14.6 S 203.69 12.55, 205 11.82"
          fill="none"/>
    <circle r="4" cx="5" cy="40" fill="#3023AE"/>
    <circle r="4" cx="205" cy="11.82" fill="#C86DD7"/>      
</svg>