<svg width="200" height="50" viewBox="0 0 210 50" xmlns="http://www.w3.org/2000/svg">
    <defs>
        <linearGradient x1="0%" y1="0%" x2="100%" y2="0%" id="a">
            <stop stop-color="#3023AE" offset="0%"/>
            <stop stop-color="#C86DD7" offset="100%"/>
        </linearGradient>
    </defs>
    <path stroke="url(#a)"
          stroke-width="3"
          stroke-linejoin="round"
          stroke-linecap="round"
          d="M5 40 C 6.29 39.23, 8.62 37.61, 10 37.02 S 13.52 35.93, 15 35.71 S 18.5 35.56, 20 35.52 S 23.87 36.45, 25 35.46 S 28.94 27.8, 30 26.74 S 33.54 25.21, 35 25.54 S 38.54 28.66, 40 29 S 43.5 27.9, 45 27.84 S 48.52 28.35, 50 28.58 S 53.5 29.42, 55 29.4 S 58.5 28.57, 60 28.47 S 63.59 29.25, 65 28.73 S 68.78 25.67, 70 24.8 S 73.52 21.85, 75 21.63 S 78.51 23.16, 80 23.34 S 83.55 23.23, 85 22.84 S 88.51 20.75, 90 20.62 S 93.78 22.87, 95 21.99 S 98.6 13.97, 100 13.42 S 103.74 17.25, 105 18.06 S 108.51 19.93, 110 19.8 S 113.93 18.23, 115 17.18 S 118.57 9.56, 120 10.02 S 124.05 19.21, 125 20.37 S 128.5 22.24, 130 22.29 S 133.59 21.2, 135 20.68 S 138.76 19.41, 140 18.57 S 143.86 14.89, 145 13.91 S 148.6 9.46, 150 10 S 153.93 16.67, 155 17.73 S 158.51 20.07, 160 19.9 S 163.54 16.95, 165 16.59 S 168.51 17.31, 170 17.45 S 173.67 18.23, 175 17.54 S 178.64 12.89, 180 12.26 S 183.67 12.17, 185 12.87 S 188.5 17.47, 190 17.56 S 193.59 13.95, 195 13.44 S 198.5 13.9, 200 13.95 S 203.5 13.82, 205 13.76"
          fill="none"/>
    <circle r="4" cx="5" cy="40" fill="#3023AE"/>
    <circle r="4" cx="205" cy="13.760000000000002" fill="#C86DD7"/>      
</svg>