<svg width="200" height="50" viewBox="0 0 210 50" xmlns="http://www.w3.org/2000/svg">
    <defs>
        <linearGradient x1="0%" y1="0%" x2="100%" y2="0%" id="a">
            <stop stop-color="#3023AE" offset="0%"/>
            <stop stop-color="#C86DD7" offset="100%"/>
        </linearGradient>
    </defs>
    <path stroke="url(#a)"
          stroke-width="3"
          stroke-linejoin="round"
          stroke-linecap="round"
          d="M5 40 C 6.29 39.23, 8.61 37.56, 10 36.99 S 13.51 36.11, 15 35.92 S 18.51 35.92, 20 35.74 S 23.92 35.76, 25 34.72 S 28.8 27, 30 26.1 S 33.58 26.75, 35 27.24 S 38.51 29.34, 40 29.54 S 43.5 28.63, 45 28.59 S 48.5 29.2, 50 29.25 S 53.5 28.82, 55 28.92 S 58.54 30.26, 60 29.92 S 63.6 27.14, 65 26.61 S 68.7 26.91, 70 26.16 S 73.52 21.06, 75 20.83 S 78.52 24.41, 80 24.62 S 83.57 22.72, 85 22.27 S 88.73 22.25, 90 21.45 S 93.52 16.22, 95 16 S 98.57 19.55, 100 19.99 S 103.5 19.11, 105 19.05 S 108.89 20.63, 110 19.62 S 113.52 9.75, 115 10 S 119.09 20.08, 120 21.28 S 123.5 23.18, 125 23.19 S 128.58 21.85, 130 21.37 S 133.97 20.92, 135 19.83 S 138.66 11.41, 140 10.74 S 143.93 13.78, 145 14.83 S 148.65 19.98, 150 20.63 S 153.61 20.16, 155 19.6 S 158.5 16.52, 160 16.57 S 163.51 19.71, 165 19.91 S 168.9 18.94, 170 17.92 S 173.51 10.85, 175 10.66 S 178.74 15.84, 180 16.66 S 183.51 17.38, 185 17.17 S 188.52 15.53, 190 15.26 S 193.52 15.59, 195 15.36 S 198.5 13.77, 200 13.73 S 203.55 14.72, 205 15.12"
          fill="none"/>
    <circle r="4" cx="5" cy="40" fill="#3023AE"/>
    <circle r="4" cx="205" cy="15.120000000000001" fill="#C86DD7"/>      
</svg>