<svg width="200" height="50" viewBox="0 0 210 50" xmlns="http://www.w3.org/2000/svg">
    <defs>
        <linearGradient x1="0%" y1="0%" x2="100%" y2="0%" id="a">
            <stop stop-color="#3023AE" offset="0%"/>
            <stop stop-color="#C86DD7" offset="100%"/>
        </linearGradient>
    </defs>
    <path stroke="url(#a)"
          stroke-width="3"
          stroke-linejoin="round"
          stroke-linecap="round"
          d="M5 40 C 6.5 40, 8.5 39.99, 10 39.99 S 13.5 39.97, 15 39.97 S 18.5 39.99, 20 39.99 S 23.5 39.98, 25 39.98 S 28.5 40.04, 30 39.99 S 33.51 39.83, 35 39.63 S 38.52 38.88, 40 38.65 S 43.59 38.6, 45 38.08 S 48.51 34.72, 50 34.93 S 53.59 38.98, 55 39.48 S 59.52 39.88, 60 38.46 S 63.93 11.05, 65 10 S 69.25 27.34, 70 28.64 S 73.6 27.93, 75 27.4 S 78.55 25.25, 80 24.88 S 83.5 24.73, 85 24.84 S 88.5 25.61, 90 25.62 S 93.5 24.91, 95 24.94 S 98.5 25.79, 100 25.84 S 103.61 25.85, 105 25.28 S 108.52 21.99, 110 21.73 S 113.56 23.06, 115 23.49 S 118.52 24.53, 120 24.76 S 123.5 24.94, 125 25.06 S 128.55 25.15, 130 25.55 S 133.52 27.58, 135 27.81 S 138.5 27.2, 140 27.09 S 143.51 26.91, 145 27.09 S 148.55 27.9, 150 28.27 S 153.51 29.48, 155 29.63 S 158.5 29.27, 160 29.28 S 163.52 29.44, 165 29.68 S 168.56 30.51, 170 30.93 S 173.54 32.25, 175 32.6 S 178.51 33.16, 180 33.33 S 183.5 33.61, 185 33.71 S 188.52 33.78, 190 34.01 S 193.52 35.05, 195 35.27 S 198.5 35.44, 200 35.51 S 203.5 35.66, 205 35.73"
          fill="none"/>
    <circle r="4" cx="5" cy="40" fill="#3023AE"/>
    <circle r="4" cx="205" cy="35.730000000000004" fill="#C86DD7"/>      
</svg>