<svg width="200" height="50" viewBox="0 0 210 50" xmlns="http://www.w3.org/2000/svg">
    <defs>
        <linearGradient x1="0%" y1="0%" x2="100%" y2="0%" id="a">
            <stop stop-color="#3023AE" offset="0%"/>
            <stop stop-color="#C86DD7" offset="100%"/>
        </linearGradient>
    </defs>
    <path stroke="url(#a)"
          stroke-width="3"
          stroke-linejoin="round"
          stroke-linecap="round"
          d="M5 40 C 6.26 39.18, 8.61 37.32, 10 36.76 S 13.51 36.15, 15 35.99 S 18.54 36.04, 20 35.7 S 23.97 34.73, 25 33.64 S 28.7 25.91, 30 25.17 S 33.6 27.4, 35 27.93 S 38.51 28.82, 40 28.97 S 43.5 28.88, 45 28.91 S 48.5 29.14, 50 29.17 S 53.5 29.07, 55 29.09 S 58.58 29.77, 60 29.28 S 63.77 26.46, 65 25.6 S 68.52 22.61, 70 22.34 S 73.51 23.62, 75 23.8 S 78.55 23.9, 80 23.53 S 83.75 22.09, 85 21.26 S 88.51 17.15, 90 16.94 S 93.51 19.71, 95 19.88 S 98.5 18.09, 100 18.06 S 103.83 20.61, 105 19.67 S 108.5 10.08, 110 10 S 114.12 17.92, 115 19.13 S 118.51 23.56, 120 23.74 S 123.56 20.71, 125 20.31 S 128.68 21.67, 130 20.95 S 133.94 15.9, 135 14.84 S 138.58 10.49, 140 10.99 S 143.88 17.35, 145 18.35 S 148.5 20.03, 150 19.92 S 153.51 17.79, 155 17.6 S 158.51 18.5, 160 18.64 S 163.83 19.45, 165 18.51 S 168.56 11.06, 170 10.64 S 173.72 14.78, 175 15.56 S 178.5 16.84, 180 16.78 S 183.52 15.37, 185 15.14 S 188.58 15.7, 190 15.23 S 193.5 11.72, 195 11.84 S 198.51 16.21, 200 16.01 S 203.99 11.61, 205 10.5"
          fill="none"/>
    <circle r="4" cx="5" cy="40" fill="#3023AE"/>
    <circle r="4" cx="205" cy="10.5" fill="#C86DD7"/>      
</svg>