<svg width="200" height="50" viewBox="0 0 210 50" xmlns="http://www.w3.org/2000/svg">
    <defs>
        <linearGradient x1="0%" y1="0%" x2="100%" y2="0%" id="a">
            <stop stop-color="#3023AE" offset="0%"/>
            <stop stop-color="#C86DD7" offset="100%"/>
        </linearGradient>
    </defs>
    <path stroke="url(#a)"
          stroke-width="3"
          stroke-linejoin="round"
          stroke-linecap="round"
          d="M5 40 C 5.25 38.52, 9.42 11.38, 10 10 S 13.62 15.8, 15 16.38 S 18.97 13.07, 20 14.16 S 24.28 25.61, 25 26.93 S 28.96 31.44, 30 32.52 S 33.67 36.61, 35 37.3 S 38.5 37.55, 40 37.67 S 43.5 38.06, 45 38.09 S 48.51 37.72, 50 37.89 S 53.5 39.11, 55 39.21 S 58.5 38.67, 60 38.59 S 63.54 39.03, 65 38.68 S 68.5 36.18, 70 36.2 S 73.54 38.47, 75 38.79 S 78.5 38.47, 80 38.4 S 83.5 38.28, 85 38.31 S 88.5 38.55, 90 38.59 S 93.51 38.79, 95 38.59 S 98.5 37.19, 100 37.24 S 103.53 38.63, 105 38.93 S 108.5 39.28, 110 39.3 S 113.5 39.17, 115 39.07 S 118.58 39.1, 120 38.62 S 123.5 35.75, 125 35.7 S 128.57 37.87, 130 38.31 S 133.5 38.82, 135 38.79 S 138.5 38.06, 140 38.14 S 143.51 39.15, 145 39.33 S 148.5 39.3, 150 39.33 S 153.84 40.5, 155 39.55 S 158.53 31.48, 160 31.2 S 163.75 36.85, 165 37.67 S 168.51 37.55, 170 37.75 S 173.51 38.9, 175 39.02 S 178.5 38.53, 180 38.57 S 183.51 39.16, 185 39.3 S 188.5 39.44, 190 39.52 S 193.5 39.88, 195 39.83 S 198.5 39.23, 200 39.16 S 203.5 39.31, 205 39.38"
          fill="none"/>
    <circle r="4" cx="5" cy="40" fill="#3023AE"/>
    <circle r="4" cx="205" cy="39.38" fill="#C86DD7"/>      
</svg>