<svg width="200" height="50" viewBox="0 0 210 50" xmlns="http://www.w3.org/2000/svg">
    <defs>
        <linearGradient x1="0%" y1="0%" x2="100%" y2="0%" id="a">
            <stop stop-color="#3023AE" offset="0%"/>
            <stop stop-color="#C86DD7" offset="100%"/>
        </linearGradient>
    </defs>
    <path stroke="url(#a)"
          stroke-width="3"
          stroke-linejoin="round"
          stroke-linecap="round"
          d="M5 40 C 6.48 39.76, 8.54 39.54, 10 39.19 S 14.51 39.01, 15 37.59 S 18.5 10, 20 10 S 24.5 36.19, 25 37.6 S 28.51 37.88, 30 38.07 S 33.5 38.96, 35 38.88 S 38.5 37.56, 40 37.55 S 43.52 38.59, 45 38.83 S 48.5 39.06, 50 39.16 S 53.5 39.38, 55 39.48 S 58.5 39.8, 60 39.83 S 63.52 39.92, 65 39.66 S 68.52 38.36, 70 38.1 S 73.5 37.84, 75 37.9 S 78.5 38.38, 80 38.47 S 83.5 38.47, 85 38.51 S 88.5 38.71, 90 38.73 S 93.5 38.66, 95 38.67 S 98.5 38.89, 100 38.83 S 103.5 38.32, 105 38.29 S 108.5 38.53, 110 38.62 S 113.5 38.88, 115 38.86 S 118.5 38.48, 120 38.47 S 123.5 38.76, 125 38.82 S 128.5 38.88, 130 38.89 S 133.5 38.95, 135 38.92 S 138.5 38.68, 140 38.71 S 143.5 39.07, 145 39.12 S 148.5 39.06, 150 39.04 S 153.5 38.97, 155 38.99 S 158.5 39.18, 160 39.18 S 163.5 39.05, 165 39.01 S 168.5 38.87, 170 38.9 S 173.5 39.18, 175 39.21 S 178.5 39.15, 180 39.13 S 183.5 39.05, 185 39.05 S 188.5 39.23, 190 39.12 S 193.5 38.33, 195 38.34 S 198.5 39.08, 200 39.18 S 203.5 39.06, 205 39.01"
          fill="none"/>
    <circle r="4" cx="5" cy="40" fill="#3023AE"/>
    <circle r="4" cx="205" cy="39.01" fill="#C86DD7"/>      
</svg>