<svg width="200" height="50" viewBox="0 0 210 50" xmlns="http://www.w3.org/2000/svg">
    <defs>
        <linearGradient x1="0%" y1="0%" x2="100%" y2="0%" id="a">
            <stop stop-color="#3023AE" offset="0%"/>
            <stop stop-color="#C86DD7" offset="100%"/>
        </linearGradient>
    </defs>
    <path stroke="url(#a)"
          stroke-width="3"
          stroke-linejoin="round"
          stroke-linecap="round"
          d="M5 40 C 6.36 39.37, 9.21 38.96, 10 37.69 S 13.51 23.77, 15 23.93 S 18.99 37.67, 20 38.78 S 23.72 35.61, 25 34.83 S 28.57 32.28, 30 32.73 S 33.73 37.18, 35 37.98 S 38.51 38.79, 40 38.99 S 43.5 39.34, 45 39.3 S 48.5 38.64, 50 38.71 S 53.5 39.69, 55 39.74 S 58.5 39.12, 60 39.02 S 63.78 39.96, 65 39.09 S 69.08 33.12, 70 31.93 S 73.78 27.04, 75 26.17 S 78.93 23.75, 80 24.8 S 84.09 34.82, 85 36.01 S 88.53 37.62, 90 37.91 S 93.51 38.17, 95 38.01 S 98.51 36.67, 100 36.81 S 103.51 38.77, 105 38.97 S 108.85 39.09, 110 38.13 S 113.5 30.5, 115 30.58 S 118.72 37.88, 120 38.66 S 123.5 36.7, 125 36.71 S 128.53 38.41, 130 38.7 S 133.5 38.64, 135 38.68 S 138.5 38.97, 140 38.94 S 143.5 38.6, 145 38.48 S 148.5 38.21, 150 38.14 S 154.5 39.44, 155 38.03 S 159.26 11.31, 160 10 S 164.41 19, 165 20.38 S 169.16 32.16, 170 33.4 S 173.5 35.08, 175 35.1 S 178.5 33.58, 180 33.51 S 183.54 34.27, 185 34.62 S 188.57 35.43, 190 35.88 S 193.52 37.56, 195 37.78 S 198.5 37.28, 200 37.33 S 203.52 37.89, 205 38.13"
          fill="none"/>
    <circle r="4" cx="5" cy="40" fill="#3023AE"/>
    <circle r="4" cx="205" cy="38.13" fill="#C86DD7"/>      
</svg>