<svg width="200" height="50" viewBox="0 0 210 50" xmlns="http://www.w3.org/2000/svg">
    <defs>
        <linearGradient x1="0%" y1="0%" x2="100%" y2="0%" id="a">
            <stop stop-color="#3023AE" offset="0%"/>
            <stop stop-color="#C86DD7" offset="100%"/>
        </linearGradient>
    </defs>
    <path stroke="url(#a)"
          stroke-width="3"
          stroke-linejoin="round"
          stroke-linecap="round"
          d="M5 40 C 5.7 38.67, 8.57 30.98, 10 30.53 S 13.73 36.04, 15 36.84 S 18.52 37.07, 20 36.84 S 23.99 36.37, 25 35.26 S 28.73 26.59, 30 25.79 S 33.52 29.18, 35 28.95 S 38.73 23.41, 40 24.21 S 43.82 34.33, 45 35.26 S 49.45 33.5, 50 32.11 S 53.73 9.2, 55 10 S 59.45 37.03, 60 38.42 S 63.5 35.26, 65 35.26 S 68.57 37.97, 70 38.42 S 73.5 38.42, 75 38.42 S 78.5 38.42, 80 38.42 S 83.57 38.87, 85 38.42 S 88.5 35.26, 90 35.26 S 93.57 37.97, 95 38.42 S 98.5 38.42, 100 38.42 S 103.5 38.42, 105 38.42 S 108.5 38.42, 110 38.42 S 113.5 38.42, 115 38.42 S 118.5 38.42, 120 38.42 S 123.57 38.87, 125 38.42 S 128.5 35.26, 130 35.26 S 133.57 37.97, 135 38.42 S 138.52 38.65, 140 38.42 S 143.52 37.07, 145 36.84 S 148.52 36.61, 150 36.84 S 153.52 38.19, 155 38.42 S 158.5 38.42, 160 38.42 S 163.5 38.42, 165 38.42 S 168.5 38.42, 170 38.42 S 173.5 38.42, 175 38.42 S 178.5 38.42, 180 38.42 S 183.5 38.42, 185 38.42 S 188.5 38.42, 190 38.42"
          fill="none"/>
    <circle r="4" cx="5" cy="40" fill="#3023AE"/>
    <circle r="4" cx="190" cy="38.42" fill="#C86DD7"/>      
</svg>