<svg width="200" height="50" viewBox="0 0 210 50" xmlns="http://www.w3.org/2000/svg">
    <defs>
        <linearGradient x1="0%" y1="0%" x2="100%" y2="0%" id="a">
            <stop stop-color="#3023AE" offset="0%"/>
            <stop stop-color="#C86DD7" offset="100%"/>
        </linearGradient>
    </defs>
    <path stroke="url(#a)"
          stroke-width="3"
          stroke-linejoin="round"
          stroke-linecap="round"
          d="M5 40 C 6.5 39.9, 8.54 40.01, 10 39.68 S 13.54 38.07, 15 37.74 S 18.55 37.79, 20 37.42 S 23.57 35.62, 25 35.16 S 28.5 34.19, 30 34.19 S 33.67 35.85, 35 35.16 S 38.52 29.27, 40 29.03 S 43.67 32.86, 45 33.55 S 48.5 34.14, 50 34.19 S 53.56 33.45, 55 33.87 S 58.52 37.34, 60 37.1 S 63.9 33.29, 65 32.26 S 68.53 27.46, 70 27.74 S 73.57 33.73, 75 34.19 S 78.63 31.59, 80 30.97 S 83.5 29.68, 85 29.68 S 88.5 30.97, 90 30.97 S 93.54 30.01, 95 29.68 S 98.83 29.65, 100 28.71 S 103.85 22.57, 105 21.61 S 108.52 20.56, 110 20.32 S 113.72 20.78, 115 20 S 118.67 13.5, 120 14.19 S 123.81 24.24, 125 25.16 S 128.67 22.63, 130 21.94 S 133.87 20.99, 135 20 S 138.59 13.73, 140 13.23 S 143.7 15.7, 145 16.45 S 148.5 18.98, 150 19.03 S 153.56 17.19, 155 16.77 S 158.54 15.8, 160 16.13 S 163.63 18.41, 165 19.03 S 168.67 21.34, 170 20.65 S 173.97 14.96, 175 13.87 S 178.53 9.71, 180 10 S 183.68 15.09, 185 15.81 S 188.67 14.79, 190 15.48 S 193.59 20.47, 195 20.97 S 198.6 18.49, 200 19.03 S 204.02 23.7, 205 24.84"
          fill="none"/>
    <circle r="4" cx="5" cy="40" fill="#3023AE"/>
    <circle r="4" cx="205" cy="24.84" fill="#C86DD7"/>      
</svg>