<svg width="200" height="50" viewBox="0 0 210 50" xmlns="http://www.w3.org/2000/svg">
    <defs>
        <linearGradient x1="0%" y1="0%" x2="100%" y2="0%" id="a">
            <stop stop-color="#3023AE" offset="0%"/>
            <stop stop-color="#C86DD7" offset="100%"/>
        </linearGradient>
    </defs>
    <path stroke="url(#a)"
          stroke-width="3"
          stroke-linejoin="round"
          stroke-linecap="round"
          d="M5 40 C 6.5 39.91, 8.53 40.01, 10 39.69 S 13.54 38.17, 15 37.81 S 18.57 37.64, 20 37.19 S 23.54 35.05, 25 34.69 S 28.58 35.18, 30 34.69 S 33.53 31.53, 35 31.25 S 38.53 32.53, 40 32.81 S 43.57 32.67, 45 33.12 S 48.5 35.85, 50 35.94 S 53.5 33.8, 55 33.75 S 58.53 35.94, 60 35.62 S 63.69 32.29, 65 31.56 S 68.52 29.77, 70 30 S 73.5 33.07, 75 33.12 S 78.51 30.45, 80 30.31 S 83.53 32.51, 85 32.19 S 88.5 28.17, 90 28.12 S 93.6 32.4, 95 31.87 S 98.89 25.38, 100 24.37 S 103.75 23.63, 105 22.81 S 108.64 18.45, 110 17.81 S 113.52 17.89, 115 18.12 S 118.78 18.49, 120 19.37 S 123.52 25.54, 125 25.31 S 128.69 18.54, 130 17.81 S 133.71 20.46, 135 19.69 S 138.52 12.1, 140 11.87 S 143.76 17.27, 145 18.12 S 148.5 18.84, 150 18.75 S 153.5 17.5, 155 17.5 S 158.6 18.22, 160 18.75 S 163.54 21.61, 165 21.25 S 169 17.37, 170 16.25 S 173.5 10.05, 175 10 S 178.71 15.17, 180 15.94 S 183.57 15.49, 185 15.94 S 188.61 18.5, 190 19.06 S 193.66 19.33, 195 20 S 198.53 24.34, 200 24.06 S 204.03 19.27, 205 18.12"
          fill="none"/>
    <circle r="4" cx="5" cy="40" fill="#3023AE"/>
    <circle r="4" cx="205" cy="18.12" fill="#C86DD7"/>      
</svg>