<svg width="200" height="50" viewBox="0 0 210 50" xmlns="http://www.w3.org/2000/svg">
    <defs>
        <linearGradient x1="0%" y1="0%" x2="100%" y2="0%" id="a">
            <stop stop-color="#3023AE" offset="0%"/>
            <stop stop-color="#C86DD7" offset="100%"/>
        </linearGradient>
    </defs>
    <path stroke="url(#a)"
          stroke-width="3"
          stroke-linejoin="round"
          stroke-linecap="round"
          d="M5 40 C 5.92 38.82, 8.53 33.88, 10 33.57 S 13.62 37.27, 15 37.86 S 18.5 37.86, 20 37.86 S 23.5 37.86, 25 37.86 S 28.5 37.86, 30 37.86 S 33.5 37.86, 35 37.86 S 38.5 37.86, 40 37.86 S 43.5 37.86, 45 37.86 S 48.5 37.86, 50 37.86 S 53.5 37.86, 55 37.86 S 58.5 37.86, 60 37.86 S 63.5 37.86, 65 37.86 S 68.5 37.86, 70 37.86 S 73.5 37.86, 75 37.86 S 78.5 37.86, 80 37.86 S 83.5 37.86, 85 37.86 S 88.5 37.86, 90 37.86 S 93.53 38.18, 95 37.86 S 98.62 36.3, 100 35.71 S 103.74 34.38, 105 33.57 S 108.53 29.6, 110 29.29 S 113.74 30.62, 115 31.43 S 118.53 36.02, 120 35.71 S 123.62 29.88, 125 29.29 S 128.86 30.45, 130 31.43 S 133.74 37.05, 135 37.86 S 138.53 38.18, 140 37.86 S 143.62 36.3, 145 35.71 S 148.53 33.25, 150 33.57 S 153.62 37.27, 155 37.86 S 158.62 38.45, 160 37.86 S 163.98 34.67, 165 33.57 S 168.53 26.83, 170 27.14 S 173.62 36.3, 175 35.71 S 179.37 24.22, 180 22.86 S 184.08 15.47, 185 14.29 S 188.62 10.59, 190 10 S 193.86 9.02, 195 10 S 198.5 18.57, 200 18.57 S 204.24 11.3, 205 10"
          fill="none"/>
    <circle r="4" cx="5" cy="40" fill="#3023AE"/>
    <circle r="4" cx="205" cy="10" fill="#C86DD7"/>      
</svg>