<svg width="200" height="50" viewBox="0 0 210 50" xmlns="http://www.w3.org/2000/svg">
    <defs>
        <linearGradient x1="0%" y1="0%" x2="100%" y2="0%" id="a">
            <stop stop-color="#3023AE" offset="0%"/>
            <stop stop-color="#C86DD7" offset="100%"/>
        </linearGradient>
    </defs>
    <path stroke="url(#a)"
          stroke-width="3"
          stroke-linejoin="round"
          stroke-linecap="round"
          d="M5 40 C 6.11 39, 9.53 36.91, 10 35.49 S 13.58 9.51, 15 10 S 19.21 37.71, 20 38.98 S 23.58 26.58, 25 26.09 S 29.05 34.35, 30 35.51 S 33.59 37.77, 35 38.28 S 38.71 39.88, 40 39.11 S 43.82 33.25, 45 32.32 S 48.5 31.24, 50 31.19 S 53.53 32.31, 55 32 S 58.5 29.21, 60 29.1 S 63.57 30.8, 65 31.24 S 68.51 32, 70 32.18 S 73.62 33.08, 75 32.48 S 78.61 28.39, 80 27.83 S 83.51 28.29, 85 28.48 S 88.52 28.88, 90 29.1 S 93.53 30.27, 95 29.96 S 98.5 26.98, 100 27 S 103.64 29.5, 105 30.12 S 108.5 31.58, 110 31.57 S 113.5 30.06, 115 30.06 S 118.53 31.31, 120 31.59 S 123.51 31.81, 125 31.94 S 128.5 32.42, 130 32.43 S 133.5 31.92, 135 32.02 S 138.53 32.83, 140 33.12 S 143.52 33.76, 145 33.98 S 148.5 34.66, 150 34.6 S 153.5 33.6, 155 33.58 S 158.5 34.38, 160 34.44 S 163.5 33.86, 165 33.96 S 168.5 35.07, 170 35.11 S 173.5 34.35, 175 34.25 S 178.51 34.34, 180 34.47 S 183.5 35.07, 185 35.09 S 188.5 34.69, 190 34.6 S 193.51 34.33, 195 34.52 S 198.51 35.98, 200 35.86 S 203.62 34.29, 205 33.69"
          fill="none"/>
    <circle r="4" cx="5" cy="40" fill="#3023AE"/>
    <circle r="4" cx="205" cy="33.69" fill="#C86DD7"/>      
</svg>