<svg width="200" height="50" viewBox="0 0 210 50" xmlns="http://www.w3.org/2000/svg">
    <defs>
        <linearGradient x1="0%" y1="0%" x2="100%" y2="0%" id="a">
            <stop stop-color="#3023AE" offset="0%"/>
            <stop stop-color="#C86DD7" offset="100%"/>
        </linearGradient>
    </defs>
    <path stroke="url(#a)"
          stroke-width="3"
          stroke-linejoin="round"
          stroke-linecap="round"
          d="M5 40 C 5.25 38.52, 8.86 10.98, 10 10 S 14.33 30.09, 15 31.43 S 18.7 29.26, 20 30 S 23.78 36.27, 25 37.14 S 28.62 37.73, 30 37.14 S 33.5 32.86, 35 32.86 S 38.52 36.93, 40 37.14 S 43.56 34.7, 45 34.29 S 48.62 33.7, 50 34.29 S 53.62 37.98, 55 38.57 S 58.5 38.57, 60 38.57 S 63.5 38.57, 65 38.57 S 68.56 38.98, 70 38.57 S 73.52 35.92, 75 35.71 S 78.56 36.73, 80 37.14 S 83.5 38.57, 85 38.57 S 88.56 37.55, 90 37.14 S 93.52 35.92, 95 35.71 S 98.52 35.5, 100 35.71 S 103.52 36.93, 105 37.14 S 108.5 37.14, 110 37.14 S 113.52 36.93, 115 37.14 S 118.52 38.36, 120 38.57 S 123.56 38.98, 125 38.57 S 128.5 35.71, 130 35.71 S 133.56 38.16, 135 38.57 S 138.56 38.98, 140 38.57 S 143.52 35.92, 145 35.71 S 148.56 36.73, 150 37.14 S 153.52 38.36, 155 38.57 S 158.5 38.57, 160 38.57"
          fill="none"/>
    <circle r="4" cx="5" cy="40" fill="#3023AE"/>
    <circle r="4" cx="160" cy="38.57" fill="#C86DD7"/>      
</svg>