<svg width="200" height="50" viewBox="0 0 210 50" xmlns="http://www.w3.org/2000/svg">
    <defs>
        <linearGradient x1="0%" y1="0%" x2="100%" y2="0%" id="a">
            <stop stop-color="#3023AE" offset="0%"/>
            <stop stop-color="#C86DD7" offset="100%"/>
        </linearGradient>
    </defs>
    <path stroke="url(#a)"
          stroke-width="3"
          stroke-linejoin="round"
          stroke-linecap="round"
          d="M5 40 C 6.49 39.83, 8.5 39.51, 10 39.44 S 13.5 39.49, 15 39.56 S 18.5 39.99, 20 39.94 S 23.5 39.28, 25 39.25 S 28.5 39.68, 30 39.75 S 33.5 39.73, 35 39.75 S 38.5 39.92, 40 39.88 S 43.5 39.53, 45 39.5 S 48.5 39.69, 50 39.69 S 54.52 40.92, 55 39.5 S 58.56 10.43, 60 10 S 64.5 35.09, 65 36.51 S 68.52 38.17, 70 38.44 S 73.5 38.44, 75 38.32 S 78.5 37.58, 80 37.63 S 83.5 38.56, 85 38.63 S 88.5 38.2, 90 38.13 S 93.5 38.03, 95 38.13 S 98.5 38.83, 100 38.81 S 103.82 38.93, 105 38 S 108.5 30.98, 110 30.96 S 114.09 39.07, 115 37.88 S 118.5 17.95, 120 17.86 S 124.34 35.91, 125 37.26 S 128.51 37.98, 130 38.13 S 133.5 38.31, 135 38.25 S 138.51 37.94, 140 37.75 S 143.5 37, 145 36.94 S 148.57 37.78, 150 37.32 S 153.62 34.29, 155 33.7 S 158.57 32.62, 160 33.08 S 163.56 36.51, 165 36.94 S 168.5 36, 170 36.07 S 173.5 37.47, 175 37.38 S 178.5 35.48, 180 35.45 S 183.51 37.02, 185 37.19 S 188.51 36.77, 190 36.57 S 193.5 35.89, 195 35.82 S 198.87 37.11, 200 36.13 S 204.27 28.46, 205 27.15"
          fill="none"/>
    <circle r="4" cx="5" cy="40" fill="#3023AE"/>
    <circle r="4" cx="205" cy="27.15" fill="#C86DD7"/>      
</svg>