<svg width="200" height="50" viewBox="0 0 210 50" xmlns="http://www.w3.org/2000/svg">
    <defs>
        <linearGradient x1="0%" y1="0%" x2="100%" y2="0%" id="a">
            <stop stop-color="#3023AE" offset="0%"/>
            <stop stop-color="#C86DD7" offset="100%"/>
        </linearGradient>
    </defs>
    <path stroke="url(#a)"
          stroke-width="3"
          stroke-linejoin="round"
          stroke-linecap="round"
          d="M5 40 C 6.5 39.99, 8.5 39.97, 10 39.97 S 13.5 39.99, 15 39.99 S 18.55 40.36, 20 39.99 S 24.23 38.77, 25 37.48 S 28.5 23.14, 30 23.13 S 34.15 36.15, 35 37.39 S 38.87 38.7, 40 37.72 S 44.49 30.1, 45 28.69 S 48.59 9.49, 50 10 S 54.41 30.89, 55 32.27 S 58.5 33.21, 60 33.15 S 63.5 31.91, 65 31.89 S 68.5 33.07, 70 33.03 S 73.53 31.91, 75 31.59 S 78.5 30.84, 80 30.86 S 83.5 31.63, 85 31.75 S 88.51 31.8, 90 31.66 S 93.72 31.6, 95 30.81 S 98.67 26.2, 100 25.51 S 103.51 25.79, 105 25.59 S 108.75 24.97, 110 24.15 S 113.51 18.85, 115 19.01 S 118.7 24.5, 120 25.25 S 123.59 25.31, 125 24.8 S 128.51 21.82, 130 21.63 S 133.54 23.21, 135 23.53 S 138.53 24.13, 140 23.84 S 143.51 21.76, 145 21.59 S 148.73 23.47, 150 22.67 S 153.8 16.2, 155 15.29 S 158.6 14.56, 160 15.09 S 163.63 18.42, 165 19.04 S 168.56 20.04, 170 19.62 S 173.5 16.08, 175 16.11 S 178.5 19.75, 180 19.84 S 183.91 17.73, 185 16.7 S 188.5 10.53, 190 10.41 S 193.57 15.46, 195 15.92 S 198.59 14.16, 200 13.64 S 203.55 12.66, 205 12.26"
          fill="none"/>
    <circle r="4" cx="5" cy="40" fill="#3023AE"/>
    <circle r="4" cx="205" cy="12.260000000000002" fill="#C86DD7"/>      
</svg>