<svg width="200" height="50" viewBox="0 0 210 50" xmlns="http://www.w3.org/2000/svg">
    <defs>
        <linearGradient x1="0%" y1="0%" x2="100%" y2="0%" id="a">
            <stop stop-color="#3023AE" offset="0%"/>
            <stop stop-color="#C86DD7" offset="100%"/>
        </linearGradient>
    </defs>
    <path stroke="url(#a)"
          stroke-width="3"
          stroke-linejoin="round"
          stroke-linecap="round"
          d="M5 40 C 6.5 39.99, 8.5 39.98, 10 39.98 S 13.5 39.99, 15 39.99 S 18.52 40.26, 20 39.99 S 23.61 38.73, 25 38.16 S 28.73 36.7, 30 35.89 S 33.54 31.47, 35 31.79 S 38.74 37.28, 40 38.1 S 44.5 39.74, 45 38.33 S 48.6 10.55, 50 10 S 54.45 33, 55 34.39 S 58.5 35.22, 60 35.17 S 63.5 34.08, 65 34.04 S 68.5 34.92, 70 34.89 S 73.52 34.08, 75 33.86 S 78.5 33.42, 80 33.43 S 83.5 33.86, 85 33.95 S 88.5 34.12, 90 34.02 S 93.6 33.79, 95 33.25 S 98.61 30.69, 100 30.13 S 103.51 29.45, 105 29.24 S 108.64 29.34, 110 28.71 S 113.5 24.56, 115 24.61 S 118.63 28.45, 120 29.07 S 123.52 29.39, 125 29.14 S 128.52 27.59, 130 27.35 S 133.51 27.37, 135 27.5 S 138.5 28.24, 140 28.21 S 143.52 27.58, 145 27.33 S 148.5 26.56, 150 26.53 S 153.82 28.08, 155 27.16 S 158.61 19.32, 160 18.76 S 163.8 22.21, 165 23.11 S 168.51 26.49, 170 26.32 S 173.51 22.15, 175 21.95 S 178.53 24.67, 180 24.98 S 183.75 24.89, 185 24.06 S 188.53 18.67, 190 18.38 S 193.55 21.71, 195 22.09 S 198.53 21.32, 200 21.02 S 203.53 20.36, 205 20.08"
          fill="none"/>
    <circle r="4" cx="5" cy="40" fill="#3023AE"/>
    <circle r="4" cx="205" cy="20.08" fill="#C86DD7"/>      
</svg>