<svg width="200" height="50" viewBox="0 0 210 50" xmlns="http://www.w3.org/2000/svg">
    <defs>
        <linearGradient x1="0%" y1="0%" x2="100%" y2="0%" id="a">
            <stop stop-color="#3023AE" offset="0%"/>
            <stop stop-color="#C86DD7" offset="100%"/>
        </linearGradient>
    </defs>
    <path stroke="url(#a)"
          stroke-width="3"
          stroke-linejoin="round"
          stroke-linecap="round"
          d="M5 40 C 6.5 39.99, 8.5 39.97, 10 39.97 S 13.5 39.99, 15 39.99 S 18.54 40.33, 20 39.99 S 24.2 38.9, 25 37.63 S 28.5 24.14, 30 24.13 S 34.12 36.35, 35 37.56 S 38.84 38.8, 40 37.85 S 44.49 30.8, 45 29.39 S 48.58 9.52, 50 10 S 54.4 31.4, 55 32.78 S 58.5 32.98, 60 32.98 S 63.5 32.79, 65 32.75 S 68.51 32.82, 70 32.68 S 73.51 32, 75 31.81 S 78.5 31.36, 80 31.38 S 83.5 31.88, 85 31.92 S 88.52 31.9, 90 31.67 S 93.8 31.29, 95 30.38 S 98.68 24.8, 100 24.09 S 103.5 25.07, 105 25 S 108.56 24.02, 110 23.62 S 113.52 21.94, 115 22.21 S 118.51 25.21, 120 25.42 S 123.54 23.96, 125 23.63 S 128.51 23.01, 130 23.16 S 133.5 24.59, 135 24.62 S 138.54 23.73, 140 23.37 S 143.5 22.13, 145 22.13 S 148.95 24.45, 150 23.38 S 153.68 12.67, 155 11.96 S 158.9 16.95, 160 17.97 S 163.52 21.52, 165 21.3 S 168.5 16.56, 170 16.5 S 173.54 20.55, 175 20.89 S 178.94 19.89, 180 18.83 S 183.54 11.21, 185 10.88 S 188.62 16.03, 190 16.61 S 193.55 15.47, 195 15.1 S 198.5 14.11, 200 14.08 S 203.52 14.68, 205 14.93"
          fill="none"/>
    <circle r="4" cx="5" cy="40" fill="#3023AE"/>
    <circle r="4" cx="205" cy="14.93" fill="#C86DD7"/>      
</svg>