<svg width="200" height="50" viewBox="0 0 210 50" xmlns="http://www.w3.org/2000/svg">
    <defs>
        <linearGradient x1="0%" y1="0%" x2="100%" y2="0%" id="a">
            <stop stop-color="#3023AE" offset="0%"/>
            <stop stop-color="#C86DD7" offset="100%"/>
        </linearGradient>
    </defs>
    <path stroke="url(#a)"
          stroke-width="3"
          stroke-linejoin="round"
          stroke-linecap="round"
          d="M5 40 C 6.5 39.99, 8.5 39.98, 10 39.98 S 13.5 39.99, 15 39.99 S 18.51 40.2, 20 39.99 S 23.91 39.6, 25 38.57 S 28.5 30.47, 30 30.47 S 34.12 39.76, 35 38.54 S 38.6 17.14, 40 16.61 S 44.28 33.47, 45 34.79 S 48.5 34.92, 50 34.94 S 53.5 35, 55 34.91 S 58.51 34.46, 60 34.31 S 63.5 33.95, 65 33.92 S 68.5 34.11, 70 34.13 S 73.53 34.34, 75 34.04 S 78.64 32.71, 80 32.08 S 83.6 29.99, 85 29.45 S 88.54 28.6, 90 28.26 S 93.51 26.94, 95 27.14 S 98.5 29.5, 100 29.62 S 103.5 28.05, 105 27.95 S 108.5 28.94, 110 28.98 S 113.53 28.52, 115 28.21 S 118.53 27.19, 120 26.9 S 123.64 26.86, 125 26.22 S 128.5 22.22, 130 22.19 S 133.52 25.76, 135 26.03 S 138.5 24.01, 140 24.01 S 143.52 26.23, 145 26.02 S 148.59 23.07, 150 22.57 S 153.5 22.42, 155 22.46 S 158.5 22.76, 160 22.81 S 163.5 22.77, 165 22.78 S 168.54 23.22, 170 22.86 S 173.5 20.36, 175 20.29 S 178.5 22.37, 180 22.41 S 184.06 21.71, 185 20.54 S 188.52 10.23, 190 10 S 193.94 17.96, 195 19.02 S 198.5 19.94, 200 19.96 S 203.52 19.39, 205 19.15"
          fill="none"/>
    <circle r="4" cx="5" cy="40" fill="#3023AE"/>
    <circle r="4" cx="205" cy="19.15" fill="#C86DD7"/>      
</svg>