<svg width="200" height="50" viewBox="0 0 210 50" xmlns="http://www.w3.org/2000/svg">
    <defs>
        <linearGradient x1="0%" y1="0%" x2="100%" y2="0%" id="a">
            <stop stop-color="#3023AE" offset="0%"/>
            <stop stop-color="#C86DD7" offset="100%"/>
        </linearGradient>
    </defs>
    <path stroke="url(#a)"
          stroke-width="3"
          stroke-linejoin="round"
          stroke-linecap="round"
          d="M5 40 C 6.5 39.99, 8.5 39.97, 10 39.97 S 13.5 39.99, 15 39.99 S 18.54 40.35, 20 39.99 S 24.23 38.8, 25 37.52 S 28.5 23.4, 30 23.39 S 34.14 36.2, 35 37.43 S 38.86 38.73, 40 37.75 S 44.48 30.27, 45 28.86 S 48.59 10.03, 50 10.54 S 54.4 31.07, 55 32.44 S 58.5 33.43, 60 33.37 S 63.5 32.09, 65 32.05 S 68.5 33.14, 70 33.09 S 73.53 32.01, 75 31.72 S 78.5 31.07, 80 31.1 S 83.5 31.81, 85 31.91 S 88.51 31.95, 90 31.8 S 93.69 31.61, 95 30.88 S 98.67 26.87, 100 26.19 S 103.52 25.97, 105 25.75 S 108.75 25.52, 110 24.69 S 113.5 19.06, 115 19.15 S 118.72 24.49, 120 25.27 S 123.56 25.73, 125 25.29 S 128.52 22.47, 130 22.23 S 133.53 23.41, 135 23.69 S 138.52 24.34, 140 24.11 S 143.52 22.36, 145 22.14 S 148.51 22.85, 150 22.66 S 154.01 21.99, 155 20.86 S 158.53 11.5, 160 11.18 S 163.94 17.62, 165 18.68 S 168.56 21.53, 170 21.1 S 173.51 15.82, 175 15.69 S 178.55 19.82, 180 20.22 S 183.95 19.54, 185 18.47 S 188.54 10.33, 190 10 S 193.63 15.57, 195 16.19 S 198.6 15.08, 200 14.55 S 203.62 12.98, 205 12.39"
          fill="none"/>
    <circle r="4" cx="5" cy="40" fill="#3023AE"/>
    <circle r="4" cx="205" cy="12.39" fill="#C86DD7"/>      
</svg>