<svg width="200" height="50" viewBox="0 0 210 50" xmlns="http://www.w3.org/2000/svg">
    <defs>
        <linearGradient x1="0%" y1="0%" x2="100%" y2="0%" id="a">
            <stop stop-color="#3023AE" offset="0%"/>
            <stop stop-color="#C86DD7" offset="100%"/>
        </linearGradient>
    </defs>
    <path stroke="url(#a)"
          stroke-width="3"
          stroke-linejoin="round"
          stroke-linecap="round"
          d="M5 40 C 6.5 39.99, 8.5 39.97, 10 39.97 S 13.5 39.99, 15 39.99 S 18.53 40.31, 20 39.99 S 24.15 39.06, 25 37.82 S 28.5 25.48, 30 25.47 S 34.07 36.59, 35 37.76 S 38.8 38.92, 40 38.02 S 44.5 31.71, 45 30.3 S 48.58 9.52, 50 10 S 54.4 32.28, 55 33.66 S 58.5 33.06, 60 33.04 S 63.51 33.63, 65 33.5 S 68.52 32.41, 70 32.17 S 73.5 31.87, 75 31.91 S 78.5 32.38, 80 32.45 S 83.51 32.57, 85 32.38 S 88.71 31.96, 90 31.2 S 93.68 27.25, 95 26.53 S 98.52 26, 100 25.75 S 103.56 25.3, 105 24.87 S 108.51 22.53, 110 22.72 S 113.53 25.86, 115 26.14 S 118.52 24.86, 120 24.6 S 123.51 24.24, 125 24.38 S 128.5 25.6, 130 25.57 S 133.54 24.54, 135 24.18 S 138.5 23.23, 140 23.12 S 143.94 24.48, 145 23.42 S 148.55 13.55, 150 13.17 S 153.82 19.86, 155 20.79 S 158.54 21.43, 160 21.1 S 163.51 18.44, 165 18.57 S 168.55 22.36, 170 21.97 S 173.7 16.61, 175 15.85 S 178.5 16.01, 180 16.13 S 183.5 16.54, 185 16.65 S 188.5 16.88, 190 16.84 S 193.51 16.28, 195 16.4 S 198.66 18.34, 200 17.67 S 204.06 12.6, 205 11.43"
          fill="none"/>
    <circle r="4" cx="5" cy="40" fill="#3023AE"/>
    <circle r="4" cx="205" cy="11.43" fill="#C86DD7"/>      
</svg>