<svg width="200" height="50" viewBox="0 0 210 50" xmlns="http://www.w3.org/2000/svg">
    <defs>
        <linearGradient x1="0%" y1="0%" x2="100%" y2="0%" id="a">
            <stop stop-color="#3023AE" offset="0%"/>
            <stop stop-color="#C86DD7" offset="100%"/>
        </linearGradient>
    </defs>
    <path stroke="url(#a)"
          stroke-width="3"
          stroke-linejoin="round"
          stroke-linecap="round"
          d="M5 40 C 6.5 39.99, 8.5 39.97, 10 39.97 S 13.5 39.99, 15 39.99 S 18.54 40.33, 20 39.99 S 24.19 38.91, 25 37.65 S 28.5 24.32, 30 24.31 S 34.11 36.38, 35 37.59 S 38.83 38.81, 40 37.87 S 44.49 30.93, 45 29.52 S 48.57 9.55, 50 10 S 54.4 31.26, 55 32.64 S 58.5 32.93, 60 32.97 S 63.5 32.99, 65 32.91 S 68.5 32.57, 70 32.46 S 73.51 32.32, 75 32.15 S 78.5 31.33, 80 31.3 S 83.5 31.94, 85 31.97 S 88.53 31.76, 90 31.49 S 93.81 31.02, 95 30.11 S 98.65 24.55, 100 23.89 S 103.54 25.55, 105 25.23 S 108.51 21.84, 110 21.68 S 113.61 23.6, 115 24.17 S 118.51 25.91, 120 25.77 S 123.53 23.56, 125 23.25 S 128.51 23.48, 130 23.65 S 133.51 24.56, 135 24.41 S 138.51 22.8, 140 22.65 S 143.73 24.21, 145 23.41 S 148.76 17.22, 150 16.38 S 153.59 16.12, 155 16.64 S 158.58 19.55, 160 20.04 S 163.56 20.48, 165 20.08 S 168.51 17.1, 170 17.25 S 173.55 21.5, 175 21.11 S 178.73 15.34, 180 14.54 S 183.51 14.69, 185 14.85 S 188.5 15.55, 190 15.63 S 193.5 15.35, 195 15.38 S 198.5 15.9, 200 15.83 S 203.52 15.2, 205 14.93"
          fill="none"/>
    <circle r="4" cx="5" cy="40" fill="#3023AE"/>
    <circle r="4" cx="205" cy="14.93" fill="#C86DD7"/>      
</svg>