<svg width="200" height="50" viewBox="0 0 210 50" xmlns="http://www.w3.org/2000/svg">
    <defs>
        <linearGradient x1="0%" y1="0%" x2="100%" y2="0%" id="a">
            <stop stop-color="#3023AE" offset="0%"/>
            <stop stop-color="#C86DD7" offset="100%"/>
        </linearGradient>
    </defs>
    <path stroke="url(#a)"
          stroke-width="3"
          stroke-linejoin="round"
          stroke-linecap="round"
          d="M5 40 C 6.5 39.99, 8.5 39.98, 10 39.98 S 13.5 39.99, 15 39.99 S 18.51 40.2, 20 39.99 S 23.91 39.6, 25 38.57 S 28.5 30.48, 30 30.48 S 34.11 39.75, 35 38.54 S 38.59 17.34, 40 16.82 S 44.29 33.5, 45 34.82 S 48.5 35.42, 50 35.37 S 53.51 34.62, 55 34.48 S 58.5 34.53, 60 34.46 S 63.5 34.05, 65 34.01 S 68.5 34.19, 70 34.2 S 73.51 34.3, 75 34.11 S 78.67 33.65, 80 32.95 S 83.59 29.35, 85 28.85 S 88.55 29.8, 90 29.43 S 93.5 26.29, 95 26.3 S 98.53 29.22, 100 29.53 S 103.51 28.58, 105 28.43 S 108.5 28.44, 110 28.51 S 113.51 29.11, 115 28.9 S 118.51 27.25, 120 27.12 S 123.76 28.9, 125 28.06 S 128.53 20.7, 130 20.38 S 133.64 25.26, 135 25.89 S 138.5 25.09, 140 25.01 S 143.5 25.26, 145 25.37 S 148.66 26.41, 150 25.73 S 153.56 20.73, 155 20.32 S 158.55 22.54, 160 22.91 S 163.5 22.89, 165 22.87 S 168.5 22.76, 170 22.8 S 173.56 23.58, 175 23.15 S 178.51 19.94, 180 19.78 S 183.93 23.15, 185 22.1 S 188.55 10.37, 190 10 S 193.86 18.6, 195 19.58 S 198.5 18.67, 200 18.64 S 203.52 19.15, 205 19.37"
          fill="none"/>
    <circle r="4" cx="5" cy="40" fill="#3023AE"/>
    <circle r="4" cx="205" cy="19.37" fill="#C86DD7"/>      
</svg>