<svg width="200" height="50" viewBox="0 0 210 50" xmlns="http://www.w3.org/2000/svg">
    <defs>
        <linearGradient x1="0%" y1="0%" x2="100%" y2="0%" id="a">
            <stop stop-color="#3023AE" offset="0%"/>
            <stop stop-color="#C86DD7" offset="100%"/>
        </linearGradient>
    </defs>
    <path stroke="url(#a)"
          stroke-width="3"
          stroke-linejoin="round"
          stroke-linecap="round"
          d="M5 40 C 6.5 39.99, 8.5 39.98, 10 39.98 S 13.5 39.99, 15 39.99 S 18.52 40.26, 20 39.99 S 23.61 38.73, 25 38.16 S 28.74 36.68, 30 35.87 S 33.54 31.44, 35 31.77 S 38.75 37.27, 40 38.09 S 44.5 39.74, 45 38.33 S 48.6 10.55, 50 10 S 54.45 33.02, 55 34.41 S 58.5 35.23, 60 35.17 S 63.5 34.08, 65 34.04 S 68.5 34.91, 70 34.88 S 73.51 34.01, 75 33.82 S 78.5 33.63, 80 33.62 S 83.5 33.67, 85 33.73 S 88.5 34.09, 90 34.04 S 93.6 33.97, 95 33.42 S 98.62 30.72, 100 30.14 S 103.51 29.43, 105 29.25 S 108.63 29.52, 110 28.9 S 113.5 24.73, 115 24.72 S 118.64 28.21, 120 28.84 S 123.52 29.59, 125 29.33 S 128.52 27.32, 130 27.05 S 133.51 27.34, 135 27.53 S 138.5 28.38, 140 28.35 S 143.53 27.62, 145 27.34 S 148.5 26.4, 150 26.42 S 153.79 28.37, 155 27.48 S 158.66 19.69, 160 19.02 S 163.8 21.56, 165 22.46 S 168.5 26.61, 170 26.56 S 173.53 22.4, 175 22.1 S 178.53 24.25, 180 24.54 S 183.67 24.74, 185 24.04 S 188.55 19.65, 190 19.27 S 193.52 21.18, 195 21.4 S 198.5 20.87, 200 20.77 S 203.5 20.73, 205 20.71"
          fill="none"/>
    <circle r="4" cx="5" cy="40" fill="#3023AE"/>
    <circle r="4" cx="205" cy="20.71" fill="#C86DD7"/>      
</svg>