<svg width="200" height="50" viewBox="0 0 210 50" xmlns="http://www.w3.org/2000/svg">
    <defs>
        <linearGradient x1="0%" y1="0%" x2="100%" y2="0%" id="a">
            <stop stop-color="#3023AE" offset="0%"/>
            <stop stop-color="#C86DD7" offset="100%"/>
        </linearGradient>
    </defs>
    <path stroke="url(#a)"
          stroke-width="3"
          stroke-linejoin="round"
          stroke-linecap="round"
          d="M5 40 C 6.5 39.99, 8.5 39.98, 10 39.98 S 13.5 39.99, 15 39.99 S 18.52 40.26, 20 39.99 S 23.61 38.73, 25 38.16 S 28.74 36.68, 30 35.87 S 33.54 31.45, 35 31.77 S 38.75 37.26, 40 38.08 S 44.5 39.74, 45 38.33 S 48.6 10.55, 50 10 S 54.45 33.04, 55 34.43 S 58.5 35.2, 60 35.15 S 63.5 34.15, 65 34.11 S 68.5 34.93, 70 34.88 S 73.51 33.96, 75 33.79 S 78.5 33.79, 80 33.76 S 83.5 33.51, 85 33.56 S 88.5 34.09, 90 34.07 S 93.6 33.95, 95 33.41 S 98.61 30.77, 100 30.2 S 103.51 29.45, 105 29.26 S 108.63 29.52, 110 28.91 S 113.5 24.85, 115 24.84 S 118.63 28.24, 120 28.84 S 123.52 29.49, 125 29.23 S 128.52 27.33, 130 27.08 S 133.51 27.35, 135 27.54 S 138.5 28.37, 140 28.35 S 143.53 27.73, 145 27.43 S 148.5 26.25, 150 26.28 S 153.79 28.5, 155 27.62 S 158.67 19.74, 160 19.04 S 163.81 21.43, 165 22.34 S 168.5 26.74, 170 26.7 S 173.54 22.43, 175 22.1 S 178.53 24.16, 180 24.45 S 183.67 24.78, 185 24.09 S 188.55 19.63, 190 19.25 S 193.52 21.23, 195 21.47 S 198.51 21, 200 20.86 S 203.5 20.63, 205 20.53"
          fill="none"/>
    <circle r="4" cx="5" cy="40" fill="#3023AE"/>
    <circle r="4" cx="205" cy="20.53" fill="#C86DD7"/>      
</svg>