<svg width="200" height="50" viewBox="0 0 210 50" xmlns="http://www.w3.org/2000/svg">
    <defs>
        <linearGradient x1="0%" y1="0%" x2="100%" y2="0%" id="a">
            <stop stop-color="#3023AE" offset="0%"/>
            <stop stop-color="#C86DD7" offset="100%"/>
        </linearGradient>
    </defs>
    <path stroke="url(#a)"
          stroke-width="3"
          stroke-linejoin="round"
          stroke-linecap="round"
          d="M5 40 C 6.5 39.98, 8.5 39.96, 10 39.92 S 13.5 39.71, 15 39.71 S 18.5 39.94, 20 39.92 S 23.9 40.6, 25 39.58 S 28.72 31.43, 30 30.64 S 33.58 32.92, 35 33.4 S 38.58 34.52, 40 34.03 S 43.81 30.85, 45 29.93 S 48.59 26.82, 50 26.3 S 53.5 26.26, 55 26.21 S 58.59 26.46, 60 25.96 S 64.2 23.93, 65 22.66 S 68.7 10.79, 70 10.04 S 73.62 16.26, 75 16.85 S 78.76 15.2, 80 14.35 S 83.51 10.13, 85 10 S 88.54 13.14, 90 13.47 S 93.51 12.39, 95 12.26 S 98.51 12.46, 100 12.63 S 103.5 13.39, 105 13.38 S 108.5 12.6, 110 12.59 S 113.52 13.03, 115 13.3 S 118.56 14.81, 120 14.39 S 123.5 10.39, 125 10.42 S 128.68 13.88, 130 14.6 S 133.7 15.1, 135 15.85 S 138.57 19.94, 140 20.4 S 143.51 19.21, 145 19.07 S 148.5 19.46, 150 19.48 S 153.52 19.46, 155 19.23 S 158.5 17.83, 160 17.9 S 163.59 19.19, 165 19.69 S 168.51 21.27, 170 21.45 S 173.53 20.59, 175 20.91 S 178.5 23.59, 180 23.62 S 183.51 20.94, 185 21.11 S 188.5 24.76, 190 24.79 S 193.5 21.22, 195 21.32 S 198.65 24.8, 200 25.46 S 203.52 26.02, 205 26.25"
          fill="none"/>
    <circle r="4" cx="5" cy="40" fill="#3023AE"/>
    <circle r="4" cx="205" cy="26.25" fill="#C86DD7"/>      
</svg>