<svg width="200" height="50" viewBox="0 0 210 50" xmlns="http://www.w3.org/2000/svg">
    <defs>
        <linearGradient x1="0%" y1="0%" x2="100%" y2="0%" id="a">
            <stop stop-color="#3023AE" offset="0%"/>
            <stop stop-color="#C86DD7" offset="100%"/>
        </linearGradient>
    </defs>
    <path stroke="url(#a)"
          stroke-width="3"
          stroke-linejoin="round"
          stroke-linecap="round"
          d="M5 40 C 6.44 39.57, 8.63 39.12, 10 38.5 S 14.37 36.86, 15 35.5 S 18.58 16.5, 20 17 S 24.39 37.63, 25 39 S 28.5 39.5, 30 39.5 S 33.5 39.07, 35 39 S 38.52 39.22, 40 39 S 43.5 37.57, 45 37.5 S 48.53 38.21, 50 38.5 S 53.51 39.35, 55 39.5 S 58.5 39.5, 60 39.5 S 63.5 39.5, 65 39.5 S 68.5 39.5, 70 39.5 S 74.02 40.63, 75 39.5 S 78.66 28.67, 80 28 S 84.06 35.67, 85 34.5 S 88.71 16.27, 90 15.5 S 94.24 27.21, 95 28.5 S 98.77 31.64, 100 32.5 S 103.61 34.94, 105 35.5 S 108.52 36.28, 110 36.5 S 113.5 36.93, 115 37 S 118.51 37.15, 120 37 S 123.53 36.29, 125 36 S 128.53 35.29, 130 35 S 133.71 34.77, 135 34 S 139.42 30.38, 140 29 S 143.58 10.5, 145 10 S 149.04 24.35, 150 25.5 S 153.77 21.14, 155 22 S 159.04 31.35, 160 32.5 S 163.56 33.57, 165 34 S 168.53 35.79, 170 35.5 S 173.51 31.85, 175 32 S 178.61 35.94, 180 36.5 S 183.53 35.71, 185 36 S 188.52 38.28, 190 38.5 S 193.5 37.57, 195 37.5 S 198.5 38.07, 200 38 S 203.53 37.29, 205 37"
          fill="none"/>
    <circle r="4" cx="5" cy="40" fill="#3023AE"/>
    <circle r="4" cx="205" cy="37" fill="#C86DD7"/>      
</svg>