<svg width="200" height="50" viewBox="0 0 210 50" xmlns="http://www.w3.org/2000/svg">
    <defs>
        <linearGradient x1="0%" y1="0%" x2="100%" y2="0%" id="a">
            <stop stop-color="#3023AE" offset="0%"/>
            <stop stop-color="#C86DD7" offset="100%"/>
        </linearGradient>
    </defs>
    <path stroke="url(#a)"
          stroke-width="3"
          stroke-linejoin="round"
          stroke-linecap="round"
          d="M5 40 C 5.25 38.52, 8.57 10.45, 10 10 S 14.43 35.45, 15 36.84 S 18.5 34.22, 20 34.34 S 23.56 37.22, 25 37.65 S 28.5 37.45, 30 37.35 S 33.5 36.92, 35 36.99 S 38.53 38.09, 40 37.79 S 43.5 34.97, 45 34.93 S 48.58 37.02, 50 37.5 S 53.52 38.08, 55 38.31 S 58.51 38.88, 60 39.04 S 63.5 39.39, 65 39.41 S 68.5 39.27, 70 39.19 S 73.5 38.94, 75 38.9 S 78.5 38.87, 80 38.9 S 83.5 39, 85 39.12 S 88.5 39.64, 90 39.71 S 93.5 39.65, 95 39.56 S 98.5 39.16, 100 39.12 S 103.5 39.22, 105 39.26 S 108.5 39.44, 110 39.41 S 113.5 38.98, 115 39.04 S 118.5 39.68, 120 39.78 S 123.5 39.74, 125 39.71 S 128.5 39.62, 130 39.56 S 133.52 39.57, 135 39.34 S 138.5 37.95, 140 38.01 S 143.51 39.51, 145 39.71 S 148.5 39.34, 150 39.34 S 153.5 39.65, 155 39.71 S 158.5 39.79, 160 39.71 S 163.5 39.19, 165 39.19 S 168.5 39.65, 170 39.71 S 173.5 39.58, 175 39.56 S 178.5 39.6, 180 39.56 S 183.5 39.28, 185 39.26 S 188.5 39.39, 190 39.41 S 193.5 39.39, 195 39.41 S 198.5 39.53, 200 39.56 S 203.5 39.61, 205 39.63"
          fill="none"/>
    <circle r="4" cx="5" cy="40" fill="#3023AE"/>
    <circle r="4" cx="205" cy="39.63" fill="#C86DD7"/>      
</svg>