<svg width="200" height="50" viewBox="0 0 210 50" xmlns="http://www.w3.org/2000/svg">
    <defs>
        <linearGradient x1="0%" y1="0%" x2="100%" y2="0%" id="a">
            <stop stop-color="#3023AE" offset="0%"/>
            <stop stop-color="#C86DD7" offset="100%"/>
        </linearGradient>
    </defs>
    <path stroke="url(#a)"
          stroke-width="3"
          stroke-linejoin="round"
          stroke-linecap="round"
          d="M5 40 C 6.44 39.59, 8.52 38.78, 10 38.57 S 13.5 38.57, 15 38.57 S 18.5 38.57, 20 38.57 S 23.5 38.57, 25 38.57 S 28.5 38.57, 30 38.57 S 34.19 39.84, 35 38.57 S 39.08 24.04, 40 22.86 S 44.01 24.58, 45 25.71 S 49.08 33.11, 50 34.29 S 53.62 37.98, 55 38.57 S 59.08 39.75, 60 38.57 S 63.78 26.58, 65 25.71 S 68.94 30.37, 70 31.43 S 73.62 35.12, 75 35.71 S 78.52 35.5, 80 35.71 S 83.56 36.73, 85 37.14 S 89.08 39.75, 90 38.57 S 93.56 24.7, 95 24.29 S 99.01 34.58, 100 35.71 S 103.62 36.3, 105 35.71 S 108.56 31.02, 110 31.43 S 113.7 37.83, 115 38.57 S 119.5 38.56, 120 37.14 S 123.94 11.06, 125 10 S 129.33 25.8, 130 27.14 S 133.94 28.94, 135 30 S 138.86 36.16, 140 37.14 S 143.52 38.36, 145 38.57 S 148.52 38.78, 150 38.57 S 153.7 37.88, 155 37.14 S 158.5 32.86, 160 32.86 S 163.62 36.55, 165 37.14 S 168.94 38.2, 170 37.14 S 173.62 27.73, 175 27.14 S 179.01 31.73, 180 32.86 S 183.7 37.83, 185 38.57 S 188.5 38.57, 190 38.57 S 193.5 38.57, 195 38.57 S 198.5 38.57, 200 38.57 S 203.5 38.57, 205 38.57"
          fill="none"/>
    <circle r="4" cx="5" cy="40" fill="#3023AE"/>
    <circle r="4" cx="205" cy="38.57" fill="#C86DD7"/>      
</svg>