<svg width="200" height="50" viewBox="0 0 210 50" xmlns="http://www.w3.org/2000/svg">
    <defs>
        <linearGradient x1="0%" y1="0%" x2="100%" y2="0%" id="a">
            <stop stop-color="#3023AE" offset="0%"/>
            <stop stop-color="#C86DD7" offset="100%"/>
        </linearGradient>
    </defs>
    <path stroke="url(#a)"
          stroke-width="3"
          stroke-linejoin="round"
          stroke-linecap="round"
          d="M5 40 C 6.46 39.65, 8.52 39.06, 10 38.79 S 13.5 38.2, 15 38.2 S 18.54 39.08, 20 38.76 S 23.67 36.69, 25 36 S 29.46 34.98, 30 33.58 S 33.88 10.99, 35 10 S 39.34 23.37, 40 24.72 S 43.61 30, 45 30.57 S 48.5 28.92, 50 28.8 S 53.5 29.7, 55 29.79 S 58.54 29.04, 60 29.39 S 63.51 32, 65 32.16 S 68.5 30.47, 70 30.47 S 73.52 31.92, 75 32.18 S 78.75 33.04, 80 32.21 S 83.82 26.43, 85 25.5 S 88.5 24.47, 90 24.37 S 93.76 23.95, 95 24.8 S 98.77 30.33, 100 31.19 S 103.5 31.67, 105 31.75 S 108.5 31.74, 110 31.73 S 113.5 31.6, 115 31.7 S 118.51 32.25, 120 32.43 S 123.69 33.61, 125 32.88 S 128.5 26.84, 130 26.81 S 133.69 31.94, 135 32.67 S 138.5 32.27, 140 32.35 S 143.51 33.05, 145 33.21 S 148.52 33.17, 150 33.42 S 153.5 34.83, 155 34.92 S 158.52 34.29, 160 34.04 S 163.54 33.54, 165 33.21 S 168.57 32.21, 170 31.75 S 173.5 30, 175 29.96 S 178.56 31.06, 180 31.49 S 183.51 32.82, 185 32.99 S 188.51 32.73, 190 32.61 S 193.5 32.14, 195 32.16 S 198.5 32.71, 200 32.72 S 203.51 32.4, 205 32.26"
          fill="none"/>
    <circle r="4" cx="5" cy="40" fill="#3023AE"/>
    <circle r="4" cx="205" cy="32.26" fill="#C86DD7"/>      
</svg>