<svg width="200" height="50" viewBox="0 0 210 50" xmlns="http://www.w3.org/2000/svg">
    <defs>
        <linearGradient x1="0%" y1="0%" x2="100%" y2="0%" id="a">
            <stop stop-color="#3023AE" offset="0%"/>
            <stop stop-color="#C86DD7" offset="100%"/>
        </linearGradient>
    </defs>
    <path stroke="url(#a)"
          stroke-width="3"
          stroke-linejoin="round"
          stroke-linecap="round"
          d="M5 40 C 5.79 38.73, 8.53 32.29, 10 32 S 13.71 37.23, 15 38 S 18.5 38, 20 38 S 23.5 38, 25 38 S 28.5 38, 30 38 S 33.5 38, 35 38 S 38.5 38, 40 38 S 43.5 38, 45 38 S 48.5 38, 50 38 S 53.5 38, 55 38 S 59.5 39.41, 60 38 S 63.53 10.29, 65 10 S 69.5 34.59, 70 36 S 73.5 38, 75 38 S 78.5 36, 80 36 S 83.53 37.71, 85 38 S 88.5 38, 90 38 S 93.53 38.29, 95 38 S 98.5 36, 100 36 S 103.61 38.56, 105 38 S 108.5 32, 110 32 S 113.71 37.23, 115 38 S 118.61 38.56, 120 38 S 123.53 34.29, 125 34 S 128.53 35.71, 130 36 S 133.53 35.71, 135 36 S 138.53 37.71, 140 38 S 143.5 38, 145 38 S 148.5 38, 150 38 S 153.5 38, 155 38 S 158.5 38, 160 38 S 163.53 38.29, 165 38 S 168.71 36.77, 170 36 S 173.53 31.71, 175 32 S 178.71 37.23, 180 38 S 183.61 38.56, 185 38 S 188.5 34, 190 34 S 193.53 37.71, 195 38 S 198.5 36, 200 36 S 203.61 37.44, 205 38"
          fill="none"/>
    <circle r="4" cx="5" cy="40" fill="#3023AE"/>
    <circle r="4" cx="205" cy="38" fill="#C86DD7"/>      
</svg>