<svg width="200" height="50" viewBox="0 0 210 50" xmlns="http://www.w3.org/2000/svg">
    <defs>
        <linearGradient x1="0%" y1="0%" x2="100%" y2="0%" id="a">
            <stop stop-color="#3023AE" offset="0%"/>
            <stop stop-color="#C86DD7" offset="100%"/>
        </linearGradient>
    </defs>
    <path stroke="url(#a)"
          stroke-width="3"
          stroke-linejoin="round"
          stroke-linecap="round"
          d="M5 40 C 6.5 39.91, 8.5 39.74, 10 39.7 S 13.5 39.7, 15 39.7 S 19.52 41.12, 20 39.7 S 24.06 11.17, 25 10 S 28.9 26.21, 30 27.23 S 33.5 19.17, 35 19.21 S 39.13 26.3, 40 27.52 S 43.69 32.43, 45 33.17 S 48.62 33.75, 50 33.17 S 53.63 29.62, 55 29.01 S 58.63 28.1, 60 28.71 S 63.65 32.83, 65 33.47 S 68.5 33.47, 70 33.47 S 73.94 34.54, 75 33.47 S 78.55 23.76, 80 23.37 S 83.96 29.71, 85 30.79 S 88.51 33.58, 90 33.76 S 93.52 31.72, 95 31.98 S 98.53 35.23, 100 35.54 S 103.54 33.71, 105 34.06 S 108.5 37.88, 110 37.92 S 113.98 35.46, 115 34.36 S 118.55 27.62, 120 27.23 S 123.56 31.25, 125 31.68 S 128.55 29.81, 130 30.2 S 133.65 33.72, 135 34.36 S 138.51 35.08, 140 34.95 S 143.59 33.97, 145 33.47 S 148.59 31.89, 150 31.39 S 153.5 29.86, 155 29.9 S 158.62 31.1, 160 31.68 S 163.5 34.06, 165 34.06 S 168.51 31.81, 170 31.68 S 173.5 33.08, 175 33.17 S 178.76 33.13, 180 32.28 S 183.5 26.38, 185 26.34 S 188.69 31.24, 190 31.98 S 193.5 31.89, 195 31.98 S 198.51 32.75, 200 32.57 S 203.59 31.29, 205 30.79"
          fill="none"/>
    <circle r="4" cx="5" cy="40" fill="#3023AE"/>
    <circle r="4" cx="205" cy="30.79" fill="#C86DD7"/>      
</svg>