<svg width="200" height="50" viewBox="0 0 210 50" xmlns="http://www.w3.org/2000/svg">
    <defs>
        <linearGradient x1="0%" y1="0%" x2="100%" y2="0%" id="a">
            <stop stop-color="#3023AE" offset="0%"/>
            <stop stop-color="#C86DD7" offset="100%"/>
        </linearGradient>
    </defs>
    <path stroke="url(#a)"
          stroke-width="3"
          stroke-linejoin="round"
          stroke-linecap="round"
          d="M5 40 C 6.49 39.79, 8.51 39.45, 10 39.29 S 13.5 38.94, 15 38.94 S 18.5 39.18, 20 39.29 S 23.5 39.6, 25 39.65 S 28.5 39.65, 30 39.65 S 33.5 39.65, 35 39.65 S 38.5 39.65, 40 39.65 S 43.5 39.65, 45 39.65 S 48.5 39.65, 50 39.65 S 53.5 39.65, 55 39.65 S 58.5 39.65, 60 39.65 S 63.5 39.65, 65 39.65 S 68.5 39.65, 70 39.65 S 73.5 39.65, 75 39.65 S 78.5 39.65, 80 39.65 S 83.5 39.65, 85 39.65 S 88.5 39.65, 90 39.65 S 93.5 39.65, 95 39.65 S 98.5 39.65, 100 39.65 S 103.5 39.65, 105 39.65 S 108.5 39.65, 110 39.65 S 113.5 39.65, 115 39.65 S 118.5 39.65, 120 39.65 S 123.5 39.65, 125 39.65 S 128.5 39.65, 130 39.65 S 134.52 41.07, 135 39.65 S 138.67 10.7, 140 10 S 144.21 33.07, 145 34.35 S 148.53 25.93, 150 26.24 S 154.04 35.32, 155 36.47 S 158.53 37.93, 160 38.24 S 163.97 39.68, 165 38.59 S 168.51 27.81, 170 27.65 S 173.89 36.52, 175 37.53 S 178.52 36.56, 180 36.82 S 183.53 38.98, 185 39.29 S 188.5 39.04, 190 38.94 S 193.5 38.48, 195 38.59 S 198.5 39.7, 200 39.65 S 203.56 38.65, 205 38.24"
          fill="none"/>
    <circle r="4" cx="5" cy="40" fill="#3023AE"/>
    <circle r="4" cx="205" cy="38.24" fill="#C86DD7"/>      
</svg>