<svg width="200" height="50" viewBox="0 0 210 50" xmlns="http://www.w3.org/2000/svg">
    <defs>
        <linearGradient x1="0%" y1="0%" x2="100%" y2="0%" id="a">
            <stop stop-color="#3023AE" offset="0%"/>
            <stop stop-color="#C86DD7" offset="100%"/>
        </linearGradient>
    </defs>
    <path stroke="url(#a)"
          stroke-width="3"
          stroke-linejoin="round"
          stroke-linecap="round"
          d="M5 40 C 6.5 40, 8.5 39.99, 10 39.99 S 13.5 39.99, 15 39.99 S 18.5 39.99, 20 39.99 S 23.5 39.99, 25 39.99 S 28.5 39.99, 30 39.99 S 33.5 39.99, 35 39.99 S 38.5 40, 40 39.99 S 43.6 40.42, 45 39.89 S 48.58 36.72, 50 36.25 S 53.52 36.33, 55 36.59 S 58.52 37.79, 60 38.02 S 63.52 38.33, 65 38.11 S 68.5 36.62, 70 36.57 S 73.51 37.56, 75 37.75 S 78.5 37.96, 80 37.87 S 83.5 37.16, 85 37.16 S 88.53 37.58, 90 37.87 S 93.51 38.94, 95 39.11 S 98.5 39.05, 100 39.02 S 103.5 38.87, 105 38.89 S 108.5 39.14, 110 39.18 S 113.5 39.17, 115 39.17 S 118.5 39.12, 120 39.16 S 123.5 39.34, 125 39.41 S 128.5 39.56, 130 39.61 S 133.5 39.74, 135 39.73 S 138.5 39.52, 140 39.51 S 143.5 39.64, 145 39.68 S 148.5 39.81, 150 39.8 S 153.5 39.59, 155 39.61 S 158.5 39.86, 160 39.91 S 163.5 39.96, 165 39.93 S 168.5 39.78, 170 39.74 S 173.5 39.68, 175 39.67 S 178.5 39.64, 180 39.65 S 183.5 39.74, 185 39.76 S 188.5 39.78, 190 39.76 S 193.92 40.66, 195 39.62 S 199.52 31.57, 200 30.15 S 204.64 11.46, 205 10"
          fill="none"/>
    <circle r="4" cx="5" cy="40" fill="#3023AE"/>
    <circle r="4" cx="205" cy="10" fill="#C86DD7"/>      
</svg>