<svg width="200" height="50" viewBox="0 0 210 50" xmlns="http://www.w3.org/2000/svg">
    <defs>
        <linearGradient x1="0%" y1="0%" x2="100%" y2="0%" id="a">
            <stop stop-color="#3023AE" offset="0%"/>
            <stop stop-color="#C86DD7" offset="100%"/>
        </linearGradient>
    </defs>
    <path stroke="url(#a)"
          stroke-width="3"
          stroke-linejoin="round"
          stroke-linecap="round"
          d="M5 40 C 5.25 38.52, 8.59 10.52, 10 10 S 14.49 34.86, 15 36.27 S 18.52 37.54, 20 37.8 S 23.5 38.07, 25 38.06 S 28.5 37.75, 30 37.71 S 33.5 37.83, 35 37.8 S 38.9 38.56, 40 37.54 S 43.55 28.84, 45 28.46 S 48.78 34.05, 50 34.92 S 53.5 35.45, 55 35.55 S 58.51 35.43, 60 35.62 S 63.53 36.57, 65 36.86 S 68.5 37.55, 70 37.62 S 73.5 37.35, 75 37.3 S 78.5 37.29, 80 37.29 S 83.5 37.41, 85 37.3 S 88.61 37.09, 90 36.53 S 93.5 33.36, 95 33.3 S 98.53 35.8, 100 36.12 S 103.5 35.54, 105 35.46 S 108.52 35.85, 110 35.61 S 113.5 33.88, 115 33.87 S 118.51 35.38, 120 35.55 S 123.5 35.08, 125 35 S 128.5 35.12, 130 35.02 S 133.5 34.4, 135 34.31 S 138.51 34.52, 140 34.39 S 143.5 33.4, 145 33.46 S 148.52 34.99, 150 34.76 S 153.94 32.94, 155 31.88 S 159.28 26.13, 160 24.81 S 163.51 13.28, 165 13.47 S 168.74 25.27, 170 26.08 S 173.54 20.26, 175 19.9 S 178.53 23.36, 180 23.64 S 183.64 21.16, 185 21.78 S 188.81 27.31, 190 28.22 S 193.5 29.49, 195 29.44 S 198.7 28.63, 200 27.89 S 203.84 24.72, 205 23.77"
          fill="none"/>
    <circle r="4" cx="5" cy="40" fill="#3023AE"/>
    <circle r="4" cx="205" cy="23.77" fill="#C86DD7"/>      
</svg>