<svg width="200" height="50" viewBox="0 0 210 50" xmlns="http://www.w3.org/2000/svg">
    <defs>
        <linearGradient x1="0%" y1="0%" x2="100%" y2="0%" id="a">
            <stop stop-color="#3023AE" offset="0%"/>
            <stop stop-color="#C86DD7" offset="100%"/>
        </linearGradient>
    </defs>
    <path stroke="url(#a)"
          stroke-width="3"
          stroke-linejoin="round"
          stroke-linecap="round"
          d="M5 40 C 5.25 38.52, 8.56 10.42, 10 10 S 14.48 35.65, 15 37.06 S 18.51 36.95, 20 37.15 S 23.5 38.32, 25 38.42 S 28.5 37.91, 30 37.82 S 33.5 37.81, 35 37.81 S 38.5 37.78, 40 37.82 S 43.91 39.13, 45 38.1 S 48.55 28.84, 50 28.45 S 53.8 34.49, 55 35.39 S 58.51 35.84, 60 36 S 63.5 36.46, 65 36.48 S 68.51 35.99, 70 36.15 S 73.52 37.32, 75 37.54 S 78.5 37.64, 80 37.66 S 83.5 37.74, 85 37.68 S 88.5 37.28, 90 37.28 S 93.5 37.68, 95 37.66 S 98.61 37.72, 100 37.15 S 103.51 33.7, 105 33.53 S 108.56 35.59, 110 36.02 S 113.5 36.65, 115 36.56 S 118.52 35.68, 120 35.42 S 123.5 34.79, 125 34.79 S 128.51 35.22, 130 35.42 S 133.5 36.1, 135 36.11 S 138.5 35.56, 140 35.48 S 143.51 35.73, 145 35.57 S 148.5 34.43, 150 34.38 S 153.5 35.34, 155 35.24 S 158.5 33.69, 160 33.68 S 163.51 35.04, 165 35.2 S 168.59 35.23, 170 34.72 S 173.92 32.63, 175 31.59 S 179.28 26.4, 180 25.08 S 183.54 12.96, 185 13.31 S 189.1 26.3, 190 27.5 S 193.91 27.77, 195 26.74 S 198.67 18.68, 200 17.98 S 203.77 20.63, 205 21.49"
          fill="none"/>
    <circle r="4" cx="5" cy="40" fill="#3023AE"/>
    <circle r="4" cx="205" cy="21.49" fill="#C86DD7"/>      
</svg>