<svg width="200" height="50" viewBox="0 0 210 50" xmlns="http://www.w3.org/2000/svg">
    <defs>
        <linearGradient x1="0%" y1="0%" x2="100%" y2="0%" id="a">
            <stop stop-color="#3023AE" offset="0%"/>
            <stop stop-color="#C86DD7" offset="100%"/>
        </linearGradient>
    </defs>
    <path stroke="url(#a)"
          stroke-width="3"
          stroke-linejoin="round"
          stroke-linecap="round"
          d="M5 40 C 6.5 39.95, 9.53 41.26, 10 39.84 S 13.54 10.35, 15 10 S 19.41 36.09, 20 37.47 S 23.76 34.37, 25 33.53 S 28.51 30.89, 30 30.68 S 33.5 32.11, 35 32.11 S 38.86 31.65, 40 30.68 S 43.76 24.42, 45 23.58 S 48.63 24.5, 50 23.89 S 53.54 19.5, 55 19.16 S 58.5 21.41, 60 21.53 S 63.61 20.52, 65 19.95 S 68.5 17.49, 70 17.42 S 73.56 19.06, 75 19.47 S 78.6 19.73, 80 20.26 S 83.54 22.94, 85 23.26 S 88.5 22.47, 90 22.47 S 93.53 23.54, 95 23.26 S 98.64 21.2, 100 20.58 S 103.51 18.85, 105 18.68 S 108.5 19.47, 110 19.47 S 113.51 18.49, 115 18.68 S 118.5 20.81, 120 20.74 S 123.64 18.85, 125 18.21 S 128.5 16.05, 130 16 S 133.6 17.34, 135 17.89 S 138.5 19.83, 140 19.95 S 143.51 18.89, 145 18.68 S 148.53 18.25, 150 18.53 S 153.73 19.78, 155 20.58 S 158.58 24.37, 160 24.84 S 163.52 23.66, 165 23.89 S 168.6 26.95, 170 26.42 S 173.73 20.91, 175 20.11 S 178.58 19.64, 180 20.11 S 183.55 23.03, 185 23.42 S 188.57 23.24, 190 22.79 S 193.55 19.87, 195 20.26 S 198.51 25.33, 200 25.47 S 203.86 22.18, 205 21.21"
          fill="none"/>
    <circle r="4" cx="5" cy="40" fill="#3023AE"/>
    <circle r="4" cx="205" cy="21.21" fill="#C86DD7"/>      
</svg>