<svg width="200" height="50" viewBox="0 0 210 50" xmlns="http://www.w3.org/2000/svg">
    <defs>
        <linearGradient x1="0%" y1="0%" x2="100%" y2="0%" id="a">
            <stop stop-color="#3023AE" offset="0%"/>
            <stop stop-color="#C86DD7" offset="100%"/>
        </linearGradient>
    </defs>
    <path stroke="url(#a)"
          stroke-width="3"
          stroke-linejoin="round"
          stroke-linecap="round"
          d="M5 40 C 5.25 38.52, 8.6 10.53, 10 10 S 14.47 34.85, 15 36.25 S 18.5 36.25, 20 36.25 S 23.5 36.25, 25 36.25 S 28.5 36.25, 30 36.25 S 33.5 36.25, 35 36.25 S 38.6 36.78, 40 36.25 S 43.6 33.03, 45 32.5 S 48.5 32.5, 50 32.5 S 53.6 33.03, 55 32.5 S 58.5 28.75, 60 28.75 S 63.6 33.03, 65 32.5 S 68.6 24.47, 70 25 S 73.8 35.35, 75 36.25 S 78.5 32.5, 80 32.5 S 83.5 36.25, 85 36.25 S 88.6 33.03, 90 32.5 S 93.6 33.03, 95 32.5 S 98.6 29.28, 100 28.75 S 103.8 27.85, 105 28.75 S 108.5 36.25, 110 36.25 S 113.5 28.75, 115 28.75 S 118.8 35.35, 120 36.25 S 123.5 36.25, 125 36.25 S 128.8 37.15, 130 36.25 S 133.5 28.75, 135 28.75 S 138.8 35.35, 140 36.25 S 143.5 36.25, 145 36.25 S 148.5 36.25, 150 36.25 S 153.5 36.25, 155 36.25 S 158.5 36.25, 160 36.25 S 163.6 36.78, 165 36.25 S 168.5 32.5, 170 32.5 S 173.6 35.72, 175 36.25 S 178.5 36.25, 180 36.25 S 183.5 36.25, 185 36.25 S 188.5 36.25, 190 36.25 S 193.8 37.15, 195 36.25 S 198.6 29.28, 200 28.75 S 203.8 31.6, 205 32.5"
          fill="none"/>
    <circle r="4" cx="5" cy="40" fill="#3023AE"/>
    <circle r="4" cx="205" cy="32.5" fill="#C86DD7"/>      
</svg>