<svg width="200" height="50" viewBox="0 0 210 50" xmlns="http://www.w3.org/2000/svg">
    <defs>
        <linearGradient x1="0%" y1="0%" x2="100%" y2="0%" id="a">
            <stop stop-color="#3023AE" offset="0%"/>
            <stop stop-color="#C86DD7" offset="100%"/>
        </linearGradient>
    </defs>
    <path stroke="url(#a)"
          stroke-width="3"
          stroke-linejoin="round"
          stroke-linecap="round"
          d="M5 40 C 6.3 39.26, 8.5 37.25, 10 37.14 S 13.53 38.97, 15 39.29 S 18.5 39.29, 20 39.29 S 23.5 39.29, 25 39.29 S 28.5 39.29, 30 39.29 S 33.5 39.29, 35 39.29 S 38.5 39.29, 40 39.29 S 43.5 39.29, 45 39.29 S 48.5 39.29, 50 39.29 S 53.5 39.29, 55 39.29 S 58.5 39.29, 60 39.29 S 63.5 39.29, 65 39.29 S 68.5 39.29, 70 39.29 S 73.5 39.29, 75 39.29 S 78.5 39.29, 80 39.29 S 83.5 39.29, 85 39.29 S 88.5 39.29, 90 39.29 S 93.5 39.29, 95 39.29 S 98.5 39.29, 100 39.29 S 104.52 40.71, 105 39.29 S 108.74 10.81, 110 10 S 114.48 31.45, 115 32.86 S 118.5 37.14, 120 37.14 S 123.5 32.97, 125 32.86 S 129.19 37.7, 130 36.43 S 133.62 17.73, 135 17.14 S 139.11 30.93, 140 32.14 S 143.7 31.45, 145 30.71 S 148.66 27.1, 150 26.43 S 153.59 25.21, 155 25.71 S 158.56 30.41, 160 30 S 163.5 22.75, 165 22.86 S 168.66 30.04, 170 30.71 S 174.17 29.11, 175 27.86 S 178.5 15.82, 180 15.71 S 183.62 27.73, 185 27.14 S 189.17 12.68, 190 11.43 S 194.01 11.01, 195 12.14 S 198.56 22.45, 200 22.86 S 204.19 16.27, 205 15"
          fill="none"/>
    <circle r="4" cx="5" cy="40" fill="#3023AE"/>
    <circle r="4" cx="205" cy="15" fill="#C86DD7"/>      
</svg>