<svg width="200" height="50" viewBox="0 0 210 50" xmlns="http://www.w3.org/2000/svg">
    <defs>
        <linearGradient x1="0%" y1="0%" x2="100%" y2="0%" id="a">
            <stop stop-color="#3023AE" offset="0%"/>
            <stop stop-color="#C86DD7" offset="100%"/>
        </linearGradient>
    </defs>
    <path stroke="url(#a)"
          stroke-width="3"
          stroke-linejoin="round"
          stroke-linecap="round"
          d="M5 40 C 6.25 39.18, 9.53 38.14, 10 36.72 S 13.5 9.91, 15 10 S 19.44 35.96, 20 37.35 S 23.5 34.61, 25 34.71 S 28.57 37.58, 30 38.03 S 33.55 38.21, 35 37.82 S 38.6 35.89, 40 35.34 S 43.52 33.68, 45 33.91 S 48.55 37.27, 50 36.89 S 53.5 31.26, 55 31.3 S 58.66 36.51, 60 37.18 S 63.57 36.76, 65 36.3 S 68.55 34.39, 70 33.99 S 73.6 33.02, 75 33.57 S 78.56 37.48, 80 37.9 S 83.51 36.69, 85 36.51 S 88.58 37.21, 90 36.72 S 93.5 33.01, 95 33.03 S 98.5 36.86, 100 36.85 S 103.51 32.85, 105 32.98 S 108.63 37.08, 110 37.69 S 113.51 37.57, 115 37.39 S 118.5 36.39, 120 36.47 S 123.51 37.73, 125 37.9 S 128.65 38.26, 130 37.61 S 133.54 33.44, 135 33.11 S 138.54 35.7, 140 35.34 S 143.52 30.38, 145 30.63 S 148.5 37.08, 150 37.02 S 153.54 30.57, 155 30.21 S 158.71 33.82, 160 34.58 S 163.52 35.88, 165 36.09 S 168.5 36.02, 170 36.01 S 173.52 36.26, 175 36.05 S 178.54 34.92, 180 34.58 S 183.54 33.38, 185 33.74 S 188.58 36.58, 190 37.06 S 193.51 37.32, 195 37.14 S 198.56 36.27, 200 35.84 S 203.58 34.64, 205 34.16"
          fill="none"/>
    <circle r="4" cx="5" cy="40" fill="#3023AE"/>
    <circle r="4" cx="205" cy="34.16" fill="#C86DD7"/>      
</svg>