<svg width="200" height="50" viewBox="0 0 210 50" xmlns="http://www.w3.org/2000/svg">
    <defs>
        <linearGradient x1="0%" y1="0%" x2="100%" y2="0%" id="a">
            <stop stop-color="#3023AE" offset="0%"/>
            <stop stop-color="#C86DD7" offset="100%"/>
        </linearGradient>
    </defs>
    <path stroke="url(#a)"
          stroke-width="3"
          stroke-linejoin="round"
          stroke-linecap="round"
          d="M5 40 C 6.5 39.98, 8.5 39.95, 10 39.94 S 13.5 39.96, 15 39.96 S 19.53 41.33, 20 39.91 S 23.6 10.53, 25 10 S 29.48 34.71, 30 36.12 S 33.52 37.07, 35 37.31 S 38.5 37.88, 40 37.77 S 43.97 37.67, 45 36.58 S 48.5 27.26, 50 27.24 S 53.92 35.38, 55 36.42 S 58.51 37.03, 60 36.88 S 63.62 36.03, 65 35.44 S 68.51 32.41, 70 32.59 S 73.59 36.11, 75 36.63 S 78.51 36.41, 80 36.28 S 83.51 35.92, 85 35.76 S 88.5 35.33, 90 35.24 S 93.5 35.05, 95 35.13 S 98.61 36.34, 100 35.78 S 103.51 31.28, 105 31.1 S 108.69 33.82, 110 34.55 S 113.51 36.81, 115 36.66 S 118.51 33.68, 120 33.54 S 123.53 35.44, 125 35.73 S 128.5 35.49, 130 35.5 S 133.51 35.65, 135 35.8 S 138.51 36.37, 140 36.51 S 143.5 36.84, 145 36.77 S 148.51 36.24, 150 36.05 S 153.5 35.57, 155 35.49 S 158.5 35.45, 160 35.49 S 163.5 35.85, 165 35.73 S 168.5 34.79, 170 34.68 S 173.51 34.77, 175 34.98 S 178.52 35.84, 180 36.07 S 183.5 36.59, 185 36.5 S 188.5 35.53, 190 35.44 S 193.5 35.95, 195 35.92 S 198.5 35.27, 200 35.21 S 203.5 35.41, 205 35.49"
          fill="none"/>
    <circle r="4" cx="5" cy="40" fill="#3023AE"/>
    <circle r="4" cx="205" cy="35.49" fill="#C86DD7"/>      
</svg>