<svg width="200" height="50" viewBox="0 0 210 50" xmlns="http://www.w3.org/2000/svg">
    <defs>
        <linearGradient x1="0%" y1="0%" x2="100%" y2="0%" id="a">
            <stop stop-color="#3023AE" offset="0%"/>
            <stop stop-color="#C86DD7" offset="100%"/>
        </linearGradient>
    </defs>
    <path stroke="url(#a)"
          stroke-width="3"
          stroke-linejoin="round"
          stroke-linecap="round"
          d="M5 40 C 6.5 39.96, 8.5 39.88, 10 39.86 S 13.5 39.86, 15 39.86 S 18.5 39.86, 20 39.86 S 23.5 39.86, 25 39.86 S 28.5 39.86, 30 39.86 S 33.5 39.86, 35 39.86 S 38.5 39.86, 40 39.86 S 43.5 39.86, 45 39.86 S 48.5 39.86, 50 39.86 S 53.5 39.86, 55 39.86 S 58.5 39.86, 60 39.86 S 63.5 39.86, 65 39.86 S 68.5 39.86, 70 39.86 S 73.5 39.86, 75 39.86 S 78.5 39.86, 80 39.86 S 83.5 39.86, 85 39.86 S 88.5 39.86, 90 39.86 S 93.5 39.98, 95 39.86 S 98.53 39.35, 100 39.05 S 103.5 37.74, 105 37.82 S 108.53 39.31, 110 39.59 S 114.52 41.15, 115 39.73 S 119.35 11.35, 120 10 S 123.68 18.3, 125 19 S 128.72 14.54, 130 15.32 S 133.81 24.23, 135 25.14 S 138.77 23.81, 140 22.95 S 143.66 18.86, 145 18.18 S 148.5 17.91, 150 17.91 S 153.87 17.19, 155 18.18 S 158.97 25.55, 160 26.64 S 163.82 27.75, 165 28.68 S 168.73 33.75, 170 34.55 S 173.53 35.27, 175 34.95 S 178.53 32.66, 180 32.36 S 183.53 32.63, 185 32.91 S 188.62 33.69, 190 34.27 S 193.55 37.53, 195 37.14 S 198.85 32.52, 200 31.55 S 203.7 29.43, 205 28.68"
          fill="none"/>
    <circle r="4" cx="5" cy="40" fill="#3023AE"/>
    <circle r="4" cx="205" cy="28.68" fill="#C86DD7"/>      
</svg>