<svg width="200" height="50" viewBox="0 0 210 50" xmlns="http://www.w3.org/2000/svg">
    <defs>
        <linearGradient x1="0%" y1="0%" x2="100%" y2="0%" id="a">
            <stop stop-color="#3023AE" offset="0%"/>
            <stop stop-color="#C86DD7" offset="100%"/>
        </linearGradient>
    </defs>
    <path stroke="url(#a)"
          stroke-width="3"
          stroke-linejoin="round"
          stroke-linecap="round"
          d="M5 40 C 6.17 39.06, 8.77 36.86, 10 36 S 13.71 33.77, 15 33 S 18.94 31.06, 20 30 S 24.33 24.34, 25 23 S 28.77 10.86, 30 10 S 33.94 14.94, 35 16 S 38.99 18.89, 40 20 S 43.5 27, 45 27 S 48.61 20.56, 50 20 S 53.89 22, 55 23 S 58.83 29.94, 60 29 S 64.24 16.29, 65 15 S 68.61 11.44, 70 12 S 74.17 17.75, 75 19 S 78.66 26.33, 80 27 S 83.94 25.06, 85 24 S 88.77 17.86, 90 17 S 93.53 17.29, 95 17 S 98.56 14.57, 100 15 S 103.94 18.94, 105 20 S 108.77 25.86, 110 25 S 113.61 13.56, 115 13 S 119.3 19.67, 120 21 S 123.56 31.57, 125 32 S 128.83 24.94, 130 24 S 133.53 23.71, 135 24 S 138.56 25.57, 140 26 S 143.56 27.43, 145 27 S 148.51 22.85, 150 23 S 153.5 28, 155 28 S 158.51 23.15, 160 23 S 163.53 26.71, 165 27 S 168.51 24.85, 170 25 S 173.61 28.56, 175 28 S 179.09 22.19, 180 21 S 183.53 14.71, 185 15 S 188.94 21.94, 190 23 S 193.83 25.94, 195 25 S 198.56 15.43, 200 15 S 204.13 20.78, 205 22"
          fill="none"/>
    <circle r="4" cx="5" cy="40" fill="#3023AE"/>
    <circle r="4" cx="205" cy="22" fill="#C86DD7"/>      
</svg>