<svg width="200" height="50" viewBox="0 0 210 50" xmlns="http://www.w3.org/2000/svg">
    <defs>
        <linearGradient x1="0%" y1="0%" x2="100%" y2="0%" id="a">
            <stop stop-color="#3023AE" offset="0%"/>
            <stop stop-color="#C86DD7" offset="100%"/>
        </linearGradient>
    </defs>
    <path stroke="url(#a)"
          stroke-width="3"
          stroke-linejoin="round"
          stroke-linecap="round"
          d="M5 40 C 6.33 39.31, 8.51 37.58, 10 37.39 S 13.51 38.51, 15 38.7 S 18.5 38.7, 20 38.7 S 23.5 38.7, 25 38.7 S 29.51 40.12, 30 38.7 S 33.51 10.19, 35 10 S 39.46 35.99, 40 37.39 S 43.82 37.01, 45 36.09 S 48.55 29.95, 50 29.57 S 53.82 32.56, 55 33.48 S 58.55 37.01, 60 37.39 S 63.51 35.9, 65 36.09 S 68.51 38.51, 70 38.7 S 73.5 37.39, 75 37.39 S 78.5 38.7, 80 38.7 S 83.5 37.39, 85 37.39 S 88.51 38.51, 90 38.7 S 93.5 38.7, 95 38.7 S 98.6 39.25, 100 38.7 S 103.51 34.97, 105 34.78 S 108.6 36.84, 110 37.39 S 113.5 38.7, 115 38.7 S 118.51 37.58, 120 37.39 S 123.51 37.58, 125 37.39 S 128.5 36.09, 130 36.09 S 133.55 37.01, 135 37.39 S 138.51 38.51, 140 38.7 S 143.51 38.89, 145 38.7 S 148.55 37.77, 150 37.39 S 153.55 36.47, 155 36.09 S 158.55 35.16, 160 34.78 S 163.55 33.1, 165 33.48 S 168.67 36.7, 170 37.39 S 173.55 39.08, 175 38.7 S 178.5 34.78, 180 34.78 S 183.51 38.89, 185 38.7 S 188.67 34.17, 190 33.48 S 193.55 33.86, 195 33.48 S 198.51 30.68, 200 30.87 S 203.82 33.86, 205 34.78"
          fill="none"/>
    <circle r="4" cx="5" cy="40" fill="#3023AE"/>
    <circle r="4" cx="205" cy="34.78" fill="#C86DD7"/>      
</svg>