<svg width="200" height="50" viewBox="0 0 210 50" xmlns="http://www.w3.org/2000/svg">
    <defs>
        <linearGradient x1="0%" y1="0%" x2="100%" y2="0%" id="a">
            <stop stop-color="#3023AE" offset="0%"/>
            <stop stop-color="#C86DD7" offset="100%"/>
        </linearGradient>
    </defs>
    <path stroke="url(#a)"
          stroke-width="3"
          stroke-linejoin="round"
          stroke-linecap="round"
          d="M5 40 C 5.62 38.64, 8.51 29.29, 10 29.09 S 13.92 37.6, 15 38.64 S 18.5 38.64, 20 38.64 S 23.5 38.64, 25 38.64 S 28.5 38.64, 30 38.64 S 33.5 38.64, 35 38.64 S 38.5 38.64, 40 38.64 S 43.51 38.84, 45 38.64 S 48.55 37.67, 50 37.27 S 53.51 35.71, 55 35.91 S 58.5 38.64, 60 38.64 S 63.51 36.11, 65 35.91 S 68.55 36.87, 70 37.27 S 73.5 38.64, 75 38.64 S 78.5 37.27, 80 37.27 S 83.51 38.84, 85 38.64 S 88.92 36.95, 90 35.91 S 93.55 28.69, 95 29.09 S 98.84 37.69, 100 38.64 S 103.5 37.27, 105 37.27 S 108.51 38.84, 110 38.64 S 113.5 35.91, 115 35.91 S 118.55 39.04, 120 38.64 S 123.5 33.18, 125 33.18 S 128.5 38.64, 130 38.64 S 133.55 33.58, 135 33.18 S 138.5 35.91, 140 35.91 S 143.55 32.78, 145 33.18 S 148.61 38.07, 150 38.64 S 153.55 37.67, 155 37.27 S 158.61 36.48, 160 35.91 S 163.51 32.98, 165 33.18 S 168.61 37.84, 170 37.27 S 173.84 30.04, 175 29.09 S 178.76 28.24, 180 29.09 S 183.84 34.96, 185 35.91 S 188.51 37.47, 190 37.27 S 193.5 34.55, 195 34.55 S 199.43 38.66, 200 37.27 S 204.73 11.48, 205 10"
          fill="none"/>
    <circle r="4" cx="5" cy="40" fill="#3023AE"/>
    <circle r="4" cx="205" cy="10" fill="#C86DD7"/>      
</svg>