<svg width="200" height="50" viewBox="0 0 210 50" xmlns="http://www.w3.org/2000/svg">
    <defs>
        <linearGradient x1="0%" y1="0%" x2="100%" y2="0%" id="a">
            <stop stop-color="#3023AE" offset="0%"/>
            <stop stop-color="#C86DD7" offset="100%"/>
        </linearGradient>
    </defs>
    <path stroke="url(#a)"
          stroke-width="3"
          stroke-linejoin="round"
          stroke-linecap="round"
          d="M5 40 C 6.39 39.43, 8.51 38.08, 10 37.93 S 13.51 38.81, 15 38.97 S 18.5 38.97, 20 38.97 S 23.5 38.97, 25 38.97 S 28.5 38.97, 30 38.97 S 33.5 38.97, 35 38.97 S 38.5 38.97, 40 38.97 S 43.5 38.97, 45 38.97 S 48.5 38.97, 50 38.97 S 53.5 38.97, 55 38.97 S 58.5 38.97, 60 38.97 S 63.5 38.97, 65 38.97 S 68.5 38.97, 70 38.97 S 73.5 38.97, 75 38.97 S 78.5 38.97, 80 38.97 S 83.5 38.97, 85 38.97 S 88.5 38.97, 90 38.97 S 93.5 38.97, 95 38.97 S 98.5 38.97, 100 38.97 S 103.5 38.97, 105 38.97 S 108.5 38.97, 110 38.97 S 113.5 38.97, 115 38.97 S 118.5 38.97, 120 38.97 S 123.5 38.97, 125 38.97 S 128.5 38.97, 130 38.97 S 133.5 38.97, 135 38.97 S 138.5 38.97, 140 38.97 S 143.5 38.97, 145 38.97 S 149.06 40.14, 150 38.97 S 154.15 27.78, 155 26.55 S 159.22 25.76, 160 24.48 S 163.96 8.92, 165 10 S 169.51 33.41, 170 34.83 S 173.61 38.4, 175 38.97 S 178.5 38.97, 180 38.97 S 183.5 38.97, 185 38.97 S 188.5 38.97, 190 38.97 S 193.5 38.97, 195 38.97 S 198.5 38.97, 200 38.97"
          fill="none"/>
    <circle r="4" cx="5" cy="40" fill="#3023AE"/>
    <circle r="4" cx="200" cy="38.97" fill="#C86DD7"/>      
</svg>