<svg width="200" height="50" viewBox="0 0 210 50" xmlns="http://www.w3.org/2000/svg">
    <defs>
        <linearGradient x1="0%" y1="0%" x2="100%" y2="0%" id="a">
            <stop stop-color="#3023AE" offset="0%"/>
            <stop stop-color="#C86DD7" offset="100%"/>
        </linearGradient>
    </defs>
    <path stroke="url(#a)"
          stroke-width="3"
          stroke-linejoin="round"
          stroke-linecap="round"
          d="M5 40 C 6.17 39.06, 8.71 36.77, 10 36 S 13.53 33.71, 15 34 S 18.53 37.71, 20 38 S 23.5 36, 25 36 S 28.71 38.77, 30 38 S 33.53 30.29, 35 30 S 38.61 35.44, 40 36 S 43.53 33.71, 45 34 S 48.5 38, 50 38 S 53.61 34.56, 55 34 S 58.53 34.29, 60 34 S 63.53 32.29, 65 32 S 68.5 32, 70 32 S 73.53 31.71, 75 32 S 78.5 34, 80 34 S 83.83 32.94, 85 32 S 88.71 26.77, 90 26 S 93.61 25.44, 95 26 S 98.71 29.23, 100 30 S 103.5 32, 105 32 S 108.71 30.77, 110 30 S 113.71 25.23, 115 26 S 118.5 36, 120 36 S 123.94 27.06, 125 26 S 129.21 27.27, 130 26 S 133.83 9.06, 135 10 S 138.94 32.94, 140 34 S 144.21 21.27, 145 20 S 148.83 17.06, 150 18 S 153.94 26.94, 155 28 S 159.04 29.15, 160 28 S 163.53 15.71, 165 16 S 168.83 29.06, 170 30 S 173.61 24.56, 175 24 S 178.61 25.44, 180 26 S 183.53 28.29, 185 28 S 188.5 24, 190 24 S 193.71 27.23, 195 28 S 198.53 30.29, 200 30 S 203.83 26.94, 205 26"
          fill="none"/>
    <circle r="4" cx="5" cy="40" fill="#3023AE"/>
    <circle r="4" cx="205" cy="26" fill="#C86DD7"/>      
</svg>