<svg width="200" height="50" viewBox="0 0 210 50" xmlns="http://www.w3.org/2000/svg">
    <defs>
        <linearGradient x1="0%" y1="0%" x2="100%" y2="0%" id="a">
            <stop stop-color="#3023AE" offset="0%"/>
            <stop stop-color="#C86DD7" offset="100%"/>
        </linearGradient>
    </defs>
    <path stroke="url(#a)"
          stroke-width="3"
          stroke-linejoin="round"
          stroke-linecap="round"
          d="M5 40 C 6.48 39.75, 8.5 39.2, 10 39.14 S 13.5 39.63, 15 39.57 S 18.93 39.76, 20 38.71 S 24.41 31.09, 25 29.71 S 29.23 16.43, 30 15.14 S 33.67 13.69, 35 13 S 38.58 9.51, 40 10 S 44.17 15.18, 45 16.43 S 49.12 23.79, 50 25 S 53.58 30.63, 55 30.14 S 58.81 22.49, 60 21.57 S 63.56 22, 65 22.43 S 68.52 24.82, 70 24.57 S 73.51 20.52, 75 20.71 S 78.5 25.86, 80 25.86 S 83.51 20.84, 85 20.71 S 88.62 24.41, 90 25 S 93.56 25.43, 95 25 S 98.51 22.19, 100 22 S 103.71 22.94, 105 23.71 S 108.64 27.36, 110 28 S 113.56 28, 115 28.43 S 118.58 31.49, 120 31 S 123.53 24.69, 125 25 S 128.71 32.37, 130 33.14 S 133.51 30.87, 135 31 S 138.67 33.31, 140 34 S 143.51 35.95, 145 36.14 S 148.58 35.78, 150 35.29 S 153.5 32.77, 155 32.71 S 158.5 34.92, 160 34.86 S 163.5 32.35, 165 32.29 S 168.55 34.06, 170 34.43 S 173.5 34.92, 175 34.86 S 178.51 34.19, 180 34 S 183.52 33.32, 185 33.57 S 188.51 35.52, 190 35.71 S 193.5 34.92, 195 34.86 S 198.51 35.42, 200 35.29 S 203.55 34.37, 205 34"
          fill="none"/>
    <circle r="4" cx="5" cy="40" fill="#3023AE"/>
    <circle r="4" cx="205" cy="34" fill="#C86DD7"/>      
</svg>