<svg width="200" height="50" viewBox="0 0 210 50" xmlns="http://www.w3.org/2000/svg">
    <defs>
        <linearGradient x1="0%" y1="0%" x2="100%" y2="0%" id="a">
            <stop stop-color="#3023AE" offset="0%"/>
            <stop stop-color="#C86DD7" offset="100%"/>
        </linearGradient>
    </defs>
    <path stroke="url(#a)"
          stroke-width="3"
          stroke-linejoin="round"
          stroke-linecap="round"
          d="M5 40 C 5.86 38.77, 8.52 33.07, 10 32.86 S 13.7 37.83, 15 38.57 S 18.5 38.57, 20 38.57 S 23.5 38.57, 25 38.57 S 28.5 38.57, 30 38.57 S 33.5 38.57, 35 38.57 S 38.5 38.57, 40 38.57 S 43.5 38.57, 45 38.57 S 48.5 38.57, 50 38.57 S 53.5 38.57, 55 38.57 S 58.5 38.57, 60 38.57 S 63.56 38.98, 65 38.57 S 68.7 36.45, 70 35.71 S 73.5 32.86, 75 32.86 S 78.52 35.5, 80 35.71 S 83.52 34.08, 85 34.29 S 88.62 36.55, 90 37.14 S 93.52 38.36, 95 38.57 S 98.78 39.44, 100 38.57 S 103.62 32.02, 105 31.43 S 108.5 34.29, 110 34.29 S 113.5 31.43, 115 31.43 S 119.01 35.42, 120 34.29 S 123.7 20.74, 125 20 S 128.94 27.51, 130 28.57 S 133.62 30.59, 135 30 S 138.62 24.88, 140 24.29 S 143.7 26.45, 145 25.71 S 148.52 18.36, 150 18.57 S 153.86 26.16, 155 27.14 S 158.62 27.73, 160 27.14 S 164.24 24.16, 165 22.86 S 168.7 10.74, 170 10 S 173.52 16.93, 175 17.14 S 179.19 10.16, 180 11.43 S 183.5 32.86, 185 32.86 S 188.86 12.41, 190 11.43 S 193.62 23.7, 195 24.29 S 198.56 16.12, 200 15.71 S 204.01 20.3, 205 21.43"
          fill="none"/>
    <circle r="4" cx="5" cy="40" fill="#3023AE"/>
    <circle r="4" cx="205" cy="21.43" fill="#C86DD7"/>      
</svg>