<svg width="200" height="50" viewBox="0 0 210 50" xmlns="http://www.w3.org/2000/svg">
    <defs>
        <linearGradient x1="0%" y1="0%" x2="100%" y2="0%" id="a">
            <stop stop-color="#3023AE" offset="0%"/>
            <stop stop-color="#C86DD7" offset="100%"/>
        </linearGradient>
    </defs>
    <path stroke="url(#a)"
          stroke-width="3"
          stroke-linejoin="round"
          stroke-linecap="round"
          d="M5 40 C 5.83 38.75, 8.51 32.69, 10 32.5 S 13.51 38.56, 15 38.75 S 18.6 34.28, 20 33.75 S 23.51 34.81, 25 35 S 29.44 36.39, 30 35 S 33.87 10.99, 35 10 S 38.94 25.19, 40 26.25 S 43.8 19.1, 45 20 S 48.94 32.69, 50 33.75 S 53.54 30.36, 55 30 S 58.54 31.61, 60 31.25 S 63.51 27.31, 65 27.5 S 68.66 31.83, 70 32.5 S 73.5 32.5, 75 32.5 S 78.51 32.31, 80 32.5 S 83.51 33.56, 85 33.75 S 88.6 34.28, 90 33.75 S 93.54 30.36, 95 30 S 98.54 30.89, 100 31.25 S 103.54 32.86, 105 32.5 S 109.17 30, 110 28.75 S 114.06 18.67, 115 17.5 S 119.06 15.08, 120 16.25 S 124.33 28.66, 125 30 S 128.5 36.25, 130 36.25 S 133.51 30.19, 135 30 S 138.54 34.64, 140 35 S 143.54 32.86, 145 32.5 S 148.51 32.69, 150 32.5 S 153.5 31.25, 155 31.25 S 158.6 31.97, 160 32.5 S 163.6 35.53, 165 35 S 168.6 29.28, 170 28.75 S 173.51 31.06, 175 31.25 S 178.73 29.21, 180 30 S 183.73 36.71, 185 37.5 S 188.5 36.25, 190 36.25 S 193.54 37.14, 195 37.5 S 198.66 39.42, 200 38.75 S 204.06 33.67, 205 32.5"
          fill="none"/>
    <circle r="4" cx="5" cy="40" fill="#3023AE"/>
    <circle r="4" cx="205" cy="32.5" fill="#C86DD7"/>      
</svg>