<svg width="200" height="50" viewBox="0 0 210 50" xmlns="http://www.w3.org/2000/svg">
    <defs>
        <linearGradient x1="0%" y1="0%" x2="100%" y2="0%" id="a">
            <stop stop-color="#3023AE" offset="0%"/>
            <stop stop-color="#C86DD7" offset="100%"/>
        </linearGradient>
    </defs>
    <path stroke="url(#a)"
          stroke-width="3"
          stroke-linejoin="round"
          stroke-linecap="round"
          d="M5 40 C 6.29 39.23, 8.56 37.43, 10 37 S 13.5 37, 15 37 S 18.5 37, 20 37 S 23.5 37, 25 37 S 28.5 37, 30 37 S 33.5 37, 35 37 S 39.04 38.15, 40 37 S 43.71 25.77, 45 25 S 48.89 30, 50 31 S 53.71 33.23, 55 34 S 58.56 36.57, 60 37 S 63.5 37, 65 37 S 68.5 37, 70 37 S 73.5 37, 75 37 S 78.56 37.43, 80 37 S 83.56 34.43, 85 34 S 88.56 33.57, 90 34 S 93.5 37, 95 37 S 98.89 35, 100 34 S 103.5 28, 105 28 S 108.56 34.43, 110 34 S 113.71 25.77, 115 25 S 119.04 26.85, 120 28 S 123.56 36.57, 125 37 S 128.5 31, 130 31 S 133.71 37.77, 135 37 S 138.71 25.77, 140 25 S 143.71 30.23, 145 31 S 148.56 30.57, 150 31 S 153.56 34.43, 155 34 S 159.17 29.25, 160 28 S 163.71 18.23, 165 19 S 168.89 33, 170 34 S 173.56 28.43, 175 28 S 178.5 31, 180 31 S 183.71 28.77, 185 28 S 188.71 24.23, 190 25 S 194.17 35.25, 195 34 S 199.04 11.15, 200 10 S 204.42 20.62, 205 22"
          fill="none"/>
    <circle r="4" cx="5" cy="40" fill="#3023AE"/>
    <circle r="4" cx="205" cy="22" fill="#C86DD7"/>      
</svg>