<svg width="200" height="50" viewBox="0 0 210 50" xmlns="http://www.w3.org/2000/svg">
    <defs>
        <linearGradient x1="0%" y1="0%" x2="100%" y2="0%" id="a">
            <stop stop-color="#3023AE" offset="0%"/>
            <stop stop-color="#C86DD7" offset="100%"/>
        </linearGradient>
    </defs>
    <path stroke="url(#a)"
          stroke-width="3"
          stroke-linejoin="round"
          stroke-linecap="round"
          d="M5 40 C 5.76 38.7, 8.62 32.02, 10 31.43 S 13.62 36.3, 15 35.71 S 18.5 27.14, 20 27.14 S 23.86 34.73, 25 35.71 S 28.5 35.71, 30 35.71 S 33.5 35.71, 35 35.71 S 39.24 37.01, 40 35.71 S 43.5 18.57, 45 18.57 S 49.08 34.53, 50 35.71 S 53.5 31.43, 55 31.43 S 59.08 36.89, 60 35.71 S 63.5 18.57, 65 18.57 S 68.86 34.73, 70 35.71 S 73.62 27.73, 75 27.14 S 78.86 30.45, 80 31.43 S 83.62 35.12, 85 35.71 S 88.86 36.69, 90 35.71 S 93.62 27.73, 95 27.14 S 98.86 30.45, 100 31.43 S 103.62 35.12, 105 35.71 S 108.62 36.3, 110 35.71 S 114.08 32.61, 115 31.43 S 118.62 22.27, 120 22.86 S 123.62 36.3, 125 35.71 S 128.62 19.16, 130 18.57 S 134.08 30.25, 135 31.43 S 138.62 32.02, 140 31.43 S 143.5 27.14, 145 27.14 S 148.62 30.84, 150 31.43 S 153.86 32.41, 155 31.43 S 158.86 23.84, 160 22.86 S 164.08 21.68, 165 22.86 S 168.86 34.73, 170 35.71 S 173.62 32.02, 175 31.43 S 178.62 32.02, 180 31.43 S 184.24 28.44, 185 27.14 S 189.24 15.59, 190 14.29 S 194.24 8.7, 195 10 S 198.86 30.45, 200 31.43 S 204.46 19.97, 205 18.57"
          fill="none"/>
    <circle r="4" cx="5" cy="40" fill="#3023AE"/>
    <circle r="4" cx="205" cy="18.57" fill="#C86DD7"/>      
</svg>