<svg width="200" height="50" viewBox="0 0 210 50" xmlns="http://www.w3.org/2000/svg">
    <defs>
        <linearGradient x1="0%" y1="0%" x2="100%" y2="0%" id="a">
            <stop stop-color="#3023AE" offset="0%"/>
            <stop stop-color="#C86DD7" offset="100%"/>
        </linearGradient>
    </defs>
    <path stroke="url(#a)"
          stroke-width="3"
          stroke-linejoin="round"
          stroke-linecap="round"
          d="M5 40 C 5.25 38.52, 9.33 11.34, 10 10 S 13.94 18.94, 15 20 S 18.94 18.94, 20 20 S 23.94 31.06, 25 30 S 28.5 10, 30 10 S 34.33 28.66, 35 30 S 38.5 30, 40 30 S 43.94 31.06, 45 30 S 49.33 21.34, 50 20 S 53.94 11.06, 55 10 S 59.33 8.66, 60 10 S 64.33 28.66, 65 30 S 68.5 30, 70 30 S 73.5 30, 75 30 S 78.5 30, 80 30 S 83.5 30, 85 30 S 88.5 30, 90 30 S 93.5 30, 95 30 S 98.5 30, 100 30 S 103.5 30, 105 30 S 108.5 30, 110 30 S 113.5 30, 115 30 S 118.5 30, 120 30 S 123.5 30, 125 30 S 128.5 30, 130 30 S 133.5 30, 135 30 S 138.5 30, 140 30 S 143.5 30, 145 30 S 148.5 30, 150 30 S 153.5 30, 155 30 S 158.5 30, 160 30 S 163.5 30, 165 30 S 168.5 30, 170 30 S 173.5 30, 175 30 S 178.5 30, 180 30 S 183.5 30, 185 30"
          fill="none"/>
    <circle r="4" cx="5" cy="40" fill="#3023AE"/>
    <circle r="4" cx="185" cy="30" fill="#C86DD7"/>      
</svg>