<svg width="200" height="50" viewBox="0 0 210 50" xmlns="http://www.w3.org/2000/svg">
    <defs>
        <linearGradient x1="0%" y1="0%" x2="100%" y2="0%" id="a">
            <stop stop-color="#3023AE" offset="0%"/>
            <stop stop-color="#C86DD7" offset="100%"/>
        </linearGradient>
    </defs>
    <path stroke="url(#a)"
          stroke-width="3"
          stroke-linejoin="round"
          stroke-linecap="round"
          d="M5 40 C 6.45 39.61, 8.5 38.75, 10 38.65 S 13.51 39.48, 15 39.33 S 18.61 38.2, 20 37.64 S 23.61 35.84, 25 35.28 S 28.5 33.7, 30 33.6 S 33.5 34.71, 35 34.61 S 38.52 33.17, 40 32.92 S 43.51 32.77, 45 32.92 S 48.5 33.98, 50 33.93 S 53.5 32.68, 55 32.58 S 58.5 33.36, 60 33.26 S 63.5 31.81, 65 31.91 S 68.5 34.03, 70 33.93 S 73.5 31.29, 75 31.24 S 78.53 33.3, 80 33.6 S 83.53 33.56, 85 33.26 S 88.53 31.87, 90 31.57 S 93.55 31.63, 95 31.24 S 98.53 29.18, 100 28.88 S 103.52 28.96, 105 29.21 S 108.51 30.76, 110 30.56 S 113.66 28.55, 115 27.87 S 118.5 25.46, 120 25.51 S 123.52 28.45, 125 28.2 S 128.63 24.42, 130 23.82 S 133.55 24.21, 135 23.82 S 138.58 20.64, 140 21.12 S 143.52 26.94, 145 27.19 S 148.76 23.65, 150 22.81 S 153.59 20.97, 155 20.45 S 158.5 19.05, 160 19.1 S 163.56 21.22, 165 20.79 S 168.98 17.17, 170 16.07 S 173.58 9.52, 175 10 S 178.83 18.5, 180 19.44 S 183.55 17.7, 185 18.09 S 188.64 22.77, 190 22.13 S 193.81 14.29, 195 13.37 S 198.5 14.43, 200 14.38 S 203.55 13.42, 205 13.03"
          fill="none"/>
    <circle r="4" cx="5" cy="40" fill="#3023AE"/>
    <circle r="4" cx="205" cy="13.030000000000001" fill="#C86DD7"/>      
</svg>