<svg width="200" height="50" viewBox="0 0 210 50" xmlns="http://www.w3.org/2000/svg">
    <defs>
        <linearGradient x1="0%" y1="0%" x2="100%" y2="0%" id="a">
            <stop stop-color="#3023AE" offset="0%"/>
            <stop stop-color="#C86DD7" offset="100%"/>
        </linearGradient>
    </defs>
    <path stroke="url(#a)"
          stroke-width="3"
          stroke-linejoin="round"
          stroke-linecap="round"
          d="M5 40 C 6.36 39.37, 8.54 38.03, 10 37.69 S 13.52 37.46, 15 37.69 S 18.5 39.11, 20 39.23 S 23.5 38.46, 25 38.46 S 28.5 39.23, 30 39.23 S 33.5 38.46, 35 38.46 S 38.5 39.11, 40 39.23 S 43.5 39.23, 45 39.23 S 48.5 39.35, 50 39.23 S 53.5 38.58, 55 38.46 S 58.5 38.58, 60 38.46 S 63.64 38.32, 65 37.69 S 68.85 34.82, 70 33.85 S 73.77 30.08, 75 29.23 S 79.31 28.25, 80 26.92 S 83.5 10, 85 10 S 89.33 25.58, 90 26.92 S 93.72 29.21, 95 30 S 98.54 32.74, 100 33.08 S 103.52 32.08, 105 32.31 S 108.5 34.62, 110 34.62 S 113.5 32.43, 115 32.31 S 118.68 33.14, 120 33.85 S 123.6 37.15, 125 37.69 S 128.52 37.92, 130 37.69 S 133.52 36.38, 135 36.15 S 138.52 35.92, 140 36.15 S 143.54 38.03, 145 37.69 S 148.5 33.97, 150 33.85 S 153.52 36.69, 155 36.92 S 158.57 35.82, 160 35.38 S 163.5 33.96, 165 33.85 S 168.52 34.39, 170 34.62 S 173.64 34.75, 175 35.38 S 178.5 39.11, 180 39.23 S 183.57 36.59, 185 36.15 S 188.54 35.81, 190 36.15 S 193.52 38.23, 195 38.46 S 198.5 37.69, 200 37.69 S 203.52 38.23, 205 38.46"
          fill="none"/>
    <circle r="4" cx="5" cy="40" fill="#3023AE"/>
    <circle r="4" cx="205" cy="38.46" fill="#C86DD7"/>      
</svg>