<svg width="200" height="50" viewBox="0 0 210 50" xmlns="http://www.w3.org/2000/svg">
    <defs>
        <linearGradient x1="0%" y1="0%" x2="100%" y2="0%" id="a">
            <stop stop-color="#3023AE" offset="0%"/>
            <stop stop-color="#C86DD7" offset="100%"/>
        </linearGradient>
    </defs>
    <path stroke="url(#a)"
          stroke-width="3"
          stroke-linejoin="round"
          stroke-linecap="round"
          d="M5 40 C 6.11 39, 8.56 35.93, 10 35.5 S 13.56 36.57, 15 37 S 18.52 38.28, 20 38.5 S 23.5 38.5, 25 38.5 S 28.5 38.5, 30 38.5 S 33.5 38.5, 35 38.5 S 38.52 38.72, 40 38.5 S 43.5 37, 45 37 S 48.52 38.28, 50 38.5 S 53.89 39.5, 55 38.5 S 58.5 29.5, 60 29.5 S 63.89 37.5, 65 38.5 S 68.5 38.5, 70 38.5 S 73.71 39.27, 75 38.5 S 79.04 33.65, 80 32.5 S 83.56 26.07, 85 26.5 S 89.04 34.35, 90 35.5 S 93.5 38.5, 95 38.5 S 98.5 35.5, 100 35.5 S 103.56 38.07, 105 38.5 S 108.5 38.5, 110 38.5 S 113.5 38.5, 115 38.5 S 118.5 38.5, 120 38.5 S 123.5 38.5, 125 38.5 S 128.5 38.5, 130 38.5 S 133.52 38.72, 135 38.5 S 138.52 37.22, 140 37 S 143.71 37.77, 145 37 S 148.97 32.09, 150 31 S 154.36 27.85, 155 26.5 S 158.63 9.38, 160 10 S 164.27 29.69, 165 31 S 169.04 29.15, 170 28 S 173.8 18.1, 175 19 S 179.04 34.35, 180 35.5 S 183.56 31.43, 185 31 S 188.8 31.6, 190 32.5 S 193.56 38.07, 195 38.5 S 199.39 36.87, 200 35.5 S 204.63 17.45, 205 16"
          fill="none"/>
    <circle r="4" cx="5" cy="40" fill="#3023AE"/>
    <circle r="4" cx="205" cy="16" fill="#C86DD7"/>      
</svg>