<svg width="200" height="50" viewBox="0 0 210 50" xmlns="http://www.w3.org/2000/svg">
    <defs>
        <linearGradient x1="0%" y1="0%" x2="100%" y2="0%" id="a">
            <stop stop-color="#3023AE" offset="0%"/>
            <stop stop-color="#C86DD7" offset="100%"/>
        </linearGradient>
    </defs>
    <path stroke="url(#a)"
          stroke-width="3"
          stroke-linejoin="round"
          stroke-linecap="round"
          d="M5 40 C 6.31 39.27, 8.71 38, 10 37.23 S 14.48 35.45, 15 34.04 S 18.54 9.65, 20 10 S 24.49 35.04, 25 36.45 S 28.52 37.39, 30 37.65 S 33.5 38.15, 35 38.19 S 38.5 37.9, 40 37.89 S 43.51 37.96, 45 38.13 S 48.51 38.84, 50 39.04 S 53.5 39.39, 55 39.46 S 58.55 39.9, 60 39.52 S 63.57 37.32, 65 36.87 S 68.5 36.3, 70 36.39 S 73.5 37.53, 75 37.47 S 78.51 36.16, 80 36.02 S 83.5 36.55, 85 36.51 S 88.5 35.67, 90 35.72 S 93.51 36.73, 95 36.87 S 98.5 36.68, 100 36.69 S 103.51 37.11, 105 36.93 S 108.52 35.7, 110 35.48 S 113.5 35.41, 115 35.42 S 118.5 35.49, 120 35.54 S 123.5 35.66, 125 35.78 S 128.5 36.39, 130 36.33 S 133.56 35.78, 135 35.36 S 138.5 33.54, 140 33.43 S 143.53 34.36, 145 34.64 S 148.53 35.01, 150 35.3 S 153.5 36.74, 155 36.63 S 158.52 34.85, 160 34.58 S 163.5 34.82, 165 34.82 S 168.5 34.5, 170 34.58 S 173.51 35.23, 175 35.36 S 178.5 35.32, 180 35.42 S 183.5 35.9, 185 36.02 S 188.51 36.37, 190 36.2 S 193.5 34.92, 195 34.88 S 198.59 36.41, 200 35.9 S 203.9 32.29, 205 31.27"
          fill="none"/>
    <circle r="4" cx="5" cy="40" fill="#3023AE"/>
    <circle r="4" cx="205" cy="31.27" fill="#C86DD7"/>      
</svg>