<svg width="200" height="50" viewBox="0 0 210 50" xmlns="http://www.w3.org/2000/svg">
    <defs>
        <linearGradient x1="0%" y1="0%" x2="100%" y2="0%" id="a">
            <stop stop-color="#3023AE" offset="0%"/>
            <stop stop-color="#C86DD7" offset="100%"/>
        </linearGradient>
    </defs>
    <path stroke="url(#a)"
          stroke-width="3"
          stroke-linejoin="round"
          stroke-linecap="round"
          d="M5 40 C 6.5 39.99, 8.5 39.98, 10 39.98 S 13.5 39.98, 15 39.98 S 18.62 40.57, 20 39.98 S 24.22 36.96, 25 35.68 S 28.58 23.05, 30 23.54 S 34.21 37.88, 35 39.16 S 38.56 40.17, 40 39.76 S 44.23 37.61, 45 36.32 S 48.5 23.02, 50 23.11 S 54.09 38.11, 55 36.92 S 59.2 11.27, 60 10 S 64.14 19.73, 65 20.96 S 68.87 25.23, 70 24.24 S 73.81 13.09, 75 12.18 S 78.86 15.59, 80 16.56 S 83.54 20.31, 85 20.65 S 88.86 19.86, 90 18.88 S 93.56 11.61, 95 12.03 S 99.24 20.47, 100 21.77 S 103.78 28.3, 105 29.18 S 108.5 29.07, 110 28.97 S 113.56 28.9, 115 28.49 S 118.52 26.34, 120 26.11 S 123.51 27.05, 125 26.91 S 128.5 25.12, 130 25.15 S 133.51 26.96, 135 27.09 S 138.52 26.28, 140 26.02 S 143.52 25.56, 145 25.34 S 148.5 24.55, 150 24.57 S 153.5 25.57, 155 25.49 S 158.5 24.14, 160 24.04 S 163.52 24.62, 165 24.85 S 168.5 25.6, 170 25.61 S 173.57 25.41, 175 24.95 S 178.51 22.62, 180 22.42 S 183.54 23.27, 185 23.63 S 188.53 25.2, 190 24.89 S 193.52 21.72, 195 21.49 S 198.54 22.98, 200 23.32 S 203.51 23.68, 205 23.83"
          fill="none"/>
    <circle r="4" cx="5" cy="40" fill="#3023AE"/>
    <circle r="4" cx="205" cy="23.83" fill="#C86DD7"/>      
</svg>