<svg width="200" height="50" viewBox="0 0 210 50" xmlns="http://www.w3.org/2000/svg">
    <defs>
        <linearGradient x1="0%" y1="0%" x2="100%" y2="0%" id="a">
            <stop stop-color="#3023AE" offset="0%"/>
            <stop stop-color="#C86DD7" offset="100%"/>
        </linearGradient>
    </defs>
    <path stroke="url(#a)"
          stroke-width="3"
          stroke-linejoin="round"
          stroke-linecap="round"
          d="M5 40 C 5.25 38.52, 8.83 10.94, 10 10 S 14.48 30.5, 15 31.91 S 18.7 36.39, 20 37.14 S 23.5 37.59, 25 37.71 S 28.5 37.88, 30 37.94 S 33.5 38.04, 35 38.09 S 38.52 38.56, 40 38.29 S 43.53 36.61, 45 36.29 S 48.5 35.99, 50 36.11 S 53.51 36.91, 55 37.06 S 58.5 37.02, 60 37.12 S 63.5 37.65, 65 37.74 S 68.5 37.83, 70 37.75 S 73.5 37.28, 75 37.23 S 78.5 37.43, 80 37.44 S 83.5 37.36, 85 37.32 S 88.5 37.23, 90 37.2 S 93.5 37.22, 95 37.13 S 98.51 36.8, 100 36.62 S 103.5 36.02, 105 35.94 S 108.5 36.15, 110 36.11 S 113.5 35.66, 115 35.64 S 118.58 36.46, 120 35.98 S 123.5 32.28, 125 32.27 S 128.59 35.39, 130 35.9 S 133.56 36.29, 135 35.86 S 138.5 32.98, 140 32.91 S 143.56 35.02, 145 35.42 S 148.5 35.65, 150 35.71 S 153.51 36.04, 155 35.85 S 158.53 34.67, 160 34.4 S 163.57 34.43, 165 33.99 S 168.52 31.59, 170 31.32 S 173.69 32.89, 175 32.16 S 178.52 26.02, 180 25.79 S 183.75 29.77, 185 30.6 S 188.51 32.27, 190 32.43 S 193.5 31.66, 195 31.64 S 198.5 32.22, 200 32.31 S 203.5 32.24, 205 32.21"
          fill="none"/>
    <circle r="4" cx="5" cy="40" fill="#3023AE"/>
    <circle r="4" cx="205" cy="32.21" fill="#C86DD7"/>      
</svg>