<svg width="200" height="50" viewBox="0 0 210 50" xmlns="http://www.w3.org/2000/svg">
    <defs>
        <linearGradient x1="0%" y1="0%" x2="100%" y2="0%" id="a">
            <stop stop-color="#3023AE" offset="0%"/>
            <stop stop-color="#C86DD7" offset="100%"/>
        </linearGradient>
    </defs>
    <path stroke="url(#a)"
          stroke-width="3"
          stroke-linejoin="round"
          stroke-linecap="round"
          d="M5 40 C 6.31 39.27, 8.54 37.55, 10 37.22 S 13.53 37.49, 15 37.78 S 18.52 38.92, 20 39.17 S 23.5 39.36, 25 39.44 S 28.5 39.72, 30 39.72 S 33.5 39.44, 35 39.44 S 38.5 39.68, 40 39.72 S 43.5 39.72, 45 39.72 S 48.5 39.76, 50 39.72 S 53.5 39.52, 55 39.44 S 58.51 39.29, 60 39.17 S 63.5 38.53, 65 38.61 S 68.51 39.55, 70 39.72 S 73.5 39.72, 75 39.72 S 78.51 39.84, 80 39.72 S 83.51 39.06, 85 38.89 S 88.51 38.82, 90 38.61 S 93.51 37.62, 95 37.5 S 98.53 37.49, 100 37.78 S 103.5 39.44, 105 39.44 S 108.57 38.22, 110 37.78 S 113.51 36.27, 115 36.39 S 118.63 39.22, 120 38.61 S 123.54 32.3, 125 31.94 S 128.78 35.23, 130 36.11 S 133.53 38.88, 135 39.17 S 138.5 38.06, 140 38.06 S 143.5 39.17, 145 39.17 S 148.51 38.19, 150 38.06 S 153.5 38.41, 155 38.33 S 158.54 37.83, 160 37.5 S 163.52 35.86, 165 36.11 S 168.54 38.84, 170 39.17 S 173.5 38.41, 175 38.33 S 178.52 38.86, 180 38.61 S 183.54 37, 185 36.67 S 188.6 36.93, 190 36.39 S 194 33.89, 195 32.78 S 199.4 26.65, 200 25.28 S 204.53 11.43, 205 10"
          fill="none"/>
    <circle r="4" cx="5" cy="40" fill="#3023AE"/>
    <circle r="4" cx="205" cy="10" fill="#C86DD7"/>      
</svg>