<svg width="200" height="50" viewBox="0 0 210 50" xmlns="http://www.w3.org/2000/svg">
    <defs>
        <linearGradient x1="0%" y1="0%" x2="100%" y2="0%" id="a">
            <stop stop-color="#3023AE" offset="0%"/>
            <stop stop-color="#C86DD7" offset="100%"/>
        </linearGradient>
    </defs>
    <path stroke="url(#a)"
          stroke-width="3"
          stroke-linejoin="round"
          stroke-linecap="round"
          d="M5 40 C 6.5 40, 8.5 40.01, 10 40 S 13.53 40.21, 15 39.9 S 18.5 37.88, 20 37.87 S 23.53 39.51, 25 39.8 S 28.5 39.83, 30 39.84 S 33.5 39.88, 35 39.89 S 38.5 39.92, 40 39.92 S 43.5 40, 45 39.89 S 48.52 39.43, 50 39.2 S 53.5 38.46, 55 38.36 S 58.5 38.56, 60 38.52 S 63.5 38.15, 65 38.09 S 68.5 38.09, 70 38.11 S 73.6 38.77, 75 38.23 S 78.52 34.44, 80 34.22 S 83.53 36.48, 85 36.76 S 88.51 36.3, 90 36.14 S 93.61 36.24, 95 35.68 S 98.51 32.25, 100 32.11 S 103.56 34.31, 105 34.72 S 108.5 35.05, 110 34.97 S 113.51 34.32, 115 34.18 S 118.51 34.16, 120 34.04 S 123.52 33.61, 125 33.36 S 128.51 32.56, 130 32.36 S 133.54 32.37, 135 32.02 S 138.5 30.06, 140 29.98 S 143.5 31.39, 145 31.51 S 148.5 30.85, 150 30.76 S 153.52 31.12, 155 30.9 S 158.51 29.44, 160 29.3 S 163.52 30.22, 165 29.98 S 168.5 27.76, 170 27.66 S 174.26 30.6, 175 29.29 S 179.01 11.12, 180 10 S 184.2 16.71, 185 17.98 S 188.98 24.88, 190 25.98 S 193.53 28.55, 195 28.86 S 198.51 28.27, 200 28.06 S 203.51 27.64, 205 27.46"
          fill="none"/>
    <circle r="4" cx="5" cy="40" fill="#3023AE"/>
    <circle r="4" cx="205" cy="27.46" fill="#C86DD7"/>      
</svg>