<svg width="200" height="50" viewBox="0 0 210 50" xmlns="http://www.w3.org/2000/svg">
    <defs>
        <linearGradient x1="0%" y1="0%" x2="100%" y2="0%" id="a">
            <stop stop-color="#3023AE" offset="0%"/>
            <stop stop-color="#C86DD7" offset="100%"/>
        </linearGradient>
    </defs>
    <path stroke="url(#a)"
          stroke-width="3"
          stroke-linejoin="round"
          stroke-linecap="round"
          d="M5 40 C 5.25 38.52, 8.89 11, 10 10 S 14.49 29.59, 15 31 S 18.74 36.62, 20 37.43 S 23.5 37.37, 25 37.43 S 28.5 37.8, 30 37.86 S 33.51 37.99, 35 37.86 S 38.5 36.94, 40 37 S 43.55 37.92, 45 38.29 S 48.51 39.38, 50 39.57 S 54.02 40.7, 55 39.57 S 59.13 29.22, 60 28 S 63.74 26.24, 65 25.43 S 68.86 20.59, 70 21.57 S 73.91 32.97, 75 34 S 78.56 31.43, 80 31 S 83.58 31.49, 85 31 S 88.5 27.51, 90 27.57 S 93.58 30.94, 95 31.43 S 98.51 31.19, 100 31 S 103.53 30.45, 105 30.14 S 108.53 28.54, 110 28.86 S 113.55 31.92, 115 32.29 S 118.56 31.86, 120 31.43 S 123.55 28.92, 125 29.29 S 128.74 33.19, 130 34 S 133.56 35.28, 135 35.71 S 138.52 37.25, 140 37 S 143.5 34.06, 145 34 S 148.51 36.76, 150 36.57 S 153.51 32.58, 155 32.71 S 158.67 36.74, 160 37.43 S 163.51 38.05, 165 37.86 S 168.5 36.2, 170 36.14 S 173.51 37.56, 175 37.43 S 178.53 35.6, 180 35.29 S 183.53 34.98, 185 35.29 S 188.6 36.89, 190 37.43 S 193.5 39.08, 195 39.14 S 198.58 38.35, 200 37.86 S 203.62 36.3, 205 35.71"
          fill="none"/>
    <circle r="4" cx="5" cy="40" fill="#3023AE"/>
    <circle r="4" cx="205" cy="35.71" fill="#C86DD7"/>      
</svg>