<svg width="200" height="50" viewBox="0 0 210 50" xmlns="http://www.w3.org/2000/svg">
    <defs>
        <linearGradient x1="0%" y1="0%" x2="100%" y2="0%" id="a">
            <stop stop-color="#3023AE" offset="0%"/>
            <stop stop-color="#C86DD7" offset="100%"/>
        </linearGradient>
    </defs>
    <path stroke="url(#a)"
          stroke-width="3"
          stroke-linejoin="round"
          stroke-linecap="round"
          d="M5 40 C 5.39 38.55, 8.8 22.15, 10 21.25 S 14 33.62, 15 32.5 S 18.5 10, 20 10 S 24.39 31.13, 25 32.5 S 28.6 31.97, 30 32.5 S 33.5 36.25, 35 36.25 S 38.5 32.5, 40 32.5 S 43.8 37.15, 45 36.25 S 48.6 25.53, 50 25 S 54 31.38, 55 32.5 S 58.6 35.72, 60 36.25 S 63.6 36.78, 65 36.25 S 68.6 33.03, 70 32.5 S 73.5 32.5, 75 32.5 S 79 33.62, 80 32.5 S 83.5 21.25, 85 21.25 S 89.17 31.25, 90 32.5 S 93.6 35.72, 95 36.25 S 98.5 36.25, 100 36.25 S 103.5 36.25, 105 36.25 S 108.5 36.25, 110 36.25 S 113.5 36.25, 115 36.25 S 118.5 36.25, 120 36.25 S 123.5 36.25, 125 36.25 S 128.5 36.25, 130 36.25 S 133.5 36.25, 135 36.25 S 138.5 36.25, 140 36.25 S 143.5 36.25, 145 36.25 S 148.5 36.25, 150 36.25 S 153.5 36.25, 155 36.25"
          fill="none"/>
    <circle r="4" cx="5" cy="40" fill="#3023AE"/>
    <circle r="4" cx="155" cy="36.25" fill="#C86DD7"/>      
</svg>