<svg width="200" height="50" viewBox="0 0 210 50" xmlns="http://www.w3.org/2000/svg">
    <defs>
        <linearGradient x1="0%" y1="0%" x2="100%" y2="0%" id="a">
            <stop stop-color="#3023AE" offset="0%"/>
            <stop stop-color="#C86DD7" offset="100%"/>
        </linearGradient>
    </defs>
    <path stroke="url(#a)"
          stroke-width="3"
          stroke-linejoin="round"
          stroke-linecap="round"
          d="M5 40 C 5.25 38.52, 8.68 10.72, 10 10 S 14.49 33.16, 15 34.57 S 18.58 36.99, 20 37.47 S 23.51 37.76, 25 37.91 S 28.51 38.32, 30 38.49 S 33.5 38.95, 35 39.07 S 38.5 39.22, 40 39.28 S 43.5 39.4, 45 39.45 S 48.5 39.59, 50 39.61 S 53.5 39.63, 55 39.61 S 58.5 39.55, 60 39.45 S 63.5 38.93, 65 38.94 S 68.5 39.43, 70 39.54 S 73.5 39.68, 75 39.68 S 78.5 39.56, 80 39.56 S 83.5 39.65, 85 39.65 S 88.5 39.54, 90 39.53 S 93.5 39.62, 95 39.61 S 98.5 39.5, 100 39.49 S 103.5 39.6, 105 39.53 S 108.5 39.08, 110 39.03 S 113.5 39.11, 115 39.19 S 118.5 39.51, 120 39.56 S 123.5 39.55, 125 39.53 S 128.51 39.6, 130 39.44 S 133.5 38.47, 135 38.43 S 138.51 39.03, 140 39.17 S 143.5 39.31, 145 39.4 S 148.5 39.72, 150 39.74 S 153.5 39.61, 155 39.56 S 158.5 39.4, 160 39.38 S 163.5 39.42, 165 39.44 S 168.51 39.7, 170 39.54 S 173.53 38.71, 175 38.4 S 178.74 38.25, 180 37.43 S 183.52 31.66, 185 31.88 S 188.73 38.14, 190 38.94 S 193.5 38.2, 195 38.15 S 198.51 38.47, 200 38.61 S 203.51 38.93, 205 39.07"
          fill="none"/>
    <circle r="4" cx="5" cy="40" fill="#3023AE"/>
    <circle r="4" cx="205" cy="39.07" fill="#C86DD7"/>      
</svg>