<svg width="200" height="50" viewBox="0 0 210 50" xmlns="http://www.w3.org/2000/svg">
    <defs>
        <linearGradient x1="0%" y1="0%" x2="100%" y2="0%" id="a">
            <stop stop-color="#3023AE" offset="0%"/>
            <stop stop-color="#C86DD7" offset="100%"/>
        </linearGradient>
    </defs>
    <path stroke="url(#a)"
          stroke-width="3"
          stroke-linejoin="round"
          stroke-linecap="round"
          d="M5 40 C 6.49 39.82, 8.5 39.4, 10 39.39 S 13.5 39.87, 15 39.93 S 19.13 41.02, 20 39.8 S 23.79 26.69, 25 25.81 S 29.02 31.36, 30 32.5 S 34.39 38.8, 35 37.43 S 38.64 10.64, 40 10 S 44.46 31.3, 45 32.7 S 48.7 35.06, 50 35.81 S 53.54 38.11, 55 38.45 S 58.51 37.98, 60 38.11 S 63.51 39.15, 65 39.32 S 68.5 39.25, 70 39.26 S 73.5 39.39, 75 39.39 S 78.5 39.36, 80 39.26 S 83.5 38.77, 85 38.72 S 88.5 38.84, 90 38.92 S 93.5 39.28, 95 39.26 S 98.61 39.34, 100 38.78 S 103.53 35.49, 105 35.2 S 108.51 36.63, 110 36.82 S 113.51 36.29, 115 36.49 S 118.52 37.93, 120 38.18 S 123.51 38.38, 125 38.18 S 128.5 36.86, 130 36.82 S 133.54 37.56, 135 37.91 S 138.51 39, 140 39.19 S 143.5 39.19, 145 39.19 S 148.5 39.17, 150 39.19 S 153.5 39.34, 155 39.32 S 158.5 39.1, 160 39.05 S 163.5 38.99, 165 38.99 S 168.5 38.96, 170 39.05 S 173.5 39.64, 175 39.59 S 178.51 38.93, 180 38.72 S 183.5 38.16, 185 38.18 S 188.51 38.64, 190 38.85 S 193.5 39.55, 195 39.59 S 198.5 39.22, 200 39.12 S 203.5 38.98, 205 38.92"
          fill="none"/>
    <circle r="4" cx="5" cy="40" fill="#3023AE"/>
    <circle r="4" cx="205" cy="38.92" fill="#C86DD7"/>      
</svg>