<svg width="200" height="50" viewBox="0 0 210 50" xmlns="http://www.w3.org/2000/svg">
    <defs>
        <linearGradient x1="0%" y1="0%" x2="100%" y2="0%" id="a">
            <stop stop-color="#3023AE" offset="0%"/>
            <stop stop-color="#C86DD7" offset="100%"/>
        </linearGradient>
    </defs>
    <path stroke="url(#a)"
          stroke-width="3"
          stroke-linejoin="round"
          stroke-linecap="round"
          d="M5 40 C 6.48 39.77, 8.5 39.25, 10 39.24 S 13.5 39.82, 15 39.92 S 18.5 39.92, 20 39.92 S 23.5 39.92, 25 39.92 S 28.5 39.92, 30 39.92 S 33.5 39.92, 35 39.92 S 38.94 40.98, 40 39.92 S 43.66 30.68, 45 30 S 48.79 33.92, 50 34.81 S 53.51 37.24, 55 37.4 S 58.5 35.99, 60 35.88 S 63.56 36.23, 65 36.64 S 68.55 38.33, 70 38.7 S 73.5 39.06, 75 39.16 S 79.51 40.81, 80 39.39 S 83.79 10.89, 85 10 S 89.49 30.57, 90 31.98 S 93.73 36.99, 95 37.79 S 98.5 38.36, 100 38.24 S 103.5 37, 105 37.02 S 108.54 38.07, 110 38.4 S 113.5 39.16, 115 39.24 S 118.5 38.89, 120 38.93 S 123.5 39.54, 125 39.54 S 128.5 39.02, 130 38.93 S 133.51 38.78, 135 38.93 S 138.5 39.82, 140 39.92 S 143.5 39.66, 145 39.62 S 148.5 39.6, 150 39.62 S 153.5 39.76, 155 39.77 S 158.5 39.73, 160 39.69 S 163.5 39.45, 165 39.47 S 168.5 39.82, 170 39.85 S 173.5 39.71, 175 39.69 S 178.5 39.72, 180 39.69 S 183.5 39.57, 185 39.47 S 188.5 39, 190 39.01 S 193.5 39.5, 195 39.54 S 198.5 39.28, 200 39.31 S 203.51 39.63, 205 39.77"
          fill="none"/>
    <circle r="4" cx="5" cy="40" fill="#3023AE"/>
    <circle r="4" cx="205" cy="39.77" fill="#C86DD7"/>      
</svg>