<svg width="200" height="50" viewBox="0 0 210 50" xmlns="http://www.w3.org/2000/svg">
    <defs>
        <linearGradient x1="0%" y1="0%" x2="100%" y2="0%" id="a">
            <stop stop-color="#3023AE" offset="0%"/>
            <stop stop-color="#C86DD7" offset="100%"/>
        </linearGradient>
    </defs>
    <path stroke="url(#a)"
          stroke-width="3"
          stroke-linejoin="round"
          stroke-linecap="round"
          d="M5 40 C 6.47 39.71, 8.5 39.04, 10 39.02 S 13.51 39.76, 15 39.89 S 18.5 39.91, 20 39.89 S 24.32 41.12, 25 39.78 S 28.71 20.98, 30 20.22 S 33.91 32.88, 35 33.91 S 38.59 29.15, 40 29.67 S 44.2 38.88, 45 37.61 S 49.49 15.32, 50 13.91 S 54.37 8.64, 55 10 S 59.43 34.04, 60 35.43 S 63.52 34.12, 65 34.35 S 68.63 36.35, 70 36.96 S 73.5 38.72, 75 38.8 S 78.5 37.45, 80 37.5 S 83.53 38.86, 85 39.13 S 88.5 39.33, 90 39.35 S 93.5 39.27, 95 39.24 S 98.5 39.13, 100 39.13 S 103.5 39.26, 105 39.24 S 108.51 39.18, 110 39.02 S 113.5 38.21, 115 38.15 S 118.51 38.44, 120 38.59 S 123.5 39.03, 125 39.13 S 128.55 39.62, 130 39.24 S 133.64 37.14, 135 36.52 S 138.5 34.6, 140 34.67 S 143.51 37.12, 145 36.96 S 148.51 33.45, 150 33.59 S 153.6 37.38, 155 37.93 S 158.51 37.35, 160 37.5 S 163.51 39.07, 165 38.91 S 168.56 36.82, 170 36.41 S 173.51 35.93, 175 36.09 S 178.56 37.06, 180 37.5 S 183.51 38.98, 185 39.13 S 188.5 38.5, 190 38.48 S 193.5 38.92, 195 39.02 S 198.5 39.13, 200 39.13 S 203.5 39.05, 205 39.02"
          fill="none"/>
    <circle r="4" cx="5" cy="40" fill="#3023AE"/>
    <circle r="4" cx="205" cy="39.02" fill="#C86DD7"/>      
</svg>