<svg width="200" height="50" viewBox="0 0 210 50" xmlns="http://www.w3.org/2000/svg">
    <defs>
        <linearGradient x1="0%" y1="0%" x2="100%" y2="0%" id="a">
            <stop stop-color="#3023AE" offset="0%"/>
            <stop stop-color="#C86DD7" offset="100%"/>
        </linearGradient>
    </defs>
    <path stroke="url(#a)"
          stroke-width="3"
          stroke-linejoin="round"
          stroke-linecap="round"
          d="M5 40 C 6.48 39.77, 8.5 39.24, 10 39.23 S 13.5 39.81, 15 39.91 S 18.79 40.8, 20 39.91 S 24.02 33.69, 25 32.56 S 28.5 28.5, 30 28.38 S 33.87 30.8, 35 31.79 S 38.74 37.91, 40 37.09 S 44.48 26.71, 45 25.3 S 48.98 8.9, 50 10 S 54.45 34.68, 55 36.07 S 58.53 34.9, 60 35.21 S 63.57 37.76, 65 38.21 S 68.5 38.28, 70 38.38 S 73.5 38.79, 75 38.89 S 78.5 38.97, 80 39.06 S 83.5 39.45, 85 39.49 S 88.5 39.36, 90 39.32 S 93.5 39.29, 95 39.23 S 98.51 39.02, 100 38.89 S 103.5 38.32, 105 38.38 S 108.5 39.2, 110 39.32 S 113.5 39.16, 115 39.15 S 118.64 39.87, 120 39.23 S 123.54 34.78, 125 34.44 S 128.5 36.86, 130 36.92 S 133.51 34.73, 135 34.87 S 138.58 37.36, 140 37.86 S 143.5 38.39, 145 38.38 S 148.51 37.91, 150 37.78 S 153.5 37.61, 155 37.52 S 158.51 37.05, 160 37.18 S 163.52 38.12, 165 38.38 S 168.5 38.87, 170 38.97 S 173.5 39.01, 175 39.06 S 178.5 39.32, 180 39.32 S 183.5 39.11, 185 39.06 S 188.5 38.94, 190 38.97 S 193.5 39.27, 195 39.23 S 198.5 38.73, 200 38.72 S 203.51 39.02, 205 39.15"
          fill="none"/>
    <circle r="4" cx="5" cy="40" fill="#3023AE"/>
    <circle r="4" cx="205" cy="39.15" fill="#C86DD7"/>      
</svg>