<svg width="200" height="50" viewBox="0 0 210 50" xmlns="http://www.w3.org/2000/svg">
    <defs>
        <linearGradient x1="0%" y1="0%" x2="100%" y2="0%" id="a">
            <stop stop-color="#3023AE" offset="0%"/>
            <stop stop-color="#C86DD7" offset="100%"/>
        </linearGradient>
    </defs>
    <path stroke="url(#a)"
          stroke-width="3"
          stroke-linejoin="round"
          stroke-linecap="round"
          d="M5 40 C 6.48 39.77, 8.5 39.22, 10 39.21 S 13.5 39.81, 15 39.92 S 18.5 39.92, 20 39.92 S 23.5 39.92, 25 39.92 S 28.93 40.97, 30 39.92 S 33.73 30.83, 35 30.03 S 38.79 32.75, 40 33.64 S 43.5 37.53, 45 37.41 S 48.51 32.69, 50 32.85 S 53.72 37.73, 55 38.51 S 59.5 40.4, 60 38.98 S 63.87 10.99, 65 10 S 69.48 28.77, 70 30.18 S 73.76 36.09, 75 36.94 S 78.5 36.92, 80 37.02 S 83.52 37.39, 85 37.64 S 88.52 38.51, 90 38.74 S 93.5 39.22, 95 39.21 S 98.5 38.67, 100 38.66 S 103.51 39, 105 39.14 S 108.5 39.55, 110 39.61 S 113.5 39.54, 115 39.53 S 118.5 39.54, 120 39.53 S 123.5 39.43, 125 39.45 S 128.5 39.67, 130 39.69 S 133.5 39.66, 135 39.61 S 138.5 39.48, 140 39.37 S 143.5 38.93, 145 38.9 S 148.5 39.05, 150 39.14 S 153.5 39.47, 155 39.53 S 158.5 39.53, 160 39.53 S 163.5 39.53, 165 39.53 S 168.55 39.92, 170 39.53 S 173.53 37.16, 175 36.86 S 178.5 37.37, 180 37.49 S 183.5 37.57, 185 37.64 S 188.51 38.12, 190 37.96 S 193.51 36.38, 195 36.54 S 198.53 38.77, 200 39.06 S 203.51 38.67, 205 38.51"
          fill="none"/>
    <circle r="4" cx="5" cy="40" fill="#3023AE"/>
    <circle r="4" cx="205" cy="38.51" fill="#C86DD7"/>      
</svg>