<svg width="200" height="50" viewBox="0 0 210 50" xmlns="http://www.w3.org/2000/svg">
    <defs>
        <linearGradient x1="0%" y1="0%" x2="100%" y2="0%" id="a">
            <stop stop-color="#3023AE" offset="0%"/>
            <stop stop-color="#C86DD7" offset="100%"/>
        </linearGradient>
    </defs>
    <path stroke="url(#a)"
          stroke-width="3"
          stroke-linejoin="round"
          stroke-linecap="round"
          d="M5 40 C 6.49 39.84, 8.97 40.56, 10 39.47 S 13.89 30.45, 15 29.44 S 19.31 31.64, 20 30.31 S 23.57 9.55, 25 10 S 29.48 32.05, 30 33.46 S 33.68 36.61, 35 37.32 S 38.52 38.58, 40 38.83 S 43.5 39.13, 45 39.01 S 48.5 38.06, 50 38.02 S 53.56 39.21, 55 38.77 S 58.61 35.55, 60 34.98 S 63.53 34.35, 65 34.63 S 68.52 36.66, 70 36.91 S 73.51 36.12, 75 36.32 S 78.54 37.91, 80 38.25 S 83.5 38.56, 85 38.66 S 88.5 38.9, 90 38.89 S 93.5 38.57, 95 38.6 S 98.52 39.35, 100 39.12 S 103.5 36.98, 105 37.02 S 108.51 39.16, 110 39.36 S 113.51 38.57, 115 38.37 S 118.54 38.36, 120 38.02 S 123.51 35.88, 125 36.03 S 128.57 38.54, 130 39.01 S 133.5 39.35, 135 39.3 S 138.5 38.73, 140 38.66 S 143.5 38.8, 145 38.83 S 148.5 38.79, 150 38.83 S 153.5 39.2, 155 39.12 S 158.5 38.26, 160 38.31 S 163.51 39.29, 165 39.47 S 168.5 39.61, 170 39.53 S 173.5 39, 175 38.95 S 178.5 39.15, 180 39.18 S 183.5 39.18, 185 39.12 S 188.5 38.85, 190 38.77 S 193.5 38.58, 195 38.6 S 198.5 38.81, 200 38.89 S 203.5 39.05, 205 39.12"
          fill="none"/>
    <circle r="4" cx="5" cy="40" fill="#3023AE"/>
    <circle r="4" cx="205" cy="39.12" fill="#C86DD7"/>      
</svg>