<svg width="200" height="50" viewBox="0 0 210 50" xmlns="http://www.w3.org/2000/svg">
    <defs>
        <linearGradient x1="0%" y1="0%" x2="100%" y2="0%" id="a">
            <stop stop-color="#3023AE" offset="0%"/>
            <stop stop-color="#C86DD7" offset="100%"/>
        </linearGradient>
    </defs>
    <path stroke="url(#a)"
          stroke-width="3"
          stroke-linejoin="round"
          stroke-linecap="round"
          d="M5 40 C 6.47 39.71, 9.22 40.31, 10 39.03 S 13.56 23.97, 15 23.55 S 19.07 34.96, 20 36.13 S 23.56 35.71, 25 36.13 S 28.56 38.61, 30 39.03 S 33.5 39.03, 35 39.03 S 38.7 39.78, 40 39.03 S 43.6 33.77, 45 33.23 S 48.7 34.41, 50 35.16 S 53.56 38.61, 55 39.03 S 58.76 38.9, 60 38.06 S 63.51 32.12, 65 32.26 S 68.65 38.38, 70 39.03 S 73.53 37.38, 75 37.1 S 78.53 36.82, 80 37.1 S 83.51 39.17, 85 39.03 S 88.53 36.41, 90 36.13 S 93.51 36.96, 95 37.1 S 98.56 37.52, 100 37.1 S 103.51 34.05, 105 34.19 S 108.5 38.06, 110 38.06 S 113.6 34.73, 115 34.19 S 118.53 34.47, 120 34.19 S 123.53 31.97, 125 32.26 S 128.51 35.99, 130 36.13 S 133.6 33.77, 135 33.23 S 138.53 32.55, 140 32.26 S 143.65 31.94, 145 31.29 S 148.92 28.46, 150 27.42 S 153.5 21.61, 155 21.61 S 158.92 26.38, 160 27.42 S 163.6 30.75, 165 31.29 S 169.36 32.65, 170 31.29 S 173.97 11.09, 175 10 S 179.34 19.3, 180 20.65 S 183.6 29.78, 185 30.32 S 188.53 24.8, 190 24.52 S 193.51 28.25, 195 28.39 S 198.76 26.32, 200 25.48 S 203.81 22.53, 205 21.61"
          fill="none"/>
    <circle r="4" cx="5" cy="40" fill="#3023AE"/>
    <circle r="4" cx="205" cy="21.61" fill="#C86DD7"/>      
</svg>