<svg width="200" height="50" viewBox="0 0 210 50" xmlns="http://www.w3.org/2000/svg">
    <defs>
        <linearGradient x1="0%" y1="0%" x2="100%" y2="0%" id="a">
            <stop stop-color="#3023AE" offset="0%"/>
            <stop stop-color="#C86DD7" offset="100%"/>
        </linearGradient>
    </defs>
    <path stroke="url(#a)"
          stroke-width="3"
          stroke-linejoin="round"
          stroke-linecap="round"
          d="M5 40 C 6.34 39.33, 8.54 37.86, 10 37.5 S 14.06 38.67, 15 37.5 S 19.26 26.3, 20 25 S 23.8 19.1, 25 20 S 29.26 31.2, 30 32.5 S 33.66 36.83, 35 37.5 S 38.5 37.5, 40 37.5 S 43.5 37.5, 45 37.5 S 48.5 37.5, 50 37.5 S 53.5 37.5, 55 37.5 S 58.54 37.86, 60 37.5 S 63.5 35, 65 35 S 68.54 37.14, 70 37.5 S 73.5 37.5, 75 37.5 S 78.5 37.5, 80 37.5 S 83.5 37.5, 85 37.5 S 89.49 38.91, 90 37.5 S 93.5 10, 95 10 S 99.49 36.09, 100 37.5 S 103.5 37.5, 105 37.5 S 108.5 37.5, 110 37.5 S 113.5 37.5, 115 37.5 S 118.5 37.5, 120 37.5 S 123.5 37.5, 125 37.5 S 128.5 37.5, 130 37.5 S 133.66 38.17, 135 37.5 S 138.5 32.5, 140 32.5 S 143.66 36.83, 145 37.5 S 148.5 37.5, 150 37.5 S 153.5 37.5, 155 37.5 S 158.5 37.5, 160 37.5 S 163.5 37.5, 165 37.5 S 168.5 37.5, 170 37.5 S 173.5 37.5, 175 37.5 S 178.5 37.5, 180 37.5 S 183.5 37.5, 185 37.5 S 188.5 37.5, 190 37.5 S 193.5 37.5, 195 37.5 S 198.5 37.5, 200 37.5"
          fill="none"/>
    <circle r="4" cx="5" cy="40" fill="#3023AE"/>
    <circle r="4" cx="200" cy="37.5" fill="#C86DD7"/>      
</svg>