<svg width="200" height="50" viewBox="0 0 210 50" xmlns="http://www.w3.org/2000/svg">
    <defs>
        <linearGradient x1="0%" y1="0%" x2="100%" y2="0%" id="a">
            <stop stop-color="#3023AE" offset="0%"/>
            <stop stop-color="#C86DD7" offset="100%"/>
        </linearGradient>
    </defs>
    <path stroke="url(#a)"
          stroke-width="3"
          stroke-linejoin="round"
          stroke-linecap="round"
          d="M5 40 C 6.34 39.33, 8.54 37.86, 10 37.5 S 13.5 37.5, 15 37.5 S 18.5 37.5, 20 37.5 S 23.5 37.5, 25 37.5 S 28.5 37.5, 30 37.5 S 33.5 37.5, 35 37.5 S 38.5 37.5, 40 37.5 S 43.5 37.5, 45 37.5 S 48.5 37.5, 50 37.5 S 53.5 37.5, 55 37.5 S 58.5 37.5, 60 37.5 S 63.5 37.5, 65 37.5 S 68.5 37.5, 70 37.5 S 73.5 37.5, 75 37.5 S 78.5 37.5, 80 37.5 S 83.5 37.5, 85 37.5 S 88.54 37.86, 90 37.5 S 94.17 36.25, 95 35 S 98.8 23.4, 100 22.5 S 103.8 26.6, 105 27.5 S 108.94 28.94, 110 30 S 113.8 36.6, 115 37.5 S 118.5 37.5, 120 37.5 S 123.5 37.5, 125 37.5 S 128.5 37.5, 130 37.5 S 133.5 37.5, 135 37.5 S 138.66 38.17, 140 37.5 S 143.94 33.56, 145 32.5 S 149.39 28.87, 150 27.5 S 153.8 9.1, 155 10 S 159.49 33.59, 160 35 S 163.54 37.14, 165 37.5 S 168.54 37.86, 170 37.5 S 173.54 35.36, 175 35 S 178.54 34.64, 180 35 S 183.54 37.14, 185 37.5 S 188.66 38.17, 190 37.5 S 193.8 33.4, 195 32.5 S 198.5 30, 200 30 S 203.66 31.83, 205 32.5"
          fill="none"/>
    <circle r="4" cx="5" cy="40" fill="#3023AE"/>
    <circle r="4" cx="205" cy="32.5" fill="#C86DD7"/>      
</svg>