<svg width="200" height="50" viewBox="0 0 210 50" xmlns="http://www.w3.org/2000/svg">
    <defs>
        <linearGradient x1="0%" y1="0%" x2="100%" y2="0%" id="a">
            <stop stop-color="#3023AE" offset="0%"/>
            <stop stop-color="#C86DD7" offset="100%"/>
        </linearGradient>
    </defs>
    <path stroke="url(#a)"
          stroke-width="3"
          stroke-linejoin="round"
          stroke-linecap="round"
          d="M5 40 C 6.13 39.01, 8.7 36.39, 10 35.64 S 13.62 33.67, 15 34.26 S 18.7 39.19, 20 39.93 S 23.5 39.93, 25 39.93 S 28.5 39.93, 30 39.93 S 33.58 40.44, 35 39.96 S 39.15 37.79, 40 36.55 S 43.51 25.16, 45 25.33 S 48.89 36.67, 50 37.68 S 53.52 34.67, 55 34.44 S 58.55 35.73, 60 36.11 S 63.5 37.09, 65 37.06 S 68.78 36.81, 70 35.93 S 73.56 30.23, 75 29.83 S 78.68 32.43, 80 33.14 S 83.51 35.08, 85 35.21 S 88.68 34.76, 90 34.04 S 93.61 30.31, 95 29.76 S 98.67 30.78, 100 30.08 S 103.94 25.59, 105 24.53 S 108.55 20.42, 110 20.02 S 113.74 20.95, 115 21.77 S 118.81 25.65, 120 26.56 S 123.53 29.05, 125 29.36 S 128.5 28.6, 130 28.7 S 134.29 31.33, 135 30.01 S 138.56 10.4, 140 10 S 143.51 27.03, 145 27.22 S 148.5 11.21, 150 11.31 S 154.17 26.66, 155 27.91 S 158.5 26.5, 160 26.42 S 163.5 27.31, 165 27.4 S 168.58 27.48, 170 27 S 173.6 23.49, 175 24.02 S 178.54 30.46, 180 30.81 S 183.78 27.32, 185 26.45 S 188.71 24.42, 190 23.66 S 193.55 20.19, 195 20.57 S 198.74 25.5, 200 26.31 S 203.51 26.77, 205 26.96"
          fill="none"/>
    <circle r="4" cx="5" cy="40" fill="#3023AE"/>
    <circle r="4" cx="205" cy="26.96" fill="#C86DD7"/>      
</svg>