<svg width="200" height="50" viewBox="0 0 210 50" xmlns="http://www.w3.org/2000/svg">
    <defs>
        <linearGradient x1="0%" y1="0%" x2="100%" y2="0%" id="a">
            <stop stop-color="#3023AE" offset="0%"/>
            <stop stop-color="#C86DD7" offset="100%"/>
        </linearGradient>
    </defs>
    <path stroke="url(#a)"
          stroke-width="3"
          stroke-linejoin="round"
          stroke-linecap="round"
          d="M5 40 C 6.5 39.99, 8.5 39.98, 10 39.98 S 13.5 39.98, 15 39.98 S 18.5 39.98, 20 39.98 S 23.5 39.98, 25 39.98 S 28.5 39.98, 30 39.98 S 33.5 39.98, 35 39.98 S 39.38 41.35, 40 39.98 S 43.55 18.27, 45 17.88 S 49.34 35.97, 50 37.32 S 53.52 38.03, 55 38.29 S 58.5 38.93, 60 39.05 S 63.5 39.07, 65 39.09 S 68.5 39.24, 70 39.2 S 73.5 38.84, 75 38.84 S 78.5 39.22, 80 39.19 S 83.54 39, 85 38.65 S 88.5 36.86, 90 36.81 S 93.5 38.37, 95 38.34 S 98.51 36.84, 100 36.64 S 103.5 36.95, 105 37.02 S 108.58 37.58, 110 37.09 S 113.51 33.78, 115 33.58 S 118.59 35.23, 120 35.74 S 123.5 37.09, 125 37.16 S 128.55 36.57, 130 36.19 S 133.55 34.94, 135 34.56 S 138.55 33.98, 140 33.58 S 143.57 32.24, 145 31.78 S 148.51 30.21, 150 30.37 S 153.53 32.57, 155 32.85 S 158.51 32.1, 160 32.3 S 163.51 34.01, 165 34.21 S 168.56 34.08, 170 33.66 S 173.51 31.51, 175 31.32 S 179.36 33.71, 180 32.35 S 183.7 10.75, 185 10 S 188.96 25.5, 190 26.58 S 193.57 20.77, 195 20.31 S 198.81 22.44, 200 23.35 S 203.9 26.94, 205 27.96"
          fill="none"/>
    <circle r="4" cx="5" cy="40" fill="#3023AE"/>
    <circle r="4" cx="205" cy="27.96" fill="#C86DD7"/>      
</svg>