<svg width="200" height="50" viewBox="0 0 210 50" xmlns="http://www.w3.org/2000/svg">
    <defs>
        <linearGradient x1="0%" y1="0%" x2="100%" y2="0%" id="a">
            <stop stop-color="#3023AE" offset="0%"/>
            <stop stop-color="#C86DD7" offset="100%"/>
        </linearGradient>
    </defs>
    <path stroke="url(#a)"
          stroke-width="3"
          stroke-linejoin="round"
          stroke-linecap="round"
          d="M5 40 C 5.25 38.52, 9.18 11.25, 10 10 S 14.11 23.6, 15 24.81 S 18.54 23.34, 20 23.67 S 23.76 26.24, 25 27.09 S 28.52 30.74, 30 30.51 S 33.5 25.46, 35 25.57 S 38.55 30.88, 40 31.27 S 43.55 27.85, 45 28.23 S 48.68 33.22, 50 33.92 S 53.5 33.43, 55 33.54 S 58.5 34.62, 60 34.68 S 63.5 34.03, 65 33.92 S 68.5 33.81, 70 33.92 S 73.63 35.3, 75 34.68 S 78.5 29.37, 80 29.37 S 83.65 34.02, 85 34.68 S 88.58 34.78, 90 34.3 S 93.51 31.1, 95 31.27 S 98.55 35.06, 100 35.44 S 103.55 34.31, 105 33.92 S 108.56 32.34, 110 32.78 S 113.51 37.13, 115 36.96 S 118.91 32.68, 120 31.65 S 123.6 26.94, 125 27.47 S 128.85 34.48, 130 35.44 S 133.68 36.52, 135 35.82 S 138.5 30.13, 140 30.13 S 143.65 35.16, 145 35.82 S 148.53 35.34, 150 35.06 S 153.5 33.81, 155 33.92 S 158.52 35.59, 160 35.82 S 163.5 35.33, 165 35.44 S 168.55 36.97, 170 36.58 S 173.51 32.95, 175 32.78 S 178.52 35.66, 180 35.44 S 183.54 31.6, 185 31.27 S 188.51 32.99, 190 33.16 S 193.56 32.84, 195 32.41 S 198.7 29.39, 200 30.13 S 204.2 36.83, 205 38.1"
          fill="none"/>
    <circle r="4" cx="5" cy="40" fill="#3023AE"/>
    <circle r="4" cx="205" cy="38.1" fill="#C86DD7"/>      
</svg>