<svg width="200" height="50" viewBox="0 0 210 50" xmlns="http://www.w3.org/2000/svg">
    <defs>
        <linearGradient x1="0%" y1="0%" x2="100%" y2="0%" id="a">
            <stop stop-color="#3023AE" offset="0%"/>
            <stop stop-color="#C86DD7" offset="100%"/>
        </linearGradient>
    </defs>
    <path stroke="url(#a)"
          stroke-width="3"
          stroke-linejoin="round"
          stroke-linecap="round"
          d="M5 40 C 5.25 38.52, 8.58 10.47, 10 10 S 14.47 35.27, 15 36.67 S 19.1 37.87, 20 36.67 S 23.75 24.16, 25 23.33 S 28.5 30, 30 30 S 33.5 23.33, 35 23.33 S 38.75 29.17, 40 30 S 43.5 30, 45 30 S 48.75 29.17, 50 30 S 53.58 37.14, 55 36.67 S 58.75 27.5, 60 26.67 S 63.94 28.94, 65 30 S 68.58 36.2, 70 36.67 S 73.5 33.33, 75 33.33 S 78.5 36.67, 80 36.67 S 83.5 33.33, 85 33.33 S 88.58 37.14, 90 36.67 S 94.1 31.2, 95 30 S 98.58 22.86, 100 23.33 S 103.58 33.8, 105 33.33 S 108.58 19.52, 110 20 S 114.23 35.38, 115 36.67 S 118.5 36.67, 120 36.67 S 123.5 36.67, 125 36.67 S 128.58 37.15, 130 36.67 S 134.1 34.53, 135 33.33 S 138.58 23.8, 140 23.33 S 143.75 29.17, 145 30 S 148.58 30.47, 150 30 S 153.75 25.84, 155 26.67 S 158.94 35.61, 160 36.67 S 163.5 36.67, 165 36.67 S 168.75 37.5, 170 36.67 S 173.5 30, 175 30 S 178.58 36.2, 180 36.67 S 183.5 33.33, 185 33.33 S 188.58 37.14, 190 36.67 S 193.58 30.48, 195 30 S 198.58 32.86, 200 33.33 S 203.5 33.33, 205 33.33"
          fill="none"/>
    <circle r="4" cx="5" cy="40" fill="#3023AE"/>
    <circle r="4" cx="205" cy="33.33" fill="#C86DD7"/>      
</svg>