<svg width="200" height="50" viewBox="0 0 210 50" xmlns="http://www.w3.org/2000/svg">
    <defs>
        <linearGradient x1="0%" y1="0%" x2="100%" y2="0%" id="a">
            <stop stop-color="#3023AE" offset="0%"/>
            <stop stop-color="#C86DD7" offset="100%"/>
        </linearGradient>
    </defs>
    <path stroke="url(#a)"
          stroke-width="3"
          stroke-linejoin="round"
          stroke-linecap="round"
          d="M5 40 C 6.46 39.64, 8.51 38.94, 10 38.75 S 13.5 38.75, 15 38.75 S 18.5 38.75, 20 38.75 S 23.5 38.75, 25 38.75 S 28.5 38.75, 30 38.75 S 33.5 38.75, 35 38.75 S 38.5 38.75, 40 38.75 S 43.5 38.75, 45 38.75 S 48.5 38.75, 50 38.75 S 53.5 38.75, 55 38.75 S 58.5 38.75, 60 38.75 S 63.5 38.75, 65 38.75 S 68.5 38.75, 70 38.75 S 73.5 38.75, 75 38.75 S 78.5 38.75, 80 38.75 S 83.51 38.94, 85 38.75 S 88.6 38.03, 90 37.5 S 93.51 34.81, 95 35 S 98.6 38.22, 100 38.75 S 103.5 38.75, 105 38.75 S 108.5 38.75, 110 38.75 S 113.5 38.75, 115 38.75 S 118.5 38.75, 120 38.75 S 124.29 40.07, 125 38.75 S 128.5 20, 130 20 S 134.21 37.47, 135 38.75 S 138.87 37.24, 140 36.25 S 143.51 29.81, 145 30 S 148.8 36.6, 150 37.5 S 153.51 37.31, 155 37.5 S 158.51 38.56, 160 38.75 S 163.5 38.75, 165 38.75 S 168.5 38.75, 170 38.75 S 173.5 38.75, 175 38.75 S 178.5 38.75, 180 38.75 S 183.5 38.75, 185 38.75 S 188.54 39.11, 190 38.75 S 193.66 36.92, 195 36.25 S 199.47 35.15, 200 33.75 S 204.69 11.47, 205 10"
          fill="none"/>
    <circle r="4" cx="5" cy="40" fill="#3023AE"/>
    <circle r="4" cx="205" cy="10" fill="#C86DD7"/>      
</svg>