<svg width="200" height="50" viewBox="0 0 210 50" xmlns="http://www.w3.org/2000/svg">
    <defs>
        <linearGradient x1="0%" y1="0%" x2="100%" y2="0%" id="a">
            <stop stop-color="#3023AE" offset="0%"/>
            <stop stop-color="#C86DD7" offset="100%"/>
        </linearGradient>
    </defs>
    <path stroke="url(#a)"
          stroke-width="3"
          stroke-linejoin="round"
          stroke-linecap="round"
          d="M5 40 C 5.52 38.59, 8.99 27.47, 10 26.36 S 13.68 28.37, 15 29.09 S 18.84 30.87, 20 31.82 S 23.68 36.55, 25 37.27 S 28.5 37.27, 30 37.27 S 33.5 37.27, 35 37.27 S 38.99 38.38, 40 37.27 S 44.22 27.64, 45 26.36 S 48.55 20.51, 50 20.91 S 54.11 27.88, 55 29.09 S 58.68 33.83, 60 34.55 S 63.99 35.66, 65 34.55 S 68.99 24.75, 70 23.64 S 73.68 22.92, 75 23.64 S 78.55 29.49, 80 29.09 S 83.68 20.19, 85 20.91 S 89.22 33.27, 90 34.55 S 93.84 38.22, 95 37.27 S 98.55 26.75, 100 26.36 S 103.84 33.6, 105 34.55 S 109.22 35.83, 110 34.55 S 113.55 18.58, 115 18.18 S 119.11 30.61, 120 31.82 S 123.55 32.22, 125 31.82 S 128.5 29.09, 130 29.09 S 133.55 31.42, 135 31.82 S 138.55 32.22, 140 31.82 S 143.68 29.81, 145 29.09 S 148.5 26.36, 150 26.36 S 154.22 30.37, 155 29.09 S 158.55 9.6, 160 10 S 163.5 31.82, 165 31.82 S 168.84 10.95, 170 10 S 174.3 22.31, 175 23.64 S 178.55 28.7, 180 29.09 S 183.55 25.96, 185 26.36 S 188.99 30.71, 190 31.82 S 194.3 38.6, 195 37.27 S 199.3 14.06, 200 12.73 S 203.99 17.07, 205 18.18"
          fill="none"/>
    <circle r="4" cx="5" cy="40" fill="#3023AE"/>
    <circle r="4" cx="205" cy="18.18" fill="#C86DD7"/>      
</svg>