<svg width="200" height="50" viewBox="0 0 210 50" xmlns="http://www.w3.org/2000/svg">
    <defs>
        <linearGradient x1="0%" y1="0%" x2="100%" y2="0%" id="a">
            <stop stop-color="#3023AE" offset="0%"/>
            <stop stop-color="#C86DD7" offset="100%"/>
        </linearGradient>
    </defs>
    <path stroke="url(#a)"
          stroke-width="3"
          stroke-linejoin="round"
          stroke-linecap="round"
          d="M5 40 C 6.5 39.98, 9.53 41.36, 10 39.94 S 13.66 10.68, 15 10 S 19.42 33.51, 20 34.89 S 23.52 33.42, 25 33.68 S 28.53 36.37, 30 36.68 S 33.5 35.83, 35 35.79 S 38.69 37.15, 40 36.43 S 43.66 30.98, 45 30.3 S 48.51 31.11, 50 31.32 S 53.52 31.47, 55 31.7 S 58.61 32.29, 60 32.85 S 63.63 35.11, 65 35.72 S 68.5 37.27, 70 37.32 S 73.53 36.32, 75 36.04 S 78.52 35.66, 80 35.4 S 83.52 34, 85 34.26 S 88.52 36.93, 90 37.19 S 93.5 35.94, 95 36.04 S 98.51 38.05, 100 37.89 S 103.55 35.35, 105 34.96 S 108.51 35.09, 110 35.21 S 113.51 35.6, 115 35.79 S 118.52 36.25, 120 36.49 S 123.52 37.14, 125 37.38 S 128.5 38.14, 130 38.09 S 133.5 37.12, 135 37.06 S 138.5 37.74, 140 37.7 S 143.5 36.74, 145 36.81 S 148.51 37.97, 150 38.15 S 153.5 37.95, 155 38.02 S 158.5 38.7, 160 38.6 S 163.5 37.45, 165 37.38 S 168.51 37.96, 170 38.15 S 173.5 38.7, 175 38.66 S 178.5 37.94, 180 37.89 S 183.5 38.24, 185 38.34 S 188.5 38.44, 190 38.53 S 193.5 38.81, 195 38.91 S 198.5 39.21, 200 39.17 S 203.51 38.81, 205 38.66"
          fill="none"/>
    <circle r="4" cx="5" cy="40" fill="#3023AE"/>
    <circle r="4" cx="205" cy="38.66" fill="#C86DD7"/>      
</svg>