<svg width="200" height="50" viewBox="0 0 210 50" xmlns="http://www.w3.org/2000/svg">
    <defs>
        <linearGradient x1="0%" y1="0%" x2="100%" y2="0%" id="a">
            <stop stop-color="#3023AE" offset="0%"/>
            <stop stop-color="#C86DD7" offset="100%"/>
        </linearGradient>
    </defs>
    <path stroke="url(#a)"
          stroke-width="3"
          stroke-linejoin="round"
          stroke-linecap="round"
          d="M5 40 C 6.5 39.99, 8.5 39.96, 10 39.95 S 13.51 40.14, 15 39.95 S 18.5 38.73, 20 38.66 S 23.55 39.85, 25 39.45 S 28.54 36.28, 30 35.93 S 33.53 36.71, 35 37.02 S 38.52 37.83, 40 38.07 S 43.5 38.57, 45 38.61 S 48.67 39.01, 50 38.31 S 53.75 34.14, 55 33.31 S 58.56 32.14, 60 31.72 S 64.37 31.74, 65 30.38 S 68.63 9.4, 70 10 S 74.48 33.33, 75 34.74 S 78.54 36.49, 80 36.83 S 83.5 37.01, 85 37.07 S 88.5 37.2, 90 37.22 S 93.52 36.98, 95 37.22 S 98.5 38.71, 100 38.81 S 103.5 37.93, 105 37.87 S 108.5 38.4, 110 38.41 S 113.5 37.93, 115 37.92 S 118.53 38.6, 120 38.31 S 123.5 36.03, 125 35.98 S 128.54 37.62, 130 37.97 S 133.5 38.44, 135 38.36 S 138.5 37.41, 140 37.42 S 143.51 38.28, 145 38.41 S 148.5 38.34, 150 38.26 S 153.51 38.05, 155 37.87 S 158.52 37.3, 160 37.07 S 163.5 36.42, 165 36.33 S 168.51 36.3, 170 36.48 S 173.5 37.45, 175 37.52 S 178.5 37.02, 180 36.98 S 183.55 37.67, 185 37.27 S 188.52 34.51, 190 34.25 S 194.19 36.8, 195 35.54 S 198.56 19.21, 200 18.78 S 204.49 31.1, 205 32.51"
          fill="none"/>
    <circle r="4" cx="5" cy="40" fill="#3023AE"/>
    <circle r="4" cx="205" cy="32.51" fill="#C86DD7"/>      
</svg>