<svg width="200" height="50" viewBox="0 0 210 50" xmlns="http://www.w3.org/2000/svg">
    <defs>
        <linearGradient x1="0%" y1="0%" x2="100%" y2="0%" id="a">
            <stop stop-color="#3023AE" offset="0%"/>
            <stop stop-color="#C86DD7" offset="100%"/>
        </linearGradient>
    </defs>
    <path stroke="url(#a)"
          stroke-width="3"
          stroke-linejoin="round"
          stroke-linecap="round"
          d="M5 40 C 6.5 40, 8.5 39.99, 10 39.99 S 13.5 39.99, 15 39.99 S 18.5 39.99, 20 39.99 S 23.5 39.99, 25 39.99 S 28.5 39.99, 30 39.99 S 33.5 39.99, 35 39.99 S 39.53 41.41, 40 39.99 S 44.22 11.28, 45 10 S 49.44 22.16, 50 23.55 S 54.1 33.51, 55 34.71 S 58.57 36.51, 60 36.96 S 63.51 38.03, 65 37.89 S 68.5 36.13, 70 36.03 S 73.51 37.11, 75 37.24 S 78.52 36.7, 80 36.92 S 83.52 38.46, 85 38.72 S 88.5 38.66, 90 38.7 S 93.5 38.89, 95 38.96 S 98.5 39.1, 100 39.16 S 103.5 39.34, 105 39.35 S 108.5 39.24, 110 39.24 S 113.5 39.33, 115 39.37 S 118.5 39.55, 120 39.48 S 123.5 39.01, 125 38.91 S 128.5 38.8, 130 38.82 S 133.5 38.96, 135 39.03 S 138.5 39.26, 140 39.28 S 143.5 39.22, 145 39.14 S 148.58 39.19, 150 38.72 S 153.5 35.94, 155 35.84 S 158.55 37.66, 160 38.04 S 163.51 38.3, 165 38.46 S 168.5 39.02, 170 39.12 S 173.5 39.11, 175 39.12 S 178.5 39.14, 180 39.17 S 183.56 39.75, 185 39.34 S 188.53 36.64, 190 36.36 S 193.55 37.03, 195 37.43 S 198.52 38.9, 200 39.14 S 203.5 39.06, 205 39.03"
          fill="none"/>
    <circle r="4" cx="5" cy="40" fill="#3023AE"/>
    <circle r="4" cx="205" cy="39.03" fill="#C86DD7"/>      
</svg>