<svg width="200" height="50" viewBox="0 0 210 50" xmlns="http://www.w3.org/2000/svg">
    <defs>
        <linearGradient x1="0%" y1="0%" x2="100%" y2="0%" id="a">
            <stop stop-color="#3023AE" offset="0%"/>
            <stop stop-color="#C86DD7" offset="100%"/>
        </linearGradient>
    </defs>
    <path stroke="url(#a)"
          stroke-width="3"
          stroke-linejoin="round"
          stroke-linecap="round"
          d="M5 40 C 6.48 39.78, 8.51 39.41, 10 39.26 S 13.5 39.05, 15 39.01 S 18.5 38.97, 20 39.01 S 23.5 39.3, 25 39.26 S 28.5 38.69, 30 38.76 S 33.51 39.6, 35 39.75 S 38.5 39.79, 40 39.75 S 43.51 39.65, 45 39.5 S 48.5 38.8, 50 38.76 S 54.35 40.61, 55 39.26 S 58.52 18.15, 60 17.93 S 64.35 36.42, 65 37.77 S 68.5 38.83, 70 38.76 S 73.5 37.31, 75 37.27 S 79.34 39.86, 80 38.51 S 83.59 17.21, 85 16.69 S 89.32 33.45, 90 34.79 S 93.53 36.24, 95 36.53 S 98.53 36.49, 100 36.78 S 103.52 38.77, 105 38.51 S 108.51 35.19, 110 35.04 S 113.52 37.26, 115 37.52 S 118.5 36.74, 120 36.78 S 123.5 37.81, 125 37.77 S 128.5 36.6, 130 36.53 S 133.5 37.38, 135 37.27 S 138.53 36.08, 140 35.79 S 143.5 35.33, 145 35.29 S 148.5 35.47, 150 35.54 S 153.51 35.61, 155 35.79 S 158.51 36.96, 160 36.78 S 163.58 35.04, 165 34.55 S 168.54 32.95, 170 33.31 S 173.55 36.63, 175 37.02 S 179.48 37.44, 180 36.03 S 183.51 10.18, 185 10 S 189.4 33.41, 190 34.79 S 193.5 32.99, 195 33.06 S 198.58 34.8, 200 35.29 S 203.54 36.17, 205 36.53"
          fill="none"/>
    <circle r="4" cx="5" cy="40" fill="#3023AE"/>
    <circle r="4" cx="205" cy="36.53" fill="#C86DD7"/>      
</svg>