<svg width="200" height="50" viewBox="0 0 210 50" xmlns="http://www.w3.org/2000/svg">
    <defs>
        <linearGradient x1="0%" y1="0%" x2="100%" y2="0%" id="a">
            <stop stop-color="#3023AE" offset="0%"/>
            <stop stop-color="#C86DD7" offset="100%"/>
        </linearGradient>
    </defs>
    <path stroke="url(#a)"
          stroke-width="3"
          stroke-linejoin="round"
          stroke-linecap="round"
          d="M5 40 C 6.5 39.97, 8.5 39.9, 10 39.89 S 13.5 39.95, 15 39.96 S 18.5 39.95, 20 39.95 S 23.5 39.95, 25 39.95 S 28.5 39.95, 30 39.95 S 33.5 39.96, 35 39.96 S 38.5 39.95, 40 39.95 S 43.5 39.95, 45 39.95 S 48.5 39.92, 50 39.92 S 53.5 39.95, 55 39.95 S 58.5 39.91, 60 39.91 S 63.5 39.93, 65 39.93 S 68.5 39.93, 70 39.93 S 73.5 39.93, 75 39.93 S 78.5 39.92, 80 39.91 S 83.5 39.89, 85 39.89 S 88.5 39.89, 90 39.89 S 94.52 41.3, 95 39.88 S 98.72 10.79, 100 10 S 104.48 32.32, 105 33.73 S 108.64 36.22, 110 36.85 S 113.52 38.13, 115 38.38 S 118.5 38.48, 120 38.55 S 123.5 38.8, 125 38.82 S 128.5 38.69, 130 38.71 S 133.5 38.97, 135 38.98 S 138.5 38.85, 140 38.8 S 143.5 38.68, 145 38.66 S 148.51 38.9, 150 38.69 S 153.5 37.31, 155 37.24 S 158.52 37.98, 160 38.2 S 163.5 38.58, 165 38.7 S 168.5 38.9, 170 38.97 S 173.5 39.17, 175 39.19 S 178.5 39.14, 180 39.13 S 183.5 39.09, 185 39.1 S 188.5 39.22, 190 39.18 S 193.5 38.81, 195 38.81 S 198.5 39.12, 200 39.16 S 203.5 39.12, 205 39.1"
          fill="none"/>
    <circle r="4" cx="5" cy="40" fill="#3023AE"/>
    <circle r="4" cx="205" cy="39.1" fill="#C86DD7"/>      
</svg>