<svg width="200" height="50" viewBox="0 0 210 50" xmlns="http://www.w3.org/2000/svg">
    <defs>
        <linearGradient x1="0%" y1="0%" x2="100%" y2="0%" id="a">
            <stop stop-color="#3023AE" offset="0%"/>
            <stop stop-color="#C86DD7" offset="100%"/>
        </linearGradient>
    </defs>
    <path stroke="url(#a)"
          stroke-width="3"
          stroke-linejoin="round"
          stroke-linecap="round"
          d="M5 40 C 5.25 38.52, 8.58 10.49, 10 10 S 14.47 35.11, 15 36.51 S 18.67 36.91, 20 36.22 S 23.5 31.3, 25 31.3 S 28.63 35.64, 30 36.25 S 33.61 36.28, 35 35.72 S 38.78 33.12, 40 32.25 S 43.53 28.93, 45 28.61 S 48.64 29.44, 50 30.06 S 53.57 32.74, 55 33.18 S 58.5 33.15, 60 33.11 S 63.5 32.89, 65 32.89 S 68.52 33.34, 70 33.08 S 73.63 31.72, 75 31.11 S 78.51 28.79, 80 28.61 S 83.5 29.99, 85 29.87 S 88.55 28.2, 90 27.83 S 93.54 27.63, 95 27.31 S 98.5 25.71, 100 25.62 S 103.5 26.81, 105 26.71 S 108.69 25.71, 110 24.98 S 113.5 21, 115 21.12 S 118.5 25.8, 120 25.78 S 123.55 21.4, 125 21.01 S 128.6 22.52, 130 23.07 S 133.54 24.59, 135 24.93 S 138.54 25.77, 140 25.41 S 143.62 23.03, 145 22.45 S 148.59 21.77, 150 21.25 S 153.5 18.7, 155 18.77 S 158.55 21.37, 160 21.75 S 163.56 21.8, 165 21.38 S 168.51 18.64, 170 18.82 S 173.5 22.6, 175 22.6 S 178.66 19.47, 180 18.79 S 183.51 17.31, 185 17.51 S 188.5 20.19, 190 20.13 S 193.52 17.36, 195 17.13 S 198.5 18.51, 200 18.58 S 203.53 17.88, 205 17.59"
          fill="none"/>
    <circle r="4" cx="5" cy="40" fill="#3023AE"/>
    <circle r="4" cx="205" cy="17.59" fill="#C86DD7"/>      
</svg>