<svg width="200" height="50" viewBox="0 0 210 50" xmlns="http://www.w3.org/2000/svg">
    <defs>
        <linearGradient x1="0%" y1="0%" x2="100%" y2="0%" id="a">
            <stop stop-color="#3023AE" offset="0%"/>
            <stop stop-color="#C86DD7" offset="100%"/>
        </linearGradient>
    </defs>
    <path stroke="url(#a)"
          stroke-width="3"
          stroke-linejoin="round"
          stroke-linecap="round"
          d="M5 40 C 5.25 38.52, 8.58 10.49, 10 10 S 14.47 35.11, 15 36.51 S 18.67 36.89, 20 36.2 S 23.5 31.31, 25 31.32 S 28.63 35.65, 30 36.25 S 33.61 36.28, 35 35.72 S 38.78 33.07, 40 32.2 S 43.53 28.87, 45 28.56 S 48.64 29.48, 50 30.11 S 53.56 32.75, 55 33.18 S 58.5 33.15, 60 33.11 S 63.5 32.93, 65 32.92 S 68.52 33.27, 70 33.01 S 73.63 31.79, 75 31.18 S 78.51 28.74, 80 28.54 S 83.5 29.93, 85 29.83 S 88.54 28.21, 90 27.85 S 93.54 27.67, 95 27.33 S 98.5 25.61, 100 25.52 S 103.5 26.83, 105 26.76 S 108.69 25.76, 110 25.02 S 113.5 21.01, 115 21.12 S 118.5 25.82, 120 25.78 S 123.55 21.21, 125 20.84 S 128.6 22.67, 130 23.22 S 133.54 24.44, 135 24.78 S 138.54 25.93, 140 25.57 S 143.62 22.88, 145 22.29 S 148.59 21.77, 150 21.27 S 153.5 18.63, 155 18.72 S 158.55 21.49, 160 21.88 S 163.57 21.89, 165 21.44 S 168.51 18.54, 170 18.72 S 173.5 22.7, 175 22.67 S 178.66 19.17, 180 18.49 S 183.52 17.33, 185 17.56 S 188.5 20.16, 190 20.06 S 193.51 17.04, 195 16.87 S 198.5 18.82, 200 18.92 S 203.55 17.94, 205 17.54"
          fill="none"/>
    <circle r="4" cx="5" cy="40" fill="#3023AE"/>
    <circle r="4" cx="205" cy="17.54" fill="#C86DD7"/>      
</svg>