<svg width="200" height="50" viewBox="0 0 210 50" xmlns="http://www.w3.org/2000/svg">
    <defs>
        <linearGradient x1="0%" y1="0%" x2="100%" y2="0%" id="a">
            <stop stop-color="#3023AE" offset="0%"/>
            <stop stop-color="#C86DD7" offset="100%"/>
        </linearGradient>
    </defs>
    <path stroke="url(#a)"
          stroke-width="3"
          stroke-linejoin="round"
          stroke-linecap="round"
          d="M5 40 C 5.31 38.53, 8.59 17.06, 10 16.54 S 14.18 35.04, 15 36.3 S 18.5 31.96, 20 31.95 S 23.5 36.21, 25 36.23 S 28.83 33.03, 30 32.1 S 33.5 28.29, 35 28.26 S 38.6 31.38, 40 31.92 S 43.51 31.97, 45 32.13 S 48.52 33.21, 50 33 S 53.62 31.28, 55 30.7 S 58.59 29.32, 60 28.82 S 63.58 27.62, 65 27.14 S 68.51 25.57, 70 25.42 S 73.54 26.48, 75 26.13 S 78.56 23.46, 80 23.05 S 83.53 23.6, 85 23.29 S 88.5 20.98, 90 20.93 S 93.62 22.36, 95 22.95 S 98.54 25.59, 100 25.25 S 103.77 21.47, 105 20.61 S 108.5 18.22, 110 18.28 S 113.5 20.98, 115 21.01 S 118.51 18.29, 120 18.47 S 123.55 22.61, 125 22.22 S 128.56 16.21, 130 15.79 S 133.51 19.1, 135 19.29 S 138.53 17.36, 140 17.06 S 143.5 17.32, 145 17.25 S 148.66 17.26, 150 16.58 S 153.51 12.35, 155 12.15 S 158.52 14.99, 160 15.21 S 163.5 13.59, 165 13.65 S 168.52 15.89, 170 15.64 S 173.69 12.71, 175 11.97 S 178.5 10.11, 180 10 S 183.54 10.9, 185 11.26 S 188.59 11.96, 190 12.46 S 193.57 14.32, 195 14.78 S 198.59 15.15, 200 15.67 S 203.69 17.71, 205 18.44"
          fill="none"/>
    <circle r="4" cx="5" cy="40" fill="#3023AE"/>
    <circle r="4" cx="205" cy="18.44" fill="#C86DD7"/>      
</svg>