<svg width="200" height="50" viewBox="0 0 210 50" xmlns="http://www.w3.org/2000/svg">
    <defs>
        <linearGradient x1="0%" y1="0%" x2="100%" y2="0%" id="a">
            <stop stop-color="#3023AE" offset="0%"/>
            <stop stop-color="#C86DD7" offset="100%"/>
        </linearGradient>
    </defs>
    <path stroke="url(#a)"
          stroke-width="3"
          stroke-linejoin="round"
          stroke-linecap="round"
          d="M5 40 C 5.25 38.52, 8.66 10.68, 10 10 S 14.49 33.54, 15 34.95 S 18.53 37.62, 20 37.9 S 23.58 37.33, 25 36.86 S 28.52 34.34, 30 34.57 S 33.6 37.83, 35 38.38 S 38.5 38.41, 40 38.48 S 43.5 38.9, 45 38.86 S 48.5 38.13, 50 38.19 S 53.59 39.76, 55 39.24 S 58.53 34.76, 60 34.48 S 63.59 37.84, 65 37.33 S 68.55 31.25, 70 30.86 S 73.63 34.06, 75 34.67 S 78.53 35.04, 80 35.33 S 83.51 36.54, 85 36.67 S 88.53 36.48, 90 36.19 S 93.5 34.6, 95 34.67 S 98.55 36.3, 100 36.67 S 103.5 37.15, 105 37.24 S 108.5 37.33, 110 37.24 S 113.5 36.7, 115 36.67 S 118.5 37.05, 120 37.05 S 123.5 36.77, 125 36.67 S 128.5 36.39, 130 36.38 S 133.54 36.93, 135 36.57 S 138.51 34.04, 140 33.9 S 143.51 35.49, 145 35.62 S 148.5 34.67, 150 34.76 S 154.39 37.56, 155 36.19 S 158.52 12.53, 160 12.29 S 164.4 33.19, 165 34.57 S 168.5 35.5, 170 35.43 S 173.62 34.68, 175 34.1 S 178.53 31.53, 180 31.24 S 183.5 32.11, 185 32.1 S 188.51 30.97, 190 31.14 S 193.57 32.78, 195 33.24 S 198.5 34.35, 200 34.38 S 203.53 33.71, 205 33.43"
          fill="none"/>
    <circle r="4" cx="5" cy="40" fill="#3023AE"/>
    <circle r="4" cx="205" cy="33.43" fill="#C86DD7"/>      
</svg>