<svg width="200" height="50" viewBox="0 0 210 50" xmlns="http://www.w3.org/2000/svg">
    <defs>
        <linearGradient x1="0%" y1="0%" x2="100%" y2="0%" id="a">
            <stop stop-color="#3023AE" offset="0%"/>
            <stop stop-color="#C86DD7" offset="100%"/>
        </linearGradient>
    </defs>
    <path stroke="url(#a)"
          stroke-width="3"
          stroke-linejoin="round"
          stroke-linecap="round"
          d="M5 40 C 5.45 38.57, 8.55 24.32, 10 23.94 S 13.82 36.44, 15 37.37 S 18.62 32.43, 20 31.84 S 23.59 32.57, 25 33.07 S 28.5 35.44, 30 35.36 S 34 33.63, 35 32.51 S 38.65 24.86, 40 24.2 S 44.09 28.8, 45 27.61 S 48.56 11.51, 50 11.08 S 54.1 23.41, 55 24.61 S 58.51 24.14, 60 24.31 S 63.5 25.72, 65 25.76 S 68.69 25.31, 70 24.57 S 73.69 20.86, 75 20.12 S 78.5 19, 80 18.94 S 83.5 19.75, 85 19.75 S 88.53 19.24, 90 18.94 S 93.5 17.65, 95 17.71 S 98.81 20.26, 100 19.34 S 103.57 10.46, 105 10 S 108.6 15.59, 110 16.12 S 113.62 14.37, 115 13.78 S 118.53 11.51, 120 11.82 S 123.62 15.27, 125 15.86 S 128.58 15.64, 130 16.12 S 133.7 18.49, 135 19.23 S 138.5 21.74, 140 21.79 S 143.57 20.03, 145 19.57 S 148.55 18.91, 150 18.53 S 153.5 16.97, 155 16.97 S 158.51 18.34, 160 18.53 S 163.51 18.09, 165 18.23 S 168.54 19.1, 170 19.46 S 173.54 21.06, 175 20.72 S 178.7 17.92, 180 17.16 S 183.5 14.92, 185 14.89 S 188.53 16.7, 190 16.97 S 193.5 16.72, 195 16.75 S 198.5 17.26, 200 17.19 S 203.52 16.54, 205 16.27"
          fill="none"/>
    <circle r="4" cx="5" cy="40" fill="#3023AE"/>
    <circle r="4" cx="205" cy="16.27" fill="#C86DD7"/>      
</svg>