<svg width="200" height="50" viewBox="0 0 210 50" xmlns="http://www.w3.org/2000/svg">
    <defs>
        <linearGradient x1="0%" y1="0%" x2="100%" y2="0%" id="a">
            <stop stop-color="#3023AE" offset="0%"/>
            <stop stop-color="#C86DD7" offset="100%"/>
        </linearGradient>
    </defs>
    <path stroke="url(#a)"
          stroke-width="3"
          stroke-linejoin="round"
          stroke-linecap="round"
          d="M5 40 C 6.5 40, 8.5 40, 10 40 S 14.53 41.42, 15 40 S 18.95 11.07, 20 10 S 24.47 28.43, 25 29.83 S 28.77 35.76, 30 36.61 S 33.5 36.65, 35 36.73 S 38.5 37.19, 40 37.12 S 43.5 36.37, 45 36.29 S 48.59 37.08, 50 36.57 S 53.5 32.73, 55 32.64 S 58.62 35.42, 60 36 S 63.5 36.75, 65 36.86 S 68.5 36.67, 70 36.74 S 73.5 37.23, 75 37.3 S 78.51 37.34, 80 37.2 S 83.51 36.49, 85 36.36 S 88.5 36.41, 90 36.35 S 93.5 36.03, 95 35.98 S 98.5 36.01, 100 36.04 S 103.5 36.13, 105 36.18 S 108.51 36.59, 110 36.38 S 113.55 35.16, 115 34.79 S 118.51 33.97, 120 33.81 S 123.5 33.81, 125 33.71 S 128.5 33.09, 130 33.12 S 133.52 33.66, 135 33.93 S 138.51 34.77, 140 34.92 S 143.5 35.07, 145 34.95 S 148.51 34.28, 150 34.14 S 153.5 34.03, 155 34 S 158.5 34.01, 160 33.93 S 163.67 34.18, 165 33.49 S 168.62 29.37, 170 28.78 S 173.61 28.62, 175 29.18 S 178.62 32.24, 180 32.82 S 183.51 33.5, 185 33.34 S 188.51 31.91, 190 31.72 S 193.5 32.07, 195 32.06 S 198.5 31.64, 200 31.66 S 203.51 32.02, 205 32.17"
          fill="none"/>
    <circle r="4" cx="5" cy="40" fill="#3023AE"/>
    <circle r="4" cx="205" cy="32.17" fill="#C86DD7"/>      
</svg>