<svg width="200" height="50" viewBox="0 0 210 50" xmlns="http://www.w3.org/2000/svg">
    <defs>
        <linearGradient x1="0%" y1="0%" x2="100%" y2="0%" id="a">
            <stop stop-color="#3023AE" offset="0%"/>
            <stop stop-color="#C86DD7" offset="100%"/>
        </linearGradient>
    </defs>
    <path stroke="url(#a)"
          stroke-width="3"
          stroke-linejoin="round"
          stroke-linecap="round"
          d="M5 40 C 6.5 40, 8.5 40, 10 40 S 14.53 41.42, 15 40 S 18.95 11.08, 20 10 S 24.47 28.32, 25 29.72 S 28.77 35.73, 30 36.59 S 33.5 36.64, 35 36.72 S 38.5 37.19, 40 37.12 S 43.5 36.35, 45 36.27 S 48.59 37.08, 50 36.57 S 53.5 32.71, 55 32.62 S 58.62 35.37, 60 35.96 S 63.5 36.78, 65 36.89 S 68.5 36.65, 70 36.71 S 73.5 37.26, 75 37.32 S 78.51 37.28, 80 37.14 S 83.5 36.49, 85 36.38 S 88.5 36.47, 90 36.4 S 93.5 35.97, 95 35.91 S 98.5 35.99, 100 36.03 S 103.5 36.12, 105 36.17 S 108.51 36.54, 110 36.34 S 113.54 35.15, 115 34.82 S 118.52 34.3, 120 34.09 S 123.51 33.51, 125 33.38 S 128.5 33.12, 130 33.2 S 133.52 33.63, 135 33.89 S 138.51 34.81, 140 34.95 S 143.51 34.97, 145 34.85 S 148.5 34.24, 150 34.12 S 153.5 34.07, 155 34.06 S 158.5 34.14, 160 34.03 S 163.64 33.97, 165 33.33 S 168.64 29.97, 170 29.33 S 173.58 28.13, 175 28.62 S 178.66 32.14, 180 32.81 S 183.52 33.78, 185 33.57 S 188.51 31.57, 190 31.37 S 193.5 32.2, 195 32.22 S 198.5 31.53, 200 31.53 S 203.51 32.02, 205 32.23"
          fill="none"/>
    <circle r="4" cx="5" cy="40" fill="#3023AE"/>
    <circle r="4" cx="205" cy="32.230000000000004" fill="#C86DD7"/>      
</svg>