<svg width="200" height="50" viewBox="0 0 210 50" xmlns="http://www.w3.org/2000/svg">
    <defs>
        <linearGradient x1="0%" y1="0%" x2="100%" y2="0%" id="a">
            <stop stop-color="#3023AE" offset="0%"/>
            <stop stop-color="#C86DD7" offset="100%"/>
        </linearGradient>
    </defs>
    <path stroke="url(#a)"
          stroke-width="3"
          stroke-linejoin="round"
          stroke-linecap="round"
          d="M5 40 C 6.5 40, 8.5 40, 10 40 S 14.53 41.42, 15 40 S 18.95 11.07, 20 10 S 24.47 28.4, 25 29.8 S 28.77 35.75, 30 36.6 S 33.5 36.65, 35 36.73 S 38.5 37.19, 40 37.12 S 43.5 36.36, 45 36.28 S 48.59 37.08, 50 36.57 S 53.5 32.73, 55 32.64 S 58.62 35.4, 60 35.98 S 63.5 36.75, 65 36.86 S 68.5 36.67, 70 36.74 S 73.5 37.24, 75 37.31 S 78.51 37.32, 80 37.18 S 83.5 36.48, 85 36.36 S 88.5 36.44, 90 36.38 S 93.5 36, 95 35.95 S 98.5 36, 100 36.03 S 103.5 36.13, 105 36.18 S 108.51 36.58, 110 36.37 S 113.54 35.14, 115 34.78 S 118.51 34.04, 120 33.87 S 123.5 33.74, 125 33.64 S 128.5 33.13, 130 33.17 S 133.52 33.62, 135 33.89 S 138.51 34.82, 140 34.97 S 143.51 35.03, 145 34.9 S 148.51 34.25, 150 34.12 S 153.5 34.04, 155 34.03 S 158.5 34.13, 160 34.03 S 163.66 34.07, 165 33.39 S 168.63 29.6, 170 28.99 S 173.6 28.41, 175 28.95 S 178.63 32.2, 180 32.81 S 183.51 33.52, 185 33.36 S 188.51 31.93, 190 31.74 S 193.5 32.1, 195 32.07 S 198.5 31.52, 200 31.55 S 203.52 32.06, 205 32.27"
          fill="none"/>
    <circle r="4" cx="5" cy="40" fill="#3023AE"/>
    <circle r="4" cx="205" cy="32.269999999999996" fill="#C86DD7"/>      
</svg>