<svg width="200" height="50" viewBox="0 0 210 50" xmlns="http://www.w3.org/2000/svg">
    <defs>
        <linearGradient x1="0%" y1="0%" x2="100%" y2="0%" id="a">
            <stop stop-color="#3023AE" offset="0%"/>
            <stop stop-color="#C86DD7" offset="100%"/>
        </linearGradient>
    </defs>
    <path stroke="url(#a)"
          stroke-width="3"
          stroke-linejoin="round"
          stroke-linecap="round"
          d="M5 40 C 6.5 39.89, 9.53 41.06, 10 39.64 S 14.23 11.29, 15 10 S 19.46 21.61, 20 23.01 S 24.1 34.82, 25 36.02 S 28.52 36.12, 30 36.39 S 33.53 37.51, 35 37.83 S 38.5 38.66, 40 38.55 S 43.5 37, 45 37.11 S 48.53 39.6, 50 39.28 S 53.5 34.99, 55 34.94 S 58.62 38.32, 60 38.92 S 63.5 39.17, 65 39.28 S 68.5 39.64, 70 39.64 S 73.5 39.39, 75 39.28 S 78.5 38.87, 80 38.92 S 83.5 39.53, 85 39.64 S 88.5 39.69, 90 39.64 S 93.5 39.39, 95 39.28 S 98.5 38.87, 100 38.92 S 103.5 39.75, 105 39.64 S 108.5 38.19, 110 38.19 S 113.52 39.42, 115 39.64 S 118.5 39.64, 120 39.64 S 123.5 39.64, 125 39.64 S 128.5 39.75, 130 39.64 S 133.5 38.92, 135 38.92 S 138.5 39.53, 140 39.64 S 143.5 39.64, 145 39.64 S 149 40.76, 150 39.64 S 153.62 29.03, 155 28.43 S 158.98 34.2, 160 35.3 S 163.62 38.68, 165 39.28 S 168.5 39.64, 170 39.64 S 173.52 39.5, 175 39.28 S 178.52 38.41, 180 38.19 S 183.51 37.67, 185 37.83 S 188.52 39.01, 190 39.28 S 193.5 39.59, 195 39.64 S 198.5 39.69, 200 39.64 S 203.5 39.39, 205 39.28"
          fill="none"/>
    <circle r="4" cx="5" cy="40" fill="#3023AE"/>
    <circle r="4" cx="205" cy="39.28" fill="#C86DD7"/>      
</svg>