<svg width="200" height="50" viewBox="0 0 210 50" xmlns="http://www.w3.org/2000/svg">
    <defs>
        <linearGradient x1="0%" y1="0%" x2="100%" y2="0%" id="a">
            <stop stop-color="#3023AE" offset="0%"/>
            <stop stop-color="#C86DD7" offset="100%"/>
        </linearGradient>
    </defs>
    <path stroke="url(#a)"
          stroke-width="3"
          stroke-linejoin="round"
          stroke-linecap="round"
          d="M5 40 C 5.25 38.52, 8.94 11.06, 10 10 S 14.16 28.75, 15 29.99 S 18.5 24.72, 20 24.74 S 23.73 29.31, 25 30.1 S 28.75 31.82, 30 30.99 S 33.83 24.35, 35 23.41 S 38.57 22.47, 40 22.92 S 43.68 25.83, 45 26.54 S 48.59 27.82, 50 28.33 S 53.51 29.95, 55 30.16 S 58.52 29.95, 60 29.71 S 63.5 28.6, 65 28.54 S 68.51 29.5, 70 29.34 S 73.78 28.32, 75 27.45 S 78.5 22.15, 80 22.23 S 83.76 27.12, 85 27.96 S 88.55 29.34, 90 28.97 S 93.52 25.17, 95 25.44 S 98.52 30.55, 100 30.79 S 103.55 27.44, 105 27.05 S 108.51 27.99, 110 28.13 S 113.5 28.03, 115 28 S 118.5 27.89, 120 27.9 S 123.52 27.8, 125 28.05 S 128.5 29.52, 130 29.58 S 133.53 28.12, 135 28.42 S 138.54 31.3, 140 31.64 S 143.52 30.99, 145 30.75 S 148.5 30.08, 150 29.99 S 153.53 29.86, 155 30.17 S 158.5 32.02, 160 32.08 S 163.55 30.93, 165 30.54 S 168.51 29.5, 170 29.37 S 173.51 29.56, 175 29.7 S 178.52 30.12, 180 30.34 S 183.5 31.19, 185 31.2 S 188.54 30.73, 190 30.38 S 193.52 28.56, 195 28.78 S 198.62 31.29, 200 31.87 S 203.53 32.64, 205 32.96"
          fill="none"/>
    <circle r="4" cx="5" cy="40" fill="#3023AE"/>
    <circle r="4" cx="205" cy="32.96" fill="#C86DD7"/>      
</svg>