<svg width="200" height="50" viewBox="0 0 210 50" xmlns="http://www.w3.org/2000/svg">
    <defs>
        <linearGradient x1="0%" y1="0%" x2="100%" y2="0%" id="a">
            <stop stop-color="#3023AE" offset="0%"/>
            <stop stop-color="#C86DD7" offset="100%"/>
        </linearGradient>
    </defs>
    <path stroke="url(#a)"
          stroke-width="3"
          stroke-linejoin="round"
          stroke-linecap="round"
          d="M5 40 C 5.26 38.52, 9.53 13.41, 10 11.99 S 14.24 8.71, 15 10 S 19.39 27.66, 20 29.03 S 23.53 32.87, 25 32.57 S 28.9 28.01, 30 26.99 S 33.55 22.87, 35 23.27 S 38.79 28.83, 40 29.72 S 43.51 30.42, 45 30.62 S 48.81 31.96, 50 31.04 S 53.52 23.14, 55 22.92 S 58.6 29.05, 60 29.58 S 63.65 27.33, 65 26.67 S 68.67 25.38, 70 24.69 S 73.56 21.05, 75 21.46 S 78.71 26.73, 80 27.5 S 83.51 27.3, 85 27.46 S 88.54 28.21, 90 28.54 S 93.57 29.28, 95 29.72 S 98.5 31.7, 100 31.61 S 103.51 29.35, 105 29.15 S 108.5 30.21, 110 30.27 S 113.53 29.83, 115 29.52 S 118.5 28.23, 120 28.18 S 123.52 28.99, 125 29.21 S 128.5 29.71, 130 29.68 S 133.55 29.38, 135 28.99 S 138.51 27.17, 140 26.99 S 143.8 28.65, 145 27.75 S 148.52 19.75, 150 19.53 S 153.89 25.28, 155 26.28 S 158.55 28.14, 160 28.54 S 163.5 29, 165 29.03 S 168.61 29.3, 170 28.74 S 173.53 25.34, 175 25.04 S 178.62 26.1, 180 26.69 S 183.63 28.69, 185 29.31 S 188.51 31.37, 190 31.19 S 193.64 28.73, 195 28.09 S 198.5 26.41, 200 26.45 S 203.6 27.84, 205 28.38"
          fill="none"/>
    <circle r="4" cx="5" cy="40" fill="#3023AE"/>
    <circle r="4" cx="205" cy="28.380000000000003" fill="#C86DD7"/>      
</svg>