<svg width="200" height="50" viewBox="0 0 210 50" xmlns="http://www.w3.org/2000/svg">
    <defs>
        <linearGradient x1="0%" y1="0%" x2="100%" y2="0%" id="a">
            <stop stop-color="#3023AE" offset="0%"/>
            <stop stop-color="#C86DD7" offset="100%"/>
        </linearGradient>
    </defs>
    <path stroke="url(#a)"
          stroke-width="3"
          stroke-linejoin="round"
          stroke-linecap="round"
          d="M5 40 C 6.46 39.64, 8.51 38.94, 10 38.75 S 13.5 38.75, 15 38.75 S 18.5 38.75, 20 38.75 S 23.5 38.75, 25 38.75 S 28.5 38.75, 30 38.75 S 33.5 38.75, 35 38.75 S 38.5 38.75, 40 38.75 S 43.5 38.75, 45 38.75 S 48.5 38.75, 50 38.75 S 53.5 38.75, 55 38.75 S 58.5 38.75, 60 38.75 S 63.5 38.75, 65 38.75 S 68.5 38.75, 70 38.75 S 73.5 38.75, 75 38.75 S 78.5 38.75, 80 38.75 S 83.5 38.75, 85 38.75 S 88.5 38.75, 90 38.75 S 93.5 38.75, 95 38.75 S 98.5 38.75, 100 38.75 S 103.5 38.75, 105 38.75 S 108.5 38.75, 110 38.75 S 114.26 40.05, 115 38.75 S 119.39 22.62, 120 21.25 S 124.06 15.08, 125 16.25 S 129.39 32.38, 130 33.75 S 133.54 38.39, 135 38.75 S 138.5 36.25, 140 36.25 S 143.51 38.56, 145 38.75 S 149.51 38.92, 150 37.5 S 153.94 11.06, 155 10 S 159.49 26.09, 160 27.5 S 163.87 36.51, 165 37.5 S 168.6 36.78, 170 36.25 S 173.5 33.75, 175 33.75 S 178.51 36.06, 180 36.25 S 183.54 35.36, 185 35 S 188.54 34.11, 190 33.75 S 193.54 32.86, 195 32.5 S 198.54 30.89, 200 31.25 S 203.8 34.1, 205 35"
          fill="none"/>
    <circle r="4" cx="5" cy="40" fill="#3023AE"/>
    <circle r="4" cx="205" cy="35" fill="#C86DD7"/>      
</svg>