<svg width="200" height="50" viewBox="0 0 210 50" xmlns="http://www.w3.org/2000/svg">
    <defs>
        <linearGradient x1="0%" y1="0%" x2="100%" y2="0%" id="a">
            <stop stop-color="#3023AE" offset="0%"/>
            <stop stop-color="#C86DD7" offset="100%"/>
        </linearGradient>
    </defs>
    <path stroke="url(#a)"
          stroke-width="3"
          stroke-linejoin="round"
          stroke-linecap="round"
          d="M5 40 C 5.27 38.52, 9.53 14.22, 10 12.8 S 14.32 8.66, 15 10 S 19.4 31.07, 20 32.45 S 23.55 32.66, 25 33.04 S 28.61 34.5, 30 35.05 S 33.52 37.28, 35 37.01 S 38.51 33.41, 40 33.23 S 43.57 35.31, 45 35.77 S 48.51 36.27, 50 36.42 S 53.54 36.43, 55 36.75 S 58.54 38.29, 60 38.63 S 63.71 39.86, 65 39.09 S 68.96 33.73, 70 32.65 S 73.7 29.48, 75 28.74 S 78.51 27.11, 80 26.98 S 83.92 28.94, 85 27.9 S 88.88 18.41, 90 17.42 S 93.73 19.85, 95 19.05 S 98.66 11.78, 100 11.11 S 103.57 13.64, 105 14.1 S 108.5 14.22, 110 14.3 S 113.53 14.32, 115 14.62 S 118.55 16.69, 120 16.31 S 123.53 12.31, 125 12.02 S 128.5 14.25, 130 14.36 S 133.55 13.12, 135 12.73 S 138.5 11.62, 140 11.69 S 143.65 12.53, 145 13.19 S 148.5 16.58, 150 16.57 S 153.5 13.14, 155 13.12 S 158.61 15.88, 160 16.44 S 163.52 17.41, 165 17.16 S 168.52 14.98, 170 14.75 S 173.51 15.45, 175 15.6 S 178.57 16.19, 180 15.73 S 183.5 12.33, 185 12.34 S 188.71 15.02, 190 15.79 S 193.54 18, 195 18.33 S 198.71 17.31, 200 18.07 S 204.05 23.03, 205 24.19"
          fill="none"/>
    <circle r="4" cx="5" cy="40" fill="#3023AE"/>
    <circle r="4" cx="205" cy="24.189999999999998" fill="#C86DD7"/>      
</svg>