<svg width="200" height="50" viewBox="0 0 210 50" xmlns="http://www.w3.org/2000/svg">
    <defs>
        <linearGradient x1="0%" y1="0%" x2="100%" y2="0%" id="a">
            <stop stop-color="#3023AE" offset="0%"/>
            <stop stop-color="#C86DD7" offset="100%"/>
        </linearGradient>
    </defs>
    <path stroke="url(#a)"
          stroke-width="3"
          stroke-linejoin="round"
          stroke-linecap="round"
          d="M5 40 C 5.25 38.52, 8.57 10.47, 10 10 S 14.47 35.33, 15 36.73 S 18.51 36.57, 20 36.73 S 23.52 38.06, 25 37.82 S 28.52 35.33, 30 35.09 S 33.5 36.18, 35 36.18 S 38.53 35.41, 40 35.09 S 43.5 34.08, 45 34 S 48.57 35.02, 50 34.55 S 53.5 30.65, 55 30.73 S 58.53 34.77, 60 35.09 S 63.53 32.59, 65 32.91 S 68.52 37.03, 70 37.27 S 73.5 34.47, 75 34.55 S 78.65 37.16, 80 37.82 S 83.5 39.53, 85 39.45 S 88.52 37.51, 90 37.27 S 93.51 37.98, 95 37.82 S 98.5 36.18, 100 36.18 S 103.53 37.5, 105 37.82 S 108.52 38.12, 110 38.36 S 113.5 39.53, 115 39.45 S 118.57 38.29, 120 37.82 S 123.5 36.18, 125 36.18 S 128.55 37.42, 130 37.82 S 133.5 38.83, 135 38.91 S 138.5 38.44, 140 38.36 S 143.55 38.75, 145 38.36 S 148.5 35.72, 150 35.64 S 153.53 37.5, 155 37.82 S 158.87 38.81, 160 37.82 S 163.52 29.33, 165 29.09 S 168.84 35.23, 170 36.18 S 173.52 37.03, 175 37.27 S 178.5 37.9, 180 37.82 S 183.51 36.57, 185 36.73 S 188.51 38.75, 190 38.91 S 193.5 37.82, 195 37.82 S 198.51 39.07, 200 38.91 S 203.63 37.33, 205 36.73"
          fill="none"/>
    <circle r="4" cx="5" cy="40" fill="#3023AE"/>
    <circle r="4" cx="205" cy="36.73" fill="#C86DD7"/>      
</svg>