<svg width="200" height="50" viewBox="0 0 210 50" xmlns="http://www.w3.org/2000/svg">
    <defs>
        <linearGradient x1="0%" y1="0%" x2="100%" y2="0%" id="a">
            <stop stop-color="#3023AE" offset="0%"/>
            <stop stop-color="#C86DD7" offset="100%"/>
        </linearGradient>
    </defs>
    <path stroke="url(#a)"
          stroke-width="3"
          stroke-linejoin="round"
          stroke-linecap="round"
          d="M5 40 C 5.82 38.74, 8.5 32.34, 10 32.28 S 13.8 38.71, 15 39.61 S 18.5 39.79, 20 39.84 S 23.5 39.9, 25 39.92 S 28.51 40.13, 30 39.95 S 33.5 38.78, 35 38.74 S 38.51 39.5, 40 39.66 S 43.5 39.8, 45 39.84 S 48.5 39.9, 50 39.9 S 53.5 39.89, 55 39.87 S 58.5 39.79, 60 39.79 S 63.5 39.89, 65 39.9 S 68.5 39.87, 70 39.87 S 73.5 39.92, 75 39.92 S 78.5 39.88, 80 39.87 S 83.5 39.87, 85 39.87 S 88.5 39.86, 90 39.87 S 93.5 39.97, 95 39.97 S 98.5 39.9, 100 39.9 S 103.5 39.95, 105 39.95 S 108.5 39.87, 110 39.87 S 113.5 39.92, 115 39.92 S 118.5 39.85, 120 39.84 S 123.5 39.87, 125 39.87 S 128.52 40.13, 130 39.87 S 133.5 38.18, 135 38.12 S 138.52 39.26, 140 39.48 S 143.5 39.58, 145 39.63 S 148.5 39.82, 150 39.82 S 153.5 39.63, 155 39.63 S 158.5 39.77, 160 39.79 S 163.5 39.8, 165 39.79 S 168.5 39.71, 170 39.71 S 173.5 39.79, 175 39.82 S 178.5 39.91, 180 39.92 S 183.5 39.95, 185 39.92 S 189.52 41.16, 190 39.74 S 193.6 10.54, 195 10 S 199.51 34.44, 200 35.86 S 203.73 38.19, 205 38.98"
          fill="none"/>
    <circle r="4" cx="5" cy="40" fill="#3023AE"/>
    <circle r="4" cx="205" cy="38.98" fill="#C86DD7"/>      
</svg>