<svg width="200" height="50" viewBox="0 0 210 50" xmlns="http://www.w3.org/2000/svg">
    <defs>
        <linearGradient x1="0%" y1="0%" x2="100%" y2="0%" id="a">
            <stop stop-color="#3023AE" offset="0%"/>
            <stop stop-color="#C86DD7" offset="100%"/>
        </linearGradient>
    </defs>
    <path stroke="url(#a)"
          stroke-width="3"
          stroke-linejoin="round"
          stroke-linecap="round"
          d="M5 40 C 6.47 39.7, 8.51 39.12, 10 38.97 S 13.5 38.97, 15 38.97 S 18.5 38.97, 20 38.97 S 23.5 38.97, 25 38.97 S 28.5 38.97, 30 38.97 S 33.5 38.97, 35 38.97 S 38.5 38.97, 40 38.97 S 43.5 38.97, 45 38.97 S 48.5 38.97, 50 38.97 S 53.5 38.97, 55 38.97 S 58.5 38.97, 60 38.97 S 63.5 38.97, 65 38.97 S 68.5 38.97, 70 38.97 S 73.5 38.97, 75 38.97 S 78.5 38.97, 80 38.97 S 83.5 38.97, 85 38.97 S 88.5 38.97, 90 38.97 S 93.5 38.97, 95 38.97 S 98.5 38.97, 100 38.97 S 103.5 38.97, 105 38.97 S 108.5 38.97, 110 38.97 S 113.5 38.97, 115 38.97 S 118.5 38.97, 120 38.97 S 123.5 38.97, 125 38.97 S 128.57 39.42, 130 38.97 S 133.5 35.86, 135 35.86 S 138.57 38.52, 140 38.97 S 143.57 39.42, 145 38.97 S 148.53 36.16, 150 35.86 S 153.84 37.86, 155 36.9 S 158.53 27.89, 160 27.59 S 164.01 33.7, 165 34.83 S 168.96 40.05, 170 38.97 S 173.96 25.56, 175 24.48 S 179.15 29.85, 180 28.62 S 183.61 10.57, 185 10 S 189.01 23.35, 190 24.48 S 193.67 22.07, 195 21.38 S 198.84 20.27, 200 19.31 S 204.06 14.27, 205 13.1"
          fill="none"/>
    <circle r="4" cx="5" cy="40" fill="#3023AE"/>
    <circle r="4" cx="205" cy="13.100000000000001" fill="#C86DD7"/>      
</svg>