<svg width="200" height="50" viewBox="0 0 210 50" xmlns="http://www.w3.org/2000/svg">
    <defs>
        <linearGradient x1="0%" y1="0%" x2="100%" y2="0%" id="a">
            <stop stop-color="#3023AE" offset="0%"/>
            <stop stop-color="#C86DD7" offset="100%"/>
        </linearGradient>
    </defs>
    <path stroke="url(#a)"
          stroke-width="3"
          stroke-linejoin="round"
          stroke-linecap="round"
          d="M5 40 C 6.46 39.64, 9.05 39.92, 10 38.76 S 14.38 29.04, 15 27.68 S 18.51 16.72, 20 16.9 S 24.01 27.76, 25 28.88 S 28.54 28.55, 30 28.23 S 33.56 26.24, 35 26.67 S 38.51 31.03, 40 31.2 S 43.51 27.94, 45 27.78 S 48.56 29.71, 50 30.13 S 53.61 31.28, 55 30.71 S 58.54 26.38, 60 26.02 S 63.6 28.76, 65 28.23 S 68.6 22.77, 70 22.22 S 73.51 24.12, 75 24.29 S 78.5 23.46, 80 23.39 S 83.53 24.12, 85 23.84 S 88.58 21.95, 90 21.46 S 93.5 20.27, 95 20.36 S 98.51 22.22, 100 22.08 S 103.63 20.01, 105 19.39 S 108.55 17.96, 110 17.56 S 113.5 16.6, 115 16.63 S 118.52 17.95, 120 17.73 S 123.61 15.75, 125 15.18 S 128.55 13.25, 130 13.62 S 133.53 17.43, 135 17.73 S 138.51 15.42, 140 15.63 S 143.62 18.52, 145 19.11 S 148.67 20.63, 150 19.94 S 153.81 14.86, 155 13.94 S 158.56 11.78, 160 12.21 S 163.53 16.65, 165 16.97 S 168.77 15.24, 170 14.38 S 173.51 10.13, 175 10 S 178.59 12.97, 180 13.49 S 183.5 13.68, 185 13.66 S 188.5 13.41, 190 13.38 S 193.57 13, 195 13.45 S 198.53 16.78, 200 16.49 S 203.94 12.51, 205 11.45"
          fill="none"/>
    <circle r="4" cx="5" cy="40" fill="#3023AE"/>
    <circle r="4" cx="205" cy="11.45" fill="#C86DD7"/>      
</svg>