<svg width="200" height="50" viewBox="0 0 210 50" xmlns="http://www.w3.org/2000/svg">
    <defs>
        <linearGradient x1="0%" y1="0%" x2="100%" y2="0%" id="a">
            <stop stop-color="#3023AE" offset="0%"/>
            <stop stop-color="#C86DD7" offset="100%"/>
        </linearGradient>
    </defs>
    <path stroke="url(#a)"
          stroke-width="3"
          stroke-linejoin="round"
          stroke-linecap="round"
          d="M5 40 C 6.5 39.99, 8.5 39.98, 10 39.98 S 13.5 39.98, 15 39.98 S 18.5 39.98, 20 39.98 S 23.51 40.18, 25 39.98 S 29.53 40.07, 30 38.65 S 33.78 10.87, 35 10 S 39.37 30.2, 40 31.56 S 43.65 30.94, 45 31.6 S 48.7 35.72, 50 36.47 S 53.52 37.07, 55 37.33 S 58.52 38.01, 60 38.26 S 63.51 38.87, 65 39.05 S 68.51 39.64, 70 39.45 S 73.61 38.3, 75 37.75 S 78.54 35.84, 80 35.48 S 83.5 35.32, 85 35.25 S 88.52 35.25, 90 35 S 93.54 33.93, 95 33.57 S 98.5 32.6, 100 32.54 S 103.52 32.94, 105 33.15 S 108.52 34.21, 110 33.97 S 113.56 31.96, 115 31.55 S 118.5 31.25, 120 31.13 S 123.5 30.81, 125 30.78 S 128.5 30.83, 130 30.9 S 133.51 31.41, 135 31.24 S 138.51 29.97, 140 29.77 S 143.5 29.95, 145 29.92 S 148.51 29.7, 150 29.56 S 153.5 28.98, 155 29.01 S 158.5 29.7, 160 29.73 S 163.5 29.29, 165 29.24 S 168.5 29.46, 170 29.41 S 173.5 28.91, 175 28.89 S 178.51 29.14, 180 29.27 S 183.5 29.69, 185 29.73 S 188.52 29.31, 190 29.56 S 193.59 30.95, 195 31.45 S 198.5 32.98, 200 33.09 S 203.52 32.46, 205 32.19"
          fill="none"/>
    <circle r="4" cx="5" cy="40" fill="#3023AE"/>
    <circle r="4" cx="205" cy="32.19" fill="#C86DD7"/>      
</svg>