<svg width="200" height="50" viewBox="0 0 210 50" xmlns="http://www.w3.org/2000/svg">
    <defs>
        <linearGradient x1="0%" y1="0%" x2="100%" y2="0%" id="a">
            <stop stop-color="#3023AE" offset="0%"/>
            <stop stop-color="#C86DD7" offset="100%"/>
        </linearGradient>
    </defs>
    <path stroke="url(#a)"
          stroke-width="3"
          stroke-linejoin="round"
          stroke-linecap="round"
          d="M5 40 C 5.25 38.52, 8.53 10.32, 10 10 S 14.52 36.4, 15 37.82 S 18.5 39.37, 20 39.45 S 23.5 38.36, 25 38.36 S 28.51 39.29, 30 39.45 S 33.5 39.45, 35 39.45 S 38.5 39.45, 40 39.45 S 43.5 39.45, 45 39.45 S 48.5 39.45, 50 39.45 S 53.5 39.45, 55 39.45 S 58.5 39.45, 60 39.45 S 63.5 39.45, 65 39.45 S 68.5 39.45, 70 39.45 S 73.5 39.45, 75 39.45 S 78.5 39.45, 80 39.45 S 83.5 39.45, 85 39.45 S 88.5 39.45, 90 39.45 S 93.5 39.45, 95 39.45 S 98.5 39.45, 100 39.45 S 103.5 39.45, 105 39.45 S 108.5 39.45, 110 39.45 S 113.5 39.45, 115 39.45 S 118.5 39.45, 120 39.45 S 123.5 39.45, 125 39.45"
          fill="none"/>
    <circle r="4" cx="5" cy="40" fill="#3023AE"/>
    <circle r="4" cx="125" cy="39.45" fill="#C86DD7"/>      
</svg>