<svg width="200" height="50" viewBox="0 0 210 50" xmlns="http://www.w3.org/2000/svg">
    <defs>
        <linearGradient x1="0%" y1="0%" x2="100%" y2="0%" id="a">
            <stop stop-color="#3023AE" offset="0%"/>
            <stop stop-color="#C86DD7" offset="100%"/>
        </linearGradient>
    </defs>
    <path stroke="url(#a)"
          stroke-width="3"
          stroke-linejoin="round"
          stroke-linecap="round"
          d="M5 40 C 6.49 39.86, 8.5 39.57, 10 39.54 S 13.5 39.74, 15 39.77 S 18.5 39.77, 20 39.77 S 23.5 39.77, 25 39.77 S 28.5 39.77, 30 39.77 S 33.5 39.77, 35 39.77 S 38.5 39.77, 40 39.77 S 43.51 39.94, 45 39.77 S 48.7 39.37, 50 38.62 S 53.53 34.31, 55 34 S 58.59 36.02, 60 36.54 S 63.55 37.29, 65 37.69 S 68.53 39.04, 70 39.31 S 73.5 39.51, 75 39.54 S 78.5 39.51, 80 39.54 S 83.5 39.74, 85 39.77 S 88.5 39.77, 90 39.77 S 93.5 39.77, 95 39.77 S 98.5 39.77, 100 39.77 S 103.5 39.77, 105 39.77 S 108.5 39.8, 110 39.77 S 113.5 39.54, 115 39.54 S 118.5 39.77, 120 39.77 S 123.53 39.85, 125 39.54 S 128.5 37.72, 130 37.69 S 133.53 39.04, 135 39.31 S 138.5 39.47, 140 39.54 S 143.5 39.8, 145 39.77 S 148.5 39.41, 150 39.31 S 153.5 39.01, 155 39.08 S 158.5 39.67, 160 39.77 S 163.54 40.11, 165 39.77 S 169.38 38.82, 170 37.46 S 174.49 19.26, 175 17.85 S 178.71 9.23, 180 10 S 184.45 22.45, 185 23.85 S 189.12 34.4, 190 35.62 S 193.52 37.42, 195 37.69 S 198.51 37.6, 200 37.46 S 203.51 36.98, 205 36.77"
          fill="none"/>
    <circle r="4" cx="5" cy="40" fill="#3023AE"/>
    <circle r="4" cx="205" cy="36.77" fill="#C86DD7"/>      
</svg>