<svg width="200" height="50" viewBox="0 0 210 50" xmlns="http://www.w3.org/2000/svg">
    <defs>
        <linearGradient x1="0%" y1="0%" x2="100%" y2="0%" id="a">
            <stop stop-color="#3023AE" offset="0%"/>
            <stop stop-color="#C86DD7" offset="100%"/>
        </linearGradient>
    </defs>
    <path stroke="url(#a)"
          stroke-width="3"
          stroke-linejoin="round"
          stroke-linecap="round"
          d="M5 40 C 6.49 39.84, 8.5 39.52, 10 39.48 S 13.5 39.7, 15 39.74 S 18.5 39.74, 20 39.74 S 23.5 39.74, 25 39.74 S 28.5 39.74, 30 39.74 S 33.5 39.74, 35 39.74 S 38.5 39.74, 40 39.74 S 43.5 39.74, 45 39.74 S 48.51 39.9, 50 39.74 S 53.74 39.52, 55 38.7 S 58.55 33.6, 60 33.22 S 63.67 35.4, 65 36.09 S 68.52 38.16, 70 38.43 S 73.51 37.72, 75 37.91 S 78.52 39.51, 80 39.74 S 83.5 39.52, 85 39.48 S 88.5 39.44, 90 39.48 S 93.5 39.7, 95 39.74 S 98.5 39.74, 100 39.74 S 103.5 39.74, 105 39.74 S 108.5 39.74, 110 39.74 S 113.5 39.74, 115 39.74 S 118.5 39.74, 120 39.74 S 123.5 39.74, 125 39.74 S 128.5 39.74, 130 39.74 S 133.5 39.86, 135 39.74 S 138.53 39.27, 140 38.96 S 143.5 37.57, 145 37.65 S 148.52 39.21, 150 39.48 S 153.5 39.44, 155 39.48 S 158.5 39.7, 160 39.74 S 163.5 39.82, 165 39.74 S 168.5 39.3, 170 39.22 S 173.5 39.14, 175 39.22 S 178.5 39.66, 180 39.74 S 183.86 40.72, 185 39.74 S 189.44 32.52, 190 31.13 S 194.36 16.06, 195 14.7 S 198.92 8.96, 200 10 S 204.51 22.93, 205 24.35"
          fill="none"/>
    <circle r="4" cx="5" cy="40" fill="#3023AE"/>
    <circle r="4" cx="205" cy="24.35" fill="#C86DD7"/>      
</svg>