<svg width="200" height="50" viewBox="0 0 210 50" xmlns="http://www.w3.org/2000/svg">
    <defs>
        <linearGradient x1="0%" y1="0%" x2="100%" y2="0%" id="a">
            <stop stop-color="#3023AE" offset="0%"/>
            <stop stop-color="#C86DD7" offset="100%"/>
        </linearGradient>
    </defs>
    <path stroke="url(#a)"
          stroke-width="3"
          stroke-linejoin="round"
          stroke-linecap="round"
          d="M5 40 C 6.5 40, 8.5 39.99, 10 39.99 S 13.5 39.99, 15 39.99 S 18.5 39.99, 20 39.99 S 23.5 39.99, 25 39.99 S 28.5 39.99, 30 39.99 S 33.5 39.99, 35 39.99 S 38.5 39.99, 40 39.99 S 43.5 39.99, 45 39.99 S 48.5 39.99, 50 39.99 S 53.5 39.99, 55 39.99 S 58.5 39.99, 60 39.99 S 63.5 39.99, 65 39.99 S 68.5 39.99, 70 39.99 S 74.53 41.41, 75 39.99 S 78.9 11.02, 80 10 S 84.41 29.33, 85 30.71 S 88.5 33.69, 90 33.61 S 93.5 30.2, 95 30.16 S 98.5 33.28, 100 33.35 S 103.56 31.08, 105 30.64 S 108.56 30.73, 110 30.31 S 113.72 28.47, 115 27.69 S 118.59 23.7, 120 24.22 S 123.61 30.84, 125 31.4 S 128.52 28.47, 130 28.23 S 133.52 29.54, 135 29.78 S 138.5 29.92, 140 29.86 S 143.52 29.17, 145 29.41 S 148.51 31.3, 150 31.45 S 153.52 30.65, 155 30.42 S 158.5 29.79, 160 29.87 S 163.5 31.01, 165 30.98 S 168.5 29.62, 170 29.65 S 173.51 31.06, 175 31.19 S 178.52 30.78, 180 30.55 S 183.53 29.91, 185 29.62 S 188.51 28.44, 190 28.6 S 193.59 30.21, 195 30.72 S 198.51 32.09, 200 32.25 S 203.51 31.93, 205 31.79"
          fill="none"/>
    <circle r="4" cx="5" cy="40" fill="#3023AE"/>
    <circle r="4" cx="205" cy="31.79" fill="#C86DD7"/>      
</svg>