<svg width="200" height="50" viewBox="0 0 210 50" xmlns="http://www.w3.org/2000/svg">
    <defs>
        <linearGradient x1="0%" y1="0%" x2="100%" y2="0%" id="a">
            <stop stop-color="#3023AE" offset="0%"/>
            <stop stop-color="#C86DD7" offset="100%"/>
        </linearGradient>
    </defs>
    <path stroke="url(#a)"
          stroke-width="3"
          stroke-linejoin="round"
          stroke-linecap="round"
          d="M5 40 C 5.25 38.52, 8.97 11.09, 10 10 S 14.39 28.04, 15 29.41 S 18.62 32, 20 32.59 S 23.66 34.31, 25 33.65 S 28.52 27.39, 30 27.65 S 33.6 34.87, 35 35.41 S 38.75 32.36, 40 31.53 S 43.5 28.66, 45 28.71 S 48.51 31.67, 50 31.88 S 53.51 30.28, 55 30.12 S 58.51 30.61, 60 30.82 S 63.75 32.36, 65 31.53 S 68.52 24.38, 70 24.12 S 73.79 28.87, 75 29.76 S 78.71 30.76, 80 31.53 S 83.54 35.4, 85 35.76 S 88.73 34.8, 90 34 S 93.52 29.15, 95 29.41 S 98.59 35.26, 100 35.76 S 103.6 33.48, 105 32.94 S 108.51 32.09, 110 31.88 S 113.51 31.37, 115 31.53 S 118.51 32.73, 120 32.94 S 123.5 32.83, 125 32.94 S 128.5 33.65, 130 33.65 S 133.5 32.94, 135 32.94 S 138.5 33.75, 140 33.65 S 143.64 32.87, 145 32.24 S 148.53 28.75, 150 29.06 S 153.64 33.72, 155 34.35 S 159.15 34.88, 160 33.65 S 163.57 20.33, 165 19.88 S 169.06 29.3, 170 30.47 S 173.51 32.45, 175 32.24 S 178.51 29.27, 180 29.06 S 183.99 31.93, 185 30.82 S 188.56 17.71, 190 18.12 S 193.86 32.68, 195 33.65 S 198.77 27.46, 200 26.59 S 203.5 26.59, 205 26.59"
          fill="none"/>
    <circle r="4" cx="5" cy="40" fill="#3023AE"/>
    <circle r="4" cx="205" cy="26.59" fill="#C86DD7"/>      
</svg>