<svg width="200" height="50" viewBox="0 0 210 50" xmlns="http://www.w3.org/2000/svg">
    <defs>
        <linearGradient x1="0%" y1="0%" x2="100%" y2="0%" id="a">
            <stop stop-color="#3023AE" offset="0%"/>
            <stop stop-color="#C86DD7" offset="100%"/>
        </linearGradient>
    </defs>
    <path stroke="url(#a)"
          stroke-width="3"
          stroke-linejoin="round"
          stroke-linecap="round"
          d="M5 40 C 5.25 38.52, 8.55 10.4, 10 10 S 14.5 35.83, 15 37.24 S 18.5 38.09, 20 38.03 S 23.82 37.77, 25 36.84 S 28.6 30.68, 30 30.13 S 33.69 32.16, 35 32.89 S 38.57 35.21, 40 35.66 S 43.6 36.6, 45 36.05 S 48.51 31.89, 50 31.71 S 53.51 34.69, 55 34.87 S 58.57 32.44, 60 32.89 S 63.6 37.48, 65 38.03 S 68.6 37.39, 70 36.84 S 73.5 33.96, 75 34.08 S 78.59 37.13, 80 37.63 S 83.64 38.27, 85 37.63 S 88.5 32.89, 90 32.89 S 93.75 36.79, 95 37.63 S 98.53 39.32, 100 39.61 S 103.5 39.61, 105 39.61 S 108.52 39.84, 110 39.61 S 113.5 38.15, 115 38.03 S 118.53 39.11, 120 38.82 S 123.5 36.11, 125 36.05 S 128.55 38.02, 130 38.42 S 133.5 38.76, 135 38.82 S 138.5 38.94, 140 38.82 S 143.51 38.21, 145 38.03 S 148.51 37.45, 150 37.63 S 153.53 38.92, 155 39.21 S 158.51 39.79, 160 39.61 S 163.52 38.26, 165 38.03 S 168.5 37.97, 170 38.03 S 173.5 38.42, 175 38.42 S 178.5 37.91, 180 38.03 S 183.5 39.09, 185 39.21 S 188.5 38.94, 190 38.82 S 193.52 38.65, 195 38.42 S 198.51 37.06, 200 37.24 S 203.64 38.97, 205 39.61"
          fill="none"/>
    <circle r="4" cx="5" cy="40" fill="#3023AE"/>
    <circle r="4" cx="205" cy="39.61" fill="#C86DD7"/>      
</svg>