<svg width="200" height="50" viewBox="0 0 210 50" xmlns="http://www.w3.org/2000/svg">
    <defs>
        <linearGradient x1="0%" y1="0%" x2="100%" y2="0%" id="a">
            <stop stop-color="#3023AE" offset="0%"/>
            <stop stop-color="#C86DD7" offset="100%"/>
        </linearGradient>
    </defs>
    <path stroke="url(#a)"
          stroke-width="3"
          stroke-linejoin="round"
          stroke-linecap="round"
          d="M5 40 C 6.5 39.91, 8.5 39.79, 10 39.7 S 13.59 39.9, 15 39.4 S 18.5 36.29, 20 36.18 S 23.55 38.26, 25 38.65 S 28.5 38.81, 30 38.88 S 33.51 38.97, 35 39.1 S 38.5 39.69, 40 39.78 S 43.5 39.72, 45 39.7 S 48.5 39.74, 50 39.63 S 53.5 39.02, 55 38.95 S 58.5 39.15, 60 39.18 S 63.5 39.12, 65 39.18 S 68.5 39.49, 70 39.55 S 73.5 39.49, 75 39.55 S 78.5 39.87, 80 39.93 S 83.5 39.95, 85 39.93 S 88.5 39.82, 90 39.78 S 93.5 39.64, 95 39.63 S 98.5 39.68, 100 39.7 S 103.5 39.78, 105 39.78 S 108.5 39.68, 110 39.7 S 113.5 39.91, 115 39.93 S 118.5 39.91, 120 39.85 S 123.5 39.55, 125 39.55 S 128.51 40.02, 130 39.85 S 133.51 38.59, 135 38.43 S 138.51 38.68, 140 38.8 S 143.51 39.08, 145 39.25 S 148.5 39.85, 150 39.93 S 153.5 39.81, 155 39.78 S 158.5 39.69, 160 39.7 S 163.5 39.85, 165 39.85 S 168.5 39.74, 170 39.7 S 173.5 39.52, 175 39.55 S 178.5 39.9, 180 39.93 S 184.46 41.18, 185 39.78 S 189.52 15.31, 190 13.89 S 194.24 8.7, 195 10 S 199.34 29.67, 200 31.02 S 203.51 30.66, 205 30.5"
          fill="none"/>
    <circle r="4" cx="5" cy="40" fill="#3023AE"/>
    <circle r="4" cx="205" cy="30.5" fill="#C86DD7"/>      
</svg>