<svg width="200" height="50" viewBox="0 0 210 50" xmlns="http://www.w3.org/2000/svg">
    <defs>
        <linearGradient x1="0%" y1="0%" x2="100%" y2="0%" id="a">
            <stop stop-color="#3023AE" offset="0%"/>
            <stop stop-color="#C86DD7" offset="100%"/>
        </linearGradient>
    </defs>
    <path stroke="url(#a)"
          stroke-width="3"
          stroke-linejoin="round"
          stroke-linecap="round"
          d="M5 40 C 5.85 38.76, 8.51 32.82, 10 32.67 S 13.75 38.17, 15 39 S 18.5 39.33, 20 39.33 S 23.52 39.25, 25 39 S 28.5 37.67, 30 37.67 S 33.51 38.85, 35 39 S 38.5 38.57, 40 38.67 S 43.5 39.62, 45 39.67 S 48.5 39, 50 39 S 53.5 39.62, 55 39.67 S 58.5 39.33, 60 39.33 S 63.5 39.62, 65 39.67 S 68.5 39.67, 70 39.67 S 73.5 39.67, 75 39.67 S 78.5 39.67, 80 39.67 S 83.5 39.67, 85 39.67 S 88.5 39.67, 90 39.67 S 93.5 39.67, 95 39.67 S 98.52 39.92, 100 39.67 S 103.5 38, 105 38 S 108.51 39.47, 110 39.67 S 113.54 39.67, 115 39.33 S 118.5 37.43, 120 37.33 S 123.58 39.14, 125 38.67 S 128.75 34.83, 130 34 S 134.42 33.38, 135 32 S 138.64 10.63, 140 10 S 144.44 25.94, 145 27.33 S 148.5 34.9, 150 35 S 154.26 29.31, 155 28 S 158.87 18.31, 160 17.33 S 163.92 18.29, 165 19.33 S 168.71 26.23, 170 27 S 173.5 25.43, 175 25.33 S 178.59 26.85, 180 26.33 S 183.79 22.56, 185 21.67 S 188.71 18.23, 190 19 S 193.81 26.76, 195 27.67 S 198.5 26.77, 200 26.67 S 203.5 26.9, 205 27"
          fill="none"/>
    <circle r="4" cx="5" cy="40" fill="#3023AE"/>
    <circle r="4" cx="205" cy="27" fill="#C86DD7"/>      
</svg>