<svg width="200" height="50" viewBox="0 0 210 50" xmlns="http://www.w3.org/2000/svg">
    <defs>
        <linearGradient x1="0%" y1="0%" x2="100%" y2="0%" id="a">
            <stop stop-color="#3023AE" offset="0%"/>
            <stop stop-color="#C86DD7" offset="100%"/>
        </linearGradient>
    </defs>
    <path stroke="url(#a)"
          stroke-width="3"
          stroke-linejoin="round"
          stroke-linecap="round"
          d="M5 40 C 6.5 39.99, 8.5 39.98, 10 39.98 S 13.5 39.98, 15 39.98 S 18.5 39.98, 20 39.98 S 23.5 39.98, 25 39.98 S 28.5 39.98, 30 39.98 S 33.5 39.98, 35 39.98 S 38.5 39.98, 40 39.98 S 43.5 40.03, 45 39.98 S 48.5 39.66, 50 39.66 S 54.52 41.4, 55 39.98 S 59.4 11.38, 60 10 S 64.41 15.55, 65 16.93 S 69.31 31.99, 70 33.32 S 73.65 35.62, 75 36.26 S 78.53 37.75, 80 38.07 S 83.5 38.37, 85 38.45 S 88.5 38.56, 90 38.61 S 93.5 38.73, 95 38.78 S 98.5 38.9, 100 38.95 S 103.5 39.2, 105 39.1 S 108.5 38.33, 110 38.26 S 113.5 38.71, 115 38.61 S 118.5 37.58, 120 37.56 S 123.51 38.32, 125 38.49 S 128.5 38.71, 130 38.72 S 133.5 38.5, 135 38.53 S 138.5 38.91, 140 38.93 S 143.5 38.67, 145 38.68 S 148.5 38.93, 150 38.97 S 153.5 38.96, 155 38.97 S 158.5 39.03, 160 39.05 S 163.5 39.16, 165 39.12 S 168.5 38.79, 170 38.76 S 173.5 38.88, 175 38.89 S 178.56 39.26, 180 38.84 S 183.5 36.11, 185 35.99 S 188.54 37.71, 190 38.03 S 193.52 38.43, 195 38.2 S 198.5 36.45, 200 36.51 S 203.62 38.01, 205 38.59"
          fill="none"/>
    <circle r="4" cx="5" cy="40" fill="#3023AE"/>
    <circle r="4" cx="205" cy="38.59" fill="#C86DD7"/>      
</svg>