<svg width="200" height="50" viewBox="0 0 210 50" xmlns="http://www.w3.org/2000/svg">
    <defs>
        <linearGradient x1="0%" y1="0%" x2="100%" y2="0%" id="a">
            <stop stop-color="#3023AE" offset="0%"/>
            <stop stop-color="#C86DD7" offset="100%"/>
        </linearGradient>
    </defs>
    <path stroke="url(#a)"
          stroke-width="3"
          stroke-linejoin="round"
          stroke-linecap="round"
          d="M5 40 C 6.5 40, 8.5 40, 10 40 S 13.5 40, 15 40 S 18.5 40, 20 40 S 23.5 40, 25 40 S 28.5 40, 30 40 S 33.5 40, 35 40 S 38.5 40, 40 40 S 43.5 40, 45 40 S 48.5 40, 50 40 S 53.5 40, 55 40 S 58.5 40, 60 40 S 63.5 40, 65 40 S 68.5 40, 70 40 S 73.5 40, 75 40 S 78.5 40, 80 40 S 83.5 40, 85 40 S 88.5 40, 90 40 S 93.5 40, 95 40 S 98.5 40, 100 40 S 103.5 40, 105 40 S 108.5 40, 110 40 S 113.5 39.99, 115 39.99 S 119.53 41.39, 120 39.97 S 123.55 10.39, 125 10 S 129.49 35.85, 130 37.26 S 133.5 37.92, 135 37.81 S 138.5 36.51, 140 36.53 S 143.5 38, 145 37.95 S 148.54 36.51, 150 36.17 S 153.51 35.49, 155 35.62 S 158.51 36.92, 160 37.07 S 163.5 36.57, 165 36.61 S 168.5 37.3, 170 37.34 S 173.5 36.86, 175 36.85 S 178.5 37.24, 180 37.29 S 183.5 37.17, 185 37.17 S 188.5 37.4, 190 37.32 S 193.5 36.67, 195 36.62 S 198.5 36.94, 200 37.01 S 203.5 37.05, 205 37.06"
          fill="none"/>
    <circle r="4" cx="5" cy="40" fill="#3023AE"/>
    <circle r="4" cx="205" cy="37.06" fill="#C86DD7"/>      
</svg>