<svg width="200" height="50" viewBox="0 0 210 50" xmlns="http://www.w3.org/2000/svg">
    <defs>
        <linearGradient x1="0%" y1="0%" x2="100%" y2="0%" id="a">
            <stop stop-color="#3023AE" offset="0%"/>
            <stop stop-color="#C86DD7" offset="100%"/>
        </linearGradient>
    </defs>
    <path stroke="url(#a)"
          stroke-width="3"
          stroke-linejoin="round"
          stroke-linecap="round"
          d="M5 40 C 5.32 38.53, 8.54 17.55, 10 17.2 S 14.27 36.29, 15 37.6 S 18.54 35.55, 20 35.2 S 23.59 35.71, 25 35.2 S 28.65 32.25, 30 31.6 S 33.78 29.52, 35 30.4 S 38.54 38.45, 40 38.8 S 43.78 33.68, 45 32.8 S 48.59 32.11, 50 31.6 S 53.65 28.55, 55 29.2 S 58.65 35.75, 60 36.4 S 63.98 35.1, 65 34 S 68.92 26.64, 70 25.6 S 73.65 23.75, 75 24.4 S 78.78 29.52, 80 30.4 S 83.85 32.56, 85 31.6 S 88.85 22.96, 90 22 S 94.09 22, 95 23.2 S 99.09 36.4, 100 35.2 S 103.65 10.65, 105 10 S 109.27 29.09, 110 30.4 S 113.71 28.77, 115 28 S 118.54 24.05, 120 24.4 S 123.92 31.44, 125 30.4 S 128.59 15.31, 130 14.8 S 133.59 26.29, 135 26.8 S 138.59 17.89, 140 18.4 S 144.09 29.2, 145 30.4 S 148.51 31.42, 150 31.6 S 153.54 31.25, 155 31.6 S 158.71 33.23, 160 34 S 163.54 37.95, 165 37.6 S 168.92 32.64, 170 31.6 S 173.65 27.35, 175 28 S 178.78 37.28, 180 36.4 S 183.65 21.45, 185 20.8 S 188.92 30.56, 190 31.6 S 193.59 30.91, 195 30.4 S 198.51 27.82, 200 28 S 203.78 30.72, 205 31.6"
          fill="none"/>
    <circle r="4" cx="5" cy="40" fill="#3023AE"/>
    <circle r="4" cx="205" cy="31.6" fill="#C86DD7"/>      
</svg>