<svg width="200" height="50" viewBox="0 0 210 50" xmlns="http://www.w3.org/2000/svg">
    <defs>
        <linearGradient x1="0%" y1="0%" x2="100%" y2="0%" id="a">
            <stop stop-color="#3023AE" offset="0%"/>
            <stop stop-color="#C86DD7" offset="100%"/>
        </linearGradient>
    </defs>
    <path stroke="url(#a)"
          stroke-width="3"
          stroke-linejoin="round"
          stroke-linecap="round"
          d="M5 40 C 5.3 38.53, 8.55 15.6, 10 15.22 S 14.28 36.07, 15 37.39 S 18.51 33.67, 20 33.48 S 23.74 36.91, 25 36.09 S 28.55 27.34, 30 26.96 S 33.96 32.4, 35 33.48 S 38.55 37.77, 40 37.39 S 44.03 32.01, 45 30.87 S 48.6 25.1, 50 25.65 S 53.96 33.7, 55 34.78 S 59.03 37.23, 60 36.09 S 63.96 24.12, 65 23.04 S 68.6 25.1, 70 25.65 S 73.67 26.27, 75 26.96 S 78.6 31.42, 80 30.87 S 84.19 24.3, 85 23.04 S 89.03 14.08, 90 15.22 S 93.67 35.47, 95 34.78 S 98.67 10.69, 100 10 S 104.32 28.23, 105 29.57 S 109.03 30.71, 110 29.57 S 113.5 17.83, 115 17.83 S 118.6 30.12, 120 29.57 S 123.67 14.6, 125 13.91 S 128.55 23.97, 130 24.35 S 133.67 15.83, 135 16.52 S 139.14 28.34, 140 29.57 S 143.5 30.87, 145 30.87 S 148.6 29.02, 150 29.57 S 153.82 33.86, 155 34.78 S 158.6 37.94, 160 37.39 S 164.03 32.01, 165 30.87 S 168.55 25.27, 170 25.65 S 173.6 34.03, 175 33.48 S 178.67 22.43, 180 21.74 S 183.89 27.25, 185 28.26 S 188.6 31.42, 190 30.87 S 193.51 24.16, 195 24.35 S 198.55 31.79, 200 32.17 S 203.96 28.04, 205 26.96"
          fill="none"/>
    <circle r="4" cx="5" cy="40" fill="#3023AE"/>
    <circle r="4" cx="205" cy="26.96" fill="#C86DD7"/>      
</svg>