<svg width="200" height="50" viewBox="0 0 210 50" xmlns="http://www.w3.org/2000/svg">
    <defs>
        <linearGradient x1="0%" y1="0%" x2="100%" y2="0%" id="a">
            <stop stop-color="#3023AE" offset="0%"/>
            <stop stop-color="#C86DD7" offset="100%"/>
        </linearGradient>
    </defs>
    <path stroke="url(#a)"
          stroke-width="3"
          stroke-linejoin="round"
          stroke-linecap="round"
          d="M5 40 C 5.25 38.52, 8.5 10.11, 10 10 S 14.52 37.82, 15 39.24 S 18.5 39.27, 20 39.3 S 23.5 39.35, 25 39.41 S 28.5 39.67, 30 39.73 S 33.5 39.76, 35 39.78 S 38.5 39.81, 40 39.84 S 43.5 39.94, 45 39.95 S 48.5 39.89, 50 39.89 S 53.51 40.11, 55 39.95 S 58.55 39.19, 60 38.81 S 63.51 37.49, 65 37.35 S 68.5 37.96, 70 37.89 S 73.5 36.83, 75 36.86 S 78.51 37.95, 80 38.11 S 83.52 38.2, 85 37.95 S 88.5 36.37, 90 36.43 S 93.5 38.37, 95 38.38 S 98.5 36.6, 100 36.49 S 103.5 37.51, 105 37.62 S 108.5 37.2, 110 37.24 S 113.52 38.15, 115 37.89 S 118.65 36.15, 120 35.51 S 123.51 33.34, 125 33.14 S 128.5 34.18, 130 34.16 S 133.52 32.8, 135 33.03 S 138.52 35.44, 140 35.68 S 143.56 35.08, 145 34.65 S 148.5 32.62, 150 32.7 S 153.52 34.93, 155 35.19 S 158.51 34.26, 160 34.43 S 163.54 35.97, 165 36.32 S 168.52 37.09, 170 36.86 S 173.51 34.9, 175 34.76 S 178.53 35.61, 180 35.89 S 183.5 36.59, 185 36.65 S 188.5 36.29, 190 36.27 S 193.5 36.56, 195 36.54 S 198.5 36.14, 200 36.16 S 203.51 36.5, 205 36.65"
          fill="none"/>
    <circle r="4" cx="5" cy="40" fill="#3023AE"/>
    <circle r="4" cx="205" cy="36.65" fill="#C86DD7"/>      
</svg>