<svg width="200" height="50" viewBox="0 0 210 50" xmlns="http://www.w3.org/2000/svg">
    <defs>
        <linearGradient x1="0%" y1="0%" x2="100%" y2="0%" id="a">
            <stop stop-color="#3023AE" offset="0%"/>
            <stop stop-color="#C86DD7" offset="100%"/>
        </linearGradient>
    </defs>
    <path stroke="url(#a)"
          stroke-width="3"
          stroke-linejoin="round"
          stroke-linecap="round"
          d="M5 40 C 5.25 38.52, 8.5 10.11, 10 10 S 14.52 37.82, 15 39.24 S 18.5 39.32, 20 39.35 S 23.5 39.42, 25 39.46 S 28.5 39.56, 30 39.62 S 33.5 39.82, 35 39.84 S 38.5 39.76, 40 39.78 S 43.5 39.93, 45 39.95 S 48.5 39.89, 50 39.89 S 53.5 40.01, 55 39.95 S 58.55 39.84, 60 39.46 S 63.52 37.61, 65 37.35 S 68.5 37.77, 70 37.73 S 73.5 37.06, 75 37.08 S 78.51 37.69, 80 37.84 S 83.51 38.25, 85 38.11 S 88.5 36.97, 90 36.92 S 93.5 37.8, 95 37.78 S 98.5 36.75, 100 36.81 S 103.5 38.1, 105 38.16 S 108.51 37.33, 110 37.19 S 113.5 37.2, 115 37.24 S 118.53 37.77, 120 37.46 S 123.69 35.87, 125 35.14 S 128.5 31.83, 130 31.84 S 133.53 34.91, 135 35.19 S 138.5 33.67, 140 33.73 S 143.5 35.74, 145 35.62 S 148.53 33.21, 150 32.92 S 153.53 33.39, 155 33.68 S 158.52 34.62, 160 34.86 S 163.53 34.99, 165 35.3 S 168.5 37.08, 170 36.97 S 173.5 34.56, 175 34.59 S 178.51 37, 180 37.19 S 183.51 36.02, 185 35.84 S 188.5 35.84, 190 35.95 S 193.51 36.44, 195 36.59 S 198.5 37.03, 200 36.97 S 203.52 36.4, 205 36.16"
          fill="none"/>
    <circle r="4" cx="5" cy="40" fill="#3023AE"/>
    <circle r="4" cx="205" cy="36.16" fill="#C86DD7"/>      
</svg>