<svg width="200" height="50" viewBox="0 0 210 50" xmlns="http://www.w3.org/2000/svg">
    <defs>
        <linearGradient x1="0%" y1="0%" x2="100%" y2="0%" id="a">
            <stop stop-color="#3023AE" offset="0%"/>
            <stop stop-color="#C86DD7" offset="100%"/>
        </linearGradient>
    </defs>
    <path stroke="url(#a)"
          stroke-width="3"
          stroke-linejoin="round"
          stroke-linecap="round"
          d="M5 40 C 6.23 39.14, 8.52 36.74, 10 36.52 S 13.51 38.42, 15 38.55 S 18.52 37.63, 20 37.39 S 23.5 36.94, 25 36.96 S 28.51 37.41, 30 37.54 S 33.5 37.83, 35 37.83 S 39.49 38.95, 40 37.54 S 43.5 10.08, 45 10.14 S 49.38 36.61, 50 37.97 S 53.5 32.03, 55 32.03 S 58.69 37.23, 60 37.97 S 63.5 37.72, 65 37.68 S 68.51 37.81, 70 37.68 S 73.58 37.3, 75 36.81 S 78.98 35.3, 80 34.2 S 83.5 26, 85 25.94 S 88.87 32.79, 90 33.77 S 94.42 36.02, 95 34.64 S 98.65 10.66, 100 10 S 104.28 28.39, 105 29.71 S 108.65 27.6, 110 28.26 S 113.6 34.11, 115 34.64 S 118.51 32.18, 120 32.03 S 123.5 33.66, 125 33.62 S 128.53 32.04, 130 31.74 S 133.51 31.44, 135 31.59 S 138.5 32.77, 140 32.75 S 143.56 31.87, 145 31.45 S 148.61 30.42, 150 29.86 S 153.5 27.28, 155 27.39 S 158.52 30.36, 160 30.58 S 163.54 29.2, 165 28.84 S 168.52 28.36, 170 28.12 S 173.78 28.12, 175 27.25 S 178.53 21.29, 180 21.01 S 183.56 25.8, 185 25.36 S 188.52 17.73, 190 17.97 S 193.88 25.97, 195 26.96 S 198.5 26.81, 200 26.81 S 203.5 26.92, 205 26.96"
          fill="none"/>
    <circle r="4" cx="5" cy="40" fill="#3023AE"/>
    <circle r="4" cx="205" cy="26.96" fill="#C86DD7"/>      
</svg>