<svg width="200" height="50" viewBox="0 0 210 50" xmlns="http://www.w3.org/2000/svg">
    <defs>
        <linearGradient x1="0%" y1="0%" x2="100%" y2="0%" id="a">
            <stop stop-color="#3023AE" offset="0%"/>
            <stop stop-color="#C86DD7" offset="100%"/>
        </linearGradient>
    </defs>
    <path stroke="url(#a)"
          stroke-width="3"
          stroke-linejoin="round"
          stroke-linecap="round"
          d="M5 40 C 5.5 38.59, 8.79 26.84, 10 25.96 S 13.79 31.83, 15 32.71 S 18.52 33.52, 20 33.26 S 23.5 30.92, 25 30.92 S 28.52 33.04, 30 33.26 S 33.5 32.37, 35 32.43 S 38.51 33.87, 40 33.67 S 43.66 31.74, 45 31.06 S 48.87 29.56, 50 28.58 S 53.62 22.98, 55 22.39 S 59.06 25.48, 60 24.31 S 63.76 10.84, 65 10 S 68.77 16.71, 70 17.57 S 73.51 16.84, 75 17.02 S 78.66 18.14, 80 18.81 S 83.55 21.57, 85 21.97 S 88.51 21.74, 90 21.56 S 93.52 20.95, 95 20.73 S 98.54 20.37, 100 20.05 S 103.62 17.94, 105 18.53 S 108.72 23.52, 110 24.31 S 113.66 25.39, 115 24.72 S 118.9 20.38, 120 19.36 S 123.51 15.53, 125 15.37 S 128.83 17.32, 130 18.26 S 133.61 22.79, 135 23.35 S 138.54 21.93, 140 22.25 S 143.51 25.41, 145 25.55 S 148.76 24.06, 150 23.21 S 153.53 18.37, 155 18.67 S 158.58 24.79, 160 25.28 S 163.5 22.15, 165 22.11 S 168.54 24.64, 170 25 S 173.5 24.51, 175 24.59 S 178.97 26.64, 180 25.55 S 183.85 14.95, 185 13.99 S 188.61 16.6, 190 17.16 S 193.52 17.76, 195 17.98 S 198.74 19.48, 200 18.67 S 204.14 12.74, 205 11.51"
          fill="none"/>
    <circle r="4" cx="5" cy="40" fill="#3023AE"/>
    <circle r="4" cx="205" cy="11.510000000000002" fill="#C86DD7"/>      
</svg>