<svg width="200" height="50" viewBox="0 0 210 50" xmlns="http://www.w3.org/2000/svg">
    <defs>
        <linearGradient x1="0%" y1="0%" x2="100%" y2="0%" id="a">
            <stop stop-color="#3023AE" offset="0%"/>
            <stop stop-color="#C86DD7" offset="100%"/>
        </linearGradient>
    </defs>
    <path stroke="url(#a)"
          stroke-width="3"
          stroke-linejoin="round"
          stroke-linecap="round"
          d="M5 40 C 5.25 38.52, 9.51 11.42, 10 10 S 14.14 10.07, 15 11.3 S 19.03 23.21, 20 24.35 S 23.67 23.73, 25 23.04 S 28.82 20.05, 30 19.13 S 33.74 14.4, 35 15.22 S 39.41 24.27, 40 25.65 S 44.03 37.56, 45 38.7 S 48.5 37.39, 50 37.39 S 53.51 38.51, 55 38.7 S 58.5 38.7, 60 38.7 S 63.5 38.7, 65 38.7 S 68.5 38.7, 70 38.7 S 73.5 38.7, 75 38.7 S 78.5 38.7, 80 38.7 S 83.5 38.7, 85 38.7 S 88.5 38.7, 90 38.7 S 93.55 39.08, 95 38.7 S 98.5 36.09, 100 36.09 S 103.55 38.32, 105 38.7 S 108.5 38.7, 110 38.7 S 113.5 38.7, 115 38.7 S 118.5 38.7, 120 38.7 S 123.5 38.7, 125 38.7 S 128.5 38.7, 130 38.7 S 133.5 38.7, 135 38.7 S 138.5 38.7, 140 38.7 S 143.5 38.7, 145 38.7 S 148.5 38.7, 150 38.7 S 153.5 38.7, 155 38.7 S 158.5 38.7, 160 38.7 S 163.5 38.7, 165 38.7 S 168.5 38.7, 170 38.7 S 173.5 38.7, 175 38.7 S 178.5 38.7, 180 38.7"
          fill="none"/>
    <circle r="4" cx="5" cy="40" fill="#3023AE"/>
    <circle r="4" cx="180" cy="38.7" fill="#C86DD7"/>      
</svg>