<svg width="200" height="50" viewBox="0 0 210 50" xmlns="http://www.w3.org/2000/svg">
    <defs>
        <linearGradient x1="0%" y1="0%" x2="100%" y2="0%" id="a">
            <stop stop-color="#3023AE" offset="0%"/>
            <stop stop-color="#C86DD7" offset="100%"/>
        </linearGradient>
    </defs>
    <path stroke="url(#a)"
          stroke-width="3"
          stroke-linejoin="round"
          stroke-linecap="round"
          d="M5 40 C 6.43 39.56, 8.5 38.48, 10 38.45 S 13.51 39.61, 15 39.81 S 18.52 40.04, 20 39.81 S 23.51 38.46, 25 38.26 S 28.5 38.57, 30 38.45 S 33.5 37.54, 35 37.48 S 38.5 38.12, 40 38.06 S 43.51 37.27, 45 37.1 S 48.5 36.84, 50 36.9 S 53.5 37.42, 55 37.48 S 58.5 37.41, 60 37.29 S 63.5 36.83, 65 36.71 S 68.5 36.64, 70 36.52 S 73.5 36.03, 75 35.94 S 78.5 36.06, 80 35.94 S 83.5 35.22, 85 35.16 S 88.56 35.13, 90 35.55 S 93.5 38, 95 38.06 S 98.62 36.53, 100 35.94 S 103.52 34.04, 105 33.81 S 108.5 34.27, 110 34.39 S 113.52 34.84, 115 34.58 S 118.51 32.51, 120 32.65 S 123.52 35.29, 125 35.55 S 128.54 34.73, 130 34.39 S 133.5 33.26, 135 33.23 S 138.8 35.09, 140 34.19 S 143.58 26.15, 145 25.68 S 148.52 30.64, 150 30.9 S 153.5 27.54, 155 27.42 S 158.5 30.19, 160 30.13 S 163.53 27.32, 165 27.03 S 168.5 28.31, 170 28.19 S 174.28 27.57, 175 26.26 S 178.69 10.73, 180 10 S 184.19 19.39, 185 20.65 S 188.95 24.41, 190 25.48 S 193.51 30.7, 195 30.9 S 199.14 28.07, 200 26.84 S 204.34 17.93, 205 16.58"
          fill="none"/>
    <circle r="4" cx="5" cy="40" fill="#3023AE"/>
    <circle r="4" cx="205" cy="16.58" fill="#C86DD7"/>      
</svg>