<svg width="200" height="50" viewBox="0 0 210 50" xmlns="http://www.w3.org/2000/svg">
    <defs>
        <linearGradient x1="0%" y1="0%" x2="100%" y2="0%" id="a">
            <stop stop-color="#3023AE" offset="0%"/>
            <stop stop-color="#C86DD7" offset="100%"/>
        </linearGradient>
    </defs>
    <path stroke="url(#a)"
          stroke-width="3"
          stroke-linejoin="round"
          stroke-linecap="round"
          d="M5 40 C 5.95 38.84, 8.51 34.04, 10 33.85 S 13.65 38.06, 15 38.71 S 18.5 38.58, 20 38.63 S 23.5 38.98, 25 39.03 S 28.5 38.86, 30 38.95 S 33.5 39.52, 35 39.6 S 38.5 39.54, 40 39.51 S 43.5 39.49, 45 39.43 S 48.5 39.13, 50 39.11 S 53.5 39.2, 55 39.27 S 58.5 39.53, 60 39.6 S 63.52 39.99, 65 39.76 S 68.53 38.37, 70 38.06 S 73.59 38.15, 75 37.65 S 78.51 34.7, 80 34.5 S 83.54 35.95, 85 36.28 S 88.87 37.76, 90 36.77 S 93.69 28.29, 95 27.55 S 99.19 32.37, 100 31.11 S 103.89 12.95, 105 11.94 S 109.06 20.88, 110 22.05 S 113.74 23.58, 115 24.39 S 118.53 28.13, 120 28.44 S 123.54 26.15, 125 26.5 S 128.53 30.55, 130 30.86 S 133.63 29.22, 135 28.6 S 138.71 27.1, 140 26.33 S 143.5 22.51, 145 22.61 S 149.07 28.16, 150 26.98 S 153.51 10.17, 155 10 S 158.93 24.8, 160 25.85 S 163.63 20.47, 165 19.87 S 168.71 20.71, 170 21.48 S 173.5 25.85, 175 25.85 S 178.68 22.19, 180 21.48 S 183.5 20.41, 185 20.43 S 188.59 21.14, 190 21.64 S 193.51 24.15, 195 23.99 S 198.8 21.49, 200 20.59 S 203.84 17.42, 205 16.47"
          fill="none"/>
    <circle r="4" cx="5" cy="40" fill="#3023AE"/>
    <circle r="4" cx="205" cy="16.47" fill="#C86DD7"/>      
</svg>