<svg width="200" height="50" viewBox="0 0 210 50" xmlns="http://www.w3.org/2000/svg">
    <defs>
        <linearGradient x1="0%" y1="0%" x2="100%" y2="0%" id="a">
            <stop stop-color="#3023AE" offset="0%"/>
            <stop stop-color="#C86DD7" offset="100%"/>
        </linearGradient>
    </defs>
    <path stroke="url(#a)"
          stroke-width="3"
          stroke-linejoin="round"
          stroke-linecap="round"
          d="M5 40 C 5.25 38.52, 8.6 10.53, 10 10 S 14.49 34.84, 15 36.25 S 18.52 37.25, 20 37.5 S 23.5 37.98, 25 37.92 S 28.51 37.21, 30 37.08 S 33.51 36.89, 35 37.08 S 38.53 38.02, 40 38.33 S 43.5 39.11, 45 39.17 S 48.56 39.17, 50 38.75 S 54.02 37.39, 55 36.25 S 58.68 27.79, 60 27.08 S 63.51 31.02, 65 30.83 S 68.51 25.7, 70 25.83 S 73.56 31.25, 75 31.67 S 78.56 29.17, 80 28.75 S 83.53 28.44, 85 28.75 S 88.68 30.12, 90 30.83 S 93.51 33.98, 95 34.17 S 98.6 32.61, 100 32.08 S 103.5 30.48, 105 30.42 S 108.53 31.36, 110 31.67 S 113.51 32.31, 115 32.5 S 118.51 32.8, 120 32.92 S 123.68 34.04, 125 33.33 S 128.51 27.69, 130 27.5 S 133.73 31.29, 135 32.08 S 138.5 33.81, 140 33.75 S 143.51 31.86, 145 31.67 S 148.53 32.19, 150 32.5 S 153.56 33.33, 155 33.75 S 158.6 34.89, 160 35.42 S 163.56 37.92, 165 37.5 S 168.73 33.29, 170 32.5 S 173.51 31.06, 175 31.25 S 178.54 33.39, 180 33.75 S 183.51 33.94, 185 33.75 S 188.52 32.25, 190 32.5 S 193.54 35.06, 195 35.42 S 198.53 34.69, 200 35 S 203.66 36.83, 205 37.5"
          fill="none"/>
    <circle r="4" cx="5" cy="40" fill="#3023AE"/>
    <circle r="4" cx="205" cy="37.5" fill="#C86DD7"/>      
</svg>