<svg width="200" height="50" viewBox="0 0 210 50" xmlns="http://www.w3.org/2000/svg">
    <defs>
        <linearGradient x1="0%" y1="0%" x2="100%" y2="0%" id="a">
            <stop stop-color="#3023AE" offset="0%"/>
            <stop stop-color="#C86DD7" offset="100%"/>
        </linearGradient>
    </defs>
    <path stroke="url(#a)"
          stroke-width="3"
          stroke-linejoin="round"
          stroke-linecap="round"
          d="M5 40 C 5.25 38.52, 8.84 10.95, 10 10 S 14.48 30.46, 15 31.87 S 18.5 36.78, 20 36.87 S 23.5 32.5, 25 32.5 S 28.76 36.02, 30 36.87 S 33.5 39.28, 35 39.37 S 38.57 37.95, 40 37.5 S 43.51 36.06, 45 36.25 S 48.53 38.47, 50 38.75 S 53.53 38.4, 55 38.12 S 58.51 37.06, 60 36.87 S 63.53 37.15, 65 36.87 S 68.53 35.28, 70 35 S 73.51 34.81, 75 35 S 78.57 35.8, 80 36.25 S 83.54 37.76, 85 38.12 S 88.5 38.66, 90 38.75 S 93.5 38.84, 95 38.75 S 98.5 38.21, 100 38.12 S 103.5 38.03, 105 38.12 S 108.5 38.66, 110 38.75 S 113.54 39.11, 115 38.75 S 118.5 36.16, 120 36.25 S 123.51 39.18, 125 39.37 S 128.5 37.59, 130 37.5 S 133.5 38.75, 135 38.75 S 138.53 37.78, 140 37.5 S 143.5 36.78, 145 36.87 S 148.54 37.76, 150 38.12 S 153.51 39.18, 155 39.37 S 158.51 39.56, 160 39.37 S 163.53 38.4, 165 38.12 S 168.51 37.31, 170 37.5 S 173.5 39.46, 175 39.37 S 178.5 36.96, 180 36.87 S 183.5 38.75, 185 38.75 S 188.73 37.66, 190 36.87 S 193.5 32.59, 195 32.5 S 198.6 35.72, 200 36.25 S 203.5 36.25, 205 36.25"
          fill="none"/>
    <circle r="4" cx="5" cy="40" fill="#3023AE"/>
    <circle r="4" cx="205" cy="36.25" fill="#C86DD7"/>      
</svg>