<svg width="200" height="50" viewBox="0 0 210 50" xmlns="http://www.w3.org/2000/svg">
    <defs>
        <linearGradient x1="0%" y1="0%" x2="100%" y2="0%" id="a">
            <stop stop-color="#3023AE" offset="0%"/>
            <stop stop-color="#C86DD7" offset="100%"/>
        </linearGradient>
    </defs>
    <path stroke="url(#a)"
          stroke-width="3"
          stroke-linejoin="round"
          stroke-linecap="round"
          d="M5 40 C 5.25 38.52, 9.28 11.32, 10 10 S 14.03 20.62, 15 21.76 S 19.11 20.55, 20 21.76 S 23.81 34.38, 25 35.29 S 28.54 29.75, 30 29.41 S 33.5 32.94, 35 32.94 S 38.61 29.98, 40 29.41 S 43.59 28.32, 45 28.82 S 48.71 32.18, 50 32.94 S 53.5 34.71, 55 34.71 S 58.61 33.51, 60 32.94 S 63.71 31.35, 65 30.59 S 68.64 27.7, 70 27.06 S 73.84 24.93, 75 25.88 S 78.91 34.26, 80 35.29 S 83.54 35.63, 85 35.29 S 88.54 33.28, 90 32.94 S 93.52 33.2, 95 32.94 S 98.52 30.92, 100 31.18 S 103.64 34.07, 105 34.71 S 108.5 35.79, 110 35.88 S 113.5 35.29, 115 35.29 S 118.5 35.79, 120 35.88 S 123.52 35.62, 125 35.88 S 128.64 38.29, 130 37.65 S 133.61 31.75, 135 31.18 S 138.5 33.62, 140 33.53 S 143.56 30.17, 145 30.59 S 148.64 35.83, 150 36.47 S 153.59 35.79, 155 35.29 S 158.5 33.03, 160 32.94 S 163.54 34.37, 165 34.71 S 168.52 35.55, 170 35.29 S 173.5 33.03, 175 32.94 S 178.51 34.53, 180 34.71 S 183.51 34.3, 185 34.12 S 189.34 34.88, 190 33.53 S 194.22 14.81, 195 13.53 S 199.13 15.84, 200 17.06 S 204.36 26.29, 205 27.65"
          fill="none"/>
    <circle r="4" cx="5" cy="40" fill="#3023AE"/>
    <circle r="4" cx="205" cy="27.65" fill="#C86DD7"/>      
</svg>