<svg width="200" height="50" viewBox="0 0 210 50" xmlns="http://www.w3.org/2000/svg">
    <defs>
        <linearGradient x1="0%" y1="0%" x2="100%" y2="0%" id="a">
            <stop stop-color="#3023AE" offset="0%"/>
            <stop stop-color="#C86DD7" offset="100%"/>
        </linearGradient>
    </defs>
    <path stroke="url(#a)"
          stroke-width="3"
          stroke-linejoin="round"
          stroke-linecap="round"
          d="M5 40 C 5.33 38.54, 8.8 18.69, 10 17.79 S 14.27 31.16, 15 32.47 S 18.58 35.32, 20 35.79 S 23.5 35.68, 25 35.79 S 28.51 36.36, 30 36.55 S 33.51 37.25, 35 37.06 S 38.53 35.56, 40 35.28 S 43.51 35.28, 45 35.15 S 48.5 34.34, 50 34.38 S 53.53 35.08, 55 35.4 S 58.52 36.3, 60 36.55 S 63.5 37, 65 37.06 S 68.5 36.98, 70 36.94 S 73.51 36.96, 75 36.81 S 78.5 35.99, 80 35.91 S 83.51 36.11, 85 36.3 S 88.55 37.56, 90 37.19 S 93.5 33.8, 95 33.74 S 98.54 36.46, 100 36.81 S 103.54 36.51, 105 36.17 S 108.5 34.45, 110 34.51 S 113.5 36.43, 115 36.55 S 118.51 35.43, 120 35.28 S 123.52 35.78, 125 35.53 S 128.51 33.81, 130 33.62 S 133.57 33.82, 135 34.26 S 138.53 36.98, 140 36.68 S 143.52 32.47, 145 32.21 S 148.62 34.29, 150 34.89 S 153.52 36.29, 155 36.55 S 158.5 36.7, 160 36.68 S 163.52 36.69, 165 36.43 S 168.51 35.08, 170 34.89 S 173.5 35.15, 175 35.15 S 178.5 34.89, 180 34.89 S 183.51 35.34, 185 35.15 S 188.5 33.74, 190 33.62 S 194.42 35.76, 195 34.38 S 198.8 10.9, 200 10 S 204.57 25.41, 205 26.85"
          fill="none"/>
    <circle r="4" cx="5" cy="40" fill="#3023AE"/>
    <circle r="4" cx="205" cy="26.85" fill="#C86DD7"/>      
</svg>