<svg width="200" height="50" viewBox="0 0 210 50" xmlns="http://www.w3.org/2000/svg">
    <defs>
        <linearGradient x1="0%" y1="0%" x2="100%" y2="0%" id="a">
            <stop stop-color="#3023AE" offset="0%"/>
            <stop stop-color="#C86DD7" offset="100%"/>
        </linearGradient>
    </defs>
    <path stroke="url(#a)"
          stroke-width="3"
          stroke-linejoin="round"
          stroke-linecap="round"
          d="M5 40 C 5.25 38.52, 8.66 10.67, 10 10 S 14.42 33.62, 15 35 S 18.5 33.75, 20 33.75 S 23.5 35, 25 35 S 28.5 33.75, 30 33.75 S 33.54 34.64, 35 35 S 38.5 36.25, 40 36.25 S 43.54 34.64, 45 35 S 48.51 38.56, 50 38.75 S 53.51 36.44, 55 36.25 S 58.51 37.69, 60 37.5 S 63.54 35.36, 65 35 S 68.51 34.81, 70 35 S 73.51 36.06, 75 36.25 S 78.6 36.78, 80 36.25 S 83.51 32.31, 85 32.5 S 88.54 37.14, 90 37.5 S 93.66 35.67, 95 35 S 98.51 32.31, 100 32.5 S 103.51 36.06, 105 36.25 S 108.51 33.94, 110 33.75 S 113.51 34.81, 115 35 S 118.6 34.47, 120 35 S 123.51 38.94, 125 38.75 S 128.51 33.94, 130 33.75 S 133.51 37.31, 135 37.5 S 138.51 35.19, 140 35 S 143.54 36.61, 145 36.25 S 148.66 33.17, 150 32.5 S 153.51 31.44, 155 31.25 S 158.5 31.25, 160 31.25 S 163.73 30.46, 165 31.25 S 168.6 36.97, 170 37.5 S 173.51 35.19, 175 35 S 178.54 36.61, 180 36.25 S 183.51 32.31, 185 32.5 S 188.66 38.17, 190 37.5 S 193.51 27.69, 195 27.5 S 198.6 36.78, 200 36.25 S 204.44 25.14, 205 23.75"
          fill="none"/>
    <circle r="4" cx="5" cy="40" fill="#3023AE"/>
    <circle r="4" cx="205" cy="23.75" fill="#C86DD7"/>      
</svg>