<svg width="200" height="50" viewBox="0 0 210 50" xmlns="http://www.w3.org/2000/svg">
    <defs>
        <linearGradient x1="0%" y1="0%" x2="100%" y2="0%" id="a">
            <stop stop-color="#3023AE" offset="0%"/>
            <stop stop-color="#C86DD7" offset="100%"/>
        </linearGradient>
    </defs>
    <path stroke="url(#a)"
          stroke-width="3"
          stroke-linejoin="round"
          stroke-linecap="round"
          d="M5 40 C 6.39 39.43, 8.51 38.15, 10 37.95 S 13.51 38.44, 15 38.64 S 18.5 39.42, 20 39.32 S 23.5 37.95, 25 37.95 S 28.5 39.42, 30 39.32 S 33.55 37.67, 35 37.27 S 38.5 36.49, 40 36.59 S 43.51 37.75, 45 37.95 S 48.51 37.75, 50 37.95 S 53.61 39.89, 55 39.32 S 58.53 34.16, 60 33.86 S 63.55 36.87, 65 37.27 S 68.5 36.59, 70 36.59 S 73.5 37.17, 75 37.27 S 78.91 38.31, 80 37.27 S 83.53 28.03, 85 27.73 S 88.91 34.19, 90 35.23 S 93.5 37.27, 95 37.27 S 98.51 35.03, 100 35.23 S 103.5 38.54, 105 38.64 S 108.95 36.98, 110 35.91 S 114.08 29.6, 115 28.41 S 118.84 22, 120 22.95 S 123.65 35.94, 125 36.59 S 128.91 28.77, 130 27.73 S 133.51 26.85, 135 27.05 S 138.88 30.09, 140 29.09 S 143.5 18.28, 145 18.18 S 149.08 27.22, 150 28.41 S 153.51 30.94, 155 31.14 S 158.5 29.77, 160 29.77 S 163.61 31.71, 165 31.14 S 168.53 25.98, 170 25.68 S 173.58 28.61, 175 29.09 S 178.95 30.16, 180 29.09 S 183.55 19.26, 185 18.86 S 188.84 25.41, 190 26.36 S 194.22 28.33, 195 27.05 S 199.05 11.16, 200 10 S 203.91 13.73, 205 14.77"
          fill="none"/>
    <circle r="4" cx="5" cy="40" fill="#3023AE"/>
    <circle r="4" cx="205" cy="14.77" fill="#C86DD7"/>      
</svg>