<svg width="200" height="50" viewBox="0 0 210 50" xmlns="http://www.w3.org/2000/svg">
    <defs>
        <linearGradient x1="0%" y1="0%" x2="100%" y2="0%" id="a">
            <stop stop-color="#3023AE" offset="0%"/>
            <stop stop-color="#C86DD7" offset="100%"/>
        </linearGradient>
    </defs>
    <path stroke="url(#a)"
          stroke-width="3"
          stroke-linejoin="round"
          stroke-linecap="round"
          d="M5 40 C 5.39 38.55, 8.96 22.62, 10 21.54 S 14.02 28.49, 15 29.62 S 18.51 33.25, 20 33.08 S 23.58 28.95, 25 28.46 S 28.54 29.28, 30 29.62 S 33.58 31.26, 35 30.77 S 38.7 25.4, 40 26.15 S 43.5 36.54, 45 36.54 S 48.77 27, 50 26.15 S 53.7 28.87, 55 29.62 S 58.51 31.75, 60 31.92 S 63.96 31.85, 65 30.77 S 68.7 22.29, 70 21.54 S 73.9 23.98, 75 25 S 78.83 29.83, 80 30.77 S 83.83 34.02, 85 33.08 S 88.58 23.18, 90 22.69 S 93.7 28.87, 95 29.62 S 98.58 28.95, 100 28.46 S 103.64 26.78, 105 26.15 S 108.51 23.68, 110 23.85 S 113.58 26.82, 115 27.31 S 118.54 27.65, 120 27.31 S 123.54 24.66, 125 25 S 128.77 28.77, 130 29.62 S 133.96 33, 135 31.92 S 139.38 20.59, 140 19.23 S 143.7 9.25, 145 10 S 149.12 23.78, 150 25 S 153.77 24.7, 155 23.85 S 159.02 19.21, 160 18.08 S 163.51 12.48, 165 12.31 S 168.51 17.09, 170 16.92 S 173.58 10.66, 175 11.15 S 178.9 19.36, 180 20.38 S 183.64 21.01, 185 20.38 S 188.96 16.85, 190 15.77 S 193.51 9.83, 195 10 S 198.83 15.98, 200 16.92 S 203.54 17.74, 205 18.08"
          fill="none"/>
    <circle r="4" cx="5" cy="40" fill="#3023AE"/>
    <circle r="4" cx="205" cy="18.08" fill="#C86DD7"/>      
</svg>