<svg width="200" height="50" viewBox="0 0 210 50" xmlns="http://www.w3.org/2000/svg">
    <defs>
        <linearGradient x1="0%" y1="0%" x2="100%" y2="0%" id="a">
            <stop stop-color="#3023AE" offset="0%"/>
            <stop stop-color="#C86DD7" offset="100%"/>
        </linearGradient>
    </defs>
    <path stroke="url(#a)"
          stroke-width="3"
          stroke-linejoin="round"
          stroke-linecap="round"
          d="M5 40 C 6.5 39.96, 8.5 39.86, 10 39.86 S 13.5 40.03, 15 39.99 S 18.5 39.68, 20 39.6 S 23.5 39.45, 25 39.48 S 28.5 39.75, 30 39.81 S 34.52 41.33, 35 39.91 S 38.52 10.26, 40 10 S 44.49 36.73, 45 38.14 S 48.51 37.56, 50 37.75 S 53.53 39.11, 55 39.41 S 58.5 39.79, 60 39.8 S 63.5 39.47, 65 39.47 S 68.5 39.72, 70 39.77 S 73.5 39.79, 75 39.81 S 78.5 39.89, 80 39.9 S 83.5 39.88, 85 39.87 S 88.5 39.86, 90 39.86 S 93.5 39.88, 95 39.88 S 98.5 39.84, 100 39.84 S 103.5 39.89, 105 39.9 S 108.5 39.9, 110 39.9 S 113.5 39.96, 115 39.88 S 118.5 39.4, 120 39.39 S 123.5 39.78, 125 39.83 S 128.5 39.74, 130 39.73 S 133.5 39.75, 135 39.75 S 138.5 39.72, 140 39.73 S 143.5 39.83, 145 39.84 S 148.5 39.78, 150 39.77 S 153.5 39.79, 155 39.8 S 158.5 39.88, 160 39.87 S 163.5 39.74, 165 39.74 S 168.5 39.83, 170 39.86 S 173.5 39.9, 175 39.91 S 178.5 39.94, 180 39.94 S 183.5 39.95, 185 39.94 S 188.5 39.88, 190 39.87 S 193.5 39.87, 195 39.86 S 198.5 39.82, 200 39.81 S 203.5 39.81, 205 39.81"
          fill="none"/>
    <circle r="4" cx="5" cy="40" fill="#3023AE"/>
    <circle r="4" cx="205" cy="39.81" fill="#C86DD7"/>      
</svg>