<svg width="200" height="50" viewBox="0 0 210 50" xmlns="http://www.w3.org/2000/svg">
    <defs>
        <linearGradient x1="0%" y1="0%" x2="100%" y2="0%" id="a">
            <stop stop-color="#3023AE" offset="0%"/>
            <stop stop-color="#C86DD7" offset="100%"/>
        </linearGradient>
    </defs>
    <path stroke="url(#a)"
          stroke-width="3"
          stroke-linejoin="round"
          stroke-linecap="round"
          d="M5 40 C 6.07 38.95, 8.69 35.82, 10 35.1 S 13.52 34.72, 15 34.49 S 18.51 33.71, 20 33.57 S 23.53 33.26, 25 33.57 S 28.5 35.8, 30 35.71 S 33.69 33.68, 35 32.96 S 38.57 30.64, 40 30.2 S 43.52 29.67, 45 29.9 S 48.5 31.64, 50 31.73 S 53.54 30.87, 55 30.51 S 58.83 30.22, 60 29.29 S 63.76 23.39, 65 22.55 S 68.58 23.03, 70 22.55 S 73.52 19.41, 75 19.18 S 78.61 20.47, 80 21.02 S 83.54 22.8, 85 23.16 S 88.57 23.91, 90 23.47 S 93.61 20.65, 95 20.1 S 98.51 19.31, 100 19.49 S 103.55 21.73, 105 21.33 S 108.69 17.45, 110 16.73 S 113.5 15.73, 115 15.82 S 118.62 16.76, 120 17.35 S 123.5 20.19, 125 20.1 S 128.52 16.5, 130 16.73 S 133.58 21.15, 135 21.63 S 138.76 20.94, 140 20.1 S 143.54 15.26, 145 14.9 S 148.52 17.92, 150 17.65 S 153.51 13.24, 155 13.06 S 158.88 15.43, 160 16.43 S 163.51 21.76, 165 21.94 S 168.67 18.34, 170 17.65 S 173.51 16.55, 175 16.73 S 178.76 19.72, 180 18.88 S 183.5 9.96, 185 10 S 188.9 18.17, 190 19.18 S 193.51 19.32, 195 19.18 S 198.52 18.5, 200 18.27 S 203.51 17.83, 205 17.65"
          fill="none"/>
    <circle r="4" cx="5" cy="40" fill="#3023AE"/>
    <circle r="4" cx="205" cy="17.65" fill="#C86DD7"/>      
</svg>