<svg width="200" height="50" viewBox="0 0 210 50" xmlns="http://www.w3.org/2000/svg">
    <defs>
        <linearGradient x1="0%" y1="0%" x2="100%" y2="0%" id="a">
            <stop stop-color="#3023AE" offset="0%"/>
            <stop stop-color="#C86DD7" offset="100%"/>
        </linearGradient>
    </defs>
    <path stroke="url(#a)"
          stroke-width="3"
          stroke-linejoin="round"
          stroke-linecap="round"
          d="M5 40 C 5.25 38.52, 8.52 10.24, 10 10 S 14.52 36.94, 15 38.36 S 18.51 39.4, 20 39.53 S 23.61 39.79, 25 39.22 S 28.58 35.87, 30 35.38 S 33.5 35.65, 35 35.77 S 38.52 36.4, 40 36.16 S 43.52 34.38, 45 34.13 S 48.5 34.46, 50 34.44 S 53.52 34.2, 55 33.97 S 58.52 33.09, 60 32.87 S 63.52 32.7, 65 32.48 S 68.5 31.4, 70 31.38 S 73.51 32.52, 75 32.32 S 78.52 30.3, 80 30.05 S 83.5 30.58, 85 30.6 S 88.52 30.48, 90 30.21 S 93.5 28.78, 95 28.8 S 98.51 30.53, 100 30.37 S 103.5 27.7, 105 27.7 S 108.5 30.46, 110 30.37 S 113.52 27.31, 115 27.08 S 118.5 28.8, 120 28.8 S 123.58 27.55, 125 27.08 S 128.51 25.7, 130 25.51 S 133.51 25.66, 135 25.82 S 138.5 26.62, 140 26.61 S 143.51 25.54, 145 25.74 S 148.5 27.93, 150 27.94 S 153.51 25.98, 155 25.82 S 158.54 26.49, 160 26.84 S 163.56 27.83, 165 28.25 S 168.53 30.02, 170 29.74 S 173.6 26.91, 175 26.37 S 178.56 25.48, 180 25.9 S 183.62 28.68, 185 29.27 S 188.5 30.14, 190 30.21 S 193.5 29.66, 195 29.74 S 198.5 30.76, 200 30.76 S 203.53 30.04, 205 29.74"
          fill="none"/>
    <circle r="4" cx="5" cy="40" fill="#3023AE"/>
    <circle r="4" cx="205" cy="29.740000000000002" fill="#C86DD7"/>      
</svg>