<svg width="200" height="50" viewBox="0 0 210 50" xmlns="http://www.w3.org/2000/svg">
    <defs>
        <linearGradient x1="0%" y1="0%" x2="100%" y2="0%" id="a">
            <stop stop-color="#3023AE" offset="0%"/>
            <stop stop-color="#C86DD7" offset="100%"/>
        </linearGradient>
    </defs>
    <path stroke="url(#a)"
          stroke-width="3"
          stroke-linejoin="round"
          stroke-linecap="round"
          d="M5 40 C 5.25 38.52, 8.69 10.73, 10 10 S 14.51 33.02, 15 34.44 S 18.63 38.28, 20 38.89 S 23.5 38.89, 25 38.89 S 28.54 39.22, 30 38.89 S 33.94 37.73, 35 36.67 S 38.5 28.89, 40 28.89 S 43.82 35.75, 45 36.67 S 48.54 36.34, 50 36.67 S 53.63 39.5, 55 38.89 S 58.58 32.69, 60 32.22 S 63.75 34.73, 65 35.56 S 68.51 39.06, 70 38.89 S 73.58 34.91, 75 34.44 S 78.58 35.08, 80 35.56 S 83.51 37.61, 85 37.78 S 88.5 36.67, 90 36.67 S 93.51 37.61, 95 37.78 S 98.51 37.61, 100 37.78 S 103.51 38.72, 105 38.89 S 108.5 38.89, 110 38.89 S 114.1 40.09, 115 38.89 S 118.5 25.56, 120 25.56 S 124.05 37.73, 125 38.89 S 128.58 38.25, 130 37.78 S 133.51 35.39, 135 35.56 S 138.54 38.56, 140 38.89 S 143.5 37.78, 145 37.78 S 148.51 38.72, 150 38.89 S 153.69 39.62, 155 38.89 S 158.54 33.66, 160 33.33 S 163.69 35.94, 165 36.67 S 168.75 39.72, 170 38.89 S 174.45 31.4, 175 30 S 178.75 12.5, 180 13.33 S 184.45 35.27, 185 36.67 S 188.58 39.37, 190 38.89 S 193.63 33.94, 195 33.33 S 198.54 34.11, 200 34.44 S 203.54 35.23, 205 35.56"
          fill="none"/>
    <circle r="4" cx="5" cy="40" fill="#3023AE"/>
    <circle r="4" cx="205" cy="35.56" fill="#C86DD7"/>      
</svg>