<svg width="200" height="50" viewBox="0 0 210 50" xmlns="http://www.w3.org/2000/svg">
    <defs>
        <linearGradient x1="0%" y1="0%" x2="100%" y2="0%" id="a">
            <stop stop-color="#3023AE" offset="0%"/>
            <stop stop-color="#C86DD7" offset="100%"/>
        </linearGradient>
    </defs>
    <path stroke="url(#a)"
          stroke-width="3"
          stroke-linejoin="round"
          stroke-linecap="round"
          d="M5 40 C 5.25 38.52, 8.82 10.93, 10 10 S 14.39 30.76, 15 32.13 S 18.5 32.43, 20 32.33 S 23.55 31.06, 25 31.45 S 28.5 35, 30 35.05 S 33.54 32.13, 35 31.79 S 38.55 32.37, 40 32.74 S 43.53 34.09, 45 34.37 S 48.5 34.58, 50 34.64 S 53.5 34.8, 55 34.77 S 58.53 34.71, 60 34.43 S 63.5 32.88, 65 32.87 S 68.54 34.03, 70 34.37 S 73.51 35.02, 75 35.18 S 78.5 35.41, 80 35.45 S 83.78 36.32, 85 35.45 S 88.62 28.91, 90 28.33 S 93.79 30.35, 95 31.24 S 98.63 35.05, 100 35.66 S 103.51 35.52, 105 35.72 S 108.5 36.91, 110 37.01 S 113.5 36.41, 115 36.4 S 118.75 37.79, 120 36.95 S 123.53 29.97, 125 29.68 S 128.74 34.17, 130 34.98 S 133.51 35.85, 135 36.06 S 138.52 36.64, 140 36.4 S 143.52 34.66, 145 34.43 S 148.5 34.86, 150 34.84 S 153.5 34.33, 155 34.3 S 158.53 34.36, 160 34.64 S 163.52 35.98, 165 36.2 S 168.51 36.27, 170 36.13 S 173.5 35.31, 175 35.25 S 178.51 35.84, 180 35.72 S 183.5 34.52, 185 34.43 S 188.5 35.04, 190 35.11 S 193.5 35, 195 34.91 S 198.5 34.59, 200 34.5 S 203.5 34.36, 205 34.3"
          fill="none"/>
    <circle r="4" cx="5" cy="40" fill="#3023AE"/>
    <circle r="4" cx="205" cy="34.3" fill="#C86DD7"/>      
</svg>