<svg width="200" height="50" viewBox="0 0 210 50" xmlns="http://www.w3.org/2000/svg">
    <defs>
        <linearGradient x1="0%" y1="0%" x2="100%" y2="0%" id="a">
            <stop stop-color="#3023AE" offset="0%"/>
            <stop stop-color="#C86DD7" offset="100%"/>
        </linearGradient>
    </defs>
    <path stroke="url(#a)"
          stroke-width="3"
          stroke-linejoin="round"
          stroke-linecap="round"
          d="M5 40 C 6.5 40, 8.5 40, 10 40 S 13.5 40, 15 40 S 18.5 40, 20 40 S 23.5 40, 25 40 S 29.53 41.42, 30 40 S 33.55 10.37, 35 10 S 39.49 36.07, 40 37.48 S 43.5 37.85, 45 37.83 S 48.5 37.43, 50 37.32 S 53.5 36.97, 55 37.08 S 58.51 37.86, 60 38.05 S 63.5 38.33, 65 38.33 S 68.5 38.08, 70 38.08 S 73.5 38.3, 75 38.36 S 78.5 38.45, 80 38.46 S 83.5 38.45, 85 38.41 S 88.5 38.19, 90 38.16 S 93.5 38.21, 95 38.23 S 98.5 38.3, 100 38.28 S 103.5 38.11, 105 38.11 S 108.5 38.28, 110 38.3 S 113.51 38.38, 115 38.25 S 118.5 37.49, 120 37.46 S 123.5 37.97, 125 38.06 S 128.5 38.03, 130 38.05 S 133.5 38.17, 135 38.18 S 138.5 38.11, 140 38.11 S 143.5 38.18, 145 38.17 S 148.5 38.07, 150 38.01 S 153.5 37.75, 155 37.76 S 158.5 38.04, 160 38.1 S 163.5 38.25, 165 38.18 S 168.5 37.67, 170 37.66 S 173.5 38.09, 175 38.12 S 178.5 37.91, 180 37.87 S 183.5 37.88, 185 37.85 S 188.5 37.72, 190 37.7 S 193.5 37.62, 195 37.69 S 198.5 38.12, 200 38.2 S 203.5 38.21, 205 38.21"
          fill="none"/>
    <circle r="4" cx="5" cy="40" fill="#3023AE"/>
    <circle r="4" cx="205" cy="38.21" fill="#C86DD7"/>      
</svg>