<svg width="200" height="50" viewBox="0 0 210 50" xmlns="http://www.w3.org/2000/svg">
    <defs>
        <linearGradient x1="0%" y1="0%" x2="100%" y2="0%" id="a">
            <stop stop-color="#3023AE" offset="0%"/>
            <stop stop-color="#C86DD7" offset="100%"/>
        </linearGradient>
    </defs>
    <path stroke="url(#a)"
          stroke-width="3"
          stroke-linejoin="round"
          stroke-linecap="round"
          d="M5 40 C 6.5 40, 8.5 40, 10 40 S 13.5 40, 15 40 S 18.5 40, 20 40 S 23.5 40, 25 40 S 29.53 41.42, 30 40 S 33.55 10.37, 35 10 S 39.49 36.02, 40 37.43 S 43.5 37.93, 45 37.88 S 48.5 37.19, 50 37.1 S 53.51 37.17, 55 37.31 S 58.51 37.88, 60 38.01 S 63.5 38.18, 65 38.21 S 68.5 38.16, 70 38.19 S 73.5 38.4, 75 38.43 S 78.5 38.4, 80 38.39 S 83.5 38.43, 85 38.38 S 88.5 38.09, 90 38.08 S 93.5 38.31, 95 38.32 S 98.5 38.2, 100 38.18 S 103.5 38.14, 105 38.16 S 108.5 38.4, 110 38.31 S 113.5 37.58, 115 37.54 S 118.5 37.92, 120 38.01 S 123.5 38.12, 125 38.13 S 128.5 38.07, 130 38.06 S 133.5 38.07, 135 38.08 S 138.5 38.15, 140 38.16 S 143.5 38.22, 145 38.14 S 148.5 37.66, 150 37.65 S 153.5 37.99, 155 38.07 S 158.5 38.26, 160 38.21 S 163.5 37.78, 165 37.74 S 168.5 37.85, 170 37.91 S 173.5 38.13, 175 38.12 S 178.5 37.9, 180 37.82 S 183.5 37.6, 185 37.6 S 188.5 37.8, 190 37.84 S 193.5 37.82, 195 37.88 S 198.5 38.14, 200 38.21 S 203.5 38.32, 205 38.36"
          fill="none"/>
    <circle r="4" cx="5" cy="40" fill="#3023AE"/>
    <circle r="4" cx="205" cy="38.36" fill="#C86DD7"/>      
</svg>