<svg width="200" height="50" viewBox="0 0 210 50" xmlns="http://www.w3.org/2000/svg">
    <defs>
        <linearGradient x1="0%" y1="0%" x2="100%" y2="0%" id="a">
            <stop stop-color="#3023AE" offset="0%"/>
            <stop stop-color="#C86DD7" offset="100%"/>
        </linearGradient>
    </defs>
    <path stroke="url(#a)"
          stroke-width="3"
          stroke-linejoin="round"
          stroke-linecap="round"
          d="M5 40 C 6.5 40, 8.5 40, 10 40 S 13.5 40, 15 40 S 18.5 40, 20 40 S 24.53 41.42, 25 40 S 28.56 10.43, 30 10 S 34.49 35.58, 35 36.99 S 38.51 37.71, 40 37.55 S 43.5 35.94, 45 35.95 S 48.53 37.36, 50 37.64 S 53.5 37.81, 55 37.84 S 58.5 37.79, 60 37.84 S 63.5 38.14, 65 38.18 S 68.5 38.14, 70 38.08 S 73.5 37.79, 75 37.77 S 78.5 37.96, 80 37.96 S 83.5 37.8, 85 37.79 S 88.5 37.87, 90 37.89 S 93.5 38.07, 95 37.95 S 98.5 37.12, 100 37.09 S 103.5 37.66, 105 37.76 S 108.5 37.75, 110 37.75 S 113.5 37.72, 115 37.73 S 118.5 37.86, 120 37.8 S 123.5 37.36, 125 37.35 S 128.5 37.66, 130 37.74 S 133.5 37.96, 135 37.88 S 138.5 37.23, 140 37.23 S 143.5 37.81, 145 37.86 S 148.5 37.63, 150 37.54 S 153.5 37.31, 155 37.29 S 158.5 37.3, 160 37.38 S 163.5 37.74, 165 37.84 S 168.5 37.96, 170 38.04 S 173.5 38.33, 175 38.38 S 178.5 38.37, 180 38.37 S 183.5 38.44, 185 38.39 S 188.5 38.09, 190 38.04 S 193.5 38, 195 38.06 S 198.5 38.37, 200 38.44 S 203.5 38.52, 205 38.55"
          fill="none"/>
    <circle r="4" cx="5" cy="40" fill="#3023AE"/>
    <circle r="4" cx="205" cy="38.55" fill="#C86DD7"/>      
</svg>