<svg width="200" height="50" viewBox="0 0 210 50" xmlns="http://www.w3.org/2000/svg">
    <defs>
        <linearGradient x1="0%" y1="0%" x2="100%" y2="0%" id="a">
            <stop stop-color="#3023AE" offset="0%"/>
            <stop stop-color="#C86DD7" offset="100%"/>
        </linearGradient>
    </defs>
    <path stroke="url(#a)"
          stroke-width="3"
          stroke-linejoin="round"
          stroke-linecap="round"
          d="M5 40 C 6.5 40, 8.5 40, 10 40 S 13.5 40, 15 40 S 18.5 40, 20 40 S 24.53 41.42, 25 40 S 28.56 10.43, 30 10 S 34.49 35.61, 35 37.02 S 38.51 37.64, 40 37.49 S 43.5 35.98, 45 36.01 S 48.52 37.4, 50 37.66 S 53.5 37.73, 55 37.77 S 58.5 37.88, 60 37.93 S 63.5 38.1, 65 38.12 S 68.5 38.1, 70 38.04 S 73.5 37.78, 75 37.75 S 78.5 37.83, 80 37.84 S 83.5 37.77, 85 37.79 S 88.5 38.07, 90 37.98 S 93.5 37.21, 95 37.16 S 98.5 37.57, 100 37.65 S 103.5 37.65, 105 37.67 S 108.5 37.77, 110 37.79 S 113.5 37.78, 115 37.78 S 118.5 37.83, 120 37.76 S 123.5 37.29, 125 37.29 S 128.5 37.72, 130 37.75 S 133.5 37.5, 135 37.48 S 138.5 37.59, 140 37.6 S 143.5 37.61, 145 37.58 S 148.5 37.39, 150 37.38 S 153.5 37.5, 155 37.52 S 158.5 37.45, 160 37.52 S 163.5 37.86, 165 37.98 S 168.5 38.26, 170 38.32 S 173.5 38.39, 175 38.4 S 178.5 38.45, 180 38.4 S 183.5 38.12, 185 38.06 S 188.5 37.97, 190 38.02 S 193.5 38.34, 195 38.42 S 198.5 38.59, 200 38.58 S 203.5 38.42, 205 38.35"
          fill="none"/>
    <circle r="4" cx="5" cy="40" fill="#3023AE"/>
    <circle r="4" cx="205" cy="38.35" fill="#C86DD7"/>      
</svg>