<svg width="200" height="50" viewBox="0 0 210 50" xmlns="http://www.w3.org/2000/svg">
    <defs>
        <linearGradient x1="0%" y1="0%" x2="100%" y2="0%" id="a">
            <stop stop-color="#3023AE" offset="0%"/>
            <stop stop-color="#C86DD7" offset="100%"/>
        </linearGradient>
    </defs>
    <path stroke="url(#a)"
          stroke-width="3"
          stroke-linejoin="round"
          stroke-linecap="round"
          d="M5 40 C 6.5 40, 8.5 40, 10 40 S 13.5 40, 15 40 S 18.5 40, 20 40 S 23.5 40, 25 40 S 28.51 40.14, 30 40 S 34.53 40.49, 35 39.07 S 38.51 10.17, 40 10 S 44.5 36.51, 45 37.92 S 48.51 38.24, 50 38.05 S 53.5 36.62, 55 36.63 S 58.52 37.87, 60 38.13 S 63.5 38.39, 65 38.4 S 68.5 38.17, 70 38.17 S 73.5 38.37, 75 38.43 S 78.5 38.55, 80 38.56 S 83.5 38.54, 85 38.51 S 88.5 38.43, 90 38.38 S 93.5 38.2, 95 38.19 S 98.5 38.31, 100 38.33 S 103.5 38.34, 105 38.34 S 108.5 38.32, 110 38.32 S 113.5 38.41, 115 38.32 S 118.5 37.75, 120 37.73 S 123.5 38.09, 125 38.17 S 128.5 38.24, 130 38.24 S 133.5 38.2, 135 38.19 S 138.5 38.17, 140 38.18 S 143.5 38.27, 145 38.28 S 148.5 38.33, 150 38.25 S 153.5 37.78, 155 37.77 S 158.5 38.12, 160 38.2 S 163.5 38.36, 165 38.31 S 168.5 37.93, 170 37.89 S 173.5 37.95, 175 38.01 S 178.5 38.27, 180 38.26 S 183.5 38.04, 185 37.96 S 188.5 37.72, 190 37.73 S 193.5 38.03, 195 38.04 S 198.5 37.78, 200 37.81 S 203.51 38.13, 205 38.26"
          fill="none"/>
    <circle r="4" cx="5" cy="40" fill="#3023AE"/>
    <circle r="4" cx="205" cy="38.26" fill="#C86DD7"/>      
</svg>