<svg width="200" height="50" viewBox="0 0 210 50" xmlns="http://www.w3.org/2000/svg">
    <defs>
        <linearGradient x1="0%" y1="0%" x2="100%" y2="0%" id="a">
            <stop stop-color="#3023AE" offset="0%"/>
            <stop stop-color="#C86DD7" offset="100%"/>
        </linearGradient>
    </defs>
    <path stroke="url(#a)"
          stroke-width="3"
          stroke-linejoin="round"
          stroke-linecap="round"
          d="M5 40 C 6.5 40, 8.5 40, 10 40 S 13.5 40, 15 40 S 18.5 40, 20 40 S 23.5 40, 25 40 S 29.53 41.42, 30 40 S 33.55 10.37, 35 10 S 39.49 36.02, 40 37.43 S 43.5 37.98, 45 37.91 S 48.5 37.02, 50 36.95 S 53.51 37.28, 55 37.44 S 58.5 37.93, 60 38.04 S 63.5 38.13, 65 38.15 S 68.5 38.15, 70 38.2 S 73.5 38.46, 75 38.49 S 78.5 38.39, 80 38.37 S 83.5 38.42, 85 38.37 S 88.5 38.08, 90 38.06 S 93.5 38.24, 95 38.26 S 98.5 38.19, 100 38.17 S 103.5 38.14, 105 38.15 S 108.5 38.35, 110 38.26 S 113.5 37.61, 115 37.58 S 118.5 37.96, 120 38.04 S 123.5 38.11, 125 38.12 S 128.5 38.09, 130 38.08 S 133.5 38.03, 135 38.04 S 138.5 38.16, 140 38.17 S 143.5 38.23, 145 38.14 S 148.5 37.59, 150 37.58 S 153.5 38, 155 38.1 S 158.5 38.3, 160 38.22 S 163.5 37.61, 165 37.59 S 168.5 38, 170 38.07 S 173.5 38.08, 175 38.05 S 178.5 37.96, 180 37.88 S 183.5 37.57, 185 37.54 S 188.5 37.62, 190 37.71 S 193.5 38.04, 195 38.12 S 198.5 38.17, 200 38.22 S 203.5 38.39, 205 38.46"
          fill="none"/>
    <circle r="4" cx="5" cy="40" fill="#3023AE"/>
    <circle r="4" cx="205" cy="38.46" fill="#C86DD7"/>      
</svg>