<svg width="200" height="50" viewBox="0 0 210 50" xmlns="http://www.w3.org/2000/svg">
    <defs>
        <linearGradient x1="0%" y1="0%" x2="100%" y2="0%" id="a">
            <stop stop-color="#3023AE" offset="0%"/>
            <stop stop-color="#C86DD7" offset="100%"/>
        </linearGradient>
    </defs>
    <path stroke="url(#a)"
          stroke-width="3"
          stroke-linejoin="round"
          stroke-linecap="round"
          d="M5 40 C 6.5 40, 8.5 40, 10 40 S 13.5 40, 15 40 S 18.5 40, 20 40 S 23.5 40, 25 40 S 29.53 41.42, 30 40 S 34.33 11.34, 35 10 S 39.47 18.58, 40 19.98 S 44.23 35.35, 45 36.64 S 48.53 36.95, 50 36.67 S 53.5 34.66, 55 34.71 S 58.55 36.6, 60 36.99 S 63.5 37.41, 65 37.42 S 68.5 37.03, 70 37.04 S 73.5 37.38, 75 37.47 S 78.5 37.63, 80 37.65 S 83.5 37.65, 85 37.61 S 88.5 37.42, 90 37.35 S 93.5 37.12, 95 37.11 S 98.5 37.26, 100 37.29 S 103.5 37.28, 105 37.28 S 108.5 37.28, 110 37.28 S 113.51 37.43, 115 37.28 S 118.5 36.29, 120 36.26 S 123.51 36.92, 125 37.05 S 128.5 37.12, 130 37.13 S 133.5 37.1, 135 37.09 S 138.5 37.04, 140 37.06 S 143.5 37.23, 145 37.24 S 148.51 37.29, 150 37.16 S 153.5 36.34, 155 36.34 S 158.51 37.05, 160 37.18 S 163.5 37.3, 165 37.2 S 168.5 36.53, 170 36.48 S 173.5 36.79, 175 36.89 S 178.5 37.19, 180 37.16 S 183.51 36.78, 185 36.66 S 188.5 36.31, 190 36.33 S 193.5 36.78, 195 36.82 S 198.5 36.51, 200 36.57 S 203.51 37.01, 205 37.19"
          fill="none"/>
    <circle r="4" cx="5" cy="40" fill="#3023AE"/>
    <circle r="4" cx="205" cy="37.19" fill="#C86DD7"/>      
</svg>