<svg width="200" height="50" viewBox="0 0 210 50" xmlns="http://www.w3.org/2000/svg">
    <defs>
        <linearGradient x1="0%" y1="0%" x2="100%" y2="0%" id="a">
            <stop stop-color="#3023AE" offset="0%"/>
            <stop stop-color="#C86DD7" offset="100%"/>
        </linearGradient>
    </defs>
    <path stroke="url(#a)"
          stroke-width="3"
          stroke-linejoin="round"
          stroke-linecap="round"
          d="M5 40 C 6.5 40, 8.5 40, 10 40 S 13.5 40, 15 40 S 18.5 40, 20 40 S 23.5 40, 25 40 S 29.53 41.42, 30 40 S 33.55 10.37, 35 10 S 39.49 36.05, 40 37.46 S 43.51 38.06, 45 37.9 S 48.5 36.4, 50 36.41 S 53.52 37.69, 55 37.95 S 58.5 38.12, 60 38.14 S 63.5 38.07, 65 38.09 S 68.5 38.2, 70 38.25 S 73.5 38.41, 75 38.43 S 78.5 38.42, 80 38.38 S 83.5 38.21, 85 38.17 S 88.5 38.12, 90 38.13 S 93.5 38.22, 95 38.21 S 98.5 38.06, 100 38.08 S 103.5 38.41, 105 38.34 S 108.5 37.71, 110 37.64 S 113.5 37.83, 115 37.89 S 118.5 38.04, 120 38.06 S 123.5 38.03, 125 38.03 S 128.5 38.05, 130 38.06 S 133.5 38.12, 135 38.13 S 138.5 38.2, 140 38.12 S 143.5 37.59, 145 37.59 S 148.5 38.03, 150 38.11 S 153.5 38.23, 155 38.15 S 158.5 37.57, 160 37.56 S 163.5 38.04, 165 38.09 S 168.5 37.93, 170 37.89 S 173.5 37.83, 175 37.8 S 178.5 37.72, 180 37.7 S 183.5 37.62, 185 37.69 S 188.5 38.07, 190 38.16 S 193.5 38.25, 195 38.3 S 198.5 38.48, 200 38.52 S 203.5 38.55, 205 38.56"
          fill="none"/>
    <circle r="4" cx="5" cy="40" fill="#3023AE"/>
    <circle r="4" cx="205" cy="38.56" fill="#C86DD7"/>      
</svg>