<svg width="200" height="50" viewBox="0 0 210 50" xmlns="http://www.w3.org/2000/svg">
    <defs>
        <linearGradient x1="0%" y1="0%" x2="100%" y2="0%" id="a">
            <stop stop-color="#3023AE" offset="0%"/>
            <stop stop-color="#C86DD7" offset="100%"/>
        </linearGradient>
    </defs>
    <path stroke="url(#a)"
          stroke-width="3"
          stroke-linejoin="round"
          stroke-linecap="round"
          d="M5 40 C 6.5 40, 8.5 40, 10 40 S 13.5 40, 15 40 S 18.5 40, 20 40 S 23.5 40, 25 40 S 28.5 40, 30 40 S 34.53 41.42, 35 40 S 38.53 10.3, 40 10 S 44.5 36.58, 45 37.99 S 48.51 38.33, 50 38.14 S 53.5 36.68, 55 36.69 S 58.52 37.99, 60 38.24 S 63.5 38.37, 65 38.38 S 68.5 38.27, 70 38.28 S 73.5 38.38, 75 38.43 S 78.5 38.63, 80 38.64 S 83.5 38.54, 85 38.52 S 88.5 38.53, 90 38.49 S 93.5 38.27, 95 38.25 S 98.5 38.35, 100 38.37 S 103.5 38.37, 105 38.37 S 108.5 38.35, 110 38.36 S 113.5 38.51, 115 38.43 S 118.5 37.83, 120 37.8 S 123.5 38.14, 125 38.22 S 128.5 38.31, 130 38.31 S 133.5 38.25, 135 38.24 S 138.5 38.26, 140 38.27 S 143.5 38.32, 145 38.32 S 148.5 38.36, 150 38.29 S 153.5 37.89, 155 37.88 S 158.5 38.18, 160 38.24 S 163.5 38.27, 165 38.27 S 168.5 38.26, 170 38.21 S 173.5 37.9, 175 37.91 S 178.5 38.29, 180 38.31 S 183.5 38.09, 185 38.03 S 188.5 37.89, 190 37.89 S 193.5 38.01, 195 38.01 S 198.5 37.82, 200 37.86 S 203.51 38.17, 205 38.3"
          fill="none"/>
    <circle r="4" cx="5" cy="40" fill="#3023AE"/>
    <circle r="4" cx="205" cy="38.3" fill="#C86DD7"/>      
</svg>