<svg width="200" height="50" viewBox="0 0 210 50" xmlns="http://www.w3.org/2000/svg">
    <defs>
        <linearGradient x1="0%" y1="0%" x2="100%" y2="0%" id="a">
            <stop stop-color="#3023AE" offset="0%"/>
            <stop stop-color="#C86DD7" offset="100%"/>
        </linearGradient>
    </defs>
    <path stroke="url(#a)"
          stroke-width="3"
          stroke-linejoin="round"
          stroke-linecap="round"
          d="M5 40 C 5.25 38.52, 8.55 10.37, 10 10 S 14.52 36.03, 15 37.45 S 18.51 39.13, 20 39.27 S 23.5 38.4, 25 38.42 S 28.52 39.17, 30 39.39 S 33.5 39.88, 35 39.88 S 38.5 39.41, 40 39.39 S 43.5 39.81, 45 39.76 S 48.5 39.03, 50 39.03 S 53.5 39.65, 55 39.76 S 58.5 39.74, 60 39.76 S 63.5 39.94, 65 39.88 S 68.5 39.41, 70 39.39 S 73.5 39.72, 75 39.76 S 78.5 39.64, 80 39.64 S 83.5 39.82, 85 39.76 S 88.5 39.31, 90 39.27 S 93.5 39.53, 95 39.51 S 98.5 39.09, 100 39.15 S 103.5 39.81, 105 39.88 S 108.5 39.66, 110 39.64 S 113.5 39.83, 115 39.76 S 118.5 39.15, 120 39.15 S 123.5 39.72, 125 39.76 S 128.5 39.41, 130 39.39 S 133.5 39.57, 135 39.64 S 138.5 39.86, 140 39.88 S 143.5 39.8, 145 39.76 S 148.5 39.71, 150 39.64 S 153.5 39.33, 155 39.27 S 158.5 39.29, 160 39.27 S 163.5 39.11, 165 39.15 S 168.5 39.46, 170 39.51 S 173.5 39.55, 175 39.51 S 178.5 39.21, 180 39.27 S 183.5 39.84, 185 39.88 S 188.5 39.51, 190 39.51 S 193.5 39.88, 195 39.88 S 198.5 39.55, 200 39.51 S 203.5 39.6, 205 39.64"
          fill="none"/>
    <circle r="4" cx="5" cy="40" fill="#3023AE"/>
    <circle r="4" cx="205" cy="39.64" fill="#C86DD7"/>      
</svg>