<svg width="200" height="50" viewBox="0 0 210 50" xmlns="http://www.w3.org/2000/svg">
    <defs>
        <linearGradient x1="0%" y1="0%" x2="100%" y2="0%" id="a">
            <stop stop-color="#3023AE" offset="0%"/>
            <stop stop-color="#C86DD7" offset="100%"/>
        </linearGradient>
    </defs>
    <path stroke="url(#a)"
          stroke-width="3"
          stroke-linejoin="round"
          stroke-linecap="round"
          d="M5 40 C 5.76 38.71, 8.55 31.93, 10 31.54 S 13.72 36.56, 15 37.34 S 18.52 37.39, 20 37.61 S 23.53 38.56, 25 38.83 S 28.5 39.39, 30 39.47 S 33.5 39.38, 35 39.36 S 38.5 39.33, 40 39.31 S 43.5 39.27, 45 39.2 S 48.5 38.83, 50 38.83 S 53.94 40.26, 55 39.2 S 59.51 30.2, 60 28.78 S 63.89 8.99, 65 10 S 69.5 36.51, 70 37.93 S 73.5 38.49, 75 38.56 S 78.5 38.34, 80 38.4 S 83.5 38.82, 85 38.94 S 88.51 39.36, 90 39.2 S 93.52 38.09, 95 37.87 S 98.5 37.63, 100 37.71 S 103.5 38.3, 105 38.4 S 108.51 38.27, 110 38.4 S 113.5 39.16, 115 39.26 S 118.5 39.08, 120 39.1 S 123.5 39.41, 125 39.41 S 128.5 39.11, 130 39.1 S 133.5 39.37, 135 39.36 S 138.5 39.05, 140 39.04 S 143.5 39.31, 145 39.31 S 148.5 39.03, 150 39.04 S 153.5 39.31, 155 39.36 S 158.5 39.32, 160 39.36 S 163.5 39.59, 165 39.63 S 168.5 39.69, 170 39.63 S 173.5 39.26, 175 39.2 S 178.5 39.22, 180 39.26 S 183.5 39.41, 185 39.47 S 188.5 39.68, 190 39.68 S 193.51 39.6, 195 39.47 S 198.5 38.79, 200 38.78 S 203.51 39.22, 205 39.41"
          fill="none"/>
    <circle r="4" cx="5" cy="40" fill="#3023AE"/>
    <circle r="4" cx="205" cy="39.41" fill="#C86DD7"/>      
</svg>