<svg width="200" height="50" viewBox="0 0 210 50" xmlns="http://www.w3.org/2000/svg">
    <defs>
        <linearGradient x1="0%" y1="0%" x2="100%" y2="0%" id="a">
            <stop stop-color="#3023AE" offset="0%"/>
            <stop stop-color="#C86DD7" offset="100%"/>
        </linearGradient>
    </defs>
    <path stroke="url(#a)"
          stroke-width="3"
          stroke-linejoin="round"
          stroke-linecap="round"
          d="M5 40 C 6.5 39.99, 8.5 39.98, 10 39.98 S 13.5 39.98, 15 39.98 S 18.5 39.98, 20 39.98 S 23.5 39.98, 25 39.98 S 28.5 39.98, 30 39.98 S 33.5 39.98, 35 39.98 S 38.5 39.98, 40 39.98 S 43.5 39.98, 45 39.98 S 48.5 39.98, 50 39.98 S 53.5 39.98, 55 39.98 S 58.5 39.98, 60 39.98 S 63.5 39.98, 65 39.98 S 68.5 40.01, 70 39.98 S 73.82 40.71, 75 39.78 S 78.69 32.86, 80 32.14 S 83.52 34.05, 85 34.26 S 89.43 34.96, 90 33.57 S 93.64 10.62, 95 10 S 99.3 27.66, 100 28.99 S 103.5 28.84, 105 28.87 S 108.57 29.65, 110 29.21 S 114.14 27.04, 115 25.81 S 118.65 15.56, 120 14.9 S 123.83 19.95, 125 20.89 S 128.63 22.33, 130 22.93 S 133.52 24.98, 135 25.25 S 138.52 24.5, 140 24.75 S 143.61 27.5, 145 26.95 S 148.54 21.12, 150 20.79 S 153.65 24.04, 155 24.7 S 158.5 25.67, 160 25.67 S 163.5 24.63, 165 24.7 S 168.64 25.47, 170 26.11 S 173.55 29.04, 175 29.43 S 178.5 28.78, 180 28.82 S 183.5 29.84, 185 29.73 S 188.52 28.29, 190 28.08 S 193.5 28.37, 195 28.3 S 198.53 27.86, 200 27.59 S 203.54 26.78, 205 26.45"
          fill="none"/>
    <circle r="4" cx="5" cy="40" fill="#3023AE"/>
    <circle r="4" cx="205" cy="26.45" fill="#C86DD7"/>      
</svg>