<svg width="200" height="50" viewBox="0 0 210 50" xmlns="http://www.w3.org/2000/svg">
    <defs>
        <linearGradient x1="0%" y1="0%" x2="100%" y2="0%" id="a">
            <stop stop-color="#3023AE" offset="0%"/>
            <stop stop-color="#C86DD7" offset="100%"/>
        </linearGradient>
    </defs>
    <path stroke="url(#a)"
          stroke-width="3"
          stroke-linejoin="round"
          stroke-linecap="round"
          d="M5 40 C 6.06 38.94, 8.66 35.67, 10 35 S 13.5 35, 15 35 S 18.5 35, 20 35 S 23.5 35, 25 35 S 28.5 35, 30 35 S 33.94 36.06, 35 35 S 39.44 26.39, 40 25 S 43.94 8.94, 45 10 S 49.33 33.66, 50 35 S 54.17 31.25, 55 30 S 58.66 20.67, 60 20 S 64.17 23.75, 65 25 S 68.94 36.06, 70 35 S 73.5 15, 75 15 S 78.94 33.94, 80 35 S 83.66 25.67, 85 25 S 88.94 28.94, 90 30 S 93.66 34.33, 95 35 S 98.5 35, 100 35 S 103.66 35.67, 105 35 S 109.17 31.25, 110 30 S 113.5 20, 115 20 S 118.66 29.33, 120 30 S 123.94 26.06, 125 25 S 128.5 20, 130 20 S 133.94 23.94, 135 25 S 138.66 30.67, 140 30 S 143.66 19.33, 145 20 S 149.17 33.75, 150 35 S 153.5 35, 155 35 S 158.5 35, 160 35 S 163.5 35, 165 35 S 168.5 35, 170 35 S 173.5 35, 175 35"
          fill="none"/>
    <circle r="4" cx="5" cy="40" fill="#3023AE"/>
    <circle r="4" cx="175" cy="35" fill="#C86DD7"/>      
</svg>