<svg width="200" height="50" viewBox="0 0 210 50" xmlns="http://www.w3.org/2000/svg">
    <defs>
        <linearGradient x1="0%" y1="0%" x2="100%" y2="0%" id="a">
            <stop stop-color="#3023AE" offset="0%"/>
            <stop stop-color="#C86DD7" offset="100%"/>
        </linearGradient>
    </defs>
    <path stroke="url(#a)"
          stroke-width="3"
          stroke-linejoin="round"
          stroke-linecap="round"
          d="M5 40 C 6.47 39.69, 8.5 38.97, 10 38.95 S 13.5 39.91, 15 39.84 S 18.5 38.58, 20 38.47 S 23.5 39.1, 25 39.12 S 28.5 38.7, 30 38.63 S 33.5 38.58, 35 38.63 S 38.51 39.11, 40 38.95 S 43.56 38.02, 45 37.59 S 48.51 36.15, 50 35.98 S 53.57 36.91, 55 36.46 S 58.52 33.07, 60 32.84 S 63.54 34.57, 65 34.93 S 68.54 35.67, 70 35.34 S 73.5 32.63, 75 32.68 S 78.53 35.36, 80 35.66 S 83.5 34.75, 85 34.69 S 89.39 36.62, 90 35.25 S 93.5 12.45, 95 12.33 S 99.26 33.14, 100 34.45 S 103.73 30.83, 105 30.03 S 108.51 27.94, 110 28.1 S 113.56 30.66, 115 31.07 S 118.51 31.09, 120 30.91 S 123.51 30.05, 125 29.87 S 128.5 29.8, 130 29.71 S 133.5 29.4, 135 29.3 S 138.5 29.05, 140 29.06 S 143.51 29.25, 145 29.38 S 148.5 29.94, 150 29.95 S 153.59 29.96, 155 29.46 S 158.51 26.61, 160 26.41 S 163.59 27.6, 165 28.1 S 168.5 29.9, 170 29.95 S 173.52 28.67, 175 28.42 S 178.53 27.94, 180 28.26 S 183.53 30.31, 185 30.59 S 188.59 30.69, 190 30.19 S 193.62 27.64, 195 27.05 S 199.24 27.21, 200 25.92 S 204.55 11.43, 205 10"
          fill="none"/>
    <circle r="4" cx="5" cy="40" fill="#3023AE"/>
    <circle r="4" cx="205" cy="10" fill="#C86DD7"/>      
</svg>