<svg width="200" height="50" viewBox="0 0 210 50" xmlns="http://www.w3.org/2000/svg">
    <defs>
        <linearGradient x1="0%" y1="0%" x2="100%" y2="0%" id="a">
            <stop stop-color="#3023AE" offset="0%"/>
            <stop stop-color="#C86DD7" offset="100%"/>
        </linearGradient>
    </defs>
    <path stroke="url(#a)"
          stroke-width="3"
          stroke-linejoin="round"
          stroke-linecap="round"
          d="M5 40 C 5.47 38.58, 8.94 26.06, 10 25 S 13.66 30.67, 15 30 S 18.66 19.33, 20 20 S 23.66 34.33, 25 35 S 28.66 25.67, 30 25 S 33.94 28.94, 35 30 S 38.66 35.67, 40 35 S 44.33 26.34, 45 25 S 48.94 16.06, 50 15 S 54.17 13.75, 55 15 S 58.5 30, 60 30 S 63.66 14.33, 65 15 S 69.17 33.75, 70 35 S 74.33 31.34, 75 30 S 78.66 14.33, 80 15 S 84.17 33.75, 85 35 S 88.66 30.67, 90 30 S 93.66 30.67, 95 30 S 98.66 25.67, 100 25 S 103.5 25, 105 25 S 109.17 26.25, 110 25 S 113.66 9.33, 115 10 S 119.44 28.61, 120 30 S 123.66 34.33, 125 35 S 128.94 36.06, 130 35 S 134.17 26.25, 135 25 S 138.5 20, 140 20 S 143.66 24.33, 145 25 S 148.66 24.33, 150 25 S 153.66 30.67, 155 30 S 158.94 21.06, 160 20 S 164.17 18.75, 165 20 S 168.66 34.33, 170 35 S 173.66 25.67, 175 25 S 178.66 29.33, 180 30 S 183.66 29.33, 185 30 S 188.66 34.33, 190 35 S 193.5 35, 195 35"
          fill="none"/>
    <circle r="4" cx="5" cy="40" fill="#3023AE"/>
    <circle r="4" cx="195" cy="35" fill="#C86DD7"/>      
</svg>