<svg width="200" height="50" viewBox="0 0 210 50" xmlns="http://www.w3.org/2000/svg">
    <defs>
        <linearGradient x1="0%" y1="0%" x2="100%" y2="0%" id="a">
            <stop stop-color="#3023AE" offset="0%"/>
            <stop stop-color="#C86DD7" offset="100%"/>
        </linearGradient>
    </defs>
    <path stroke="url(#a)"
          stroke-width="3"
          stroke-linejoin="round"
          stroke-linecap="round"
          d="M5 40 C 5.83 38.75, 8.6 33.03, 10 32.5 S 13.6 36.78, 15 36.25 S 18.6 29.28, 20 28.75 S 23.8 31.6, 25 32.5 S 28.5 36.25, 30 36.25 S 34 33.62, 35 32.5 S 39.39 26.37, 40 25 S 44 8.88, 45 10 S 49.29 34.93, 50 36.25 S 53.8 29.65, 55 28.75 S 58.8 27.85, 60 28.75 S 63.8 35.35, 65 36.25 S 68.6 36.78, 70 36.25 S 73.6 33.03, 75 32.5 S 78.6 31.97, 80 32.5 S 83.6 35.72, 85 36.25 S 88.5 36.25, 90 36.25 S 93.5 36.25, 95 36.25 S 98.5 36.25, 100 36.25 S 103.5 36.25, 105 36.25 S 108.5 36.25, 110 36.25 S 113.5 36.25, 115 36.25 S 118.5 36.25, 120 36.25 S 123.5 36.25, 125 36.25 S 128.5 36.25, 130 36.25 S 133.5 36.25, 135 36.25 S 138.5 36.25, 140 36.25 S 143.5 36.25, 145 36.25 S 148.5 36.25, 150 36.25 S 153.5 36.25, 155 36.25"
          fill="none"/>
    <circle r="4" cx="5" cy="40" fill="#3023AE"/>
    <circle r="4" cx="155" cy="36.25" fill="#C86DD7"/>      
</svg>