<svg width="200" height="50" viewBox="0 0 210 50" xmlns="http://www.w3.org/2000/svg">
    <defs>
        <linearGradient x1="0%" y1="0%" x2="100%" y2="0%" id="a">
            <stop stop-color="#3023AE" offset="0%"/>
            <stop stop-color="#C86DD7" offset="100%"/>
        </linearGradient>
    </defs>
    <path stroke="url(#a)"
          stroke-width="3"
          stroke-linejoin="round"
          stroke-linecap="round"
          d="M5 40 C 6.48 39.77, 8.5 39.35, 10 39.23 S 13.5 39.35, 15 39.23 S 19.51 39.88, 20 38.46 S 24.02 11.13, 25 10 S 29.45 25.52, 30 26.92 S 33.64 34.75, 35 35.38 S 38.6 32.08, 40 31.54 S 43.52 31.77, 45 31.54 S 48.57 29.56, 50 30 S 53.64 33.99, 55 34.62 S 58.52 34.39, 60 34.62 S 63.52 36.38, 65 36.15 S 68.98 34.18, 70 33.08 S 73.54 25.72, 75 25.38 S 78.9 29.75, 80 30.77 S 83.5 34.5, 85 34.62 S 88.5 31.66, 90 31.54 S 93.57 33.41, 95 33.85 S 98.5 34.74, 100 34.62 S 103.52 32.85, 105 33.08 S 108.5 36.27, 110 36.15 S 113.72 33.1, 115 32.31 S 118.5 30.12, 120 30 S 123.64 30.91, 125 31.54 S 128.57 34.18, 130 34.62 S 133.57 34.18, 135 34.62 S 138.52 37.92, 140 37.69 S 143.57 33.52, 145 33.08 S 148.5 34.5, 150 34.62 S 153.52 33.62, 155 33.85 S 158.5 36.03, 160 36.15 S 163.57 35.06, 165 34.62 S 168.54 32.74, 170 33.08 S 173.54 36.58, 175 36.92 S 178.57 35.82, 180 35.38 S 183.6 33.31, 185 33.85 S 188.6 38.69, 190 39.23 S 193.5 37.81, 195 37.69 S 198.5 38.58, 200 38.46 S 203.57 37.36, 205 36.92"
          fill="none"/>
    <circle r="4" cx="5" cy="40" fill="#3023AE"/>
    <circle r="4" cx="205" cy="36.92" fill="#C86DD7"/>      
</svg>