<svg width="200" height="50" viewBox="0 0 210 50" xmlns="http://www.w3.org/2000/svg">
    <defs>
        <linearGradient x1="0%" y1="0%" x2="100%" y2="0%" id="a">
            <stop stop-color="#3023AE" offset="0%"/>
            <stop stop-color="#C86DD7" offset="100%"/>
        </linearGradient>
    </defs>
    <path stroke="url(#a)"
          stroke-width="3"
          stroke-linejoin="round"
          stroke-linecap="round"
          d="M5 40 C 5.25 38.52, 9.12 11.22, 10 10 S 14.4 24.77, 15 26.15 S 18.77 32.23, 20 33.08 S 23.5 33.08, 25 33.08 S 28.54 33.42, 30 33.08 S 34.02 31.9, 35 30.77 S 38.54 21.2, 40 21.54 S 44.21 31.8, 45 33.08 S 48.64 37.06, 50 37.69 S 53.5 37.69, 55 37.69 S 58.5 37.69, 60 37.69 S 63.5 37.69, 65 37.69 S 68.5 37.69, 70 37.69 S 73.5 37.69, 75 37.69 S 78.5 37.69, 80 37.69 S 83.5 37.69, 85 37.69 S 88.54 38.03, 90 37.69 S 93.5 35.38, 95 35.38 S 98.54 37.35, 100 37.69 S 103.5 37.69, 105 37.69 S 108.5 37.69, 110 37.69 S 113.5 37.69, 115 37.69 S 118.5 37.69, 120 37.69 S 123.5 37.69, 125 37.69 S 128.54 38.03, 130 37.69 S 133.5 35.38, 135 35.38 S 138.54 37.35, 140 37.69 S 143.5 37.69, 145 37.69 S 148.5 37.69, 150 37.69 S 153.5 37.69, 155 37.69 S 158.5 37.69, 160 37.69 S 163.5 37.69, 165 37.69 S 168.5 37.69, 170 37.69 S 173.5 37.69, 175 37.69"
          fill="none"/>
    <circle r="4" cx="5" cy="40" fill="#3023AE"/>
    <circle r="4" cx="175" cy="37.69" fill="#C86DD7"/>      
</svg>