<svg width="200" height="50" viewBox="0 0 210 50" xmlns="http://www.w3.org/2000/svg">
    <defs>
        <linearGradient x1="0%" y1="0%" x2="100%" y2="0%" id="a">
            <stop stop-color="#3023AE" offset="0%"/>
            <stop stop-color="#C86DD7" offset="100%"/>
        </linearGradient>
    </defs>
    <path stroke="url(#a)"
          stroke-width="3"
          stroke-linejoin="round"
          stroke-linecap="round"
          d="M5 40 C 6.47 39.69, 8.51 39.09, 10 38.93 S 13.5 38.93, 15 38.93 S 18.5 38.93, 20 38.93 S 23.5 38.93, 25 38.93 S 28.5 38.93, 30 38.93 S 33.5 38.93, 35 38.93 S 38.5 38.93, 40 38.93 S 43.5 38.93, 45 38.93 S 48.5 38.93, 50 38.93 S 53.5 38.93, 55 38.93 S 58.5 38.93, 60 38.93 S 63.5 38.93, 65 38.93 S 68.5 38.93, 70 38.93 S 73.5 38.93, 75 38.93 S 78.5 38.93, 80 38.93 S 83.5 38.93, 85 38.93 S 88.5 38.93, 90 38.93 S 93.5 38.93, 95 38.93 S 98.5 38.93, 100 38.93 S 103.5 38.93, 105 38.93 S 108.5 38.93, 110 38.93 S 114.31 40.26, 115 38.93 S 119.34 20.99, 120 19.64 S 123.74 19.38, 125 18.57 S 128.68 12.5, 130 13.21 S 134.08 22.75, 135 23.93 S 138.74 25.26, 140 26.07 S 143.53 30.67, 145 30.36 S 148.74 24.74, 150 23.93 S 153.57 24.39, 155 23.93 S 158.57 21.17, 160 20.71 S 163.62 20.12, 165 20.71 S 168.8 24.1, 170 25 S 173.68 27.5, 175 28.21 S 178.53 30.67, 180 30.36 S 183.98 27.17, 185 26.07 S 188.51 19.8, 190 19.64 S 193.92 26.04, 195 25 S 198.53 10.31, 200 10 S 204.46 21.46, 205 22.86"
          fill="none"/>
    <circle r="4" cx="5" cy="40" fill="#3023AE"/>
    <circle r="4" cx="205" cy="22.86" fill="#C86DD7"/>      
</svg>