<svg width="200" height="50" viewBox="0 0 210 50" xmlns="http://www.w3.org/2000/svg">
    <defs>
        <linearGradient x1="0%" y1="0%" x2="100%" y2="0%" id="a">
            <stop stop-color="#3023AE" offset="0%"/>
            <stop stop-color="#C86DD7" offset="100%"/>
        </linearGradient>
    </defs>
    <path stroke="url(#a)"
          stroke-width="3"
          stroke-linejoin="round"
          stroke-linecap="round"
          d="M5 40 C 6.5 39.91, 8.5 39.71, 10 39.7 S 13.5 39.9, 15 39.94 S 18.5 39.94, 20 39.94 S 23.5 39.94, 25 39.94 S 28.5 39.94, 30 39.94 S 33.5 39.94, 35 39.94 S 38.5 39.94, 40 39.94 S 43.5 39.94, 45 39.94 S 48.5 39.94, 50 39.94 S 53.5 39.95, 55 39.94 S 58.5 39.88, 60 39.88 S 63.5 39.96, 65 39.94 S 68.5 39.87, 70 39.76 S 73.5 39.3, 75 39.21 S 78.5 39.16, 80 39.15 S 83.5 39.13, 85 39.15 S 88.5 39.2, 90 39.27 S 93.5 39.62, 95 39.63 S 98.5 39.37, 100 39.33 S 103.5 39.3, 105 39.33 S 108.5 39.55, 110 39.51 S 113.5 39.07, 115 39.09 S 119.51 41.05, 120 39.63 S 123.52 10.25, 125 10 S 129.51 36.51, 130 37.93 S 133.5 38.72, 135 38.78 S 138.5 38.29, 140 38.35 S 143.5 39.1, 145 39.15 S 148.5 38.72, 150 38.66 S 153.5 38.82, 155 38.78 S 158.5 38.43, 160 38.41 S 163.5 38.57, 165 38.66 S 168.51 39.16, 170 39.02 S 173.5 37.78, 175 37.74 S 178.51 38.64, 180 38.78 S 183.5 38.7, 185 38.66 S 188.5 38.51, 190 38.54 S 193.5 38.9, 195 38.84 S 198.51 38.29, 200 38.11 S 203.51 37.77, 205 37.62"
          fill="none"/>
    <circle r="4" cx="5" cy="40" fill="#3023AE"/>
    <circle r="4" cx="205" cy="37.62" fill="#C86DD7"/>      
</svg>