<svg width="200" height="50" viewBox="0 0 210 50" xmlns="http://www.w3.org/2000/svg">
    <defs>
        <linearGradient x1="0%" y1="0%" x2="100%" y2="0%" id="a">
            <stop stop-color="#3023AE" offset="0%"/>
            <stop stop-color="#C86DD7" offset="100%"/>
        </linearGradient>
    </defs>
    <path stroke="url(#a)"
          stroke-width="3"
          stroke-linejoin="round"
          stroke-linecap="round"
          d="M5 40 C 5.25 38.52, 8.97 11.09, 10 10 S 14.4 28.03, 15 29.41 S 18.67 32.24, 20 32.94 S 23.59 35.21, 25 34.71 S 28.51 29.54, 30 29.41 S 33.59 33.32, 35 33.82 S 38.59 32.44, 40 32.94 S 43.55 36.97, 45 37.35 S 49.13 36.81, 50 35.59 S 53.55 23.62, 55 23.24 S 58.97 31.85, 60 32.94 S 63.55 33.44, 65 33.82 S 68.52 35.33, 70 35.59 S 73.52 35.85, 75 35.59 S 78.59 34.32, 80 33.82 S 83.51 31.93, 85 32.06 S 88.55 34.33, 90 34.71 S 93.51 34.84, 95 34.71 S 98.55 33.44, 100 33.82 S 103.59 36.85, 105 37.35 S 108.63 37.96, 110 37.35 S 113.88 33.93, 115 32.94 S 118.5 28.53, 120 28.53 S 123.72 32.15, 125 32.94 S 128.52 34.45, 130 34.71 S 133.52 34.97, 135 34.71 S 138.59 33.44, 140 32.94 S 143.51 31.05, 145 31.18 S 148.59 33.32, 150 33.82 S 153.51 34.84, 155 34.71 S 158.55 33.32, 160 32.94 S 163.52 31.8, 165 32.06 S 168.5 34.71, 170 34.71 S 173.51 31.93, 175 32.06 S 178.59 35.09, 180 35.59 S 183.67 36.29, 185 35.59 S 188.52 30.55, 190 30.29 S 193.55 33.44, 195 33.82 S 198.55 33.32, 200 32.94 S 203.59 31.68, 205 31.18"
          fill="none"/>
    <circle r="4" cx="5" cy="40" fill="#3023AE"/>
    <circle r="4" cx="205" cy="31.18" fill="#C86DD7"/>      
</svg>