<svg width="200" height="50" viewBox="0 0 210 50" xmlns="http://www.w3.org/2000/svg">
    <defs>
        <linearGradient x1="0%" y1="0%" x2="100%" y2="0%" id="a">
            <stop stop-color="#3023AE" offset="0%"/>
            <stop stop-color="#C86DD7" offset="100%"/>
        </linearGradient>
    </defs>
    <path stroke="url(#a)"
          stroke-width="3"
          stroke-linejoin="round"
          stroke-linecap="round"
          d="M5 40 C 6.01 38.89, 8.73 35.31, 10 34.51 S 13.73 34.47, 15 33.68 S 18.95 29.34, 20 28.27 S 23.5 23.53, 25 23.51 S 28.5 28.12, 30 28.16 S 33.51 23.97, 35 23.8 S 38.53 27.3, 40 26.99 S 43.63 22.29, 45 21.68 S 48.51 22.73, 50 22.57 S 53.55 20.22, 55 20.61 S 58.65 25.94, 60 25.29 S 63.6 16.35, 65 15.8 S 68.81 20.42, 70 21.34 S 73.59 24.07, 75 23.56 S 78.7 18.5, 80 17.76 S 83.52 17.62, 85 17.87 S 88.5 19.53, 90 19.43 S 93.5 17.26, 95 17.21 S 98.61 18.51, 100 19.07 S 103.6 21.76, 105 21.21 S 108.72 15.93, 110 15.15 S 113.52 14.94, 115 15.17 S 118.51 16.91, 120 16.72 S 123.75 14.73, 125 13.89 S 128.77 9.14, 130 10 S 133.95 19.77, 135 20.84 S 138.58 19.74, 140 20.22 S 143.64 23.55, 145 24.19 S 148.59 25.45, 150 24.95 S 153.55 21.02, 155 20.64 S 158.7 21.56, 160 22.31 S 163.51 26.26, 165 26.44 S 168.54 23.84, 170 23.51 S 173.56 23.76, 175 24.19 S 178.51 26.38, 180 26.54 S 183.51 25.08, 185 25.24 S 188.56 27.16, 190 27.59 S 193.54 27.87, 195 28.21 S 198.53 29.62, 200 29.91 S 203.5 30.08, 205 30.15"
          fill="none"/>
    <circle r="4" cx="5" cy="40" fill="#3023AE"/>
    <circle r="4" cx="205" cy="30.15" fill="#C86DD7"/>      
</svg>