<svg width="200" height="50" viewBox="0 0 210 50" xmlns="http://www.w3.org/2000/svg">
    <defs>
        <linearGradient x1="0%" y1="0%" x2="100%" y2="0%" id="a">
            <stop stop-color="#3023AE" offset="0%"/>
            <stop stop-color="#C86DD7" offset="100%"/>
        </linearGradient>
    </defs>
    <path stroke="url(#a)"
          stroke-width="3"
          stroke-linejoin="round"
          stroke-linecap="round"
          d="M5 40 C 6.45 39.62, 8.51 38.84, 10 38.68 S 13.51 39.07, 15 38.91 S 18.5 37.58, 20 37.59 S 23.51 38.8, 25 39 S 28.52 39.23, 30 38.96 S 33.51 37.35, 35 37.19 S 38.5 37.84, 40 37.91 S 43.53 37.91, 45 37.64 S 49.36 37.41, 50 36.05 S 53.53 16.71, 55 16.4 S 58.5 33.95, 60 33.92 S 63.86 17.2, 65 16.22 S 68.73 26.13, 70 25.34 S 73.57 10.46, 75 10 S 78.77 21.27, 80 22.12 S 83.83 17.84, 85 16.9 S 88.53 13.74, 90 14.04 S 93.56 18.52, 95 18.94 S 98.55 16.55, 100 16.94 S 103.55 21.99, 105 21.62 S 108.62 14.94, 110 14.36 S 113.66 16.72, 115 17.4 S 118.5 19.51, 120 19.44 S 123.66 17.61, 125 16.94 S 128.54 14.09, 130 14.45 S 133.55 19.05, 135 19.44 S 138.62 16.59, 140 17.17 S 143.63 23.01, 145 23.62 S 148.64 22.3, 150 21.66 S 153.58 19.42, 155 18.94 S 158.63 17.64, 160 18.26 S 163.64 22.85, 165 23.48 S 168.5 22.95, 170 22.93 S 173.52 23.57, 175 23.34 S 178.53 21.64, 180 21.35 S 183.5 21.27, 185 21.39 S 188.5 22.13, 190 22.12 S 193.74 22.16, 195 21.35 S 198.8 16.62, 200 15.72 S 203.6 14.35, 205 13.81"
          fill="none"/>
    <circle r="4" cx="5" cy="40" fill="#3023AE"/>
    <circle r="4" cx="205" cy="13.809999999999999" fill="#C86DD7"/>      
</svg>