<svg width="200" height="50" viewBox="0 0 210 50" xmlns="http://www.w3.org/2000/svg">
    <defs>
        <linearGradient x1="0%" y1="0%" x2="100%" y2="0%" id="a">
            <stop stop-color="#3023AE" offset="0%"/>
            <stop stop-color="#C86DD7" offset="100%"/>
        </linearGradient>
    </defs>
    <path stroke="url(#a)"
          stroke-width="3"
          stroke-linejoin="round"
          stroke-linecap="round"
          d="M5 40 C 6.37 39.39, 8.5 37.86, 10 37.77 S 13.5 39.45, 15 39.41 S 18.72 38.26, 20 37.48 S 23.86 34.3, 25 33.32 S 28.65 28.22, 30 28.86 S 33.88 37.07, 35 38.07 S 38.74 38.59, 40 37.77 S 43.51 31.71, 45 31.53 S 48.68 35.87, 50 36.58 S 53.5 36.97, 55 36.88 S 58.5 35.99, 60 35.99 S 63.51 36.7, 65 36.88 S 68.51 37.02, 70 37.18 S 73.81 38.84, 75 37.92 S 79.49 30.87, 80 29.46 S 83.54 9.67, 85 10 S 89.33 30.34, 90 31.68 S 93.5 30.16, 95 30.2 S 98.51 32.14, 100 31.98 S 103.83 30.1, 105 29.16 S 108.51 23.83, 110 23.96 S 113.56 30.48, 115 30.05 S 118.85 21.95, 120 20.99 S 123.5 21.69, 125 21.73 S 128.65 20.63, 130 21.29 S 133.68 25.92, 135 26.63 S 138.72 27.41, 140 26.63 S 143.85 21.51, 145 20.54 S 148.74 17.36, 150 18.17 S 153.64 26.3, 155 26.93 S 158.5 22.88, 160 22.77 S 163.59 25.67, 165 26.19 S 168.52 26.27, 170 26.49 S 173.5 27.74, 175 27.67 S 178.92 27.08, 180 26.04 S 183.53 18.33, 185 18.02 S 188.93 22.91, 190 23.96 S 193.66 27.14, 195 27.82 S 198.52 29.23, 200 29.01 S 203.68 27.05, 205 26.34"
          fill="none"/>
    <circle r="4" cx="5" cy="40" fill="#3023AE"/>
    <circle r="4" cx="205" cy="26.34" fill="#C86DD7"/>      
</svg>