<svg width="200" height="50" viewBox="0 0 210 50" xmlns="http://www.w3.org/2000/svg">
    <defs>
        <linearGradient x1="0%" y1="0%" x2="100%" y2="0%" id="a">
            <stop stop-color="#3023AE" offset="0%"/>
            <stop stop-color="#C86DD7" offset="100%"/>
        </linearGradient>
    </defs>
    <path stroke="url(#a)"
          stroke-width="3"
          stroke-linejoin="round"
          stroke-linecap="round"
          d="M5 40 C 6.49 39.87, 8.5 39.58, 10 39.56 S 13.5 39.99, 15 39.89 S 18.5 38.95, 20 38.9 S 23.5 39.46, 25 39.56 S 28.5 39.58, 30 39.56 S 33.51 39.65, 35 39.45 S 38.53 38.52, 40 38.24 S 43.5 37.49, 45 37.57 S 48.5 38.81, 50 38.79 S 53.5 37.51, 55 37.46 S 58.52 38.67, 60 38.46 S 63.5 36.03, 65 36.03 S 68.53 38.17, 70 38.46 S 73.5 38.04, 75 38.01 S 78.51 38.11, 80 38.24 S 83.5 38.97, 85 38.9 S 88.5 37.87, 90 37.79 S 93.5 38.45, 95 38.35 S 98.5 37.2, 100 37.13 S 103.5 37.97, 105 37.9 S 108.55 37.06, 110 36.69 S 113.51 35.5, 115 35.37 S 118.55 35.43, 120 35.81 S 124.46 39.41, 125 38.01 S 128.66 10.67, 130 10 S 134.42 31.67, 135 33.05 S 138.56 34.23, 140 33.82 S 143.66 30.85, 145 30.18 S 148.51 28.73, 150 28.86 S 153.61 30.52, 155 31.07 S 158.5 32.76, 160 32.83 S 163.5 31.59, 165 31.51 S 168.51 32.46, 170 32.28 S 173.51 30.13, 175 30.29 S 178.59 32.87, 180 33.38 S 183.52 34.19, 185 33.93 S 188.5 31.74, 190 31.62 S 193.55 33.54, 195 33.16 S 198.54 29.29, 200 28.97 S 203.61 30.41, 205 30.96"
          fill="none"/>
    <circle r="4" cx="5" cy="40" fill="#3023AE"/>
    <circle r="4" cx="205" cy="30.96" fill="#C86DD7"/>      
</svg>