<svg width="200" height="50" viewBox="0 0 210 50" xmlns="http://www.w3.org/2000/svg">
    <defs>
        <linearGradient x1="0%" y1="0%" x2="100%" y2="0%" id="a">
            <stop stop-color="#3023AE" offset="0%"/>
            <stop stop-color="#C86DD7" offset="100%"/>
        </linearGradient>
    </defs>
    <path stroke="url(#a)"
          stroke-width="3"
          stroke-linejoin="round"
          stroke-linecap="round"
          d="M5 40 C 6.49 39.87, 8.5 39.59, 10 39.56 S 13.5 39.75, 15 39.78 S 18.5 39.78, 20 39.78 S 23.5 39.78, 25 39.78 S 28.5 39.78, 30 39.78 S 33.5 39.78, 35 39.78 S 38.5 39.78, 40 39.78 S 43.5 39.78, 45 39.78 S 48.5 39.78, 50 39.78 S 53.5 39.78, 55 39.78 S 58.5 39.78, 60 39.78 S 63.5 39.78, 65 39.78 S 68.5 39.78, 70 39.78 S 73.5 39.78, 75 39.78 S 78.5 39.78, 80 39.78 S 83.51 39.91, 85 39.78 S 88.5 39.01, 90 38.91 S 93.5 39.06, 95 39.12 S 98.5 39.44, 100 39.34 S 103.5 38.5, 105 38.47 S 108.5 39.12, 110 39.12 S 113.5 38.47, 115 38.47 S 118.51 38.99, 120 39.12 S 123.52 39.6, 125 39.34 S 128.51 37.53, 130 37.37 S 133.52 38.02, 135 38.25 S 138.5 38.94, 140 38.91 S 143.5 38, 145 38.03 S 148.5 39.05, 150 39.12 S 153.5 38.4, 155 38.47 S 158.51 39.43, 160 39.56 S 164.45 40.74, 165 39.34 S 169.52 15.36, 170 13.94 S 174.4 8.62, 175 10 S 179.5 35.52, 180 36.93 S 184.38 39.62, 185 38.25 S 188.52 15.08, 190 14.82 S 194.32 35.17, 195 36.5 S 198.51 34.44, 200 34.31 S 203.55 35.24, 205 35.62"
          fill="none"/>
    <circle r="4" cx="5" cy="40" fill="#3023AE"/>
    <circle r="4" cx="205" cy="35.62" fill="#C86DD7"/>      
</svg>