<svg width="200" height="50" viewBox="0 0 210 50" xmlns="http://www.w3.org/2000/svg">
    <defs>
        <linearGradient x1="0%" y1="0%" x2="100%" y2="0%" id="a">
            <stop stop-color="#3023AE" offset="0%"/>
            <stop stop-color="#C86DD7" offset="100%"/>
        </linearGradient>
    </defs>
    <path stroke="url(#a)"
          stroke-width="3"
          stroke-linejoin="round"
          stroke-linecap="round"
          d="M5 40 C 5.47 38.58, 8.66 25.67, 10 25 S 13.85 34.04, 15 35 S 18.58 33.8, 20 33.33 S 23.5 31.67, 25 31.67 S 28.5 33.33, 30 33.33 S 33.52 31.42, 35 31.67 S 38.52 34.75, 40 35 S 43.5 33.33, 45 33.33 S 49.41 36.38, 50 35 S 53.58 10.47, 55 10 S 59.33 30.33, 60 31.67 S 63.75 30.83, 65 30 S 68.58 25.47, 70 25 S 73.58 26.2, 75 26.67 S 78.85 27.37, 80 28.33 S 83.75 34.17, 85 35 S 88.5 35, 90 35 S 93.52 34.75, 95 35 S 98.58 36.2, 100 36.67 S 103.52 38.08, 105 38.33 S 108.5 38.33, 110 38.33 S 113.58 38.8, 115 38.33 S 118.52 35.25, 120 35 S 123.58 36.2, 125 36.67 S 128.52 38.08, 130 38.33 S 133.85 39.29, 135 38.33 S 138.66 30.67, 140 30 S 143.85 32.37, 145 33.33 S 148.66 37.66, 150 38.33 S 153.5 38.33, 155 38.33 S 158.5 38.33, 160 38.33 S 163.5 38.33, 165 38.33 S 168.5 38.33, 170 38.33 S 173.5 38.33, 175 38.33"
          fill="none"/>
    <circle r="4" cx="5" cy="40" fill="#3023AE"/>
    <circle r="4" cx="175" cy="38.33" fill="#C86DD7"/>      
</svg>