<svg width="200" height="50" viewBox="0 0 210 50" xmlns="http://www.w3.org/2000/svg">
    <defs>
        <linearGradient x1="0%" y1="0%" x2="100%" y2="0%" id="a">
            <stop stop-color="#3023AE" offset="0%"/>
            <stop stop-color="#C86DD7" offset="100%"/>
        </linearGradient>
    </defs>
    <path stroke="url(#a)"
          stroke-width="3"
          stroke-linejoin="round"
          stroke-linecap="round"
          d="M5 40 C 5.85 38.76, 8.57 33.16, 10 32.7 S 13.5 36.64, 15 36.76 S 19.05 34.67, 20 33.51 S 23.54 24.94, 25 24.59 S 28.54 30.72, 30 31.08 S 34.36 28.39, 35 27.03 S 38.97 8.91, 40 10 S 44.49 36.16, 45 37.57 S 48.5 37.57, 50 37.57 S 53.52 37.81, 55 37.57 S 58.52 36.19, 60 35.95 S 63.52 35.71, 65 35.95 S 68.52 37.33, 70 37.57 S 73.57 38.03, 75 37.57 S 78.5 34.44, 80 34.32 S 83.51 36.64, 85 36.76 S 88.5 35.26, 90 35.14 S 93.52 35.71, 95 35.95 S 98.54 36.41, 100 36.76 S 103.5 38.38, 105 38.38 S 108.52 37, 110 36.76 S 113.52 36.52, 115 36.76 S 118.54 38.03, 120 38.38 S 123.5 39.31, 125 39.19 S 128.57 38.03, 130 37.57 S 133.52 35.71, 135 35.95 S 138.57 38.73, 140 39.19 S 143.5 39.19, 145 39.19 S 148.52 39.43, 150 39.19 S 153.5 37.57, 155 37.57 S 158.5 39.31, 160 39.19 S 163.5 36.88, 165 36.76 S 168.52 38.14, 170 38.38 S 173.5 38.5, 175 38.38 S 178.5 37.45, 180 37.57 S 183.52 38.95, 185 39.19 S 188.5 39.19, 190 39.19 S 193.5 39.19, 195 39.19"
          fill="none"/>
    <circle r="4" cx="5" cy="40" fill="#3023AE"/>
    <circle r="4" cx="195" cy="39.19" fill="#C86DD7"/>      
</svg>