<svg width="200" height="50" viewBox="0 0 210 50" xmlns="http://www.w3.org/2000/svg">
    <defs>
        <linearGradient x1="0%" y1="0%" x2="100%" y2="0%" id="a">
            <stop stop-color="#3023AE" offset="0%"/>
            <stop stop-color="#C86DD7" offset="100%"/>
        </linearGradient>
    </defs>
    <path stroke="url(#a)"
          stroke-width="3"
          stroke-linejoin="round"
          stroke-linecap="round"
          d="M5 40 C 5.25 38.52, 8.71 10.77, 10 10 S 14.47 32.6, 15 34 S 18.5 36.31, 20 36.31 S 23.57 34.46, 25 34 S 28.53 33.39, 30 33.08 S 33.51 31.75, 35 31.92 S 38.53 33.96, 40 34.23 S 43.5 33.77, 45 33.77 S 48.56 33.8, 50 34.23 S 53.56 37.2, 55 36.77 S 58.56 31.66, 60 31.23 S 63.53 34.08, 65 33.77 S 68.66 29.83, 70 29.15 S 73.54 29.03, 75 28.69 S 78.51 26.71, 80 26.85 S 83.5 29.69, 85 29.62 S 88.52 26.62, 90 26.38 S 93.5 27.93, 95 28 S 98.66 26.17, 100 26.85 S 103.51 32.94, 105 33.08 S 108.79 28.66, 110 27.77 S 113.52 25.93, 115 25.69 S 118.57 25.69, 120 26.15 S 123.51 28.71, 125 28.92 S 128.56 27.11, 130 27.54 S 133.53 32.19, 135 31.92 S 138.5 25.69, 140 25.69 S 143.81 31.01, 145 31.92 S 148.55 32.91, 150 33.31 S 153.53 34.39, 155 34.69 S 158.52 35.65, 160 35.38 S 163.5 32.81, 165 32.85 S 168.5 35.55, 170 35.62 S 173.5 33.41, 175 33.31 S 178.5 34.85, 180 34.92 S 183.5 33.8, 185 33.77 S 188.51 34.48, 190 34.69 S 193.53 34.88, 195 35.15 S 198.5 36.44, 200 36.54 S 203.51 36.06, 205 35.85"
          fill="none"/>
    <circle r="4" cx="5" cy="40" fill="#3023AE"/>
    <circle r="4" cx="205" cy="35.85" fill="#C86DD7"/>      
</svg>