<svg width="200" height="50" viewBox="0 0 210 50" xmlns="http://www.w3.org/2000/svg">
    <defs>
        <linearGradient x1="0%" y1="0%" x2="100%" y2="0%" id="a">
            <stop stop-color="#3023AE" offset="0%"/>
            <stop stop-color="#C86DD7" offset="100%"/>
        </linearGradient>
    </defs>
    <path stroke="url(#a)"
          stroke-width="3"
          stroke-linejoin="round"
          stroke-linecap="round"
          d="M5 40 C 6.39 39.44, 8.5 38.1, 10 38 S 13.51 39.53, 15 39.33 S 18.51 36.87, 20 36.67 S 23.5 37.9, 25 38 S 28.53 37.62, 30 37.33 S 33.5 36.1, 35 36 S 38.5 36.77, 40 36.67 S 43.55 34.94, 45 35.33 S 48.58 38.85, 50 39.33 S 53.5 38.77, 55 38.67 S 58.53 38.96, 60 38.67 S 63.61 37.23, 65 36.67 S 68.5 34.67, 70 34.67 S 73.75 37.5, 75 36.67 S 78.61 28.56, 80 28 S 83.5 32.57, 85 32.67 S 88.79 29.56, 90 28.67 S 93.61 25.89, 95 25.33 S 98.68 25.38, 100 24.67 S 103.68 20.71, 105 20 S 108.5 19.33, 110 19.33 S 113.68 20.71, 115 20 S 118.55 14.39, 120 14 S 123.87 16.35, 125 17.33 S 128.58 22.19, 130 22.67 S 134.07 21.85, 135 20.67 S 138.61 10.56, 140 10 S 144.21 15.4, 145 16.67 S 148.87 25.02, 150 26 S 153.55 24.94, 155 25.33 S 158.55 28.28, 160 28.67 S 163.51 27.8, 165 28 S 168.58 29.53, 170 30 S 173.5 31.23, 175 31.33 S 178.51 30.87, 180 30.67 S 183.5 30.1, 185 30 S 188.55 29.61, 190 30 S 193.58 32.2, 195 32.67 S 198.53 33.62, 200 33.33 S 203.68 31.37, 205 30.67"
          fill="none"/>
    <circle r="4" cx="5" cy="40" fill="#3023AE"/>
    <circle r="4" cx="205" cy="30.67" fill="#C86DD7"/>      
</svg>