<svg width="200" height="50" viewBox="0 0 210 50" xmlns="http://www.w3.org/2000/svg">
    <defs>
        <linearGradient x1="0%" y1="0%" x2="100%" y2="0%" id="a">
            <stop stop-color="#3023AE" offset="0%"/>
            <stop stop-color="#C86DD7" offset="100%"/>
        </linearGradient>
    </defs>
    <path stroke="url(#a)"
          stroke-width="3"
          stroke-linejoin="round"
          stroke-linecap="round"
          d="M5 40 C 5.25 38.52, 8.55 10.37, 10 10 S 14.51 36.01, 15 37.43 S 18.52 38.89, 20 39.14 S 23.5 39.14, 25 39.14 S 28.5 39.14, 30 39.14 S 33.5 39.14, 35 39.14 S 38.5 39.14, 40 39.14 S 43.5 39.14, 45 39.14 S 48.5 39.14, 50 39.14 S 53.5 39.14, 55 39.14 S 58.5 39.14, 60 39.14 S 63.5 39.14, 65 39.14 S 68.5 39.14, 70 39.14 S 73.5 39.14, 75 39.14 S 78.5 39.14, 80 39.14 S 83.5 39.14, 85 39.14 S 88.5 39.14, 90 39.14 S 93.5 39.14, 95 39.14 S 98.5 39.14, 100 39.14 S 103.5 39.14, 105 39.14 S 108.5 39.14, 110 39.14 S 113.5 39.14, 115 39.14 S 118.5 39.14, 120 39.14 S 123.5 39.14, 125 39.14 S 128.5 39.14, 130 39.14 S 133.5 39.14, 135 39.14 S 138.5 39.14, 140 39.14 S 143.5 39.14, 145 39.14 S 148.5 39.14, 150 39.14 S 153.5 39.14, 155 39.14 S 158.51 39.27, 160 39.14 S 163.62 38.88, 165 38.29 S 169.15 36.1, 170 34.86 S 173.62 23.12, 175 23.71 S 179.08 37.96, 180 39.14 S 183.58 37.06, 185 36.57 S 188.55 35.34, 190 35.71 S 193.55 38.77, 195 39.14 S 198.51 38.42, 200 38.29 S 203.5 38.29, 205 38.29"
          fill="none"/>
    <circle r="4" cx="5" cy="40" fill="#3023AE"/>
    <circle r="4" cx="205" cy="38.29" fill="#C86DD7"/>      
</svg>