<svg width="200" height="50" viewBox="0 0 210 50" xmlns="http://www.w3.org/2000/svg">
    <defs>
        <linearGradient x1="0%" y1="0%" x2="100%" y2="0%" id="a">
            <stop stop-color="#3023AE" offset="0%"/>
            <stop stop-color="#C86DD7" offset="100%"/>
        </linearGradient>
    </defs>
    <path stroke="url(#a)"
          stroke-width="3"
          stroke-linejoin="round"
          stroke-linecap="round"
          d="M5 40 C 5.25 38.52, 8.52 10.24, 10 10 S 14.51 36.96, 15 38.38 S 18.5 39.07, 20 39.19 S 23.5 39.19, 25 39.19 S 28.5 39.19, 30 39.19 S 33.5 39.31, 35 39.19 S 38.54 38.73, 40 38.38 S 43.5 36.64, 45 36.76 S 48.52 38.95, 50 39.19 S 53.5 38.38, 55 38.38 S 58.5 39.19, 60 39.19 S 63.5 38.38, 65 38.38 S 68.5 39.31, 70 39.19 S 73.5 37.69, 75 37.57 S 78.52 38.14, 80 38.38 S 83.5 39.07, 85 39.19 S 88.79 40.07, 90 39.19 S 94.15 33.13, 95 31.89 S 98.54 24.24, 100 24.59 S 104.08 33.13, 105 34.32 S 108.52 37.33, 110 37.57 S 113.52 35.71, 115 35.95 S 118.57 38.73, 120 39.19 S 123.5 39.19, 125 39.19 S 128.5 39.19, 130 39.19 S 133.5 39.19, 135 39.19 S 138.61 39.75, 140 39.19 S 143.57 35.6, 145 35.14 S 148.52 35.71, 150 35.95 S 153.5 36.76, 155 36.76 S 158.57 36.41, 160 35.95 S 163.52 33.75, 165 33.51 S 168.54 34.67, 170 34.32 S 173.61 31.64, 175 31.08 S 178.74 29.45, 180 30.27 S 183.74 36.75, 185 37.57 S 188.61 37.32, 190 36.76 S 193.79 34.39, 195 33.51 S 198.52 29.22, 200 29.46 S 204.01 34.01, 205 35.14"
          fill="none"/>
    <circle r="4" cx="5" cy="40" fill="#3023AE"/>
    <circle r="4" cx="205" cy="35.14" fill="#C86DD7"/>      
</svg>