<svg width="200" height="50" viewBox="0 0 210 50" xmlns="http://www.w3.org/2000/svg">
    <defs>
        <linearGradient x1="0%" y1="0%" x2="100%" y2="0%" id="a">
            <stop stop-color="#3023AE" offset="0%"/>
            <stop stop-color="#C86DD7" offset="100%"/>
        </linearGradient>
    </defs>
    <path stroke="url(#a)"
          stroke-width="3"
          stroke-linejoin="round"
          stroke-linecap="round"
          d="M5 40 C 6.27 39.2, 8.52 37.07, 10 36.84 S 13.52 38.19, 15 38.42 S 18.5 38.42, 20 38.42 S 23.5 38.42, 25 38.42 S 28.5 38.42, 30 38.42 S 33.5 38.42, 35 38.42 S 38.5 38.42, 40 38.42 S 43.5 38.42, 45 38.42 S 48.5 38.42, 50 38.42 S 53.5 38.42, 55 38.42 S 58.5 38.42, 60 38.42 S 63.5 38.42, 65 38.42 S 68.5 38.42, 70 38.42 S 73.52 38.65, 75 38.42 S 78.64 37.48, 80 36.84 S 83.64 34.32, 85 33.68 S 88.57 31.66, 90 32.11 S 93.64 37.48, 95 36.84 S 98.57 27.82, 100 27.37 S 103.64 33.04, 105 33.68 S 108.57 31.66, 110 32.11 S 113.64 36.2, 115 36.84 S 118.52 37.07, 120 36.84 S 123.57 35.71, 125 35.26 S 128.82 34.61, 130 33.68 S 133.52 27.6, 135 27.37 S 138.91 31.08, 140 32.11 S 143.57 37.29, 145 36.84 S 148.73 29.75, 150 28.95 S 153.52 30.76, 155 30.53 S 158.73 26.57, 160 27.37 S 163.52 37.07, 165 36.84 S 169.38 27.16, 170 25.79 S 174.2 16.01, 175 14.74 S 178.73 9.2, 180 10 S 183.99 19.94, 185 21.05 S 188.82 21.98, 190 21.05 S 193.52 12.93, 195 13.16 S 198.5 22.63, 200 22.63 S 204.3 14.49, 205 13.16"
          fill="none"/>
    <circle r="4" cx="5" cy="40" fill="#3023AE"/>
    <circle r="4" cx="205" cy="13.16" fill="#C86DD7"/>      
</svg>