<svg width="200" height="50" viewBox="0 0 210 50" xmlns="http://www.w3.org/2000/svg">
    <defs>
        <linearGradient x1="0%" y1="0%" x2="100%" y2="0%" id="a">
            <stop stop-color="#3023AE" offset="0%"/>
            <stop stop-color="#C86DD7" offset="100%"/>
        </linearGradient>
    </defs>
    <path stroke="url(#a)"
          stroke-width="3"
          stroke-linejoin="round"
          stroke-linecap="round"
          d="M5 40 C 6.5 39.9, 8.51 39.81, 10 39.66 S 13.52 39.23, 15 38.97 S 18.55 38.33, 20 37.93 S 23.69 36.93, 25 36.21 S 28.61 32.98, 30 32.41 S 34.39 33.44, 35 32.07 S 38.5 10.05, 40 10 S 44.39 30.35, 45 31.72 S 48.57 31.96, 50 32.41 S 53.53 34.53, 55 34.83 S 58.65 35.13, 60 34.48 S 63.63 30.61, 65 30 S 68.5 30, 70 30 S 73.53 29.7, 75 30 S 78.58 31.58, 80 32.07 S 83.52 33.2, 85 33.45 S 88.75 34.61, 90 33.79 S 93.52 27.15, 95 26.9 S 98.55 31.67, 100 32.07 S 103.63 30.27, 105 29.66 S 108.5 27.49, 110 27.59 S 113.5 30.24, 115 30.34 S 118.5 28.33, 120 28.28 S 123.65 29.35, 125 30 S 128.5 33, 130 33.1 S 133.51 30.9, 135 30.69 S 138.58 32.21, 140 31.72 S 143.57 27.68, 145 27.24 S 148.54 28.97, 150 28.62 S 153.5 24.88, 155 24.83 S 158.65 27.63, 160 28.28 S 163.54 29.31, 165 29.66 S 168.5 30.69, 170 30.69 S 173.67 30.35, 175 29.66 S 178.57 25.97, 180 25.52 S 183.53 26.25, 185 26.55 S 188.61 28.16, 190 27.59 S 193.5 22.46, 195 22.41 S 198.81 26.33, 200 27.24 S 203.69 29.28, 205 30"
          fill="none"/>
    <circle r="4" cx="5" cy="40" fill="#3023AE"/>
    <circle r="4" cx="205" cy="30" fill="#C86DD7"/>      
</svg>