<svg width="200" height="50" viewBox="0 0 210 50" xmlns="http://www.w3.org/2000/svg">
    <defs>
        <linearGradient x1="0%" y1="0%" x2="100%" y2="0%" id="a">
            <stop stop-color="#3023AE" offset="0%"/>
            <stop stop-color="#C86DD7" offset="100%"/>
        </linearGradient>
    </defs>
    <path stroke="url(#a)"
          stroke-width="3"
          stroke-linejoin="round"
          stroke-linecap="round"
          d="M5 40 C 5.98 38.87, 8.58 34.72, 10 34.23 S 13.58 36.05, 15 36.54 S 18.54 37.35, 20 37.69 S 24.17 40.1, 25 38.85 S 29.25 23.99, 30 22.69 S 34.07 20.36, 35 21.54 S 39.07 34.2, 40 35.38 S 43.54 34.57, 45 34.23 S 48.64 32.45, 50 33.08 S 53.64 39.48, 55 38.85 S 58.77 29.31, 60 28.46 S 63.9 30.9, 65 31.92 S 68.7 36.94, 70 37.69 S 73.58 38.18, 75 37.69 S 78.51 34.06, 80 34.23 S 83.58 38.36, 85 38.85 S 88.58 38.18, 90 37.69 S 93.64 36.01, 95 35.38 S 98.51 33.25, 100 33.08 S 103.7 33.48, 105 34.23 S 108.64 38.22, 110 38.85 S 113.51 39.02, 115 38.85 S 118.54 38.03, 120 37.69 S 123.5 36.54, 125 36.54 S 128.51 37.52, 130 37.69 S 133.51 37.52, 135 37.69 S 138.54 39.19, 140 38.85 S 143.51 35.55, 145 35.38 S 148.5 37.69, 150 37.69 S 153.5 35.38, 155 35.38 S 158.5 37.69, 160 37.69 S 164.49 36.79, 165 35.38 S 168.58 10.49, 170 10 S 174.4 30.54, 175 31.92 S 178.64 32.45, 180 33.08 S 183.51 36.37, 185 36.54 S 188.64 34.86, 190 34.23 S 193.51 31.75, 195 31.92 S 198.54 35.04, 200 35.38 S 203.54 34.57, 205 34.23"
          fill="none"/>
    <circle r="4" cx="5" cy="40" fill="#3023AE"/>
    <circle r="4" cx="205" cy="34.230000000000004" fill="#C86DD7"/>      
</svg>