<svg width="200" height="50" viewBox="0 0 210 50" xmlns="http://www.w3.org/2000/svg">
    <defs>
        <linearGradient x1="0%" y1="0%" x2="100%" y2="0%" id="a">
            <stop stop-color="#3023AE" offset="0%"/>
            <stop stop-color="#C86DD7" offset="100%"/>
        </linearGradient>
    </defs>
    <path stroke="url(#a)"
          stroke-width="3"
          stroke-linejoin="round"
          stroke-linecap="round"
          d="M5 40 C 6.5 39.99, 8.5 39.98, 10 39.98 S 13.5 40, 15 40 S 18.5 40.1, 20 39.99 S 23.7 40, 25 39.25 S 28.5 34.08, 30 34.19 S 33.64 39.36, 35 40 S 38.6 39.43, 40 38.88 S 44.51 37.48, 45 36.06 S 48.5 10.08, 50 10 S 54.45 34.12, 55 35.51 S 58.51 35.12, 60 35.24 S 63.5 36.27, 65 36.33 S 68.5 35.75, 70 35.63 S 73.5 35.45, 75 35.56 S 78.52 36.16, 80 36.39 S 83.51 36.94, 85 37.09 S 88.5 37.4, 90 37.41 S 93.5 37.21, 95 37.18 S 98.5 37.16, 100 37.21 S 103.5 37.49, 105 37.52 S 108.5 37.39, 110 37.41 S 113.5 37.57, 115 37.65 S 118.5 37.91, 120 37.95 S 123.5 37.98, 125 37.94 S 128.53 37.98, 130 37.66 S 133.5 35.85, 135 35.76 S 138.52 36.79, 140 37.04 S 143.5 37.34, 145 37.44 S 148.5 37.67, 150 37.74 S 153.5 37.9, 155 37.92 S 158.5 37.86, 160 37.88 S 163.5 38.03, 165 38.05 S 168.5 37.99, 170 37.99 S 173.5 38.03, 175 38.02 S 178.5 37.97, 180 37.92 S 183.5 37.67, 185 37.67 S 188.5 37.84, 190 37.89 S 193.5 37.91, 195 38.01 S 198.5 38.48, 200 38.54 S 203.5 38.46, 205 38.43"
          fill="none"/>
    <circle r="4" cx="5" cy="40" fill="#3023AE"/>
    <circle r="4" cx="205" cy="38.43" fill="#C86DD7"/>      
</svg>