<svg width="200" height="50" viewBox="0 0 210 50" xmlns="http://www.w3.org/2000/svg">
    <defs>
        <linearGradient x1="0%" y1="0%" x2="100%" y2="0%" id="a">
            <stop stop-color="#3023AE" offset="0%"/>
            <stop stop-color="#C86DD7" offset="100%"/>
        </linearGradient>
    </defs>
    <path stroke="url(#a)"
          stroke-width="3"
          stroke-linejoin="round"
          stroke-linecap="round"
          d="M5 40 C 5.57 38.61, 9.43 29.15, 10 27.76 S 13.51 15.33, 15 15.51 S 19.13 27.76, 20 28.98 S 23.62 29, 25 29.59 S 28.51 33.45, 30 33.27 S 33.93 29.42, 35 28.37 S 38.69 22.75, 40 23.47 S 43.52 33.61, 45 33.88 S 49.02 26.45, 50 25.31 S 53.52 21.97, 55 22.24 S 58.59 26.62, 60 27.14 S 63.96 27, 65 25.92 S 69.2 18, 70 16.73 S 73.79 9.11, 75 10 S 78.86 23.1, 80 24.08 S 83.86 19.55, 85 18.57 S 88.54 15.87, 90 15.51 S 93.52 15.85, 95 16.12 S 98.79 16.46, 100 17.35 S 103.5 23.56, 105 23.47 S 108.72 17.51, 110 16.73 S 113.51 17.17, 115 17.35 S 118.57 17.52, 120 17.96 S 123.59 19.89, 125 20.41 S 128.59 21.11, 130 21.63 S 133.5 24.08, 135 24.08 S 138.62 21.04, 140 21.63 S 143.69 27.65, 145 28.37 S 148.54 27.5, 150 27.14 S 153.9 26.93, 155 25.92 S 158.5 17.96, 160 17.96 S 163.5 25.83, 165 25.92 S 168.93 19.62, 170 18.57 S 173.5 16.12, 175 16.12 S 178.57 18.13, 180 18.57 S 183.59 18.66, 185 19.18 S 188.5 22.15, 190 22.24 S 193.5 19.71, 195 19.8 S 198.65 23.52, 200 22.86 S 204.2 16.17, 205 14.9"
          fill="none"/>
    <circle r="4" cx="5" cy="40" fill="#3023AE"/>
    <circle r="4" cx="205" cy="14.899999999999999" fill="#C86DD7"/>      
</svg>