<svg width="200" height="50" viewBox="0 0 210 50" xmlns="http://www.w3.org/2000/svg">
    <defs>
        <linearGradient x1="0%" y1="0%" x2="100%" y2="0%" id="a">
            <stop stop-color="#3023AE" offset="0%"/>
            <stop stop-color="#C86DD7" offset="100%"/>
        </linearGradient>
    </defs>
    <path stroke="url(#a)"
          stroke-width="3"
          stroke-linejoin="round"
          stroke-linecap="round"
          d="M5 40 C 6.5 39.96, 8.51 40.07, 10 39.88 S 14.52 40.13, 15 38.71 S 18.82 10.92, 20 10 S 24.43 29.55, 25 30.94 S 28.7 33.58, 30 34.33 S 33.57 36.26, 35 36.72 S 38.52 37.3, 40 37.53 S 43.5 38.34, 45 38.28 S 48.5 37.18, 50 37.14 S 53.51 37.8, 55 38 S 58.51 38.3, 60 38.49 S 63.51 39.15, 65 39.28 S 68.5 39.35, 70 39.38 S 73.5 39.43, 75 39.46 S 78.5 39.56, 80 39.59 S 83.5 39.63, 85 39.64 S 88.5 39.64, 90 39.64 S 93.5 39.65, 95 39.66 S 98.5 39.67, 100 39.69 S 103.5 39.76, 105 39.78 S 108.5 39.93, 110 39.82 S 113.5 39.04, 115 39.03 S 118.5 39.62, 120 39.73 S 123.5 39.74, 125 39.74 S 128.5 39.72, 130 39.73 S 133.5 39.8, 135 39.81 S 138.5 39.79, 140 39.79 S 143.5 39.8, 145 39.79 S 148.5 39.74, 150 39.74 S 153.5 39.77, 155 39.77 S 158.5 39.73, 160 39.73 S 163.5 39.75, 165 39.76 S 168.5 39.79, 170 39.79 S 173.5 39.77, 175 39.77 S 178.5 39.8, 180 39.8 S 183.5 39.81, 185 39.8 S 188.5 39.74, 190 39.74 S 193.5 39.8, 195 39.8 S 198.5 39.77, 200 39.77 S 203.5 39.8, 205 39.81"
          fill="none"/>
    <circle r="4" cx="5" cy="40" fill="#3023AE"/>
    <circle r="4" cx="205" cy="39.81" fill="#C86DD7"/>      
</svg>