<svg width="200" height="50" viewBox="0 0 210 50" xmlns="http://www.w3.org/2000/svg">
    <defs>
        <linearGradient x1="0%" y1="0%" x2="100%" y2="0%" id="a">
            <stop stop-color="#3023AE" offset="0%"/>
            <stop stop-color="#C86DD7" offset="100%"/>
        </linearGradient>
    </defs>
    <path stroke="url(#a)"
          stroke-width="3"
          stroke-linejoin="round"
          stroke-linecap="round"
          d="M5 40 C 5.25 38.52, 8.52 10.24, 10 10 S 14.51 36.99, 15 38.41 S 18.51 38.86, 20 38.71 S 23.51 37.58, 25 37.42 S 28.51 37.46, 30 37.62 S 33.51 38.36, 35 38.51 S 38.5 38.71, 40 38.61 S 43.5 37.72, 45 37.81 S 48.51 39.08, 50 39.21 S 53.5 38.7, 55 38.71 S 58.5 39.18, 60 39.3 S 63.5 39.41, 65 39.5 S 68.5 39.99, 70 39.9 S 73.68 39.62, 75 38.91 S 78.57 34.99, 80 34.54 S 83.53 35.41, 85 35.73 S 88.5 36.62, 90 36.72 S 93.51 36.55, 95 36.42 S 98.75 36.66, 100 35.83 S 103.62 30.35, 105 29.77 S 108.66 30.99, 110 31.66 S 113.59 34.22, 115 34.74 S 118.5 35.32, 120 35.33 S 123.5 34.87, 125 34.83 S 128.5 35.04, 130 35.03 S 133.5 34.7, 135 34.74 S 138.51 35.14, 140 35.33 S 143.68 36.75, 145 36.03 S 148.5 29.88, 150 29.87 S 153.74 35.12, 155 35.93 S 158.5 36.41, 160 36.32 S 163.5 35.21, 165 35.33 S 168.52 36.87, 170 37.12 S 173.51 37.23, 175 37.02 S 178.5 35.73, 180 35.73 S 183.52 36.8, 185 37.02 S 188.5 37.22, 190 37.22 S 193.5 37.06, 195 37.02 S 198.51 36.76, 200 36.92 S 203.54 37.76, 205 38.11"
          fill="none"/>
    <circle r="4" cx="5" cy="40" fill="#3023AE"/>
    <circle r="4" cx="205" cy="38.11" fill="#C86DD7"/>      
</svg>