<svg width="200" height="50" viewBox="0 0 210 50" xmlns="http://www.w3.org/2000/svg">
    <defs>
        <linearGradient x1="0%" y1="0%" x2="100%" y2="0%" id="a">
            <stop stop-color="#3023AE" offset="0%"/>
            <stop stop-color="#C86DD7" offset="100%"/>
        </linearGradient>
    </defs>
    <path stroke="url(#a)"
          stroke-width="3"
          stroke-linejoin="round"
          stroke-linecap="round"
          d="M5 40 C 6.25 39.17, 8.58 37.14, 10 36.67 S 13.5 36.67, 15 36.67 S 18.5 36.67, 20 36.67 S 23.5 36.67, 25 36.67 S 28.5 36.67, 30 36.67 S 33.5 36.67, 35 36.67 S 38.5 36.67, 40 36.67 S 43.5 36.67, 45 36.67 S 48.5 36.67, 50 36.67 S 53.5 36.67, 55 36.67 S 58.5 36.67, 60 36.67 S 63.5 36.67, 65 36.67 S 68.5 36.67, 70 36.67 S 73.5 36.67, 75 36.67 S 78.5 36.67, 80 36.67 S 83.5 36.67, 85 36.67 S 88.58 37.15, 90 36.67 S 93.94 34.39, 95 33.33 S 98.58 26.19, 100 26.67 S 103.5 36.67, 105 36.67 S 108.75 27.5, 110 26.67 S 113.58 29.53, 115 30 S 118.75 29.17, 120 30 S 123.75 37.5, 125 36.67 S 129.47 24.73, 130 23.33 S 134.1 8.8, 135 10 S 139.33 35.33, 140 36.67 S 143.5 30, 145 30 S 148.75 35.84, 150 36.67 S 153.94 37.73, 155 36.67 S 158.75 27.5, 160 26.67 S 163.58 30.48, 165 30 S 168.75 22.5, 170 23.33 S 173.75 35.84, 175 36.67 S 178.75 30.83, 180 30 S 183.58 29.53, 185 30 S 188.75 34.16, 190 33.33 S 193.58 23.8, 195 23.33 S 198.75 29.17, 200 30 S 203.5 30, 205 30"
          fill="none"/>
    <circle r="4" cx="5" cy="40" fill="#3023AE"/>
    <circle r="4" cx="205" cy="30" fill="#C86DD7"/>      
</svg>