<svg width="200" height="50" viewBox="0 0 210 50" xmlns="http://www.w3.org/2000/svg">
    <defs>
        <linearGradient x1="0%" y1="0%" x2="100%" y2="0%" id="a">
            <stop stop-color="#3023AE" offset="0%"/>
            <stop stop-color="#C86DD7" offset="100%"/>
        </linearGradient>
    </defs>
    <path stroke="url(#a)"
          stroke-width="3"
          stroke-linejoin="round"
          stroke-linecap="round"
          d="M5 40 C 5.25 38.52, 9.38 11.36, 10 10 S 14.48 16.77, 15 18.18 S 18.84 36.32, 20 37.27 S 23.68 27.08, 25 26.36 S 28.99 30.71, 30 31.82 S 33.68 36.55, 35 37.27 S 38.5 37.27, 40 37.27 S 43.5 37.27, 45 37.27 S 49.43 38.66, 50 37.27 S 53.84 13.68, 55 12.73 S 59.22 27.81, 60 29.09 S 63.84 28.14, 65 29.09 S 68.68 36.55, 70 37.27 S 73.68 35.27, 75 34.55 S 78.55 31.43, 80 31.82 S 83.68 36.55, 85 37.27 S 88.5 37.27, 90 37.27 S 93.55 37.66, 95 37.27 S 98.5 34.55, 100 34.55 S 103.55 36.88, 105 37.27 S 108.5 37.27, 110 37.27 S 113.5 37.27, 115 37.27 S 118.5 37.27, 120 37.27 S 123.5 37.27, 125 37.27 S 128.55 37.66, 130 37.27 S 133.55 34.94, 135 34.55 S 138.55 34.16, 140 34.55 S 143.55 36.88, 145 37.27 S 148.5 37.27, 150 37.27 S 153.5 37.27, 155 37.27"
          fill="none"/>
    <circle r="4" cx="5" cy="40" fill="#3023AE"/>
    <circle r="4" cx="155" cy="37.27" fill="#C86DD7"/>      
</svg>