<svg width="200" height="50" viewBox="0 0 210 50" xmlns="http://www.w3.org/2000/svg">
    <defs>
        <linearGradient x1="0%" y1="0%" x2="100%" y2="0%" id="a">
            <stop stop-color="#3023AE" offset="0%"/>
            <stop stop-color="#C86DD7" offset="100%"/>
        </linearGradient>
    </defs>
    <path stroke="url(#a)"
          stroke-width="3"
          stroke-linejoin="round"
          stroke-linecap="round"
          d="M5 40 C 5.25 38.52, 8.5 10.04, 10 10 S 14.52 38.33, 15 39.75 S 18.5 39.62, 20 39.51 S 23.63 39.63, 25 39.02 S 28.59 35.6, 30 35.08 S 33.6 35.88, 35 35.33 S 38.59 31.67, 40 31.15 S 43.51 31.46, 45 31.64 S 48.52 32.13, 50 32.38 S 53.5 33.47, 55 33.36 S 58.53 31.93, 60 31.64 S 63.52 31.64, 65 31.39 S 68.54 29.59, 70 29.92 S 73.57 33.15, 75 33.61 S 78.5 33.18, 80 33.11 S 83.57 33.57, 85 33.11 S 88.52 30.14, 90 29.92 S 93.53 31.35, 95 31.64 S 98.54 31.57, 100 31.89 S 103.52 33.6, 105 33.85 S 108.58 34.1, 110 33.61 S 113.54 30.77, 115 30.41 S 118.58 30.66, 120 31.15 S 123.59 33.33, 125 33.85 S 128.5 34.91, 130 34.84 S 133.5 33.4, 135 33.36 S 138.52 34.34, 140 34.59 S 143.5 35.08, 145 35.08 S 148.56 35.01, 150 34.59 S 153.65 32.79, 155 32.13 S 158.5 29.78, 160 29.67 S 163.53 31.1, 165 31.39 S 168.54 32, 170 31.64 S 173.5 28.97, 175 28.93 S 178.54 31.06, 180 31.39 S 183.53 31.44, 185 31.15 S 188.5 29.39, 190 29.43 S 193.52 31.61, 195 31.39 S 198.52 27.73, 200 27.95 S 203.93 31.82, 205 32.87"
          fill="none"/>
    <circle r="4" cx="5" cy="40" fill="#3023AE"/>
    <circle r="4" cx="205" cy="32.87" fill="#C86DD7"/>      
</svg>