<svg width="200" height="50" viewBox="0 0 210 50" xmlns="http://www.w3.org/2000/svg">
    <defs>
        <linearGradient x1="0%" y1="0%" x2="100%" y2="0%" id="a">
            <stop stop-color="#3023AE" offset="0%"/>
            <stop stop-color="#C86DD7" offset="100%"/>
        </linearGradient>
    </defs>
    <path stroke="url(#a)"
          stroke-width="3"
          stroke-linejoin="round"
          stroke-linecap="round"
          d="M5 40 C 6.14 39.02, 8.86 36.69, 10 35.71 S 13.5 31.43, 15 31.43 S 18.62 35.12, 20 35.71 S 23.5 35.71, 25 35.71 S 28.5 35.71, 30 35.71 S 33.5 35.71, 35 35.71 S 38.5 35.71, 40 35.71 S 43.5 35.71, 45 35.71 S 48.5 35.71, 50 35.71 S 53.62 36.3, 55 35.71 S 58.5 31.43, 60 31.43 S 63.5 35.71, 65 35.71 S 69.08 32.61, 70 31.43 S 73.5 22.86, 75 22.86 S 79.08 30.25, 80 31.43 S 83.5 35.71, 85 35.71 S 88.86 32.41, 90 31.43 S 93.86 28.12, 95 27.14 S 98.86 21.88, 100 22.86 S 103.86 34.73, 105 35.71 S 108.5 31.43, 110 31.43 S 113.62 35.12, 115 35.71 S 118.5 35.71, 120 35.71 S 124.08 36.89, 125 35.71 S 129.08 24.04, 130 22.86 S 134.08 21.68, 135 22.86 S 139.08 34.53, 140 35.71 S 143.86 36.69, 145 35.71 S 148.5 27.14, 150 27.14 S 153.62 36.3, 155 35.71 S 158.5 22.86, 160 22.86 S 163.86 34.73, 165 35.71 S 169.46 32.83, 170 31.43 S 173.62 9.41, 175 10 S 179.46 34.31, 180 35.71 S 183.5 35.71, 185 35.71 S 188.86 36.69, 190 35.71 S 193.62 27.73, 195 27.14 S 198.86 30.45, 200 31.43"
          fill="none"/>
    <circle r="4" cx="5" cy="40" fill="#3023AE"/>
    <circle r="4" cx="200" cy="31.43" fill="#C86DD7"/>      
</svg>