<svg width="200" height="50" viewBox="0 0 210 50" xmlns="http://www.w3.org/2000/svg">
    <defs>
        <linearGradient x1="0%" y1="0%" x2="100%" y2="0%" id="a">
            <stop stop-color="#3023AE" offset="0%"/>
            <stop stop-color="#C86DD7" offset="100%"/>
        </linearGradient>
    </defs>
    <path stroke="url(#a)"
          stroke-width="3"
          stroke-linejoin="round"
          stroke-linecap="round"
          d="M5 40 C 5.25 38.52, 8.51 10.18, 10 10 S 14.51 37.38, 15 38.8 S 18.5 38.8, 20 38.8 S 23.5 38.8, 25 38.8 S 28.5 38.8, 30 38.8 S 33.5 38.8, 35 38.8 S 38.5 38.8, 40 38.8 S 43.5 38.8, 45 38.8 S 48.5 38.8, 50 38.8 S 53.5 38.8, 55 38.8 S 58.5 38.8, 60 38.8 S 63.5 38.8, 65 38.8 S 68.5 38.8, 70 38.8 S 73.5 38.8, 75 38.8 S 78.5 38.8, 80 38.8 S 83.5 38.8, 85 38.8 S 88.5 38.8, 90 38.8 S 93.5 38.8, 95 38.8 S 98.5 38.8, 100 38.8 S 103.5 38.8, 105 38.8 S 108.5 38.8, 110 38.8 S 113.5 38.8, 115 38.8 S 118.5 38.8, 120 38.8 S 123.5 38.8, 125 38.8 S 128.5 38.8, 130 38.8"
          fill="none"/>
    <circle r="4" cx="5" cy="40" fill="#3023AE"/>
    <circle r="4" cx="130" cy="38.8" fill="#C86DD7"/>      
</svg>