<svg width="200" height="50" viewBox="0 0 210 50" xmlns="http://www.w3.org/2000/svg">
    <defs>
        <linearGradient x1="0%" y1="0%" x2="100%" y2="0%" id="a">
            <stop stop-color="#3023AE" offset="0%"/>
            <stop stop-color="#C86DD7" offset="100%"/>
        </linearGradient>
    </defs>
    <path stroke="url(#a)"
          stroke-width="3"
          stroke-linejoin="round"
          stroke-linecap="round"
          d="M5 40 C 6.5 39.95, 8.5 39.83, 10 39.82 S 13.5 39.9, 15 39.92 S 18.5 39.94, 20 39.95 S 23.5 39.99, 25 39.98 S 28.56 40.31, 30 39.89 S 34.43 38.43, 35 37.04 S 38.5 15.2, 40 15.32 S 44.39 36.47, 45 37.84 S 48.5 37.59, 50 37.65 S 53.5 38.15, 55 38.26 S 59.5 39.8, 60 38.39 S 63.99 11.11, 65 10 S 69.45 25.97, 70 27.37 S 73.83 34.57, 75 35.5 S 78.5 35.23, 80 35.33 S 83.52 36.42, 85 36.18 S 88.5 33.8, 90 33.7 S 93.52 35.31, 95 35.53 S 98.5 35.18, 100 35.17 S 103.5 35.43, 105 35.44 S 108.53 35.57, 110 35.27 S 113.51 33.56, 115 33.38 S 118.52 33.81, 120 34.03 S 123.51 34.67, 125 34.85 S 128.5 35.17, 130 35.25 S 133.51 35.24, 135 35.4 S 138.51 36.2, 140 36.32 S 143.5 36.18, 145 36.22 S 148.5 36.59, 150 36.59 S 153.5 36.24, 155 36.24 S 158.5 36.49, 160 36.59 S 163.5 36.92, 165 36.88 S 168.5 36.42, 170 36.35 S 173.5 36.4, 175 36.43 S 178.5 36.5, 180 36.54 S 183.5 36.77, 185 36.67 S 188.5 35.87, 190 35.87 S 193.5 36.55, 195 36.65 S 198.5 36.5, 200 36.52 S 203.5 36.69, 205 36.76"
          fill="none"/>
    <circle r="4" cx="5" cy="40" fill="#3023AE"/>
    <circle r="4" cx="205" cy="36.76" fill="#C86DD7"/>      
</svg>