<svg width="200" height="50" viewBox="0 0 210 50" xmlns="http://www.w3.org/2000/svg">
    <defs>
        <linearGradient x1="0%" y1="0%" x2="100%" y2="0%" id="a">
            <stop stop-color="#3023AE" offset="0%"/>
            <stop stop-color="#C86DD7" offset="100%"/>
        </linearGradient>
    </defs>
    <path stroke="url(#a)"
          stroke-width="3"
          stroke-linejoin="round"
          stroke-linecap="round"
          d="M5 40 C 5.25 38.52, 8.51 10.17, 10 10 S 14.51 37.41, 15 38.83 S 18.5 39.02, 20 39.1 S 23.5 39.28, 25 39.37 S 28.51 39.87, 30 39.73 S 34.36 39.82, 35 38.46 S 38.5 18.45, 40 18.4 S 44.36 36.74, 45 38.1 S 48.51 39.53, 50 39.73 S 53.51 39.64, 55 39.46 S 58.5 38.56, 60 38.55 S 63.5 39.27, 65 39.37 S 68.5 39.24, 70 39.19 S 73.5 38.98, 75 39.01 S 78.5 39.41, 80 39.37 S 83.5 38.77, 85 38.73 S 88.51 38.98, 90 39.1 S 93.5 39.63, 95 39.55 S 98.5 38.56, 100 38.55 S 103.51 39.34, 105 39.46 S 108.5 39.4, 110 39.37 S 113.5 39.38, 115 39.28 S 118.5 38.69, 120 38.73 S 123.51 39.68, 125 39.55 S 128.5 37.94, 130 37.83 S 133.51 38.67, 135 38.83 S 138.5 38.95, 140 38.92 S 143.5 38.64, 145 38.64 S 148.5 38.82, 150 38.92 S 153.5 39.19, 155 39.28 S 158.5 39.55, 160 39.55 S 163.5 39.31, 165 39.28 S 168.5 39.41, 170 39.37 S 173.5 39.12, 175 39.01 S 178.5 38.61, 180 38.64 S 183.5 39.11, 185 39.19 S 188.5 39.18, 190 39.19 S 193.5 39.25, 195 39.28 S 198.5 39.42, 200 39.37 S 203.51 39.05, 205 38.92"
          fill="none"/>
    <circle r="4" cx="5" cy="40" fill="#3023AE"/>
    <circle r="4" cx="205" cy="38.92" fill="#C86DD7"/>      
</svg>