<svg width="200" height="50" viewBox="0 0 210 50" xmlns="http://www.w3.org/2000/svg">
    <defs>
        <linearGradient x1="0%" y1="0%" x2="100%" y2="0%" id="a">
            <stop stop-color="#3023AE" offset="0%"/>
            <stop stop-color="#C86DD7" offset="100%"/>
        </linearGradient>
    </defs>
    <path stroke="url(#a)"
          stroke-width="3"
          stroke-linejoin="round"
          stroke-linecap="round"
          d="M5 40 C 5.25 38.52, 8.59 10.51, 10 10 S 14.47 35.02, 15 36.42 S 18.51 36.62, 20 36.42 S 23.51 35.27, 25 35.07 S 28.51 35.27, 30 35.07 S 33.51 33.6, 35 33.73 S 39.02 37.11, 40 35.97 S 43.5 22.16, 45 22.09 S 49 34.4, 50 35.52 S 53.51 33.41, 55 33.28 S 58.59 35.14, 60 34.63 S 63.59 29.19, 65 29.7 S 68.7 37.46, 70 38.21 S 73.57 35.97, 75 35.52 S 78.63 35.68, 80 35.07 S 83.51 31.17, 85 31.04 S 88.55 33.79, 90 34.18 S 93.61 34.29, 95 33.73 S 98.51 29.95, 100 30.15 S 103.63 34.46, 105 35.07 S 108.5 34.7, 110 34.63 S 113.59 35.14, 115 34.63 S 118.52 31.3, 120 31.04 S 123.54 32.51, 125 32.84 S 128.51 33.41, 130 33.28 S 133.55 31.55, 135 31.94 S 138.51 36.17, 140 35.97 S 143.65 31.26, 145 30.6 S 148.51 30.91, 150 31.04 S 153.52 31.22, 155 31.49 S 158.59 32.33, 160 32.84 S 163.63 34.46, 165 35.07 S 168.5 37.38, 170 37.31 S 173.63 35.24, 175 34.63 S 178.51 33.04, 180 32.84 S 183.57 32.83, 185 33.28 S 188.54 35.64, 190 35.97 S 193.51 35.72, 195 35.52 S 198.55 35.02, 200 34.63 S 203.59 33.35, 205 32.84"
          fill="none"/>
    <circle r="4" cx="5" cy="40" fill="#3023AE"/>
    <circle r="4" cx="205" cy="32.84" fill="#C86DD7"/>      
</svg>