<svg width="200" height="50" viewBox="0 0 210 50" xmlns="http://www.w3.org/2000/svg">
    <defs>
        <linearGradient x1="0%" y1="0%" x2="100%" y2="0%" id="a">
            <stop stop-color="#3023AE" offset="0%"/>
            <stop stop-color="#C86DD7" offset="100%"/>
        </linearGradient>
    </defs>
    <path stroke="url(#a)"
          stroke-width="3"
          stroke-linejoin="round"
          stroke-linecap="round"
          d="M5 40 C 6.29 39.23, 8.56 37.43, 10 37 S 13.56 37.43, 15 37 S 18.71 34.77, 20 34 S 23.56 30.57, 25 31 S 28.63 36.38, 30 37 S 33.56 35.93, 35 35.5 S 38.52 33.78, 40 34 S 43.52 36.78, 45 37 S 48.56 35.93, 50 35.5 S 53.89 35, 55 34 S 58.89 27.5, 60 26.5 S 63.8 25.9, 65 25 S 68.56 19.43, 70 19 S 73.63 21.38, 75 22 S 78.63 22.88, 80 23.5 S 84.11 25.29, 85 26.5 S 88.56 36.57, 90 37 S 94.22 30.78, 95 29.5 S 98.63 19.88, 100 20.5 S 103.97 35.09, 105 34 S 108.63 10.62, 110 10 S 114.39 28.13, 115 29.5 S 119.27 33.81, 120 32.5 S 124.17 12.75, 125 11.5 S 129.22 16.22, 130 17.5 S 133.63 28.62, 135 28 S 138.71 13.77, 140 13 S 144.04 20.85, 145 22 S 148.56 24.57, 150 25 S 153.89 26, 155 25 S 158.63 15.38, 160 16 S 164.11 28.29, 165 29.5 S 168.97 30.59, 170 29.5 S 173.52 18.78, 175 19 S 179.04 29.85, 180 31 S 183.52 31.22, 185 31 S 188.52 29.28, 190 29.5 S 193.5 32.5, 195 32.5 S 198.63 30.12, 200 29.5 S 203.56 28.43, 205 28"
          fill="none"/>
    <circle r="4" cx="5" cy="40" fill="#3023AE"/>
    <circle r="4" cx="205" cy="28" fill="#C86DD7"/>      
</svg>