<svg width="200" height="50" viewBox="0 0 210 50" xmlns="http://www.w3.org/2000/svg">
    <defs>
        <linearGradient x1="0%" y1="0%" x2="100%" y2="0%" id="a">
            <stop stop-color="#3023AE" offset="0%"/>
            <stop stop-color="#C86DD7" offset="100%"/>
        </linearGradient>
    </defs>
    <path stroke="url(#a)"
          stroke-width="3"
          stroke-linejoin="round"
          stroke-linecap="round"
          d="M5 40 C 6.5 39.98, 8.69 40.66, 10 39.94 S 13.5 34.54, 15 34.5 S 18.68 38.99, 20 39.69 S 23.5 39.77, 25 39.81 S 28.5 39.95, 30 39.98 S 33.5 39.99, 35 39.99 S 38.5 40, 40 39.99 S 43.51 40.1, 45 39.93 S 48.5 38.88, 50 38.83 S 53.51 39.49, 55 39.62 S 58.5 39.66, 60 39.68 S 63.5 39.74, 65 39.75 S 68.5 39.74, 70 39.76 S 73.5 39.86, 75 39.87 S 78.5 39.87, 80 39.86 S 83.5 39.83, 85 39.8 S 88.5 39.66, 90 39.67 S 93.5 39.93, 95 39.86 S 98.5 39.23, 100 39.2 S 103.5 39.65, 105 39.69 S 108.5 39.47, 110 39.45 S 113.5 39.5, 115 39.55 S 118.5 39.79, 120 39.79 S 123.5 39.59, 125 39.54 S 128.5 39.46, 130 39.47 S 133.5 39.61, 135 39.6 S 138.51 39.53, 140 39.4 S 143.51 38.87, 145 38.74 S 148.5 38.54, 150 38.51 S 153.51 38.39, 155 38.52 S 158.5 39.32, 160 39.35 S 163.63 39.37, 165 38.75 S 168.5 34.88, 170 34.83 S 173.58 37.92, 175 38.41 S 178.5 38.41, 180 38.32 S 183.5 37.81, 185 37.84 S 188.5 38.48, 190 38.51 S 194.5 39.44, 195 38.02 S 198.73 10.8, 200 10 S 204.66 30.24, 205 31.7"
          fill="none"/>
    <circle r="4" cx="5" cy="40" fill="#3023AE"/>
    <circle r="4" cx="205" cy="31.7" fill="#C86DD7"/>      
</svg>