<svg width="200" height="50" viewBox="0 0 210 50" xmlns="http://www.w3.org/2000/svg">
    <defs>
        <linearGradient x1="0%" y1="0%" x2="100%" y2="0%" id="a">
            <stop stop-color="#3023AE" offset="0%"/>
            <stop stop-color="#C86DD7" offset="100%"/>
        </linearGradient>
    </defs>
    <path stroke="url(#a)"
          stroke-width="3"
          stroke-linejoin="round"
          stroke-linecap="round"
          d="M5 40 C 6.12 39, 8.51 35.68, 10 35.51 S 13.62 38.28, 15 38.87 S 18.51 39.62, 20 39.79 S 23.5 39.95, 25 39.98 S 28.51 40.11, 30 39.98 S 33.5 39.22, 35 39.12 S 38.5 39.22, 40 39.29 S 43.5 39.52, 45 39.58 S 48.5 39.62, 50 39.66 S 53.5 39.82, 55 39.83 S 58.5 39.74, 60 39.71 S 63.5 39.71, 65 39.64 S 68.5 39.24, 70 39.23 S 73.5 39.6, 75 39.59 S 78.5 39.14, 80 39.15 S 83.5 39.61, 85 39.65 S 88.5 39.45, 90 39.4 S 93.5 39.32, 95 39.3 S 98.52 39.52, 100 39.27 S 103.51 37.75, 105 37.61 S 108.51 38.18, 110 38.32 S 113.6 39.1, 115 38.56 S 118.5 34.56, 120 34.46 S 123.56 37.46, 125 37.87 S 128.5 37.34, 130 37.28 S 134.48 38.88, 135 37.47 S 138.77 10.86, 140 10 S 144.28 29.12, 145 30.43 S 149.05 29.31, 150 28.15 S 153.51 18.1, 155 18.27 S 159.05 28.1, 160 29.26 S 163.55 30.22, 165 30.59 S 169.06 32.98, 170 31.81 S 173.76 18.92, 175 18.07 S 178.7 24.2, 180 24.96 S 183.5 23.96, 185 23.9 S 188.5 24.65, 190 24.58 S 193.51 23.25, 195 23.44 S 198.68 25.13, 200 25.85 S 203.72 28.13, 205 28.91"
          fill="none"/>
    <circle r="4" cx="5" cy="40" fill="#3023AE"/>
    <circle r="4" cx="205" cy="28.91" fill="#C86DD7"/>      
</svg>