<svg width="200" height="50" viewBox="0 0 210 50" xmlns="http://www.w3.org/2000/svg">
    <defs>
        <linearGradient x1="0%" y1="0%" x2="100%" y2="0%" id="a">
            <stop stop-color="#3023AE" offset="0%"/>
            <stop stop-color="#C86DD7" offset="100%"/>
        </linearGradient>
    </defs>
    <path stroke="url(#a)"
          stroke-width="3"
          stroke-linejoin="round"
          stroke-linecap="round"
          d="M5 40 C 6.38 39.42, 8.51 38.05, 10 37.89 S 13.5 38.87, 15 38.95 S 18.59 38.94, 20 38.42 S 23.5 35.34, 25 35.26 S 28.59 37.37, 30 37.89 S 33.51 38.79, 35 38.95 S 38.5 38.95, 40 38.95 S 43.5 38.95, 45 38.95 S 48.5 38.95, 50 38.95 S 53.5 38.87, 55 38.95 S 58.5 39.39, 60 39.47 S 63.5 39.47, 65 39.47 S 68.5 39.47, 70 39.47 S 73.52 39.7, 75 39.47 S 78.5 37.97, 80 37.89 S 83.51 39.11, 85 38.95 S 88.51 37, 90 36.84 S 93.53 37.58, 95 37.89 S 98.5 38.95, 100 38.95 S 103.5 37.97, 105 37.89 S 108.52 38.19, 110 38.42 S 113.51 39.31, 115 39.47 S 118.5 39.47, 120 39.47 S 123.51 39.63, 125 39.47 S 128.52 38.65, 130 38.42 S 133.5 37.97, 135 37.89 S 138.5 37.97, 140 37.89 S 143.5 37.29, 145 37.37 S 148.52 38.19, 150 38.42 S 153.52 39.18, 155 38.95 S 158.53 37.15, 160 36.84 S 163.55 36.46, 165 36.84 S 168.5 39.47, 170 39.47 S 173.5 36.92, 175 36.84 S 178.5 39.03, 180 38.95 S 183.91 37.35, 185 36.32 S 189.47 30.87, 190 29.47 S 193.57 10.45, 195 10 S 199.37 24.96, 200 26.32 S 203.97 30.49, 205 31.58"
          fill="none"/>
    <circle r="4" cx="5" cy="40" fill="#3023AE"/>
    <circle r="4" cx="205" cy="31.58" fill="#C86DD7"/>      
</svg>