<svg width="200" height="50" viewBox="0 0 210 50" xmlns="http://www.w3.org/2000/svg">
    <defs>
        <linearGradient x1="0%" y1="0%" x2="100%" y2="0%" id="a">
            <stop stop-color="#3023AE" offset="0%"/>
            <stop stop-color="#C86DD7" offset="100%"/>
        </linearGradient>
    </defs>
    <path stroke="url(#a)"
          stroke-width="3"
          stroke-linejoin="round"
          stroke-linecap="round"
          d="M5 40 C 6.5 39.97, 8.8 40.81, 10 39.91 S 13.5 32.49, 15 32.45 S 18.79 38.77, 20 39.66 S 23.5 39.78, 25 39.83 S 28.5 39.97, 30 39.99 S 33.5 40.08, 35 39.99 S 38.51 39.56, 40 39.37 S 43.5 38.73, 45 38.74 S 48.51 39.28, 50 39.41 S 53.5 39.59, 55 39.62 S 58.5 39.59, 60 39.61 S 63.5 39.75, 65 39.77 S 68.5 39.75, 70 39.74 S 73.5 39.72, 75 39.69 S 78.5 39.67, 80 39.57 S 83.5 39, 85 38.99 S 88.5 39.45, 90 39.48 S 93.5 39.18, 95 39.17 S 98.5 39.33, 100 39.38 S 103.5 39.53, 105 39.53 S 108.5 39.46, 110 39.39 S 113.5 39.12, 115 39.09 S 118.51 39.34, 120 39.19 S 123.51 38.3, 125 38.11 S 128.5 37.96, 130 37.92 S 133.5 37.77, 135 37.86 S 138.6 39.09, 140 38.54 S 143.53 34.22, 145 33.91 S 148.58 35.94, 150 36.44 S 153.5 37.33, 155 37.42 S 158.5 37.09, 160 37.07 S 164.48 38.7, 165 37.29 S 169.22 11.28, 170 10 S 174.29 19.61, 175 20.93 S 178.7 27.81, 180 28.56 S 184.2 28.01, 185 26.74 S 188.5 12.69, 190 12.6 S 194.26 24.87, 195 26.17 S 198.56 29.69, 200 30.1 S 203.53 29.35, 205 29.04"
          fill="none"/>
    <circle r="4" cx="5" cy="40" fill="#3023AE"/>
    <circle r="4" cx="205" cy="29.04" fill="#C86DD7"/>      
</svg>