<svg width="200" height="50" viewBox="0 0 210 50" xmlns="http://www.w3.org/2000/svg">
    <defs>
        <linearGradient x1="0%" y1="0%" x2="100%" y2="0%" id="a">
            <stop stop-color="#3023AE" offset="0%"/>
            <stop stop-color="#C86DD7" offset="100%"/>
        </linearGradient>
    </defs>
    <path stroke="url(#a)"
          stroke-width="3"
          stroke-linejoin="round"
          stroke-linecap="round"
          d="M5 40 C 6.21 39.12, 8.5 36.42, 10 36.36 S 13.57 39.16, 15 39.61 S 18.5 39.49, 20 39.49 S 23.5 39.58, 25 39.63 S 28.5 39.8, 30 39.8 S 33.5 39.69, 35 39.66 S 38.5 39.6, 40 39.61 S 43.5 39.66, 45 39.7 S 48.5 39.82, 50 39.85 S 53.5 39.92, 55 39.93 S 58.5 39.89, 60 39.9 S 63.5 40.1, 65 39.98 S 68.51 39.31, 70 39.12 S 73.5 38.68, 75 38.69 S 78.5 39.16, 80 39.18 S 83.5 38.84, 85 38.8 S 89.51 40.36, 90 38.94 S 93.55 10.4, 95 10 S 99.48 34.77, 100 36.18 S 103.5 37.42, 105 37.31 S 108.52 35.69, 110 35.44 S 113.51 35.42, 115 35.61 S 118.52 36.53, 120 36.75 S 123.51 36.96, 125 37.1 S 128.5 37.71, 130 37.69 S 133.5 37.07, 135 36.99 S 138.5 37.21, 140 37.15 S 143.59 37.14, 145 36.62 S 148.5 33.51, 150 33.48 S 153.57 35.97, 155 36.41 S 158.5 36.58, 160 36.57 S 163.5 36.39, 165 36.36 S 168.5 36.35, 170 36.38 S 173.5 36.51, 175 36.57 S 178.52 37.01, 180 36.75 S 183.86 35.78, 185 34.81 S 188.8 29.18, 190 28.28 S 193.72 26.53, 195 27.31 S 198.94 33.29, 200 34.36 S 203.72 36.63, 205 37.41"
          fill="none"/>
    <circle r="4" cx="5" cy="40" fill="#3023AE"/>
    <circle r="4" cx="205" cy="37.41" fill="#C86DD7"/>      
</svg>