<svg width="200" height="50" viewBox="0 0 210 50" xmlns="http://www.w3.org/2000/svg">
    <defs>
        <linearGradient x1="0%" y1="0%" x2="100%" y2="0%" id="a">
            <stop stop-color="#3023AE" offset="0%"/>
            <stop stop-color="#C86DD7" offset="100%"/>
        </linearGradient>
    </defs>
    <path stroke="url(#a)"
          stroke-width="3"
          stroke-linejoin="round"
          stroke-linecap="round"
          d="M5 40 C 6.46 39.66, 8.77 39.7, 10 38.85 S 13.77 33.93, 15 33.08 S 18.77 32.77, 20 31.92 S 23.58 25.66, 25 26.15 S 28.9 34.36, 30 35.38 S 33.51 35.55, 35 35.38 S 38.7 34.98, 40 34.23 S 43.64 30.25, 45 29.62 S 48.58 30.11, 50 29.62 S 53.51 25.98, 55 26.15 S 58.54 31.11, 60 30.77 S 63.58 23.36, 65 23.85 S 68.5 34.23, 70 34.23 S 74.02 24.98, 75 23.85 S 78.5 22.69, 80 22.69 S 83.9 22.83, 85 23.85 S 89.02 30.79, 90 31.92 S 93.54 35.04, 95 35.38 S 98.54 34.57, 100 34.23 S 103.9 34.1, 105 33.08 S 108.77 25.85, 110 25 S 113.5 26.15, 115 26.15 S 118.51 24.83, 120 25 S 123.58 26.82, 125 27.31 S 128.54 28.12, 130 28.46 S 133.77 28.77, 135 29.62 S 138.5 35.38, 140 35.38 S 143.9 30.64, 145 29.62 S 148.58 25.66, 150 26.15 S 153.58 33.57, 155 33.08 S 159.21 23.97, 160 22.69 S 163.51 16.75, 165 16.92 S 168.77 23, 170 23.85 S 173.58 24.34, 175 23.85 S 178.83 21.32, 180 20.38 S 183.83 16.71, 185 15.77 S 188.7 13.06, 190 12.31 S 193.54 9.66, 195 10 S 198.51 14.45, 200 14.62 S 203.77 12.01, 205 11.15"
          fill="none"/>
    <circle r="4" cx="5" cy="40" fill="#3023AE"/>
    <circle r="4" cx="205" cy="11.149999999999999" fill="#C86DD7"/>      
</svg>