<svg width="200" height="50" viewBox="0 0 210 50" xmlns="http://www.w3.org/2000/svg">
    <defs>
        <linearGradient x1="0%" y1="0%" x2="100%" y2="0%" id="a">
            <stop stop-color="#3023AE" offset="0%"/>
            <stop stop-color="#C86DD7" offset="100%"/>
        </linearGradient>
    </defs>
    <path stroke="url(#a)"
          stroke-width="3"
          stroke-linejoin="round"
          stroke-linecap="round"
          d="M5 40 C 5.25 38.52, 8.91 11.03, 10 10 S 14.48 29.08, 15 30.49 S 18.87 36.08, 20 37.07 S 23.54 38.95, 25 39.27 S 28.5 39.27, 30 39.27 S 33.5 39.27, 35 39.27 S 38.5 39.27, 40 39.27 S 43.5 39.27, 45 39.27 S 48.5 39.27, 50 39.27 S 53.5 39.27, 55 39.27 S 58.5 39.27, 60 39.27 S 63.5 39.27, 65 39.27 S 68.5 39.27, 70 39.27 S 73.5 39.27, 75 39.27 S 78.5 39.27, 80 39.27 S 83.5 39.27, 85 39.27 S 88.5 39.27, 90 39.27 S 93.5 39.27, 95 39.27 S 98.5 39.27, 100 39.27 S 103.5 39.38, 105 39.27 S 108.5 38.54, 110 38.54 S 113.5 39.16, 115 39.27 S 118.5 39.27, 120 39.27 S 123.5 39.38, 125 39.27 S 128.56 38.96, 130 38.54 S 133.5 36.23, 135 36.34 S 138.56 38.85, 140 39.27 S 143.5 39.27, 145 39.27 S 148.5 39.27, 150 39.27 S 153.5 39.27, 155 39.27 S 158.5 39.27, 160 39.27 S 163.5 39.27, 165 39.27 S 168.5 39.27, 170 39.27 S 173.5 39.27, 175 39.27 S 178.66 39.95, 180 39.27 S 183.5 34.26, 185 34.15 S 188.56 38.12, 190 38.54 S 193.5 36.96, 195 37.07 S 198.52 39.05, 200 39.27 S 203.52 38.76, 205 38.54"
          fill="none"/>
    <circle r="4" cx="5" cy="40" fill="#3023AE"/>
    <circle r="4" cx="205" cy="38.54" fill="#C86DD7"/>      
</svg>