<svg width="200" height="50" viewBox="0 0 210 50" xmlns="http://www.w3.org/2000/svg">
    <defs>
        <linearGradient x1="0%" y1="0%" x2="100%" y2="0%" id="a">
            <stop stop-color="#3023AE" offset="0%"/>
            <stop stop-color="#C86DD7" offset="100%"/>
        </linearGradient>
    </defs>
    <path stroke="url(#a)"
          stroke-width="3"
          stroke-linejoin="round"
          stroke-linecap="round"
          d="M5 40 C 6.48 39.78, 8.5 39.36, 10 39.25 S 13.5 39.25, 15 39.25 S 18.5 39.25, 20 39.25 S 23.5 39.25, 25 39.25 S 28.5 39.25, 30 39.25 S 33.5 39.25, 35 39.25 S 38.5 39.25, 40 39.25 S 43.5 39.25, 45 39.25 S 48.5 39.25, 50 39.25 S 53.5 39.25, 55 39.25 S 58.5 39.25, 60 39.25 S 63.52 39.47, 65 39.25 S 68.52 37.97, 70 37.75 S 73.52 37.97, 75 37.75 S 78.93 37.3, 80 36.25 S 83.71 28.77, 85 28 S 88.5 30.25, 90 30.25 S 93.8 27.1, 95 28 S 98.6 37.22, 100 37.75 S 103.93 32.8, 105 31.75 S 108.63 28.62, 110 28 S 113.63 26.63, 115 27.25 S 118.67 31.8, 120 32.5 S 123.5 32.61, 125 32.5 S 128.5 31.75, 130 31.75 S 133.5 32.61, 135 32.5 S 138.63 30.38, 140 31 S 143.5 36.89, 145 37 S 148.71 32.52, 150 31.75 S 153.67 31.7, 155 31 S 158.71 27.27, 160 26.5 S 163.5 25, 165 25 S 168.52 26.28, 170 26.5 S 173.84 27.45, 175 26.5 S 179.07 19.43, 180 18.25 S 183.63 13.13, 185 13.75 S 188.6 23.28, 190 22.75 S 193.8 10.9, 195 10 S 198.8 14.35, 200 15.25 S 203.63 16.88, 205 17.5"
          fill="none"/>
    <circle r="4" cx="5" cy="40" fill="#3023AE"/>
    <circle r="4" cx="205" cy="17.5" fill="#C86DD7"/>      
</svg>