<svg width="200" height="50" viewBox="0 0 210 50" xmlns="http://www.w3.org/2000/svg">
    <defs>
        <linearGradient x1="0%" y1="0%" x2="100%" y2="0%" id="a">
            <stop stop-color="#3023AE" offset="0%"/>
            <stop stop-color="#C86DD7" offset="100%"/>
        </linearGradient>
    </defs>
    <path stroke="url(#a)"
          stroke-width="3"
          stroke-linejoin="round"
          stroke-linecap="round"
          d="M5 40 C 6.5 39.97, 9.53 41.33, 10 39.91 S 13.6 10.54, 15 10 S 19.51 34.63, 20 36.05 S 23.5 38.85, 25 38.9 S 28.5 36.39, 30 36.41 S 33.55 38.64, 35 39.03 S 38.5 39.11, 40 39.13 S 43.5 39.17, 45 39.14 S 48.51 39.06, 50 38.9 S 53.5 38.01, 55 38.05 S 58.51 39.01, 60 39.19 S 63.5 39.25, 65 39.25 S 68.5 39.26, 70 39.22 S 73.5 39.02, 75 39 S 78.5 39.09, 80 39.08 S 83.5 38.98, 85 38.94 S 88.5 38.82, 90 38.82 S 93.5 38.94, 95 38.96 S 98.5 38.95, 100 38.95 S 103.5 38.95, 105 38.93 S 108.5 38.84, 110 38.84 S 113.5 39.01, 115 38.92 S 118.5 38.22, 120 38.21 S 123.5 38.8, 125 38.87 S 128.5 38.75, 130 38.71 S 133.5 38.59, 135 38.58 S 138.5 38.65, 140 38.65 S 143.5 38.55, 145 38.56 S 148.5 38.84, 150 38.73 S 153.5 37.89, 155 37.84 S 158.51 38.28, 160 38.41 S 163.5 38.71, 165 38.74 S 168.5 38.62, 170 38.6 S 173.5 38.62, 175 38.58 S 178.5 38.41, 180 38.36 S 183.5 38.25, 185 38.24 S 188.5 38.32, 190 38.29 S 193.5 38.06, 195 38.07 S 198.5 38.35, 200 38.36 S 203.5 38.22, 205 38.16"
          fill="none"/>
    <circle r="4" cx="5" cy="40" fill="#3023AE"/>
    <circle r="4" cx="205" cy="38.16" fill="#C86DD7"/>      
</svg>