<svg width="200" height="50" viewBox="0 0 210 50" xmlns="http://www.w3.org/2000/svg">
    <defs>
        <linearGradient x1="0%" y1="0%" x2="100%" y2="0%" id="a">
            <stop stop-color="#3023AE" offset="0%"/>
            <stop stop-color="#C86DD7" offset="100%"/>
        </linearGradient>
    </defs>
    <path stroke="url(#a)"
          stroke-width="3"
          stroke-linejoin="round"
          stroke-linecap="round"
          d="M5 40 C 5.33 38.54, 8.74 18.32, 10 17.5 S 13.9 32.49, 15 33.51 S 18.55 27.12, 20 26.72 S 23.55 30.4, 25 30.78 S 28.51 29.57, 30 29.36 S 33.51 29.56, 35 29.36 S 38.57 28.5, 40 28.04 S 43.53 25.8, 45 26.11 S 48.52 29.9, 50 30.17 S 54.23 29.23, 55 27.94 S 58.9 14.47, 60 13.45 S 63.83 17.78, 65 18.72 S 68.52 21.31, 70 21.55 S 73.5 20.26, 75 20.34 S 78.52 22.29, 80 22.06 S 83.51 18.96, 85 18.82 S 88.5 21.04, 90 21.15 S 93.54 19.86, 95 19.53 S 98.5 18.91, 100 18.92 S 103.51 19.81, 105 19.63 S 108.92 18.74, 110 17.7 S 113.5 10.12, 115 10 S 118.83 15.95, 120 16.89 S 123.55 17.73, 125 18.11 S 128.54 19.18, 130 19.53 S 133.52 20.27, 135 20.54 S 138.51 21.55, 140 21.35 S 143.51 19.05, 145 19.22 S 148.64 23.1, 150 22.47 S 153.54 14.92, 155 14.56 S 158.7 19.28, 160 20.03 S 163.51 20.19, 165 20.34 S 168.53 21.35, 170 21.05 S 173.51 18.52, 175 18.31 S 178.69 20.36, 180 19.63 S 183.52 13.01, 185 12.74 S 188.62 17.2, 190 17.8 S 193.5 17, 195 17.09 S 198.51 18.55, 200 18.41 S 203.63 16.79, 205 16.18"
          fill="none"/>
    <circle r="4" cx="5" cy="40" fill="#3023AE"/>
    <circle r="4" cx="205" cy="16.18" fill="#C86DD7"/>      
</svg>