<svg width="200" height="50" viewBox="0 0 210 50" xmlns="http://www.w3.org/2000/svg">
    <defs>
        <linearGradient x1="0%" y1="0%" x2="100%" y2="0%" id="a">
            <stop stop-color="#3023AE" offset="0%"/>
            <stop stop-color="#C86DD7" offset="100%"/>
        </linearGradient>
    </defs>
    <path stroke="url(#a)"
          stroke-width="3"
          stroke-linejoin="round"
          stroke-linecap="round"
          d="M5 40 C 6.18 39.08, 8.55 36.47, 10 36.09 S 13.5 37.39, 15 37.39 S 18.51 35.9, 20 36.09 S 23.55 38.32, 25 38.7 S 28.74 39.52, 30 38.7 S 33.55 32.55, 35 32.17 S 38.67 35.4, 40 36.09 S 43.51 37.2, 45 37.39 S 48.5 37.39, 50 37.39 S 53.5 37.39, 55 37.39 S 58.51 37.2, 60 37.39 S 63.51 38.51, 65 38.7 S 68.6 39.25, 70 38.7 S 73.67 35.47, 75 34.78 S 78.55 33.1, 80 33.48 S 83.6 36.84, 85 37.39 S 88.5 37.39, 90 37.39 S 93.5 37.39, 95 37.39 S 98.51 37.2, 100 37.39 S 103.51 38.89, 105 38.7 S 108.5 36.09, 110 36.09 S 113.51 38.51, 115 38.7 S 118.55 37.77, 120 37.39 S 123.51 35.9, 125 36.09 S 128.55 38.32, 130 38.7 S 133.5 38.7, 135 38.7 S 138.51 38.89, 140 38.7 S 143.67 38.08, 145 37.39 S 148.51 33.29, 150 33.48 S 153.67 38.01, 155 38.7 S 158.5 38.7, 160 38.7 S 163.51 38.89, 165 38.7 S 168.55 37.77, 170 37.39 S 173.51 36.28, 175 36.09 S 178.89 37.1, 180 36.09 S 183.74 27.78, 185 26.96 S 188.55 29.19, 190 29.57 S 193.67 28.88, 195 29.57 S 199.32 36.12, 200 34.78 S 204.7 11.47, 205 10"
          fill="none"/>
    <circle r="4" cx="5" cy="40" fill="#3023AE"/>
    <circle r="4" cx="205" cy="10" fill="#C86DD7"/>      
</svg>