<svg width="200" height="50" viewBox="0 0 210 50" xmlns="http://www.w3.org/2000/svg">
    <defs>
        <linearGradient x1="0%" y1="0%" x2="100%" y2="0%" id="a">
            <stop stop-color="#3023AE" offset="0%"/>
            <stop stop-color="#C86DD7" offset="100%"/>
        </linearGradient>
    </defs>
    <path stroke="url(#a)"
          stroke-width="3"
          stroke-linejoin="round"
          stroke-linecap="round"
          d="M5 40 C 6.5 39.98, 8.5 39.94, 10 39.94 S 13.5 39.98, 15 39.99 S 18.5 39.99, 20 39.99 S 23.5 39.99, 25 39.99 S 29.53 41.41, 30 39.99 S 33.99 11.11, 35 10 S 39.44 27.54, 40 28.93 S 43.72 33.96, 45 34.74 S 48.51 34.82, 50 35.03 S 53.52 35.93, 55 36.16 S 58.5 36.67, 60 36.61 S 63.5 35.74, 65 35.74 S 68.53 36.91, 70 36.61 S 73.53 34.02, 75 33.73 S 78.51 34.48, 80 34.65 S 83.53 35.13, 85 34.84 S 88.5 32.78, 90 32.68 S 93.51 34.04, 95 34.19 S 98.5 33.59, 100 33.7 S 103.5 35, 105 34.93 S 108.5 33.19, 110 33.24 S 113.53 34.97, 115 35.25 S 118.54 35.46, 120 35.11 S 123.51 32.96, 125 32.83 S 128.53 34.57, 130 34.26 S 133.5 30.65, 135 30.73 S 138.59 34.3, 140 34.81 S 143.5 34.36, 145 34.35 S 148.77 35.59, 150 34.74 S 153.75 28.27, 155 27.44 S 158.7 27.37, 160 28.11 S 163.74 32.34, 165 33.16 S 168.53 34.34, 170 34.64 S 173.5 35.17, 175 35.21 S 178.51 35.1, 180 34.93 S 183.51 34.19, 185 34.07 S 188.5 34.02, 190 34.11 S 193.51 34.52, 195 34.65 S 198.51 34.85, 200 35 S 203.51 35.46, 205 35.66"
          fill="none"/>
    <circle r="4" cx="5" cy="40" fill="#3023AE"/>
    <circle r="4" cx="205" cy="35.66" fill="#C86DD7"/>      
</svg>