<svg width="200" height="50" viewBox="0 0 210 50" xmlns="http://www.w3.org/2000/svg">
    <defs>
        <linearGradient x1="0%" y1="0%" x2="100%" y2="0%" id="a">
            <stop stop-color="#3023AE" offset="0%"/>
            <stop stop-color="#C86DD7" offset="100%"/>
        </linearGradient>
    </defs>
    <path stroke="url(#a)"
          stroke-width="3"
          stroke-linejoin="round"
          stroke-linecap="round"
          d="M5 40 C 5.25 38.52, 8.51 10.16, 10 10 S 14.44 37.51, 15 38.9 S 18.5 34.87, 20 34.85 S 23.62 38.17, 25 38.75 S 28.5 39.11, 30 39.05 S 33.51 38.48, 35 38.35 S 38.5 38.13, 40 38.21 S 43.5 38.84, 45 38.86 S 48.5 38.4, 50 38.32 S 53.5 38.33, 55 38.32 S 58.5 38.19, 60 38.26 S 63.5 38.72, 65 38.76 S 68.5 38.55, 70 38.53 S 73.5 38.6, 75 38.61 S 78.5 38.65, 80 38.6 S 83.52 38.53, 85 38.29 S 88.5 36.99, 90 36.95 S 93.5 37.88, 95 38 S 98.79 38.64, 100 37.76 S 103.5 30.74, 105 30.74 S 108.65 37.12, 110 37.78 S 113.51 35.8, 115 35.65 S 118.94 37.86, 120 36.8 S 123.5 25.62, 125 25.61 S 129 35.6, 130 36.71 S 133.5 36.59, 135 36.71 S 138.5 37.42, 140 37.52 S 143.5 37.39, 145 37.38 S 148.5 37.42, 150 37.42 S 153.5 37.44, 155 37.35 S 158.5 36.78, 160 36.83 S 163.5 37.58, 165 37.7 S 168.5 37.66, 170 37.64 S 173.5 37.58, 175 37.59 S 178.51 37.93, 180 37.72 S 183.5 36.24, 185 36.18 S 188.52 37.11, 190 37.33 S 193.5 37.66, 195 37.65 S 198.5 37.34, 200 37.28 S 203.5 37.24, 205 37.22"
          fill="none"/>
    <circle r="4" cx="5" cy="40" fill="#3023AE"/>
    <circle r="4" cx="205" cy="37.22" fill="#C86DD7"/>      
</svg>