<svg width="200" height="50" viewBox="0 0 210 50" xmlns="http://www.w3.org/2000/svg">
    <defs>
        <linearGradient x1="0%" y1="0%" x2="100%" y2="0%" id="a">
            <stop stop-color="#3023AE" offset="0%"/>
            <stop stop-color="#C86DD7" offset="100%"/>
        </linearGradient>
    </defs>
    <path stroke="url(#a)"
          stroke-width="3"
          stroke-linejoin="round"
          stroke-linecap="round"
          d="M5 40 C 6.48 39.78, 8.52 39.47, 10 39.25 S 13.5 38.5, 15 38.5 S 18.5 39.14, 20 39.25 S 23.5 39.25, 25 39.25 S 28.5 39.25, 30 39.25 S 33.5 39.25, 35 39.25 S 38.5 39.25, 40 39.25 S 43.5 39.25, 45 39.25 S 48.5 39.25, 50 39.25 S 53.5 39.25, 55 39.25 S 58.5 39.25, 60 39.25 S 63.5 39.25, 65 39.25 S 68.5 39.36, 70 39.25 S 73.5 38.5, 75 38.5 S 78.5 39.14, 80 39.25 S 83.5 39.25, 85 39.25 S 88.5 39.25, 90 39.25 S 93.5 39.25, 95 39.25 S 98.5 39.25, 100 39.25 S 103.5 39.25, 105 39.25 S 108.5 39.25, 110 39.25 S 113.5 39.25, 115 39.25 S 118.52 39.47, 120 39.25 S 123.5 37.86, 125 37.75 S 128.52 38.28, 130 38.5 S 133.5 39.14, 135 39.25 S 138.5 39.25, 140 39.25 S 143.5 39.25, 145 39.25 S 149.51 40.67, 150 39.25 S 153.67 10.7, 155 10 S 159.51 32.58, 160 34 S 163.52 39.03, 165 39.25 S 168.54 35.83, 170 35.5 S 173.56 36.57, 175 37 S 178.52 38.28, 180 38.5 S 183.5 38.5, 185 38.5 S 188.5 38.39, 190 38.5 S 193.5 39.14, 195 39.25 S 198.5 39.25, 200 39.25"
          fill="none"/>
    <circle r="4" cx="5" cy="40" fill="#3023AE"/>
    <circle r="4" cx="200" cy="39.25" fill="#C86DD7"/>      
</svg>