<svg width="200" height="50" viewBox="0 0 210 50" xmlns="http://www.w3.org/2000/svg">
    <defs>
        <linearGradient x1="0%" y1="0%" x2="100%" y2="0%" id="a">
            <stop stop-color="#3023AE" offset="0%"/>
            <stop stop-color="#C86DD7" offset="100%"/>
        </linearGradient>
    </defs>
    <path stroke="url(#a)"
          stroke-width="3"
          stroke-linejoin="round"
          stroke-linecap="round"
          d="M5 40 C 6.32 39.28, 9.11 38.48, 10 37.27 S 14.38 27.72, 15 26.36 S 18.68 14.73, 20 15.45 S 23.68 31.1, 25 31.82 S 28.5 20.91, 30 20.91 S 33.5 31.82, 35 31.82 S 38.68 21.63, 40 20.91 S 43.55 25.96, 45 26.36 S 48.55 24.03, 50 23.64 S 53.68 22.92, 55 23.64 S 58.5 29.09, 60 29.09 S 63.68 24.36, 65 23.64 S 68.55 23.25, 70 23.64 S 73.99 25.25, 75 26.36 S 78.84 35.5, 80 34.55 S 83.68 18.9, 85 18.18 S 88.99 27.98, 90 29.09 S 93.55 29.49, 95 29.09 S 98.5 26.36, 100 26.36 S 103.55 29.48, 105 29.09 S 109.22 24.92, 110 23.64 S 113.55 12.34, 115 12.73 S 118.55 25.97, 120 26.36 S 124.11 16.66, 125 15.45 S 128.84 11.78, 130 12.73 S 133.55 24.04, 135 23.64 S 138.5 10, 140 10 S 143.99 22.53, 145 23.64 S 148.68 21.63, 150 20.91 S 153.84 19.13, 155 18.18 S 158.84 13.68, 160 12.73 S 163.55 9.61, 165 10 S 168.55 15.05, 170 15.45 S 173.55 12.33, 175 12.73 S 178.99 17.07, 180 18.18 S 183.55 23.24, 185 23.64 S 188.84 21.86, 190 20.91 S 193.5 15.45, 195 15.45 S 198.55 20.51, 200 20.91 S 203.68 18.9, 205 18.18"
          fill="none"/>
    <circle r="4" cx="5" cy="40" fill="#3023AE"/>
    <circle r="4" cx="205" cy="18.18" fill="#C86DD7"/>      
</svg>