<svg width="200" height="50" viewBox="0 0 210 50" xmlns="http://www.w3.org/2000/svg">
    <defs>
        <linearGradient x1="0%" y1="0%" x2="100%" y2="0%" id="a">
            <stop stop-color="#3023AE" offset="0%"/>
            <stop stop-color="#C86DD7" offset="100%"/>
        </linearGradient>
    </defs>
    <path stroke="url(#a)"
          stroke-width="3"
          stroke-linejoin="round"
          stroke-linecap="round"
          d="M5 40 C 6.5 39.99, 9.53 41.4, 10 39.98 S 13.58 10.49, 15 10 S 19.5 35.09, 20 36.51 S 23.54 38.07, 25 38.43 S 28.5 38.94, 30 39 S 33.5 38.87, 35 38.86 S 38.5 39.02, 40 38.91 S 43.5 38.13, 45 38.12 S 48.51 38.71, 50 38.85 S 53.5 39.09, 55 39.05 S 58.5 38.58, 60 38.6 S 63.5 39.15, 65 39.21 S 68.5 38.99, 70 39 S 73.5 39.29, 75 39.3 S 78.5 39.08, 80 39.08 S 83.5 39.29, 85 39.32 S 88.5 39.22, 90 39.25 S 93.5 39.46, 95 39.49 S 98.5 39.46, 100 39.43 S 103.5 39.33, 105 39.3 S 108.5 39.26, 110 39.26 S 113.5 39.3, 115 39.29 S 118.5 39.19, 120 39.2 S 123.5 39.35, 125 39.38 S 128.5 39.43, 130 39.43 S 133.5 39.4, 135 39.39 S 138.5 39.34, 140 39.35 S 143.5 39.42, 145 39.43 S 148.5 39.4, 150 39.4 S 153.5 39.46, 155 39.45 S 158.5 39.37, 160 39.32 S 163.5 39.08, 165 39.1 S 168.5 39.44, 170 39.48 S 173.5 39.36, 175 39.36 S 178.5 39.44, 180 39.48 S 183.5 39.61, 185 39.61 S 188.5 39.51, 190 39.5 S 193.5 39.54, 195 39.53 S 198.5 39.47, 200 39.45 S 203.5 39.41, 205 39.39"
          fill="none"/>
    <circle r="4" cx="5" cy="40" fill="#3023AE"/>
    <circle r="4" cx="205" cy="39.39" fill="#C86DD7"/>      
</svg>