<svg width="200" height="50" viewBox="0 0 210 50" xmlns="http://www.w3.org/2000/svg">
    <defs>
        <linearGradient x1="0%" y1="0%" x2="100%" y2="0%" id="a">
            <stop stop-color="#3023AE" offset="0%"/>
            <stop stop-color="#C86DD7" offset="100%"/>
        </linearGradient>
    </defs>
    <path stroke="url(#a)"
          stroke-width="3"
          stroke-linejoin="round"
          stroke-linecap="round"
          d="M5 40 C 5.33 38.54, 9.37 18.86, 10 17.5 S 14.03 17.43, 15 18.57 S 18.86 28.31, 20 29.29 S 23.62 27.73, 25 27.14 S 28.98 26.1, 30 25 S 33.8 15.53, 35 16.43 S 39.28 31.19, 40 32.5 S 43.57 35.1, 45 34.64 S 48.74 30.1, 50 29.29 S 53.5 28.21, 55 28.21 S 58.68 30, 60 29.29 S 63.57 23.32, 65 22.86 S 68.86 25.09, 70 26.07 S 73.68 30.72, 75 31.43 S 78.68 32.14, 80 31.43 S 83.51 26.23, 85 26.07 S 88.53 30.67, 90 30.36 S 93.8 24.83, 95 23.93 S 99.13 24.08, 100 22.86 S 103.53 10.32, 105 10 S 108.5 20.71, 110 20.71 S 113.5 10, 115 10 S 119.24 19.41, 120 20.71 S 123.62 26.55, 125 27.14 S 128.98 26.1, 130 25 S 133.53 16.74, 135 16.43 S 138.98 21.76, 140 22.86 S 143.62 26.55, 145 27.14 S 148.8 28.04, 150 27.14 S 154.24 20.94, 155 19.64 S 158.57 10.46, 160 10 S 163.92 15.39, 165 16.43 S 169.17 18.39, 170 19.64 S 173.86 30.45, 175 31.43 S 179.03 29.35, 180 28.21 S 184.08 20.82, 185 19.64 S 188.62 14.77, 190 15.36 S 193.5 23.93, 195 23.93 S 198.51 15.2, 200 15.36 S 204.31 23.67, 205 25"
          fill="none"/>
    <circle r="4" cx="5" cy="40" fill="#3023AE"/>
    <circle r="4" cx="205" cy="25" fill="#C86DD7"/>      
</svg>