<svg width="200" height="50" viewBox="0 0 210 50" xmlns="http://www.w3.org/2000/svg">
    <defs>
        <linearGradient x1="0%" y1="0%" x2="100%" y2="0%" id="a">
            <stop stop-color="#3023AE" offset="0%"/>
            <stop stop-color="#C86DD7" offset="100%"/>
        </linearGradient>
    </defs>
    <path stroke="url(#a)"
          stroke-width="3"
          stroke-linejoin="round"
          stroke-linecap="round"
          d="M5 40 C 6.06 38.94, 9.17 36.25, 10 35 S 14.17 26.25, 15 25 S 18.66 19.33, 20 20 S 23.66 30.67, 25 30 S 29.33 16.34, 30 15 S 33.5 10, 35 10 S 39.17 13.75, 40 15 S 44.17 23.75, 45 25 S 48.94 28.94, 50 30 S 53.66 34.33, 55 35 S 58.5 35, 60 35 S 63.5 35, 65 35 S 68.5 35, 70 35 S 73.5 35, 75 35 S 78.5 35, 80 35 S 83.5 35, 85 35 S 88.5 35, 90 35 S 93.5 35, 95 35 S 98.5 35, 100 35 S 103.5 35, 105 35 S 108.5 35, 110 35 S 113.5 35, 115 35 S 118.5 35, 120 35 S 123.5 35, 125 35 S 128.66 35.67, 130 35 S 133.5 30, 135 30 S 138.66 34.33, 140 35 S 143.5 35, 145 35 S 148.5 35, 150 35 S 153.94 36.06, 155 35 S 158.5 25, 160 25 S 163.94 33.94, 165 35 S 168.5 35, 170 35 S 173.5 35, 175 35 S 178.5 35, 180 35 S 183.5 35, 185 35 S 188.5 35, 190 35"
          fill="none"/>
    <circle r="4" cx="5" cy="40" fill="#3023AE"/>
    <circle r="4" cx="190" cy="35" fill="#C86DD7"/>      
</svg>