<svg width="200" height="50" viewBox="0 0 210 50" xmlns="http://www.w3.org/2000/svg">
    <defs>
        <linearGradient x1="0%" y1="0%" x2="100%" y2="0%" id="a">
            <stop stop-color="#3023AE" offset="0%"/>
            <stop stop-color="#C86DD7" offset="100%"/>
        </linearGradient>
    </defs>
    <path stroke="url(#a)"
          stroke-width="3"
          stroke-linejoin="round"
          stroke-linecap="round"
          d="M5 40 C 5.25 38.52, 8.84 10.95, 10 10 S 14.43 30.47, 15 31.86 S 18.58 34.05, 20 34.53 S 23.53 35.51, 25 35.23 S 28.53 32.9, 30 32.6 S 34 34.3, 35 33.18 S 38.52 21.59, 40 21.34 S 43.59 30.99, 45 31.49 S 48.5 24.97, 50 24.88 S 53.57 30.46, 55 30.92 S 58.58 28.6, 60 28.12 S 63.59 27, 65 27.51 S 68.53 31.41, 70 31.7 S 73.83 30.42, 75 29.48 S 78.54 24.01, 80 23.68 S 83.7 26.46, 85 27.22 S 88.62 28.93, 90 29.52 S 93.5 31.46, 95 31.53 S 98.5 30.08, 100 29.97 S 103.53 30.51, 105 30.79 S 108.54 31.57, 110 31.9 S 113.52 32.75, 115 33.01 S 118.5 33.65, 120 33.63 S 123.51 32.7, 125 32.85 S 128.51 34.47, 130 34.66 S 133.5 34.18, 135 34.16 S 138.53 34.23, 140 34.53 S 144.02 37.31, 145 36.18 S 148.61 23.56, 150 22.99 S 154.02 30.89, 155 32.03 S 158.56 34.24, 160 34.66 S 163.5 34.92, 165 34.95 S 168.5 34.98, 170 34.86 S 173.5 34.23, 175 34.16 S 178.5 34.33, 180 34.37 S 183.5 34.4, 185 34.41 S 188.5 34.33, 190 34.41 S 193.52 34.71, 195 34.95 S 198.5 35.95, 200 36.01 S 203.51 35.55, 205 35.36"
          fill="none"/>
    <circle r="4" cx="5" cy="40" fill="#3023AE"/>
    <circle r="4" cx="205" cy="35.36" fill="#C86DD7"/>      
</svg>