<svg width="200" height="50" viewBox="0 0 210 50" xmlns="http://www.w3.org/2000/svg">
    <defs>
        <linearGradient x1="0%" y1="0%" x2="100%" y2="0%" id="a">
            <stop stop-color="#3023AE" offset="0%"/>
            <stop stop-color="#C86DD7" offset="100%"/>
        </linearGradient>
    </defs>
    <path stroke="url(#a)"
          stroke-width="3"
          stroke-linejoin="round"
          stroke-linecap="round"
          d="M5 40 C 5.91 38.81, 9.02 34.62, 10 33.49 S 13.81 29.41, 15 28.5 S 18.58 25.32, 20 25.8 S 23.54 32.2, 25 31.86 S 29.07 24.68, 30 23.5 S 34.11 20.35, 35 19.14 S 38.54 10.36, 40 10 S 43.57 16.22, 45 16.66 S 48.51 13.23, 50 13.07 S 53.92 14.55, 55 15.59 S 58.78 21.78, 60 22.65 S 63.51 22.56, 65 22.76 S 68.71 23.22, 70 23.98 S 73.53 28.32, 75 28.64 S 78.6 26.72, 80 26.17 S 83.5 24.7, 85 24.72 S 88.6 25.73, 90 26.28 S 93.63 28.03, 95 28.64 S 98.53 30.43, 100 30.72 S 103.52 30.39, 105 30.64 S 108.51 32.23, 110 32.38 S 113.52 31.87, 115 31.64 S 118.51 30.68, 120 30.86 S 123.53 32.52, 125 32.82 S 128.5 32.81, 130 32.93 S 133.52 33.35, 135 33.6 S 138.51 34.46, 140 34.64 S 143.51 34.65, 145 34.82 S 148.5 35.87, 150 35.75 S 153.53 34.36, 155 34.04 S 158.51 33.44, 160 33.56 S 163.52 34.6, 165 34.86 S 168.5 35.28, 170 35.3 S 173.5 34.86, 175 34.97 S 178.51 35.89, 180 36.04 S 183.64 36.63, 185 36 S 188.51 31.65, 190 31.45 S 193.64 34.04, 195 34.67 S 198.54 35.75, 200 36.08 S 203.52 36.65, 205 36.89"
          fill="none"/>
    <circle r="4" cx="5" cy="40" fill="#3023AE"/>
    <circle r="4" cx="205" cy="36.89" fill="#C86DD7"/>      
</svg>