<svg width="200" height="50" viewBox="0 0 210 50" xmlns="http://www.w3.org/2000/svg">
    <defs>
        <linearGradient x1="0%" y1="0%" x2="100%" y2="0%" id="a">
            <stop stop-color="#3023AE" offset="0%"/>
            <stop stop-color="#C86DD7" offset="100%"/>
        </linearGradient>
    </defs>
    <path stroke="url(#a)"
          stroke-width="3"
          stroke-linejoin="round"
          stroke-linecap="round"
          d="M5 40 C 5.25 38.52, 8.56 10.42, 10 10 S 14.52 35.7, 15 37.12 S 18.54 39.08, 20 39.42 S 23.51 39.59, 25 39.42 S 28.5 38.27, 30 38.27 S 33.51 39.25, 35 39.42 S 38.5 39.42, 40 39.42 S 43.5 39.42, 45 39.42 S 48.5 39.42, 50 39.42 S 53.5 39.42, 55 39.42 S 58.52 39.68, 60 39.42 S 63.5 37.69, 65 37.69 S 68.52 39.16, 70 39.42 S 73.5 39.42, 75 39.42 S 78.5 39.42, 80 39.42 S 83.5 39.42, 85 39.42 S 88.5 39.42, 90 39.42 S 93.5 39.42, 95 39.42 S 98.51 39.59, 100 39.42 S 103.5 38.27, 105 38.27 S 108.51 39.25, 110 39.42 S 113.5 39.42, 115 39.42 S 118.5 39.42, 120 39.42 S 123.5 39.42, 125 39.42 S 128.5 39.42, 130 39.42 S 133.5 39.42, 135 39.42 S 138.5 39.42, 140 39.42 S 143.5 39.51, 145 39.42 S 148.5 38.85, 150 38.85 S 153.5 39.33, 155 39.42 S 158.5 39.42, 160 39.42 S 163.52 39.68, 165 39.42 S 168.5 37.69, 170 37.69 S 173.51 39.25, 175 39.42 S 178.51 39.02, 180 38.85 S 183.5 38.18, 185 38.27 S 188.51 39.25, 190 39.42 S 193.5 39.42, 195 39.42 S 198.5 39.51, 200 39.42 S 203.51 39.02, 205 38.85"
          fill="none"/>
    <circle r="4" cx="5" cy="40" fill="#3023AE"/>
    <circle r="4" cx="205" cy="38.85" fill="#C86DD7"/>      
</svg>