<svg width="200" height="50" viewBox="0 0 210 50" xmlns="http://www.w3.org/2000/svg">
    <defs>
        <linearGradient x1="0%" y1="0%" x2="100%" y2="0%" id="a">
            <stop stop-color="#3023AE" offset="0%"/>
            <stop stop-color="#C86DD7" offset="100%"/>
        </linearGradient>
    </defs>
    <path stroke="url(#a)"
          stroke-width="3"
          stroke-linejoin="round"
          stroke-linecap="round"
          d="M5 40 C 5.29 38.53, 8.64 15.18, 10 14.56 S 14.38 34.05, 15 35.42 S 18.5 36.78, 20 36.78 S 23.53 35.72, 25 35.42 S 28.52 35, 30 34.73 S 33.63 34.23, 35 33.62 S 38.8 31.18, 40 30.28 S 43.54 26.51, 45 26.15 S 49.21 29.1, 50 27.82 S 53.59 10.5, 55 10 S 59.24 22.96, 60 24.25 S 63.61 26.44, 65 27.01 S 68.52 28.58, 70 28.35 S 73.53 25.75, 75 25.44 S 78.5 26.14, 80 26.25 S 83.58 26.65, 85 26.18 S 89.08 24.13, 90 22.94 S 93.75 14.12, 95 13.29 S 98.59 15.75, 100 16.25 S 103.63 17.43, 105 16.81 S 108.5 11.86, 110 11.75 S 113.63 15.49, 115 16.1 S 118.67 15.54, 120 16.23 S 123.75 20.46, 125 21.29 S 128.58 22.43, 130 22.91 S 133.51 24.44, 135 24.63 S 138.63 24.8, 140 24.18 S 143.59 20.61, 145 20.1 S 148.56 20.09, 150 20.53 S 153.71 22.37, 155 23.14 S 158.54 26.18, 160 26.53 S 163.5 25.48, 165 25.52 S 168.54 26.45, 170 26.78 S 173.5 27.85, 175 27.75 S 178.6 26.68, 180 26.13 S 183.5 23.76, 185 23.85 S 188.52 26.97, 190 26.73 S 193.53 22.55, 195 22.25 S 198.5 24.65, 200 24.66 S 203.64 22.94, 205 22.3"
          fill="none"/>
    <circle r="4" cx="5" cy="40" fill="#3023AE"/>
    <circle r="4" cx="205" cy="22.3" fill="#C86DD7"/>      
</svg>