<svg width="200" height="50" viewBox="0 0 210 50" xmlns="http://www.w3.org/2000/svg">
    <defs>
        <linearGradient x1="0%" y1="0%" x2="100%" y2="0%" id="a">
            <stop stop-color="#3023AE" offset="0%"/>
            <stop stop-color="#C86DD7" offset="100%"/>
        </linearGradient>
    </defs>
    <path stroke="url(#a)"
          stroke-width="3"
          stroke-linejoin="round"
          stroke-linecap="round"
          d="M5 40 C 6.48 39.76, 8.5 39.25, 10 39.2 S 13.5 39.66, 15 39.68 S 18.5 39.35, 20 39.36 S 23.5 39.74, 25 39.76 S 28.5 39.5, 30 39.52 S 33.5 39.91, 35 39.92 S 38.5 39.65, 40 39.6 S 43.5 39.62, 45 39.6 S 48.5 39.55, 50 39.44 S 53.5 38.98, 55 38.89 S 58.63 39.43, 60 38.81 S 63.58 34.83, 65 34.35 S 68.5 35.57, 70 35.46 S 73.53 33.91, 75 33.63 S 78.87 34.54, 80 33.55 S 84.41 26.26, 85 24.88 S 88.5 10.01, 90 10 S 94.22 23.52, 95 24.8 S 98.51 26.41, 100 26.55 S 103.51 25.96, 105 25.76 S 108.58 25.69, 110 25.2 S 113.53 22.62, 115 22.33 S 118.81 24.13, 120 23.21 S 124.01 15.75, 125 14.62 S 128.57 11.3, 130 11.75 S 134.05 16.64, 135 17.8 S 138.74 23.12, 140 23.93 S 143.57 24.69, 145 24.24 S 148.52 21.09, 150 20.82 S 153.61 21.85, 155 22.41 S 158.5 24.84, 160 24.88 S 163.79 23.54, 165 22.65 S 168.7 18.31, 170 17.56 S 173.5 17.03, 175 16.92 S 178.64 16.2, 180 16.84 S 183.55 21.99, 185 21.62 S 188.61 14.85, 190 14.3 S 193.54 17.31, 195 17.64 S 198.5 16.6, 200 16.53 S 203.51 16.97, 205 17.16"
          fill="none"/>
    <circle r="4" cx="5" cy="40" fill="#3023AE"/>
    <circle r="4" cx="205" cy="17.16" fill="#C86DD7"/>      
</svg>