<svg width="200" height="50" viewBox="0 0 210 50" xmlns="http://www.w3.org/2000/svg">
    <defs>
        <linearGradient x1="0%" y1="0%" x2="100%" y2="0%" id="a">
            <stop stop-color="#3023AE" offset="0%"/>
            <stop stop-color="#C86DD7" offset="100%"/>
        </linearGradient>
    </defs>
    <path stroke="url(#a)"
          stroke-width="3"
          stroke-linejoin="round"
          stroke-linecap="round"
          d="M5 40 C 5.45 38.57, 9.42 25.32, 10 23.94 S 13.92 15.17, 15 16.21 S 19.27 32.24, 20 33.55 S 23.5 34.1, 25 34.12 S 28.5 33.59, 30 33.68 S 33.54 34.37, 35 34.71 S 38.51 35.83, 40 35.99 S 43.5 35.87, 45 35.79 S 48.5 35.5, 50 35.44 S 53.5 35.41, 55 35.36 S 59.45 36.49, 60 35.09 S 63.65 10.65, 65 10 S 69.33 28.96, 70 30.3 S 73.5 29.97, 75 30.01 S 78.51 30.39, 80 30.59 S 83.52 31.59, 85 31.36 S 88.5 29.05, 90 29.03 S 93.61 30.67, 95 31.24 S 98.51 33.06, 100 33.18 S 103.52 32.29, 105 32.07 S 108.5 31.77, 110 31.72 S 113.54 32.06, 115 31.73 S 118.5 29.53, 120 29.46 S 123.53 30.97, 125 31.26 S 128.5 31.41, 130 31.41 S 133.5 31.39, 135 31.29 S 138.51 30.89, 140 30.75 S 143.5 30.31, 145 30.34 S 148.51 30.77, 150 30.93 S 153.51 31.61, 155 31.4 S 159.07 30.7, 160 29.52 S 163.51 18.57, 165 18.75 S 169.09 29.57, 170 30.76 S 173.51 31.77, 175 31.92 S 178.52 31.56, 180 31.79 S 183.5 33.37, 185 33.45 S 188.5 32.38, 190 32.3 S 193.5 33.01, 195 32.93 S 198.52 32, 200 31.77 S 203.5 31.51, 205 31.4"
          fill="none"/>
    <circle r="4" cx="5" cy="40" fill="#3023AE"/>
    <circle r="4" cx="205" cy="31.4" fill="#C86DD7"/>      
</svg>