<svg width="200" height="50" viewBox="0 0 210 50" xmlns="http://www.w3.org/2000/svg">
    <defs>
        <linearGradient x1="0%" y1="0%" x2="100%" y2="0%" id="a">
            <stop stop-color="#3023AE" offset="0%"/>
            <stop stop-color="#C86DD7" offset="100%"/>
        </linearGradient>
    </defs>
    <path stroke="url(#a)"
          stroke-width="3"
          stroke-linejoin="round"
          stroke-linecap="round"
          d="M5 40 C 6.11 38.99, 9.53 36.84, 10 35.42 S 13.52 10.23, 15 10 S 19.46 32.5, 20 33.9 S 23.59 35.43, 25 35.93 S 28.65 38.11, 30 37.46 S 33.5 31.1, 35 31.1 S 38.72 36.68, 40 37.46 S 43.94 38.26, 45 37.2 S 48.7 28.3, 50 27.54 S 53.88 30.36, 55 31.36 S 58.78 35.57, 60 36.44 S 63.51 38.32, 65 38.47 S 68.5 37.5, 70 37.46 S 73.51 38.03, 75 38.22 S 78.5 38.81, 80 38.73 S 83.5 37.75, 85 37.71 S 88.5 38.43, 90 38.47 S 93.5 38.04, 95 37.97 S 98.5 38.05, 100 37.97 S 103.51 37.61, 105 37.46 S 108.52 36.72, 110 36.95 S 113.53 38.68, 115 38.98 S 118.52 39.21, 120 38.98 S 123.5 37.46, 125 37.46 S 128.51 38.79, 130 38.98 S 133.5 38.84, 135 38.73 S 138.52 38.45, 140 38.22 S 143.52 37.43, 145 37.2 S 148.5 36.69, 150 36.69 S 153.51 37.35, 155 37.2 S 158.55 36.05, 160 35.68 S 163.51 34.47, 165 34.66 S 168.57 36.51, 170 36.95 S 173.55 37.34, 175 37.71 S 178.51 39.3, 180 39.49 S 183.61 39.55, 185 38.98 S 188.52 35.68, 190 35.42 S 193.52 36.97, 195 37.2 S 198.51 37.1, 200 36.95 S 203.52 36.42, 205 36.19"
          fill="none"/>
    <circle r="4" cx="5" cy="40" fill="#3023AE"/>
    <circle r="4" cx="205" cy="36.19" fill="#C86DD7"/>      
</svg>