<svg width="200" height="50" viewBox="0 0 210 50" xmlns="http://www.w3.org/2000/svg">
    <defs>
        <linearGradient x1="0%" y1="0%" x2="100%" y2="0%" id="a">
            <stop stop-color="#3023AE" offset="0%"/>
            <stop stop-color="#C86DD7" offset="100%"/>
        </linearGradient>
    </defs>
    <path stroke="url(#a)"
          stroke-width="3"
          stroke-linejoin="round"
          stroke-linecap="round"
          d="M5 40 C 6.46 39.65, 8.5 38.83, 10 38.8 S 13.5 39.74, 15 39.8 S 18.5 39.18, 20 39.2 S 23.5 39.83, 25 39.93 S 28.5 39.89, 30 39.87 S 33.5 39.83, 35 39.8 S 38.5 39.67, 40 39.67 S 43.5 39.76, 45 39.8 S 48.5 39.91, 50 39.93 S 53.5 39.93, 55 39.93 S 58.5 39.93, 60 39.93 S 63.5 39.93, 65 39.93 S 68.5 40, 70 39.93 S 73.5 39.47, 75 39.47 S 78.5 39.86, 80 39.93 S 83.5 39.93, 85 39.93 S 88.5 39.93, 90 39.93 S 93.5 39.93, 95 39.93 S 98.5 39.95, 100 39.93 S 103.5 39.8, 105 39.8 S 109.52 41.35, 110 39.93 S 113.73 10.79, 115 10 S 119.51 32.31, 120 33.73 S 123.68 37.96, 125 38.67 S 128.5 39.02, 130 39.13 S 133.5 39.38, 135 39.4 S 138.5 39.29, 140 39.27 S 143.5 39.23, 145 39.27 S 148.5 39.57, 150 39.53 S 153.5 38.97, 155 39 S 158.51 39.6, 160 39.73 S 163.5 39.88, 165 39.87 S 168.5 39.71, 170 39.67 S 173.5 39.61, 175 39.6 S 178.5 39.63, 180 39.6 S 183.5 39.4, 185 39.4 S 188.5 39.53, 190 39.6 S 193.5 39.86, 195 39.87 S 198.5 39.74, 200 39.67 S 203.5 39.48, 205 39.4"
          fill="none"/>
    <circle r="4" cx="5" cy="40" fill="#3023AE"/>
    <circle r="4" cx="205" cy="39.4" fill="#C86DD7"/>      
</svg>