<svg width="200" height="50" viewBox="0 0 210 50" xmlns="http://www.w3.org/2000/svg">
    <defs>
        <linearGradient x1="0%" y1="0%" x2="100%" y2="0%" id="a">
            <stop stop-color="#3023AE" offset="0%"/>
            <stop stop-color="#C86DD7" offset="100%"/>
        </linearGradient>
    </defs>
    <path stroke="url(#a)"
          stroke-width="3"
          stroke-linejoin="round"
          stroke-linecap="round"
          d="M5 40 C 5.53 38.6, 9.29 28.1, 10 26.78 S 13.91 20.46, 15 21.49 S 19.02 37.43, 20 36.3 S 23.52 9.77, 25 10 S 29.52 36.42, 30 37.84 S 33.57 40.35, 35 39.9 S 39.2 35.98, 40 34.71 S 43.67 24.74, 45 24.04 S 48.57 29.02, 50 29.47 S 53.51 27.38, 55 27.21 S 58.63 28.93, 60 28.32 S 63.96 23.88, 65 22.79 S 68.62 18.42, 70 17.84 S 73.56 18.19, 75 18.61 S 78.59 20.22, 80 20.72 S 83.51 21.97, 85 22.16 S 88.5 21.96, 90 21.97 S 93.63 22.82, 95 22.21 S 98.78 18.42, 100 17.55 S 103.5 15.02, 105 15.1 S 108.67 17.39, 110 18.08 S 113.58 19.79, 115 20.29 S 118.5 21.67, 120 21.59 S 123.51 19.9, 125 19.76 S 128.56 20.2, 130 20.62 S 133.58 22.22, 135 22.69 S 138.63 23.34, 140 23.94 S 143.58 26.57, 145 27.07 S 148.5 27.42, 150 27.45 S 153.5 27.27, 155 27.26 S 158.58 26.89, 160 27.36 S 163.52 30.32, 165 30.58 S 168.5 29.1, 170 29.09 S 173.54 30.2, 175 30.53 S 178.5 31.26, 180 31.35 S 183.5 31.24, 185 31.15 S 188.51 30.91, 190 30.77 S 193.5 30.18, 195 30.24 S 198.51 30.96, 200 31.15 S 203.5 31.42, 205 31.54"
          fill="none"/>
    <circle r="4" cx="5" cy="40" fill="#3023AE"/>
    <circle r="4" cx="205" cy="31.54" fill="#C86DD7"/>      
</svg>