<svg width="200" height="50" viewBox="0 0 210 50" xmlns="http://www.w3.org/2000/svg">
    <defs>
        <linearGradient x1="0%" y1="0%" x2="100%" y2="0%" id="a">
            <stop stop-color="#3023AE" offset="0%"/>
            <stop stop-color="#C86DD7" offset="100%"/>
        </linearGradient>
    </defs>
    <path stroke="url(#a)"
          stroke-width="3"
          stroke-linejoin="round"
          stroke-linecap="round"
          d="M5 40 C 6.5 39.88, 8.5 39.66, 10 39.6 S 13.5 39.72, 15 39.6 S 18.63 39.4, 20 38.8 S 23.52 35.44, 25 35.2 S 28.57 36.74, 30 37.2 S 33.5 38.34, 35 38.4 S 38.52 37.84, 40 37.6 S 43.51 36.98, 45 36.8 S 48.56 36, 50 36.4 S 53.51 39.78, 55 39.6 S 58.59 35.71, 60 35.2 S 63.5 36.12, 65 36 S 68.5 34.46, 70 34.4 S 74.18 36.85, 75 35.6 S 78.5 19.32, 80 19.2 S 83.9 35.82, 85 34.8 S 88.57 10.46, 90 10 S 94.41 30.22, 95 31.6 S 98.65 32.55, 100 33.2 S 103.53 36.69, 105 36.4 S 108.51 31.38, 110 31.2 S 113.5 35.2, 115 35.2 S 118.5 31.08, 120 31.2 S 123.67 35.31, 125 36 S 128.54 36.75, 130 36.4 S 133.5 33.72, 135 33.6 S 138.5 35.6, 140 35.6 S 143.51 33.42, 145 33.6 S 148.5 36.86, 150 36.8 S 153.69 33.93, 155 33.2 S 158.57 30.74, 160 31.2 S 163.69 35.67, 165 36.4 S 168.52 36.56, 170 36.8 S 173.51 37.82, 175 38 S 178.53 38.29, 180 38 S 183.5 36.06, 185 36 S 188.5 37.54, 190 37.6 S 193.52 36.64, 195 36.4 S 198.5 36.06, 200 36 S 203.5 36, 205 36"
          fill="none"/>
    <circle r="4" cx="5" cy="40" fill="#3023AE"/>
    <circle r="4" cx="205" cy="36" fill="#C86DD7"/>      
</svg>