<svg width="200" height="50" viewBox="0 0 210 50" xmlns="http://www.w3.org/2000/svg">
    <defs>
        <linearGradient x1="0%" y1="0%" x2="100%" y2="0%" id="a">
            <stop stop-color="#3023AE" offset="0%"/>
            <stop stop-color="#C86DD7" offset="100%"/>
        </linearGradient>
    </defs>
    <path stroke="url(#a)"
          stroke-width="3"
          stroke-linejoin="round"
          stroke-linecap="round"
          d="M5 40 C 6.21 39.11, 8.5 36.45, 10 36.34 S 13.56 38.85, 15 39.27 S 18.5 39.27, 20 39.27 S 23.5 39.27, 25 39.27 S 28.5 39.27, 30 39.27 S 33.5 39.27, 35 39.27 S 38.5 39.27, 40 39.27 S 43.5 39.27, 45 39.27 S 48.5 39.38, 50 39.27 S 53.5 38.65, 55 38.54 S 58.5 38.43, 60 38.54 S 63.54 39.59, 65 39.27 S 68.5 36.45, 70 36.34 S 73.56 38.12, 75 38.54 S 78.5 39.16, 80 39.27 S 83.52 39.49, 85 39.27 S 88.99 38.91, 90 37.8 S 93.63 28.89, 95 28.29 S 98.83 32.47, 100 33.41 S 103.67 35.66, 105 36.34 S 108.5 38.54, 110 38.54 S 113.5 36.23, 115 36.34 S 118.54 38.95, 120 39.27 S 123.54 38.86, 125 38.54 S 128.63 37.67, 130 37.07 S 133.52 34.37, 135 34.15 S 138.59 35.1, 140 35.61 S 143.52 37.58, 145 37.8 S 148.52 37.29, 150 37.07 S 153.54 36.02, 155 36.34 S 158.63 39.87, 160 39.27 S 163.5 32.06, 165 31.95 S 168.66 37.86, 170 38.54 S 173.56 37.49, 175 37.07 S 179.48 37.02, 180 35.61 S 183.5 10.11, 185 10 S 189.49 33.47, 190 34.88 S 193.52 38.02, 195 37.8 S 198.63 34.01, 200 33.41 S 203.5 33.41, 205 33.41"
          fill="none"/>
    <circle r="4" cx="5" cy="40" fill="#3023AE"/>
    <circle r="4" cx="205" cy="33.41" fill="#C86DD7"/>      
</svg>