<svg width="200" height="50" viewBox="0 0 210 50" xmlns="http://www.w3.org/2000/svg">
    <defs>
        <linearGradient x1="0%" y1="0%" x2="100%" y2="0%" id="a">
            <stop stop-color="#3023AE" offset="0%"/>
            <stop stop-color="#C86DD7" offset="100%"/>
        </linearGradient>
    </defs>
    <path stroke="url(#a)"
          stroke-width="3"
          stroke-linejoin="round"
          stroke-linecap="round"
          d="M5 40 C 6.5 39.99, 8.5 39.96, 10 39.96 S 14.53 41.41, 15 39.99 S 18.78 10.87, 20 10 S 24.49 31.51, 25 32.92 S 28.56 37.11, 30 37.53 S 33.5 35.77, 35 35.81 S 38.56 37.39, 40 37.8 S 43.51 38.42, 45 38.63 S 48.51 39.08, 50 39.21 S 53.5 39.48, 55 39.52 S 58.5 39.5, 60 39.49 S 63.5 39.49, 65 39.46 S 68.5 39.27, 70 39.26 S 73.5 39.33, 75 39.38 S 78.5 39.57, 80 39.59 S 83.5 39.49, 85 39.49 S 88.5 39.54, 90 39.56 S 93.58 40.1, 95 39.61 S 99.05 37.27, 100 36.11 S 103.51 27.49, 105 27.36 S 108.97 34.14, 110 35.23 S 113.53 37.67, 115 37.97 S 118.5 37.25, 120 37.28 S 123.5 38.04, 125 38.16 S 128.51 37.95, 130 38.09 S 133.51 38.96, 135 39.09 S 138.5 38.99, 140 38.93 S 143.5 38.74, 145 38.7 S 148.5 38.57, 150 38.65 S 153.5 39.18, 155 39.24 S 158.5 39.05, 160 39.04 S 163.68 39.89, 165 39.17 S 168.52 33.84, 170 33.57 S 173.68 36.65, 175 37.36 S 178.54 39.25, 180 38.92 S 183.5 35.2, 185 35.09 S 188.52 37.95, 190 38.21 S 193.51 36.98, 195 36.84 S 198.52 37.46, 200 37.25 S 203.59 35.92, 205 35.4"
          fill="none"/>
    <circle r="4" cx="5" cy="40" fill="#3023AE"/>
    <circle r="4" cx="205" cy="35.4" fill="#C86DD7"/>      
</svg>