<svg width="200" height="50" viewBox="0 0 210 50" xmlns="http://www.w3.org/2000/svg">
    <defs>
        <linearGradient x1="0%" y1="0%" x2="100%" y2="0%" id="a">
            <stop stop-color="#3023AE" offset="0%"/>
            <stop stop-color="#C86DD7" offset="100%"/>
        </linearGradient>
    </defs>
    <path stroke="url(#a)"
          stroke-width="3"
          stroke-linejoin="round"
          stroke-linecap="round"
          d="M5 40 C 6.5 39.89, 9.53 41.06, 10 39.64 S 13.88 11, 15 10 S 19.5 29.28, 20 30.69 S 23.8 37.41, 25 38.31 S 28.51 38.01, 30 38.19 S 33.67 40.21, 35 39.52 S 38.5 33.04, 40 32.98 S 43.75 38.32, 45 39.15 S 48.5 39.62, 50 39.64 S 53.5 39.25, 55 39.27 S 58.5 39.69, 60 39.76 S 63.5 39.85, 65 39.76 S 68.5 39.17, 70 39.15 S 73.5 39.71, 75 39.64 S 78.5 38.69, 80 38.67 S 83.5 39.41, 85 39.52 S 88.5 39.38, 90 39.4 S 93.5 39.6, 95 39.64 S 98.5 39.66, 100 39.64 S 103.51 39.66, 105 39.52 S 108.51 38.81, 110 38.67 S 113.51 38.37, 115 38.55 S 118.5 39.77, 120 39.88 S 123.5 39.32, 125 39.27 S 128.5 39.56, 130 39.52 S 133.5 39.07, 135 39.03 S 138.5 39.25, 140 39.27 S 143.5 39.15, 145 39.15 S 148.5 39.29, 150 39.27 S 153.5 38.96, 155 39.03 S 158.5 39.69, 160 39.76 S 163.5 39.57, 165 39.52 S 168.5 39.46, 170 39.4 S 173.5 39.13, 175 39.15 S 178.51 39.66, 180 39.52 S 183.5 38.17, 185 38.19 S 188.51 39.46, 190 39.64 S 193.51 39.54, 195 39.4 S 198.5 38.67, 200 38.67 S 203.52 39.18, 205 39.4"
          fill="none"/>
    <circle r="4" cx="5" cy="40" fill="#3023AE"/>
    <circle r="4" cx="205" cy="39.4" fill="#C86DD7"/>      
</svg>