<svg width="200" height="50" viewBox="0 0 210 50" xmlns="http://www.w3.org/2000/svg">
    <defs>
        <linearGradient x1="0%" y1="0%" x2="100%" y2="0%" id="a">
            <stop stop-color="#3023AE" offset="0%"/>
            <stop stop-color="#C86DD7" offset="100%"/>
        </linearGradient>
    </defs>
    <path stroke="url(#a)"
          stroke-width="3"
          stroke-linejoin="round"
          stroke-linecap="round"
          d="M5 40 C 5.47 38.58, 8.51 25.06, 10 24.88 S 14.11 37.57, 15 38.78 S 18.5 38.61, 20 38.54 S 23.5 38.22, 25 38.29 S 28.5 38.95, 30 39.02 S 33.52 39, 35 38.78 S 38.52 37.78, 40 37.56 S 43.52 37.1, 45 37.32 S 48.5 38.91, 50 39.02 S 53.5 38.01, 55 38.05 S 58.5 39.23, 60 39.27 S 63.5 38.22, 65 38.29 S 68.5 39.83, 70 39.76 S 73.5 37.91, 75 37.8 S 78.53 38.73, 80 39.02 S 83.5 39.65, 85 39.76 S 88.75 40.59, 90 39.76 S 93.72 33.95, 95 33.17 S 98.64 34.29, 100 33.66 S 103.56 28.96, 105 28.54 S 108.53 31.02, 110 30.73 S 114.14 27.82, 115 26.59 S 118.5 16.3, 120 16.34 S 124.11 25.62, 125 26.83 S 128.51 29.86, 130 30 S 133.55 28.19, 135 27.8 S 138.52 27.1, 140 27.32 S 143.55 28.88, 145 29.27 S 149.31 31.33, 150 30 S 153.52 10.25, 155 10 S 159.34 26.95, 160 28.29 S 163.5 30.24, 165 30.24 S 168.68 29, 170 28.29 S 173.59 24.36, 175 24.88 S 178.86 30.98, 180 31.95 S 183.58 33.89, 185 33.41 S 188.57 28.99, 190 28.54 S 193.57 29.79, 195 30.24 S 198.54 31.39, 200 31.71 S 203.52 32.22, 205 32.44"
          fill="none"/>
    <circle r="4" cx="5" cy="40" fill="#3023AE"/>
    <circle r="4" cx="205" cy="32.44" fill="#C86DD7"/>      
</svg>