<svg width="200" height="50" viewBox="0 0 210 50" xmlns="http://www.w3.org/2000/svg">
    <defs>
        <linearGradient x1="0%" y1="0%" x2="100%" y2="0%" id="a">
            <stop stop-color="#3023AE" offset="0%"/>
            <stop stop-color="#C86DD7" offset="100%"/>
        </linearGradient>
    </defs>
    <path stroke="url(#a)"
          stroke-width="3"
          stroke-linejoin="round"
          stroke-linecap="round"
          d="M5 40 C 6.46 39.66, 8.51 38.98, 10 38.83 S 13.51 39.12, 15 38.97 S 18.52 38.08, 20 37.84 S 23.55 37.75, 25 37.36 S 28.61 35.74, 30 35.17 S 33.65 33.92, 35 33.26 S 38.66 30.94, 40 30.28 S 43.5 28.31, 45 28.32 S 48.61 30.93, 50 30.37 S 53.87 25.28, 55 24.3 S 58.87 22.67, 60 21.68 S 63.83 16.5, 65 15.56 S 68.56 14.01, 70 13.59 S 73.5 12.59, 75 12.64 S 78.51 14.14, 80 13.95 S 83.6 11.88, 85 11.33 S 88.5 9.98, 90 10 S 93.51 11.34, 95 11.47 S 98.51 11.05, 100 10.85 S 103.72 9.36, 105 10.14 S 109.08 15.74, 110 16.92 S 113.93 21.92, 115 22.97 S 118.65 26.11, 120 26.76 S 123.51 27.61, 125 27.79 S 128.5 27.98, 130 27.95 S 133.51 27.46, 135 27.61 S 138.5 28.88, 140 28.94 S 143.5 27.94, 145 28.02 S 148.5 29.38, 150 29.47 S 153.5 28.67, 155 28.6 S 158.55 29.36, 160 28.99 S 163.53 26.34, 165 26.07 S 168.51 26.98, 170 27.13 S 173.5 27.02, 175 27.06 S 178.51 27.59, 180 27.43 S 183.51 25.85, 185 26 S 188.6 27.91, 190 28.46 S 193.54 29.62, 195 29.95 S 198.5 30.63, 200 30.74 S 203.5 30.7, 205 30.69"
          fill="none"/>
    <circle r="4" cx="5" cy="40" fill="#3023AE"/>
    <circle r="4" cx="205" cy="30.689999999999998" fill="#C86DD7"/>      
</svg>