<svg width="200" height="50" viewBox="0 0 210 50" xmlns="http://www.w3.org/2000/svg">
    <defs>
        <linearGradient x1="0%" y1="0%" x2="100%" y2="0%" id="a">
            <stop stop-color="#3023AE" offset="0%"/>
            <stop stop-color="#C86DD7" offset="100%"/>
        </linearGradient>
    </defs>
    <path stroke="url(#a)"
          stroke-width="3"
          stroke-linejoin="round"
          stroke-linecap="round"
          d="M5 40 C 5.96 38.85, 8.56 34.43, 10 34 S 13.56 36.57, 15 37 S 18.5 37, 20 37 S 23.5 37, 25 37 S 28.5 37, 30 37 S 33.5 37, 35 37 S 38.5 37, 40 37 S 43.5 37, 45 37 S 48.5 37, 50 37 S 53.5 37, 55 37 S 58.5 37, 60 37 S 63.5 37, 65 37 S 68.5 37, 70 37 S 73.5 37, 75 37 S 78.5 37, 80 37 S 83.5 37, 85 37 S 88.71 37.77, 90 37 S 94.04 32.15, 95 31 S 98.56 24.57, 100 25 S 104.04 32.85, 105 34 S 108.5 37, 110 37 S 113.5 34, 115 34 S 118.56 36.57, 120 37 S 123.56 37.43, 125 37 S 129.17 35.25, 130 34 S 133.71 22.77, 135 22 S 138.56 27.57, 140 28 S 143.71 24.23, 145 25 S 148.89 33, 150 34 S 154.42 35.38, 155 34 S 158.56 9.57, 160 10 S 164.36 35.65, 165 37 S 168.56 31.43, 170 31 S 174.17 35.25, 175 34 S 178.56 16.43, 180 16 S 184.04 29.85, 185 31 S 189.27 29.31, 190 28 S 193.89 14, 195 13 S 199.27 17.69, 200 19 S 204.42 29.62, 205 31"
          fill="none"/>
    <circle r="4" cx="5" cy="40" fill="#3023AE"/>
    <circle r="4" cx="205" cy="31" fill="#C86DD7"/>      
</svg>