<svg width="200" height="50" viewBox="0 0 210 50" xmlns="http://www.w3.org/2000/svg">
    <defs>
        <linearGradient x1="0%" y1="0%" x2="100%" y2="0%" id="a">
            <stop stop-color="#3023AE" offset="0%"/>
            <stop stop-color="#C86DD7" offset="100%"/>
        </linearGradient>
    </defs>
    <path stroke="url(#a)"
          stroke-width="3"
          stroke-linejoin="round"
          stroke-linecap="round"
          d="M5 40 C 6.5 39.97, 8.5 39.92, 10 39.91 S 14.18 41.21, 15 39.95 S 19.09 25.74, 20 24.55 S 24.09 25.7, 25 26.9 S 29.02 36.61, 30 37.75 S 33.52 38.25, 35 38.5 S 38.5 39.36, 40 39.44 S 43.5 39.07, 45 39.06 S 48.5 39.33, 50 39.34 S 53.5 39.23, 55 39.15 S 58.5 38.84, 60 38.83 S 63.5 39.1, 65 39.11 S 68.5 38.87, 70 38.92 S 73.5 39.47, 75 39.44 S 78.5 38.74, 80 38.73 S 83.5 39.32, 85 39.39 S 88.5 39.2, 90 39.2 S 93.5 39.34, 95 39.39 S 98.5 39.56, 100 39.53 S 103.5 39.29, 105 39.2 S 108.5 38.91, 110 38.92 S 113.52 39.54, 115 39.3 S 118.5 37.35, 120 37.32 S 123.53 38.83, 125 39.11 S 128.5 39.25, 130 39.25 S 133.5 39.15, 135 39.11 S 138.5 39.06, 140 38.97 S 143.5 38.57, 145 38.54 S 148.5 38.78, 150 38.78 S 153.5 38.62, 155 38.54 S 158.5 38.24, 160 38.22 S 163.56 38.83, 165 38.4 S 168.53 35.57, 170 35.26 S 173.5 36.2, 175 36.29 S 178.5 35.86, 180 35.87 S 183.5 36.28, 185 36.34 S 189.47 37.64, 190 36.24 S 193.71 10.76, 195 10 S 199.41 29, 200 30.38 S 203.69 32.42, 205 33.15"
          fill="none"/>
    <circle r="4" cx="5" cy="40" fill="#3023AE"/>
    <circle r="4" cx="205" cy="33.15" fill="#C86DD7"/>      
</svg>