<svg width="200" height="50" viewBox="0 0 210 50" xmlns="http://www.w3.org/2000/svg">
    <defs>
        <linearGradient x1="0%" y1="0%" x2="100%" y2="0%" id="a">
            <stop stop-color="#3023AE" offset="0%"/>
            <stop stop-color="#C86DD7" offset="100%"/>
        </linearGradient>
    </defs>
    <path stroke="url(#a)"
          stroke-width="3"
          stroke-linejoin="round"
          stroke-linecap="round"
          d="M5 40 C 5.25 38.52, 8.64 10.64, 10 10 S 14.5 33.88, 15 35.3 S 18.52 38.28, 20 38.55 S 23.5 37.22, 25 37.11 S 28.52 37.62, 30 37.83 S 33.5 38.55, 35 38.55 S 38.5 37.72, 40 37.83 S 43.5 39.28, 45 39.28 S 48.5 37.88, 50 37.83 S 53.5 38.87, 55 38.92 S 58.51 38.35, 60 38.19 S 63.5 37.78, 65 37.83 S 68.52 38.28, 70 38.55 S 73.51 39.48, 75 39.64 S 78.52 39.86, 80 39.64 S 83.62 38.79, 85 38.19 S 88.51 35.46, 90 35.3 S 93.51 36.95, 95 37.11 S 98.5 36.34, 100 36.39 S 103.62 38.07, 105 37.47 S 108.52 32.32, 110 32.05 S 113.72 34.88, 115 35.66 S 118.5 38.24, 120 38.19 S 123.56 35.72, 125 35.3 S 128.53 35.62, 130 35.3 S 133.52 33.4, 135 33.13 S 138.51 33.65, 140 33.49 S 143.51 32.21, 145 32.05 S 148.56 31.99, 150 32.41 S 154 36.06, 155 34.94 S 158.5 21.25, 160 21.2 S 164.15 33.35, 165 34.58 S 168.52 35.39, 170 35.66 S 173.62 36.99, 175 36.39 S 178.56 31.75, 180 31.33 S 183.68 32.78, 185 33.49 S 188.55 36.38, 190 36.75 S 193.55 36.39, 195 36.02 S 198.52 34.49, 200 34.22 S 203.5 34.22, 205 34.22"
          fill="none"/>
    <circle r="4" cx="5" cy="40" fill="#3023AE"/>
    <circle r="4" cx="205" cy="34.22" fill="#C86DD7"/>      
</svg>