<svg width="200" height="50" viewBox="0 0 210 50" xmlns="http://www.w3.org/2000/svg">
    <defs>
        <linearGradient x1="0%" y1="0%" x2="100%" y2="0%" id="a">
            <stop stop-color="#3023AE" offset="0%"/>
            <stop stop-color="#C86DD7" offset="100%"/>
        </linearGradient>
    </defs>
    <path stroke="url(#a)"
          stroke-width="3"
          stroke-linejoin="round"
          stroke-linecap="round"
          d="M5 40 C 5.25 38.52, 8.55 10.39, 10 10 S 14.49 35.93, 15 37.34 S 18.5 37.43, 20 37.49 S 23.5 37.74, 25 37.74 S 28.5 37.46, 30 37.52 S 33.51 38.02, 35 38.15 S 38.5 38.33, 40 38.4 S 43.5 38.54, 45 38.59 S 48.5 38.65, 50 38.71 S 53.5 38.87, 55 38.97 S 58.51 39.24, 60 39.37 S 63.5 39.88, 65 39.84 S 68.55 39.49, 70 39.09 S 73.53 37.38, 75 37.08 S 78.5 37.14, 80 37.02 S 83.5 36.36, 85 36.27 S 88.54 36.79, 90 36.43 S 93.51 34.02, 95 33.82 S 98.54 34.75, 100 35.08 S 103.5 36.06, 105 36.11 S 108.53 35.72, 110 35.42 S 113.52 34.27, 115 34.04 S 118.5 33.87, 120 33.89 S 123.51 34.34, 125 34.2 S 128.55 33.34, 130 32.95 S 133.5 31.62, 135 31.5 S 138.5 32.11, 140 32.16 S 143.5 31.93, 145 31.85 S 148.52 31.42, 150 31.63 S 153.51 33.09, 155 33.29 S 158.52 33.23, 160 32.98 S 163.5 31.71, 165 31.6 S 168.51 32.09, 170 32.23 S 173.5 32.57, 175 32.57 S 178.5 32.33, 180 32.23 S 183.51 31.75, 185 31.88 S 188.5 33.15, 190 33.13 S 193.51 31.91, 195 31.72 S 198.51 31.65, 200 31.85 S 203.54 32.71, 205 33.07"
          fill="none"/>
    <circle r="4" cx="5" cy="40" fill="#3023AE"/>
    <circle r="4" cx="205" cy="33.07" fill="#C86DD7"/>      
</svg>