<svg width="200" height="50" viewBox="0 0 210 50" xmlns="http://www.w3.org/2000/svg">
    <defs>
        <linearGradient x1="0%" y1="0%" x2="100%" y2="0%" id="a">
            <stop stop-color="#3023AE" offset="0%"/>
            <stop stop-color="#C86DD7" offset="100%"/>
        </linearGradient>
    </defs>
    <path stroke="url(#a)"
          stroke-width="3"
          stroke-linejoin="round"
          stroke-linecap="round"
          d="M5 40 C 6.5 39.93, 8.5 39.77, 10 39.76 S 13.5 39.9, 15 39.92 S 18.5 39.92, 20 39.92 S 23.5 39.92, 25 39.92 S 28.5 39.92, 30 39.92 S 33.5 39.92, 35 39.92 S 38.5 39.92, 40 39.92 S 43.5 39.92, 45 39.92 S 48.5 39.92, 50 39.92 S 53.5 39.92, 55 39.92 S 58.5 39.92, 60 39.92 S 63.5 39.92, 65 39.92 S 68.5 39.92, 70 39.92 S 73.5 39.92, 75 39.92 S 78.5 39.92, 80 39.92 S 83.5 39.92, 85 39.92 S 88.5 39.92, 90 39.92 S 93.5 39.92, 95 39.92 S 98.5 39.92, 100 39.92 S 103.5 39.92, 105 39.92 S 108.5 39.92, 110 39.92 S 113.7 40.67, 115 39.92 S 118.52 34.34, 120 34.1 S 123.5 38.29, 125 38.3 S 128.5 34.19, 130 34.18 S 133.63 37.62, 135 38.22 S 138.5 38.59, 140 38.54 S 143.59 38.4, 145 37.9 S 148.5 35.06, 150 34.99 S 153.5 37.34, 155 37.41 S 158.5 35.38, 160 35.47 S 163.54 37.63, 165 37.98 S 168.53 38.21, 170 37.9 S 173.51 36.09, 175 35.88 S 178.51 36.66, 180 36.52 S 183.5 34.86, 185 34.91 S 188.51 36.67, 190 36.85 S 193.5 36.06, 195 36.12 S 199.46 38.65, 200 37.25 S 204.73 11.48, 205 10"
          fill="none"/>
    <circle r="4" cx="5" cy="40" fill="#3023AE"/>
    <circle r="4" cx="205" cy="10" fill="#C86DD7"/>      
</svg>