<svg width="200" height="50" viewBox="0 0 210 50" xmlns="http://www.w3.org/2000/svg">
    <defs>
        <linearGradient x1="0%" y1="0%" x2="100%" y2="0%" id="a">
            <stop stop-color="#3023AE" offset="0%"/>
            <stop stop-color="#C86DD7" offset="100%"/>
        </linearGradient>
    </defs>
    <path stroke="url(#a)"
          stroke-width="3"
          stroke-linejoin="round"
          stroke-linecap="round"
          d="M5 40 C 5.58 38.62, 9.42 29.38, 10 28 S 13.71 15.23, 15 16 S 19.27 32.69, 20 34 S 24.27 35.31, 25 34 S 28.5 16, 30 16 S 33.5 34, 35 34 S 38.5 16, 40 16 S 43.5 34, 45 34 S 48.5 16, 50 16 S 54.04 32.85, 55 34 S 58.5 28, 60 28 S 63.71 33.23, 65 34 S 68.71 34.77, 70 34 S 73.71 28.77, 75 28 S 78.71 27.23, 80 28 S 83.71 33.23, 85 34 S 88.5 34, 90 34 S 93.5 34, 95 34 S 98.5 34, 100 34 S 103.71 34.77, 105 34 S 108.5 28, 110 28 S 113.71 33.23, 115 34 S 118.5 34, 120 34 S 123.5 34, 125 34 S 128.71 34.77, 130 34 S 133.5 28, 135 28 S 138.71 33.23, 140 34 S 143.5 34, 145 34 S 148.5 34, 150 34 S 153.5 34, 155 34 S 158.71 34.77, 160 34 S 164.04 29.15, 165 28 S 169.04 23.15, 170 22 S 174.04 14.85, 175 16 S 179.27 32.69, 180 34 S 184.42 35.38, 185 34 S 188.71 10.77, 190 10 S 194.42 26.62, 195 28 S 198.5 34, 200 34 S 204.04 29.15, 205 28"
          fill="none"/>
    <circle r="4" cx="5" cy="40" fill="#3023AE"/>
    <circle r="4" cx="205" cy="28" fill="#C86DD7"/>      
</svg>