<svg width="200" height="50" viewBox="0 0 210 50" xmlns="http://www.w3.org/2000/svg">
    <defs>
        <linearGradient x1="0%" y1="0%" x2="100%" y2="0%" id="a">
            <stop stop-color="#3023AE" offset="0%"/>
            <stop stop-color="#C86DD7" offset="100%"/>
        </linearGradient>
    </defs>
    <path stroke="url(#a)"
          stroke-width="3"
          stroke-linejoin="round"
          stroke-linecap="round"
          d="M5 40 C 6.2 39.1, 8.53 36.53, 10 36.25 S 13.53 37.84, 15 38.12 S 18.5 38.12, 20 38.12 S 23.5 38.12, 25 38.12 S 28.5 38.12, 30 38.12 S 33.5 38.12, 35 38.12 S 38.5 38.12, 40 38.12 S 43.5 38.12, 45 38.12 S 48.5 38.12, 50 38.12 S 53.5 38.12, 55 38.12 S 58.5 38.12, 60 38.12 S 63.5 38.12, 65 38.12 S 68.6 38.65, 70 38.12 S 74 35.49, 75 34.37 S 78.53 26.59, 80 26.87 S 83.6 35.72, 85 36.25 S 88.5 30.62, 90 30.62 S 93.6 35.72, 95 36.25 S 98.69 35.11, 100 34.37 S 103.5 30.62, 105 30.62 S 108.53 34.09, 110 34.37 S 113.6 33.03, 115 32.5 S 118.91 31.65, 120 30.62 S 123.91 24.15, 125 23.12 S 128.8 20.35, 130 21.25 S 134.24 29.33, 135 30.62 S 138.53 38.4, 140 38.12 S 143.8 29.65, 145 28.75 S 148.53 30.34, 150 30.62 S 153.8 29.72, 155 30.62 S 158.53 38.4, 160 38.12 S 164.17 30, 165 28.75 S 169.17 24.37, 170 23.12 S 173.69 14.48, 175 13.75 S 178.91 16.47, 180 17.5 S 184.09 21.93, 185 23.12 S 188.69 31.35, 190 30.62 S 194 18.62, 195 17.5 S 198.8 20.27, 200 19.37 S 204.29 11.32, 205 10"
          fill="none"/>
    <circle r="4" cx="5" cy="40" fill="#3023AE"/>
    <circle r="4" cx="205" cy="10" fill="#C86DD7"/>      
</svg>