<svg width="200" height="50" viewBox="0 0 210 50" xmlns="http://www.w3.org/2000/svg">
    <defs>
        <linearGradient x1="0%" y1="0%" x2="100%" y2="0%" id="a">
            <stop stop-color="#3023AE" offset="0%"/>
            <stop stop-color="#C86DD7" offset="100%"/>
        </linearGradient>
    </defs>
    <path stroke="url(#a)"
          stroke-width="3"
          stroke-linejoin="round"
          stroke-linecap="round"
          d="M5 40 C 5.25 38.52, 9.05 11.74, 10 10.58 S 14.36 26.35, 15 27.71 S 18.71 32.65, 20 31.89 S 23.5 21.78, 25 21.84 S 28.95 31.25, 30 32.32 S 33.64 32.71, 35 32.07 S 38.66 28.26, 40 27.58 S 43.52 27.26, 45 27.02 S 48.51 25.83, 50 25.99 S 53.56 27.67, 55 28.07 S 58.51 28.61, 60 28.79 S 63.52 29.08, 65 29.3 S 68.5 30.14, 70 30.26 S 74.34 31.45, 75 30.1 S 78.76 10.84, 80 10 S 84.26 22.03, 85 23.34 S 88.78 26.78, 90 27.65 S 93.53 30.15, 95 30.44 S 98.5 29.51, 100 29.59 S 103.53 30.65, 105 30.95 S 108.5 31.64, 110 31.65 S 113.5 31.09, 115 31 S 118.5 30.97, 120 31.02 S 123.5 31.29, 125 31.31 S 128.5 31.2, 130 31.18 S 133.77 32.03, 135 31.18 S 138.51 24.45, 140 24.25 S 143.76 29.02, 145 29.86 S 148.56 30.61, 150 31.04 S 153.53 32.57, 155 32.85 S 158.52 32.67, 160 32.94 S 163.51 34.52, 165 34.66 S 168.5 33.98, 170 33.9 S 173.5 34.14, 175 34.13 S 178.5 33.92, 180 33.86 S 183.5 33.74, 185 33.75 S 188.52 34.15, 190 33.92 S 193.61 32.77, 195 32.2 S 198.51 29.71, 200 29.84 S 203.74 32.28, 205 33.1"
          fill="none"/>
    <circle r="4" cx="5" cy="40" fill="#3023AE"/>
    <circle r="4" cx="205" cy="33.1" fill="#C86DD7"/>      
</svg>