<svg width="200" height="50" viewBox="0 0 210 50" xmlns="http://www.w3.org/2000/svg">
    <defs>
        <linearGradient x1="0%" y1="0%" x2="100%" y2="0%" id="a">
            <stop stop-color="#3023AE" offset="0%"/>
            <stop stop-color="#C86DD7" offset="100%"/>
        </linearGradient>
    </defs>
    <path stroke="url(#a)"
          stroke-width="3"
          stroke-linejoin="round"
          stroke-linecap="round"
          d="M5 40 C 6.32 39.28, 8.55 37.67, 10 37.27 S 13.5 37.27, 15 37.27 S 18.5 37.27, 20 37.27 S 23.5 37.27, 25 37.27 S 28.5 37.27, 30 37.27 S 33.5 37.27, 35 37.27 S 38.5 37.27, 40 37.27 S 43.5 37.27, 45 37.27 S 48.5 37.27, 50 37.27 S 53.5 37.27, 55 37.27 S 58.5 37.27, 60 37.27 S 63.5 37.27, 65 37.27 S 68.5 37.27, 70 37.27 S 73.5 37.27, 75 37.27 S 78.5 37.27, 80 37.27 S 83.5 37.27, 85 37.27 S 88.5 37.27, 90 37.27 S 93.5 37.27, 95 37.27 S 98.5 37.27, 100 37.27 S 103.5 37.27, 105 37.27 S 108.5 37.27, 110 37.27 S 113.5 37.27, 115 37.27 S 118.5 37.27, 120 37.27 S 123.68 37.99, 125 37.27 S 128.68 32.54, 130 31.82 S 133.84 32.77, 135 31.82 S 138.5 23.64, 140 23.64 S 143.84 32.77, 145 31.82 S 148.68 16.17, 150 15.45 S 154.3 25.03, 155 26.36 S 158.68 35.27, 160 34.55 S 164.3 22.24, 165 20.91 S 168.99 16.56, 170 15.45 S 174.22 8.72, 175 10 S 179.22 30.54, 180 31.82 S 183.99 27.47, 185 26.36 S 188.99 22.02, 190 20.91 S 193.68 16.17, 195 15.45 S 198.68 16.17, 200 15.45 S 203.99 11.11, 205 10"
          fill="none"/>
    <circle r="4" cx="5" cy="40" fill="#3023AE"/>
    <circle r="4" cx="205" cy="10" fill="#C86DD7"/>      
</svg>