<svg width="200" height="50" viewBox="0 0 210 50" xmlns="http://www.w3.org/2000/svg">
    <defs>
        <linearGradient x1="0%" y1="0%" x2="100%" y2="0%" id="a">
            <stop stop-color="#3023AE" offset="0%"/>
            <stop stop-color="#C86DD7" offset="100%"/>
        </linearGradient>
    </defs>
    <path stroke="url(#a)"
          stroke-width="3"
          stroke-linejoin="round"
          stroke-linecap="round"
          d="M5 40 C 5.67 38.66, 8.53 30.29, 10 30 S 13.83 37.06, 15 38 S 18.5 38, 20 38 S 23.53 38.29, 25 38 S 28.5 36, 30 36 S 34.33 39.34, 35 38 S 38.61 16.56, 40 16 S 44.33 32.66, 45 34 S 48.61 35.44, 50 36 S 53.61 38.56, 55 38 S 58.83 32.94, 60 32 S 63.53 29.71, 65 30 S 68.53 33.71, 70 34 S 73.83 32.94, 75 32 S 78.61 26.56, 80 26 S 83.94 26.94, 85 28 S 88.71 35.23, 90 36 S 93.5 34, 95 34 S 98.5 36, 100 36 S 103.61 34.56, 105 34 S 108.71 32.77, 110 32 S 113.71 27.23, 115 28 S 118.94 36.94, 120 38 S 124.04 39.15, 125 38 S 128.94 27.06, 130 26 S 133.61 28.56, 135 28 S 138.71 21.23, 140 22 S 144.13 32.78, 145 34 S 148.53 35.71, 150 36 S 153.61 36.56, 155 36 S 159.13 33.22, 160 32 S 163.94 23.06, 165 22 S 169.21 20.73, 170 22 S 173.94 36.94, 175 38 S 178.94 33.06, 180 32 S 183.53 27.71, 185 28 S 188.71 34.77, 190 34 S 194.42 23.38, 195 22 S 198.5 10, 200 10 S 204.42 20.62, 205 22"
          fill="none"/>
    <circle r="4" cx="5" cy="40" fill="#3023AE"/>
    <circle r="4" cx="205" cy="22" fill="#C86DD7"/>      
</svg>