<svg width="200" height="50" viewBox="0 0 210 50" xmlns="http://www.w3.org/2000/svg">
    <defs>
        <linearGradient x1="0%" y1="0%" x2="100%" y2="0%" id="a">
            <stop stop-color="#3023AE" offset="0%"/>
            <stop stop-color="#C86DD7" offset="100%"/>
        </linearGradient>
    </defs>
    <path stroke="url(#a)"
          stroke-width="3"
          stroke-linejoin="round"
          stroke-linecap="round"
          d="M5 40 C 5.25 38.52, 8.56 10.41, 10 10 S 14.5 35.77, 15 37.19 S 18.55 38.11, 20 38.48 S 23.5 39.68, 25 39.77 S 28.5 39.11, 30 39.06 S 33.5 39.32, 35 39.41 S 38.54 40.01, 40 39.65 S 43.57 37.4, 45 36.95 S 48.54 36.14, 50 36.48 S 53.58 38.83, 55 39.3 S 58.5 39.74, 60 39.77 S 63.5 39.51, 65 39.53 S 68.5 39.88, 70 39.88 S 73.5 39.56, 75 39.53 S 78.5 39.6, 80 39.65 S 83.5 39.86, 85 39.88 S 88.51 39.91, 90 39.77 S 93.5 38.97, 95 38.95 S 98.5 39.55, 100 39.65 S 103.5 39.65, 105 39.65 S 108.5 39.63, 110 39.65 S 113.5 39.75, 115 39.77 S 118.5 39.81, 120 39.77 S 123.5 39.51, 125 39.53 S 128.5 39.83, 130 39.88 S 133.5 39.91, 135 39.88 S 138.5 39.65, 140 39.65 S 143.5 39.85, 145 39.88 S 148.5 39.88, 150 39.88 S 153.5 39.88, 155 39.88 S 158.5 39.95, 160 39.88 S 163.5 39.41, 165 39.41 S 168.5 39.81, 170 39.88 S 173.5 39.88, 175 39.88 S 178.5 39.91, 180 39.88 S 183.5 39.67, 185 39.65 S 188.5 39.75, 190 39.77 S 193.5 39.77, 195 39.77"
          fill="none"/>
    <circle r="4" cx="5" cy="40" fill="#3023AE"/>
    <circle r="4" cx="195" cy="39.77" fill="#C86DD7"/>      
</svg>