<svg width="200" height="50" viewBox="0 0 210 50" xmlns="http://www.w3.org/2000/svg">
    <defs>
        <linearGradient x1="0%" y1="0%" x2="100%" y2="0%" id="a">
            <stop stop-color="#3023AE" offset="0%"/>
            <stop stop-color="#C86DD7" offset="100%"/>
        </linearGradient>
    </defs>
    <path stroke="url(#a)"
          stroke-width="3"
          stroke-linejoin="round"
          stroke-linecap="round"
          d="M5 40 C 6.46 39.67, 8.52 39.15, 10 38.89 S 13.5 38.14, 15 38.24 S 18.51 39.33, 20 39.54 S 23.5 39.64, 25 39.63 S 28.5 39.47, 30 39.44 S 33.5 39.43, 35 39.44 S 38.5 39.51, 40 39.54 S 43.51 39.76, 45 39.63 S 48.52 38.96, 50 38.7 S 53.5 37.88, 55 37.87 S 58.5 38.6, 60 38.61 S 63.5 38.07, 65 37.96 S 68.5 37.84, 70 37.87 S 73.5 38.26, 75 38.15 S 78.5 37.12, 80 37.13 S 83.51 38.05, 85 38.24 S 88.5 38.47, 90 38.43 S 93.5 37.96, 95 37.96 S 98.5 38.37, 100 38.43 S 103.5 38.36, 105 38.33 S 108.5 38.18, 110 38.24 S 113.5 38.67, 115 38.7 S 118.5 38.49, 120 38.43 S 123.51 38.48, 125 38.33 S 128.5 37.45, 130 37.41 S 133.5 38.1, 135 38.06 S 138.5 37.24, 140 37.13 S 143.5 37.23, 145 37.31 S 148.5 37.62, 150 37.69 S 153.5 37.84, 155 37.78 S 158.54 37.64, 160 37.31 S 163.5 35.59, 165 35.56 S 168.53 36.82, 170 37.13 S 173.5 37.68, 175 37.69 S 178.5 37.3, 180 37.22 S 183.51 37.28, 185 37.13 S 188.5 36.19, 190 36.2 S 194.47 38.62, 195 37.22 S 198.7 10.75, 200 10 S 204.66 30.02, 205 31.48"
          fill="none"/>
    <circle r="4" cx="5" cy="40" fill="#3023AE"/>
    <circle r="4" cx="205" cy="31.48" fill="#C86DD7"/>      
</svg>