<svg width="200" height="50" viewBox="0 0 210 50" xmlns="http://www.w3.org/2000/svg">
    <defs>
        <linearGradient x1="0%" y1="0%" x2="100%" y2="0%" id="a">
            <stop stop-color="#3023AE" offset="0%"/>
            <stop stop-color="#C86DD7" offset="100%"/>
        </linearGradient>
    </defs>
    <path stroke="url(#a)"
          stroke-width="3"
          stroke-linejoin="round"
          stroke-linecap="round"
          d="M5 40 C 6.49 39.86, 8.5 39.57, 10 39.54 S 13.5 39.74, 15 39.77 S 18.5 39.77, 20 39.77 S 23.5 39.77, 25 39.77 S 28.5 39.77, 30 39.77 S 33.5 39.77, 35 39.77 S 38.5 39.77, 40 39.77 S 43.5 39.77, 45 39.77 S 48.51 39.91, 50 39.77 S 53.5 38.88, 55 38.85 S 58.5 39.57, 60 39.54 S 63.51 38.8, 65 38.63 S 68.53 38.7, 70 38.4 S 73.5 36.63, 75 36.56 S 78.5 37.97, 80 37.94 S 83.54 36.67, 85 36.34 S 88.51 35.51, 90 35.65 S 93.51 37.46, 95 37.25 S 98.91 35.3, 100 34.27 S 103.86 28.83, 105 27.86 S 108.5 25.8, 110 25.8 S 113.78 26.99, 115 27.86 S 118.59 33.42, 120 32.9 S 124 25.32, 125 24.2 S 129.14 22.91, 130 21.68 S 133.91 11.03, 135 10 S 138.94 11.23, 140 12.29 S 143.96 19, 145 20.08 S 148.54 22.27, 150 22.6 S 153.52 22.64, 155 22.37 S 158.56 21.19, 160 20.76 S 163.67 18.69, 165 19.39 S 168.51 26.23, 170 26.03 S 173.55 18.42, 175 18.02 S 178.65 22.63, 180 23.28 S 183.6 22.27, 185 22.82 S 188.69 26.46, 190 27.18 S 193.59 28.84, 195 28.32 S 198.92 24.55, 200 23.51 S 203.92 19.74, 205 18.7"
          fill="none"/>
    <circle r="4" cx="5" cy="40" fill="#3023AE"/>
    <circle r="4" cx="205" cy="18.7" fill="#C86DD7"/>      
</svg>