<svg width="200" height="50" viewBox="0 0 210 50" xmlns="http://www.w3.org/2000/svg">
    <defs>
        <linearGradient x1="0%" y1="0%" x2="100%" y2="0%" id="a">
            <stop stop-color="#3023AE" offset="0%"/>
            <stop stop-color="#C86DD7" offset="100%"/>
        </linearGradient>
    </defs>
    <path stroke="url(#a)"
          stroke-width="3"
          stroke-linejoin="round"
          stroke-linecap="round"
          d="M5 40 C 6.5 39.93, 8.5 39.81, 10 39.78 S 13.5 39.78, 15 39.78 S 18.5 39.78, 20 39.78 S 23.5 39.78, 25 39.78 S 28.5 39.78, 30 39.78 S 33.5 39.78, 35 39.78 S 38.5 39.78, 40 39.78 S 43.5 39.78, 45 39.78 S 48.5 39.78, 50 39.78 S 53.5 39.78, 55 39.78 S 58.5 39.78, 60 39.78 S 63.5 39.78, 65 39.78 S 68.5 39.78, 70 39.78 S 73.5 39.78, 75 39.78 S 78.5 39.78, 80 39.78 S 83.5 39.78, 85 39.78 S 88.5 39.78, 90 39.78 S 93.5 39.78, 95 39.78 S 98.5 39.78, 100 39.78 S 103.5 39.78, 105 39.78 S 108.5 39.78, 110 39.78 S 113.5 39.78, 115 39.78 S 118.5 39.78, 120 39.78 S 124.52 41.2, 125 39.78 S 128.7 10.75, 130 10 S 134.49 32.63, 135 34.04 S 138.58 37.1, 140 37.57 S 143.52 37.12, 145 37.35 S 148.5 39.15, 150 39.12 S 153.58 37.6, 155 37.13 S 159.07 36.98, 160 35.81 S 163.51 24.72, 165 24.56 S 168.76 33.86, 170 34.71 S 173.55 31.02, 175 31.4 S 178.54 37.03, 180 37.35 S 183.7 34.35, 185 33.6 S 188.51 31.82, 190 31.62 S 193.5 32.38, 195 32.28 S 198.53 30.67, 200 30.96 S 203.75 33.43, 205 34.26"
          fill="none"/>
    <circle r="4" cx="5" cy="40" fill="#3023AE"/>
    <circle r="4" cx="205" cy="34.26" fill="#C86DD7"/>      
</svg>