<svg width="200" height="50" viewBox="0 0 210 50" xmlns="http://www.w3.org/2000/svg">
    <defs>
        <linearGradient x1="0%" y1="0%" x2="100%" y2="0%" id="a">
            <stop stop-color="#3023AE" offset="0%"/>
            <stop stop-color="#C86DD7" offset="100%"/>
        </linearGradient>
    </defs>
    <path stroke="url(#a)"
          stroke-width="3"
          stroke-linejoin="round"
          stroke-linecap="round"
          d="M5 40 C 5.25 38.52, 8.53 10.29, 10 10 S 14.46 36.6, 15 38 S 18.5 36, 20 36 S 23.53 37.71, 25 38 S 28.5 38, 30 38 S 33.5 38, 35 38 S 38.5 38, 40 38 S 43.5 38, 45 38 S 48.5 38, 50 38 S 53.5 38, 55 38 S 58.5 38, 60 38 S 63.5 38, 65 38 S 68.5 38, 70 38 S 73.5 38, 75 38 S 78.5 38, 80 38 S 83.5 38, 85 38 S 88.5 38, 90 38 S 93.5 38, 95 38 S 98.5 38, 100 38 S 103.5 38, 105 38 S 108.5 38, 110 38 S 113.5 38, 115 38 S 118.5 38, 120 38 S 123.5 38, 125 38 S 128.5 38, 130 38 S 133.5 38, 135 38 S 138.5 38, 140 38 S 143.5 38, 145 38 S 148.5 38, 150 38 S 153.5 38, 155 38 S 158.5 38, 160 38 S 163.5 38, 165 38 S 168.5 38, 170 38"
          fill="none"/>
    <circle r="4" cx="5" cy="40" fill="#3023AE"/>
    <circle r="4" cx="170" cy="38" fill="#C86DD7"/>      
</svg>