<svg width="200" height="50" viewBox="0 0 210 50" xmlns="http://www.w3.org/2000/svg">
    <defs>
        <linearGradient x1="0%" y1="0%" x2="100%" y2="0%" id="a">
            <stop stop-color="#3023AE" offset="0%"/>
            <stop stop-color="#C86DD7" offset="100%"/>
        </linearGradient>
    </defs>
    <path stroke="url(#a)"
          stroke-width="3"
          stroke-linejoin="round"
          stroke-linecap="round"
          d="M5 40 C 5.26 38.52, 8.91 12.31, 10 11.28 S 14.09 29.32, 15 30.51 S 18.53 24.06, 20 24.36 S 23.93 31.51, 25 32.56 S 28.59 33.59, 30 34.1 S 33.56 35.74, 35 36.15 S 38.51 37.11, 40 36.92 S 43.71 35.63, 45 34.87 S 48.5 31.11, 50 31.03 S 53.5 34.32, 55 34.36 S 58.5 31.28, 60 31.28 S 63.67 35.04, 65 34.36 S 68.52 26.42, 70 26.15 S 73.88 31.56, 75 32.56 S 78.53 34.83, 80 35.13 S 83.51 34.81, 85 34.62 S 89.08 35.03, 90 33.85 S 93.53 22.09, 95 21.79 S 98.97 30.7, 100 31.79 S 103.74 33.12, 105 32.31 S 108.58 25.86, 110 25.38 S 113.9 27.95, 115 28.97 S 118.55 34.25, 120 34.62 S 123.57 31.98, 125 31.54 S 129.37 32.9, 130 31.54 S 133.72 10.79, 135 10 S 139.35 24.03, 140 25.38 S 143.67 30.09, 145 30.77 S 148.51 30.66, 150 30.51 S 153.5 29.66, 155 29.74 S 158.54 30.69, 160 31.03 S 163.57 32.49, 165 32.05 S 168.52 28.18, 170 27.95 S 174.15 31.75, 175 30.51 S 178.53 13.63, 180 13.33 S 184.21 27.18, 185 28.46 S 188.97 30.58, 190 29.49 S 193.71 18.71, 195 17.95 S 198.87 22.6, 200 23.59 S 203.72 25.88, 205 26.67"
          fill="none"/>
    <circle r="4" cx="5" cy="40" fill="#3023AE"/>
    <circle r="4" cx="205" cy="26.67" fill="#C86DD7"/>      
</svg>