<svg width="200" height="50" viewBox="0 0 210 50" xmlns="http://www.w3.org/2000/svg">
    <defs>
        <linearGradient x1="0%" y1="0%" x2="100%" y2="0%" id="a">
            <stop stop-color="#3023AE" offset="0%"/>
            <stop stop-color="#C86DD7" offset="100%"/>
        </linearGradient>
    </defs>
    <path stroke="url(#a)"
          stroke-width="3"
          stroke-linejoin="round"
          stroke-linecap="round"
          d="M5 40 C 6.5 39.9, 8.5 39.7, 10 39.67 S 13.5 39.83, 15 39.83 S 18.52 39.94, 20 39.67 S 23.5 38.06, 25 38.01 S 28.51 39.18, 30 39.34 S 33.5 39.19, 35 39.09 S 38.5 38.67, 40 38.67 S 43.5 39.2, 45 39.09 S 48.55 38.31, 50 37.93 S 53.51 36.6, 55 36.44 S 58.5 36.9, 60 36.85 S 64.48 37.51, 65 36.1 S 68.95 11.07, 70 10 S 74.43 24.52, 75 25.91 S 78.75 33.53, 80 34.36 S 83.7 33.29, 85 32.54 S 88.5 28.47, 90 28.56 S 93.73 32.33, 95 33.12 S 98.57 35.24, 100 34.78 S 103.52 30.16, 105 29.89 S 108.5 32.87, 110 32.96 S 113.83 31.4, 115 30.47 S 118.51 24.86, 120 25 S 123.73 30.59, 125 31.38 S 128.56 31.65, 130 31.22 S 133.51 28.54, 135 28.4 S 138.6 29.77, 140 30.3 S 143.51 32.09, 145 32.21 S 148.65 31.78, 150 31.13 S 154.29 28.72, 155 27.4 S 158.56 12.16, 160 12.57 S 164.24 28.93, 165 30.22 S 168.53 29.78, 170 29.48 S 173.67 28.85, 175 28.15 S 178.51 24.05, 180 24.25 S 183.79 28.6, 185 29.48 S 188.5 31.51, 190 31.55 S 193.58 30.19, 195 29.72 S 198.56 27.81, 200 28.23 S 203.87 31.63, 205 32.62"
          fill="none"/>
    <circle r="4" cx="5" cy="40" fill="#3023AE"/>
    <circle r="4" cx="205" cy="32.62" fill="#C86DD7"/>      
</svg>