<svg width="200" height="50" viewBox="0 0 210 50" xmlns="http://www.w3.org/2000/svg">
    <defs>
        <linearGradient x1="0%" y1="0%" x2="100%" y2="0%" id="a">
            <stop stop-color="#3023AE" offset="0%"/>
            <stop stop-color="#C86DD7" offset="100%"/>
        </linearGradient>
    </defs>
    <path stroke="url(#a)"
          stroke-width="3"
          stroke-linejoin="round"
          stroke-linecap="round"
          d="M5 40 C 5.26 38.52, 8.54 11.55, 10 11.2 S 14.49 36.19, 15 37.6 S 18.51 38.62, 20 38.8 S 23.54 39.15, 25 38.8 S 28.5 36.4, 30 36.4 S 33.54 38.45, 35 38.8 S 38.5 38.8, 40 38.8 S 43.5 38.8, 45 38.8 S 48.5 38.8, 50 38.8 S 53.5 38.8, 55 38.8 S 58.51 38.98, 60 38.8 S 63.65 38.25, 65 37.6 S 68.71 34.77, 70 34 S 73.54 31.95, 75 31.6 S 78.54 31.25, 80 31.6 S 83.71 33.23, 85 34 S 88.51 37.42, 90 37.6 S 93.51 35.38, 95 35.2 S 98.51 36.22, 100 36.4 S 103.51 36.58, 105 36.4 S 108.51 35.02, 110 35.2 S 113.54 37.95, 115 37.6 S 118.59 33.31, 120 32.8 S 123.5 34, 125 34 S 128.59 33.31, 130 32.8 S 133.65 29.75, 135 30.4 S 138.85 36.64, 140 37.6 S 144.04 39.95, 145 38.8 S 148.65 26.25, 150 25.6 S 153.59 33.49, 155 34 S 158.59 29.71, 160 29.2 S 163.51 30.22, 165 30.4 S 168.54 30.75, 170 30.4 S 173.59 27.49, 175 28 S 178.98 35.1, 180 34 S 184.04 18.35, 185 17.2 S 188.51 21.82, 190 22 S 193.54 18.75, 195 18.4 S 198.85 20.56, 200 19.6 S 204.31 11.33, 205 10"
          fill="none"/>
    <circle r="4" cx="5" cy="40" fill="#3023AE"/>
    <circle r="4" cx="205" cy="10" fill="#C86DD7"/>      
</svg>