<svg width="200" height="50" viewBox="0 0 210 50" xmlns="http://www.w3.org/2000/svg">
    <defs>
        <linearGradient x1="0%" y1="0%" x2="100%" y2="0%" id="a">
            <stop stop-color="#3023AE" offset="0%"/>
            <stop stop-color="#C86DD7" offset="100%"/>
        </linearGradient>
    </defs>
    <path stroke="url(#a)"
          stroke-width="3"
          stroke-linejoin="round"
          stroke-linecap="round"
          d="M5 40 C 6.47 39.73, 9.53 40.49, 10 39.07 S 13.76 10.84, 15 10 S 19.45 30.9, 20 32.3 S 23.56 35.14, 25 35.56 S 28.52 35.43, 30 35.21 S 33.5 34.01, 35 34.05 S 38.56 35.05, 40 35.45 S 43.51 36.68, 45 36.85 S 48.51 36.73, 50 36.61 S 53.51 36.19, 55 36.03 S 58.55 35.93, 60 35.56 S 63.52 33.72, 65 33.46 S 68.53 33.5, 70 33.81 S 73.51 35.44, 75 35.56 S 78.5 34.66, 80 34.63 S 83.88 36.33, 85 35.33 S 88.78 26.63, 90 25.76 S 93.81 27.29, 95 28.21 S 98.53 33.17, 100 33.46 S 103.51 30.33, 105 30.19 S 108.5 32.65, 110 32.53 S 113.51 29.59, 115 29.38 S 118.52 30.89, 120 31.13 S 123.51 31.22, 125 31.01 S 128.58 30.23, 130 29.73 S 133.56 27.95, 135 27.51 S 138.51 26.5, 140 26.69 S 143.5 28.74, 145 28.79 S 148.56 27.47, 150 27.04 S 153.52 26.02, 155 25.76 S 158.52 25.03, 160 25.29 S 163.56 27.11, 165 27.51 S 168.58 28.57, 170 28.09 S 173.77 24.98, 175 24.12 S 178.5 21, 180 21.09 S 183.5 24.69, 185 24.71 S 188.52 20.98, 190 21.21 S 193.54 25.89, 195 26.23 S 198.67 24.24, 200 23.54 S 203.67 21.66, 205 20.97"
          fill="none"/>
    <circle r="4" cx="5" cy="40" fill="#3023AE"/>
    <circle r="4" cx="205" cy="20.97" fill="#C86DD7"/>      
</svg>