<svg width="200" height="50" viewBox="0 0 210 50" xmlns="http://www.w3.org/2000/svg">
    <defs>
        <linearGradient x1="0%" y1="0%" x2="100%" y2="0%" id="a">
            <stop stop-color="#3023AE" offset="0%"/>
            <stop stop-color="#C86DD7" offset="100%"/>
        </linearGradient>
    </defs>
    <path stroke="url(#a)"
          stroke-width="3"
          stroke-linejoin="round"
          stroke-linecap="round"
          d="M5 40 C 5.33 38.54, 9.53 18.91, 10 17.49 S 13.54 9.64, 15 10 S 18.77 19.09, 20 19.95 S 23.6 17.58, 25 17.03 S 28.55 16.39, 30 16 S 33.5 14.31, 35 14.32 S 38.68 15.33, 40 16.05 S 43.62 19.19, 45 19.77 S 48.55 19.86, 50 20.23 S 53.53 22.04, 55 22.35 S 58.5 22.38, 60 22.37 S 63.5 22.25, 65 22.26 S 68.58 21.97, 70 22.45 S 73.58 25.17, 75 25.66 S 78.51 26.07, 80 25.91 S 83.5 24.65, 85 24.56 S 88.56 24.85, 90 25.28 S 93.53 27.24, 95 27.55 S 98.5 27.4, 100 27.36 S 103.5 27.17, 105 27.26 S 108.51 28.11, 110 27.95 S 113.51 26.29, 115 26.16 S 118.5 27.08, 120 27.08 S 123.54 26.53, 125 26.17 S 128.55 24.97, 130 24.58 S 133.57 23.03, 135 23.49 S 138.62 27.19, 140 27.79 S 143.5 27.72, 145 27.83 S 148.53 28.23, 150 28.53 S 153.51 29.65, 155 29.85 S 158.5 29.84, 160 29.85 S 163.5 30.04, 165 29.93 S 168.5 29.17, 170 29.13 S 173.51 29.52, 175 29.65 S 178.53 29.7, 180 30.01 S 183.51 31.58, 185 31.77 S 188.5 31.25, 190 31.31 S 193.52 31.92, 195 32.19 S 198.51 32.9, 200 33.11 S 203.51 33.45, 205 33.59"
          fill="none"/>
    <circle r="4" cx="5" cy="40" fill="#3023AE"/>
    <circle r="4" cx="205" cy="33.59" fill="#C86DD7"/>      
</svg>