<svg width="200" height="50" viewBox="0 0 210 50" xmlns="http://www.w3.org/2000/svg">
    <defs>
        <linearGradient x1="0%" y1="0%" x2="100%" y2="0%" id="a">
            <stop stop-color="#3023AE" offset="0%"/>
            <stop stop-color="#C86DD7" offset="100%"/>
        </linearGradient>
    </defs>
    <path stroke="url(#a)"
          stroke-width="3"
          stroke-linejoin="round"
          stroke-linecap="round"
          d="M5 40 C 5.51 38.59, 9.52 27.68, 10 26.26 S 14.21 11.55, 15 10.27 S 18.81 9.09, 20 10 S 23.95 16.88, 25 17.95 S 28.5 20.07, 30 20.17 S 33.51 18.82, 35 18.61 S 38.52 19.01, 40 18.76 S 43.58 17.42, 45 16.94 S 48.51 15.55, 50 15.41 S 53.54 15.68, 55 16.01 S 58.66 17.01, 60 17.68 S 63.56 20.58, 65 21 S 68.5 20.58, 70 20.56 S 73.52 20.63, 75 20.88 S 78.56 21.82, 80 22.22 S 83.52 23.45, 85 23.67 S 88.51 23.89, 90 23.72 S 93.51 22.7, 95 22.55 S 98.51 22.55, 100 22.69 S 103.51 23.34, 105 23.5 S 108.56 23.34, 110 23.77 S 113.55 26.11, 115 26.48 S 118.5 26.18, 120 26.29 S 123.51 27.4, 125 27.19 S 128.52 25.09, 130 24.87 S 133.51 25.58, 135 25.72 S 138.55 25.47, 140 25.84 S 143.53 27.99, 145 28.27 S 148.5 27.79, 150 27.75 S 153.5 28.01, 155 28 S 158.5 27.69, 160 27.68 S 163.5 27.88, 165 27.92 S 168.51 28.09, 170 27.95 S 173.51 27.16, 175 27.01 S 178.5 26.87, 180 26.94 S 183.51 27.7, 185 27.51 S 188.5 25.75, 190 25.69 S 193.5 27.21, 195 27.11 S 198.59 25.52, 200 25.01 S 203.56 23.93, 205 23.49"
          fill="none"/>
    <circle r="4" cx="5" cy="40" fill="#3023AE"/>
    <circle r="4" cx="205" cy="23.49" fill="#C86DD7"/>      
</svg>