<svg width="200" height="50" viewBox="0 0 210 50" xmlns="http://www.w3.org/2000/svg">
    <defs>
        <linearGradient x1="0%" y1="0%" x2="100%" y2="0%" id="a">
            <stop stop-color="#3023AE" offset="0%"/>
            <stop stop-color="#C86DD7" offset="100%"/>
        </linearGradient>
    </defs>
    <path stroke="url(#a)"
          stroke-width="3"
          stroke-linejoin="round"
          stroke-linecap="round"
          d="M5 40 C 5.52 38.59, 9.51 27.76, 10 26.34 S 14.22 12.55, 15 11.27 S 18.84 9.05, 20 10 S 23.98 18.3, 25 19.4 S 28.51 20.91, 30 20.77 S 33.53 18.76, 35 18.48 S 38.51 19.03, 40 18.87 S 43.54 17.76, 45 17.4 S 48.5 16.46, 50 16.37 S 53.52 16.58, 55 16.81 S 58.63 17.29, 60 17.89 S 63.59 20.66, 65 21.18 S 68.5 21.53, 70 21.58 S 73.52 21.29, 75 21.54 S 78.54 22.91, 80 23.27 S 83.5 23.98, 85 24.02 S 88.51 23.77, 90 23.56 S 93.5 22.55, 95 22.61 S 98.5 23.88, 100 23.99 S 103.52 23.1, 105 23.35 S 108.57 25.24, 110 25.69 S 113.51 26.32, 115 26.52 S 118.5 27.07, 120 27.04 S 123.52 26.6, 125 26.34 S 128.5 25.33, 130 25.29 S 133.53 25.77, 135 26.05 S 138.54 26.81, 140 27.16 S 143.5 28.36, 145 28.45 S 148.5 27.81, 150 27.78 S 153.5 28.21, 155 28.24 S 158.5 27.89, 160 27.96 S 163.5 28.73, 165 28.73 S 168.53 28.28, 170 27.97 S 173.5 26.7, 175 26.6 S 178.5 27.17, 180 27.27 S 183.5 27.32, 185 27.24 S 188.51 26.85, 190 26.72 S 193.51 26.54, 195 26.37 S 198.59 26.12, 200 25.6 S 203.7 23.45, 205 22.7"
          fill="none"/>
    <circle r="4" cx="5" cy="40" fill="#3023AE"/>
    <circle r="4" cx="205" cy="22.7" fill="#C86DD7"/>      
</svg>