<svg width="200" height="50" viewBox="0 0 210 50" xmlns="http://www.w3.org/2000/svg">
    <defs>
        <linearGradient x1="0%" y1="0%" x2="100%" y2="0%" id="a">
            <stop stop-color="#3023AE" offset="0%"/>
            <stop stop-color="#C86DD7" offset="100%"/>
        </linearGradient>
    </defs>
    <path stroke="url(#a)"
          stroke-width="3"
          stroke-linejoin="round"
          stroke-linecap="round"
          d="M5 40 C 5.51 38.59, 9.53 27.69, 10 26.27 S 14.2 11.27, 15 10 S 18.77 9.48, 20 10.34 S 23.93 15.96, 25 17.01 S 28.52 19.99, 30 20.22 S 33.51 18.75, 35 18.55 S 38.53 19.2, 40 18.88 S 43.57 16.83, 45 16.39 S 48.5 15.83, 50 15.78 S 53.52 15.77, 55 16.03 S 58.59 17.04, 60 17.56 S 63.55 19.36, 65 19.75 S 68.52 19.98, 70 20.23 S 73.53 21.15, 75 21.43 S 78.51 21.98, 80 22.15 S 83.52 22.32, 85 22.57 S 88.5 23.74, 90 23.83 S 93.51 23.41, 95 23.2 S 98.5 22.46, 100 22.41 S 103.51 22.7, 105 22.84 S 108.58 22.9, 110 23.37 S 113.57 25.67, 115 26.13 S 118.51 26.44, 120 26.56 S 123.52 27.19, 125 26.95 S 128.52 25.2, 130 24.97 S 133.51 25.23, 135 25.38 S 138.54 25.65, 140 25.98 S 143.51 27.48, 145 27.67 S 148.5 27.2, 150 27.28 S 153.5 28.1, 155 28.19 S 158.5 27.95, 160 27.85 S 163.5 27.4, 165 27.52 S 168.5 28.66, 170 28.62 S 173.54 27.57, 175 27.23 S 178.5 26.36, 180 26.32 S 183.5 26.94, 185 26.95 S 188.5 26.35, 190 26.37 S 193.52 27.33, 195 27.09 S 198.54 25.08, 200 24.74 S 203.5 24.73, 205 24.73"
          fill="none"/>
    <circle r="4" cx="5" cy="40" fill="#3023AE"/>
    <circle r="4" cx="205" cy="24.73" fill="#C86DD7"/>      
</svg>