<svg width="200" height="50" viewBox="0 0 210 50" xmlns="http://www.w3.org/2000/svg">
    <defs>
        <linearGradient x1="0%" y1="0%" x2="100%" y2="0%" id="a">
            <stop stop-color="#3023AE" offset="0%"/>
            <stop stop-color="#C86DD7" offset="100%"/>
        </linearGradient>
    </defs>
    <path stroke="url(#a)"
          stroke-width="3"
          stroke-linejoin="round"
          stroke-linecap="round"
          d="M5 40 C 5.52 38.59, 9.51 27.85, 10 26.43 S 14.22 12.66, 15 11.38 S 18.82 9.07, 20 10 S 23.96 18.21, 25 19.29 S 28.5 20.49, 30 20.45 S 33.52 19.21, 35 18.99 S 38.51 19.19, 40 18.99 S 43.54 17.98, 45 17.63 S 48.52 16.8, 50 16.56 S 53.52 15.8, 55 16.02 S 58.7 17.3, 60 18.04 S 63.58 21.21, 65 21.7 S 68.5 21.5, 70 21.47 S 73.5 21.35, 75 21.47 S 78.55 21.87, 80 22.26 S 83.52 23.88, 85 24.13 S 88.5 24.04, 90 23.92 S 93.5 23.34, 95 23.33 S 98.5 23.93, 100 23.85 S 103.52 22.56, 105 22.78 S 108.62 24.73, 110 25.31 S 113.51 26.8, 115 27 S 118.5 26.64, 120 26.64 S 123.52 27.24, 125 27 S 128.51 25.13, 130 25 S 133.52 25.89, 135 26.13 S 138.55 26.27, 140 26.64 S 143.51 28.53, 145 28.71 S 148.5 27.94, 150 27.86 S 153.5 28.11, 155 28.15 S 158.5 28.1, 160 28.15 S 163.5 28.53, 165 28.51 S 168.52 28.3, 170 28.04 S 173.5 26.86, 175 26.77 S 178.51 27.3, 180 27.46 S 183.51 28.07, 185 27.86 S 188.51 26.22, 190 26.08 S 193.5 27.03, 195 26.92 S 198.61 25.91, 200 25.34 S 203.66 23.46, 205 22.78"
          fill="none"/>
    <circle r="4" cx="5" cy="40" fill="#3023AE"/>
    <circle r="4" cx="205" cy="22.78" fill="#C86DD7"/>      
</svg>