<svg width="200" height="50" viewBox="0 0 210 50" xmlns="http://www.w3.org/2000/svg">
    <defs>
        <linearGradient x1="0%" y1="0%" x2="100%" y2="0%" id="a">
            <stop stop-color="#3023AE" offset="0%"/>
            <stop stop-color="#C86DD7" offset="100%"/>
        </linearGradient>
    </defs>
    <path stroke="url(#a)"
          stroke-width="3"
          stroke-linejoin="round"
          stroke-linecap="round"
          d="M5 40 C 5.51 38.59, 9.53 27.68, 10 26.26 S 14.2 11.27, 15 10 S 18.77 9.59, 20 10.45 S 23.93 15.9, 25 16.95 S 28.52 19.97, 30 20.22 S 33.51 18.82, 35 18.63 S 38.54 19.26, 40 18.92 S 43.57 16.76, 45 16.31 S 48.5 15.82, 50 15.81 S 53.52 15.96, 55 16.21 S 58.57 17.03, 60 17.5 S 63.56 19.06, 65 19.49 S 68.53 20.18, 70 20.46 S 73.52 21.19, 75 21.41 S 78.51 21.78, 80 21.96 S 83.53 22.28, 85 22.59 S 88.5 24, 90 24.08 S 93.53 23.39, 95 23.12 S 98.5 22.27, 100 22.23 S 103.51 22.65, 105 22.86 S 108.57 23.2, 110 23.64 S 113.56 25.51, 115 25.93 S 118.51 26.41, 120 26.55 S 123.51 27.05, 125 26.86 S 128.52 25.5, 130 25.25 S 133.5 25.08, 135 25.18 S 138.55 25.55, 140 25.93 S 143.52 27.58, 145 27.79 S 148.5 27.29, 150 27.36 S 153.5 28.2, 155 28.27 S 158.51 27.94, 160 27.8 S 163.51 27.16, 165 27.31 S 168.5 28.77, 170 28.78 S 173.55 27.78, 175 27.38 S 178.5 26.07, 180 26 S 183.5 26.82, 185 26.91 S 188.5 26.61, 190 26.62 S 193.52 27.2, 195 26.96 S 198.55 25.36, 200 24.99 S 203.51 24.58, 205 24.41"
          fill="none"/>
    <circle r="4" cx="5" cy="40" fill="#3023AE"/>
    <circle r="4" cx="205" cy="24.41" fill="#C86DD7"/>      
</svg>