<svg width="200" height="50" viewBox="0 0 210 50" xmlns="http://www.w3.org/2000/svg">
    <defs>
        <linearGradient x1="0%" y1="0%" x2="100%" y2="0%" id="a">
            <stop stop-color="#3023AE" offset="0%"/>
            <stop stop-color="#C86DD7" offset="100%"/>
        </linearGradient>
    </defs>
    <path stroke="url(#a)"
          stroke-width="3"
          stroke-linejoin="round"
          stroke-linecap="round"
          d="M5 40 C 5.32 38.54, 9.53 18.76, 10 17.34 S 13.53 9.71, 15 10 S 18.78 18.46, 20 19.34 S 23.58 17.68, 25 17.2 S 28.56 16.35, 30 15.93 S 33.5 14.19, 35 14.26 S 38.64 15.74, 40 16.38 S 43.6 18.45, 45 18.99 S 48.55 19.85, 50 20.24 S 53.54 21.32, 55 21.65 S 58.5 22.46, 60 22.51 S 63.5 22.06, 65 21.99 S 68.56 21.66, 70 22.07 S 73.62 24.22, 75 24.82 S 78.5 26.45, 80 26.41 S 83.51 24.72, 85 24.53 S 88.55 24.77, 90 25.16 S 93.53 26.88, 95 27.19 S 98.5 27.28, 100 27.28 S 103.5 27.11, 105 27.16 S 108.51 27.78, 110 27.63 S 113.5 26.2, 115 26.13 S 118.5 27.23, 120 27.19 S 123.53 26.16, 125 25.86 S 128.55 25.55, 130 25.15 S 133.51 22.92, 135 23.12 S 138.63 25.88, 140 26.49 S 143.54 27.24, 145 27.58 S 148.52 28.54, 150 28.79 S 153.51 29.1, 155 29.29 S 158.5 30.01, 160 30.09 S 163.5 29.94, 165 29.84 S 168.51 29.58, 170 29.42 S 173.5 28.65, 175 28.77 S 178.53 29.93, 180 30.23 S 183.51 30.64, 185 30.79 S 188.51 31.05, 190 31.22 S 193.52 31.68, 195 31.91 S 198.51 32.58, 200 32.74 S 203.5 32.92, 205 33"
          fill="none"/>
    <circle r="4" cx="5" cy="40" fill="#3023AE"/>
    <circle r="4" cx="205" cy="33" fill="#C86DD7"/>      
</svg>