<svg width="200" height="50" viewBox="0 0 210 50" xmlns="http://www.w3.org/2000/svg">
    <defs>
        <linearGradient x1="0%" y1="0%" x2="100%" y2="0%" id="a">
            <stop stop-color="#3023AE" offset="0%"/>
            <stop stop-color="#C86DD7" offset="100%"/>
        </linearGradient>
    </defs>
    <path stroke="url(#a)"
          stroke-width="3"
          stroke-linejoin="round"
          stroke-linecap="round"
          d="M5 40 C 6.47 39.69, 8.51 39.09, 10 38.93 S 13.5 38.93, 15 38.93 S 18.5 38.93, 20 38.93 S 23.5 38.93, 25 38.93 S 28.5 38.93, 30 38.93 S 33.5 38.93, 35 38.93 S 38.5 38.93, 40 38.93 S 43.5 38.93, 45 38.93 S 48.5 38.93, 50 38.93 S 53.5 38.93, 55 38.93 S 58.51 39.09, 60 38.93 S 63.5 37.86, 65 37.86 S 68.51 38.77, 70 38.93 S 73.5 38.93, 75 38.93 S 78.53 39.24, 80 38.93 S 83.5 36.79, 85 36.79 S 88.53 38.62, 90 38.93 S 93.51 39.09, 95 38.93 S 98.5 37.86, 100 37.86 S 103.5 38.93, 105 38.93 S 108.51 38.02, 110 37.86 S 113.51 38.02, 115 37.86 S 118.5 36.79, 120 36.79 S 123.51 37.7, 125 37.86 S 128.57 38.32, 130 37.86 S 133.53 34.96, 135 34.64 S 138.51 35.55, 140 35.71 S 143.51 35.55, 145 35.71 S 148.51 36.63, 150 36.79 S 153.51 36.63, 155 36.79 S 158.51 37.7, 160 37.86 S 163.51 38.02, 165 37.86 S 169.37 38.15, 170 36.79 S 174.08 17.61, 175 16.43 S 179.28 22.62, 180 23.93 S 184.13 35.86, 185 34.64 S 188.86 10.98, 190 10 S 194.17 24.82, 195 26.07 S 198.51 25.16, 200 25 S 203.5 25, 205 25"
          fill="none"/>
    <circle r="4" cx="5" cy="40" fill="#3023AE"/>
    <circle r="4" cx="205" cy="25" fill="#C86DD7"/>      
</svg>