<svg width="200" height="50" viewBox="0 0 210 50" xmlns="http://www.w3.org/2000/svg">
    <defs>
        <linearGradient x1="0%" y1="0%" x2="100%" y2="0%" id="a">
            <stop stop-color="#3023AE" offset="0%"/>
            <stop stop-color="#C86DD7" offset="100%"/>
        </linearGradient>
    </defs>
    <path stroke="url(#a)"
          stroke-width="3"
          stroke-linejoin="round"
          stroke-linecap="round"
          d="M5 40 C 5.25 38.52, 8.61 10.57, 10 10 S 14.46 34.51, 15 35.91 S 18.55 35.51, 20 35.91 S 23.5 38.64, 25 38.64 S 28.5 35.91, 30 35.91 S 33.55 38.24, 35 38.64 S 38.5 38.64, 40 38.64 S 43.5 38.64, 45 38.64 S 48.5 38.64, 50 38.64 S 53.5 38.64, 55 38.64 S 58.5 38.64, 60 38.64 S 63.5 38.64, 65 38.64 S 68.5 38.64, 70 38.64 S 73.51 38.84, 75 38.64 S 79.11 38.48, 80 37.27 S 83.84 25.95, 85 25 S 88.84 28.14, 90 29.09 S 93.55 32.78, 95 33.18 S 98.55 32.22, 100 31.82 S 103.55 30.85, 105 30.45 S 108.55 28.69, 110 29.09 S 113.5 33.18, 115 33.18 S 118.55 28.69, 120 29.09 S 123.51 35.71, 125 35.91 S 128.76 31.3, 130 30.45 S 133.55 28.69, 135 29.09 S 138.51 32.98, 140 33.18 S 143.61 31.02, 145 30.45 S 148.55 28.69, 150 29.09 S 153.99 34.29, 155 33.18 S 158.61 18.75, 160 18.18 S 164.05 27.93, 165 29.09 S 168.61 29.88, 170 30.45 S 173.51 32.98, 175 33.18 S 178.55 32.22, 180 31.82 S 183.55 30.85, 185 30.45 S 188.61 28.52, 190 29.09 S 193.51 34.35, 195 34.55 S 198.99 31.56, 200 30.45 S 204.11 24.85, 205 23.64"
          fill="none"/>
    <circle r="4" cx="5" cy="40" fill="#3023AE"/>
    <circle r="4" cx="205" cy="23.64" fill="#C86DD7"/>      
</svg>