<svg width="200" height="50" viewBox="0 0 210 50" xmlns="http://www.w3.org/2000/svg">
    <defs>
        <linearGradient x1="0%" y1="0%" x2="100%" y2="0%" id="a">
            <stop stop-color="#3023AE" offset="0%"/>
            <stop stop-color="#C86DD7" offset="100%"/>
        </linearGradient>
    </defs>
    <path stroke="url(#a)"
          stroke-width="3"
          stroke-linejoin="round"
          stroke-linecap="round"
          d="M5 40 C 5.47 38.58, 8.86 25.98, 10 25 S 13.53 31.12, 15 31.43 S 18.98 28.24, 20 27.14 S 23.62 21.3, 25 20.71 S 28.74 22.05, 30 22.86 S 33.98 26.04, 35 27.14 S 38.62 34.16, 40 33.57 S 44.17 24.11, 45 22.86 S 48.62 19.16, 50 18.57 S 53.5 18.57, 55 18.57 S 58.86 19.55, 60 18.57 S 63.62 10.59, 65 10 S 69.31 12.96, 70 14.29 S 73.98 28.19, 75 29.29 S 78.53 25.32, 80 25 S 84.08 25.96, 85 27.14 S 88.74 37.05, 90 37.86 S 93.98 34.67, 95 33.57 S 98.62 27.73, 100 27.14 S 103.62 28.7, 105 29.29 S 108.5 31.43, 110 31.43 S 113.86 30.27, 115 29.29 S 118.98 23.96, 120 22.86 S 123.74 17.76, 125 18.57 S 129.17 28.04, 130 29.29 S 133.86 34.55, 135 33.57 S 138.62 21.3, 140 20.71 S 143.74 28.48, 145 29.29 S 148.53 26.83, 150 27.14 S 153.53 31.11, 155 31.43 S 158.53 29.6, 160 29.29 S 163.53 28.98, 165 29.29 S 168.62 30.84, 170 31.43 S 173.62 32.98, 175 33.57 S 178.62 35.12, 180 35.71 S 183.5 37.86, 185 37.86 S 188.62 36.3, 190 35.71 S 193.53 33.25, 195 33.57 S 198.53 38.17, 200 37.86 S 204.08 32.61, 205 31.43"
          fill="none"/>
    <circle r="4" cx="5" cy="40" fill="#3023AE"/>
    <circle r="4" cx="205" cy="31.43" fill="#C86DD7"/>      
</svg>