<svg width="200" height="50" viewBox="0 0 210 50" xmlns="http://www.w3.org/2000/svg">
    <defs>
        <linearGradient x1="0%" y1="0%" x2="100%" y2="0%" id="a">
            <stop stop-color="#3023AE" offset="0%"/>
            <stop stop-color="#C86DD7" offset="100%"/>
        </linearGradient>
    </defs>
    <path stroke="url(#a)"
          stroke-width="3"
          stroke-linejoin="round"
          stroke-linecap="round"
          d="M5 40 C 6.5 39.99, 8.5 40.01, 10 39.98 S 13.75 40.63, 15 39.8 S 18.57 33.81, 20 33.36 S 23.53 36.32, 25 36.62 S 29.47 36.79, 30 35.39 S 33.51 9.8, 35 10 S 39.51 35.34, 40 36.76 S 43.52 38.5, 45 38.72 S 48.55 38.6, 50 38.23 S 53.54 36.49, 55 36.15 S 58.52 36.16, 60 35.91 S 63.52 34.75, 65 34.49 S 68.5 34.15, 70 34.18 S 73.5 34.7, 75 34.68 S 78.5 33.99, 80 34.07 S 83.5 35.34, 85 35.24 S 88.5 33.37, 90 33.42 S 93.55 35.21, 95 35.59 S 98.5 36.04, 100 36.06 S 103.5 35.78, 105 35.72 S 108.5 35.53, 110 35.63 S 113.5 36.37, 115 36.41 S 118.5 35.92, 120 35.91 S 123.51 36.21, 125 36.34 S 128.5 36.7, 130 36.76 S 133.5 36.7, 135 36.73 S 138.5 36.87, 140 36.99 S 143.5 37.52, 145 37.53 S 148.5 37.07, 150 37.06 S 153.5 37.35, 155 37.43 S 158.5 37.58, 160 37.6 S 163.5 37.58, 165 37.58 S 168.5 37.6, 170 37.62 S 173.5 37.59, 175 37.69 S 178.5 38.22, 180 38.27 S 183.5 37.98, 185 38.03 S 188.5 38.55, 190 38.61 S 193.5 38.42, 195 38.42 S 198.5 38.64, 200 38.64 S 203.5 38.5, 205 38.44"
          fill="none"/>
    <circle r="4" cx="5" cy="40" fill="#3023AE"/>
    <circle r="4" cx="205" cy="38.44" fill="#C86DD7"/>      
</svg>