<svg width="200" height="50" viewBox="0 0 210 50" xmlns="http://www.w3.org/2000/svg">
    <defs>
        <linearGradient x1="0%" y1="0%" x2="100%" y2="0%" id="a">
            <stop stop-color="#3023AE" offset="0%"/>
            <stop stop-color="#C86DD7" offset="100%"/>
        </linearGradient>
    </defs>
    <path stroke="url(#a)"
          stroke-width="3"
          stroke-linejoin="round"
          stroke-linecap="round"
          d="M5 40 C 5.38 38.55, 8.86 21.88, 10 20.91 S 14.07 30.3, 15 31.48 S 19.35 34.87, 20 33.52 S 23.54 10.33, 25 10.68 S 28.5 36.01, 30 35.91 S 34.08 11.19, 35 10 S 39.31 21.62, 40 22.95 S 43.66 28.75, 45 29.43 S 48.55 27.67, 50 28.07 S 53.54 32.51, 55 32.16 S 58.72 26.46, 60 25.68 S 63.5 25.97, 65 26.02 S 68.51 25.82, 70 26.02 S 73.53 27.09, 75 27.39 S 78.51 28.27, 80 28.07 S 83.55 26.42, 85 26.02 S 88.51 25.49, 90 25.34 S 93.6 24.47, 95 25 S 98.57 28.65, 100 29.09 S 103.51 27.87, 105 28.07 S 108.54 30.8, 110 30.45 S 113.57 26.12, 115 25.68 S 118.55 26.99, 120 27.39 S 123.52 28.16, 125 28.41 S 128.5 29.09, 130 29.09 S 133.55 28.81, 135 28.41 S 138.52 26.61, 140 26.36 S 143.5 26.6, 145 26.7 S 148.51 26.9, 150 27.05 S 153.57 27.29, 155 27.73 S 158.76 29.26, 160 30.11 S 163.58 34.07, 165 34.55 S 168.68 34.24, 170 33.52 S 173.57 29.53, 175 29.09 S 178.61 29.88, 180 30.45 S 183.63 32.57, 185 33.18 S 188.51 35.09, 190 34.89 S 193.53 32.12, 195 31.82 S 198.5 32.79, 200 32.84 S 203.51 32.36, 205 32.16"
          fill="none"/>
    <circle r="4" cx="5" cy="40" fill="#3023AE"/>
    <circle r="4" cx="205" cy="32.16" fill="#C86DD7"/>      
</svg>