<svg width="200" height="50" viewBox="0 0 210 50" xmlns="http://www.w3.org/2000/svg">
    <defs>
        <linearGradient x1="0%" y1="0%" x2="100%" y2="0%" id="a">
            <stop stop-color="#3023AE" offset="0%"/>
            <stop stop-color="#C86DD7" offset="100%"/>
        </linearGradient>
    </defs>
    <path stroke="url(#a)"
          stroke-width="3"
          stroke-linejoin="round"
          stroke-linecap="round"
          d="M5 40 C 6.46 39.66, 8.51 39.02, 10 38.85 S 13.58 39.34, 15 38.85 S 18.51 35.55, 20 35.38 S 23.51 37.52, 25 37.69 S 28.64 37.17, 30 36.54 S 33.64 33.71, 35 33.08 S 38.5 31.92, 40 31.92 S 43.77 32.23, 45 33.08 S 48.5 38.85, 50 38.85 S 53.58 33.57, 55 33.08 S 59.32 36.72, 60 35.38 S 63.51 13.29, 65 13.46 S 68.58 37.03, 70 36.54 S 73.83 10.94, 75 10 S 79.49 27.05, 80 28.46 S 83.83 36.75, 85 37.69 S 88.7 37.29, 90 36.54 S 93.54 32.26, 95 31.92 S 98.51 34.06, 100 34.23 S 104.21 34.36, 105 33.08 S 108.51 18.25, 110 18.08 S 114.17 30.67, 115 31.92 S 118.77 33.93, 120 33.08 S 123.5 25, 125 25 S 128.77 32.23, 130 33.08 S 134.12 33.14, 135 31.92 S 138.51 19.4, 140 19.23 S 143.96 29.69, 145 30.77 S 148.64 28.99, 150 29.62 S 153.64 34.75, 155 35.38 S 158.96 35.31, 160 34.23 S 163.7 25.75, 165 25 S 168.77 27.61, 170 28.46 S 173.64 31.29, 175 31.92 S 178.83 34.02, 180 33.08 S 183.54 24.19, 185 23.85 S 188.9 29.75, 190 30.77 S 193.58 33.57, 195 33.08 S 198.51 27.48, 200 27.31 S 203.9 30.9, 205 31.92"
          fill="none"/>
    <circle r="4" cx="5" cy="40" fill="#3023AE"/>
    <circle r="4" cx="205" cy="31.92" fill="#C86DD7"/>      
</svg>