<svg width="200" height="50" viewBox="0 0 210 50" xmlns="http://www.w3.org/2000/svg">
    <defs>
        <linearGradient x1="0%" y1="0%" x2="100%" y2="0%" id="a">
            <stop stop-color="#3023AE" offset="0%"/>
            <stop stop-color="#C86DD7" offset="100%"/>
        </linearGradient>
    </defs>
    <path stroke="url(#a)"
          stroke-width="3"
          stroke-linejoin="round"
          stroke-linecap="round"
          d="M5 40 C 6.37 39.4, 8.52 38.03, 10 37.8 S 13.5 38.35, 15 38.43 S 18.5 38.39, 20 38.32 S 23.51 38.16, 25 37.98 S 28.51 37.24, 30 37.11 S 33.5 37.17, 35 37.11 S 38.66 37.4, 40 36.73 S 43.57 32.59, 45 32.14 S 48.58 33.08, 50 33.57 S 53.5 35.59, 55 35.61 S 58.53 34, 60 33.7 S 63.51 33.75, 65 33.55 S 68.5 32.44, 70 32.38 S 73.5 33.07, 75 33.17 S 78.5 32.97, 80 33.08 S 83.5 33.93, 85 33.91 S 88.63 33.52, 90 32.92 S 93.57 29.99, 95 29.54 S 98.52 29.57, 100 29.81 S 103.54 30.79, 105 31.13 S 108.58 32.63, 110 32.14 S 113.54 28, 115 27.65 S 118.54 29.44, 120 29.76 S 123.53 29.55, 125 29.85 S 128.57 31.33, 130 31.8 S 133.52 32.87, 135 33.12 S 138.5 33.51, 140 33.46 S 143.57 33.25, 145 32.81 S 148.5 30.47, 150 30.37 S 153.51 31.99, 155 32.14 S 158.51 31.6, 160 31.4 S 163.5 30.75, 165 30.81 S 169.35 33.17, 170 31.82 S 173.5 9.96, 175 10 S 179.38 30.75, 180 32.11 S 183.5 31.88, 185 31.87 S 188.51 32.2, 190 32.07 S 193.52 31.25, 195 30.99 S 198.55 30.74, 200 30.34 S 203.62 28.84, 205 28.26"
          fill="none"/>
    <circle r="4" cx="5" cy="40" fill="#3023AE"/>
    <circle r="4" cx="205" cy="28.259999999999998" fill="#C86DD7"/>      
</svg>