<svg width="200" height="50" viewBox="0 0 210 50" xmlns="http://www.w3.org/2000/svg">
    <defs>
        <linearGradient x1="0%" y1="0%" x2="100%" y2="0%" id="a">
            <stop stop-color="#3023AE" offset="0%"/>
            <stop stop-color="#C86DD7" offset="100%"/>
        </linearGradient>
    </defs>
    <path stroke="url(#a)"
          stroke-width="3"
          stroke-linejoin="round"
          stroke-linecap="round"
          d="M5 40 C 5.74 38.69, 8.53 31.46, 10 31.14 S 13.55 37.46, 15 37.83 S 18.5 33.7, 20 33.67 S 23.51 37.49, 25 37.65 S 28.53 35.05, 30 34.76 S 33.5 35.69, 35 35.66 S 38.83 35.51, 40 34.58 S 44.43 29.1, 45 27.71 S 48.59 10.51, 50 10 S 54.31 22.77, 55 24.1 S 58.69 28.61, 60 29.34 S 63.51 29.57, 65 29.7 S 68.51 30.11, 70 30.24 S 73.51 30.73, 75 30.6 S 78.58 29.83, 80 29.34 S 83.52 27.39, 85 27.17 S 88.51 27.73, 90 27.89 S 93.51 28.44, 95 28.25 S 98.68 27.34, 100 26.63 S 103.7 23.58, 105 22.83 S 108.52 20.62, 110 20.84 S 113.59 23.77, 115 24.28 S 118.52 24.68, 120 24.46 S 123.9 23.85, 125 22.83 S 128.5 15.21, 130 15.24 S 133.78 22.13, 135 23.01 S 138.51 22.31, 140 22.47 S 143.5 24.1, 145 24.1 S 148.6 23, 150 22.47 S 153.5 20.27, 155 20.3 S 158.52 22.38, 160 22.65 S 163.57 22.57, 165 22.11 S 168.5 19.35, 170 19.4 S 173.53 22.18, 175 22.47 S 178.64 20.75, 180 21.39 S 183.56 26.75, 185 27.17 S 188.65 24.94, 190 24.28 S 193.5 22.21, 195 22.29 S 198.58 24.33, 200 24.82 S 203.52 25.45, 205 25.72"
          fill="none"/>
    <circle r="4" cx="5" cy="40" fill="#3023AE"/>
    <circle r="4" cx="205" cy="25.72" fill="#C86DD7"/>      
</svg>