<svg width="200" height="50" viewBox="0 0 210 50" xmlns="http://www.w3.org/2000/svg">
    <defs>
        <linearGradient x1="0%" y1="0%" x2="100%" y2="0%" id="a">
            <stop stop-color="#3023AE" offset="0%"/>
            <stop stop-color="#C86DD7" offset="100%"/>
        </linearGradient>
    </defs>
    <path stroke="url(#a)"
          stroke-width="3"
          stroke-linejoin="round"
          stroke-linecap="round"
          d="M5 40 C 6.49 39.81, 8.53 39.64, 10 39.36 S 13.56 38.55, 15 38.13 S 18.65 37.1, 20 36.46 S 23.66 34.04, 25 33.37 S 28.56 31.93, 30 31.5 S 33.56 30.77, 35 30.34 S 38.57 28.98, 40 28.54 S 43.66 27.93, 45 27.25 S 48.51 23.31, 50 23.45 S 53.56 27.81, 55 28.22 S 58.58 26.78, 60 26.29 S 63.52 24.96, 65 24.74 S 68.5 24.81, 70 24.81 S 73.5 24.86, 75 24.74 S 78.5 24.11, 80 24.03 S 83.51 24.09, 85 24.23 S 88.51 24.79, 90 25 S 93.5 25.71, 95 25.64 S 98.89 25.55, 100 24.55 S 104.09 17.83, 105 16.63 S 108.5 11.34, 110 11.35 S 113.51 16.53, 115 16.7 S 118.64 11.88, 120 12.51 S 123.75 20.51, 125 21.33 S 128.54 19.44, 130 19.08 S 133.51 18.69, 135 18.88 S 138.52 20.62, 140 20.36 S 143.5 17.25, 145 17.15 S 148.72 18.93, 150 19.72 S 153.56 22.92, 155 23.33 S 158.58 23.04, 160 22.55 S 163.76 20.75, 165 19.91 S 168.63 16.39, 170 15.79 S 173.67 14.85, 175 15.54 S 178.69 20.21, 180 20.94 S 183.71 21.9, 185 21.14 S 188.68 15.73, 190 15.02 S 193.66 16.46, 195 15.79 S 198.5 10.08, 200 10 S 203.97 14.19, 205 15.28"
          fill="none"/>
    <circle r="4" cx="5" cy="40" fill="#3023AE"/>
    <circle r="4" cx="205" cy="15.280000000000001" fill="#C86DD7"/>      
</svg>