<svg width="200" height="50" viewBox="0 0 210 50" xmlns="http://www.w3.org/2000/svg">
    <defs>
        <linearGradient x1="0%" y1="0%" x2="100%" y2="0%" id="a">
            <stop stop-color="#3023AE" offset="0%"/>
            <stop stop-color="#C86DD7" offset="100%"/>
        </linearGradient>
    </defs>
    <path stroke="url(#a)"
          stroke-width="3"
          stroke-linejoin="round"
          stroke-linecap="round"
          d="M5 40 C 6.28 39.22, 8.63 37.59, 10 36.98 S 13.5 35.56, 15 35.56 S 18.51 36.81, 20 36.98 S 23.53 36.95, 25 36.67 S 28.53 35.36, 30 35.08 S 33.5 34.88, 35 34.76 S 38.5 34.19, 40 34.29 S 43.52 35.17, 45 35.4 S 48.52 35.66, 50 35.87 S 53.5 36.76, 55 36.83 S 58.5 36.45, 60 36.35 S 63.5 36.21, 65 36.19 S 68.5 36.24, 70 36.19 S 73.56 36.3, 75 35.87 S 78.53 33.47, 80 33.17 S 83.5 33.74, 85 33.81 S 88.5 33.65, 90 33.65 S 93.52 34.02, 95 33.81 S 98.55 32.59, 100 32.22 S 103.55 30.88, 105 31.27 S 108.65 34.28, 110 34.92 S 113.52 35.82, 115 36.03 S 118.52 36.56, 120 36.35 S 123.54 34.93, 125 34.6 S 128.82 35.05, 130 34.13 S 133.7 27.57, 135 26.83 S 138.7 27.67, 140 28.41 S 144.28 33.86, 145 32.54 S 148.57 10.45, 150 10 S 154.43 27.98, 155 29.37 S 158.59 33.62, 160 34.13 S 163.51 33.19, 165 33.02 S 168.5 33, 170 33.02 S 173.5 33.19, 175 33.17 S 178.73 33.66, 180 32.86 S 184.02 27.97, 185 26.83 S 188.59 20.76, 190 21.27 S 193.89 29.47, 195 30.48 S 198.5 30.32, 200 30.32 S 203.5 30.43, 205 30.48"
          fill="none"/>
    <circle r="4" cx="5" cy="40" fill="#3023AE"/>
    <circle r="4" cx="205" cy="30.48" fill="#C86DD7"/>      
</svg>