<svg width="200" height="50" viewBox="0 0 210 50" xmlns="http://www.w3.org/2000/svg">
    <defs>
        <linearGradient x1="0%" y1="0%" x2="100%" y2="0%" id="a">
            <stop stop-color="#3023AE" offset="0%"/>
            <stop stop-color="#C86DD7" offset="100%"/>
        </linearGradient>
    </defs>
    <path stroke="url(#a)"
          stroke-width="3"
          stroke-linejoin="round"
          stroke-linecap="round"
          d="M5 40 C 6.04 38.92, 9.53 36.24, 10 34.82 S 13.79 10.89, 15 10 S 19.46 26.02, 20 27.42 S 23.87 34.73, 25 35.72 S 28.52 35.92, 30 36.17 S 33.53 37.13, 35 37.44 S 38.51 38.11, 40 38.28 S 43.51 38.44, 45 38.6 S 48.5 39.2, 50 39.32 S 53.5 39.37, 55 39.39 S 58.5 39.38, 60 39.43 S 63.5 39.74, 65 39.74 S 68.5 39.43, 70 39.43 S 73.5 39.66, 75 39.71 S 78.5 39.84, 80 39.76 S 83.5 39.21, 85 39.17 S 88.5 39.42, 90 39.5 S 93.5 39.68, 95 39.71 S 98.5 39.69, 100 39.71 S 103.5 39.85, 105 39.86 S 108.5 39.81, 110 39.77 S 113.5 39.59, 115 39.58 S 118.5 39.66, 120 39.67 S 123.5 39.6, 125 39.62 S 128.5 39.8, 130 39.79 S 133.5 39.56, 135 39.53 S 138.5 39.57, 140 39.6 S 143.5 39.69, 145 39.72 S 148.5 39.79, 150 39.79 S 153.5 39.82, 155 39.74 S 158.5 39.28, 160 39.25 S 163.5 39.54, 165 39.57 S 168.5 39.44, 170 39.45 S 173.5 39.61, 175 39.64 S 178.5 39.61, 180 39.62 S 183.5 39.69, 185 39.69 S 188.52 39.87, 190 39.64 S 193.6 38.64, 195 38.11 S 198.51 35.75, 200 35.89 S 203.73 38.25, 205 39.05"
          fill="none"/>
    <circle r="4" cx="5" cy="40" fill="#3023AE"/>
    <circle r="4" cx="205" cy="39.05" fill="#C86DD7"/>      
</svg>