<svg width="200" height="50" viewBox="0 0 210 50" xmlns="http://www.w3.org/2000/svg">
    <defs>
        <linearGradient x1="0%" y1="0%" x2="100%" y2="0%" id="a">
            <stop stop-color="#3023AE" offset="0%"/>
            <stop stop-color="#C86DD7" offset="100%"/>
        </linearGradient>
    </defs>
    <path stroke="url(#a)"
          stroke-width="3"
          stroke-linejoin="round"
          stroke-linecap="round"
          d="M5 40 C 5.82 38.74, 8.82 33.25, 10 32.33 S 13.72 31.41, 15 32.19 S 18.79 37.49, 20 38.37 S 23.51 39.33, 25 39.45 S 28.5 39.2, 30 39.2 S 33.5 39.46, 35 39.47 S 38.5 39.35, 40 39.3 S 43.51 39.29, 45 39.11 S 49.51 39.54, 50 38.12 S 53.51 10.14, 55 10 S 59.5 35.79, 60 37.2 S 63.51 37.92, 65 38.11 S 68.51 38.69, 70 38.5 S 73.51 36.98, 75 36.83 S 78.52 37.26, 80 37.52 S 83.51 38.4, 85 38.59 S 88.5 38.83, 90 38.82 S 93.5 38.58, 95 38.54 S 98.5 38.56, 100 38.58 S 103.52 38.9, 105 38.66 S 108.55 37.34, 110 36.96 S 113.54 36.35, 115 36.02 S 118.51 34.49, 120 34.7 S 123.51 37.24, 125 37.43 S 128.5 35.98, 130 35.95 S 133.53 36.91, 135 37.22 S 138.51 38.23, 140 38.09 S 143.5 36.35, 145 36.26 S 148.51 37.34, 150 37.51 S 153.61 37.92, 155 37.37 S 158.51 33.7, 160 33.53 S 163.57 35.77, 165 36.21 S 168.51 36.45, 170 36.59 S 173.5 37.1, 175 37.16 S 178.5 37.05, 180 37 S 183.5 36.81, 185 36.85 S 188.5 37.18, 190 37.26 S 193.5 37.35, 195 37.39 S 198.5 37.53, 200 37.53 S 203.5 37.43, 205 37.39"
          fill="none"/>
    <circle r="4" cx="5" cy="40" fill="#3023AE"/>
    <circle r="4" cx="205" cy="37.39" fill="#C86DD7"/>      
</svg>