<svg width="200" height="50" viewBox="0 0 210 50" xmlns="http://www.w3.org/2000/svg">
    <defs>
        <linearGradient x1="0%" y1="0%" x2="100%" y2="0%" id="a">
            <stop stop-color="#3023AE" offset="0%"/>
            <stop stop-color="#C86DD7" offset="100%"/>
        </linearGradient>
    </defs>
    <path stroke="url(#a)"
          stroke-width="3"
          stroke-linejoin="round"
          stroke-linecap="round"
          d="M5 40 C 5.25 38.52, 9.41 11.38, 10 10 S 14.36 15.18, 15 16.54 S 19.26 29.93, 20 31.23 S 23.58 33.65, 25 34.14 S 28.5 34.75, 30 34.69 S 33.51 33.94, 35 33.77 S 38.51 33.34, 40 33.52 S 43.6 34.46, 45 35 S 48.54 37, 50 37.35 S 53.5 37.4, 55 37.41 S 58.5 37.41, 60 37.41 S 63.51 37.26, 65 37.41 S 68.52 38.18, 70 38.4 S 73.5 38.82, 75 38.89 S 78.5 38.93, 80 38.89 S 83.5 38.63, 85 38.64 S 88.5 39.05, 90 38.95 S 93.51 38.12, 95 37.96 S 98.51 37.7, 100 37.9 S 103.52 39.06, 105 39.32 S 108.5 39.63, 110 39.69 S 113.5 39.8, 115 39.75 S 118.5 39.5, 120 39.38 S 123.51 39.1, 125 38.95 S 128.5 38.51, 130 38.4 S 133.5 38.1, 135 38.21 S 138.51 38.97, 140 39.14 S 143.5 39.23, 145 39.32 S 148.5 39.71, 150 39.75 S 153.5 39.57, 155 39.57 S 158.5 39.72, 160 39.75 S 163.5 39.73, 165 39.75 S 168.5 39.92, 170 39.88 S 173.5 39.54, 175 39.51 S 178.5 39.65, 180 39.69 S 183.5 39.79, 185 39.81 S 188.5 39.87, 190 39.81 S 193.5 39.46, 195 39.44 S 198.5 39.68, 200 39.69 S 203.5 39.56, 205 39.51"
          fill="none"/>
    <circle r="4" cx="5" cy="40" fill="#3023AE"/>
    <circle r="4" cx="205" cy="39.51" fill="#C86DD7"/>      
</svg>