<svg width="200" height="50" viewBox="0 0 210 50" xmlns="http://www.w3.org/2000/svg">
    <defs>
        <linearGradient x1="0%" y1="0%" x2="100%" y2="0%" id="a">
            <stop stop-color="#3023AE" offset="0%"/>
            <stop stop-color="#C86DD7" offset="100%"/>
        </linearGradient>
    </defs>
    <path stroke="url(#a)"
          stroke-width="3"
          stroke-linejoin="round"
          stroke-linecap="round"
          d="M5 40 C 5.28 38.53, 9.36 15.46, 10 14.1 S 13.67 18.02, 15 18.72 S 18.51 19.53, 20 19.36 S 23.77 16.71, 25 17.56 S 29.12 25.06, 30 26.28 S 33.59 30.9, 35 31.41 S 39.37 31.23, 40 29.87 S 43.88 11, 45 10 S 49.05 19.74, 50 20.9 S 53.57 21.85, 55 22.31 S 58.51 24.25, 60 24.1 S 63.61 20.71, 65 21.28 S 68.8 27.31, 70 28.21 S 73.56 29.13, 75 28.72 S 78.6 24.84, 80 25.38 S 83.75 31.73, 85 32.56 S 88.5 31.93, 90 32.05 S 93.54 32.99, 95 33.33 S 98.56 33.94, 100 34.36 S 103.56 35.86, 105 36.28 S 108.53 36.99, 110 37.31 S 113.5 38.36, 115 38.46 S 118.67 38.63, 120 37.95 S 123.53 33.65, 125 33.33 S 128.67 35.07, 130 35.77 S 133.54 38.23, 135 38.59 S 138.51 38.36, 140 38.21 S 143.5 37.45, 145 37.56 S 148.51 38.82, 150 38.97 S 153.5 38.63, 155 38.59 S 158.51 38.85, 160 38.72 S 163.5 37.69, 165 37.69 S 168.5 38.74, 170 38.72 S 173.52 37.83, 175 37.56 S 178.5 36.92, 180 36.92 S 183.51 37.43, 185 37.56 S 188.56 38.23, 190 37.82 S 193.5 34.8, 195 34.74 S 198.52 37.19, 200 37.44 S 203.53 36.71, 205 36.41"
          fill="none"/>
    <circle r="4" cx="5" cy="40" fill="#3023AE"/>
    <circle r="4" cx="205" cy="36.41" fill="#C86DD7"/>      
</svg>