<svg width="200" height="50" viewBox="0 0 210 50" xmlns="http://www.w3.org/2000/svg">
    <defs>
        <linearGradient x1="0%" y1="0%" x2="100%" y2="0%" id="a">
            <stop stop-color="#3023AE" offset="0%"/>
            <stop stop-color="#C86DD7" offset="100%"/>
        </linearGradient>
    </defs>
    <path stroke="url(#a)"
          stroke-width="3"
          stroke-linejoin="round"
          stroke-linecap="round"
          d="M5 40 C 5.35 38.54, 9.53 20.57, 10 19.15 S 13.53 9.69, 15 10 S 19.4 19.89, 20 21.26 S 24.16 31.56, 25 32.8 S 28.64 35.3, 30 35.94 S 33.52 37.29, 35 37.51 S 38.51 37.24, 40 37.41 S 43.52 38.39, 45 38.64 S 48.5 39.06, 50 39.11 S 53.5 39.08, 55 39 S 58.5 38.66, 60 38.6 S 63.5 38.49, 65 38.57 S 68.5 39.01, 70 39.11 S 73.5 39.25, 75 39.26 S 78.5 39.15, 80 39.19 S 83.5 39.45, 85 39.5 S 88.5 39.54, 90 39.55 S 93.5 39.58, 95 39.58 S 98.5 39.56, 100 39.56 S 103.5 39.58, 105 39.6 S 108.5 39.66, 110 39.67 S 113.5 39.71, 115 39.7 S 118.5 39.66, 120 39.63 S 123.5 39.56, 125 39.53 S 128.5 39.49, 130 39.41 S 133.5 39.02, 135 38.98 S 138.5 39.08, 140 39.17 S 143.5 39.49, 145 39.58 S 148.5 39.75, 150 39.76 S 153.5 39.68, 155 39.67 S 158.5 39.64, 160 39.67 S 163.5 39.82, 165 39.84 S 168.5 39.84, 170 39.82 S 173.5 39.72, 175 39.72 S 178.5 39.79, 180 39.8 S 183.5 39.79, 185 39.8 S 188.5 39.84, 190 39.86 S 193.5 39.95, 195 39.92 S 198.5 39.65, 200 39.63 S 203.5 39.74, 205 39.79"
          fill="none"/>
    <circle r="4" cx="5" cy="40" fill="#3023AE"/>
    <circle r="4" cx="205" cy="39.79" fill="#C86DD7"/>      
</svg>