<svg width="200" height="50" viewBox="0 0 210 50" xmlns="http://www.w3.org/2000/svg">
    <defs>
        <linearGradient x1="0%" y1="0%" x2="100%" y2="0%" id="a">
            <stop stop-color="#3023AE" offset="0%"/>
            <stop stop-color="#C86DD7" offset="100%"/>
        </linearGradient>
    </defs>
    <path stroke="url(#a)"
          stroke-width="3"
          stroke-linejoin="round"
          stroke-linecap="round"
          d="M5 40 C 5.61 38.63, 8.6 29.28, 10 28.75 S 13.6 35.72, 15 36.25 S 18.5 32.5, 20 32.5 S 23.6 35.72, 25 36.25 S 28.5 36.25, 30 36.25 S 34.47 37.65, 35 36.25 S 38.5 10, 40 10 S 44.47 34.85, 45 36.25 S 48.5 36.25, 50 36.25 S 53.5 36.25, 55 36.25 S 58.5 36.25, 60 36.25 S 64.17 37.5, 65 36.25 S 68.5 21.25, 70 21.25 S 74.17 35, 75 36.25 S 78.6 36.78, 80 36.25 S 83.5 32.5, 85 32.5 S 88.6 35.72, 90 36.25 S 93.5 36.25, 95 36.25 S 98.5 36.25, 100 36.25 S 103.5 36.25, 105 36.25 S 108.5 36.25, 110 36.25 S 113.6 36.78, 115 36.25 S 118.5 32.5, 120 32.5 S 123.5 36.25, 125 36.25 S 128.5 32.5, 130 32.5 S 133.6 36.78, 135 36.25 S 138.6 29.28, 140 28.75 S 143.6 31.97, 145 32.5 S 148.6 31.97, 150 32.5 S 153.5 36.25, 155 36.25 S 158.6 33.03, 160 32.5 S 163.5 32.5, 165 32.5 S 168.5 32.5, 170 32.5 S 173.6 31.97, 175 32.5 S 178.5 36.25, 180 36.25 S 183.6 33.03, 185 32.5 S 189 33.62, 190 32.5 S 193.6 20.72, 195 21.25 S 199.53 34.83, 200 36.25"
          fill="none"/>
    <circle r="4" cx="5" cy="40" fill="#3023AE"/>
    <circle r="4" cx="200" cy="36.25" fill="#C86DD7"/>      
</svg>