<svg width="200" height="50" viewBox="0 0 210 50" xmlns="http://www.w3.org/2000/svg">
    <defs>
        <linearGradient x1="0%" y1="0%" x2="100%" y2="0%" id="a">
            <stop stop-color="#3023AE" offset="0%"/>
            <stop stop-color="#C86DD7" offset="100%"/>
        </linearGradient>
    </defs>
    <path stroke="url(#a)"
          stroke-width="3"
          stroke-linejoin="round"
          stroke-linecap="round"
          d="M5 40 C 6.38 39.41, 8.53 38.17, 10 37.86 S 13.5 37.86, 15 37.86 S 18.53 38.18, 20 37.86 S 23.5 35.71, 25 35.71 S 28.74 38.67, 30 37.86 S 33.98 30.39, 35 29.29 S 38.53 26.83, 40 27.14 S 43.62 30.84, 45 31.43 S 48.53 31.12, 50 31.43 S 53.5 33.57, 55 33.57 S 58.53 31.12, 60 31.43 S 64.37 37.07, 65 35.71 S 68.53 9.68, 70 10 S 74.49 36.45, 75 37.86 S 78.5 37.86, 80 37.86 S 83.62 38.45, 85 37.86 S 88.86 34.55, 90 33.57 S 93.53 29.6, 95 29.29 S 98.53 31.75, 100 31.43 S 103.53 27.45, 105 27.14 S 108.74 28.48, 110 29.29 S 113.62 32.98, 115 33.57 S 118.62 34.16, 120 33.57 S 123.53 28.98, 125 29.29 S 128.74 34.9, 130 35.71 S 133.74 36.52, 135 35.71 S 138.53 29.6, 140 29.29 S 143.86 34.55, 145 33.57 S 148.62 20.12, 150 20.71 S 154.08 36.68, 155 37.86 S 158.74 34.38, 160 33.57 S 163.62 30.84, 165 31.43 S 168.62 38.45, 170 37.86 S 173.74 27.95, 175 27.14 S 178.86 30.45, 180 31.43 S 183.62 35.12, 185 35.71 S 188.53 36.02, 190 35.71 S 193.53 33.25, 195 33.57 S 198.53 37.55, 200 37.86 S 203.62 36.3, 205 35.71"
          fill="none"/>
    <circle r="4" cx="5" cy="40" fill="#3023AE"/>
    <circle r="4" cx="205" cy="35.71" fill="#C86DD7"/>      
</svg>