<svg width="200" height="50" viewBox="0 0 210 50" xmlns="http://www.w3.org/2000/svg">
    <defs>
        <linearGradient x1="0%" y1="0%" x2="100%" y2="0%" id="a">
            <stop stop-color="#3023AE" offset="0%"/>
            <stop stop-color="#C86DD7" offset="100%"/>
        </linearGradient>
    </defs>
    <path stroke="url(#a)"
          stroke-width="3"
          stroke-linejoin="round"
          stroke-linecap="round"
          d="M5 40 C 5.25 38.52, 8.68 10.71, 10 10 S 14.46 33.21, 15 34.61 S 18.51 35.56, 20 35.74 S 23.5 35.78, 25 35.83 S 28.5 36.04, 30 36.09 S 33.5 36.27, 35 36.15 S 38.53 35.58, 40 35.28 S 43.5 34.11, 45 34.1 S 48.5 35.18, 50 35.23 S 53.51 34.57, 55 34.45 S 58.5 34.33, 60 34.41 S 63.5 35.03, 65 35.01 S 68.5 34.35, 70 34.25 S 73.5 34.33, 75 34.31 S 78.5 34.11, 80 34.13 S 83.5 34.41, 85 34.45 S 88.51 34.57, 90 34.41 S 93.51 33.54, 95 33.35 S 98.5 33.21, 100 33.15 S 103.51 32.77, 105 32.96 S 108.5 34.48, 110 34.43 S 113.55 33.04, 115 32.64 S 118.5 31.69, 120 31.65 S 123.5 32.32, 125 32.38 S 128.5 31.97, 130 32.07 S 133.5 33, 135 33.02 S 138.51 32.35, 140 32.18 S 143.5 31.86, 145 31.86 S 148.51 32.3, 150 32.17 S 153.51 31.14, 155 30.99 S 158.5 31.06, 160 31.17 S 163.51 31.86, 165 31.7 S 168.53 30.38, 170 30.11 S 173.5 29.9, 175 29.84 S 178.5 29.67, 180 29.74 S 183.5 30.38, 185 30.34 S 188.52 29.73, 190 29.48 S 193.5 28.71, 195 28.66 S 198.53 28.86, 200 29.14 S 203.56 30.14, 205 30.55"
          fill="none"/>
    <circle r="4" cx="5" cy="40" fill="#3023AE"/>
    <circle r="4" cx="205" cy="30.55" fill="#C86DD7"/>      
</svg>