<svg width="200" height="50" viewBox="0 0 210 50" xmlns="http://www.w3.org/2000/svg">
    <defs>
        <linearGradient x1="0%" y1="0%" x2="100%" y2="0%" id="a">
            <stop stop-color="#3023AE" offset="0%"/>
            <stop stop-color="#C86DD7" offset="100%"/>
        </linearGradient>
    </defs>
    <path stroke="url(#a)"
          stroke-width="3"
          stroke-linejoin="round"
          stroke-linecap="round"
          d="M5 40 C 5.25 38.52, 8.64 10.63, 10 10 S 14.46 33.97, 15 35.37 S 18.5 35.7, 20 35.8 S 23.51 35.87, 25 36.02 S 28.5 36.74, 30 36.79 S 33.5 36.37, 35 36.35 S 38.5 36.71, 40 36.65 S 43.53 36.22, 45 35.93 S 48.5 34.7, 50 34.65 S 53.51 35.42, 55 35.6 S 58.51 36.08, 60 35.89 S 63.5 34.38, 65 34.32 S 68.51 35.31, 70 35.47 S 73.5 35.43, 75 35.36 S 78.5 35.06, 80 34.99 S 83.5 34.94, 85 34.89 S 88.5 34.65, 90 34.67 S 93.5 34.95, 95 35.04 S 98.5 35.28, 100 35.25 S 103.52 35.07, 105 34.85 S 108.51 33.94, 110 33.79 S 113.5 33.9, 115 33.87 S 118.51 33.45, 120 33.59 S 123.5 34.77, 125 34.83 S 128.51 34.18, 130 33.99 S 133.53 33.87, 135 33.58 S 138.5 32.07, 140 32.03 S 143.5 33.22, 145 33.33 S 148.5 32.71, 150 32.76 S 153.5 33.61, 155 33.67 S 158.51 33.35, 160 33.14 S 163.5 32.25, 165 32.25 S 168.5 33.08, 170 33.14 S 173.52 32.91, 175 32.65 S 178.5 31.42, 180 31.35 S 183.51 32.02, 185 32.2 S 188.51 32.71, 190 32.54 S 193.53 31.36, 195 31.05 S 198.5 30.47, 200 30.46 S 203.51 30.82, 205 30.98"
          fill="none"/>
    <circle r="4" cx="5" cy="40" fill="#3023AE"/>
    <circle r="4" cx="205" cy="30.98" fill="#C86DD7"/>      
</svg>