<svg width="200" height="50" viewBox="0 0 210 50" xmlns="http://www.w3.org/2000/svg">
    <defs>
        <linearGradient x1="0%" y1="0%" x2="100%" y2="0%" id="a">
            <stop stop-color="#3023AE" offset="0%"/>
            <stop stop-color="#C86DD7" offset="100%"/>
        </linearGradient>
    </defs>
    <path stroke="url(#a)"
          stroke-width="3"
          stroke-linejoin="round"
          stroke-linecap="round"
          d="M5 40 C 5.25 38.52, 8.69 10.74, 10 10 S 14.44 32.98, 15 34.37 S 18.51 34.76, 20 34.97 S 23.5 35.67, 25 35.75 S 28.51 35.66, 30 35.48 S 33.53 34.84, 35 34.55 S 38.5 33.54, 40 33.54 S 43.51 34.67, 45 34.55 S 48.5 32.72, 50 32.71 S 53.5 34.39, 55 34.5 S 58.51 33.58, 60 33.43 S 63.5 33.48, 65 33.5 S 68.5 33.54, 70 33.58 S 73.51 33.9, 75 33.74 S 78.52 32.75, 80 32.52 S 83.5 32.24, 85 32.2 S 88.51 32.07, 90 32.27 S 93.51 33.75, 95 33.57 S 98.57 31.48, 100 31.03 S 103.5 30.37, 105 30.4 S 108.51 30.99, 110 31.2 S 113.5 31.88, 115 31.82 S 118.5 30.85, 120 30.77 S 123.5 31.42, 125 31.31 S 128.51 30.26, 130 30.05 S 133.5 29.83, 135 29.92 S 138.52 30.9, 140 30.68 S 143.53 28.72, 145 28.44 S 148.5 28.68, 150 28.75 S 153.5 28.95, 155 28.89 S 158.51 28.54, 160 28.35 S 163.5 27.63, 165 27.59 S 168.52 27.8, 170 28.05 S 173.51 29.38, 175 29.25 S 178.51 27.35, 180 27.19 S 183.5 28.25, 185 28.18 S 188.69 27.47, 190 26.74 S 193.5 22.6, 195 22.57 S 198.62 25.99, 200 26.57 S 203.5 26.69, 205 26.74"
          fill="none"/>
    <circle r="4" cx="5" cy="40" fill="#3023AE"/>
    <circle r="4" cx="205" cy="26.740000000000002" fill="#C86DD7"/>      
</svg>