<svg width="200" height="50" viewBox="0 0 210 50" xmlns="http://www.w3.org/2000/svg">
    <defs>
        <linearGradient x1="0%" y1="0%" x2="100%" y2="0%" id="a">
            <stop stop-color="#3023AE" offset="0%"/>
            <stop stop-color="#C86DD7" offset="100%"/>
        </linearGradient>
    </defs>
    <path stroke="url(#a)"
          stroke-width="3"
          stroke-linejoin="round"
          stroke-linecap="round"
          d="M5 40 C 5.68 38.66, 8.74 30.92, 10 30.1 S 13.64 32.88, 15 33.51 S 18.51 34.6, 20 34.74 S 23.5 34.34, 25 34.43 S 28.53 35.68, 30 35.36 S 33.5 32.22, 35 32.27 S 38.51 35.85, 40 35.67 S 43.88 32.03, 45 31.03 S 48.55 26.3, 50 26.7 S 53.88 32.81, 55 33.81 S 58.5 35.76, 60 35.67 S 63.71 33.96, 65 33.2 S 68.51 29.93, 70 29.79 S 73.5 32.27, 75 32.27 S 78.51 29.65, 80 29.79 S 83.58 32.72, 85 33.2 S 88.52 33.43, 90 33.2 S 93.67 32.35, 95 31.65 S 98.51 28.08, 100 27.94 S 103.53 30.45, 105 30.72 S 108.53 30.06, 110 29.79 S 113.53 29.19, 115 28.87 S 118.55 27.23, 120 27.63 S 123.54 32.01, 125 31.65 S 128.83 26.09, 130 25.15 S 133.62 23.01, 135 23.61 S 138.98 30.58, 140 29.48 S 143.92 13.82, 145 12.78 S 148.56 19.5, 150 19.9 S 153.74 14.75, 155 15.57 S 158.88 25.39, 160 26.39 S 164 25.66, 165 24.54 S 169.06 16.43, 170 15.26 S 173.61 11.6, 175 12.16 S 178.61 18.72, 180 19.28 S 183.53 16.46, 185 16.19 S 188.72 18.21, 190 17.42 S 193.51 10.14, 195 10 S 198.98 15.39, 200 16.49 S 203.87 19.84, 205 20.82"
          fill="none"/>
    <circle r="4" cx="5" cy="40" fill="#3023AE"/>
    <circle r="4" cx="205" cy="20.82" fill="#C86DD7"/>      
</svg>