<svg width="200" height="50" viewBox="0 0 210 50" xmlns="http://www.w3.org/2000/svg">
    <defs>
        <linearGradient x1="0%" y1="0%" x2="100%" y2="0%" id="a">
            <stop stop-color="#3023AE" offset="0%"/>
            <stop stop-color="#C86DD7" offset="100%"/>
        </linearGradient>
    </defs>
    <path stroke="url(#a)"
          stroke-width="3"
          stroke-linejoin="round"
          stroke-linecap="round"
          d="M5 40 C 5.59 38.62, 9.17 29.58, 10 28.33 S 13.58 24.52, 15 25 S 19.1 30.47, 20 31.67 S 23.75 37.5, 25 38.33 S 28.5 38.33, 30 38.33 S 33.5 38.33, 35 38.33 S 38.5 38.33, 40 38.33 S 43.5 38.33, 45 38.33 S 48.5 38.33, 50 38.33 S 53.5 38.33, 55 38.33 S 58.5 38.33, 60 38.33 S 63.5 38.33, 65 38.33 S 68.5 38.33, 70 38.33 S 73.5 38.33, 75 38.33 S 78.52 38.58, 80 38.33 S 83.52 36.92, 85 36.67 S 88.52 36.42, 90 36.67 S 93.52 38.08, 95 38.33 S 98.75 39.16, 100 38.33 S 103.66 32.34, 105 31.67 S 108.52 33.08, 110 33.33 S 113.5 33.33, 115 33.33 S 118.66 32.66, 120 33.33 S 124.02 39.47, 125 38.33 S 128.85 22.63, 130 21.67 S 134.23 28.71, 135 30 S 138.66 37.66, 140 38.33 S 143.5 35, 145 35 S 148.52 38.08, 150 38.33 S 154.1 37.87, 155 36.67 S 159.47 26.4, 160 25 S 163.75 9.17, 165 10 S 169.41 30.29, 170 31.67 S 173.66 32.66, 175 33.33 S 178.52 36.42, 180 36.67 S 183.5 35, 185 35 S 188.5 36.67, 190 36.67 S 193.66 35.67, 195 35 S 198.52 31.92, 200 31.67 S 203.58 32.86, 205 33.33"
          fill="none"/>
    <circle r="4" cx="5" cy="40" fill="#3023AE"/>
    <circle r="4" cx="205" cy="33.33" fill="#C86DD7"/>      
</svg>