<svg width="200" height="50" viewBox="0 0 210 50" xmlns="http://www.w3.org/2000/svg">
    <defs>
        <linearGradient x1="0%" y1="0%" x2="100%" y2="0%" id="a">
            <stop stop-color="#3023AE" offset="0%"/>
            <stop stop-color="#C86DD7" offset="100%"/>
        </linearGradient>
    </defs>
    <path stroke="url(#a)"
          stroke-width="3"
          stroke-linejoin="round"
          stroke-linecap="round"
          d="M5 40 C 5.67 38.66, 8.94 31.06, 10 30 S 13.62 29.41, 15 30 S 18.62 33.7, 20 34.29 S 23.62 33.7, 25 34.29 S 28.62 37.98, 30 38.57 S 33.5 38.57, 35 38.57 S 38.5 38.57, 40 38.57 S 43.5 38.57, 45 38.57 S 48.5 38.57, 50 38.57 S 53.5 38.57, 55 38.57 S 58.5 38.57, 60 38.57 S 63.5 38.57, 65 38.57 S 68.5 38.57, 70 38.57 S 73.5 38.57, 75 38.57 S 78.5 38.57, 80 38.57 S 83.5 38.57, 85 38.57 S 88.5 38.57, 90 38.57 S 93.5 38.57, 95 38.57 S 98.5 38.57, 100 38.57 S 103.5 38.57, 105 38.57 S 108.5 38.57, 110 38.57 S 113.5 38.57, 115 38.57 S 118.5 38.57, 120 38.57 S 123.52 38.78, 125 38.57 S 128.56 37.55, 130 37.14 S 133.5 35.71, 135 35.71 S 138.56 37.55, 140 37.14 S 143.52 33.07, 145 32.86 S 148.7 34.97, 150 35.71 S 153.7 39.31, 155 38.57 S 159.08 31.18, 160 30 S 163.86 24.73, 165 25.71 S 169.08 37.39, 170 38.57 S 173.52 38.78, 175 38.57 S 178.5 37.14, 180 37.14 S 183.52 38.36, 185 38.57 S 188.5 38.57, 190 38.57 S 193.52 38.78, 195 38.57 S 199.5 38.56, 200 37.14 S 204.73 11.48, 205 10"
          fill="none"/>
    <circle r="4" cx="5" cy="40" fill="#3023AE"/>
    <circle r="4" cx="205" cy="10" fill="#C86DD7"/>      
</svg>