<svg width="200" height="50" viewBox="0 0 210 50" xmlns="http://www.w3.org/2000/svg">
    <defs>
        <linearGradient x1="0%" y1="0%" x2="100%" y2="0%" id="a">
            <stop stop-color="#3023AE" offset="0%"/>
            <stop stop-color="#C86DD7" offset="100%"/>
        </linearGradient>
    </defs>
    <path stroke="url(#a)"
          stroke-width="3"
          stroke-linejoin="round"
          stroke-linecap="round"
          d="M5 40 C 5.38 38.55, 9.22 22.19, 10 20.91 S 13.84 22.69, 15 23.64 S 18.55 28.7, 20 29.09 S 23.84 25.41, 25 26.36 S 28.99 36.16, 30 37.27 S 33.5 37.27, 35 37.27 S 38.5 37.27, 40 37.27 S 43.5 37.27, 45 37.27 S 48.5 37.27, 50 37.27 S 53.5 37.27, 55 37.27 S 58.5 37.27, 60 37.27 S 63.5 37.27, 65 37.27 S 68.5 37.27, 70 37.27 S 73.5 37.27, 75 37.27 S 78.5 37.27, 80 37.27 S 83.5 37.27, 85 37.27 S 88.5 37.27, 90 37.27 S 93.5 37.27, 95 37.27 S 98.5 37.27, 100 37.27 S 103.5 37.27, 105 37.27 S 108.5 37.27, 110 37.27 S 113.5 37.27, 115 37.27 S 118.5 37.27, 120 37.27 S 123.5 37.27, 125 37.27 S 128.5 37.27, 130 37.27 S 133.55 37.66, 135 37.27 S 138.68 35.27, 140 34.55 S 143.55 32.22, 145 31.82 S 148.55 31.42, 150 31.82 S 153.5 34.55, 155 34.55 S 158.55 31.43, 160 31.82 S 164.38 38.63, 165 37.27 S 169.11 11.21, 170 10 S 174.48 22.23, 175 23.64 S 179.11 36.06, 180 37.27 S 183.55 37.66, 185 37.27 S 188.5 34.55, 190 34.55 S 193.55 36.88, 195 37.27 S 198.5 37.27, 200 37.27 S 203.5 37.27, 205 37.27"
          fill="none"/>
    <circle r="4" cx="5" cy="40" fill="#3023AE"/>
    <circle r="4" cx="205" cy="37.27" fill="#C86DD7"/>      
</svg>