<svg width="200" height="50" viewBox="0 0 210 50" xmlns="http://www.w3.org/2000/svg">
    <defs>
        <linearGradient x1="0%" y1="0%" x2="100%" y2="0%" id="a">
            <stop stop-color="#3023AE" offset="0%"/>
            <stop stop-color="#C86DD7" offset="100%"/>
        </linearGradient>
    </defs>
    <path stroke="url(#a)"
          stroke-width="3"
          stroke-linejoin="round"
          stroke-linecap="round"
          d="M5 40 C 5.54 38.6, 8.61 27.59, 10 27.03 S 13.97 34.86, 15 35.95 S 18.57 37.11, 20 37.57 S 23.5 39.07, 25 39.19 S 28.52 38.62, 30 38.38 S 33.54 37.92, 35 37.57 S 38.5 35.83, 40 35.95 S 43.54 38.74, 45 38.38 S 48.79 34.39, 50 33.51 S 53.57 31.54, 55 31.08 S 58.54 29.92, 60 30.27 S 63.74 32.69, 65 33.51 S 69.12 37.97, 70 36.76 S 73.65 20.39, 75 19.73 S 79.18 30.63, 80 31.89 S 83.54 34.79, 85 35.14 S 88.61 34.88, 90 34.32 S 94.34 32.43, 95 31.08 S 98.5 14.05, 100 14.05 S 104.41 29.7, 105 31.08 S 108.83 38.51, 110 37.57 S 113.65 23.63, 115 22.97 S 119.01 31.57, 120 32.7 S 123.54 33.96, 125 34.32 S 128.5 35.26, 130 35.14 S 133.5 33.51, 135 33.51 S 138.97 36.23, 140 35.14 S 143.79 23.85, 145 22.97 S 148.5 27.96, 150 27.84 S 153.52 21.92, 155 22.16 S 158.74 28.64, 160 29.46 S 163.52 28.41, 165 28.65 S 168.97 32.17, 170 31.08 S 174.36 19.47, 175 18.11 S 178.5 10, 180 10 S 184.18 16.85, 185 18.11 S 188.74 24.59, 190 25.41 S 193.61 25.15, 195 24.59 S 198.52 21.59, 200 21.35 S 203.57 22.51, 205 22.97"
          fill="none"/>
    <circle r="4" cx="5" cy="40" fill="#3023AE"/>
    <circle r="4" cx="205" cy="22.97" fill="#C86DD7"/>      
</svg>