<svg width="200" height="50" viewBox="0 0 210 50" xmlns="http://www.w3.org/2000/svg">
    <defs>
        <linearGradient x1="0%" y1="0%" x2="100%" y2="0%" id="a">
            <stop stop-color="#3023AE" offset="0%"/>
            <stop stop-color="#C86DD7" offset="100%"/>
        </linearGradient>
    </defs>
    <path stroke="url(#a)"
          stroke-width="3"
          stroke-linejoin="round"
          stroke-linecap="round"
          d="M5 40 C 5.8 38.73, 8.5 32.12, 10 32.08 S 13.81 38.81, 15 39.72 S 18.5 39.72, 20 39.72 S 23.5 39.72, 25 39.72 S 28.5 39.72, 30 39.72 S 33.5 39.72, 35 39.72 S 38.5 39.72, 40 39.72 S 43.58 40.2, 45 39.72 S 48.51 36.45, 50 36.32 S 53.5 38.83, 55 38.87 S 58.54 36.93, 60 36.6 S 63.52 36.35, 65 36.6 S 68.51 38.17, 70 38.3 S 73.51 37.62, 75 37.45 S 78.51 37, 80 37.17 S 83.52 38.33, 85 38.58 S 88.52 39.12, 90 38.87 S 93.56 37.3, 95 36.89 S 98.5 36, 100 36.04 S 103.55 36.8, 105 37.17 S 108.52 38.33, 110 38.58 S 113.5 38.83, 115 38.87 S 118.5 38.87, 120 38.87 S 123.5 38.96, 125 38.87 S 128.5 38.26, 130 38.3 S 133.5 39.19, 135 39.15 S 138.54 38.35, 140 38.02 S 144.26 38.19, 145 36.89 S 148.5 20.56, 150 20.47 S 154.25 35.02, 155 36.32 S 158.51 37.53, 160 37.74 S 164.49 39.15, 165 37.74 S 168.65 10.65, 170 10 S 174.46 31.52, 175 32.92 S 178.5 35.79, 180 35.75 S 183.54 32.97, 185 32.64 S 188.69 34.23, 190 33.49 S 193.5 27.07, 195 26.98 S 198.89 31.91, 200 32.92 S 203.73 35.25, 205 36.04"
          fill="none"/>
    <circle r="4" cx="5" cy="40" fill="#3023AE"/>
    <circle r="4" cx="205" cy="36.04" fill="#C86DD7"/>      
</svg>