<svg width="200" height="50" viewBox="0 0 210 50" xmlns="http://www.w3.org/2000/svg">
    <defs>
        <linearGradient x1="0%" y1="0%" x2="100%" y2="0%" id="a">
            <stop stop-color="#3023AE" offset="0%"/>
            <stop stop-color="#C86DD7" offset="100%"/>
        </linearGradient>
    </defs>
    <path stroke="url(#a)"
          stroke-width="3"
          stroke-linejoin="round"
          stroke-linecap="round"
          d="M5 40 C 5.42 38.56, 8.58 23.26, 10 22.76 S 14.25 35.2, 15 36.5 S 18.5 40.05, 20 39.98 S 23.5 36.07, 25 36.05 S 28.57 39.37, 30 39.82 S 33.55 39.58, 35 39.19 S 38.54 37.49, 40 37.16 S 43.5 36.95, 45 36.91 S 48.5 36.94, 50 36.87 S 53.5 36.4, 55 36.41 S 58.5 36.92, 60 36.96 S 63.51 36.89, 65 36.7 S 68.51 35.86, 70 35.71 S 73.51 35.52, 75 35.71 S 78.51 36.82, 80 36.97 S 83.5 36.85, 85 36.73 S 88.61 36.72, 90 36.16 S 93.5 32.78, 95 32.72 S 98.57 35.32, 100 35.76 S 103.5 35.81, 105 35.82 S 108.51 35.69, 110 35.81 S 113.5 36.61, 115 36.64 S 118.51 36.17, 120 35.98 S 123.5 35.37, 125 35.36 S 128.5 35.92, 130 35.91 S 133.57 35.72, 135 35.27 S 138.5 32.65, 140 32.73 S 143.58 35.31, 145 35.78 S 148.5 35.97, 150 36.05 S 153.5 36.25, 155 36.31 S 158.5 36.51, 160 36.42 S 163.51 35.89, 165 35.7 S 168.51 35.33, 170 35.15 S 173.52 34.25, 175 34.47 S 178.51 36.5, 180 36.64 S 183.5 35.46, 185 35.39 S 188.67 36.84, 190 36.14 S 194.46 31.49, 195 30.09 S 199.08 11.19, 200 10 S 204.14 15.96, 205 17.19"
          fill="none"/>
    <circle r="4" cx="5" cy="40" fill="#3023AE"/>
    <circle r="4" cx="205" cy="17.19" fill="#C86DD7"/>      
</svg>