<svg width="200" height="50" viewBox="0 0 210 50" xmlns="http://www.w3.org/2000/svg">
    <defs>
        <linearGradient x1="0%" y1="0%" x2="100%" y2="0%" id="a">
            <stop stop-color="#3023AE" offset="0%"/>
            <stop stop-color="#C86DD7" offset="100%"/>
        </linearGradient>
    </defs>
    <path stroke="url(#a)"
          stroke-width="3"
          stroke-linejoin="round"
          stroke-linecap="round"
          d="M5 40 C 5.25 38.52, 8.52 10.22, 10 10 S 14.5 37.14, 15 38.55 S 18.51 38.11, 20 38.27 S 23.51 39.78, 25 39.61 S 28.51 37.23, 30 37.1 S 33.54 38.39, 35 38.72 S 38.5 39.22, 40 39.33 S 43.5 39.49, 45 39.44 S 48.75 39.83, 50 39 S 53.66 33.42, 55 32.75 S 58.5 34, 60 34.03 S 63.5 32.99, 65 32.92 S 68.52 33.79, 70 33.53 S 73.71 31.95, 75 31.19 S 78.52 27.84, 80 27.62 S 83.82 30.67, 85 29.74 S 88.5 19.6, 90 19.7 S 93.83 29.47, 95 30.41 S 98.78 28.61, 100 27.73 S 103.51 23.02, 105 23.22 S 108.69 28.35, 110 29.07 S 113.52 28.98, 115 28.74 S 118.61 28, 120 27.45 S 123.52 25.04, 125 24.78 S 128.5 25.74, 130 25.67 S 133.52 24.53, 135 24.28 S 138.5 23.94, 140 24 S 143.55 25.04, 145 24.67 S 148.6 21.96, 150 21.43 S 153.58 21.35, 155 20.87 S 158.55 17.64, 160 18.03 S 163.58 23.06, 165 23.55 S 168.6 22.02, 170 21.49 S 173.61 20.36, 175 19.81 S 178.51 17.72, 180 17.53 S 183.58 18.03, 185 18.53 S 188.5 20.93, 190 21.04 S 193.52 19.04, 195 19.26 S 198.59 23.05, 200 22.55 S 204.12 16.9, 205 15.69"
          fill="none"/>
    <circle r="4" cx="5" cy="40" fill="#3023AE"/>
    <circle r="4" cx="205" cy="15.690000000000001" fill="#C86DD7"/>      
</svg>