<svg width="200" height="50" viewBox="0 0 210 50" xmlns="http://www.w3.org/2000/svg">
    <defs>
        <linearGradient x1="0%" y1="0%" x2="100%" y2="0%" id="a">
            <stop stop-color="#3023AE" offset="0%"/>
            <stop stop-color="#C86DD7" offset="100%"/>
        </linearGradient>
    </defs>
    <path stroke="url(#a)"
          stroke-width="3"
          stroke-linejoin="round"
          stroke-linecap="round"
          d="M5 40 C 5.54 38.6, 8.5 27.17, 10 27.16 S 14.08 38.77, 15 39.95 S 18.5 39.95, 20 39.95 S 23.5 39.95, 25 39.95 S 28.5 40.01, 30 39.95 S 33.5 39.65, 35 39.57 S 38.5 39.42, 40 39.42 S 43.5 39.59, 45 39.57 S 48.5 39.29, 50 39.28 S 53.5 39.56, 55 39.52 S 58.52 39.26, 60 39.04 S 63.72 38.82, 65 38.03 S 68.5 32.97, 70 32.88 S 73.74 36.64, 75 37.45 S 78.52 39.1, 80 39.33 S 83.52 39.23, 85 38.99 S 88.52 37.98, 90 37.74 S 93.57 37.85, 95 37.4 S 98.5 34.55, 100 34.57 S 103.54 37.23, 105 37.55 S 108.51 36.95, 110 36.78 S 113.5 36.35, 115 36.44 S 118.52 37.15, 120 37.36 S 123.5 37.84, 125 37.88 S 128.53 37.92, 130 37.6 S 133.71 36.49, 135 35.72 S 138.5 31.49, 140 31.59 S 143.62 35.8, 145 36.39 S 148.76 36.75, 150 35.91 S 154.46 31.06, 155 29.66 S 158.55 10.37, 160 10 S 164.31 25.79, 165 27.12 S 168.9 28.36, 170 29.37 S 173.58 35.81, 175 36.3 S 178.52 33.05, 180 32.79 S 183.52 34.81, 185 34.57 S 188.63 31.77, 190 31.15 S 193.52 30.3, 195 30.05 S 198.5 29.44, 200 29.47 S 203.52 30.01, 205 30.24"
          fill="none"/>
    <circle r="4" cx="5" cy="40" fill="#3023AE"/>
    <circle r="4" cx="205" cy="30.240000000000002" fill="#C86DD7"/>      
</svg>