<svg width="200" height="50" viewBox="0 0 210 50" xmlns="http://www.w3.org/2000/svg">
    <defs>
        <linearGradient x1="0%" y1="0%" x2="100%" y2="0%" id="a">
            <stop stop-color="#3023AE" offset="0%"/>
            <stop stop-color="#C86DD7" offset="100%"/>
        </linearGradient>
    </defs>
    <path stroke="url(#a)"
          stroke-width="3"
          stroke-linejoin="round"
          stroke-linecap="round"
          d="M5 40 C 5.65 38.65, 9.53 30.99, 10 29.57 S 13.72 9.21, 15 10 S 19.47 34.33, 20 35.73 S 23.5 36.46, 25 36.34 S 28.51 34.8, 30 34.92 S 33.57 36.71, 35 37.16 S 38.5 38.02, 40 38.1 S 43.5 37.72, 45 37.7 S 48.5 37.9, 50 37.97 S 53.51 38.03, 55 38.17 S 58.51 38.71, 60 38.92 S 63.51 39.46, 65 39.59 S 68.67 40.5, 70 39.8 S 73.76 35.16, 75 34.31 S 78.5 32.97, 80 32.96 S 83.5 34.18, 85 34.24 S 88.5 33.29, 90 33.36 S 93.52 34.47, 95 34.72 S 98.52 34.81, 100 35.06 S 103.51 36.56, 105 36.41 S 108.53 34.33, 110 34.04 S 113.5 34.46, 115 34.45 S 118.5 34.01, 120 33.97 S 123.51 33.99, 125 34.18 S 128.56 35.68, 130 35.26 S 133.61 31.82, 135 31.26 S 138.5 31.25, 140 31.26 S 143.5 31.4, 145 31.33 S 148.53 30.47, 150 30.79 S 153.52 33.23, 155 33.5 S 158.57 33.06, 160 32.62 S 163.54 30.79, 165 30.45 S 168.53 30.02, 170 30.32 S 173.59 31.96, 175 32.48 S 178.5 33.98, 180 34.04 S 183.5 33, 185 32.89 S 188.51 33.17, 190 33.3 S 193.5 33.69, 195 33.77 S 198.51 33.66, 200 33.84 S 203.54 34.65, 205 34.99"
          fill="none"/>
    <circle r="4" cx="5" cy="40" fill="#3023AE"/>
    <circle r="4" cx="205" cy="34.99" fill="#C86DD7"/>      
</svg>