<svg width="200" height="50" viewBox="0 0 210 50" xmlns="http://www.w3.org/2000/svg">
    <defs>
        <linearGradient x1="0%" y1="0%" x2="100%" y2="0%" id="a">
            <stop stop-color="#3023AE" offset="0%"/>
            <stop stop-color="#C86DD7" offset="100%"/>
        </linearGradient>
    </defs>
    <path stroke="url(#a)"
          stroke-width="3"
          stroke-linejoin="round"
          stroke-linecap="round"
          d="M5 40 C 5.92 38.82, 8.53 33.88, 10 33.57 S 13.62 37.27, 15 37.86 S 18.53 38.18, 20 37.86 S 23.53 36.03, 25 35.71 S 28.86 36.69, 30 35.71 S 33.53 27.45, 35 27.14 S 38.62 32.98, 40 33.57 S 43.86 32.41, 45 31.43 S 48.74 25.81, 50 25 S 53.74 24.19, 55 25 S 58.5 31.43, 60 31.43 S 63.86 25.98, 65 25 S 68.53 23.17, 70 22.86 S 73.98 21.76, 75 22.86 S 78.86 32.59, 80 33.57 S 83.5 31.43, 85 31.43 S 88.62 34.16, 90 33.57 S 93.53 27.45, 95 27.14 S 98.98 30.33, 100 31.43 S 103.53 38.17, 105 37.86 S 109.49 30.7, 110 29.29 S 113.74 10.81, 115 10 S 119.37 21.5, 120 22.86 S 123.98 30.33, 125 31.43 S 128.53 33.26, 130 33.57 S 133.62 32.98, 135 33.57 S 138.5 37.86, 140 37.86 S 143.98 34.67, 145 33.57 S 148.53 26.83, 150 27.14 S 153.74 34.9, 155 35.71 S 158.62 34.16, 160 33.57 S 163.62 32.02, 165 31.43 S 168.53 29.6, 170 29.29 S 173.74 28.48, 175 29.29 S 178.62 35.12, 180 35.71 S 183.74 34.38, 185 33.57 S 188.53 28.98, 190 29.29 S 193.86 34.73, 195 35.71 S 198.53 37.54, 200 37.86 S 203.5 37.86, 205 37.86"
          fill="none"/>
    <circle r="4" cx="5" cy="40" fill="#3023AE"/>
    <circle r="4" cx="205" cy="37.86" fill="#C86DD7"/>      
</svg>