<svg width="200" height="50" viewBox="0 0 210 50" xmlns="http://www.w3.org/2000/svg">
    <defs>
        <linearGradient x1="0%" y1="0%" x2="100%" y2="0%" id="a">
            <stop stop-color="#3023AE" offset="0%"/>
            <stop stop-color="#C86DD7" offset="100%"/>
        </linearGradient>
    </defs>
    <path stroke="url(#a)"
          stroke-width="3"
          stroke-linejoin="round"
          stroke-linecap="round"
          d="M5 40 C 6.5 39.99, 8.77 40.82, 10 39.96 S 13.53 33.23, 15 32.96 S 18.67 37.42, 20 38.11 S 23.52 37.85, 25 38.11 S 28.5 39.93, 30 39.85 S 33.52 37.8, 35 37.57 S 38.53 38.63, 40 38.32 S 43.86 36.45, 45 35.48 S 49.45 31.17, 50 29.77 S 53.53 9.68, 55 10 S 59.43 30.53, 60 31.92 S 63.52 33.95, 65 34.21 S 68.5 33.62, 70 33.66 S 73.5 34.5, 75 34.5 S 78.5 33.74, 80 33.67 S 83.5 33.94, 85 34.05 S 88.51 34.29, 90 34.42 S 93.5 34.96, 95 34.93 S 98.51 34.42, 100 34.23 S 103.51 33.76, 105 33.62 S 108.53 33.54, 110 33.26 S 113.54 32.03, 115 31.7 S 118.52 31.2, 120 30.98 S 123.5 30.11, 125 30.22 S 128.5 31.62, 130 31.72 S 133.54 31.25, 135 30.92 S 138.5 29.55, 140 29.47 S 143.51 30.24, 145 30.38 S 148.5 30.32, 150 30.42 S 153.5 31.07, 155 31.03 S 158.5 30.25, 160 30.17 S 163.52 30.27, 165 30.5 S 168.51 31.55, 170 31.71 S 173.5 31.54, 175 31.57 S 178.5 31.77, 180 31.89 S 183.51 32.22, 185 32.36 S 188.5 32.78, 190 32.86 S 193.51 32.72, 195 32.92 S 198.51 34.06, 200 34.23 S 203.5 34.1, 205 34.04"
          fill="none"/>
    <circle r="4" cx="5" cy="40" fill="#3023AE"/>
    <circle r="4" cx="205" cy="34.04" fill="#C86DD7"/>      
</svg>