<svg width="200" height="50" viewBox="0 0 210 50" xmlns="http://www.w3.org/2000/svg">
    <defs>
        <linearGradient x1="0%" y1="0%" x2="100%" y2="0%" id="a">
            <stop stop-color="#3023AE" offset="0%"/>
            <stop stop-color="#C86DD7" offset="100%"/>
        </linearGradient>
    </defs>
    <path stroke="url(#a)"
          stroke-width="3"
          stroke-linejoin="round"
          stroke-linecap="round"
          d="M5 40 C 6.32 39.3, 8.52 37.57, 10 37.34 S 13.5 38.48, 15 38.48 S 18.5 37.34, 20 37.34 S 23.5 38.48, 25 38.48 S 28.5 37.45, 30 37.34 S 33.52 37.49, 35 37.72 S 38.5 38.86, 40 38.86 S 43.52 37.95, 45 37.72 S 48.5 37.45, 50 37.34 S 53.51 37.13, 55 36.96 S 58.5 36.31, 60 36.2 S 63.53 35.92, 65 36.2 S 68.5 38.1, 70 38.1 S 73.51 36.03, 75 36.2 S 78.52 39.01, 80 39.24 S 83.5 37.66, 85 37.72 S 88.5 39.56, 90 39.62 S 93.72 38.88, 95 38.1 S 98.56 33.98, 100 33.54 S 103.55 34.67, 105 35.06 S 108.52 35.97, 110 36.2 S 113.62 37.16, 115 36.58 S 118.6 32.56, 120 32.03 S 123.5 32.78, 125 32.78 S 128.55 32.41, 130 32.03 S 133.5 30.07, 135 30.13 S 138.52 32.64, 140 32.41 S 143.56 29.05, 145 28.61 S 148.53 29.65, 150 29.37 S 153.56 27.15, 155 26.71 S 158.52 26.1, 160 26.33 S 163.56 27.79, 165 28.23 S 168.7 30.11, 170 29.37 S 173.93 23.58, 175 22.53 S 178.5 19.38, 180 19.49 S 183.7 24.03, 185 23.29 S 189.1 15, 190 13.8 S 193.54 9.67, 195 10 S 198.95 15.01, 200 16.08 S 203.85 19.29, 205 20.25"
          fill="none"/>
    <circle r="4" cx="5" cy="40" fill="#3023AE"/>
    <circle r="4" cx="205" cy="20.25" fill="#C86DD7"/>      
</svg>