<svg width="200" height="50" viewBox="0 0 210 50" xmlns="http://www.w3.org/2000/svg">
    <defs>
        <linearGradient x1="0%" y1="0%" x2="100%" y2="0%" id="a">
            <stop stop-color="#3023AE" offset="0%"/>
            <stop stop-color="#C86DD7" offset="100%"/>
        </linearGradient>
    </defs>
    <path stroke="url(#a)"
          stroke-width="3"
          stroke-linejoin="round"
          stroke-linecap="round"
          d="M5 40 C 5.25 38.52, 8.51 10.17, 10 10 S 14.51 37.43, 15 38.85 S 18.5 38.85, 20 38.85 S 23.5 38.85, 25 38.85 S 28.5 38.85, 30 38.85 S 33.5 38.85, 35 38.85 S 38.5 38.85, 40 38.85 S 43.5 38.85, 45 38.85 S 48.5 38.85, 50 38.85 S 53.5 38.85, 55 38.85 S 58.5 38.85, 60 38.85 S 63.64 39.48, 65 38.85 S 68.58 34.72, 70 34.23 S 73.54 35.04, 75 35.38 S 78.64 37.17, 80 36.54 S 83.58 31.26, 85 30.77 S 88.54 32.74, 90 33.08 S 93.58 32.59, 95 33.08 S 98.5 36.54, 100 36.54 S 103.64 33.71, 105 33.08 S 108.54 31.58, 110 31.92 S 113.64 36.01, 115 35.38 S 118.9 28.33, 120 27.31 S 123.83 25.21, 125 26.15 S 128.83 34.44, 130 35.38 S 133.64 34.86, 135 34.23 S 138.51 30.6, 140 30.77 S 143.83 34.44, 145 35.38 S 148.51 39.02, 150 38.85 S 153.64 34.86, 155 34.23 S 158.58 33.74, 160 34.23 S 163.51 37.52, 165 37.69 S 168.64 36.01, 170 35.38 S 173.54 33.42, 175 33.08 S 178.51 33.25, 180 33.08 S 183.5 31.92, 185 31.92 S 188.58 32.59, 190 33.08 S 193.51 35.55, 195 35.38 S 198.5 31.92, 200 31.92 S 203.77 34.53, 205 35.38"
          fill="none"/>
    <circle r="4" cx="5" cy="40" fill="#3023AE"/>
    <circle r="4" cx="205" cy="35.38" fill="#C86DD7"/>      
</svg>