<svg width="200" height="50" viewBox="0 0 210 50" xmlns="http://www.w3.org/2000/svg">
    <defs>
        <linearGradient x1="0%" y1="0%" x2="100%" y2="0%" id="a">
            <stop stop-color="#3023AE" offset="0%"/>
            <stop stop-color="#C86DD7" offset="100%"/>
        </linearGradient>
    </defs>
    <path stroke="url(#a)"
          stroke-width="3"
          stroke-linejoin="round"
          stroke-linecap="round"
          d="M5 40 C 6.47 39.7, 8.54 39.31, 10 38.98 S 13.5 37.59, 15 37.71 S 18.5 39.83, 20 39.75 S 23.64 37.82, 25 37.2 S 28.55 34.8, 30 35.17 S 33.6 39.22, 35 39.75 S 38.62 39.58, 40 38.98 S 43.5 35.5, 45 35.42 S 48.58 38, 50 38.47 S 53.5 38.61, 55 38.73 S 58.5 39.35, 60 39.24 S 63.51 38.16, 65 37.97 S 68.5 38.09, 70 37.97 S 73.5 37.2, 75 37.2 S 78.52 38.2, 80 37.97 S 83.52 35.91, 85 35.68 S 88.55 36.07, 90 36.44 S 93.5 38.22, 95 38.22 S 98.51 36.63, 100 36.44 S 103.51 36.76, 105 36.95 S 108.51 37.86, 110 37.71 S 113.52 36.16, 115 35.93 S 118.51 36, 120 36.19 S 123.51 37.35, 125 37.2 S 128.5 35.17, 130 35.17 S 133.53 36.9, 135 37.2 S 138.5 37.28, 140 37.2 S 143.5 36.65, 145 36.69 S 148.51 37.31, 150 37.46 S 153.51 37.52, 155 37.71 S 158.5 38.84, 160 38.73 S 164.51 38.37, 165 36.95 S 168.52 10.26, 170 10 S 174.43 33.78, 175 35.17 S 178.55 33.78, 180 34.15 S 183.64 37.09, 185 37.71 S 188.51 38.92, 190 38.73 S 193.54 36.77, 195 36.44 S 198.5 36.55, 200 36.44 S 203.52 35.91, 205 35.68"
          fill="none"/>
    <circle r="4" cx="5" cy="40" fill="#3023AE"/>
    <circle r="4" cx="205" cy="35.68" fill="#C86DD7"/>      
</svg>