<svg width="200" height="50" viewBox="0 0 210 50" xmlns="http://www.w3.org/2000/svg">
    <defs>
        <linearGradient x1="0%" y1="0%" x2="100%" y2="0%" id="a">
            <stop stop-color="#3023AE" offset="0%"/>
            <stop stop-color="#C86DD7" offset="100%"/>
        </linearGradient>
    </defs>
    <path stroke="url(#a)"
          stroke-width="3"
          stroke-linejoin="round"
          stroke-linecap="round"
          d="M5 40 C 6.5 39.99, 8.5 39.99, 10 39.98 S 13.5 39.96, 15 39.96 S 18.5 39.99, 20 39.99 S 23.5 40.04, 25 39.98 S 28.64 40.25, 30 39.62 S 34.52 36.77, 35 35.35 S 38.5 9.89, 40 10 S 44.48 34.69, 45 36.1 S 48.51 36.79, 50 36.96 S 53.5 37.21, 55 37.26 S 58.51 37.49, 60 37.32 S 63.5 36.24, 65 36.14 S 68.5 36.66, 70 36.67 S 73.5 36.16, 75 36.2 S 79.36 38.3, 80 36.94 S 83.58 15.42, 85 14.94 S 89.16 32.3, 90 33.54 S 93.5 29.78, 95 29.78 S 98.54 33.19, 100 33.52 S 103.51 32.26, 105 32.05 S 108.51 31.95, 110 32.1 S 113.51 33.29, 115 33.08 S 118.51 30.87, 120 30.68 S 123.51 31.65, 125 31.81 S 128.5 31.66, 130 31.74 S 133.52 32.07, 135 32.34 S 138.57 33.1, 140 33.54 S 143.52 35.15, 145 35.42 S 148.51 35.2, 150 35.34 S 153.5 36.23, 155 36.35 S 158.5 36.07, 160 36.11 S 163.5 36.57, 165 36.61 S 168.5 36.4, 170 36.39 S 173.5 36.44, 175 36.55 S 178.5 37.02, 180 37.11 S 183.5 37.18, 185 37.18 S 188.5 37.11, 190 37.12 S 193.5 37.21, 195 37.23 S 198.5 37.24, 200 37.25 S 203.5 37.29, 205 37.3"
          fill="none"/>
    <circle r="4" cx="5" cy="40" fill="#3023AE"/>
    <circle r="4" cx="205" cy="37.3" fill="#C86DD7"/>      
</svg>