<svg width="200" height="50" viewBox="0 0 210 50" xmlns="http://www.w3.org/2000/svg">
    <defs>
        <linearGradient x1="0%" y1="0%" x2="100%" y2="0%" id="a">
            <stop stop-color="#3023AE" offset="0%"/>
            <stop stop-color="#C86DD7" offset="100%"/>
        </linearGradient>
    </defs>
    <path stroke="url(#a)"
          stroke-width="3"
          stroke-linejoin="round"
          stroke-linecap="round"
          d="M5 40 C 6.5 39.99, 8.5 39.99, 10 39.98 S 13.5 39.96, 15 39.96 S 18.5 39.99, 20 39.99 S 23.65 40.63, 25 39.98 S 28.5 35.25, 30 35.2 S 34.45 41.04, 35 39.65 S 38.56 10.43, 40 10 S 44.48 35.28, 45 36.69 S 48.51 36.79, 50 36.92 S 53.5 37.7, 55 37.58 S 58.51 36.27, 60 36.14 S 63.5 36.65, 65 36.69 S 68.5 36.42, 70 36.42 S 74.34 38.01, 75 36.66 S 78.55 16.46, 80 16.08 S 84.11 32.81, 85 34.02 S 88.5 29.8, 90 29.71 S 93.53 33.16, 95 33.44 S 98.51 31.81, 100 31.64 S 103.51 32.14, 105 32.33 S 108.52 33.12, 110 32.89 S 113.51 30.91, 115 30.75 S 118.51 31.67, 120 31.82 S 123.51 31.63, 125 31.78 S 128.55 32.46, 130 32.84 S 133.56 33.97, 135 34.39 S 138.51 35.52, 140 35.73 S 143.5 35.73, 145 35.78 S 148.5 35.92, 150 36.04 S 153.5 36.49, 155 36.55 S 158.5 36.48, 160 36.46 S 163.5 36.3, 165 36.39 S 168.51 36.92, 170 37.06 S 173.5 37.33, 175 37.33 S 178.5 37.04, 180 37.03 S 183.5 37.22, 185 37.26 S 188.5 37.26, 190 37.28 S 193.5 37.26, 195 37.38 S 198.5 37.98, 200 38.06 S 203.5 37.98, 205 37.94"
          fill="none"/>
    <circle r="4" cx="5" cy="40" fill="#3023AE"/>
    <circle r="4" cx="205" cy="37.94" fill="#C86DD7"/>      
</svg>