<svg width="200" height="50" viewBox="0 0 210 50" xmlns="http://www.w3.org/2000/svg">
    <defs>
        <linearGradient x1="0%" y1="0%" x2="100%" y2="0%" id="a">
            <stop stop-color="#3023AE" offset="0%"/>
            <stop stop-color="#C86DD7" offset="100%"/>
        </linearGradient>
    </defs>
    <path stroke="url(#a)"
          stroke-width="3"
          stroke-linejoin="round"
          stroke-linecap="round"
          d="M5 40 C 6.5 39.99, 8.5 39.99, 10 39.98 S 13.5 39.96, 15 39.96 S 18.5 39.99, 20 39.99 S 23.64 40.62, 25 39.98 S 29.53 36.71, 30 35.29 S 33.51 9.84, 35 10 S 39.47 34.96, 40 36.36 S 43.5 36.45, 45 36.55 S 48.51 37.21, 50 37.04 S 53.5 35.49, 55 35.38 S 58.5 36.24, 60 36.31 S 64.34 37.17, 65 35.82 S 68.57 16.42, 70 15.96 S 74.08 31.39, 75 32.58 S 78.5 29, 80 28.9 S 83.51 31.72, 85 31.92 S 88.5 30.31, 90 30.25 S 93.5 31.57, 95 31.49 S 98.51 29.84, 100 29.71 S 103.52 30.37, 105 30.59 S 108.54 30.83, 110 31.18 S 113.6 32.47, 115 33 S 118.54 34.62, 120 34.95 S 123.5 35.15, 125 35.24 S 128.51 35.39, 130 35.53 S 133.5 36.12, 135 36.16 S 138.5 35.78, 140 35.82 S 143.51 36.27, 145 36.45 S 148.5 37.01, 150 37.03 S 153.5 36.57, 155 36.57 S 158.5 36.99, 160 37.04 S 163.5 36.82, 165 36.89 S 168.51 37.37, 170 37.51 S 173.5 37.77, 175 37.82 S 178.5 37.79, 180 37.83 S 183.5 38.03, 185 38.07 S 188.5 38.01, 190 38.07 S 193.5 38.41, 195 38.49 S 198.5 38.55, 200 38.59 S 203.5 38.7, 205 38.74"
          fill="none"/>
    <circle r="4" cx="5" cy="40" fill="#3023AE"/>
    <circle r="4" cx="205" cy="38.74" fill="#C86DD7"/>      
</svg>