<svg width="200" height="50" viewBox="0 0 210 50" xmlns="http://www.w3.org/2000/svg">
    <defs>
        <linearGradient x1="0%" y1="0%" x2="100%" y2="0%" id="a">
            <stop stop-color="#3023AE" offset="0%"/>
            <stop stop-color="#C86DD7" offset="100%"/>
        </linearGradient>
    </defs>
    <path stroke="url(#a)"
          stroke-width="3"
          stroke-linejoin="round"
          stroke-linecap="round"
          d="M5 40 C 6.5 39.99, 8.5 39.99, 10 39.98 S 13.5 39.96, 15 39.96 S 18.5 39.99, 20 39.99 S 23.5 40.04, 25 39.98 S 28.64 40.26, 30 39.62 S 34.52 36.71, 35 35.29 S 38.5 9.89, 40 10 S 44.48 34.61, 45 36.02 S 48.51 36.98, 50 37.14 S 53.5 37.03, 55 37.08 S 58.51 37.61, 60 37.47 S 63.51 36.28, 65 36.16 S 68.5 36.6, 70 36.65 S 73.5 36.5, 75 36.48 S 79.36 37.89, 80 36.53 S 83.53 15.35, 85 15.08 S 89.16 33.44, 90 34.68 S 93.51 29.98, 95 29.77 S 98.59 32.79, 100 33.29 S 103.54 33.66, 105 33.33 S 108.5 31.11, 110 31.04 S 113.5 32.85, 115 32.89 S 118.51 31.51, 120 31.33 S 123.5 31.58, 125 31.68 S 128.5 31.92, 130 31.97 S 133.5 31.93, 135 32.04 S 138.54 32.35, 140 32.71 S 143.56 34.05, 145 34.49 S 148.51 35.57, 150 35.75 S 153.5 35.63, 155 35.69 S 158.5 36.05, 160 36.14 S 163.5 36.2, 165 36.27 S 168.5 36.62, 170 36.63 S 173.5 36.3, 175 36.33 S 178.51 36.71, 180 36.85 S 183.5 37.23, 185 37.26 S 188.5 37.11, 190 37.08 S 193.5 37.03, 195 37.06 S 198.5 37.29, 200 37.31 S 203.5 37.23, 205 37.2"
          fill="none"/>
    <circle r="4" cx="5" cy="40" fill="#3023AE"/>
    <circle r="4" cx="205" cy="37.2" fill="#C86DD7"/>      
</svg>