<svg width="200" height="50" viewBox="0 0 210 50" xmlns="http://www.w3.org/2000/svg">
    <defs>
        <linearGradient x1="0%" y1="0%" x2="100%" y2="0%" id="a">
            <stop stop-color="#3023AE" offset="0%"/>
            <stop stop-color="#C86DD7" offset="100%"/>
        </linearGradient>
    </defs>
    <path stroke="url(#a)"
          stroke-width="3"
          stroke-linejoin="round"
          stroke-linecap="round"
          d="M5 40 C 6.5 39.99, 8.5 39.99, 10 39.98 S 13.5 39.96, 15 39.96 S 18.5 39.99, 20 39.99 S 23.5 40.04, 25 39.98 S 28.64 40.25, 30 39.61 S 34.52 36.69, 35 35.27 S 38.5 9.89, 40 10 S 44.48 34.59, 45 36 S 48.51 36.99, 50 37.14 S 53.5 36.96, 55 37.02 S 58.51 37.69, 60 37.56 S 63.51 36.29, 65 36.15 S 68.5 36.54, 70 36.62 S 73.5 36.71, 75 36.67 S 79.37 37.71, 80 36.35 S 83.52 15.25, 85 15.02 S 89.17 33.52, 90 34.77 S 93.52 30.19, 95 29.96 S 98.58 32.74, 100 33.23 S 103.54 33.71, 105 33.38 S 108.5 31.09, 110 31 S 113.5 32.73, 115 32.81 S 118.51 31.73, 120 31.54 S 123.5 31.44, 125 31.54 S 128.5 32.16, 130 32.19 S 133.5 31.66, 135 31.75 S 138.54 32.43, 140 32.79 S 143.56 33.8, 145 34.22 S 148.52 35.48, 150 35.7 S 153.5 35.65, 155 35.71 S 158.5 36.01, 160 36.09 S 163.5 36.18, 165 36.26 S 168.5 36.57, 170 36.6 S 173.5 36.44, 175 36.44 S 178.51 36.5, 180 36.63 S 183.5 37.26, 185 37.32 S 188.5 37.08, 190 37.04 S 193.5 36.98, 195 37.03 S 198.5 37.33, 200 37.36 S 203.5 37.28, 205 37.24"
          fill="none"/>
    <circle r="4" cx="5" cy="40" fill="#3023AE"/>
    <circle r="4" cx="205" cy="37.24" fill="#C86DD7"/>      
</svg>