<svg width="200" height="50" viewBox="0 0 210 50" xmlns="http://www.w3.org/2000/svg">
    <defs>
        <linearGradient x1="0%" y1="0%" x2="100%" y2="0%" id="a">
            <stop stop-color="#3023AE" offset="0%"/>
            <stop stop-color="#C86DD7" offset="100%"/>
        </linearGradient>
    </defs>
    <path stroke="url(#a)"
          stroke-width="3"
          stroke-linejoin="round"
          stroke-linecap="round"
          d="M5 40 C 6.5 39.99, 8.5 39.99, 10 39.98 S 13.5 39.96, 15 39.96 S 18.5 39.99, 20 39.99 S 23.64 40.61, 25 39.98 S 29.53 36.75, 30 35.33 S 33.51 9.83, 35 10 S 39.47 35.07, 40 36.47 S 43.5 36.59, 45 36.6 S 48.5 36.63, 50 36.51 S 53.5 35.84, 55 35.79 S 58.5 36.11, 60 36.15 S 64.33 37.39, 65 36.05 S 68.68 16.81, 70 16.09 S 74.15 29.34, 75 30.57 S 78.51 30.45, 80 30.59 S 83.5 31.51, 85 31.5 S 88.5 30.53, 90 30.5 S 93.5 31.36, 95 31.28 S 98.5 30.02, 100 29.95 S 103.51 30.65, 105 30.83 S 108.54 30.8, 110 31.16 S 113.6 32.75, 115 33.28 S 118.54 34.56, 120 34.9 S 123.5 35.52, 125 35.62 S 128.5 35.53, 130 35.6 S 133.5 36.06, 135 36.1 S 138.5 35.82, 140 35.89 S 143.51 36.41, 145 36.57 S 148.5 36.9, 150 36.94 S 153.5 36.83, 155 36.82 S 158.5 36.81, 160 36.85 S 163.5 36.95, 165 37.06 S 168.5 37.49, 170 37.6 S 173.5 37.76, 175 37.81 S 178.5 37.89, 180 37.93 S 183.5 38.02, 185 38.06 S 188.5 38.12, 190 38.19 S 193.5 38.43, 195 38.51 S 198.5 38.7, 200 38.72 S 203.5 38.65, 205 38.62"
          fill="none"/>
    <circle r="4" cx="5" cy="40" fill="#3023AE"/>
    <circle r="4" cx="205" cy="38.62" fill="#C86DD7"/>      
</svg>