<svg width="200" height="50" viewBox="0 0 210 50" xmlns="http://www.w3.org/2000/svg">
    <defs>
        <linearGradient x1="0%" y1="0%" x2="100%" y2="0%" id="a">
            <stop stop-color="#3023AE" offset="0%"/>
            <stop stop-color="#C86DD7" offset="100%"/>
        </linearGradient>
    </defs>
    <path stroke="url(#a)"
          stroke-width="3"
          stroke-linejoin="round"
          stroke-linecap="round"
          d="M5 40 C 6.5 39.99, 8.5 39.99, 10 39.98 S 13.5 39.96, 15 39.96 S 18.5 39.99, 20 39.99 S 23.5 40.04, 25 39.98 S 28.64 40.25, 30 39.62 S 34.52 36.73, 35 35.31 S 38.51 9.87, 40 10 S 44.48 34.74, 45 36.15 S 48.51 36.85, 50 37 S 53.5 37.09, 55 37.16 S 58.51 37.61, 60 37.46 S 63.5 36.28, 65 36.16 S 68.5 36.66, 70 36.68 S 73.5 36.28, 75 36.29 S 79.36 38.13, 80 36.77 S 83.55 15.43, 85 15.03 S 89.17 32.74, 90 33.99 S 93.5 30.08, 95 30.01 S 98.57 33.09, 100 33.53 S 103.54 33.43, 105 33.1 S 108.5 31.28, 110 31.25 S 113.5 32.93, 115 32.89 S 118.51 31.1, 120 30.95 S 123.5 31.77, 125 31.87 S 128.5 31.51, 130 31.61 S 133.51 32.34, 135 32.53 S 138.54 32.53, 140 32.88 S 143.55 34.53, 145 34.93 S 148.51 35.53, 150 35.66 S 153.5 35.75, 155 35.81 S 158.5 35.92, 160 36.03 S 163.5 36.5, 165 36.57 S 168.5 36.56, 170 36.51 S 173.5 36.19, 175 36.26 S 178.51 36.79, 180 36.96 S 183.5 37.39, 185 37.4 S 188.5 37.05, 190 37.03 S 193.5 37.23, 195 37.24 S 198.5 37.13, 200 37.12 S 203.5 37.15, 205 37.16"
          fill="none"/>
    <circle r="4" cx="5" cy="40" fill="#3023AE"/>
    <circle r="4" cx="205" cy="37.16" fill="#C86DD7"/>      
</svg>