<svg width="200" height="50" viewBox="0 0 210 50" xmlns="http://www.w3.org/2000/svg">
    <defs>
        <linearGradient x1="0%" y1="0%" x2="100%" y2="0%" id="a">
            <stop stop-color="#3023AE" offset="0%"/>
            <stop stop-color="#C86DD7" offset="100%"/>
        </linearGradient>
    </defs>
    <path stroke="url(#a)"
          stroke-width="3"
          stroke-linejoin="round"
          stroke-linecap="round"
          d="M5 40 C 6.5 39.99, 8.5 39.99, 10 39.98 S 13.5 39.96, 15 39.96 S 18.5 39.99, 20 39.99 S 23.5 40.04, 25 39.98 S 28.64 40.26, 30 39.62 S 34.52 36.72, 35 35.3 S 38.5 9.88, 40 10 S 44.48 34.68, 45 36.09 S 48.51 36.91, 50 37.07 S 53.5 37.1, 55 37.15 S 58.51 37.55, 60 37.41 S 63.5 36.29, 65 36.18 S 68.5 36.67, 70 36.7 S 73.5 36.36, 75 36.36 S 79.36 38.03, 80 36.67 S 83.55 15.47, 85 15.08 S 89.17 32.76, 90 34.01 S 93.5 30.15, 95 30.08 S 98.57 33.12, 100 33.57 S 103.54 33.56, 105 33.2 S 108.5 31.17, 110 31.12 S 113.5 32.89, 115 32.88 S 118.51 31.18, 120 31.04 S 123.5 31.89, 125 31.96 S 128.5 31.43, 130 31.52 S 133.51 32.35, 135 32.54 S 138.53 32.45, 140 32.77 S 143.56 34.28, 145 34.7 S 148.51 35.52, 150 35.68 S 153.5 35.74, 155 35.79 S 158.5 35.94, 160 36.03 S 163.5 36.31, 165 36.4 S 168.5 36.68, 170 36.66 S 173.5 36.23, 175 36.27 S 178.51 36.76, 180 36.92 S 183.5 37.31, 185 37.33 S 188.5 37.11, 190 37.08 S 193.5 37.13, 195 37.15 S 198.5 37.21, 200 37.22 S 203.5 37.23, 205 37.24"
          fill="none"/>
    <circle r="4" cx="5" cy="40" fill="#3023AE"/>
    <circle r="4" cx="205" cy="37.24" fill="#C86DD7"/>      
</svg>