<svg width="200" height="50" viewBox="0 0 210 50" xmlns="http://www.w3.org/2000/svg">
    <defs>
        <linearGradient x1="0%" y1="0%" x2="100%" y2="0%" id="a">
            <stop stop-color="#3023AE" offset="0%"/>
            <stop stop-color="#C86DD7" offset="100%"/>
        </linearGradient>
    </defs>
    <path stroke="url(#a)"
          stroke-width="3"
          stroke-linejoin="round"
          stroke-linecap="round"
          d="M5 40 C 6.5 39.99, 8.5 39.99, 10 39.98 S 13.5 39.96, 15 39.96 S 18.5 39.99, 20 39.99 S 23.5 40.03, 25 39.98 S 28.63 40.25, 30 39.63 S 34.52 36.85, 35 35.43 S 38.5 9.89, 40 10 S 44.48 34.76, 45 36.17 S 48.51 36.83, 50 37.01 S 53.5 37.43, 55 37.39 S 58.51 36.88, 60 36.73 S 63.5 36.36, 65 36.36 S 68.5 36.74, 70 36.7 S 74.26 37.41, 75 36.11 S 78.6 19.66, 80 19.13 S 84.15 31.07, 85 32.31 S 88.56 34.06, 90 33.64 S 93.5 29.37, 95 29.39 S 98.52 33.52, 100 33.76 S 103.51 31.14, 105 30.99 S 108.5 32.65, 110 32.73 S 113.51 31.69, 115 31.51 S 118.5 31.51, 120 31.53 S 123.5 31.55, 125 31.67 S 128.51 32.18, 130 32.34 S 133.54 32.39, 135 32.75 S 138.56 34.41, 140 34.82 S 143.51 35.46, 145 35.61 S 148.5 35.75, 150 35.81 S 153.5 35.91, 155 36.02 S 158.5 36.46, 160 36.53 S 163.5 36.52, 165 36.5 S 168.5 36.32, 170 36.39 S 173.51 36.82, 175 36.97 S 178.5 37.39, 180 37.39 S 183.5 37.01, 185 37 S 188.5 37.33, 190 37.34 S 193.5 37.05, 195 37.05 S 198.5 37.23, 200 37.34 S 203.51 37.66, 205 37.8"
          fill="none"/>
    <circle r="4" cx="5" cy="40" fill="#3023AE"/>
    <circle r="4" cx="205" cy="37.8" fill="#C86DD7"/>      
</svg>