<svg width="200" height="50" viewBox="0 0 210 50" xmlns="http://www.w3.org/2000/svg">
    <defs>
        <linearGradient x1="0%" y1="0%" x2="100%" y2="0%" id="a">
            <stop stop-color="#3023AE" offset="0%"/>
            <stop stop-color="#C86DD7" offset="100%"/>
        </linearGradient>
    </defs>
    <path stroke="url(#a)"
          stroke-width="3"
          stroke-linejoin="round"
          stroke-linecap="round"
          d="M5 40 C 6.5 39.99, 8.5 39.99, 10 39.98 S 13.5 39.96, 15 39.96 S 18.5 39.99, 20 39.99 S 23.5 40.04, 25 39.98 S 28.64 40.24, 30 39.62 S 34.52 36.84, 35 35.42 S 38.51 9.87, 40 10 S 44.48 34.88, 45 36.29 S 48.51 36.7, 50 36.86 S 53.5 37.32, 55 37.38 S 58.52 37.5, 60 37.28 S 63.5 36, 65 35.92 S 68.5 36.74, 70 36.75 S 73.57 36.46, 75 36.02 S 79.25 34.95, 80 33.65 S 83.5 18.72, 85 18.63 S 88.98 31.96, 90 33.06 S 93.5 29.3, 95 29.4 S 98.52 33.48, 100 33.73 S 103.51 31.24, 105 31.1 S 108.51 32.61, 110 32.79 S 113.52 32.56, 115 32.29 S 118.5 30.98, 120 30.95 S 123.5 31.98, 125 32.09 S 128.5 31.56, 130 31.68 S 133.55 32.49, 135 32.87 S 138.56 33.87, 140 34.29 S 143.51 35.56, 145 35.77 S 148.5 35.63, 150 35.67 S 153.5 35.96, 155 36.07 S 158.5 36.33, 160 36.41 S 163.5 36.63, 165 36.61 S 168.5 36.24, 170 36.28 S 173.51 36.74, 175 36.91 S 178.5 37.4, 180 37.41 S 183.5 37, 185 36.99 S 188.5 37.32, 190 37.33 S 193.5 37.05, 195 37.04 S 198.5 37.19, 200 37.29 S 203.51 37.59, 205 37.72"
          fill="none"/>
    <circle r="4" cx="5" cy="40" fill="#3023AE"/>
    <circle r="4" cx="205" cy="37.72" fill="#C86DD7"/>      
</svg>