<svg width="200" height="50" viewBox="0 0 210 50" xmlns="http://www.w3.org/2000/svg">
    <defs>
        <linearGradient x1="0%" y1="0%" x2="100%" y2="0%" id="a">
            <stop stop-color="#3023AE" offset="0%"/>
            <stop stop-color="#C86DD7" offset="100%"/>
        </linearGradient>
    </defs>
    <path stroke="url(#a)"
          stroke-width="3"
          stroke-linejoin="round"
          stroke-linecap="round"
          d="M5 40 C 6.4 39.47, 8.53 38.4, 10 38.12 S 13.5 38.12, 15 38.12 S 18.5 38.12, 20 38.12 S 23.5 38.12, 25 38.12 S 28.5 38.12, 30 38.12 S 33.5 38.12, 35 38.12 S 38.5 38.12, 40 38.12 S 43.5 38.12, 45 38.12 S 48.5 38.12, 50 38.12 S 53.5 38.12, 55 38.12 S 58.5 38.12, 60 38.12 S 63.5 38.12, 65 38.12 S 68.5 38.12, 70 38.12 S 73.5 38.12, 75 38.12 S 78.5 38.12, 80 38.12 S 83.5 38.12, 85 38.12 S 88.5 38.12, 90 38.12 S 93.5 38.12, 95 38.12 S 98.5 38.12, 100 38.12 S 103.5 38.12, 105 38.12 S 108.5 38.12, 110 38.12 S 113.5 38.12, 115 38.12 S 118.5 38.12, 120 38.12 S 123.5 38.12, 125 38.12 S 128.5 38.12, 130 38.12 S 133.5 38.12, 135 38.12 S 138.5 38.12, 140 38.12 S 143.5 38.12, 145 38.12 S 148.5 38.12, 150 38.12 S 153.5 38.12, 155 38.12 S 158.5 38.12, 160 38.12 S 163.5 38.12, 165 38.12 S 168.5 38.12, 170 38.12 S 173.5 38.12, 175 38.12 S 178.5 38.12, 180 38.12 S 183.5 38.12, 185 38.12 S 188.5 38.12, 190 38.12 S 194.5 39.53, 195 38.12 S 198.91 11.03, 200 10 S 204.61 27.3, 205 28.75"
          fill="none"/>
    <circle r="4" cx="5" cy="40" fill="#3023AE"/>
    <circle r="4" cx="205" cy="28.75" fill="#C86DD7"/>      
</svg>