<svg width="200" height="50" viewBox="0 0 210 50" xmlns="http://www.w3.org/2000/svg">
    <defs>
        <linearGradient x1="0%" y1="0%" x2="100%" y2="0%" id="a">
            <stop stop-color="#3023AE" offset="0%"/>
            <stop stop-color="#C86DD7" offset="100%"/>
        </linearGradient>
    </defs>
    <path stroke="url(#a)"
          stroke-width="3"
          stroke-linejoin="round"
          stroke-linecap="round"
          d="M5 40 C 6.49 39.8, 8.54 39.7, 10 39.34 S 13.51 37.73, 15 37.54 S 18.51 37.84, 20 38.03 S 23.51 38.7, 25 38.85 S 28.5 38.97, 30 39.02 S 33.5 39.21, 35 39.18 S 38.52 39.09, 40 38.85 S 43.91 38.57, 45 37.54 S 48.65 29.98, 50 29.34 S 53.85 31.83, 55 32.79 S 58.62 37.11, 60 37.7 S 63.58 37.54, 65 37.05 S 68.51 34.41, 70 34.26 S 73.53 35.76, 75 36.07 S 78.52 36.17, 80 36.39 S 83.52 37.32, 85 37.54 S 88.5 37.92, 90 37.87 S 93.5 37.31, 95 37.21 S 98.51 37.33, 100 37.21 S 103.5 36.46, 105 36.39 S 108.53 37.03, 110 36.72 S 113.54 34.62, 115 34.26 S 118.5 34.31, 120 34.26 S 123.5 33.88, 125 33.93 S 128.55 34.21, 130 34.59 S 134.07 37.74, 135 36.56 S 138.54 22.31, 140 21.97 S 143.97 33.17, 145 34.26 S 148.58 33.11, 150 32.62 S 153.52 30.55, 155 30.82 S 158.5 34.43, 160 34.43 S 163.89 31.82, 165 30.82 S 168.51 25.53, 170 25.41 S 174.18 31.26, 175 30 S 178.96 11.08, 180 10 S 184.35 18.32, 185 19.67 S 188.82 29.89, 190 30.82 S 193.53 27.25, 195 27.54 S 198.57 32.34, 200 32.79 S 203.62 31.25, 205 30.66"
          fill="none"/>
    <circle r="4" cx="5" cy="40" fill="#3023AE"/>
    <circle r="4" cx="205" cy="30.66" fill="#C86DD7"/>      
</svg>