<svg width="200" height="50" viewBox="0 0 210 50" xmlns="http://www.w3.org/2000/svg">
    <defs>
        <linearGradient x1="0%" y1="0%" x2="100%" y2="0%" id="a">
            <stop stop-color="#3023AE" offset="0%"/>
            <stop stop-color="#C86DD7" offset="100%"/>
        </linearGradient>
    </defs>
    <path stroke="url(#a)"
          stroke-width="3"
          stroke-linejoin="round"
          stroke-linecap="round"
          d="M5 40 C 5.26 38.52, 8.51 12.15, 10 12.01 S 14.49 37.65, 15 39.06 S 18.5 39.67, 20 39.76 S 23.5 39.63, 25 39.65 S 28.75 40.71, 30 39.88 S 34.01 34.16, 35 33.03 S 38.56 28.84, 40 28.43 S 43.5 30.1, 45 30.2 S 48.51 28.99, 50 29.13 S 53.57 30.68, 55 31.14 S 58.5 32.41, 60 32.32 S 63.91 31.58, 65 30.55 S 68.75 23.7, 70 22.87 S 73.74 23.13, 75 23.94 S 78.69 28.52, 80 29.25 S 83.55 29.1, 85 29.49 S 88.51 31.85, 90 31.97 S 93.52 30.57, 95 30.31 S 98.6 30.73, 100 30.2 S 103.76 27.39, 105 26.54 S 108.82 24.28, 110 23.35 S 113.94 19.68, 115 18.62 S 118.57 13.75, 120 13.31 S 123.6 15.01, 125 15.55 S 128.55 16.82, 130 17.2 S 133.6 18.69, 135 18.15 S 138.84 14.26, 140 13.31 S 143.88 9.01, 145 10 S 149.06 21, 150 22.17 S 153.51 22.22, 155 22.4 S 158.58 22.88, 160 23.35 S 163.61 25.15, 165 25.71 S 168.5 27.45, 170 27.36 S 173.55 25.5, 175 25.12 S 178.76 25.6, 180 24.76 S 183.57 17.95, 185 18.39 S 188.88 26.84, 190 27.83 S 193.51 27.12, 195 27.24 S 198.78 29.54, 200 28.66 S 204.25 21.34, 205 20.04"
          fill="none"/>
    <circle r="4" cx="5" cy="40" fill="#3023AE"/>
    <circle r="4" cx="205" cy="20.04" fill="#C86DD7"/>      
</svg>