<svg width="200" height="50" viewBox="0 0 210 50" xmlns="http://www.w3.org/2000/svg">
    <defs>
        <linearGradient x1="0%" y1="0%" x2="100%" y2="0%" id="a">
            <stop stop-color="#3023AE" offset="0%"/>
            <stop stop-color="#C86DD7" offset="100%"/>
        </linearGradient>
    </defs>
    <path stroke="url(#a)"
          stroke-width="3"
          stroke-linejoin="round"
          stroke-linecap="round"
          d="M5 40 C 6.18 39.08, 8.67 36.79, 10 36.1 S 13.51 34.98, 15 34.86 S 18.5 35.3, 20 35.27 S 23.55 35.05, 25 34.66 S 28.61 33.17, 30 32.6 S 33.81 31.46, 35 30.55 S 38.82 25.92, 40 25 S 43.53 23.04, 45 22.74 S 48.5 22.89, 50 22.95 S 53.54 23.48, 55 23.15 S 58.7 21.43, 60 20.68 S 63.78 18.28, 65 17.4 S 68.58 13.99, 70 13.49 S 73.55 13.51, 75 13.9 S 78.57 16.6, 80 16.16 S 83.72 11.61, 85 10.82 S 88.55 9.61, 90 10 S 93.57 13.05, 95 13.49 S 98.63 12.46, 100 13.08 S 104.23 16.72, 105 18.01 S 108.78 29.05, 110 29.93 S 113.68 25.92, 115 25.21 S 118.58 24.1, 120 24.59 S 123.69 27.97, 125 28.7 S 128.61 30.71, 130 30.14 S 133.52 24.38, 135 24.59 S 138.6 31.03, 140 31.58 S 143.75 29.31, 145 28.49 S 148.59 24.48, 150 25 S 153.72 31.4, 155 32.19 S 158.52 30.95, 160 31.16 S 163.53 33.33, 165 33.63 S 168.54 33.58, 170 33.22 S 173.53 30.89, 175 31.16 S 178.54 34.71, 180 35.07 S 183.56 34.05, 185 33.63 S 188.52 31.98, 190 32.19 S 193.53 34.77, 195 35.07 S 198.51 34.43, 200 34.25 S 203.51 33.96, 205 33.84"
          fill="none"/>
    <circle r="4" cx="5" cy="40" fill="#3023AE"/>
    <circle r="4" cx="205" cy="33.84" fill="#C86DD7"/>      
</svg>