<svg width="200" height="50" viewBox="0 0 210 50" xmlns="http://www.w3.org/2000/svg">
    <defs>
        <linearGradient x1="0%" y1="0%" x2="100%" y2="0%" id="a">
            <stop stop-color="#3023AE" offset="0%"/>
            <stop stop-color="#C86DD7" offset="100%"/>
        </linearGradient>
    </defs>
    <path stroke="url(#a)"
          stroke-width="3"
          stroke-linejoin="round"
          stroke-linecap="round"
          d="M5 40 C 6.48 39.77, 8.5 39.25, 10 39.24 S 13.5 39.86, 15 39.9 S 18.52 39.74, 20 39.48 S 23.51 38.29, 25 38.11 S 28.5 38.21, 30 38.28 S 33.51 38.75, 35 38.58 S 38.5 37.15, 40 37.13 S 43.51 38.24, 45 38.43 S 48.51 38.62, 50 38.44 S 53.87 38.22, 55 37.23 S 58.5 29.76, 60 29.64 S 63.78 35.56, 65 36.44 S 68.51 37.02, 70 36.83 S 73.5 35.13, 75 35.15 S 78.52 36.75, 80 36.97 S 83.5 36.69, 85 36.6 S 88.61 36.91, 90 36.34 S 93.7 33.19, 95 32.45 S 98.51 30.76, 100 30.63 S 103.66 30.91, 105 31.58 S 108.58 35.17, 110 35.66 S 113.5 34.97, 115 35.06 S 118.51 36.12, 120 36.25 S 123.5 35.92, 125 35.93 S 128.5 36.33, 130 36.34 S 133.51 36.18, 135 35.97 S 138.53 35.28, 140 34.96 S 143.5 33.73, 145 33.79 S 148.77 36.21, 150 35.36 S 154.45 28.26, 155 26.86 S 158.81 9.09, 160 10 S 164.43 33.15, 165 34.54 S 168.5 34.17, 170 34.2 S 173.5 34.7, 175 34.76 S 178.5 34.56, 180 34.6 S 183.51 34.83, 185 35.01 S 188.5 35.8, 190 35.83 S 193.5 35.25, 195 35.23 S 198.51 35.51, 200 35.71 S 203.52 36.3, 205 36.55"
          fill="none"/>
    <circle r="4" cx="5" cy="40" fill="#3023AE"/>
    <circle r="4" cx="205" cy="36.55" fill="#C86DD7"/>      
</svg>