<svg width="200" height="50" viewBox="0 0 210 50" xmlns="http://www.w3.org/2000/svg">
    <defs>
        <linearGradient x1="0%" y1="0%" x2="100%" y2="0%" id="a">
            <stop stop-color="#3023AE" offset="0%"/>
            <stop stop-color="#C86DD7" offset="100%"/>
        </linearGradient>
    </defs>
    <path stroke="url(#a)"
          stroke-width="3"
          stroke-linejoin="round"
          stroke-linecap="round"
          d="M5 40 C 5.25 38.52, 8.84 10.95, 10 10 S 14.43 30.46, 15 31.85 S 18.51 34.32, 20 34.13 S 23.54 30.87, 25 30.54 S 29.25 33.15, 30 31.85 S 33.69 12.53, 35 13.26 S 39.41 36.01, 40 37.39 S 43.5 36.69, 45 36.74 S 48.54 37.39, 50 37.72 S 53.5 38.92, 55 39.02 S 58.5 38.47, 60 38.37 S 63.51 38.52, 65 38.37 S 68.5 37.49, 70 37.39 S 73.52 37.48, 75 37.72 S 78.51 38.83, 80 39.02 S 83.5 39.12, 85 39.02 S 88.5 38.37, 90 38.37 S 93.5 39.02, 95 39.02 S 98.5 38.37, 100 38.37 S 103.5 39.02, 105 39.02 S 108.5 38.37, 110 38.37 S 113.5 38.97, 115 39.02 S 118.51 38.85, 120 38.7 S 123.5 37.94, 125 38.04 S 128.5 39.3, 130 39.35 S 133.51 38.52, 135 38.37 S 138.73 39.16, 140 38.37 S 143.5 32.22, 145 32.17 S 148.65 37.38, 150 38.04 S 153.72 37.86, 155 37.07 S 158.5 31.8, 160 31.85 S 163.72 36.6, 165 37.39 S 168.57 38.5, 170 38.04 S 173.51 34.27, 175 34.13 S 178.52 36.83, 180 37.07 S 183.55 35.38, 185 35.76 S 188.53 39.38, 190 39.67 S 193.51 37.91, 195 37.72 S 198.5 38.47, 200 38.37 S 203.55 37.45, 205 37.07"
          fill="none"/>
    <circle r="4" cx="5" cy="40" fill="#3023AE"/>
    <circle r="4" cx="205" cy="37.07" fill="#C86DD7"/>      
</svg>