<svg width="200" height="50" viewBox="0 0 210 50" xmlns="http://www.w3.org/2000/svg">
    <defs>
        <linearGradient x1="0%" y1="0%" x2="100%" y2="0%" id="a">
            <stop stop-color="#3023AE" offset="0%"/>
            <stop stop-color="#C86DD7" offset="100%"/>
        </linearGradient>
    </defs>
    <path stroke="url(#a)"
          stroke-width="3"
          stroke-linejoin="round"
          stroke-linecap="round"
          d="M5 40 C 5.25 38.52, 8.51 10.18, 10 10 S 14.51 37.36, 15 38.78 S 18.5 39.17, 20 39.2 S 23.5 38.92, 25 38.97 S 28.5 39.48, 30 39.56 S 33.5 39.53, 35 39.5 S 38.5 39.43, 40 39.39 S 43.5 39.18, 45 39.21 S 48.5 39.58, 50 39.61 S 53.5 39.4, 55 39.4 S 58.5 39.53, 60 39.58 S 63.5 39.78, 65 39.75 S 68.5 39.42, 70 39.37 S 73.5 39.36, 75 39.4 S 78.5 39.58, 80 39.62 S 83.52 39.93, 85 39.67 S 88.51 38.05, 90 37.87 S 93.52 38.23, 95 38.48 S 98.51 39.36, 100 39.54 S 103.5 39.69, 105 39.72 S 108.5 39.77, 110 39.74 S 113.5 39.57, 115 39.54 S 118.5 39.57, 120 39.57 S 123.5 39.6, 125 39.52 S 128.86 40.02, 130 39.05 S 133.5 31.11, 135 30.99 S 138.8 37.36, 140 38.26 S 143.51 38.36, 145 38.5 S 148.51 39.1, 150 39.23 S 153.5 39.31, 155 39.36 S 158.5 39.57, 160 39.57 S 163.51 39.46, 165 39.33 S 168.5 38.74, 170 38.7 S 173.52 39.32, 175 39.07 S 178.5 36.98, 180 36.99 S 183.52 38.85, 185 39.11 S 188.5 38.7, 190 38.74 S 193.5 39.27, 195 39.37 S 198.5 39.53, 200 39.44 S 203.51 38.99, 205 38.8"
          fill="none"/>
    <circle r="4" cx="5" cy="40" fill="#3023AE"/>
    <circle r="4" cx="205" cy="38.8" fill="#C86DD7"/>      
</svg>