<svg width="200" height="50" viewBox="0 0 210 50" xmlns="http://www.w3.org/2000/svg">
    <defs>
        <linearGradient x1="0%" y1="0%" x2="100%" y2="0%" id="a">
            <stop stop-color="#3023AE" offset="0%"/>
            <stop stop-color="#C86DD7" offset="100%"/>
        </linearGradient>
    </defs>
    <path stroke="url(#a)"
          stroke-width="3"
          stroke-linejoin="round"
          stroke-linecap="round"
          d="M5 40 C 5.63 38.64, 8.5 29.31, 10 29.26 S 13.96 38.6, 15 39.68 S 18.5 39.68, 20 39.68 S 23.5 39.77, 25 39.68 S 28.5 39.05, 30 39.05 S 33.5 39.63, 35 39.68 S 38.52 39.6, 40 39.37 S 43.5 38.11, 45 38.11 S 48.51 39.18, 50 39.37 S 53.5 39.46, 55 39.37 S 58.5 38.74, 60 38.74 S 63.51 39.23, 65 39.37 S 69.52 41.1, 70 39.68 S 74.17 11.25, 75 10 S 79.45 23.13, 80 24.53 S 84.04 34.43, 85 35.58 S 88.5 36.44, 90 36.53 S 93.5 36.12, 95 36.21 S 98.51 36.97, 100 37.16 S 103.51 37.28, 105 37.47 S 108.51 38.61, 110 38.42 S 113.5 36.16, 115 36.21 S 118.5 38.79, 120 38.74 S 123.5 35.98, 125 35.89 S 128.5 38.11, 130 38.11 S 133.5 35.94, 135 35.89 S 138.5 37.74, 140 37.79 S 143.53 36.49, 145 36.21 S 148.52 35.66, 150 35.89 S 153.5 37.74, 155 37.79 S 158.51 36.4, 160 36.21 S 163.53 36.81, 165 36.53 S 168.5 34.27, 170 34.32 S 173.57 36.39, 175 36.84 S 178.5 37.47, 180 37.47 S 183.91 37.87, 185 36.84 S 188.54 28.32, 190 28 S 193.77 33.77, 195 34.63 S 198.51 34.76, 200 34.95 S 203.53 35.61, 205 35.89"
          fill="none"/>
    <circle r="4" cx="5" cy="40" fill="#3023AE"/>
    <circle r="4" cx="205" cy="35.89" fill="#C86DD7"/>      
</svg>