<svg width="200" height="50" viewBox="0 0 210 50" xmlns="http://www.w3.org/2000/svg">
    <defs>
        <linearGradient x1="0%" y1="0%" x2="100%" y2="0%" id="a">
            <stop stop-color="#3023AE" offset="0%"/>
            <stop stop-color="#C86DD7" offset="100%"/>
        </linearGradient>
    </defs>
    <path stroke="url(#a)"
          stroke-width="3"
          stroke-linejoin="round"
          stroke-linecap="round"
          d="M5 40 C 6.5 39.98, 8.5 39.93, 10 39.92 S 13.5 39.95, 15 39.96 S 18.5 39.96, 20 39.96 S 23.5 39.96, 25 39.96 S 28.5 39.97, 30 39.96 S 33.5 39.89, 35 39.88 S 38.5 39.91, 40 39.88 S 43.5 39.7, 45 39.71 S 48.5 39.98, 50 39.92 S 53.5 39.46, 55 39.34 S 58.5 39.16, 60 39.14 S 63.5 39.29, 65 39.22 S 68.5 38.74, 70 38.64 S 74.51 39.94, 75 38.52 S 78.77 10.86, 80 10 S 84.45 30.16, 85 31.56 S 88.59 34.95, 90 35.47 S 93.51 35.38, 95 35.23 S 98.5 34.5, 100 34.49 S 103.58 35.63, 105 35.14 S 108.5 31.11, 110 31.07 S 113.65 34.24, 115 34.9 S 118.5 35.96, 120 35.97 S 123.52 35.2, 125 34.94 S 128.5 34.23, 130 34.2 S 133.5 34.72, 135 34.73 S 138.5 34.19, 140 34.28 S 143.5 35.33, 145 35.35 S 148.52 34.62, 150 34.4 S 154.08 35.05, 155 33.87 S 158.68 22.28, 160 21.56 S 163.89 27.39, 165 28.4 S 168.52 30.35, 170 30.62 S 173.58 29.71, 175 30.21 S 178.5 34.02, 180 34.12 S 183.61 31.47, 185 30.91 S 188.54 30.43, 190 30.08 S 193.5 28.52, 195 28.48 S 198.63 30.45, 200 29.84 S 204.03 25.13, 205 23.99"
          fill="none"/>
    <circle r="4" cx="5" cy="40" fill="#3023AE"/>
    <circle r="4" cx="205" cy="23.99" fill="#C86DD7"/>      
</svg>