<svg width="200" height="50" viewBox="0 0 210 50" xmlns="http://www.w3.org/2000/svg">
    <defs>
        <linearGradient x1="0%" y1="0%" x2="100%" y2="0%" id="a">
            <stop stop-color="#3023AE" offset="0%"/>
            <stop stop-color="#C86DD7" offset="100%"/>
        </linearGradient>
    </defs>
    <path stroke="url(#a)"
          stroke-width="3"
          stroke-linejoin="round"
          stroke-linecap="round"
          d="M5 40 C 6.49 39.87, 8.5 39.67, 10 39.57 S 13.5 39.33, 15 39.36 S 19.52 41.21, 20 39.79 S 23.78 10.87, 25 10 S 29.4 31.33, 30 32.71 S 33.53 32.86, 35 33.14 S 38.53 34.95, 40 34.64 S 43.54 30.66, 45 31 S 48.52 36.78, 50 37 S 53.65 33.16, 55 32.5 S 58.52 31.85, 60 32.07 S 63.52 33.75, 65 34 S 68.5 33.85, 70 33.79 S 73.51 33.44, 75 33.57 S 78.5 34.74, 80 34.64 S 83.62 33.52, 85 32.93 S 88.53 30.67, 90 30.36 S 93.56 30.36, 95 30.79 S 98.52 33.14, 100 33.36 S 103.55 32.66, 105 32.29 S 108.52 31.01, 110 30.79 S 113.5 30.69, 115 30.79 S 118.51 31.27, 120 31.43 S 123.51 31.73, 125 31.86 S 128.5 32.29, 130 32.29 S 133.56 32.29, 135 31.86 S 138.51 29.13, 140 29.29 S 143.53 32.65, 145 32.93 S 148.57 31.67, 150 31.21 S 153.51 29.87, 155 29.71 S 158.67 30.83, 160 30.14 S 163.5 24.51, 165 24.57 S 168.79 29.69, 170 30.57 S 173.53 32.17, 175 31.86 S 178.51 28.56, 180 28.43 S 183.55 30.63, 185 31 S 188.55 31.37, 190 31 S 193.51 28.59, 195 28.43 S 198.52 30.15, 200 29.93 S 203.71 27.7, 205 26.93"
          fill="none"/>
    <circle r="4" cx="5" cy="40" fill="#3023AE"/>
    <circle r="4" cx="205" cy="26.93" fill="#C86DD7"/>      
</svg>