<svg width="200" height="50" viewBox="0 0 210 50" xmlns="http://www.w3.org/2000/svg">
    <defs>
        <linearGradient x1="0%" y1="0%" x2="100%" y2="0%" id="a">
            <stop stop-color="#3023AE" offset="0%"/>
            <stop stop-color="#C86DD7" offset="100%"/>
        </linearGradient>
    </defs>
    <path stroke="url(#a)"
          stroke-width="3"
          stroke-linejoin="round"
          stroke-linecap="round"
          d="M5 40 C 6.49 39.82, 8.5 39.44, 10 39.39 S 13.5 39.65, 15 39.69 S 18.72 40.47, 20 39.69 S 24.24 34.87, 25 33.57 S 28.52 22.78, 30 22.55 S 33.99 30.93, 35 32.04 S 39.38 34.94, 40 33.57 S 43.61 10.55, 45 10 S 49.19 28.33, 50 29.59 S 53.52 25.38, 55 25.61 S 58.79 30.23, 60 31.12 S 63.52 32.69, 65 32.96 S 68.5 32.96, 70 32.96 S 73.51 32.82, 75 32.96 S 78.5 33.97, 80 33.88 S 83.5 32.35, 85 32.35 S 88.5 33.93, 90 33.88 S 93.5 31.95, 95 32.04 S 98.53 34.18, 100 34.49 S 103.53 34.49, 105 34.18 S 108.69 33.07, 110 32.35 S 113.5 28.76, 115 28.67 S 118.55 31.33, 120 31.73 S 123.59 31.95, 125 31.43 S 128.52 27.83, 130 28.06 S 133.53 32.65, 135 32.96 S 138.54 30.56, 140 30.2 S 143.61 29.96, 145 30.51 S 148.54 33.82, 150 34.18 S 153.52 32.69, 155 32.96 S 158.55 35.62, 160 36.02 S 163.61 36.26, 165 35.71 S 168.5 32.04, 170 32.04 S 173.54 35.35, 175 35.71 S 178.76 35.33, 180 34.49 S 183.74 29.79, 185 28.98 S 188.74 27.25, 190 28.06 S 193.55 35.01, 195 35.41 S 198.51 30.96, 200 30.82 S 203.79 33.6, 205 34.49"
          fill="none"/>
    <circle r="4" cx="5" cy="40" fill="#3023AE"/>
    <circle r="4" cx="205" cy="34.49" fill="#C86DD7"/>      
</svg>