<svg width="200" height="50" viewBox="0 0 210 50" xmlns="http://www.w3.org/2000/svg">
    <defs>
        <linearGradient x1="0%" y1="0%" x2="100%" y2="0%" id="a">
            <stop stop-color="#3023AE" offset="0%"/>
            <stop stop-color="#C86DD7" offset="100%"/>
        </linearGradient>
    </defs>
    <path stroke="url(#a)"
          stroke-width="3"
          stroke-linejoin="round"
          stroke-linecap="round"
          d="M5 40 C 5.34 38.54, 8.57 19.28, 10 18.81 S 14.25 35.42, 15 36.72 S 18.5 36.17, 20 36.12 S 23.53 36.1, 25 36.41 S 28.51 38.06, 30 38.24 S 33.51 37.82, 35 37.64 S 38.52 37.28, 40 37.04 S 43.97 37.13, 45 36.04 S 49.46 27.86, 50 26.46 S 53.55 10.38, 55 10 S 59.04 22.65, 60 23.81 S 63.59 22.58, 65 22.07 S 68.51 20.09, 70 20.22 S 73.59 22.41, 75 22.92 S 78.51 23.69, 80 23.85 S 83.5 24.01, 85 23.99 S 88.5 23.63, 90 23.73 S 93.5 24.79, 95 24.68 S 98.53 22.7, 100 22.98 S 103.52 26.31, 105 26.57 S 108.51 24.59, 110 24.76 S 113.58 27.21, 115 27.68 S 118.54 27.76, 120 28.08 S 123.51 29.75, 125 29.88 S 128.5 29.03, 130 28.95 S 133.5 29.29, 135 29.32 S 138.5 29.04, 140 29.14 S 143.5 29.93, 145 29.97 S 148.53 29.68, 150 29.38 S 153.5 28.03, 155 27.91 S 158.5 28.46, 160 28.58 S 163.51 28.56, 165 28.7 S 168.52 29.29, 170 29.55 S 173.52 30.2, 175 30.44 S 178.5 31.09, 180 31.17 S 183.5 30.95, 185 30.98 S 188.51 31.22, 190 31.35 S 193.51 31.72, 195 31.85 S 198.5 32.19, 200 32.23 S 203.5 32.15, 205 32.12"
          fill="none"/>
    <circle r="4" cx="5" cy="40" fill="#3023AE"/>
    <circle r="4" cx="205" cy="32.12" fill="#C86DD7"/>      
</svg>