<svg width="200" height="50" viewBox="0 0 210 50" xmlns="http://www.w3.org/2000/svg">
    <defs>
        <linearGradient x1="0%" y1="0%" x2="100%" y2="0%" id="a">
            <stop stop-color="#3023AE" offset="0%"/>
            <stop stop-color="#C86DD7" offset="100%"/>
        </linearGradient>
    </defs>
    <path stroke="url(#a)"
          stroke-width="3"
          stroke-linejoin="round"
          stroke-linecap="round"
          d="M5 40 C 6.5 39.92, 8.5 39.74, 10 39.74 S 13.5 39.93, 15 39.97 S 19.53 41.41, 20 39.99 S 23.59 10.52, 25 10 S 29.46 34.93, 30 36.33 S 33.5 35.79, 35 35.7 S 38.51 35.54, 40 35.75 S 43.5 37.19, 45 37.09 S 48.51 35.2, 50 35.08 S 53.74 37.08, 55 36.27 S 58.69 29.4, 60 28.67 S 63.79 29.79, 65 30.68 S 68.72 35.24, 70 36.02 S 73.5 36.78, 75 36.72 S 78.54 35.96, 80 35.61 S 83.53 34.65, 85 34.33 S 88.52 33.21, 90 33.46 S 93.59 35.5, 95 36.02 S 98.5 37.09, 100 37.18 S 103.56 37.03, 105 36.61 S 108.5 34.25, 110 34.25 S 113.57 36.17, 115 36.62 S 118.51 37.23, 120 37.38 S 123.5 37.63, 125 37.61 S 128.58 37.75, 130 37.27 S 133.52 34.45, 135 34.2 S 138.53 35.23, 140 35.55 S 143.51 36.16, 145 36.35 S 148.51 36.97, 150 36.85 S 153.54 35.86, 155 35.53 S 158.54 34.92, 160 34.57 S 163.55 33.49, 165 33.12 S 168.53 31.78, 170 32.05 S 173.62 34.39, 175 34.97 S 178.51 36.03, 180 36.21 S 183.5 36.26, 185 36.16 S 188.51 35.68, 190 35.52 S 193.51 34.95, 195 35.11 S 198.51 36.38, 200 36.56 S 203.5 36.4, 205 36.33"
          fill="none"/>
    <circle r="4" cx="5" cy="40" fill="#3023AE"/>
    <circle r="4" cx="205" cy="36.33" fill="#C86DD7"/>      
</svg>