<svg width="200" height="50" viewBox="0 0 210 50" xmlns="http://www.w3.org/2000/svg">
    <defs>
        <linearGradient x1="0%" y1="0%" x2="100%" y2="0%" id="a">
            <stop stop-color="#3023AE" offset="0%"/>
            <stop stop-color="#C86DD7" offset="100%"/>
        </linearGradient>
    </defs>
    <path stroke="url(#a)"
          stroke-width="3"
          stroke-linejoin="round"
          stroke-linecap="round"
          d="M5 40 C 5.25 38.52, 8.53 10.28, 10 10 S 14.51 36.7, 15 38.12 S 18.51 38.92, 20 39.06 S 23.5 39.06, 25 39.06 S 28.51 39.2, 30 39.06 S 33.6 38.65, 35 38.12 S 38.53 35.59, 40 35.31 S 43.51 36.39, 45 36.25 S 48.51 34.23, 50 34.37 S 53.53 37.47, 55 37.19 S 58.5 32.5, 60 32.5 S 63.69 37.93, 65 37.19 S 68.75 27.69, 70 26.87 S 73.8 29.72, 75 30.62 S 78.64 33.73, 80 34.37 S 83.64 35.95, 85 35.31 S 88.51 29.83, 90 29.69 S 93.69 33.64, 95 34.37 S 98.56 35.72, 100 35.31 S 104.05 32.72, 105 31.56 S 108.5 23.12, 110 23.12 S 113.56 31.15, 115 31.56 S 118.56 26.35, 120 25.94 S 123.53 28.47, 125 28.75 S 128.64 27.17, 130 27.81 S 133.5 33.44, 135 33.44 S 138.96 28.89, 140 27.81 S 143.6 22.59, 145 23.12 S 148.51 31.7, 150 31.56 S 153.51 22.05, 155 22.19 S 158.53 32.22, 160 32.5 S 163.5 24.06, 165 24.06 S 168.53 32.78, 170 32.5 S 173.8 23.09, 175 22.19 S 178.75 24.18, 180 25 S 183.64 28.11, 185 28.75 S 188.6 30.22, 190 29.69 S 193.6 25.53, 195 25 S 198.51 25.8, 200 25.94 S 203.5 25.94, 205 25.94"
          fill="none"/>
    <circle r="4" cx="5" cy="40" fill="#3023AE"/>
    <circle r="4" cx="205" cy="25.939999999999998" fill="#C86DD7"/>      
</svg>