<svg width="200" height="50" viewBox="0 0 210 50" xmlns="http://www.w3.org/2000/svg">
    <defs>
        <linearGradient x1="0%" y1="0%" x2="100%" y2="0%" id="a">
            <stop stop-color="#3023AE" offset="0%"/>
            <stop stop-color="#C86DD7" offset="100%"/>
        </linearGradient>
    </defs>
    <path stroke="url(#a)"
          stroke-width="3"
          stroke-linejoin="round"
          stroke-linecap="round"
          d="M5 40 C 5.25 38.52, 9.42 11.38, 10 10 S 14.38 14.6, 15 15.97 S 19.3 30.9, 20 32.23 S 23.57 34.6, 25 35.06 S 28.62 36.05, 30 35.46 S 33.5 30.67, 35 30.79 S 38.5 36.2, 40 36.23 S 43.53 31.27, 45 30.97 S 48.5 34.15, 50 34.21 S 53.5 31.5, 55 31.38 S 58.51 33.29, 60 33.44 S 63.52 32.67, 65 32.41 S 68.55 32.03, 70 31.65 S 73.5 29.86, 75 29.81 S 78.54 31.01, 80 31.33 S 83.61 31.45, 85 32.01 S 88.54 35.01, 90 35.37 S 93.6 35.02, 95 34.48 S 98.88 32.5, 100 31.51 S 103.5 25.62, 105 25.63 S 108.76 30.71, 110 31.56 S 113.5 32.42, 115 32.5 S 118.6 32.63, 120 32.1 S 123.55 29.11, 125 28.73 S 128.51 29.35, 130 29.49 S 133.62 29.08, 135 29.67 S 138.6 33.26, 140 33.8 S 143.51 33.7, 145 33.49 S 148.5 32.31, 150 32.41 S 153.5 34.05, 155 34.16 S 158.54 33.46, 160 33.13 S 163.5 31.75, 165 31.87 S 168.56 33.52, 170 33.94 S 173.52 34.49, 175 34.75 S 178.5 35.67, 180 35.69 S 183.55 35.25, 185 34.88 S 188.51 33.28, 190 33.13 S 193.52 33.58, 195 33.85 S 198.57 34.53, 200 34.97 S 203.61 36.4, 205 36.95"
          fill="none"/>
    <circle r="4" cx="5" cy="40" fill="#3023AE"/>
    <circle r="4" cx="205" cy="36.95" fill="#C86DD7"/>      
</svg>