<svg width="200" height="50" viewBox="0 0 210 50" xmlns="http://www.w3.org/2000/svg">
    <defs>
        <linearGradient x1="0%" y1="0%" x2="100%" y2="0%" id="a">
            <stop stop-color="#3023AE" offset="0%"/>
            <stop stop-color="#C86DD7" offset="100%"/>
        </linearGradient>
    </defs>
    <path stroke="url(#a)"
          stroke-width="3"
          stroke-linejoin="round"
          stroke-linecap="round"
          d="M5 40 C 5.25 38.52, 8.51 10.21, 10 10 S 14.51 37.16, 15 38.58 S 18.51 38.63, 20 38.75 S 23.5 39.32, 25 39.41 S 28.5 39.39, 30 39.35 S 33.5 39.19, 35 39.17 S 38.5 39.19, 40 39.23 S 43.5 39.39, 45 39.47 S 48.5 39.72, 50 39.76 S 53.5 39.8, 55 39.76 S 58.5 39.5, 60 39.47 S 63.5 39.59, 65 39.58 S 68.5 39.39, 70 39.41 S 73.5 39.67, 75 39.7 S 78.5 39.57, 80 39.58 S 83.5 39.78, 85 39.76 S 88.5 39.53, 90 39.47 S 93.5 39.36, 95 39.35 S 98.5 39.4, 100 39.41 S 103.5 39.37, 105 39.41 S 108.5 39.71, 110 39.7 S 113.5 39.33, 115 39.35 S 118.5 39.84, 120 39.82 S 123.5 39.29, 125 39.23 S 128.5 39.35, 130 39.41 S 133.5 39.64, 135 39.64 S 138.5 39.37, 140 39.41 S 143.5 39.84, 145 39.88 S 148.5 39.77, 150 39.7 S 153.5 39.41, 155 39.41 S 158.5 39.67, 160 39.7 S 163.5 39.68, 165 39.64 S 168.5 39.44, 170 39.41 S 173.5 39.47, 175 39.47 S 178.5 39.41, 180 39.41 S 183.5 39.41, 185 39.47 S 188.5 39.82, 190 39.82 S 193.5 39.57, 195 39.47 S 198.5 39.19, 200 39.17 S 203.5 39.3, 205 39.35"
          fill="none"/>
    <circle r="4" cx="5" cy="40" fill="#3023AE"/>
    <circle r="4" cx="205" cy="39.35" fill="#C86DD7"/>      
</svg>