<svg width="200" height="50" viewBox="0 0 210 50" xmlns="http://www.w3.org/2000/svg">
    <defs>
        <linearGradient x1="0%" y1="0%" x2="100%" y2="0%" id="a">
            <stop stop-color="#3023AE" offset="0%"/>
            <stop stop-color="#C86DD7" offset="100%"/>
        </linearGradient>
    </defs>
    <path stroke="url(#a)"
          stroke-width="3"
          stroke-linejoin="round"
          stroke-linecap="round"
          d="M5 40 C 5.25 38.52, 8.77 10.86, 10 10 S 14.49 31.61, 15 33.02 S 18.64 36.78, 20 37.41 S 23.5 37.59, 25 37.62 S 28.5 37.63, 30 37.62 S 33.5 37.48, 35 37.56 S 38.51 37.96, 40 38.15 S 43.5 38.75, 45 38.86 S 48.5 38.84, 50 38.86 S 53.5 38.94, 55 39.01 S 58.5 39.24, 60 39.35 S 63.5 39.64, 65 39.72 S 68.54 40.22, 70 39.88 S 73.58 37.9, 75 37.41 S 78.52 36.65, 80 36.42 S 83.5 35.76, 85 35.86 S 88.51 36.89, 90 37.07 S 93.52 37.32, 95 37.07 S 98.53 35.67, 100 35.37 S 103.52 35.24, 105 35 S 108.5 33.85, 110 33.77 S 113.51 34.28, 115 34.44 S 118.51 34.94, 120 34.81 S 123.5 33.6, 125 33.58 S 128.54 34.36, 130 34.69 S 133.51 35.63, 135 35.83 S 138.51 36.19, 140 36.02 S 143.5 34.78, 145 34.72 S 148.51 35.38, 150 35.59 S 153.5 36.14, 155 36.14 S 158.5 35.64, 160 35.59 S 163.5 35.91, 165 35.83 S 168.5 35.02, 170 35.03 S 173.52 35.68, 175 35.93 S 178.51 36.88, 180 36.73 S 183.51 35.06, 185 34.94 S 188.52 35.66, 190 35.9 S 193.51 36.38, 195 36.54 S 198.51 37.12, 200 36.98 S 203.55 35.99, 205 35.59"
          fill="none"/>
    <circle r="4" cx="5" cy="40" fill="#3023AE"/>
    <circle r="4" cx="205" cy="35.59" fill="#C86DD7"/>      
</svg>