<svg width="200" height="50" viewBox="0 0 210 50" xmlns="http://www.w3.org/2000/svg">
    <defs>
        <linearGradient x1="0%" y1="0%" x2="100%" y2="0%" id="a">
            <stop stop-color="#3023AE" offset="0%"/>
            <stop stop-color="#C86DD7" offset="100%"/>
        </linearGradient>
    </defs>
    <path stroke="url(#a)"
          stroke-width="3"
          stroke-linejoin="round"
          stroke-linecap="round"
          d="M5 40 C 6.45 39.62, 8.5 38.8, 10 38.7 S 13.5 39.25, 15 39.35 S 18.5 39.35, 20 39.35 S 23.5 39.45, 25 39.35 S 28.5 38.7, 30 38.7 S 33.5 39.25, 35 39.35 S 38.5 39.35, 40 39.35 S 43.5 39.35, 45 39.35 S 48.5 39.35, 50 39.35 S 53.5 39.35, 55 39.35 S 58.5 39.35, 60 39.35 S 63.5 39.35, 65 39.35 S 68.5 39.35, 70 39.35 S 73.5 39.35, 75 39.35 S 78.5 39.35, 80 39.35 S 83.5 39.35, 85 39.35 S 88.5 39.35, 90 39.35 S 93.5 39.35, 95 39.35 S 98.5 39.35, 100 39.35 S 103.5 39.35, 105 39.35 S 108.5 39.35, 110 39.35 S 113.5 39.35, 115 39.35 S 118.5 39.35, 120 39.35 S 123.5 39.35, 125 39.35 S 128.5 39.35, 130 39.35 S 133.5 39.35, 135 39.35 S 138.74 40.17, 140 39.35 S 144.06 34, 145 32.83 S 148.51 26.77, 150 26.96 S 153.82 33.21, 155 34.13 S 159.12 35.99, 160 34.78 S 164.44 21.82, 165 20.43 S 168.64 9.38, 170 10 S 174.3 23.67, 175 25 S 178.6 29.46, 180 28.91 S 183.5 21.19, 185 21.09 S 188.78 27.39, 190 28.26 S 193.82 27.34, 195 28.26 S 198.78 35.22, 200 36.09 S 203.51 35.63, 205 35.43"
          fill="none"/>
    <circle r="4" cx="5" cy="40" fill="#3023AE"/>
    <circle r="4" cx="205" cy="35.43" fill="#C86DD7"/>      
</svg>