<svg width="200" height="50" viewBox="0 0 210 50" xmlns="http://www.w3.org/2000/svg">
    <defs>
        <linearGradient x1="0%" y1="0%" x2="100%" y2="0%" id="a">
            <stop stop-color="#3023AE" offset="0%"/>
            <stop stop-color="#C86DD7" offset="100%"/>
        </linearGradient>
    </defs>
    <path stroke="url(#a)"
          stroke-width="3"
          stroke-linejoin="round"
          stroke-linecap="round"
          d="M5 40 C 6.46 39.66, 8.51 39.02, 10 38.85 S 13.5 38.85, 15 38.85 S 18.5 38.85, 20 38.85 S 23.5 38.85, 25 38.85 S 29.32 40.19, 30 38.85 S 33.96 20.31, 35 19.23 S 38.9 27.44, 40 28.46 S 43.77 29.31, 45 28.46 S 49.29 22.86, 50 21.54 S 53.83 9.06, 55 10 S 59.45 28.22, 60 29.62 S 63.9 34.36, 65 35.38 S 68.51 38.68, 70 38.85 S 73.5 36.54, 75 36.54 S 78.51 38.68, 80 38.85 S 83.5 37.69, 85 37.69 S 88.51 38.68, 90 38.85 S 93.5 38.85, 95 38.85 S 98.5 38.85, 100 38.85 S 103.5 38.85, 105 38.85 S 108.64 39.48, 110 38.85 S 113.9 35.25, 115 34.23 S 118.51 29.45, 120 29.62 S 123.7 34.63, 125 35.38 S 128.7 36.13, 130 35.38 S 133.54 29.96, 135 29.62 S 138.64 32.45, 140 33.08 S 143.5 34.23, 145 34.23 S 148.64 32.45, 150 33.08 S 153.64 38.22, 155 38.85 S 158.51 37.86, 160 37.69 S 163.5 37.69, 165 37.69 S 168.51 37.86, 170 37.69 S 173.51 36.71, 175 36.54 S 178.54 36.2, 180 36.54 S 183.54 38.51, 185 38.85 S 188.5 38.85, 190 38.85 S 193.5 38.85, 195 38.85 S 198.51 39.02, 200 38.85 S 203.54 38.03, 205 37.69"
          fill="none"/>
    <circle r="4" cx="5" cy="40" fill="#3023AE"/>
    <circle r="4" cx="205" cy="37.69" fill="#C86DD7"/>      
</svg>