<svg width="200" height="50" viewBox="0 0 210 50" xmlns="http://www.w3.org/2000/svg">
    <defs>
        <linearGradient x1="0%" y1="0%" x2="100%" y2="0%" id="a">
            <stop stop-color="#3023AE" offset="0%"/>
            <stop stop-color="#C86DD7" offset="100%"/>
        </linearGradient>
    </defs>
    <path stroke="url(#a)"
          stroke-width="3"
          stroke-linejoin="round"
          stroke-linecap="round"
          d="M5 40 C 5.25 38.52, 8.54 10.36, 10 10 S 14.49 36.09, 15 37.5 S 18.5 37.5, 20 37.5 S 23.5 37.5, 25 37.5 S 28.5 37.5, 30 37.5 S 33.5 37.5, 35 37.5 S 38.5 37.5, 40 37.5 S 43.5 37.5, 45 37.5 S 48.5 37.5, 50 37.5 S 53.5 37.5, 55 37.5 S 58.5 37.5, 60 37.5 S 63.5 37.5, 65 37.5 S 68.5 37.5, 70 37.5 S 73.5 37.5, 75 37.5 S 78.5 37.5, 80 37.5 S 83.5 37.5, 85 37.5 S 88.54 37.86, 90 37.5 S 93.54 35.36, 95 35 S 98.54 34.64, 100 35 S 103.54 37.86, 105 37.5 S 108.5 32.5, 110 32.5 S 113.66 36.83, 115 37.5 S 118.5 37.5, 120 37.5 S 123.54 37.86, 125 37.5 S 128.5 35, 130 35 S 133.5 37.5, 135 37.5 S 138.5 35, 140 35 S 143.54 37.86, 145 37.5 S 148.5 32.5, 150 32.5 S 153.66 36.83, 155 37.5 S 158.94 38.56, 160 37.5 S 163.5 27.5, 165 27.5 S 168.94 36.44, 170 37.5 S 173.54 37.86, 175 37.5 S 178.5 35, 180 35 S 183.54 37.14, 185 37.5 S 188.5 37.5, 190 37.5 S 193.5 37.5, 195 37.5 S 198.5 37.5, 200 37.5"
          fill="none"/>
    <circle r="4" cx="5" cy="40" fill="#3023AE"/>
    <circle r="4" cx="200" cy="37.5" fill="#C86DD7"/>      
</svg>