<svg width="200" height="50" viewBox="0 0 210 50" xmlns="http://www.w3.org/2000/svg">
    <defs>
        <linearGradient x1="0%" y1="0%" x2="100%" y2="0%" id="a">
            <stop stop-color="#3023AE" offset="0%"/>
            <stop stop-color="#C86DD7" offset="100%"/>
        </linearGradient>
    </defs>
    <path stroke="url(#a)"
          stroke-width="3"
          stroke-linejoin="round"
          stroke-linecap="round"
          d="M5 40 C 6.38 39.41, 8.53 38.17, 10 37.86 S 13.5 37.86, 15 37.86 S 18.5 37.86, 20 37.86 S 23.5 37.86, 25 37.86 S 28.5 37.86, 30 37.86 S 33.5 37.86, 35 37.86 S 38.5 37.86, 40 37.86 S 43.5 37.86, 45 37.86 S 48.5 37.86, 50 37.86 S 53.5 37.86, 55 37.86 S 58.5 37.86, 60 37.86 S 63.5 37.86, 65 37.86 S 68.5 37.86, 70 37.86 S 73.5 37.86, 75 37.86 S 78.5 37.86, 80 37.86 S 83.5 37.86, 85 37.86 S 88.5 37.86, 90 37.86 S 93.5 37.86, 95 37.86 S 98.5 37.86, 100 37.86 S 103.5 37.86, 105 37.86 S 108.5 37.86, 110 37.86 S 113.5 37.86, 115 37.86 S 118.5 37.86, 120 37.86 S 123.5 37.86, 125 37.86 S 128.5 37.86, 130 37.86 S 133.5 37.86, 135 37.86 S 138.5 37.86, 140 37.86 S 143.5 37.86, 145 37.86 S 148.5 37.86, 150 37.86 S 153.5 37.86, 155 37.86 S 158.5 37.86, 160 37.86 S 163.5 37.86, 165 37.86 S 168.5 37.86, 170 37.86 S 174.49 39.27, 175 37.86 S 178.5 10, 180 10 S 184.41 36.48, 185 37.86 S 189.17 34.82, 190 33.57 S 193.53 23.17, 195 22.86 S 199.08 30.25, 200 31.43 S 203.86 34.73, 205 35.71"
          fill="none"/>
    <circle r="4" cx="5" cy="40" fill="#3023AE"/>
    <circle r="4" cx="205" cy="35.71" fill="#C86DD7"/>      
</svg>