<svg width="200" height="50" viewBox="0 0 210 50" xmlns="http://www.w3.org/2000/svg">
    <defs>
        <linearGradient x1="0%" y1="0%" x2="100%" y2="0%" id="a">
            <stop stop-color="#3023AE" offset="0%"/>
            <stop stop-color="#C86DD7" offset="100%"/>
        </linearGradient>
    </defs>
    <path stroke="url(#a)"
          stroke-width="3"
          stroke-linejoin="round"
          stroke-linecap="round"
          d="M5 40 C 6.42 39.52, 8.52 38.58, 10 38.33 S 13.5 38.33, 15 38.33 S 18.5 38.33, 20 38.33 S 23.5 38.33, 25 38.33 S 28.5 38.33, 30 38.33 S 33.5 38.33, 35 38.33 S 38.5 38.33, 40 38.33 S 43.5 38.33, 45 38.33 S 48.5 38.33, 50 38.33 S 53.5 38.33, 55 38.33 S 58.5 38.33, 60 38.33 S 63.5 38.33, 65 38.33 S 68.5 38.33, 70 38.33 S 73.5 38.33, 75 38.33 S 78.5 38.33, 80 38.33 S 83.66 39, 85 38.33 S 89.5 34.74, 90 33.33 S 93.94 11.06, 95 10 S 99.02 22.19, 100 23.33 S 103.75 20.84, 105 21.67 S 109.17 28.75, 110 30 S 113.85 35.71, 115 36.67 S 118.52 38.08, 120 38.33 S 123.5 38.33, 125 38.33 S 128.5 38.33, 130 38.33 S 133.5 38.33, 135 38.33 S 138.5 38.33, 140 38.33 S 143.5 38.33, 145 38.33 S 148.5 38.33, 150 38.33 S 153.5 38.33, 155 38.33 S 158.5 38.33, 160 38.33"
          fill="none"/>
    <circle r="4" cx="5" cy="40" fill="#3023AE"/>
    <circle r="4" cx="160" cy="38.33" fill="#C86DD7"/>      
</svg>