<svg width="200" height="50" viewBox="0 0 210 50" xmlns="http://www.w3.org/2000/svg">
    <defs>
        <linearGradient x1="0%" y1="0%" x2="100%" y2="0%" id="a">
            <stop stop-color="#3023AE" offset="0%"/>
            <stop stop-color="#C86DD7" offset="100%"/>
        </linearGradient>
    </defs>
    <path stroke="url(#a)"
          stroke-width="3"
          stroke-linejoin="round"
          stroke-linecap="round"
          d="M5 40 C 6.08 38.96, 8.62 35.76, 10 35.18 S 13.6 35.26, 15 35.8 S 18.57 38.62, 20 39.07 S 23.5 38.86, 25 38.91 S 28.5 39.43, 30 39.38 S 33.54 38.96, 35 38.6 S 38.5 36.8, 40 36.89 S 43.53 38.9, 45 39.22 S 48.5 39.05, 50 39.07 S 53.5 39.47, 55 39.38 S 58.5 38.43, 60 38.45 S 63.5 39.41, 65 39.53 S 68.5 39.31, 70 39.22 S 73.5 38.89, 75 38.91 S 78.5 39.36, 80 39.38 S 83.68 39.79, 85 39.07 S 88.63 34.56, 90 33.94 S 93.65 33.91, 95 34.56 S 98.53 38.44, 100 38.76 S 103.52 36.99, 105 36.74 S 108.56 37.45, 110 37.05 S 113.51 34.1, 115 33.94 S 118.51 36.15, 120 35.96 S 123.53 32.97, 125 32.69 S 128.5 34.11, 130 34.09 S 133.5 32.56, 135 32.54 S 138.67 34.62, 140 33.94 S 144.22 28.69, 145 27.41 S 148.81 18.37, 150 17.46 S 153.72 19.01, 155 19.79 S 158.52 23.27, 160 23.52 S 163.96 22.58, 165 21.5 S 168.88 14.1, 170 13.11 S 173.9 11.62, 175 12.64 S 178.74 21.62, 180 22.44 S 183.51 19.38, 185 19.17 S 188.51 21.2, 190 21.04 S 193.53 18.38, 195 18.08 S 198.83 19.96, 200 19.02 S 204.27 11.31, 205 10"
          fill="none"/>
    <circle r="4" cx="5" cy="40" fill="#3023AE"/>
    <circle r="4" cx="205" cy="10" fill="#C86DD7"/>      
</svg>