<svg width="200" height="50" viewBox="0 0 210 50" xmlns="http://www.w3.org/2000/svg">
    <defs>
        <linearGradient x1="0%" y1="0%" x2="100%" y2="0%" id="a">
            <stop stop-color="#3023AE" offset="0%"/>
            <stop stop-color="#C86DD7" offset="100%"/>
        </linearGradient>
    </defs>
    <path stroke="url(#a)"
          stroke-width="3"
          stroke-linejoin="round"
          stroke-linecap="round"
          d="M5 40 C 6.34 39.33, 8.61 38.07, 10 37.52 S 13.53 36.34, 15 36.02 S 18.6 34.81, 20 35.34 S 23.63 39.16, 25 39.77 S 28.5 39.81, 30 39.83 S 33.5 39.97, 35 39.88 S 38.56 39.67, 40 39.26 S 43.54 37.35, 45 37.01 S 48.51 36.79, 50 36.91 S 53.51 38.03, 55 37.84 S 58.5 35.7, 60 35.65 S 63.69 38.23, 65 37.5 S 68.51 30.24, 70 30.06 S 73.74 35.46, 75 36.27 S 78.5 36.42, 80 36.47 S 83.5 36.56, 85 36.59 S 88.5 36.67, 90 36.68 S 94.31 37.98, 95 36.65 S 99.47 18.82, 100 17.42 S 104.19 8.74, 105 10 S 109.38 31.58, 110 32.95 S 113.5 32.09, 115 32.12 S 118.52 32.91, 120 33.16 S 123.51 33.66, 125 33.82 S 128.5 34.19, 130 34.2 S 133.55 34.28, 135 33.91 S 138.5 31.64, 140 31.62 S 143.55 33.41, 145 33.79 S 148.5 34.29, 150 34.22 S 153.53 33.64, 155 33.33 S 158.55 32.52, 160 32.12 S 163.52 30.8, 165 30.56 S 168.51 30.31, 170 30.52 S 173.51 31.78, 175 31.97 S 178.5 31.83, 180 31.8 S 183.5 31.74, 185 31.8 S 188.5 32.09, 190 32.18 S 193.55 32.81, 195 32.42 S 198.78 30.39, 200 29.52 S 203.85 26.28, 205 25.31"
          fill="none"/>
    <circle r="4" cx="5" cy="40" fill="#3023AE"/>
    <circle r="4" cx="205" cy="25.310000000000002" fill="#C86DD7"/>      
</svg>