<svg width="200" height="50" viewBox="0 0 210 50" xmlns="http://www.w3.org/2000/svg">
    <defs>
        <linearGradient x1="0%" y1="0%" x2="100%" y2="0%" id="a">
            <stop stop-color="#3023AE" offset="0%"/>
            <stop stop-color="#C86DD7" offset="100%"/>
        </linearGradient>
    </defs>
    <path stroke="url(#a)"
          stroke-width="3"
          stroke-linejoin="round"
          stroke-linecap="round"
          d="M5 40 C 6.5 40, 8.5 39.99, 10 39.99 S 13.5 40, 15 40 S 18.51 40.15, 20 40 S 23.5 39.1, 25 39 S 28.5 39.32, 30 39.31 S 33.5 38.99, 35 38.96 S 38.51 39, 40 39.14 S 43.5 39.8, 45 39.9 S 48.53 40.13, 50 39.84 S 53.54 38.29, 55 37.93 S 58.51 37.2, 60 37.38 S 63.53 38.82, 65 39.12 S 69.51 40.87, 70 39.45 S 73.58 10.49, 75 10 S 79.48 34.57, 80 35.98 S 83.51 36.62, 85 36.79 S 88.51 36.99, 90 37.13 S 93.5 37.67, 95 37.74 S 98.5 37.64, 100 37.58 S 103.5 37.3, 105 37.32 S 108.5 37.64, 110 37.7 S 113.5 37.69, 115 37.69 S 118.5 37.77, 120 37.72 S 123.5 37.46, 125 37.37 S 128.5 37.06, 130 37.12 S 133.5 37.7, 135 37.8 S 138.5 37.75, 140 37.76 S 143.5 37.91, 145 37.86 S 148.5 37.48, 150 37.44 S 153.5 37.55, 155 37.59 S 158.5 37.67, 160 37.7 S 163.5 37.74, 165 37.77 S 168.5 37.83, 170 37.89 S 173.5 38.18, 175 38.17 S 178.5 37.83, 180 37.85 S 183.5 38.25, 185 38.28 S 188.5 38.18, 190 38.08 S 193.5 37.6, 195 37.59 S 198.5 37.91, 200 37.99 S 203.5 38.07, 205 38.1"
          fill="none"/>
    <circle r="4" cx="5" cy="40" fill="#3023AE"/>
    <circle r="4" cx="205" cy="38.1" fill="#C86DD7"/>      
</svg>