<svg width="200" height="50" viewBox="0 0 210 50" xmlns="http://www.w3.org/2000/svg">
    <defs>
        <linearGradient x1="0%" y1="0%" x2="100%" y2="0%" id="a">
            <stop stop-color="#3023AE" offset="0%"/>
            <stop stop-color="#C86DD7" offset="100%"/>
        </linearGradient>
    </defs>
    <path stroke="url(#a)"
          stroke-width="3"
          stroke-linejoin="round"
          stroke-linecap="round"
          d="M5 40 C 5.67 38.66, 8.66 30.67, 10 30 S 14.17 36.25, 15 35 S 18.5 15, 20 15 S 24.33 33.66, 25 35 S 28.5 35, 30 35 S 33.5 35, 35 35 S 38.5 35, 40 35 S 43.5 35, 45 35 S 48.5 35, 50 35 S 54.33 36.34, 55 35 S 58.66 15.67, 60 15 S 64.33 28.66, 65 30 S 68.66 34.33, 70 35 S 73.5 35, 75 35 S 78.5 35, 80 35 S 83.66 35.67, 85 35 S 88.5 30, 90 30 S 93.94 36.06, 95 35 S 98.5 20, 100 20 S 104.17 33.75, 105 35 S 108.66 35.67, 110 35 S 114.17 31.25, 115 30 S 118.66 19.33, 120 20 S 123.94 33.94, 125 35 S 128.5 30, 130 30 S 133.66 34.33, 135 35 S 138.66 35.67, 140 35 S 143.5 30, 145 30 S 148.66 34.33, 150 35 S 154.17 36.25, 155 35 S 158.94 21.06, 160 20 S 163.5 25, 165 25 S 168.5 20, 170 20 S 173.66 24.33, 175 25 S 178.94 26.06, 180 25 S 183.94 16.06, 185 15 S 188.5 15, 190 15 S 194.17 13.75, 195 15 S 198.66 30.67, 200 30 S 204.64 11.46, 205 10"
          fill="none"/>
    <circle r="4" cx="5" cy="40" fill="#3023AE"/>
    <circle r="4" cx="205" cy="10" fill="#C86DD7"/>      
</svg>