<svg width="200" height="50" viewBox="0 0 210 50" xmlns="http://www.w3.org/2000/svg">
    <defs>
        <linearGradient x1="0%" y1="0%" x2="100%" y2="0%" id="a">
            <stop stop-color="#3023AE" offset="0%"/>
            <stop stop-color="#C86DD7" offset="100%"/>
        </linearGradient>
    </defs>
    <path stroke="url(#a)"
          stroke-width="3"
          stroke-linejoin="round"
          stroke-linecap="round"
          d="M5 40 C 6.5 39.99, 8.75 40.81, 10 39.98 S 13.66 34.08, 15 33.41 S 18.51 34.83, 20 34.97 S 23.53 34.02, 25 34.34 S 28.55 36.78, 30 37.15 S 33.58 37.36, 35 36.86 S 38.75 34.48, 40 33.65 S 43.86 31.13, 45 30.16 S 48.53 25.44, 50 25.12 S 53.5 27.85, 55 27.97 S 58.66 26.6, 60 25.92 S 63.65 23.58, 65 22.92 S 68.51 20.84, 70 21.02 S 73.53 23.8, 75 24.1 S 78.52 23.27, 80 23.05 S 83.52 22.35, 85 22.61 S 88.51 24.98, 90 24.83 S 93.69 22.34, 95 21.6 S 98.5 19.26, 100 19.18 S 103.56 20.68, 105 21.09 S 108.61 22.57, 110 22 S 113.56 17.45, 115 17.02 S 118.51 19.18, 120 19.02 S 123.51 16.11, 125 15.97 S 128.53 17.78, 130 18.06 S 133.5 17.95, 135 17.86 S 138.5 17.34, 140 17.44 S 143.5 18.55, 145 18.55 S 148.68 18.17, 150 17.46 S 153.65 13.83, 155 13.18 S 158.51 12.42, 160 12.63 S 163.54 14.26, 165 14.59 S 168.6 15.45, 170 14.9 S 173.51 10.84, 175 10.65 S 178.51 13.46, 180 13.63 S 183.58 12.25, 185 11.76 S 188.5 10.06, 190 10.16 S 193.51 12.3, 195 12.45 S 198.54 11.52, 200 11.16 S 203.54 10.34, 205 10"
          fill="none"/>
    <circle r="4" cx="5" cy="40" fill="#3023AE"/>
    <circle r="4" cx="205" cy="10" fill="#C86DD7"/>      
</svg>