<svg width="200" height="50" viewBox="0 0 210 50" xmlns="http://www.w3.org/2000/svg">
    <defs>
        <linearGradient x1="0%" y1="0%" x2="100%" y2="0%" id="a">
            <stop stop-color="#3023AE" offset="0%"/>
            <stop stop-color="#C86DD7" offset="100%"/>
        </linearGradient>
    </defs>
    <path stroke="url(#a)"
          stroke-width="3"
          stroke-linejoin="round"
          stroke-linecap="round"
          d="M5 40 C 6.5 39.99, 8.72 40.76, 10 39.98 S 13.64 34.54, 15 33.91 S 18.51 35.19, 20 35.32 S 23.53 34.46, 25 34.76 S 28.5 37.43, 30 37.37 S 33.55 34.79, 35 34.39 S 38.99 35.73, 40 34.62 S 43.68 24.11, 45 23.4 S 48.53 28.93, 50 29.23 S 53.58 25.94, 55 25.45 S 58.64 26.42, 60 25.78 S 63.52 20.97, 65 20.75 S 68.54 23.93, 70 24.29 S 73.51 23.43, 75 23.23 S 78.52 22.72, 80 22.96 S 83.51 25.07, 85 24.87 S 88.68 22.33, 90 21.61 S 93.5 19.51, 95 19.42 S 98.57 20.59, 100 21.04 S 103.64 23.16, 105 22.53 S 108.64 17.04, 110 16.4 S 113.51 17.65, 115 17.81 S 118.51 17.31, 120 17.45 S 123.5 18.72, 125 18.78 S 128.5 17.84, 130 17.83 S 133.5 18.65, 135 18.7 S 138.62 18.75, 140 18.16 S 143.67 15.09, 145 14.39 S 148.51 12.79, 150 12.92 S 153.53 15, 155 15.28 S 158.61 15.39, 160 14.82 S 163.51 11.02, 165 11.18 S 168.51 16.1, 170 15.92 S 173.62 10.6, 175 10 S 178.56 11.19, 180 11.59 S 183.52 12.58, 185 12.8 S 188.53 13.32, 190 13.04 S 193.5 10.82, 195 10.87 S 198.51 13.22, 200 13.37 S 203.56 12.32, 205 11.9"
          fill="none"/>
    <circle r="4" cx="5" cy="40" fill="#3023AE"/>
    <circle r="4" cx="205" cy="11.899999999999999" fill="#C86DD7"/>      
</svg>