<svg width="200" height="50" viewBox="0 0 210 50" xmlns="http://www.w3.org/2000/svg">
    <defs>
        <linearGradient x1="0%" y1="0%" x2="100%" y2="0%" id="a">
            <stop stop-color="#3023AE" offset="0%"/>
            <stop stop-color="#C86DD7" offset="100%"/>
        </linearGradient>
    </defs>
    <path stroke="url(#a)"
          stroke-width="3"
          stroke-linejoin="round"
          stroke-linecap="round"
          d="M5 40 C 6.5 39.99, 8.77 40.84, 10 39.98 S 13.5 33.04, 15 32.99 S 18.53 39.33, 20 39.62 S 23.7 35.71, 25 34.96 S 28.53 33.6, 30 33.89 S 33.5 37, 35 36.92 S 38.54 33.72, 40 33.37 S 43.98 35.61, 45 34.51 S 48.65 23.29, 50 22.64 S 53.76 28.84, 55 29.68 S 58.63 29.99, 60 29.37 S 63.76 26, 65 25.15 S 68.61 23.08, 70 22.53 S 73.52 20.95, 75 21.18 S 78.53 23.83, 80 24.11 S 83.51 23.24, 85 23.07 S 88.52 22.75, 90 23 S 93.5 24.79, 95 24.73 S 98.59 23.09, 100 22.57 S 103.56 21.41, 105 21.01 S 108.5 19.78, 110 19.78 S 113.57 20.54, 115 21.01 S 118.62 23.64, 120 23.05 S 123.6 17.25, 125 16.72 S 128.51 19.4, 130 19.26 S 133.51 15.94, 135 15.8 S 138.53 18.06, 140 18.33 S 143.5 17.73, 145 17.65 S 148.51 17.61, 150 17.77 S 153.51 18.61, 155 18.74 S 158.63 19.24, 160 18.62 S 163.67 14.88, 165 14.19 S 168.5 13.57, 170 13.48 S 173.52 13.37, 175 13.62 S 178.51 15.01, 180 15.14 S 183.65 15.14, 185 14.48 S 188.5 10.27, 190 10.26 S 193.5 14.35, 195 14.4 S 198.63 11.22, 200 10.62 S 203.51 10.18, 205 10"
          fill="none"/>
    <circle r="4" cx="5" cy="40" fill="#3023AE"/>
    <circle r="4" cx="205" cy="10" fill="#C86DD7"/>      
</svg>