<svg width="200" height="50" viewBox="0 0 210 50" xmlns="http://www.w3.org/2000/svg">
    <defs>
        <linearGradient x1="0%" y1="0%" x2="100%" y2="0%" id="a">
            <stop stop-color="#3023AE" offset="0%"/>
            <stop stop-color="#C86DD7" offset="100%"/>
        </linearGradient>
    </defs>
    <path stroke="url(#a)"
          stroke-width="3"
          stroke-linejoin="round"
          stroke-linecap="round"
          d="M5 40 C 5.4 38.55, 9.42 23.38, 10 22 S 14.17 14.75, 15 16 S 18.71 37.77, 20 37 S 23.56 10.43, 25 10 S 29.48 32.59, 30 34 S 33.89 38, 35 37 S 38.5 25, 40 25 S 43.56 36.57, 45 37 S 48.5 28, 50 28 S 53.89 36, 55 37 S 58.5 37, 60 37 S 63.5 37, 65 37 S 68.5 37, 70 37 S 73.5 37, 75 37 S 78.5 37, 80 37 S 83.5 37, 85 37 S 88.5 37, 90 37 S 93.5 37, 95 37 S 98.5 37, 100 37 S 103.5 37, 105 37 S 108.56 37.43, 110 37 S 113.56 34.43, 115 34 S 118.56 33.57, 120 34 S 123.56 36.57, 125 37 S 128.5 37, 130 37 S 133.5 37, 135 37 S 138.5 37, 140 37 S 143.5 37, 145 37 S 149.04 38.15, 150 37 S 153.71 25.77, 155 25 S 158.71 30.23, 160 31 S 163.71 30.23, 165 31 S 168.56 36.57, 170 37 S 173.5 34, 175 34 S 178.5 37, 180 37 S 183.56 34.43, 185 34 S 188.5 34, 190 34 S 193.5 34, 195 34"
          fill="none"/>
    <circle r="4" cx="5" cy="40" fill="#3023AE"/>
    <circle r="4" cx="195" cy="34" fill="#C86DD7"/>      
</svg>