<svg width="200" height="50" viewBox="0 0 210 50" xmlns="http://www.w3.org/2000/svg">
    <defs>
        <linearGradient x1="0%" y1="0%" x2="100%" y2="0%" id="a">
            <stop stop-color="#3023AE" offset="0%"/>
            <stop stop-color="#C86DD7" offset="100%"/>
        </linearGradient>
    </defs>
    <path stroke="url(#a)"
          stroke-width="3"
          stroke-linejoin="round"
          stroke-linecap="round"
          d="M5 40 C 6.2 39.1, 8.6 36.78, 10 36.25 S 13.6 36.78, 15 36.25 S 18.8 33.4, 20 32.5 S 23.6 28.22, 25 28.75 S 28.8 35.35, 30 36.25 S 33.5 36.25, 35 36.25 S 38.5 36.25, 40 36.25 S 43.5 36.25, 45 36.25 S 48.5 36.25, 50 36.25 S 53.5 36.25, 55 36.25 S 58.5 36.25, 60 36.25 S 63.8 37.15, 65 36.25 S 68.5 28.75, 70 28.75 S 73.8 35.35, 75 36.25 S 78.5 36.25, 80 36.25 S 83.5 36.25, 85 36.25 S 88.5 36.25, 90 36.25 S 93.5 36.25, 95 36.25 S 98.5 36.25, 100 36.25 S 103.5 36.25, 105 36.25 S 108.5 36.25, 110 36.25 S 113.5 36.25, 115 36.25 S 118.5 36.25, 120 36.25 S 123.5 36.25, 125 36.25 S 128.5 36.25, 130 36.25 S 133.5 36.25, 135 36.25 S 138.6 36.78, 140 36.25 S 143.6 33.03, 145 32.5 S 148.5 32.5, 150 32.5 S 153.6 31.97, 155 32.5 S 159.39 37.62, 160 36.25 S 163.6 10.53, 165 10 S 169.17 31.25, 170 32.5 S 173.5 25, 175 25 S 178.6 31.97, 180 32.5 S 183.5 28.75, 185 28.75 S 188.6 31.97, 190 32.5 S 193.5 32.5, 195 32.5 S 199 33.62, 200 32.5 S 204.39 22.62, 205 21.25"
          fill="none"/>
    <circle r="4" cx="5" cy="40" fill="#3023AE"/>
    <circle r="4" cx="205" cy="21.25" fill="#C86DD7"/>      
</svg>