<svg width="200" height="50" viewBox="0 0 210 50" xmlns="http://www.w3.org/2000/svg">
    <defs>
        <linearGradient x1="0%" y1="0%" x2="100%" y2="0%" id="a">
            <stop stop-color="#3023AE" offset="0%"/>
            <stop stop-color="#C86DD7" offset="100%"/>
        </linearGradient>
    </defs>
    <path stroke="url(#a)"
          stroke-width="3"
          stroke-linejoin="round"
          stroke-linecap="round"
          d="M5 40 C 5.25 38.52, 8.58 10.47, 10 10 S 14.47 35.27, 15 36.67 S 18.55 36.19, 20 36.57 S 23.55 38.9, 25 39.28 S 28.5 39.2, 30 39.21 S 33.5 39.28, 35 39.35 S 38.5 39.66, 40 39.69 S 43.5 39.55, 45 39.54 S 48.5 39.63, 50 39.64 S 53.5 39.59, 55 39.59 S 58.5 39.63, 60 39.66 S 63.51 39.92, 65 39.79 S 68.51 38.93, 70 38.8 S 73.5 38.79, 75 38.9 S 78.5 39.43, 80 39.54 S 83.5 39.63, 85 39.62 S 88.5 39.52, 90 39.47 S 93.5 39.31, 95 39.3 S 98.5 39.38, 100 39.42 S 103.5 39.51, 105 39.55 S 108.5 39.68, 110 39.67 S 113.5 39.52, 115 39.5 S 118.5 39.51, 120 39.54 S 123.5 39.66, 125 39.67 S 128.5 39.62, 130 39.62 S 133.5 39.7, 135 39.69 S 138.5 39.54, 140 39.52 S 143.5 39.5, 145 39.54 S 148.5 39.77, 150 39.78 S 153.5 39.63, 155 39.61 S 158.5 39.62, 160 39.62 S 163.5 39.59, 165 39.59 S 168.5 39.63, 170 39.64 S 173.5 39.65, 175 39.66 S 178.5 39.76, 180 39.73 S 183.5 39.48, 185 39.47 S 188.5 39.61, 190 39.64 S 193.5 39.64, 195 39.64 S 198.5 39.66, 200 39.67 S 203.5 39.72, 205 39.74"
          fill="none"/>
    <circle r="4" cx="5" cy="40" fill="#3023AE"/>
    <circle r="4" cx="205" cy="39.74" fill="#C86DD7"/>      
</svg>