<svg width="200" height="50" viewBox="0 0 210 50" xmlns="http://www.w3.org/2000/svg">
    <defs>
        <linearGradient x1="0%" y1="0%" x2="100%" y2="0%" id="a">
            <stop stop-color="#3023AE" offset="0%"/>
            <stop stop-color="#C86DD7" offset="100%"/>
        </linearGradient>
    </defs>
    <path stroke="url(#a)"
          stroke-width="3"
          stroke-linejoin="round"
          stroke-linecap="round"
          d="M5 40 C 6.23 39.13, 8.52 36.73, 10 36.47 S 13.52 37.98, 15 38.24 S 18.5 38.24, 20 38.24 S 23.52 38.5, 25 38.24 S 28.59 36.97, 30 36.47 S 33.52 34.45, 35 34.71 S 38.5 38.24, 40 38.24 S 43.52 34.97, 45 34.71 S 48.59 35.97, 50 36.47 S 53.52 37.98, 55 38.24 S 58.5 38.24, 60 38.24 S 63.52 38.5, 65 38.24 S 68.52 36.73, 70 36.47 S 73.77 37.34, 75 36.47 S 78.59 29.91, 80 29.41 S 83.5 32.94, 85 32.94 S 88.77 30.28, 90 29.41 S 93.52 25.62, 95 25.88 S 99.13 32.4, 100 31.18 S 104.26 13.07, 105 11.76 S 108.97 12.44, 110 13.53 S 113.77 21.48, 115 22.35 S 118.59 20.09, 120 20.59 S 123.77 25.01, 125 25.88 S 128.77 28.52, 130 27.65 S 133.67 19.52, 135 18.82 S 138.59 22.85, 140 22.35 S 143.59 14.79, 145 15.29 S 149.06 24.71, 150 25.88 S 153.67 28.35, 155 27.65 S 158.52 20.85, 160 20.59 S 163.52 25.62, 165 25.88 S 168.5 22.35, 170 22.35 S 173.5 25.88, 175 25.88 S 178.5 22.35, 180 22.35 S 184.06 27.05, 185 25.88 S 188.67 9.3, 190 10 S 193.88 30.19, 195 31.18 S 198.67 19.52, 200 18.82 S 204.13 24.66, 205 25.88"
          fill="none"/>
    <circle r="4" cx="5" cy="40" fill="#3023AE"/>
    <circle r="4" cx="205" cy="25.880000000000003" fill="#C86DD7"/>      
</svg>