<svg width="200" height="50" viewBox="0 0 210 50" xmlns="http://www.w3.org/2000/svg">
    <defs>
        <linearGradient x1="0%" y1="0%" x2="100%" y2="0%" id="a">
            <stop stop-color="#3023AE" offset="0%"/>
            <stop stop-color="#C86DD7" offset="100%"/>
        </linearGradient>
    </defs>
    <path stroke="url(#a)"
          stroke-width="3"
          stroke-linejoin="round"
          stroke-linecap="round"
          d="M5 40 C 6.48 39.77, 8.5 39.28, 10 39.22 S 13.5 39.55, 15 39.61 S 18.5 39.61, 20 39.61 S 23.5 39.61, 25 39.61 S 28.5 39.61, 30 39.61 S 33.5 39.61, 35 39.61 S 38.5 39.61, 40 39.61 S 43.5 39.61, 45 39.61 S 48.5 39.61, 50 39.61 S 53.5 39.61, 55 39.61 S 59.27 40.92, 60 39.61 S 64.52 23.11, 65 21.69 S 68.58 10.5, 70 10 S 74.39 16.81, 75 18.18 S 79.22 31.32, 80 32.6 S 83.66 33.87, 85 34.55 S 88.52 37.43, 90 37.66 S 94.06 37.27, 95 36.1 S 98.55 25.58, 100 25.19 S 104.01 32.26, 105 33.38 S 108.57 36.04, 110 36.49 S 113.53 36.2, 115 36.49 S 118.54 38.1, 120 38.44 S 123.52 39.06, 125 38.83 S 128.5 36.76, 130 36.88 S 133.52 39.38, 135 39.61 S 138.5 38.56, 140 38.44 S 143.5 38.71, 145 38.83 S 148.5 39.28, 150 39.22 S 153.5 38.38, 155 38.44 S 158.51 39.44, 160 39.61 S 163.5 39.61, 165 39.61 S 168.5 39.61, 170 39.61 S 173.5 39.61, 175 39.61 S 178.5 39.61, 180 39.61 S 183.5 39.61, 185 39.61 S 188.5 39.61, 190 39.61 S 193.5 39.61, 195 39.61 S 198.51 39.78, 200 39.61 S 203.54 38.78, 205 38.44"
          fill="none"/>
    <circle r="4" cx="5" cy="40" fill="#3023AE"/>
    <circle r="4" cx="205" cy="38.44" fill="#C86DD7"/>      
</svg>