<svg width="200" height="50" viewBox="0 0 210 50" xmlns="http://www.w3.org/2000/svg">
    <defs>
        <linearGradient x1="0%" y1="0%" x2="100%" y2="0%" id="a">
            <stop stop-color="#3023AE" offset="0%"/>
            <stop stop-color="#C86DD7" offset="100%"/>
        </linearGradient>
    </defs>
    <path stroke="url(#a)"
          stroke-width="3"
          stroke-linejoin="round"
          stroke-linecap="round"
          d="M5 40 C 6.49 39.85, 8.5 39.54, 10 39.5 S 13.5 39.71, 15 39.75 S 18.5 39.75, 20 39.75 S 23.5 39.75, 25 39.75 S 28.5 39.75, 30 39.75 S 33.5 39.75, 35 39.75 S 38.5 39.75, 40 39.75 S 44.52 41.17, 45 39.75 S 49.16 11.24, 50 10 S 54.42 23.49, 55 24.87 S 59.01 32.57, 60 33.7 S 63.57 35.75, 65 36.22 S 68.86 37.95, 70 36.97 S 73.5 27.72, 75 27.65 S 78.92 35.43, 80 36.47 S 83.53 36.93, 85 37.23 S 88.5 38.38, 90 38.49 S 93.51 37.79, 95 37.98 S 98.5 39.71, 100 39.75 S 103.5 38.32, 105 38.24 S 108.51 39.09, 110 39.24 S 113.5 39.16, 115 39.24 S 118.5 39.67, 120 39.75 S 123.5 39.75, 125 39.75 S 128.5 39.75, 130 39.75 S 133.5 39.75, 135 39.75 S 138.5 39.75, 140 39.75 S 143.66 40.43, 145 39.75 S 148.62 35.3, 150 34.71 S 153.57 34.99, 155 35.46 S 158.61 37.42, 160 37.98 S 163.5 39.39, 165 39.5 S 168.51 38.93, 170 38.74 S 173.76 39.08, 175 38.24 S 178.5 31.93, 180 31.93 S 183.77 37.37, 185 38.24 S 188.51 38.84, 190 38.99 S 193.51 39.39, 195 39.24 S 198.5 37.94, 200 37.98 S 203.56 39.06, 205 39.5"
          fill="none"/>
    <circle r="4" cx="5" cy="40" fill="#3023AE"/>
    <circle r="4" cx="205" cy="39.5" fill="#C86DD7"/>      
</svg>