<svg width="200" height="50" viewBox="0 0 210 50" xmlns="http://www.w3.org/2000/svg">
    <defs>
        <linearGradient x1="0%" y1="0%" x2="100%" y2="0%" id="a">
            <stop stop-color="#3023AE" offset="0%"/>
            <stop stop-color="#C86DD7" offset="100%"/>
        </linearGradient>
    </defs>
    <path stroke="url(#a)"
          stroke-width="3"
          stroke-linejoin="round"
          stroke-linecap="round"
          d="M5 40 C 6.4 39.46, 8.51 38.2, 10 38.06 S 13.51 38.89, 15 39.03 S 18.5 39.03, 20 39.03 S 23.5 39.03, 25 39.03 S 28.53 39.31, 30 39.03 S 34.36 38.46, 35 37.1 S 38.87 18.73, 40 17.74 S 43.76 29.23, 45 28.39 S 48.81 11.89, 50 10.97 S 54.46 19.25, 55 20.65 S 59.07 35.93, 60 37.1 S 64.48 34.64, 65 33.23 S 68.53 9.72, 70 10 S 74.5 33.75, 75 35.16 S 78.51 38.2, 80 38.06 S 83.51 34.33, 85 34.19 S 88.6 36.56, 90 37.1 S 93.5 38.06, 95 38.06 S 98.51 36.96, 100 37.1 S 103.53 38.75, 105 39.03 S 108.5 39.03, 110 39.03 S 113.5 39.03, 115 39.03 S 118.5 39.03, 120 39.03 S 123.5 39.03, 125 39.03 S 128.5 39.03, 130 39.03 S 133.5 39.03, 135 39.03 S 138.5 39.03, 140 39.03 S 143.5 39.03, 145 39.03 S 148.5 39.03, 150 39.03 S 153.5 39.03, 155 39.03 S 158.5 39.03, 160 39.03 S 163.5 39.03, 165 39.03"
          fill="none"/>
    <circle r="4" cx="5" cy="40" fill="#3023AE"/>
    <circle r="4" cx="165" cy="39.03" fill="#C86DD7"/>      
</svg>