<svg width="200" height="50" viewBox="0 0 210 50" xmlns="http://www.w3.org/2000/svg">
    <defs>
        <linearGradient x1="0%" y1="0%" x2="100%" y2="0%" id="a">
            <stop stop-color="#3023AE" offset="0%"/>
            <stop stop-color="#C86DD7" offset="100%"/>
        </linearGradient>
    </defs>
    <path stroke="url(#a)"
          stroke-width="3"
          stroke-linejoin="round"
          stroke-linecap="round"
          d="M5 40 C 6.25 39.17, 8.94 37.73, 10 36.67 S 13.51 29.8, 15 30 S 18.58 38.47, 20 38 S 23.55 27.06, 25 26.67 S 28.55 34.94, 30 35.33 S 33.5 29.43, 35 29.33 S 38.75 33.84, 40 34.67 S 43.58 35.53, 45 36 S 49.1 39.2, 50 38 S 53.53 22.96, 55 22.67 S 59.01 34.88, 60 36 S 63.5 33.9, 65 34 S 68.5 36.67, 70 36.67 S 73.53 34.29, 75 34 S 78.51 34.47, 80 34.67 S 84.1 36.53, 85 35.33 S 88.64 21.96, 90 21.33 S 94.18 29.41, 95 30.67 S 98.61 36.11, 100 36.67 S 103.75 35.5, 105 34.67 S 108.55 30.39, 110 30 S 113.79 31.11, 115 32 S 118.51 37.53, 120 37.33 S 124.42 32.05, 125 30.67 S 129.23 14.62, 130 13.33 S 134.1 12.8, 135 14 S 138.61 27.23, 140 26.67 S 143.55 9.61, 145 10 S 149.27 28.02, 150 29.33 S 153.61 28.56, 155 28 S 158.55 24.94, 160 25.33 S 163.64 30.04, 165 30.67 S 168.75 29.17, 170 30 S 173.51 37.53, 175 37.33 S 178.51 28.87, 180 28.67 S 183.55 36.39, 185 36 S 188.9 27.02, 190 26 S 193.53 26.38, 195 26.67 S 198.79 27.11, 200 28 S 204.04 32.85, 205 34"
          fill="none"/>
    <circle r="4" cx="5" cy="40" fill="#3023AE"/>
    <circle r="4" cx="205" cy="34" fill="#C86DD7"/>      
</svg>