<svg width="200" height="50" viewBox="0 0 210 50" xmlns="http://www.w3.org/2000/svg">
    <defs>
        <linearGradient x1="0%" y1="0%" x2="100%" y2="0%" id="a">
            <stop stop-color="#3023AE" offset="0%"/>
            <stop stop-color="#C86DD7" offset="100%"/>
        </linearGradient>
    </defs>
    <path stroke="url(#a)"
          stroke-width="3"
          stroke-linejoin="round"
          stroke-linecap="round"
          d="M5 40 C 6.38 39.41, 8.53 38.17, 10 37.86 S 13.5 37.86, 15 37.86 S 18.5 37.86, 20 37.86 S 23.5 37.86, 25 37.86 S 28.5 37.86, 30 37.86 S 33.5 37.86, 35 37.86 S 38.5 37.86, 40 37.86 S 43.5 37.86, 45 37.86 S 48.5 37.86, 50 37.86 S 53.5 37.86, 55 37.86 S 58.5 37.86, 60 37.86 S 63.5 37.86, 65 37.86 S 68.5 37.86, 70 37.86 S 73.5 37.86, 75 37.86 S 78.5 37.86, 80 37.86 S 83.5 37.86, 85 37.86 S 88.5 37.86, 90 37.86 S 93.5 37.86, 95 37.86 S 99.46 39.26, 100 37.86 S 104.49 13.55, 105 12.14 S 108.5 10, 110 10 S 114.41 10.76, 115 12.14 S 119.46 32.17, 120 33.57 S 123.62 37.27, 125 37.86 S 128.5 37.86, 130 37.86 S 133.5 37.86, 135 37.86"
          fill="none"/>
    <circle r="4" cx="5" cy="40" fill="#3023AE"/>
    <circle r="4" cx="135" cy="37.86" fill="#C86DD7"/>      
</svg>