<svg width="200" height="50" viewBox="0 0 210 50" xmlns="http://www.w3.org/2000/svg">
    <defs>
        <linearGradient x1="0%" y1="0%" x2="100%" y2="0%" id="a">
            <stop stop-color="#3023AE" offset="0%"/>
            <stop stop-color="#C86DD7" offset="100%"/>
        </linearGradient>
    </defs>
    <path stroke="url(#a)"
          stroke-width="3"
          stroke-linejoin="round"
          stroke-linecap="round"
          d="M5 40 C 5.37 38.55, 8.78 21.45, 10 20.58 S 14.18 31.56, 15 32.82 S 18.54 36.31, 20 35.95 S 23.5 30.37, 25 30.35 S 28.7 36.57, 30 35.82 S 34.33 25.91, 35 24.57 S 39.11 14.45, 40 15.66 S 44.39 36.71, 45 38.08 S 48.5 37.95, 50 38.02 S 53.5 38.55, 55 38.55 S 58.7 38.77, 60 38.02 S 63.5 32.89, 65 32.82 S 69.33 38.87, 70 37.53 S 73.5 12.86, 75 12.78 S 79.43 35.58, 80 36.97 S 83.51 37.04, 85 37.22 S 88.5 38.11, 90 38.21 S 94.5 39.31, 95 37.9 S 98.62 10.59, 100 10 S 104.45 32.26, 105 33.66 S 108.56 35.13, 110 35.55 S 113.96 37.62, 115 36.54 S 118.5 25.04, 120 25.12 S 124 35.95, 125 37.06 S 128.5 36.23, 130 36.23 S 133.51 36.94, 135 37.09 S 138.5 37.18, 140 37.25 S 143.5 37.52, 145 37.59 S 148.5 37.74, 150 37.71 S 153.51 37.51, 155 37.37 S 158.5 36.8, 160 36.78 S 164.38 38.59, 165 37.22 S 168.5 14.67, 170 14.64 S 174.39 35.63, 175 37 S 178.51 37.06, 180 37.19 S 183.5 37.78, 185 37.84 S 188.5 37.7, 190 37.62 S 193.5 37.36, 195 37.28 S 198.5 37.07, 200 37.09 S 203.5 37.33, 205 37.43"
          fill="none"/>
    <circle r="4" cx="5" cy="40" fill="#3023AE"/>
    <circle r="4" cx="205" cy="37.43" fill="#C86DD7"/>      
</svg>