<svg width="200" height="50" viewBox="0 0 210 50" xmlns="http://www.w3.org/2000/svg">
    <defs>
        <linearGradient x1="0%" y1="0%" x2="100%" y2="0%" id="a">
            <stop stop-color="#3023AE" offset="0%"/>
            <stop stop-color="#C86DD7" offset="100%"/>
        </linearGradient>
    </defs>
    <path stroke="url(#a)"
          stroke-width="3"
          stroke-linejoin="round"
          stroke-linecap="round"
          d="M5 40 C 6.5 39.99, 8.5 39.97, 10 39.96 S 13.5 39.91, 15 39.91 S 18.5 39.97, 20 39.98 S 24.53 41.4, 25 39.98 S 28.6 10.55, 30 10 S 34.46 34.68, 35 36.08 S 38.5 36.01, 40 36.05 S 43.55 35.98, 45 36.38 S 48.52 38.53, 50 38.79 S 53.52 38.38, 55 38.15 S 58.5 37.22, 60 37.26 S 63.51 38.29, 65 38.45 S 68.61 38.87, 70 38.31 S 73.5 34.49, 75 34.46 S 78.59 37.59, 80 38.11 S 83.5 38.13, 85 38.18 S 88.5 38.36, 90 38.45 S 93.5 38.7, 95 38.77 S 98.5 38.86, 100 38.91 S 103.5 39.1, 105 39.09 S 108.5 38.83, 110 38.84 S 113.5 39.16, 115 39.14 S 118.5 38.74, 120 38.7 S 123.5 38.9, 125 38.88 S 128.5 38.57, 130 38.57 S 133.5 38.77, 135 38.86 S 138.5 39.16, 140 39.2 S 143.5 39.1, 145 39.11 S 148.5 39.29, 150 39.25 S 153.5 38.84, 155 38.82 S 158.5 39.08, 160 39.13 S 163.5 39.23, 165 39.18 S 168.5 38.82, 170 38.82 S 173.5 39.1, 175 39.18 S 178.5 39.33, 180 39.36 S 183.51 39.51, 185 39.38 S 188.5 38.54, 190 38.5 S 193.51 39, 195 39.14 S 198.5 39.34, 200 39.41 S 203.5 39.57, 205 39.64"
          fill="none"/>
    <circle r="4" cx="5" cy="40" fill="#3023AE"/>
    <circle r="4" cx="205" cy="39.64" fill="#C86DD7"/>      
</svg>