<svg width="200" height="50" viewBox="0 0 210 50" xmlns="http://www.w3.org/2000/svg">
    <defs>
        <linearGradient x1="0%" y1="0%" x2="100%" y2="0%" id="a">
            <stop stop-color="#3023AE" offset="0%"/>
            <stop stop-color="#C86DD7" offset="100%"/>
        </linearGradient>
    </defs>
    <path stroke="url(#a)"
          stroke-width="3"
          stroke-linejoin="round"
          stroke-linecap="round"
          d="M5 40 C 5.36 38.54, 8.74 20.79, 10 19.98 S 14.18 32.32, 15 33.57 S 18.5 35.12, 20 35.23 S 23.83 35.24, 25 34.3 S 28.53 27.49, 30 27.21 S 33.7 31.64, 35 32.39 S 38.5 32.91, 40 32.97 S 43.51 32.96, 45 32.81 S 48.53 32.29, 50 31.99 S 54.38 32.13, 55 30.76 S 58.61 10.56, 60 10 S 63.92 25.72, 65 26.76 S 69.15 20.94, 70 19.71 S 73.55 11.9, 75 12.3 S 78.94 21.4, 80 22.46 S 83.53 22.62, 85 22.33 S 88.51 20.36, 90 20.5 S 93.78 22.4, 95 23.27 S 98.5 27.62, 100 27.64 S 103.53 23.7, 105 23.41 S 108.5 25.55, 110 25.66 S 113.79 25.05, 115 24.16 S 118.64 18.91, 120 18.28 S 123.61 18.99, 125 19.55 S 128.6 21.74, 130 22.29 S 133.58 22.97, 135 23.47 S 138.57 25.35, 140 25.79 S 143.52 26.83, 145 26.57 S 148.53 24.31, 150 24.02 S 153.5 24.61, 155 24.62 S 158.57 23.65, 160 24.1 S 163.5 27.8, 165 27.73 S 168.5 23.69, 170 23.64 S 173.54 27.7, 175 27.37 S 178.56 21.81, 180 21.39 S 183.68 25.21, 185 24.49 S 188.52 15.67, 190 15.94 S 193.9 25.31, 195 26.33 S 198.5 25.28, 200 25.23 S 203.52 25.79, 205 26.02"
          fill="none"/>
    <circle r="4" cx="5" cy="40" fill="#3023AE"/>
    <circle r="4" cx="205" cy="26.02" fill="#C86DD7"/>      
</svg>