<svg width="200" height="50" viewBox="0 0 210 50" xmlns="http://www.w3.org/2000/svg">
    <defs>
        <linearGradient x1="0%" y1="0%" x2="100%" y2="0%" id="a">
            <stop stop-color="#3023AE" offset="0%"/>
            <stop stop-color="#C86DD7" offset="100%"/>
        </linearGradient>
    </defs>
    <path stroke="url(#a)"
          stroke-width="3"
          stroke-linejoin="round"
          stroke-linecap="round"
          d="M5 40 C 5.45 38.57, 9.14 25.52, 10 24.29 S 13.94 24.65, 15 25.71 S 19.08 33.11, 20 34.29 S 23.56 38.16, 25 38.57 S 28.56 37.55, 30 37.14 S 34.48 37.12, 35 35.71 S 38.78 10.87, 40 10 S 44.33 27.23, 45 28.57 S 48.56 30.41, 50 30 S 54.08 26.89, 55 25.71 S 58.56 16.73, 60 17.14 S 63.86 27.59, 65 28.57 S 68.56 25.3, 70 25.71 S 73.86 30.45, 75 31.43 S 78.5 34.29, 80 34.29 S 83.78 32.3, 85 31.43 S 88.7 27.88, 90 27.14 S 93.7 24.97, 95 25.71 S 98.62 32.27, 100 32.86 S 103.52 30.21, 105 30 S 108.62 30.84, 110 31.43 S 113.52 34.08, 115 34.29 S 118.52 33.07, 120 32.86 S 123.7 33.6, 125 32.86 S 128.5 27.14, 130 27.14 S 133.78 31.99, 135 32.86 S 138.62 34.88, 140 34.29 S 143.51 28.36, 145 28.57 S 148.56 35.3, 150 35.71 S 153.52 31.22, 155 31.43 S 158.78 36.27, 160 37.14 S 163.5 38.57, 165 38.57 S 168.94 38.2, 170 37.14 S 173.78 29.44, 175 28.57 S 178.52 29.79, 180 30 S 184.29 31.32, 185 30 S 188.94 12.49, 190 11.43 S 194.14 18.77, 195 20 S 198.78 24.84, 200 25.71 S 203.56 26.73, 205 27.14"
          fill="none"/>
    <circle r="4" cx="5" cy="40" fill="#3023AE"/>
    <circle r="4" cx="205" cy="27.14" fill="#C86DD7"/>      
</svg>