<svg width="200" height="50" viewBox="0 0 210 50" xmlns="http://www.w3.org/2000/svg">
    <defs>
        <linearGradient x1="0%" y1="0%" x2="100%" y2="0%" id="a">
            <stop stop-color="#3023AE" offset="0%"/>
            <stop stop-color="#C86DD7" offset="100%"/>
        </linearGradient>
    </defs>
    <path stroke="url(#a)"
          stroke-width="3"
          stroke-linejoin="round"
          stroke-linecap="round"
          d="M5 40 C 6.5 39.99, 8.51 40.15, 10 39.96 S 13.5 38.76, 15 38.74 S 18.51 39.67, 20 39.82 S 23.59 40.25, 25 39.75 S 28.52 36.47, 30 36.25 S 33.54 37.97, 35 38.3 S 38.58 39.03, 40 38.54 S 43.52 35.11, 45 34.87 S 48.6 36.37, 50 36.91 S 53.52 38.49, 55 38.71 S 58.5 38.5, 60 38.41 S 63.56 38.51, 65 38.1 S 68.54 35.91, 70 35.58 S 73.56 36.24, 75 35.83 S 78.55 33.08, 80 32.71 S 83.58 32.83, 85 33.31 S 88.52 35.87, 90 36.1 S 93.51 35.01, 95 34.83 S 98.5 34.98, 100 34.88 S 103.5 34.12, 105 34.18 S 108.5 35.34, 110 35.3 S 113.5 34.04, 115 33.94 S 118.51 34.49, 120 34.63 S 123.5 34.93, 125 34.87 S 128.5 34.32, 130 34.21 S 133.52 34.38, 135 34.16 S 138.5 32.82, 140 32.71 S 143.51 33.25, 145 33.4 S 148.51 33.56, 150 33.69 S 153.5 34.25, 155 34.28 S 158.52 34.12, 160 33.87 S 163.56 33, 165 32.58 S 168.59 31.42, 170 30.92 S 173.52 29.28, 175 29.05 S 178.51 29.22, 180 29.35 S 183.5 30.04, 185 29.92 S 188.61 29.15, 190 28.58 S 193.51 25.9, 195 25.77 S 199.2 29, 200 27.73 S 204.59 11.44, 205 10"
          fill="none"/>
    <circle r="4" cx="5" cy="40" fill="#3023AE"/>
    <circle r="4" cx="205" cy="10" fill="#C86DD7"/>      
</svg>