<svg width="200" height="50" viewBox="0 0 210 50" xmlns="http://www.w3.org/2000/svg">
    <defs>
        <linearGradient x1="0%" y1="0%" x2="100%" y2="0%" id="a">
            <stop stop-color="#3023AE" offset="0%"/>
            <stop stop-color="#C86DD7" offset="100%"/>
        </linearGradient>
    </defs>
    <path stroke="url(#a)"
          stroke-width="3"
          stroke-linejoin="round"
          stroke-linecap="round"
          d="M5 40 C 5.47 38.58, 8.57 25.3, 10 24.84 S 14.15 35.53, 15 36.77 S 18.54 39.02, 20 39.35 S 23.5 38.98, 25 39.03 S 28.5 39.68, 30 39.68 S 33.59 39.53, 35 39.03 S 38.5 36.18, 40 36.13 S 43.59 38.21, 45 38.71 S 48.51 39.54, 50 39.68 S 53.5 39.68, 55 39.68 S 58.5 39.68, 60 39.68 S 63.5 39.78, 65 39.68 S 68.5 39.03, 70 39.03 S 73.5 39.58, 75 39.68 S 78.5 39.68, 80 39.68 S 83.5 39.68, 85 39.68 S 88.51 39.87, 90 39.68 S 93.5 38.49, 95 38.39 S 98.51 38.84, 100 39.03 S 104.51 41.1, 105 39.68 S 108.57 10.46, 110 10 S 114.46 35.05, 115 36.45 S 118.5 35.76, 120 35.81 S 123.57 36.31, 125 36.77 S 128.55 38.66, 130 39.03 S 133.5 39.4, 135 39.35 S 138.5 38.66, 140 38.71 S 143.5 39.58, 145 39.68 S 148.5 39.35, 150 39.35 S 153.5 39.68, 155 39.68 S 158.5 39.35, 160 39.35 S 163.5 39.63, 165 39.68 S 168.5 39.68, 170 39.68 S 173.56 40.1, 175 39.68 S 178.5 36.87, 180 36.77 S 183.56 38.61, 185 39.03 S 188.5 39.58, 190 39.68 S 193.5 39.68, 195 39.68 S 198.5 39.68, 200 39.68 S 203.5 39.68, 205 39.68"
          fill="none"/>
    <circle r="4" cx="5" cy="40" fill="#3023AE"/>
    <circle r="4" cx="205" cy="39.68" fill="#C86DD7"/>      
</svg>