<svg width="200" height="50" viewBox="0 0 210 50" xmlns="http://www.w3.org/2000/svg">
    <defs>
        <linearGradient x1="0%" y1="0%" x2="100%" y2="0%" id="a">
            <stop stop-color="#3023AE" offset="0%"/>
            <stop stop-color="#C86DD7" offset="100%"/>
        </linearGradient>
    </defs>
    <path stroke="url(#a)"
          stroke-width="3"
          stroke-linejoin="round"
          stroke-linecap="round"
          d="M5 40 C 5.56 38.61, 8.52 27.78, 10 27.56 S 14.03 37.4, 15 38.54 S 19.12 40.49, 20 39.27 S 23.54 24.95, 25 24.63 S 29.12 35.85, 30 37.07 S 33.5 38.43, 35 38.54 S 39.47 39.2, 40 37.8 S 44.49 13.61, 45 12.2 S 49.48 8.59, 50 10 S 54.52 37.85, 55 39.27 S 58.5 39.38, 60 39.27 S 63.5 38.54, 65 38.54 S 68.54 39.59, 70 39.27 S 73.5 36.34, 75 36.34 S 79.39 40.64, 80 39.27 S 83.79 14.55, 85 13.66 S 89.44 30.56, 90 31.95 S 93.79 37.65, 95 38.54 S 99.26 40.57, 100 39.27 S 104.21 22.25, 105 20.98 S 109.23 21.88, 110 23.17 S 113.91 36.77, 115 37.8 S 118.52 32.9, 120 32.68 S 123.75 35.51, 125 36.34 S 128.5 39.27, 130 39.27 S 133.56 36.76, 135 36.34 S 138.56 35.92, 140 36.34 S 143.56 38.85, 145 39.27 S 148.63 39.87, 150 39.27 S 153.66 35.56, 155 34.88 S 158.52 33.93, 160 34.15 S 163.66 35.66, 165 36.34 S 168.54 38.95, 170 39.27 S 173.52 38.76, 175 38.54 S 178.5 37.69, 180 37.8 S 183.52 39.49, 185 39.27 S 188.5 36.34, 190 36.34 S 193.54 38.95, 195 39.27 S 198.5 38.65, 200 38.54 S 203.5 38.54, 205 38.54"
          fill="none"/>
    <circle r="4" cx="5" cy="40" fill="#3023AE"/>
    <circle r="4" cx="205" cy="38.54" fill="#C86DD7"/>      
</svg>