<svg width="200" height="50" viewBox="0 0 210 50" xmlns="http://www.w3.org/2000/svg">
    <defs>
        <linearGradient x1="0%" y1="0%" x2="100%" y2="0%" id="a">
            <stop stop-color="#3023AE" offset="0%"/>
            <stop stop-color="#C86DD7" offset="100%"/>
        </linearGradient>
    </defs>
    <path stroke="url(#a)"
          stroke-width="3"
          stroke-linejoin="round"
          stroke-linecap="round"
          d="M5 40 C 6.44 39.57, 8.71 39.27, 10 38.5 S 13.89 35, 15 34 S 18.63 28.88, 20 29.5 S 23.56 38.07, 25 38.5 S 28.52 32.72, 30 32.5 S 33.63 36.38, 35 37 S 38.5 37, 40 37 S 43.52 36.78, 45 37 S 48.5 38.5, 50 38.5 S 53.52 37.22, 55 37 S 58.5 37, 60 37 S 63.52 36.78, 65 37 S 68.5 38.5, 70 38.5 S 73.5 37, 75 37 S 78.5 38.5, 80 38.5 S 83.52 37.22, 85 37 S 88.52 36.78, 90 37 S 93.56 38.93, 95 38.5 S 98.52 34.22, 100 34 S 103.63 36.38, 105 37 S 108.52 38.28, 110 38.5 S 113.5 38.5, 115 38.5 S 118.5 38.5, 120 38.5 S 123.5 38.5, 125 38.5 S 128.5 38.5, 130 38.5 S 133.97 39.59, 135 38.5 S 139.39 29.37, 140 28 S 144.27 17.31, 145 16 S 148.71 9.23, 150 10 S 153.56 21.57, 155 22 S 158.71 13.77, 160 13 S 163.5 16, 165 16 S 168.56 12.57, 170 13 S 173.56 19.43, 175 19 S 178.63 10.62, 180 10 S 184.17 13.25, 185 14.5 S 189.22 23.72, 190 25 S 193.5 31, 195 31 S 198.97 26.09, 200 25 S 203.89 21.5, 205 20.5"
          fill="none"/>
    <circle r="4" cx="5" cy="40" fill="#3023AE"/>
    <circle r="4" cx="205" cy="20.5" fill="#C86DD7"/>      
</svg>