<svg width="200" height="50" viewBox="0 0 210 50" xmlns="http://www.w3.org/2000/svg">
    <defs>
        <linearGradient x1="0%" y1="0%" x2="100%" y2="0%" id="a">
            <stop stop-color="#3023AE" offset="0%"/>
            <stop stop-color="#C86DD7" offset="100%"/>
        </linearGradient>
    </defs>
    <path stroke="url(#a)"
          stroke-width="3"
          stroke-linejoin="round"
          stroke-linecap="round"
          d="M5 40 C 5.53 38.6, 8.5 26.75, 10 26.67 S 13.97 38.35, 15 39.44 S 18.82 38.14, 20 37.22 S 23.5 31.59, 25 31.67 S 28.63 38.39, 30 37.78 S 34.15 28.45, 35 27.22 S 39.02 24.47, 40 23.33 S 43.55 15.16, 45 15.56 S 49.1 24.91, 50 26.11 S 53.88 27.89, 55 28.89 S 58.75 34.17, 60 35 S 63.55 35.16, 65 35.56 S 68.58 38.26, 70 37.78 S 73.6 32.76, 75 32.22 S 78.51 34.06, 80 33.89 S 83.51 30.94, 85 31.11 S 88.82 34.08, 90 35 S 93.54 38.56, 95 38.89 S 98.54 37.55, 100 37.22 S 103.63 37.28, 105 36.67 S 108.52 33.03, 110 32.78 S 113.52 34.75, 115 35 S 118.51 34.61, 120 34.44 S 124.43 35.28, 125 33.89 S 128.54 10.33, 130 10 S 134.19 30.41, 135 31.67 S 138.5 25.48, 140 25.56 S 143.58 31.75, 145 32.22 S 148.51 29.06, 150 28.89 S 153.75 30.28, 155 31.11 S 158.63 34.95, 160 35.56 S 163.51 35.73, 165 35.56 S 168.5 34.52, 170 34.44 S 173.5 35.08, 175 35 S 178.54 34.22, 180 33.89 S 183.5 32.78, 185 32.78 S 188.58 33.42, 190 33.89 S 193.5 36.19, 195 36.11 S 198.52 33.58, 200 33.33 S 203.54 34.11, 205 34.44"
          fill="none"/>
    <circle r="4" cx="5" cy="40" fill="#3023AE"/>
    <circle r="4" cx="205" cy="34.44" fill="#C86DD7"/>      
</svg>