<svg width="200" height="50" viewBox="0 0 210 50" xmlns="http://www.w3.org/2000/svg">
    <defs>
        <linearGradient x1="0%" y1="0%" x2="100%" y2="0%" id="a">
            <stop stop-color="#3023AE" offset="0%"/>
            <stop stop-color="#C86DD7" offset="100%"/>
        </linearGradient>
    </defs>
    <path stroke="url(#a)"
          stroke-width="3"
          stroke-linejoin="round"
          stroke-linecap="round"
          d="M5 40 C 5.25 38.52, 9.29 11.32, 10 10 S 14.39 19.88, 15 21.25 S 19.17 31.25, 20 32.5 S 23.6 35.72, 25 36.25 S 28.5 36.25, 30 36.25 S 33.5 36.25, 35 36.25 S 39 37.37, 40 36.25 S 43.6 25.53, 45 25 S 48.8 31.6, 50 32.5 S 53.6 31.97, 55 32.5 S 58.6 35.72, 60 36.25 S 63.5 36.25, 65 36.25 S 68.5 36.25, 70 36.25 S 73.5 36.25, 75 36.25 S 78.5 36.25, 80 36.25 S 83.5 36.25, 85 36.25 S 88.5 36.25, 90 36.25 S 93.5 36.25, 95 36.25 S 98.5 36.25, 100 36.25 S 103.5 36.25, 105 36.25 S 108.5 36.25, 110 36.25 S 113.5 36.25, 115 36.25 S 118.8 37.15, 120 36.25 S 123.8 29.65, 125 28.75 S 128.5 28.75, 130 28.75 S 133.6 28.22, 135 28.75 S 138.8 33.4, 140 32.5 S 143.6 20.72, 145 21.25 S 149.17 35, 150 36.25 S 153.5 36.25, 155 36.25 S 158.5 36.25, 160 36.25 S 163.6 36.78, 165 36.25 S 168.5 32.5, 170 32.5 S 173.6 36.78, 175 36.25 S 178.5 28.75, 180 28.75 S 183.6 35.72, 185 36.25 S 188.6 33.03, 190 32.5 S 193.6 33.03, 195 32.5 S 198.6 28.22, 200 28.75 S 204.17 35, 205 36.25"
          fill="none"/>
    <circle r="4" cx="5" cy="40" fill="#3023AE"/>
    <circle r="4" cx="205" cy="36.25" fill="#C86DD7"/>      
</svg>