<svg width="200" height="50" viewBox="0 0 210 50" xmlns="http://www.w3.org/2000/svg">
    <defs>
        <linearGradient x1="0%" y1="0%" x2="100%" y2="0%" id="a">
            <stop stop-color="#3023AE" offset="0%"/>
            <stop stop-color="#C86DD7" offset="100%"/>
        </linearGradient>
    </defs>
    <path stroke="url(#a)"
          stroke-width="3"
          stroke-linejoin="round"
          stroke-linecap="round"
          d="M5 40 C 5.25 38.52, 8.78 10.87, 10 10 S 14.45 31.52, 15 32.92 S 18.69 34.69, 20 35.42 S 23.6 38, 25 38.54 S 28.5 39.27, 30 39.27 S 33.5 38.6, 35 38.54 S 38.5 38.74, 40 38.85 S 43.5 39.24, 45 39.27 S 48.5 39.01, 50 39.06 S 53.5 39.5, 55 39.58 S 58.5 39.55, 60 39.58 S 63.5 39.77, 65 39.79 S 68.5 39.74, 70 39.69 S 73.5 39.47, 75 39.48 S 78.51 39.91, 80 39.79 S 83.5 38.66, 85 38.65 S 88.51 39.55, 90 39.69 S 93.68 40.28, 95 39.58 S 98.52 34.62, 100 34.37 S 103.66 37.24, 105 37.92 S 108.52 39.25, 110 39.48 S 113.5 39.51, 115 39.48 S 118.5 39.29, 120 39.27 S 123.5 39.37, 125 39.37 S 128.5 39.19, 130 39.27 S 133.5 39.93, 135 39.9 S 138.5 39.14, 140 39.06 S 143.5 39.28, 145 39.37 S 148.5 39.63, 150 39.69 S 153.51 39.92, 155 39.79 S 158.5 38.88, 160 38.85 S 163.5 39.5, 165 39.58 S 168.5 39.48, 170 39.37 S 173.51 38.97, 175 38.85 S 178.5 38.51, 180 38.54 S 183.5 38.97, 185 39.06 S 188.5 39.22, 190 39.17 S 193.5 38.83, 195 38.75 S 198.5 38.73, 200 38.65 S 203.51 38.36, 205 38.23"
          fill="none"/>
    <circle r="4" cx="5" cy="40" fill="#3023AE"/>
    <circle r="4" cx="205" cy="38.23" fill="#C86DD7"/>      
</svg>