<svg width="200" height="50" viewBox="0 0 210 50" xmlns="http://www.w3.org/2000/svg">
    <defs>
        <linearGradient x1="0%" y1="0%" x2="100%" y2="0%" id="a">
            <stop stop-color="#3023AE" offset="0%"/>
            <stop stop-color="#C86DD7" offset="100%"/>
        </linearGradient>
    </defs>
    <path stroke="url(#a)"
          stroke-width="3"
          stroke-linejoin="round"
          stroke-linecap="round"
          d="M5 40 C 6.4 39.47, 8.53 38.4, 10 38.12 S 13.5 38.12, 15 38.12 S 18.5 38.12, 20 38.12 S 23.5 38.12, 25 38.12 S 28.5 38.12, 30 38.12 S 33.5 38.12, 35 38.12 S 38.5 38.12, 40 38.12 S 43.5 38.12, 45 38.12 S 48.5 38.12, 50 38.12 S 53.5 38.12, 55 38.12 S 58.5 38.12, 60 38.12 S 63.5 38.12, 65 38.12 S 69.5 39.53, 70 38.12 S 73.5 10, 75 10 S 79.43 36.73, 80 38.12 S 83.5 34.37, 85 34.37 S 88.6 37.59, 90 38.12 S 93.53 38.4, 95 38.12 S 98.8 37.15, 100 36.25 S 104.09 31.81, 105 30.62 S 108.8 22.22, 110 23.12 S 114 37, 115 38.12 S 118.69 35.1, 120 34.37 S 123.6 33.03, 125 32.5 S 128.6 31.15, 130 30.62 S 133.53 29.03, 135 28.75 S 138.6 28.22, 140 28.75 S 143.69 33.24, 145 32.5 S 149.09 24.31, 150 23.12 S 154.09 18.18, 155 19.37 S 159 35.13, 160 36.25 S 163.53 30.34, 165 30.62 S 169.24 39.41, 170 38.12 S 173.69 14.48, 175 13.75 S 179.24 31.21, 180 32.5 S 183.69 31.36, 185 30.62 S 188.6 27.4, 190 26.87 S 193.69 26.13, 195 26.87 S 198.6 31.97, 200 32.5 S 203.6 31.15, 205 30.62"
          fill="none"/>
    <circle r="4" cx="5" cy="40" fill="#3023AE"/>
    <circle r="4" cx="205" cy="30.619999999999997" fill="#C86DD7"/>      
</svg>