<svg width="200" height="50" viewBox="0 0 210 50" xmlns="http://www.w3.org/2000/svg">
    <defs>
        <linearGradient x1="0%" y1="0%" x2="100%" y2="0%" id="a">
            <stop stop-color="#3023AE" offset="0%"/>
            <stop stop-color="#C86DD7" offset="100%"/>
        </linearGradient>
    </defs>
    <path stroke="url(#a)"
          stroke-width="3"
          stroke-linejoin="round"
          stroke-linecap="round"
          d="M5 40 C 6.49 39.79, 8.5 39.4, 10 39.29 S 13.5 39.29, 15 39.29 S 18.5 39.4, 20 39.29 S 23.5 38.57, 25 38.57 S 28.5 39.29, 30 39.29 S 33.52 38.78, 35 38.57 S 38.5 37.75, 40 37.86 S 43.52 39.08, 45 39.29 S 48.5 39.4, 50 39.29 S 53.52 38.78, 55 38.57 S 58.5 37.75, 60 37.86 S 63.52 39.08, 65 39.29 S 68.5 39.4, 70 39.29 S 73.53 38.89, 75 38.57 S 78.5 37.14, 80 37.14 S 83.5 38.68, 85 38.57 S 88.5 36.32, 90 36.43 S 93.56 38.88, 95 39.29 S 98.5 39.4, 100 39.29 S 103.56 38.98, 105 38.57 S 108.53 36.74, 110 36.43 S 113.53 36.74, 115 36.43 S 118.78 35.16, 120 34.29 S 123.56 28.88, 125 29.29 S 128.9 36.12, 130 37.14 S 133.53 38.88, 135 38.57 S 138.5 35.11, 140 35 S 144.44 39.25, 145 37.86 S 148.82 10.93, 150 10 S 154.44 28.61, 155 30 S 158.52 34.79, 160 35 S 163.5 31.54, 165 31.43 S 168.66 33.62, 170 34.29 S 173.62 37.02, 175 36.43 S 178.66 30.67, 180 30 S 183.53 31.12, 185 31.43 S 188.59 31.64, 190 32.14 S 193.52 34.79, 195 35 S 198.53 33.88, 200 33.57 S 203.51 33.07, 205 32.86"
          fill="none"/>
    <circle r="4" cx="5" cy="40" fill="#3023AE"/>
    <circle r="4" cx="205" cy="32.86" fill="#C86DD7"/>      
</svg>