<svg width="200" height="50" viewBox="0 0 210 50" xmlns="http://www.w3.org/2000/svg">
    <defs>
        <linearGradient x1="0%" y1="0%" x2="100%" y2="0%" id="a">
            <stop stop-color="#3023AE" offset="0%"/>
            <stop stop-color="#C86DD7" offset="100%"/>
        </linearGradient>
    </defs>
    <path stroke="url(#a)"
          stroke-width="3"
          stroke-linejoin="round"
          stroke-linecap="round"
          d="M5 40 C 6.38 39.41, 8.52 38.11, 10 37.86 S 13.5 38.23, 15 38.29 S 18.5 38.34, 20 38.29 S 23.5 37.91, 25 37.96 S 28.51 38.8, 30 38.61 S 33.65 37.33, 35 36.68 S 38.53 34.07, 40 33.79 S 43.51 34.62, 45 34.75 S 48.52 34.89, 50 34.64 S 53.53 33.34, 55 33.04 S 58.5 32.71, 60 32.61 S 63.5 32.39, 65 32.39 S 68.51 32.47, 70 32.61 S 73.6 33.89, 75 33.36 S 78.73 29.66, 80 28.86 S 83.55 26.64, 85 27.04 S 88.55 31.25, 90 31.64 S 93.73 30.5, 95 29.71 S 98.89 26.43, 100 25.43 S 103.54 20.38, 105 20.71 S 108.65 27.02, 110 27.68 S 113.56 26.04, 115 25.64 S 118.5 24.99, 120 24.89 S 123.76 25.84, 125 25 S 128.56 18.57, 130 18.14 S 133.88 21, 135 22 S 138.53 26.76, 140 27.04 S 143.73 24.73, 145 23.93 S 148.51 20.89, 150 20.71 S 153.55 23.12, 155 22.75 S 158.63 18.76, 160 18.14 S 163.55 17.86, 165 18.25 S 168.51 20.61, 170 20.82 S 173.62 20.23, 175 19.64 S 178.92 17.58, 180 16.54 S 183.5 10.11, 185 10 S 188.83 14.85, 190 15.79 S 193.61 17.49, 195 18.04 S 198.6 19.22, 200 19.75 S 203.61 21.22, 205 21.79"
          fill="none"/>
    <circle r="4" cx="5" cy="40" fill="#3023AE"/>
    <circle r="4" cx="205" cy="21.79" fill="#C86DD7"/>      
</svg>