<svg width="200" height="50" viewBox="0 0 210 50" xmlns="http://www.w3.org/2000/svg">
    <defs>
        <linearGradient x1="0%" y1="0%" x2="100%" y2="0%" id="a">
            <stop stop-color="#3023AE" offset="0%"/>
            <stop stop-color="#C86DD7" offset="100%"/>
        </linearGradient>
    </defs>
    <path stroke="url(#a)"
          stroke-width="3"
          stroke-linejoin="round"
          stroke-linecap="round"
          d="M5 40 C 6.5 39.93, 8.5 39.79, 10 39.77 S 13.5 39.86, 15 39.87 S 18.5 39.83, 20 39.84 S 23.5 40.03, 25 39.97 S 28.5 39.52, 30 39.47 S 33.5 39.56, 35 39.61 S 38.5 39.76, 40 39.8 S 43.5 39.87, 45 39.9 S 48.5 39.98, 50 39.97 S 53.5 39.84, 55 39.84 S 58.5 39.98, 60 39.97 S 63.51 39.96, 65 39.8 S 69.52 40.34, 70 38.92 S 73.62 10.59, 75 10 S 79.49 33.27, 80 34.68 S 83.57 37.44, 85 37.9 S 88.51 38.08, 90 37.87 S 93.5 36.48, 95 36.49 S 98.5 37.9, 100 37.93 S 103.54 37.02, 105 36.68 S 108.5 35.55, 110 35.63 S 113.53 36.93, 115 37.24 S 118.5 37.68, 120 37.74 S 123.5 37.6, 125 37.67 S 128.51 38.03, 130 38.19 S 133.5 38.72, 135 38.72 S 138.5 38.18, 140 38.19 S 143.5 38.71, 145 38.79 S 149.34 40.09, 150 38.75 S 153.56 18.99, 155 18.57 S 159.24 34.54, 160 35.83 S 163.52 35.3, 165 35.54 S 168.54 37.12, 170 37.44 S 173.5 37.65, 175 37.74 S 178.5 37.93, 180 38.03 S 183.5 38.51, 185 38.39 S 188.58 37.73, 190 37.24 S 193.5 35.05, 195 34.95 S 198.53 36.23, 200 36.55 S 203.51 36.94, 205 37.11"
          fill="none"/>
    <circle r="4" cx="5" cy="40" fill="#3023AE"/>
    <circle r="4" cx="205" cy="37.11" fill="#C86DD7"/>      
</svg>