<svg width="200" height="50" viewBox="0 0 210 50" xmlns="http://www.w3.org/2000/svg">
    <defs>
        <linearGradient x1="0%" y1="0%" x2="100%" y2="0%" id="a">
            <stop stop-color="#3023AE" offset="0%"/>
            <stop stop-color="#C86DD7" offset="100%"/>
        </linearGradient>
    </defs>
    <path stroke="url(#a)"
          stroke-width="3"
          stroke-linejoin="round"
          stroke-linecap="round"
          d="M5 40 C 5.25 38.52, 8.91 11.03, 10 10 S 14.1 29.3, 15 30.5 S 18.56 23.76, 20 23.33 S 24.16 26.26, 25 27.5 S 28.97 36.91, 30 38 S 33.5 38.1, 35 38.17 S 38.5 38.45, 40 38.5 S 43.52 38.75, 45 38.5 S 48.51 36.68, 50 36.83 S 53.53 39.21, 55 39.5 S 58.5 38.88, 60 38.83 S 63.5 39.07, 65 39.17 S 68.5 39.43, 70 39.5 S 73.5 39.62, 75 39.67 S 78.5 39.9, 80 39.83 S 83.5 39.22, 85 39.17 S 88.5 39.45, 90 39.5 S 93.5 39.55, 95 39.5 S 98.5 39.14, 100 39.17 S 103.5 39.6, 105 39.67 S 108.5 39.67, 110 39.67 S 113.5 39.7, 115 39.67 S 118.5 39.5, 120 39.5 S 123.5 39.62, 125 39.67 S 128.5 39.9, 130 39.83 S 133.5 39.17, 135 39.17 S 138.5 39.73, 140 39.83 S 143.5 39.83, 145 39.83 S 148.5 39.83, 150 39.83 S 153.5 39.83, 155 39.83 S 158.5 39.93, 160 39.83 S 163.5 39.17, 165 39.17 S 168.5 39.73, 170 39.83 S 173.5 39.9, 175 39.83 S 178.5 39.33, 180 39.33 S 183.5 39.76, 185 39.83 S 188.5 39.83, 190 39.83"
          fill="none"/>
    <circle r="4" cx="5" cy="40" fill="#3023AE"/>
    <circle r="4" cx="190" cy="39.83" fill="#C86DD7"/>      
</svg>