<svg width="200" height="50" viewBox="0 0 210 50" xmlns="http://www.w3.org/2000/svg">
    <defs>
        <linearGradient x1="0%" y1="0%" x2="100%" y2="0%" id="a">
            <stop stop-color="#3023AE" offset="0%"/>
            <stop stop-color="#C86DD7" offset="100%"/>
        </linearGradient>
    </defs>
    <path stroke="url(#a)"
          stroke-width="3"
          stroke-linejoin="round"
          stroke-linecap="round"
          d="M5 40 C 5.25 38.52, 8.83 10.94, 10 10 S 14.48 30.48, 15 31.89 S 18.75 36.12, 20 36.94 S 23.53 38.2, 25 38.47 S 28.5 38.83, 30 38.8 S 33.5 38.31, 35 38.29 S 38.51 38.53, 40 38.66 S 43.5 39.12, 45 39.15 S 48.5 38.85, 50 38.83 S 53.5 38.99, 55 39.02 S 58.5 39, 60 39.03 S 63.5 39.23, 65 39.24 S 68.5 39.06, 70 39.09 S 73.5 39.37, 75 39.41 S 78.5 39.37, 80 39.33 S 83.5 39.15, 85 39.11 S 88.5 39.05, 90 39.09 S 93.5 39.31, 95 39.35 S 98.5 39.33, 100 39.33 S 103.5 39.36, 105 39.35 S 108.5 39.21, 110 39.23 S 113.5 39.46, 115 39.47 S 118.5 39.31, 120 39.3 S 123.5 39.38, 125 39.42 S 128.5 39.51, 130 39.54 S 133.5 39.63, 135 39.6 S 138.5 39.34, 140 39.32 S 143.5 39.45, 145 39.45 S 148.5 39.35, 150 39.32 S 153.5 39.25, 155 39.27 S 158.5 39.4, 160 39.44 S 163.5 39.52, 165 39.54 S 168.5 39.6, 170 39.6 S 173.5 39.56, 175 39.54 S 178.5 39.46, 180 39.49 S 183.5 39.7, 185 39.72 S 188.5 39.63, 190 39.6 S 193.5 39.53, 195 39.51 S 198.5 39.49, 200 39.49 S 203.5 39.53, 205 39.54"
          fill="none"/>
    <circle r="4" cx="5" cy="40" fill="#3023AE"/>
    <circle r="4" cx="205" cy="39.54" fill="#C86DD7"/>      
</svg>