<svg width="200" height="50" viewBox="0 0 210 50" xmlns="http://www.w3.org/2000/svg">
    <defs>
        <linearGradient x1="0%" y1="0%" x2="100%" y2="0%" id="a">
            <stop stop-color="#3023AE" offset="0%"/>
            <stop stop-color="#C86DD7" offset="100%"/>
        </linearGradient>
    </defs>
    <path stroke="url(#a)"
          stroke-width="3"
          stroke-linejoin="round"
          stroke-linecap="round"
          d="M5 40 C 6.44 39.59, 8.5 38.61, 10 38.58 S 13.51 39.65, 15 39.78 S 18.5 39.52, 20 39.45 S 23.5 39.37, 25 39.34 S 28.5 39.31, 30 39.23 S 33.5 38.86, 35 38.8 S 38.5 38.78, 40 38.8 S 43.51 38.76, 45 38.91 S 48.5 39.67, 50 39.78 S 53.52 39.9, 55 39.67 S 58.5 38.3, 60 38.25 S 63.51 39.16, 65 39.34 S 68.5 39.48, 70 39.45 S 73.5 39.17, 75 39.12 S 78.5 39.2, 80 39.12 S 83.63 39.18, 85 38.58 S 88.67 35.44, 90 34.74 S 93.51 33.5, 95 33.32 S 98.61 32.98, 100 33.54 S 104.39 38.74, 105 37.37 S 109.49 12.5, 110 11.09 S 114.29 8.68, 115 10 S 119.19 28.45, 120 29.71 S 123.84 26.61, 125 25.66 S 128.74 20.69, 130 21.5 S 133.55 32.52, 135 32.12 S 138.82 19.69, 140 18.76 S 144.1 23.03, 145 24.23 S 148.81 31.1, 150 32.01 S 153.5 31.82, 155 31.9 S 158.53 32.28, 160 32.55 S 163.5 33.64, 165 33.76 S 168.52 33.08, 170 33.32 S 173.52 35.17, 175 35.4 S 178.53 35.17, 180 34.85 S 183.51 33.36, 185 33.21 S 188.5 33.79, 190 33.87 S 193.51 33.61, 195 33.76 S 198.91 35.88, 200 34.85 S 204.36 25.59, 205 24.23"
          fill="none"/>
    <circle r="4" cx="5" cy="40" fill="#3023AE"/>
    <circle r="4" cx="205" cy="24.23" fill="#C86DD7"/>      
</svg>