<svg width="200" height="50" viewBox="0 0 210 50" xmlns="http://www.w3.org/2000/svg">
    <defs>
        <linearGradient x1="0%" y1="0%" x2="100%" y2="0%" id="a">
            <stop stop-color="#3023AE" offset="0%"/>
            <stop stop-color="#C86DD7" offset="100%"/>
        </linearGradient>
    </defs>
    <path stroke="url(#a)"
          stroke-width="3"
          stroke-linejoin="round"
          stroke-linecap="round"
          d="M5 40 C 5.25 38.52, 9.09 11.19, 10 10 S 14.32 25.56, 15 26.9 S 18.66 28.9, 20 29.58 S 23.61 31.41, 25 31.97 S 28.78 34.44, 30 33.57 S 34.04 25.99, 35 24.84 S 38.56 22.03, 40 21.6 S 43.54 22.24, 45 21.88 S 48.53 18.83, 50 19.15 S 53.79 23.16, 55 24.04 S 58.56 26.86, 60 26.43 S 63.52 20.81, 65 21.03 S 68.71 27.16, 70 27.93 S 73.52 26.76, 75 27 S 78.55 29.16, 80 29.53 S 83.54 29.87, 85 29.53 S 88.51 27.31, 90 27.18 S 93.53 28.41, 95 28.69 S 98.5 29.22, 100 29.11 S 103.5 27.94, 105 27.98 S 108.57 28.95, 110 29.39 S 113.74 31.89, 115 31.08 S 118.89 23.97, 120 22.96 S 123.55 22.39, 125 22.02 S 128.62 19.8, 130 20.38 S 133.64 25.6, 135 26.24 S 138.56 24.66, 140 25.07 S 143.63 28.49, 145 29.11 S 148.51 29.44, 150 29.62 S 153.62 29.74, 155 30.33 S 158.51 33.75, 160 33.9 S 163.59 31.86, 165 31.36 S 168.52 30.13, 170 30.38 S 173.5 32.97, 175 33.05 S 178.5 31, 180 30.94 S 183.52 32.46, 185 32.68 S 188.51 32.55, 190 32.39 S 193.54 31.25, 195 31.6 S 198.53 34.49, 200 34.79 S 203.54 33.99, 205 33.66"
          fill="none"/>
    <circle r="4" cx="5" cy="40" fill="#3023AE"/>
    <circle r="4" cx="205" cy="33.66" fill="#C86DD7"/>      
</svg>