<svg width="200" height="50" viewBox="0 0 210 50" xmlns="http://www.w3.org/2000/svg">
    <defs>
        <linearGradient x1="0%" y1="0%" x2="100%" y2="0%" id="a">
            <stop stop-color="#3023AE" offset="0%"/>
            <stop stop-color="#C86DD7" offset="100%"/>
        </linearGradient>
    </defs>
    <path stroke="url(#a)"
          stroke-width="3"
          stroke-linejoin="round"
          stroke-linecap="round"
          d="M5 40 C 6.5 39.99, 8.5 39.97, 10 39.97 S 13.5 39.99, 15 39.99 S 18.5 39.99, 20 39.99 S 23.5 39.99, 25 39.99 S 28.5 39.99, 30 39.99 S 34.53 41.41, 35 39.99 S 39.17 11.25, 40 10 S 44.47 23.57, 45 24.97 S 48.96 35.15, 50 36.23 S 53.52 35.08, 55 35.31 S 58.57 37.33, 60 37.79 S 63.5 38.43, 65 38.52 S 68.72 39.19, 70 38.41 S 73.5 32.55, 75 32.44 S 78.65 37.03, 80 37.67 S 83.5 37.14, 85 37.2 S 88.58 38.57, 90 38.09 S 93.5 33.85, 95 33.85 S 98.64 37.44, 100 38.06 S 103.5 38.35, 105 38.41 S 108.55 38.83, 110 38.46 S 113.6 36.42, 115 35.88 S 118.53 34.29, 120 34.58 S 123.56 37.39, 125 37.82 S 128.5 37.58, 130 37.56 S 134.08 38.87, 135 37.68 S 138.5 24.73, 140 24.66 S 144.08 36.04, 145 37.23 S 148.5 37.57, 150 37.64 S 153.5 37.63, 155 37.68 S 158.5 37.87, 160 37.97 S 163.5 38.35, 165 38.35 S 168.5 38, 170 37.98 S 173.5 38.16, 175 38.19 S 178.5 38.21, 180 38.17 S 183.53 38.19, 185 37.9 S 188.51 36.32, 190 36.18 S 193.52 36.72, 195 36.97 S 198.51 37.73, 200 37.86 S 203.5 37.84, 205 37.83"
          fill="none"/>
    <circle r="4" cx="5" cy="40" fill="#3023AE"/>
    <circle r="4" cx="205" cy="37.83" fill="#C86DD7"/>      
</svg>