<svg width="200" height="50" viewBox="0 0 210 50" xmlns="http://www.w3.org/2000/svg">
    <defs>
        <linearGradient x1="0%" y1="0%" x2="100%" y2="0%" id="a">
            <stop stop-color="#3023AE" offset="0%"/>
            <stop stop-color="#C86DD7" offset="100%"/>
        </linearGradient>
    </defs>
    <path stroke="url(#a)"
          stroke-width="3"
          stroke-linejoin="round"
          stroke-linecap="round"
          d="M5 40 C 5.25 38.52, 8.52 10.26, 10 10 S 14.49 36.85, 15 38.26 S 18.71 38.49, 20 37.73 S 23.51 32.55, 25 32.41 S 28.65 36.11, 30 36.77 S 33.51 37.14, 35 37.34 S 38.5 38.11, 40 38.14 S 43.57 37.99, 45 37.53 S 48.5 34.89, 50 34.91 S 53.55 37.28, 55 37.67 S 58.7 38.39, 60 37.63 S 63.55 32.23, 65 31.84 S 68.63 34.33, 70 34.95 S 73.52 36.13, 75 36.38 S 78.5 36.57, 80 36.61 S 83.5 36.7, 85 36.65 S 88.59 36.8, 90 36.3 S 93.51 33.24, 95 33.09 S 98.55 34.94, 100 35.32 S 103.5 35.61, 105 35.68 S 108.51 35.6, 110 35.79 S 113.51 36.79, 115 36.93 S 118.5 36.7, 120 36.75 S 123.5 37.15, 125 37.24 S 128.5 37.42, 130 37.32 S 134.16 37.82, 135 36.58 S 138.91 23.5, 140 22.47 S 143.75 26.37, 145 27.2 S 148.75 28.24, 150 29.08 S 153.73 33.12, 155 33.91 S 158.52 35.04, 160 35.3 S 163.5 35.6, 165 35.69 S 168.52 35.69, 170 35.91 S 173.51 36.98, 175 37.16 S 178.51 37.35, 180 37.14 S 183.5 35.71, 185 35.75 S 188.52 37.17, 190 37.42 S 193.5 37.44, 195 37.44 S 198.5 37.39, 200 37.42 S 203.5 37.6, 205 37.67"
          fill="none"/>
    <circle r="4" cx="5" cy="40" fill="#3023AE"/>
    <circle r="4" cx="205" cy="37.67" fill="#C86DD7"/>      
</svg>