<svg width="200" height="50" viewBox="0 0 210 50" xmlns="http://www.w3.org/2000/svg">
    <defs>
        <linearGradient x1="0%" y1="0%" x2="100%" y2="0%" id="a">
            <stop stop-color="#3023AE" offset="0%"/>
            <stop stop-color="#C86DD7" offset="100%"/>
        </linearGradient>
    </defs>
    <path stroke="url(#a)"
          stroke-width="3"
          stroke-linejoin="round"
          stroke-linecap="round"
          d="M5 40 C 5.39 38.55, 9.3 22.88, 10 21.55 S 14.16 19.78, 15 21.03 S 18.61 35.9, 20 36.46 S 23.53 25.32, 25 25.03 S 29.05 35.65, 30 34.49 S 34 13.94, 35 12.82 S 38.56 22.91, 40 23.33 S 43.6 15.18, 45 15.71 S 48.84 26.11, 50 27.07 S 53.5 23.91, 55 23.98 S 58.8 26.63, 60 27.53 S 63.52 31.73, 65 31.47 S 69.37 27.11, 70 25.75 S 73.51 9.85, 75 10 S 78.52 26.49, 80 26.74 S 83.71 12.47, 85 11.71 S 89.17 19.58, 90 20.83 S 93.83 25.88, 95 26.81 S 98.53 28.49, 100 28.77 S 103.51 28.57, 105 28.71 S 108.52 29.42, 110 29.69 S 113.51 30.37, 115 30.55 S 118.5 30.85, 120 30.88 S 123.61 31.31, 125 30.74 S 128.62 27.39, 130 26.81 S 133.51 26.71, 135 26.54 S 138.8 26.58, 140 25.69 S 143.5 19.17, 145 19.12 S 148.51 25.49, 150 25.36 S 153.54 18.6, 155 18.27 S 158.86 22.15, 160 23.13 S 163.54 26.52, 165 26.87 S 168.64 26.2, 170 25.56 S 173.96 23.22, 175 22.14 S 178.52 15.03, 180 15.25 S 183.92 22.55, 185 23.59 S 188.57 25.31, 190 24.84 S 193.68 21.01, 195 20.31 S 198.5 19.41, 200 19.52 S 203.56 20.6, 205 21.03"
          fill="none"/>
    <circle r="4" cx="5" cy="40" fill="#3023AE"/>
    <circle r="4" cx="205" cy="21.03" fill="#C86DD7"/>      
</svg>