<svg width="200" height="50" viewBox="0 0 210 50" xmlns="http://www.w3.org/2000/svg">
    <defs>
        <linearGradient x1="0%" y1="0%" x2="100%" y2="0%" id="a">
            <stop stop-color="#3023AE" offset="0%"/>
            <stop stop-color="#C86DD7" offset="100%"/>
        </linearGradient>
    </defs>
    <path stroke="url(#a)"
          stroke-width="3"
          stroke-linejoin="round"
          stroke-linecap="round"
          d="M5 40 C 6.5 39.9, 9.53 41.09, 10 39.67 S 13.75 10.83, 15 10 S 19.47 31.68, 20 33.08 S 23.53 36.41, 25 36.7 S 28.51 34.85, 30 35.05 S 33.62 37.43, 35 38.02 S 38.52 39.1, 40 39.34 S 43.5 39.77, 45 39.67 S 48.5 38.73, 50 38.68 S 53.86 40.32, 55 39.34 S 58.5 30.11, 60 30.11 S 63.92 38.3, 65 39.34 S 68.5 39.72, 70 39.67 S 73.5 39.01, 75 39.01 S 78.5 39.57, 80 39.67 S 83.52 39.91, 85 39.67 S 88.5 38.02, 90 38.02 S 93.52 39.43, 95 39.67 S 98.58 40.14, 100 39.67 S 103.79 37.25, 105 36.37 S 108.5 32.32, 110 32.42 S 113.69 36.3, 115 37.03 S 118.52 37.78, 120 38.02 S 123.51 38.48, 125 38.68 S 128.5 39.44, 130 39.34 S 133.5 38.12, 135 38.02 S 138.5 38.63, 140 38.68 S 143.51 38.55, 145 38.35 S 148.51 37.56, 150 37.36 S 153.5 36.93, 155 37.03 S 158.5 38.07, 160 38.02 S 163.5 36.75, 165 36.7 S 168.55 37.31, 170 37.69 S 173.5 39.29, 175 39.34 S 178.51 38.17, 180 38.02 S 183.5 38.35, 185 38.35 S 188.5 38.02, 190 38.02 S 193.51 38.2, 195 38.35 S 198.54 39.35, 200 39.01 S 203.71 36.81, 205 36.04"
          fill="none"/>
    <circle r="4" cx="5" cy="40" fill="#3023AE"/>
    <circle r="4" cx="205" cy="36.04" fill="#C86DD7"/>      
</svg>