<svg width="200" height="50" viewBox="0 0 210 50" xmlns="http://www.w3.org/2000/svg">
    <defs>
        <linearGradient x1="0%" y1="0%" x2="100%" y2="0%" id="a">
            <stop stop-color="#3023AE" offset="0%"/>
            <stop stop-color="#C86DD7" offset="100%"/>
        </linearGradient>
    </defs>
    <path stroke="url(#a)"
          stroke-width="3"
          stroke-linejoin="round"
          stroke-linecap="round"
          d="M5 40 C 6.5 39.91, 9.53 41.12, 10 39.7 S 13.57 10.46, 15 10 S 19.48 35.03, 20 36.44 S 23.52 37.59, 25 37.33 S 28.52 34.43, 30 34.65 S 33.66 38.13, 35 38.81 S 38.5 39.7, 40 39.7 S 43.8 39.7, 45 38.81 S 48.51 32.41, 50 32.28 S 53.8 37.03, 55 37.92 S 58.51 39.57, 60 39.7 S 63.5 38.81, 65 38.81 S 68.51 39.57, 70 39.7 S 73.52 39.92, 75 39.7 S 78.5 38.22, 80 38.22 S 83.5 39.61, 85 39.7 S 88.55 39.2, 90 38.81 S 93.78 37.9, 95 37.03 S 98.52 31.46, 100 31.68 S 103.73 37.72, 105 38.51 S 108.51 37.79, 110 37.92 S 113.5 39.41, 115 39.41 S 118.5 38.01, 120 37.92 S 123.5 38.85, 125 38.81 S 128.52 37.88, 130 37.62 S 133.5 36.99, 135 37.03 S 138.5 37.96, 140 37.92 S 143.5 36.77, 145 36.73 S 148.54 37.27, 150 37.62 S 153.5 39.15, 155 39.11 S 158.51 37.51, 160 37.33 S 163.52 37.66, 165 37.92 S 168.5 39.02, 170 39.11 S 173.53 38.82, 175 38.51 S 178.55 37.42, 180 37.03 S 183.54 35.49, 185 35.84 S 188.59 38.91, 190 39.41 S 193.52 39.63, 195 39.41 S 198.52 38.14, 200 37.92 S 203.5 37.92, 205 37.92"
          fill="none"/>
    <circle r="4" cx="5" cy="40" fill="#3023AE"/>
    <circle r="4" cx="205" cy="37.92" fill="#C86DD7"/>      
</svg>