<svg width="200" height="50" viewBox="0 0 210 50" xmlns="http://www.w3.org/2000/svg">
    <defs>
        <linearGradient x1="0%" y1="0%" x2="100%" y2="0%" id="a">
            <stop stop-color="#3023AE" offset="0%"/>
            <stop stop-color="#C86DD7" offset="100%"/>
        </linearGradient>
    </defs>
    <path stroke="url(#a)"
          stroke-width="3"
          stroke-linejoin="round"
          stroke-linecap="round"
          d="M5 40 C 5.25 38.52, 8.8 10.9, 10 10 S 13.97 31.41, 15 32.5 S 18.56 20.93, 20 20.5 S 23.97 28.41, 25 29.5 S 28.63 30.38, 30 31 S 33.67 33.3, 35 34 S 38.8 37.15, 40 36.25 S 43.6 27.03, 45 26.5 S 48.52 32.28, 50 32.5 S 53.5 27.89, 55 28 S 58.6 32.72, 60 33.25 S 63.5 31.64, 65 31.75 S 68.56 33.57, 70 34 S 73.67 34.05, 75 34.75 S 78.56 38.82, 80 39.25 S 83.63 38.37, 85 37.75 S 88.6 35.28, 90 34.75 S 93.5 34, 95 34 S 98.5 34.75, 100 34.75 S 103.6 33.47, 105 34 S 108.52 38.28, 110 38.5 S 113.54 35.83, 115 35.5 S 118.52 36.03, 120 36.25 S 123.54 36.67, 125 37 S 128.54 38.17, 130 38.5 S 133.5 39.25, 135 39.25 S 138.5 38.5, 140 38.5 S 143.5 39.25, 145 39.25 S 148.5 38.61, 150 38.5 S 153.63 39.12, 155 38.5 S 158.52 34.22, 160 34 S 163.67 36.3, 165 37 S 168.54 38.92, 170 39.25 S 173.5 39.25, 175 39.25 S 178.5 39.25, 180 39.25 S 183.5 39.25, 185 39.25 S 188.5 39.25, 190 39.25 S 193.5 39.25, 195 39.25 S 198.5 39.25, 200 39.25 S 203.5 39.25, 205 39.25"
          fill="none"/>
    <circle r="4" cx="5" cy="40" fill="#3023AE"/>
    <circle r="4" cx="205" cy="39.25" fill="#C86DD7"/>      
</svg>