<svg width="200" height="50" viewBox="0 0 210 50" xmlns="http://www.w3.org/2000/svg">
    <defs>
        <linearGradient x1="0%" y1="0%" x2="100%" y2="0%" id="a">
            <stop stop-color="#3023AE" offset="0%"/>
            <stop stop-color="#C86DD7" offset="100%"/>
        </linearGradient>
    </defs>
    <path stroke="url(#a)"
          stroke-width="3"
          stroke-linejoin="round"
          stroke-linecap="round"
          d="M5 40 C 6.48 39.74, 8.5 39.2, 10 39.11 S 13.57 39.87, 15 39.41 S 18.62 36.51, 20 35.92 S 23.51 34.92, 25 35.1 S 28.52 36.87, 30 37.1 S 33.5 36.62, 35 36.66 S 38.5 37.51, 40 37.4 S 43.6 36.46, 45 35.92 S 48.89 34.55, 50 33.54 S 53.51 27.07, 55 26.86 S 58.6 31.58, 60 32.13 S 63.5 30.82, 65 30.79 S 68.5 31.87, 70 31.91 S 73.55 31.48, 75 31.09 S 78.67 29.93, 80 29.23 S 83.5 25.94, 85 25.82 S 88.5 28.43, 90 28.42 S 93.53 25.46, 95 25.74 S 98.57 29.89, 100 30.35 S 103.89 29.95, 105 28.94 S 108.51 21.35, 110 21.21 S 113.65 27.32, 115 27.97 S 118.71 26.81, 120 26.04 S 123.58 22.44, 125 21.96 S 128.56 22.26, 130 22.7 S 133.5 24.88, 135 25 S 138.6 24.06, 140 23.51 S 143.86 22.04, 145 21.06 S 148.81 15.81, 150 14.9 S 153.51 13.55, 155 13.42 S 158.5 13.9, 160 14.01 S 163.51 13.96, 165 14.16 S 168.5 15.36, 170 15.35 S 173.54 14.42, 175 14.08 S 178.5 13.06, 180 13.04 S 183.5 14.04, 185 13.94 S 188.6 12.93, 190 12.38 S 193.5 9.9, 195 10 S 198.67 12.34, 200 13.04 S 203.63 14.66, 205 15.27"
          fill="none"/>
    <circle r="4" cx="5" cy="40" fill="#3023AE"/>
    <circle r="4" cx="205" cy="15.27" fill="#C86DD7"/>      
</svg>