<svg width="200" height="50" viewBox="0 0 210 50" xmlns="http://www.w3.org/2000/svg">
    <defs>
        <linearGradient x1="0%" y1="0%" x2="100%" y2="0%" id="a">
            <stop stop-color="#3023AE" offset="0%"/>
            <stop stop-color="#C86DD7" offset="100%"/>
        </linearGradient>
    </defs>
    <path stroke="url(#a)"
          stroke-width="3"
          stroke-linejoin="round"
          stroke-linecap="round"
          d="M5 40 C 6.26 39.18, 9.04 37.91, 10 36.76 S 13.5 28.04, 15 28.07 S 18.82 36, 20 36.93 S 23.53 36.21, 25 35.91 S 28.51 35.02, 30 34.89 S 33.55 35.46, 35 35.06 S 38.5 32.11, 40 32.16 S 43.66 34.72, 45 35.4 S 48.54 37.6, 50 37.27 S 53.59 33.69, 55 33.18 S 58.59 33.18, 60 33.69 S 64.42 38.14, 65 36.76 S 68.91 11.04, 70 10 S 74.36 25.86, 75 27.22 S 78.66 30.63, 80 31.31 S 83.52 32.1, 85 32.33 S 88.61 32.27, 90 32.84 S 93.57 35.98, 95 36.42 S 98.51 36.11, 100 35.91 S 103.52 35.29, 105 35.06 S 108.5 34.47, 110 34.37 S 113.51 34.22, 115 34.37 S 118.5 35.3, 120 35.4 S 123.5 35.16, 125 35.06 S 128.5 34.62, 130 34.72 S 133.51 35.56, 135 35.74 S 138.51 36.06, 140 35.91 S 143.51 34.92, 145 34.72 S 148.52 34.3, 150 34.55 S 153.52 36.19, 155 36.42 S 158.5 36.18, 160 36.08 S 163.54 36.07, 165 35.74 S 168.5 33.91, 170 33.86 S 173.51 35.25, 175 35.4 S 178.5 34.84, 180 34.89 S 183.51 35.89, 185 35.74 S 188.52 34.09, 190 33.86 S 193.54 33.87, 195 34.2 S 198.51 35.93, 200 36.08 S 203.52 35.48, 205 35.23"
          fill="none"/>
    <circle r="4" cx="5" cy="40" fill="#3023AE"/>
    <circle r="4" cx="205" cy="35.230000000000004" fill="#C86DD7"/>      
</svg>