<svg width="200" height="50" viewBox="0 0 210 50" xmlns="http://www.w3.org/2000/svg">
    <defs>
        <linearGradient x1="0%" y1="0%" x2="100%" y2="0%" id="a">
            <stop stop-color="#3023AE" offset="0%"/>
            <stop stop-color="#C86DD7" offset="100%"/>
        </linearGradient>
    </defs>
    <path stroke="url(#a)"
          stroke-width="3"
          stroke-linejoin="round"
          stroke-linecap="round"
          d="M5 40 C 6.5 40, 8.5 40, 10 40 S 13.5 40, 15 40 S 18.5 40, 20 40 S 23.5 40, 25 40 S 28.5 40, 30 40 S 33.5 40, 35 40 S 38.5 40, 40 40 S 43.5 40, 45 40 S 49.53 41.42, 50 40 S 54.12 11.21, 55 10 S 59.47 24.84, 60 26.24 S 64.02 35.59, 65 36.73 S 68.52 37.69, 70 37.91 S 73.5 38.17, 75 38.22 S 78.5 38.23, 80 38.27 S 83.5 38.49, 85 38.52 S 88.5 38.5, 90 38.47 S 93.5 38.3, 95 38.31 S 98.5 38.48, 100 38.54 S 103.5 38.69, 105 38.73 S 108.5 38.83, 110 38.83 S 113.5 38.73, 115 38.75 S 118.5 38.89, 120 38.95 S 123.5 39.09, 125 39.12 S 128.5 39.15, 130 39.15 S 133.5 39.1, 135 39.11 S 138.5 39.2, 140 39.2 S 143.5 39.16, 145 39.12 S 148.5 38.92, 150 38.9 S 153.5 38.97, 155 38.98 S 158.5 38.96, 160 38.97 S 163.5 39.04, 165 39.05 S 168.5 39.07, 170 39.06 S 173.5 38.99, 175 39.01 S 178.5 39.15, 180 39.17 S 183.5 39.15, 185 39.15 S 188.5 39.23, 190 39.2 S 193.5 38.98, 195 38.98 S 198.5 39.15, 200 39.18 S 203.5 39.17, 205 39.16"
          fill="none"/>
    <circle r="4" cx="5" cy="40" fill="#3023AE"/>
    <circle r="4" cx="205" cy="39.16" fill="#C86DD7"/>      
</svg>