<svg width="200" height="50" viewBox="0 0 210 50" xmlns="http://www.w3.org/2000/svg">
    <defs>
        <linearGradient x1="0%" y1="0%" x2="100%" y2="0%" id="a">
            <stop stop-color="#3023AE" offset="0%"/>
            <stop stop-color="#C86DD7" offset="100%"/>
        </linearGradient>
    </defs>
    <path stroke="url(#a)"
          stroke-width="3"
          stroke-linejoin="round"
          stroke-linecap="round"
          d="M5 40 C 5.25 38.52, 8.5 10.02, 10 10 S 14.52 38.46, 15 39.88 S 18.56 40.32, 20 39.88 S 23.52 37.09, 25 36.84 S 28.51 38.02, 30 38.18 S 33.5 37.83, 35 37.94 S 38.5 38.89, 40 38.91 S 43.65 38.72, 45 38.06 S 48.63 34.65, 50 34.05 S 53.5 33.77, 55 33.68 S 58.51 33.26, 60 33.44 S 63.53 34.58, 65 34.9 S 68.52 35.38, 70 35.63 S 73.54 36.95, 75 36.6 S 78.54 33.55, 80 33.2 S 83.52 33.92, 85 34.17 S 88.54 34.56, 90 34.9 S 93.51 36.35, 95 36.48 S 98.57 36.2, 100 35.75 S 103.5 33.21, 105 33.32 S 108.5 36.41, 110 36.48 S 113.55 34.18, 115 33.81 S 118.5 33.91, 120 33.93 S 123.51 33.77, 125 33.93 S 128.52 34.8, 130 35.02 S 133.54 35.03, 135 35.38 S 138.5 37.54, 140 37.45 S 143.57 35.23, 145 34.78 S 148.5 34.33, 150 34.29 S 153.52 34.31, 155 34.53 S 158.67 36.44, 160 35.75 S 163.53 29.61, 165 29.31 S 168.56 33.26, 170 33.68 S 173.52 32.01, 175 32.23 S 178.59 34.63, 180 35.14 S 183.56 36.29, 185 35.87 S 188.5 32.32, 190 32.23 S 193.5 35.21, 195 35.26 S 199.37 33.95, 200 32.59 S 204.62 15.09, 205 13.64"
          fill="none"/>
    <circle r="4" cx="5" cy="40" fill="#3023AE"/>
    <circle r="4" cx="205" cy="13.64" fill="#C86DD7"/>      
</svg>