<svg width="200" height="50" viewBox="0 0 210 50" xmlns="http://www.w3.org/2000/svg">
    <defs>
        <linearGradient x1="0%" y1="0%" x2="100%" y2="0%" id="a">
            <stop stop-color="#3023AE" offset="0%"/>
            <stop stop-color="#C86DD7" offset="100%"/>
        </linearGradient>
    </defs>
    <path stroke="url(#a)"
          stroke-width="3"
          stroke-linejoin="round"
          stroke-linecap="round"
          d="M5 40 C 5.54 38.6, 9.11 28.34, 10 27.14 S 14.16 27.77, 15 26.53 S 19.22 13.73, 20 12.45 S 23.9 8.99, 25 10 S 29.13 20.41, 30 21.63 S 33.54 23.72, 35 24.08 S 38.54 23.72, 40 24.08 S 43.59 26.01, 45 26.53 S 48.72 28.54, 50 27.76 S 53.57 20.85, 55 20.41 S 58.76 23.85, 60 24.69 S 63.76 26.3, 65 27.14 S 68.65 32.09, 70 31.43 S 73.83 23.17, 75 22.24 S 78.59 22.95, 80 23.47 S 83.5 25.83, 85 25.92 S 88.5 24.17, 90 24.08 S 93.65 24.65, 95 25.31 S 98.99 27.87, 100 28.98 S 103.51 36.51, 105 36.33 S 108.65 28.42, 110 27.76 S 113.69 30.71, 115 31.43 S 118.59 33.79, 120 33.27 S 123.5 27.85, 125 27.76 S 128.62 32.06, 130 32.65 S 133.62 32.63, 135 32.04 S 138.57 28.81, 140 28.37 S 143.5 28.89, 145 28.98 S 148.52 28.71, 150 28.98 S 153.52 30.55, 155 30.82 S 158.57 31.26, 160 30.82 S 163.72 28.54, 165 27.76 S 168.51 24.51, 170 24.69 S 173.52 28.71, 175 28.98 S 178.5 26.44, 180 26.53 S 183.5 29.59, 185 29.59 S 188.51 26.35, 190 26.53 S 193.59 30.3, 195 30.82 S 198.5 30.29, 200 30.2 S 203.5 30.2, 205 30.2"
          fill="none"/>
    <circle r="4" cx="5" cy="40" fill="#3023AE"/>
    <circle r="4" cx="205" cy="30.2" fill="#C86DD7"/>      
</svg>