<svg width="200" height="50" viewBox="0 0 210 50" xmlns="http://www.w3.org/2000/svg">
    <defs>
        <linearGradient x1="0%" y1="0%" x2="100%" y2="0%" id="a">
            <stop stop-color="#3023AE" offset="0%"/>
            <stop stop-color="#C86DD7" offset="100%"/>
        </linearGradient>
    </defs>
    <path stroke="url(#a)"
          stroke-width="3"
          stroke-linejoin="round"
          stroke-linecap="round"
          d="M5 40 C 5.25 38.52, 8.64 10.63, 10 10 S 14.46 33.96, 15 35.36 S 18.54 35.62, 20 35.98 S 23.53 37.52, 25 37.84 S 28.52 37.91, 30 38.14 S 33.51 39.2, 35 39.38 S 38.5 39.43, 40 39.38 S 43.5 39.07, 45 39.07 S 48.5 39.43, 50 39.38 S 53.5 38.76, 55 38.76 S 58.5 39.33, 60 39.38 S 63.5 39.07, 65 39.07 S 68.5 39.29, 70 39.38 S 73.5 39.64, 75 39.69 S 78.5 39.69, 80 39.69 S 83.5 39.74, 85 39.69 S 88.5 39.43, 90 39.38 S 93.5 39.33, 95 39.38 S 98.5 39.74, 100 39.69 S 103.5 39.16, 105 39.07 S 108.5 38.98, 110 39.07 S 113.5 39.6, 115 39.69 S 118.5 39.69, 120 39.69 S 123.5 39.74, 125 39.69 S 128.5 39.38, 130 39.38 S 133.5 39.64, 135 39.69 S 138.5 39.69, 140 39.69 S 143.5 39.69, 145 39.69 S 148.5 39.69, 150 39.69 S 153.5 39.69, 155 39.69 S 158.5 39.69, 160 39.69 S 163.5 39.69, 165 39.69 S 168.5 39.69, 170 39.69 S 173.5 39.69, 175 39.69 S 178.5 39.69, 180 39.69 S 183.5 39.69, 185 39.69"
          fill="none"/>
    <circle r="4" cx="5" cy="40" fill="#3023AE"/>
    <circle r="4" cx="185" cy="39.69" fill="#C86DD7"/>      
</svg>