<svg width="200" height="50" viewBox="0 0 210 50" xmlns="http://www.w3.org/2000/svg">
    <defs>
        <linearGradient x1="0%" y1="0%" x2="100%" y2="0%" id="a">
            <stop stop-color="#3023AE" offset="0%"/>
            <stop stop-color="#C86DD7" offset="100%"/>
        </linearGradient>
    </defs>
    <path stroke="url(#a)"
          stroke-width="3"
          stroke-linejoin="round"
          stroke-linecap="round"
          d="M5 40 C 6.19 39.08, 8.97 37.22, 10 36.13 S 13.92 30.39, 15 29.35 S 18.81 25.53, 20 26.45 S 23.53 36.81, 25 37.1 S 28.53 28.11, 30 28.39 S 33.7 39.78, 35 39.03 S 38.97 23.67, 40 22.58 S 43.97 27.3, 45 28.39 S 48.65 32.58, 50 33.23 S 53.6 33.77, 55 33.23 S 58.53 29.64, 60 29.35 S 63.6 31.83, 65 31.29 S 68.6 26.02, 70 25.48 S 73.7 26.67, 75 27.42 S 78.51 31.15, 80 31.29 S 83.5 28.39, 85 28.39 S 88.6 30.75, 90 31.29 S 93.65 32.91, 95 32.26 S 98.92 27.49, 100 26.45 S 103.5 22.58, 105 22.58 S 108.7 25.7, 110 26.45 S 113.51 28.25, 115 28.39 S 118.81 28.34, 120 27.42 S 123.51 20.51, 125 20.65 S 128.51 28.53, 130 28.39 S 133.56 19.26, 135 19.68 S 138.53 31.01, 140 31.29 S 143.97 22.7, 145 21.61 S 148.76 19.81, 150 20.65 S 153.6 27.85, 155 28.39 S 158.7 25.27, 160 24.52 S 163.65 23.23, 165 22.58 S 168.76 20.52, 170 19.68 S 173.65 15.16, 175 15.81 S 178.7 25.27, 180 24.52 S 183.51 10.14, 185 10 S 189.19 22.29, 190 23.55 S 193.7 24.73, 195 25.48 S 198.6 29.89, 200 29.35 S 204.19 22.87, 205 21.61"
          fill="none"/>
    <circle r="4" cx="5" cy="40" fill="#3023AE"/>
    <circle r="4" cx="205" cy="21.61" fill="#C86DD7"/>      
</svg>