<svg width="200" height="50" viewBox="0 0 210 50" xmlns="http://www.w3.org/2000/svg">
    <defs>
        <linearGradient x1="0%" y1="0%" x2="100%" y2="0%" id="a">
            <stop stop-color="#3023AE" offset="0%"/>
            <stop stop-color="#C86DD7" offset="100%"/>
        </linearGradient>
    </defs>
    <path stroke="url(#a)"
          stroke-width="3"
          stroke-linejoin="round"
          stroke-linecap="round"
          d="M5 40 C 5.47 38.58, 9.06 26.17, 10 25 S 14.06 26.33, 15 27.5 S 18.94 36.44, 20 37.5 S 23.94 38.56, 25 37.5 S 28.66 28.17, 30 27.5 S 33.66 31.83, 35 32.5 S 38.5 32.5, 40 32.5 S 43.66 31.83, 45 32.5 S 48.54 37.14, 50 37.5 S 53.5 35, 55 35 S 58.54 37.14, 60 37.5 S 63.5 37.5, 65 37.5 S 68.5 37.5, 70 37.5 S 73.5 37.5, 75 37.5 S 78.66 38.17, 80 37.5 S 83.54 32.86, 85 32.5 S 88.66 34.33, 90 35 S 93.54 37.14, 95 37.5 S 98.66 38.17, 100 37.5 S 103.66 33.17, 105 32.5 S 108.66 31.83, 110 32.5 S 113.66 36.83, 115 37.5 S 119.49 38.91, 120 37.5 S 123.54 10.36, 125 10 S 129.39 33.63, 130 35 S 133.5 32.5, 135 32.5 S 138.5 35, 140 35 S 143.54 32.14, 145 32.5 S 148.5 37.5, 150 37.5 S 153.5 32.5, 155 32.5 S 158.66 36.83, 160 37.5 S 163.5 37.5, 165 37.5 S 168.5 37.5, 170 37.5 S 173.5 37.5, 175 37.5 S 178.5 37.5, 180 37.5 S 183.5 37.5, 185 37.5 S 188.5 37.5, 190 37.5 S 193.5 37.5, 195 37.5 S 198.5 37.5, 200 37.5 S 203.5 37.5, 205 37.5"
          fill="none"/>
    <circle r="4" cx="5" cy="40" fill="#3023AE"/>
    <circle r="4" cx="205" cy="37.5" fill="#C86DD7"/>      
</svg>