<svg width="200" height="50" viewBox="0 0 210 50" xmlns="http://www.w3.org/2000/svg">
    <defs>
        <linearGradient x1="0%" y1="0%" x2="100%" y2="0%" id="a">
            <stop stop-color="#3023AE" offset="0%"/>
            <stop stop-color="#C86DD7" offset="100%"/>
        </linearGradient>
    </defs>
    <path stroke="url(#a)"
          stroke-width="3"
          stroke-linejoin="round"
          stroke-linecap="round"
          d="M5 40 C 5.87 38.78, 8.59 33.44, 10 32.94 S 13.52 36.21, 15 36.47 S 18.5 34.71, 20 34.71 S 23.59 35.97, 25 36.47 S 28.52 37.98, 30 38.24 S 33.5 38.24, 35 38.24 S 38.5 38.24, 40 38.24 S 43.5 38.24, 45 38.24 S 48.5 38.24, 50 38.24 S 53.5 38.24, 55 38.24 S 58.5 38.24, 60 38.24 S 63.5 38.24, 65 38.24 S 68.88 39.23, 70 38.24 S 74.26 30.72, 75 29.41 S 78.52 20.33, 80 20.59 S 84.13 29.96, 85 31.18 S 88.77 33.84, 90 34.71 S 93.59 37.74, 95 38.24 S 99.5 39.65, 100 38.24 S 103.59 10.5, 105 10 S 109.5 33.3, 110 34.71 S 113.59 37.74, 115 38.24 S 118.5 38.24, 120 38.24 S 123.52 38.5, 125 38.24 S 128.59 36.97, 130 36.47 S 133.52 34.45, 135 34.71 S 138.59 37.74, 140 38.24 S 143.5 38.24, 145 38.24 S 148.5 38.24, 150 38.24 S 153.5 38.24, 155 38.24 S 158.5 38.24, 160 38.24 S 163.5 38.24, 165 38.24 S 168.5 38.24, 170 38.24 S 173.5 38.24, 175 38.24 S 178.5 38.24, 180 38.24 S 183.5 38.24, 185 38.24"
          fill="none"/>
    <circle r="4" cx="5" cy="40" fill="#3023AE"/>
    <circle r="4" cx="185" cy="38.24" fill="#C86DD7"/>      
</svg>