<svg width="200" height="50" viewBox="0 0 210 50" xmlns="http://www.w3.org/2000/svg">
    <defs>
        <linearGradient x1="0%" y1="0%" x2="100%" y2="0%" id="a">
            <stop stop-color="#3023AE" offset="0%"/>
            <stop stop-color="#C86DD7" offset="100%"/>
        </linearGradient>
    </defs>
    <path stroke="url(#a)"
          stroke-width="3"
          stroke-linejoin="round"
          stroke-linecap="round"
          d="M5 40 C 5.71 38.68, 8.53 30.9, 10 30.62 S 13.6 37.59, 15 38.12 S 18.53 34.65, 20 34.37 S 23.6 35.72, 25 36.25 S 28.53 37.84, 30 38.12 S 33.5 38.12, 35 38.12 S 38.5 38.12, 40 38.12 S 43.5 38.12, 45 38.12 S 48.5 38.12, 50 38.12 S 53.5 38.12, 55 38.12 S 58.5 38.12, 60 38.12 S 64.5 39.53, 65 38.12 S 68.69 10.73, 70 10 S 74.29 31.18, 75 32.5 S 78.69 28.02, 80 28.75 S 83.91 37.09, 85 38.12 S 89.09 39.31, 90 38.12 S 94.35 26.35, 95 25 S 99.09 16.31, 100 17.5 S 104.35 36.77, 105 38.12 S 108.6 38.65, 110 38.12 S 113.53 34.65, 115 34.37 S 118.6 35.72, 120 36.25 S 123.53 37.84, 125 38.12 S 128.5 38.12, 130 38.12 S 133.5 38.12, 135 38.12 S 138.5 38.12, 140 38.12 S 143.5 38.12, 145 38.12 S 148.5 38.12, 150 38.12 S 153.5 38.12, 155 38.12 S 158.5 38.12, 160 38.12 S 163.5 38.12, 165 38.12 S 168.5 38.12, 170 38.12 S 173.5 38.12, 175 38.12 S 178.5 38.12, 180 38.12"
          fill="none"/>
    <circle r="4" cx="5" cy="40" fill="#3023AE"/>
    <circle r="4" cx="180" cy="38.12" fill="#C86DD7"/>      
</svg>