<svg width="200" height="50" viewBox="0 0 210 50" xmlns="http://www.w3.org/2000/svg">
    <defs>
        <linearGradient x1="0%" y1="0%" x2="100%" y2="0%" id="a">
            <stop stop-color="#3023AE" offset="0%"/>
            <stop stop-color="#C86DD7" offset="100%"/>
        </linearGradient>
    </defs>
    <path stroke="url(#a)"
          stroke-width="3"
          stroke-linejoin="round"
          stroke-linecap="round"
          d="M5 40 C 5.25 38.52, 8.54 10.32, 10 10 S 14.5 36.37, 15 37.79 S 18.51 38.41, 20 38.55 S 23.5 38.69, 25 38.71 S 28.5 38.72, 30 38.68 S 33.5 38.49, 35 38.43 S 38.5 38.37, 40 38.3 S 43.5 37.91, 45 37.94 S 48.98 39.61, 50 38.51 S 53.51 27.42, 55 27.21 S 58.98 36, 60 37.1 S 63.5 37.94, 65 38.04 S 68.5 37.7, 70 37.76 S 73.5 38.36, 75 38.45 S 78.5 38.32, 80 38.35 S 83.5 38.58, 85 38.66 S 88.52 39.12, 90 38.86 S 93.51 37.11, 95 36.92 S 98.5 37.69, 100 37.58 S 103.5 36.08, 105 36.2 S 108.55 38, 110 38.38 S 113.5 38.79, 115 38.81 S 118.5 38.62, 120 38.52 S 123.5 38.08, 125 38.14 S 128.5 38.79, 130 38.89 S 133.5 38.9, 135 38.81 S 138.5 38.27, 140 38.27 S 143.5 38.74, 145 38.83 S 148.5 38.87, 150 38.87 S 153.5 38.88, 155 38.82 S 158.5 38.51, 160 38.48 S 163.5 38.54, 165 38.61 S 168.5 38.96, 170 38.97 S 173.5 38.71, 175 38.69 S 178.5 38.77, 180 38.83 S 183.5 39.08, 185 39.09 S 188.5 38.93, 190 38.89 S 193.5 38.79, 195 38.83 S 198.5 39.09, 200 39.13 S 203.5 39.09, 205 39.07"
          fill="none"/>
    <circle r="4" cx="5" cy="40" fill="#3023AE"/>
    <circle r="4" cx="205" cy="39.07" fill="#C86DD7"/>      
</svg>