<svg width="200" height="50" viewBox="0 0 210 50" xmlns="http://www.w3.org/2000/svg">
    <defs>
        <linearGradient x1="0%" y1="0%" x2="100%" y2="0%" id="a">
            <stop stop-color="#3023AE" offset="0%"/>
            <stop stop-color="#C86DD7" offset="100%"/>
        </linearGradient>
    </defs>
    <path stroke="url(#a)"
          stroke-width="3"
          stroke-linejoin="round"
          stroke-linecap="round"
          d="M5 40 C 5.25 38.52, 8.64 10.62, 10 10 S 14.52 34, 15 35.42 S 18.51 39.34, 20 39.49 S 23.55 36.81, 25 36.44 S 28.55 36.58, 30 36.95 S 33.53 38.68, 35 38.98 S 38.5 38.9, 40 38.98 S 43.5 39.41, 45 39.49 S 48.5 39.49, 50 39.49 S 53.5 39.57, 55 39.49 S 58.5 38.98, 60 38.98 S 63.5 39.41, 65 39.49 S 68.55 39.86, 70 39.49 S 73.5 36.95, 75 36.95 S 78.61 40.06, 80 39.49 S 83.92 33.92, 85 32.88 S 88.61 29.26, 90 29.83 S 93.86 35.97, 95 36.95 S 98.55 38.1, 100 38.47 S 103.5 39.56, 105 39.49 S 108.5 38.05, 110 37.97 S 113.51 38.83, 115 38.98 S 118.5 39.06, 120 38.98 S 123.5 38.39, 125 38.47 S 128.51 39.34, 130 39.49 S 133.5 39.57, 135 39.49 S 138.55 39.35, 140 38.98 S 143.5 36.87, 145 36.95 S 148.55 39.12, 150 39.49 S 153.53 39.79, 155 39.49 S 158.51 37.61, 160 37.46 S 163.52 38.24, 165 38.47 S 168.51 38.83, 170 38.98 S 173.5 39.49, 175 39.49 S 178.5 39.06, 180 38.98 S 183.5 39.06, 185 38.98 S 188.5 38.39, 190 38.47 S 193.51 39.34, 195 39.49 S 198.5 39.57, 200 39.49 S 203.51 39.13, 205 38.98"
          fill="none"/>
    <circle r="4" cx="5" cy="40" fill="#3023AE"/>
    <circle r="4" cx="205" cy="38.98" fill="#C86DD7"/>      
</svg>