<svg width="200" height="50" viewBox="0 0 210 50" xmlns="http://www.w3.org/2000/svg">
    <defs>
        <linearGradient x1="0%" y1="0%" x2="100%" y2="0%" id="a">
            <stop stop-color="#3023AE" offset="0%"/>
            <stop stop-color="#C86DD7" offset="100%"/>
        </linearGradient>
    </defs>
    <path stroke="url(#a)"
          stroke-width="3"
          stroke-linejoin="round"
          stroke-linecap="round"
          d="M5 40 C 5.36 38.54, 9.33 21.34, 10 20 S 14.23 18.71, 15 20 S 19.23 35.38, 20 36.67 S 23.58 37.15, 25 36.67 S 28.75 34.16, 30 33.33 S 33.58 29.52, 35 30 S 38.58 36.2, 40 36.67 S 43.58 33.81, 45 33.33 S 48.58 32.85, 50 33.33 S 53.58 36.19, 55 36.67 S 58.5 36.67, 60 36.67 S 63.5 36.67, 65 36.67 S 68.75 37.5, 70 36.67 S 73.75 30.83, 75 30 S 78.75 30.83, 80 30 S 83.5 23.33, 85 23.33 S 88.5 30, 90 30 S 93.75 22.5, 95 23.33 S 98.94 35.61, 100 36.67 S 103.75 34.16, 105 33.33 S 108.5 30, 110 30 S 113.75 32.5, 115 33.33 S 118.5 36.67, 120 36.67 S 123.58 33.81, 125 33.33 S 128.58 33.8, 130 33.33 S 133.58 29.52, 135 30 S 138.5 36.67, 140 36.67 S 144.23 31.29, 145 30 S 148.58 19.53, 150 20 S 154.1 32.13, 155 33.33 S 158.5 33.33, 160 33.33 S 163.58 33.8, 165 33.33 S 168.58 30.47, 170 30 S 173.58 29.53, 175 30 S 178.5 33.33, 180 33.33 S 183.58 29.52, 185 30 S 189.33 38.01, 190 36.67 S 193.75 10.83, 195 10 S 199.41 28.62, 200 30 S 203.75 32.5, 205 33.33"
          fill="none"/>
    <circle r="4" cx="5" cy="40" fill="#3023AE"/>
    <circle r="4" cx="205" cy="33.33" fill="#C86DD7"/>      
</svg>