<svg width="200" height="50" viewBox="0 0 210 50" xmlns="http://www.w3.org/2000/svg">
    <defs>
        <linearGradient x1="0%" y1="0%" x2="100%" y2="0%" id="a">
            <stop stop-color="#3023AE" offset="0%"/>
            <stop stop-color="#C86DD7" offset="100%"/>
        </linearGradient>
    </defs>
    <path stroke="url(#a)"
          stroke-width="3"
          stroke-linejoin="round"
          stroke-linecap="round"
          d="M5 40 C 5.25 38.52, 8.92 11.04, 10 10 S 14.34 29.07, 15 30.42 S 18.52 30.67, 20 30.42 S 23.64 29.38, 25 28.75 S 28.5 25.89, 30 25.83 S 33.58 27.85, 35 28.33 S 38.53 28.86, 40 29.17 S 43.5 30.36, 45 30.42 S 48.62 30.16, 50 29.58 S 53.51 26.12, 55 26.25 S 58.68 29.71, 60 30.42 S 63.68 32.38, 65 31.67 S 68.53 25.31, 70 25 S 73.6 29.05, 75 29.58 S 78.51 28.62, 80 28.75 S 83.53 30.73, 85 30.42 S 88.51 26.8, 90 26.67 S 93.53 29.27, 95 29.58 S 98.54 28.39, 100 28.75 S 103.62 32.66, 105 32.08 S 108.62 25.16, 110 24.58 S 113.62 27.34, 115 27.92 S 118.51 28.56, 120 28.75 S 123.51 29.29, 125 29.17 S 128.53 28.23, 130 27.92 S 133.51 26.96, 135 27.08 S 138.51 28.87, 140 28.75 S 143.52 26, 145 26.25 S 148.51 30.3, 150 30.42 S 153.68 27.79, 155 27.08 S 158.51 24.81, 160 25 S 163.64 27.71, 165 28.33 S 168.66 28.91, 170 29.58 S 173.56 33.75, 175 33.33 S 178.7 27.43, 180 26.67 S 183.56 27.08, 185 27.5 S 188.53 29.27, 190 29.58 S 193.5 29.52, 195 29.58 S 198.51 29.87, 200 30 S 203.51 30.29, 205 30.42"
          fill="none"/>
    <circle r="4" cx="5" cy="40" fill="#3023AE"/>
    <circle r="4" cx="205" cy="30.42" fill="#C86DD7"/>      
</svg>