<svg width="200" height="50" viewBox="0 0 210 50" xmlns="http://www.w3.org/2000/svg">
    <defs>
        <linearGradient x1="0%" y1="0%" x2="100%" y2="0%" id="a">
            <stop stop-color="#3023AE" offset="0%"/>
            <stop stop-color="#C86DD7" offset="100%"/>
        </linearGradient>
    </defs>
    <path stroke="url(#a)"
          stroke-width="3"
          stroke-linejoin="round"
          stroke-linecap="round"
          d="M5 40 C 6.19 39.08, 8.53 36.45, 10 36.14 S 13.55 37.49, 15 37.86 S 18.51 38.52, 20 38.71 S 23.5 39.2, 25 39.14 S 28.76 39.14, 30 38.29 S 33.55 32.66, 35 32.29 S 38.58 35.22, 40 35.71 S 43.52 35.96, 45 35.71 S 48.5 34, 50 34 S 53.56 35.28, 55 35.71 S 58.52 37.25, 60 37 S 63.86 34.98, 65 34 S 68.51 28.62, 70 28.43 S 73.76 31.86, 75 32.71 S 78.52 35.54, 80 35.29 S 83.51 31.19, 85 31 S 88.58 33.51, 90 34 S 93.52 34.68, 95 34.43 S 98.51 32.1, 100 32.29 S 103.69 36.44, 105 35.71 S 108.71 27.48, 110 26.71 S 113.58 29.22, 115 29.71 S 118.5 30.14, 120 30.14 S 123.5 29.71, 125 29.71 S 128.53 30.45, 130 30.14 S 133.62 28.16, 135 27.57 S 138.81 26.78, 140 25.86 S 143.52 19.61, 145 19.86 S 148.55 27.2, 150 27.57 S 153.52 22.68, 155 22.43 S 158.67 25.17, 160 25.86 S 163.91 28.6, 165 27.57 S 168.51 16.56, 170 16.43 S 173.86 25.73, 175 26.71 S 178.67 25.69, 180 25 S 184.17 22.82, 185 21.57 S 188.5 9.94, 190 10 S 194.1 20.8, 195 22 S 198.5 23.23, 200 23.29 S 203.52 22.68, 205 22.43"
          fill="none"/>
    <circle r="4" cx="5" cy="40" fill="#3023AE"/>
    <circle r="4" cx="205" cy="22.43" fill="#C86DD7"/>      
</svg>