<svg width="200" height="50" viewBox="0 0 210 50" xmlns="http://www.w3.org/2000/svg">
    <defs>
        <linearGradient x1="0%" y1="0%" x2="100%" y2="0%" id="a">
            <stop stop-color="#3023AE" offset="0%"/>
            <stop stop-color="#C86DD7" offset="100%"/>
        </linearGradient>
    </defs>
    <path stroke="url(#a)"
          stroke-width="3"
          stroke-linejoin="round"
          stroke-linecap="round"
          d="M5 40 C 5.25 38.52, 9.16 11.24, 10 10 S 14.41 23.74, 15 25.12 S 18.87 32.44, 20 33.43 S 23.56 33.48, 25 33.88 S 28.61 35.67, 30 36.23 S 33.53 37.58, 35 37.89 S 38.51 38.16, 40 38.34 S 43.5 39.14, 45 39.13 S 48.5 38.28, 50 38.27 S 53.5 38.97, 55 39.07 S 58.5 38.97, 60 38.93 S 63.5 38.72, 65 38.79 S 68.5 39.36, 70 39.41 S 73.5 39.15, 75 39.13 S 78.5 39.22, 80 39.27 S 83.5 39.46, 85 39.48 S 88.5 39.4, 90 39.41 S 93.5 39.53, 95 39.58 S 98.5 39.7, 100 39.72 S 103.5 39.73, 105 39.72 S 108.5 39.63, 110 39.65 S 113.5 39.81, 115 39.83 S 118.5 39.79, 120 39.79 S 123.5 39.87, 125 39.86 S 128.5 39.72, 130 39.72 S 133.5 39.81, 135 39.83 S 138.5 39.84, 140 39.83 S 143.5 39.78, 145 39.79 S 148.5 39.97, 150 39.93 S 153.5 39.55, 155 39.55 S 158.5 39.85, 160 39.9 S 163.5 39.87, 165 39.86 S 168.5 39.85, 170 39.86 S 173.5 39.89, 175 39.9 S 178.5 39.92, 180 39.93 S 183.5 39.96, 185 39.97 S 188.5 40, 190 39.97 S 193.5 39.81, 195 39.79 S 198.5 39.84, 200 39.86 S 203.5 39.91, 205 39.93"
          fill="none"/>
    <circle r="4" cx="5" cy="40" fill="#3023AE"/>
    <circle r="4" cx="205" cy="39.93" fill="#C86DD7"/>      
</svg>