<svg width="200" height="50" viewBox="0 0 210 50" xmlns="http://www.w3.org/2000/svg">
    <defs>
        <linearGradient x1="0%" y1="0%" x2="100%" y2="0%" id="a">
            <stop stop-color="#3023AE" offset="0%"/>
            <stop stop-color="#C86DD7" offset="100%"/>
        </linearGradient>
    </defs>
    <path stroke="url(#a)"
          stroke-width="3"
          stroke-linejoin="round"
          stroke-linecap="round"
          d="M5 40 C 5.32 38.53, 8.5 17.25, 10 17.14 S 14.38 37.92, 15 39.29 S 18.5 39.29, 20 39.29 S 23.5 39.29, 25 39.29 S 28.5 39.29, 30 39.29 S 33.5 39.29, 35 39.29 S 38.5 39.29, 40 39.29 S 43.5 39.29, 45 39.29 S 48.5 39.29, 50 39.29 S 53.5 39.29, 55 39.29 S 58.5 39.29, 60 39.29 S 63.5 39.29, 65 39.29 S 68.5 39.29, 70 39.29 S 73.5 39.29, 75 39.29 S 78.5 39.29, 80 39.29 S 83.5 39.29, 85 39.29 S 88.5 39.29, 90 39.29 S 93.5 39.29, 95 39.29 S 98.5 39.29, 100 39.29 S 103.5 39.29, 105 39.29 S 108.5 39.29, 110 39.29 S 113.5 39.29, 115 39.29 S 118.5 39.29, 120 39.29 S 124.52 40.71, 125 39.29 S 128.5 10, 130 10 S 134.52 37.87, 135 39.29 S 138.5 39.29, 140 39.29 S 143.5 39.29, 145 39.29 S 148.5 39.29, 150 39.29 S 153.5 39.29, 155 39.29 S 158.5 39.29, 160 39.29"
          fill="none"/>
    <circle r="4" cx="5" cy="40" fill="#3023AE"/>
    <circle r="4" cx="160" cy="39.29" fill="#C86DD7"/>      
</svg>