<svg width="200" height="50" viewBox="0 0 210 50" xmlns="http://www.w3.org/2000/svg">
    <defs>
        <linearGradient x1="0%" y1="0%" x2="100%" y2="0%" id="a">
            <stop stop-color="#3023AE" offset="0%"/>
            <stop stop-color="#C86DD7" offset="100%"/>
        </linearGradient>
    </defs>
    <path stroke="url(#a)"
          stroke-width="3"
          stroke-linejoin="round"
          stroke-linecap="round"
          d="M5 40 C 6.5 39.98, 8.5 39.93, 10 39.92 S 13.5 39.92, 15 39.92 S 18.5 39.92, 20 39.92 S 23.5 39.92, 25 39.92 S 28.5 39.92, 30 39.92 S 33.5 39.92, 35 39.92 S 38.5 39.92, 40 39.92 S 43.5 39.92, 45 39.92 S 48.5 39.92, 50 39.92 S 53.5 39.92, 55 39.92 S 58.5 39.92, 60 39.92 S 63.5 39.92, 65 39.92 S 68.5 39.92, 70 39.92 S 73.5 39.92, 75 39.92 S 78.5 39.92, 80 39.92 S 83.5 39.92, 85 39.92 S 88.5 39.92, 90 39.92 S 93.5 39.92, 95 39.92 S 98.5 39.92, 100 39.92 S 103.5 39.92, 105 39.92 S 109.52 41.34, 110 39.92 S 113.71 10.76, 115 10 S 119.51 32.58, 120 34 S 123.55 38.41, 125 38.78 S 128.5 36.55, 130 36.51 S 133.71 39.25, 135 38.48 S 138.52 30.81, 140 30.58 S 143.78 36.09, 145 36.96 S 148.52 37.39, 150 37.65 S 153.53 39, 155 38.71 S 158.51 35.86, 160 35.67 S 163.56 37.01, 165 37.42 S 168.59 38.99, 170 38.48 S 173.5 33.88, 175 33.77 S 178.66 37.05, 180 37.72 S 183.5 38.82, 185 38.78 S 188.5 37.43, 190 37.42 S 193.51 38.55, 195 38.71 S 198.57 38.93, 200 38.48 S 203.7 36.34, 205 35.59"
          fill="none"/>
    <circle r="4" cx="5" cy="40" fill="#3023AE"/>
    <circle r="4" cx="205" cy="35.59" fill="#C86DD7"/>      
</svg>