<svg width="200" height="50" viewBox="0 0 210 50" xmlns="http://www.w3.org/2000/svg">
    <defs>
        <linearGradient x1="0%" y1="0%" x2="100%" y2="0%" id="a">
            <stop stop-color="#3023AE" offset="0%"/>
            <stop stop-color="#C86DD7" offset="100%"/>
        </linearGradient>
    </defs>
    <path stroke="url(#a)"
          stroke-width="3"
          stroke-linejoin="round"
          stroke-linecap="round"
          d="M5 40 C 6.5 39.97, 8.5 39.9, 10 39.89 S 13.5 39.95, 15 39.96 S 18.5 39.99, 20 39.99 S 23.5 39.98, 25 39.98 S 28.52 40.24, 30 39.98 S 33.5 38.22, 35 38.2 S 38.51 39.7, 40 39.85 S 44.52 40.6, 45 39.18 S 48.71 10.77, 50 10 S 54.49 31.84, 55 33.25 S 58.68 37.25, 60 37.95 S 63.5 38.55, 65 38.57 S 68.5 38.12, 70 38.11 S 73.5 38.42, 75 38.49 S 78.5 38.64, 80 38.58 S 83.52 38.38, 85 38.12 S 88.5 36.86, 90 36.79 S 93.5 37.53, 95 37.62 S 98.5 37.41, 100 37.38 S 103.81 38.32, 105 37.41 S 108.5 29.84, 110 29.75 S 113.82 35.85, 115 36.78 S 118.5 37.57, 120 37.67 S 123.5 37.55, 125 37.48 S 128.52 37.48, 130 37.21 S 133.5 35.76, 135 35.67 S 138.51 36.47, 140 36.62 S 143.5 36.64, 145 36.7 S 148.5 37.04, 150 37.05 S 153.51 36.95, 155 36.77 S 158.5 35.83, 160 35.84 S 163.5 36.71, 165 36.83 S 168.53 36.91, 170 36.63 S 174.2 36.19, 175 34.92 S 178.5 20.61, 180 20.68 S 184.13 34.15, 185 35.37 S 188.52 35, 190 34.76 S 193.5 33.78, 195 33.75 S 198.56 35.02, 200 34.59 S 203.81 31.65, 205 30.73"
          fill="none"/>
    <circle r="4" cx="5" cy="40" fill="#3023AE"/>
    <circle r="4" cx="205" cy="30.73" fill="#C86DD7"/>      
</svg>