<svg width="200" height="50" viewBox="0 0 210 50" xmlns="http://www.w3.org/2000/svg">
    <defs>
        <linearGradient x1="0%" y1="0%" x2="100%" y2="0%" id="a">
            <stop stop-color="#3023AE" offset="0%"/>
            <stop stop-color="#C86DD7" offset="100%"/>
        </linearGradient>
    </defs>
    <path stroke="url(#a)"
          stroke-width="3"
          stroke-linejoin="round"
          stroke-linecap="round"
          d="M5 40 C 5.25 38.52, 9.04 11.16, 10 10 S 14.47 26.51, 15 27.91 S 18.96 35.45, 20 36.53 S 23.51 38.57, 25 38.36 S 28.55 35.49, 30 35.12 S 33.57 35.33, 35 35.79 S 38.57 37.91, 40 38.37 S 43.5 38.96, 45 39.05 S 48.5 38.96, 50 38.98 S 53.5 39.15, 55 39.19 S 58.5 39.21, 60 39.24 S 63.5 39.34, 65 39.38 S 68.5 39.48, 70 39.48 S 73.5 39.35, 75 39.35 S 78.5 39.47, 80 39.5 S 83.5 39.55, 85 39.57 S 88.5 39.66, 90 39.65 S 93.5 39.53, 95 39.52 S 98.5 39.59, 100 39.6 S 103.5 39.59, 105 39.59 S 108.5 39.62, 110 39.58 S 113.5 39.38, 115 39.32 S 118.5 39.16, 120 39.19 S 123.5 39.45, 125 39.51 S 128.5 39.54, 130 39.56 S 133.5 39.63, 135 39.63 S 138.5 39.56, 140 39.58 S 143.5 39.79, 145 39.76 S 148.5 39.38, 150 39.35 S 153.5 39.5, 155 39.55 S 158.5 39.69, 160 39.69 S 163.5 39.6, 165 39.58 S 168.5 39.56, 170 39.56 S 173.5 39.59, 175 39.6 S 178.5 39.64, 180 39.64 S 183.5 39.61, 185 39.6 S 188.5 39.54, 190 39.55 S 193.5 39.64, 195 39.64 S 198.5 39.56, 200 39.55 S 203.5 39.58, 205 39.59"
          fill="none"/>
    <circle r="4" cx="5" cy="40" fill="#3023AE"/>
    <circle r="4" cx="205" cy="39.59" fill="#C86DD7"/>      
</svg>