<svg width="200" height="50" viewBox="0 0 210 50" xmlns="http://www.w3.org/2000/svg">
    <defs>
        <linearGradient x1="0%" y1="0%" x2="100%" y2="0%" id="a">
            <stop stop-color="#3023AE" offset="0%"/>
            <stop stop-color="#C86DD7" offset="100%"/>
        </linearGradient>
    </defs>
    <path stroke="url(#a)"
          stroke-width="3"
          stroke-linejoin="round"
          stroke-linecap="round"
          d="M5 40 C 5.25 38.52, 8.5 10.11, 10 10 S 14.52 37.84, 15 39.26 S 18.5 39.46, 20 39.54 S 23.5 39.79, 25 39.79 S 28.5 39.53, 30 39.54 S 33.5 39.81, 35 39.86 S 38.5 39.89, 40 39.89 S 43.51 40.07, 45 39.89 S 48.55 39.09, 50 38.7 S 53.88 38.22, 55 37.22 S 58.66 30.38, 60 29.71 S 63.66 31.53, 65 32.2 S 68.54 34.32, 70 34.66 S 73.52 34.73, 75 34.52 S 78.5 33.2, 80 33.22 S 83.5 34.77, 85 34.66 S 88.79 33.37, 90 32.48 S 93.5 27.43, 95 27.32 S 98.61 31.17, 100 31.74 S 103.55 31.76, 105 31.39 S 108.84 30.17, 110 29.22 S 113.68 23.87, 115 23.17 S 118.61 24.46, 120 23.91 S 123.82 20.12, 125 19.2 S 128.55 15.73, 130 16.11 S 133.58 21.36, 135 21.84 S 138.58 20.02, 140 19.52 S 143.56 17.92, 145 18.33 S 148.61 21.77, 150 22.33 S 153.73 23.13, 155 22.33 S 158.51 16.17, 160 16.04 S 163.71 20.69, 165 21.45 S 168.5 21.82, 170 21.94 S 173.56 22.63, 175 22.22 S 178.54 19.49, 180 19.13 S 183.5 19.85, 185 19.77 S 188.61 18.04, 190 18.61 S 193.51 24.02, 195 23.84 S 198.51 17.23, 200 17.41 S 204.18 23.79, 205 25.04"
          fill="none"/>
    <circle r="4" cx="5" cy="40" fill="#3023AE"/>
    <circle r="4" cx="205" cy="25.04" fill="#C86DD7"/>      
</svg>