<svg width="200" height="50" viewBox="0 0 210 50" xmlns="http://www.w3.org/2000/svg">
    <defs>
        <linearGradient x1="0%" y1="0%" x2="100%" y2="0%" id="a">
            <stop stop-color="#3023AE" offset="0%"/>
            <stop stop-color="#C86DD7" offset="100%"/>
        </linearGradient>
    </defs>
    <path stroke="url(#a)"
          stroke-width="3"
          stroke-linejoin="round"
          stroke-linecap="round"
          d="M5 40 C 6.45 39.62, 8.51 38.89, 10 38.7 S 13.5 38.7, 15 38.7 S 18.5 38.7, 20 38.7 S 23.67 39.39, 25 38.7 S 28.55 33.86, 30 33.48 S 33.51 35.9, 35 36.09 S 38.51 34.97, 40 34.78 S 43.6 35.33, 45 34.78 S 48.89 31.88, 50 30.87 S 53.6 26.2, 55 25.65 S 58.55 27.34, 60 26.96 S 63.51 23.23, 65 23.04 S 68.82 24.73, 70 25.65 S 73.67 30.18, 75 30.87 S 78.6 31.42, 80 30.87 S 83.89 27.97, 85 26.96 S 88.67 21.05, 90 21.74 S 93.6 32.72, 95 32.17 S 99.24 19.12, 100 17.83 S 103.82 16.14, 105 15.22 S 108.6 9.45, 110 10 S 114.19 17.87, 115 19.13 S 118.51 25.46, 120 25.65 S 123.74 21.25, 125 20.43 S 128.67 19.82, 130 19.13 S 134.14 13.99, 135 15.22 S 138.67 32.79, 140 33.48 S 143.55 20.81, 145 20.43 S 148.51 31.06, 150 30.87 S 153.6 19.68, 155 19.13 S 158.67 26.27, 160 26.96 S 163.5 24.35, 165 24.35 S 168.74 27.78, 170 26.96 S 173.6 18.38, 175 17.83 S 178.96 21.96, 180 23.04 S 183.55 27.88, 185 28.26 S 189.28 26.97, 190 25.65 S 193.74 10.82, 195 10 S 198.89 18.12, 200 19.13 S 203.5 19.13, 205 19.13"
          fill="none"/>
    <circle r="4" cx="5" cy="40" fill="#3023AE"/>
    <circle r="4" cx="205" cy="19.13" fill="#C86DD7"/>      
</svg>