<svg width="200" height="50" viewBox="0 0 210 50" xmlns="http://www.w3.org/2000/svg">
    <defs>
        <linearGradient x1="0%" y1="0%" x2="100%" y2="0%" id="a">
            <stop stop-color="#3023AE" offset="0%"/>
            <stop stop-color="#C86DD7" offset="100%"/>
        </linearGradient>
    </defs>
    <path stroke="url(#a)"
          stroke-width="3"
          stroke-linejoin="round"
          stroke-linecap="round"
          d="M5 40 C 6.49 39.79, 8.5 39.36, 10 39.31 S 13.5 39.61, 15 39.66 S 18.5 39.66, 20 39.66 S 23.5 39.66, 25 39.66 S 28.5 39.66, 30 39.66 S 33.5 39.66, 35 39.66 S 38.5 39.66, 40 39.66 S 43.5 39.66, 45 39.66 S 48.5 39.66, 50 39.66 S 53.5 39.66, 55 39.66 S 58.5 39.66, 60 39.66 S 63.5 39.66, 65 39.66 S 68.5 39.66, 70 39.66 S 73.5 39.66, 75 39.66 S 78.71 40.42, 80 39.66 S 83.58 34.28, 85 33.79 S 88.55 35.81, 90 36.21 S 93.53 36.25, 95 36.55 S 98.57 37.83, 100 38.28 S 103.51 39.45, 105 39.66 S 108.5 39.66, 110 39.66 S 113.57 40.11, 115 39.66 S 118.5 36.65, 120 36.55 S 123.57 38.52, 125 38.97 S 128.5 39.56, 130 39.66 S 133.5 39.66, 135 39.66 S 138.5 39.66, 140 39.66 S 143.5 39.66, 145 39.66 S 149.52 41.08, 150 39.66 S 153.51 10.16, 155 10 S 159.52 37.2, 160 38.62 S 163.5 39.31, 165 39.31 S 168.5 38.57, 170 38.62 S 173.51 39.5, 175 39.66 S 178.5 39.66, 180 39.66"
          fill="none"/>
    <circle r="4" cx="5" cy="40" fill="#3023AE"/>
    <circle r="4" cx="180" cy="39.66" fill="#C86DD7"/>      
</svg>