<svg width="200" height="50" viewBox="0 0 210 50" xmlns="http://www.w3.org/2000/svg">
    <defs>
        <linearGradient x1="0%" y1="0%" x2="100%" y2="0%" id="a">
            <stop stop-color="#3023AE" offset="0%"/>
            <stop stop-color="#C86DD7" offset="100%"/>
        </linearGradient>
    </defs>
    <path stroke="url(#a)"
          stroke-width="3"
          stroke-linejoin="round"
          stroke-linecap="round"
          d="M5 40 C 5.25 38.52, 9.45 11.39, 10 10 S 14.34 13.39, 15 14.74 S 19.34 29.18, 20 30.53 S 23.73 34.46, 25 35.26 S 28.64 37.48, 30 36.84 S 33.57 30.98, 35 30.53 S 38.64 33.04, 40 33.68 S 43.5 35.26, 45 35.26 S 48.5 33.68, 50 33.68 S 53.64 34.62, 55 35.26 S 58.52 38.19, 60 38.42 S 63.57 37.29, 65 36.84 S 68.52 35.03, 70 35.26 S 73.52 38.19, 75 38.42 S 78.57 37.29, 80 36.84 S 83.5 35.26, 85 35.26 S 88.57 36.39, 90 36.84 S 93.52 38.19, 95 38.42 S 98.52 38.65, 100 38.42 S 103.52 37.07, 105 36.84 S 108.52 37.07, 110 36.84 S 113.52 35.49, 115 35.26 S 118.57 35.71, 120 35.26 S 123.52 31.88, 125 32.11 S 128.5 36.84, 130 36.84 S 133.52 32.34, 135 32.11 S 138.64 34.62, 140 35.26 S 143.57 36.39, 145 36.84 S 148.52 38.19, 150 38.42 S 153.73 39.22, 155 38.42 S 158.52 32.34, 160 32.11 S 163.73 36.04, 165 36.84 S 168.52 38.19, 170 38.42 S 173.5 38.42, 175 38.42 S 178.57 38.87, 180 38.42 S 183.5 35.26, 185 35.26 S 188.5 38.42, 190 38.42 S 193.64 35.9, 195 35.26 S 198.5 33.68, 200 33.68 S 203.57 34.81, 205 35.26"
          fill="none"/>
    <circle r="4" cx="5" cy="40" fill="#3023AE"/>
    <circle r="4" cx="205" cy="35.26" fill="#C86DD7"/>      
</svg>