<svg width="200" height="50" viewBox="0 0 210 50" xmlns="http://www.w3.org/2000/svg">
    <defs>
        <linearGradient x1="0%" y1="0%" x2="100%" y2="0%" id="a">
            <stop stop-color="#3023AE" offset="0%"/>
            <stop stop-color="#C86DD7" offset="100%"/>
        </linearGradient>
    </defs>
    <path stroke="url(#a)"
          stroke-width="3"
          stroke-linejoin="round"
          stroke-linecap="round"
          d="M5 40 C 5.25 38.52, 9.4 11.38, 10 10 S 14.31 15.73, 15 17.06 S 19.2 28.14, 20 29.41 S 23.59 32.44, 25 32.94 S 28.77 33.81, 30 32.94 S 34.06 27.05, 35 25.88 S 38.97 19.5, 40 20.59 S 43.77 35.6, 45 36.47 S 48.52 27.39, 50 27.65 S 53.97 37.15, 55 38.24 S 58.5 38.24, 60 38.24 S 63.67 38.94, 65 38.24 S 68.5 32.94, 70 32.94 S 73.59 37.74, 75 38.24 S 78.5 36.47, 80 36.47 S 83.52 37.98, 85 38.24 S 88.5 38.24, 90 38.24 S 93.5 38.24, 95 38.24 S 98.5 38.24, 100 38.24 S 103.5 38.24, 105 38.24 S 108.5 38.24, 110 38.24 S 113.5 38.24, 115 38.24 S 118.5 38.24, 120 38.24 S 123.5 38.24, 125 38.24 S 128.5 38.24, 130 38.24 S 133.5 38.24, 135 38.24 S 138.5 38.24, 140 38.24 S 144.2 39.51, 145 38.24 S 148.5 22.35, 150 22.35 S 154.13 37.02, 155 38.24 S 158.5 36.47, 160 36.47 S 163.5 38.24, 165 38.24 S 168.5 36.47, 170 36.47 S 173.52 37.98, 175 38.24 S 178.5 38.24, 180 38.24 S 183.5 38.24, 185 38.24 S 188.5 38.24, 190 38.24 S 193.5 38.24, 195 38.24 S 198.5 38.24, 200 38.24"
          fill="none"/>
    <circle r="4" cx="5" cy="40" fill="#3023AE"/>
    <circle r="4" cx="200" cy="38.24" fill="#C86DD7"/>      
</svg>