<svg width="200" height="50" viewBox="0 0 210 50" xmlns="http://www.w3.org/2000/svg">
    <defs>
        <linearGradient x1="0%" y1="0%" x2="100%" y2="0%" id="a">
            <stop stop-color="#3023AE" offset="0%"/>
            <stop stop-color="#C86DD7" offset="100%"/>
        </linearGradient>
    </defs>
    <path stroke="url(#a)"
          stroke-width="3"
          stroke-linejoin="round"
          stroke-linecap="round"
          d="M5 40 C 5.25 38.52, 8.6 10.55, 10 10 S 14.51 34.67, 15 36.09 S 18.55 38.32, 20 38.7 S 23.5 38.7, 25 38.7 S 28.5 38.7, 30 38.7 S 33.5 38.7, 35 38.7 S 38.5 38.7, 40 38.7 S 43.5 38.7, 45 38.7 S 48.5 38.7, 50 38.7 S 53.5 38.7, 55 38.7 S 58.5 38.7, 60 38.7 S 63.5 38.7, 65 38.7 S 68.5 38.7, 70 38.7 S 73.5 38.7, 75 38.7 S 78.5 38.7, 80 38.7 S 83.55 39.08, 85 38.7 S 88.5 36.09, 90 36.09 S 93.55 38.32, 95 38.7 S 98.5 38.7, 100 38.7 S 103.5 38.7, 105 38.7 S 108.5 38.7, 110 38.7 S 113.5 38.7, 115 38.7 S 118.5 38.7, 120 38.7 S 123.5 38.7, 125 38.7 S 128.5 38.7, 130 38.7 S 133.5 38.7, 135 38.7 S 138.5 38.7, 140 38.7 S 143.5 38.7, 145 38.7 S 148.5 38.7, 150 38.7 S 153.5 38.7, 155 38.7 S 158.5 38.7, 160 38.7 S 163.5 38.7, 165 38.7 S 168.5 38.7, 170 38.7 S 173.5 38.7, 175 38.7 S 178.5 38.7, 180 38.7 S 184.14 39.93, 185 38.7 S 188.5 24.35, 190 24.35 S 194.14 37.47, 195 38.7 S 198.74 39.52, 200 38.7 S 204.09 33.36, 205 32.17"
          fill="none"/>
    <circle r="4" cx="5" cy="40" fill="#3023AE"/>
    <circle r="4" cx="205" cy="32.17" fill="#C86DD7"/>      
</svg>