<svg width="200" height="50" viewBox="0 0 210 50" xmlns="http://www.w3.org/2000/svg">
    <defs>
        <linearGradient x1="0%" y1="0%" x2="100%" y2="0%" id="a">
            <stop stop-color="#3023AE" offset="0%"/>
            <stop stop-color="#C86DD7" offset="100%"/>
        </linearGradient>
    </defs>
    <path stroke="url(#a)"
          stroke-width="3"
          stroke-linejoin="round"
          stroke-linecap="round"
          d="M5 40 C 6.48 39.77, 8.5 39.22, 10 39.21 S 13.5 39.81, 15 39.93 S 18.5 39.99, 20 40 S 23.5 39.98, 25 39.98 S 28.5 39.98, 30 39.98 S 33.5 40, 35 40 S 38.5 40, 40 39.99 S 43.5 39.97, 45 39.96 S 48.5 39.94, 50 39.94 S 54.52 41.35, 55 39.93 S 58.58 10.48, 60 10 S 64.46 35.17, 65 36.57 S 68.53 35.51, 70 35.83 S 73.58 38.26, 75 38.74 S 78.5 39.12, 80 39.23 S 83.5 39.41, 85 39.46 S 88.5 39.54, 90 39.54 S 93.5 39.46, 95 39.46 S 98.5 39.54, 100 39.51 S 103.5 39.28, 105 39.26 S 108.5 39.45, 110 39.36 S 113.5 38.64, 115 38.67 S 118.5 39.49, 120 39.58 S 123.5 39.38, 125 39.26 S 128.5 38.87, 130 38.81 S 133.5 38.78, 135 38.83 S 138.55 39.56, 140 39.16 S 143.5 36.09, 145 36.05 S 148.56 38.46, 150 38.87 S 153.5 38.98, 155 38.87 S 158.51 38.36, 160 38.16 S 163.51 37.4, 165 37.54 S 168.53 38.81, 170 39.08 S 173.5 39.34, 175 39.4 S 178.5 39.46, 180 39.45 S 183.5 39.34, 185 39.3 S 188.5 39.26, 190 39.2 S 193.5 38.92, 195 38.92 S 198.5 39.13, 200 39.2 S 203.5 39.32, 205 39.37"
          fill="none"/>
    <circle r="4" cx="5" cy="40" fill="#3023AE"/>
    <circle r="4" cx="205" cy="39.37" fill="#C86DD7"/>      
</svg>