<svg width="200" height="50" viewBox="0 0 210 50" xmlns="http://www.w3.org/2000/svg">
    <defs>
        <linearGradient x1="0%" y1="0%" x2="100%" y2="0%" id="a">
            <stop stop-color="#3023AE" offset="0%"/>
            <stop stop-color="#C86DD7" offset="100%"/>
        </linearGradient>
    </defs>
    <path stroke="url(#a)"
          stroke-width="3"
          stroke-linejoin="round"
          stroke-linecap="round"
          d="M5 40 C 6.5 39.99, 8.5 40, 10 39.98 S 13.5 39.89, 15 39.89 S 18.5 39.98, 20 39.98 S 23.5 39.92, 25 39.91 S 28.5 39.88, 30 39.89 S 33.5 39.95, 35 39.96 S 38.5 39.98, 40 39.98 S 43.5 39.98, 45 39.98 S 48.5 40.03, 50 39.96 S 53.5 39.57, 55 39.5 S 58.5 39.44, 60 39.48 S 63.5 39.72, 65 39.76 S 68.5 39.77, 70 39.78 S 74.52 41.22, 75 39.8 S 78.74 10.81, 80 10 S 84.43 31.94, 85 33.33 S 88.52 34.68, 90 34.44 S 93.56 32.12, 95 31.7 S 98.51 31.34, 100 31.55 S 103.51 32.9, 105 33.09 S 108.5 32.84, 110 32.83 S 113.52 33.31, 115 33.05 S 118.73 31.85, 120 31.05 S 123.59 27.27, 125 26.75 S 128.51 27.21, 130 27.36 S 133.58 28.25, 135 27.78 S 138.58 24.52, 140 24.03 S 143.52 24.62, 145 24.36 S 148.55 22.66, 150 22.29 S 153.51 21.97, 155 21.79 S 158.53 21.38, 160 21.09 S 163.5 19.75, 165 19.85 S 168.83 22.73, 170 21.79 S 173.65 12.39, 175 11.74 S 178.59 16.47, 180 16.99 S 183.51 15.23, 185 15.4 S 188.51 17.98, 190 18.13 S 193.6 16.95, 195 16.41 S 198.55 14.71, 200 14.31 S 203.51 13.87, 205 13.68"
          fill="none"/>
    <circle r="4" cx="5" cy="40" fill="#3023AE"/>
    <circle r="4" cx="205" cy="13.68" fill="#C86DD7"/>      
</svg>