<svg width="200" height="50" viewBox="0 0 210 50" xmlns="http://www.w3.org/2000/svg">
    <defs>
        <linearGradient x1="0%" y1="0%" x2="100%" y2="0%" id="a">
            <stop stop-color="#3023AE" offset="0%"/>
            <stop stop-color="#C86DD7" offset="100%"/>
        </linearGradient>
    </defs>
    <path stroke="url(#a)"
          stroke-width="3"
          stroke-linejoin="round"
          stroke-linecap="round"
          d="M5 40 C 6.14 39.02, 8.52 35.96, 10 35.69 S 13.52 37.96, 15 38.19 S 18.65 37.88, 20 37.22 S 23.5 33.43, 25 33.33 S 28.54 36.17, 30 36.53 S 33.53 36.14, 35 35.83 S 38.6 34.98, 40 34.44 S 43.64 32.58, 45 31.94 S 48.52 29.97, 50 29.72 S 53.51 30.47, 55 30.28 S 58.58 28.95, 60 28.47 S 63.57 27.4, 65 26.94 S 68.51 25.49, 70 25.28 S 73.51 25.7, 75 25.56 S 78.6 24.84, 80 24.31 S 83.51 21.98, 85 21.81 S 88.54 23.55, 90 23.19 S 93.67 20.01, 95 19.31 S 98.51 18.09, 100 17.92 S 103.64 17.55, 105 18.19 S 108.5 22.74, 110 22.64 S 113.88 18.5, 115 17.5 S 118.52 13.98, 120 13.75 S 123.76 15.13, 125 15.97 S 128.51 20.35, 130 20.56 S 133.73 18.15, 135 17.36 S 138.51 14.52, 140 14.31 S 143.62 16.56, 145 15.97 S 148.51 10.12, 150 10 S 153.69 14.41, 155 15.14 S 158.5 15.48, 160 15.56 S 163.58 16.18, 165 15.69 S 168.57 12.54, 170 12.08 S 173.51 12.31, 175 12.5 S 178.54 12.99, 180 13.33 S 183.5 14.8, 185 14.86 S 188.59 14.26, 190 13.75 S 193.52 11, 195 11.25 S 198.67 14.72, 200 15.42 S 203.54 16.2, 205 16.53"
          fill="none"/>
    <circle r="4" cx="5" cy="40" fill="#3023AE"/>
    <circle r="4" cx="205" cy="16.53" fill="#C86DD7"/>      
</svg>