<svg width="200" height="50" viewBox="0 0 210 50" xmlns="http://www.w3.org/2000/svg">
    <defs>
        <linearGradient x1="0%" y1="0%" x2="100%" y2="0%" id="a">
            <stop stop-color="#3023AE" offset="0%"/>
            <stop stop-color="#C86DD7" offset="100%"/>
        </linearGradient>
    </defs>
    <path stroke="url(#a)"
          stroke-width="3"
          stroke-linejoin="round"
          stroke-linecap="round"
          d="M5 40 C 6.5 39.9, 8.5 39.7, 10 39.65 S 13.5 39.62, 15 39.65 S 18.5 39.79, 20 39.82 S 23.5 39.82, 25 39.82 S 28.5 39.82, 30 39.82 S 33.5 39.82, 35 39.82 S 39.52 41.24, 40 39.82 S 44.08 11.18, 45 10 S 49.43 25.55, 50 26.94 S 53.87 33.55, 55 34.53 S 58.61 35.03, 60 35.59 S 63.59 38.09, 65 38.59 S 68.66 39.78, 70 39.12 S 73.9 34.68, 75 33.65 S 78.5 29.81, 80 29.76 S 83.73 32.49, 85 33.29 S 88.65 35.47, 90 36.12 S 93.51 37.9, 95 38.06 S 98.67 37.88, 100 37.18 S 103.77 33.63, 105 32.76 S 108.56 29.69, 110 30.12 S 113.86 34.79, 115 35.76 S 118.51 38.41, 120 38.59 S 123.53 37.31, 125 37 S 128.5 36.39, 130 36.47 S 133.5 37.45, 135 37.53 S 138.5 37.05, 140 37 S 143.51 37.36, 145 37.18 S 148.5 35.73, 150 35.76 S 153.52 37.09, 155 37.35 S 158.5 37.48, 160 37.53 S 163.51 37.87, 165 37.71 S 169.04 37.62, 170 36.47 S 173.61 26.27, 175 25.71 S 178.91 31.38, 180 32.41 S 183.51 35.08, 185 35.24 S 188.66 34.14, 190 33.47 S 193.51 30.11, 195 30.29 S 198.77 35.57, 200 34.71 S 204.4 24.62, 205 23.24"
          fill="none"/>
    <circle r="4" cx="5" cy="40" fill="#3023AE"/>
    <circle r="4" cx="205" cy="23.24" fill="#C86DD7"/>      
</svg>