<svg width="200" height="50" viewBox="0 0 210 50" xmlns="http://www.w3.org/2000/svg">
    <defs>
        <linearGradient x1="0%" y1="0%" x2="100%" y2="0%" id="a">
            <stop stop-color="#3023AE" offset="0%"/>
            <stop stop-color="#C86DD7" offset="100%"/>
        </linearGradient>
    </defs>
    <path stroke="url(#a)"
          stroke-width="3"
          stroke-linejoin="round"
          stroke-linecap="round"
          d="M5 40 C 5.25 38.52, 8.53 10.28, 10 10 S 14.49 36.68, 15 38.09 S 18.5 37.46, 20 37.53 S 23.52 38.28, 25 38.53 S 28.5 39.08, 30 39.19 S 33.5 39.23, 35 39.26 S 38.5 39.38, 40 39.4 S 43.5 39.37, 45 39.39 S 48.5 39.49, 50 39.52 S 53.5 39.54, 55 39.56 S 58.5 39.71, 60 39.66 S 63.5 39.28, 65 39.24 S 68.5 39.37, 70 39.41 S 73.5 39.46, 75 39.49 S 78.5 39.57, 80 39.59 S 83.5 39.63, 85 39.6 S 88.5 39.38, 90 39.38 S 93.5 39.53, 95 39.58 S 98.5 39.7, 100 39.73 S 103.5 39.8, 105 39.76 S 108.5 39.45, 110 39.44 S 113.5 39.62, 115 39.66 S 118.5 39.69, 120 39.68 S 123.5 39.57, 125 39.57 S 128.5 39.67, 130 39.7 S 133.5 39.76, 135 39.76 S 138.5 39.69, 140 39.67 S 143.5 39.61, 145 39.62 S 148.5 39.69, 150 39.71 S 153.5 39.84, 155 39.73 S 158.5 38.96, 160 38.95 S 163.5 39.53, 165 39.63 S 168.5 39.64, 170 39.64 S 173.5 39.64, 175 39.64 S 178.5 39.63, 180 39.62 S 183.5 39.65, 185 39.6 S 188.5 39.28, 190 39.29 S 193.5 39.67, 195 39.64 S 198.5 39.16, 200 39.12 S 203.5 39.27, 205 39.34"
          fill="none"/>
    <circle r="4" cx="5" cy="40" fill="#3023AE"/>
    <circle r="4" cx="205" cy="39.34" fill="#C86DD7"/>      
</svg>