<svg width="200" height="50" viewBox="0 0 210 50" xmlns="http://www.w3.org/2000/svg">
    <defs>
        <linearGradient x1="0%" y1="0%" x2="100%" y2="0%" id="a">
            <stop stop-color="#3023AE" offset="0%"/>
            <stop stop-color="#C86DD7" offset="100%"/>
        </linearGradient>
    </defs>
    <path stroke="url(#a)"
          stroke-width="3"
          stroke-linejoin="round"
          stroke-linecap="round"
          d="M5 40 C 6.47 39.71, 8.5 39.07, 10 39 S 13.5 39.43, 15 39.5 S 18.5 39.5, 20 39.5 S 23.5 39.5, 25 39.5 S 28.5 39.5, 30 39.5 S 33.5 39.5, 35 39.5 S 38.5 39.5, 40 39.5 S 43.5 39.5, 45 39.5 S 48.5 39.5, 50 39.5 S 53.54 39.86, 55 39.5 S 58.5 37.07, 60 37 S 63.53 38.71, 65 39 S 68.5 38.93, 70 39 S 73.5 39.43, 75 39.5 S 78.5 39.5, 80 39.5 S 83.5 39.5, 85 39.5 S 88.5 39.5, 90 39.5 S 93.5 39.5, 95 39.5 S 98.5 39.5, 100 39.5 S 103.5 39.57, 105 39.5 S 108.52 39.22, 110 39 S 113.5 38.07, 115 38 S 118.51 38.35, 120 38.5 S 123.52 39.22, 125 39 S 128.58 37.5, 130 37 S 133.52 35.28, 135 35.5 S 138.53 38.21, 140 38.5 S 143.51 37.35, 145 37.5 S 148.51 39.35, 150 39.5 S 153.5 38.5, 155 38.5 S 158.61 40.06, 160 39.5 S 163.5 34.57, 165 34.5 S 168.58 38.5, 170 39 S 173.97 39.09, 175 38 S 178.71 29.27, 180 28.5 S 183.83 31.06, 185 32 S 188.5 36.5, 190 36.5 S 194.47 33.4, 195 32 S 198.52 9.78, 200 10 S 204.69 32.03, 205 33.5"
          fill="none"/>
    <circle r="4" cx="5" cy="40" fill="#3023AE"/>
    <circle r="4" cx="205" cy="33.5" fill="#C86DD7"/>      
</svg>