<svg width="200" height="50" viewBox="0 0 210 50" xmlns="http://www.w3.org/2000/svg">
    <defs>
        <linearGradient x1="0%" y1="0%" x2="100%" y2="0%" id="a">
            <stop stop-color="#3023AE" offset="0%"/>
            <stop stop-color="#C86DD7" offset="100%"/>
        </linearGradient>
    </defs>
    <path stroke="url(#a)"
          stroke-width="3"
          stroke-linejoin="round"
          stroke-linecap="round"
          d="M5 40 C 6.49 39.86, 8.5 39.61, 10 39.54 S 13.5 39.54, 15 39.54 S 18.5 39.54, 20 39.54 S 23.5 39.54, 25 39.54 S 28.5 39.54, 30 39.54 S 33.5 39.54, 35 39.54 S 38.5 39.54, 40 39.54 S 43.5 39.54, 45 39.54 S 48.5 39.54, 50 39.54 S 53.5 39.54, 55 39.54 S 58.5 39.54, 60 39.54 S 63.5 39.54, 65 39.54 S 68.5 39.54, 70 39.54 S 73.5 39.54, 75 39.54 S 78.5 39.54, 80 39.54 S 83.5 39.54, 85 39.54 S 88.5 39.54, 90 39.54 S 93.5 39.54, 95 39.54 S 98.5 39.54, 100 39.54 S 103.5 39.54, 105 39.54 S 108.5 39.54, 110 39.54 S 113.5 39.54, 115 39.54 S 118.5 39.54, 120 39.54 S 123.5 39.54, 125 39.54 S 128.5 39.54, 130 39.54 S 133.5 39.54, 135 39.54 S 138.5 39.54, 140 39.54 S 143.5 39.54, 145 39.54 S 148.5 39.54, 150 39.54 S 153.5 39.54, 155 39.54 S 158.5 39.54, 160 39.54 S 163.5 39.54, 165 39.54 S 168.5 39.54, 170 39.54 S 173.5 39.54, 175 39.54 S 178.5 39.54, 180 39.54 S 184.52 40.96, 185 39.54 S 188.54 10.34, 190 10 S 194.49 35.82, 195 37.23 S 198.54 37.35, 200 37.69 S 203.59 39.02, 205 39.54"
          fill="none"/>
    <circle r="4" cx="5" cy="40" fill="#3023AE"/>
    <circle r="4" cx="205" cy="39.54" fill="#C86DD7"/>      
</svg>