<svg width="200" height="50" viewBox="0 0 210 50" xmlns="http://www.w3.org/2000/svg">
    <defs>
        <linearGradient x1="0%" y1="0%" x2="100%" y2="0%" id="a">
            <stop stop-color="#3023AE" offset="0%"/>
            <stop stop-color="#C86DD7" offset="100%"/>
        </linearGradient>
    </defs>
    <path stroke="url(#a)"
          stroke-width="3"
          stroke-linejoin="round"
          stroke-linecap="round"
          d="M5 40 C 6.5 39.98, 8.5 39.93, 10 39.93 S 13.5 39.97, 15 39.98 S 18.5 39.99, 20 39.98 S 23.5 39.98, 25 39.91 S 29.48 40.95, 30 39.54 S 33.69 13.53, 35 12.8 S 39.34 32.6, 40 33.95 S 43.5 33.39, 45 33.28 S 48.53 32.89, 50 33.2 S 53.5 35.46, 55 35.38 S 58.57 33.11, 60 32.65 S 63.54 32.47, 65 32.12 S 68.82 31.18, 70 30.26 S 73.55 23.93, 75 24.3 S 78.5 32.89, 80 32.79 S 83.87 24.62, 85 23.63 S 88.59 23.55, 90 24.07 S 93.59 26.83, 95 27.35 S 99.25 29.1, 100 27.8 S 103.51 10.18, 105 10 S 109.32 25.25, 110 26.59 S 113.52 29.43, 115 29.64 S 118.5 28.05, 120 28.03 S 123.51 29.32, 125 29.53 S 128.53 29.13, 130 29.41 S 133.61 30.91, 135 31.46 S 138.52 33.15, 140 33.38 S 143.5 33.09, 145 32.99 S 148.51 32.83, 150 32.69 S 153.5 31.99, 155 32.05 S 158.51 32.9, 160 33.06 S 163.5 33.04, 165 33.1 S 168.52 33.7, 170 33.45 S 173.51 31.23, 175 31.4 S 178.5 34.62, 180 34.58 S 183.5 31.14, 185 31.15 S 188.58 34.2, 190 34.67 S 193.5 34.47, 195 34.44 S 198.5 34.36, 200 34.45 S 203.51 34.85, 205 35.02"
          fill="none"/>
    <circle r="4" cx="5" cy="40" fill="#3023AE"/>
    <circle r="4" cx="205" cy="35.019999999999996" fill="#C86DD7"/>      
</svg>