<svg width="200" height="50" viewBox="0 0 210 50" xmlns="http://www.w3.org/2000/svg">
    <defs>
        <linearGradient x1="0%" y1="0%" x2="100%" y2="0%" id="a">
            <stop stop-color="#3023AE" offset="0%"/>
            <stop stop-color="#C86DD7" offset="100%"/>
        </linearGradient>
    </defs>
    <path stroke="url(#a)"
          stroke-width="3"
          stroke-linejoin="round"
          stroke-linecap="round"
          d="M5 40 C 5.67 38.66, 8.58 30.47, 10 30 S 13.75 35.84, 15 36.67 S 18.5 36.67, 20 36.67 S 23.5 36.67, 25 36.67 S 28.5 36.67, 30 36.67 S 33.5 36.67, 35 36.67 S 38.5 36.67, 40 36.67 S 43.5 36.67, 45 36.67 S 48.5 36.67, 50 36.67 S 53.5 36.67, 55 36.67 S 58.5 36.67, 60 36.67 S 63.5 36.67, 65 36.67 S 68.5 36.67, 70 36.67 S 73.58 37.15, 75 36.67 S 79.1 34.53, 80 33.33 S 83.58 23.8, 85 23.33 S 88.58 29.52, 90 30 S 93.58 26.2, 95 26.67 S 98.75 32.5, 100 33.33 S 103.58 32.85, 105 33.33 S 108.58 37.14, 110 36.67 S 113.58 30.48, 115 30 S 118.58 32.86, 120 33.33 S 123.75 34.16, 125 33.33 S 128.58 26.19, 130 26.67 S 133.58 37.15, 135 36.67 S 139.47 24.73, 140 23.33 S 144.1 11.2, 145 10 S 149.41 8.62, 150 10 S 154.47 31.93, 155 33.33 S 158.58 36.19, 160 36.67 S 163.5 36.67, 165 36.67 S 168.94 37.73, 170 36.67 S 174.23 27.96, 175 26.67 S 178.94 18.94, 180 20 S 184.1 35.47, 185 36.67 S 189.1 34.53, 190 33.33 S 193.5 23.33, 195 23.33 S 199.1 32.13, 200 33.33 S 203.75 35.84, 205 36.67"
          fill="none"/>
    <circle r="4" cx="5" cy="40" fill="#3023AE"/>
    <circle r="4" cx="205" cy="36.67" fill="#C86DD7"/>      
</svg>