<svg width="200" height="50" viewBox="0 0 210 50" xmlns="http://www.w3.org/2000/svg">
    <defs>
        <linearGradient x1="0%" y1="0%" x2="100%" y2="0%" id="a">
            <stop stop-color="#3023AE" offset="0%"/>
            <stop stop-color="#C86DD7" offset="100%"/>
        </linearGradient>
    </defs>
    <path stroke="url(#a)"
          stroke-width="3"
          stroke-linejoin="round"
          stroke-linecap="round"
          d="M5 40 C 5.25 38.52, 8.97 11.09, 10 10 S 14.01 28.34, 15 29.47 S 18.51 21.18, 20 21.37 S 24.06 29.57, 25 30.74 S 28.5 33.92, 30 33.88 S 34.17 31.74, 35 30.49 S 38.56 19.14, 40 18.71 S 44.15 26.23, 45 27.46 S 48.66 32.5, 50 33.18 S 53.52 32.78, 55 32.56 S 58.5 31.8, 60 31.69 S 63.94 32.9, 65 31.83 S 68.5 21.59, 70 21.59 S 73.91 30.77, 75 31.8 S 78.5 31.04, 80 31.03 S 83.56 31.35, 85 31.76 S 88.5 33.74, 90 33.84 S 93.5 32.4, 95 32.42 S 98.87 34.94, 100 33.95 S 103.63 24.24, 105 23.63 S 108.71 28.78, 110 29.54 S 113.63 30.15, 115 29.54 S 118.51 24.88, 120 25.05 S 123.64 30.08, 125 30.7 S 128.51 29.47, 130 29.61 S 133.51 31.47, 135 31.62 S 138.51 30.79, 140 30.6 S 143.52 30.08, 145 30.34 S 148.52 32.11, 150 32.35 S 153.51 32.11, 155 31.94 S 158.72 32.01, 160 31.22 S 163.5 25.89, 165 25.78 S 168.53 30.18, 170 30.49 S 173.82 28.83, 175 27.9 S 178.54 22.25, 180 22.58 S 183.76 29.28, 185 30.12 S 188.5 29.43, 190 29.32 S 193.5 29.33, 195 29.36 S 198.51 29.68, 200 29.54 S 203.54 28.76, 205 28.44"
          fill="none"/>
    <circle r="4" cx="5" cy="40" fill="#3023AE"/>
    <circle r="4" cx="205" cy="28.439999999999998" fill="#C86DD7"/>      
</svg>