<svg width="200" height="50" viewBox="0 0 210 50" xmlns="http://www.w3.org/2000/svg">
    <defs>
        <linearGradient x1="0%" y1="0%" x2="100%" y2="0%" id="a">
            <stop stop-color="#3023AE" offset="0%"/>
            <stop stop-color="#C86DD7" offset="100%"/>
        </linearGradient>
    </defs>
    <path stroke="url(#a)"
          stroke-width="3"
          stroke-linejoin="round"
          stroke-linecap="round"
          d="M5 40 C 5.88 38.79, 8.93 34.16, 10 33.11 S 13.58 29.71, 15 30.18 S 18.76 35.57, 20 36.41 S 23.5 36.86, 25 36.93 S 28.62 37.48, 30 36.9 S 33.9 33.77, 35 32.75 S 38.62 28.18, 40 27.59 S 44.26 29.76, 45 28.46 S 48.57 9.54, 50 10 S 53.59 31.2, 55 31.71 S 58.89 14.65, 60 13.64 S 64.22 21.29, 65 22.57 S 68.61 30.76, 70 30.19 S 73.5 18.49, 75 18.43 S 78.52 29.57, 80 29.82 S 83.54 20.51, 85 20.15 S 88.67 26.69, 90 27.38 S 93.51 25.49, 95 25.3 S 98.55 25.7, 100 26.09 S 103.56 27.58, 105 27.99 S 108.51 29.14, 110 28.95 S 113.52 26.5, 115 26.71 S 118.51 30.2, 120 30.39 S 123.63 28.6, 125 27.99 S 128.52 25.74, 130 25.96 S 133.52 29.22, 135 29.45 S 138.5 27.6, 140 27.5 S 143.52 28.52, 145 28.77 S 148.5 29.12, 150 29.18 S 153.52 29.4, 155 29.15 S 158.51 27.34, 160 27.49 S 163.52 29.92, 165 30.18 S 168.66 29.95, 170 29.28 S 173.77 26.05, 175 25.18 S 178.53 21.92, 180 22.22 S 183.97 26.14, 185 27.23 S 188.63 32.23, 190 32.84 S 193.5 31.66, 195 31.69 S 198.51 32.87, 200 33.05 S 203.5 32.94, 205 32.9"
          fill="none"/>
    <circle r="4" cx="5" cy="40" fill="#3023AE"/>
    <circle r="4" cx="205" cy="32.9" fill="#C86DD7"/>      
</svg>