<svg width="200" height="50" viewBox="0 0 210 50" xmlns="http://www.w3.org/2000/svg">
    <defs>
        <linearGradient x1="0%" y1="0%" x2="100%" y2="0%" id="a">
            <stop stop-color="#3023AE" offset="0%"/>
            <stop stop-color="#C86DD7" offset="100%"/>
        </linearGradient>
    </defs>
    <path stroke="url(#a)"
          stroke-width="3"
          stroke-linejoin="round"
          stroke-linecap="round"
          d="M5 40 C 6.47 39.72, 8.5 39.08, 10 39.05 S 13.51 39.66, 15 39.79 S 18.5 39.89, 20 39.89 S 23.57 40.24, 25 39.79 S 29.52 38.16, 30 36.74 S 33.5 9.89, 35 10 S 39.08 36.29, 40 37.47 S 43.85 23.8, 45 22.84 S 48.55 29.56, 50 29.16 S 53.51 20.28, 55 20.11 S 59.03 26.86, 60 28 S 63.73 32.68, 65 31.89 S 69.1 22.99, 70 21.79 S 73.61 18.06, 75 18.63 S 78.77 26.75, 80 25.89 S 83.63 12.3, 85 11.68 S 89.23 20.08, 90 21.37 S 93.82 27.49, 95 28.42 S 98.57 28.8, 100 29.26 S 103.62 32.26, 105 31.68 S 108.53 25.33, 110 25.05 S 113.57 29.32, 115 29.79 S 118.68 29.03, 120 28.32 S 123.71 25.19, 125 24.42 S 128.6 21.79, 130 22.32 S 133.71 27.44, 135 28.21 S 138.58 27.84, 140 28.32 S 143.56 31.17, 145 31.58 S 148.5 31.18, 150 31.16 S 153.5 31.41, 155 31.47 S 158.57 31.14, 160 31.58 S 163.51 34.4, 165 34.53 S 168.5 32.53, 170 32.42 S 173.5 33.82, 175 33.79 S 178.5 32.27, 180 32.21 S 183.51 33.18, 185 33.37 S 188.51 33.27, 190 33.47 S 193.51 34.6, 195 34.74 S 198.51 34.56, 200 34.42 S 203.51 33.98, 205 33.79"
          fill="none"/>
    <circle r="4" cx="5" cy="40" fill="#3023AE"/>
    <circle r="4" cx="205" cy="33.79" fill="#C86DD7"/>      
</svg>