<svg width="200" height="50" viewBox="0 0 210 50" xmlns="http://www.w3.org/2000/svg">
    <defs>
        <linearGradient x1="0%" y1="0%" x2="100%" y2="0%" id="a">
            <stop stop-color="#3023AE" offset="0%"/>
            <stop stop-color="#C86DD7" offset="100%"/>
        </linearGradient>
    </defs>
    <path stroke="url(#a)"
          stroke-width="3"
          stroke-linejoin="round"
          stroke-linecap="round"
          d="M5 40 C 5.47 38.58, 8.6 25.53, 10 25 S 14 35.13, 15 36.25 S 18.5 36.25, 20 36.25 S 23.5 36.25, 25 36.25 S 28.5 36.25, 30 36.25 S 33.5 36.25, 35 36.25 S 38.5 36.25, 40 36.25 S 43.5 36.25, 45 36.25 S 48.5 36.25, 50 36.25 S 53.5 36.25, 55 36.25 S 58.5 36.25, 60 36.25 S 63.5 36.25, 65 36.25 S 68.5 36.25, 70 36.25 S 73.5 36.25, 75 36.25 S 78.5 36.25, 80 36.25 S 83.5 36.25, 85 36.25 S 88.5 36.25, 90 36.25 S 93.5 36.25, 95 36.25 S 98.5 36.25, 100 36.25 S 103.5 36.25, 105 36.25 S 108.5 36.25, 110 36.25 S 113.5 36.25, 115 36.25 S 118.5 36.25, 120 36.25 S 123.5 36.25, 125 36.25 S 128.5 36.25, 130 36.25 S 133.5 36.25, 135 36.25 S 139.47 37.65, 140 36.25 S 144.47 11.4, 145 10 S 149 8.88, 150 10 S 154.47 19.85, 155 21.25 S 158.8 35.35, 160 36.25 S 163.6 29.28, 165 28.75 S 168.6 31.97, 170 32.5 S 173.6 31.97, 175 32.5 S 178.6 35.72, 180 36.25 S 183.5 36.25, 185 36.25"
          fill="none"/>
    <circle r="4" cx="5" cy="40" fill="#3023AE"/>
    <circle r="4" cx="185" cy="36.25" fill="#C86DD7"/>      
</svg>