<svg width="200" height="50" viewBox="0 0 210 50" xmlns="http://www.w3.org/2000/svg">
    <defs>
        <linearGradient x1="0%" y1="0%" x2="100%" y2="0%" id="a">
            <stop stop-color="#3023AE" offset="0%"/>
            <stop stop-color="#C86DD7" offset="100%"/>
        </linearGradient>
    </defs>
    <path stroke="url(#a)"
          stroke-width="3"
          stroke-linejoin="round"
          stroke-linecap="round"
          d="M5 40 C 6.27 39.2, 8.51 37.06, 10 36.87 S 14.48 40.16, 15 38.75 S 18.5 10.09, 20 10 S 24.52 36.7, 25 38.12 S 28.94 40.43, 30 39.37 S 33.5 28.12, 35 28.12 S 39 38.25, 40 39.37 S 43.5 39.37, 45 39.37 S 48.5 39.37, 50 39.37 S 53.5 39.37, 55 39.37 S 58.5 39.37, 60 39.37 S 63.5 39.37, 65 39.37 S 68.5 39.37, 70 39.37 S 73.5 39.37, 75 39.37 S 78.5 39.37, 80 39.37 S 83.5 39.37, 85 39.37 S 88.5 39.37, 90 39.37 S 93.8 40.27, 95 39.37 S 98.57 32.32, 100 31.87 S 103.76 35.4, 105 36.25 S 108.53 38.47, 110 38.75 S 113.51 38.31, 115 38.12 S 118.5 37.5, 120 37.5 S 123.53 37.84, 125 38.12 S 128.5 39.28, 130 39.37 S 133.5 38.75, 135 38.75 S 138.5 39.28, 140 39.37 S 143.5 39.37, 145 39.37 S 148.5 39.46, 150 39.37 S 153.5 38.84, 155 38.75 S 158.5 38.84, 160 38.75 S 163.5 38.03, 165 38.12 S 168.51 39.18, 170 39.37 S 173.5 39.37, 175 39.37 S 178.5 39.37, 180 39.37 S 183.5 39.37, 185 39.37 S 188.5 39.37, 190 39.37 S 193.5 39.46, 195 39.37 S 198.5 38.84, 200 38.75 S 203.5 38.75, 205 38.75"
          fill="none"/>
    <circle r="4" cx="5" cy="40" fill="#3023AE"/>
    <circle r="4" cx="205" cy="38.75" fill="#C86DD7"/>      
</svg>