<svg width="200" height="50" viewBox="0 0 210 50" xmlns="http://www.w3.org/2000/svg">
    <defs>
        <linearGradient x1="0%" y1="0%" x2="100%" y2="0%" id="a">
            <stop stop-color="#3023AE" offset="0%"/>
            <stop stop-color="#C86DD7" offset="100%"/>
        </linearGradient>
    </defs>
    <path stroke="url(#a)"
          stroke-width="3"
          stroke-linejoin="round"
          stroke-linecap="round"
          d="M5 40 C 5.94 38.83, 8.51 33.94, 10 33.75 S 13.66 38.08, 15 38.75 S 18.5 38.75, 20 38.75 S 23.5 38.75, 25 38.75 S 28.5 38.75, 30 38.75 S 33.5 38.75, 35 38.75 S 38.5 38.75, 40 38.75 S 43.5 38.75, 45 38.75 S 48.5 38.75, 50 38.75 S 53.5 38.75, 55 38.75 S 58.5 38.75, 60 38.75 S 63.73 39.54, 65 38.75 S 69.51 33.92, 70 32.5 S 73.51 9.81, 75 10 S 79.39 32.38, 80 33.75 S 83.6 31.97, 85 32.5 S 88.73 36.71, 90 37.5 S 93.51 38.56, 95 38.75 S 98.5 38.75, 100 38.75 S 103.5 38.75, 105 38.75 S 108.5 38.75, 110 38.75 S 113.5 38.75, 115 38.75 S 118.5 38.75, 120 38.75 S 123.5 38.75, 125 38.75 S 128.5 38.75, 130 38.75 S 133.5 38.75, 135 38.75 S 138.5 38.75, 140 38.75 S 143.73 39.54, 145 38.75 S 148.66 33.17, 150 32.5 S 153.73 32.96, 155 33.75 S 158.94 37.69, 160 38.75"
          fill="none"/>
    <circle r="4" cx="5" cy="40" fill="#3023AE"/>
    <circle r="4" cx="160" cy="38.75" fill="#C86DD7"/>      
</svg>