<svg width="200" height="50" viewBox="0 0 210 50" xmlns="http://www.w3.org/2000/svg">
    <defs>
        <linearGradient x1="0%" y1="0%" x2="100%" y2="0%" id="a">
            <stop stop-color="#3023AE" offset="0%"/>
            <stop stop-color="#C86DD7" offset="100%"/>
        </linearGradient>
    </defs>
    <path stroke="url(#a)"
          stroke-width="3"
          stroke-linejoin="round"
          stroke-linecap="round"
          d="M5 40 C 5.25 38.52, 8.5 10.1, 10 10 S 14.5 37.88, 15 39.3 S 18.5 38.6, 20 38.6 S 23.5 39.2, 25 39.3 S 28.5 39.3, 30 39.3 S 33.5 39.3, 35 39.3 S 38.5 39.3, 40 39.3 S 43.5 39.3, 45 39.3 S 48.5 39.3, 50 39.3 S 53.5 39.3, 55 39.3 S 58.5 39.3, 60 39.3 S 63.5 39.3, 65 39.3 S 68.5 39.3, 70 39.3 S 73.5 39.3, 75 39.3 S 78.5 39.3, 80 39.3 S 83.5 39.3, 85 39.3 S 88.5 39.3, 90 39.3 S 93.5 39.3, 95 39.3 S 98.5 39.3, 100 39.3 S 103.5 39.3, 105 39.3"
          fill="none"/>
    <circle r="4" cx="5" cy="40" fill="#3023AE"/>
    <circle r="4" cx="105" cy="39.3" fill="#C86DD7"/>      
</svg>