<svg width="200" height="50" viewBox="0 0 210 50" xmlns="http://www.w3.org/2000/svg">
    <defs>
        <linearGradient x1="0%" y1="0%" x2="100%" y2="0%" id="a">
            <stop stop-color="#3023AE" offset="0%"/>
            <stop stop-color="#C86DD7" offset="100%"/>
        </linearGradient>
    </defs>
    <path stroke="url(#a)"
          stroke-width="3"
          stroke-linejoin="round"
          stroke-linecap="round"
          d="M5 40 C 5.25 38.52, 8.5 10.06, 10 10 S 14.52 38.18, 15 39.6 S 18.5 39.6, 20 39.6 S 23.5 39.72, 25 39.6 S 28.5 38.8, 30 38.8 S 33.5 39.48, 35 39.6 S 38.5 39.6, 40 39.6 S 43.5 39.6, 45 39.6 S 48.5 39.6, 50 39.6 S 53.5 39.6, 55 39.6 S 58.5 39.6, 60 39.6 S 63.5 39.6, 65 39.6 S 68.5 39.6, 70 39.6 S 73.5 39.6, 75 39.6 S 78.5 39.6, 80 39.6 S 83.5 39.6, 85 39.6 S 88.5 39.6, 90 39.6 S 93.5 39.6, 95 39.6 S 98.5 39.6, 100 39.6 S 103.5 39.6, 105 39.6 S 108.5 39.6, 110 39.6 S 113.5 39.6, 115 39.6 S 118.5 39.6, 120 39.6 S 123.5 39.6, 125 39.6 S 128.5 39.6, 130 39.6 S 133.5 39.6, 135 39.6 S 138.5 39.6, 140 39.6 S 143.5 39.6, 145 39.6 S 148.5 39.6, 150 39.6 S 153.5 39.6, 155 39.6 S 158.5 39.6, 160 39.6 S 163.5 39.6, 165 39.6 S 168.5 39.6, 170 39.6 S 173.5 39.6, 175 39.6 S 178.5 39.6, 180 39.6 S 183.5 39.6, 185 39.6 S 188.5 39.6, 190 39.6"
          fill="none"/>
    <circle r="4" cx="5" cy="40" fill="#3023AE"/>
    <circle r="4" cx="190" cy="39.6" fill="#C86DD7"/>      
</svg>