<svg width="200" height="50" viewBox="0 0 210 50" xmlns="http://www.w3.org/2000/svg">
    <defs>
        <linearGradient x1="0%" y1="0%" x2="100%" y2="0%" id="a">
            <stop stop-color="#3023AE" offset="0%"/>
            <stop stop-color="#C86DD7" offset="100%"/>
        </linearGradient>
    </defs>
    <path stroke="url(#a)"
          stroke-width="3"
          stroke-linejoin="round"
          stroke-linecap="round"
          d="M5 40 C 6.46 39.66, 8.51 39.02, 10 38.85 S 14.12 40.07, 15 38.85 S 19.51 26.42, 20 25 S 24.17 11.25, 25 10 S 29.38 8.64, 30 10 S 34.49 30.51, 35 31.92 S 38.77 36.84, 40 37.69 S 43.51 38.68, 45 38.85 S 48.5 38.85, 50 38.85 S 53.5 38.85, 55 38.85 S 58.5 38.85, 60 38.85 S 63.5 38.85, 65 38.85 S 68.5 38.85, 70 38.85 S 73.5 38.85, 75 38.85 S 78.5 38.85, 80 38.85"
          fill="none"/>
    <circle r="4" cx="5" cy="40" fill="#3023AE"/>
    <circle r="4" cx="80" cy="38.85" fill="#C86DD7"/>      
</svg>