<svg width="200" height="50" viewBox="0 0 210 50" xmlns="http://www.w3.org/2000/svg">
    <defs>
        <linearGradient x1="0%" y1="0%" x2="100%" y2="0%" id="a">
            <stop stop-color="#3023AE" offset="0%"/>
            <stop stop-color="#C86DD7" offset="100%"/>
        </linearGradient>
    </defs>
    <path stroke="url(#a)"
          stroke-width="3"
          stroke-linejoin="round"
          stroke-linecap="round"
          d="M5 40 C 6.48 39.75, 8.5 39.21, 10 39.17 S 13.5 39.64, 15 39.72 S 18.5 39.72, 20 39.72 S 23.5 39.72, 25 39.72 S 28.5 39.72, 30 39.72 S 33.5 39.72, 35 39.72 S 38.5 39.72, 40 39.72 S 43.5 39.72, 45 39.72 S 48.5 39.72, 50 39.72 S 53.5 39.72, 55 39.72 S 58.5 39.72, 60 39.72 S 63.5 39.72, 65 39.72 S 68.5 39.72, 70 39.72 S 73.5 39.72, 75 39.72 S 78.5 39.72, 80 39.72 S 83.5 39.72, 85 39.72 S 88.5 39.72, 90 39.72 S 93.5 39.72, 95 39.72 S 98.5 39.72, 100 39.72 S 103.5 39.72, 105 39.72 S 108.5 39.72, 110 39.72 S 113.5 39.72, 115 39.72 S 118.5 39.72, 120 39.72 S 123.5 39.72, 125 39.72 S 128.53 40.01, 130 39.72 S 133.67 38.48, 135 37.78 S 138.51 34.23, 140 34.44 S 143.63 38.56, 145 39.17 S 148.5 38.81, 150 38.89 S 153.51 39.6, 155 39.72 S 158.5 39.76, 160 39.72 S 163.5 39.44, 165 39.44 S 168.5 39.68, 170 39.72 S 173.5 39.8, 175 39.72 S 178.5 39.17, 180 39.17 S 183.5 39.64, 185 39.72 S 188.5 39.72, 190 39.72 S 194.52 41.14, 195 39.72 S 199.28 11.32, 200 10 S 204.4 20.02, 205 21.39"
          fill="none"/>
    <circle r="4" cx="5" cy="40" fill="#3023AE"/>
    <circle r="4" cx="205" cy="21.39" fill="#C86DD7"/>      
</svg>