<svg width="200" height="50" viewBox="0 0 210 50" xmlns="http://www.w3.org/2000/svg">
    <defs>
        <linearGradient x1="0%" y1="0%" x2="100%" y2="0%" id="a">
            <stop stop-color="#3023AE" offset="0%"/>
            <stop stop-color="#C86DD7" offset="100%"/>
        </linearGradient>
    </defs>
    <path stroke="url(#a)"
          stroke-width="3"
          stroke-linejoin="round"
          stroke-linecap="round"
          d="M5 40 C 6.48 39.73, 8.5 39.13, 10 39.09 S 13.5 39.61, 15 39.7 S 18.5 39.75, 20 39.7 S 23.55 39.79, 25 39.39 S 28.5 36.92, 30 36.97 S 33.54 39.35, 35 39.7 S 38.5 39.39, 40 39.39 S 43.5 39.65, 45 39.7 S 48.5 39.7, 50 39.7 S 53.5 39.7, 55 39.7 S 58.5 39.7, 60 39.7 S 63.5 39.7, 65 39.7 S 68.5 39.7, 70 39.7 S 73.5 39.7, 75 39.7 S 78.5 39.7, 80 39.7 S 83.5 39.7, 85 39.7 S 88.5 39.7, 90 39.7 S 93.5 39.7, 95 39.7 S 98.5 39.7, 100 39.7 S 103.5 39.7, 105 39.7 S 108.5 39.7, 110 39.7 S 113.5 39.7, 115 39.7 S 118.5 39.79, 120 39.7 S 123.5 39.09, 125 39.09 S 128.5 39.61, 130 39.7 S 133.5 39.7, 135 39.7 S 138.5 39.75, 140 39.7 S 143.5 39.39, 145 39.39 S 148.5 39.65, 150 39.7 S 153.5 39.7, 155 39.7 S 158.5 39.75, 160 39.7 S 163.5 39.39, 165 39.39 S 168.5 39.65, 170 39.7 S 173.5 39.7, 175 39.7 S 178.5 39.7, 180 39.7 S 183.5 39.7, 185 39.7 S 188.5 39.7, 190 39.7 S 193.5 39.7, 195 39.7 S 199.52 41.12, 200 39.7 S 204.75 11.48, 205 10"
          fill="none"/>
    <circle r="4" cx="5" cy="40" fill="#3023AE"/>
    <circle r="4" cx="205" cy="10" fill="#C86DD7"/>      
</svg>