<svg width="200" height="50" viewBox="0 0 210 50" xmlns="http://www.w3.org/2000/svg">
    <defs>
        <linearGradient x1="0%" y1="0%" x2="100%" y2="0%" id="a">
            <stop stop-color="#3023AE" offset="0%"/>
            <stop stop-color="#C86DD7" offset="100%"/>
        </linearGradient>
    </defs>
    <path stroke="url(#a)"
          stroke-width="3"
          stroke-linejoin="round"
          stroke-linecap="round"
          d="M5 40 C 5.54 38.6, 8.62 27.73, 10 27.14 S 13.86 34.73, 15 35.71 S 18.5 35.71, 20 35.71 S 23.5 35.71, 25 35.71 S 28.5 35.71, 30 35.71 S 34.46 37.11, 35 35.71 S 38.62 10.59, 40 10 S 44.46 30.03, 45 31.43 S 48.62 35.12, 50 35.71 S 53.5 35.71, 55 35.71 S 58.5 35.71, 60 35.71 S 63.5 35.71, 65 35.71 S 68.5 35.71, 70 35.71 S 73.5 35.71, 75 35.71 S 78.5 35.71, 80 35.71 S 83.5 35.71, 85 35.71 S 88.5 35.71, 90 35.71 S 93.5 35.71, 95 35.71 S 98.5 35.71, 100 35.71 S 103.5 35.71, 105 35.71 S 108.5 35.71, 110 35.71 S 113.5 35.71, 115 35.71 S 118.5 35.71, 120 35.71 S 123.5 35.71, 125 35.71 S 128.5 35.71, 130 35.71 S 133.5 35.71, 135 35.71 S 138.5 35.71, 140 35.71 S 143.5 35.71, 145 35.71 S 148.5 35.71, 150 35.71 S 153.5 35.71, 155 35.71 S 158.5 35.71, 160 35.71 S 163.5 35.71, 165 35.71 S 168.5 35.71, 170 35.71"
          fill="none"/>
    <circle r="4" cx="5" cy="40" fill="#3023AE"/>
    <circle r="4" cx="170" cy="35.71" fill="#C86DD7"/>      
</svg>