<svg width="200" height="50" viewBox="0 0 210 50" xmlns="http://www.w3.org/2000/svg">
    <defs>
        <linearGradient x1="0%" y1="0%" x2="100%" y2="0%" id="a">
            <stop stop-color="#3023AE" offset="0%"/>
            <stop stop-color="#C86DD7" offset="100%"/>
        </linearGradient>
    </defs>
    <path stroke="url(#a)"
          stroke-width="3"
          stroke-linejoin="round"
          stroke-linecap="round"
          d="M5 40 C 6.48 39.74, 8.5 39.22, 10 39.13 S 13.53 39.72, 15 39.42 S 18.5 37.16, 20 37.12 S 23.54 38.79, 25 39.13 S 28.5 39.33, 30 39.42 S 33.5 39.67, 35 39.71 S 38.5 39.71, 40 39.71 S 43.5 39.71, 45 39.71 S 48.5 39.71, 50 39.71 S 53.5 39.71, 55 39.71 S 58.5 39.71, 60 39.71 S 63.5 39.71, 65 39.71 S 68.5 39.8, 70 39.71 S 73.5 39.17, 75 39.13 S 78.5 39.33, 80 39.42 S 83.51 39.84, 85 39.71 S 88.5 38.56, 90 38.56 S 93.5 39.62, 95 39.71 S 98.5 39.13, 100 39.13 S 103.5 39.67, 105 39.71 S 108.5 39.46, 110 39.42 S 113.5 39.38, 115 39.42 S 118.5 39.67, 120 39.71 S 123.5 39.75, 125 39.71 S 128.5 39.46, 130 39.42 S 134.52 40.84, 135 39.42 S 138.51 10.13, 140 10 S 144.52 37.14, 145 38.56 S 148.5 39.42, 150 39.42 S 153.5 38.6, 155 38.56 S 158.51 39, 160 39.13 S 163.54 39.76, 165 39.42 S 168.5 36.92, 170 36.83 S 173.52 38.59, 175 38.85 S 178.51 38.43, 180 38.56 S 183.51 39.58, 185 39.71 S 188.5 39.51, 190 39.42 S 193.5 39.09, 195 39.13 S 198.52 39.92, 200 39.71 S 203.61 38.25, 205 37.69"
          fill="none"/>
    <circle r="4" cx="5" cy="40" fill="#3023AE"/>
    <circle r="4" cx="205" cy="37.69" fill="#C86DD7"/>      
</svg>