<svg width="200" height="50" viewBox="0 0 210 50" xmlns="http://www.w3.org/2000/svg">
    <defs>
        <linearGradient x1="0%" y1="0%" x2="100%" y2="0%" id="a">
            <stop stop-color="#3023AE" offset="0%"/>
            <stop stop-color="#C86DD7" offset="100%"/>
        </linearGradient>
    </defs>
    <path stroke="url(#a)"
          stroke-width="3"
          stroke-linejoin="round"
          stroke-linecap="round"
          d="M5 40 C 6.5 39.98, 8.5 39.92, 10 39.92 S 13.5 39.99, 15 40 S 18.5 39.99, 20 39.99 S 23.5 40, 25 40 S 28.5 40, 30 40 S 33.5 40, 35 40 S 38.5 40, 40 40 S 43.5 40, 45 40 S 48.5 40, 50 40 S 53.5 40, 55 40 S 58.5 40, 60 40 S 63.5 40, 65 40 S 68.5 40, 70 40 S 73.5 40, 75 40 S 78.5 40, 80 40 S 83.5 40, 85 40 S 88.5 40, 90 40 S 93.5 40.01, 95 40 S 98.5 39.94, 100 39.93 S 103.5 39.94, 105 39.95 S 108.5 39.96, 110 39.97 S 113.5 39.99, 115 39.99 S 118.5 39.98, 120 39.98 S 123.5 39.98, 125 39.98 S 128.5 39.99, 130 39.99 S 133.5 39.99, 135 39.99 S 138.5 40, 140 40 S 143.5 40, 145 40 S 148.5 39.99, 150 39.99 S 153.5 40, 155 40 S 158.5 40, 160 40 S 163.5 40, 165 40 S 168.5 40, 170 40 S 173.5 40, 175 40 S 178.5 39.97, 180 39.97 S 183.5 40, 185 40 S 188.5 39.99, 190 39.99 S 194.53 41.4, 195 39.98 S 198.74 10.82, 200 10 S 204.69 32.03, 205 33.5"
          fill="none"/>
    <circle r="4" cx="5" cy="40" fill="#3023AE"/>
    <circle r="4" cx="205" cy="33.5" fill="#C86DD7"/>      
</svg>