<svg width="200" height="50" viewBox="0 0 210 50" xmlns="http://www.w3.org/2000/svg">
    <defs>
        <linearGradient x1="0%" y1="0%" x2="100%" y2="0%" id="a">
            <stop stop-color="#3023AE" offset="0%"/>
            <stop stop-color="#C86DD7" offset="100%"/>
        </linearGradient>
    </defs>
    <path stroke="url(#a)"
          stroke-width="3"
          stroke-linejoin="round"
          stroke-linecap="round"
          d="M5 40 C 5.4 38.55, 8.53 22.29, 10 22 S 14.21 36.73, 15 38 S 18.5 38, 20 38 S 23.5 38, 25 38 S 28.5 38, 30 38 S 33.53 38.29, 35 38 S 38.5 36, 40 36 S 43.53 37.71, 45 38 S 48.53 38.29, 50 38 S 53.5 36, 55 36 S 58.5 38, 60 38 S 63.5 36, 65 36 S 68.53 37.71, 70 38 S 73.5 38, 75 38 S 78.61 38.56, 80 38 S 83.53 34.29, 85 34 S 88.5 36, 90 36 S 93.53 34.29, 95 34 S 98.61 33.44, 100 34 S 103.61 37.44, 105 38 S 108.5 38, 110 38 S 113.5 38, 115 38 S 118.53 38.29, 120 38 S 124.04 37.15, 125 36 S 128.71 26.77, 130 26 S 133.83 29.06, 135 30 S 139.04 35.15, 140 34 S 143.71 18.77, 145 18 S 149.04 26.85, 150 28 S 153.61 30.56, 155 30 S 158.83 24.94, 160 24 S 163.5 22, 165 22 S 168.53 23.71, 170 24 S 173.71 23.23, 175 24 S 178.61 29.44, 180 30 S 183.83 28.94, 185 28 S 188.53 22.29, 190 22 S 193.53 26.29, 195 26 S 199.21 21.27, 200 20 S 204.33 11.34, 205 10"
          fill="none"/>
    <circle r="4" cx="5" cy="40" fill="#3023AE"/>
    <circle r="4" cx="205" cy="10" fill="#C86DD7"/>      
</svg>