<svg width="200" height="50" viewBox="0 0 210 50" xmlns="http://www.w3.org/2000/svg">
    <defs>
        <linearGradient x1="0%" y1="0%" x2="100%" y2="0%" id="a">
            <stop stop-color="#3023AE" offset="0%"/>
            <stop stop-color="#C86DD7" offset="100%"/>
        </linearGradient>
    </defs>
    <path stroke="url(#a)"
          stroke-width="3"
          stroke-linejoin="round"
          stroke-linecap="round"
          d="M5 40 C 6.5 40, 8.5 39.99, 10 39.99 S 13.5 39.99, 15 39.99 S 19.04 41.14, 20 39.99 S 23.56 28.45, 25 28.05 S 28.93 36.14, 30 37.19 S 33.51 37.7, 35 37.84 S 38.5 38.14, 40 38.13 S 43.5 37.81, 45 37.76 S 48.68 38.51, 50 37.79 S 53.52 32.53, 55 32.31 S 58.63 35.68, 60 36.29 S 64.47 38.17, 65 36.77 S 68.81 10.91, 70 10 S 74.24 27.87, 75 29.16 S 78.52 26.87, 80 27.1 S 83.51 30.86, 85 30.73 S 88.58 26.69, 90 26.21 S 93.58 26.9, 95 27.39 S 98.51 29.58, 100 29.7 S 103.59 28.73, 105 28.21 S 108.5 25.94, 110 26 S 114.03 29.72, 115 28.58 S 118.5 14.27, 120 14.28 S 124.15 27.44, 125 28.67 S 128.5 28.81, 130 28.76 S 133.5 28.26, 135 28.31 S 138.51 28.96, 140 29.09 S 143.5 29.17, 145 29.18 S 148.53 29.42, 150 29.14 S 153.51 27.42, 155 27.27 S 158.51 27.97, 160 28.11 S 163.52 27.98, 165 28.23 S 168.51 29.6, 170 29.77 S 173.5 29.48, 175 29.37 S 178.52 29.28, 180 29.06 S 183.5 28, 185 27.92 S 188.5 28.57, 190 28.53 S 193.5 27.73, 195 27.67 S 198.5 28.04, 200 28.11 S 203.5 28.15, 205 28.16"
          fill="none"/>
    <circle r="4" cx="5" cy="40" fill="#3023AE"/>
    <circle r="4" cx="205" cy="28.16" fill="#C86DD7"/>      
</svg>