<svg width="200" height="50" viewBox="0 0 210 50" xmlns="http://www.w3.org/2000/svg">
    <defs>
        <linearGradient x1="0%" y1="0%" x2="100%" y2="0%" id="a">
            <stop stop-color="#3023AE" offset="0%"/>
            <stop stop-color="#C86DD7" offset="100%"/>
        </linearGradient>
    </defs>
    <path stroke="url(#a)"
          stroke-width="3"
          stroke-linejoin="round"
          stroke-linecap="round"
          d="M5 40 C 6.19 39.08, 9.53 37.54, 10 36.12 S 13.51 10.17, 15 10 S 19.47 33.61, 20 35.01 S 23.55 36.18, 25 36.58 S 28.5 37.68, 30 37.78 S 33.53 37.5, 35 37.23 S 38.57 36.39, 40 35.93 S 43.5 34.14, 45 34.04 S 48.53 34.99, 50 35.28 S 53.53 35.7, 55 35.99 S 58.51 37.09, 60 37.27 S 63.5 37.15, 65 37.21 S 68.5 37.78, 70 37.67 S 73.5 36.56, 75 36.5 S 78.5 37.18, 80 37.25 S 83.5 37.03, 85 36.98 S 88.5 36.92, 90 36.94 S 93.5 37.14, 95 37.13 S 98.51 37, 100 36.85 S 103.52 36.41, 105 36.14 S 108.51 34.9, 110 35.03 S 113.55 36.63, 115 37 S 118.5 37.53, 120 37.59 S 123.5 37.48, 125 37.42 S 128.5 37.19, 130 37.17 S 133.51 37.42, 135 37.29 S 138.5 36.23, 140 36.29 S 143.51 37.5, 145 37.67 S 148.5 37.5, 150 37.42 S 153.5 37.01, 155 37.13 S 158.51 38.08, 160 38.22 S 163.5 38.1, 165 38.09 S 168.5 38.21, 170 38.17 S 173.5 37.85, 175 37.82 S 178.5 37.91, 180 37.97 S 183.5 38.19, 185 38.24 S 188.5 38.3, 190 38.32 S 193.5 38.4, 195 38.38 S 198.5 38.2, 200 38.2 S 203.5 38.35, 205 38.41"
          fill="none"/>
    <circle r="4" cx="5" cy="40" fill="#3023AE"/>
    <circle r="4" cx="205" cy="38.41" fill="#C86DD7"/>      
</svg>