<svg width="200" height="50" viewBox="0 0 210 50" xmlns="http://www.w3.org/2000/svg">
    <defs>
        <linearGradient x1="0%" y1="0%" x2="100%" y2="0%" id="a">
            <stop stop-color="#3023AE" offset="0%"/>
            <stop stop-color="#C86DD7" offset="100%"/>
        </linearGradient>
    </defs>
    <path stroke="url(#a)"
          stroke-width="3"
          stroke-linejoin="round"
          stroke-linecap="round"
          d="M5 40 C 5.25 38.52, 8.72 10.79, 10 10 S 14.46 32.43, 15 33.83 S 18.55 35.33, 20 35.71 S 23.57 36.02, 25 36.47 S 28.56 38.47, 30 38.88 S 33.8 40.23, 35 39.33 S 39.2 32.69, 40 31.42 S 43.5 23.43, 45 23.37 S 49.06 29.83, 50 31 S 53.74 35.09, 55 35.91 S 58.5 37.48, 60 37.48 S 63.5 35.84, 65 35.93 S 68.56 37.65, 70 38.07 S 73.5 38.77, 75 38.85 S 78.5 38.68, 80 38.6 S 83.51 38.44, 85 38.29 S 88.5 37.51, 90 37.59 S 93.51 38.61, 95 38.82 S 98.51 39.13, 100 38.99 S 103.5 37.95, 105 37.87 S 108.5 38.39, 110 38.46 S 113.5 38.47, 115 38.35 S 118.5 37.65, 120 37.67 S 123.5 38.36, 125 38.46 S 128.51 38.57, 130 38.37 S 133.54 37.44, 135 37.11 S 138.51 35.95, 140 36.13 S 143.52 38.13, 145 38.35 S 148.5 37.57, 150 37.62 S 153.5 38.61, 155 38.68 S 158.5 38.1, 160 38.09 S 163.57 39.04, 165 38.6 S 168.5 35.05, 170 35.04 S 173.56 38.11, 175 38.54 S 178.5 37.99, 180 38.07 S 183.5 39.11, 185 39.1 S 188.5 38.04, 190 38.01 S 193.5 38.82, 195 38.93 S 198.5 38.78, 200 38.74 S 203.5 38.66, 205 38.63"
          fill="none"/>
    <circle r="4" cx="5" cy="40" fill="#3023AE"/>
    <circle r="4" cx="205" cy="38.63" fill="#C86DD7"/>      
</svg>