<svg width="200" height="50" viewBox="0 0 210 50" xmlns="http://www.w3.org/2000/svg">
    <defs>
        <linearGradient x1="0%" y1="0%" x2="100%" y2="0%" id="a">
            <stop stop-color="#3023AE" offset="0%"/>
            <stop stop-color="#C86DD7" offset="100%"/>
        </linearGradient>
    </defs>
    <path stroke="url(#a)"
          stroke-width="3"
          stroke-linejoin="round"
          stroke-linecap="round"
          d="M5 40 C 5.25 38.52, 8.74 10.81, 10 10 S 14.45 32.2, 15 33.6 S 18.57 35.01, 20 35.45 S 23.59 36.18, 25 36.69 S 28.55 38.7, 30 39.07 S 33.98 40.37, 35 39.27 S 39.1 29.44, 40 28.24 S 43.56 25.6, 45 26.02 S 48.94 30.13, 50 31.19 S 53.69 35.35, 55 36.07 S 58.5 36.62, 60 36.69 S 63.52 36.3, 65 36.52 S 68.54 37.85, 70 38.2 S 73.5 38.91, 75 38.91 S 78.5 38.24, 80 38.2 S 83.5 38.73, 85 38.62 S 88.5 37.46, 90 37.47 S 93.52 38.45, 95 38.71 S 98.51 39.35, 100 39.21 S 103.5 37.88, 105 37.78 S 108.5 38.46, 110 38.54 S 113.51 38.47, 115 38.32 S 118.5 37.51, 120 37.53 S 123.51 38.3, 125 38.46 S 128.56 39.03, 130 38.6 S 133.52 35.69, 135 35.48 S 138.54 36.84, 140 37.17 S 143.51 37.53, 145 37.7 S 148.51 38.19, 150 38.34 S 153.5 38.75, 155 38.71 S 158.5 38.11, 160 38.09 S 163.57 39.01, 165 38.57 S 168.5 35.09, 170 35.03 S 173.6 37.65, 175 38.18 S 178.5 38.76, 180 38.79 S 183.5 38.43, 185 38.37 S 188.5 38.28, 190 38.4 S 193.5 39.14, 195 39.16 S 198.53 38.79, 200 38.51 S 203.54 37.64, 205 37.28"
          fill="none"/>
    <circle r="4" cx="5" cy="40" fill="#3023AE"/>
    <circle r="4" cx="205" cy="37.28" fill="#C86DD7"/>      
</svg>