<svg width="200" height="50" viewBox="0 0 210 50" xmlns="http://www.w3.org/2000/svg">
    <defs>
        <linearGradient x1="0%" y1="0%" x2="100%" y2="0%" id="a">
            <stop stop-color="#3023AE" offset="0%"/>
            <stop stop-color="#C86DD7" offset="100%"/>
        </linearGradient>
    </defs>
    <path stroke="url(#a)"
          stroke-width="3"
          stroke-linejoin="round"
          stroke-linecap="round"
          d="M5 40 C 6.12 39.01, 8.51 35.72, 10 35.59 S 13.58 38.63, 15 39.12 S 18.51 38.89, 20 39.01 S 23.51 40.12, 25 39.94 S 28.51 37.94, 30 37.79 S 33.51 38.78, 35 38.95 S 38.5 38.88, 40 38.9 S 43.5 39.04, 45 39.06 S 48.5 39.08, 50 39.06 S 53.5 38.85, 55 38.9 S 58.5 39.32, 60 39.39 S 63.5 39.35, 65 39.39 S 68.5 39.63, 70 39.67 S 73.5 39.65, 75 39.67 S 78.5 39.79, 80 39.83 S 83.52 40.18, 85 39.94 S 89.23 39.53, 90 38.24 S 93.64 23.74, 95 23.12 S 98.81 32.74, 100 33.66 S 103.71 31.62, 105 30.85 S 108.5 27.7, 110 27.65 S 113.64 29.89, 115 30.51 S 118.5 32.11, 120 32.22 S 123.5 31.32, 125 31.23 S 128.64 32.25, 130 31.62 S 133.68 27.31, 135 26.6 S 138.51 26.38, 140 26.21 S 143.5 25.49, 145 25.44 S 148.5 25.77, 150 25.88 S 153.52 25.91, 155 26.16 S 158.5 27.58, 160 27.54 S 163.7 26.63, 165 25.88 S 168.93 22.85, 170 21.8 S 173.52 15.86, 175 16.07 S 178.72 24.02, 180 23.24 S 183.55 10.37, 185 10 S 188.58 20.21, 190 20.7 S 193.5 13.32, 195 13.42 S 198.64 20.73, 200 21.36 S 203.75 18.88, 205 18.05"
          fill="none"/>
    <circle r="4" cx="5" cy="40" fill="#3023AE"/>
    <circle r="4" cx="205" cy="18.05" fill="#C86DD7"/>      
</svg>