<svg width="200" height="50" viewBox="0 0 210 50" xmlns="http://www.w3.org/2000/svg">
    <defs>
        <linearGradient x1="0%" y1="0%" x2="100%" y2="0%" id="a">
            <stop stop-color="#3023AE" offset="0%"/>
            <stop stop-color="#C86DD7" offset="100%"/>
        </linearGradient>
    </defs>
    <path stroke="url(#a)"
          stroke-width="3"
          stroke-linejoin="round"
          stroke-linecap="round"
          d="M5 40 C 6.5 39.98, 8.5 39.94, 10 39.93 S 13.5 39.94, 15 39.95 S 18.56 40.41, 20 39.98 S 23.5 37.03, 25 36.96 S 28.54 39.19, 30 39.53 S 33.5 39.36, 35 39.3 S 38.5 39.15, 40 39.11 S 43.51 39.13, 45 39 S 48.52 38.53, 50 38.27 S 53.5 37.09, 55 37.21 S 58.52 38.83, 60 39.07 S 63.51 38.98, 65 38.81 S 68.65 38.54, 70 37.9 S 73.5 34.09, 75 34.05 S 78.54 37.26, 80 37.61 S 83.5 36.58, 85 36.47 S 88.52 37.11, 90 36.87 S 93.52 35.07, 95 34.85 S 98.51 35.5, 100 35.37 S 103.5 33.92, 105 33.99 S 108.57 35.41, 110 35.86 S 113.51 36.96, 115 37.17 S 118.51 37.45, 120 37.24 S 123.5 35.85, 125 35.79 S 128.57 37.29, 130 36.84 S 133.51 32.88, 135 32.67 S 138.52 35.21, 140 35.42 S 143.5 34.02, 145 34.1 S 148.67 36.67, 150 35.98 S 153.5 28.96, 155 28.91 S 158.75 34.79, 160 35.63 S 163.5 35.74, 165 35.62 S 169.45 36.25, 170 34.85 S 173.5 9.89, 175 10 S 179.46 34.2, 180 35.6 S 183.53 36.07, 185 35.76 S 188.5 33.4, 190 33.47 S 193.55 35.83, 195 36.23 S 198.55 36.63, 200 36.25 S 203.67 34.33, 205 33.63"
          fill="none"/>
    <circle r="4" cx="5" cy="40" fill="#3023AE"/>
    <circle r="4" cx="205" cy="33.63" fill="#C86DD7"/>      
</svg>