<svg width="200" height="50" viewBox="0 0 210 50" xmlns="http://www.w3.org/2000/svg">
    <defs>
        <linearGradient x1="0%" y1="0%" x2="100%" y2="0%" id="a">
            <stop stop-color="#3023AE" offset="0%"/>
            <stop stop-color="#C86DD7" offset="100%"/>
        </linearGradient>
    </defs>
    <path stroke="url(#a)"
          stroke-width="3"
          stroke-linejoin="round"
          stroke-linecap="round"
          d="M5 40 C 5.25 38.52, 8.64 10.63, 10 10 S 14.45 33.94, 15 35.34 S 18.57 35.99, 20 35.53 S 23.66 32.81, 25 32.14 S 28.5 30.64, 30 30.58 S 33.52 31.49, 35 31.75 S 38.51 32.46, 40 32.33 S 43.5 30.86, 45 30.87 S 48.61 31.88, 50 32.43 S 53.6 34.32, 55 34.85 S 58.5 36.17, 60 36.21 S 63.52 34.93, 65 35.15 S 68.54 37.33, 70 37.67 S 73.5 37.41, 75 37.48 S 78.51 38.03, 80 38.16 S 83.5 38.42, 85 38.35 S 88.58 38.17, 90 37.67 S 93.55 35.24, 95 34.85 S 98.5 35.02, 100 34.95 S 103.51 34.5, 105 34.37 S 108.67 34.77, 110 34.08 S 113.55 29.6, 115 29.22 S 118.53 31.19, 120 31.46 S 123.58 31.54, 125 31.07 S 128.53 28.47, 130 28.16 S 133.51 28.8, 135 28.93 S 138.51 28.86, 140 29.03 S 143.6 29.56, 145 30.1 S 148.5 32.88, 150 32.91 S 153.56 30.7, 155 30.29 S 158.56 29.68, 160 30.1 S 163.51 33.4, 165 33.2 S 168.53 29.05, 170 28.74 S 173.51 30.88, 175 31.07 S 178.69 30.73, 180 30 S 183.69 26.26, 185 25.53 S 188.51 24.61, 190 24.47 S 193.53 24.25, 195 24.56 S 198.54 26.93, 200 26.6 S 203.86 23.3, 205 22.33"
          fill="none"/>
    <circle r="4" cx="5" cy="40" fill="#3023AE"/>
    <circle r="4" cx="205" cy="22.33" fill="#C86DD7"/>      
</svg>