<svg width="200" height="50" viewBox="0 0 210 50" xmlns="http://www.w3.org/2000/svg">
    <defs>
        <linearGradient x1="0%" y1="0%" x2="100%" y2="0%" id="a">
            <stop stop-color="#3023AE" offset="0%"/>
            <stop stop-color="#C86DD7" offset="100%"/>
        </linearGradient>
    </defs>
    <path stroke="url(#a)"
          stroke-width="3"
          stroke-linejoin="round"
          stroke-linecap="round"
          d="M5 40 C 6.19 39.08, 8.51 36.3, 10 36.12 S 13.5 38.71, 15 38.76 S 18.58 36.95, 20 36.47 S 23.5 35.46, 25 35.41 S 28.55 35.74, 30 36.12 S 34.38 39.43, 35 38.06 S 38.69 14.8, 40 14.06 S 44.28 31.1, 45 32.41 S 48.5 32.32, 50 32.24 S 53.5 31.96, 55 31.88 S 58.52 31.95, 60 31.71 S 63.61 30.85, 65 30.29 S 68.56 28.06, 70 27.65 S 73.51 27.31, 75 27.47 S 78.54 29.04, 80 28.71 S 83.52 25.42, 85 25.18 S 88.74 27.94, 90 27.12 S 94.16 19.89, 95 18.65 S 98.58 11.81, 100 12.29 S 104.14 20.77, 105 22 S 108.52 26.35, 110 26.59 S 113.5 23.54, 115 23.59 S 118.54 26.58, 120 26.94 S 123.59 26.56, 125 26.06 S 128.66 24.07, 130 23.41 S 133.5 21.22, 135 21.12 S 138.54 23.07, 140 22.71 S 143.62 19.24, 145 18.65 S 148.52 18.21, 150 18.47 S 153.53 20.12, 155 20.41 S 158.51 20.57, 160 20.41 S 163.5 19.4, 165 19.35 S 168.51 19.88, 170 20.06 S 173.53 20.88, 175 20.59 S 178.77 18.99, 180 18.12 S 183.61 14.09, 185 13.53 S 188.52 13.82, 190 14.06 S 193.51 15.25, 195 15.12 S 198.66 13.86, 200 13.18 S 203.73 10.8, 205 10"
          fill="none"/>
    <circle r="4" cx="5" cy="40" fill="#3023AE"/>
    <circle r="4" cx="205" cy="10" fill="#C86DD7"/>      
</svg>