<svg width="200" height="50" viewBox="0 0 210 50" xmlns="http://www.w3.org/2000/svg">
    <defs>
        <linearGradient x1="0%" y1="0%" x2="100%" y2="0%" id="a">
            <stop stop-color="#3023AE" offset="0%"/>
            <stop stop-color="#C86DD7" offset="100%"/>
        </linearGradient>
    </defs>
    <path stroke="url(#a)"
          stroke-width="3"
          stroke-linejoin="round"
          stroke-linecap="round"
          d="M5 40 C 6.41 39.48, 8.57 38.6, 10 38.14 S 13.51 36.92, 15 36.74 S 18.5 36.93, 20 36.92 S 23.5 36.77, 25 36.65 S 28.5 36.13, 30 36.11 S 33.51 36.65, 35 36.52 S 38.5 35.34, 40 35.25 S 43.5 35.86, 45 35.93 S 48.5 35.73, 50 35.7 S 53.5 35.68, 55 35.7 S 58.5 35.85, 60 35.84 S 63.51 35.8, 65 35.66 S 68.5 34.95, 70 34.89 S 73.5 35.17, 75 35.29 S 78.5 35.6, 80 35.7 S 83.5 36.02, 85 35.93 S 88.51 35.23, 90 35.07 S 93.5 34.93, 95 34.84 S 98.5 34.47, 100 34.48 S 103.5 34.97, 105 34.93 S 108.5 34.27, 110 34.21 S 113.5 34.4, 115 34.52 S 118.5 35.09, 120 35.02 S 123.52 34.26, 125 34.03 S 128.5 33.33, 130 33.44 S 133.52 34.49, 135 34.75 S 138.53 35.51, 140 35.2 S 143.55 33, 145 32.62 S 148.53 32.27, 150 32.58 S 153.52 34.46, 155 34.71 S 158.51 34.5, 160 34.3 S 163.5 33.46, 165 33.39 S 168.5 33.87, 170 33.85 S 174.14 34.49, 175 33.26 S 178.55 19.86, 180 19.46 S 183.58 30.98, 185 30.5 S 189.34 17.41, 190 16.06 S 193.5 9.92, 195 10 S 198.67 15.92, 200 16.61 S 203.56 15.58, 205 15.16"
          fill="none"/>
    <circle r="4" cx="5" cy="40" fill="#3023AE"/>
    <circle r="4" cx="205" cy="15.16" fill="#C86DD7"/>      
</svg>