<svg width="200" height="50" viewBox="0 0 210 50" xmlns="http://www.w3.org/2000/svg">
    <defs>
        <linearGradient x1="0%" y1="0%" x2="100%" y2="0%" id="a">
            <stop stop-color="#3023AE" offset="0%"/>
            <stop stop-color="#C86DD7" offset="100%"/>
        </linearGradient>
    </defs>
    <path stroke="url(#a)"
          stroke-width="3"
          stroke-linejoin="round"
          stroke-linecap="round"
          d="M5 40 C 6.37 39.38, 8.61 38.29, 10 37.73 S 13.51 35.8, 15 35.98 S 18.53 38.65, 20 38.96 S 23.6 38.65, 25 38.12 S 28.5 35.1, 30 35.18 S 33.51 38.49, 35 38.66 S 38.51 36.47, 40 36.29 S 43.51 37.68, 45 37.48 S 48.54 35.31, 50 34.95 S 53.53 34.74, 55 35.02 S 58.5 36.75, 60 36.83 S 63.55 35.95, 65 35.58 S 69.45 35.66, 70 34.26 S 73.5 10.01, 75 10 S 79.45 32.83, 80 34.22 S 83.51 35.34, 85 35.16 S 88.52 33.27, 90 33.02 S 93.51 33.3, 95 33.49 S 98.51 34.13, 100 34.32 S 103.57 35.24, 105 34.79 S 108.89 32.2, 110 31.19 S 113.51 25.49, 115 25.67 S 118.67 31.68, 120 32.38 S 123.52 31.24, 125 30.97 S 128.5 30.54, 130 30.55 S 133.51 31.17, 135 31.04 S 138.5 29.55, 140 29.65 S 143.5 31.74, 145 31.71 S 148.51 29.67, 150 29.47 S 153.5 30.36, 155 30.39 S 158.59 30.2, 160 29.68 S 163.54 27.01, 165 26.67 S 168.5 27.43, 170 27.36 S 173.51 26.38, 175 26.17 S 178.52 25.67, 180 25.94 S 183.55 28.36, 185 27.97 S 188.77 24.13, 190 23.26 S 193.9 21.93, 195 20.91 S 198.5 14.03, 200 13.99 S 204.1 19.45, 205 20.65"
          fill="none"/>
    <circle r="4" cx="5" cy="40" fill="#3023AE"/>
    <circle r="4" cx="205" cy="20.65" fill="#C86DD7"/>      
</svg>