<svg width="200" height="50" viewBox="0 0 210 50" xmlns="http://www.w3.org/2000/svg">
    <defs>
        <linearGradient x1="0%" y1="0%" x2="100%" y2="0%" id="a">
            <stop stop-color="#3023AE" offset="0%"/>
            <stop stop-color="#C86DD7" offset="100%"/>
        </linearGradient>
    </defs>
    <path stroke="url(#a)"
          stroke-width="3"
          stroke-linejoin="round"
          stroke-linecap="round"
          d="M5 40 C 6.5 39.91, 9.36 41.07, 10 39.71 S 14.22 20.17, 15 18.89 S 18.79 22.42, 20 23.3 S 23.55 25.79, 25 26.17 S 28.5 25.9, 30 25.93 S 34.2 27.64, 35 26.37 S 38.92 11.04, 40 10 S 44.08 15.56, 45 16.74 S 48.83 21.9, 50 22.83 S 53.5 24.8, 55 24.7 S 58.5 22.28, 60 22.18 S 63.59 23.54, 65 24.05 S 68.63 25.17, 70 25.78 S 73.52 28.71, 75 28.5 S 78.54 24, 80 24.34 S 83.59 30.32, 85 30.82 S 88.5 27.87, 90 27.89 S 93.52 30.71, 95 30.96 S 98.51 29.45, 100 29.58 S 103.57 31.38, 105 31.85 S 108.56 32.43, 110 32.85 S 113.53 34.53, 115 34.8 S 118.51 34.58, 120 34.71 S 123.52 35.38, 125 35.65 S 128.51 36.35, 130 36.52 S 133.5 36.78, 135 36.78 S 138.5 36.53, 140 36.52 S 143.51 36.56, 145 36.69 S 148.5 37.28, 150 37.39 S 153.5 37.35, 155 37.41 S 158.5 37.77, 160 37.78 S 163.5 37.43, 165 37.48 S 168.51 37.97, 170 38.09 S 173.5 38.37, 175 38.31 S 178.5 37.76, 180 37.66 S 183.5 37.67, 185 37.61 S 188.5 37.23, 190 37.24 S 193.5 37.62, 195 37.65 S 198.5 37.32, 200 37.42 S 203.52 38.05, 205 38.31"
          fill="none"/>
    <circle r="4" cx="5" cy="40" fill="#3023AE"/>
    <circle r="4" cx="205" cy="38.31" fill="#C86DD7"/>      
</svg>