<svg width="200" height="50" viewBox="0 0 210 50" xmlns="http://www.w3.org/2000/svg">
    <defs>
        <linearGradient x1="0%" y1="0%" x2="100%" y2="0%" id="a">
            <stop stop-color="#3023AE" offset="0%"/>
            <stop stop-color="#C86DD7" offset="100%"/>
        </linearGradient>
    </defs>
    <path stroke="url(#a)"
          stroke-width="3"
          stroke-linejoin="round"
          stroke-linecap="round"
          d="M5 40 C 6.5 39.97, 8.52 40.12, 10 39.9 S 13.52 38.75, 15 38.51 S 19.5 39.72, 20 38.3 S 24.37 11.36, 25 10 S 28.97 15.7, 30 16.79 S 33.79 19.61, 35 20.5 S 38.66 23.47, 40 24.15 S 43.5 25.51, 45 25.59 S 48.51 24.52, 50 24.67 S 53.53 26.27, 55 26.57 S 58.52 26.98, 60 26.72 S 63.53 24.54, 65 24.82 S 68.53 28.32, 70 28.63 S 73.5 26.95, 75 26.93 S 78.56 28.05, 80 28.47 S 83.54 29.45, 85 29.81 S 88.5 30.94, 90 30.94 S 93.55 30.19, 95 29.81 S 98.5 28.33, 100 28.32 S 103.54 29.41, 105 29.76 S 108.62 31.32, 110 30.74 S 113.53 25.32, 115 25.59 S 118.5 32.48, 120 32.59 S 123.58 26.78, 125 26.31 S 128.66 28.62, 130 29.3 S 133.51 31.2, 135 31.41 S 138.54 31.02, 140 30.69 S 143.51 29.32, 145 29.14 S 148.5 29.57, 150 29.45 S 153.56 27.95, 155 28.37 S 158.56 32.77, 160 32.33 S 163.76 26.17, 165 25.33 S 168.56 25.17, 170 25.59 S 173.9 27.2, 175 28.22 S 178.51 34.62, 180 34.8 S 183.69 30.13, 185 29.4 S 188.5 29.17, 190 29.25 S 193.55 29.54, 195 29.91 S 198.51 32, 200 31.82 S 203.73 29.48, 205 28.68"
          fill="none"/>
    <circle r="4" cx="5" cy="40" fill="#3023AE"/>
    <circle r="4" cx="205" cy="28.68" fill="#C86DD7"/>      
</svg>