<svg width="200" height="50" viewBox="0 0 210 50" xmlns="http://www.w3.org/2000/svg">
    <defs>
        <linearGradient x1="0%" y1="0%" x2="100%" y2="0%" id="a">
            <stop stop-color="#3023AE" offset="0%"/>
            <stop stop-color="#C86DD7" offset="100%"/>
        </linearGradient>
    </defs>
    <path stroke="url(#a)"
          stroke-width="3"
          stroke-linejoin="round"
          stroke-linecap="round"
          d="M5 40 C 5.81 38.73, 8.5 32.21, 10 32.15 S 13.8 38.71, 15 39.61 S 18.5 39.66, 20 39.66 S 23.5 39.62, 25 39.61 S 28.5 39.59, 30 39.61 S 33.5 39.71, 35 39.76 S 38.5 39.92, 40 39.95 S 43.5 39.97, 45 39.95 S 48.53 40.12, 50 39.81 S 53.52 38.1, 55 37.87 S 58.5 38.17, 60 38.26 S 63.51 38.59, 65 38.45 S 68.51 37.48, 70 37.33 S 73.51 37.57, 75 37.43 S 78.5 36.47, 80 36.41 S 83.5 36.94, 85 37.04 S 88.52 37.36, 90 37.09 S 93.52 35.44, 95 35.2 S 98.55 35.81, 100 35.44 S 103.54 32.96, 105 32.63 S 108.53 33.5, 110 33.21 S 113.54 31.04, 115 30.69 S 118.5 30.96, 120 30.84 S 123.55 30.31, 125 29.92 S 128.6 28.72, 130 28.17 S 133.51 26.16, 135 25.99 S 138.52 27.3, 140 27.06 S 143.52 24.61, 145 24.39 S 148.52 25.85, 150 25.61 S 153.5 22.9, 155 22.79 S 158.5 24.96, 160 24.88 S 163.5 22.23, 165 22.26 S 168.56 25.49, 170 25.07 S 173.66 20.01, 175 19.35 S 178.52 20.37, 180 20.13 S 183.63 18.36, 185 17.75 S 188.76 16.57, 190 15.72 S 193.51 11.04, 195 10.87 S 198.51 14.73, 200 14.6 S 203.9 11.02, 205 10"
          fill="none"/>
    <circle r="4" cx="5" cy="40" fill="#3023AE"/>
    <circle r="4" cx="205" cy="10" fill="#C86DD7"/>      
</svg>