<svg width="200" height="50" viewBox="0 0 210 50" xmlns="http://www.w3.org/2000/svg">
    <defs>
        <linearGradient x1="0%" y1="0%" x2="100%" y2="0%" id="a">
            <stop stop-color="#3023AE" offset="0%"/>
            <stop stop-color="#C86DD7" offset="100%"/>
        </linearGradient>
    </defs>
    <path stroke="url(#a)"
          stroke-width="3"
          stroke-linejoin="round"
          stroke-linecap="round"
          d="M5 40 C 6.5 39.99, 8.5 40, 10 39.98 S 13.5 39.89, 15 39.89 S 18.5 39.97, 20 39.96 S 23.5 39.81, 25 39.8 S 28.5 39.87, 30 39.89 S 33.5 39.93, 35 39.93 S 38.5 39.88, 40 39.87 S 43.5 39.89, 45 39.89 S 48.5 39.87, 50 39.84 S 53.5 39.74, 55 39.69 S 58.5 39.51, 60 39.51 S 63.5 39.7, 65 39.71 S 68.5 39.59, 70 39.56 S 73.5 39.53, 75 39.53 S 78.5 39.54, 80 39.56 S 83.5 39.76, 85 39.69 S 88.5 39.18, 90 39.11 S 93.5 39.23, 95 39.2 S 98.5 38.9, 100 38.89 S 103.5 39.12, 105 39.16 S 108.5 39.15, 110 39.13 S 113.5 39.07, 115 39.04 S 118.5 38.91, 120 38.91 S 123.5 39.02, 125 39.04 S 128.5 39.08, 130 39.02 S 133.5 38.68, 135 38.64 S 138.5 38.71, 140 38.76 S 143.5 38.97, 145 38.98 S 148.5 38.83, 150 38.82 S 153.5 38.87, 155 38.93 S 158.5 39.27, 160 39.22 S 163.5 38.64, 165 38.62 S 168.5 39.04, 170 39.09 S 173.5 39.01, 175 38.96 S 178.5 38.78, 180 38.78 S 183.5 39, 185 38.96 S 188.5 38.53, 190 38.51 S 193.5 38.74, 195 38.8 S 199.51 40.33, 200 38.91 S 204.74 11.48, 205 10"
          fill="none"/>
    <circle r="4" cx="5" cy="40" fill="#3023AE"/>
    <circle r="4" cx="205" cy="10" fill="#C86DD7"/>      
</svg>