<svg width="200" height="50" viewBox="0 0 210 50" xmlns="http://www.w3.org/2000/svg">
    <defs>
        <linearGradient x1="0%" y1="0%" x2="100%" y2="0%" id="a">
            <stop stop-color="#3023AE" offset="0%"/>
            <stop stop-color="#C86DD7" offset="100%"/>
        </linearGradient>
    </defs>
    <path stroke="url(#a)"
          stroke-width="3"
          stroke-linejoin="round"
          stroke-linecap="round"
          d="M5 40 C 5.25 38.52, 8.61 10.56, 10 10 S 14.47 34.57, 15 35.97 S 18.51 36.1, 20 36.3 S 23.5 37.2, 25 37.31 S 28.5 37.15, 30 37.06 S 33.5 36.76, 35 36.72 S 38.51 36.98, 40 36.81 S 43.5 35.66, 45 35.55 S 48.54 36.38, 50 36.05 S 53.5 33.27, 55 33.28 S 58.5 36.18, 60 36.13 S 63.52 33.18, 65 32.94 S 68.5 34.46, 70 34.54 S 73.72 34.23, 75 33.45 S 78.67 29.18, 80 28.49 S 83.57 27.79, 85 28.24 S 88.51 31.39, 90 31.6 S 93.55 30.05, 95 29.66 S 98.5 28.82, 100 28.91 S 103.57 29.79, 105 30.25 S 108.54 31.74, 110 32.1 S 113.52 32.91, 115 32.69 S 118.55 30.99, 120 30.59 S 123.51 29.73, 125 29.92 S 128.5 31.78, 130 31.85 S 133.5 30.31, 135 30.42 S 138.5 32.52, 140 32.61 S 143.5 31.04, 145 31.01 S 148.52 32.19, 150 32.44 S 153.52 32.93, 155 32.69 S 158.53 31.14, 160 30.84 S 163.53 30.39, 165 30.67 S 168.52 32.53, 170 32.77 S 173.51 32.13, 175 32.27 S 178.52 33.48, 180 33.7 S 183.5 33.77, 185 33.78 S 188.5 33.69, 190 33.78 S 193.5 34.37, 195 34.37 S 198.53 34.05, 200 33.78 S 203.55 32.89, 205 32.52"
          fill="none"/>
    <circle r="4" cx="5" cy="40" fill="#3023AE"/>
    <circle r="4" cx="205" cy="32.519999999999996" fill="#C86DD7"/>      
</svg>