<svg width="200" height="50" viewBox="0 0 210 50" xmlns="http://www.w3.org/2000/svg">
    <defs>
        <linearGradient x1="0%" y1="0%" x2="100%" y2="0%" id="a">
            <stop stop-color="#3023AE" offset="0%"/>
            <stop stop-color="#C86DD7" offset="100%"/>
        </linearGradient>
    </defs>
    <path stroke="url(#a)"
          stroke-width="3"
          stroke-linejoin="round"
          stroke-linecap="round"
          d="M5 40 C 5.91 38.8, 8.97 34.49, 10 33.4 S 13.64 30.13, 15 29.5 S 18.53 29.08, 20 28.77 S 23.85 28.38, 25 27.42 S 28.57 20.84, 30 20.4 S 33.5 24.32, 35 24.35 S 38.52 20.83, 40 20.61 S 43.66 22.16, 45 22.84 S 48.55 26.03, 50 25.65 S 53.95 21.26, 55 20.19 S 58.53 15.76, 60 15.46 S 63.51 18.35, 65 18.16 S 68.52 13.97, 70 14.21 S 73.66 19.09, 75 19.77 S 78.51 19.42, 80 19.25 S 83.79 19.52, 85 18.63 S 88.52 12.13, 90 11.87 S 93.53 17.14, 95 16.86 S 98.5 10, 100 10 S 103.7 16.11, 105 16.86 S 108.5 15.83, 110 15.82 S 113.51 16.94, 115 16.81 S 118.5 14.83, 120 14.94 S 123.52 17.28, 125 17.54 S 128.54 17.04, 130 16.71 S 133.5 15.19, 135 15.3 S 138.54 17.11, 140 17.44 S 143.54 17.23, 145 17.59 S 148.65 20.58, 150 19.93 S 153.67 13.46, 155 12.76 S 158.54 14.32, 160 14.68 S 163.5 15.21, 165 15.25 S 168.54 15.27, 170 14.94 S 173.6 12.49, 175 13.02 S 178.53 19.01, 180 18.73 S 183.7 11.84, 185 11.09 S 188.6 12.37, 190 12.91 S 193.55 14.56, 195 14.94 S 198.64 16.2, 200 15.56 S 203.97 11.35, 205 10.26"
          fill="none"/>
    <circle r="4" cx="5" cy="40" fill="#3023AE"/>
    <circle r="4" cx="205" cy="10.260000000000002" fill="#C86DD7"/>      
</svg>