<svg width="200" height="50" viewBox="0 0 210 50" xmlns="http://www.w3.org/2000/svg">
    <defs>
        <linearGradient x1="0%" y1="0%" x2="100%" y2="0%" id="a">
            <stop stop-color="#3023AE" offset="0%"/>
            <stop stop-color="#C86DD7" offset="100%"/>
        </linearGradient>
    </defs>
    <path stroke="url(#a)"
          stroke-width="3"
          stroke-linejoin="round"
          stroke-linecap="round"
          d="M5 40 C 5.91 38.81, 9 34.56, 10 33.44 S 13.64 29.45, 15 28.81 S 18.5 28.85, 20 28.76 S 23.94 29.29, 25 28.23 S 28.64 19.35, 30 18.73 S 33.56 23.23, 35 23.65 S 38.55 21.25, 40 21.62 S 43.5 26.26, 45 26.21 S 48.88 22.29, 50 21.29 S 53.59 17.8, 55 17.28 S 58.54 17.93, 60 17.57 S 63.55 14.44, 65 14.82 S 68.6 19.63, 70 20.18 S 73.51 18.92, 75 18.73 S 78.71 19.64, 80 18.87 S 83.66 13.43, 85 12.75 S 88.52 13.59, 90 13.81 S 93.6 13.69, 95 14.24 S 98.53 17.4, 100 17.72 S 103.55 16.79, 105 16.41 S 108.5 15.08, 110 15.11 S 113.56 16.18, 115 16.61 S 118.51 18.24, 120 18.1 S 123.5 15.79, 125 15.69 S 128.52 17.17, 130 17.43 S 133.57 16.96, 135 17.43 S 138.66 21.39, 140 20.71 S 143.65 13.02, 145 12.36 S 148.61 15.23, 150 15.79 S 153.53 16.67, 155 16.37 S 158.51 13.93, 160 13.76 S 163.55 14.88, 165 15.26 S 168.59 16.89, 170 16.37 S 173.51 11.71, 175 11.54 S 178.7 14.5, 180 15.26 S 183.64 18.02, 185 17.38 S 188.59 11.03, 190 10.53 S 193.5 13.89, 195 13.81 S 198.5 9.9, 200 10 S 203.88 13.49, 205 14.49"
          fill="none"/>
    <circle r="4" cx="5" cy="40" fill="#3023AE"/>
    <circle r="4" cx="205" cy="14.489999999999998" fill="#C86DD7"/>      
</svg>