<svg width="200" height="50" viewBox="0 0 210 50" xmlns="http://www.w3.org/2000/svg">
    <defs>
        <linearGradient x1="0%" y1="0%" x2="100%" y2="0%" id="a">
            <stop stop-color="#3023AE" offset="0%"/>
            <stop stop-color="#C86DD7" offset="100%"/>
        </linearGradient>
    </defs>
    <path stroke="url(#a)"
          stroke-width="3"
          stroke-linejoin="round"
          stroke-linecap="round"
          d="M5 40 C 5.47 38.58, 9.5 26.42, 10 25 S 13.52 11.28, 15 11.5 S 18.52 26.72, 20 26.5 S 23.63 9.38, 25 10 S 29.17 29.75, 30 31 S 33.52 25.22, 35 25 S 38.52 29.72, 40 29.5 S 43.52 23.72, 45 23.5 S 48.63 27.38, 50 28 S 53.71 27.23, 55 28 S 58.71 33.23, 60 34 S 63.52 33.78, 65 34 S 68.52 35.28, 70 35.5 S 73.56 35.07, 75 35.5 S 78.56 38.93, 80 38.5 S 83.63 33.12, 85 32.5 S 88.52 33.78, 90 34 S 93.5 34, 95 34 S 98.56 34.43, 100 34 S 103.56 31.43, 105 31 S 108.5 31, 110 31 S 113.52 31.22, 115 31 S 118.52 29.28, 120 29.5 S 123.56 32.07, 125 32.5 S 128.97 33.59, 130 32.5 S 133.71 22.77, 135 22 S 138.97 25.41, 140 26.5 S 143.8 31.6, 145 32.5 S 148.71 33.23, 150 34 S 153.63 37.88, 155 38.5 S 158.71 39.27, 160 38.5 S 163.71 33.27, 165 32.5 S 168.5 32.5, 170 32.5 S 173.52 32.28, 175 32.5 S 178.52 34.22, 180 34 S 183.56 31.43, 185 31 S 188.52 30.78, 190 31 S 193.56 32.93, 195 32.5 S 198.63 27.38, 200 28 S 204.27 35.69, 205 37"
          fill="none"/>
    <circle r="4" cx="5" cy="40" fill="#3023AE"/>
    <circle r="4" cx="205" cy="37" fill="#C86DD7"/>      
</svg>