<svg width="200" height="50" viewBox="0 0 210 50" xmlns="http://www.w3.org/2000/svg">
    <defs>
        <linearGradient x1="0%" y1="0%" x2="100%" y2="0%" id="a">
            <stop stop-color="#3023AE" offset="0%"/>
            <stop stop-color="#C86DD7" offset="100%"/>
        </linearGradient>
    </defs>
    <path stroke="url(#a)"
          stroke-width="3"
          stroke-linejoin="round"
          stroke-linecap="round"
          d="M5 40 C 6.5 39.95, 8.51 39.96, 10 39.82 S 13.52 39.28, 15 39.03 S 18.5 38.23, 20 38.12 S 23.5 38.36, 25 38.27 S 28.51 37.73, 30 37.54 S 33.5 37.02, 35 36.96 S 38.5 37.19, 40 37.15 S 43.51 36.81, 45 36.68 S 48.5 36.4, 50 36.31 S 53.71 36.83, 55 36.07 S 58.59 30.9, 60 30.39 S 63.57 32.03, 65 32.49 S 68.51 33.42, 70 33.61 S 73.51 33.56, 75 33.74 S 78.51 34.66, 80 34.84 S 83.54 35.32, 85 34.97 S 88.52 32.63, 90 32.41 S 93.51 33.67, 95 33.51 S 99.41 32.74, 100 31.36 S 103.59 10.51, 105 10 S 109.28 26.4, 110 27.72 S 113.5 28.45, 115 28.4 S 118.5 27.45, 120 27.36 S 123.53 27.52, 125 27.8 S 128.58 28.79, 130 29.27 S 133.54 30.85, 135 31.2 S 138.5 31.79, 140 31.7 S 143.5 30.68, 145 30.6 S 148.51 31.02, 150 31.15 S 153.56 31.02, 155 31.44 S 158.52 33.86, 160 34.08 S 163.5 32.98, 165 32.93 S 168.53 33.45, 170 33.77 S 173.51 35.27, 175 35.08 S 178.63 33.12, 180 32.51 S 183.51 30.84, 185 30.63 S 188.55 30.74, 190 31.13 S 193.57 32.87, 195 33.32 S 198.5 34.22, 200 34.24 S 203.52 33.71, 205 33.48"
          fill="none"/>
    <circle r="4" cx="5" cy="40" fill="#3023AE"/>
    <circle r="4" cx="205" cy="33.480000000000004" fill="#C86DD7"/>      
</svg>