<svg width="200" height="50" viewBox="0 0 210 50" xmlns="http://www.w3.org/2000/svg">
    <defs>
        <linearGradient x1="0%" y1="0%" x2="100%" y2="0%" id="a">
            <stop stop-color="#3023AE" offset="0%"/>
            <stop stop-color="#C86DD7" offset="100%"/>
        </linearGradient>
    </defs>
    <path stroke="url(#a)"
          stroke-width="3"
          stroke-linejoin="round"
          stroke-linecap="round"
          d="M5 40 C 6.48 39.77, 8.5 39.3, 10 39.23 S 13.5 39.49, 15 39.54 S 18.5 39.58, 20 39.54 S 23.5 39.3, 25 39.26 S 28.5 39.27, 30 39.29 S 33.5 39.42, 35 39.39 S 38.5 39.08, 40 39.06 S 43.5 39.37, 45 39.26 S 48.5 38.37, 50 38.34 S 53.51 38.87, 55 39.03 S 58.5 39.33, 60 39.41 S 63.5 39.57, 65 39.59 S 68.5 39.54, 70 39.54 S 73.5 39.61, 75 39.62 S 78.5 39.63, 80 39.62 S 83.5 39.57, 85 39.54 S 88.5 39.42, 90 39.39 S 93.5 39.36, 95 39.36 S 98.5 39.37, 100 39.39 S 103.5 39.47, 105 39.49 S 108.5 39.6, 110 39.51 S 113.69 39.62, 115 38.88 S 119.51 35.29, 120 33.87 S 123.74 10.82, 125 10 S 129.32 26, 130 27.34 S 133.57 29.18, 135 29.63 S 138.5 30.39, 140 30.48 S 143.59 30.76, 145 30.25 S 149.17 28.13, 150 26.88 S 153.5 15.14, 155 15.13 S 159 25.68, 160 26.8 S 163.54 25.9, 165 26.26 S 168.59 28.79, 170 29.3 S 173.51 29.71, 175 29.84 S 178.54 29.78, 180 30.14 S 183.5 32.41, 185 32.29 S 188.51 29.51, 190 29.33 S 193.64 31.74, 195 31.11 S 198.58 25.16, 200 24.68 S 203.72 26.94, 205 27.72"
          fill="none"/>
    <circle r="4" cx="5" cy="40" fill="#3023AE"/>
    <circle r="4" cx="205" cy="27.72" fill="#C86DD7"/>      
</svg>