<svg width="200" height="50" viewBox="0 0 210 50" xmlns="http://www.w3.org/2000/svg">
    <defs>
        <linearGradient x1="0%" y1="0%" x2="100%" y2="0%" id="a">
            <stop stop-color="#3023AE" offset="0%"/>
            <stop stop-color="#C86DD7" offset="100%"/>
        </linearGradient>
    </defs>
    <path stroke="url(#a)"
          stroke-width="3"
          stroke-linejoin="round"
          stroke-linecap="round"
          d="M5 40 C 6.5 39.96, 8.5 39.88, 10 39.86 S 13.5 39.86, 15 39.86 S 18.5 39.86, 20 39.86 S 23.5 39.86, 25 39.86 S 28.5 39.86, 30 39.86 S 33.97 40.95, 35 39.86 S 38.5 29.41, 40 29.31 S 44.31 40.5, 45 39.17 S 48.54 10.33, 50 10 S 54.47 35.54, 55 36.94 S 58.51 36.18, 60 36.39 S 63.5 38.31, 65 38.33 S 69.37 37.89, 70 36.53 S 73.51 16.48, 75 16.67 S 79.35 36.43, 80 37.78 S 83.82 38.42, 85 37.5 S 88.53 30.29, 90 30 S 93.86 34.59, 95 35.56 S 98.54 38.14, 100 38.47 S 103.52 38.03, 105 37.78 S 108.95 37.89, 110 36.81 S 113.85 28.46, 115 27.5 S 118.97 27.38, 120 28.47 S 123.9 37.04, 125 38.06 S 128.51 37.61, 130 37.78 S 133.51 38.98, 135 39.17 S 138.5 39.13, 140 39.03 S 143.5 38.41, 145 38.47 S 148.5 39.42, 150 39.44 S 153.5 38.55, 155 38.61 S 158.5 39.82, 160 39.86 S 163.5 38.99, 165 38.89 S 168.51 39.03, 170 39.17 S 173.5 39.86, 175 39.86 S 178.5 39.21, 180 39.17 S 183.5 39.52, 185 39.58 S 188.5 39.56, 190 39.58 S 193.5 39.72, 195 39.72 S 198.5 39.58, 200 39.58 S 203.5 39.68, 205 39.72"
          fill="none"/>
    <circle r="4" cx="5" cy="40" fill="#3023AE"/>
    <circle r="4" cx="205" cy="39.72" fill="#C86DD7"/>      
</svg>