<svg width="200" height="50" viewBox="0 0 210 50" xmlns="http://www.w3.org/2000/svg">
    <defs>
        <linearGradient x1="0%" y1="0%" x2="100%" y2="0%" id="a">
            <stop stop-color="#3023AE" offset="0%"/>
            <stop stop-color="#C86DD7" offset="100%"/>
        </linearGradient>
    </defs>
    <path stroke="url(#a)"
          stroke-width="3"
          stroke-linejoin="round"
          stroke-linecap="round"
          d="M5 40 C 6.2 39.1, 8.6 36.78, 10 36.25 S 13.5 36.25, 15 36.25 S 18.5 36.25, 20 36.25 S 23.5 36.25, 25 36.25 S 28.5 36.25, 30 36.25 S 33.5 36.25, 35 36.25 S 38.5 36.25, 40 36.25 S 43.5 36.25, 45 36.25 S 48.5 36.25, 50 36.25 S 53.5 36.25, 55 36.25 S 58.6 36.78, 60 36.25 S 63.5 32.5, 65 32.5 S 68.6 35.72, 70 36.25 S 73.5 36.25, 75 36.25 S 78.6 36.78, 80 36.25 S 83.5 32.5, 85 32.5 S 88.8 37.15, 90 36.25 S 93.6 25.53, 95 25 S 98.8 31.6, 100 32.5 S 103.6 31.97, 105 32.5 S 108.6 35.72, 110 36.25 S 113.6 36.78, 115 36.25 S 119.47 33.9, 120 32.5 S 123.6 9.47, 125 10 S 129.47 34.85, 130 36.25 S 134.29 37.57, 135 36.25 S 139.17 18.75, 140 17.5 S 143.8 20.35, 145 21.25 S 148.8 24.1, 150 25 S 153.8 27.85, 155 28.75 S 158.8 33.4, 160 32.5 S 163.6 21.78, 165 21.25 S 168.8 27.85, 170 28.75 S 173.6 28.22, 175 28.75 S 178.5 32.5, 180 32.5 S 183.6 29.28, 185 28.75 S 188.8 29.65, 190 28.75 S 194.29 22.57, 195 21.25 S 199.39 11.37, 200 10"
          fill="none"/>
    <circle r="4" cx="5" cy="40" fill="#3023AE"/>
    <circle r="4" cx="200" cy="10" fill="#C86DD7"/>      
</svg>