<svg width="200" height="50" viewBox="0 0 210 50" xmlns="http://www.w3.org/2000/svg">
    <defs>
        <linearGradient x1="0%" y1="0%" x2="100%" y2="0%" id="a">
            <stop stop-color="#3023AE" offset="0%"/>
            <stop stop-color="#C86DD7" offset="100%"/>
        </linearGradient>
    </defs>
    <path stroke="url(#a)"
          stroke-width="3"
          stroke-linejoin="round"
          stroke-linecap="round"
          d="M5 40 C 5.25 38.52, 8.5 10.1, 10 10 S 14.52 37.91, 15 39.33 S 18.5 39.33, 20 39.33 S 23.5 39.33, 25 39.33 S 28.5 39.33, 30 39.33 S 33.5 39.33, 35 39.33 S 38.71 40.1, 40 39.33 S 43.53 33.62, 45 33.33 S 48.51 37.53, 50 37.33 S 53.53 32.29, 55 32 S 58.75 34.5, 60 35.33 S 63.53 38.38, 65 38.67 S 68.5 37.43, 70 37.33 S 73.58 38.47, 75 38 S 78.51 34.2, 80 34 S 83.58 36.2, 85 36.67 S 88.51 37.13, 90 37.33 S 93.5 37.9, 95 38 S 98.5 38, 100 38 S 103.53 38.29, 105 38 S 108.51 35.8, 110 36 S 113.58 38.86, 115 39.33 S 118.5 39.43, 120 39.33 S 123.51 38.87, 125 38.67 S 128.5 37.9, 130 38 S 133.5 39.23, 135 39.33 S 138.5 38.77, 140 38.67 S 143.5 38.57, 145 38.67 S 148.5 39.23, 150 39.33 S 153.5 39.43, 155 39.33 S 158.5 38.77, 160 38.67 S 163.5 38.57, 165 38.67 S 168.5 39.23, 170 39.33 S 173.5 39.33, 175 39.33 S 178.5 39.33, 180 39.33 S 183.5 39.33, 185 39.33 S 188.5 39.33, 190 39.33 S 193.5 39.33, 195 39.33"
          fill="none"/>
    <circle r="4" cx="5" cy="40" fill="#3023AE"/>
    <circle r="4" cx="195" cy="39.33" fill="#C86DD7"/>      
</svg>