<svg width="200" height="50" viewBox="0 0 210 50" xmlns="http://www.w3.org/2000/svg">
    <defs>
        <linearGradient x1="0%" y1="0%" x2="100%" y2="0%" id="a">
            <stop stop-color="#3023AE" offset="0%"/>
            <stop stop-color="#C86DD7" offset="100%"/>
        </linearGradient>
    </defs>
    <path stroke="url(#a)"
          stroke-width="3"
          stroke-linejoin="round"
          stroke-linecap="round"
          d="M5 40 C 5.47 38.58, 8.58 25.49, 10 25 S 13.9 35.52, 15 36.54 S 18.58 34.72, 20 34.23 S 23.51 32.91, 25 33.08 S 28.54 35.04, 30 35.38 S 33.51 35.21, 35 35.38 S 38.54 36.2, 40 36.54 S 43.64 38.32, 45 37.69 S 48.64 32.55, 50 31.92 S 53.58 33.57, 55 33.08 S 58.58 28.95, 60 28.46 S 63.77 30.47, 65 29.62 S 68.77 22.39, 70 21.54 S 73.54 22.35, 75 22.69 S 78.83 24.79, 80 23.85 S 83.7 13.87, 85 14.62 S 89.17 28.37, 90 29.62 S 93.7 30.37, 95 29.62 S 98.7 24.6, 100 23.85 S 103.64 24.48, 105 23.85 S 108.7 19.98, 110 19.23 S 113.96 17, 115 18.08 S 118.64 28.99, 120 29.62 S 123.77 23.54, 125 22.69 S 128.54 23.03, 130 22.69 S 133.51 20.55, 135 20.38 S 138.7 22.29, 140 21.54 S 143.51 14.79, 145 14.62 S 149.02 19.25, 150 20.38 S 153.58 25.66, 155 26.15 S 158.9 24.87, 160 23.85 S 163.64 16.29, 165 16.92 S 168.9 27.44, 170 28.46 S 173.64 26.78, 175 26.15 S 178.58 24.34, 180 23.85 S 184.02 23.82, 185 22.69 S 189.07 13.49, 190 12.31 S 193.9 8.98, 195 10 S 198.51 21.37, 200 21.54 S 204.35 12.5, 205 11.15"
          fill="none"/>
    <circle r="4" cx="5" cy="40" fill="#3023AE"/>
    <circle r="4" cx="205" cy="11.149999999999999" fill="#C86DD7"/>      
</svg>