<svg width="200" height="50" viewBox="0 0 210 50" xmlns="http://www.w3.org/2000/svg">
    <defs>
        <linearGradient x1="0%" y1="0%" x2="100%" y2="0%" id="a">
            <stop stop-color="#3023AE" offset="0%"/>
            <stop stop-color="#C86DD7" offset="100%"/>
        </linearGradient>
    </defs>
    <path stroke="url(#a)"
          stroke-width="3"
          stroke-linejoin="round"
          stroke-linecap="round"
          d="M5 40 C 5.25 38.52, 8.58 10.48, 10 10 S 14.38 35.23, 15 36.59 S 18.51 32.02, 20 31.82 S 23.5 35.23, 25 35.23 S 28.5 31.92, 30 31.82 S 33.51 34.75, 35 34.55 S 38.76 31.3, 40 30.45 S 43.55 27.33, 45 27.73 S 48.61 32.61, 50 33.18 S 53.51 31.62, 55 31.82 S 58.55 34.15, 60 34.55 S 63.53 34.85, 65 34.55 S 68.51 32.7, 70 32.5 S 73.51 32.98, 75 33.18 S 78.61 34.43, 80 33.86 S 83.58 29.57, 85 29.09 S 88.53 30.15, 90 30.45 S 93.58 30.66, 95 31.14 S 98.68 33.14, 100 33.86 S 103.5 36.49, 105 36.59 S 108.51 34.75, 110 34.55 S 113.8 36.13, 115 35.23 S 118.53 27.35, 120 27.05 S 123.88 32.19, 125 33.18 S 128.58 35.43, 130 35.91 S 133.5 36.69, 135 36.59 S 138.5 35.13, 140 35.23 S 143.5 37.17, 145 37.27 S 148.5 36.01, 150 35.91 S 153.5 36.49, 155 36.59 S 158.53 36.29, 160 36.59 S 163.5 38.74, 165 38.64 S 168.5 36.01, 170 35.91 S 173.55 37.55, 175 37.95 S 178.5 38.74, 180 38.64 S 183.51 37.47, 185 37.27 S 188.5 37.27, 190 37.27 S 193.5 37.37, 195 37.27 S 198.5 36.59, 200 36.59 S 203.51 37.07, 205 37.27"
          fill="none"/>
    <circle r="4" cx="5" cy="40" fill="#3023AE"/>
    <circle r="4" cx="205" cy="37.27" fill="#C86DD7"/>      
</svg>