<svg width="200" height="50" viewBox="0 0 210 50" xmlns="http://www.w3.org/2000/svg">
    <defs>
        <linearGradient x1="0%" y1="0%" x2="100%" y2="0%" id="a">
            <stop stop-color="#3023AE" offset="0%"/>
            <stop stop-color="#C86DD7" offset="100%"/>
        </linearGradient>
    </defs>
    <path stroke="url(#a)"
          stroke-width="3"
          stroke-linejoin="round"
          stroke-linecap="round"
          d="M5 40 C 6.45 39.6, 8.59 39.11, 10 38.61 S 13.62 37.04, 15 36.46 S 19.04 35.58, 20 34.43 S 23.5 24.49, 25 24.43 S 29.15 35.28, 30 34.05 S 33.56 9.58, 35 10 S 39.31 35.63, 40 36.96 S 43.52 29.6, 45 29.37 S 48.52 35.2, 50 35.44 S 53.5 31.12, 55 31.01 S 58.69 33.95, 60 34.68 S 63.54 36.25, 65 36.58 S 68.5 37.03, 70 36.96 S 73.5 36.19, 75 36.08 S 78.71 36.97, 80 36.2 S 83.56 30.57, 85 30.13 S 88.51 33.03, 90 33.16 S 93.51 31.14, 95 31.01 S 98.57 31.83, 100 32.28 S 103.5 34.29, 105 34.18 S 108.5 31.62, 110 31.52 S 113.51 33.71, 115 33.54 S 118.52 30.62, 120 30.38 S 123.51 31.71, 125 31.9 S 128.5 31.76, 130 31.65 S 133.5 31.22, 135 31.14 S 138.54 30.79, 140 31.14 S 143.5 33.43, 145 33.54 S 148.51 32.05, 150 31.9 S 153.51 32.38, 155 32.53 S 158.69 33.64, 160 32.91 S 163.53 27.28, 165 26.96 S 168.6 30.21, 170 30.76 S 173.5 30.85, 175 30.89 S 178.67 31.7, 180 31.01 S 184.09 26.89, 185 25.7 S 188.53 17.67, 190 17.97 S 193.83 26.78, 195 27.72 S 199.07 27.26, 200 26.08 S 204.38 16.43, 205 15.06"
          fill="none"/>
    <circle r="4" cx="5" cy="40" fill="#3023AE"/>
    <circle r="4" cx="205" cy="15.059999999999999" fill="#C86DD7"/>      
</svg>