<svg width="200" height="50" viewBox="0 0 210 50" xmlns="http://www.w3.org/2000/svg">
    <defs>
        <linearGradient x1="0%" y1="0%" x2="100%" y2="0%" id="a">
            <stop stop-color="#3023AE" offset="0%"/>
            <stop stop-color="#C86DD7" offset="100%"/>
        </linearGradient>
    </defs>
    <path stroke="url(#a)"
          stroke-width="3"
          stroke-linejoin="round"
          stroke-linecap="round"
          d="M5 40 C 5.31 38.53, 9.27 17.31, 10 16 S 13.71 21.23, 15 22 S 18.71 21.23, 20 22 S 23.5 28, 25 28 S 28.71 21.23, 30 22 S 34.04 32.85, 35 34 S 38.71 34.77, 40 34 S 43.71 28.77, 45 28 S 48.71 27.23, 50 28 S 53.5 34, 55 34 S 58.5 28, 60 28 S 63.71 33.23, 65 34 S 68.71 34.77, 70 34 S 73.5 28, 75 28 S 78.71 34.77, 80 34 S 83.5 22, 85 22 S 89.04 32.85, 90 34 S 93.5 34, 95 34 S 98.71 34.77, 100 34 S 104.42 29.38, 105 28 S 108.71 10.77, 110 10 S 114.42 20.62, 115 22 S 119.04 32.85, 120 34 S 123.71 34.77, 125 34 S 128.5 28, 130 28 S 133.71 33.23, 135 34 S 139.04 35.15, 140 34 S 143.71 22.77, 145 22 S 149.04 26.85, 150 28 S 153.71 33.23, 155 34 S 158.71 34.77, 160 34 S 163.5 28, 165 28 S 168.71 33.23, 170 34 S 173.5 34, 175 34 S 178.5 34, 180 34 S 183.5 34, 185 34 S 188.5 34, 190 34 S 193.5 34, 195 34 S 198.71 34.77, 200 34 S 204.04 29.15, 205 28"
          fill="none"/>
    <circle r="4" cx="5" cy="40" fill="#3023AE"/>
    <circle r="4" cx="205" cy="28" fill="#C86DD7"/>      
</svg>