<svg width="200" height="50" viewBox="0 0 210 50" xmlns="http://www.w3.org/2000/svg">
    <defs>
        <linearGradient x1="0%" y1="0%" x2="100%" y2="0%" id="a">
            <stop stop-color="#3023AE" offset="0%"/>
            <stop stop-color="#C86DD7" offset="100%"/>
        </linearGradient>
    </defs>
    <path stroke="url(#a)"
          stroke-width="3"
          stroke-linejoin="round"
          stroke-linecap="round"
          d="M5 40 C 5.82 38.75, 9.49 33.8, 10 32.39 S 13.91 13.27, 15 12.24 S 19.44 21.6, 20 22.99 S 24.22 36.03, 25 37.31 S 28.52 39.29, 30 39.55 S 33.5 39.1, 35 39.1 S 38.5 39.48, 40 39.55 S 43.5 39.55, 45 39.55 S 48.5 39.55, 50 39.55 S 53.5 39.55, 55 39.55 S 58.5 39.55, 60 39.55 S 63.5 39.55, 65 39.55 S 68.5 39.55, 70 39.55 S 73.5 39.55, 75 39.55 S 78.5 39.55, 80 39.55 S 83.5 39.55, 85 39.55 S 88.5 39.55, 90 39.55 S 93.5 39.55, 95 39.55 S 98.5 39.55, 100 39.55 S 103.5 39.55, 105 39.55 S 108.5 39.55, 110 39.55 S 113.5 39.55, 115 39.55 S 118.5 39.55, 120 39.55 S 123.5 39.55, 125 39.55 S 128.5 39.55, 130 39.55 S 133.5 39.55, 135 39.55 S 138.5 39.55, 140 39.55 S 143.5 39.55, 145 39.55 S 148.5 39.55, 150 39.55 S 154.06 40.72, 155 39.55 S 158.78 27.88, 160 27.01 S 164.24 33.68, 165 32.39 S 168.68 10.71, 170 10 S 174.37 25.65, 175 27.01 S 179.04 30.33, 180 31.49 S 183.81 38.19, 185 39.1 S 188.5 39.1, 190 39.1 S 193.51 39.3, 195 39.1 S 199.44 39.15, 200 37.76 S 204.69 15.95, 205 14.48"
          fill="none"/>
    <circle r="4" cx="5" cy="40" fill="#3023AE"/>
    <circle r="4" cx="205" cy="14.48" fill="#C86DD7"/>      
</svg>