<svg width="200" height="50" viewBox="0 0 210 50" xmlns="http://www.w3.org/2000/svg">
    <defs>
        <linearGradient x1="0%" y1="0%" x2="100%" y2="0%" id="a">
            <stop stop-color="#3023AE" offset="0%"/>
            <stop stop-color="#C86DD7" offset="100%"/>
        </linearGradient>
    </defs>
    <path stroke="url(#a)"
          stroke-width="3"
          stroke-linejoin="round"
          stroke-linecap="round"
          d="M5 40 C 6.3 39.26, 8.7 37.88, 10 37.14 S 13.5 34.29, 15 34.29 S 18.62 36.55, 20 37.14 S 23.52 38.78, 25 38.57 S 28.56 36.12, 30 35.71 S 33.5 35.71, 35 35.71 S 38.52 35.5, 40 35.71 S 43.52 36.93, 45 37.14 S 48.52 37.35, 50 37.14 S 53.62 36.3, 55 35.71 S 58.5 32.86, 60 32.86 S 63.52 35.5, 65 35.71 S 68.78 35.16, 70 34.29 S 73.56 28.98, 75 28.57 S 78.78 32.3, 80 31.43 S 83.5 21.43, 85 21.43 S 88.7 30.69, 90 31.43 S 93.94 28.2, 95 27.14 S 98.56 21.84, 100 21.43 S 103.52 24.08, 105 24.29 S 108.5 22.86, 110 22.86 S 113.52 24.5, 115 24.29 S 118.51 21.22, 120 21.43 S 123.52 25.5, 125 25.71 S 129.01 23.99, 130 22.86 S 133.56 13.88, 135 14.29 S 139.19 24.44, 140 25.71 S 143.86 30.98, 145 30 S 148.5 17.14, 150 17.14 S 153.62 29.41, 155 30 S 158.5 21.43, 160 21.43 S 163.56 30.41, 165 30 S 169.29 19.89, 170 18.57 S 173.78 12.3, 175 11.43 S 178.62 10.84, 180 11.43 S 183.52 15.92, 185 15.71 S 188.7 9.26, 190 10 S 193.7 20.69, 195 21.43 S 198.5 15.71, 200 15.71 S 204.01 20.3, 205 21.43"
          fill="none"/>
    <circle r="4" cx="5" cy="40" fill="#3023AE"/>
    <circle r="4" cx="205" cy="21.43" fill="#C86DD7"/>      
</svg>