<svg width="200" height="50" viewBox="0 0 210 50" xmlns="http://www.w3.org/2000/svg">
    <defs>
        <linearGradient x1="0%" y1="0%" x2="100%" y2="0%" id="a">
            <stop stop-color="#3023AE" offset="0%"/>
            <stop stop-color="#C86DD7" offset="100%"/>
        </linearGradient>
    </defs>
    <path stroke="url(#a)"
          stroke-width="3"
          stroke-linejoin="round"
          stroke-linecap="round"
          d="M5 40 C 5.25 38.52, 8.58 10.49, 10 10 S 14.47 35.12, 15 36.52 S 18.51 36.43, 20 36.63 S 23.51 37.68, 25 37.88 S 28.5 37.99, 30 38 S 33.51 38.19, 35 37.98 S 38.5 36.51, 40 36.58 S 43.5 38.34, 45 38.44 S 48.51 37.38, 50 37.22 S 53.5 37.41, 55 37.4 S 58.5 37.15, 60 37.18 S 63.53 37.93, 65 37.63 S 68.52 35.39, 70 35.12 S 73.82 36.75, 75 35.83 S 78.5 27.42, 80 27.32 S 83.73 34.37, 85 35.17 S 88.5 33.79, 90 33.68 S 93.52 34.17, 95 34.42 S 98.51 35.55, 100 35.34 S 103.5 32.96, 105 33.01 S 108.55 35.29, 110 35.66 S 113.62 36.16, 115 35.57 S 118.54 31.67, 120 31.34 S 123.56 32.88, 125 33.29 S 128.52 33.95, 130 34.19 S 133.5 34.83, 135 34.93 S 138.54 35.25, 140 34.89 S 143.61 33.04, 145 32.49 S 148.52 30.68, 150 30.91 S 153.61 33.51, 155 34.07 S 158.5 34.9, 160 34.93 S 163.54 34.57, 165 34.24 S 168.5 32.8, 170 32.7 S 173.51 33.71, 175 33.58 S 178.51 32, 180 31.85 S 183.51 32.41, 185 32.55 S 188.51 32.6, 190 32.81 S 193.5 33.89, 195 33.97 S 198.52 33.61, 200 33.36 S 203.54 32.58, 205 32.26"
          fill="none"/>
    <circle r="4" cx="5" cy="40" fill="#3023AE"/>
    <circle r="4" cx="205" cy="32.26" fill="#C86DD7"/>      
</svg>