<svg width="200" height="50" viewBox="0 0 210 50" xmlns="http://www.w3.org/2000/svg">
    <defs>
        <linearGradient x1="0%" y1="0%" x2="100%" y2="0%" id="a">
            <stop stop-color="#3023AE" offset="0%"/>
            <stop stop-color="#C86DD7" offset="100%"/>
        </linearGradient>
    </defs>
    <path stroke="url(#a)"
          stroke-width="3"
          stroke-linejoin="round"
          stroke-linecap="round"
          d="M5 40 C 5.92 38.82, 8.53 33.88, 10 33.57 S 13.62 37.27, 15 37.86 S 18.5 37.86, 20 37.86 S 23.62 38.45, 25 37.86 S 28.5 33.57, 30 33.57 S 33.62 37.27, 35 37.86 S 38.5 37.86, 40 37.86 S 43.5 37.86, 45 37.86 S 48.5 37.86, 50 37.86 S 53.5 37.86, 55 37.86 S 58.5 37.86, 60 37.86 S 63.5 37.86, 65 37.86 S 68.53 38.18, 70 37.86 S 73.5 35.71, 75 35.71 S 78.74 38.67, 80 37.86 S 83.53 29.61, 85 29.29 S 88.86 34.73, 90 35.71 S 93.53 37.54, 95 37.86 S 98.5 37.86, 100 37.86 S 103.98 38.96, 105 37.86 S 108.53 27.46, 110 27.14 S 113.98 34.61, 115 35.71 S 118.53 37.54, 120 37.86 S 123.53 38.18, 125 37.86 S 128.5 35.71, 130 35.71 S 133.53 37.54, 135 37.86 S 138.5 37.86, 140 37.86 S 143.5 37.86, 145 37.86 S 148.5 37.86, 150 37.86 S 153.5 37.86, 155 37.86 S 158.62 38.45, 160 37.86 S 163.53 33.89, 165 33.57 S 168.5 35.71, 170 35.71 S 173.53 33.25, 175 33.57 S 178.62 37.27, 180 37.86 S 183.53 38.18, 185 37.86 S 188.62 36.3, 190 35.71 S 193.62 34.16, 195 33.57 S 199.41 32.81, 200 31.43 S 204.66 11.46, 205 10"
          fill="none"/>
    <circle r="4" cx="5" cy="40" fill="#3023AE"/>
    <circle r="4" cx="205" cy="10" fill="#C86DD7"/>      
</svg>