<svg width="200" height="50" viewBox="0 0 210 50" xmlns="http://www.w3.org/2000/svg">
    <defs>
        <linearGradient x1="0%" y1="0%" x2="100%" y2="0%" id="a">
            <stop stop-color="#3023AE" offset="0%"/>
            <stop stop-color="#C86DD7" offset="100%"/>
        </linearGradient>
    </defs>
    <path stroke="url(#a)"
          stroke-width="3"
          stroke-linejoin="round"
          stroke-linecap="round"
          d="M5 40 C 5.73 38.69, 8.56 31.43, 10 31 S 13.56 37.43, 15 37 S 18.56 28.43, 20 28 S 23.56 33.57, 25 34 S 28.5 31, 30 31 S 33.71 33.23, 35 34 S 38.56 37.43, 40 37 S 43.5 31, 45 31 S 48.56 36.57, 50 37 S 53.5 34, 55 34 S 58.56 36.57, 60 37 S 63.56 37.43, 65 37 S 68.71 34.77, 70 34 S 73.56 30.57, 75 31 S 78.71 36.23, 80 37 S 84.17 38.25, 85 37 S 88.71 22.77, 90 22 S 93.89 30, 95 31 S 98.5 31, 100 31 S 103.71 30.23, 105 31 S 108.71 36.23, 110 37 S 113.5 37, 115 37 S 118.56 37.43, 120 37 S 123.5 34, 125 34 S 128.71 37.77, 130 37 S 133.5 28, 135 28 S 138.71 36.23, 140 37 S 144.27 35.31, 145 34 S 148.56 19.43, 150 19 S 154.04 29.85, 155 31 S 158.5 31, 160 31 S 163.89 32, 165 31 S 168.71 21.23, 170 22 S 174.17 35.75, 175 37 S 178.5 37, 180 37 S 184.04 38.15, 185 37 S 189.17 26.25, 190 25 S 194.17 23.25, 195 22 S 198.56 9.57, 200 10 S 204.53 23.58, 205 25"
          fill="none"/>
    <circle r="4" cx="5" cy="40" fill="#3023AE"/>
    <circle r="4" cx="205" cy="25" fill="#C86DD7"/>      
</svg>