<svg width="200" height="50" viewBox="0 0 210 50" xmlns="http://www.w3.org/2000/svg">
    <defs>
        <linearGradient x1="0%" y1="0%" x2="100%" y2="0%" id="a">
            <stop stop-color="#3023AE" offset="0%"/>
            <stop stop-color="#C86DD7" offset="100%"/>
        </linearGradient>
    </defs>
    <path stroke="url(#a)"
          stroke-width="3"
          stroke-linejoin="round"
          stroke-linecap="round"
          d="M5 40 C 5.25 38.52, 8.66 10.67, 10 10 S 14.46 33.59, 15 34.99 S 18.52 35.54, 20 35.75 S 23.53 36.14, 25 36.43 S 28.51 37.51, 30 37.71 S 33.5 37.91, 35 37.79 S 38.52 36.71, 40 36.94 S 43.54 38.96, 45 39.32 S 48.5 39.36, 50 39.41 S 53.5 39.61, 55 39.66 S 58.53 40.03, 60 39.75 S 63.56 38.2, 65 37.79 S 68.5 36.95, 70 36.94 S 73.5 37.75, 75 37.71 S 78.55 37.08, 80 36.69 S 83.5 35.02, 85 34.99 S 88.53 36.23, 90 36.52 S 93.5 37.04, 95 36.94 S 98.5 35.95, 100 35.84 S 103.5 36.09, 105 36.18 S 108.5 36.47, 110 36.43 S 113.5 35.98, 115 35.92 S 118.5 36.04, 120 36.01 S 123.51 35.62, 125 35.75 S 128.52 36.64, 130 36.86 S 133.5 37.32, 135 37.2 S 138.5 36.21, 140 36.09 S 143.53 36.13, 145 36.43 S 148.52 37.88, 150 38.13 S 153.5 38.19, 155 38.13 S 158.5 37.74, 160 37.71 S 163.52 38.21, 165 37.96 S 168.5 36.01, 170 36.01 S 173.53 37.67, 175 37.96 S 178.56 38.36, 180 37.96 S 183.54 35.52, 185 35.16 S 188.54 35.17, 190 35.5 S 193.51 37.25, 195 37.45 S 198.51 37, 200 36.86 S 203.5 36.62, 205 36.52"
          fill="none"/>
    <circle r="4" cx="5" cy="40" fill="#3023AE"/>
    <circle r="4" cx="205" cy="36.52" fill="#C86DD7"/>      
</svg>