<svg width="200" height="50" viewBox="0 0 210 50" xmlns="http://www.w3.org/2000/svg">
    <defs>
        <linearGradient x1="0%" y1="0%" x2="100%" y2="0%" id="a">
            <stop stop-color="#3023AE" offset="0%"/>
            <stop stop-color="#C86DD7" offset="100%"/>
        </linearGradient>
    </defs>
    <path stroke="url(#a)"
          stroke-width="3"
          stroke-linejoin="round"
          stroke-linecap="round"
          d="M5 40 C 5.85 38.77, 9.37 34.12, 10 32.76 S 14.35 19.63, 15 18.28 S 18.67 11.38, 20 12.07 S 23.53 23.75, 25 23.45 S 28.67 10.69, 30 10 S 33.51 18.13, 35 18.28 S 39.19 9.77, 40 11.03 S 44.06 32.62, 45 33.79 S 48.67 24.14, 50 23.45 S 53.5 28.62, 55 28.62 S 58.96 24.53, 60 23.45 S 63.57 18.73, 65 18.28 S 68.57 20.79, 70 20.34 S 73.57 15.61, 75 15.17 S 78.61 17.81, 80 17.24 S 83.5 11.03, 85 11.03 S 88.9 16.22, 90 17.24 S 93.9 19.32, 95 20.34 S 99.06 25.38, 100 26.55 S 103.51 32.6, 105 32.76 S 109.22 28.87, 110 27.59 S 113.51 16.06, 115 16.21 S 118.84 27.66, 120 28.62 S 123.53 24.18, 125 24.48 S 128.9 29.67, 130 30.69 S 133.84 34.75, 135 33.79 S 138.5 22.41, 140 22.41 S 144.19 32.53, 145 33.79 S 148.57 37.48, 150 37.93 S 153.53 37.2, 155 36.9 S 158.96 36.94, 160 35.86 S 163.51 26.39, 165 26.55 S 168.96 35.82, 170 36.9 S 173.5 36.9, 175 36.9 S 178.5 36.9, 180 36.9 S 183.5 36.9, 185 36.9 S 188.73 37.69, 190 36.9 S 193.5 30.69, 195 30.69 S 198.96 37.98, 200 36.9 S 204.57 21.78, 205 20.34"
          fill="none"/>
    <circle r="4" cx="5" cy="40" fill="#3023AE"/>
    <circle r="4" cx="205" cy="20.34" fill="#C86DD7"/>      
</svg>