<svg width="200" height="50" viewBox="0 0 210 50" xmlns="http://www.w3.org/2000/svg">
    <defs>
        <linearGradient x1="0%" y1="0%" x2="100%" y2="0%" id="a">
            <stop stop-color="#3023AE" offset="0%"/>
            <stop stop-color="#C86DD7" offset="100%"/>
        </linearGradient>
    </defs>
    <path stroke="url(#a)"
          stroke-width="3"
          stroke-linejoin="round"
          stroke-linecap="round"
          d="M5 40 C 5.25 38.52, 8.56 10.42, 10 10 S 14.5 35.67, 15 37.09 S 18.51 38.39, 20 38.6 S 23.5 38.5, 25 38.49 S 28.5 38.46, 30 38.52 S 33.5 38.79, 35 38.89 S 38.5 39.1, 40 39.17 S 43.5 39.45, 45 39.34 S 48.51 38.62, 50 38.43 S 53.5 38.08, 55 38.09 S 58.5 38.43, 60 38.49 S 63.5 38.51, 65 38.46 S 68.5 38.2, 70 38.15 S 73.5 38.11, 75 38.15 S 78.5 38.37, 80 38.4 S 83.5 38.35, 85 38.35 S 88.54 38.75, 90 38.4 S 93.5 35.96, 95 35.95 S 98.53 38.07, 100 38.35 S 103.5 37.89, 105 37.86 S 108.5 38.04, 110 38.15 S 113.5 38.51, 115 38.6 S 118.5 38.82, 120 38.77 S 124.12 39.5, 125 38.29 S 128.51 25.2, 130 25.04 S 133.57 36.76, 135 37.21 S 138.5 28.15, 140 28.18 S 143.89 36.4, 145 37.41 S 148.51 37.1, 150 37.24 S 153.5 38.3, 155 38.35 S 158.5 37.61, 160 37.58 S 163.6 38.69, 165 38.15 S 168.5 33.82, 170 33.76 S 173.61 37.21, 175 37.78 S 178.5 37.81, 180 37.83 S 183.5 37.93, 185 37.89 S 188.5 37.58, 190 37.58 S 193.51 37.78, 195 37.92 S 198.5 38.49, 200 38.52 S 203.51 38.22, 205 38.09"
          fill="none"/>
    <circle r="4" cx="5" cy="40" fill="#3023AE"/>
    <circle r="4" cx="205" cy="38.09" fill="#C86DD7"/>      
</svg>