<svg width="200" height="50" viewBox="0 0 210 50" xmlns="http://www.w3.org/2000/svg">
    <defs>
        <linearGradient x1="0%" y1="0%" x2="100%" y2="0%" id="a">
            <stop stop-color="#3023AE" offset="0%"/>
            <stop stop-color="#C86DD7" offset="100%"/>
        </linearGradient>
    </defs>
    <path stroke="url(#a)"
          stroke-width="3"
          stroke-linejoin="round"
          stroke-linecap="round"
          d="M5 40 C 5.47 38.58, 9.17 26.25, 10 25 S 13.5 25, 15 25 S 18.5 25, 20 25 S 23.5 25, 25 25 S 28.5 25, 30 25 S 33.5 25, 35 25 S 38.5 25, 40 25 S 43.5 25, 45 25 S 48.5 25, 50 25 S 53.5 25, 55 25 S 58.5 25, 60 25 S 63.5 25, 65 25 S 68.5 25, 70 25 S 73.5 25, 75 25 S 78.5 25, 80 25 S 83.5 25, 85 25 S 88.5 25, 90 25 S 93.5 25, 95 25 S 98.5 25, 100 25 S 103.5 25, 105 25 S 108.5 25, 110 25 S 113.5 25, 115 25 S 118.5 25, 120 25 S 123.5 25, 125 25 S 128.5 25, 130 25 S 133.5 25, 135 25 S 138.5 25, 140 25 S 143.5 25, 145 25 S 148.5 25, 150 25 S 153.5 25, 155 25 S 158.5 25, 160 25 S 163.5 25, 165 25 S 168.5 25, 170 25 S 173.5 25, 175 25 S 178.5 25, 180 25 S 183.5 25, 185 25 S 188.5 25, 190 25 S 194.17 26.25, 195 25 S 199.53 11.42, 200 10"
          fill="none"/>
    <circle r="4" cx="5" cy="40" fill="#3023AE"/>
    <circle r="4" cx="200" cy="10" fill="#C86DD7"/>      
</svg>