<svg width="200" height="50" viewBox="0 0 210 50" xmlns="http://www.w3.org/2000/svg">
    <defs>
        <linearGradient x1="0%" y1="0%" x2="100%" y2="0%" id="a">
            <stop stop-color="#3023AE" offset="0%"/>
            <stop stop-color="#C86DD7" offset="100%"/>
        </linearGradient>
    </defs>
    <path stroke="url(#a)"
          stroke-width="3"
          stroke-linejoin="round"
          stroke-linecap="round"
          d="M5 40 C 5.67 38.66, 8.58 30.47, 10 30 S 13.75 35.84, 15 36.67 S 18.5 36.67, 20 36.67 S 23.5 36.67, 25 36.67 S 28.5 36.67, 30 36.67 S 33.5 36.67, 35 36.67 S 38.5 36.67, 40 36.67 S 43.5 36.67, 45 36.67 S 48.5 36.67, 50 36.67 S 53.58 37.15, 55 36.67 S 58.5 33.33, 60 33.33 S 63.58 36.19, 65 36.67 S 68.94 37.73, 70 36.67 S 73.94 27.73, 75 26.67 S 78.58 26.2, 80 26.67 S 83.75 29.17, 85 30 S 88.75 32.5, 90 33.33 S 93.58 36.19, 95 36.67 S 98.5 36.67, 100 36.67 S 103.5 36.67, 105 36.67 S 108.5 36.67, 110 36.67 S 113.75 37.5, 115 36.67 S 118.5 30, 120 30 S 123.75 35.84, 125 36.67 S 128.5 36.67, 130 36.67 S 133.5 36.67, 135 36.67 S 138.5 36.67, 140 36.67 S 143.5 36.67, 145 36.67 S 148.5 36.67, 150 36.67 S 153.5 36.67, 155 36.67 S 158.5 36.67, 160 36.67 S 163.75 37.5, 165 36.67 S 168.75 30.83, 170 30 S 173.5 30, 175 30 S 178.75 29.17, 180 30 S 183.58 37.14, 185 36.67 S 188.5 26.67, 190 26.67 S 194.23 37.96, 195 36.67 S 199.41 11.38, 200 10 S 203.75 12.5, 205 13.33"
          fill="none"/>
    <circle r="4" cx="5" cy="40" fill="#3023AE"/>
    <circle r="4" cx="205" cy="13.329999999999998" fill="#C86DD7"/>      
</svg>