<svg width="200" height="50" viewBox="0 0 210 50" xmlns="http://www.w3.org/2000/svg">
    <defs>
        <linearGradient x1="0%" y1="0%" x2="100%" y2="0%" id="a">
            <stop stop-color="#3023AE" offset="0%"/>
            <stop stop-color="#C86DD7" offset="100%"/>
        </linearGradient>
    </defs>
    <path stroke="url(#a)"
          stroke-width="3"
          stroke-linejoin="round"
          stroke-linecap="round"
          d="M5 40 C 5.83 38.75, 8.54 32.86, 10 32.5 S 13.66 36.83, 15 37.5 S 18.5 37.5, 20 37.5 S 23.5 37.5, 25 37.5 S 28.5 37.5, 30 37.5 S 33.66 38.17, 35 37.5 S 38.54 32.86, 40 32.5 S 43.54 34.64, 45 35 S 48.94 36.06, 50 35 S 53.8 25.9, 55 25 S 58.94 26.44, 60 27.5 S 63.8 34.1, 65 35 S 68.5 35, 70 35 S 73.54 34.64, 75 35 S 78.54 37.86, 80 37.5 S 83.5 32.5, 85 32.5 S 88.66 36.83, 90 37.5 S 93.54 37.86, 95 37.5 S 98.5 35, 100 35 S 103.5 37.5, 105 37.5 S 108.94 36.06, 110 35 S 113.5 27.5, 115 27.5 S 118.5 35, 120 35 S 123.66 28.17, 125 27.5 S 128.54 29.64, 130 30 S 134.33 31.34, 135 30 S 138.5 10, 140 10 S 144.39 28.63, 145 30 S 148.5 32.5, 150 32.5 S 153.8 30.9, 155 30 S 158.54 24.64, 160 25 S 163.66 31.83, 165 32.5 S 168.5 30, 170 30 S 173.94 33.56, 175 32.5 S 178.66 19.33, 180 20 S 183.8 36.6, 185 37.5 S 188.5 27.5, 190 27.5 S 193.5 37.5, 195 37.5 S 198.8 28.4, 200 27.5 S 203.66 29.33, 205 30"
          fill="none"/>
    <circle r="4" cx="5" cy="40" fill="#3023AE"/>
    <circle r="4" cx="205" cy="30" fill="#C86DD7"/>      
</svg>