<svg width="200" height="50" viewBox="0 0 210 50" xmlns="http://www.w3.org/2000/svg">
    <defs>
        <linearGradient x1="0%" y1="0%" x2="100%" y2="0%" id="a">
            <stop stop-color="#3023AE" offset="0%"/>
            <stop stop-color="#C86DD7" offset="100%"/>
        </linearGradient>
    </defs>
    <path stroke="url(#a)"
          stroke-width="3"
          stroke-linejoin="round"
          stroke-linecap="round"
          d="M5 40 C 5.25 38.52, 8.75 10.82, 10 10 S 14.46 32.05, 15 33.45 S 18.6 35.64, 20 36.18 S 23.52 37.51, 25 37.27 S 28.52 34.79, 30 34.55 S 33.6 35.11, 35 35.64 S 38.55 37.97, 40 38.36 S 43.5 38.36, 45 38.36 S 48.53 38.68, 50 38.36 S 53.5 36.26, 55 36.18 S 58.55 38.22, 60 37.82 S 63.5 33.53, 65 33.45 S 68.55 36.87, 70 37.27 S 73.51 36.02, 75 36.18 S 78.57 37.89, 80 38.36 S 83.5 39.53, 85 39.45 S 88.51 37.98, 90 37.82 S 93.5 38.36, 95 38.36 S 98.5 37.82, 100 37.82 S 103.5 38.28, 105 38.36 S 108.5 38.28, 110 38.36 S 113.5 38.99, 115 38.91 S 118.52 38.06, 120 37.82 S 123.5 37.35, 125 37.27 S 128.51 37.11, 130 37.27 S 133.51 38.2, 135 38.36 S 138.52 38.6, 140 38.36 S 143.5 36.81, 145 36.73 S 148.52 37.58, 150 37.82 S 153.52 38.12, 155 38.36 S 158.5 39.37, 160 39.45 S 163.53 39.23, 165 38.91 S 168.53 37.59, 170 37.27 S 173.5 36.65, 175 36.73 S 178.55 37.43, 180 37.82 S 183.51 39.61, 185 39.45 S 188.53 37.05, 190 36.73 S 193.51 37.11, 195 37.27 S 198.5 37.74, 200 37.82 S 203.5 37.82, 205 37.82"
          fill="none"/>
    <circle r="4" cx="5" cy="40" fill="#3023AE"/>
    <circle r="4" cx="205" cy="37.82" fill="#C86DD7"/>      
</svg>