<svg width="200" height="50" viewBox="0 0 210 50" xmlns="http://www.w3.org/2000/svg">
    <defs>
        <linearGradient x1="0%" y1="0%" x2="100%" y2="0%" id="a">
            <stop stop-color="#3023AE" offset="0%"/>
            <stop stop-color="#C86DD7" offset="100%"/>
        </linearGradient>
    </defs>
    <path stroke="url(#a)"
          stroke-width="3"
          stroke-linejoin="round"
          stroke-linecap="round"
          d="M5 40 C 6.19 39.09, 9.18 37.43, 10 36.18 S 14.01 25.86, 15 24.73 S 18.63 25.33, 20 24.73 S 23.71 19.59, 25 20.36 S 28.87 29.74, 30 30.73 S 33.53 28.77, 35 29.09 S 38.5 32.99, 40 32.91 S 43.52 28.79, 45 28.55 S 48.6 30.74, 50 31.27 S 53.6 31.82, 55 32.36 S 58.57 35.56, 60 35.09 S 63.65 29.75, 65 29.09 S 68.55 29.78, 70 30.18 S 73.68 31.1, 75 31.82 S 78.5 35.64, 80 35.64 S 83.71 32.59, 85 31.82 S 88.55 29.24, 90 29.64 S 93.5 34.55, 95 34.55 S 98.55 30.04, 100 29.64 S 103.57 32.29, 105 31.82 S 108.68 27.08, 110 26.36 S 113.75 25.54, 115 26.36 S 118.57 32.44, 120 32.91 S 123.52 29.88, 125 29.64 S 128.53 31.59, 130 31.27 S 133.93 28.5, 135 27.45 S 138.57 20.98, 140 21.45 S 143.63 30.13, 145 30.73 S 148.57 26.29, 150 25.82 S 153.52 27.21, 155 27.45 S 158.71 28.22, 160 27.45 S 164.25 22.75, 165 21.45 S 168.5 10, 170 10 S 174.09 20.26, 175 21.45 S 178.52 22.85, 180 23.09 S 183.63 23.69, 185 23.09 S 188.63 19.33, 190 18.73 S 193.6 18.19, 195 18.73 S 198.6 23.09, 200 22.55 S 204.18 16.17, 205 14.91"
          fill="none"/>
    <circle r="4" cx="5" cy="40" fill="#3023AE"/>
    <circle r="4" cx="205" cy="14.91" fill="#C86DD7"/>      
</svg>