<svg width="200" height="50" viewBox="0 0 210 50" xmlns="http://www.w3.org/2000/svg">
    <defs>
        <linearGradient x1="0%" y1="0%" x2="100%" y2="0%" id="a">
            <stop stop-color="#3023AE" offset="0%"/>
            <stop stop-color="#C86DD7" offset="100%"/>
        </linearGradient>
    </defs>
    <path stroke="url(#a)"
          stroke-width="3"
          stroke-linejoin="round"
          stroke-linecap="round"
          d="M5 40 C 6.5 39.99, 8.5 39.96, 10 39.95 S 13.5 39.95, 15 39.95 S 18.5 39.95, 20 39.95 S 23.5 39.95, 25 39.95 S 28.5 39.95, 30 39.95 S 33.5 39.95, 35 39.95 S 38.5 39.95, 40 39.95 S 43.5 39.95, 45 39.95 S 48.5 39.95, 50 39.95 S 53.5 39.95, 55 39.95 S 58.5 39.95, 60 39.95 S 63.5 39.95, 65 39.95 S 68.5 39.95, 70 39.95 S 73.5 39.95, 75 39.95 S 78.5 39.95, 80 39.95 S 83.51 40.09, 85 39.95 S 89.07 40.21, 90 39.04 S 94.51 28.82, 95 27.4 S 98.52 9.78, 100 10 S 104.15 27.62, 105 28.86 S 108.56 24.25, 110 24.66 S 113.83 30.75, 115 31.69 S 118.5 32.63, 120 32.69 S 123.5 31.98, 125 32.1 S 128.57 33.03, 130 33.47 S 133.51 34.98, 135 35.16 S 138.51 34.48, 140 34.66 S 143.52 36.11, 145 36.35 S 148.5 36.21, 150 36.26 S 153.52 36.93, 155 36.67 S 158.53 34.75, 160 34.47 S 163.52 34.55, 165 34.79 S 168.5 35.97, 170 36.07 S 173.53 35.71, 175 35.43 S 178.55 34.55, 180 34.16 S 183.52 32.5, 185 32.74 S 188.59 35.25, 190 35.75 S 193.51 36.12, 195 36.26 S 198.5 36.78, 200 36.67 S 203.54 35.86, 205 35.53"
          fill="none"/>
    <circle r="4" cx="5" cy="40" fill="#3023AE"/>
    <circle r="4" cx="205" cy="35.53" fill="#C86DD7"/>      
</svg>