<svg width="200" height="50" viewBox="0 0 210 50" xmlns="http://www.w3.org/2000/svg">
    <defs>
        <linearGradient x1="0%" y1="0%" x2="100%" y2="0%" id="a">
            <stop stop-color="#3023AE" offset="0%"/>
            <stop stop-color="#C86DD7" offset="100%"/>
        </linearGradient>
    </defs>
    <path stroke="url(#a)"
          stroke-width="3"
          stroke-linejoin="round"
          stroke-linecap="round"
          d="M5 40 C 6.5 39.97, 8.5 39.89, 10 39.89 S 13.5 39.98, 15 39.99 S 18.5 40, 20 39.99 S 23.5 39.95, 25 39.95 S 28.5 39.97, 30 39.97 S 33.5 39.96, 35 39.95 S 38.5 39.93, 40 39.89 S 43.6 40.25, 45 39.7 S 48.5 36.01, 50 35.97 S 53.58 38.95, 55 39.42 S 58.56 39.68, 60 39.26 S 63.51 36.68, 65 36.54 S 68.52 38.03, 70 38.3 S 73.51 38.23, 75 38.36 S 78.5 39.1, 80 39.14 S 83.51 38.77, 85 38.63 S 88.5 38.1, 90 38.19 S 93.5 39.18, 95 39.24 S 98.51 38.76, 100 38.59 S 104.11 39.33, 105 38.12 S 108.5 25.13, 110 25.09 S 113.99 36.73, 115 37.84 S 118.51 36.28, 120 36.15 S 123.52 36.72, 125 36.94 S 128.5 37.6, 130 37.61 S 133.52 37.24, 135 37.01 S 138.5 36.02, 140 36.04 S 143.5 37.05, 145 37.15 S 148.5 36.75, 150 36.68 S 154.47 38.06, 155 36.66 S 159.02 11.13, 160 10 S 164.34 23.79, 165 25.14 S 168.86 29.3, 170 30.28 S 173.51 33.89, 175 33.73 S 178.54 29.59, 180 29.23 S 183.59 30.78, 185 31.28 S 189.07 33.94, 190 32.77 S 193.51 18.92, 195 18.72 S 198.51 31.59, 200 31.42 S 204.49 18.97, 205 17.56"
          fill="none"/>
    <circle r="4" cx="5" cy="40" fill="#3023AE"/>
    <circle r="4" cx="205" cy="17.56" fill="#C86DD7"/>      
</svg>