<svg width="200" height="50" viewBox="0 0 210 50" xmlns="http://www.w3.org/2000/svg">
    <defs>
        <linearGradient x1="0%" y1="0%" x2="100%" y2="0%" id="a">
            <stop stop-color="#3023AE" offset="0%"/>
            <stop stop-color="#C86DD7" offset="100%"/>
        </linearGradient>
    </defs>
    <path stroke="url(#a)"
          stroke-width="3"
          stroke-linejoin="round"
          stroke-linecap="round"
          d="M5 40 C 6.48 39.77, 9.53 40.66, 10 39.24 S 13.5 9.9, 15 10 S 19.52 38.5, 20 39.92 S 23.5 39.84, 25 39.83 S 28.5 39.84, 30 39.84 S 33.5 39.85, 35 39.86 S 38.5 39.89, 40 39.89 S 43.5 39.88, 45 39.88 S 48.5 39.87, 50 39.86 S 53.5 39.8, 55 39.81 S 58.5 39.91, 60 39.9 S 63.5 39.74, 65 39.73 S 68.5 39.85, 70 39.85 S 73.5 39.78, 75 39.75 S 78.5 39.68, 80 39.66 S 83.5 39.63, 85 39.64 S 88.5 39.71, 90 39.72 S 93.5 39.74, 95 39.72 S 98.5 39.58, 100 39.59 S 103.5 39.77, 105 39.8 S 108.5 39.83, 110 39.82 S 113.5 39.75, 115 39.75 S 118.5 39.82, 120 39.83 S 123.5 39.83, 125 39.82 S 128.5 39.78, 130 39.79 S 133.5 39.87, 135 39.87 S 138.5 39.8, 140 39.8 S 143.5 39.87, 145 39.87 S 148.5 39.84, 150 39.83 S 153.5 39.8, 155 39.81 S 158.5 39.86, 160 39.87 S 163.5 39.9, 165 39.89 S 168.5 39.81, 170 39.8 S 173.5 39.83, 175 39.82 S 178.5 39.74, 180 39.74 S 183.5 39.81, 185 39.82 S 188.5 39.83, 190 39.83 S 193.5 39.84, 195 39.84 S 198.5 39.82, 200 39.82 S 203.5 39.85, 205 39.86"
          fill="none"/>
    <circle r="4" cx="5" cy="40" fill="#3023AE"/>
    <circle r="4" cx="205" cy="39.86" fill="#C86DD7"/>      
</svg>