<svg width="200" height="50" viewBox="0 0 210 50" xmlns="http://www.w3.org/2000/svg">
    <defs>
        <linearGradient x1="0%" y1="0%" x2="100%" y2="0%" id="a">
            <stop stop-color="#3023AE" offset="0%"/>
            <stop stop-color="#C86DD7" offset="100%"/>
        </linearGradient>
    </defs>
    <path stroke="url(#a)"
          stroke-width="3"
          stroke-linejoin="round"
          stroke-linecap="round"
          d="M5 40 C 6.33 39.3, 9.16 38.61, 10 37.37 S 13.53 25.57, 15 25.26 S 19.07 34.08, 20 35.26 S 23.58 37.4, 25 37.89 S 28.5 38.64, 30 38.68 S 33.59 38.68, 35 38.16 S 38.5 35, 40 35 S 43.54 37.81, 45 38.16 S 48.5 37.49, 50 37.37 S 53.5 37.49, 55 37.37 S 58.5 36.62, 60 36.58 S 63.5 37.07, 65 37.11 S 68.51 36.68, 70 36.84 S 73.53 38.47, 75 38.16 S 78.69 35.47, 80 34.74 S 84.02 33.77, 85 32.63 S 88.72 22.38, 90 23.16 S 94.08 37.49, 95 38.68 S 98.78 36.92, 100 36.05 S 103.6 32.13, 105 31.58 S 108.64 31.47, 110 32.11 S 113.52 36.05, 115 36.32 S 118.62 34.53, 120 33.95 S 123.56 32.53, 125 32.11 S 128.5 31.01, 130 31.05 S 133.51 32.56, 135 32.37 S 139.39 31.11, 140 29.74 S 143.5 10.12, 145 10 S 149.4 27.58, 150 28.95 S 153.54 33.24, 155 32.89 S 158.76 27.43, 160 26.58 S 163.81 25.14, 165 26.05 S 168.64 33.57, 170 34.21 S 173.76 31.64, 175 30.79 S 178.55 27.75, 180 27.37 S 183.5 28.04, 185 28.16 S 188.5 28.2, 190 28.16 S 193.59 28.41, 195 27.89 S 198.52 24.74, 200 24.47 S 203.57 25.6, 205 26.05"
          fill="none"/>
    <circle r="4" cx="5" cy="40" fill="#3023AE"/>
    <circle r="4" cx="205" cy="26.05" fill="#C86DD7"/>      
</svg>