<svg width="200" height="50" viewBox="0 0 210 50" xmlns="http://www.w3.org/2000/svg">
    <defs>
        <linearGradient x1="0%" y1="0%" x2="100%" y2="0%" id="a">
            <stop stop-color="#3023AE" offset="0%"/>
            <stop stop-color="#C86DD7" offset="100%"/>
        </linearGradient>
    </defs>
    <path stroke="url(#a)"
          stroke-width="3"
          stroke-linejoin="round"
          stroke-linecap="round"
          d="M5 40 C 6.34 39.33, 8.54 37.86, 10 37.5 S 13.5 37.5, 15 37.5 S 18.5 37.5, 20 37.5 S 23.5 37.5, 25 37.5 S 28.5 37.5, 30 37.5 S 33.5 37.5, 35 37.5 S 38.5 37.5, 40 37.5 S 43.5 37.5, 45 37.5 S 48.5 37.5, 50 37.5 S 53.5 37.5, 55 37.5 S 58.5 37.5, 60 37.5 S 63.54 37.86, 65 37.5 S 68.5 35, 70 35 S 73.54 37.14, 75 37.5 S 78.5 37.5, 80 37.5 S 84.06 38.67, 85 37.5 S 88.54 25.36, 90 25 S 93.8 34.1, 95 35 S 98.54 32.14, 100 32.5 S 103.66 36.83, 105 37.5 S 108.54 37.86, 110 37.5 S 113.5 35, 115 35 S 118.5 37.5, 120 37.5 S 123.54 35.36, 125 35 S 128.5 35, 130 35 S 133.5 35, 135 35 S 138.54 35.36, 140 35 S 143.5 32.5, 145 32.5 S 149.39 36.37, 150 35 S 154.26 11.3, 155 10 S 159.44 16.11, 160 17.5 S 163.54 34.64, 165 35 S 168.5 20, 170 20 S 174.26 33.7, 175 35 S 178.54 37.86, 180 37.5 S 183.66 33.17, 185 32.5 S 188.8 33.4, 190 32.5 S 193.66 24.33, 195 25 S 198.66 36.83, 200 37.5 S 204.17 31.25, 205 30"
          fill="none"/>
    <circle r="4" cx="5" cy="40" fill="#3023AE"/>
    <circle r="4" cx="205" cy="30" fill="#C86DD7"/>      
</svg>