<svg width="200" height="50" viewBox="0 0 210 50" xmlns="http://www.w3.org/2000/svg">
    <defs>
        <linearGradient x1="0%" y1="0%" x2="100%" y2="0%" id="a">
            <stop stop-color="#3023AE" offset="0%"/>
            <stop stop-color="#C86DD7" offset="100%"/>
        </linearGradient>
    </defs>
    <path stroke="url(#a)"
          stroke-width="3"
          stroke-linejoin="round"
          stroke-linecap="round"
          d="M5 40 C 5.27 38.52, 8.62 13.04, 10 12.46 S 14.39 34.42, 15 35.79 S 18.5 34.95, 20 35 S 23.5 36.07, 25 36.14 S 28.5 35.49, 30 35.47 S 33.5 35.91, 35 36.03 S 38.5 36.3, 40 36.25 S 43.5 35.62, 45 35.7 S 48.51 36.6, 50 36.79 S 54.2 38.26, 55 36.99 S 58.54 21.24, 60 20.89 S 64.1 33.4, 65 34.6 S 68.51 34.02, 70 34.16 S 73.5 35.47, 75 35.53 S 78.51 34.7, 80 34.54 S 83.5 34.37, 85 34.43 S 88.5 34.93, 90 34.94 S 93.5 34.48, 95 34.47 S 98.5 34.83, 100 34.88 S 103.5 34.85, 105 34.8 S 108.5 34.53, 110 34.52 S 113.5 34.75, 115 34.76 S 118.5 34.62, 120 34.61 S 124.44 36.05, 125 34.66 S 128.62 10.59, 130 10 S 134.39 29.02, 135 30.39 S 138.52 32.02, 140 32.28 S 143.5 32.17, 145 32.16 S 148.5 32.16, 150 32.21 S 153.5 32.56, 155 32.47 S 158.52 31.89, 160 31.62 S 163.5 30.65, 165 30.66 S 168.52 31.45, 170 31.68 S 173.5 32.08, 175 32.19 S 178.5 32.49, 180 32.42 S 183.5 31.73, 185 31.7 S 188.5 32.14, 190 32.23 S 193.5 32.39, 195 32.27 S 198.5 31.46, 200 31.42 S 203.51 31.81, 205 31.97"
          fill="none"/>
    <circle r="4" cx="5" cy="40" fill="#3023AE"/>
    <circle r="4" cx="205" cy="31.97" fill="#C86DD7"/>      
</svg>