<svg width="200" height="50" viewBox="0 0 210 50" xmlns="http://www.w3.org/2000/svg">
    <defs>
        <linearGradient x1="0%" y1="0%" x2="100%" y2="0%" id="a">
            <stop stop-color="#3023AE" offset="0%"/>
            <stop stop-color="#C86DD7" offset="100%"/>
        </linearGradient>
    </defs>
    <path stroke="url(#a)"
          stroke-width="3"
          stroke-linejoin="round"
          stroke-linecap="round"
          d="M5 40 C 6.37 39.4, 8.9 38.82, 10 37.8 S 13.51 30.84, 15 30.71 S 18.75 36.1, 20 36.92 S 23.52 37.04, 25 37.28 S 28.51 38.3, 30 38.51 S 33.5 38.76, 35 38.69 S 38.62 38.62, 40 38.03 S 44.5 35.78, 45 34.37 S 48.5 10.03, 50 10 S 54.4 32.82, 55 34.2 S 58.62 33.58, 60 32.99 S 63.51 30.09, 65 29.88 S 68.63 30.96, 70 31.57 S 73.52 34.05, 75 34.3 S 79.15 34.5, 80 33.26 S 83.51 19.9, 85 19.69 S 89.01 30.76, 90 31.88 S 93.51 30.8, 95 30.99 S 98.5 33.18, 100 33.19 S 103.51 30.91, 105 31.04 S 108.58 33.58, 110 34.05 S 113.5 34.34, 115 34.35 S 118.5 34.1, 120 34.15 S 123.5 34.62, 125 34.7 S 128.51 34.49, 130 34.7 S 133.51 35.99, 135 36.11 S 138.5 35.42, 140 35.53 S 143.5 36.7, 145 36.82 S 148.5 36.34, 150 36.34 S 153.5 36.76, 155 36.85 S 158.5 36.89, 160 36.97 S 163.5 37.44, 165 37.38 S 168.5 36.53, 170 36.54 S 173.5 37.59, 175 37.48 S 178.5 35.84, 180 35.79 S 183.53 36.83, 185 37.12 S 188.5 37.63, 190 37.73 S 193.5 37.89, 195 37.8 S 198.51 37.29, 200 37.15 S 203.5 36.94, 205 36.85"
          fill="none"/>
    <circle r="4" cx="5" cy="40" fill="#3023AE"/>
    <circle r="4" cx="205" cy="36.85" fill="#C86DD7"/>      
</svg>