<svg width="200" height="50" viewBox="0 0 210 50" xmlns="http://www.w3.org/2000/svg">
    <defs>
        <linearGradient x1="0%" y1="0%" x2="100%" y2="0%" id="a">
            <stop stop-color="#3023AE" offset="0%"/>
            <stop stop-color="#C86DD7" offset="100%"/>
        </linearGradient>
    </defs>
    <path stroke="url(#a)"
          stroke-width="3"
          stroke-linejoin="round"
          stroke-linecap="round"
          d="M5 40 C 5.64 38.64, 8.83 30.31, 10 29.38 S 13.7 31.28, 15 32.04 S 18.65 34.57, 20 35.22 S 23.58 36.32, 25 36.81 S 28.51 38.87, 30 38.67 S 33.5 35.49, 35 35.49 S 38.51 38.47, 40 38.67 S 43.58 37.3, 45 36.81 S 48.56 35.64, 50 35.22 S 53.5 33.77, 55 33.89 S 58.59 35.5, 60 36.02 S 63.51 37.81, 65 37.61 S 68.54 35.04, 70 34.69 S 73.54 35.57, 75 35.22 S 78.5 32.18, 80 32.3 S 83.58 35.53, 85 36.02 S 88.5 35.71, 90 35.75 S 93.51 36.44, 95 36.28 S 98.55 35.07, 100 34.69 S 103.5 33.51, 105 33.63 S 108.51 35.29, 110 35.49 S 113.5 35.04, 115 34.96 S 118.5 35.08, 120 34.96 S 123.56 34.58, 125 34.16 S 128.51 31.88, 130 32.04 S 133.59 34.7, 135 35.22 S 138.5 35.79, 140 35.75 S 143.51 35.12, 145 34.96 S 148.51 34.53, 150 34.69 S 154.44 37.41, 155 36.02 S 158.77 10.85, 160 10 S 164.39 27.75, 165 29.12 S 168.69 31.84, 170 32.57 S 173.5 34.73, 175 34.69 S 178.5 32.34, 180 32.3 S 183.5 34.5, 185 34.42 S 188.58 32.26, 190 31.77 S 193.65 30.32, 195 30.97 S 198.5 36.63, 200 36.55 S 204.05 31.6, 205 30.44"
          fill="none"/>
    <circle r="4" cx="5" cy="40" fill="#3023AE"/>
    <circle r="4" cx="205" cy="30.439999999999998" fill="#C86DD7"/>      
</svg>