<svg width="200" height="50" viewBox="0 0 210 50" xmlns="http://www.w3.org/2000/svg">
    <defs>
        <linearGradient x1="0%" y1="0%" x2="100%" y2="0%" id="a">
            <stop stop-color="#3023AE" offset="0%"/>
            <stop stop-color="#C86DD7" offset="100%"/>
        </linearGradient>
    </defs>
    <path stroke="url(#a)"
          stroke-width="3"
          stroke-linejoin="round"
          stroke-linecap="round"
          d="M5 40 C 6.48 39.76, 8.57 39.65, 10 39.19 S 14.46 38.16, 15 36.76 S 18.5 13.36, 20 13.24 S 24.45 34.56, 25 35.95 S 28.5 38.38, 30 38.38 S 33.5 35.83, 35 35.95 S 38.52 38.95, 40 39.19 S 43.61 38.13, 45 37.57 S 48.52 34.9, 50 35.14 S 53.61 38.63, 55 39.19 S 58.5 39.19, 60 39.19 S 63.5 39.19, 65 39.19 S 68.5 39.19, 70 39.19 S 73.5 39.19, 75 39.19 S 78.5 39.19, 80 39.19 S 83.5 39.19, 85 39.19 S 88.5 39.19, 90 39.19 S 93.5 39.19, 95 39.19 S 98.5 39.19, 100 39.19 S 103.5 39.19, 105 39.19 S 108.5 39.19, 110 39.19 S 113.5 39.19, 115 39.19 S 118.5 39.19, 120 39.19 S 123.5 39.19, 125 39.19 S 128.5 39.19, 130 39.19 S 133.5 39.19, 135 39.19 S 138.5 39.19, 140 39.19 S 143.5 39.19, 145 39.19 S 148.5 39.19, 150 39.19 S 153.5 39.19, 155 39.19 S 158.5 39.19, 160 39.19 S 163.5 39.19, 165 39.19 S 168.5 39.31, 170 39.19 S 173.5 38.38, 175 38.38 S 178.5 39.07, 180 39.19 S 183.5 39.19, 185 39.19 S 189.49 40.6, 190 39.19 S 194.51 13.04, 195 11.62 S 199.34 8.65, 200 10 S 204.67 30.43, 205 31.89"
          fill="none"/>
    <circle r="4" cx="5" cy="40" fill="#3023AE"/>
    <circle r="4" cx="205" cy="31.89" fill="#C86DD7"/>      
</svg>