<svg width="200" height="50" viewBox="0 0 210 50" xmlns="http://www.w3.org/2000/svg">
    <defs>
        <linearGradient x1="0%" y1="0%" x2="100%" y2="0%" id="a">
            <stop stop-color="#3023AE" offset="0%"/>
            <stop stop-color="#C86DD7" offset="100%"/>
        </linearGradient>
    </defs>
    <path stroke="url(#a)"
          stroke-width="3"
          stroke-linejoin="round"
          stroke-linecap="round"
          d="M5 40 C 6.34 39.32, 8.69 38.21, 10 37.47 S 13.51 34.54, 15 34.37 S 18.6 35.77, 20 36.31 S 23.55 37.87, 25 38.24 S 28.5 38.76, 30 38.87 S 33.51 39.19, 35 38.99 S 39.43 38.93, 40 37.54 S 43.53 15.07, 45 14.77 S 49.34 34.13, 50 35.48 S 53.51 34.85, 55 35.06 S 58.54 36.57, 60 36.89 S 63.52 37.52, 65 37.26 S 68.51 35.33, 70 35.12 S 73.51 35.66, 75 35.84 S 78.5 36.27, 80 36.35 S 83.51 36.56, 85 36.38 S 89.47 36.53, 90 35.13 S 93.64 10.63, 95 10 S 98.55 30.14, 100 30.54 S 103.53 13.03, 105 12.74 S 109.24 27.3, 110 28.59 S 113.51 29.8, 115 29.61 S 118.54 27.65, 120 27.32 S 123.8 28.23, 125 27.33 S 128.67 20.57, 130 19.87 S 133.7 21.3, 135 22.04 S 138.51 25.41, 140 25.57 S 143.52 23.32, 145 23.08 S 148.54 23.63, 150 23.96 S 153.51 25.16, 155 25.35 S 158.66 25.92, 160 25.25 S 163.57 20.86, 165 20.39 S 168.54 21.61, 170 21.97 S 173.57 23.3, 175 22.86 S 178.53 18.64, 180 18.91 S 183.5 24.76, 185 24.71 S 188.5 18.69, 190 18.57 S 193.5 24.03, 195 23.93 S 198.62 18.46, 200 17.88 S 203.6 19.23, 205 19.76"
          fill="none"/>
    <circle r="4" cx="5" cy="40" fill="#3023AE"/>
    <circle r="4" cx="205" cy="19.76" fill="#C86DD7"/>      
</svg>