<svg width="200" height="50" viewBox="0 0 210 50" xmlns="http://www.w3.org/2000/svg">
    <defs>
        <linearGradient x1="0%" y1="0%" x2="100%" y2="0%" id="a">
            <stop stop-color="#3023AE" offset="0%"/>
            <stop stop-color="#C86DD7" offset="100%"/>
        </linearGradient>
    </defs>
    <path stroke="url(#a)"
          stroke-width="3"
          stroke-linejoin="round"
          stroke-linecap="round"
          d="M5 40 C 5.25 38.52, 9.13 11.22, 10 10 S 14.46 24.66, 15 26.06 S 18.73 34.97, 20 35.77 S 23.58 32.87, 25 32.39 S 28.5 32.39, 30 32.39 S 33.55 32.02, 35 32.39 S 38.73 34.13, 40 34.93 S 43.52 38.98, 45 38.73 S 49.24 34.53, 50 33.24 S 53.76 22.67, 55 21.83 S 59.13 25.26, 60 26.48 S 63.76 34.93, 65 35.77 S 68.5 33.24, 70 33.24 S 73.5 35.77, 75 35.77 S 78.85 34.21, 80 33.24 S 83.5 27.32, 85 27.32 S 88.81 32.33, 90 33.24 S 93.52 34.68, 95 34.93 S 98.51 35.12, 100 34.93 S 103.51 33.47, 105 33.66 S 108.51 36.39, 110 36.2 S 113.52 32.64, 115 32.39 S 118.52 34.26, 120 34.51 S 123.52 34.33, 125 34.08 S 128.58 32.34, 130 32.82 S 133.51 37.27, 135 37.46 S 138.51 34.27, 140 34.08 S 143.51 36.07, 145 36.2 S 148.51 35.06, 150 34.93 S 153.55 34.98, 155 35.35 S 158.52 37.21, 160 37.46 S 163.51 36.85, 165 37.04 S 168.51 38.92, 170 38.73 S 173.51 35.96, 175 35.77 S 178.51 37.59, 180 37.46 S 183.55 35.3, 185 34.93 S 188.51 34.8, 190 34.93 S 193.52 35.52, 195 35.77 S 198.5 36.62, 200 36.62 S 203.52 36.02, 205 35.77"
          fill="none"/>
    <circle r="4" cx="5" cy="40" fill="#3023AE"/>
    <circle r="4" cx="205" cy="35.769999999999996" fill="#C86DD7"/>      
</svg>