<svg width="200" height="50" viewBox="0 0 210 50" xmlns="http://www.w3.org/2000/svg">
    <defs>
        <linearGradient x1="0%" y1="0%" x2="100%" y2="0%" id="a">
            <stop stop-color="#3023AE" offset="0%"/>
            <stop stop-color="#C86DD7" offset="100%"/>
        </linearGradient>
    </defs>
    <path stroke="url(#a)"
          stroke-width="3"
          stroke-linejoin="round"
          stroke-linecap="round"
          d="M5 40 C 5.9 38.8, 9.53 34.71, 10 33.29 S 14.02 11.14, 15 10 S 19.01 20.53, 20 21.65 S 23.77 20.42, 25 21.29 S 28.9 27.7, 30 28.71 S 33.54 30.83, 35 30.47 S 38.59 26.74, 40 26.24 S 43.75 26.11, 45 26.94 S 48.75 33.77, 50 32.94 S 53.67 20.94, 55 20.24 S 58.59 27.15, 60 27.65 S 63.51 23.55, 65 23.76 S 68.59 28.56, 70 29.06 S 73.56 26.88, 75 27.29 S 78.54 32.24, 80 31.88 S 84.09 26.01, 85 24.82 S 88.53 19.13, 90 18.82 S 93.82 21.79, 95 22.71 S 98.62 26.01, 100 26.59 S 103.5 26.94, 105 26.94 S 108.54 26.95, 110 26.59 S 113.5 24.52, 115 24.47 S 118.5 26.29, 120 26.24 S 123.69 24.86, 125 24.12 S 128.52 20.85, 130 20.59 S 133.64 21.72, 135 22.35 S 138.53 24.87, 140 25.18 S 143.53 24.78, 145 24.47 S 148.56 22.65, 150 23.06 S 153.57 26.84, 155 27.29 S 158.59 26.74, 160 26.24 S 163.51 23.55, 165 23.76 S 168.51 27.81, 170 27.65 S 173.99 23.82, 175 22.71 S 178.71 17.48, 180 16.71 S 183.71 15.94, 185 16.71 S 188.79 21.82, 190 22.71 S 193.53 24.43, 195 24.12 S 198.84 21.54, 200 20.59 S 203.9 17.01, 205 16"
          fill="none"/>
    <circle r="4" cx="5" cy="40" fill="#3023AE"/>
    <circle r="4" cx="205" cy="16" fill="#C86DD7"/>      
</svg>