<svg width="200" height="50" viewBox="0 0 210 50" xmlns="http://www.w3.org/2000/svg">
    <defs>
        <linearGradient x1="0%" y1="0%" x2="100%" y2="0%" id="a">
            <stop stop-color="#3023AE" offset="0%"/>
            <stop stop-color="#C86DD7" offset="100%"/>
        </linearGradient>
    </defs>
    <path stroke="url(#a)"
          stroke-width="3"
          stroke-linejoin="round"
          stroke-linecap="round"
          d="M5 40 C 6.46 39.67, 8.5 38.92, 10 38.86 S 13.5 39.51, 15 39.62 S 18.5 39.62, 20 39.62 S 23.52 39.85, 25 39.62 S 28.5 38.1, 30 38.1 S 34.5 41.03, 35 39.62 S 39.48 11.41, 40 10 S 44.06 11.49, 45 12.66 S 49.45 21.13, 50 22.53 S 54.18 36.85, 55 38.1 S 58.51 37.89, 60 37.72 S 63.56 37.4, 65 36.96 S 68.5 34.57, 70 34.68 S 73.51 37.89, 75 37.72 S 78.78 34.42, 80 33.54 S 83.62 29.93, 85 30.51 S 88.55 37.34, 90 37.72 S 93.5 33.05, 95 33.16 S 98.58 37.99, 100 38.48 S 103.58 37.07, 105 36.58 S 108.52 35.29, 110 35.06 S 113.52 35.29, 115 35.06 S 118.76 34.39, 120 33.54 S 123.54 28.56, 125 28.23 S 128.85 30.31, 130 31.27 S 133.74 35.77, 135 36.58 S 138.5 37.66, 140 37.72 S 143.7 37.7, 145 36.96 S 148.5 32.03, 150 32.03 S 153.68 36.26, 155 36.96 S 158.5 37.34, 160 37.34 S 163.51 37.13, 165 36.96 S 168.53 36.48, 170 36.2 S 173.52 35.29, 175 35.06 S 178.54 35.01, 180 34.68 S 183.56 33.21, 185 32.78 S 188.54 31.98, 190 31.65 S 193.51 30.68, 195 30.51 S 198.56 30.08, 200 30.51 S 203.72 32.76, 205 33.54"
          fill="none"/>
    <circle r="4" cx="5" cy="40" fill="#3023AE"/>
    <circle r="4" cx="205" cy="33.54" fill="#C86DD7"/>      
</svg>