<svg width="200" height="50" viewBox="0 0 210 50" xmlns="http://www.w3.org/2000/svg">
    <defs>
        <linearGradient x1="0%" y1="0%" x2="100%" y2="0%" id="a">
            <stop stop-color="#3023AE" offset="0%"/>
            <stop stop-color="#C86DD7" offset="100%"/>
        </linearGradient>
    </defs>
    <path stroke="url(#a)"
          stroke-width="3"
          stroke-linejoin="round"
          stroke-linecap="round"
          d="M5 40 C 6.5 39.97, 8.5 39.9, 10 39.9 S 13.5 39.96, 15 39.97 S 18.5 39.97, 20 39.97 S 23.5 39.97, 25 39.97 S 28.5 39.97, 30 39.97 S 33.5 39.97, 35 39.97 S 38.5 39.97, 40 39.97 S 43.5 39.97, 45 39.97 S 48.5 39.97, 50 39.97 S 53.5 39.97, 55 39.97 S 58.5 39.97, 60 39.97 S 63.5 39.97, 65 39.97 S 68.5 39.97, 70 39.97 S 73.5 39.97, 75 39.97 S 78.5 39.97, 80 39.97 S 83.5 39.97, 85 39.97 S 88.5 39.97, 90 39.97 S 93.5 39.97, 95 39.97 S 98.5 39.97, 100 39.97 S 103.5 39.97, 105 39.97 S 108.5 39.97, 110 39.97 S 113.5 39.97, 115 39.97 S 118.5 39.97, 120 39.97 S 123.5 39.97, 125 39.97 S 128.5 39.97, 130 39.97 S 133.5 40.04, 135 39.95 S 138.52 39.58, 140 39.35 S 144.07 39.56, 145 38.39 S 148.88 27.78, 150 26.79 S 154.01 28.44, 155 29.57 S 158.68 37.49, 160 38.21 S 163.85 35.98, 165 35.02 S 168.5 29.8, 170 29.9 S 173.52 35.42, 175 35.69 S 178.86 32.69, 180 31.72 S 183.54 27.56, 185 27.21 S 188.51 29.11, 190 29.31 S 193.55 28.19, 195 28.56 S 199.29 33.2, 200 31.88 S 204.67 11.46, 205 10"
          fill="none"/>
    <circle r="4" cx="5" cy="40" fill="#3023AE"/>
    <circle r="4" cx="205" cy="10" fill="#C86DD7"/>      
</svg>