<svg width="200" height="50" viewBox="0 0 210 50" xmlns="http://www.w3.org/2000/svg">
    <defs>
        <linearGradient x1="0%" y1="0%" x2="100%" y2="0%" id="a">
            <stop stop-color="#3023AE" offset="0%"/>
            <stop stop-color="#C86DD7" offset="100%"/>
        </linearGradient>
    </defs>
    <path stroke="url(#a)"
          stroke-width="3"
          stroke-linejoin="round"
          stroke-linecap="round"
          d="M5 40 C 5.44 38.57, 9.2 25.02, 10 23.75 S 14.12 25.39, 15 24.18 S 18.63 9.39, 20 10 S 24.42 27.25, 25 28.63 S 28.68 33.3, 30 34.01 S 33.59 33.49, 35 34.01 S 38.59 37.21, 40 37.73 S 43.5 37.6, 45 37.69 S 48.5 38.23, 50 38.32 S 53.5 38.17, 55 38.28 S 58.5 38.96, 60 39.04 S 63.5 38.83, 65 38.82 S 68.5 38.91, 70 38.97 S 73.5 39.21, 75 39.24 S 78.5 39.16, 80 39.2 S 84.36 40.9, 85 39.54 S 88.76 18.72, 90 17.87 S 94.34 31.34, 95 32.68 S 98.58 37.64, 100 38.12 S 103.5 35.98, 105 36.02 S 108.55 37.98, 110 38.37 S 113.5 38.61, 115 38.7 S 118.5 38.89, 120 39 S 123.5 39.47, 125 39.42 S 128.5 38.73, 130 38.69 S 133.5 39.12, 135 39.17 S 138.5 38.96, 140 39.01 S 143.5 39.4, 145 39.49 S 148.5 39.59, 150 39.62 S 153.5 39.69, 155 39.72 S 158.5 39.89, 160 39.8 S 163.5 39.16, 165 39.11 S 168.5 39.42, 170 39.47 S 173.5 39.4, 175 39.45 S 178.5 39.76, 180 39.78 S 183.5 39.57, 185 39.57 S 188.5 39.77, 190 39.79 S 193.5 39.72, 195 39.7 S 198.5 39.62, 200 39.63 S 203.5 39.74, 205 39.79"
          fill="none"/>
    <circle r="4" cx="5" cy="40" fill="#3023AE"/>
    <circle r="4" cx="205" cy="39.79" fill="#C86DD7"/>      
</svg>