<svg width="200" height="50" viewBox="0 0 210 50" xmlns="http://www.w3.org/2000/svg">
    <defs>
        <linearGradient x1="0%" y1="0%" x2="100%" y2="0%" id="a">
            <stop stop-color="#3023AE" offset="0%"/>
            <stop stop-color="#C86DD7" offset="100%"/>
        </linearGradient>
    </defs>
    <path stroke="url(#a)"
          stroke-width="3"
          stroke-linejoin="round"
          stroke-linecap="round"
          d="M5 40 C 5.25 38.52, 8.51 10.15, 10 10 S 14.51 37.55, 15 38.97 S 18.5 38.97, 20 38.97 S 23.5 38.97, 25 38.97 S 28.5 38.97, 30 38.97 S 33.5 38.97, 35 38.97 S 38.5 38.97, 40 38.97 S 43.5 38.97, 45 38.97 S 48.5 38.97, 50 38.97 S 53.5 38.97, 55 38.97 S 58.5 38.97, 60 38.97 S 63.5 38.97, 65 38.97"
          fill="none"/>
    <circle r="4" cx="5" cy="40" fill="#3023AE"/>
    <circle r="4" cx="65" cy="38.97" fill="#C86DD7"/>      
</svg>