<svg width="200" height="50" viewBox="0 0 210 50" xmlns="http://www.w3.org/2000/svg">
    <defs>
        <linearGradient x1="0%" y1="0%" x2="100%" y2="0%" id="a">
            <stop stop-color="#3023AE" offset="0%"/>
            <stop stop-color="#C86DD7" offset="100%"/>
        </linearGradient>
    </defs>
    <path stroke="url(#a)"
          stroke-width="3"
          stroke-linejoin="round"
          stroke-linecap="round"
          d="M5 40 C 5.25 38.52, 8.52 10.26, 10 10 S 14.52 36.83, 15 38.25 S 18.51 39.16, 20 39.36 S 23.5 39.55, 25 39.6 S 28.5 39.69, 30 39.68 S 33.5 39.55, 35 39.56 S 38.5 39.75, 40 39.76 S 43.5 39.74, 45 39.66 S 48.5 39.31, 50 39.24 S 53.5 39.17, 55 39.19 S 58.5 39.34, 60 39.36 S 63.5 39.32, 65 39.34 S 68.5 39.43, 70 39.48 S 73.54 40.03, 75 39.7 S 78.53 37.53, 80 37.21 S 83.5 37.63, 85 37.53 S 88.5 36.4, 90 36.51 S 93.5 38.26, 95 38.24 S 98.54 36.74, 100 36.39 S 103.5 35.96, 105 35.87 S 108.56 35.39, 110 35.82 S 113.6 38.32, 115 38.86 S 118.51 39.58, 120 39.71 S 123.5 39.69, 125 39.71 S 128.5 39.84, 130 39.87 S 133.5 39.89, 135 39.88 S 138.5 39.84, 140 39.83 S 143.5 39.83, 145 39.8 S 148.5 39.66, 150 39.65 S 153.5 39.71, 155 39.71 S 158.5 39.64, 160 39.65 S 163.5 39.77, 165 39.8 S 168.5 39.87, 170 39.85 S 173.5 39.77, 175 39.65 S 178.5 39.02, 180 39.04 S 183.5 39.7, 185 39.8 S 188.5 39.77, 190 39.73 S 193.5 39.56, 195 39.56 S 198.5 39.71, 200 39.73 S 203.5 39.69, 205 39.68"
          fill="none"/>
    <circle r="4" cx="5" cy="40" fill="#3023AE"/>
    <circle r="4" cx="205" cy="39.68" fill="#C86DD7"/>      
</svg>