<svg width="200" height="50" viewBox="0 0 210 50" xmlns="http://www.w3.org/2000/svg">
    <defs>
        <linearGradient x1="0%" y1="0%" x2="100%" y2="0%" id="a">
            <stop stop-color="#3023AE" offset="0%"/>
            <stop stop-color="#C86DD7" offset="100%"/>
        </linearGradient>
    </defs>
    <path stroke="url(#a)"
          stroke-width="3"
          stroke-linejoin="round"
          stroke-linecap="round"
          d="M5 40 C 6.49 39.85, 8.5 39.54, 10 39.5 S 13.5 39.71, 15 39.75 S 18.5 39.75, 20 39.75 S 23.5 39.75, 25 39.75 S 28.5 39.75, 30 39.75 S 33.5 39.75, 35 39.75 S 38.5 39.75, 40 39.75 S 43.5 39.75, 45 39.75 S 48.5 39.75, 50 39.75 S 53.5 39.75, 55 39.75 S 58.5 39.75, 60 39.75 S 63.5 39.75, 65 39.75 S 68.5 39.75, 70 39.75 S 73.5 39.75, 75 39.75 S 78.5 39.75, 80 39.75 S 83.5 39.75, 85 39.75 S 89.52 41.17, 90 39.75 S 93.5 10.11, 95 10 S 99.52 37.57, 100 38.99 S 103.5 39.42, 105 39.5 S 108.5 39.5, 110 39.5 S 113.5 39.46, 115 39.5 S 118.5 39.71, 120 39.75 S 123.5 39.83, 125 39.75 S 128.5 39.24, 130 39.24 S 133.5 39.67, 135 39.75 S 138.5 39.79, 140 39.75 S 143.5 39.54, 145 39.5 S 148.5 39.46, 150 39.5 S 153.56 40.18, 155 39.75 S 158.5 36.51, 160 36.47 S 163.55 39.13, 165 39.5 S 168.5 39.03, 170 38.99 S 173.61 39.8, 175 39.24 S 178.51 35.11, 180 34.96 S 183.6 37.71, 185 38.24 S 188.5 38.74, 190 38.74 S 193.5 38.28, 195 38.24 S 198.52 38.27, 200 38.49 S 203.55 39.38, 205 39.75"
          fill="none"/>
    <circle r="4" cx="5" cy="40" fill="#3023AE"/>
    <circle r="4" cx="205" cy="39.75" fill="#C86DD7"/>      
</svg>