<svg width="200" height="50" viewBox="0 0 210 50" xmlns="http://www.w3.org/2000/svg">
    <defs>
        <linearGradient x1="0%" y1="0%" x2="100%" y2="0%" id="a">
            <stop stop-color="#3023AE" offset="0%"/>
            <stop stop-color="#C86DD7" offset="100%"/>
        </linearGradient>
    </defs>
    <path stroke="url(#a)"
          stroke-width="3"
          stroke-linejoin="round"
          stroke-linecap="round"
          d="M5 40 C 6.48 39.74, 8.53 39.43, 10 39.13 S 13.74 38.77, 15 37.96 S 19.49 34.13, 20 32.72 S 23.56 9.58, 25 10 S 29.48 34.22, 30 35.63 S 33.54 37.14, 35 36.8 S 38.51 33.43, 40 33.3 S 43.69 36.65, 45 35.92 S 48.51 27.64, 50 27.77 S 53.93 35.74, 55 36.8 S 58.5 37.71, 60 37.67 S 63.72 37.28, 65 36.5 S 68.5 31.64, 70 31.55 S 73.55 35.54, 75 35.92 S 78.5 34.21, 80 34.17 S 83.57 35.17, 85 35.63 S 88.5 37.47, 90 37.38 S 93.64 35.68, 95 35.05 S 98.82 33.65, 100 32.72 S 103.51 27.31, 105 27.18 S 108.84 30.89, 110 31.84 S 113.58 34.84, 115 35.34 S 118.51 35.51, 120 35.34 S 123.61 34.74, 125 34.17 S 128.67 31.96, 130 31.26 S 133.89 29.94, 135 28.93 S 138.56 21.81, 140 22.23 S 144.02 30.7, 145 31.84 S 148.52 33.66, 150 33.88 S 153.56 33.72, 155 33.3 S 158.52 31.23, 160 30.97 S 163.63 32.15, 165 31.55 S 168.7 27.35, 170 26.6 S 173.55 25.35, 175 25.73 S 178.5 29.22, 180 29.22 S 183.51 25.6, 185 25.73 S 188.85 29.13, 190 30.1 S 193.53 33.87, 195 34.17 S 198.52 32.4, 200 32.14 S 203.5 32.34, 205 32.43"
          fill="none"/>
    <circle r="4" cx="5" cy="40" fill="#3023AE"/>
    <circle r="4" cx="205" cy="32.43" fill="#C86DD7"/>      
</svg>