<svg width="200" height="50" viewBox="0 0 210 50" xmlns="http://www.w3.org/2000/svg">
    <defs>
        <linearGradient x1="0%" y1="0%" x2="100%" y2="0%" id="a">
            <stop stop-color="#3023AE" offset="0%"/>
            <stop stop-color="#C86DD7" offset="100%"/>
        </linearGradient>
    </defs>
    <path stroke="url(#a)"
          stroke-width="3"
          stroke-linejoin="round"
          stroke-linecap="round"
          d="M5 40 C 6.49 39.81, 8.5 39.46, 10 39.37 S 13.5 39.37, 15 39.37 S 18.5 39.37, 20 39.37 S 23.5 39.46, 25 39.37 S 28.5 38.84, 30 38.75 S 33.5 38.75, 35 38.75 S 38.6 39.28, 40 38.75 S 43.63 35.6, 45 35 S 48.5 34.37, 50 34.37 S 53.5 35, 55 35 S 58.94 35.43, 60 34.37 S 64.09 26.19, 65 25 S 68.66 21.92, 70 21.25 S 73.53 20.28, 75 20 S 78.6 18.84, 80 19.37 S 83.69 23.01, 85 23.75 S 88.69 25.74, 90 25 S 93.76 18.97, 95 18.12 S 98.53 18.4, 100 18.12 S 103.57 16.7, 105 16.25 S 108.54 14.64, 110 15 S 113.53 18.47, 115 18.75 S 118.63 17.47, 120 16.87 S 123.76 15.22, 125 14.37 S 128.69 9.26, 130 10 S 133.69 19.27, 135 20 S 138.69 16.36, 140 15.62 S 143.94 13.31, 145 14.37 S 148.54 25.98, 150 25.62 S 153.87 12.86, 155 11.87 S 159 15.75, 160 16.87 S 163.63 22.52, 165 23.12 S 168.5 21.25, 170 21.25 S 173.5 23.03, 175 23.12 S 178.51 22.06, 180 21.87 S 184.03 20.72, 185 21.87 S 188.69 33.01, 190 33.75 S 193.69 28.24, 195 27.5 S 198.5 28.03, 200 28.12 S 203.5 28.12, 205 28.12"
          fill="none"/>
    <circle r="4" cx="5" cy="40" fill="#3023AE"/>
    <circle r="4" cx="205" cy="28.119999999999997" fill="#C86DD7"/>      
</svg>