<svg width="200" height="50" viewBox="0 0 210 50" xmlns="http://www.w3.org/2000/svg">
    <defs>
        <linearGradient x1="0%" y1="0%" x2="100%" y2="0%" id="a">
            <stop stop-color="#3023AE" offset="0%"/>
            <stop stop-color="#C86DD7" offset="100%"/>
        </linearGradient>
    </defs>
    <path stroke="url(#a)"
          stroke-width="3"
          stroke-linejoin="round"
          stroke-linecap="round"
          d="M5 40 C 6.5 39.92, 8.51 39.89, 10 39.74 S 13.5 38.97, 15 38.97 S 18.5 39.62, 20 39.74 S 23.5 39.74, 25 39.74 S 28.5 39.74, 30 39.74 S 33.5 39.74, 35 39.74 S 38.5 39.74, 40 39.74 S 43.5 39.74, 45 39.74 S 48.5 39.74, 50 39.74 S 53.5 39.74, 55 39.74 S 58.5 39.74, 60 39.74 S 63.5 39.74, 65 39.74 S 68.5 39.74, 70 39.74 S 73.5 39.74, 75 39.74 S 78.5 39.74, 80 39.74 S 83.5 39.74, 85 39.74 S 88.5 39.74, 90 39.74 S 93.5 39.74, 95 39.74 S 98.5 39.74, 100 39.74 S 103.5 39.74, 105 39.74 S 108.5 39.74, 110 39.74 S 113.5 39.74, 115 39.74 S 118.5 39.74, 120 39.74 S 123.5 39.78, 125 39.74 S 128.5 39.57, 130 39.49 S 133.5 39.27, 135 39.23 S 138.5 39.15, 140 39.23 S 143.5 39.82, 145 39.74 S 148.5 38.72, 150 38.72 S 153.51 39.59, 155 39.74 S 158.52 39.97, 160 39.74 S 163.5 38.25, 165 38.21 S 168.52 39.26, 170 39.49 S 174.52 41.16, 175 39.74 S 178.56 10.41, 180 10 S 184.46 35.52, 185 36.92 S 188.54 35.56, 190 35.9 S 193.58 38.76, 195 39.23 S 198.5 39.19, 200 39.23 S 203.5 39.41, 205 39.49"
          fill="none"/>
    <circle r="4" cx="5" cy="40" fill="#3023AE"/>
    <circle r="4" cx="205" cy="39.49" fill="#C86DD7"/>      
</svg>