<svg width="200" height="50" viewBox="0 0 210 50" xmlns="http://www.w3.org/2000/svg">
    <defs>
        <linearGradient x1="0%" y1="0%" x2="100%" y2="0%" id="a">
            <stop stop-color="#3023AE" offset="0%"/>
            <stop stop-color="#C86DD7" offset="100%"/>
        </linearGradient>
    </defs>
    <path stroke="url(#a)"
          stroke-width="3"
          stroke-linejoin="round"
          stroke-linecap="round"
          d="M5 40 C 5.25 38.52, 8.55 10.4, 10 10 S 14.52 35.83, 15 37.25 S 18.53 39.24, 20 39.54 S 23.5 39.38, 25 39.31 S 28.5 39.01, 30 39.08 S 33.5 39.67, 35 39.77 S 38.5 39.84, 40 39.77 S 43.5 39.31, 45 39.31 S 48.5 39.74, 50 39.77 S 53.53 39.84, 55 39.54 S 58.5 37.68, 60 37.71 S 63.52 39.5, 65 39.77 S 68.5 39.61, 70 39.54 S 73.5 39.28, 75 39.31 S 78.5 39.7, 80 39.77 S 83.5 39.77, 85 39.77 S 88.5 39.77, 90 39.77 S 93.5 39.77, 95 39.77 S 98.5 39.77, 100 39.77 S 103.5 39.77, 105 39.77 S 108.5 39.77, 110 39.77 S 113.5 39.8, 115 39.77 S 118.5 39.54, 120 39.54 S 123.5 39.77, 125 39.77 S 128.5 39.64, 130 39.54 S 133.5 39.05, 135 39.08 S 138.5 39.67, 140 39.77 S 143.5 39.77, 145 39.77 S 148.5 39.87, 150 39.77 S 153.5 39.08, 155 39.08 S 158.5 39.67, 160 39.77 S 163.5 39.77, 165 39.77 S 168.5 39.77, 170 39.77 S 173.5 39.77, 175 39.77 S 178.5 39.8, 180 39.77 S 183.5 39.54, 185 39.54 S 188.5 39.8, 190 39.77 S 193.5 39.38, 195 39.31 S 198.5 39.31, 200 39.31"
          fill="none"/>
    <circle r="4" cx="5" cy="40" fill="#3023AE"/>
    <circle r="4" cx="200" cy="39.31" fill="#C86DD7"/>      
</svg>