<svg width="200" height="50" viewBox="0 0 210 50" xmlns="http://www.w3.org/2000/svg">
    <defs>
        <linearGradient x1="0%" y1="0%" x2="100%" y2="0%" id="a">
            <stop stop-color="#3023AE" offset="0%"/>
            <stop stop-color="#C86DD7" offset="100%"/>
        </linearGradient>
    </defs>
    <path stroke="url(#a)"
          stroke-width="3"
          stroke-linejoin="round"
          stroke-linecap="round"
          d="M5 40 C 6.43 39.55, 8.5 38.45, 10 38.42 S 13.51 39.58, 15 39.78 S 18.5 39.8, 20 39.79 S 23.5 39.74, 25 39.68 S 28.5 39.49, 30 39.39 S 33.5 39.1, 35 39.03 S 38.5 38.97, 40 38.92 S 43.51 38.82, 45 38.68 S 48.51 38.08, 50 37.95 S 53.5 37.81, 55 37.83 S 58.51 38.23, 60 38.1 S 63.5 37.02, 65 36.94 S 68.51 37.45, 70 37.58 S 73.51 37.98, 75 37.79 S 78.56 36.75, 80 36.32 S 83.57 35.26, 85 34.8 S 88.5 33.1, 90 33.07 S 93.5 34.6, 95 34.6 S 98.5 33.18, 100 33.07 S 103.5 33.83, 105 33.86 S 108.53 33.52, 110 33.25 S 113.57 32.45, 115 32 S 119.38 31.45, 120 30.08 S 123.96 11.08, 125 10 S 128.92 18.73, 130 19.77 S 133.66 20.23, 135 19.56 S 138.73 15.53, 140 14.74 S 143.5 13.35, 145 13.33 S 148.56 14.17, 150 14.6 S 153.5 16.37, 155 16.33 S 158.5 14.34, 160 14.31 S 163.57 15.67, 165 16.13 S 168.51 17.72, 170 17.51 S 173.56 15.15, 175 14.73 S 178.51 14.46, 180 14.63 S 183.5 15.92, 185 15.87 S 188.56 14.74, 190 14.32 S 193.5 12.81, 195 12.92 S 198.56 14.62, 200 15.05 S 203.52 15.64, 205 15.89"
          fill="none"/>
    <circle r="4" cx="5" cy="40" fill="#3023AE"/>
    <circle r="4" cx="205" cy="15.89" fill="#C86DD7"/>      
</svg>