<svg width="200" height="50" viewBox="0 0 210 50" xmlns="http://www.w3.org/2000/svg">
    <defs>
        <linearGradient x1="0%" y1="0%" x2="100%" y2="0%" id="a">
            <stop stop-color="#3023AE" offset="0%"/>
            <stop stop-color="#C86DD7" offset="100%"/>
        </linearGradient>
    </defs>
    <path stroke="url(#a)"
          stroke-width="3"
          stroke-linejoin="round"
          stroke-linecap="round"
          d="M5 40 C 6.44 39.57, 8.5 38.52, 10 38.49 S 13.51 39.6, 15 39.79 S 18.5 39.77, 20 39.75 S 23.5 39.75, 25 39.65 S 28.5 39.2, 30 39.11 S 33.5 39.14, 35 39.07 S 38.5 38.71, 40 38.61 S 43.51 38.53, 45 38.38 S 48.5 37.63, 50 37.58 S 53.5 38.14, 55 38.04 S 58.5 36.98, 60 36.92 S 63.5 37.52, 65 37.62 S 68.54 37.94, 70 37.58 S 73.57 35.64, 75 35.18 S 78.52 34.61, 80 34.35 S 83.51 33.55, 85 33.41 S 88.5 33.31, 90 33.4 S 93.5 34.04, 95 34.01 S 98.53 33.53, 100 33.21 S 103.57 32.32, 105 31.86 S 109.38 31.37, 110 30.01 S 113.99 11.11, 115 10 S 118.87 18.09, 120 19.08 S 123.8 19.64, 125 18.74 S 128.65 12.26, 130 11.61 S 133.6 13.39, 135 13.93 S 138.5 15.37, 140 15.44 S 143.5 14.4, 145 14.41 S 148.54 15.17, 150 15.51 S 153.5 16.8, 155 16.74 S 158.53 15.4, 160 15.12 S 163.52 15.09, 165 14.85 S 168.5 13.43, 170 13.48 S 173.5 15.24, 175 15.18 S 178.5 13.04, 180 13.07 S 183.54 15.05, 185 15.41 S 188.5 15.46, 190 15.54 S 193.52 15.71, 195 15.95 S 198.54 16.8, 200 17.16 S 203.54 18.03, 205 18.39"
          fill="none"/>
    <circle r="4" cx="5" cy="40" fill="#3023AE"/>
    <circle r="4" cx="205" cy="18.39" fill="#C86DD7"/>      
</svg>