<svg width="200" height="50" viewBox="0 0 210 50" xmlns="http://www.w3.org/2000/svg">
    <defs>
        <linearGradient x1="0%" y1="0%" x2="100%" y2="0%" id="a">
            <stop stop-color="#3023AE" offset="0%"/>
            <stop stop-color="#C86DD7" offset="100%"/>
        </linearGradient>
    </defs>
    <path stroke="url(#a)"
          stroke-width="3"
          stroke-linejoin="round"
          stroke-linecap="round"
          d="M5 40 C 6.41 39.5, 8.5 38.28, 10 38.24 S 13.52 39.47, 15 39.7 S 18.5 39.78, 20 39.78 S 23.5 39.75, 25 39.7 S 28.51 39.58, 30 39.45 S 33.5 38.86, 35 38.81 S 38.5 39.18, 40 39.1 S 43.51 38.44, 45 38.3 S 48.51 38.29, 50 38.16 S 53.5 37.44, 55 37.4 S 58.51 37.99, 60 37.86 S 63.5 36.59, 65 36.53 S 68.51 37.27, 70 37.45 S 73.5 37.85, 75 37.73 S 78.57 37.12, 80 36.67 S 83.57 35.08, 85 34.61 S 88.53 33.68, 90 33.39 S 93.5 32.7, 95 32.64 S 98.5 32.91, 100 32.99 S 103.5 33.21, 105 33.2 S 108.51 33.09, 110 32.91 S 113.58 32.5, 115 32.02 S 119.3 30.88, 120 29.56 S 124.12 14.41, 125 13.2 S 128.69 15.12, 130 15.85 S 133.5 18.78, 135 18.78 S 138.87 16.83, 140 15.84 S 143.64 10.63, 145 10 S 148.56 10.82, 150 11.25 S 153.52 12.8, 155 13.01 S 158.5 12.79, 160 12.69 S 163.5 12.28, 165 12.35 S 168.59 12.65, 170 13.16 S 173.53 16.28, 175 16 S 178.56 11.65, 180 11.24 S 183.5 13.12, 185 13.13 S 188.5 11.39, 190 11.31 S 193.51 12.76, 195 12.59 S 198.5 10.19, 200 10.17 S 203.64 11.85, 205 12.48"
          fill="none"/>
    <circle r="4" cx="5" cy="40" fill="#3023AE"/>
    <circle r="4" cx="205" cy="12.48" fill="#C86DD7"/>      
</svg>