<svg width="200" height="50" viewBox="0 0 210 50" xmlns="http://www.w3.org/2000/svg">
    <defs>
        <linearGradient x1="0%" y1="0%" x2="100%" y2="0%" id="a">
            <stop stop-color="#3023AE" offset="0%"/>
            <stop stop-color="#C86DD7" offset="100%"/>
        </linearGradient>
    </defs>
    <path stroke="url(#a)"
          stroke-width="3"
          stroke-linejoin="round"
          stroke-linecap="round"
          d="M5 40 C 6.42 39.51, 8.5 38.32, 10 38.28 S 13.52 39.54, 15 39.76 S 18.5 39.77, 20 39.75 S 23.5 39.72, 25 39.65 S 28.5 39.4, 30 39.29 S 33.5 39, 35 38.91 S 38.5 38.78, 40 38.71 S 43.51 38.58, 45 38.41 S 48.5 37.71, 50 37.59 S 53.5 37.53, 55 37.6 S 58.51 38.25, 60 38.08 S 63.5 36.53, 65 36.44 S 68.5 37.34, 70 37.45 S 73.55 37.56, 75 37.16 S 78.58 35.19, 80 34.71 S 83.53 34.08, 85 33.78 S 88.5 32.67, 90 32.67 S 93.5 33.77, 95 33.77 S 98.5 32.77, 100 32.66 S 103.5 33.14, 105 33.02 S 108.59 32.37, 110 31.87 S 114.32 30.79, 115 29.45 S 119.1 13.42, 120 12.22 S 123.75 15.22, 125 16.04 S 128.52 19.03, 130 18.78 S 133.86 15.29, 135 14.32 S 138.59 10.75, 140 10.24 S 143.6 10.15, 145 10.68 S 148.51 13.84, 150 14.04 S 153.5 12.16, 155 12.05 S 158.54 12.98, 160 13.3 S 163.5 14.19, 165 14.25 S 168.55 14.1, 170 13.73 S 173.5 11.68, 175 11.68 S 178.5 13.77, 180 13.72 S 183.59 11.88, 185 11.36 S 188.52 9.77, 190 10 S 193.55 12.53, 195 12.93 S 198.51 12.53, 200 12.74 S 203.57 13.87, 205 14.32"
          fill="none"/>
    <circle r="4" cx="5" cy="40" fill="#3023AE"/>
    <circle r="4" cx="205" cy="14.32" fill="#C86DD7"/>      
</svg>