<svg width="200" height="50" viewBox="0 0 210 50" xmlns="http://www.w3.org/2000/svg">
    <defs>
        <linearGradient x1="0%" y1="0%" x2="100%" y2="0%" id="a">
            <stop stop-color="#3023AE" offset="0%"/>
            <stop stop-color="#C86DD7" offset="100%"/>
        </linearGradient>
    </defs>
    <path stroke="url(#a)"
          stroke-width="3"
          stroke-linejoin="round"
          stroke-linecap="round"
          d="M5 40 C 6.43 39.53, 8.5 38.39, 10 38.36 S 13.51 39.56, 15 39.77 S 18.5 39.78, 20 39.76 S 23.5 39.73, 25 39.66 S 28.5 39.41, 30 39.3 S 33.5 39.02, 35 38.93 S 38.5 38.76, 40 38.69 S 43.51 38.64, 45 38.48 S 48.5 37.74, 50 37.62 S 53.5 37.71, 55 37.7 S 58.5 37.62, 60 37.53 S 63.5 37.1, 65 37.12 S 68.5 37.71, 70 37.68 S 73.56 37.35, 75 36.94 S 78.57 35.29, 80 34.83 S 83.52 33.97, 85 33.73 S 88.5 33.32, 90 33.2 S 93.5 32.88, 95 32.94 S 98.5 33.57, 100 33.58 S 103.53 33.32, 105 33.01 S 108.59 31.99, 110 31.49 S 114.37 30.82, 115 29.46 S 119 11.12, 120 10 S 123.84 17.29, 125 18.25 S 128.69 19, 130 18.27 S 133.75 13.52, 135 12.69 S 138.5 11.55, 140 11.64 S 143.56 12.89, 145 13.29 S 148.5 14.43, 150 14.44 S 153.5 13.42, 155 13.34 S 158.56 13.51, 160 13.93 S 163.51 16.45, 165 16.25 S 168.51 12.78, 170 12.57 S 173.51 15.05, 175 14.87 S 178.51 11.58, 180 11.37 S 183.5 13.39, 185 13.46 S 188.51 11.64, 190 11.82 S 193.53 14.38, 195 14.7 S 198.5 13.85, 200 13.97 S 203.56 15.04, 205 15.47"
          fill="none"/>
    <circle r="4" cx="5" cy="40" fill="#3023AE"/>
    <circle r="4" cx="205" cy="15.469999999999999" fill="#C86DD7"/>      
</svg>