<svg width="200" height="50" viewBox="0 0 210 50" xmlns="http://www.w3.org/2000/svg">
    <defs>
        <linearGradient x1="0%" y1="0%" x2="100%" y2="0%" id="a">
            <stop stop-color="#3023AE" offset="0%"/>
            <stop stop-color="#C86DD7" offset="100%"/>
        </linearGradient>
    </defs>
    <path stroke="url(#a)"
          stroke-width="3"
          stroke-linejoin="round"
          stroke-linecap="round"
          d="M5 40 C 6.42 39.51, 8.5 38.32, 10 38.28 S 13.52 39.48, 15 39.7 S 18.5 39.78, 20 39.78 S 23.5 39.78, 25 39.73 S 28.51 39.58, 30 39.45 S 33.5 38.92, 35 38.87 S 38.5 39.19, 40 39.11 S 43.5 38.47, 45 38.36 S 48.51 38.52, 50 38.37 S 53.5 37.41, 55 37.34 S 58.5 38.01, 60 37.91 S 63.5 36.69, 65 36.65 S 68.51 37.45, 70 37.61 S 73.5 37.81, 75 37.7 S 78.56 37.29, 80 36.87 S 83.57 35.22, 85 34.76 S 88.52 33.9, 90 33.64 S 93.5 32.97, 95 32.98 S 98.5 33.76, 100 33.73 S 103.5 32.83, 105 32.8 S 108.5 33.6, 110 33.51 S 113.55 32.55, 115 32.17 S 119.24 32.15, 120 30.86 S 124.17 16.33, 125 15.08 S 128.64 15.1, 130 15.73 S 133.53 19.44, 135 19.75 S 138.93 18.92, 140 17.87 S 143.7 10.75, 145 10 S 148.61 11.49, 150 12.05 S 153.52 13.79, 155 14.04 S 158.51 13.95, 160 13.75 S 163.5 12.71, 165 12.71 S 168.64 13.1, 170 13.74 S 173.51 17.59, 175 17.4 S 178.65 13.14, 180 12.48 S 183.52 12.26, 185 12.49 S 188.5 14.1, 190 14.05 S 193.56 12.56, 195 12.15 S 198.51 11.33, 200 11.21 S 203.5 11.29, 205 11.33"
          fill="none"/>
    <circle r="4" cx="5" cy="40" fill="#3023AE"/>
    <circle r="4" cx="205" cy="11.329999999999998" fill="#C86DD7"/>      
</svg>