<svg width="200" height="50" viewBox="0 0 210 50" xmlns="http://www.w3.org/2000/svg">
    <defs>
        <linearGradient x1="0%" y1="0%" x2="100%" y2="0%" id="a">
            <stop stop-color="#3023AE" offset="0%"/>
            <stop stop-color="#C86DD7" offset="100%"/>
        </linearGradient>
    </defs>
    <path stroke="url(#a)"
          stroke-width="3"
          stroke-linejoin="round"
          stroke-linecap="round"
          d="M5 40 C 6.43 39.55, 8.5 38.48, 10 38.44 S 13.51 39.56, 15 39.76 S 18.5 39.79, 20 39.79 S 23.5 39.81, 25 39.76 S 28.5 39.6, 30 39.48 S 33.5 39.03, 35 38.99 S 38.5 39.24, 40 39.18 S 43.5 38.67, 45 38.59 S 48.51 38.81, 50 38.66 S 53.5 37.66, 55 37.56 S 58.5 38.04, 60 37.99 S 63.5 37.25, 65 37.21 S 68.5 37.62, 70 37.73 S 73.5 37.99, 75 37.94 S 78.55 37.8, 80 37.4 S 83.56 35.6, 85 35.19 S 88.52 34.83, 90 34.58 S 93.5 33.43, 95 33.47 S 98.5 34.82, 100 34.82 S 103.51 33.61, 105 33.49 S 108.5 34.05, 110 33.99 S 113.52 33.34, 115 33.08 S 118.57 32.65, 120 32.21 S 124.38 31.36, 125 29.99 S 128.93 11.05, 130 10 S 133.94 19.1, 135 20.16 S 138.61 20.55, 140 20 S 143.72 16.97, 145 16.18 S 148.53 14.09, 150 13.82 S 153.58 13.84, 155 14.32 S 158.51 16.98, 160 17.19 S 163.51 15.9, 165 15.71 S 168.51 15.74, 170 15.93 S 173.54 16.63, 175 16.98 S 178.53 18.67, 180 18.36 S 183.5 14.88, 185 14.87 S 188.56 18.69, 190 18.26 S 193.53 12.16, 195 11.86 S 198.52 15.98, 200 16.21 S 203.69 14.17, 205 13.44"
          fill="none"/>
    <circle r="4" cx="5" cy="40" fill="#3023AE"/>
    <circle r="4" cx="205" cy="13.440000000000001" fill="#C86DD7"/>      
</svg>