<svg width="200" height="50" viewBox="0 0 210 50" xmlns="http://www.w3.org/2000/svg">
    <defs>
        <linearGradient x1="0%" y1="0%" x2="100%" y2="0%" id="a">
            <stop stop-color="#3023AE" offset="0%"/>
            <stop stop-color="#C86DD7" offset="100%"/>
        </linearGradient>
    </defs>
    <path stroke="url(#a)"
          stroke-width="3"
          stroke-linejoin="round"
          stroke-linecap="round"
          d="M5 40 C 6.45 39.61, 8.5 38.67, 10 38.64 S 13.51 39.63, 15 39.78 S 18.5 39.74, 20 39.63 S 23.5 39.15, 25 39.04 S 28.5 39, 30 38.91 S 33.52 38.64, 35 38.42 S 38.5 37.52, 40 37.44 S 43.51 38.02, 45 37.89 S 48.5 36.67, 50 36.6 S 53.51 37.63, 55 37.42 S 58.6 35.73, 60 35.2 S 63.53 33.99, 65 33.67 S 68.51 33.16, 70 33.02 S 73.5 32.83, 75 32.74 S 78.52 32.66, 80 32.39 S 84.28 32.22, 85 30.91 S 89.13 15.47, 90 14.25 S 93.51 16.63, 95 16.76 S 98.76 15.97, 100 15.13 S 103.55 10.39, 105 10 S 108.55 12.08, 110 12.46 S 113.5 12.5, 115 12.59 S 118.55 12.71, 120 13.09 S 123.51 15.35, 125 15.23 S 128.59 12.77, 130 12.26 S 133.5 11.68, 135 11.61 S 138.52 11.53, 140 11.77 S 143.52 12.98, 145 13.23 S 148.52 13.21, 150 13.48 S 153.53 14.77, 155 15.07 S 158.6 15.01, 160 15.54 S 163.61 18.24, 165 18.81 S 168.51 19.85, 170 19.67 S 173.6 18.12, 175 17.59 S 178.5 15.84, 180 15.86 S 183.56 17.3, 185 17.73 S 188.54 18.5, 190 18.83 S 193.62 19.44, 195 20.02 S 198.52 22.75, 200 23.01 S 203.55 22.12, 205 21.75"
          fill="none"/>
    <circle r="4" cx="5" cy="40" fill="#3023AE"/>
    <circle r="4" cx="205" cy="21.75" fill="#C86DD7"/>      
</svg>