<svg width="200" height="50" viewBox="0 0 210 50" xmlns="http://www.w3.org/2000/svg">
    <defs>
        <linearGradient x1="0%" y1="0%" x2="100%" y2="0%" id="a">
            <stop stop-color="#3023AE" offset="0%"/>
            <stop stop-color="#C86DD7" offset="100%"/>
        </linearGradient>
    </defs>
    <path stroke="url(#a)"
          stroke-width="3"
          stroke-linejoin="round"
          stroke-linecap="round"
          d="M5 40 C 6.45 39.61, 8.5 38.69, 10 38.66 S 13.51 39.64, 15 39.78 S 18.5 39.73, 20 39.62 S 23.5 39.18, 25 39.07 S 28.5 38.98, 30 38.89 S 33.52 38.68, 35 38.46 S 38.5 37.49, 40 37.4 S 43.51 37.99, 45 37.86 S 48.5 36.59, 50 36.53 S 53.51 37.65, 55 37.44 S 58.64 35.75, 60 35.12 S 63.51 33.01, 65 32.8 S 68.5 33.77, 70 33.74 S 73.52 32.85, 75 32.63 S 78.55 32.66, 80 32.27 S 84.31 31.28, 85 29.95 S 89.08 14.08, 90 12.9 S 93.52 16.81, 95 17.07 S 98.78 15.5, 100 14.63 S 103.51 10.16, 105 10 S 108.54 13.21, 110 13.57 S 113.5 12.46, 115 12.46 S 118.53 13.31, 120 13.59 S 123.5 14.31, 125 14.33 S 128.57 14.19, 130 13.73 S 133.53 11.41, 135 11.1 S 138.55 11.25, 140 11.62 S 143.57 13.19, 145 13.65 S 148.51 14.68, 150 14.81 S 153.54 14.16, 155 14.51 S 158.59 16.66, 160 17.18 S 163.54 17.86, 165 18.22 S 168.5 19.65, 170 19.64 S 173.58 18.67, 175 18.18 S 178.5 16.09, 180 16.16 S 183.57 18.22, 185 18.68 S 188.54 19.05, 190 19.41 S 193.6 20.61, 195 21.14 S 198.5 23.07, 200 23.15 S 203.56 22.1, 205 21.67"
          fill="none"/>
    <circle r="4" cx="5" cy="40" fill="#3023AE"/>
    <circle r="4" cx="205" cy="21.67" fill="#C86DD7"/>      
</svg>