<svg width="200" height="50" viewBox="0 0 210 50" xmlns="http://www.w3.org/2000/svg">
    <defs>
        <linearGradient x1="0%" y1="0%" x2="100%" y2="0%" id="a">
            <stop stop-color="#3023AE" offset="0%"/>
            <stop stop-color="#C86DD7" offset="100%"/>
        </linearGradient>
    </defs>
    <path stroke="url(#a)"
          stroke-width="3"
          stroke-linejoin="round"
          stroke-linecap="round"
          d="M5 40 C 5.55 38.6, 9.44 28.73, 10 27.34 S 13.93 16.21, 15 15.16 S 18.51 17.29, 20 17.5 S 23.57 16.09, 25 16.56 S 28.64 21.42, 30 20.78 S 33.62 12.45, 35 11.87 S 38.6 16.03, 40 16.56 S 43.51 15.48, 45 15.62 S 48.53 17.22, 50 17.5 S 53.62 16.92, 55 17.5 S 58.62 21.14, 60 21.72 S 63.62 22.3, 65 21.72 S 68.56 17.09, 70 17.5 S 73.56 24.12, 75 24.53 S 78.6 20.84, 80 20.31 S 83.51 20.64, 85 20.78 S 88.69 20.51, 90 21.25 S 93.53 26.13, 95 26.41 S 98.93 24.17, 100 23.12 S 103.56 16.97, 105 16.56 S 108.62 19.73, 110 20.31 S 113.67 20.09, 115 20.78 S 118.53 25.75, 120 25.47 S 123.51 19.05, 125 18.91 S 128.77 23.67, 130 24.53 S 133.54 26.28, 135 25.94 S 138.67 22.88, 140 22.19 S 143.51 20.92, 145 20.78 S 148.54 21.59, 150 21.25 S 153.62 19.02, 155 18.44 S 158.85 18, 160 17.03 S 163.51 9.86, 165 10 S 168.96 16.89, 170 17.97 S 173.75 19.49, 175 20.31 S 178.64 23.89, 180 24.53 S 183.57 25.47, 185 25 S 188.51 21.11, 190 21.25 S 193.57 26.41, 195 25.94 S 198.62 18.55, 200 17.97 S 203.8 20.82, 205 21.72"
          fill="none"/>
    <circle r="4" cx="5" cy="40" fill="#3023AE"/>
    <circle r="4" cx="205" cy="21.72" fill="#C86DD7"/>      
</svg>