<svg width="200" height="50" viewBox="0 0 210 50" xmlns="http://www.w3.org/2000/svg">
    <defs>
        <linearGradient x1="0%" y1="0%" x2="100%" y2="0%" id="a">
            <stop stop-color="#3023AE" offset="0%"/>
            <stop stop-color="#C86DD7" offset="100%"/>
        </linearGradient>
    </defs>
    <path stroke="url(#a)"
          stroke-width="3"
          stroke-linejoin="round"
          stroke-linecap="round"
          d="M5 40 C 5.31 38.53, 8.53 16.84, 10 16.56 S 14.17 36.87, 15 38.12 S 18.64 32.2, 20 31.56 S 23.51 33.3, 25 33.44 S 28.51 32.36, 30 32.5 S 33.51 34.51, 35 34.37 S 39.09 32.75, 40 31.56 S 43.53 21.53, 45 21.25 S 48.96 28.61, 50 29.69 S 53.51 31.42, 55 31.56 S 58.51 30.76, 60 30.62 S 63.6 30.09, 65 30.62 S 68.69 35.1, 70 34.37 S 73.8 25.9, 75 25 S 78.51 26.73, 80 26.87 S 83.56 25.53, 85 25.94 S 89 30.81, 90 29.69 S 93.96 15.77, 95 14.69 S 98.8 18.47, 100 19.37 S 103.85 21.22, 105 22.19 S 108.75 26.99, 110 27.81 S 113.56 29.16, 115 28.75 S 118.51 24.86, 120 25 S 123.64 29.05, 125 29.69 S 128.75 30.51, 130 29.69 S 133.8 24.02, 135 23.12 S 138.53 22.47, 140 22.19 S 143.96 22.33, 145 21.25 S 148.75 11.05, 150 11.87 S 153.75 26.99, 155 27.81 S 158.64 19.08, 160 18.44 S 163.75 22.3, 165 23.12 S 168.51 25.14, 170 25 S 174.09 23.38, 175 22.19 S 178.51 11.73, 180 11.87 S 183.69 22.38, 185 23.12 S 188.75 18.32, 190 17.5 S 193.8 17.46, 195 16.56 S 198.6 9.47, 200 10 S 204.35 18.96, 205 20.31"
          fill="none"/>
    <circle r="4" cx="5" cy="40" fill="#3023AE"/>
    <circle r="4" cx="205" cy="20.31" fill="#C86DD7"/>      
</svg>