<svg width="200" height="50" viewBox="0 0 210 50" xmlns="http://www.w3.org/2000/svg">
    <defs>
        <linearGradient x1="0%" y1="0%" x2="100%" y2="0%" id="a">
            <stop stop-color="#3023AE" offset="0%"/>
            <stop stop-color="#C86DD7" offset="100%"/>
        </linearGradient>
    </defs>
    <path stroke="url(#a)"
          stroke-width="3"
          stroke-linejoin="round"
          stroke-linecap="round"
          d="M5 40 C 5.31 38.53, 8.83 16.94, 10 16 S 14.04 30.85, 15 32 S 18.5 28, 20 28 S 23.83 31.06, 25 32 S 29.21 37.27, 30 36 S 33.53 16.29, 35 16 S 39.27 32.69, 40 34 S 43.61 34.56, 45 34 S 48.83 30.94, 50 30 S 53.71 26.77, 55 26 S 58.61 24.56, 60 24 S 63.53 21.71, 65 22 S 68.61 26.56, 70 26 S 73.71 18.77, 75 18 S 78.61 19.44, 80 20 S 83.94 20.94, 85 22 S 88.83 29.06, 90 30 S 94.33 31.34, 95 30 S 98.5 10, 100 10 S 104.27 28.69, 105 30 S 108.61 28.56, 110 28 S 113.53 25.71, 115 26 S 119.13 31.22, 120 30 S 123.53 11.71, 125 12 S 129.13 30.78, 130 32 S 133.61 26.56, 135 26 S 138.53 28.29, 140 28 S 144.13 25.22, 145 24 S 148.94 12.94, 150 14 S 153.61 33.44, 155 34 S 158.83 18.94, 160 18 S 163.53 25.71, 165 26 S 168.83 20.94, 170 20 S 173.53 17.71, 175 18 S 178.5 22, 180 22 S 183.71 18.77, 185 18 S 188.83 16.94, 190 16 S 193.5 10, 195 10 S 199.27 14.69, 200 16 S 204.42 26.62, 205 28"
          fill="none"/>
    <circle r="4" cx="5" cy="40" fill="#3023AE"/>
    <circle r="4" cx="205" cy="28" fill="#C86DD7"/>      
</svg>