<svg width="200" height="50" viewBox="0 0 210 50" xmlns="http://www.w3.org/2000/svg">
    <defs>
        <linearGradient x1="0%" y1="0%" x2="100%" y2="0%" id="a">
            <stop stop-color="#3023AE" offset="0%"/>
            <stop stop-color="#C86DD7" offset="100%"/>
        </linearGradient>
    </defs>
    <path stroke="url(#a)"
          stroke-width="3"
          stroke-linejoin="round"
          stroke-linecap="round"
          d="M5 40 C 5.36 38.54, 8.62 20.56, 10 19.97 S 14.22 34.48, 15 35.76 S 18.51 36.63, 20 36.45 S 23.55 34.97, 25 34.57 S 28.55 34.08, 30 33.68 S 33.83 32.75, 35 31.81 S 38.54 25.95, 40 25.59 S 43.6 28.79, 45 29.34 S 48.53 29.82, 50 29.54 S 53.51 27.65, 55 27.47 S 58.73 27.57, 60 28.36 S 63.54 33.35, 65 33.68 S 68.51 30.81, 70 30.62 S 73.52 32.17, 75 32.4 S 78.53 32.5, 80 32.2 S 83.67 31.01, 85 30.33 S 88.92 28.11, 90 27.07 S 93.51 20.6, 95 20.76 S 98.56 27.75, 100 28.16 S 103.52 23.84, 105 23.62 S 108.53 26.36, 110 26.68 S 113.69 26.53, 115 25.79 S 119.2 22.32, 120 21.05 S 123.51 10.21, 125 10 S 128.74 18.85, 130 19.67 S 133.51 16.38, 135 16.51 S 138.66 19.88, 140 20.56 S 143.62 20.95, 145 21.55 S 148.52 24.67, 150 24.9 S 153.53 22.82, 155 23.12 S 158.53 26.69, 160 26.97 S 163.56 25.43, 165 25 S 168.56 24.44, 170 24.01 S 173.58 21.56, 175 22.04 S 178.5 27.27, 180 27.37 S 183.68 23.44, 185 22.73 S 188.71 21.28, 190 22.04 S 193.57 28.19, 195 28.65 S 198.63 25.92, 200 25.3 S 203.54 24.46, 205 24.11"
          fill="none"/>
    <circle r="4" cx="5" cy="40" fill="#3023AE"/>
    <circle r="4" cx="205" cy="24.11" fill="#C86DD7"/>      
</svg>