<svg width="200" height="50" viewBox="0 0 210 50" xmlns="http://www.w3.org/2000/svg">
    <defs>
        <linearGradient x1="0%" y1="0%" x2="100%" y2="0%" id="a">
            <stop stop-color="#3023AE" offset="0%"/>
            <stop stop-color="#C86DD7" offset="100%"/>
        </linearGradient>
    </defs>
    <path stroke="url(#a)"
          stroke-width="3"
          stroke-linejoin="round"
          stroke-linecap="round"
          d="M5 40 C 6.35 39.35, 8.5 37.66, 10 37.6 S 13.53 39.31, 15 39.6 S 18.5 39.6, 20 39.6 S 23.5 39.6, 25 39.6 S 28.5 39.6, 30 39.6 S 33.5 39.6, 35 39.6 S 38.5 39.6, 40 39.6 S 43.5 39.6, 45 39.6 S 49.52 41.02, 50 39.6 S 53.54 10.35, 55 10 S 59.5 35.79, 60 37.2 S 63.53 38.11, 65 38.4 S 68.51 39.02, 70 39.2 S 73.5 39.54, 75 39.6 S 78.5 39.6, 80 39.6 S 83.5 39.6, 85 39.6 S 88.5 39.6, 90 39.6 S 93.5 39.6, 95 39.6 S 98.5 39.6, 100 39.6 S 103.5 39.66, 105 39.6 S 108.5 39.2, 110 39.2 S 113.5 39.54, 115 39.6 S 118.5 39.6, 120 39.6 S 123.5 39.6, 125 39.6 S 128.5 39.6, 130 39.6 S 133.5 39.6, 135 39.6 S 138.5 39.6, 140 39.6"
          fill="none"/>
    <circle r="4" cx="5" cy="40" fill="#3023AE"/>
    <circle r="4" cx="140" cy="39.6" fill="#C86DD7"/>      
</svg>