<svg width="200" height="50" viewBox="0 0 210 50" xmlns="http://www.w3.org/2000/svg">
    <defs>
        <linearGradient x1="0%" y1="0%" x2="100%" y2="0%" id="a">
            <stop stop-color="#3023AE" offset="0%"/>
            <stop stop-color="#C86DD7" offset="100%"/>
        </linearGradient>
    </defs>
    <path stroke="url(#a)"
          stroke-width="3"
          stroke-linejoin="round"
          stroke-linecap="round"
          d="M5 40 C 5.6 38.62, 8.54 28.8, 10 28.46 S 13.64 37.06, 15 37.69 S 18.77 33.93, 20 33.08 S 23.54 31.11, 25 30.77 S 28.64 31.4, 30 30.77 S 33.54 25.81, 35 26.15 S 38.5 33.08, 40 33.08 S 44.02 27.28, 45 26.15 S 48.54 21.88, 50 21.54 S 53.9 24.87, 55 23.85 S 58.77 13.16, 60 12.31 S 64.02 15.79, 65 16.92 S 68.54 24.19, 70 23.85 S 73.5 14.62, 75 14.62 S 78.64 24.48, 80 23.85 S 83.54 9.66, 85 10 S 88.64 25.52, 90 26.15 S 93.64 15.25, 95 14.62 S 98.77 20.69, 100 21.54 S 103.64 22.17, 105 21.54 S 108.77 17.77, 110 16.92 S 113.54 14.96, 115 14.62 S 118.5 14.62, 120 14.62 S 123.5 14.62, 125 14.62 S 129.29 13.3, 130 14.62 S 133.64 32.45, 135 33.08 S 138.9 20.25, 140 19.23 S 144.02 22.72, 145 23.85 S 148.54 30.43, 150 30.77 S 153.77 27, 155 26.15 S 158.54 23.51, 160 23.85 S 163.64 29.09, 165 28.46 S 169.12 20.45, 170 19.23 S 174.02 13.49, 175 14.62 S 178.77 29.92, 180 30.77 S 183.77 20.69, 185 21.54 S 188.9 36.67, 190 37.69 S 194.12 31.99, 195 30.77 S 198.77 24.7, 200 23.85 S 203.5 23.85, 205 23.85"
          fill="none"/>
    <circle r="4" cx="5" cy="40" fill="#3023AE"/>
    <circle r="4" cx="205" cy="23.85" fill="#C86DD7"/>      
</svg>