<svg width="200" height="50" viewBox="0 0 210 50" xmlns="http://www.w3.org/2000/svg">
    <defs>
        <linearGradient x1="0%" y1="0%" x2="100%" y2="0%" id="a">
            <stop stop-color="#3023AE" offset="0%"/>
            <stop stop-color="#C86DD7" offset="100%"/>
        </linearGradient>
    </defs>
    <path stroke="url(#a)"
          stroke-width="3"
          stroke-linejoin="round"
          stroke-linecap="round"
          d="M5 40 C 5.59 38.62, 9.53 29.71, 10 28.29 S 13.78 9.13, 15 10 S 19.5 34, 20 35.42 S 23.55 38.1, 25 38.49 S 28.5 38.05, 30 38.14 S 33.51 38.92, 35 39.07 S 38.5 39.23, 40 39.17 S 43.82 39.62, 45 38.7 S 48.51 31.54, 50 31.35 S 53.8 36.55, 55 37.45 S 58.52 38.56, 60 38.81 S 63.5 39.11, 65 39.17 S 68.5 39.18, 70 39.22 S 73.5 39.44, 75 39.47 S 78.5 39.47, 80 39.45 S 83.5 39.36, 85 39.34 S 88.54 39.68, 90 39.33 S 93.5 36.93, 95 36.95 S 98.54 39.1, 100 39.44 S 103.5 39.28, 105 39.27 S 108.5 39.39, 110 39.39 S 113.5 39.28, 115 39.29 S 118.5 39.43, 120 39.43 S 123.5 39.36, 125 39.3 S 128.5 39.07, 130 39.05 S 133.5 39.11, 135 39.14 S 138.5 39.21, 140 39.24 S 143.5 39.39, 145 39.36 S 148.5 39.04, 150 39.04 S 153.5 39.32, 155 39.38 S 158.5 39.42, 160 39.42 S 163.5 39.39, 165 39.37 S 168.5 39.34, 170 39.3 S 173.5 39.19, 175 39.11 S 178.5 38.79, 180 38.78 S 183.5 39.03, 185 39.03 S 188.5 38.79, 190 38.8 S 193.5 39.07, 195 39.09 S 198.5 38.98, 200 38.92 S 203.5 38.77, 205 38.71"
          fill="none"/>
    <circle r="4" cx="5" cy="40" fill="#3023AE"/>
    <circle r="4" cx="205" cy="38.71" fill="#C86DD7"/>      
</svg>