<svg width="200" height="50" viewBox="0 0 210 50" xmlns="http://www.w3.org/2000/svg">
    <defs>
        <linearGradient x1="0%" y1="0%" x2="100%" y2="0%" id="a">
            <stop stop-color="#3023AE" offset="0%"/>
            <stop stop-color="#C86DD7" offset="100%"/>
        </linearGradient>
    </defs>
    <path stroke="url(#a)"
          stroke-width="3"
          stroke-linejoin="round"
          stroke-linecap="round"
          d="M5 40 C 5.25 38.52, 8.5 10.11, 10 10 S 14.52 37.85, 15 39.27 S 18.5 39.59, 20 39.65 S 23.5 39.67, 25 39.66 S 28.5 39.56, 30 39.56 S 33.5 39.66, 35 39.68 S 38.5 39.73, 40 39.72 S 43.5 39.6, 45 39.59 S 48.5 39.72, 50 39.68 S 53.5 39.36, 55 39.33 S 58.5 39.45, 60 39.47 S 63.5 39.46, 65 39.47 S 68.5 39.5, 70 39.54 S 73.5 39.76, 75 39.73 S 78.5 39.37, 80 39.33 S 83.5 39.41, 85 39.45 S 88.5 39.61, 90 39.61 S 93.5 39.45, 95 39.42 S 98.5 39.41, 100 39.42 S 103.5 39.54, 105 39.52 S 108.5 39.36, 110 39.26 S 113.7 39.57, 115 38.83 S 118.5 33.57, 120 33.57 S 123.59 38.3, 125 38.8 S 128.5 37.12, 130 37.11 S 133.53 38.45, 135 38.72 S 138.5 38.86, 140 38.96 S 143.5 39.34, 145 39.4 S 148.5 39.35, 150 39.34 S 153.5 39.4, 155 39.33 S 158.5 38.87, 160 38.85 S 163.5 39.13, 165 39.19 S 168.5 39.22, 170 39.22 S 173.5 39.16, 175 39.17 S 178.5 39.29, 180 39.26 S 183.5 38.98, 185 38.99 S 188.5 39.28, 190 39.36 S 193.5 39.47, 195 39.5 S 198.5 39.57, 200 39.56 S 203.5 39.46, 205 39.42"
          fill="none"/>
    <circle r="4" cx="5" cy="40" fill="#3023AE"/>
    <circle r="4" cx="205" cy="39.42" fill="#C86DD7"/>      
</svg>