<svg width="200" height="50" viewBox="0 0 210 50" xmlns="http://www.w3.org/2000/svg">
    <defs>
        <linearGradient x1="0%" y1="0%" x2="100%" y2="0%" id="a">
            <stop stop-color="#3023AE" offset="0%"/>
            <stop stop-color="#C86DD7" offset="100%"/>
        </linearGradient>
    </defs>
    <path stroke="url(#a)"
          stroke-width="3"
          stroke-linejoin="round"
          stroke-linecap="round"
          d="M5 40 C 5.78 38.72, 8.68 32.54, 10 31.82 S 13.68 33.83, 15 34.55 S 18.55 36.88, 20 37.27 S 23.5 37.27, 25 37.27 S 28.5 37.27, 30 37.27 S 33.5 37.27, 35 37.27 S 38.5 37.27, 40 37.27 S 43.5 37.27, 45 37.27 S 48.5 37.27, 50 37.27 S 53.5 37.27, 55 37.27 S 58.5 37.27, 60 37.27 S 63.5 37.27, 65 37.27 S 68.5 37.27, 70 37.27 S 73.5 37.27, 75 37.27 S 78.5 37.27, 80 37.27 S 83.5 37.27, 85 37.27 S 88.5 37.27, 90 37.27 S 93.5 37.27, 95 37.27 S 98.5 37.27, 100 37.27 S 103.5 37.27, 105 37.27 S 108.5 37.27, 110 37.27 S 113.5 37.27, 115 37.27 S 118.5 37.27, 120 37.27 S 123.5 37.27, 125 37.27 S 128.68 37.99, 130 37.27 S 133.55 32.21, 135 31.82 S 138.55 34.15, 140 34.55 S 143.55 34.95, 145 34.55 S 148.55 31.43, 150 31.82 S 153.68 36.55, 155 37.27 S 158.5 37.27, 160 37.27 S 163.68 37.99, 165 37.27 S 168.55 32.21, 170 31.82 S 173.55 34.15, 175 34.55 S 179.38 35.91, 180 34.55 S 183.68 13.45, 185 12.73 S 188.55 29.49, 190 29.09 S 193.68 10.72, 195 10 S 199.38 22.28, 200 23.64 S 204.22 30.54, 205 31.82"
          fill="none"/>
    <circle r="4" cx="5" cy="40" fill="#3023AE"/>
    <circle r="4" cx="205" cy="31.82" fill="#C86DD7"/>      
</svg>