<svg width="200" height="50" viewBox="0 0 210 50" xmlns="http://www.w3.org/2000/svg">
    <defs>
        <linearGradient x1="0%" y1="0%" x2="100%" y2="0%" id="a">
            <stop stop-color="#3023AE" offset="0%"/>
            <stop stop-color="#C86DD7" offset="100%"/>
        </linearGradient>
    </defs>
    <path stroke="url(#a)"
          stroke-width="3"
          stroke-linejoin="round"
          stroke-linecap="round"
          d="M5 40 C 5.25 38.52, 9.34 11.35, 10 10 S 14.35 18.12, 15 19.47 S 18.57 30.55, 20 30.99 S 23.5 22.48, 25 22.55 S 28.86 30.5, 30 31.48 S 33.5 31.16, 35 31.19 S 38.5 31.53, 40 31.65 S 43.51 32.12, 45 31.98 S 48.5 30.81, 50 30.74 S 53.5 31.55, 55 31.48 S 58.51 30.46, 60 30.29 S 63.5 30.43, 65 30.37 S 68.5 29.89, 70 29.92 S 73.55 30.97, 75 30.58 S 78.5 27.22, 80 27.24 S 83.53 30.42, 85 30.74 S 88.5 29.46, 90 29.42 S 93.54 30.1, 95 30.45 S 98.5 31.84, 100 31.85 S 103.54 30.82, 105 30.49 S 108.5 29.65, 110 29.63 S 113.5 30.27, 115 30.33 S 118.5 30.08, 120 30 S 123.5 29.72, 125 29.79 S 128.5 30.46, 130 30.49 S 133.53 30.3, 135 30 S 138.64 29.12, 140 28.48 S 143.54 24.97, 145 25.31 S 148.54 31.12, 150 30.78 S 153.76 23.81, 155 22.96 S 158.72 24.74, 160 23.95 S 163.54 17.12, 165 16.79 S 168.81 20.77, 170 21.69 S 173.52 24.23, 175 24.49 S 178.51 23.31, 180 23.46 S 183.52 25.25, 185 25.47 S 188.5 25.02, 190 24.94 S 193.51 25.06, 195 24.94 S 198.51 24.28, 200 24.12 S 203.5 23.94, 205 23.87"
          fill="none"/>
    <circle r="4" cx="5" cy="40" fill="#3023AE"/>
    <circle r="4" cx="205" cy="23.87" fill="#C86DD7"/>      
</svg>