<svg width="200" height="50" viewBox="0 0 210 50" xmlns="http://www.w3.org/2000/svg">
    <defs>
        <linearGradient x1="0%" y1="0%" x2="100%" y2="0%" id="a">
            <stop stop-color="#3023AE" offset="0%"/>
            <stop stop-color="#C86DD7" offset="100%"/>
        </linearGradient>
    </defs>
    <path stroke="url(#a)"
          stroke-width="3"
          stroke-linejoin="round"
          stroke-linecap="round"
          d="M5 40 C 6.1 38.98, 9.53 36.8, 10 35.38 S 14.02 11.13, 15 10 S 19.12 22.63, 20 23.85 S 23.54 23.51, 25 23.85 S 29.02 25.02, 30 26.15 S 33.77 34.53, 35 35.38 S 38.54 33.42, 40 33.08 S 43.64 32.45, 45 33.08 S 48.5 37.69, 50 37.69 S 53.64 33.71, 55 33.08 S 58.64 32.45, 60 33.08 S 63.64 37.06, 65 37.69 S 68.5 37.69, 70 37.69 S 73.5 37.69, 75 37.69 S 78.5 37.69, 80 37.69 S 83.5 37.69, 85 37.69 S 88.5 37.69, 90 37.69 S 93.5 37.69, 95 37.69 S 98.5 37.69, 100 37.69 S 103.5 37.69, 105 37.69 S 108.5 37.69, 110 37.69 S 113.5 37.69, 115 37.69 S 118.5 37.69, 120 37.69 S 123.5 37.69, 125 37.69 S 128.5 37.69, 130 37.69 S 133.5 37.69, 135 37.69 S 138.5 37.69, 140 37.69 S 143.5 37.69, 145 37.69 S 148.5 37.69, 150 37.69 S 153.5 37.69, 155 37.69 S 158.64 38.32, 160 37.69 S 163.77 33.93, 165 33.08 S 168.64 30.14, 170 30.77 S 173.54 37.35, 175 37.69 S 178.5 33.08, 180 33.08 S 183.64 37.06, 185 37.69 S 189.29 39.01, 190 37.69 S 193.9 20.25, 195 19.23 S 199.21 27.18, 200 28.46 S 204.12 34.16, 205 35.38"
          fill="none"/>
    <circle r="4" cx="5" cy="40" fill="#3023AE"/>
    <circle r="4" cx="205" cy="35.38" fill="#C86DD7"/>      
</svg>