<svg width="200" height="50" viewBox="0 0 210 50" xmlns="http://www.w3.org/2000/svg">
    <defs>
        <linearGradient x1="0%" y1="0%" x2="100%" y2="0%" id="a">
            <stop stop-color="#3023AE" offset="0%"/>
            <stop stop-color="#C86DD7" offset="100%"/>
        </linearGradient>
    </defs>
    <path stroke="url(#a)"
          stroke-width="3"
          stroke-linejoin="round"
          stroke-linecap="round"
          d="M5 40 C 6.38 39.42, 8.5 37.97, 10 37.89 S 13.52 39.24, 15 39.47 S 18.5 39.47, 20 39.47 S 23.5 39.47, 25 39.47 S 28.5 39.47, 30 39.47 S 33.5 39.47, 35 39.47 S 38.5 39.47, 40 39.47 S 43.5 39.47, 45 39.47 S 48.5 39.55, 50 39.47 S 53.5 38.95, 55 38.95 S 58.5 39.55, 60 39.47 S 63.5 38.5, 65 38.42 S 68.51 39.11, 70 38.95 S 73.51 37.53, 75 37.37 S 78.51 38.05, 80 37.89 S 83.57 36.77, 85 36.32 S 88.5 34.66, 90 34.74 S 93.53 36.53, 95 36.84 S 98.51 37, 100 36.84 S 103.59 36.31, 105 35.79 S 108.5 33.16, 110 33.16 S 113.53 35.48, 115 35.79 S 118.53 35.57, 120 35.26 S 123.51 33.52, 125 33.68 S 128.51 36.16, 130 36.32 S 133.53 35.05, 135 34.74 S 138.5 34.29, 140 34.21 S 143.55 33.83, 145 34.21 S 148.52 37.07, 150 36.84 S 153.64 33.27, 155 32.63 S 158.53 31.8, 160 32.11 S 163.57 34.29, 165 34.74 S 168.94 36.32, 170 35.26 S 173.57 25.19, 175 24.74 S 178.59 31.59, 180 32.11 S 183.53 28.73, 185 28.42 S 189.23 31.29, 190 30 S 193.94 12.64, 195 11.58 S 198.52 20.23, 200 20 S 204.33 11.34, 205 10"
          fill="none"/>
    <circle r="4" cx="5" cy="40" fill="#3023AE"/>
    <circle r="4" cx="205" cy="10" fill="#C86DD7"/>      
</svg>