<svg width="200" height="50" viewBox="0 0 210 50" xmlns="http://www.w3.org/2000/svg">
    <defs>
        <linearGradient x1="0%" y1="0%" x2="100%" y2="0%" id="a">
            <stop stop-color="#3023AE" offset="0%"/>
            <stop stop-color="#C86DD7" offset="100%"/>
        </linearGradient>
    </defs>
    <path stroke="url(#a)"
          stroke-width="3"
          stroke-linejoin="round"
          stroke-linecap="round"
          d="M5 40 C 6.44 39.6, 8.5 38.7, 10 38.6 S 13.5 39.2, 15 39.3 S 18.5 39.3, 20 39.3 S 23.5 39.3, 25 39.3 S 28.5 39.3, 30 39.3 S 33.5 39.3, 35 39.3 S 38.5 39.3, 40 39.3 S 43.5 39.3, 45 39.3 S 48.5 39.3, 50 39.3 S 53.5 39.3, 55 39.3 S 58.5 39.3, 60 39.3 S 63.5 39.3, 65 39.3 S 68.5 39.3, 70 39.3 S 73.5 39.3, 75 39.3 S 78.5 39.3, 80 39.3 S 83.5 39.3, 85 39.3 S 88.53 39.61, 90 39.3 S 93.56 37.61, 95 37.21 S 98.5 36.51, 100 36.51 S 103.53 36.9, 105 37.21 S 108.53 38.91, 110 38.6 S 113.58 35.61, 115 35.12 S 118.56 34.72, 120 35.12 S 123.58 37.42, 125 37.91 S 128.5 38.7, 130 38.6 S 133.73 38.01, 135 37.21 S 138.56 32.73, 140 32.33 S 143.56 34.02, 145 34.42 S 148.58 35.61, 150 35.12 S 153.53 31.24, 155 30.93 S 158.62 32.44, 160 33.02 S 163.81 36.03, 165 35.12 S 168.85 26.31, 170 25.35 S 173.51 26.53, 175 26.74 S 178.62 26.16, 180 26.74 S 183.69 30.2, 185 30.93 S 189.35 33.68, 190 32.33 S 194.25 11.3, 195 10 S 199.23 13.59, 200 14.88 S 204.42 25.36, 205 26.74"
          fill="none"/>
    <circle r="4" cx="5" cy="40" fill="#3023AE"/>
    <circle r="4" cx="205" cy="26.740000000000002" fill="#C86DD7"/>      
</svg>