<svg width="200" height="50" viewBox="0 0 210 50" xmlns="http://www.w3.org/2000/svg">
    <defs>
        <linearGradient x1="0%" y1="0%" x2="100%" y2="0%" id="a">
            <stop stop-color="#3023AE" offset="0%"/>
            <stop stop-color="#C86DD7" offset="100%"/>
        </linearGradient>
    </defs>
    <path stroke="url(#a)"
          stroke-width="3"
          stroke-linejoin="round"
          stroke-linecap="round"
          d="M5 40 C 6.45 39.62, 8.5 38.8, 10 38.7 S 13.5 39.25, 15 39.35 S 18.5 39.35, 20 39.35 S 23.5 39.35, 25 39.35 S 28.5 39.35, 30 39.35 S 33.5 39.35, 35 39.35 S 38.5 39.35, 40 39.35 S 43.5 39.35, 45 39.35 S 48.5 39.35, 50 39.35 S 53.5 39.35, 55 39.35 S 58.5 39.35, 60 39.35 S 63.5 39.35, 65 39.35 S 68.5 39.35, 70 39.35 S 73.5 39.35, 75 39.35 S 78.5 39.35, 80 39.35 S 83.5 39.35, 85 39.35 S 88.53 39.64, 90 39.35 S 93.55 37.77, 95 37.39 S 98.5 36.74, 100 36.74 S 103.53 37.1, 105 37.39 S 108.55 39.08, 110 38.7 S 113.55 35.16, 115 34.78 S 118.57 35.63, 120 36.09 S 123.53 37.75, 125 38.04 S 128.5 38.04, 130 38.04 S 133.71 38.8, 135 38.04 S 138.55 32.55, 140 32.17 S 143.57 34.97, 145 35.43 S 148.74 36.25, 150 35.43 S 153.5 29.01, 155 28.91 S 158.74 33.96, 160 34.78 S 163.86 36.4, 165 35.43 S 168.86 27.27, 170 26.3 S 173.55 26.58, 175 26.96 S 178.6 28.36, 180 28.91 S 183.67 30.18, 185 30.87 S 189.35 35.48, 190 34.13 S 194.22 11.28, 195 10 S 199.22 16.55, 200 17.83 S 204.24 25.01, 205 26.3"
          fill="none"/>
    <circle r="4" cx="5" cy="40" fill="#3023AE"/>
    <circle r="4" cx="205" cy="26.3" fill="#C86DD7"/>      
</svg>