<svg width="200" height="50" viewBox="0 0 210 50" xmlns="http://www.w3.org/2000/svg">
    <defs>
        <linearGradient x1="0%" y1="0%" x2="100%" y2="0%" id="a">
            <stop stop-color="#3023AE" offset="0%"/>
            <stop stop-color="#C86DD7" offset="100%"/>
        </linearGradient>
    </defs>
    <path stroke="url(#a)"
          stroke-width="3"
          stroke-linejoin="round"
          stroke-linecap="round"
          d="M5 40 C 5.66 38.65, 8.5 29.85, 10 29.81 S 13.93 38.66, 15 39.72 S 18.55 40.09, 20 39.72 S 23.69 37.91, 25 37.17 S 28.51 34.23, 30 34.06 S 33.58 35.56, 35 36.04 S 38.52 37.7, 40 37.45 S 43.5 34.42, 45 34.34 S 48.54 37.22, 50 36.89 S 53.51 32.29, 55 32.08 S 58.51 35.26, 60 35.47 S 63.5 33.49, 65 33.49 S 68.5 35.38, 70 35.47 S 73.95 35.13, 75 34.06 S 78.55 25.65, 80 25.28 S 83.79 30.62, 85 31.51 S 88.5 32.73, 90 32.64 S 93.5 31.02, 95 30.94 S 98.51 31.95, 100 32.08 S 103.51 31.66, 105 31.79 S 108.52 32.67, 110 32.92 S 113.62 34.08, 115 33.49 S 118.56 29.09, 120 28.68 S 123.51 30.53, 125 30.66 S 128.5 29.44, 130 29.53 S 133.65 30.58, 135 31.23 S 138.51 34.21, 140 34.34 S 143.53 32.37, 145 32.08 S 148.51 32.19, 150 32.36 S 153.5 33.25, 155 33.21 S 158.66 32.76, 160 32.08 S 163.54 28.44, 165 28.11 S 168.74 28.99, 170 29.81 S 173.53 34.33, 175 34.62 S 178.51 31.96, 180 31.79 S 183.58 33.01, 185 33.49 S 189.41 36.57, 190 35.19 S 194.27 11.31, 195 10 S 198.66 16.68, 200 17.36 S 203.63 15.71, 205 15.09"
          fill="none"/>
    <circle r="4" cx="5" cy="40" fill="#3023AE"/>
    <circle r="4" cx="205" cy="15.09" fill="#C86DD7"/>      
</svg>