<svg width="200" height="50" viewBox="0 0 210 50" xmlns="http://www.w3.org/2000/svg">
    <defs>
        <linearGradient x1="0%" y1="0%" x2="100%" y2="0%" id="a">
            <stop stop-color="#3023AE" offset="0%"/>
            <stop stop-color="#C86DD7" offset="100%"/>
        </linearGradient>
    </defs>
    <path stroke="url(#a)"
          stroke-width="3"
          stroke-linejoin="round"
          stroke-linecap="round"
          d="M5 40 C 6.12 39.01, 9.53 37.01, 10 35.59 S 13.61 9.43, 15 10 S 19.53 38.25, 20 39.67 S 23.5 39.92, 25 39.96 S 28.67 40.66, 30 39.96 S 33.65 35.33, 35 34.67 S 38.52 34.81, 40 35.05 S 43.51 36.13, 45 36.3 S 48.5 36.25, 50 36.21 S 53.88 37.05, 55 36.05 S 58.56 27.63, 60 27.23 S 63.63 32.65, 65 33.26 S 68.5 31.59, 70 31.68 S 73.57 33.4, 75 33.84 S 78.51 34.64, 80 34.76 S 83.5 34.6, 85 34.67 S 88.5 35.3, 90 35.26 S 93.52 34.68, 95 34.42 S 98.5 33.5, 100 33.51 S 103.5 34.54, 105 34.51 S 108.5 33.24, 110 33.3 S 113.51 34.73, 115 34.92 S 118.59 35.06, 120 34.55 S 123.5 31.35, 125 31.3 S 128.53 33.93, 130 34.22 S 133.5 33.38, 135 33.3 S 138.52 33.44, 140 33.68 S 143.52 34.66, 145 34.92 S 148.5 35.49, 150 35.46 S 153.51 34.92, 155 34.72 S 158.5 34.07, 160 34.09 S 163.51 35.06, 165 34.88 S 168.52 33.15, 170 32.88 S 173.5 32.98, 175 33.05 S 178.5 33.24, 180 33.34 S 183.51 33.85, 185 33.72 S 188.51 32.62, 190 32.47 S 193.51 32.84, 195 32.72 S 198.5 31.58, 200 31.64 S 203.56 32.67, 205 33.09"
          fill="none"/>
    <circle r="4" cx="5" cy="40" fill="#3023AE"/>
    <circle r="4" cx="205" cy="33.09" fill="#C86DD7"/>      
</svg>