<svg width="200" height="50" viewBox="0 0 210 50" xmlns="http://www.w3.org/2000/svg">
    <defs>
        <linearGradient x1="0%" y1="0%" x2="100%" y2="0%" id="a">
            <stop stop-color="#3023AE" offset="0%"/>
            <stop stop-color="#C86DD7" offset="100%"/>
        </linearGradient>
    </defs>
    <path stroke="url(#a)"
          stroke-width="3"
          stroke-linejoin="round"
          stroke-linecap="round"
          d="M5 40 C 6.34 39.32, 8.5 37.55, 10 37.45 S 13.53 39.08, 15 39.36 S 18.5 39.36, 20 39.36 S 23.5 39.36, 25 39.36 S 28.5 39.36, 30 39.36 S 33.5 39.36, 35 39.36 S 38.5 39.36, 40 39.36 S 43.5 39.36, 45 39.36 S 48.5 39.36, 50 39.36 S 53.5 39.46, 55 39.36 S 58.5 38.72, 60 38.72 S 63.5 39.26, 65 39.36 S 68.5 39.46, 70 39.36 S 73.66 39.4, 75 38.72 S 78.85 35.22, 80 34.26 S 83.5 30.34, 85 30.43 S 88.63 34.28, 90 34.89 S 93.5 34.89, 95 34.89 S 98.5 34.79, 100 34.89 S 103.51 35.72, 105 35.53 S 108.53 33.9, 110 33.62 S 113.5 33.62, 115 33.62 S 118.53 33.9, 120 33.62 S 123.55 31.33, 125 31.7 S 128.66 35.49, 130 36.17 S 133.63 37.42, 135 36.81 S 138.57 32.16, 140 31.7 S 143.57 33.16, 145 33.62 S 148.51 34.7, 150 34.89 S 153.57 35.35, 155 34.89 S 158.7 32.45, 160 31.7 S 163.77 30.01, 165 29.15 S 168.77 25.54, 170 24.68 S 173.7 22.88, 175 22.13 S 178.85 17.98, 180 18.94 S 183.95 29.36, 185 30.43 S 189.34 30.5, 190 29.15 S 194.23 11.28, 195 10 S 198.57 12.09, 200 12.55 S 203.51 13, 205 13.19"
          fill="none"/>
    <circle r="4" cx="5" cy="40" fill="#3023AE"/>
    <circle r="4" cx="205" cy="13.190000000000001" fill="#C86DD7"/>      
</svg>