<svg width="200" height="50" viewBox="0 0 210 50" xmlns="http://www.w3.org/2000/svg">
    <defs>
        <linearGradient x1="0%" y1="0%" x2="100%" y2="0%" id="a">
            <stop stop-color="#3023AE" offset="0%"/>
            <stop stop-color="#C86DD7" offset="100%"/>
        </linearGradient>
    </defs>
    <path stroke="url(#a)"
          stroke-width="3"
          stroke-linejoin="round"
          stroke-linecap="round"
          d="M5 40 C 5.41 38.56, 9.53 23.77, 10 22.35 S 13.77 9.13, 15 10 S 19.44 28.02, 20 29.41 S 23.77 33.84, 25 34.71 S 28.52 36.21, 30 36.47 S 34.2 37.74, 35 36.47 S 38.59 21.09, 40 20.59 S 43.52 33.2, 45 32.94 S 49.06 19.99, 50 18.82 S 53.67 19.89, 55 20.59 S 59.2 22.85, 60 24.12 S 63.67 35.77, 65 36.47 S 68.67 30.11, 70 29.41 S 73.67 30.48, 75 31.18 S 78.52 34.45, 80 34.71 S 84.06 34.11, 85 32.94 S 88.59 21.85, 90 22.35 S 93.88 35.48, 95 36.47 S 98.52 30.92, 100 31.18 S 103.59 38.74, 105 38.24 S 108.88 28.64, 110 27.65 S 113.59 28.91, 115 29.41 S 118.52 31.44, 120 31.18 S 123.5 27.65, 125 27.65 S 128.52 31.44, 130 31.18 S 133.77 25.01, 135 25.88 S 138.77 37.37, 140 38.24 S 143.97 34.03, 145 32.94 S 148.5 27.65, 150 27.65 S 153.52 32.68, 155 32.94 S 159.13 30.63, 160 29.41 S 163.67 18.12, 165 18.82 S 169.31 33.38, 170 34.71 S 173.52 37.98, 175 38.24 S 178.52 36.73, 180 36.47 S 183.59 36.97, 185 36.47 S 188.88 33.93, 190 32.94 S 193.59 27.15, 195 27.65 S 198.77 35.6, 200 36.47 S 203.59 35.21, 205 34.71"
          fill="none"/>
    <circle r="4" cx="5" cy="40" fill="#3023AE"/>
    <circle r="4" cx="205" cy="34.71" fill="#C86DD7"/>      
</svg>