<svg width="200" height="50" viewBox="0 0 210 50" xmlns="http://www.w3.org/2000/svg">
    <defs>
        <linearGradient x1="0%" y1="0%" x2="100%" y2="0%" id="a">
            <stop stop-color="#3023AE" offset="0%"/>
            <stop stop-color="#C86DD7" offset="100%"/>
        </linearGradient>
    </defs>
    <path stroke="url(#a)"
          stroke-width="3"
          stroke-linejoin="round"
          stroke-linecap="round"
          d="M5 40 C 5.28 38.53, 9.53 14.99, 10 13.57 S 14.08 8.82, 15 10 S 19.22 25.15, 20 26.43 S 23.52 26.22, 25 26.43 S 28.59 27.36, 30 27.86 S 33.5 29.89, 35 30 S 38.53 28.88, 40 28.57 S 43.5 27.86, 45 27.86 S 48.53 28.26, 50 28.57 S 53.52 30.21, 55 30 S 58.59 26.64, 60 27.14 S 63.62 32.98, 65 33.57 S 68.53 31.74, 70 31.43 S 73.52 31.22, 75 31.43 S 78.5 32.86, 80 32.86 S 83.56 31.84, 85 31.43 S 88.5 29.89, 90 30 S 93.82 31.21, 95 32.14 S 98.53 37.54, 100 37.86 S 104.05 35.45, 105 34.29 S 108.82 26.64, 110 25.71 S 113.78 25.56, 115 26.43 S 118.52 32.65, 120 32.86 S 123.7 28.6, 125 27.86 S 128.7 27.88, 130 27.14 S 133.66 21.47, 135 22.14 S 138.7 31.4, 140 32.14 S 143.5 27.97, 145 27.86 S 148.74 30.62, 150 31.43 S 153.53 34.6, 155 34.29 S 158.98 30.39, 160 29.29 S 163.66 24.24, 165 23.57 S 168.86 23.31, 170 24.29 S 173.9 31.12, 175 32.14 S 178.62 34.16, 180 33.57 S 183.52 28.07, 185 27.86 S 188.78 33.01, 190 32.14 S 193.53 21.02, 195 20.71 S 198.53 29.68, 200 30 S 204.14 24.09, 205 22.86"
          fill="none"/>
    <circle r="4" cx="5" cy="40" fill="#3023AE"/>
    <circle r="4" cx="205" cy="22.86" fill="#C86DD7"/>      
</svg>