<svg width="200" height="50" viewBox="0 0 210 50" xmlns="http://www.w3.org/2000/svg">
    <defs>
        <linearGradient x1="0%" y1="0%" x2="100%" y2="0%" id="a">
            <stop stop-color="#3023AE" offset="0%"/>
            <stop stop-color="#C86DD7" offset="100%"/>
        </linearGradient>
    </defs>
    <path stroke="url(#a)"
          stroke-width="3"
          stroke-linejoin="round"
          stroke-linecap="round"
          d="M5 40 C 6.47 39.71, 9.4 40.38, 10 39 S 14.38 18.37, 15 17 S 19.04 15.85, 20 17 S 24.04 27.85, 25 29 S 28.56 29.43, 30 29 S 33.71 25.23, 35 26 S 38.83 34.06, 40 35 S 43.66 34.67, 45 34 S 48.5 30, 50 30 S 53.53 34.29, 55 34 S 58.56 28.43, 60 28 S 63.61 30.44, 65 31 S 68.61 32.56, 70 32 S 73.71 26.23, 75 27 S 78.53 37.71, 80 38 S 83.53 29.29, 85 29 S 88.51 35.85, 90 36 S 93.61 30.56, 95 30 S 98.66 31.33, 100 32 S 103.5 35, 105 35 S 108.61 32.56, 110 32 S 113.71 31.77, 115 31 S 118.53 25.71, 120 26 S 123.83 32.06, 125 33 S 128.53 34.29, 130 34 S 133.99 32.11, 135 31 S 138.61 22.44, 140 23 S 143.94 33.94, 145 35 S 148.61 33.56, 150 33 S 153.71 31.77, 155 31 S 158.66 27.67, 160 27 S 164.17 27.25, 165 26 S 168.51 12.15, 170 12 S 174.09 23.81, 175 25 S 178.61 25.56, 180 25 S 183.53 20.71, 185 21 S 188.99 28.11, 190 27 S 193.71 9.23, 195 10 S 199.17 31.75, 200 33 S 204.21 26.27, 205 25"
          fill="none"/>
    <circle r="4" cx="5" cy="40" fill="#3023AE"/>
    <circle r="4" cx="205" cy="25" fill="#C86DD7"/>      
</svg>