<svg width="200" height="50" viewBox="0 0 210 50" xmlns="http://www.w3.org/2000/svg">
    <defs>
        <linearGradient x1="0%" y1="0%" x2="100%" y2="0%" id="a">
            <stop stop-color="#3023AE" offset="0%"/>
            <stop stop-color="#C86DD7" offset="100%"/>
        </linearGradient>
    </defs>
    <path stroke="url(#a)"
          stroke-width="3"
          stroke-linejoin="round"
          stroke-linecap="round"
          d="M5 40 C 6.5 39.92, 8.74 40.55, 10 39.74 S 13.55 33.9, 15 33.53 S 18.5 37.08, 20 37.16 S 23.8 34.95, 25 34.05 S 28.96 30.74, 30 29.66 S 33.54 23.37, 35 23.71 S 38.86 31.01, 40 31.98 S 43.53 32.54, 45 32.24 S 48.5 30.03, 50 29.91 S 53.59 30.96, 55 31.47 S 58.52 33.8, 60 33.53 S 63.5 29.7, 65 29.66 S 68.57 32.84, 70 33.28 S 73.61 33.33, 75 32.76 S 78.51 28.99, 80 29.14 S 83.52 33.52, 85 33.79 S 88.56 31.36, 90 30.95 S 93.57 31.4, 95 30.95 S 98.51 27.65, 100 27.84 S 103.7 31.5, 105 32.24 S 108.55 33.15, 110 33.53 S 113.52 35.06, 115 34.83 S 118.53 32.28, 120 31.98 S 123.54 32.42, 125 32.76 S 128.51 34.47, 130 34.31 S 133.7 32.46, 135 31.72 S 138.58 29.1, 140 28.62 S 143.56 28.77, 145 28.36 S 148.81 26.7, 150 25.78 S 153.8 21.5, 155 20.6 S 158.73 19.07, 160 18.28 S 163.55 14.78, 165 14.4 S 168.63 16.29, 170 15.69 S 173.61 9.43, 175 10 S 178.74 19.02, 180 19.83 S 183.9 17.49, 185 16.47 S 188.68 11.24, 190 10.52 S 193.5 10.95, 195 11.03 S 198.5 10.91, 200 11.03 S 203.52 11.58, 205 11.81"
          fill="none"/>
    <circle r="4" cx="5" cy="40" fill="#3023AE"/>
    <circle r="4" cx="205" cy="11.809999999999999" fill="#C86DD7"/>      
</svg>