<svg width="200" height="50" viewBox="0 0 210 50" xmlns="http://www.w3.org/2000/svg">
    <defs>
        <linearGradient x1="0%" y1="0%" x2="100%" y2="0%" id="a">
            <stop stop-color="#3023AE" offset="0%"/>
            <stop stop-color="#C86DD7" offset="100%"/>
        </linearGradient>
    </defs>
    <path stroke="url(#a)"
          stroke-width="3"
          stroke-linejoin="round"
          stroke-linecap="round"
          d="M5 40 C 6.45 39.63, 8.51 38.87, 10 38.72 S 13.51 38.86, 15 39 S 18.5 39.65, 20 39.64 S 23.5 39, 25 38.93 S 28.5 39.26, 30 39.14 S 33.5 38.14, 35 38.15 S 38.5 39.23, 40 39.22 S 43.5 38.08, 45 38.08 S 48.81 40.13, 50 39.22 S 53.61 31.02, 55 30.45 S 58.5 35.14, 60 35.08 S 64.22 31.3, 65 30.02 S 69.27 20.07, 70 18.76 S 73.62 11.33, 75 11.92 S 78.57 22.59, 80 23.04 S 84.09 16.25, 85 15.06 S 88.58 9.51, 90 10 S 93.58 18.06, 95 18.55 S 98.51 13.24, 100 13.42 S 103.57 19.31, 105 19.76 S 108.5 16.55, 110 16.56 S 113.59 20.34, 115 19.83 S 118.63 13.53, 120 12.92 S 123.85 14.37, 125 15.34 S 129.04 20.18, 130 21.33 S 134 26.2, 135 27.32 S 138.77 31.66, 140 32.52 S 143.51 34.24, 145 34.37 S 148.5 33.33, 150 33.37 S 153.6 34.13, 155 34.66 S 158.52 36.92, 160 37.15 S 163.5 36.24, 165 36.22 S 168.51 36.83, 170 37.01 S 173.5 37.33, 175 37.43 S 178.5 37.61, 180 37.65 S 183.5 37.65, 185 37.72 S 188.52 37.92, 190 38.15 S 193.52 39.07, 195 39.29 S 198.5 39.62, 200 39.64 S 203.5 39.49, 205 39.43"
          fill="none"/>
    <circle r="4" cx="5" cy="40" fill="#3023AE"/>
    <circle r="4" cx="205" cy="39.43" fill="#C86DD7"/>      
</svg>