<svg width="200" height="50" viewBox="0 0 210 50" xmlns="http://www.w3.org/2000/svg">
    <defs>
        <linearGradient x1="0%" y1="0%" x2="100%" y2="0%" id="a">
            <stop stop-color="#3023AE" offset="0%"/>
            <stop stop-color="#C86DD7" offset="100%"/>
        </linearGradient>
    </defs>
    <path stroke="url(#a)"
          stroke-width="3"
          stroke-linejoin="round"
          stroke-linecap="round"
          d="M5 40 C 6.32 39.29, 8.53 37.6, 10 37.3 S 13.5 37.91, 15 37.96 S 18.5 37.68, 20 37.63 S 23.5 37.72, 25 37.63 S 28.55 37.44, 30 37.06 S 33.54 35.36, 35 35.01 S 38.5 34.75, 40 34.69 S 43.52 34.85, 45 34.6 S 48.5 32.91, 50 32.97 S 53.69 35.75, 55 35.01 S 58.65 27.98, 60 27.33 S 63.64 29.57, 65 30.19 S 68.51 31.78, 70 31.91 S 73.5 31.05, 75 31.09 S 78.62 32.73, 80 32.15 S 83.57 27.36, 85 26.92 S 88.6 28.5, 90 29.05 S 93.51 30.71, 95 30.84 S 98.5 29.89, 100 29.95 S 103.5 31.36, 105 31.25 S 108.67 29.9, 110 29.21 S 113.62 26.7, 115 26.1 S 118.5 24.97, 120 24.88 S 123.51 25.72, 125 25.53 S 128.51 23.38, 130 23.57 S 133.5 26.79, 135 26.84 S 138.5 23.83, 140 23.9 S 143.55 26.95, 145 27.33 S 148.65 27.17, 150 26.51 S 153.6 22.97, 155 22.43 S 158.58 23.16, 160 22.67 S 163.52 19.24, 165 18.99 S 168.51 20.74, 170 20.95 S 173.5 20.39, 175 20.38 S 178.54 20.51, 180 20.87 S 183.77 23.69, 185 22.83 S 188.62 14.5, 190 13.92 S 193.52 18.43, 195 18.66 S 198.87 16.46, 200 15.48 S 203.99 11.11, 205 10"
          fill="none"/>
    <circle r="4" cx="5" cy="40" fill="#3023AE"/>
    <circle r="4" cx="205" cy="10" fill="#C86DD7"/>      
</svg>