<svg width="200" height="50" viewBox="0 0 210 50" xmlns="http://www.w3.org/2000/svg">
    <defs>
        <linearGradient x1="0%" y1="0%" x2="100%" y2="0%" id="a">
            <stop stop-color="#3023AE" offset="0%"/>
            <stop stop-color="#C86DD7" offset="100%"/>
        </linearGradient>
    </defs>
    <path stroke="url(#a)"
          stroke-width="3"
          stroke-linejoin="round"
          stroke-linecap="round"
          d="M5 40 C 6.48 39.77, 8.5 39.24, 10 39.23 S 13.5 39.83, 15 39.92 S 18.73 40.65, 20 39.86 S 23.58 34.19, 25 33.69 S 28.58 35.88, 30 36.35 S 33.5 36.87, 35 36.98 S 38.51 36.95, 40 37.09 S 43.5 37.82, 45 37.92 S 49.26 39.06, 50 37.76 S 53.62 20.91, 55 20.32 S 59.15 32.29, 60 33.52 S 63.5 34.76, 65 34.8 S 68.5 33.9, 70 33.8 S 73.55 33.76, 75 34.16 S 78.51 36.43, 80 36.57 S 83.51 35.33, 85 35.13 S 88.5 35.21, 90 35.21 S 93.5 35.15, 95 35.13 S 98.57 35.52, 100 35.07 S 103.51 32.1, 105 31.97 S 108.51 34.05, 110 34.22 S 113.55 32.71, 115 33.08 S 119.4 38.17, 120 36.79 S 123.64 10.63, 125 10 S 129.33 30.83, 130 32.17 S 133.5 29.87, 135 29.93 S 138.58 32.07, 140 32.56 S 143.54 33.05, 145 33.39 S 148.5 34.81, 150 34.91 S 153.5 34.07, 155 34.08 S 158.5 34.91, 160 34.96 S 163.5 34.52, 165 34.44 S 168.51 34.58, 170 34.41 S 173.5 33.41, 175 33.33 S 178.53 33.59, 180 33.88 S 183.53 34.97, 185 35.27 S 188.5 35.91, 190 35.93 S 193.5 35.35, 195 35.41 S 198.5 36.27, 200 36.32 S 203.51 35.91, 205 35.74"
          fill="none"/>
    <circle r="4" cx="5" cy="40" fill="#3023AE"/>
    <circle r="4" cx="205" cy="35.74" fill="#C86DD7"/>      
</svg>