<svg width="200" height="50" viewBox="0 0 210 50" xmlns="http://www.w3.org/2000/svg">
    <defs>
        <linearGradient x1="0%" y1="0%" x2="100%" y2="0%" id="a">
            <stop stop-color="#3023AE" offset="0%"/>
            <stop stop-color="#C86DD7" offset="100%"/>
        </linearGradient>
    </defs>
    <path stroke="url(#a)"
          stroke-width="3"
          stroke-linejoin="round"
          stroke-linecap="round"
          d="M5 40 C 6.48 39.75, 8.51 39.36, 10 39.15 S 13.5 38.71, 15 38.59 S 18.5 38.32, 20 38.36 S 23.5 38.79, 25 38.88 S 28.5 38.87, 30 38.93 S 33.5 39.28, 35 39.29 S 38.5 39.06, 40 38.98 S 43.5 38.77, 45 38.75 S 48.5 38.81, 50 38.85 S 53.5 39.01, 55 39.01 S 58.5 38.83, 60 38.83 S 63.5 39.06, 65 39.03 S 68.5 38.68, 70 38.6 S 73.7 39.28, 75 38.52 S 78.77 33.62, 80 32.77 S 83.61 32.17, 85 31.61 S 88.55 29.12, 90 28.74 S 93.5 29.08, 95 29.01 S 98.5 28.36, 100 28.26 S 103.54 28.71, 105 28.37 S 108.66 26.59, 110 25.92 S 113.5 23.47, 115 23.36 S 118.58 25.63, 120 25.16 S 123.5 20.08, 125 20.03 S 128.57 24.35, 130 24.81 S 133.52 23, 135 23.23 S 138.52 26.59, 140 26.34 S 143.6 22.06, 145 21.52 S 148.52 22.27, 150 22.51 S 153.5 23.05, 155 23.15 S 159.09 24.38, 160 23.19 S 163.55 10.39, 165 10 S 169.07 19.3, 170 20.48 S 173.5 22.66, 175 22.75 S 178.54 21.4, 180 21.07 S 183.53 20.82, 185 20.53 S 188.51 19.28, 190 19.1 S 193.78 18.48, 195 19.35 S 198.62 25.7, 200 26.28 S 203.69 24.24, 205 23.52"
          fill="none"/>
    <circle r="4" cx="5" cy="40" fill="#3023AE"/>
    <circle r="4" cx="205" cy="23.52" fill="#C86DD7"/>      
</svg>