<svg width="200" height="50" viewBox="0 0 210 50" xmlns="http://www.w3.org/2000/svg">
    <defs>
        <linearGradient x1="0%" y1="0%" x2="100%" y2="0%" id="a">
            <stop stop-color="#3023AE" offset="0%"/>
            <stop stop-color="#C86DD7" offset="100%"/>
        </linearGradient>
    </defs>
    <path stroke="url(#a)"
          stroke-width="3"
          stroke-linejoin="round"
          stroke-linecap="round"
          d="M5 40 C 6.27 39.2, 8.54 37.19, 10 36.84 S 13.5 37.51, 15 37.63 S 18.52 37.4, 20 37.63 S 23.52 38.98, 25 39.21 S 28.52 39.44, 30 39.21 S 33.5 37.75, 35 37.63 S 38.52 38.19, 40 38.42 S 43.5 39.09, 45 39.21 S 48.52 39.44, 50 39.21 S 53.5 37.63, 55 37.63 S 58.5 39.21, 60 39.21 S 63.54 37.98, 65 37.63 S 68.91 37.87, 70 36.84 S 73.52 27.93, 75 28.16 S 78.91 37.39, 80 38.42 S 83.64 38.27, 85 37.63 S 88.54 34.03, 90 33.68 S 93.95 36.33, 95 35.26 S 98.82 24.35, 100 23.42 S 103.64 28.01, 105 27.37 S 108.54 19.03, 110 18.68 S 113.57 25.45, 115 25 S 118.6 16.08, 120 15.53 S 123.78 20.18, 125 21.05 S 128.54 22.28, 130 22.63 S 133.95 24.49, 135 23.42 S 138.52 12.6, 140 12.37 S 144.23 20.56, 145 21.84 S 149.03 30.1, 150 28.95 S 153.82 10.93, 155 10 S 159.03 19.9, 160 21.05 S 163.73 21.04, 165 21.84 S 168.57 26.92, 170 27.37 S 173.57 25.45, 175 25 S 178.54 23.86, 180 24.21 S 183.52 27.6, 185 27.37 S 189.25 23.93, 190 22.63 S 193.5 9.88, 195 10 S 198.82 22.49, 200 23.42 S 203.99 19, 205 17.89"
          fill="none"/>
    <circle r="4" cx="5" cy="40" fill="#3023AE"/>
    <circle r="4" cx="205" cy="17.89" fill="#C86DD7"/>      
</svg>