<svg width="200" height="50" viewBox="0 0 210 50" xmlns="http://www.w3.org/2000/svg">
    <defs>
        <linearGradient x1="0%" y1="0%" x2="100%" y2="0%" id="a">
            <stop stop-color="#3023AE" offset="0%"/>
            <stop stop-color="#C86DD7" offset="100%"/>
        </linearGradient>
    </defs>
    <path stroke="url(#a)"
          stroke-width="3"
          stroke-linejoin="round"
          stroke-linecap="round"
          d="M5 40 C 5.25 38.52, 8.5 10.11, 10 10 S 14.52 37.87, 15 39.29 S 18.5 39.29, 20 39.29 S 23.5 39.29, 25 39.29 S 28.5 39.29, 30 39.29 S 33.5 39.29, 35 39.29 S 38.5 39.29, 40 39.29 S 43.5 39.4, 45 39.29 S 48.74 39.38, 50 38.57 S 53.52 33.07, 55 32.86 S 58.53 36.83, 60 37.14 S 63.5 35.11, 65 35 S 68.56 36.02, 70 36.43 S 73.56 37.45, 75 37.86 S 78.56 39.7, 80 39.29 S 83.53 35.32, 85 35 S 88.56 36.73, 90 37.14 S 93.52 38.07, 95 37.86 S 98.52 35.92, 100 35.71 S 103.59 36.93, 105 36.43 S 108.5 32.03, 110 32.14 S 113.74 36.33, 115 37.14 S 118.5 38.68, 120 38.57 S 123.52 36.64, 125 36.43 S 128.5 37.14, 130 37.14 S 133.52 36.22, 135 36.43 S 138.52 38.78, 140 38.57 S 143.56 35.41, 145 35 S 148.5 35.82, 150 35.71 S 153.52 34.08, 155 34.29 S 158.5 37.25, 160 37.14 S 163.5 33.68, 165 33.57 S 168.62 35.84, 170 36.43 S 173.56 38.27, 175 37.86 S 178.5 33.46, 180 33.57 S 183.7 37.83, 185 38.57 S 188.5 39.4, 190 39.29 S 193.5 37.86, 195 37.86 S 198.52 39.5, 200 39.29 S 203.7 37.17, 205 36.43"
          fill="none"/>
    <circle r="4" cx="5" cy="40" fill="#3023AE"/>
    <circle r="4" cx="205" cy="36.43" fill="#C86DD7"/>      
</svg>