<svg width="200" height="50" viewBox="0 0 210 50" xmlns="http://www.w3.org/2000/svg">
    <defs>
        <linearGradient x1="0%" y1="0%" x2="100%" y2="0%" id="a">
            <stop stop-color="#3023AE" offset="0%"/>
            <stop stop-color="#C86DD7" offset="100%"/>
        </linearGradient>
    </defs>
    <path stroke="url(#a)"
          stroke-width="3"
          stroke-linejoin="round"
          stroke-linecap="round"
          d="M5 40 C 5.25 38.52, 9.27 11.31, 10 10 S 14.42 20.62, 15 22 S 19.04 32.85, 20 34 S 23.71 34.77, 25 34 S 28.71 28.77, 30 28 S 33.5 28, 35 28 S 38.5 28, 40 28 S 44.04 29.15, 45 28 S 48.71 15.23, 50 16 S 53.71 33.23, 55 34 S 58.5 22, 60 22 S 64.04 32.85, 65 34 S 68.5 34, 70 34 S 73.71 34.77, 75 34 S 78.5 28, 80 28 S 83.5 34, 85 34 S 88.5 28, 90 28 S 93.5 34, 95 34 S 98.5 28, 100 28 S 103.71 33.23, 105 34 S 108.5 34, 110 34 S 113.5 34, 115 34 S 118.5 34, 120 34 S 123.5 34, 125 34 S 129.04 35.15, 130 34 S 133.5 22, 135 22 S 139.04 32.85, 140 34 S 143.5 34, 145 34 S 148.5 34, 150 34 S 153.5 34, 155 34 S 158.5 34, 160 34 S 163.5 34, 165 34 S 168.5 34, 170 34 S 173.71 34.77, 175 34 S 179.04 29.15, 180 28 S 183.71 21.23, 185 22 S 188.71 34.77, 190 34 S 193.5 16, 195 16 S 199.04 32.85, 200 34 S 204.04 29.15, 205 28"
          fill="none"/>
    <circle r="4" cx="5" cy="40" fill="#3023AE"/>
    <circle r="4" cx="205" cy="28" fill="#C86DD7"/>      
</svg>