<svg width="200" height="50" viewBox="0 0 210 50" xmlns="http://www.w3.org/2000/svg">
    <defs>
        <linearGradient x1="0%" y1="0%" x2="100%" y2="0%" id="a">
            <stop stop-color="#3023AE" offset="0%"/>
            <stop stop-color="#C86DD7" offset="100%"/>
        </linearGradient>
    </defs>
    <path stroke="url(#a)"
          stroke-width="3"
          stroke-linejoin="round"
          stroke-linecap="round"
          d="M5 40 C 5.25 38.52, 8.71 11.69, 10 10.92 S 14.48 32.59, 15 34 S 18.51 37.94, 20 38.15 S 23.71 36.15, 25 35.38 S 28.5 32.08, 30 32.15 S 33.62 35.27, 35 35.85 S 38.5 36.38, 40 36.31 S 43.62 35.96, 45 35.38 S 48.57 32.61, 50 32.15 S 53.51 32.01, 55 32.15 S 58.59 33.6, 60 33.08 S 63.71 29.23, 65 28.46 S 68.51 27.22, 70 27.08 S 73.82 26.61, 75 27.54 S 78.55 34.52, 80 34.92 S 83.74 31.12, 85 30.31 S 88.74 29.27, 90 28.46 S 94.29 25.17, 95 23.85 S 98.59 10.52, 100 10 S 104.19 18.89, 105 20.15 S 108.9 24.67, 110 25.69 S 113.74 28.57, 115 29.38 S 118.51 32.01, 120 32.15 S 123.61 30.88, 125 30.31 S 128.53 28.27, 130 28 S 133.5 28.46, 135 28.46 S 138.5 28.07, 140 28 S 143.74 27.19, 145 28 S 148.69 33.73, 150 34.46 S 153.59 34.06, 155 33.54 S 158.54 30.43, 160 30.77 S 163.55 35.45, 165 35.85 S 168.55 33.94, 170 33.54 S 173.53 33.35, 175 33.08 S 178.5 31.62, 180 31.69 S 183.54 33.2, 185 33.54 S 188.5 34.07, 190 34 S 193.59 33.6, 195 33.08 S 198.77 31.16, 200 30.31 S 203.85 27.11, 205 26.15"
          fill="none"/>
    <circle r="4" cx="5" cy="40" fill="#3023AE"/>
    <circle r="4" cx="205" cy="26.15" fill="#C86DD7"/>      
</svg>