<svg width="200" height="50" viewBox="0 0 210 50" xmlns="http://www.w3.org/2000/svg">
    <defs>
        <linearGradient x1="0%" y1="0%" x2="100%" y2="0%" id="a">
            <stop stop-color="#3023AE" offset="0%"/>
            <stop stop-color="#C86DD7" offset="100%"/>
        </linearGradient>
    </defs>
    <path stroke="url(#a)"
          stroke-width="3"
          stroke-linejoin="round"
          stroke-linecap="round"
          d="M5 40 C 5.3 38.53, 9.53 17.13, 10 15.71 S 14.43 8.61, 15 10 S 19.53 38.54, 20 39.96 S 23.5 39.96, 25 39.96 S 28.84 40.91, 30 39.96 S 33.5 31.9, 35 31.81 S 38.81 38.41, 40 39.33 S 43.5 39.52, 45 39.57 S 48.51 39.86, 50 39.65 S 53.77 39.05, 55 38.19 S 58.62 33.28, 60 32.68 S 63.52 33.62, 65 33.86 S 68.53 33.98, 70 34.29 S 73.5 35.97, 75 35.98 S 78.53 34.64, 80 34.33 S 83.5 33.83, 85 33.9 S 88.54 34.46, 90 34.8 S 93.51 36.07, 95 36.26 S 98.5 36.12, 100 36.1 S 103.5 36.03, 105 36.1 S 108.5 36.58, 110 36.54 S 113.62 36.41, 115 35.83 S 118.67 33.01, 120 32.32 S 123.5 30.7, 125 30.67 S 128.51 31.91, 130 32.09 S 133.5 31.85, 135 31.89 S 138.52 32.62, 140 32.36 S 143.5 30.12, 145 30.16 S 148.5 32.59, 150 32.6 S 153.51 30.42, 155 30.24 S 158.53 31.1, 160 31.42 S 163.5 32.28, 165 32.4 S 168.62 32.8, 170 32.2 S 173.54 28.39, 175 28.07 S 178.5 29.96, 180 30 S 183.52 28.53, 185 28.31 S 188.52 28.78, 190 28.54 S 193.54 27.05, 195 26.69 S 198.52 26.3, 200 26.06 S 203.53 25.34, 205 25.04"
          fill="none"/>
    <circle r="4" cx="5" cy="40" fill="#3023AE"/>
    <circle r="4" cx="205" cy="25.04" fill="#C86DD7"/>      
</svg>