<svg width="200" height="50" viewBox="0 0 210 50" xmlns="http://www.w3.org/2000/svg">
    <defs>
        <linearGradient x1="0%" y1="0%" x2="100%" y2="0%" id="a">
            <stop stop-color="#3023AE" offset="0%"/>
            <stop stop-color="#C86DD7" offset="100%"/>
        </linearGradient>
    </defs>
    <path stroke="url(#a)"
          stroke-width="3"
          stroke-linejoin="round"
          stroke-linecap="round"
          d="M5 40 C 5.25 38.52, 8.5 10.08, 10 10 S 14.52 38.05, 15 39.47 S 18.5 39.47, 20 39.47 S 23.5 39.43, 25 39.47 S 28.5 39.69, 30 39.73 S 33.5 39.73, 35 39.73 S 38.5 39.73, 40 39.73 S 43.5 39.73, 45 39.73 S 48.5 39.73, 50 39.73 S 53.5 39.73, 55 39.73 S 58.5 39.73, 60 39.73 S 63.5 39.73, 65 39.73 S 68.5 39.73, 70 39.73 S 73.5 39.73, 75 39.73 S 78.5 39.73, 80 39.73 S 83.5 39.73, 85 39.73 S 88.5 39.73, 90 39.73 S 93.5 39.73, 95 39.73 S 98.5 39.73, 100 39.73 S 103.5 39.73, 105 39.73 S 108.5 39.73, 110 39.73 S 113.5 39.73, 115 39.73 S 118.5 39.73, 120 39.73 S 123.5 39.73, 125 39.73 S 128.5 39.73, 130 39.73 S 133.5 39.73, 135 39.73 S 138.5 39.73, 140 39.73 S 143.5 39.73, 145 39.73 S 148.5 39.73, 150 39.73 S 153.5 39.73, 155 39.73"
          fill="none"/>
    <circle r="4" cx="5" cy="40" fill="#3023AE"/>
    <circle r="4" cx="155" cy="39.73" fill="#C86DD7"/>      
</svg>