<svg width="200" height="50" viewBox="0 0 210 50" xmlns="http://www.w3.org/2000/svg">
    <defs>
        <linearGradient x1="0%" y1="0%" x2="100%" y2="0%" id="a">
            <stop stop-color="#3023AE" offset="0%"/>
            <stop stop-color="#C86DD7" offset="100%"/>
        </linearGradient>
    </defs>
    <path stroke="url(#a)"
          stroke-width="3"
          stroke-linejoin="round"
          stroke-linecap="round"
          d="M5 40 C 5.3 38.53, 8.55 15.52, 10 15.13 S 14.4 35.96, 15 37.33 S 18.52 37.75, 20 38.01 S 23.51 38.98, 25 39.11 S 29.16 40.13, 30 38.89 S 34.02 25.4, 35 24.27 S 39.05 26.2, 40 27.36 S 43.92 35.45, 45 36.49 S 49.09 38.17, 50 36.98 S 53.52 23.74, 55 23.47 S 59.12 33.95, 60 35.16 S 63.5 37.3, 65 37.2 S 68.5 34.54, 70 34.48 S 73.51 36.63, 75 36.83 S 78.5 35.86, 80 35.8 S 83.51 36.29, 85 36.42 S 89.18 37.93, 90 36.68 S 93.51 21.38, 95 21.2 S 98.53 35.19, 100 35.49 S 103.95 24.32, 105 23.25 S 108.5 25.25, 110 25.29 S 113.97 22.4, 115 23.49 S 119.11 37.07, 120 35.86 S 123.53 10.29, 125 10 S 129.38 32.53, 130 33.9 S 133.51 31.98, 135 32.1 S 138.61 34.16, 140 34.73 S 143.52 36.46, 145 36.22 S 148.5 33.18, 150 33.1 S 153.51 35.85, 155 35.67 S 158.51 32, 160 31.86 S 163.54 34.41, 165 34.75 S 168.5 34.25, 170 34.18 S 173.64 34.89, 175 34.26 S 178.52 29.76, 180 29.51 S 183.53 32.31, 185 32.58 S 188.97 32.46, 190 31.37 S 193.53 21.76, 195 22.03 S 198.73 32.42, 200 33.22 S 203.93 29.34, 205 28.29"
          fill="none"/>
    <circle r="4" cx="5" cy="40" fill="#3023AE"/>
    <circle r="4" cx="205" cy="28.29" fill="#C86DD7"/>      
</svg>