<svg width="200" height="50" viewBox="0 0 210 50" xmlns="http://www.w3.org/2000/svg">
    <defs>
        <linearGradient x1="0%" y1="0%" x2="100%" y2="0%" id="a">
            <stop stop-color="#3023AE" offset="0%"/>
            <stop stop-color="#C86DD7" offset="100%"/>
        </linearGradient>
    </defs>
    <path stroke="url(#a)"
          stroke-width="3"
          stroke-linejoin="round"
          stroke-linecap="round"
          d="M5 40 C 5.25 38.52, 8.6 10.55, 10 10 S 14.47 34.65, 15 36.05 S 18.79 37.1, 20 36.22 S 23.5 28.92, 25 28.8 S 28.74 34.62, 30 35.43 S 33.55 35.62, 35 35.25 S 38.51 33.01, 40 32.85 S 43.52 33.89, 45 34.15 S 48.52 34.38, 50 34.61 S 53.5 35.72, 55 35.71 S 58.5 34.62, 60 34.52 S 63.5 34.95, 65 35.06 S 68.5 35.2, 70 35.26 S 73.54 35.8, 75 35.47 S 78.52 33.25, 80 33.01 S 83.52 33.57, 85 33.82 S 88.5 34.61, 90 34.71 S 93.5 34.45, 95 34.48 S 98.63 35.51, 100 34.9 S 103.55 30.42, 105 30.05 S 108.64 31.75, 110 32.39 S 113.54 34.44, 115 34.78 S 118.5 34.75, 120 34.74 S 123.51 34.88, 125 34.7 S 128.56 33.94, 130 33.51 S 133.51 31.81, 135 31.68 S 138.53 32.36, 140 32.64 S 143.53 33.3, 145 33.59 S 148.51 34.42, 150 34.59 S 153.5 34.83, 155 34.75 S 158.51 34.25, 160 34.08 S 163.51 33.45, 165 33.58 S 168.52 34.71, 170 34.92 S 173.52 35.26, 175 35.01 S 178.51 33.38, 180 33.24 S 183.52 33.82, 185 34.07 S 188.5 34.86, 190 34.95 S 193.5 34.66, 195 34.66 S 198.5 34.99, 200 34.96 S 203.51 34.62, 205 34.47"
          fill="none"/>
    <circle r="4" cx="5" cy="40" fill="#3023AE"/>
    <circle r="4" cx="205" cy="34.47" fill="#C86DD7"/>      
</svg>