<svg width="200" height="50" viewBox="0 0 210 50" xmlns="http://www.w3.org/2000/svg">
    <defs>
        <linearGradient x1="0%" y1="0%" x2="100%" y2="0%" id="a">
            <stop stop-color="#3023AE" offset="0%"/>
            <stop stop-color="#C86DD7" offset="100%"/>
        </linearGradient>
    </defs>
    <path stroke="url(#a)"
          stroke-width="3"
          stroke-linejoin="round"
          stroke-linecap="round"
          d="M5 40 C 6.36 39.37, 8.54 38.03, 10 37.69 S 13.5 37.69, 15 37.69 S 18.5 37.69, 20 37.69 S 23.5 37.69, 25 37.69 S 28.5 37.69, 30 37.69 S 33.5 37.69, 35 37.69 S 38.5 37.69, 40 37.69 S 43.5 37.69, 45 37.69 S 48.5 37.69, 50 37.69 S 53.5 37.69, 55 37.69 S 58.5 37.69, 60 37.69 S 63.5 37.69, 65 37.69 S 68.5 37.69, 70 37.69 S 73.5 37.69, 75 37.69 S 78.5 37.69, 80 37.69 S 83.5 37.69, 85 37.69 S 88.9 38.71, 90 37.69 S 93.64 29.09, 95 28.46 S 98.77 32.23, 100 33.08 S 103.64 34.75, 105 35.38 S 108.77 38.54, 110 37.69 S 113.54 28.8, 115 28.46 S 118.77 34.53, 120 35.38 S 124.21 36.66, 125 35.38 S 128.54 19.57, 130 19.23 S 134.29 31.76, 135 33.08 S 138.64 37.06, 140 37.69 S 143.77 38.54, 145 37.69 S 148.5 30.77, 150 30.77 S 154.35 39.04, 155 37.69 S 158.54 10.34, 160 10 S 164.35 34.03, 165 35.38 S 168.5 30.77, 170 30.77 S 173.77 34.53, 175 35.38 S 179.02 38.82, 180 37.69 S 184.02 24.98, 185 23.85 S 188.64 26.78, 190 26.15 S 193.54 18.89, 195 19.23 S 198.9 27.44, 200 28.46 S 203.5 28.46, 205 28.46"
          fill="none"/>
    <circle r="4" cx="5" cy="40" fill="#3023AE"/>
    <circle r="4" cx="205" cy="28.46" fill="#C86DD7"/>      
</svg>