<svg width="200" height="50" viewBox="0 0 210 50" xmlns="http://www.w3.org/2000/svg">
    <defs>
        <linearGradient x1="0%" y1="0%" x2="100%" y2="0%" id="a">
            <stop stop-color="#3023AE" offset="0%"/>
            <stop stop-color="#C86DD7" offset="100%"/>
        </linearGradient>
    </defs>
    <path stroke="url(#a)"
          stroke-width="3"
          stroke-linejoin="round"
          stroke-linecap="round"
          d="M5 40 C 5.25 38.52, 8.81 10.91, 10 10 S 14.35 31.01, 15 32.36 S 18.81 31.64, 20 30.73 S 23.5 24.81, 25 24.73 S 28.78 29.31, 30 30.18 S 33.57 31.35, 35 31.82 S 38.5 33.37, 40 33.45 S 43.51 32.52, 45 32.36 S 48.51 32.2, 50 32.36 S 53.55 33.05, 55 33.45 S 58.53 34.77, 60 35.09 S 63.52 35.88, 65 35.64 S 68.5 33.45, 70 33.45 S 73.51 35.48, 75 35.64 S 78.52 34.79, 80 34.55 S 83.52 34.24, 85 34 S 88.5 32.99, 90 32.91 S 93.5 33.53, 95 33.45 S 98.78 33.23, 100 32.36 S 104.27 27.67, 105 26.36 S 108.71 13.59, 110 14.36 S 114.09 31.17, 115 32.36 S 119.33 28.79, 120 27.45 S 123.5 12.26, 125 12.18 S 128.81 26, 130 26.91 S 133.87 20.81, 135 19.82 S 138.65 17.52, 140 18.18 S 143.68 24.01, 145 24.73 S 148.52 23.88, 150 23.64 S 153.5 23.01, 155 23.09 S 158.63 23.58, 160 24.18 S 163.99 26.34, 165 27.45 S 168.52 35.33, 170 35.09 S 173.57 26.29, 175 25.82 S 178.65 31.16, 180 31.82 S 183.5 30.81, 185 30.73 S 188.52 31.03, 190 31.27 S 193.55 32.75, 195 32.36 S 198.65 29.21, 200 28.55 S 203.54 27.77, 205 27.45"
          fill="none"/>
    <circle r="4" cx="5" cy="40" fill="#3023AE"/>
    <circle r="4" cx="205" cy="27.45" fill="#C86DD7"/>      
</svg>