<svg width="200" height="50" viewBox="0 0 210 50" xmlns="http://www.w3.org/2000/svg">
    <defs>
        <linearGradient x1="0%" y1="0%" x2="100%" y2="0%" id="a">
            <stop stop-color="#3023AE" offset="0%"/>
            <stop stop-color="#C86DD7" offset="100%"/>
        </linearGradient>
    </defs>
    <path stroke="url(#a)"
          stroke-width="3"
          stroke-linejoin="round"
          stroke-linecap="round"
          d="M5 40 C 5.25 38.52, 8.87 10.98, 10 10 S 14.33 30.01, 15 31.35 S 18.52 30.45, 20 30.19 S 23.5 29.62, 25 29.62 S 28.5 30.1, 30 30.19 S 33.56 29.77, 35 30.19 S 38.61 32.52, 40 33.08 S 43.51 34.4, 45 34.23 S 48.5 32.01, 50 31.92 S 53.61 33.09, 55 33.65 S 58.5 35.96, 60 35.96 S 63.56 34.07, 65 33.65 S 68.61 32.52, 70 33.08 S 73.5 37.6, 75 37.69 S 78.5 33.74, 80 33.65 S 83.5 37.03, 85 37.12 S 88.58 34.72, 90 34.23 S 93.54 33.31, 95 33.65 S 98.51 36.71, 100 36.54 S 103.56 32.92, 105 32.5 S 108.5 33.65, 110 33.65 S 113.61 33.06, 115 32.5 S 119.35 30.97, 120 29.62 S 123.51 11.56, 125 11.73 S 129.39 29.4, 130 30.77 S 134.02 35.36, 135 34.23 S 139.29 20.55, 140 19.23 S 144.07 14.59, 145 15.77 S 148.58 31.43, 150 31.92 S 154.02 20.36, 155 19.23 S 158.61 19.82, 160 20.38 S 163.5 23.36, 165 23.27 S 168.83 18.87, 170 19.81 S 173.67 30.66, 175 31.35 S 178.73 25.8, 180 25 S 183.56 24.58, 185 25 S 188.96 26.8, 190 27.88 S 193.56 35.8, 195 35.38 S 198.51 25.17, 200 25 S 204.29 32.91, 205 34.23"
          fill="none"/>
    <circle r="4" cx="5" cy="40" fill="#3023AE"/>
    <circle r="4" cx="205" cy="34.230000000000004" fill="#C86DD7"/>      
</svg>