<svg width="200" height="50" viewBox="0 0 210 50" xmlns="http://www.w3.org/2000/svg">
    <defs>
        <linearGradient x1="0%" y1="0%" x2="100%" y2="0%" id="a">
            <stop stop-color="#3023AE" offset="0%"/>
            <stop stop-color="#C86DD7" offset="100%"/>
        </linearGradient>
    </defs>
    <path stroke="url(#a)"
          stroke-width="3"
          stroke-linejoin="round"
          stroke-linecap="round"
          d="M5 40 C 5.71 38.68, 8.61 31.26, 10 30.69 S 13.75 35.02, 15 35.86 S 18.53 37.11, 20 37.41 S 23.53 37.63, 25 37.93 S 28.52 39.25, 30 39.48 S 33.5 39.48, 35 39.48 S 38.5 39.48, 40 39.48 S 43.5 39.48, 45 39.48 S 48.5 39.48, 50 39.48 S 53.5 39.48, 55 39.48 S 58.5 39.48, 60 39.48 S 63.5 39.48, 65 39.48 S 69.32 40.82, 70 39.48 S 74.52 21.25, 75 19.83 S 78.96 8.92, 80 10 S 84.08 28.98, 85 30.17 S 88.7 22.19, 90 22.93 S 94.08 34.67, 95 35.86 S 98.51 36.01, 100 35.86 S 103.53 35.13, 105 34.83 S 108.5 33.79, 110 33.79 S 113.53 34.53, 115 34.83 S 118.5 35.78, 120 35.86 S 123.5 35.34, 125 35.34 S 128.51 36.01, 130 35.86 S 133.52 34.08, 135 34.31 S 138.5 37.33, 140 37.41 S 143.5 34.75, 145 34.83 S 148.53 37.63, 150 37.93 S 153.59 37.41, 155 36.9 S 158.5 34.31, 160 34.31 S 163.5 36.9, 165 36.9 S 168.52 34.08, 170 34.31 S 173.64 37.82, 175 38.45 S 178.51 39.13, 180 38.97 S 183.5 37.33, 185 37.41 S 188.51 39.32, 190 39.48 S 193.51 38.6, 195 38.45 S 198.51 38.3, 200 38.45 S 203.53 39.18, 205 39.48"
          fill="none"/>
    <circle r="4" cx="5" cy="40" fill="#3023AE"/>
    <circle r="4" cx="205" cy="39.48" fill="#C86DD7"/>      
</svg>