<svg width="200" height="50" viewBox="0 0 210 50" xmlns="http://www.w3.org/2000/svg">
    <defs>
        <linearGradient x1="0%" y1="0%" x2="100%" y2="0%" id="a">
            <stop stop-color="#3023AE" offset="0%"/>
            <stop stop-color="#C86DD7" offset="100%"/>
        </linearGradient>
    </defs>
    <path stroke="url(#a)"
          stroke-width="3"
          stroke-linejoin="round"
          stroke-linecap="round"
          d="M5 40 C 5.25 38.52, 8.59 10.52, 10 10 S 14.48 34.89, 15 36.3 S 18.54 37.22, 20 36.88 S 23.62 34.59, 25 33.99 S 28.51 32.36, 30 32.54 S 33.59 34.72, 35 35.22 S 39.13 37.31, 40 36.09 S 43.58 21.57, 45 21.09 S 49.02 31.54, 50 32.68 S 53.59 32.18, 55 32.68 S 58.57 35.77, 60 36.23 S 63.5 36.03, 65 35.94 S 68.5 35.62, 70 35.65 S 73.5 36.12, 75 36.16 S 78.51 36.1, 80 35.94 S 83.51 35.21, 85 35.07 S 88.54 35.33, 90 35 S 93.67 33.53, 95 32.83 S 98.5 29.62, 100 29.71 S 103.51 33.2, 105 33.41 S 108.56 31.52, 110 31.09 S 113.6 29.89, 115 30.43 S 118.57 34.49, 120 34.93 S 123.5 33.56, 125 33.48 S 128.5 34.3, 130 34.42 S 133.5 34.3, 135 34.28 S 139.06 35.45, 140 34.28 S 143.62 22.46, 145 21.88 S 148.92 29.03, 150 30.07 S 153.53 31.2, 155 31.52 S 158.52 32.47, 160 32.25 S 163.52 30.31, 165 30.07 S 168.52 30.91, 170 30.65 S 173.5 28.29, 175 28.33 S 178.64 30.32, 180 30.94 S 183.5 32.83, 185 32.9 S 188.55 31.78, 190 31.38 S 193.5 30.05, 195 30.14 S 198.55 32.34, 200 31.96 S 203.88 28.53, 205 27.54"
          fill="none"/>
    <circle r="4" cx="5" cy="40" fill="#3023AE"/>
    <circle r="4" cx="205" cy="27.54" fill="#C86DD7"/>      
</svg>