<svg width="200" height="50" viewBox="0 0 210 50" xmlns="http://www.w3.org/2000/svg">
    <defs>
        <linearGradient x1="0%" y1="0%" x2="100%" y2="0%" id="a">
            <stop stop-color="#3023AE" offset="0%"/>
            <stop stop-color="#C86DD7" offset="100%"/>
        </linearGradient>
    </defs>
    <path stroke="url(#a)"
          stroke-width="3"
          stroke-linejoin="round"
          stroke-linecap="round"
          d="M5 40 C 5.25 38.52, 8.78 10.87, 10 10 S 14.43 31.54, 15 32.93 S 18.62 33.8, 20 34.4 S 23.59 36.76, 25 37.28 S 28.53 37.77, 30 38.06 S 33.52 38.98, 35 39.22 S 38.5 39.61, 40 39.69 S 43.5 39.79, 45 39.77 S 48.5 39.62, 50 39.53 S 53.5 39.15, 55 39.15 S 58.5 39.43, 60 39.53 S 63.5 39.78, 65 39.84 S 68.5 39.93, 70 39.92 S 73.5 39.77, 75 39.77 S 78.5 39.93, 80 39.92 S 83.51 39.84, 85 39.69 S 88.5 38.91, 90 38.91 S 93.51 39.56, 95 39.69 S 98.5 39.77, 100 39.77 S 103.5 39.67, 105 39.69 S 108.5 39.89, 110 39.92 S 113.5 39.92, 115 39.92 S 118.5 39.92, 120 39.92 S 123.52 40.17, 125 39.92 S 128.5 38.26, 130 38.21 S 133.52 39.38, 135 39.61 S 138.5 39.72, 140 39.77 S 143.5 39.9, 145 39.92 S 148.5 39.93, 150 39.92 S 153.5 39.84, 155 39.84 S 158.5 39.91, 160 39.92 S 163.5 39.94, 165 39.92 S 168.5 39.78, 170 39.77 S 173.5 39.82, 175 39.84 S 178.5 39.91, 180 39.92 S 183.5 39.93, 185 39.92 S 188.5 39.84, 190 39.84 S 193.5 39.91, 195 39.92 S 198.72 40.7, 200 39.92 S 204.05 34.94, 205 33.78"
          fill="none"/>
    <circle r="4" cx="5" cy="40" fill="#3023AE"/>
    <circle r="4" cx="205" cy="33.78" fill="#C86DD7"/>      
</svg>