<svg width="200" height="50" viewBox="0 0 210 50" xmlns="http://www.w3.org/2000/svg">
    <defs>
        <linearGradient x1="0%" y1="0%" x2="100%" y2="0%" id="a">
            <stop stop-color="#3023AE" offset="0%"/>
            <stop stop-color="#C86DD7" offset="100%"/>
        </linearGradient>
    </defs>
    <path stroke="url(#a)"
          stroke-width="3"
          stroke-linejoin="round"
          stroke-linecap="round"
          d="M5 40 C 5.25 38.52, 8.79 10.88, 10 10 S 14.44 31.32, 15 32.71 S 18.57 34.17, 20 34.61 S 23.59 35.27, 25 35.77 S 28.54 37.84, 30 38.18 S 33.51 37.93, 35 38.09 S 38.52 39, 40 39.25 S 43.5 39.66, 45 39.75 S 48.5 39.83, 50 39.83 S 53.5 39.8, 55 39.75 S 58.5 39.57, 60 39.5 S 63.5 39.25, 65 39.25 S 68.5 39.43, 70 39.5 S 73.5 39.69, 75 39.75 S 78.5 39.89, 80 39.92 S 83.5 39.95, 85 39.92 S 88.5 39.75, 90 39.75 S 93.5 39.92, 95 39.92 S 98.5 39.85, 100 39.75 S 103.5 39.31, 105 39.25 S 108.5 39.25, 110 39.34 S 113.5 39.76, 115 39.83 S 118.5 39.83, 120 39.83 S 123.5 39.84, 125 39.83 S 128.5 39.74, 130 39.75 S 133.5 39.89, 135 39.92 S 138.5 39.92, 140 39.92 S 143.5 39.92, 145 39.92 S 148.51 40.06, 150 39.92 S 153.51 39.15, 155 39.01 S 158.5 38.91, 160 39.01 S 163.5 39.56, 165 39.67 S 168.5 39.71, 170 39.75 S 173.5 39.89, 175 39.92 S 178.5 39.92, 180 39.92 S 183.5 39.92, 185 39.92 S 188.5 39.92, 190 39.92 S 193.5 39.92, 195 39.92 S 198.5 39.92, 200 39.92 S 203.5 39.92, 205 39.92"
          fill="none"/>
    <circle r="4" cx="5" cy="40" fill="#3023AE"/>
    <circle r="4" cx="205" cy="39.92" fill="#C86DD7"/>      
</svg>