<svg width="200" height="50" viewBox="0 0 210 50" xmlns="http://www.w3.org/2000/svg">
    <defs>
        <linearGradient x1="0%" y1="0%" x2="100%" y2="0%" id="a">
            <stop stop-color="#3023AE" offset="0%"/>
            <stop stop-color="#C86DD7" offset="100%"/>
        </linearGradient>
    </defs>
    <path stroke="url(#a)"
          stroke-width="3"
          stroke-linejoin="round"
          stroke-linecap="round"
          d="M5 40 C 6.48 39.76, 8.5 39.25, 10 39.19 S 13.5 39.53, 15 39.59 S 18.5 39.59, 20 39.59 S 23.5 39.59, 25 39.59 S 28.5 39.59, 30 39.59 S 33.5 39.59, 35 39.59 S 38.5 39.59, 40 39.59 S 43.5 39.59, 45 39.59 S 48.5 39.59, 50 39.59 S 53.5 39.59, 55 39.59 S 58.5 39.59, 60 39.59 S 63.5 39.59, 65 39.59 S 68.5 39.59, 70 39.59 S 73.5 39.59, 75 39.59 S 78.5 39.59, 80 39.59 S 83.5 39.59, 85 39.59 S 88.5 39.59, 90 39.59 S 93.5 39.59, 95 39.59 S 98.5 39.59, 100 39.59 S 103.5 39.59, 105 39.59 S 108.5 39.59, 110 39.59 S 113.5 39.59, 115 39.59 S 118.5 39.59, 120 39.59 S 123.5 39.59, 125 39.59 S 128.5 39.59, 130 39.59 S 133.5 39.59, 135 39.59 S 138.5 39.59, 140 39.59 S 143.5 39.59, 145 39.59 S 148.5 39.59, 150 39.59 S 153.56 40, 155 39.59 S 159.14 37.99, 160 36.76 S 164.07 26.58, 165 25.41 S 168.74 25.01, 170 24.19 S 174.14 20.15, 175 18.92 S 178.53 10.3, 180 10 S 184.14 15.66, 185 16.89 S 188.5 24.31, 190 24.19 S 193.57 15.62, 195 16.08 S 199.12 26.22, 200 27.43 S 203.65 29.2, 205 29.86"
          fill="none"/>
    <circle r="4" cx="5" cy="40" fill="#3023AE"/>
    <circle r="4" cx="205" cy="29.86" fill="#C86DD7"/>      
</svg>