<svg width="200" height="50" viewBox="0 0 210 50" xmlns="http://www.w3.org/2000/svg">
    <defs>
        <linearGradient x1="0%" y1="0%" x2="100%" y2="0%" id="a">
            <stop stop-color="#3023AE" offset="0%"/>
            <stop stop-color="#C86DD7" offset="100%"/>
        </linearGradient>
    </defs>
    <path stroke="url(#a)"
          stroke-width="3"
          stroke-linejoin="round"
          stroke-linecap="round"
          d="M5 40 C 6.5 39.93, 8.5 39.81, 10 39.78 S 13.5 39.78, 15 39.78 S 18.51 39.91, 20 39.78 S 23.5 38.92, 25 38.92 S 28.51 39.65, 30 39.78 S 33.66 40.45, 35 39.78 S 38.5 34.82, 40 34.82 S 43.66 39.11, 45 39.78 S 48.5 39.78, 50 39.78 S 53.5 39.78, 55 39.78 S 58.5 39.78, 60 39.78 S 63.5 39.78, 65 39.78 S 68.5 39.78, 70 39.78 S 73.5 39.78, 75 39.78 S 78.5 39.78, 80 39.78 S 83.5 39.78, 85 39.78 S 88.5 39.78, 90 39.78 S 93.5 39.78, 95 39.78 S 98.5 39.78, 100 39.78 S 103.5 39.78, 105 39.78 S 108.5 39.78, 110 39.78 S 113.5 39.78, 115 39.78 S 118.5 39.78, 120 39.78 S 123.5 39.78, 125 39.78 S 128.5 39.78, 130 39.78 S 133.5 39.78, 135 39.78 S 138.5 39.78, 140 39.78 S 143.5 39.78, 145 39.78 S 148.5 39.78, 150 39.78 S 153.5 39.78, 155 39.78 S 158.5 39.78, 160 39.78 S 164.52 41.2, 165 39.78 S 168.59 10.52, 170 10 S 174.52 34.7, 175 36.12 S 178.54 39, 180 39.35 S 183.5 38.52, 185 38.49 S 188.5 39.04, 190 39.14 S 193.5 39.11, 195 39.14 S 198.5 39.32, 200 39.35 S 203.5 39.35, 205 39.35"
          fill="none"/>
    <circle r="4" cx="5" cy="40" fill="#3023AE"/>
    <circle r="4" cx="205" cy="39.35" fill="#C86DD7"/>      
</svg>