<svg width="200" height="50" viewBox="0 0 210 50" xmlns="http://www.w3.org/2000/svg">
    <defs>
        <linearGradient x1="0%" y1="0%" x2="100%" y2="0%" id="a">
            <stop stop-color="#3023AE" offset="0%"/>
            <stop stop-color="#C86DD7" offset="100%"/>
        </linearGradient>
    </defs>
    <path stroke="url(#a)"
          stroke-width="3"
          stroke-linejoin="round"
          stroke-linecap="round"
          d="M5 40 C 5.25 38.52, 8.62 10.6, 10 10 S 14.46 34.26, 15 35.66 S 18.54 35.33, 20 35.66 S 23.5 37.89, 25 37.94 S 28.65 36.64, 30 35.99 S 33.5 33.25, 35 33.15 S 38.59 34.8, 40 35.32 S 43.51 36.75, 45 36.88 S 48.51 36.28, 50 36.16 S 53.5 36.13, 55 36.05 S 58.5 35.56, 60 35.6 S 63.51 36.16, 65 36.33 S 68.5 36.69, 70 36.77 S 73.5 36.89, 75 36.88 S 78.51 36.84, 80 36.72 S 83.76 36.9, 85 36.05 S 88.61 30.44, 90 29.87 S 93.58 31.45, 95 31.93 S 98.5 33.26, 100 33.21 S 103.51 31.4, 105 31.6 S 108.53 34.23, 110 34.55 S 113.51 33.9, 115 33.77 S 118.51 33.88, 120 33.71 S 123.51 32.78, 125 32.6 S 128.5 32.4, 130 32.49 S 133.66 33.88, 135 33.21 S 138.52 27.75, 140 27.48 S 143.57 30.93, 145 31.37 S 148.52 30.8, 150 30.54 S 153.5 29.51, 155 29.59 S 158.52 30.85, 160 31.09 S 163.51 31.4, 165 31.21 S 168.52 30.04, 170 29.81 S 173.5 29.7, 175 29.65 S 178.5 29.56, 180 29.48 S 183.51 29.23, 185 29.09 S 188.5 28.42, 190 28.53 S 193.52 29.55, 195 29.81 S 198.53 30.54, 200 30.26 S 203.64 28.56, 205 27.92"
          fill="none"/>
    <circle r="4" cx="5" cy="40" fill="#3023AE"/>
    <circle r="4" cx="205" cy="27.92" fill="#C86DD7"/>      
</svg>