<svg width="200" height="50" viewBox="0 0 210 50" xmlns="http://www.w3.org/2000/svg">
    <defs>
        <linearGradient x1="0%" y1="0%" x2="100%" y2="0%" id="a">
            <stop stop-color="#3023AE" offset="0%"/>
            <stop stop-color="#C86DD7" offset="100%"/>
        </linearGradient>
    </defs>
    <path stroke="url(#a)"
          stroke-width="3"
          stroke-linejoin="round"
          stroke-linecap="round"
          d="M5 40 C 5.25 38.52, 8.76 10.84, 10 10 S 14.45 31.81, 15 33.2 S 18.57 34.66, 20 35.13 S 23.52 36.21, 25 36.47 S 28.5 36.78, 30 36.87 S 33.51 36.91, 35 37.1 S 38.5 38.11, 40 38.17 S 43.51 37.68, 45 37.48 S 48.5 36.86, 50 36.83 S 53.5 37.24, 55 37.28 S 58.5 37.07, 60 37.12 S 63.5 37.61, 65 37.6 S 68.5 37.13, 70 37.02 S 73.5 36.84, 75 36.85 S 78.5 36.98, 80 37.06 S 83.5 37.38, 85 37.38 S 88.55 37.48, 90 37.08 S 93.55 35, 95 34.6 S 98.51 34.11, 100 34.3 S 103.51 35.76, 105 35.9 S 108.5 35.17, 110 35.25 S 113.52 36.17, 115 36.41 S 118.51 37.01, 120 36.87 S 123.51 35.68, 125 35.49 S 128.5 35.67, 130 35.57 S 133.5 34.81, 135 34.84 S 138.52 36.01, 140 35.76 S 143.51 33.28, 145 33.12 S 148.51 34.5, 150 34.68 S 153.5 34.33, 155 34.36 S 158.5 34.78, 160 34.89 S 163.5 35.09, 165 35.07 S 168.5 34.77, 170 34.74 S 173.5 34.88, 175 34.84 S 178.52 34.77, 180 34.5 S 183.51 33.17, 185 33.02 S 188.53 33.22, 190 33.52 S 193.5 34.99, 195 35.05 S 198.5 33.9, 200 33.91 S 203.54 34.75, 205 35.09"
          fill="none"/>
    <circle r="4" cx="5" cy="40" fill="#3023AE"/>
    <circle r="4" cx="205" cy="35.09" fill="#C86DD7"/>      
</svg>