<svg width="200" height="50" viewBox="0 0 210 50" xmlns="http://www.w3.org/2000/svg">
    <defs>
        <linearGradient x1="0%" y1="0%" x2="100%" y2="0%" id="a">
            <stop stop-color="#3023AE" offset="0%"/>
            <stop stop-color="#C86DD7" offset="100%"/>
        </linearGradient>
    </defs>
    <path stroke="url(#a)"
          stroke-width="3"
          stroke-linejoin="round"
          stroke-linecap="round"
          d="M5 40 C 5.95 38.84, 8.88 34.91, 10 33.92 S 14.42 32.53, 15 31.15 S 18.68 9.29, 20 10 S 24.48 35.15, 25 36.56 S 28.53 36.8, 30 37.09 S 33.5 38.65, 35 38.55 S 38.55 36.81, 40 36.43 S 43.52 36.15, 45 35.9 S 48.63 35.31, 50 34.71 S 53.51 31.7, 55 31.54 S 58.63 33.06, 60 33.66 S 63.5 35.92, 65 35.9 S 68.55 33.9, 70 33.52 S 73.53 33.57, 75 33.26 S 78.53 31.68, 80 31.41 S 83.54 31.06, 85 31.41 S 88.52 33.55, 90 33.79 S 93.53 33.27, 95 33 S 98.5 31.94, 100 31.94 S 103.5 33.1, 105 33 S 108.52 31.5, 110 31.28 S 113.52 31.32, 115 31.54 S 118.52 32.96, 120 32.73 S 123.63 30.57, 125 29.96 S 128.51 28.4, 130 28.24 S 133.52 28.65, 135 28.9 S 138.51 30.12, 140 29.96 S 143.52 28.08, 145 27.84 S 148.51 28.21, 150 28.37 S 153.85 29.86, 155 28.9 S 158.51 20.24, 160 20.04 S 163.69 26.85, 165 27.58 S 168.59 26.09, 170 25.59 S 173.5 23.91, 175 24.01 S 178.56 26.68, 180 26.26 S 183.55 20.73, 185 21.1 S 188.61 28.22, 190 28.77 S 193.6 25.61, 195 25.07 S 198.52 24.71, 200 24.93 S 203.57 26.07, 205 26.52"
          fill="none"/>
    <circle r="4" cx="5" cy="40" fill="#3023AE"/>
    <circle r="4" cx="205" cy="26.52" fill="#C86DD7"/>      
</svg>