<svg width="200" height="50" viewBox="0 0 210 50" xmlns="http://www.w3.org/2000/svg">
    <defs>
        <linearGradient x1="0%" y1="0%" x2="100%" y2="0%" id="a">
            <stop stop-color="#3023AE" offset="0%"/>
            <stop stop-color="#C86DD7" offset="100%"/>
        </linearGradient>
    </defs>
    <path stroke="url(#a)"
          stroke-width="3"
          stroke-linejoin="round"
          stroke-linecap="round"
          d="M5 40 C 6.27 39.2, 8.52 37.07, 10 36.84 S 13.52 38.19, 15 38.42 S 18.5 38.42, 20 38.42 S 23.5 38.42, 25 38.42 S 28.5 38.42, 30 38.42 S 33.5 38.42, 35 38.42 S 38.5 38.42, 40 38.42 S 43.5 38.42, 45 38.42 S 48.5 38.42, 50 38.42 S 53.5 38.42, 55 38.42 S 58.5 38.42, 60 38.42 S 63.5 38.42, 65 38.42 S 68.5 38.42, 70 38.42 S 73.5 38.42, 75 38.42 S 78.5 38.42, 80 38.42 S 83.5 38.42, 85 38.42 S 88.5 38.42, 90 38.42 S 93.5 38.42, 95 38.42 S 98.5 38.42, 100 38.42 S 103.5 38.42, 105 38.42 S 108.5 38.42, 110 38.42 S 113.5 38.42, 115 38.42 S 118.5 38.42, 120 38.42 S 123.5 38.42, 125 38.42 S 128.5 38.42, 130 38.42 S 133.5 38.42, 135 38.42 S 138.5 38.42, 140 38.42 S 143.5 38.42, 145 38.42 S 148.5 38.42, 150 38.42 S 153.5 38.42, 155 38.42 S 158.5 38.42, 160 38.42 S 163.5 38.42, 165 38.42 S 168.5 38.42, 170 38.42 S 173.5 38.42, 175 38.42 S 178.5 38.42, 180 38.42 S 183.57 38.87, 185 38.42 S 188.73 36.06, 190 35.26 S 194.45 33.5, 195 32.11 S 198.64 10.64, 200 10 S 204.59 25.93, 205 27.37"
          fill="none"/>
    <circle r="4" cx="5" cy="40" fill="#3023AE"/>
    <circle r="4" cx="205" cy="27.369999999999997" fill="#C86DD7"/>      
</svg>