<svg width="200" height="50" viewBox="0 0 210 50" xmlns="http://www.w3.org/2000/svg">
    <defs>
        <linearGradient x1="0%" y1="0%" x2="100%" y2="0%" id="a">
            <stop stop-color="#3023AE" offset="0%"/>
            <stop stop-color="#C86DD7" offset="100%"/>
        </linearGradient>
    </defs>
    <path stroke="url(#a)"
          stroke-width="3"
          stroke-linejoin="round"
          stroke-linecap="round"
          d="M5 40 C 5.25 38.52, 9.4 11.38, 10 10 S 14.17 15.76, 15 17.01 S 19.18 23.68, 20 24.93 S 23.72 31.49, 25 32.27 S 28.57 30.57, 30 31.02 S 33.6 34.89, 35 35.42 S 38.5 34.77, 40 34.79 S 43.56 35.14, 45 35.57 S 48.73 38.58, 50 37.78 S 53.73 30.02, 55 29.23 S 58.75 30.72, 60 31.55 S 63.65 35.28, 65 35.93 S 68.54 35.98, 70 36.32 S 73.54 37.96, 75 38.29 S 78.5 38.56, 80 38.61 S 83.5 38.53, 85 38.61 S 88.5 39.05, 90 39.12 S 93.5 39.1, 95 39.05 S 98.5 38.71, 100 38.76 S 103.5 39.3, 105 39.39 S 108.5 39.36, 110 39.36 S 113.5 39.33, 115 39.36 S 118.5 39.59, 120 39.58 S 123.5 39.28, 125 39.28 S 128.5 39.53, 130 39.55 S 133.5 39.5, 135 39.44 S 138.5 39.18, 140 39.17 S 143.5 39.35, 145 39.39 S 148.5 39.51, 150 39.45 S 153.5 38.99, 155 38.97 S 158.5 39.32, 160 39.33 S 163.5 39.12, 165 39.07 S 168.5 39.09, 170 39 S 173.5 38.45, 175 38.48 S 178.51 39.06, 180 39.22 S 183.5 39.49, 185 39.55 S 188.5 39.65, 190 39.63 S 193.5 39.45, 195 39.44 S 198.5 39.52, 200 39.55 S 203.5 39.59, 205 39.61"
          fill="none"/>
    <circle r="4" cx="5" cy="40" fill="#3023AE"/>
    <circle r="4" cx="205" cy="39.61" fill="#C86DD7"/>      
</svg>