<svg width="200" height="50" viewBox="0 0 210 50" xmlns="http://www.w3.org/2000/svg">
    <defs>
        <linearGradient x1="0%" y1="0%" x2="100%" y2="0%" id="a">
            <stop stop-color="#3023AE" offset="0%"/>
            <stop stop-color="#C86DD7" offset="100%"/>
        </linearGradient>
    </defs>
    <path stroke="url(#a)"
          stroke-width="3"
          stroke-linejoin="round"
          stroke-linecap="round"
          d="M5 40 C 6.14 39.02, 8.55 36.08, 10 35.71 S 13.58 36.94, 15 37.43 S 18.52 38.89, 20 39.14 S 23.5 39.14, 25 39.14 S 28.86 40.12, 30 39.14 S 33.52 30.82, 35 30.57 S 38.81 36.51, 40 37.43 S 43.51 38.16, 45 38.29 S 48.51 38.16, 50 38.29 S 53.62 39.73, 55 39.14 S 58.51 34.13, 60 34 S 63.51 38.42, 65 38.29 S 69.5 34.55, 70 33.14 S 73.52 10.25, 75 10 S 79.39 30.06, 80 31.43 S 83.62 31.7, 85 32.29 S 88.55 35.34, 90 35.71 S 93.5 34.86, 95 34.86 S 98.62 35.12, 100 35.71 S 103.58 38.65, 105 39.14 S 108.52 39.39, 110 39.14 S 113.51 37.56, 115 37.43 S 118.58 38.78, 120 38.29 S 123.76 34.85, 125 34 S 128.55 31.06, 130 31.43 S 133.71 35.8, 135 36.57 S 138.76 38.28, 140 37.43 S 143.81 30.63, 145 29.71 S 148.58 29.22, 150 29.71 S 153.5 33.14, 155 33.14 S 158.51 29.58, 160 29.71 S 164.08 35.18, 165 34 S 168.52 17.11, 170 16.86 S 173.5 32.29, 175 32.29 S 178.86 17.84, 180 16.86 S 183.81 22.79, 185 23.71 S 188.95 23.49, 190 24.57 S 193.76 33.15, 195 34 S 198.52 31.18, 200 31.43 S 203.86 34.73, 205 35.71"
          fill="none"/>
    <circle r="4" cx="5" cy="40" fill="#3023AE"/>
    <circle r="4" cx="205" cy="35.71" fill="#C86DD7"/>      
</svg>