<svg width="200" height="50" viewBox="0 0 210 50" xmlns="http://www.w3.org/2000/svg">
    <defs>
        <linearGradient x1="0%" y1="0%" x2="100%" y2="0%" id="a">
            <stop stop-color="#3023AE" offset="0%"/>
            <stop stop-color="#C86DD7" offset="100%"/>
        </linearGradient>
    </defs>
    <path stroke="url(#a)"
          stroke-width="3"
          stroke-linejoin="round"
          stroke-linecap="round"
          d="M5 40 C 5.4 38.56, 8.76 22.94, 10 22.1 S 14.13 32.01, 15 33.23 S 18.63 36.73, 20 36.13 S 23.5 28.87, 25 28.87 S 28.52 35.91, 30 36.13 S 33.65 30.97, 35 30.32 S 38.7 30.54, 40 31.29 S 43.63 35.53, 45 36.13 S 48.65 36.3, 50 35.65 S 53.53 31.58, 55 31.29 S 58.65 33.06, 60 33.71 S 63.5 36.2, 65 36.13 S 68.73 34.03, 70 33.23 S 73.73 30.64, 75 29.84 S 79.07 28.11, 80 26.94 S 83.56 17.68, 85 17.26 S 88.79 23.15, 90 24.03 S 94.04 23.36, 95 24.52 S 98.53 35.85, 100 36.13 S 103.68 27.15, 105 26.45 S 108.63 30.21, 110 30.81 S 113.63 31.41, 115 30.81 S 118.52 26.23, 120 26.45 S 123.5 32.26, 125 32.26 S 128.87 27.44, 130 26.45 S 133.56 23.13, 135 23.55 S 138.92 30.39, 140 29.35 S 143.79 14.75, 145 13.87 S 148.9 21.09, 150 22.1 S 154.04 24.22, 155 23.06 S 158.54 9.65, 160 10 S 164.22 24.2, 165 25.48 S 168.51 26.31, 170 26.45 S 173.73 27.25, 175 26.45 S 178.7 20.91, 180 20.16 S 184.19 19.39, 185 20.65 S 189.25 34.35, 190 35.65 S 193.54 37.71, 195 38.06 S 198.53 38.34, 200 38.06 S 203.6 36.67, 205 36.13"
          fill="none"/>
    <circle r="4" cx="5" cy="40" fill="#3023AE"/>
    <circle r="4" cx="205" cy="36.13" fill="#C86DD7"/>      
</svg>