<svg width="200" height="50" viewBox="0 0 210 50" xmlns="http://www.w3.org/2000/svg">
    <defs>
        <linearGradient x1="0%" y1="0%" x2="100%" y2="0%" id="a">
            <stop stop-color="#3023AE" offset="0%"/>
            <stop stop-color="#C86DD7" offset="100%"/>
        </linearGradient>
    </defs>
    <path stroke="url(#a)"
          stroke-width="3"
          stroke-linejoin="round"
          stroke-linecap="round"
          d="M5 40 C 6.08 38.95, 8.5 35.26, 10 35.14 S 13.61 38.63, 15 39.19 S 18.5 39.19, 20 39.19 S 23.5 39.19, 25 39.19 S 28.5 39.19, 30 39.19 S 33.74 40.01, 35 39.19 S 39.08 33.89, 40 32.7 S 44.12 27.43, 45 26.22 S 48.5 18.92, 50 18.92 S 54.29 24.9, 55 26.22 S 58.74 36.75, 60 37.57 S 63.54 33.05, 65 32.7 S 68.61 35.7, 70 35.14 S 73.51 28.77, 75 28.65 S 78.74 33.5, 80 34.32 S 83.5 35.26, 85 35.14 S 88.51 33.63, 90 33.51 S 93.54 33.96, 95 34.32 S 98.54 35.59, 100 35.95 S 103.65 37.42, 105 36.76 S 108.61 31.64, 110 31.08 S 113.57 32.24, 115 32.7 S 118.52 34.08, 120 34.32 S 123.5 34.44, 125 34.32 S 129.43 34.9, 130 33.51 S 133.54 9.64, 135 10 S 139.41 34.57, 140 35.95 S 143.5 33.51, 145 33.51 S 148.5 35.95, 150 35.95 S 153.92 34.56, 155 33.51 S 159.41 27.6, 160 26.22 S 163.74 9.18, 165 10 S 169.47 31.29, 170 32.7 S 173.52 37, 175 36.76 S 178.54 31.44, 180 31.08 S 183.54 33.97, 185 34.32 S 188.57 33.97, 190 33.51 S 193.61 30.52, 195 31.08 S 198.61 37.01, 200 37.57 S 203.65 35.8, 205 35.14"
          fill="none"/>
    <circle r="4" cx="5" cy="40" fill="#3023AE"/>
    <circle r="4" cx="205" cy="35.14" fill="#C86DD7"/>      
</svg>