<svg width="200" height="50" viewBox="0 0 210 50" xmlns="http://www.w3.org/2000/svg">
    <defs>
        <linearGradient x1="0%" y1="0%" x2="100%" y2="0%" id="a">
            <stop stop-color="#3023AE" offset="0%"/>
            <stop stop-color="#C86DD7" offset="100%"/>
        </linearGradient>
    </defs>
    <path stroke="url(#a)"
          stroke-width="3"
          stroke-linejoin="round"
          stroke-linecap="round"
          d="M5 40 C 6.44 39.58, 8.63 39.14, 10 38.54 S 13.99 36.72, 15 35.61 S 18.56 27.14, 20 27.56 S 23.99 37.43, 25 38.54 S 28.5 38.65, 30 38.54 S 33.5 37.69, 35 37.8 S 38.5 39.38, 40 39.27 S 44.32 38.41, 45 37.07 S 48.53 19.83, 50 19.51 S 54.03 33.74, 55 34.88 S 58.59 30.7, 60 31.22 S 63.63 37.94, 65 38.54 S 68.54 35.93, 70 35.61 S 73.5 36.34, 75 36.34 S 78.5 35.72, 80 35.61 S 83.53 35.29, 85 35.61 S 88.52 37.58, 90 37.8 S 93.5 37.18, 95 37.07 S 99.48 38.48, 100 37.07 S 103.59 10.52, 105 10 S 109.49 32, 110 33.41 S 113.53 38.12, 115 37.8 S 118.52 31.44, 120 31.22 S 123.71 35.58, 125 36.34 S 128.5 37.18, 130 37.07 S 133.59 36.13, 135 35.61 S 138.5 33.41, 140 33.41 S 143.53 35.93, 145 35.61 S 148.5 31.11, 150 31.22 S 153.5 36.34, 155 36.34 S 158.52 31.44, 160 31.22 S 163.56 34.46, 165 34.88 S 168.52 33.93, 170 34.15 S 173.59 35.83, 175 36.34 S 178.52 37.58, 180 37.8 S 183.53 38.12, 185 37.8 S 188.52 35.83, 190 35.61 S 193.5 36.34, 195 36.34 S 198.5 35.5, 200 35.61 S 203.56 36.65, 205 37.07"
          fill="none"/>
    <circle r="4" cx="5" cy="40" fill="#3023AE"/>
    <circle r="4" cx="205" cy="37.07" fill="#C86DD7"/>      
</svg>