<svg width="200" height="50" viewBox="0 0 210 50" xmlns="http://www.w3.org/2000/svg">
    <defs>
        <linearGradient x1="0%" y1="0%" x2="100%" y2="0%" id="a">
            <stop stop-color="#3023AE" offset="0%"/>
            <stop stop-color="#C86DD7" offset="100%"/>
        </linearGradient>
    </defs>
    <path stroke="url(#a)"
          stroke-width="3"
          stroke-linejoin="round"
          stroke-linecap="round"
          d="M5 40 C 6.5 39.97, 8.5 39.94, 10 39.91 S 13.5 39.86, 15 39.83 S 18.51 39.87, 20 39.74 S 23.5 38.96, 25 38.97 S 28.5 39.83, 30 39.83 S 34.52 40.39, 35 38.97 S 38.83 10.94, 40 10 S 44.42 29.59, 45 30.97 S 48.5 33.59, 50 33.64 S 53.5 31.38, 55 31.32 S 58.51 33.03, 60 33.21 S 63.51 32.32, 65 32.52 S 68.52 34.31, 70 34.58 S 73.52 34.57, 75 34.33 S 78.52 33.19, 80 32.95 S 83.5 32.64, 85 32.69 S 88.55 33.7, 90 33.3 S 93.51 30.1, 95 29.94 S 98.5 32.18, 100 32.26 S 103.5 30.51, 105 30.46 S 108.55 31.52, 110 31.92 S 113.51 33.07, 115 33.21 S 118.5 32.82, 120 32.87 S 123.51 33.37, 125 33.55 S 128.54 33.74, 130 34.07 S 133.5 35.75, 135 35.79 S 138.51 34.52, 140 34.33 S 143.5 34.47, 145 34.5 S 148.5 34.62, 150 34.5 S 153.5 33.68, 155 33.72 S 158.53 34.47, 160 34.76 S 163.5 35.61, 165 35.7 S 168.5 35.45, 170 35.36 S 173.52 34.85, 175 35.1 S 178.5 37.12, 180 37.08 S 183.51 34.97, 185 34.84 S 188.5 36.1, 190 36.22 S 193.51 35.79, 195 35.62 S 198.5 35, 200 35.1 S 203.54 35.95, 205 36.3"
          fill="none"/>
    <circle r="4" cx="5" cy="40" fill="#3023AE"/>
    <circle r="4" cx="205" cy="36.3" fill="#C86DD7"/>      
</svg>