<svg width="200" height="50" viewBox="0 0 210 50" xmlns="http://www.w3.org/2000/svg">
    <defs>
        <linearGradient x1="0%" y1="0%" x2="100%" y2="0%" id="a">
            <stop stop-color="#3023AE" offset="0%"/>
            <stop stop-color="#C86DD7" offset="100%"/>
        </linearGradient>
    </defs>
    <path stroke="url(#a)"
          stroke-width="3"
          stroke-linejoin="round"
          stroke-linecap="round"
          d="M5 40 C 5.71 38.68, 8.67 31.46, 10 30.77 S 13.83 33.87, 15 34.81 S 18.58 38.36, 20 38.85 S 23.5 38.27, 25 38.27 S 28.5 38.76, 30 38.85 S 33.5 38.85, 35 38.85 S 38.5 38.76, 40 38.85 S 43.5 39.33, 45 39.42 S 48.5 39.42, 50 39.42 S 53.5 39.42, 55 39.42 S 58.5 39.42, 60 39.42 S 63.5 39.42, 65 39.42 S 68.5 39.42, 70 39.42 S 73.5 39.42, 75 39.42 S 78.5 39.42, 80 39.42 S 83.5 39.42, 85 39.42 S 88.5 39.42, 90 39.42 S 93.5 39.42, 95 39.42 S 99.52 40.84, 100 39.42 S 103.83 10.94, 105 10 S 108.9 30.33, 110 31.35 S 113.5 19.14, 115 19.23 S 119.19 30.66, 120 31.92 S 123.5 34.72, 125 34.81 S 128.52 32.76, 130 32.5 S 133.5 33.08, 135 33.08 S 138.67 33.19, 140 32.5 S 143.5 27.97, 145 27.88 S 148.52 31.66, 150 31.92 S 153.52 29.88, 155 29.62 S 158.56 29.77, 160 30.19 S 163.54 32.84, 165 32.5 S 168.5 27.79, 170 27.88 S 173.64 32.45, 175 33.08 S 178.58 32.99, 180 32.5 S 183.5 29.53, 185 29.62 S 188.61 32.52, 190 33.08 S 193.51 33.82, 195 33.65 S 198.5 31.92, 200 31.92 S 203.58 33.16, 205 33.65"
          fill="none"/>
    <circle r="4" cx="5" cy="40" fill="#3023AE"/>
    <circle r="4" cx="205" cy="33.65" fill="#C86DD7"/>      
</svg>