<svg width="200" height="50" viewBox="0 0 210 50" xmlns="http://www.w3.org/2000/svg">
    <defs>
        <linearGradient x1="0%" y1="0%" x2="100%" y2="0%" id="a">
            <stop stop-color="#3023AE" offset="0%"/>
            <stop stop-color="#C86DD7" offset="100%"/>
        </linearGradient>
    </defs>
    <path stroke="url(#a)"
          stroke-width="3"
          stroke-linejoin="round"
          stroke-linecap="round"
          d="M5 40 C 5.25 38.52, 8.56 10.43, 10 10 S 14.51 35.62, 15 37.04 S 18.52 38.51, 20 38.78 S 23.5 38.83, 25 38.86 S 28.5 38.87, 30 38.97 S 33.5 39.57, 35 39.54 S 38.5 38.82, 40 38.78 S 43.5 39.19, 45 39.29 S 48.5 39.45, 50 39.48 S 53.5 39.52, 55 39.46 S 58.5 39.07, 60 39.08 S 63.5 39.46, 65 39.54 S 68.5 39.66, 70 39.62 S 73.51 39.44, 75 39.29 S 78.59 39.1, 80 38.59 S 83.5 35.72, 85 35.71 S 88.57 38.08, 90 38.54 S 93.5 39.05, 95 38.97 S 98.5 37.93, 100 37.99 S 103.51 39.19, 105 39.35 S 108.51 39.18, 110 39.05 S 113.5 38.56, 115 38.51 S 118.5 38.68, 120 38.73 S 123.5 38.74, 125 38.86 S 128.5 39.45, 130 39.51 S 133.5 39.33, 135 39.29 S 138.5 39.34, 140 39.27 S 143.52 39.08, 145 38.83 S 148.5 37.54, 150 37.61 S 153.53 38.99, 155 39.27 S 158.5 39.46, 160 39.48 S 163.51 39.55, 165 39.38 S 168.55 38.7, 170 38.32 S 173.5 36.86, 175 36.75 S 178.5 37.52, 180 37.61 S 183.51 37.49, 185 37.34 S 188.5 36.71, 190 36.61 S 193.5 36.54, 195 36.66 S 198.5 37.5, 200 37.4 S 203.55 36.41, 205 36.01"
          fill="none"/>
    <circle r="4" cx="5" cy="40" fill="#3023AE"/>
    <circle r="4" cx="205" cy="36.01" fill="#C86DD7"/>      
</svg>