<svg width="200" height="50" viewBox="0 0 210 50" xmlns="http://www.w3.org/2000/svg">
    <defs>
        <linearGradient x1="0%" y1="0%" x2="100%" y2="0%" id="a">
            <stop stop-color="#3023AE" offset="0%"/>
            <stop stop-color="#C86DD7" offset="100%"/>
        </linearGradient>
    </defs>
    <path stroke="url(#a)"
          stroke-width="3"
          stroke-linejoin="round"
          stroke-linecap="round"
          d="M5 40 C 5.54 38.6, 9.08 28.32, 10 27.14 S 13.7 26.4, 15 27.14 S 18.78 31.99, 20 32.86 S 24.01 35.42, 25 34.29 S 29.43 22.82, 30 21.43 S 33.62 9.41, 35 10 S 39.19 24.44, 40 25.71 S 43.62 25.12, 45 25.71 S 48.7 30.74, 50 30 S 53.5 20, 55 20 S 58.62 29.41, 60 30 S 63.7 25.03, 65 24.29 S 68.78 23.42, 70 24.29 S 73.7 30.69, 75 31.43 S 78.7 29.26, 80 30 S 83.52 36.93, 85 37.14 S 88.52 31.64, 90 31.43 S 93.78 34.84, 95 35.71 S 98.7 39.31, 100 38.57 S 103.52 30.21, 105 30 S 108.56 36.73, 110 37.14 S 113.78 33.73, 115 32.86 S 118.56 29.59, 120 30 S 123.52 35.5, 125 35.71 S 128.56 31.02, 130 31.43 S 133.52 38.36, 135 38.57 S 138.7 33.6, 140 32.86 S 143.62 32.27, 145 32.86 S 148.5 37.14, 150 37.14 S 153.52 32.65, 155 32.86 S 158.62 37.98, 160 38.57 S 163.5 37.14, 165 37.14 S 168.5 38.57, 170 38.57 S 173.5 37.14, 175 37.14 S 178.52 38.36, 180 38.57 S 183.5 38.57, 185 38.57 S 188.5 38.57, 190 38.57 S 193.5 38.57, 195 38.57 S 198.5 38.57, 200 38.57"
          fill="none"/>
    <circle r="4" cx="5" cy="40" fill="#3023AE"/>
    <circle r="4" cx="200" cy="38.57" fill="#C86DD7"/>      
</svg>