<svg width="200" height="50" viewBox="0 0 210 50" xmlns="http://www.w3.org/2000/svg">
    <defs>
        <linearGradient x1="0%" y1="0%" x2="100%" y2="0%" id="a">
            <stop stop-color="#3023AE" offset="0%"/>
            <stop stop-color="#C86DD7" offset="100%"/>
        </linearGradient>
    </defs>
    <path stroke="url(#a)"
          stroke-width="3"
          stroke-linejoin="round"
          stroke-linecap="round"
          d="M5 40 C 6.44 39.58, 8.52 38.76, 10 38.54 S 13.5 38.65, 15 38.54 S 18.5 37.8, 20 37.8 S 23.5 38.54, 25 38.54 S 28.91 38.83, 30 37.8 S 33.71 29.78, 35 29.02 S 38.5 31.95, 40 31.95 S 43.5 28.91, 45 29.02 S 48.67 32, 50 32.68 S 53.5 34.15, 55 34.15 S 58.67 33.36, 60 32.68 S 63.63 29.62, 65 29.02 S 68.5 28.18, 70 28.29 S 73.63 29.16, 75 29.76 S 78.63 32.08, 80 32.68 S 83.63 33.55, 85 34.15 S 88.54 37.39, 90 37.07 S 93.79 32.84, 95 31.95 S 98.83 30.7, 100 29.76 S 103.52 24.12, 105 23.9 S 108.87 27.3, 110 28.29 S 113.53 33, 115 32.68 S 118.59 26.62, 120 26.1 S 123.52 29.24, 125 29.02 S 128.79 25.52, 130 24.63 S 133.54 21.39, 135 21.71 S 138.66 26.15, 140 26.83 S 143.54 27.15, 145 26.83 S 148.54 24.95, 150 24.63 S 153.79 25.52, 155 24.63 S 158.83 18.26, 160 17.32 S 163.56 16.17, 165 16.59 S 168.79 19.35, 170 20.24 S 173.5 24.01, 175 23.9 S 178.91 20.54, 180 19.51 S 183.66 15.07, 185 14.39 S 188.5 14.5, 190 14.39 S 193.52 13.88, 195 13.66 S 198.59 13.45, 200 12.93 S 203.71 10.76, 205 10"
          fill="none"/>
    <circle r="4" cx="5" cy="40" fill="#3023AE"/>
    <circle r="4" cx="205" cy="10" fill="#C86DD7"/>      
</svg>