<svg width="200" height="50" viewBox="0 0 210 50" xmlns="http://www.w3.org/2000/svg">
    <defs>
        <linearGradient x1="0%" y1="0%" x2="100%" y2="0%" id="a">
            <stop stop-color="#3023AE" offset="0%"/>
            <stop stop-color="#C86DD7" offset="100%"/>
        </linearGradient>
    </defs>
    <path stroke="url(#a)"
          stroke-width="3"
          stroke-linejoin="round"
          stroke-linecap="round"
          d="M5 40 C 5.25 38.52, 8.82 10.92, 10 10 S 14.44 30.81, 15 32.2 S 18.59 34.29, 20 34.8 S 23.54 35.49, 25 35.84 S 28.52 37.49, 30 37.23 S 33.61 34.66, 35 34.1 S 38.51 33.11, 40 33.24 S 43.54 34.62, 45 34.97 S 48.51 35.82, 50 35.66 S 53.5 33.93, 55 33.93 S 58.51 35.45, 60 35.66 S 63.52 35.58, 65 35.32 S 68.51 33.72, 70 33.93 S 73.5 36.74, 75 36.71 S 78.62 34.34, 80 33.76 S 83.56 32.12, 85 32.54 S 88.55 36.33, 90 36.71 S 93.55 35.52, 95 35.14 S 98.53 34.38, 100 34.1 S 103.54 32.91, 105 33.24 S 108.5 36.46, 110 36.36 S 113.55 32.92, 115 32.54 S 118.53 33.45, 120 33.76 S 123.52 34.36, 125 34.62 S 128.51 35.31, 130 35.49 S 133.51 35.63, 135 35.84 S 138.52 37.14, 140 36.88 S 143.52 34.33, 145 34.1 S 148.54 34.97, 150 35.32 S 153.5 36.45, 155 36.53 S 158.5 35.94, 160 35.84 S 163.5 35.89, 165 35.84 S 168.52 35.26, 170 35.49 S 173.51 37.24, 175 37.4 S 178.54 36.88, 180 36.53 S 183.5 35, 185 34.97 S 188.58 35.89, 190 36.36 S 193.51 38.11, 195 38.27 S 198.59 37.91, 200 37.4 S 203.69 35.35, 205 34.62"
          fill="none"/>
    <circle r="4" cx="5" cy="40" fill="#3023AE"/>
    <circle r="4" cx="205" cy="34.62" fill="#C86DD7"/>      
</svg>