<svg width="200" height="50" viewBox="0 0 210 50" xmlns="http://www.w3.org/2000/svg">
    <defs>
        <linearGradient x1="0%" y1="0%" x2="100%" y2="0%" id="a">
            <stop stop-color="#3023AE" offset="0%"/>
            <stop stop-color="#C86DD7" offset="100%"/>
        </linearGradient>
    </defs>
    <path stroke="url(#a)"
          stroke-width="3"
          stroke-linejoin="round"
          stroke-linecap="round"
          d="M5 40 C 5.97 38.86, 8.5 34.19, 10 34.11 S 13.68 38.75, 15 39.46 S 18.5 39.46, 20 39.46 S 23.5 39.46, 25 39.46 S 28.5 39.46, 30 39.46 S 33.5 39.46, 35 39.46 S 38.5 39.46, 40 39.46 S 43.5 39.46, 45 39.46 S 48.5 39.46, 50 39.46 S 53.55 39.85, 55 39.46 S 59.32 38.13, 60 36.79 S 63.5 19.72, 65 19.64 S 69.32 34.91, 70 36.25 S 73.57 39, 75 39.46 S 78.51 39.62, 80 39.46 S 83.62 38.98, 85 38.39 S 88.55 35.57, 90 35.18 S 94.45 37.1, 95 35.71 S 98.51 9.84, 100 10 S 104.47 35.39, 105 36.79 S 108.51 36.41, 110 36.25 S 113.5 35.71, 115 35.71 S 118.5 36.25, 120 36.25 S 123.5 35.63, 125 35.71 S 128.52 37.03, 130 36.79 S 133.5 34.11, 135 34.11 S 138.6 36.26, 140 36.79 S 143.5 37.78, 145 37.86 S 148.51 37.48, 150 37.32 S 153.62 37.38, 155 36.79 S 158.53 33.36, 160 33.04 S 163.51 34.48, 165 34.64 S 169.08 35.29, 170 34.11 S 173.53 21.48, 175 21.79 S 179.08 35.07, 180 36.25 S 183.5 34.64, 185 34.64 S 188.55 35.86, 190 36.25 S 193.62 37.91, 195 37.32 S 198.62 32.55, 200 31.96 S 203.53 32.72, 205 33.04"
          fill="none"/>
    <circle r="4" cx="5" cy="40" fill="#3023AE"/>
    <circle r="4" cx="205" cy="33.04" fill="#C86DD7"/>      
</svg>