<svg width="200" height="50" viewBox="0 0 210 50" xmlns="http://www.w3.org/2000/svg">
    <defs>
        <linearGradient x1="0%" y1="0%" x2="100%" y2="0%" id="a">
            <stop stop-color="#3023AE" offset="0%"/>
            <stop stop-color="#C86DD7" offset="100%"/>
        </linearGradient>
    </defs>
    <path stroke="url(#a)"
          stroke-width="3"
          stroke-linejoin="round"
          stroke-linecap="round"
          d="M5 40 C 5.85 38.76, 8.54 33.05, 10 32.71 S 13.73 36.85, 15 37.65 S 18.54 38.67, 20 39 S 23.51 39.79, 25 39.93 S 28.54 40.28, 30 39.93 S 33.6 38.1, 35 37.56 S 38.57 36.52, 40 36.06 S 43.51 34.49, 45 34.31 S 48.5 34.8, 50 34.83 S 53.51 34.73, 55 34.52 S 58.52 33.67, 60 33.45 S 63.52 33.29, 65 33.05 S 68.51 32.05, 70 31.86 S 73.5 31.72, 75 31.74 S 78.5 32.07, 80 31.98 S 83.51 30.92, 85 31.12 S 88.53 33.05, 90 33.35 S 93.6 33.69, 95 33.14 S 98.57 29.89, 100 29.44 S 103.51 29.79, 105 29.98 S 108.52 30.51, 110 30.75 S 113.55 31.98, 115 31.58 S 118.6 28.55, 120 28.02 S 123.5 27.88, 125 27.78 S 128.63 27.98, 130 27.37 S 133.6 23.84, 135 23.29 S 138.5 23.38, 140 23.43 S 143.53 23.91, 145 23.63 S 148.5 21.53, 150 21.54 S 153.51 23.52, 155 23.67 S 158.54 22.91, 160 22.56 S 163.7 22.03, 165 21.28 S 168.52 16.98, 170 16.74 S 173.57 19.22, 175 19.68 S 178.54 20.27, 180 19.94 S 183.64 18.04, 185 17.4 S 188.62 15.79, 190 15.2 S 193.52 13.34, 195 13.11 S 198.57 14.13, 200 13.68 S 203.79 10.89, 205 10"
          fill="none"/>
    <circle r="4" cx="5" cy="40" fill="#3023AE"/>
    <circle r="4" cx="205" cy="10" fill="#C86DD7"/>      
</svg>