<svg width="200" height="50" viewBox="0 0 210 50" xmlns="http://www.w3.org/2000/svg">
    <defs>
        <linearGradient x1="0%" y1="0%" x2="100%" y2="0%" id="a">
            <stop stop-color="#3023AE" offset="0%"/>
            <stop stop-color="#C86DD7" offset="100%"/>
        </linearGradient>
    </defs>
    <path stroke="url(#a)"
          stroke-width="3"
          stroke-linejoin="round"
          stroke-linecap="round"
          d="M5 40 C 6.5 39.89, 8.5 39.63, 10 39.62 S 13.54 40.29, 15 39.93 S 18.72 37.96, 20 37.17 S 23.52 33.52, 25 33.78 S 29.42 40.32, 30 38.94 S 33.91 11.03, 35 10 S 39.46 28.09, 40 29.49 S 44.11 37.08, 45 35.87 S 48.51 16.03, 50 15.88 S 54.38 33.52, 55 34.89 S 58.5 38.1, 60 38.04 S 63.5 34.61, 65 34.51 S 68.63 36.8, 70 37.4 S 73.5 38.93, 75 38.89 S 78.5 37.22, 80 37.12 S 83.51 38.39, 85 38.23 S 88.58 36.5, 90 36.02 S 93.55 34.44, 95 34.84 S 98.53 38.43, 100 38.75 S 103.59 37.53, 105 37.03 S 108.52 34.95, 110 35.22 S 113.51 38.68, 115 38.85 S 118.6 36.91, 120 36.38 S 123.55 34.69, 125 35.06 S 128.51 38.71, 130 38.89 S 133.54 36.6, 135 36.27 S 138.56 36.18, 140 36.62 S 143.54 38.98, 145 39.31 S 148.5 38.98, 150 38.91 S 153.5 38.72, 155 38.83 S 158.5 39.61, 160 39.62 S 163.5 39.04, 165 38.93 S 168.5 38.79, 170 38.91 S 173.5 39.73, 175 39.73 S 178.51 39.03, 180 38.88 S 183.5 38.62, 185 38.74 S 188.57 40.16, 190 39.69 S 193.52 35.74, 195 35.47 S 198.6 37.31, 200 37.86 S 203.57 38.97, 205 39.41"
          fill="none"/>
    <circle r="4" cx="5" cy="40" fill="#3023AE"/>
    <circle r="4" cx="205" cy="39.41" fill="#C86DD7"/>      
</svg>