<svg width="200" height="50" viewBox="0 0 210 50" xmlns="http://www.w3.org/2000/svg">
    <defs>
        <linearGradient x1="0%" y1="0%" x2="100%" y2="0%" id="a">
            <stop stop-color="#3023AE" offset="0%"/>
            <stop stop-color="#C86DD7" offset="100%"/>
        </linearGradient>
    </defs>
    <path stroke="url(#a)"
          stroke-width="3"
          stroke-linejoin="round"
          stroke-linecap="round"
          d="M5 40 C 5.25 38.52, 9.22 11.28, 10 10 S 13.66 22.79, 15 23.46 S 18.8 15.87, 20 14.98 S 23.53 16.32, 25 16.04 S 28.55 13.47, 30 13.07 S 33.54 12.95, 35 13.29 S 38.55 15.01, 40 15.41 S 43.73 15.24, 45 16.04 S 48.81 20.86, 50 21.77 S 53.57 23.2, 55 23.67 S 58.56 24.62, 60 25.05 S 63.5 26.73, 65 26.64 S 68.52 24.66, 70 24.42 S 73.53 24.74, 75 25.05 S 78.59 26.02, 80 26.54 S 83.51 28.97, 85 28.76 S 88.58 25.65, 90 25.16 S 93.61 24.7, 95 25.27 S 98.54 28.96, 100 29.29 S 103.53 27.8, 105 27.49 S 108.57 27.62, 110 27.17 S 113.5 24.29, 115 24.31 S 118.54 26.95, 120 27.28 S 123.51 26.37, 125 26.54 S 128.53 28.17, 130 28.45 S 133.52 28.2, 135 28.45 S 138.5 30.03, 140 30.14 S 143.55 29.56, 145 29.19 S 148.51 27.41, 150 27.6 S 153.57 29.99, 155 30.46 S 158.51 31.02, 160 30.88 S 163.51 29.35, 165 29.51 S 168.52 31.69, 170 31.94 S 173.5 31.26, 175 31.2 S 178.5 31.57, 180 31.52 S 183.51 30.74, 185 30.88 S 188.51 32.26, 190 32.47 S 193.51 32.12, 195 32.26 S 198.5 33.41, 200 33.43 S 203.53 32.68, 205 32.37"
          fill="none"/>
    <circle r="4" cx="5" cy="40" fill="#3023AE"/>
    <circle r="4" cx="205" cy="32.37" fill="#C86DD7"/>      
</svg>