<svg width="200" height="50" viewBox="0 0 210 50" xmlns="http://www.w3.org/2000/svg">
    <defs>
        <linearGradient x1="0%" y1="0%" x2="100%" y2="0%" id="a">
            <stop stop-color="#3023AE" offset="0%"/>
            <stop stop-color="#C86DD7" offset="100%"/>
        </linearGradient>
    </defs>
    <path stroke="url(#a)"
          stroke-width="3"
          stroke-linejoin="round"
          stroke-linecap="round"
          d="M5 40 C 6.5 39.96, 8.5 39.9, 10 39.88 S 13.5 39.88, 15 39.88 S 18.5 39.88, 20 39.88 S 23.5 39.88, 25 39.88 S 28.5 39.88, 30 39.88 S 33.51 40.02, 35 39.88 S 38.55 39.3, 40 38.92 S 44.51 38.67, 45 37.25 S 48.6 10.55, 50 10 S 54.46 31.91, 55 33.31 S 58.68 35.23, 60 35.94 S 63.55 38.32, 65 38.69 S 68.5 38.52, 70 38.45 S 73.54 38.54, 75 38.21 S 78.5 36.27, 80 36.18 S 83.55 37.23, 85 37.61 S 88.5 38.87, 90 38.8 S 93.5 37.09, 95 37.13 S 98.51 38.86, 100 39.04 S 103.5 38.37, 105 38.33 S 108.5 38.82, 110 38.8 S 113.51 38.4, 115 38.21 S 118.5 37.6, 120 37.49 S 123.5 37.47, 125 37.49 S 128.51 37.43, 130 37.61 S 133.5 38.69, 135 38.69 S 138.5 37.65, 140 37.61 S 143.5 38.43, 145 38.45 S 148.53 38.05, 150 37.73 S 153.51 36.16, 155 36.29 S 158.55 38.19, 160 38.57 S 163.51 38.8, 165 38.92 S 168.5 39.38, 170 39.4 S 173.51 39.16, 175 39.04 S 178.51 38.71, 180 38.57 S 183.5 38.16, 185 38.09 S 188.5 38, 190 38.09 S 193.5 38.73, 195 38.69 S 198.54 38.18, 200 37.85 S 203.56 36.83, 205 36.41"
          fill="none"/>
    <circle r="4" cx="5" cy="40" fill="#3023AE"/>
    <circle r="4" cx="205" cy="36.41" fill="#C86DD7"/>      
</svg>