<svg width="200" height="50" viewBox="0 0 210 50" xmlns="http://www.w3.org/2000/svg">
    <defs>
        <linearGradient x1="0%" y1="0%" x2="100%" y2="0%" id="a">
            <stop stop-color="#3023AE" offset="0%"/>
            <stop stop-color="#C86DD7" offset="100%"/>
        </linearGradient>
    </defs>
    <path stroke="url(#a)"
          stroke-width="3"
          stroke-linejoin="round"
          stroke-linecap="round"
          d="M5 40 C 5.25 38.52, 9.34 11.35, 10 10 S 13.74 18.91, 15 19.73 S 18.5 16.49, 20 16.49 S 23.57 19.27, 25 19.73 S 28.5 19.73, 30 19.73 S 33.54 20.08, 35 19.73 S 38.65 17.96, 40 17.3 S 43.7 14.12, 45 14.86 S 48.83 22.03, 50 22.97 S 53.57 23.43, 55 22.97 S 58.5 19.61, 60 19.73 S 63.5 23.66, 65 23.78 S 68.7 19.8, 70 20.54 S 73.7 28.72, 75 29.46 S 78.7 26.96, 80 26.22 S 83.52 23.54, 85 23.78 S 88.88 28.84, 90 27.84 S 93.52 15.1, 95 14.86 S 98.57 25.76, 100 26.22 S 103.57 18.57, 105 18.11 S 108.88 21.97, 110 22.97 S 113.52 26.79, 115 27.03 S 118.54 24.95, 120 24.59 S 123.52 24.35, 125 24.59 S 128.65 26.88, 130 26.22 S 133.65 20.39, 135 19.73 S 138.57 21.81, 140 21.35 S 143.52 16.25, 145 16.49 S 148.61 22.41, 150 22.97 S 153.5 20.66, 155 20.54 S 158.5 22.28, 160 22.16 S 163.74 18.91, 165 19.73 S 168.61 28.09, 170 28.65 S 173.61 24.34, 175 23.78 S 178.61 25.15, 180 24.59 S 183.51 19.61, 185 19.73 S 188.5 25.29, 190 25.41 S 193.57 21, 195 20.54 S 198.57 21.7, 200 22.16 S 203.57 23.32, 205 23.78"
          fill="none"/>
    <circle r="4" cx="5" cy="40" fill="#3023AE"/>
    <circle r="4" cx="205" cy="23.78" fill="#C86DD7"/>      
</svg>