<svg width="200" height="50" viewBox="0 0 210 50" xmlns="http://www.w3.org/2000/svg">
    <defs>
        <linearGradient x1="0%" y1="0%" x2="100%" y2="0%" id="a">
            <stop stop-color="#3023AE" offset="0%"/>
            <stop stop-color="#C86DD7" offset="100%"/>
        </linearGradient>
    </defs>
    <path stroke="url(#a)"
          stroke-width="3"
          stroke-linejoin="round"
          stroke-linecap="round"
          d="M5 40 C 6.29 39.24, 8.5 37.18, 10 37.07 S 13.54 38.95, 15 39.27 S 18.5 39.27, 20 39.27 S 23.5 39.27, 25 39.27 S 28.52 39.49, 30 39.27 S 33.56 38.22, 35 37.8 S 38.52 36.56, 40 36.34 S 43.56 35.92, 45 36.34 S 48.5 39.16, 50 39.27 S 53.56 37.49, 55 37.07 S 59.48 37.75, 60 36.34 S 63.53 10.32, 65 10 S 69.52 32.73, 70 34.15 S 73.59 38.76, 75 39.27 S 78.5 37.91, 80 37.8 S 83.63 39.14, 85 38.54 S 88.67 34.09, 90 33.41 S 93.56 32.99, 95 33.41 S 98.5 36.23, 100 36.34 S 103.54 33.83, 105 34.15 S 108.53 38.22, 110 38.54 S 113.5 36.23, 115 36.34 S 118.56 38.85, 120 39.27 S 123.54 39.59, 125 39.27 S 128.54 37.39, 130 37.07 S 133.52 37.29, 135 37.07 S 138.54 35.29, 140 35.61 S 143.59 38.75, 145 39.27 S 148.56 39.69, 150 39.27 S 153.52 36.56, 155 36.34 S 158.54 37.48, 160 37.8 S 163.52 38.32, 165 38.54 S 168.5 39.38, 170 39.27 S 173.56 38.22, 175 37.8 S 178.53 36.66, 180 36.34 S 183.52 35.39, 185 35.61 S 188.59 37.28, 190 37.8 S 193.5 39.16, 195 39.27 S 198.52 38.76, 200 38.54 S 203.52 38.02, 205 37.8"
          fill="none"/>
    <circle r="4" cx="5" cy="40" fill="#3023AE"/>
    <circle r="4" cx="205" cy="37.8" fill="#C86DD7"/>      
</svg>