<svg width="200" height="50" viewBox="0 0 210 50" xmlns="http://www.w3.org/2000/svg">
    <defs>
        <linearGradient x1="0%" y1="0%" x2="100%" y2="0%" id="a">
            <stop stop-color="#3023AE" offset="0%"/>
            <stop stop-color="#C86DD7" offset="100%"/>
        </linearGradient>
    </defs>
    <path stroke="url(#a)"
          stroke-width="3"
          stroke-linejoin="round"
          stroke-linecap="round"
          d="M5 40 C 5.47 38.58, 8.66 25.67, 10 25 S 13.94 33.94, 15 35 S 18.5 35, 20 35 S 23.5 35, 25 35 S 28.5 35, 30 35 S 33.5 35, 35 35 S 38.5 35, 40 35 S 43.5 35, 45 35 S 48.5 35, 50 35 S 53.5 35, 55 35 S 58.5 35, 60 35 S 63.5 35, 65 35 S 68.5 35, 70 35 S 73.5 35, 75 35 S 78.5 35, 80 35 S 83.5 35, 85 35 S 88.5 35, 90 35 S 93.5 35, 95 35 S 98.5 35, 100 35 S 103.5 35, 105 35 S 108.5 35, 110 35 S 113.5 35, 115 35 S 118.5 35, 120 35 S 123.5 35, 125 35 S 128.5 35, 130 35 S 133.5 35, 135 35 S 138.5 35, 140 35 S 143.5 35, 145 35 S 148.5 35, 150 35 S 153.5 35, 155 35 S 158.66 35.67, 160 35 S 163.66 30.67, 165 30 S 168.66 29.33, 170 30 S 174.33 36.34, 175 35 S 178.94 11.06, 180 10 S 184.44 23.61, 185 25 S 188.94 33.94, 190 35 S 194.33 36.34, 195 35 S 198.66 15.67, 200 15 S 204.53 28.58, 205 30"
          fill="none"/>
    <circle r="4" cx="5" cy="40" fill="#3023AE"/>
    <circle r="4" cx="205" cy="30" fill="#C86DD7"/>      
</svg>