<svg width="200" height="50" viewBox="0 0 210 50" xmlns="http://www.w3.org/2000/svg">
    <defs>
        <linearGradient x1="0%" y1="0%" x2="100%" y2="0%" id="a">
            <stop stop-color="#3023AE" offset="0%"/>
            <stop stop-color="#C86DD7" offset="100%"/>
        </linearGradient>
    </defs>
    <path stroke="url(#a)"
          stroke-width="3"
          stroke-linejoin="round"
          stroke-linecap="round"
          d="M5 40 C 6.49 39.85, 8.52 39.72, 10 39.49 S 13.5 38.55, 15 38.47 S 18.5 38.9, 20 38.98 S 23.5 38.9, 25 38.98 S 29.12 40.7, 30 39.49 S 34.52 26.67, 35 25.25 S 38.89 8.99, 40 10 S 44.52 32.99, 45 34.41 S 48.64 38.87, 50 39.49 S 53.5 38.98, 55 38.98 S 58.5 39.41, 60 39.49 S 63.51 39.64, 65 39.49 S 68.51 38.62, 70 38.47 S 73.5 38.39, 75 38.47 S 78.5 38.9, 80 38.98 S 83.5 38.98, 85 38.98 S 88.5 38.9, 90 38.98 S 93.5 39.49, 95 39.49 S 98.53 39.28, 100 38.98 S 103.5 37.54, 105 37.46 S 108.53 38.17, 110 38.47 S 113.5 39.41, 115 39.49 S 118.5 38.98, 120 38.98 S 123.5 39.41, 125 39.49 S 128.5 39.57, 130 39.49 S 133.5 38.98, 135 38.98 S 138.5 39.41, 140 39.49 S 143.5 39.49, 145 39.49 S 148.5 39.49, 150 39.49 S 153.53 39.79, 155 39.49 S 158.59 37.96, 160 37.46 S 163.53 35.63, 165 35.93 S 168.59 38.99, 170 39.49 S 173.5 39.57, 175 39.49 S 178.51 39.13, 180 38.98 S 183.5 38.39, 185 38.47 S 188.51 39.34, 190 39.49 S 193.5 39.57, 195 39.49 S 198.5 38.98, 200 38.98 S 203.51 39.34, 205 39.49"
          fill="none"/>
    <circle r="4" cx="5" cy="40" fill="#3023AE"/>
    <circle r="4" cx="205" cy="39.49" fill="#C86DD7"/>      
</svg>