<svg width="200" height="50" viewBox="0 0 210 50" xmlns="http://www.w3.org/2000/svg">
    <defs>
        <linearGradient x1="0%" y1="0%" x2="100%" y2="0%" id="a">
            <stop stop-color="#3023AE" offset="0%"/>
            <stop stop-color="#C86DD7" offset="100%"/>
        </linearGradient>
    </defs>
    <path stroke="url(#a)"
          stroke-width="3"
          stroke-linejoin="round"
          stroke-linecap="round"
          d="M5 40 C 5.73 38.69, 8.56 31.43, 10 31 S 13.71 36.23, 15 37 S 18.5 37, 20 37 S 23.5 37, 25 37 S 28.71 37.77, 30 37 S 33.56 31.43, 35 31 S 38.5 34, 40 34 S 43.56 31.43, 45 31 S 48.5 31, 50 31 S 53.56 30.57, 55 31 S 58.71 34.77, 60 34 S 64.36 26.35, 65 25 S 68.5 13, 70 13 S 73.56 25.43, 75 25 S 79.17 11.25, 80 10 S 84.36 8.65, 85 10 S 88.71 30.23, 90 31 S 93.56 15.57, 95 16 S 99.17 32.75, 100 34 S 104.04 32.15, 105 31 S 109.04 23.15, 110 22 S 114.04 20.15, 115 19 S 119.04 8.85, 120 10 S 124.36 29.65, 125 31 S 128.71 31.77, 130 31 S 133.89 26, 135 25 S 138.71 21.23, 140 22 S 143.71 31.77, 145 31 S 149.04 17.15, 150 16 S 153.71 18.23, 155 19 S 158.5 22, 160 22 S 163.56 19.43, 165 19 S 168.5 19, 170 19 S 173.56 19.43, 175 19 S 178.89 17, 180 16 S 184.27 8.69, 185 10 S 188.56 33.57, 190 34 S 194.17 14.25, 195 13 S 198.56 19.43, 200 19 S 204.27 11.31, 205 10"
          fill="none"/>
    <circle r="4" cx="5" cy="40" fill="#3023AE"/>
    <circle r="4" cx="205" cy="10" fill="#C86DD7"/>      
</svg>