<svg width="200" height="50" viewBox="0 0 210 50" xmlns="http://www.w3.org/2000/svg">
    <defs>
        <linearGradient x1="0%" y1="0%" x2="100%" y2="0%" id="a">
            <stop stop-color="#3023AE" offset="0%"/>
            <stop stop-color="#C86DD7" offset="100%"/>
        </linearGradient>
    </defs>
    <path stroke="url(#a)"
          stroke-width="3"
          stroke-linejoin="round"
          stroke-linecap="round"
          d="M5 40 C 5.25 38.52, 8.72 10.77, 10 10 S 14.45 32.57, 15 33.97 S 18.82 36.43, 20 35.51 S 23.55 26.56, 25 26.18 S 28.74 32.05, 30 32.87 S 33.52 32.47, 35 32.72 S 38.5 34.5, 40 34.56 S 43.51 33.27, 45 33.13 S 48.52 33.85, 50 33.6 S 53.5 31.54, 55 31.42 S 58.53 32.55, 60 32.83 S 63.5 33.32, 65 33.34 S 68.5 32.94, 70 32.99 S 73.5 33.59, 75 33.7 S 78.56 34.15, 80 33.75 S 83.51 31.08, 85 30.91 S 88.53 32.34, 90 32.61 S 93.5 32.82, 95 32.77 S 98.51 32.1, 100 32.3 S 103.53 33.85, 105 34.14 S 108.51 34.4, 110 34.24 S 113.5 33.06, 115 33.04 S 118.51 33.9, 120 34.08 S 123.5 34.19, 125 34.23 S 128.5 34.46, 130 34.36 S 133.51 33.72, 135 33.54 S 138.53 33.42, 140 33.15 S 143.56 32.11, 145 31.69 S 148.5 30.32, 150 30.23 S 153.51 30.92, 155 31.07 S 158.69 31.98, 160 31.24 S 163.53 25.75, 165 25.44 S 168.52 29.41, 170 29.15 S 173.52 23.93, 175 23.7 S 178.74 26.79, 180 27.6 S 183.61 30.71, 185 30.14 S 188.51 23.7, 190 23.49 S 193.79 27.86, 195 28.74 S 198.58 31.24, 200 30.75 S 203.99 26.38, 205 25.27"
          fill="none"/>
    <circle r="4" cx="5" cy="40" fill="#3023AE"/>
    <circle r="4" cx="205" cy="25.27" fill="#C86DD7"/>      
</svg>