<svg width="200" height="50" viewBox="0 0 210 50" xmlns="http://www.w3.org/2000/svg">
    <defs>
        <linearGradient x1="0%" y1="0%" x2="100%" y2="0%" id="a">
            <stop stop-color="#3023AE" offset="0%"/>
            <stop stop-color="#C86DD7" offset="100%"/>
        </linearGradient>
    </defs>
    <path stroke="url(#a)"
          stroke-width="3"
          stroke-linejoin="round"
          stroke-linecap="round"
          d="M5 40 C 6.08 38.96, 8.51 35.38, 10 35.2 S 13.59 38.29, 15 38.8 S 18.5 38.8, 20 38.8 S 23.5 38.8, 25 38.8 S 28.5 38.8, 30 38.8 S 33.5 38.8, 35 38.8 S 38.5 38.8, 40 38.8 S 43.5 38.8, 45 38.8 S 48.5 38.8, 50 38.8 S 53.5 38.8, 55 38.8 S 58.5 38.8, 60 38.8 S 63.5 38.8, 65 38.8 S 68.5 38.8, 70 38.8 S 73.5 38.8, 75 38.8 S 78.5 38.8, 80 38.8 S 83.5 38.8, 85 38.8 S 88.5 38.8, 90 38.8 S 93.59 39.31, 95 38.8 S 98.71 35.97, 100 35.2 S 103.65 33.45, 105 32.8 S 108.59 30.91, 110 30.4 S 113.59 29.71, 115 29.2 S 118.59 26.29, 120 26.8 S 123.85 31.84, 125 32.8 S 128.85 36.16, 130 35.2 S 133.85 25.36, 135 24.4 S 138.65 27.45, 140 26.8 S 144.04 20.75, 145 19.6 S 149.04 13.65, 150 14.8 S 154.27 30.29, 155 31.6 S 159.14 34.03, 160 32.8 S 164.4 18.57, 165 17.2 S 168.54 9.65, 170 10 S 173.51 19.42, 175 19.6 S 178.71 10.43, 180 11.2 S 184.14 24.37, 185 25.6 S 188.78 26.48, 190 25.6 S 193.51 18.58, 195 18.4 S 198.59 24.91, 200 24.4 S 204.31 16.13, 205 14.8"
          fill="none"/>
    <circle r="4" cx="5" cy="40" fill="#3023AE"/>
    <circle r="4" cx="205" cy="14.8" fill="#C86DD7"/>      
</svg>