<svg width="200" height="50" viewBox="0 0 210 50" xmlns="http://www.w3.org/2000/svg">
    <defs>
        <linearGradient x1="0%" y1="0%" x2="100%" y2="0%" id="a">
            <stop stop-color="#3023AE" offset="0%"/>
            <stop stop-color="#C86DD7" offset="100%"/>
        </linearGradient>
    </defs>
    <path stroke="url(#a)"
          stroke-width="3"
          stroke-linejoin="round"
          stroke-linecap="round"
          d="M5 40 C 6.5 39.93, 8.5 39.81, 10 39.78 S 13.5 39.78, 15 39.78 S 18.5 39.78, 20 39.78 S 23.53 40.1, 25 39.78 S 29.52 39.01, 30 37.59 S 33.51 9.84, 35 10 S 39.47 37.29, 40 38.69 S 43.51 36.37, 45 36.5 S 48.53 39.85, 50 39.56 S 53.53 34.85, 55 34.53 S 58.63 36.77, 60 37.37 S 63.5 38.84, 65 38.91 S 68.5 37.78, 70 37.81 S 73.53 38.83, 75 39.12 S 78.5 39.71, 80 39.78 S 83.5 39.59, 85 39.56 S 88.5 39.53, 90 39.56 S 93.5 39.88, 95 39.78 S 98.55 39.29, 100 38.91 S 103.5 37.15, 105 37.15 S 108.52 38.65, 110 38.91 S 113.51 38.78, 115 38.91 S 118.5 39.88, 120 39.78 S 123.65 38.9, 125 38.25 S 128.5 34.86, 130 34.96 S 133.63 38.31, 135 38.91 S 138.5 39.24, 140 39.34 S 143.5 39.56, 145 39.56 S 148.5 39.41, 150 39.34 S 153.5 39.09, 155 39.12 S 158.5 39.46, 160 39.56 S 163.5 39.78, 165 39.78 S 168.5 39.56, 170 39.56 S 173.5 39.78, 175 39.78 S 178.5 39.56, 180 39.56 S 183.5 39.75, 185 39.78 S 188.5 39.78, 190 39.78 S 193.5 39.81, 195 39.78 S 198.51 39.69, 200 39.56 S 203.51 39.1, 205 38.91"
          fill="none"/>
    <circle r="4" cx="5" cy="40" fill="#3023AE"/>
    <circle r="4" cx="205" cy="38.91" fill="#C86DD7"/>      
</svg>