<svg width="200" height="50" viewBox="0 0 210 50" xmlns="http://www.w3.org/2000/svg">
    <defs>
        <linearGradient x1="0%" y1="0%" x2="100%" y2="0%" id="a">
            <stop stop-color="#3023AE" offset="0%"/>
            <stop stop-color="#C86DD7" offset="100%"/>
        </linearGradient>
    </defs>
    <path stroke="url(#a)"
          stroke-width="3"
          stroke-linejoin="round"
          stroke-linecap="round"
          d="M5 40 C 6.5 39.99, 9.29 41.3, 10 39.98 S 13.83 22.43, 15 21.49 S 18.74 31.1, 20 31.91 S 23.64 28.5, 25 27.87 S 28.68 28.02, 30 27.3 S 34.25 23.71, 35 22.41 S 38.53 10.32, 40 10 S 43.73 19.45, 45 20.25 S 48.53 16.65, 50 16.34 S 53.54 17.83, 55 18.16 S 58.5 18.68, 60 18.59 S 63.53 17.85, 65 17.54 S 68.5 16.46, 70 16.5 S 73.51 17.62, 75 17.83 S 78.6 18.45, 80 17.92 S 83.5 14.02, 85 14.04 S 88.5 18.09, 90 18.08 S 93.63 13.37, 95 13.97 S 98.96 21.37, 100 22.45 S 103.56 24.03, 105 24.43 S 108.5 25.31, 110 25.25 S 113.75 24.86, 115 24.03 S 118.56 19.07, 120 18.64 S 123.57 20.62, 125 21.07 S 128.63 21.21, 130 21.81 S 133.64 24.8, 135 25.43 S 138.53 26.11, 140 26.43 S 143.6 28.17, 145 27.62 S 148.5 22.47, 150 22.5 S 153.71 27.03, 155 27.8 S 158.53 28.79, 160 28.52 S 163.53 25.62, 165 25.94 S 168.64 30.04, 170 30.68 S 173.51 30.79, 175 30.65 S 178.51 29.85, 180 29.71 S 183.5 29.79, 185 29.71 S 188.51 29.34, 190 29.18 S 193.52 28.37, 195 28.61 S 198.52 30.53, 200 30.79 S 203.51 30.48, 205 30.35"
          fill="none"/>
    <circle r="4" cx="5" cy="40" fill="#3023AE"/>
    <circle r="4" cx="205" cy="30.35" fill="#C86DD7"/>      
</svg>