<svg width="200" height="50" viewBox="0 0 210 50" xmlns="http://www.w3.org/2000/svg">
    <defs>
        <linearGradient x1="0%" y1="0%" x2="100%" y2="0%" id="a">
            <stop stop-color="#3023AE" offset="0%"/>
            <stop stop-color="#C86DD7" offset="100%"/>
        </linearGradient>
    </defs>
    <path stroke="url(#a)"
          stroke-width="3"
          stroke-linejoin="round"
          stroke-linecap="round"
          d="M5 40 C 6.07 38.95, 8.56 35.5, 10 35.08 S 13.65 37.71, 15 37.05 S 19.43 31.55, 20 30.16 S 24.33 13.8, 25 12.46 S 28.71 9.24, 30 10 S 34.25 17.06, 35 18.36 S 38.98 26.11, 40 27.21 S 43.6 28.63, 45 29.18 S 48.68 31.86, 50 31.15 S 54.01 24.89, 55 23.77 S 58.51 19.69, 60 19.84 S 63.85 23.79, 65 24.75 S 68.68 27.49, 70 28.2 S 73.51 30.01, 75 30.16 S 78.88 30.17, 80 29.18 S 83.98 22.41, 85 21.31 S 88.71 17.6, 90 18.36 S 94.05 26.05, 95 27.21 S 98.51 30.81, 100 30.66 S 103.65 26.89, 105 26.23 S 108.68 26.45, 110 25.74 S 113.51 20.97, 115 20.82 S 118.93 23.7, 120 24.75 S 123.58 30.17, 125 30.66 S 128.93 29.25, 130 28.2 S 133.52 20.6, 135 20.82 S 138.5 29.6, 140 29.67 S 143.58 21.8, 145 21.31 S 148.65 25.57, 150 26.23 S 153.53 26.52, 155 26.23 S 158.51 24.11, 160 24.26 S 163.52 26.99, 165 27.21 S 168.5 25.74, 170 25.74 S 173.6 26.66, 175 27.21 S 178.5 29.74, 180 29.67 S 183.56 27.14, 185 26.72 S 188.5 26.79, 190 26.72 S 193.53 25.94, 195 26.23 S 198.63 28.08, 200 28.69 S 203.6 30.11, 205 30.66"
          fill="none"/>
    <circle r="4" cx="5" cy="40" fill="#3023AE"/>
    <circle r="4" cx="205" cy="30.66" fill="#C86DD7"/>      
</svg>