<svg width="200" height="50" viewBox="0 0 210 50" xmlns="http://www.w3.org/2000/svg">
    <defs>
        <linearGradient x1="0%" y1="0%" x2="100%" y2="0%" id="a">
            <stop stop-color="#3023AE" offset="0%"/>
            <stop stop-color="#C86DD7" offset="100%"/>
        </linearGradient>
    </defs>
    <path stroke="url(#a)"
          stroke-width="3"
          stroke-linejoin="round"
          stroke-linecap="round"
          d="M5 40 C 6.16 39.05, 9.53 37.34, 10 35.92 S 13.79 10.89, 15 10 S 19.33 27.27, 20 28.61 S 23.52 29.7, 25 29.95 S 28.5 30.2, 30 30.31 S 33.5 30.58, 35 30.67 S 38.53 31.15, 40 30.88 S 43.5 28.79, 45 28.82 S 48.5 31.05, 50 31.06 S 53.51 28.99, 55 28.86 S 58.54 29.89, 60 30.22 S 63.53 30.83, 65 31.15 S 68.5 32.37, 70 32.37 S 73.5 31.08, 75 31.17 S 78.54 32.62, 80 32.98 S 83.52 33.92, 85 33.66 S 88.52 31.47, 90 31.22 S 93.5 31.91, 95 31.98 S 98.5 31.65, 100 31.69 S 103.51 32.08, 105 32.26 S 108.5 32.83, 110 32.91 S 113.66 33.49, 115 32.82 S 118.53 28.21, 120 27.93 S 123.66 30.23, 125 30.9 S 128.51 32.72, 130 32.89 S 133.51 32.15, 135 32.01 S 138.51 31.79, 140 31.96 S 143.5 33.16, 145 33.12 S 148.5 31.76, 150 31.67 S 153.52 32.31, 155 32.55 S 158.51 33.13, 160 33.3 S 163.51 33.53, 165 33.68 S 168.5 34.22, 170 34.32 S 173.5 34.43, 175 34.34 S 178.5 33.64, 180 33.75 S 183.51 34.91, 185 35.06 S 188.5 34.73, 190 34.75 S 193.5 35.16, 195 35.22 S 198.51 35.32, 200 35.15 S 203.53 34.39, 205 34.07"
          fill="none"/>
    <circle r="4" cx="5" cy="40" fill="#3023AE"/>
    <circle r="4" cx="205" cy="34.07" fill="#C86DD7"/>      
</svg>