<svg width="200" height="50" viewBox="0 0 210 50" xmlns="http://www.w3.org/2000/svg">
    <defs>
        <linearGradient x1="0%" y1="0%" x2="100%" y2="0%" id="a">
            <stop stop-color="#3023AE" offset="0%"/>
            <stop stop-color="#C86DD7" offset="100%"/>
        </linearGradient>
    </defs>
    <path stroke="url(#a)"
          stroke-width="3"
          stroke-linejoin="round"
          stroke-linecap="round"
          d="M5 40 C 6.49 39.81, 8.5 39.41, 10 39.36 S 13.5 39.63, 15 39.68 S 18.5 39.68, 20 39.68 S 23.5 39.68, 25 39.68 S 28.5 39.78, 30 39.68 S 33.51 39.23, 35 39.04 S 38.51 38.54, 40 38.4 S 43.5 38.04, 45 38.09 S 48.5 38.82, 50 38.72 S 53.52 37.69, 55 37.45 S 58.7 37.88, 60 37.13 S 63.61 32.27, 65 31.7 S 68.5 33.08, 70 32.98 S 73.53 30.78, 75 31.06 S 78.5 34.98, 80 34.89 S 83.55 30.8, 85 30.43 S 88.54 32.01, 90 32.34 S 93.51 32.47, 95 32.66 S 98.51 33.43, 100 33.62 S 103.51 33.8, 105 33.94 S 108.51 34.76, 110 34.57 S 113.51 32.52, 115 32.66 S 118.61 36.1, 120 35.53 S 123.65 29.16, 125 28.51 S 129.29 32.06, 130 30.74 S 133.5 10, 135 10 S 139.42 29.36, 140 30.74 S 143.68 32.9, 145 33.62 S 148.5 36.07, 150 36.17 S 153.5 34.36, 155 34.26 S 158.5 35.53, 160 35.53 S 163.5 34.21, 165 34.26 S 168.59 36.35, 170 35.85 S 173.61 31.31, 175 30.74 S 178.7 30.95, 180 31.7 S 183.5 36.59, 185 36.49 S 188.74 31.87, 190 31.06 S 193.56 29.69, 195 30.11 S 198.51 33.75, 200 33.94 S 203.66 32.06, 205 31.38"
          fill="none"/>
    <circle r="4" cx="5" cy="40" fill="#3023AE"/>
    <circle r="4" cx="205" cy="31.380000000000003" fill="#C86DD7"/>      
</svg>