<svg width="200" height="50" viewBox="0 0 210 50" xmlns="http://www.w3.org/2000/svg">
    <defs>
        <linearGradient x1="0%" y1="0%" x2="100%" y2="0%" id="a">
            <stop stop-color="#3023AE" offset="0%"/>
            <stop stop-color="#C86DD7" offset="100%"/>
        </linearGradient>
    </defs>
    <path stroke="url(#a)"
          stroke-width="3"
          stroke-linejoin="round"
          stroke-linecap="round"
          d="M5 40 C 5.25 38.52, 8.54 10.36, 10 10 S 14.5 36.09, 15 37.51 S 18.51 38.27, 20 38.45 S 23.5 38.72, 25 38.74 S 28.5 38.56, 30 38.6 S 33.5 38.98, 35 39.01 S 38.5 38.84, 40 38.82 S 43.5 38.99, 45 38.9 S 49.13 39.45, 50 38.23 S 53.5 25.01, 55 24.95 S 59.1 36.66, 60 37.86 S 63.5 38.18, 65 38.28 S 68.5 38.59, 70 38.56 S 73.5 38.12, 75 38.09 S 78.5 38.37, 80 38.36 S 83.5 38, 85 37.99 S 88.5 38.26, 90 38.32 S 93.5 38.39, 95 38.42 S 98.5 38.47, 100 38.49 S 103.5 38.53, 105 38.54 S 108.5 38.65, 110 38.59 S 113.5 38.22, 115 38.13 S 118.5 37.92, 120 37.98 S 123.5 38.48, 125 38.52 S 128.5 38.28, 130 38.26 S 133.5 38.34, 135 38.36 S 138.5 38.37, 140 38.39 S 143.5 38.48, 145 38.49 S 148.5 38.42, 150 38.45 S 153.5 38.69, 155 38.69 S 158.5 38.49, 160 38.46 S 163.5 38.5, 165 38.52 S 168.5 38.62, 170 38.57 S 173.5 38.18, 175 38.19 S 178.5 38.6, 180 38.66 S 183.5 38.62, 185 38.59 S 188.5 38.55, 190 38.44 S 193.5 37.84, 195 37.88 S 198.5 38.61, 200 38.7 S 203.5 38.52, 205 38.45"
          fill="none"/>
    <circle r="4" cx="5" cy="40" fill="#3023AE"/>
    <circle r="4" cx="205" cy="38.45" fill="#C86DD7"/>      
</svg>