<svg width="200" height="50" viewBox="0 0 210 50" xmlns="http://www.w3.org/2000/svg">
    <defs>
        <linearGradient x1="0%" y1="0%" x2="100%" y2="0%" id="a">
            <stop stop-color="#3023AE" offset="0%"/>
            <stop stop-color="#C86DD7" offset="100%"/>
        </linearGradient>
    </defs>
    <path stroke="url(#a)"
          stroke-width="3"
          stroke-linejoin="round"
          stroke-linecap="round"
          d="M5 40 C 5.25 38.52, 8.54 10.33, 10 10 S 14.5 36.36, 15 37.78 S 18.51 38.28, 20 38.44 S 23.5 38.74, 25 38.83 S 28.5 39.02, 30 39.06 S 33.5 39.16, 35 39.12 S 38.5 38.76, 40 38.8 S 43.5 39.31, 45 39.37 S 48.5 39.22, 50 39.18 S 53.5 39.09, 55 39.09 S 58.5 39.19, 60 39.17 S 63.5 39.03, 65 38.96 S 69.12 39.93, 70 38.71 S 73.5 25.15, 75 25.08 S 79.11 37.05, 80 38.26 S 83.5 38.58, 85 38.64 S 88.5 38.64, 90 38.69 S 93.5 38.94, 95 38.97 S 98.5 38.93, 100 38.86 S 103.5 38.53, 105 38.51 S 108.5 38.67, 110 38.74 S 113.5 39.03, 115 38.97 S 118.5 38.4, 120 38.36 S 123.5 38.62, 125 38.69 S 128.5 38.79, 130 38.82 S 133.5 38.83, 135 38.86 S 138.5 39.01, 140 39 S 143.5 38.81, 145 38.8 S 148.5 38.94, 150 38.96 S 153.5 38.99, 155 38.94 S 158.5 38.63, 160 38.6 S 163.5 38.73, 165 38.72 S 168.5 38.51, 170 38.52 S 173.5 38.76, 175 38.79 S 178.5 38.7, 180 38.71 S 183.5 38.87, 185 38.87 S 188.5 38.7, 190 38.7 S 193.5 38.83, 195 38.85 S 198.5 38.82, 200 38.83 S 203.5 38.87, 205 38.89"
          fill="none"/>
    <circle r="4" cx="5" cy="40" fill="#3023AE"/>
    <circle r="4" cx="205" cy="38.89" fill="#C86DD7"/>      
</svg>