<svg width="200" height="50" viewBox="0 0 210 50" xmlns="http://www.w3.org/2000/svg">
    <defs>
        <linearGradient x1="0%" y1="0%" x2="100%" y2="0%" id="a">
            <stop stop-color="#3023AE" offset="0%"/>
            <stop stop-color="#C86DD7" offset="100%"/>
        </linearGradient>
    </defs>
    <path stroke="url(#a)"
          stroke-width="3"
          stroke-linejoin="round"
          stroke-linecap="round"
          d="M5 40 C 6.21 39.12, 8.5 36.42, 10 36.35 S 13.59 39.04, 15 39.54 S 18.5 39.86, 20 39.89 S 23.66 40.44, 25 39.77 S 28.51 35.01, 30 34.87 S 33.6 38.33, 35 38.86 S 38.5 38.72, 40 38.63 S 43.5 38.2, 45 38.29 S 48.5 39.11, 50 39.2 S 53.5 38.89, 55 38.86 S 58.5 38.94, 60 38.97 S 64.38 40.46, 65 39.09 S 68.53 17.03, 70 16.73 S 74.28 35.71, 75 37.03 S 78.58 35.47, 80 34.98 S 83.52 33.39, 85 33.61 S 88.5 36.36, 90 36.46 S 93.53 34.6, 95 34.3 S 98.51 34.21, 100 34.41 S 103.5 35.64, 105 35.67 S 108.56 35.07, 110 34.64 S 113.5 32.75, 115 32.7 S 119.22 35.58, 120 34.3 S 123.78 17.03, 125 16.16 S 128.61 27.79, 130 27.22 S 133.53 12.37, 135 12.05 S 139.1 23.86, 140 25.06 S 143.87 26.39, 145 25.4 S 148.53 15.98, 150 16.27 S 153.87 26.36, 155 27.34 S 158.72 25.72, 160 24.94 S 163.51 21.46, 165 21.29 S 168.51 23.63, 170 23.8 S 173.64 23.06, 175 22.43 S 178.52 18.89, 180 19.13 S 183.52 24.25, 185 24.03 S 188.72 18.43, 190 17.64 S 193.5 17.85, 195 17.87 S 198.82 18.69, 200 17.76 S 204.19 11.26, 205 10"
          fill="none"/>
    <circle r="4" cx="5" cy="40" fill="#3023AE"/>
    <circle r="4" cx="205" cy="10" fill="#C86DD7"/>      
</svg>