<svg width="200" height="50" viewBox="0 0 210 50" xmlns="http://www.w3.org/2000/svg">
    <defs>
        <linearGradient x1="0%" y1="0%" x2="100%" y2="0%" id="a">
            <stop stop-color="#3023AE" offset="0%"/>
            <stop stop-color="#C86DD7" offset="100%"/>
        </linearGradient>
    </defs>
    <path stroke="url(#a)"
          stroke-width="3"
          stroke-linejoin="round"
          stroke-linecap="round"
          d="M5 40 C 5.25 38.52, 9.3 11.33, 10 10 S 14.51 19.67, 15 21.09 S 19.17 37.45, 20 38.7 S 23.5 36.09, 25 36.09 S 28.53 38.41, 30 38.7 S 33.5 38.14, 35 38.04 S 38.5 37.94, 40 38.04 S 44.24 39.99, 45 38.7 S 48.64 21.71, 50 21.09 S 54.19 32.87, 55 34.13 S 58.57 36.28, 60 36.74 S 63.55 37.01, 65 37.39 S 69 40.46, 70 39.35 S 73.51 26.49, 75 26.3 S 79.09 36.85, 80 38.04 S 83.5 39.45, 85 39.35 S 88.51 37.58, 90 37.39 S 93.5 37.94, 95 38.04 S 98.5 38.14, 100 38.04 S 103.5 37.29, 105 37.39 S 108.53 38.41, 110 38.7 S 113.5 39.45, 115 39.35 S 118.5 38.14, 120 38.04 S 123.5 38.8, 125 38.7 S 128.5 37.39, 130 37.39 S 133.5 38.7, 135 38.7 S 138.51 37.58, 140 37.39 S 143.5 37.29, 145 37.39 S 148.51 37.85, 150 38.04 S 153.55 39.08, 155 38.7 S 158.53 35.72, 160 35.43 S 163.5 36.64, 165 36.74 S 168.55 35.71, 170 36.09 S 173.55 38.97, 175 39.35 S 178.5 38.8, 180 38.7 S 183.5 38.7, 185 38.7 S 188.5 38.7, 190 38.7 S 193.5 38.8, 195 38.7 S 198.55 38.42, 200 38.04 S 203.6 36.64, 205 36.09"
          fill="none"/>
    <circle r="4" cx="5" cy="40" fill="#3023AE"/>
    <circle r="4" cx="205" cy="36.09" fill="#C86DD7"/>      
</svg>