<svg width="200" height="50" viewBox="0 0 210 50" xmlns="http://www.w3.org/2000/svg">
    <defs>
        <linearGradient x1="0%" y1="0%" x2="100%" y2="0%" id="a">
            <stop stop-color="#3023AE" offset="0%"/>
            <stop stop-color="#C86DD7" offset="100%"/>
        </linearGradient>
    </defs>
    <path stroke="url(#a)"
          stroke-width="3"
          stroke-linejoin="round"
          stroke-linecap="round"
          d="M5 40 C 5.26 38.52, 8.52 12.27, 10 12.03 S 14.47 37.01, 15 38.41 S 18.5 38.67, 20 38.76 S 23.5 38.93, 25 39 S 28.5 39.16, 30 39.24 S 33.5 39.53, 35 39.52 S 38.5 39.18, 40 39.16 S 44.51 40.82, 45 39.4 S 48.52 10.26, 50 10 S 54.51 36.19, 55 37.61 S 58.51 38.79, 60 38.92 S 63.5 38.53, 65 38.45 S 68.5 38.28, 70 38.37 S 73.5 38.97, 75 39.08 S 78.5 39.13, 80 39.12 S 83.5 38.99, 85 39 S 88.5 39.18, 90 39.16 S 93.5 38.89, 95 38.84 S 98.5 38.77, 100 38.84 S 103.5 39.25, 105 39.28 S 108.5 39.05, 110 39.04 S 113.5 39.19, 115 39.24 S 118.5 39.42, 120 39.4 S 123.5 39.16, 125 39.12 S 128.5 39.15, 130 39.16 S 133.5 39.21, 135 39.16 S 138.5 38.83, 140 38.84 S 143.5 39.18, 145 39.24 S 148.5 39.25, 150 39.24 S 153.5 39.15, 155 39.16 S 158.5 39.31, 160 39.32 S 163.5 39.19, 165 39.2 S 168.5 39.43, 170 39.36 S 173.5 38.73, 175 38.73 S 178.5 39.27, 180 39.36 S 183.5 39.36, 185 39.36 S 188.5 39.37, 190 39.36 S 193.5 39.34, 195 39.32 S 198.5 39.22, 200 39.2 S 203.5 39.2, 205 39.2"
          fill="none"/>
    <circle r="4" cx="5" cy="40" fill="#3023AE"/>
    <circle r="4" cx="205" cy="39.2" fill="#C86DD7"/>      
</svg>