<svg width="200" height="50" viewBox="0 0 210 50" xmlns="http://www.w3.org/2000/svg">
    <defs>
        <linearGradient x1="0%" y1="0%" x2="100%" y2="0%" id="a">
            <stop stop-color="#3023AE" offset="0%"/>
            <stop stop-color="#C86DD7" offset="100%"/>
        </linearGradient>
    </defs>
    <path stroke="url(#a)"
          stroke-width="3"
          stroke-linejoin="round"
          stroke-linecap="round"
          d="M5 40 C 5.3 38.53, 9.1 17.08, 10 15.88 S 14.37 25.4, 15 26.76 S 18.88 36.65, 20 37.65 S 24.39 37.11, 25 35.74 S 28.57 15.44, 30 15 S 34.2 31.38, 35 32.65 S 38.5 30.99, 40 30.88 S 43.5 32.02, 45 31.91 S 49.11 31.36, 50 30.15 S 53.64 19.02, 55 18.38 S 58.7 26.19, 60 25.44 S 64.18 13.91, 65 12.65 S 68.5 10.09, 70 10 S 74.05 10.9, 75 12.06 S 78.95 21.14, 80 22.21 S 83.56 21.81, 85 22.21 S 88.53 25.28, 90 25 S 93.76 21.13, 95 20.29 S 98.51 18.04, 100 18.24 S 103.61 21.07, 105 21.62 S 108.54 21.85, 110 22.21 S 113.52 23.86, 115 24.12 S 118.61 24.54, 120 23.97 S 123.54 19.68, 125 20 S 128.75 25.35, 130 26.18 S 133.55 26.24, 135 26.62 S 138.51 28.97, 140 28.82 S 143.76 26.43, 145 25.59 S 148.52 22.3, 150 22.06 S 153.56 23.55, 155 23.97 S 158.54 24.64, 160 25 S 163.5 26.49, 165 26.47 S 168.52 25.11, 170 24.85 S 173.5 24.78, 175 24.71 S 178.56 24.01, 180 24.41 S 183.57 27.04, 185 27.5 S 188.53 27.37, 190 27.65 S 193.5 29.48, 195 29.41 S 198.5 27.19, 200 27.21 S 203.64 28.92, 205 29.56"
          fill="none"/>
    <circle r="4" cx="5" cy="40" fill="#3023AE"/>
    <circle r="4" cx="205" cy="29.560000000000002" fill="#C86DD7"/>      
</svg>