<svg width="200" height="50" viewBox="0 0 210 50" xmlns="http://www.w3.org/2000/svg">
    <defs>
        <linearGradient x1="0%" y1="0%" x2="100%" y2="0%" id="a">
            <stop stop-color="#3023AE" offset="0%"/>
            <stop stop-color="#C86DD7" offset="100%"/>
        </linearGradient>
    </defs>
    <path stroke="url(#a)"
          stroke-width="3"
          stroke-linejoin="round"
          stroke-linecap="round"
          d="M5 40 C 6.49 39.81, 9.26 40.66, 10 39.36 S 14.52 23.87, 15 22.45 S 18.5 10.1, 20 10 S 24.12 20.6, 25 21.81 S 28.56 23.31, 30 23.72 S 33.55 25.05, 35 24.68 S 38.51 21.36, 40 21.17 S 43.51 23.21, 45 23.4 S 48.6 22.99, 50 22.45 S 53.6 19.03, 55 19.57 S 58.5 26.33, 60 26.28 S 63.57 19.72, 65 19.26 S 68.57 23.55, 70 23.09 S 74 17.18, 75 16.06 S 78.61 11.34, 80 11.91 S 84.12 19, 85 20.21 S 88.52 25.88, 90 25.64 S 93.93 19.68, 95 18.62 S 98.7 14.99, 100 15.74 S 103.5 24.45, 105 24.36 S 108.93 16.16, 110 15.11 S 113.66 13.79, 115 14.47 S 118.79 19.32, 120 20.21 S 123.58 21.31, 125 21.81 S 128.72 24.5, 130 23.72 S 133.52 15.98, 135 15.74 S 138.57 21.67, 140 22.13 S 143.75 19.77, 145 18.94 S 148.56 15.02, 150 15.43 S 153.75 20.98, 155 21.81 S 158.53 22.41, 160 22.13 S 163.54 20.22, 165 19.89 S 168.5 19.89, 170 19.89 S 173.51 19.7, 175 19.89 S 178.68 20.45, 180 21.17 S 183.5 25.22, 185 25.32 S 188.54 22.14, 190 21.81 S 193.61 22.52, 195 23.09 S 198.55 26.33, 200 25.96 S 203.98 21.63, 205 20.53"
          fill="none"/>
    <circle r="4" cx="5" cy="40" fill="#3023AE"/>
    <circle r="4" cx="205" cy="20.53" fill="#C86DD7"/>      
</svg>