<svg width="200" height="50" viewBox="0 0 210 50" xmlns="http://www.w3.org/2000/svg">
    <defs>
        <linearGradient x1="0%" y1="0%" x2="100%" y2="0%" id="a">
            <stop stop-color="#3023AE" offset="0%"/>
            <stop stop-color="#C86DD7" offset="100%"/>
        </linearGradient>
    </defs>
    <path stroke="url(#a)"
          stroke-width="3"
          stroke-linejoin="round"
          stroke-linecap="round"
          d="M5 40 C 5.25 38.52, 8.53 10.3, 10 10 S 14.51 36.54, 15 37.96 S 18.5 38.98, 20 39.09 S 23.5 38.72, 25 38.67 S 28.5 38.82, 30 38.75 S 33.52 38.41, 35 38.18 S 38.56 37.62, 40 37.19 S 43.5 35.27, 45 35.18 S 48.5 36.53, 50 36.59 S 53.51 35.45, 55 35.6 S 58.54 37.25, 60 37.59 S 63.51 37.78, 65 37.9 S 68.5 38.37, 70 38.41 S 73.64 38.78, 75 38.16 S 78.51 34.03, 80 33.84 S 83.62 36.32, 85 36.91 S 88.84 39.08, 90 38.13 S 93.5 28.82, 95 28.7 S 98.85 36.39, 100 37.36 S 103.51 37.01, 105 37.16 S 108.52 38.13, 110 38.38 S 113.52 39.08, 115 38.84 S 118.51 36.95, 120 36.79 S 123.5 37.79, 125 37.76 S 128.59 37.13, 130 36.62 S 133.5 34.09, 135 34.18 S 138.58 36.72, 140 37.19 S 143.5 37.36, 145 37.47 S 148.5 37.99, 150 37.93 S 153.5 37.01, 155 37.05 S 158.51 38.08, 160 38.21 S 163.5 37.89, 165 37.93 S 168.5 38.46, 170 38.5 S 173.52 38.42, 175 38.18 S 178.5 36.8, 180 36.88 S 183.52 38.48, 185 38.72 S 188.5 38.54, 190 38.52 S 193.5 38.52, 195 38.58 S 198.5 39.02, 200 38.95 S 203.52 38.37, 205 38.13"
          fill="none"/>
    <circle r="4" cx="5" cy="40" fill="#3023AE"/>
    <circle r="4" cx="205" cy="38.13" fill="#C86DD7"/>      
</svg>