<svg width="200" height="50" viewBox="0 0 210 50" xmlns="http://www.w3.org/2000/svg">
    <defs>
        <linearGradient x1="0%" y1="0%" x2="100%" y2="0%" id="a">
            <stop stop-color="#3023AE" offset="0%"/>
            <stop stop-color="#C86DD7" offset="100%"/>
        </linearGradient>
    </defs>
    <path stroke="url(#a)"
          stroke-width="3"
          stroke-linejoin="round"
          stroke-linecap="round"
          d="M5 40 C 5.58 38.62, 9.53 29.42, 10 28 S 13.54 9.64, 15 10 S 19.33 29.16, 20 30.5 S 23.54 29.64, 25 30 S 28.56 32.57, 30 33 S 34.26 34.3, 35 33 S 38.58 16, 40 15.5 S 44.32 28.17, 45 29.5 S 48.52 34.78, 50 35 S 53.58 31.5, 55 31 S 58.52 31.28, 60 31.5 S 63.56 32.93, 65 32.5 S 68.52 28.28, 70 28.5 S 73.74 33.18, 75 34 S 79.04 36.15, 80 35 S 83.63 22.62, 85 22 S 88.89 29.5, 90 30.5 S 93.52 30.78, 95 31 S 98.52 32.22, 100 32 S 103.61 30.06, 105 29.5 S 108.66 27.33, 110 28 S 113.69 33.78, 115 34.5 S 118.56 33.93, 120 33.5 S 123.5 31.5, 125 31.5 S 128.66 32.83, 130 33.5 S 133.52 36.28, 135 36.5 S 138.53 35.29, 140 35 S 143.5 34.57, 145 34.5 S 148.56 34.07, 150 34.5 S 153.61 36.94, 155 37.5 S 158.5 38.57, 160 38.5 S 164.11 38.21, 165 37 S 168.8 25.9, 170 25 S 173.99 28.39, 175 29.5 S 178.61 35.44, 180 36 S 183.52 33.72, 185 33.5 S 188.61 33.94, 190 34.5 S 193.53 37.21, 195 37.5 S 198.58 37, 200 36.5 S 203.66 34.67, 205 34"
          fill="none"/>
    <circle r="4" cx="5" cy="40" fill="#3023AE"/>
    <circle r="4" cx="205" cy="34" fill="#C86DD7"/>      
</svg>