<svg width="200" height="50" viewBox="0 0 210 50" xmlns="http://www.w3.org/2000/svg">
    <defs>
        <linearGradient x1="0%" y1="0%" x2="100%" y2="0%" id="a">
            <stop stop-color="#3023AE" offset="0%"/>
            <stop stop-color="#C86DD7" offset="100%"/>
        </linearGradient>
    </defs>
    <path stroke="url(#a)"
          stroke-width="3"
          stroke-linejoin="round"
          stroke-linecap="round"
          d="M5 40 C 5.29 38.53, 8.61 14.86, 10 14.29 S 14.38 34.52, 15 35.89 S 18.51 36.14, 20 36.33 S 23.51 37.07, 25 37.2 S 28.5 37.12, 30 37.2 S 33.5 37.72, 35 37.73 S 38.5 37.39, 40 37.29 S 43.5 37.04, 45 37.03 S 49.48 38.61, 50 37.2 S 53.56 10.4, 55 10 S 59.46 33, 60 34.4 S 63.52 35.62, 65 35.89 S 68.5 36.36, 70 36.24 S 73.55 35.47, 75 35.1 S 78.5 33.69, 80 33.7 S 83.5 35.19, 85 35.19 S 88.5 33.82, 90 33.7 S 93.5 34.36, 95 34.4 S 98.5 33.88, 100 33.97 S 103.51 34.88, 105 35.01 S 108.5 34.85, 110 34.84 S 113.56 35.35, 115 34.93 S 118.53 32.27, 120 31.95 S 123.56 32.31, 125 32.74 S 128.52 34.67, 130 34.93 S 133.5 34.53, 135 34.49 S 138.53 34.94, 140 34.66 S 143.51 32.71, 145 32.57 S 148.53 33.4, 150 33.7 S 153.5 34.57, 155 34.58 S 158.5 33.82, 160 33.79 S 163.58 34.9, 165 34.4 S 169.04 31.44, 170 30.29 S 173.58 21.92, 175 22.42 S 178.94 32.73, 180 33.79 S 183.61 32.96, 185 32.39 S 188.57 29.22, 190 29.68 S 193.66 34.95, 195 35.63 S 198.52 34.98, 200 34.75 S 203.51 34.26, 205 34.05"
          fill="none"/>
    <circle r="4" cx="5" cy="40" fill="#3023AE"/>
    <circle r="4" cx="205" cy="34.05" fill="#C86DD7"/>      
</svg>