<svg width="200" height="50" viewBox="0 0 210 50" xmlns="http://www.w3.org/2000/svg">
    <defs>
        <linearGradient x1="0%" y1="0%" x2="100%" y2="0%" id="a">
            <stop stop-color="#3023AE" offset="0%"/>
            <stop stop-color="#C86DD7" offset="100%"/>
        </linearGradient>
    </defs>
    <path stroke="url(#a)"
          stroke-width="3"
          stroke-linejoin="round"
          stroke-linecap="round"
          d="M5 40 C 6.23 39.15, 8.58 37.03, 10 36.54 S 13.77 37.39, 15 36.54 S 18.64 30.25, 20 29.62 S 23.54 31.58, 25 31.92 S 28.83 32.86, 30 31.92 S 33.9 24.87, 35 23.85 S 38.64 22.06, 40 22.69 S 43.64 27.83, 45 28.46 S 48.54 27.65, 50 27.31 S 53.77 27, 55 26.15 S 58.58 20.87, 60 20.38 S 63.7 23.44, 65 22.69 S 68.51 14.45, 70 14.62 S 73.51 24.02, 75 23.85 S 78.54 13.12, 80 13.46 S 84.17 24.9, 85 26.15 S 88.77 27.61, 90 28.46 S 93.58 32.59, 95 33.08 S 98.7 32.67, 100 31.92 S 103.58 27.8, 105 27.31 S 108.54 28.8, 110 28.46 S 113.51 24.83, 115 25 S 119.17 30.87, 120 29.62 S 123.5 10, 125 10 S 129.49 28.21, 130 29.62 S 133.58 38.18, 135 37.69 S 138.77 27, 140 26.15 S 144.07 29.59, 145 30.77 S 148.5 38.85, 150 38.85 S 153.58 31.26, 155 30.77 S 158.51 35.21, 160 35.38 S 163.5 31.92, 165 31.92 S 168.51 35.21, 170 35.38 S 173.58 33.57, 175 33.08 S 178.5 31.92, 180 31.92 S 184.32 34.42, 185 33.08 S 188.58 11.82, 190 12.31 S 194.43 35.15, 195 36.54 S 198.7 37.29, 200 36.54 S 204.02 31.9, 205 30.77"
          fill="none"/>
    <circle r="4" cx="5" cy="40" fill="#3023AE"/>
    <circle r="4" cx="205" cy="30.77" fill="#C86DD7"/>      
</svg>