<svg width="200" height="50" viewBox="0 0 210 50" xmlns="http://www.w3.org/2000/svg">
    <defs>
        <linearGradient x1="0%" y1="0%" x2="100%" y2="0%" id="a">
            <stop stop-color="#3023AE" offset="0%"/>
            <stop stop-color="#C86DD7" offset="100%"/>
        </linearGradient>
    </defs>
    <path stroke="url(#a)"
          stroke-width="3"
          stroke-linejoin="round"
          stroke-linecap="round"
          d="M5 40 C 5.25 38.52, 8.57 10.44, 10 10 S 14.52 35.48, 15 36.9 S 18.53 39.01, 20 39.31 S 23.75 39.81, 25 38.97 S 28.5 32.51, 30 32.59 S 33.78 38.61, 35 39.48 S 38.5 39.66, 40 39.66 S 43.5 39.53, 45 39.48 S 48.5 39.26, 50 39.31 S 53.53 40.11, 55 39.83 S 58.5 37.49, 60 37.41 S 63.54 38.98, 65 39.31 S 68.5 39.61, 70 39.66 S 73.5 39.69, 75 39.66 S 78.5 39.45, 80 39.48 S 83.5 39.78, 85 39.83 S 88.5 39.93, 90 39.83 S 93.5 39.19, 95 39.14 S 98.5 39.4, 100 39.48 S 103.5 39.61, 105 39.66 S 108.5 39.8, 110 39.83 S 113.5 39.83, 115 39.83 S 118.5 39.83, 120 39.83 S 123.5 39.83, 125 39.83 S 128.5 39.83, 130 39.83 S 133.5 39.88, 135 39.83 S 138.5 39.48, 140 39.48 S 143.5 39.78, 145 39.83 S 148.5 39.83, 150 39.83 S 153.5 39.86, 155 39.83 S 158.5 39.66, 160 39.66 S 163.5 39.8, 165 39.83 S 168.5 39.83, 170 39.83 S 173.5 39.83, 175 39.83 S 178.5 39.83, 180 39.83 S 183.5 39.83, 185 39.83 S 188.5 39.83, 190 39.83 S 193.5 39.83, 195 39.83 S 198.5 39.83, 200 39.83 S 203.5 39.83, 205 39.83"
          fill="none"/>
    <circle r="4" cx="5" cy="40" fill="#3023AE"/>
    <circle r="4" cx="205" cy="39.83" fill="#C86DD7"/>      
</svg>