<svg width="200" height="50" viewBox="0 0 210 50" xmlns="http://www.w3.org/2000/svg">
    <defs>
        <linearGradient x1="0%" y1="0%" x2="100%" y2="0%" id="a">
            <stop stop-color="#3023AE" offset="0%"/>
            <stop stop-color="#C86DD7" offset="100%"/>
        </linearGradient>
    </defs>
    <path stroke="url(#a)"
          stroke-width="3"
          stroke-linejoin="round"
          stroke-linecap="round"
          d="M5 40 C 5.25 38.52, 8.82 10.92, 10 10 S 14.51 30.75, 15 32.17 S 18.5 38.7, 20 38.7 S 23.6 32.72, 25 32.17 S 28.74 33.96, 30 34.78 S 33.6 38.15, 35 38.7 S 38.5 38.7, 40 38.7 S 43.51 38.89, 45 38.7 S 48.5 37.39, 50 37.39 S 53.51 38.51, 55 38.7 S 58.51 38.89, 60 38.7 S 63.5 37.39, 65 37.39 S 68.51 38.51, 70 38.7 S 73.5 38.7, 75 38.7 S 78.5 38.7, 80 38.7 S 83.5 38.7, 85 38.7 S 88.5 38.7, 90 38.7 S 93.5 38.7, 95 38.7 S 98.5 38.7, 100 38.7 S 103.5 38.7, 105 38.7 S 108.5 38.7, 110 38.7"
          fill="none"/>
    <circle r="4" cx="5" cy="40" fill="#3023AE"/>
    <circle r="4" cx="110" cy="38.7" fill="#C86DD7"/>      
</svg>