<svg width="200" height="50" viewBox="0 0 210 50" xmlns="http://www.w3.org/2000/svg">
    <defs>
        <linearGradient x1="0%" y1="0%" x2="100%" y2="0%" id="a">
            <stop stop-color="#3023AE" offset="0%"/>
            <stop stop-color="#C86DD7" offset="100%"/>
        </linearGradient>
    </defs>
    <path stroke="url(#a)"
          stroke-width="3"
          stroke-linejoin="round"
          stroke-linecap="round"
          d="M5 40 C 5.44 38.57, 8.5 23.71, 10 23.64 S 14.2 38.28, 15 39.55 S 18.5 39.55, 20 39.55 S 23.5 39.55, 25 39.55 S 28.54 39.88, 30 39.55 S 33.86 38.25, 35 37.27 S 39.01 32.04, 40 30.91 S 43.73 26.71, 45 25.91 S 48.59 25.06, 50 24.55 S 53.52 22.54, 55 22.27 S 58.51 22.87, 60 22.73 S 63.71 22.12, 65 21.36 S 68.59 17.33, 70 16.82 S 73.66 17.06, 75 17.73 S 78.54 21.49, 80 21.82 S 84.03 21.15, 85 20 S 88.59 9.49, 90 10 S 94.2 22.37, 95 23.64 S 98.5 25.84, 100 25.91 S 103.51 24.29, 105 24.09 S 108.51 24.35, 110 24.55 S 113.76 26.3, 115 25.45 S 118.63 18.35, 120 17.73 S 124.09 19.72, 125 20.91 S 128.94 29.85, 130 30.91 S 133.73 31.71, 135 30.91 S 138.84 25.5, 140 24.55 S 143.51 22.6, 145 22.73 S 148.79 24.57, 150 25.45 S 153.52 29.73, 155 30 S 158.57 27.72, 160 27.27 S 163.57 26.37, 165 26.82 S 168.5 30.45, 170 30.45 S 173.5 26.89, 175 26.82 S 178.5 29.93, 180 30 S 183.61 27.84, 185 27.27 S 188.71 26.67, 190 25.91 S 193.5 21.43, 195 21.36 S 198.57 24.99, 200 25.45 S 203.52 24.82, 205 24.55"
          fill="none"/>
    <circle r="4" cx="5" cy="40" fill="#3023AE"/>
    <circle r="4" cx="205" cy="24.55" fill="#C86DD7"/>      
</svg>