<svg width="200" height="50" viewBox="0 0 210 50" xmlns="http://www.w3.org/2000/svg">
    <defs>
        <linearGradient x1="0%" y1="0%" x2="100%" y2="0%" id="a">
            <stop stop-color="#3023AE" offset="0%"/>
            <stop stop-color="#C86DD7" offset="100%"/>
        </linearGradient>
    </defs>
    <path stroke="url(#a)"
          stroke-width="3"
          stroke-linejoin="round"
          stroke-linecap="round"
          d="M5 40 C 6.04 38.92, 8.57 35.27, 10 34.83 S 13.51 36.75, 15 36.9 S 18.57 36.31, 20 35.86 S 23.57 33.34, 25 33.79 S 28.51 38.81, 30 38.97 S 33.73 35.62, 35 34.83 S 39.44 34.15, 40 32.76 S 43.67 9.31, 45 10 S 49.48 36.52, 50 37.93 S 53.51 36.74, 55 36.9 S 58.51 38.82, 60 38.97 S 63.5 37.93, 65 37.93 S 68.67 39.66, 70 38.97 S 73.96 33.84, 75 32.76 S 79.19 29.88, 80 28.62 S 83.67 16.55, 85 17.24 S 89.11 32.59, 90 33.79 S 93.57 30.24, 95 30.69 S 98.73 36.11, 100 36.9 S 103.84 37.86, 105 36.9 S 108.51 28.47, 110 28.62 S 113.84 36.97, 115 37.93 S 118.5 36.9, 120 36.9 S 123.5 37.93, 125 37.93 S 128.51 36.74, 130 36.9 S 133.51 38.82, 135 38.97 S 138.57 38.38, 140 37.93 S 143.53 36.16, 145 35.86 S 148.57 35.41, 150 35.86 S 153.57 38.52, 155 38.97 S 158.53 39.27, 160 38.97 S 163.57 37.35, 165 36.9 S 168.5 35.86, 170 35.86 S 173.57 36.45, 175 36.9 S 178.53 39.27, 180 38.97 S 183.5 34.83, 185 34.83 S 188.53 39.27, 190 38.97 S 193.51 32.92, 195 32.76 S 198.61 38.5, 200 37.93 S 204.29 29.94, 205 28.62"
          fill="none"/>
    <circle r="4" cx="5" cy="40" fill="#3023AE"/>
    <circle r="4" cx="205" cy="28.619999999999997" fill="#C86DD7"/>      
</svg>