<svg width="200" height="50" viewBox="0 0 210 50" xmlns="http://www.w3.org/2000/svg">
    <defs>
        <linearGradient x1="0%" y1="0%" x2="100%" y2="0%" id="a">
            <stop stop-color="#3023AE" offset="0%"/>
            <stop stop-color="#C86DD7" offset="100%"/>
        </linearGradient>
    </defs>
    <path stroke="url(#a)"
          stroke-width="3"
          stroke-linejoin="round"
          stroke-linecap="round"
          d="M5 40 C 5.68 38.66, 8.5 30.26, 10 30.24 S 13.91 38.81, 15 39.84 S 18.55 40.14, 20 39.76 S 24.18 38.51, 25 37.25 S 28.54 24.75, 30 24.41 S 33.91 33.87, 35 34.9 S 38.5 33.88, 40 33.85 S 43.65 35.35, 45 34.7 S 48.75 29.86, 50 29.03 S 53.62 28.65, 55 28.06 S 58.5 24.74, 60 24.74 S 63.59 27.56, 65 28.06 S 69.27 29.57, 70 28.26 S 73.85 10.96, 75 10 S 78.88 18.92, 80 19.92 S 83.56 18.51, 85 18.91 S 88.57 22.25, 90 22.71 S 93.5 22.09, 95 22.11 S 98.55 22.47, 100 22.87 S 103.57 24.39, 105 24.86 S 108.51 25.94, 110 26.15 S 113.51 26.42, 115 26.28 S 118.5 25.23, 120 25.22 S 123.53 25.95, 125 26.23 S 128.53 26.81, 130 27.09 S 133.56 28.52, 135 28.1 S 138.57 24.65, 140 24.21 S 143.51 24.81, 145 25.02 S 148.5 25.68, 150 25.63 S 153.5 24.81, 155 24.7 S 158.55 24.52, 160 24.9 S 163.53 27.04, 165 27.33 S 168.52 27.11, 170 26.84 S 173.51 25.35, 175 25.51 S 178.5 27.93, 180 27.94 S 183.51 25.42, 185 25.55 S 188.73 27.99, 190 28.79 S 193.54 31.48, 195 31.82 S 198.5 31.15, 200 31.13 S 203.51 31.53, 205 31.7"
          fill="none"/>
    <circle r="4" cx="5" cy="40" fill="#3023AE"/>
    <circle r="4" cx="205" cy="31.7" fill="#C86DD7"/>      
</svg>