<svg width="200" height="50" viewBox="0 0 210 50" xmlns="http://www.w3.org/2000/svg">
    <defs>
        <linearGradient x1="0%" y1="0%" x2="100%" y2="0%" id="a">
            <stop stop-color="#3023AE" offset="0%"/>
            <stop stop-color="#C86DD7" offset="100%"/>
        </linearGradient>
    </defs>
    <path stroke="url(#a)"
          stroke-width="3"
          stroke-linejoin="round"
          stroke-linecap="round"
          d="M5 40 C 5.64 38.64, 8.5 29.35, 10 29.32 S 13.97 38.74, 15 39.83 S 18.52 40.19, 20 39.96 S 24.14 39.49, 25 38.26 S 28.65 26.26, 30 25.61 S 33.87 32.47, 35 33.46 S 38.51 34.18, 40 34.33 S 43.51 34.64, 45 34.46 S 48.63 33.72, 50 33.11 S 53.65 30.63, 55 29.97 S 58.67 28.88, 60 28.18 S 63.5 24.82, 65 24.74 S 68.66 26.99, 70 27.66 S 73.65 30.41, 75 29.75 S 79.32 24.12, 80 22.78 S 83.63 10.6, 85 10 S 88.9 17.4, 90 18.42 S 93.75 18.41, 95 19.24 S 98.54 24.68, 100 25.04 S 103.53 22.01, 105 21.73 S 108.57 22.66, 110 23.12 S 113.58 24.49, 115 24.96 S 118.51 26.28, 120 26.44 S 123.5 25.98, 125 26 S 128.51 26.69, 130 26.57 S 133.5 25.13, 135 25.17 S 138.52 26.66, 140 26.87 S 143.52 26.38, 145 26.61 S 148.54 28.74, 150 28.4 S 153.57 24.71, 155 24.26 S 158.5 25.14, 160 25.26 S 163.5 25.1, 165 25.04 S 168.5 24.75, 170 24.83 S 173.51 25.43, 175 25.57 S 178.51 25.57, 180 25.78 S 183.51 26.82, 185 26.96 S 188.5 26.71, 190 26.7 S 193.5 27.01, 195 26.92 S 198.51 26.23, 200 26.09 S 203.5 26, 205 25.96"
          fill="none"/>
    <circle r="4" cx="5" cy="40" fill="#3023AE"/>
    <circle r="4" cx="205" cy="25.96" fill="#C86DD7"/>      
</svg>