<svg width="200" height="50" viewBox="0 0 210 50" xmlns="http://www.w3.org/2000/svg">
    <defs>
        <linearGradient x1="0%" y1="0%" x2="100%" y2="0%" id="a">
            <stop stop-color="#3023AE" offset="0%"/>
            <stop stop-color="#C86DD7" offset="100%"/>
        </linearGradient>
    </defs>
    <path stroke="url(#a)"
          stroke-width="3"
          stroke-linejoin="round"
          stroke-linecap="round"
          d="M5 40 C 5.63 38.64, 8.5 29.28, 10 29.25 S 13.98 38.72, 15 39.82 S 18.52 40.19, 20 39.96 S 24.15 39.48, 25 38.25 S 28.65 26.19, 30 25.53 S 33.87 32.39, 35 33.38 S 38.51 34.18, 40 34.34 S 43.51 34.62, 45 34.43 S 48.64 33.69, 50 33.07 S 53.65 30.53, 55 29.87 S 58.68 28.86, 60 28.16 S 63.5 24.64, 65 24.56 S 68.67 26.95, 70 27.63 S 73.67 30.37, 75 29.69 S 79.32 23.84, 80 22.5 S 83.63 10.61, 85 10 S 88.9 17.01, 90 18.03 S 93.77 18.44, 95 19.3 S 98.53 24.74, 100 25.04 S 103.53 21.64, 105 21.36 S 108.59 22.66, 110 23.16 S 113.57 24.46, 115 24.91 S 118.51 26.17, 120 26.32 S 123.5 25.89, 125 25.92 S 128.51 26.69, 130 26.54 S 133.5 24.84, 135 24.91 S 138.51 26.82, 140 27.02 S 143.51 26.07, 145 26.27 S 148.52 28.65, 150 28.38 S 153.58 24.91, 155 24.43 S 158.5 24.9, 160 25 S 163.5 25.18, 165 25.13 S 168.5 24.59, 170 24.65 S 173.51 25.39, 175 25.53 S 178.51 25.42, 180 25.61 S 183.51 26.7, 185 26.84 S 188.5 26.51, 190 26.54 S 193.5 27.11, 195 27.02 S 198.51 26.08, 200 25.92 S 203.5 25.95, 205 25.96"
          fill="none"/>
    <circle r="4" cx="5" cy="40" fill="#3023AE"/>
    <circle r="4" cx="205" cy="25.96" fill="#C86DD7"/>      
</svg>