<svg width="200" height="50" viewBox="0 0 210 50" xmlns="http://www.w3.org/2000/svg">
    <defs>
        <linearGradient x1="0%" y1="0%" x2="100%" y2="0%" id="a">
            <stop stop-color="#3023AE" offset="0%"/>
            <stop stop-color="#C86DD7" offset="100%"/>
        </linearGradient>
    </defs>
    <path stroke="url(#a)"
          stroke-width="3"
          stroke-linejoin="round"
          stroke-linecap="round"
          d="M5 40 C 6.5 39.94, 8.5 39.82, 10 39.79 S 13.52 40.08, 15 39.83 S 18.56 38.52, 20 38.1 S 23.51 36.75, 25 36.91 S 28.56 38.75, 30 39.16 S 33.5 39.67, 35 39.76 S 38.5 39.77, 40 39.77 S 43.5 39.75, 45 39.77 S 48.5 39.9, 50 39.93 S 53.5 39.96, 55 39.95 S 58.5 39.84, 60 39.83 S 63.5 39.87, 65 39.88 S 68.5 39.91, 70 39.92 S 73.5 39.95, 75 39.96 S 78.5 39.99, 80 39.96 S 83.5 39.76, 85 39.75 S 88.5 39.86, 90 39.89 S 93.5 39.97, 95 39.98 S 98.5 39.95, 100 39.94 S 103.5 39.96, 105 39.94 S 108.5 39.83, 110 39.83 S 113.5 39.92, 115 39.93 S 118.5 39.94, 120 39.93 S 123.5 39.89, 125 39.88 S 128.52 40.13, 130 39.89 S 133.5 38.25, 135 38.24 S 138.52 39.6, 140 39.84 S 144.11 41.1, 145 39.89 S 149.52 27.69, 150 26.27 S 154.04 8.85, 155 10 S 159.52 36.86, 160 38.28 S 163.51 39.39, 165 39.58 S 168.5 39.59, 170 39.59 S 173.5 39.61, 175 39.55 S 178.5 39.17, 180 39.2 S 183.5 39.75, 185 39.75 S 188.5 39.19, 190 39.2 S 193.5 39.73, 195 39.81 S 198.51 39.87, 200 39.75 S 203.52 39.22, 205 38.99"
          fill="none"/>
    <circle r="4" cx="5" cy="40" fill="#3023AE"/>
    <circle r="4" cx="205" cy="38.99" fill="#C86DD7"/>      
</svg>