<svg width="200" height="50" viewBox="0 0 210 50" xmlns="http://www.w3.org/2000/svg">
    <defs>
        <linearGradient x1="0%" y1="0%" x2="100%" y2="0%" id="a">
            <stop stop-color="#3023AE" offset="0%"/>
            <stop stop-color="#C86DD7" offset="100%"/>
        </linearGradient>
    </defs>
    <path stroke="url(#a)"
          stroke-width="3"
          stroke-linejoin="round"
          stroke-linecap="round"
          d="M5 40 C 5.25 38.52, 8.95 11.07, 10 10 S 14.48 28.37, 15 29.78 S 18.74 36.45, 20 37.26 S 23.51 36.35, 25 36.17 S 28.5 36.12, 30 36.02 S 33.5 35.49, 35 35.48 S 38.5 35.87, 40 35.93 S 43.5 35.96, 45 35.85 S 48.52 35.47, 50 35.22 S 53.52 34.4, 55 34.17 S 58.52 33.87, 60 33.65 S 63.59 33.2, 65 32.7 S 68.61 30.66, 70 30.11 S 73.51 28.9, 75 28.72 S 78.6 29.44, 80 28.91 S 83.6 25.52, 85 24.98 S 88.53 24.76, 90 25.04 S 93.5 27.03, 95 26.91 S 98.53 24.58, 100 24.26 S 103.71 25.53, 105 24.76 S 108.58 18.82, 110 18.33 S 113.6 20.74, 115 21.28 S 118.51 22.01, 120 22.22 S 123.53 22.38, 125 22.67 S 128.53 23.92, 130 24.2 S 133.52 24.34, 135 24.59 S 138.54 25.54, 140 25.87 S 143.52 26.62, 145 26.85 S 148.52 27.61, 150 27.39 S 153.53 25.67, 155 25.35 S 158.51 25.08, 160 25.22 S 163.56 25.84, 165 26.26 S 168.54 27.78, 170 28.13 S 173.54 28.35, 175 28.67 S 178.51 30.54, 180 30.33 S 183.56 27.69, 185 27.26 S 188.5 27.39, 190 27.35 S 193.56 27.44, 195 27.02 S 198.51 24.59, 200 24.41 S 203.55 25.38, 205 25.78"
          fill="none"/>
    <circle r="4" cx="5" cy="40" fill="#3023AE"/>
    <circle r="4" cx="205" cy="25.78" fill="#C86DD7"/>      
</svg>