<svg width="200" height="50" viewBox="0 0 210 50" xmlns="http://www.w3.org/2000/svg">
    <defs>
        <linearGradient x1="0%" y1="0%" x2="100%" y2="0%" id="a">
            <stop stop-color="#3023AE" offset="0%"/>
            <stop stop-color="#C86DD7" offset="100%"/>
        </linearGradient>
    </defs>
    <path stroke="url(#a)"
          stroke-width="3"
          stroke-linejoin="round"
          stroke-linecap="round"
          d="M5 40 C 5.25 38.52, 8.95 11.07, 10 10 S 14.45 28.43, 15 29.82 S 18.57 34.82, 20 35.26 S 23.54 33.21, 25 32.89 S 28.5 33.01, 30 33.05 S 33.5 33.09, 35 33.13 S 38.53 33.6, 40 33.29 S 43.53 31.28, 45 31 S 48.55 30.99, 50 31.39 S 53.55 33.37, 55 33.76 S 58.52 33.82, 60 34.08 S 63.55 35.87, 65 35.5 S 68.52 31.78, 70 31.55 S 73.55 33.55, 75 33.92 S 78.5 34.2, 80 34.08 S 83.5 33.14, 85 33.13 S 88.52 33.74, 90 34 S 93.51 35.01, 95 34.87 S 98.5 33.07, 100 33.05 S 103.5 34.76, 105 34.71 S 108.5 32.62, 110 32.74 S 113.68 36.21, 115 35.5 S 118.51 27.52, 120 27.37 S 123.83 33.53, 125 34.47 S 128.68 36.13, 130 35.42 S 133.59 29.62, 135 29.11 S 138.62 31.2, 140 31.79 S 143.5 33.32, 145 33.37 S 148.52 32.38, 150 32.11 S 153.57 32.01, 155 31.55 S 158.51 28.69, 160 28.87 S 163.62 32.14, 165 32.74 S 168.5 33.28, 170 33.21 S 173.51 32.45, 175 32.26 S 178.5 32, 180 31.95 S 183.5 31.86, 185 31.95 S 188.54 32.26, 190 32.58 S 193.55 33.78, 195 34.16 S 198.51 35.32, 200 35.18 S 203.6 33.76, 205 33.21"
          fill="none"/>
    <circle r="4" cx="5" cy="40" fill="#3023AE"/>
    <circle r="4" cx="205" cy="33.21" fill="#C86DD7"/>      
</svg>