<svg width="200" height="50" viewBox="0 0 210 50" xmlns="http://www.w3.org/2000/svg">
    <defs>
        <linearGradient x1="0%" y1="0%" x2="100%" y2="0%" id="a">
            <stop stop-color="#3023AE" offset="0%"/>
            <stop stop-color="#C86DD7" offset="100%"/>
        </linearGradient>
    </defs>
    <path stroke="url(#a)"
          stroke-width="3"
          stroke-linejoin="round"
          stroke-linecap="round"
          d="M5 40 C 5.27 38.52, 8.58 12.93, 10 12.44 S 14.42 35.13, 15 36.51 S 18.5 36.26, 20 36.16 S 23.56 35.41, 25 35.81 S 28.58 39.44, 30 38.95 S 34.14 33.56, 35 32.33 S 38.69 25.38, 40 24.65 S 43.54 26.38, 45 26.74 S 48.5 27.04, 50 27.09 S 54.1 28.29, 55 27.09 S 58.79 14.73, 60 13.84 S 63.87 18.78, 65 19.77 S 68.91 23.59, 70 22.56 S 73.63 10.97, 75 10.35 S 79.03 16.87, 80 18.02 S 83.69 21.48, 85 22.21 S 88.5 23.55, 90 23.6 S 93.73 23.36, 95 22.56 S 98.91 18.36, 100 17.33 S 103.63 12.52, 105 13.14 S 108.67 21.16, 110 21.86 S 113.54 18.73, 115 18.37 S 118.81 18.51, 120 19.42 S 123.57 26.5, 125 26.05 S 128.95 17.35, 130 16.28 S 133.62 16.51, 135 15.93 S 138.6 11.55, 140 12.09 S 143.96 18.69, 145 19.77 S 148.52 22.3, 150 22.56 S 153.73 22.31, 155 21.51 S 158.77 17.14, 160 16.28 S 163.5 14.63, 165 14.53 S 168.58 15.09, 170 15.58 S 173.5 18.02, 175 18.02 S 178.52 15.84, 180 15.58 S 183.52 16.02, 185 16.28 S 188.51 17.17, 190 17.33 S 193.58 17.82, 195 17.33 S 198.79 14.73, 200 13.84 S 203.81 10.91, 205 10"
          fill="none"/>
    <circle r="4" cx="5" cy="40" fill="#3023AE"/>
    <circle r="4" cx="205" cy="10" fill="#C86DD7"/>      
</svg>