<svg width="200" height="50" viewBox="0 0 210 50" xmlns="http://www.w3.org/2000/svg">
    <defs>
        <linearGradient x1="0%" y1="0%" x2="100%" y2="0%" id="a">
            <stop stop-color="#3023AE" offset="0%"/>
            <stop stop-color="#C86DD7" offset="100%"/>
        </linearGradient>
    </defs>
    <path stroke="url(#a)"
          stroke-width="3"
          stroke-linejoin="round"
          stroke-linecap="round"
          d="M5 40 C 6.27 39.21, 8.53 37.2, 10 36.9 S 13.5 37.85, 15 37.93 S 18.52 37.18, 20 37.41 S 23.93 40.53, 25 39.48 S 28.55 27.96, 30 27.59 S 33.93 35.85, 35 36.9 S 38.53 37.71, 40 37.41 S 43.5 34.75, 45 34.83 S 48.5 37.93, 50 37.93 S 53.51 34.67, 55 34.83 S 58.52 38.74, 60 38.97 S 63.53 36.68, 65 36.38 S 68.51 36.75, 70 36.9 S 73.5 37.41, 75 37.41 S 78.5 36.82, 80 36.9 S 83.51 37.78, 85 37.93 S 88.51 37.77, 90 37.93 S 93.5 39.05, 95 38.97 S 98.55 37.79, 100 37.41 S 103.52 36.61, 105 36.38 S 108.53 35.56, 110 35.86 S 113.5 38.45, 115 38.45 S 118.59 36.37, 120 35.86 S 123.81 35.75, 125 34.83 S 128.79 28.98, 130 28.1 S 133.9 26.57, 135 27.59 S 138.79 36.53, 140 37.41 S 143.67 35.52, 145 34.83 S 148.52 32.01, 150 32.24 S 153.59 35.87, 155 36.38 S 158.55 35.48, 160 35.86 S 163.5 39.05, 165 38.97 S 168.61 35.91, 170 35.34 S 173.5 34.83, 175 34.83 S 178.93 36.39, 180 35.34 S 184.45 26.4, 185 25 S 188.52 10.23, 190 10 S 194.36 22.09, 195 23.45 S 198.93 30.16, 200 31.21 S 203.61 32.71, 205 33.28"
          fill="none"/>
    <circle r="4" cx="5" cy="40" fill="#3023AE"/>
    <circle r="4" cx="205" cy="33.28" fill="#C86DD7"/>      
</svg>