<svg width="200" height="50" viewBox="0 0 210 50" xmlns="http://www.w3.org/2000/svg">
    <defs>
        <linearGradient x1="0%" y1="0%" x2="100%" y2="0%" id="a">
            <stop stop-color="#3023AE" offset="0%"/>
            <stop stop-color="#C86DD7" offset="100%"/>
        </linearGradient>
    </defs>
    <path stroke="url(#a)"
          stroke-width="3"
          stroke-linejoin="round"
          stroke-linecap="round"
          d="M5 40 C 5.25 38.52, 9.23 11.29, 10 10 S 14.44 21.75, 15 23.14 S 19.17 33.85, 20 35.1 S 23.5 38.05, 25 38.13 S 28.5 35.66, 30 35.64 S 33.58 37.48, 35 37.97 S 38.51 38.96, 40 39.12 S 43.5 39.06, 45 39.07 S 48.5 39.13, 50 39.2 S 53.5 39.55, 55 39.55 S 58.5 39.2, 60 39.19 S 63.5 39.39, 65 39.46 S 68.5 39.65, 70 39.68 S 73.5 39.71, 75 39.68 S 78.51 39.66, 80 39.49 S 83.51 38.71, 85 38.53 S 88.51 38.13, 90 38.29 S 93.52 39.37, 95 39.6 S 98.5 39.86, 100 39.86 S 103.5 39.64, 105 39.63 S 108.5 39.76, 110 39.81 S 113.5 39.96, 115 39.97 S 118.5 39.9, 120 39.89 S 123.5 39.87, 125 39.87 S 128.5 39.93, 130 39.92 S 133.5 39.82, 135 39.81 S 138.5 39.8, 140 39.82 S 143.5 39.93, 145 39.94 S 148.5 39.88, 150 39.87 S 153.5 39.84, 155 39.86 S 158.5 39.98, 160 39.98 S 163.5 39.9, 165 39.89 S 168.5 39.94, 170 39.94 S 173.5 39.87, 175 39.86 S 178.5 39.82, 180 39.84 S 183.5 39.95, 185 39.97 S 188.5 39.96, 190 39.95 S 193.5 39.93, 195 39.92 S 198.5 39.87, 200 39.87 S 203.5 39.89, 205 39.9"
          fill="none"/>
    <circle r="4" cx="5" cy="40" fill="#3023AE"/>
    <circle r="4" cx="205" cy="39.9" fill="#C86DD7"/>      
</svg>