<svg width="200" height="50" viewBox="0 0 210 50" xmlns="http://www.w3.org/2000/svg">
    <defs>
        <linearGradient x1="0%" y1="0%" x2="100%" y2="0%" id="a">
            <stop stop-color="#3023AE" offset="0%"/>
            <stop stop-color="#C86DD7" offset="100%"/>
        </linearGradient>
    </defs>
    <path stroke="url(#a)"
          stroke-width="3"
          stroke-linejoin="round"
          stroke-linecap="round"
          d="M5 40 C 6.12 39, 8.54 35.89, 10 35.56 S 13.54 37.45, 15 37.78 S 19 38.89, 20 37.78 S 23.51 26.84, 25 26.67 S 28.75 35.84, 30 36.67 S 33.51 33.5, 35 33.33 S 38.58 35.08, 40 35.56 S 43.58 36.2, 45 36.67 S 48.51 38.72, 50 38.89 S 53.58 38.25, 55 37.78 S 58.51 35.73, 60 35.56 S 63.54 36.34, 65 36.67 S 69.38 39.15, 70 37.78 S 73.69 15.17, 75 14.44 S 79.3 30.89, 80 32.22 S 83.58 32.85, 85 33.33 S 88.58 35.08, 90 35.56 S 93.54 37, 95 36.67 S 98.54 33.66, 100 33.33 S 103.58 34.91, 105 34.44 S 108.63 30.61, 110 30 S 113.54 29.67, 115 30 S 118.63 31.61, 120 32.22 S 123.51 34.61, 125 34.44 S 128.51 31.28, 130 31.11 S 133.58 33.8, 135 33.33 S 138.51 27.95, 140 27.78 S 144 33.33, 145 32.22 S 148.75 17.5, 150 16.67 S 153.75 24.73, 155 25.56 S 158.51 23.16, 160 23.33 S 163.75 25.84, 165 26.67 S 168.82 30.92, 170 30 S 174.23 20.18, 175 18.89 S 178.58 13.8, 180 13.33 S 183.54 15.89, 185 15.56 S 188.69 11.84, 190 11.11 S 193.69 9.27, 195 10 S 198.54 16.34, 200 16.67 S 203.88 13.22, 205 12.22"
          fill="none"/>
    <circle r="4" cx="5" cy="40" fill="#3023AE"/>
    <circle r="4" cx="205" cy="12.219999999999999" fill="#C86DD7"/>      
</svg>