<svg width="200" height="50" viewBox="0 0 210 50" xmlns="http://www.w3.org/2000/svg">
    <defs>
        <linearGradient x1="0%" y1="0%" x2="100%" y2="0%" id="a">
            <stop stop-color="#3023AE" offset="0%"/>
            <stop stop-color="#C86DD7" offset="100%"/>
        </linearGradient>
    </defs>
    <path stroke="url(#a)"
          stroke-width="3"
          stroke-linejoin="round"
          stroke-linecap="round"
          d="M5 40 C 5.78 38.72, 9.53 33.24, 10 31.82 S 13.58 9.52, 15 10 S 19.45 33.84, 20 35.23 S 23.76 36.08, 25 35.23 S 28.92 29.45, 30 28.41 S 33.76 24.83, 35 25.68 S 38.99 34.12, 40 35.23 S 43.5 36.49, 45 36.59 S 48.55 36.31, 50 35.91 S 53.51 33.66, 55 33.86 S 58.58 36.79, 60 37.27 S 63.53 36.97, 65 37.27 S 68.5 39.32, 70 39.32 S 73.53 37.57, 75 37.27 S 78.5 37.17, 80 37.27 S 83.55 38.34, 85 37.95 S 88.5 34.55, 90 34.55 S 93.55 37.56, 95 37.95 S 98.5 37.27, 100 37.27 S 103.5 37.95, 105 37.95 S 108.53 37.57, 110 37.27 S 113.5 35.91, 115 35.91 S 118.5 37.17, 120 37.27 S 123.5 36.59, 125 36.59 S 128.53 36.97, 130 37.27 S 133.53 38.34, 135 38.64 S 138.53 39.62, 140 39.32 S 143.5 36.69, 145 36.59 S 148.55 38.24, 150 38.64 S 153.65 39.97, 155 39.32 S 158.5 33.96, 160 33.86 S 163.68 37.92, 165 38.64 S 168.5 39.32, 170 39.32 S 173.53 38.94, 175 38.64 S 178.5 37.27, 180 37.27 S 183.51 38.44, 185 38.64 S 188.65 39.29, 190 38.64 S 193.65 34.51, 195 33.86 S 198.53 33.56, 200 33.86 S 203.61 35.34, 205 35.91"
          fill="none"/>
    <circle r="4" cx="5" cy="40" fill="#3023AE"/>
    <circle r="4" cx="205" cy="35.91" fill="#C86DD7"/>      
</svg>