<svg width="200" height="50" viewBox="0 0 210 50" xmlns="http://www.w3.org/2000/svg">
    <defs>
        <linearGradient x1="0%" y1="0%" x2="100%" y2="0%" id="a">
            <stop stop-color="#3023AE" offset="0%"/>
            <stop stop-color="#C86DD7" offset="100%"/>
        </linearGradient>
    </defs>
    <path stroke="url(#a)"
          stroke-width="3"
          stroke-linejoin="round"
          stroke-linecap="round"
          d="M5 40 C 5.25 38.52, 8.52 10.24, 10 10 S 14.51 36.96, 15 38.38 S 18.5 39.07, 20 39.19 S 23.5 39.19, 25 39.19 S 28.5 39.19, 30 39.19 S 33.5 39.19, 35 39.19 S 38.5 39.19, 40 39.19 S 43.5 39.19, 45 39.19 S 48.5 39.19, 50 39.19 S 53.5 39.19, 55 39.19 S 58.5 39.19, 60 39.19 S 63.5 39.19, 65 39.19"
          fill="none"/>
    <circle r="4" cx="5" cy="40" fill="#3023AE"/>
    <circle r="4" cx="65" cy="39.19" fill="#C86DD7"/>      
</svg>