<svg width="200" height="50" viewBox="0 0 210 50" xmlns="http://www.w3.org/2000/svg">
    <defs>
        <linearGradient x1="0%" y1="0%" x2="100%" y2="0%" id="a">
            <stop stop-color="#3023AE" offset="0%"/>
            <stop stop-color="#C86DD7" offset="100%"/>
        </linearGradient>
    </defs>
    <path stroke="url(#a)"
          stroke-width="3"
          stroke-linejoin="round"
          stroke-linecap="round"
          d="M5 40 C 5.25 38.52, 8.94 11.06, 10 10 S 14.27 28.69, 15 30 S 18.51 27.78, 20 27.95 S 23.5 31.04, 25 31.14 S 28.59 29.15, 30 28.64 S 33.52 27.26, 35 27.5 S 38.5 30.3, 40 30.23 S 43.5 26.98, 45 27.05 S 48.5 30.78, 50 30.68 S 53.52 26.12, 55 26.36 S 58.67 31.57, 60 32.27 S 63.5 31.56, 65 31.59 S 68.53 32.2, 70 32.5 S 73.54 33.28, 75 33.64 S 78.59 34.49, 80 35 S 83.56 36.85, 85 37.27 S 88.62 38.54, 90 37.95 S 94.02 34.09, 95 32.95 S 99.35 27.71, 100 26.36 S 103.6 11.73, 105 12.27 S 109.23 28.95, 110 30.23 S 113.58 29.34, 115 28.86 S 118.5 26.82, 120 26.82 S 123.53 28.56, 125 28.86 S 128.56 29.28, 130 28.86 S 133.62 26.5, 135 25.91 S 138.51 24.72, 140 24.55 S 143.56 24.35, 145 24.77 S 148.5 27.57, 150 27.5 S 153.52 24.59, 155 24.32 S 158.58 25.2, 160 25.68 S 163.51 27.56, 165 27.73 S 168.61 27.39, 170 26.82 S 173.61 24.21, 175 23.64 S 178.58 23.21, 180 22.73 S 183.62 20.82, 185 20.23 S 188.5 18.31, 190 18.41 S 193.52 20.64, 195 20.91 S 198.7 20.97, 200 20.23 S 203.94 16.29, 205 15.23"
          fill="none"/>
    <circle r="4" cx="5" cy="40" fill="#3023AE"/>
    <circle r="4" cx="205" cy="15.23" fill="#C86DD7"/>      
</svg>