<svg width="200" height="50" viewBox="0 0 210 50" xmlns="http://www.w3.org/2000/svg">
    <defs>
        <linearGradient x1="0%" y1="0%" x2="100%" y2="0%" id="a">
            <stop stop-color="#3023AE" offset="0%"/>
            <stop stop-color="#C86DD7" offset="100%"/>
        </linearGradient>
    </defs>
    <path stroke="url(#a)"
          stroke-width="3"
          stroke-linejoin="round"
          stroke-linecap="round"
          d="M5 40 C 6.4 39.47, 8.53 38.4, 10 38.12 S 13.5 38.12, 15 38.12 S 18.5 38.12, 20 38.12 S 23.5 38.12, 25 38.12 S 28.5 38.12, 30 38.12 S 33.5 38.12, 35 38.12 S 38.5 38.12, 40 38.12 S 43.5 38.12, 45 38.12 S 48.5 38.12, 50 38.12 S 53.5 38.12, 55 38.12 S 58.5 38.12, 60 38.12 S 63.5 38.12, 65 38.12 S 68.5 38.12, 70 38.12 S 73.5 38.12, 75 38.12 S 78.5 38.12, 80 38.12 S 83.91 39.15, 85 38.12 S 88.53 29.03, 90 28.75 S 93.6 35.72, 95 36.25 S 98.8 33.4, 100 32.5 S 103.6 28.22, 105 28.75 S 108.53 35.97, 110 36.25 S 114.47 32.02, 115 30.62 S 118.53 10.28, 120 10 S 124.39 27.38, 125 28.75 S 128.6 31.97, 130 32.5 S 133.53 32.22, 135 32.5 S 138.6 34.9, 140 34.37 S 143.53 28.47, 145 28.75 S 148.53 35.97, 150 36.25 S 153.53 30.34, 155 30.62 S 158.8 37.22, 160 38.12 S 163.5 38.12, 165 38.12 S 168.53 38.4, 170 38.12 S 173.5 36.25, 175 36.25 S 179.35 39.47, 180 38.12 S 183.69 16.35, 185 15.62 S 189.39 31.13, 190 32.5 S 193.53 37.84, 195 38.12 S 198.6 34.9, 200 34.37 S 203.5 34.37, 205 34.37"
          fill="none"/>
    <circle r="4" cx="5" cy="40" fill="#3023AE"/>
    <circle r="4" cx="205" cy="34.37" fill="#C86DD7"/>      
</svg>