<svg width="200" height="50" viewBox="0 0 210 50" xmlns="http://www.w3.org/2000/svg">
    <defs>
        <linearGradient x1="0%" y1="0%" x2="100%" y2="0%" id="a">
            <stop stop-color="#3023AE" offset="0%"/>
            <stop stop-color="#C86DD7" offset="100%"/>
        </linearGradient>
    </defs>
    <path stroke="url(#a)"
          stroke-width="3"
          stroke-linejoin="round"
          stroke-linecap="round"
          d="M5 40 C 5.26 38.52, 8.51 12.17, 10 11.99 S 14.48 37.37, 15 38.78 S 18.51 38.88, 20 39.02 S 23.5 39.68, 25 39.75 S 28.5 39.49, 30 39.48 S 33.5 39.68, 35 39.71 S 38.5 39.7, 40 39.69 S 43.5 39.65, 45 39.67 S 48.5 39.81, 50 39.85 S 53.5 39.92, 55 39.92 S 58.5 39.83, 60 39.83 S 63.5 39.89, 65 39.9 S 68.5 39.91, 70 39.88 S 73.5 39.72, 75 39.71 S 78.5 39.76, 80 39.79 S 83.5 39.91, 85 39.92 S 88.5 39.83, 90 39.83 S 93.5 39.94, 95 39.9 S 98.5 39.67, 100 39.59 S 103.5 39.3, 105 39.34 S 108.5 39.76, 110 39.85 S 113.5 39.93, 115 39.92 S 118.5 39.81, 120 39.79 S 123.52 40.08, 125 39.81 S 128.5 37.97, 130 37.97 S 133.52 39.52, 135 39.79 S 138.5 39.81, 140 39.81 S 143.5 39.91, 145 39.81 S 148.5 39.16, 150 39.15 S 153.5 39.69, 155 39.77 S 159.52 41.09, 160 39.67 S 163.53 10.31, 165 10 S 169.51 36.11, 170 37.53 S 173.52 38.7, 175 38.94 S 178.5 39.13, 180 39.17 S 183.5 39.28, 185 39.23 S 188.5 38.86, 190 38.86 S 193.51 39.42, 195 39.25 S 198.5 37.79, 200 37.74 S 203.54 38.56, 205 38.9"
          fill="none"/>
    <circle r="4" cx="5" cy="40" fill="#3023AE"/>
    <circle r="4" cx="205" cy="38.9" fill="#C86DD7"/>      
</svg>