<svg width="200" height="50" viewBox="0 0 210 50" xmlns="http://www.w3.org/2000/svg">
    <defs>
        <linearGradient x1="0%" y1="0%" x2="100%" y2="0%" id="a">
            <stop stop-color="#3023AE" offset="0%"/>
            <stop stop-color="#C86DD7" offset="100%"/>
        </linearGradient>
    </defs>
    <path stroke="url(#a)"
          stroke-width="3"
          stroke-linejoin="round"
          stroke-linecap="round"
          d="M5 40 C 5.64 38.64, 8.72 30.2, 10 29.41 S 13.72 33.03, 15 33.82 S 18.51 35.72, 20 35.59 S 23.51 33.07, 25 32.94 S 28.52 34.45, 30 34.71 S 33.52 34.97, 35 34.71 S 39.1 34.14, 40 32.94 S 44.1 22.67, 45 21.47 S 49.01 18.58, 50 19.71 S 54.1 31.74, 55 32.94 S 58.52 32.68, 60 32.94 S 63.88 35.7, 65 34.71 S 68.88 25.11, 70 24.12 S 73.52 25.62, 75 25.88 S 78.55 25.5, 80 25.88 S 84.2 29.8, 85 28.53 S 88.88 10.99, 90 10 S 94.23 18.42, 95 19.71 S 98.52 26.5, 100 26.76 S 103.55 21.09, 105 21.47 S 108.55 29.03, 110 29.41 S 113.5 24.12, 115 24.12 S 118.52 29.67, 120 29.41 S 123.52 22.61, 125 22.35 S 128.55 28.03, 130 27.65 S 134.23 21, 135 19.71 S 138.59 10.38, 140 10.88 S 143.83 22.31, 145 23.24 S 148.92 19.86, 150 18.82 S 153.52 13.79, 155 13.53 S 159.17 15.81, 160 17.06 S 163.77 27.66, 165 28.53 S 168.92 25.16, 170 24.12 S 173.67 19.52, 175 18.82 S 178.97 17.73, 180 18.82 S 183.83 28.48, 185 29.41 S 188.5 26.76, 190 26.76 S 193.92 30.45, 195 29.41 S 198.92 18.1, 200 17.06 S 203.67 19.01, 205 19.71"
          fill="none"/>
    <circle r="4" cx="5" cy="40" fill="#3023AE"/>
    <circle r="4" cx="205" cy="19.71" fill="#C86DD7"/>      
</svg>