<svg width="200" height="50" viewBox="0 0 210 50" xmlns="http://www.w3.org/2000/svg">
    <defs>
        <linearGradient x1="0%" y1="0%" x2="100%" y2="0%" id="a">
            <stop stop-color="#3023AE" offset="0%"/>
            <stop stop-color="#C86DD7" offset="100%"/>
        </linearGradient>
    </defs>
    <path stroke="url(#a)"
          stroke-width="3"
          stroke-linejoin="round"
          stroke-linecap="round"
          d="M5 40 C 5.38 38.55, 8.5 20.85, 10 20.74 S 14.28 37.95, 15 39.26 S 18.5 38.83, 20 38.89 S 23.5 39.52, 25 39.63 S 28.5 39.63, 30 39.63 S 33.5 39.63, 35 39.63 S 38.5 39.63, 40 39.63 S 43.52 39.85, 45 39.63 S 48.52 38.37, 50 38.15 S 53.52 38.37, 55 38.15 S 58.5 36.73, 60 36.67 S 63.5 37.89, 65 37.78 S 68.54 36.26, 70 35.93 S 73.5 35.45, 75 35.56 S 78.51 36.84, 80 36.67 S 83.52 34.66, 85 34.44 S 88.52 35.41, 90 35.19 S 93.52 33.18, 95 32.96 S 98.5 33.59, 100 33.7 S 103.5 33.59, 105 33.7 S 108.56 34.87, 110 34.44 S 113.56 31.17, 115 30.74 S 118.5 31.48, 120 31.48 S 123.51 30.91, 125 30.74 S 128.53 30.64, 130 30.37 S 133.71 29.66, 135 28.89 S 138.88 25.44, 140 24.44 S 143.73 20.8, 145 20 S 148.73 17.35, 150 18.15 S 153.56 25.87, 155 26.3 S 158.86 22.08, 160 21.11 S 163.58 18.25, 165 17.78 S 168.59 18.3, 170 17.78 S 173.65 13.42, 175 14.07 S 178.67 21.9, 180 22.59 S 183.53 19.53, 185 19.26 S 188.55 20.36, 190 20.74 S 193.69 22.58, 195 21.85 S 199.03 16.34, 200 15.19 S 203.96 11.08, 205 10"
          fill="none"/>
    <circle r="4" cx="5" cy="40" fill="#3023AE"/>
    <circle r="4" cx="205" cy="10" fill="#C86DD7"/>      
</svg>