<svg width="200" height="50" viewBox="0 0 210 50" xmlns="http://www.w3.org/2000/svg">
    <defs>
        <linearGradient x1="0%" y1="0%" x2="100%" y2="0%" id="a">
            <stop stop-color="#3023AE" offset="0%"/>
            <stop stop-color="#C86DD7" offset="100%"/>
        </linearGradient>
    </defs>
    <path stroke="url(#a)"
          stroke-width="3"
          stroke-linejoin="round"
          stroke-linecap="round"
          d="M5 40 C 6.5 39.96, 8.52 40.13, 10 39.86 S 13.51 38.39, 15 38.18 S 18.6 39, 20 38.47 S 23.56 34.82, 25 34.4 S 28.82 36.48, 30 35.55 S 34.45 27.9, 35 26.5 S 38.97 8.91, 40 10 S 44.49 35.67, 45 37.08 S 48.61 38.37, 50 37.81 S 54.06 34.25, 55 33.08 S 58.51 25.44, 60 25.28 S 63.76 31.18, 65 32.03 S 68.52 31.85, 70 32.1 S 73.51 33.6, 75 33.73 S 78.54 33.31, 80 32.97 S 83.54 31.75, 85 31.39 S 88.52 30.29, 90 30.51 S 93.5 32.74, 95 32.85 S 98.51 31.42, 100 31.26 S 103.5 31.71, 105 31.75 S 108.5 31.59, 110 31.51 S 113.5 31.24, 115 31.2 S 118.5 31.22, 120 31.22 S 123.5 31.21, 125 31.17 S 128.51 30.82, 130 30.94 S 133.51 31.84, 135 31.99 S 138.53 32.23, 140 31.93 S 143.83 30.87, 145 29.93 S 148.5 23.96, 150 23.95 S 153.67 29.16, 155 29.86 S 158.51 29.42, 160 29.21 S 163.5 28.36, 165 28.44 S 168.5 29.84, 170 29.77 S 173.51 28.21, 175 28 S 178.5 28.26, 180 28.37 S 183.52 28.51, 185 28.74 S 188.53 30.19, 190 29.9 S 193.5 26.78, 195 26.79 S 198.5 29.92, 200 29.98 S 203.69 27.93, 205 27.2"
          fill="none"/>
    <circle r="4" cx="5" cy="40" fill="#3023AE"/>
    <circle r="4" cx="205" cy="27.2" fill="#C86DD7"/>      
</svg>