<svg width="200" height="50" viewBox="0 0 210 50" xmlns="http://www.w3.org/2000/svg">
    <defs>
        <linearGradient x1="0%" y1="0%" x2="100%" y2="0%" id="a">
            <stop stop-color="#3023AE" offset="0%"/>
            <stop stop-color="#C86DD7" offset="100%"/>
        </linearGradient>
    </defs>
    <path stroke="url(#a)"
          stroke-width="3"
          stroke-linejoin="round"
          stroke-linecap="round"
          d="M5 40 C 6.46 39.66, 8.54 39.19, 10 38.85 S 13.5 37.69, 15 37.69 S 18.51 38.68, 20 38.85 S 23.96 39.93, 25 38.85 S 28.51 28.63, 30 28.46 S 33.9 36.67, 35 37.69 S 38.51 37.86, 40 37.69 S 43.51 36.71, 45 36.54 S 48.51 36.37, 50 36.54 S 53.77 38.54, 55 37.69 S 58.54 29.96, 60 29.62 S 63.7 34.63, 65 35.38 S 68.54 35.72, 70 35.38 S 73.51 33.25, 75 33.08 S 78.54 33.89, 80 34.23 S 83.51 35.55, 85 35.38 S 88.5 33.08, 90 33.08 S 94.4 36.76, 95 35.38 S 98.83 10.94, 100 10 S 104.38 25.95, 105 27.31 S 108.54 32.26, 110 31.92 S 113.7 25.75, 115 25 S 118.64 25.52, 120 26.15 S 123.51 29.45, 125 29.62 S 128.51 27.14, 130 27.31 S 133.77 29.92, 135 30.77 S 138.9 35.25, 140 34.23 S 143.54 21.88, 145 21.54 S 148.58 31.43, 150 31.92 S 153.51 25.17, 155 25 S 158.7 30.02, 160 30.77 S 163.54 31.11, 165 30.77 S 168.54 28.8, 170 28.46 S 173.51 28.63, 175 28.46 S 178.83 28.25, 180 27.31 S 183.77 21.23, 185 20.38 S 189.17 19.13, 190 20.38 S 193.9 34.36, 195 35.38 S 198.77 30.47, 200 29.62 S 203.54 28.8, 205 28.46"
          fill="none"/>
    <circle r="4" cx="5" cy="40" fill="#3023AE"/>
    <circle r="4" cx="205" cy="28.46" fill="#C86DD7"/>      
</svg>