<svg width="200" height="50" viewBox="0 0 210 50" xmlns="http://www.w3.org/2000/svg">
    <defs>
        <linearGradient x1="0%" y1="0%" x2="100%" y2="0%" id="a">
            <stop stop-color="#3023AE" offset="0%"/>
            <stop stop-color="#C86DD7" offset="100%"/>
        </linearGradient>
    </defs>
    <path stroke="url(#a)"
          stroke-width="3"
          stroke-linejoin="round"
          stroke-linecap="round"
          d="M5 40 C 6.42 39.52, 8.52 38.58, 10 38.33 S 13.5 38.33, 15 38.33 S 18.5 38.33, 20 38.33 S 23.5 38.33, 25 38.33 S 28.5 38.33, 30 38.33 S 33.5 38.33, 35 38.33 S 39.1 39.53, 40 38.33 S 43.5 25, 45 25 S 49.02 37.19, 50 38.33 S 53.5 36.67, 55 36.67 S 58.52 38.08, 60 38.33 S 63.52 38.58, 65 38.33 S 68.58 37.14, 70 36.67 S 73.52 34.75, 75 35 S 78.58 37.86, 80 38.33 S 83.85 39.29, 85 38.33 S 88.58 30.47, 90 30 S 93.85 34.04, 95 35 S 98.66 39, 100 38.33 S 103.5 30, 105 30 S 108.75 37.5, 110 38.33 S 113.66 37.34, 115 36.67 S 118.5 33.33, 120 33.33 S 123.5 36.67, 125 36.67 S 128.5 33.33, 130 33.33 S 133.58 37.14, 135 36.67 S 138.52 29.75, 140 30 S 143.58 37.86, 145 38.33 S 149.5 34.74, 150 33.33 S 153.75 10.83, 155 10 S 159.41 25.29, 160 26.67 S 163.52 33.58, 165 33.33 S 168.58 24.52, 170 25 S 173.58 37.14, 175 36.67 S 179.02 22.81, 180 21.67 S 183.75 24.17, 185 25 S 188.75 27.5, 190 28.33 S 193.52 31.92, 195 31.67 S 198.52 26.92, 200 26.67 S 203.75 29.17, 205 30"
          fill="none"/>
    <circle r="4" cx="5" cy="40" fill="#3023AE"/>
    <circle r="4" cx="205" cy="30" fill="#C86DD7"/>      
</svg>