<svg width="200" height="50" viewBox="0 0 210 50" xmlns="http://www.w3.org/2000/svg">
    <defs>
        <linearGradient x1="0%" y1="0%" x2="100%" y2="0%" id="a">
            <stop stop-color="#3023AE" offset="0%"/>
            <stop stop-color="#C86DD7" offset="100%"/>
        </linearGradient>
    </defs>
    <path stroke="url(#a)"
          stroke-width="3"
          stroke-linejoin="round"
          stroke-linecap="round"
          d="M5 40 C 6.44 39.59, 8.56 38.98, 10 38.57 S 13.5 37.14, 15 37.14 S 18.52 38.36, 20 38.57 S 24.14 39.8, 25 38.57 S 28.52 24.5, 30 24.29 S 34.08 35.96, 35 37.14 S 38.5 37.14, 40 37.14 S 43.56 37.55, 45 37.14 S 48.5 34.29, 50 34.29 S 53.7 37.88, 55 37.14 S 58.78 29.44, 60 28.57 S 63.86 29.02, 65 30 S 68.52 36.93, 70 37.14 S 73.62 32.02, 75 31.43 S 78.52 33.07, 80 32.86 S 83.52 29.79, 85 30 S 89.33 35.63, 90 34.29 S 93.86 10.98, 95 10 S 99.14 24.48, 100 25.71 S 103.51 24.5, 105 24.29 S 108.56 24.7, 110 24.29 S 113.5 21.43, 115 21.43 S 118.62 23.7, 120 24.29 S 123.7 24.97, 125 25.71 S 128.56 29.59, 130 30 S 134.01 29.7, 135 28.57 S 138.5 18.57, 140 18.57 S 143.62 27.98, 145 28.57 S 148.52 22.65, 150 22.86 S 153.5 30, 155 30 S 158.56 23.27, 160 22.86 S 163.56 26.73, 165 27.14 S 168.52 25.92, 170 25.71 S 173.86 26.69, 175 25.71 S 179.01 18.27, 180 17.14 S 184.14 13.06, 185 14.29 S 189.08 30.25, 190 31.43 S 193.5 27.14, 195 27.14 S 199.01 32.56, 200 31.43 S 204.55 17.14, 205 15.71"
          fill="none"/>
    <circle r="4" cx="5" cy="40" fill="#3023AE"/>
    <circle r="4" cx="205" cy="15.71" fill="#C86DD7"/>      
</svg>