<svg width="200" height="50" viewBox="0 0 210 50" xmlns="http://www.w3.org/2000/svg">
    <defs>
        <linearGradient x1="0%" y1="0%" x2="100%" y2="0%" id="a">
            <stop stop-color="#3023AE" offset="0%"/>
            <stop stop-color="#C86DD7" offset="100%"/>
        </linearGradient>
    </defs>
    <path stroke="url(#a)"
          stroke-width="3"
          stroke-linejoin="round"
          stroke-linecap="round"
          d="M5 40 C 6.06 38.94, 8.66 35.67, 10 35 S 13.5 35, 15 35 S 18.5 35, 20 35 S 23.5 35, 25 35 S 28.5 35, 30 35 S 33.5 35, 35 35 S 38.5 35, 40 35 S 43.5 35, 45 35 S 48.5 35, 50 35 S 53.5 35, 55 35 S 58.5 35, 60 35 S 63.5 35, 65 35 S 68.5 35, 70 35 S 73.94 36.06, 75 35 S 78.5 25, 80 25 S 83.94 33.94, 85 35 S 89.17 36.25, 90 35 S 93.94 21.06, 95 20 S 99.17 23.75, 100 25 S 104.17 36.25, 105 35 S 108.66 10.67, 110 10 S 114.33 28.66, 115 30 S 118.66 29.33, 120 30 S 123.66 34.33, 125 35 S 128.66 35.67, 130 35 S 133.66 30.67, 135 30 S 138.5 30, 140 30 S 143.66 29.33, 145 30 S 148.66 34.33, 150 35 S 153.94 36.06, 155 35 S 158.94 26.06, 160 25 S 163.66 24.33, 165 25 S 168.5 30, 170 30 S 173.5 25, 175 25 S 178.94 28.94, 180 30 S 183.66 34.33, 185 35 S 188.5 35, 190 35 S 194.33 36.34, 195 35 S 198.94 16.06, 200 15 S 204.33 23.66, 205 25"
          fill="none"/>
    <circle r="4" cx="5" cy="40" fill="#3023AE"/>
    <circle r="4" cx="205" cy="25" fill="#C86DD7"/>      
</svg>