<svg width="200" height="50" viewBox="0 0 210 50" xmlns="http://www.w3.org/2000/svg">
    <defs>
        <linearGradient x1="0%" y1="0%" x2="100%" y2="0%" id="a">
            <stop stop-color="#3023AE" offset="0%"/>
            <stop stop-color="#C86DD7" offset="100%"/>
        </linearGradient>
    </defs>
    <path stroke="url(#a)"
          stroke-width="3"
          stroke-linejoin="round"
          stroke-linecap="round"
          d="M5 40 C 6.5 39.99, 8.5 39.98, 10 39.98 S 13.5 40.07, 15 39.99 S 18.51 39.63, 20 39.46 S 23.5 38.93, 25 38.86 S 28.5 39.08, 30 38.98 S 33.6 38.74, 35 38.21 S 38.5 35.27, 40 35.19 S 43.54 38.02, 45 37.68 S 48.51 33.08, 50 32.89 S 53.59 35.87, 55 36.37 S 58.5 36.41, 60 36.45 S 63.5 36.71, 65 36.64 S 68.51 36.14, 70 36 S 73.5 35.71, 75 35.73 S 78.5 36.09, 80 36.15 S 83.5 36.18, 85 36.16 S 88.5 36.07, 90 35.99 S 93.53 35.91, 95 35.62 S 98.51 34.2, 100 34 S 103.5 34.21, 105 34.26 S 108.5 34.33, 110 34.31 S 114.43 35.52, 115 34.13 S 118.5 9.96, 120 10 S 124.43 33, 125 34.39 S 128.5 34.45, 130 34.51 S 133.51 34.64, 135 34.8 S 138.5 35.43, 140 35.55 S 143.5 35.62, 145 35.61 S 148.5 35.45, 150 35.47 S 153.74 36.55, 155 35.74 S 158.51 29.24, 160 29.07 S 163.51 34.76, 165 34.61 S 168.93 29.15, 170 28.09 S 173.71 23.95, 175 24.71 S 178.92 32.9, 180 33.94 S 183.51 34.21, 185 34.37 S 188.61 35.58, 190 35.01 S 193.51 30.43, 195 30.24 S 198.61 33.19, 200 33.76 S 203.51 34.15, 205 34.32"
          fill="none"/>
    <circle r="4" cx="5" cy="40" fill="#3023AE"/>
    <circle r="4" cx="205" cy="34.32" fill="#C86DD7"/>      
</svg>