<svg width="200" height="50" viewBox="0 0 210 50" xmlns="http://www.w3.org/2000/svg">
    <defs>
        <linearGradient x1="0%" y1="0%" x2="100%" y2="0%" id="a">
            <stop stop-color="#3023AE" offset="0%"/>
            <stop stop-color="#C86DD7" offset="100%"/>
        </linearGradient>
    </defs>
    <path stroke="url(#a)"
          stroke-width="3"
          stroke-linejoin="round"
          stroke-linecap="round"
          d="M5 40 C 5.25 38.52, 8.56 10.43, 10 10 S 14.44 35.61, 15 37 S 18.53 34.71, 20 35 S 23.61 38.44, 25 39 S 28.5 39, 30 39 S 33.5 39, 35 39 S 38.5 39, 40 39 S 43.5 39, 45 39 S 48.5 39, 50 39 S 53.5 39, 55 39 S 58.5 39, 60 39 S 63.5 39, 65 39 S 68.5 39, 70 39 S 73.5 39, 75 39 S 78.5 39, 80 39 S 83.5 39, 85 39 S 88.5 39, 90 39 S 93.5 39, 95 39 S 98.5 39, 100 39 S 103.5 39, 105 39 S 108.5 39, 110 39 S 113.5 39, 115 39 S 118.5 39, 120 39 S 123.5 39, 125 39 S 128.5 39, 130 39 S 133.5 39, 135 39 S 138.5 39, 140 39 S 143.5 39, 145 39 S 148.5 39, 150 39 S 153.5 39, 155 39 S 158.5 39, 160 39 S 163.5 39, 165 39 S 168.5 39, 170 39 S 173.51 39.15, 175 39 S 178.5 38, 180 38 S 183.5 39, 185 39 S 188.53 38.29, 190 38 S 193.61 37.56, 195 37 S 198.5 34, 200 34 S 203.71 36.23, 205 37"
          fill="none"/>
    <circle r="4" cx="5" cy="40" fill="#3023AE"/>
    <circle r="4" cx="205" cy="37" fill="#C86DD7"/>      
</svg>