<svg width="200" height="50" viewBox="0 0 210 50" xmlns="http://www.w3.org/2000/svg">
    <defs>
        <linearGradient x1="0%" y1="0%" x2="100%" y2="0%" id="a">
            <stop stop-color="#3023AE" offset="0%"/>
            <stop stop-color="#C86DD7" offset="100%"/>
        </linearGradient>
    </defs>
    <path stroke="url(#a)"
          stroke-width="3"
          stroke-linejoin="round"
          stroke-linecap="round"
          d="M5 40 C 6.32 39.28, 8.51 37.41, 10 37.27 S 13.52 38.82, 15 39.09 S 18.5 39.09, 20 39.09 S 23.51 39.23, 25 39.09 S 28.59 38.69, 30 38.18 S 33.52 35.72, 35 35.45 S 38.52 36.09, 40 36.36 S 43.55 36.87, 45 37.27 S 48.68 39.81, 50 39.09 S 53.55 32.22, 55 31.82 S 58.63 35.74, 60 36.36 S 63.59 36.87, 65 36.36 S 68.59 33.24, 70 32.73 S 73.55 33.13, 75 32.73 S 78.55 29.61, 80 30 S 83.55 35.05, 85 35.45 S 88.63 33.35, 90 32.73 S 93.55 30.52, 95 30.91 S 98.55 35.05, 100 35.45 S 103.52 33.37, 105 33.64 S 108.55 36.88, 110 37.27 S 113.84 37.31, 115 36.36 S 119.15 30.33, 120 29.09 S 123.51 21.68, 125 21.82 S 128.63 29.38, 130 30 S 133.52 26.63, 135 26.36 S 138.59 27.67, 140 28.18 S 143.59 29.49, 145 30 S 148.84 32.77, 150 31.82 S 154.38 23.18, 155 21.82 S 158.84 9.05, 160 10 S 163.99 28.89, 165 30 S 168.89 21.92, 170 20.91 S 173.68 20.19, 175 20.91 S 178.55 25.96, 180 26.36 S 183.51 23.5, 185 23.64 S 188.52 27.54, 190 27.27 S 193.52 22.09, 195 21.82 S 198.68 24.73, 200 25.45 S 203.59 26.76, 205 27.27"
          fill="none"/>
    <circle r="4" cx="5" cy="40" fill="#3023AE"/>
    <circle r="4" cx="205" cy="27.27" fill="#C86DD7"/>      
</svg>