<svg width="200" height="50" viewBox="0 0 210 50" xmlns="http://www.w3.org/2000/svg">
    <defs>
        <linearGradient x1="0%" y1="0%" x2="100%" y2="0%" id="a">
            <stop stop-color="#3023AE" offset="0%"/>
            <stop stop-color="#C86DD7" offset="100%"/>
        </linearGradient>
    </defs>
    <path stroke="url(#a)"
          stroke-width="3"
          stroke-linejoin="round"
          stroke-linecap="round"
          d="M5 40 C 5.59 38.62, 8.55 28.58, 10 28.21 S 13.94 36.43, 15 37.49 S 18.51 38.38, 20 38.22 S 23.51 36.52, 25 36.39 S 28.52 37.59, 30 37.33 S 33.5 34.54, 35 34.62 S 38.52 37.61, 40 37.86 S 43.7 37.05, 45 36.3 S 48.6 32.58, 50 32.04 S 53.57 32.01, 55 32.47 S 58.6 34.77, 60 35.3 S 63.5 36.19, 65 36.25 S 68.51 35.83, 70 35.69 S 73.53 35.65, 75 35.34 S 78.5 33.69, 80 33.61 S 83.5 34.81, 85 34.8 S 88.5 33.63, 90 33.57 S 93.51 34.55, 95 34.43 S 98.52 33, 100 32.74 S 103.54 32.33, 105 32.68 S 108.54 35.52, 110 35.16 S 113.53 30.46, 115 30.18 S 118.5 33.2, 120 33.26 S 123.55 30.97, 125 30.6 S 128.53 30.39, 130 30.7 S 133.63 33.35, 135 32.74 S 138.79 27.18, 140 26.29 S 143.7 24.66, 145 25.4 S 148.81 31.06, 150 31.97 S 153.52 33.27, 155 33.03 S 158.52 30.62, 160 30.37 S 163.52 31.1, 165 31.33 S 168.56 32.36, 170 31.93 S 174.35 29.65, 175 28.3 S 178.96 12.03, 180 10.95 S 183.72 17.11, 185 17.89 S 188.51 16.89, 190 17.02 S 193.72 17.96, 195 18.75 S 198.87 24.2, 200 23.21 S 204.47 11.4, 205 10"
          fill="none"/>
    <circle r="4" cx="5" cy="40" fill="#3023AE"/>
    <circle r="4" cx="205" cy="10" fill="#C86DD7"/>      
</svg>