<svg width="200" height="50" viewBox="0 0 210 50" xmlns="http://www.w3.org/2000/svg">
    <defs>
        <linearGradient x1="0%" y1="0%" x2="100%" y2="0%" id="a">
            <stop stop-color="#3023AE" offset="0%"/>
            <stop stop-color="#C86DD7" offset="100%"/>
        </linearGradient>
    </defs>
    <path stroke="url(#a)"
          stroke-width="3"
          stroke-linejoin="round"
          stroke-linecap="round"
          d="M5 40 C 6.36 39.37, 8.5 37.81, 10 37.69 S 13.52 39, 15 39.23 S 18.5 39.23, 20 39.23 S 23.5 39.23, 25 39.23 S 29.18 40.49, 30 39.23 S 33.9 24.87, 35 23.85 S 38.77 29.15, 40 30 S 43.64 30.14, 45 30.77 S 48.57 34.18, 50 34.62 S 53.6 34.39, 55 33.85 S 58.6 30.23, 60 30.77 S 63.52 37.92, 65 37.69 S 69.15 30.47, 70 29.23 S 73.64 23.71, 75 23.08 S 78.77 23.77, 80 24.62 S 83.85 29.03, 85 30 S 88.5 33.08, 90 33.08 S 93.57 30.44, 95 30 S 98.64 29.37, 100 30 S 103.52 34.39, 105 34.62 S 108.68 32.25, 110 31.54 S 114.31 30.56, 115 29.23 S 118.5 12.31, 120 12.31 S 123.64 28.6, 125 29.23 S 128.6 17.46, 130 16.92 S 134.02 24.25, 135 25.38 S 138.54 28.12, 140 28.46 S 143.6 27.15, 145 27.69 S 148.52 32.54, 150 32.31 S 153.52 26.38, 155 26.15 S 158.72 31.56, 160 30.77 S 163.72 20.79, 165 20 S 168.98 23.52, 170 24.62 S 173.54 30.43, 175 30.77 S 178.5 26.92, 180 26.92 S 183.72 29.98, 185 30.77 S 188.6 32.54, 190 33.08 S 194.21 35.9, 195 34.62 S 199.44 18.31, 200 16.92 S 204.12 11.22, 205 10"
          fill="none"/>
    <circle r="4" cx="5" cy="40" fill="#3023AE"/>
    <circle r="4" cx="205" cy="10" fill="#C86DD7"/>      
</svg>