<svg width="200" height="50" viewBox="0 0 210 50" xmlns="http://www.w3.org/2000/svg">
    <defs>
        <linearGradient x1="0%" y1="0%" x2="100%" y2="0%" id="a">
            <stop stop-color="#3023AE" offset="0%"/>
            <stop stop-color="#C86DD7" offset="100%"/>
        </linearGradient>
    </defs>
    <path stroke="url(#a)"
          stroke-width="3"
          stroke-linejoin="round"
          stroke-linecap="round"
          d="M5 40 C 5.56 38.61, 8.65 28.35, 10 27.69 S 13.87 34.09, 15 35.08 S 18.53 36.17, 20 36.46 S 23.5 36.96, 25 37.08 S 28.5 37.19, 30 37.23 S 33.51 37.17, 35 37.38 S 38.51 38.48, 40 38.62 S 43.52 38.56, 45 38.31 S 48.5 36.92, 50 36.92 S 53.5 38.33, 55 38.31 S 58.5 36.75, 60 36.77 S 63.51 38.28, 65 38.46 S 68.5 37.91, 70 38 S 73.5 39.06, 75 39.08 S 78.51 38.36, 80 38.15 S 83.5 37.62, 85 37.69 S 88.5 38.55, 90 38.62 S 93.5 38.08, 95 38.15 S 98.5 39.06, 100 39.08 S 103.5 38.36, 105 38.31 S 108.5 38.89, 110 38.77 S 113.51 37.72, 115 37.54 S 118.5 37.61, 120 37.54 S 123.5 37.13, 125 37.08 S 128.51 37.09, 130 37.23 S 133.5 37.93, 135 38 S 138.5 37.69, 140 37.69 S 143.5 37.93, 145 38 S 148.51 38.01, 150 38.15 S 153.51 39.13, 155 38.92 S 158.5 36.89, 160 36.77 S 163.5 38.08, 165 38.15 S 168.51 37.41, 170 37.23 S 173.5 36.97, 175 36.92 S 178.51 36.76, 180 36.92 S 183.5 37.98, 185 38 S 188.5 37.13, 190 37.08 S 193.5 37.67, 195 37.69 S 199.49 38.64, 200 37.23 S 204.73 11.48, 205 10"
          fill="none"/>
    <circle r="4" cx="5" cy="40" fill="#3023AE"/>
    <circle r="4" cx="205" cy="10" fill="#C86DD7"/>      
</svg>