<svg width="200" height="50" viewBox="0 0 210 50" xmlns="http://www.w3.org/2000/svg">
    <defs>
        <linearGradient x1="0%" y1="0%" x2="100%" y2="0%" id="a">
            <stop stop-color="#3023AE" offset="0%"/>
            <stop stop-color="#C86DD7" offset="100%"/>
        </linearGradient>
    </defs>
    <path stroke="url(#a)"
          stroke-width="3"
          stroke-linejoin="round"
          stroke-linecap="round"
          d="M5 40 C 5.25 38.52, 8.66 10.67, 10 10 S 14.5 33.6, 15 35.01 S 18.59 37.77, 20 38.28 S 23.5 38.62, 25 38.63 S 28.5 38.37, 30 38.35 S 33.5 38.42, 35 38.51 S 38.5 38.92, 40 38.93 S 43.5 38.63, 45 38.6 S 48.75 39.56, 50 38.73 S 53.52 32.12, 55 31.9 S 58.73 36.44, 60 37.24 S 63.5 38.08, 65 38.16 S 68.5 37.9, 70 37.78 S 73.5 37.43, 75 37.37 S 78.5 37.45, 80 37.36 S 83.5 36.86, 85 36.78 S 88.51 36.99, 90 36.81 S 93.51 35.78, 95 35.59 S 98.5 35.55, 100 35.55 S 103.5 35.52, 105 35.58 S 108.5 35.95, 110 35.97 S 113.5 35.66, 115 35.69 S 118.5 36.08, 120 36.15 S 123.5 36.15, 125 36.18 S 128.5 36.46, 130 36.37 S 133.51 35.68, 135 35.56 S 138.52 35.77, 140 35.54 S 143.51 33.91, 145 34.03 S 148.52 36.13, 150 36.36 S 153.51 35.68, 155 35.55 S 158.63 36.1, 160 35.49 S 163.5 31.18, 165 31.12 S 168.64 34.46, 170 35.1 S 173.52 35.57, 175 35.83 S 178.5 36.92, 180 36.85 S 183.52 35.6, 185 35.36 S 188.52 34.98, 190 35.21 S 193.51 36.73, 195 36.91 S 198.5 36.5, 200 36.41 S 203.5 36.33, 205 36.29"
          fill="none"/>
    <circle r="4" cx="5" cy="40" fill="#3023AE"/>
    <circle r="4" cx="205" cy="36.29" fill="#C86DD7"/>      
</svg>