<svg width="200" height="50" viewBox="0 0 210 50" xmlns="http://www.w3.org/2000/svg">
    <defs>
        <linearGradient x1="0%" y1="0%" x2="100%" y2="0%" id="a">
            <stop stop-color="#3023AE" offset="0%"/>
            <stop stop-color="#C86DD7" offset="100%"/>
        </linearGradient>
    </defs>
    <path stroke="url(#a)"
          stroke-width="3"
          stroke-linejoin="round"
          stroke-linecap="round"
          d="M5 40 C 5.43 38.56, 8.58 23.8, 10 23.33 S 14.1 35.47, 15 36.67 S 18.5 36.67, 20 36.67 S 23.5 36.67, 25 36.67 S 28.5 36.67, 30 36.67 S 33.5 36.67, 35 36.67 S 38.5 36.67, 40 36.67 S 43.5 36.67, 45 36.67 S 48.5 36.67, 50 36.67 S 53.5 36.67, 55 36.67 S 58.5 36.67, 60 36.67 S 63.5 36.67, 65 36.67 S 68.5 36.67, 70 36.67 S 73.5 36.67, 75 36.67 S 78.5 36.67, 80 36.67 S 83.5 36.67, 85 36.67 S 88.5 36.67, 90 36.67 S 93.5 36.67, 95 36.67 S 98.5 36.67, 100 36.67 S 103.5 36.67, 105 36.67 S 108.5 36.67, 110 36.67 S 113.5 36.67, 115 36.67 S 118.5 36.67, 120 36.67 S 123.5 36.67, 125 36.67 S 128.5 36.67, 130 36.67 S 133.5 36.67, 135 36.67 S 138.5 36.67, 140 36.67 S 143.5 36.67, 145 36.67 S 148.5 36.67, 150 36.67 S 153.5 36.67, 155 36.67 S 159.47 38.07, 160 36.67 S 163.75 10.83, 165 10 S 169.47 28.6, 170 30 S 173.75 35.84, 175 36.67 S 178.5 36.67, 180 36.67 S 183.5 36.67, 185 36.67 S 188.5 36.67, 190 36.67"
          fill="none"/>
    <circle r="4" cx="5" cy="40" fill="#3023AE"/>
    <circle r="4" cx="190" cy="36.67" fill="#C86DD7"/>      
</svg>