<svg width="200" height="50" viewBox="0 0 210 50" xmlns="http://www.w3.org/2000/svg">
    <defs>
        <linearGradient x1="0%" y1="0%" x2="100%" y2="0%" id="a">
            <stop stop-color="#3023AE" offset="0%"/>
            <stop stop-color="#C86DD7" offset="100%"/>
        </linearGradient>
    </defs>
    <path stroke="url(#a)"
          stroke-width="3"
          stroke-linejoin="round"
          stroke-linecap="round"
          d="M5 40 C 6.06 38.94, 8.58 35.47, 10 35 S 13.58 36.2, 15 36.67 S 18.52 38.08, 20 38.33 S 23.5 38.33, 25 38.33 S 28.5 38.33, 30 38.33 S 33.5 38.33, 35 38.33 S 38.5 38.33, 40 38.33 S 43.5 38.33, 45 38.33 S 48.5 38.33, 50 38.33 S 53.5 38.33, 55 38.33 S 58.5 38.33, 60 38.33 S 63.5 38.33, 65 38.33 S 68.5 38.33, 70 38.33 S 73.5 38.33, 75 38.33 S 78.5 38.33, 80 38.33 S 83.5 38.33, 85 38.33 S 88.5 38.33, 90 38.33 S 93.5 38.33, 95 38.33 S 98.5 38.33, 100 38.33 S 103.5 38.33, 105 38.33 S 108.5 38.33, 110 38.33 S 113.5 38.33, 115 38.33 S 118.5 38.33, 120 38.33 S 123.5 38.33, 125 38.33 S 128.5 38.33, 130 38.33 S 133.5 38.33, 135 38.33 S 138.5 38.33, 140 38.33 S 143.5 38.33, 145 38.33 S 148.5 38.33, 150 38.33 S 153.5 38.33, 155 38.33 S 159.5 39.74, 160 38.33 S 164.02 11.14, 165 10 S 169.5 25.26, 170 26.67 S 174.02 37.19, 175 38.33 S 178.5 38.33, 180 38.33 S 183.5 38.33, 185 38.33 S 188.52 38.58, 190 38.33 S 193.58 37.14, 195 36.67"
          fill="none"/>
    <circle r="4" cx="5" cy="40" fill="#3023AE"/>
    <circle r="4" cx="195" cy="36.67" fill="#C86DD7"/>      
</svg>