<svg width="200" height="50" viewBox="0 0 210 50" xmlns="http://www.w3.org/2000/svg">
    <defs>
        <linearGradient x1="0%" y1="0%" x2="100%" y2="0%" id="a">
            <stop stop-color="#3023AE" offset="0%"/>
            <stop stop-color="#C86DD7" offset="100%"/>
        </linearGradient>
    </defs>
    <path stroke="url(#a)"
          stroke-width="3"
          stroke-linejoin="round"
          stroke-linecap="round"
          d="M5 40 C 5.36 38.54, 9.53 21.45, 10 20.03 S 13.98 8.9, 15 10 S 19.48 29.42, 20 30.83 S 23.75 36.19, 25 37.02 S 28.5 37.43, 30 37.42 S 33.5 37, 35 36.92 S 38.5 36.92, 40 36.91 S 43.52 37.06, 45 36.82 S 48.53 35.59, 50 35.3 S 53.5 34.9, 55 34.83 S 58.5 34.76, 60 34.84 S 63.5 35.23, 65 35.35 S 68.5 35.67, 70 35.61 S 73.5 35.06, 75 34.97 S 78.5 35.08, 80 35.03 S 83.52 34.86, 85 34.64 S 88.51 33.77, 90 33.56 S 93.5 33.15, 95 33.26 S 98.5 34.21, 100 34.29 S 103.5 33.82, 105 33.79 S 108.5 34.11, 110 34.08 S 113.5 33.64, 115 33.57 S 118.5 33.68, 120 33.62 S 123.5 33.25, 125 33.18 S 128.5 33.09, 130 33.16 S 133.51 33.48, 135 33.62 S 138.5 34.17, 140 34.11 S 143.51 33.34, 145 33.21 S 148.5 33.23, 150 33.26 S 153.5 33.34, 155 33.41 S 158.5 33.65, 160 33.7 S 163.5 33.76, 165 33.72 S 168.5 33.38, 170 33.46 S 173.52 34.48, 175 34.26 S 178.53 32.27, 180 31.95 S 183.51 32.27, 185 32.08 S 188.52 30.94, 190 30.7 S 193.52 30.23, 195 30.46 S 198.62 32.83, 200 32.25 S 204.04 27.4, 205 26.25"
          fill="none"/>
    <circle r="4" cx="5" cy="40" fill="#3023AE"/>
    <circle r="4" cx="205" cy="26.25" fill="#C86DD7"/>      
</svg>