<svg width="200" height="50" viewBox="0 0 210 50" xmlns="http://www.w3.org/2000/svg">
    <defs>
        <linearGradient x1="0%" y1="0%" x2="100%" y2="0%" id="a">
            <stop stop-color="#3023AE" offset="0%"/>
            <stop stop-color="#C86DD7" offset="100%"/>
        </linearGradient>
    </defs>
    <path stroke="url(#a)"
          stroke-width="3"
          stroke-linejoin="round"
          stroke-linecap="round"
          d="M5 40 C 6.24 39.15, 8.52 36.81, 10 36.56 S 13.53 38.01, 15 38.3 S 18.51 38.66, 20 38.53 S 23.5 37.37, 25 37.4 S 28.5 38.59, 30 38.7 S 33.5 38.13, 35 38.13 S 38.5 38.66, 40 38.72 S 43.75 39.37, 45 38.54 S 49.5 33.47, 50 32.05 S 53.51 9.79, 55 10 S 59.27 32.14, 60 33.45 S 63.63 28.5, 65 27.89 S 68.51 29.21, 70 29.04 S 73.51 26.6, 75 26.73 S 78.55 29.51, 80 29.88 S 83.56 29.71, 85 29.3 S 88.51 27.2, 90 27.07 S 93.59 27.94, 95 28.44 S 98.6 30.1, 100 30.63 S 103.52 31.99, 105 32.22 S 108.58 32.68, 110 32.2 S 113.52 29.07, 115 28.84 S 118.5 30.64, 120 30.67 S 123.5 29.04, 125 29.02 S 128.54 30.17, 130 30.53 S 133.55 31.85, 135 31.47 S 138.61 28.47, 140 27.91 S 143.5 27.32, 145 27.44 S 148.55 28.31, 150 28.69 S 153.53 29.77, 155 30.06 S 158.5 30.56, 160 30.65 S 163.5 30.75, 165 30.66 S 168.5 30.07, 170 30.06 S 173.5 30.59, 175 30.56 S 179 30.95, 180 29.83 S 183.51 19.5, 185 19.32 S 188.73 27.82, 190 28.62 S 193.5 25.67, 195 25.58 S 198.5 27.98, 200 27.99 S 203.64 26.29, 205 25.66"
          fill="none"/>
    <circle r="4" cx="5" cy="40" fill="#3023AE"/>
    <circle r="4" cx="205" cy="25.66" fill="#C86DD7"/>      
</svg>