<svg width="200" height="50" viewBox="0 0 210 50" xmlns="http://www.w3.org/2000/svg">
    <defs>
        <linearGradient x1="0%" y1="0%" x2="100%" y2="0%" id="a">
            <stop stop-color="#3023AE" offset="0%"/>
            <stop stop-color="#C86DD7" offset="100%"/>
        </linearGradient>
    </defs>
    <path stroke="url(#a)"
          stroke-width="3"
          stroke-linejoin="round"
          stroke-linecap="round"
          d="M5 40 C 6.48 39.76, 8.5 39.22, 10 39.18 S 13.5 39.61, 15 39.73 S 18.5 39.93, 20 39.96 S 23.5 39.94, 25 39.92 S 28.5 39.84, 30 39.84 S 33.5 39.91, 35 39.92 S 38.5 39.95, 40 39.94 S 43.5 39.89, 45 39.88 S 48.5 39.86, 50 39.86 S 53.5 39.87, 55 39.88 S 58.5 39.91, 60 39.92 S 63.5 39.93, 65 39.94 S 68.5 39.96, 70 39.96 S 73.5 39.96, 75 39.96 S 78.5 39.97, 80 39.96 S 83.5 39.92, 85 39.92 S 88.5 39.94, 90 39.94 S 93.5 39.91, 95 39.9 S 98.5 39.84, 100 39.84 S 103.5 39.91, 105 39.92 S 108.5 39.87, 110 39.88 S 113.5 39.95, 115 39.96 S 118.5 39.96, 120 39.96 S 124.42 41.32, 125 39.94 S 128.5 16.01, 130 15.95 S 134.42 38.15, 135 39.53 S 138.5 39.64, 140 39.69 S 143.5 39.87, 145 39.86 S 148.5 39.66, 150 39.65 S 153.5 39.76, 155 39.79 S 158.56 40.25, 160 39.82 S 163.5 36.87, 165 36.76 S 168.56 38.65, 170 39.08 S 173.5 39.62, 175 39.73 S 178.5 39.79, 180 39.79 S 183.5 39.73, 185 39.73 S 188.52 40.03, 190 39.81 S 194.52 39.65, 195 38.23 S 199.5 11.7, 200 10.29 S 203.5 10.09, 205 10"
          fill="none"/>
    <circle r="4" cx="5" cy="40" fill="#3023AE"/>
    <circle r="4" cx="205" cy="10" fill="#C86DD7"/>      
</svg>