<svg width="200" height="50" viewBox="0 0 210 50" xmlns="http://www.w3.org/2000/svg">
    <defs>
        <linearGradient x1="0%" y1="0%" x2="100%" y2="0%" id="a">
            <stop stop-color="#3023AE" offset="0%"/>
            <stop stop-color="#C86DD7" offset="100%"/>
        </linearGradient>
    </defs>
    <path stroke="url(#a)"
          stroke-width="3"
          stroke-linejoin="round"
          stroke-linecap="round"
          d="M5 40 C 5.25 38.52, 8.83 10.94, 10 10 S 14.28 30.64, 15 31.96 S 18.52 28.02, 20 28.27 S 23.79 32.73, 25 33.62 S 28.67 34.95, 30 35.64 S 33.58 38.32, 35 38.81 S 38.5 38.99, 40 39.07 S 43.5 39.32, 45 39.33 S 49.08 40.36, 50 39.17 S 53.58 26.83, 55 26.35 S 58.91 34.77, 60 35.8 S 63.53 35.5, 65 35.8 S 68.58 37.39, 70 37.87 S 73.51 38.96, 75 39.17 S 78.5 39.26, 80 39.27 S 83.5 39.21, 85 39.22 S 88.5 39.34, 90 39.33 S 93.5 39.07, 95 39.12 S 98.5 39.61, 100 39.69 S 103.5 39.75, 105 39.64 S 108.5 39.02, 110 38.96 S 113.5 39.18, 115 39.27 S 118.5 39.54, 120 39.58 S 123.5 39.51, 125 39.53 S 128.5 39.65, 130 39.69 S 133.5 39.79, 135 39.79 S 138.5 39.72, 140 39.69 S 143.5 39.57, 145 39.58 S 148.5 39.79, 150 39.79 S 153.5 39.59, 155 39.58 S 158.5 39.71, 160 39.74 S 163.5 39.77, 165 39.79 S 168.5 39.91, 170 39.9 S 173.5 39.69, 175 39.69 S 178.5 39.86, 180 39.9 S 183.5 39.94, 185 39.95 S 188.5 39.97, 190 39.95 S 193.5 39.91, 195 39.84 S 198.5 39.49, 200 39.48 S 203.5 39.66, 205 39.74"
          fill="none"/>
    <circle r="4" cx="5" cy="40" fill="#3023AE"/>
    <circle r="4" cx="205" cy="39.74" fill="#C86DD7"/>      
</svg>