<svg width="200" height="50" viewBox="0 0 210 50" xmlns="http://www.w3.org/2000/svg">
    <defs>
        <linearGradient x1="0%" y1="0%" x2="100%" y2="0%" id="a">
            <stop stop-color="#3023AE" offset="0%"/>
            <stop stop-color="#C86DD7" offset="100%"/>
        </linearGradient>
    </defs>
    <path stroke="url(#a)"
          stroke-width="3"
          stroke-linejoin="round"
          stroke-linecap="round"
          d="M5 40 C 6.41 39.5, 8.52 38.5, 10 38.24 S 13.5 38.24, 15 38.24 S 18.5 38.24, 20 38.24 S 23.5 38.24, 25 38.24 S 28.5 38.24, 30 38.24 S 33.5 38.24, 35 38.24 S 38.5 38.24, 40 38.24 S 43.5 38.24, 45 38.24 S 48.5 38.24, 50 38.24 S 53.5 38.24, 55 38.24 S 58.5 38.24, 60 38.24 S 63.5 38.24, 65 38.24 S 68.5 38.24, 70 38.24 S 73.5 38.24, 75 38.24 S 78.5 38.24, 80 38.24 S 83.5 38.24, 85 38.24 S 89.5 39.65, 90 38.24 S 93.67 10.7, 95 10 S 99.5 31.53, 100 32.94 S 103.52 38.5, 105 38.24 S 108.88 32.17, 110 31.18 S 113.5 29.41, 115 29.41 S 118.67 30.48, 120 31.18 S 123.52 34.45, 125 34.71 S 128.59 33.44, 130 32.94 S 133.59 31.68, 135 31.18 S 138.77 28.54, 140 29.41 S 143.52 37.98, 145 38.24 S 148.67 31.88, 150 31.18 S 153.52 32.68, 155 32.94 S 158.67 32.24, 160 32.94 S 163.52 37.98, 165 38.24 S 168.5 34.71, 170 34.71 S 173.77 39.11, 175 38.24 S 178.59 28.15, 180 27.65 S 183.52 34.45, 185 34.71 S 188.5 29.41, 190 29.41 S 193.52 34.45, 195 34.71 S 198.52 31.44, 200 31.18 S 203.59 32.44, 205 32.94"
          fill="none"/>
    <circle r="4" cx="5" cy="40" fill="#3023AE"/>
    <circle r="4" cx="205" cy="32.94" fill="#C86DD7"/>      
</svg>