<svg width="200" height="50" viewBox="0 0 210 50" xmlns="http://www.w3.org/2000/svg">
    <defs>
        <linearGradient x1="0%" y1="0%" x2="100%" y2="0%" id="a">
            <stop stop-color="#3023AE" offset="0%"/>
            <stop stop-color="#C86DD7" offset="100%"/>
        </linearGradient>
    </defs>
    <path stroke="url(#a)"
          stroke-width="3"
          stroke-linejoin="round"
          stroke-linecap="round"
          d="M5 40 C 5.25 38.52, 9.06 11.17, 10 10 S 14.31 26.17, 15 27.5 S 18.58 28.7, 20 29.17 S 23.7 30.07, 25 30.83 S 28.7 34.24, 30 35 S 33.52 36.42, 35 36.67 S 38.52 36.42, 40 36.67 S 43.52 38.58, 45 38.33 S 48.51 34.87, 50 35 S 53.58 38.7, 55 39.17 S 58.5 38.33, 60 38.33 S 63.51 39.04, 65 39.17 S 68.5 39.17, 70 39.17 S 73.5 39.17, 75 39.17 S 78.5 39.17, 80 39.17 S 83.62 39.75, 85 39.17 S 88.5 35, 90 35 S 93.58 38.7, 95 39.17 S 98.5 38.33, 100 38.33 S 103.51 39.04, 105 39.17 S 108.5 39.17, 110 39.17 S 113.5 39.17, 115 39.17 S 118.51 39.3, 120 39.17 S 123.5 38.33, 125 38.33 S 128.51 39.04, 130 39.17 S 133.5 39.17, 135 39.17 S 138.5 39.17, 140 39.17 S 143.5 39.17, 145 39.17"
          fill="none"/>
    <circle r="4" cx="5" cy="40" fill="#3023AE"/>
    <circle r="4" cx="145" cy="39.17" fill="#C86DD7"/>      
</svg>