<svg width="200" height="50" viewBox="0 0 210 50" xmlns="http://www.w3.org/2000/svg">
    <defs>
        <linearGradient x1="0%" y1="0%" x2="100%" y2="0%" id="a">
            <stop stop-color="#3023AE" offset="0%"/>
            <stop stop-color="#C86DD7" offset="100%"/>
        </linearGradient>
    </defs>
    <path stroke="url(#a)"
          stroke-width="3"
          stroke-linejoin="round"
          stroke-linecap="round"
          d="M5 40 C 6.5 39.98, 8.5 39.94, 10 39.94 S 13.5 39.97, 15 39.98 S 18.5 39.98, 20 39.98 S 23.5 39.98, 25 39.98 S 28.5 39.98, 30 39.98 S 33.5 39.98, 35 39.98 S 38.5 39.98, 40 39.98 S 44.53 41.4, 45 39.98 S 48.62 10.59, 50 10 S 54.47 34.33, 55 35.73 S 58.5 36.67, 60 36.73 S 63.5 36.22, 65 36.11 S 68.51 36.13, 70 35.97 S 73.5 34.98, 75 35.07 S 78.5 36.57, 80 36.56 S 83.58 35.52, 85 35.03 S 88.5 32.98, 90 33.08 S 93.62 35.15, 95 35.73 S 98.51 37.06, 100 37.27 S 103.51 37.24, 105 37.11 S 108.5 36.52, 110 36.43 S 113.54 36.87, 115 36.54 S 118.51 34.32, 120 34.17 S 123.57 36, 125 35.54 S 128.5 30.94, 130 30.95 S 133.6 35.05, 135 35.6 S 138.51 34.74, 140 34.87 S 143.5 36.38, 145 36.45 S 148.55 35.68, 150 35.31 S 153.5 33.88, 155 33.89 S 158.54 35.06, 160 35.41 S 163.5 36.24, 165 36.3 S 168.5 35.9, 170 35.81 S 173.5 35.61, 175 35.68 S 178.5 36.22, 180 36.3 S 183.51 36.35, 185 36.22 S 188.51 35.6, 190 35.46 S 193.77 36.14, 195 35.28 S 198.5 28.47, 200 28.44 S 204.1 33.91, 205 35.11"
          fill="none"/>
    <circle r="4" cx="5" cy="40" fill="#3023AE"/>
    <circle r="4" cx="205" cy="35.11" fill="#C86DD7"/>      
</svg>