<svg width="200" height="50" viewBox="0 0 210 50" xmlns="http://www.w3.org/2000/svg">
    <defs>
        <linearGradient x1="0%" y1="0%" x2="100%" y2="0%" id="a">
            <stop stop-color="#3023AE" offset="0%"/>
            <stop stop-color="#C86DD7" offset="100%"/>
        </linearGradient>
    </defs>
    <path stroke="url(#a)"
          stroke-width="3"
          stroke-linejoin="round"
          stroke-linecap="round"
          d="M5 40 C 5.29 38.53, 9.53 16.4, 10 14.98 S 14.3 8.67, 15 10 S 19.43 32.55, 20 33.94 S 23.51 34.08, 25 34.23 S 28.5 34.85, 30 34.92 S 33.5 34.84, 35 34.72 S 38.5 34.11, 40 34.14 S 43.54 34.59, 45 34.92 S 48.51 36.54, 50 36.38 S 53.51 34.01, 55 33.84 S 58.54 34.87, 60 35.21 S 63.5 36.15, 65 36.19 S 68.52 35.75, 70 35.5 S 73.5 34.43, 75 34.53 S 78.53 35.89, 80 36.19 S 83.5 36.54, 85 36.58 S 88.5 36.45, 90 36.48 S 93.5 36.79, 95 36.78 S 98.54 36.72, 100 36.38 S 103.6 34.98, 105 34.43 S 108.55 32.08, 110 32.48 S 114.12 38.39, 115 37.17 S 119.16 19.84, 120 18.6 S 123.76 21.56, 125 22.41 S 128.78 24.57, 130 25.44 S 133.52 29.8, 135 29.54 S 138.59 23.18, 140 23.68 S 143.97 31.97, 145 33.06 S 148.56 34.66, 150 34.23 S 153.58 30.5, 155 30.03 S 158.54 30.58, 160 30.91 S 163.88 33.28, 165 32.28 S 168.52 22.24, 170 22.02 S 173.9 29.79, 175 30.81 S 178.54 31.64, 180 31.3 S 183.5 28.56, 185 28.47 S 188.7 29.98, 190 30.72 S 193.58 33.64, 195 34.14 S 198.5 34.32, 200 34.23 S 203.51 33.75, 205 33.55"
          fill="none"/>
    <circle r="4" cx="5" cy="40" fill="#3023AE"/>
    <circle r="4" cx="205" cy="33.55" fill="#C86DD7"/>      
</svg>