<svg width="200" height="50" viewBox="0 0 210 50" xmlns="http://www.w3.org/2000/svg">
    <defs>
        <linearGradient x1="0%" y1="0%" x2="100%" y2="0%" id="a">
            <stop stop-color="#3023AE" offset="0%"/>
            <stop stop-color="#C86DD7" offset="100%"/>
        </linearGradient>
    </defs>
    <path stroke="url(#a)"
          stroke-width="3"
          stroke-linejoin="round"
          stroke-linecap="round"
          d="M5 40 C 5.72 38.68, 8.54 31.19, 10 30.83 S 13.85 36.54, 15 37.5 S 18.52 38.92, 20 39.17 S 23.5 39.17, 25 39.17 S 28.66 39.84, 30 39.17 S 33.51 34.3, 35 34.17 S 38.66 39, 40 38.33 S 43.52 29.42, 45 29.17 S 48.94 35.61, 50 36.67 S 53.51 39.05, 55 39.17 S 58.54 37.86, 60 37.5 S 63.5 36.67, 65 36.67 S 68.54 37.14, 70 37.5 S 73.58 39.64, 75 39.17 S 78.85 35.13, 80 34.17 S 83.66 30.16, 85 30.83 S 88.85 38.21, 90 39.17 S 93.62 39.75, 95 39.17 S 98.51 35.13, 100 35 S 103.51 38.45, 105 38.33 S 108.66 34.84, 110 34.17 S 113.54 32.97, 115 33.33 S 118.7 35.91, 120 36.67 S 123.54 38.81, 125 39.17 S 128.5 39.17, 130 39.17 S 133.52 39.42, 135 39.17 S 138.52 37.75, 140 37.5 S 143.52 37.25, 145 37.5 S 148.52 38.92, 150 39.17 S 154.51 40.59, 155 39.17 S 159.06 11.17, 160 10 S 164.5 25.26, 165 26.67 S 168.52 38.08, 170 38.33 S 173.66 29, 175 28.33 S 178.98 34.43, 180 33.33 S 183.54 17.86, 185 17.5 S 189.26 29.53, 190 30.83 S 193.58 34.52, 195 35 S 199.37 35.53, 200 34.17 S 204.65 14.79, 205 13.33"
          fill="none"/>
    <circle r="4" cx="5" cy="40" fill="#3023AE"/>
    <circle r="4" cx="205" cy="13.329999999999998" fill="#C86DD7"/>      
</svg>