<svg width="200" height="50" viewBox="0 0 210 50" xmlns="http://www.w3.org/2000/svg">
    <defs>
        <linearGradient x1="0%" y1="0%" x2="100%" y2="0%" id="a">
            <stop stop-color="#3023AE" offset="0%"/>
            <stop stop-color="#C86DD7" offset="100%"/>
        </linearGradient>
    </defs>
    <path stroke="url(#a)"
          stroke-width="3"
          stroke-linejoin="round"
          stroke-linecap="round"
          d="M5 40 C 5.37 38.55, 8.5 20.4, 10 20.33 S 14.31 38.18, 15 39.51 S 18.5 39.51, 20 39.51 S 23.5 39.51, 25 39.51 S 28.85 40.47, 30 39.51 S 33.5 31.15, 35 31.15 S 38.85 38.55, 40 39.51 S 43.5 39.51, 45 39.51 S 48.5 39.51, 50 39.51 S 53.5 39.58, 55 39.51 S 58.5 39.09, 60 39.02 S 63.5 38.95, 65 39.02 S 68.5 39.44, 70 39.51 S 73.5 39.51, 75 39.51 S 78.5 39.51, 80 39.51 S 83.5 39.51, 85 39.51 S 88.5 39.58, 90 39.51 S 93.5 39.02, 95 39.02 S 98.5 39.51, 100 39.51 S 103.5 39.02, 105 39.02 S 108.5 39.44, 110 39.51 S 113.5 39.51, 115 39.51 S 118.5 39.51, 120 39.51 S 123.5 39.51, 125 39.51 S 128.5 39.51, 130 39.51 S 133.5 39.51, 135 39.51 S 138.5 39.51, 140 39.51 S 143.5 39.51, 145 39.51 S 148.5 39.51, 150 39.51 S 153.5 39.51, 155 39.51 S 158.5 39.51, 160 39.51 S 164.52 40.93, 165 39.51 S 168.5 10.07, 170 10 S 174.51 37.6, 175 39.02 S 178.5 39.02, 180 39.02 S 183.52 39.24, 185 39.02 S 188.5 37.54, 190 37.54 S 193.5 39.02, 195 39.02 S 198.5 37.61, 200 37.54 S 203.53 38.23, 205 38.52"
          fill="none"/>
    <circle r="4" cx="5" cy="40" fill="#3023AE"/>
    <circle r="4" cx="205" cy="38.52" fill="#C86DD7"/>      
</svg>