<svg width="200" height="50" viewBox="0 0 210 50" xmlns="http://www.w3.org/2000/svg">
    <defs>
        <linearGradient x1="0%" y1="0%" x2="100%" y2="0%" id="a">
            <stop stop-color="#3023AE" offset="0%"/>
            <stop stop-color="#C86DD7" offset="100%"/>
        </linearGradient>
    </defs>
    <path stroke="url(#a)"
          stroke-width="3"
          stroke-linejoin="round"
          stroke-linecap="round"
          d="M5 40 C 6.49 39.79, 8.5 39.4, 10 39.29 S 13.5 39.29, 15 39.29 S 18.5 39.29, 20 39.29 S 23.5 39.29, 25 39.29 S 28.5 39.29, 30 39.29 S 33.5 39.29, 35 39.29 S 38.5 39.29, 40 39.29 S 43.5 39.29, 45 39.29 S 48.5 39.29, 50 39.29 S 53.5 39.29, 55 39.29 S 58.5 39.29, 60 39.29 S 63.5 39.29, 65 39.29 S 69.52 40.71, 70 39.29 S 73.94 11.06, 75 10 S 79.44 27.9, 80 29.29 S 83.94 33.94, 85 35 S 88.62 38.7, 90 39.29 S 93.52 39.5, 95 39.29 S 98.53 38.18, 100 37.86 S 104.41 38.52, 105 37.14 S 108.52 14.08, 110 14.29 S 114.44 37.18, 115 38.57 S 118.5 39.29, 120 39.29 S 123.5 38.68, 125 38.57 S 128.5 38.46, 130 38.57 S 133.5 39.29, 135 39.29 S 138.53 38.89, 140 38.57 S 143.5 37.03, 145 37.14 S 148.53 38.97, 150 39.29 S 153.5 39.29, 155 39.29 S 158.5 39.29, 160 39.29 S 163.5 39.29, 165 39.29 S 168.5 39.29, 170 39.29 S 173.5 39.29, 175 39.29 S 178.5 39.29, 180 39.29 S 183.5 39.29, 185 39.29 S 188.5 39.29, 190 39.29"
          fill="none"/>
    <circle r="4" cx="5" cy="40" fill="#3023AE"/>
    <circle r="4" cx="190" cy="39.29" fill="#C86DD7"/>      
</svg>