<svg width="200" height="50" viewBox="0 0 210 50" xmlns="http://www.w3.org/2000/svg">
    <defs>
        <linearGradient x1="0%" y1="0%" x2="100%" y2="0%" id="a">
            <stop stop-color="#3023AE" offset="0%"/>
            <stop stop-color="#C86DD7" offset="100%"/>
        </linearGradient>
    </defs>
    <path stroke="url(#a)"
          stroke-width="3"
          stroke-linejoin="round"
          stroke-linecap="round"
          d="M5 40 C 6.47 39.69, 8.5 39.01, 10 38.93 S 13.53 39.77, 15 39.46 S 18.6 37.32, 20 36.79 S 23.57 36.17, 25 35.71 S 28.5 33.65, 30 33.57 S 33.6 35.71, 35 35.18 S 38.52 30.06, 40 29.82 S 43.62 32.98, 45 33.57 S 48.71 34.87, 50 34.11 S 53.57 27.22, 55 27.68 S 58.74 36.51, 60 37.32 S 63.74 34.92, 65 34.11 S 68.68 31.6, 70 30.89 S 73.53 29.06, 75 28.75 S 78.57 29.21, 80 28.75 S 84 26.66, 85 25.54 S 88.55 17.89, 90 17.5 S 93.6 22.33, 95 22.86 S 98.62 20.66, 100 21.25 S 103.57 26.68, 105 27.14 S 109.24 25.76, 110 24.46 S 113.55 9.61, 115 10 S 119.15 25.91, 120 27.14 S 123.77 25.32, 125 24.46 S 128.65 20.83, 130 20.18 S 133.65 18.99, 135 19.64 S 138.5 24.92, 140 25 S 143.51 20.02, 145 20.18 S 148.62 25.48, 150 26.07 S 154.08 25.64, 155 24.46 S 158.5 13.21, 160 13.21 S 164 23.34, 165 24.46 S 168.51 24.62, 170 24.46 S 173.55 23.78, 175 23.39 S 178.62 21.2, 180 21.79 S 183.65 28.33, 185 27.68 S 188.77 17.82, 190 16.96 S 193.52 20.47, 195 20.71 S 198.86 19.55, 200 18.57 S 204.08 13.32, 205 12.14"
          fill="none"/>
    <circle r="4" cx="5" cy="40" fill="#3023AE"/>
    <circle r="4" cx="205" cy="12.14" fill="#C86DD7"/>      
</svg>