<svg width="200" height="50" viewBox="0 0 210 50" xmlns="http://www.w3.org/2000/svg">
    <defs>
        <linearGradient x1="0%" y1="0%" x2="100%" y2="0%" id="a">
            <stop stop-color="#3023AE" offset="0%"/>
            <stop stop-color="#C86DD7" offset="100%"/>
        </linearGradient>
    </defs>
    <path stroke="url(#a)"
          stroke-width="3"
          stroke-linejoin="round"
          stroke-linecap="round"
          d="M5 40 C 6.2 39.1, 8.6 36.78, 10 36.25 S 13.5 36.25, 15 36.25 S 19 37.37, 20 36.25 S 23.5 25, 25 25 S 28.8 35.35, 30 36.25 S 33.5 32.5, 35 32.5 S 38.6 35.72, 40 36.25 S 43.5 36.25, 45 36.25 S 48.5 36.25, 50 36.25 S 53.5 36.25, 55 36.25 S 58.5 36.25, 60 36.25 S 64.47 37.65, 65 36.25 S 68.6 10.53, 70 10 S 74.29 31.18, 75 32.5 S 78.6 29.28, 80 28.75 S 83.8 27.85, 85 28.75 S 88.6 36.78, 90 36.25 S 94.17 26.25, 95 25 S 98.6 20.72, 100 21.25 S 103.5 28.75, 105 28.75 S 108.8 20.35, 110 21.25 S 113.6 35.72, 115 36.25 S 118.6 25.53, 120 25 S 123.8 31.6, 125 32.5 S 128.6 31.97, 130 32.5 S 133.6 35.72, 135 36.25 S 138.8 37.15, 140 36.25 S 143.8 29.65, 145 28.75 S 148.8 29.65, 150 28.75 S 153.8 22.15, 155 21.25 S 158.8 20.35, 160 21.25 S 163.8 27.85, 165 28.75 S 168.6 29.28, 170 28.75 S 173.6 25.53, 175 25 S 179 26.12, 180 25 S 183.8 14.65, 185 13.75 S 189.29 16.18, 190 17.5 S 194.17 31.25, 195 32.5 S 198.8 33.4, 200 32.5 S 204.17 26.25, 205 25"
          fill="none"/>
    <circle r="4" cx="5" cy="40" fill="#3023AE"/>
    <circle r="4" cx="205" cy="25" fill="#C86DD7"/>      
</svg>