<svg width="200" height="50" viewBox="0 0 210 50" xmlns="http://www.w3.org/2000/svg">
    <defs>
        <linearGradient x1="0%" y1="0%" x2="100%" y2="0%" id="a">
            <stop stop-color="#3023AE" offset="0%"/>
            <stop stop-color="#C86DD7" offset="100%"/>
        </linearGradient>
    </defs>
    <path stroke="url(#a)"
          stroke-width="3"
          stroke-linejoin="round"
          stroke-linecap="round"
          d="M5 40 C 6.46 39.64, 9.21 40.03, 10 38.75 S 14.51 25.17, 15 23.75 S 19.06 8.83, 20 10 S 24.49 34.84, 25 36.25 S 28.54 37.14, 30 37.5 S 33.5 38.75, 35 38.75 S 38.54 37.86, 40 37.5 S 43.51 36.06, 45 36.25 S 48.54 38.39, 50 38.75 S 53.5 38.75, 55 38.75 S 58.5 38.75, 60 38.75 S 63.5 38.75, 65 38.75 S 68.5 38.75, 70 38.75 S 73.5 38.75, 75 38.75"
          fill="none"/>
    <circle r="4" cx="5" cy="40" fill="#3023AE"/>
    <circle r="4" cx="75" cy="38.75" fill="#C86DD7"/>      
</svg>