<svg width="200" height="50" viewBox="0 0 210 50" xmlns="http://www.w3.org/2000/svg">
    <defs>
        <linearGradient x1="0%" y1="0%" x2="100%" y2="0%" id="a">
            <stop stop-color="#3023AE" offset="0%"/>
            <stop stop-color="#C86DD7" offset="100%"/>
        </linearGradient>
    </defs>
    <path stroke="url(#a)"
          stroke-width="3"
          stroke-linejoin="round"
          stroke-linecap="round"
          d="M5 40 C 6.33 39.31, 8.51 37.59, 10 37.43 S 13.5 39.07, 15 38.95 S 18.5 36.65, 20 36.63 S 23.52 38.59, 25 38.84 S 28.5 38.26, 30 38.31 S 33.53 39.48, 35 39.19 S 38.5 36.22, 40 36.34 S 43.55 39.62, 45 39.99 S 48.53 39.2, 50 38.9 S 53.5 37.94, 55 37.98 S 59.5 40.58, 60 39.17 S 64.18 11.25, 65 10 S 69.38 22.57, 70 23.94 S 73.83 31.14, 75 32.08 S 78.5 31.95, 80 32.01 S 83.5 32.54, 85 32.49 S 88.54 32.02, 90 31.68 S 93.54 30.51, 95 30.18 S 98.5 29.37, 100 29.43 S 103.51 30.41, 105 30.6 S 108.52 30.95, 110 30.69 S 113.72 29.65, 115 28.87 S 118.54 24.99, 120 24.65 S 123.57 26.1, 125 26.55 S 128.5 27.89, 130 27.81 S 133.58 26.51, 135 26.02 S 138.52 24.59, 140 24.36 S 143.8 25.38, 145 24.49 S 148.65 17.57, 150 16.93 S 153.67 19.05, 155 19.74 S 158.5 22.07, 160 22.09 S 163.52 20.07, 165 19.85 S 168.5 20.6, 170 20.6 S 173.57 20.28, 175 19.84 S 178.5 17.41, 180 17.5 S 183.53 20.15, 185 20.44 S 188.74 20.29, 190 19.47 S 193.59 14.45, 195 13.93 S 198.51 15.87, 200 15.74 S 203.68 13.74, 205 13.03"
          fill="none"/>
    <circle r="4" cx="5" cy="40" fill="#3023AE"/>
    <circle r="4" cx="205" cy="13.030000000000001" fill="#C86DD7"/>      
</svg>