<svg width="200" height="50" viewBox="0 0 210 50" xmlns="http://www.w3.org/2000/svg">
    <defs>
        <linearGradient x1="0%" y1="0%" x2="100%" y2="0%" id="a">
            <stop stop-color="#3023AE" offset="0%"/>
            <stop stop-color="#C86DD7" offset="100%"/>
        </linearGradient>
    </defs>
    <path stroke="url(#a)"
          stroke-width="3"
          stroke-linejoin="round"
          stroke-linecap="round"
          d="M5 40 C 5.31 38.53, 8.81 17.35, 10 16.43 S 14.17 31.04, 15 32.29 S 18.53 31.12, 20 31.43 S 23.71 33.66, 25 34.43 S 28.64 36.79, 30 37.43 S 33.52 39.39, 35 39.14 S 38.69 36.44, 40 35.71 S 43.5 33.63, 45 33.57 S 48.56 34.86, 50 35.29 S 53.79 37.45, 55 36.57 S 58.76 28.85, 60 28 S 63.86 28.73, 65 29.71 S 68.76 35.72, 70 36.57 S 73.69 37.3, 75 36.57 S 78.51 30.81, 80 31 S 83.71 37.09, 85 37.86 S 89.17 38.25, 90 37 S 93.76 23.71, 95 22.86 S 99.08 28.96, 100 30.14 S 103.53 35.39, 105 35.71 S 108.52 32.54, 110 32.29 S 113.6 33.46, 115 34 S 118.55 35.77, 120 36.14 S 123.56 37, 125 36.57 S 128.76 33.99, 130 33.14 S 133.6 29.17, 135 29.71 S 138.51 36.81, 140 37 S 143.67 31.69, 145 31 S 148.5 31.8, 150 31.86 S 154.38 32.79, 155 31.43 S 158.52 10.25, 160 10 S 164.41 28.33, 165 29.71 S 168.58 33.08, 170 33.57 S 173.51 33.27, 175 33.14 S 178.52 32.96, 180 32.71 S 183.51 31.62, 185 31.43 S 188.5 31.37, 190 31.43 S 193.5 31.86, 195 31.86 S 198.51 31.24, 200 31.43 S 203.58 32.65, 205 33.14"
          fill="none"/>
    <circle r="4" cx="5" cy="40" fill="#3023AE"/>
    <circle r="4" cx="205" cy="33.14" fill="#C86DD7"/>      
</svg>