<svg width="200" height="50" viewBox="0 0 210 50" xmlns="http://www.w3.org/2000/svg">
    <defs>
        <linearGradient x1="0%" y1="0%" x2="100%" y2="0%" id="a">
            <stop stop-color="#3023AE" offset="0%"/>
            <stop stop-color="#C86DD7" offset="100%"/>
        </linearGradient>
    </defs>
    <path stroke="url(#a)"
          stroke-width="3"
          stroke-linejoin="round"
          stroke-linecap="round"
          d="M5 40 C 5.25 38.52, 8.97 11.09, 10 10 S 14.47 28.01, 15 29.41 S 18.77 35.6, 20 36.47 S 23.64 37.11, 25 36.47 S 28.54 32.1, 30 31.76 S 33.64 33.48, 35 34.12 S 38.56 36.05, 40 36.47 S 43.67 37.76, 45 37.06 S 48.71 31.94, 50 31.18 S 53.74 30.37, 55 31.18 S 58.64 37.01, 60 37.65 S 63.74 36.69, 65 35.88 S 68.51 31, 70 31.18 S 73.56 36.64, 75 37.06 S 78.56 34.54, 80 34.12 S 83.52 33.86, 85 34.12 S 88.51 35.71, 90 35.88 S 93.51 35.11, 95 35.29 S 98.5 37.06, 100 37.06 S 103.51 35.47, 105 35.29 S 108.81 36.79, 110 35.88 S 113.52 27.91, 115 27.65 S 118.71 33.36, 120 34.12 S 123.56 33.95, 125 33.53 S 128.52 31.44, 130 31.18 S 133.56 31.34, 135 31.76 S 138.71 33.36, 140 34.12 S 143.5 37.74, 145 37.65 S 148.64 34.17, 150 33.53 S 153.51 33.12, 155 32.94 S 158.59 32.85, 160 32.35 S 163.59 28.91, 165 29.41 S 168.64 35.24, 170 35.88 S 173.5 34.03, 175 34.12 S 178.54 36.81, 180 36.47 S 183.5 31.85, 185 31.76 S 188.81 36.79, 190 35.88 S 193.52 24.38, 195 24.12 S 198.84 33.17, 200 34.12 S 203.59 32.85, 205 32.35"
          fill="none"/>
    <circle r="4" cx="5" cy="40" fill="#3023AE"/>
    <circle r="4" cx="205" cy="32.35" fill="#C86DD7"/>      
</svg>