<svg width="200" height="50" viewBox="0 0 210 50" xmlns="http://www.w3.org/2000/svg">
    <defs>
        <linearGradient x1="0%" y1="0%" x2="100%" y2="0%" id="a">
            <stop stop-color="#3023AE" offset="0%"/>
            <stop stop-color="#C86DD7" offset="100%"/>
        </linearGradient>
    </defs>
    <path stroke="url(#a)"
          stroke-width="3"
          stroke-linejoin="round"
          stroke-linecap="round"
          d="M5 40 C 6.48 39.77, 8.5 39.33, 10 39.21 S 13.5 39.21, 15 39.21 S 18.5 39.21, 20 39.21 S 23.5 39.21, 25 39.21 S 28.5 39.21, 30 39.21 S 33.5 39.21, 35 39.21 S 38.5 39.21, 40 39.21 S 43.5 39.21, 45 39.21 S 48.5 39.21, 50 39.21 S 53.5 39.21, 55 39.21 S 58.5 39.21, 60 39.21 S 63.5 39.21, 65 39.21 S 68.5 39.21, 70 39.21 S 73.5 39.21, 75 39.21 S 78.5 39.21, 80 39.21 S 83.54 39.56, 85 39.21 S 88.5 36.84, 90 36.84 S 93.54 38.86, 95 39.21 S 98.52 39.44, 100 39.21 S 103.5 37.63, 105 37.63 S 108.91 40.24, 110 39.21 S 114.17 29.41, 115 28.16 S 118.87 23.23, 120 24.21 S 123.87 35.86, 125 36.84 S 128.52 33.12, 130 32.89 S 133.64 34.62, 135 35.26 S 138.5 37.63, 140 37.63 S 143.5 35.38, 145 35.26 S 148.82 37.77, 150 36.84 S 153.87 28.35, 155 27.37 S 158.73 27.36, 160 28.16 S 163.64 33.04, 165 33.68 S 168.54 33.23, 170 32.89 S 173.64 31.96, 175 31.32 S 179.36 29.52, 180 28.16 S 183.54 10.35, 185 10 S 188.64 25.15, 190 25.79 S 194.1 15.94, 195 14.74 S 198.64 11.73, 200 12.37 S 204.14 18.24, 205 19.47"
          fill="none"/>
    <circle r="4" cx="5" cy="40" fill="#3023AE"/>
    <circle r="4" cx="205" cy="19.47" fill="#C86DD7"/>      
</svg>