<svg width="200" height="50" viewBox="0 0 210 50" xmlns="http://www.w3.org/2000/svg">
    <defs>
        <linearGradient x1="0%" y1="0%" x2="100%" y2="0%" id="a">
            <stop stop-color="#3023AE" offset="0%"/>
            <stop stop-color="#C86DD7" offset="100%"/>
        </linearGradient>
    </defs>
    <path stroke="url(#a)"
          stroke-width="3"
          stroke-linejoin="round"
          stroke-linecap="round"
          d="M5 40 C 5.77 38.71, 8.5 31.65, 10 31.59 S 13.68 38.91, 15 39.63 S 19.3 38.4, 20 37.07 S 24.25 21.91, 25 20.61 S 28.75 19.05, 30 19.88 S 33.5 27.31, 35 27.2 S 38.73 19.94, 40 19.15 S 44.29 19.66, 45 20.98 S 49.06 36.63, 50 37.8 S 53.97 34.5, 55 33.41 S 58.5 27.25, 60 27.2 S 63.61 32.49, 65 33.05 S 69.15 32.46, 70 31.22 S 74.17 19.66, 75 18.41 S 78.77 15.36, 80 16.22 S 83.73 26.16, 85 25.37 S 88.51 10.16, 90 10 S 94.37 22.91, 95 24.27 S 98.51 31.43, 100 31.59 S 104.12 26.59, 105 25.37 S 108.75 16.86, 110 17.68 S 113.89 30.94, 115 31.95 S 118.53 27.15, 120 26.83 S 123.51 29.6, 125 29.76 S 128.52 27.71, 130 27.93 S 133.5 31.17, 135 31.22 S 138.5 28.4, 140 28.29 S 143.71 31.25, 145 30.49 S 148.65 23.08, 150 22.44 S 153.55 25.36, 155 25.73 S 158.51 24.84, 160 25 S 163.5 26.83, 165 26.83 S 168.73 24.21, 170 25 S 173.99 31.94, 175 33.05 S 178.85 36.95, 180 35.98 S 183.71 25.39, 185 24.63 S 188.52 30.34, 190 30.12 S 193.56 23.59, 195 23.17 S 198.54 26.88, 200 27.2 S 203.59 25.89, 205 25.37"
          fill="none"/>
    <circle r="4" cx="5" cy="40" fill="#3023AE"/>
    <circle r="4" cx="205" cy="25.369999999999997" fill="#C86DD7"/>      
</svg>