<svg width="200" height="50" viewBox="0 0 210 50" xmlns="http://www.w3.org/2000/svg">
    <defs>
        <linearGradient x1="0%" y1="0%" x2="100%" y2="0%" id="a">
            <stop stop-color="#3023AE" offset="0%"/>
            <stop stop-color="#C86DD7" offset="100%"/>
        </linearGradient>
    </defs>
    <path stroke="url(#a)"
          stroke-width="3"
          stroke-linejoin="round"
          stroke-linecap="round"
          d="M5 40 C 6.06 38.94, 8.54 35.36, 10 35 S 13.54 37.14, 15 37.5 S 18.5 37.5, 20 37.5 S 23.5 37.5, 25 37.5 S 28.5 37.5, 30 37.5 S 33.5 37.5, 35 37.5 S 38.5 37.5, 40 37.5 S 43.5 37.5, 45 37.5 S 48.5 37.5, 50 37.5 S 53.5 37.5, 55 37.5 S 58.5 37.5, 60 37.5 S 63.5 37.5, 65 37.5 S 68.5 37.5, 70 37.5 S 73.5 37.5, 75 37.5 S 78.5 37.5, 80 37.5 S 83.5 37.5, 85 37.5 S 88.5 37.5, 90 37.5 S 93.5 37.5, 95 37.5 S 98.5 37.5, 100 37.5 S 103.5 37.5, 105 37.5 S 108.5 37.5, 110 37.5 S 113.5 37.5, 115 37.5 S 119.06 38.67, 120 37.5 S 124.49 26.41, 125 25 S 128.54 9.64, 130 10 S 134.49 26.09, 135 27.5 S 138.94 36.44, 140 37.5 S 143.5 37.5, 145 37.5 S 148.94 38.56, 150 37.5 S 153.94 28.56, 155 27.5 S 158.5 27.5, 160 27.5 S 163.66 26.83, 165 27.5 S 168.66 33.17, 170 32.5 S 173.5 22.5, 175 22.5 S 178.5 32.5, 180 32.5 S 183.8 23.4, 185 22.5 S 188.8 24.1, 190 25 S 194.06 31.17, 195 30 S 198.66 13.17, 200 12.5 S 204.44 23.61, 205 25"
          fill="none"/>
    <circle r="4" cx="5" cy="40" fill="#3023AE"/>
    <circle r="4" cx="205" cy="25" fill="#C86DD7"/>      
</svg>