<svg width="200" height="50" viewBox="0 0 210 50" xmlns="http://www.w3.org/2000/svg">
    <defs>
        <linearGradient x1="0%" y1="0%" x2="100%" y2="0%" id="a">
            <stop stop-color="#3023AE" offset="0%"/>
            <stop stop-color="#C86DD7" offset="100%"/>
        </linearGradient>
    </defs>
    <path stroke="url(#a)"
          stroke-width="3"
          stroke-linejoin="round"
          stroke-linecap="round"
          d="M5 40 C 6.39 39.44, 8.53 38.29, 10 38 S 13.53 38.29, 15 38 S 18.5 36, 20 36 S 23.53 37.71, 25 38 S 29.5 39.41, 30 38 S 33.5 10, 35 10 S 39.5 36.59, 40 38 S 43.61 38.56, 45 38 S 48.5 34, 50 34 S 53.61 37.44, 55 38 S 58.61 38.56, 60 38 S 63.5 34, 65 34 S 68.61 37.44, 70 38 S 73.5 38, 75 38 S 78.5 38, 80 38 S 84.04 39.15, 85 38 S 88.71 26.77, 90 26 S 94.04 30.85, 95 32 S 98.61 37.44, 100 38 S 103.5 36, 105 36 S 108.5 38, 110 38 S 113.83 36.94, 115 36 S 118.61 30.56, 120 30 S 123.53 31.71, 125 32 S 128.71 31.23, 130 32 S 133.5 38, 135 38 S 138.71 32.77, 140 32 S 143.5 32, 145 32 S 148.61 31.44, 150 32 S 153.61 35.44, 155 36 S 158.53 36.29, 160 36 S 163.94 35.06, 165 34 S 168.61 25.44, 170 26 S 173.5 38, 175 38 S 178.71 26.77, 180 26 S 183.94 30.94, 185 32 S 188.53 36.29, 190 36 S 193.5 30, 195 30 S 199.21 37.27, 200 36 S 204.67 15.46, 205 14"
          fill="none"/>
    <circle r="4" cx="5" cy="40" fill="#3023AE"/>
    <circle r="4" cx="205" cy="14" fill="#C86DD7"/>      
</svg>