<svg width="200" height="50" viewBox="0 0 210 50" xmlns="http://www.w3.org/2000/svg">
    <defs>
        <linearGradient x1="0%" y1="0%" x2="100%" y2="0%" id="a">
            <stop stop-color="#3023AE" offset="0%"/>
            <stop stop-color="#C86DD7" offset="100%"/>
        </linearGradient>
    </defs>
    <path stroke="url(#a)"
          stroke-width="3"
          stroke-linejoin="round"
          stroke-linecap="round"
          d="M5 40 C 6.06 38.94, 8.66 35.67, 10 35 S 13.5 35, 15 35 S 18.5 35, 20 35 S 23.5 35, 25 35 S 28.5 35, 30 35 S 33.5 35, 35 35 S 38.5 35, 40 35 S 43.5 35, 45 35 S 48.5 35, 50 35 S 53.5 35, 55 35 S 58.5 35, 60 35 S 63.5 35, 65 35 S 68.5 35, 70 35 S 73.5 35, 75 35 S 78.5 35, 80 35 S 83.5 35, 85 35 S 88.5 35, 90 35 S 93.5 35, 95 35 S 98.5 35, 100 35 S 103.5 35, 105 35 S 108.5 35, 110 35 S 113.5 35, 115 35 S 118.5 35, 120 35 S 123.5 35, 125 35 S 128.5 35, 130 35 S 133.66 35.67, 135 35 S 138.5 30, 140 30 S 143.66 34.33, 145 35 S 148.5 35, 150 35 S 153.5 35, 155 35 S 158.66 35.67, 160 35 S 163.66 30.67, 165 30 S 169.33 31.34, 170 30 S 173.5 10, 175 10 S 179.33 28.66, 180 30 S 183.5 30, 185 30 S 189.33 31.34, 190 30 S 194.17 11.25, 195 10 S 198.94 13.94, 200 15 S 203.94 18.94, 205 20"
          fill="none"/>
    <circle r="4" cx="5" cy="40" fill="#3023AE"/>
    <circle r="4" cx="205" cy="20" fill="#C86DD7"/>      
</svg>