<svg width="200" height="50" viewBox="0 0 210 50" xmlns="http://www.w3.org/2000/svg">
    <defs>
        <linearGradient x1="0%" y1="0%" x2="100%" y2="0%" id="a">
            <stop stop-color="#3023AE" offset="0%"/>
            <stop stop-color="#C86DD7" offset="100%"/>
        </linearGradient>
    </defs>
    <path stroke="url(#a)"
          stroke-width="3"
          stroke-linejoin="round"
          stroke-linecap="round"
          d="M5 40 C 5.25 38.52, 8.5 10.08, 10 10 S 14.52 38.04, 15 39.46 S 18.5 39.52, 20 39.57 S 23.54 40.13, 25 39.79 S 28.59 37.73, 30 37.21 S 33.5 36.21, 35 36.13 S 38.5 36.71, 40 36.7 S 43.5 36.19, 45 36.08 S 48.5 35.88, 50 35.94 S 53.5 36.48, 55 36.48 S 58.51 36.05, 60 35.92 S 63.5 35.56, 65 35.6 S 68.51 36.07, 70 36.21 S 73.5 36.52, 75 36.54 S 78.5 36.36, 80 36.35 S 83.5 36.58, 85 36.48 S 88.52 35.91, 90 35.68 S 93.5 34.99, 95 34.9 S 98.5 35.1, 100 35.11 S 103.52 35.24, 105 35 S 108.52 33.72, 110 33.5 S 113.5 33.44, 115 33.53 S 118.5 33.97, 120 34.09 S 123.5 34.26, 125 34.33 S 128.5 34.53, 130 34.57 S 133.5 34.57, 135 34.57 S 138.5 34.46, 140 34.55 S 143.5 35.09, 145 35.19 S 148.51 35.4, 150 35.19 S 153.5 33.88, 155 33.77 S 158.5 34.41, 160 34.47 S 163.5 34.19, 165 34.2 S 168.53 34.25, 170 34.55 S 173.53 35.9, 175 36.21 S 178.5 36.7, 180 36.67 S 183.5 36.01, 185 36 S 188.51 36.47, 190 36.59 S 193.5 36.83, 195 36.83 S 198.5 36.63, 200 36.56 S 203.5 36.41, 205 36.35"
          fill="none"/>
    <circle r="4" cx="5" cy="40" fill="#3023AE"/>
    <circle r="4" cx="205" cy="36.35" fill="#C86DD7"/>      
</svg>