<svg width="200" height="50" viewBox="0 0 210 50" xmlns="http://www.w3.org/2000/svg">
    <defs>
        <linearGradient x1="0%" y1="0%" x2="100%" y2="0%" id="a">
            <stop stop-color="#3023AE" offset="0%"/>
            <stop stop-color="#C86DD7" offset="100%"/>
        </linearGradient>
    </defs>
    <path stroke="url(#a)"
          stroke-width="3"
          stroke-linejoin="round"
          stroke-linecap="round"
          d="M5 40 C 6.49 39.79, 8.5 39.31, 10 39.29 S 13.5 39.77, 15 39.86 S 18.5 39.86, 20 39.86 S 23.5 39.86, 25 39.86 S 28.5 39.86, 30 39.86 S 33.5 39.95, 35 39.86 S 38.73 40.09, 40 39.29 S 43.73 34.37, 45 33.57 S 48.51 32.85, 50 33 S 53.51 34.44, 55 34.57 S 58.85 34.83, 60 33.86 S 63.53 26.41, 65 26.14 S 68.68 31.28, 70 32 S 73.55 31.2, 75 31.57 S 78.61 35.14, 80 34.57 S 83.56 27.86, 85 27.43 S 88.75 30.75, 90 31.57 S 93.58 33.51, 95 34 S 98.53 35.27, 100 35 S 103.53 32.45, 105 32.14 S 108.51 32.73, 110 32.86 S 113.54 33.35, 115 33 S 118.68 31.15, 120 30.43 S 123.51 27.38, 125 27.57 S 128.53 31.42, 130 31.71 S 133.52 29.8, 135 29.57 S 139.32 31.48, 140 30.14 S 143.8 10.89, 145 10 S 149.24 21.41, 150 22.71 S 153.55 26.77, 155 27.14 S 158.55 25.68, 160 25.29 S 163.51 24.62, 165 24.43 S 168.51 24.15, 170 24 S 173.55 23.06, 175 23.43 S 178.55 26.2, 180 26.57 S 183.51 25.83, 185 26 S 188.52 27.92, 190 27.71 S 193.51 24.72, 195 24.57 S 198.5 26.82, 200 26.71 S 203.7 24.6, 205 23.86"
          fill="none"/>
    <circle r="4" cx="5" cy="40" fill="#3023AE"/>
    <circle r="4" cx="205" cy="23.86" fill="#C86DD7"/>      
</svg>