<svg width="200" height="50" viewBox="0 0 210 50" xmlns="http://www.w3.org/2000/svg">
    <defs>
        <linearGradient x1="0%" y1="0%" x2="100%" y2="0%" id="a">
            <stop stop-color="#3023AE" offset="0%"/>
            <stop stop-color="#C86DD7" offset="100%"/>
        </linearGradient>
    </defs>
    <path stroke="url(#a)"
          stroke-width="3"
          stroke-linejoin="round"
          stroke-linecap="round"
          d="M5 40 C 6.18 39.08, 8.89 37.1, 10 36.09 S 13.55 31.25, 15 30.87 S 18.55 33.1, 20 33.48 S 23.51 33.29, 25 33.48 S 28.51 34.59, 30 34.78 S 34.44 36.17, 35 34.78 S 38.96 11.08, 40 10 S 44.28 23.03, 45 24.35 S 48.89 27.25, 50 28.26 S 53.67 32.79, 55 33.48 S 58.51 33.67, 60 33.48 S 63.67 31.48, 65 32.17 S 68.55 39.08, 70 38.7 S 73.67 30.26, 75 29.57 S 78.74 32.66, 80 33.48 S 83.51 35.9, 85 36.09 S 88.5 34.78, 90 34.78 S 93.51 36.28, 95 36.09 S 98.5 33.48, 100 33.48 S 103.6 35.54, 105 36.09 S 108.55 37.77, 110 37.39 S 113.51 33.67, 115 33.48 S 118.6 35.54, 120 36.09 S 123.55 37.01, 125 37.39 S 128.51 38.51, 130 38.7 S 133.5 38.7, 135 38.7 S 138.5 38.7, 140 38.7 S 143.5 38.7, 145 38.7 S 148.89 39.71, 150 38.7 S 153.51 29.76, 155 29.57 S 158.67 36.7, 160 37.39 S 163.89 35.79, 165 34.78 S 168.51 28.45, 170 28.26 S 173.96 32.4, 175 33.48 S 178.55 39.08, 180 38.7 S 183.5 30.87, 185 30.87 S 188.74 37.88, 190 38.7 S 193.5 37.39, 195 37.39 S 198.51 38.89, 200 38.7 S 203.67 36.78, 205 36.09"
          fill="none"/>
    <circle r="4" cx="5" cy="40" fill="#3023AE"/>
    <circle r="4" cx="205" cy="36.09" fill="#C86DD7"/>      
</svg>