<svg width="200" height="50" viewBox="0 0 210 50" xmlns="http://www.w3.org/2000/svg">
    <defs>
        <linearGradient x1="0%" y1="0%" x2="100%" y2="0%" id="a">
            <stop stop-color="#3023AE" offset="0%"/>
            <stop stop-color="#C86DD7" offset="100%"/>
        </linearGradient>
    </defs>
    <path stroke="url(#a)"
          stroke-width="3"
          stroke-linejoin="round"
          stroke-linecap="round"
          d="M5 40 C 6.46 39.67, 8.51 39.06, 10 38.89 S 13.5 38.89, 15 38.89 S 18.5 38.89, 20 38.89 S 23.51 39.06, 25 38.89 S 28.63 38.39, 30 37.78 S 33.54 34.77, 35 34.44 S 38.63 34.95, 40 35.56 S 43.58 38.42, 45 38.89 S 48.5 38.89, 50 38.89 S 53.88 39.89, 55 38.89 S 58.5 30, 60 30 S 63.88 37.89, 65 38.89 S 68.5 38.89, 70 38.89 S 73.5 38.89, 75 38.89 S 78.5 38.89, 80 38.89 S 83.51 39.06, 85 38.89 S 88.5 37.78, 90 37.78 S 93.51 38.72, 95 38.89 S 98.5 38.89, 100 38.89 S 103.5 38.89, 105 38.89 S 109.51 40.31, 110 38.89 S 113.51 10.17, 115 10 S 119.49 36.37, 120 37.78 S 123.51 37.95, 125 37.78 S 128.51 36.5, 130 36.67 S 133.58 39.37, 135 38.89 S 139.41 34.71, 140 33.33 S 143.69 14.83, 145 15.56 S 149.38 37.52, 150 38.89 S 153.5 37.78, 155 37.78 S 158.51 38.72, 160 38.89 S 163.51 39.06, 165 38.89 S 168.5 37.78, 170 37.78 S 173.54 38.56, 175 38.89"
          fill="none"/>
    <circle r="4" cx="5" cy="40" fill="#3023AE"/>
    <circle r="4" cx="175" cy="38.89" fill="#C86DD7"/>      
</svg>