<svg width="200" height="50" viewBox="0 0 210 50" xmlns="http://www.w3.org/2000/svg">
    <defs>
        <linearGradient x1="0%" y1="0%" x2="100%" y2="0%" id="a">
            <stop stop-color="#3023AE" offset="0%"/>
            <stop stop-color="#C86DD7" offset="100%"/>
        </linearGradient>
    </defs>
    <path stroke="url(#a)"
          stroke-width="3"
          stroke-linejoin="round"
          stroke-linecap="round"
          d="M5 40 C 6.06 38.94, 8.52 35.25, 10 35 S 13.94 39.39, 15 38.33 S 18.58 25.47, 20 25 S 24.1 33.8, 25 35 S 28.58 37.86, 30 38.33 S 33.5 38.33, 35 38.33 S 39.5 39.74, 40 38.33 S 43.66 10.67, 45 10 S 49.47 31.93, 50 33.33 S 53.66 36, 55 36.67 S 58.52 38.08, 60 38.33 S 63.66 39, 65 38.33 S 68.75 34.16, 70 33.33 S 73.66 31, 75 31.67 S 78.75 37.5, 80 38.33 S 83.5 38.33, 85 38.33 S 88.52 38.58, 90 38.33 S 93.94 37.73, 95 36.67 S 98.58 28.81, 100 28.33 S 103.94 32.27, 105 33.33 S 108.58 37.85, 110 38.33 S 113.5 36.67, 115 36.67 S 118.52 38.58, 120 38.33 S 123.5 35, 125 35 S 128.52 38.08, 130 38.33 S 133.5 36.67, 135 36.67 S 138.94 39.39, 140 38.33 S 143.58 27.14, 145 26.67 S 148.75 34.17, 150 35 S 154.1 34.53, 155 33.33 S 158.66 21, 160 21.67 S 164.23 37.04, 165 38.33 S 168.52 38.58, 170 38.33 S 173.5 36.67, 175 36.67 S 178.52 38.58, 180 38.33 S 183.66 35.67, 185 35 S 188.52 33.08, 190 33.33 S 193.58 36.19, 195 36.67 S 198.52 36.42, 200 36.67 S 203.58 37.86, 205 38.33"
          fill="none"/>
    <circle r="4" cx="5" cy="40" fill="#3023AE"/>
    <circle r="4" cx="205" cy="38.33" fill="#C86DD7"/>      
</svg>