<svg width="200" height="50" viewBox="0 0 210 50" xmlns="http://www.w3.org/2000/svg">
    <defs>
        <linearGradient x1="0%" y1="0%" x2="100%" y2="0%" id="a">
            <stop stop-color="#3023AE" offset="0%"/>
            <stop stop-color="#C86DD7" offset="100%"/>
        </linearGradient>
    </defs>
    <path stroke="url(#a)"
          stroke-width="3"
          stroke-linejoin="round"
          stroke-linecap="round"
          d="M5 40 C 6.5 39.9, 8.5 39.68, 10 39.65 S 13.5 39.79, 15 39.82 S 18.59 40.32, 20 39.82 S 24.52 37.71, 25 36.29 S 28.55 9.62, 30 10 S 34.52 37.52, 35 38.94 S 38.5 39.54, 40 39.65 S 43.5 39.65, 45 39.65 S 48.5 39.65, 50 39.65 S 53.5 39.68, 55 39.65 S 58.5 39.44, 60 39.47 S 63.5 39.77, 65 39.82 S 68.5 39.82, 70 39.82 S 73.5 39.82, 75 39.82 S 78.5 39.82, 80 39.82 S 83.5 39.82, 85 39.82 S 88.5 39.82, 90 39.82 S 93.5 39.82, 95 39.82 S 98.5 39.82, 100 39.82 S 103.5 39.82, 105 39.82 S 108.5 39.82, 110 39.82 S 113.5 39.82, 115 39.82 S 118.5 39.82, 120 39.82 S 123.5 39.82, 125 39.82 S 128.5 39.82, 130 39.82 S 133.5 39.82, 135 39.82 S 138.5 39.82, 140 39.82 S 143.5 39.82, 145 39.82 S 148.5 39.82, 150 39.82"
          fill="none"/>
    <circle r="4" cx="5" cy="40" fill="#3023AE"/>
    <circle r="4" cx="150" cy="39.82" fill="#C86DD7"/>      
</svg>