<svg width="200" height="50" viewBox="0 0 210 50" xmlns="http://www.w3.org/2000/svg">
    <defs>
        <linearGradient x1="0%" y1="0%" x2="100%" y2="0%" id="a">
            <stop stop-color="#3023AE" offset="0%"/>
            <stop stop-color="#C86DD7" offset="100%"/>
        </linearGradient>
    </defs>
    <path stroke="url(#a)"
          stroke-width="3"
          stroke-linejoin="round"
          stroke-linecap="round"
          d="M5 40 C 5.49 38.58, 9.19 26.91, 10 25.65 S 13.96 23.27, 15 24.35 S 19.14 34.86, 20 36.09 S 23.55 38.32, 25 38.7 S 28.5 38.7, 30 38.7 S 33.74 39.52, 35 38.7 S 38.89 33.18, 40 32.17 S 43.74 28.75, 45 29.57 S 48.51 38.89, 50 38.7 S 54.09 29.45, 55 28.26 S 58.67 26.34, 60 25.65 S 63.6 23.59, 65 23.04 S 69.09 22.93, 70 21.74 S 73.51 10.19, 75 10 S 78.96 19.35, 80 20.43 S 83.74 21.25, 85 20.43 S 88.6 14.46, 90 13.91 S 93.5 16.52, 95 16.52 S 98.5 13.91, 100 13.91 S 103.5 16.52, 105 16.52 S 108.89 12.9, 110 13.91 S 113.96 24.57, 115 25.65 S 118.51 24.54, 120 24.35 S 123.6 23.8, 125 24.35 S 128.89 27.25, 130 28.26 S 133.6 32.93, 135 33.48 S 138.82 33.09, 140 32.17 S 143.5 25.65, 145 25.65 S 148.89 31.16, 150 32.17 S 153.55 35.16, 155 34.78 S 159.03 30.71, 160 29.57 S 163.55 22.66, 165 23.04 S 168.89 31.16, 170 32.17 S 173.82 33.09, 175 32.17 S 178.55 23.97, 180 24.35 S 183.82 33.86, 185 34.78 S 188.67 32.86, 190 32.17 S 193.51 29.76, 195 29.57 S 198.55 31.25, 200 30.87 S 203.82 27.88, 205 26.96"
          fill="none"/>
    <circle r="4" cx="5" cy="40" fill="#3023AE"/>
    <circle r="4" cx="205" cy="26.96" fill="#C86DD7"/>      
</svg>