<svg width="200" height="50" viewBox="0 0 210 50" xmlns="http://www.w3.org/2000/svg">
    <defs>
        <linearGradient x1="0%" y1="0%" x2="100%" y2="0%" id="a">
            <stop stop-color="#3023AE" offset="0%"/>
            <stop stop-color="#C86DD7" offset="100%"/>
        </linearGradient>
    </defs>
    <path stroke="url(#a)"
          stroke-width="3"
          stroke-linejoin="round"
          stroke-linecap="round"
          d="M5 40 C 6.38 39.41, 8.51 38.05, 10 37.84 S 13.51 38.41, 15 38.61 S 19.13 40.42, 20 39.2 S 23.57 25.07, 25 24.63 S 29.1 34.95, 30 36.15 S 33.54 37.68, 35 38.03 S 38.53 38.83, 40 38.55 S 43.71 36.91, 45 36.15 S 48.83 33.58, 50 32.64 S 53.77 29.03, 55 28.17 S 58.51 25.43, 60 25.62 S 63.67 28.77, 65 29.47 S 68.52 31.11, 70 30.85 S 73.74 28.56, 75 27.74 S 78.66 25.02, 80 24.35 S 83.51 22.63, 85 22.78 S 88.56 24.92, 90 25.34 S 93.53 25.97, 95 25.68 S 98.5 23.46, 100 23.37 S 103.51 24.85, 105 25.06 S 108.5 24.82, 110 24.78 S 113.51 24.96, 115 24.78 S 118.71 24.35, 120 23.58 S 123.54 19.11, 125 18.78 S 128.68 20.59, 130 21.3 S 133.5 24.13, 135 24.2 S 138.85 22.74, 140 21.77 S 143.53 15.45, 145 15.76 S 148.52 23.67, 150 23.89 S 153.8 18.14, 155 17.24 S 158.54 16.74, 160 16.38 S 163.59 15.25, 165 14.74 S 168.64 13.44, 170 12.8 S 173.67 9.3, 175 10 S 178.6 17.49, 180 18.04 S 183.56 14.36, 185 13.94 S 188.68 14.43, 190 15.14 S 193.57 18.84, 195 19.3 S 198.63 18.98, 200 18.38 S 203.77 15.76, 205 14.9"
          fill="none"/>
    <circle r="4" cx="5" cy="40" fill="#3023AE"/>
    <circle r="4" cx="205" cy="14.899999999999999" fill="#C86DD7"/>      
</svg>