<svg width="200" height="50" viewBox="0 0 210 50" xmlns="http://www.w3.org/2000/svg">
    <defs>
        <linearGradient x1="0%" y1="0%" x2="100%" y2="0%" id="a">
            <stop stop-color="#3023AE" offset="0%"/>
            <stop stop-color="#C86DD7" offset="100%"/>
        </linearGradient>
    </defs>
    <path stroke="url(#a)"
          stroke-width="3"
          stroke-linejoin="round"
          stroke-linecap="round"
          d="M5 40 C 6.5 39.98, 8.68 40.63, 10 39.92 S 13.5 34.7, 15 34.61 S 18.67 38.65, 20 39.34 S 23.55 40.23, 25 39.83 S 28.51 36.77, 30 36.6 S 33.54 38.31, 35 38.67 S 39.47 40.49, 40 39.09 S 44.12 13.21, 45 11.99 S 49.39 23.8, 50 25.17 S 53.93 33.56, 55 34.61 S 58.52 34.67, 60 34.94 S 63.59 35.94, 65 36.44 S 68.52 38.27, 70 38.51 S 73.5 38.04, 75 38.09 S 78.51 39, 80 38.84 S 83.56 37.43, 85 37.02 S 88.58 36.49, 90 36.02 S 93.5 33.76, 95 33.7 S 98.82 36.54, 100 35.61 S 103.86 26.81, 105 25.83 S 108.56 26.56, 110 26.99 S 114.15 30.05, 115 28.81 S 118.72 13.18, 120 12.4 S 124.27 21.45, 125 22.76 S 128.57 30.01, 130 30.47 S 133.57 26.44, 135 25.99 S 138.52 27.05, 140 27.32 S 143.51 27.66, 145 27.82 S 148.55 28, 150 28.4 S 153.68 31.26, 155 30.55 S 158.98 24.11, 160 23.01 S 163.57 19.32, 165 19.78 S 168.93 27.29, 170 26.24 S 173.7 10.74, 175 10 S 178.84 19.57, 180 20.52 S 183.58 17.65, 185 18.12 S 188.68 23.12, 190 23.84 S 193.94 24.65, 195 23.59 S 198.53 13.49, 200 13.81 S 204.42 24.37, 205 25.75"
          fill="none"/>
    <circle r="4" cx="5" cy="40" fill="#3023AE"/>
    <circle r="4" cx="205" cy="25.75" fill="#C86DD7"/>      
</svg>