<svg width="200" height="50" viewBox="0 0 210 50" xmlns="http://www.w3.org/2000/svg">
    <defs>
        <linearGradient x1="0%" y1="0%" x2="100%" y2="0%" id="a">
            <stop stop-color="#3023AE" offset="0%"/>
            <stop stop-color="#C86DD7" offset="100%"/>
        </linearGradient>
    </defs>
    <path stroke="url(#a)"
          stroke-width="3"
          stroke-linejoin="round"
          stroke-linecap="round"
          d="M5 40 C 6.5 39.94, 8.5 39.83, 10 39.8 S 13.5 39.8, 15 39.8 S 18.5 39.83, 20 39.8 S 23.5 39.59, 25 39.59 S 28.5 39.83, 30 39.8 S 33.9 40.4, 35 39.39 S 39.17 31.86, 40 30.61 S 43.68 23.59, 45 24.29 S 48.69 35.2, 50 35.92 S 53.5 29.71, 55 29.8 S 58.61 35.96, 60 36.53 S 63.51 33.76, 65 33.88 S 68.61 36.78, 70 37.35 S 73.5 37.93, 75 37.96 S 78.5 37.52, 80 37.55 S 83.52 37.92, 85 38.16 S 88.51 39.06, 90 39.18 S 93.5 39.1, 95 38.98 S 98.61 38.94, 100 38.37 S 103.5 34.93, 105 34.9 S 108.52 37.92, 110 38.16 S 113.74 37.35, 115 36.53 S 118.52 31.9, 120 31.63 S 123.63 34.08, 125 34.69 S 128.54 35.79, 130 36.12 S 133.57 36.5, 135 36.94 S 139.46 40.58, 140 39.18 S 144.51 12.44, 145 11.02 S 149.28 8.68, 150 10 S 154.29 28.07, 155 29.39 S 158.58 28.29, 160 28.78 S 163.57 32.42, 165 32.86 S 168.5 31.81, 170 31.84 S 173.69 33.78, 175 33.06 S 178.56 25.92, 180 26.33 S 183.5 35.8, 185 35.92 S 189.17 28.39, 190 27.14 S 193.5 20.79, 195 20.82 S 198.73 26.55, 200 27.35 S 203.5 27.2, 205 27.14"
          fill="none"/>
    <circle r="4" cx="5" cy="40" fill="#3023AE"/>
    <circle r="4" cx="205" cy="27.14" fill="#C86DD7"/>      
</svg>