<svg width="200" height="50" viewBox="0 0 210 50" xmlns="http://www.w3.org/2000/svg">
    <defs>
        <linearGradient x1="0%" y1="0%" x2="100%" y2="0%" id="a">
            <stop stop-color="#3023AE" offset="0%"/>
            <stop stop-color="#C86DD7" offset="100%"/>
        </linearGradient>
    </defs>
    <path stroke="url(#a)"
          stroke-width="3"
          stroke-linejoin="round"
          stroke-linecap="round"
          d="M5 40 C 6.2 39.1, 8.53 36.53, 10 36.25 S 13.53 37.84, 15 38.12 S 18.5 38.12, 20 38.12 S 23.5 38.12, 25 38.12 S 28.5 38.12, 30 38.12 S 33.5 38.12, 35 38.12 S 38.5 38.12, 40 38.12 S 43.5 38.12, 45 38.12 S 48.5 38.12, 50 38.12 S 53.5 38.12, 55 38.12 S 58.5 38.12, 60 38.12 S 63.5 38.12, 65 38.12 S 68.5 38.12, 70 38.12 S 73.5 38.12, 75 38.12 S 78.5 38.12, 80 38.12 S 83.5 38.12, 85 38.12 S 88.5 38.12, 90 38.12 S 93.5 38.12, 95 38.12 S 98.5 38.12, 100 38.12 S 103.5 38.12, 105 38.12 S 108.5 38.12, 110 38.12 S 113.5 38.12, 115 38.12 S 118.5 38.12, 120 38.12 S 123.5 38.12, 125 38.12 S 128.5 38.12, 130 38.12 S 133.8 39.02, 135 38.12 S 138.53 30.9, 140 30.62 S 143.6 35.72, 145 36.25 S 148.8 35.27, 150 34.37 S 153.69 29.48, 155 28.75 S 158.5 28.75, 160 28.75 S 163.69 28.02, 165 28.75 S 169.29 35.69, 170 34.37 S 173.5 10, 175 10 S 179.24 33.08, 180 34.37 S 183.5 26.87, 185 26.87 S 188.53 34.65, 190 34.37 S 194 26.12, 195 25 S 198.91 22.09, 200 23.12 S 204.39 33, 205 34.37"
          fill="none"/>
    <circle r="4" cx="5" cy="40" fill="#3023AE"/>
    <circle r="4" cx="205" cy="34.37" fill="#C86DD7"/>      
</svg>