<svg width="200" height="50" viewBox="0 0 210 50" xmlns="http://www.w3.org/2000/svg">
    <defs>
        <linearGradient x1="0%" y1="0%" x2="100%" y2="0%" id="a">
            <stop stop-color="#3023AE" offset="0%"/>
            <stop stop-color="#C86DD7" offset="100%"/>
        </linearGradient>
    </defs>
    <path stroke="url(#a)"
          stroke-width="3"
          stroke-linejoin="round"
          stroke-linecap="round"
          d="M5 40 C 6.5 39.99, 8.5 39.95, 10 39.95 S 13.5 39.98, 15 39.98 S 18.5 39.98, 20 39.98 S 23.5 39.98, 25 39.98 S 28.5 39.98, 30 39.98 S 33.5 39.98, 35 39.98 S 38.5 39.98, 40 39.98 S 43.5 39.98, 45 39.98 S 48.5 39.98, 50 39.98 S 53.5 39.98, 55 39.98 S 58.5 39.98, 60 39.98 S 63.5 40.03, 65 39.98 S 69.53 41.04, 70 39.62 S 74.16 11.24, 75 10 S 79.44 23.5, 80 24.89 S 84.09 33.68, 85 34.88 S 88.56 37.67, 90 38.1 S 93.51 37.71, 95 37.84 S 98.51 38.81, 100 38.94 S 103.5 38.67, 105 38.73 S 108.5 39.28, 110 39.35 S 113.5 39.2, 115 39.23 S 118.5 39.48, 120 39.54 S 123.5 39.64, 125 39.62 S 128.5 39.52, 130 39.42 S 133.51 39.09, 135 38.94 S 138.5 38.3, 140 38.39 S 143.51 39.43, 145 39.57 S 148.5 39.3, 150 39.3 S 153.5 39.55, 155 39.59 S 158.5 39.58, 160 39.59 S 163.5 39.66, 165 39.66 S 168.5 39.58, 170 39.57 S 173.5 39.58, 175 39.59 S 178.5 39.66, 180 39.66 S 183.5 39.58, 185 39.57 S 188.5 39.6, 190 39.62 S 193.5 39.78, 195 39.71 S 198.5 39.16, 200 39.16 S 203.51 39.57, 205 39.74"
          fill="none"/>
    <circle r="4" cx="5" cy="40" fill="#3023AE"/>
    <circle r="4" cx="205" cy="39.74" fill="#C86DD7"/>      
</svg>