<svg width="200" height="50" viewBox="0 0 210 50" xmlns="http://www.w3.org/2000/svg">
    <defs>
        <linearGradient x1="0%" y1="0%" x2="100%" y2="0%" id="a">
            <stop stop-color="#3023AE" offset="0%"/>
            <stop stop-color="#C86DD7" offset="100%"/>
        </linearGradient>
    </defs>
    <path stroke="url(#a)"
          stroke-width="3"
          stroke-linejoin="round"
          stroke-linecap="round"
          d="M5 40 C 5.25 38.52, 8.53 10.31, 10 10 S 14.51 36.46, 15 37.88 S 18.64 39.43, 20 38.79 S 23.56 33.59, 25 33.18 S 28.68 35.23, 30 35.94 S 33.56 38.16, 35 38.58 S 38.5 38.8, 40 38.88 S 43.51 39.28, 45 39.09 S 48.52 37.89, 50 37.63 S 53.5 37.25, 55 37.32 S 58.51 37.91, 60 38.1 S 63.5 38.55, 65 38.62 S 68.52 38.81, 70 38.58 S 73.5 37.09, 75 37.06 S 78.53 38.12, 80 38.4 S 83.5 39, 85 38.96 S 88.51 38.25, 90 38.1 S 93.5 37.96, 95 37.97 S 98.5 38.15, 100 38.19 S 103.51 38.4, 105 38.27 S 108.52 37.59, 110 37.32 S 113.5 36.52, 115 36.46 S 118.51 36.75, 120 36.94 S 123.5 37.59, 125 37.71 S 128.5 37.7, 130 37.71 S 133.51 37.97, 135 37.8 S 138.5 36.67, 140 36.55 S 143.51 37.18, 145 37.02 S 148.5 35.58, 150 35.51 S 153.5 36.44, 155 36.55 S 158.5 36.31, 160 36.24 S 163.5 36.08, 165 36.07 S 168.51 36.03, 170 36.16 S 173.53 36.65, 175 36.94 S 178.5 38.16, 180 38.1 S 183.54 36.91, 185 36.55 S 188.5 35.56, 190 35.6 S 193.85 37.81, 195 36.85 S 198.53 27.62, 200 27.31 S 204.16 33.49, 205 34.73"
          fill="none"/>
    <circle r="4" cx="5" cy="40" fill="#3023AE"/>
    <circle r="4" cx="205" cy="34.730000000000004" fill="#C86DD7"/>      
</svg>