<svg width="200" height="50" viewBox="0 0 210 50" xmlns="http://www.w3.org/2000/svg">
    <defs>
        <linearGradient x1="0%" y1="0%" x2="100%" y2="0%" id="a">
            <stop stop-color="#3023AE" offset="0%"/>
            <stop stop-color="#C86DD7" offset="100%"/>
        </linearGradient>
    </defs>
    <path stroke="url(#a)"
          stroke-width="3"
          stroke-linejoin="round"
          stroke-linecap="round"
          d="M5 40 C 6.44 39.6, 8.5 38.7, 10 38.6 S 13.5 39.2, 15 39.3 S 18.56 39.7, 20 39.3 S 23.5 36.61, 25 36.51 S 28.73 39.4, 30 38.6 S 33.58 30.72, 35 30.23 S 38.65 34.46, 40 35.12 S 43.53 34.81, 45 35.12 S 48.69 37.94, 50 37.21 S 53.69 30.26, 55 29.53 S 58.5 31.53, 60 31.63 S 63.77 31.09, 65 30.23 S 68.58 25.14, 70 24.65 S 73.96 25.66, 75 26.74 S 78.5 35.22, 80 35.12 S 83.62 26.63, 85 26.05 S 88.77 30.07, 90 30.93 S 93.65 32.36, 95 33.02 S 99.4 37.19, 100 35.81 S 103.89 11.01, 105 10 S 109.32 25.4, 110 26.74 S 113.58 29.04, 115 29.53 S 118.58 29.74, 120 30.23 S 123.53 33.33, 125 33.02 S 128.51 28.35, 130 28.14 S 133.51 31.42, 135 31.63 S 139 30.65, 140 29.53 S 143.5 20.37, 145 20.47 S 148.77 29.37, 150 30.23 S 153.56 27.04, 155 27.44 S 158.62 32.44, 160 33.02 S 163.69 32.36, 165 31.63 S 168.5 27.54, 170 27.44 S 173.51 30.72, 175 30.93 S 178.62 28.26, 180 28.84 S 183.65 34.46, 185 35.12 S 188.73 34.52, 190 33.72 S 193.58 29.33, 195 28.84 S 198.58 29.74, 200 30.23 S 203.62 31.75, 205 32.33"
          fill="none"/>
    <circle r="4" cx="5" cy="40" fill="#3023AE"/>
    <circle r="4" cx="205" cy="32.33" fill="#C86DD7"/>      
</svg>