<svg width="200" height="50" viewBox="0 0 210 50" xmlns="http://www.w3.org/2000/svg">
    <defs>
        <linearGradient x1="0%" y1="0%" x2="100%" y2="0%" id="a">
            <stop stop-color="#3023AE" offset="0%"/>
            <stop stop-color="#C86DD7" offset="100%"/>
        </linearGradient>
    </defs>
    <path stroke="url(#a)"
          stroke-width="3"
          stroke-linejoin="round"
          stroke-linecap="round"
          d="M5 40 C 5.25 38.52, 8.65 10.65, 10 10 S 14.51 33.78, 15 35.2 S 18.59 38.29, 20 38.8 S 23.5 38.8, 25 38.8 S 28.51 38.98, 30 38.8 S 33.5 37.6, 35 37.6 S 38.51 38.62, 40 38.8 S 43.5 38.8, 45 38.8 S 48.5 38.8, 50 38.8 S 53.5 38.8, 55 38.8 S 58.5 38.8, 60 38.8 S 63.5 38.8, 65 38.8 S 68.5 38.8, 70 38.8 S 73.5 38.8, 75 38.8 S 78.5 38.8, 80 38.8 S 83.5 38.8, 85 38.8 S 88.5 38.8, 90 38.8 S 93.5 38.8, 95 38.8 S 98.5 38.8, 100 38.8"
          fill="none"/>
    <circle r="4" cx="5" cy="40" fill="#3023AE"/>
    <circle r="4" cx="100" cy="38.8" fill="#C86DD7"/>      
</svg>