<svg width="200" height="50" viewBox="0 0 210 50" xmlns="http://www.w3.org/2000/svg">
    <defs>
        <linearGradient x1="0%" y1="0%" x2="100%" y2="0%" id="a">
            <stop stop-color="#3023AE" offset="0%"/>
            <stop stop-color="#C86DD7" offset="100%"/>
        </linearGradient>
    </defs>
    <path stroke="url(#a)"
          stroke-width="3"
          stroke-linejoin="round"
          stroke-linecap="round"
          d="M5 40 C 5.87 38.78, 8.54 33.37, 10 33.01 S 13.62 36.96, 15 37.55 S 18.5 37.16, 20 37.25 S 23.5 38.11, 25 38.14 S 28.52 37.7, 30 37.45 S 33.53 36.77, 35 36.47 S 38.5 35.47, 40 35.42 S 43.91 37.14, 45 36.11 S 48.63 26.63, 50 26.01 S 53.61 32.14, 55 31.57 S 58.66 22.57, 60 21.9 S 63.7 25.83, 65 26.57 S 68.52 27.4, 70 27.61 S 73.81 28.93, 75 28.01 S 78.77 20.73, 80 19.87 S 83.51 20.92, 85 21.05 S 88.5 20.69, 90 20.72 S 93.5 21.35, 95 21.24 S 98.5 19.94, 100 19.97 S 103.53 21.72, 105 21.41 S 108.5 17.96, 110 17.84 S 113.61 21.19, 115 20.62 S 118.5 13.66, 120 13.76 S 123.61 20.7, 125 21.27 S 128.5 17.95, 130 17.84 S 133.63 21.13, 135 20.52 S 138.84 14.38, 140 13.43 S 143.53 12.57, 145 12.29 S 148.66 10.82, 150 11.5 S 153.53 17.04, 155 17.35 S 158.5 13.59, 160 13.59 S 163.54 17.02, 165 17.35 S 168.79 16.71, 170 15.82 S 173.52 9.77, 175 10 S 178.82 16.42, 180 17.35 S 183.53 18.21, 185 17.91 S 188.53 15.63, 190 15.33 S 193.62 15.27, 195 15.85 S 198.52 19.29, 200 19.51 S 203.62 17.94, 205 17.35"
          fill="none"/>
    <circle r="4" cx="5" cy="40" fill="#3023AE"/>
    <circle r="4" cx="205" cy="17.35" fill="#C86DD7"/>      
</svg>