<svg width="200" height="50" viewBox="0 0 210 50" xmlns="http://www.w3.org/2000/svg">
    <defs>
        <linearGradient x1="0%" y1="0%" x2="100%" y2="0%" id="a">
            <stop stop-color="#3023AE" offset="0%"/>
            <stop stop-color="#C86DD7" offset="100%"/>
        </linearGradient>
    </defs>
    <path stroke="url(#a)"
          stroke-width="3"
          stroke-linejoin="round"
          stroke-linecap="round"
          d="M5 40 C 5.54 38.6, 8.86 28.12, 10 27.14 S 13.86 30.45, 15 31.43 S 18.62 35.12, 20 35.71 S 23.5 35.71, 25 35.71 S 28.5 35.71, 30 35.71 S 33.5 35.71, 35 35.71 S 38.5 35.71, 40 35.71 S 43.5 35.71, 45 35.71 S 48.5 35.71, 50 35.71 S 53.5 35.71, 55 35.71 S 58.5 35.71, 60 35.71 S 63.62 36.3, 65 35.71 S 68.5 31.43, 70 31.43 S 73.62 36.3, 75 35.71 S 78.5 27.14, 80 27.14 S 83.62 35.12, 85 35.71 S 88.5 31.43, 90 31.43 S 93.5 35.71, 95 35.71 S 98.86 32.41, 100 31.43 S 103.62 26.55, 105 27.14 S 108.86 34.73, 110 35.71 S 113.5 35.71, 115 35.71 S 118.5 35.71, 120 35.71 S 123.5 35.71, 125 35.71 S 128.5 35.71, 130 35.71 S 133.5 35.71, 135 35.71 S 138.5 35.71, 140 35.71 S 143.5 35.71, 145 35.71 S 148.5 35.71, 150 35.71 S 153.5 35.71, 155 35.71 S 158.5 35.71, 160 35.71 S 163.5 35.71, 165 35.71 S 168.5 35.71, 170 35.71 S 173.5 35.71, 175 35.71 S 178.62 36.3, 180 35.71 S 184.08 32.61, 185 31.43 S 188.5 22.86, 190 22.86 S 193.62 30.84, 195 31.43 S 199.37 28.5, 200 27.14 S 204.58 11.44, 205 10"
          fill="none"/>
    <circle r="4" cx="5" cy="40" fill="#3023AE"/>
    <circle r="4" cx="205" cy="10" fill="#C86DD7"/>      
</svg>