<svg width="200" height="50" viewBox="0 0 210 50" xmlns="http://www.w3.org/2000/svg">
    <defs>
        <linearGradient x1="0%" y1="0%" x2="100%" y2="0%" id="a">
            <stop stop-color="#3023AE" offset="0%"/>
            <stop stop-color="#C86DD7" offset="100%"/>
        </linearGradient>
    </defs>
    <path stroke="url(#a)"
          stroke-width="3"
          stroke-linejoin="round"
          stroke-linecap="round"
          d="M5 40 C 6.5 39.99, 8.54 40.3, 10 39.97 S 13.86 38.72, 15 37.75 S 18.52 31.22, 20 31.47 S 23.85 38.44, 25 39.41 S 28.5 39.82, 30 39.9 S 33.51 40.1, 35 39.96 S 39.53 40.35, 40 38.93 S 44.2 11.27, 45 10 S 49.38 21.76, 50 23.13 S 53.58 31.64, 55 32.11 S 58.87 27.41, 60 26.42 S 63.59 22.88, 65 23.39 S 68.7 29.31, 70 30.06 S 74.23 30.48, 75 29.19 S 79.04 14.44, 80 13.29 S 83.64 16.56, 85 17.2 S 88.51 18.15, 90 18.01 S 93.52 16, 95 16.27 S 98.67 19.12, 100 19.82 S 103.67 22.18, 105 21.5 S 108.66 15.36, 110 14.69 S 113.57 16.04, 115 16.48 S 118.54 17.42, 120 17.78 S 123.5 18.98, 125 18.97 S 128.56 18.11, 130 17.7 S 133.57 16.59, 135 16.15 S 138.55 15.03, 140 14.64 S 143.53 13.17, 145 13.48 S 148.59 16.21, 150 16.73 S 153.51 17.36, 155 17.18 S 158.51 15.37, 160 15.54 S 163.51 18.1, 165 18.3 S 168.74 17.7, 170 16.88 S 173.5 11.9, 175 11.8 S 178.63 15.63, 180 16.24 S 183.5 16.32, 185 16.24 S 188.63 16.3, 190 15.69 S 193.5 11.8, 195 11.8 S 198.6 15.17, 200 15.7 S 203.5 15.63, 205 15.6"
          fill="none"/>
    <circle r="4" cx="5" cy="40" fill="#3023AE"/>
    <circle r="4" cx="205" cy="15.600000000000001" fill="#C86DD7"/>      
</svg>