<svg width="200" height="50" viewBox="0 0 210 50" xmlns="http://www.w3.org/2000/svg">
    <defs>
        <linearGradient x1="0%" y1="0%" x2="100%" y2="0%" id="a">
            <stop stop-color="#3023AE" offset="0%"/>
            <stop stop-color="#C86DD7" offset="100%"/>
        </linearGradient>
    </defs>
    <path stroke="url(#a)"
          stroke-width="3"
          stroke-linejoin="round"
          stroke-linecap="round"
          d="M5 40 C 6.33 39.31, 8.5 37.43, 10 37.42 S 13.54 39.54, 15 39.9 S 18.5 39.9, 20 39.9 S 23.5 39.9, 25 39.9 S 28.5 39.9, 30 39.9 S 33.5 39.9, 35 39.9 S 38.53 40.22, 40 39.9 S 43.53 38.04, 45 37.72 S 48.51 37.54, 50 37.72 S 53.99 40.02, 55 38.91 S 58.5 26.79, 60 26.79 S 64.01 37.79, 65 38.91 S 68.53 38.39, 70 38.11 S 73.5 37.01, 75 37.02 S 78.5 38.21, 80 38.21 S 83.51 37.21, 85 37.02 S 88.52 37.16, 90 36.92 S 93.61 35.98, 95 35.43 S 98.53 33.23, 100 32.95 S 103.5 33.44, 105 33.54 S 108.54 33.97, 110 33.64 S 113.52 31.51, 115 31.26 S 118.5 31.83, 120 31.95 S 123.53 32.33, 125 32.05 S 128.56 30.5, 130 30.07 S 133.5 29.16, 135 29.07 S 138.54 29.82, 140 29.47 S 143.67 27.38, 145 26.69 S 148.5 24.2, 150 24.3 S 153.57 27.85, 155 27.38 S 158.8 21.93, 160 21.03 S 163.7 20.67, 165 19.93 S 168.83 16.29, 170 15.36 S 173.53 12.28, 175 11.99 S 178.52 13.12, 180 13.38 S 183.5 13.86, 185 13.77 S 188.5 12.77, 190 12.78 S 193.52 13.62, 195 13.87 S 198.6 15.01, 200 14.47 S 203.88 11, 205 10"
          fill="none"/>
    <circle r="4" cx="5" cy="40" fill="#3023AE"/>
    <circle r="4" cx="205" cy="10" fill="#C86DD7"/>      
</svg>