<svg width="200" height="50" viewBox="0 0 210 50" xmlns="http://www.w3.org/2000/svg">
    <defs>
        <linearGradient x1="0%" y1="0%" x2="100%" y2="0%" id="a">
            <stop stop-color="#3023AE" offset="0%"/>
            <stop stop-color="#C86DD7" offset="100%"/>
        </linearGradient>
    </defs>
    <path stroke="url(#a)"
          stroke-width="3"
          stroke-linejoin="round"
          stroke-linecap="round"
          d="M5 40 C 6.34 39.32, 8.5 37.47, 10 37.46 S 13.54 39.54, 15 39.9 S 18.5 39.9, 20 39.9 S 23.5 39.9, 25 39.9 S 28.5 39.9, 30 39.9 S 33.5 39.9, 35 39.9 S 38.53 40.22, 40 39.9 S 43.53 38.04, 45 37.75 S 48.51 37.8, 50 37.95 S 53.98 39.83, 55 38.73 S 58.5 27.07, 60 27.1 S 63.99 37.82, 65 38.93 S 68.52 38.39, 70 38.14 S 73.5 37.27, 75 37.26 S 78.5 38.08, 80 38.05 S 83.51 37.25, 85 37.07 S 88.51 37, 90 36.87 S 93.63 36.8, 95 36.19 S 98.52 32.63, 100 32.38 S 103.52 34.3, 105 34.53 S 108.55 34.31, 110 33.94 S 113.56 32.4, 115 31.99 S 118.51 30.97, 120 31.11 S 123.5 33.05, 125 32.96 S 128.59 31.04, 130 30.52 S 133.51 29.4, 135 29.25 S 138.5 29.64, 140 29.54 S 143.77 29.42, 145 28.57 S 148.5 22.62, 150 22.61 S 153.51 28.33, 155 28.47 S 158.88 24.58, 160 23.58 S 163.69 20.32, 165 19.58 S 168.82 18.84, 170 17.92 S 173.55 12.16, 175 11.76 S 178.53 14.89, 180 15.18 S 183.58 14.18, 185 13.71 S 188.52 11.63, 190 11.86 S 193.55 14.91, 195 15.28 S 198.67 15.1, 200 14.4 S 203.87 10.99, 205 10"
          fill="none"/>
    <circle r="4" cx="5" cy="40" fill="#3023AE"/>
    <circle r="4" cx="205" cy="10" fill="#C86DD7"/>      
</svg>