<svg width="200" height="50" viewBox="0 0 210 50" xmlns="http://www.w3.org/2000/svg">
    <defs>
        <linearGradient x1="0%" y1="0%" x2="100%" y2="0%" id="a">
            <stop stop-color="#3023AE" offset="0%"/>
            <stop stop-color="#C86DD7" offset="100%"/>
        </linearGradient>
    </defs>
    <path stroke="url(#a)"
          stroke-width="3"
          stroke-linejoin="round"
          stroke-linecap="round"
          d="M5 40 C 6.5 40, 8.5 39.99, 10 39.99 S 14.53 41.41, 15 39.99 S 18.57 10.46, 20 10 S 24.5 35.37, 25 36.79 S 28.54 38.09, 30 38.45 S 33.98 40.35, 35 39.25 S 38.5 27.78, 40 27.69 S 44.01 37.53, 45 38.66 S 48.5 39, 50 39.05 S 53.5 39.08, 55 39.02 S 58.51 38.85, 60 38.66 S 63.5 37.78, 65 37.72 S 68.51 38.11, 70 38.28 S 73.5 38.76, 75 38.86 S 78.5 38.93, 80 38.96 S 83.5 39.01, 85 39.04 S 88.5 39.19, 90 39.19 S 93.5 39.06, 95 39.02 S 98.5 38.91, 100 38.92 S 103.5 39.02, 105 39.06 S 108.5 39.16, 110 39.16 S 113.5 39.1, 115 39.08 S 118.5 39.03, 120 39.02 S 123.5 39.03, 125 39.04 S 128.5 39.13, 130 39.11 S 133.5 38.88, 135 38.89 S 138.5 39.24, 140 39.2 S 143.5 38.59, 145 38.61 S 148.51 39.22, 150 39.36 S 153.5 39.58, 155 39.56 S 158.5 39.33, 160 39.25 S 163.5 39.05, 165 39.03 S 168.5 39.12, 170 39.14 S 173.5 39.11, 175 39.14 S 178.5 39.3, 180 39.32 S 183.5 39.31, 185 39.26 S 188.5 39.03, 190 39 S 193.5 39.04, 195 39.06 S 198.5 39.15, 200 39.11 S 203.5 38.89, 205 38.8"
          fill="none"/>
    <circle r="4" cx="5" cy="40" fill="#3023AE"/>
    <circle r="4" cx="205" cy="38.8" fill="#C86DD7"/>      
</svg>