<svg width="200" height="50" viewBox="0 0 210 50" xmlns="http://www.w3.org/2000/svg">
    <defs>
        <linearGradient x1="0%" y1="0%" x2="100%" y2="0%" id="a">
            <stop stop-color="#3023AE" offset="0%"/>
            <stop stop-color="#C86DD7" offset="100%"/>
        </linearGradient>
    </defs>
    <path stroke="url(#a)"
          stroke-width="3"
          stroke-linejoin="round"
          stroke-linecap="round"
          d="M5 40 C 5.25 38.52, 8.59 10.51, 10 10 S 14.42 34.97, 15 36.35 S 18.59 34.43, 20 33.92 S 23.67 32, 25 32.7 S 28.74 38.37, 30 39.19 S 33.5 39.13, 35 39.19 S 38.5 39.53, 40 39.59 S 43.51 39.77, 45 39.59 S 48.5 38.38, 50 38.38 S 53.51 39.41, 55 39.59 S 58.5 39.59, 60 39.59 S 63.5 39.71, 65 39.59 S 68.5 38.78, 70 38.78 S 73.5 39.47, 75 39.59 S 78.5 39.59, 80 39.59 S 83.5 39.59, 85 39.59 S 88.5 39.59, 90 39.59 S 93.5 39.59, 95 39.59 S 98.5 39.59, 100 39.59 S 103.5 39.59, 105 39.59 S 108.5 39.59, 110 39.59 S 113.5 39.59, 115 39.59 S 118.5 39.59, 120 39.59 S 123.5 39.59, 125 39.59 S 128.5 39.59, 130 39.59 S 133.5 39.59, 135 39.59 S 138.54 39.94, 140 39.59 S 143.5 37.16, 145 37.16 S 148.54 39.24, 150 39.59 S 153.5 39.65, 155 39.59 S 158.5 39.25, 160 39.19 S 163.5 39.13, 165 39.19 S 168.5 39.53, 170 39.59 S 173.5 39.59, 175 39.59 S 178.5 39.59, 180 39.59 S 183.5 39.59, 185 39.59"
          fill="none"/>
    <circle r="4" cx="5" cy="40" fill="#3023AE"/>
    <circle r="4" cx="185" cy="39.59" fill="#C86DD7"/>      
</svg>