<svg width="200" height="50" viewBox="0 0 210 50" xmlns="http://www.w3.org/2000/svg">
    <defs>
        <linearGradient x1="0%" y1="0%" x2="100%" y2="0%" id="a">
            <stop stop-color="#3023AE" offset="0%"/>
            <stop stop-color="#C86DD7" offset="100%"/>
        </linearGradient>
    </defs>
    <path stroke="url(#a)"
          stroke-width="3"
          stroke-linejoin="round"
          stroke-linecap="round"
          d="M5 40 C 5.25 38.52, 8.52 10.22, 10 10 S 14.41 37.12, 15 38.5 S 18.54 33.67, 20 33.34 S 23.61 35.72, 25 36.28 S 28.5 37.44, 30 37.37 S 33.51 35.99, 35 35.78 S 38.51 35.85, 40 35.99 S 43.51 36.61, 45 36.74 S 49.18 38.11, 50 36.85 S 53.65 22.03, 55 21.38 S 58.95 30.98, 60 32.05 S 63.59 31.1, 65 31.61 S 68.59 35.14, 70 35.66 S 73.56 35.74, 75 35.32 S 78.5 32.82, 80 32.71 S 83.53 34.29, 85 34.57 S 88.5 34.71, 90 34.63 S 93.54 34.33, 95 34.01 S 98.51 32.62, 100 32.42 S 103.5 32.66, 105 32.69 S 108.51 32.45, 110 32.59 S 113.55 33.24, 115 33.63 S 118.5 35.29, 120 35.28 S 123.51 33.73, 125 33.57 S 128.5 34.21, 130 34.22 S 133.51 33.8, 135 33.63 S 138.5 33.21, 140 33.09 S 143.52 33.06, 145 32.84 S 148.51 31.84, 150 31.63 S 153.5 31.54, 155 31.42 S 158.5 30.78, 160 30.86 S 163.5 31.87, 165 31.96 S 168.5 31.41, 170 31.48 S 173.51 32.25, 175 32.44 S 178.5 32.81, 180 32.78 S 183.5 32.3, 185 32.21 S 188.5 32.17, 190 32.21 S 193.52 32.76, 195 32.51 S 198.55 30.9, 200 30.52 S 203.51 30.06, 205 29.87"
          fill="none"/>
    <circle r="4" cx="5" cy="40" fill="#3023AE"/>
    <circle r="4" cx="205" cy="29.869999999999997" fill="#C86DD7"/>      
</svg>