<svg width="200" height="50" viewBox="0 0 210 50" xmlns="http://www.w3.org/2000/svg">
    <defs>
        <linearGradient x1="0%" y1="0%" x2="100%" y2="0%" id="a">
            <stop stop-color="#3023AE" offset="0%"/>
            <stop stop-color="#C86DD7" offset="100%"/>
        </linearGradient>
    </defs>
    <path stroke="url(#a)"
          stroke-width="3"
          stroke-linejoin="round"
          stroke-linecap="round"
          d="M5 40 C 6.5 39.98, 8.5 39.92, 10 39.92 S 13.5 39.98, 15 39.98 S 18.5 39.95, 20 39.89 S 23.5 39.61, 25 39.57 S 28.5 39.58, 30 39.62 S 33.5 39.82, 35 39.84 S 38.5 39.74, 40 39.73 S 43.5 39.79, 45 39.79 S 48.5 39.76, 50 39.76 S 53.5 39.76, 55 39.76 S 58.5 39.75, 60 39.75 S 63.5 39.75, 65 39.76 S 68.5 39.8, 70 39.81 S 73.5 39.86, 75 39.86 S 78.5 39.87, 80 39.79 S 83.5 39.31, 85 39.3 S 88.5 39.68, 90 39.73 S 93.5 39.69, 95 39.65 S 98.5 39.52, 100 39.43 S 103.5 39.16, 105 39.08 S 108.5 38.88, 110 38.92 S 113.51 39.21, 115 39.33 S 118.5 39.83, 120 39.75 S 123.55 39.2, 125 38.82 S 128.5 37.18, 130 37.15 S 133.53 38.32, 135 38.61 S 138.5 39.04, 140 39.12 S 143.5 39.2, 145 39.16 S 148.52 39.13, 150 38.87 S 153.51 37.56, 155 37.39 S 158.51 37.59, 160 37.74 S 164.49 39.82, 165 38.41 S 169 11.12, 170 10 S 174.45 25.77, 175 27.16 S 178.56 34.8, 180 35.22 S 183.5 29.92, 185 30.04 S 188.78 35.15, 190 36.02 S 193.54 36.88, 195 37.21 S 198.58 38.72, 200 38.25 S 203.87 34.87, 205 33.88"
          fill="none"/>
    <circle r="4" cx="5" cy="40" fill="#3023AE"/>
    <circle r="4" cx="205" cy="33.88" fill="#C86DD7"/>      
</svg>