<svg width="200" height="50" viewBox="0 0 210 50" xmlns="http://www.w3.org/2000/svg">
    <defs>
        <linearGradient x1="0%" y1="0%" x2="100%" y2="0%" id="a">
            <stop stop-color="#3023AE" offset="0%"/>
            <stop stop-color="#C86DD7" offset="100%"/>
        </linearGradient>
    </defs>
    <path stroke="url(#a)"
          stroke-width="3"
          stroke-linejoin="round"
          stroke-linecap="round"
          d="M5 40 C 5.29 38.53, 8.79 15.59, 10 14.7 S 14.14 31.43, 15 32.66 S 18.51 29.22, 20 29.05 S 23.51 31.4, 25 31.54 S 28.6 30.54, 30 30.01 S 33.5 27.68, 35 27.75 S 38.58 29.97, 40 30.46 S 43.55 31.59, 45 31.2 S 48.68 28.49, 50 27.78 S 53.75 26.66, 55 25.82 S 58.54 21.4, 60 21.07 S 63.54 23.21, 65 23.54 S 68.64 23.92, 70 23.29 S 73.57 19.34, 75 18.89 S 78.65 19.5, 80 20.15 S 83.63 23.07, 85 23.67 S 88.56 24.94, 90 24.53 S 93.58 21.27, 95 20.8 S 98.5 21.13, 100 21.24 S 103.5 21.6, 105 21.51 S 108.52 20.9, 110 20.66 S 113.5 20, 115 19.92 S 118.61 20.69, 120 20.12 S 123.68 16.49, 125 15.78 S 128.53 14.44, 130 14.73 S 133.6 17.21, 135 17.75 S 138.52 18.34, 140 18.6 S 143.56 19.1, 145 19.52 S 148.5 21.43, 150 21.48 S 153.59 20.36, 155 19.86 S 158.5 17.97, 160 17.95 S 163.5 19.73, 165 19.74 S 168.51 18.15, 170 18.01 S 173.52 19.05, 175 18.81 S 178.8 17.3, 180 16.39 S 183.58 10.77, 185 11.24 S 188.51 19.86, 190 19.68 S 193.53 10.3, 195 10 S 198.51 17.48, 200 17.61 S 204.11 12.06, 205 10.85"
          fill="none"/>
    <circle r="4" cx="5" cy="40" fill="#3023AE"/>
    <circle r="4" cx="205" cy="10.850000000000001" fill="#C86DD7"/>      
</svg>