<svg width="200" height="50" viewBox="0 0 210 50" xmlns="http://www.w3.org/2000/svg">
    <defs>
        <linearGradient x1="0%" y1="0%" x2="100%" y2="0%" id="a">
            <stop stop-color="#3023AE" offset="0%"/>
            <stop stop-color="#C86DD7" offset="100%"/>
        </linearGradient>
    </defs>
    <path stroke="url(#a)"
          stroke-width="3"
          stroke-linejoin="round"
          stroke-linecap="round"
          d="M5 40 C 5.25 38.52, 8.67 10.69, 10 10 S 14.46 33.42, 15 34.82 S 18.58 35.45, 20 35.94 S 23.56 37.83, 25 38.25 S 28.5 38.78, 30 38.87 S 33.5 38.85, 35 38.85 S 38.5 38.96, 40 38.9 S 43.5 38.5, 45 38.47 S 48.5 38.66, 50 38.73 S 53.5 38.98, 55 38.93 S 58.51 38.54, 60 38.41 S 63.5 38.03, 65 38.08 S 68.5 38.65, 70 38.74 S 73.5 38.72, 75 38.68 S 78.5 38.48, 80 38.44 S 83.51 38.6, 85 38.4 S 88.5 37.14, 90 37.12 S 93.52 37.98, 95 38.25 S 98.5 38.87, 100 38.96 S 103.5 38.86, 105 38.87 S 108.5 39.06, 110 39.06 S 113.5 38.89, 115 38.87 S 118.5 38.94, 120 38.93 S 123.51 38.91, 125 38.78 S 128.5 38.13, 130 38.06 S 133.5 38.26, 135 38.29 S 138.51 38.44, 140 38.27 S 143.51 37.33, 145 37.18 S 148.51 37.07, 150 37.28 S 153.51 38.42, 155 38.6 S 158.5 38.47, 160 38.47 S 163.5 38.55, 165 38.58 S 168.51 38.81, 170 38.67 S 173.5 37.67, 175 37.62 S 178.51 38.19, 180 38.33 S 183.5 38.47, 185 38.54 S 188.5 38.8, 190 38.81 S 193.5 38.6, 195 38.61 S 198.5 38.85, 200 38.87 S 203.5 38.77, 205 38.73"
          fill="none"/>
    <circle r="4" cx="5" cy="40" fill="#3023AE"/>
    <circle r="4" cx="205" cy="38.73" fill="#C86DD7"/>      
</svg>