<svg width="200" height="50" viewBox="0 0 210 50" xmlns="http://www.w3.org/2000/svg">
    <defs>
        <linearGradient x1="0%" y1="0%" x2="100%" y2="0%" id="a">
            <stop stop-color="#3023AE" offset="0%"/>
            <stop stop-color="#C86DD7" offset="100%"/>
        </linearGradient>
    </defs>
    <path stroke="url(#a)"
          stroke-width="3"
          stroke-linejoin="round"
          stroke-linecap="round"
          d="M5 40 C 6.39 39.44, 8.53 38.29, 10 38 S 13.5 38, 15 38 S 18.5 38, 20 38 S 23.5 38, 25 38 S 28.5 38, 30 38 S 33.5 38, 35 38 S 38.83 38.94, 40 38 S 43.5 30, 45 30 S 48.61 38.56, 50 38 S 53.53 26.29, 55 26 S 59.04 34.85, 60 36 S 63.53 37.71, 65 38 S 68.5 38, 70 38 S 73.94 39.06, 75 38 S 79.04 29.15, 80 28 S 83.71 25.23, 85 26 S 89.04 32.85, 90 34 S 93.53 37.71, 95 38 S 98.61 36.56, 100 36 S 103.53 33.71, 105 34 S 108.61 37.44, 110 38 S 113.5 38, 115 38 S 118.61 38.56, 120 38 S 123.83 34.94, 125 34 S 128.53 29.71, 130 30 S 133.53 35.71, 135 36 S 138.53 32.29, 140 32 S 143.53 33.71, 145 34 S 148.53 33.71, 150 34 S 154.21 37.27, 155 36 S 158.94 19.06, 160 18 S 164.21 24.73, 165 26 S 168.53 34.29, 170 34 S 173.83 24.94, 175 24 S 179.13 27.22, 180 26 S 183.5 10, 185 10 S 188.94 24.94, 190 26 S 193.61 20.56, 195 20 S 198.53 21.71, 200 22 S 203.5 22, 205 22"
          fill="none"/>
    <circle r="4" cx="5" cy="40" fill="#3023AE"/>
    <circle r="4" cx="205" cy="22" fill="#C86DD7"/>      
</svg>