<svg width="200" height="50" viewBox="0 0 210 50" xmlns="http://www.w3.org/2000/svg">
    <defs>
        <linearGradient x1="0%" y1="0%" x2="100%" y2="0%" id="a">
            <stop stop-color="#3023AE" offset="0%"/>
            <stop stop-color="#C86DD7" offset="100%"/>
        </linearGradient>
    </defs>
    <path stroke="url(#a)"
          stroke-width="3"
          stroke-linejoin="round"
          stroke-linecap="round"
          d="M5 40 C 6.5 39.96, 8.5 39.89, 10 39.87 S 13.5 39.87, 15 39.87 S 18.5 39.87, 20 39.87 S 23.5 39.87, 25 39.87 S 28.52 40.09, 30 39.87 S 33.51 38.6, 35 38.42 S 38.5 38.62, 40 38.68 S 43.5 38.86, 45 38.82 S 48.6 38.96, 50 38.42 S 53.52 35.22, 55 35 S 58.56 36.54, 60 36.97 S 63.53 37.74, 65 38.03 S 68.51 38.81, 70 38.95 S 73.51 39.15, 75 38.95 S 78.56 38.06, 80 37.63 S 83.54 36.25, 85 35.92 S 88.51 35.23, 90 35.39 S 93.5 36.95, 95 36.97 S 98.65 36.19, 100 35.53 S 103.52 31.9, 105 32.11 S 108.57 36.52, 110 36.97 S 113.5 35.26, 115 35.26 S 118.51 36.79, 120 36.97 S 123.5 36.35, 125 36.45 S 128.5 37.65, 130 37.63 S 133.75 37.16, 135 36.32 S 138.55 31.32, 140 30.92 S 143.52 33.77, 145 33.55 S 149.41 30.85, 150 29.47 S 153.52 10.23, 155 10 S 159.41 26.51, 160 27.89 S 163.62 32.56, 165 33.16 S 168.51 32.08, 170 32.24 S 173.5 34.21, 175 34.21 S 178.52 32.47, 180 32.24 S 183.67 33.33, 185 32.63 S 188.5 26.95, 190 26.97 S 193.75 31.92, 195 32.76 S 198.5 33.8, 200 33.68 S 203.58 32.46, 205 31.97"
          fill="none"/>
    <circle r="4" cx="5" cy="40" fill="#3023AE"/>
    <circle r="4" cx="205" cy="31.97" fill="#C86DD7"/>      
</svg>