<svg width="200" height="50" viewBox="0 0 210 50" xmlns="http://www.w3.org/2000/svg">
    <defs>
        <linearGradient x1="0%" y1="0%" x2="100%" y2="0%" id="a">
            <stop stop-color="#3023AE" offset="0%"/>
            <stop stop-color="#C86DD7" offset="100%"/>
        </linearGradient>
    </defs>
    <path stroke="url(#a)"
          stroke-width="3"
          stroke-linejoin="round"
          stroke-linecap="round"
          d="M5 40 C 6.5 39.99, 8.5 39.97, 10 39.96 S 14.53 41.38, 15 39.96 S 18.96 11.08, 20 10 S 24.46 28.16, 25 29.56 S 28.71 35.06, 30 35.83 S 33.51 35.39, 35 35.53 S 38.5 36.78, 40 36.75 S 43.53 35.61, 45 35.31 S 48.5 34.74, 50 34.69 S 53.54 35.33, 55 35 S 58.5 32.5, 60 32.41 S 63.5 34.43, 65 34.43 S 68.51 32.62, 70 32.41 S 73.65 32.37, 75 33.03 S 78.7 36.56, 80 37.32 S 83.51 38.73, 85 38.86 S 88.51 38.3, 90 38.16 S 93.5 37.98, 95 37.94 S 98.5 37.84, 100 37.89 S 103.5 38.32, 105 38.29 S 108.5 37.78, 110 37.68 S 113.5 37.55, 115 37.59 S 118.5 38.01, 120 37.98 S 123.5 37.45, 125 37.41 S 128.5 37.71, 130 37.72 S 133.5 37.41, 135 37.46 S 138.5 37.99, 140 38.03 S 143.5 37.79, 145 37.72 S 148.5 37.53, 150 37.54 S 153.5 37.7, 155 37.81 S 158.5 38.18, 160 38.25 S 163.5 38.21, 165 38.25 S 168.5 38.5, 170 38.51 S 173.5 38.34, 175 38.33 S 178.5 38.43, 180 38.46 S 183.5 38.55, 185 38.51 S 188.5 38.23, 190 38.16 S 193.5 38.04, 195 38.07 S 198.5 38.41, 200 38.38 S 203.51 38.01, 205 37.85"
          fill="none"/>
    <circle r="4" cx="5" cy="40" fill="#3023AE"/>
    <circle r="4" cx="205" cy="37.85" fill="#C86DD7"/>      
</svg>