<svg width="200" height="50" viewBox="0 0 210 50" xmlns="http://www.w3.org/2000/svg">
    <defs>
        <linearGradient x1="0%" y1="0%" x2="100%" y2="0%" id="a">
            <stop stop-color="#3023AE" offset="0%"/>
            <stop stop-color="#C86DD7" offset="100%"/>
        </linearGradient>
    </defs>
    <path stroke="url(#a)"
          stroke-width="3"
          stroke-linejoin="round"
          stroke-linecap="round"
          d="M5 40 C 6.24 39.16, 8.56 37.02, 10 36.61 S 13.5 37.13, 15 37.13 S 18.5 36.49, 20 36.61 S 23.67 38.6, 25 37.91 S 28.91 32.42, 30 31.39 S 33.59 29.03, 35 28.52 S 38.64 27.1, 40 27.74 S 43.5 33.1, 45 33.22 S 48.64 29.16, 50 28.52 S 53.66 29.19, 55 28.52 S 58.57 23.12, 60 23.57 S 63.76 30.81, 65 31.65 S 68.5 30.31, 70 30.35 S 73.52 32.18, 75 31.91 S 78.53 28.83, 80 28.52 S 83.57 30.28, 85 29.83 S 88.5 25.31, 90 25.39 S 93.52 30.12, 95 30.35 S 98.56 27.37, 100 26.96 S 103.57 27.03, 105 27.48 S 108.56 30.5, 110 30.09 S 113.63 25.22, 115 24.61 S 118.58 25.17, 120 25.65 S 123.67 27.31, 125 28 S 128.53 31.18, 130 30.87 S 133.77 26.77, 135 25.91 S 138.51 23.99, 140 23.83 S 143.52 24.64, 145 24.87 S 148.5 25.35, 150 25.39 S 153.76 25.97, 155 25.13 S 159.09 19.8, 160 18.61 S 163.55 12.47, 165 12.09 S 168.5 16.04, 170 16 S 173.5 11.83, 175 11.83 S 178.63 15.39, 180 16 S 183.71 17.03, 185 16.26 S 188.55 10.38, 190 10 S 193.52 13.42, 195 13.65 S 198.57 12.02, 200 11.57 S 203.53 10.83, 205 10.52"
          fill="none"/>
    <circle r="4" cx="5" cy="40" fill="#3023AE"/>
    <circle r="4" cx="205" cy="10.52" fill="#C86DD7"/>      
</svg>