<svg width="200" height="50" viewBox="0 0 210 50" xmlns="http://www.w3.org/2000/svg">
    <defs>
        <linearGradient x1="0%" y1="0%" x2="100%" y2="0%" id="a">
            <stop stop-color="#3023AE" offset="0%"/>
            <stop stop-color="#C86DD7" offset="100%"/>
        </linearGradient>
    </defs>
    <path stroke="url(#a)"
          stroke-width="3"
          stroke-linejoin="round"
          stroke-linecap="round"
          d="M5 40 C 6.5 39.99, 8.5 39.96, 10 39.95 S 13.5 39.95, 15 39.95 S 18.5 39.97, 20 39.97 S 23.5 39.97, 25 39.97 S 28.5 39.97, 30 39.97 S 33.5 39.97, 35 39.97 S 38.5 39.97, 40 39.97 S 43.5 39.97, 45 39.97 S 48.5 39.97, 50 39.97 S 53.5 39.98, 55 39.97 S 58.51 40.02, 60 39.9 S 63.5 39.2, 65 39.15 S 68.5 39.47, 70 39.55 S 73.5 39.65, 75 39.7 S 78.5 39.88, 80 39.87 S 83.5 39.66, 85 39.65 S 88.5 39.79, 90 39.8 S 93.5 39.77, 95 39.75 S 98.5 39.64, 100 39.65 S 103.5 39.86, 105 39.82 S 108.51 39.49, 110 39.35 S 114.52 40.32, 115 38.9 S 118.51 10.21, 120 10 S 124.5 36.11, 125 37.52 S 128.5 38.01, 130 38.04 S 133.5 37.84, 135 37.74 S 138.7 38.13, 140 37.39 S 143.61 32.61, 145 32.05 S 148.68 32.62, 150 33.33 S 153.6 36.9, 155 37.44 S 158.5 37.29, 160 37.19 S 163.5 36.81, 165 36.76 S 168.5 36.81, 170 36.86 S 173.5 37.22, 175 37.12 S 178.5 36.31, 180 36.19 S 183.51 36.16, 185 36.31 S 188.51 37.36, 190 37.22 S 193.51 35.51, 195 35.38 S 198.5 36.27, 200 36.36 S 203.5 36.08, 205 35.96"
          fill="none"/>
    <circle r="4" cx="5" cy="40" fill="#3023AE"/>
    <circle r="4" cx="205" cy="35.96" fill="#C86DD7"/>      
</svg>