<svg width="200" height="50" viewBox="0 0 210 50" xmlns="http://www.w3.org/2000/svg">
    <defs>
        <linearGradient x1="0%" y1="0%" x2="100%" y2="0%" id="a">
            <stop stop-color="#3023AE" offset="0%"/>
            <stop stop-color="#C86DD7" offset="100%"/>
        </linearGradient>
    </defs>
    <path stroke="url(#a)"
          stroke-width="3"
          stroke-linejoin="round"
          stroke-linecap="round"
          d="M5 40 C 6.16 39.05, 8.51 36.11, 10 35.91 S 13.55 38.24, 15 38.64 S 18.84 39.59, 20 38.64 S 23.61 31.02, 25 30.45 S 28.51 34.35, 30 34.55 S 33.51 32.02, 35 31.82 S 38.51 33.38, 40 33.18 S 43.76 31.3, 45 30.45 S 48.84 27.31, 50 26.36 S 53.61 21.7, 55 22.27 S 58.61 29.88, 60 30.45 S 64.3 27.69, 65 26.36 S 68.5 11.36, 70 11.36 S 73.99 25.25, 75 26.36 S 78.61 22.84, 80 22.27 S 83.68 22.99, 85 22.27 S 88.51 16.62, 90 16.82 S 93.76 24.49, 95 23.64 S 98.76 10.85, 100 10 S 104.05 15.66, 105 16.82 S 108.76 21.42, 110 22.27 S 113.55 24.03, 115 23.64 S 118.55 19.95, 120 19.55 S 123.61 21.48, 125 20.91 S 128.55 15.05, 130 15.45 S 133.92 22.6, 135 23.64 S 138.5 25, 140 25 S 143.51 23.44, 145 23.64 S 148.84 27.31, 150 26.36 S 153.55 15.05, 155 15.45 S 159.11 27.88, 160 29.09 S 163.5 29.09, 165 29.09 S 169.26 30.4, 170 29.09 S 173.84 12.31, 175 11.36 S 178.84 19.96, 180 20.91 S 183.61 20.12, 185 19.55 S 188.61 17.39, 190 16.82 S 193.68 14.73, 195 15.45 S 198.55 21.87, 200 22.27 S 203.84 19.13, 205 18.18"
          fill="none"/>
    <circle r="4" cx="5" cy="40" fill="#3023AE"/>
    <circle r="4" cx="205" cy="18.18" fill="#C86DD7"/>      
</svg>