<svg width="200" height="50" viewBox="0 0 210 50" xmlns="http://www.w3.org/2000/svg">
    <defs>
        <linearGradient x1="0%" y1="0%" x2="100%" y2="0%" id="a">
            <stop stop-color="#3023AE" offset="0%"/>
            <stop stop-color="#C86DD7" offset="100%"/>
        </linearGradient>
    </defs>
    <path stroke="url(#a)"
          stroke-width="3"
          stroke-linejoin="round"
          stroke-linecap="round"
          d="M5 40 C 5.25 38.52, 9.17 11.25, 10 10 S 13.89 24, 15 25 S 18.89 20, 20 19 S 23.71 15.23, 25 16 S 28.89 24, 30 25 S 33.89 24, 35 25 S 38.5 34, 40 34 S 43.56 24.57, 45 25 S 49.04 35.85, 50 37 S 53.71 37.77, 55 37 S 59.27 32.31, 60 31 S 63.56 19.43, 65 19 S 68.71 27.23, 70 28 S 73.89 26, 75 25 S 78.71 18.23, 80 19 S 84.04 29.85, 85 31 S 88.5 31, 90 31 S 93.71 30.23, 95 31 S 98.56 37.43, 100 37 S 103.71 28.77, 105 28 S 108.71 30.23, 110 31 S 113.71 34.77, 115 34 S 118.56 25.43, 120 25 S 123.71 30.23, 125 31 S 128.56 30.57, 130 31 S 133.56 34.43, 135 34 S 138.56 28.43, 140 28 S 143.56 31.43, 145 31 S 148.56 25.43, 150 25 S 153.56 27.57, 155 28 S 158.71 27.23, 160 28 S 163.5 34, 165 34 S 169.27 29.31, 170 28 S 173.5 16, 175 16 S 179.17 26.75, 180 28 S 183.5 31, 185 31 S 188.71 27.23, 190 28 S 193.89 36, 195 37 S 198.89 38, 200 37 S 204.27 29.31, 205 28"
          fill="none"/>
    <circle r="4" cx="5" cy="40" fill="#3023AE"/>
    <circle r="4" cx="205" cy="28" fill="#C86DD7"/>      
</svg>