<svg width="200" height="50" viewBox="0 0 210 50" xmlns="http://www.w3.org/2000/svg">
    <defs>
        <linearGradient x1="0%" y1="0%" x2="100%" y2="0%" id="a">
            <stop stop-color="#3023AE" offset="0%"/>
            <stop stop-color="#C86DD7" offset="100%"/>
        </linearGradient>
    </defs>
    <path stroke="url(#a)"
          stroke-width="3"
          stroke-linejoin="round"
          stroke-linecap="round"
          d="M5 40 C 6.4 39.46, 8.5 38.12, 10 38.06 S 13.51 39.44, 15 39.57 S 19.52 40.38, 20 38.96 S 23.63 10.6, 25 10 S 29.41 33.18, 30 34.56 S 33.53 33.28, 35 33.56 S 38.51 36.23, 40 36.43 S 43.5 34.91, 45 34.88 S 48.5 36.12, 50 36.23 S 53.5 35.73, 55 35.61 S 58.5 35.32, 60 35.42 S 63.5 36.25, 65 36.31 S 68.51 35.97, 70 35.81 S 73.5 35.24, 75 35.21 S 78.5 35.71, 80 35.63 S 83.51 34.84, 85 34.67 S 88.52 34.73, 90 34.5 S 93.62 33.7, 95 33.1 S 98.52 30.37, 100 30.16 S 103.5 31.56, 105 31.66 S 108.5 30.84, 110 30.82 S 113.51 31.34, 115 31.55 S 118.51 32.38, 120 32.22 S 123.51 30.59, 125 30.47 S 128.51 31.26, 130 31.39 S 133.5 31.41, 135 31.32 S 138.63 31.42, 140 30.82 S 143.53 27.21, 145 26.93 S 148.57 28.44, 150 28.9 S 153.5 30.1, 155 30.14 S 158.5 29.13, 160 29.14 S 163.5 30.25, 165 30.23 S 168.51 29.16, 170 28.98 S 173.5 28.98, 175 29.01 S 178.51 29.39, 180 29.21 S 183.5 27.91, 185 27.81 S 188.53 28.3, 190 28.57 S 193.5 29.61, 195 29.67 S 198.5 28.83, 200 28.94 S 203.56 29.96, 205 30.38"
          fill="none"/>
    <circle r="4" cx="5" cy="40" fill="#3023AE"/>
    <circle r="4" cx="205" cy="30.380000000000003" fill="#C86DD7"/>      
</svg>