<svg width="200" height="50" viewBox="0 0 210 50" xmlns="http://www.w3.org/2000/svg">
    <defs>
        <linearGradient x1="0%" y1="0%" x2="100%" y2="0%" id="a">
            <stop stop-color="#3023AE" offset="0%"/>
            <stop stop-color="#C86DD7" offset="100%"/>
        </linearGradient>
    </defs>
    <path stroke="url(#a)"
          stroke-width="3"
          stroke-linejoin="round"
          stroke-linecap="round"
          d="M5 40 C 5.55 38.61, 8.57 27.82, 10 27.37 S 13.73 36.04, 15 36.84 S 18.59 34.2, 20 33.68 S 23.55 32.78, 25 33.16 S 28.55 36.7, 30 36.32 S 34.04 31.69, 35 30.53 S 38.51 24.05, 40 24.21 S 43.79 30.69, 45 31.58 S 48.62 32.16, 50 31.58 S 53.82 28.3, 55 27.37 S 58.82 24.61, 60 23.68 S 63.67 18.77, 65 19.47 S 68.94 27.89, 70 28.95 S 73.62 30.05, 75 29.47 S 78.55 25.12, 80 24.74 S 83.51 26.68, 85 26.84 S 88.53 26.1, 90 25.79 S 93.7 25.49, 95 24.74 S 98.82 19.07, 100 20 S 103.73 31.83, 105 32.63 S 108.55 26.7, 110 26.32 S 113.5 29.92, 115 30 S 118.5 26.84, 120 26.84 S 123.57 29.55, 125 30 S 128.94 31.06, 130 30 S 134.16 21.24, 135 20 S 138.94 16.32, 140 15.26 S 144.18 8.75, 145 10 S 149.28 29.21, 150 30.53 S 153.97 29.51, 155 28.42 S 158.5 19.92, 160 20 S 163.73 28.15, 165 28.95 S 168.5 26.32, 170 26.32 S 173.5 28.95, 175 28.95 S 178.57 26.77, 180 26.32 S 183.5 25.71, 185 25.79 S 188.52 27.07, 190 26.84 S 193.59 23.69, 195 24.21 S 198.7 31.28, 200 30.53 S 204.43 19.81, 205 18.42"
          fill="none"/>
    <circle r="4" cx="5" cy="40" fill="#3023AE"/>
    <circle r="4" cx="205" cy="18.42" fill="#C86DD7"/>      
</svg>