<svg width="200" height="50" viewBox="0 0 210 50" xmlns="http://www.w3.org/2000/svg">
    <defs>
        <linearGradient x1="0%" y1="0%" x2="100%" y2="0%" id="a">
            <stop stop-color="#3023AE" offset="0%"/>
            <stop stop-color="#C86DD7" offset="100%"/>
        </linearGradient>
    </defs>
    <path stroke="url(#a)"
          stroke-width="3"
          stroke-linejoin="round"
          stroke-linecap="round"
          d="M5 40 C 5.82 38.75, 8.75 33.2, 10 32.37 S 13.78 32.52, 15 33.39 S 18.72 38.71, 20 39.49 S 23.5 39.49, 25 39.49 S 28.5 39.49, 30 39.49 S 33.5 39.49, 35 39.49 S 38.5 39.49, 40 39.49 S 43.5 39.57, 45 39.49 S 48.69 39.71, 50 38.98 S 53.55 34.27, 55 33.9 S 58.59 35.94, 60 36.44 S 63.51 37.61, 65 37.46 S 68.61 35.99, 70 35.42 S 73.53 33.69, 75 33.39 S 78.64 34.01, 80 33.39 S 83.81 29.72, 85 28.81 S 88.89 26.77, 90 25.76 S 93.95 20.73, 95 19.66 S 98.55 15.96, 100 15.59 S 103.89 16.11, 105 17.12 S 108.78 23.88, 110 24.75 S 113.5 24.17, 115 24.24 S 118.97 26.34, 120 25.25 S 123.5 13.48, 125 13.56 S 128.95 24.69, 130 25.76 S 133.52 23.5, 135 23.73 S 138.53 26.99, 140 27.29 S 143.72 26.54, 145 25.76 S 149.2 22.46, 150 21.19 S 153.72 10.78, 155 10 S 158.57 14.64, 160 15.08 S 164.07 11.87, 165 13.05 S 169.14 26.57, 170 27.8 S 173.66 27.97, 175 27.29 S 178.61 23.28, 180 22.71 S 183.52 23.45, 185 23.22 S 188.97 22.28, 190 21.19 S 193.81 13.45, 195 12.54 S 198.89 12.55, 200 13.56 S 204.21 20.41, 205 21.69"
          fill="none"/>
    <circle r="4" cx="5" cy="40" fill="#3023AE"/>
    <circle r="4" cx="205" cy="21.69" fill="#C86DD7"/>      
</svg>