<svg width="200" height="50" viewBox="0 0 210 50" xmlns="http://www.w3.org/2000/svg">
    <defs>
        <linearGradient x1="0%" y1="0%" x2="100%" y2="0%" id="a">
            <stop stop-color="#3023AE" offset="0%"/>
            <stop stop-color="#C86DD7" offset="100%"/>
        </linearGradient>
    </defs>
    <path stroke="url(#a)"
          stroke-width="3"
          stroke-linejoin="round"
          stroke-linecap="round"
          d="M5 40 C 5.25 38.52, 8.53 10.31, 10 10 S 14.49 36.45, 15 37.86 S 18.5 37.86, 20 37.86 S 23.5 37.86, 25 37.86 S 28.5 37.86, 30 37.86 S 33.5 37.86, 35 37.86 S 38.5 37.86, 40 37.86 S 43.5 37.86, 45 37.86 S 48.5 37.86, 50 37.86 S 53.5 37.86, 55 37.86 S 58.5 37.86, 60 37.86 S 63.53 38.18, 65 37.86 S 68.5 35.71, 70 35.71 S 73.53 37.54, 75 37.86 S 78.5 37.86, 80 37.86 S 83.5 37.86, 85 37.86 S 88.5 37.86, 90 37.86 S 93.5 37.86, 95 37.86 S 98.5 37.86, 100 37.86 S 103.5 37.86, 105 37.86 S 108.62 38.45, 110 37.86 S 113.62 34.16, 115 33.57 S 118.5 33.57, 120 33.57 S 123.5 33.57, 125 33.57 S 128.62 32.98, 130 33.57 S 133.62 37.27, 135 37.86 S 138.5 37.86, 140 37.86 S 143.5 37.86, 145 37.86 S 148.5 37.86, 150 37.86 S 153.5 37.86, 155 37.86 S 158.5 37.86, 160 37.86 S 163.5 37.86, 165 37.86 S 168.5 37.86, 170 37.86 S 173.5 37.86, 175 37.86 S 178.5 37.86, 180 37.86 S 183.5 37.86, 185 37.86"
          fill="none"/>
    <circle r="4" cx="5" cy="40" fill="#3023AE"/>
    <circle r="4" cx="185" cy="37.86" fill="#C86DD7"/>      
</svg>