<svg width="200" height="50" viewBox="0 0 210 50" xmlns="http://www.w3.org/2000/svg">
    <defs>
        <linearGradient x1="0%" y1="0%" x2="100%" y2="0%" id="a">
            <stop stop-color="#3023AE" offset="0%"/>
            <stop stop-color="#C86DD7" offset="100%"/>
        </linearGradient>
    </defs>
    <path stroke="url(#a)"
          stroke-width="3"
          stroke-linejoin="round"
          stroke-linecap="round"
          d="M5 40 C 5.25 38.52, 8.64 10.64, 10 10 S 14.4 33.94, 15 35.31 S 18.51 33.08, 20 32.92 S 23.59 34.71, 25 34.21 S 28.67 30.05, 30 29.35 S 33.55 29.31, 35 28.92 S 38.59 26.12, 40 26.63 S 43.63 31.91, 45 32.52 S 48.5 31.14, 50 31.08 S 53.55 32.49, 55 32.12 S 58.93 29.57, 60 28.52 S 63.51 22.07, 65 22.23 S 68.58 29.13, 70 29.62 S 73.5 25.78, 75 25.69 S 78.62 28.43, 80 29.02 S 83.52 29.76, 85 30 S 88.5 30.74, 90 30.67 S 93.53 29.84, 95 29.56 S 98.5 28.65, 100 28.77 S 103.51 30.23, 105 30.35 S 108.56 30.02, 110 29.6 S 113.55 27.82, 115 27.42 S 118.5 26.84, 120 26.85 S 123.53 27.2, 125 27.5 S 128.51 28.73, 130 28.92 S 133.53 28.47, 135 28.75 S 138.52 30.6, 140 30.83 S 143.5 30.39, 145 30.29 S 148.53 30.42, 150 30.13 S 153.52 28.55, 155 28.31 S 158.5 28.5, 160 28.48 S 163.5 28.19, 165 28.19 S 168.5 28.4, 170 28.5 S 173.51 28.99, 175 28.85 S 178.5 27.47, 180 27.54 S 183.59 28.84, 185 29.35 S 188.52 30.9, 190 31.13 S 193.55 31.27, 195 30.87 S 198.56 28.78, 200 28.38 S 203.5 28.17, 205 28.08"
          fill="none"/>
    <circle r="4" cx="5" cy="40" fill="#3023AE"/>
    <circle r="4" cx="205" cy="28.08" fill="#C86DD7"/>      
</svg>