<svg width="200" height="50" viewBox="0 0 210 50" xmlns="http://www.w3.org/2000/svg">
    <defs>
        <linearGradient x1="0%" y1="0%" x2="100%" y2="0%" id="a">
            <stop stop-color="#3023AE" offset="0%"/>
            <stop stop-color="#C86DD7" offset="100%"/>
        </linearGradient>
    </defs>
    <path stroke="url(#a)"
          stroke-width="3"
          stroke-linejoin="round"
          stroke-linecap="round"
          d="M5 40 C 6.49 39.88, 8.5 39.63, 10 39.59 S 13.5 39.69, 15 39.73 S 19.52 41.28, 20 39.86 S 23.5 10.08, 25 10 S 29.52 37.9, 30 39.32 S 33.5 39.78, 35 39.86 S 38.5 39.88, 40 39.86 S 43.5 39.73, 45 39.73 S 48.5 39.84, 50 39.86 S 53.5 39.86, 55 39.86 S 58.5 39.86, 60 39.86 S 63.5 39.86, 65 39.86 S 68.5 39.86, 70 39.86 S 73.5 39.86, 75 39.86 S 78.5 39.86, 80 39.86 S 83.5 39.86, 85 39.86 S 88.5 39.86, 90 39.86 S 93.5 39.86, 95 39.86 S 98.5 39.86, 100 39.86 S 103.5 39.86, 105 39.86 S 108.5 39.86, 110 39.86 S 113.5 39.86, 115 39.86 S 118.5 39.86, 120 39.86 S 123.5 39.86, 125 39.86"
          fill="none"/>
    <circle r="4" cx="5" cy="40" fill="#3023AE"/>
    <circle r="4" cx="125" cy="39.86" fill="#C86DD7"/>      
</svg>