<svg width="200" height="50" viewBox="0 0 210 50" xmlns="http://www.w3.org/2000/svg">
    <defs>
        <linearGradient x1="0%" y1="0%" x2="100%" y2="0%" id="a">
            <stop stop-color="#3023AE" offset="0%"/>
            <stop stop-color="#C86DD7" offset="100%"/>
        </linearGradient>
    </defs>
    <path stroke="url(#a)"
          stroke-width="3"
          stroke-linejoin="round"
          stroke-linecap="round"
          d="M5 40 C 5.25 38.52, 8.52 10.26, 10 10 S 14.5 36.85, 15 38.26 S 18.52 38.52, 20 38.27 S 23.51 36.72, 25 36.58 S 28.5 37.28, 30 37.36 S 33.5 37.09, 35 37.12 S 38.51 37.69, 40 37.54 S 43.6 36.67, 45 36.14 S 48.51 33.99, 50 33.79 S 53.51 34.67, 55 34.82 S 58.52 35, 60 34.77 S 63.5 33.36, 65 33.3 S 68.52 34.15, 70 34.37 S 73.5 34.8, 75 34.78 S 78.5 34.16, 80 34.22 S 83.5 35.2, 85 35.2 S 88.51 34.4, 90 34.24 S 93.5 34.12, 95 34.13 S 98.5 34.28, 100 34.33 S 103.5 34.53, 105 34.45 S 108.5 33.86, 110 33.77 S 113.53 34.16, 115 33.87 S 118.5 31.91, 120 31.81 S 123.52 32.95, 125 33.21 S 128.51 33.71, 130 33.59 S 133.53 32.67, 135 32.38 S 138.5 31.7, 140 31.6 S 143.5 31.81, 145 31.73 S 148.5 30.97, 150 31.09 S 153.51 32.34, 155 32.5 S 158.5 32.18, 160 32.15 S 163.54 32.66, 165 32.32 S 168.53 30.14, 170 29.83 S 173.51 30.08, 175 30.24 S 178.51 31.09, 180 30.9 S 183.54 29.29, 185 28.95 S 188.5 28.62, 190 28.58 S 193.5 28.76, 195 28.71 S 198.56 28.68, 200 28.25 S 203.66 26.4, 205 25.72"
          fill="none"/>
    <circle r="4" cx="5" cy="40" fill="#3023AE"/>
    <circle r="4" cx="205" cy="25.72" fill="#C86DD7"/>      
</svg>