<svg width="200" height="50" viewBox="0 0 210 50" xmlns="http://www.w3.org/2000/svg">
    <defs>
        <linearGradient x1="0%" y1="0%" x2="100%" y2="0%" id="a">
            <stop stop-color="#3023AE" offset="0%"/>
            <stop stop-color="#C86DD7" offset="100%"/>
        </linearGradient>
    </defs>
    <path stroke="url(#a)"
          stroke-width="3"
          stroke-linejoin="round"
          stroke-linecap="round"
          d="M5 40 C 5.25 38.52, 8.52 10.26, 10 10 S 14.5 36.81, 15 38.23 S 18.51 38.66, 20 38.46 S 23.51 37.05, 25 36.89 S 28.5 37.3, 30 37.38 S 33.5 37.4, 35 37.43 S 38.5 37.54, 40 37.56 S 43.53 37.9, 45 37.58 S 48.57 35.82, 50 35.38 S 53.5 34.6, 55 34.52 S 58.5 34.75, 60 34.83 S 63.51 35.22, 65 35.04 S 68.5 33.64, 70 33.61 S 73.52 34.59, 75 34.82 S 78.5 35.18, 80 35.17 S 83.5 34.71, 85 34.73 S 88.5 35.32, 90 35.29 S 93.5 34.63, 95 34.56 S 98.5 34.84, 100 34.83 S 103.5 34.52, 105 34.52 S 108.5 34.82, 110 34.8 S 113.5 34.47, 115 34.39 S 118.51 34.37, 120 34.24 S 123.51 33.69, 125 33.5 S 128.5 32.9, 130 32.93 S 133.51 33.57, 135 33.7 S 138.51 33.95, 140 33.8 S 143.52 32.98, 145 32.71 S 148.5 32.04, 150 31.97 S 153.5 32.32, 155 32.26 S 158.5 31.5, 160 31.58 S 163.51 32.64, 165 32.81 S 168.5 32.76, 170 32.73 S 173.5 32.72, 175 32.6 S 178.54 32.32, 180 31.96 S 183.5 30.18, 185 30.16 S 188.5 31.79, 190 31.8 S 193.54 30.6, 195 30.24 S 198.51 29.54, 200 29.36 S 203.5 29.14, 205 29.05"
          fill="none"/>
    <circle r="4" cx="5" cy="40" fill="#3023AE"/>
    <circle r="4" cx="205" cy="29.05" fill="#C86DD7"/>      
</svg>