<svg width="200" height="50" viewBox="0 0 210 50" xmlns="http://www.w3.org/2000/svg">
    <defs>
        <linearGradient x1="0%" y1="0%" x2="100%" y2="0%" id="a">
            <stop stop-color="#3023AE" offset="0%"/>
            <stop stop-color="#C86DD7" offset="100%"/>
        </linearGradient>
    </defs>
    <path stroke="url(#a)"
          stroke-width="3"
          stroke-linejoin="round"
          stroke-linecap="round"
          d="M5 40 C 6.36 39.36, 8.5 37.75, 10 37.63 S 13.53 38.92, 15 39.21 S 18.5 39.55, 20 39.61 S 23.5 39.67, 25 39.61 S 28.5 39.21, 30 39.21 S 33.5 39.55, 35 39.61 S 38.5 39.61, 40 39.61 S 43.5 39.67, 45 39.61 S 48.5 39.33, 50 39.21 S 53.5 38.76, 55 38.82 S 58.5 39.49, 60 39.61 S 63.5 39.61, 65 39.61 S 68.5 39.61, 70 39.61 S 73.5 39.61, 75 39.61 S 78.5 39.61, 80 39.61 S 83.5 39.61, 85 39.61 S 88.5 39.61, 90 39.61 S 93.5 39.61, 95 39.61 S 98.5 39.61, 100 39.61 S 103.5 39.61, 105 39.61 S 108.5 39.61, 110 39.61 S 113.5 39.61, 115 39.61 S 118.5 39.61, 120 39.61 S 123.5 39.61, 125 39.61 S 128.5 39.61, 130 39.61 S 133.5 39.61, 135 39.61 S 138.5 39.61, 140 39.61 S 143.5 39.61, 145 39.61 S 148.5 39.61, 150 39.61 S 154.52 41.03, 155 39.61 S 158.85 10.96, 160 10 S 164.51 29.9, 165 31.32 S 168.85 38.25, 170 39.21 S 173.5 39.55, 175 39.61 S 178.5 39.61, 180 39.61 S 183.5 39.61, 185 39.61 S 188.5 39.61, 190 39.61 S 193.5 39.67, 195 39.61 S 198.55 39.61, 200 39.21 S 203.64 37.48, 205 36.84"
          fill="none"/>
    <circle r="4" cx="5" cy="40" fill="#3023AE"/>
    <circle r="4" cx="205" cy="36.84" fill="#C86DD7"/>      
</svg>