<svg width="200" height="50" viewBox="0 0 210 50" xmlns="http://www.w3.org/2000/svg">
    <defs>
        <linearGradient x1="0%" y1="0%" x2="100%" y2="0%" id="a">
            <stop stop-color="#3023AE" offset="0%"/>
            <stop stop-color="#C86DD7" offset="100%"/>
        </linearGradient>
    </defs>
    <path stroke="url(#a)"
          stroke-width="3"
          stroke-linejoin="round"
          stroke-linecap="round"
          d="M5 40 C 5.25 38.52, 8.56 10.43, 10 10 S 14.47 35.59, 15 36.99 S 18.52 35.98, 20 36.22 S 23.51 38.46, 25 38.63 S 28.51 37.52, 30 37.37 S 33.5 37.53, 35 37.62 S 38.51 38.15, 40 38 S 43.5 36.62, 45 36.64 S 48.52 37.89, 50 38.14 S 53.5 38.39, 55 38.35 S 58.5 37.88, 60 37.9 S 63.5 38.48, 65 38.46 S 68.5 37.84, 70 37.79 S 73.5 38.09, 75 38.11 S 78.5 38, 80 37.93 S 83.5 37.59, 85 37.62 S 88.5 38.01, 90 38.11 S 93.5 38.39, 95 38.32 S 98.51 37.75, 100 37.62 S 103.5 37.46, 105 37.44 S 108.5 37.41, 110 37.48 S 113.51 37.77, 115 37.93 S 118.5 38.55, 120 38.56 S 123.5 38.1, 125 38 S 128.5 37.82, 130 37.9 S 133.5 38.56, 135 38.53 S 138.5 37.72, 140 37.69 S 143.5 38.27, 145 38.32 S 148.5 37.99, 150 38 S 153.5 38.36, 155 38.39 S 158.5 38.17, 160 38.18 S 163.5 38.52, 165 38.49 S 168.5 38.06, 170 38 S 173.51 37.9, 175 38.07 S 178.5 39.17, 180 39.12 S 183.51 37.91, 185 37.72 S 188.5 37.79, 190 37.83 S 193.5 37.94, 195 38 S 198.5 38.19, 200 38.25 S 203.5 38.37, 205 38.42"
          fill="none"/>
    <circle r="4" cx="5" cy="40" fill="#3023AE"/>
    <circle r="4" cx="205" cy="38.42" fill="#C86DD7"/>      
</svg>