<svg width="200" height="50" viewBox="0 0 210 50" xmlns="http://www.w3.org/2000/svg">
    <defs>
        <linearGradient x1="0%" y1="0%" x2="100%" y2="0%" id="a">
            <stop stop-color="#3023AE" offset="0%"/>
            <stop stop-color="#C86DD7" offset="100%"/>
        </linearGradient>
    </defs>
    <path stroke="url(#a)"
          stroke-width="3"
          stroke-linejoin="round"
          stroke-linecap="round"
          d="M5 40 C 6.49 39.79, 8.5 39.34, 10 39.31 S 13.5 39.7, 15 39.77 S 18.5 39.77, 20 39.77 S 23.5 39.77, 25 39.77 S 28.5 39.77, 30 39.77 S 33.5 39.77, 35 39.77 S 38.5 39.77, 40 39.77 S 43.5 39.77, 45 39.77 S 48.5 39.77, 50 39.77 S 53.5 39.77, 55 39.77 S 58.5 39.77, 60 39.77 S 63.52 40.04, 65 39.77 S 69.52 39.36, 70 37.94 S 73.67 10.7, 75 10 S 79.5 31.26, 80 32.67 S 83.74 37.59, 85 38.4 S 88.5 39.08, 90 39.08 S 93.5 38.33, 95 38.4 S 98.51 39.4, 100 39.54 S 103.5 39.38, 105 39.31 S 108.5 39.01, 110 39.08 S 113.5 39.74, 115 39.77 S 118.5 39.31, 120 39.31 S 123.5 39.7, 125 39.77 S 128.5 39.77, 130 39.77 S 133.5 39.77, 135 39.77 S 138.5 39.77, 140 39.77 S 143.51 39.91, 145 39.77 S 149.01 39.98, 150 38.85 S 153.5 28.39, 155 28.32 S 158.98 37.3, 160 38.4 S 163.65 39.73, 165 39.08 S 168.5 33.49, 170 33.59 S 173.72 38.98, 175 39.77 S 178.5 39.77, 180 39.77 S 183.5 39.8, 185 39.77 S 188.5 39.54, 190 39.54 S 193.5 39.74, 195 39.77 S 198.64 40.39, 200 39.77 S 203.89 36.2, 205 35.19"
          fill="none"/>
    <circle r="4" cx="5" cy="40" fill="#3023AE"/>
    <circle r="4" cx="205" cy="35.19" fill="#C86DD7"/>      
</svg>