<svg width="200" height="50" viewBox="0 0 210 50" xmlns="http://www.w3.org/2000/svg">
    <defs>
        <linearGradient x1="0%" y1="0%" x2="100%" y2="0%" id="a">
            <stop stop-color="#3023AE" offset="0%"/>
            <stop stop-color="#C86DD7" offset="100%"/>
        </linearGradient>
    </defs>
    <path stroke="url(#a)"
          stroke-width="3"
          stroke-linejoin="round"
          stroke-linecap="round"
          d="M5 40 C 5.25 38.52, 9.21 11.27, 10 10 S 14.5 22.59, 15 24 S 18.71 37.23, 20 38 S 24.04 31.15, 25 30 S 28.61 25.44, 30 26 S 34.04 32.85, 35 34 S 38.61 37.44, 40 38 S 43.5 38, 45 38 S 48.53 38.29, 50 38 S 53.5 36, 55 36 S 58.53 37.71, 60 38 S 63.83 38.94, 65 38 S 68.5 30, 70 30 S 74.04 39.15, 75 38 S 78.53 18.29, 80 18 S 84.04 34.85, 85 36 S 89.27 31.31, 90 30 S 93.53 17.71, 95 18 S 99.13 30.78, 100 32 S 103.61 31.44, 105 32 S 109.04 37.15, 110 36 S 113.94 21.06, 115 20 S 118.94 24.94, 120 26 S 123.94 28.94, 125 30 S 128.71 35.23, 130 36 S 133.83 36.94, 135 36 S 139.04 29.15, 140 28 S 143.61 24.56, 145 24 S 148.53 23.71, 150 24 S 153.94 24.94, 155 26 S 158.71 34.77, 160 34 S 164.21 21.27, 165 20 S 168.53 17.71, 170 18 S 173.53 21.71, 175 22 S 178.61 19.44, 180 20 S 183.61 26.56, 185 26 S 188.5 16, 190 16 S 193.53 25.71, 195 26 S 198.61 17.44, 200 18 S 204.42 28.62, 205 30"
          fill="none"/>
    <circle r="4" cx="5" cy="40" fill="#3023AE"/>
    <circle r="4" cx="205" cy="30" fill="#C86DD7"/>      
</svg>