<svg width="200" height="50" viewBox="0 0 210 50" xmlns="http://www.w3.org/2000/svg">
    <defs>
        <linearGradient x1="0%" y1="0%" x2="100%" y2="0%" id="a">
            <stop stop-color="#3023AE" offset="0%"/>
            <stop stop-color="#C86DD7" offset="100%"/>
        </linearGradient>
    </defs>
    <path stroke="url(#a)"
          stroke-width="3"
          stroke-linejoin="round"
          stroke-linecap="round"
          d="M5 40 C 5.94 38.83, 8.56 34.22, 10 33.79 S 13.54 36.69, 15 37.04 S 18.5 36.14, 20 36.16 S 23.51 37.04, 25 37.19 S 28.84 38.14, 30 37.19 S 33.63 29.67, 35 29.06 S 39 33.88, 40 32.76 S 43.99 18.94, 45 17.83 S 48.53 22.12, 50 21.82 S 53.57 15.3, 55 15.76 S 58.87 24.08, 60 25.07 S 63.53 24.2, 65 24.48 S 68.59 27.52, 70 27 S 73.51 20.64, 75 20.79 S 78.74 27.21, 80 28.03 S 83.5 27.4, 85 27.29 S 88.53 27.59, 90 27.29 S 93.73 26.01, 95 25.22 S 98.51 20.95, 100 21.08 S 103.51 26.24, 105 26.11 S 108.58 20.68, 110 20.2 S 113.5 22.73, 115 22.71 S 118.58 20.53, 120 20.05 S 123.77 20.17, 125 19.31 S 128.5 13.14, 130 13.1 S 133.51 18.88, 135 19.01 S 138.61 13.42, 140 13.99 S 143.78 22.28, 145 23.15 S 148.51 21.26, 150 21.08 S 153.51 21.77, 155 21.97 S 158.55 22.8, 160 22.41 S 163.51 19.46, 165 19.31 S 168.5 21.45, 170 21.38 S 173.51 18.74, 175 18.87 S 178.65 21.61, 180 22.27 S 183.68 24.46, 185 23.74 S 188.84 17.75, 190 16.8 S 193.76 16.46, 195 15.62 S 198.5 10.07, 200 10 S 203.96 14.09, 205 15.17"
          fill="none"/>
    <circle r="4" cx="5" cy="40" fill="#3023AE"/>
    <circle r="4" cx="205" cy="15.170000000000002" fill="#C86DD7"/>      
</svg>