<svg width="200" height="50" viewBox="0 0 210 50" xmlns="http://www.w3.org/2000/svg">
    <defs>
        <linearGradient x1="0%" y1="0%" x2="100%" y2="0%" id="a">
            <stop stop-color="#3023AE" offset="0%"/>
            <stop stop-color="#C86DD7" offset="100%"/>
        </linearGradient>
    </defs>
    <path stroke="url(#a)"
          stroke-width="3"
          stroke-linejoin="round"
          stroke-linecap="round"
          d="M5 40 C 5.71 38.68, 8.52 30.97, 10 30.71 S 13.88 37.21, 15 38.21 S 18.5 39.53, 20 39.64 S 23.5 38.93, 25 38.93 S 28.5 39.69, 30 39.64 S 33.52 38.78, 35 38.57 S 38.5 38.21, 40 38.21 S 43.5 38.62, 45 38.57 S 48.5 37.86, 50 37.86 S 54.49 39.98, 55 38.57 S 58.66 10.67, 60 10 S 64.38 32.2, 65 33.57 S 68.59 31.64, 70 32.14 S 73.72 36.36, 75 37.14 S 78.54 37.85, 80 38.21 S 83.52 39.43, 85 39.64 S 88.5 39.64, 90 39.64 S 93.5 39.64, 95 39.64 S 98.54 40, 100 39.64 S 103.5 37.25, 105 37.14 S 108.52 38.72, 110 38.93 S 113.5 38.52, 115 38.57 S 118.5 39.34, 120 39.29 S 123.53 38.53, 125 38.21 S 128.5 37.14, 130 37.14 S 133.51 38.05, 135 38.21 S 138.5 38.1, 140 38.21 S 143.5 38.82, 145 38.93 S 148.5 38.98, 150 38.93 S 153.52 38.78, 155 38.57 S 158.53 37.81, 160 37.5 S 163.5 36.38, 165 36.43 S 168.51 37.7, 170 37.86 S 173.51 37.66, 175 37.5 S 178.5 36.74, 180 36.79 S 183.52 37.6, 185 37.86 S 188.52 38.83, 190 38.57 S 193.52 36.33, 195 36.07 S 198.57 36.33, 200 36.79 S 203.66 38.62, 205 39.29"
          fill="none"/>
    <circle r="4" cx="5" cy="40" fill="#3023AE"/>
    <circle r="4" cx="205" cy="39.29" fill="#C86DD7"/>      
</svg>