<svg width="200" height="50" viewBox="0 0 210 50" xmlns="http://www.w3.org/2000/svg">
    <defs>
        <linearGradient x1="0%" y1="0%" x2="100%" y2="0%" id="a">
            <stop stop-color="#3023AE" offset="0%"/>
            <stop stop-color="#C86DD7" offset="100%"/>
        </linearGradient>
    </defs>
    <path stroke="url(#a)"
          stroke-width="3"
          stroke-linejoin="round"
          stroke-linecap="round"
          d="M5 40 C 6.5 39.95, 8.5 39.83, 10 39.82 S 13.5 39.93, 15 39.95 S 18.86 40.94, 20 39.96 S 24.53 32.74, 25 31.32 S 28.74 10.82, 30 10 S 34.36 23.48, 35 24.83 S 38.69 30.3, 40 31.03 S 43.52 30.67, 45 30.41 S 48.5 29.28, 50 29.25 S 53.52 29.96, 55 30.22 S 58.5 30.97, 60 31.03 S 63.51 30.78, 65 30.61 S 68.54 30.22, 70 29.86 S 73.52 28.36, 75 28.13 S 78.52 28.12, 80 28.34 S 83.51 29.46, 85 29.63 S 88.5 29.51, 90 29.51 S 93.5 29.65, 95 29.64 S 98.51 29.62, 100 29.44 S 103.5 28.37, 105 28.43 S 108.51 29.65, 110 29.85 S 113.5 29.9, 115 29.79 S 118.5 29.06, 120 29.1 S 123.52 29.82, 125 30.06 S 128.5 30.6, 130 30.71 S 133.5 30.72, 135 30.77 S 138.5 30.97, 140 31.05 S 143.5 31.19, 145 31.3 S 148.53 31.5, 150 31.81 S 153.51 33.3, 155 33.43 S 158.5 32.75, 160 32.65 S 163.51 32.58, 165 32.76 S 168.52 33.66, 170 33.87 S 173.5 34.17, 175 34.2 S 178.5 33.98, 180 34.06 S 183.5 34.75, 185 34.76 S 188.5 34.21, 190 34.11 S 193.5 34.05, 195 34.07 S 198.5 34.14, 200 34.24 S 203.51 34.58, 205 34.72"
          fill="none"/>
    <circle r="4" cx="5" cy="40" fill="#3023AE"/>
    <circle r="4" cx="205" cy="34.72" fill="#C86DD7"/>      
</svg>