<svg width="200" height="50" viewBox="0 0 210 50" xmlns="http://www.w3.org/2000/svg">
    <defs>
        <linearGradient x1="0%" y1="0%" x2="100%" y2="0%" id="a">
            <stop stop-color="#3023AE" offset="0%"/>
            <stop stop-color="#C86DD7" offset="100%"/>
        </linearGradient>
    </defs>
    <path stroke="url(#a)"
          stroke-width="3"
          stroke-linejoin="round"
          stroke-linecap="round"
          d="M5 40 C 6.5 39.92, 8.5 39.74, 10 39.74 S 13.55 40.36, 15 39.97 S 19.53 38.47, 20 37.05 S 24.46 11.4, 25 10 S 29.24 9.68, 30 10.97 S 34.17 25.75, 35 27 S 38.5 25.99, 40 25.91 S 43.5 26.4, 45 26.48 S 48.5 26.38, 50 26.45 S 53.5 26.93, 55 26.97 S 58.58 27.17, 60 26.7 S 63.56 24.06, 65 23.65 S 68.52 23.62, 70 23.88 S 73.52 25.15, 75 25.4 S 78.5 25.5, 80 25.54 S 83.5 25.79, 85 25.68 S 88.5 24.89, 90 24.79 S 93.52 24.75, 95 25 S 98.5 26.47, 100 26.45 S 103.5 24.92, 105 24.87 S 108.54 25.76, 110 26.09 S 113.52 26.85, 115 27.1 S 118.51 27.6, 120 27.75 S 123.5 28.03, 125 28.11 S 128.55 27.91, 130 28.28 S 133.52 30.46, 135 30.69 S 138.5 29.88, 140 29.83 S 143.54 30.02, 145 30.36 S 148.52 31.95, 150 32.17 S 153.5 31.78, 155 31.85 S 158.5 32.65, 160 32.65 S 163.5 31.99, 165 31.88 S 168.5 31.86, 170 31.93 S 173.5 32.21, 175 32.33 S 178.5 32.58, 180 32.7 S 183.51 32.99, 185 33.14 S 188.51 33.57, 190 33.71 S 193.52 33.8, 195 34.06 S 198.51 35.26, 200 35.45 S 203.5 35.37, 205 35.34"
          fill="none"/>
    <circle r="4" cx="5" cy="40" fill="#3023AE"/>
    <circle r="4" cx="205" cy="35.34" fill="#C86DD7"/>      
</svg>