<svg width="200" height="50" viewBox="0 0 210 50" xmlns="http://www.w3.org/2000/svg">
    <defs>
        <linearGradient x1="0%" y1="0%" x2="100%" y2="0%" id="a">
            <stop stop-color="#3023AE" offset="0%"/>
            <stop stop-color="#C86DD7" offset="100%"/>
        </linearGradient>
    </defs>
    <path stroke="url(#a)"
          stroke-width="3"
          stroke-linejoin="round"
          stroke-linecap="round"
          d="M5 40 C 5.25 38.52, 9.31 11.33, 10 10 S 13.86 19.76, 15 20.73 S 18.95 17.47, 20 18.54 S 23.85 30.02, 25 30.98 S 28.63 27.43, 30 26.83 S 33.51 26.45, 35 26.59 S 38.66 27.12, 40 27.8 S 43.5 31.78, 45 31.71 S 48.56 27.74, 50 27.32 S 53.52 29, 55 28.78 S 58.5 25.78, 60 25.85 S 63.56 28.85, 65 29.27 S 68.5 28.82, 70 28.78 S 73.58 29.5, 75 29.02 S 78.52 25.59, 80 25.37 S 83.79 26.67, 85 27.56 S 88.53 32.39, 90 32.68 S 93.52 29.76, 95 29.51 S 98.54 31.34, 100 30.98 S 103.6 27.62, 105 27.07 S 108.52 26.85, 110 27.07 S 113.51 28.39, 115 28.54 S 118.5 28.09, 120 28.05 S 123.5 28.25, 125 28.29 S 128.5 28.4, 130 28.29 S 133.5 27.63, 135 27.56 S 138.56 28.22, 140 27.8 S 143.5 24.56, 145 24.63 S 148.54 27.97, 150 28.29 S 153.57 27.28, 155 26.83 S 158.54 25.44, 160 25.12 S 163.5 24.67, 165 24.63 S 168.53 24.59, 170 24.88 S 173.56 26.17, 175 26.59 S 178.57 27.35, 180 27.8 S 183.5 29.8, 185 29.76 S 188.55 27.17, 190 27.56 S 193.52 32.22, 195 32.44 S 198.56 29.44, 200 29.02 S 203.51 29.36, 205 29.51"
          fill="none"/>
    <circle r="4" cx="5" cy="40" fill="#3023AE"/>
    <circle r="4" cx="205" cy="29.509999999999998" fill="#C86DD7"/>      
</svg>