<svg width="200" height="50" viewBox="0 0 210 50" xmlns="http://www.w3.org/2000/svg">
    <defs>
        <linearGradient x1="0%" y1="0%" x2="100%" y2="0%" id="a">
            <stop stop-color="#3023AE" offset="0%"/>
            <stop stop-color="#C86DD7" offset="100%"/>
        </linearGradient>
    </defs>
    <path stroke="url(#a)"
          stroke-width="3"
          stroke-linejoin="round"
          stroke-linecap="round"
          d="M5 40 C 6.49 39.88, 8.5 39.65, 10 39.59 S 13.5 39.59, 15 39.59 S 18.5 39.59, 20 39.59 S 23.51 39.71, 25 39.59 S 28.5 38.83, 30 38.77 S 33.5 39.24, 35 39.18 S 38.53 38.66, 40 38.36 S 43.5 37.06, 45 37.12 S 48.61 39.34, 50 38.77 S 53.52 33.25, 55 33.01 S 58.51 37.3, 60 37.12 S 63.61 32.35, 65 31.78 S 68.54 32.65, 70 33.01 S 74.4 35.63, 75 34.25 S 78.58 10.47, 80 10 S 83.89 29.95, 85 30.96 S 88.53 18.74, 90 19.04 S 93.84 32.06, 95 33.01 S 99.37 28.62, 100 27.26 S 103.52 11.47, 105 11.23 S 109.21 24.35, 110 25.62 S 113.93 28.31, 115 27.26 S 118.53 16.05, 120 15.75 S 124.25 23.91, 125 25.21 S 128.51 33.13, 130 33.01 S 133.61 24.95, 135 24.38 S 138.5 28.84, 140 28.9 S 143.51 24.91, 145 24.79 S 148.57 28.55, 150 28.08 S 153.84 22.46, 155 21.51 S 158.57 19.39, 160 19.86 S 163.61 24.22, 165 24.79 S 168.52 23.73, 170 23.97 S 173.54 26.08, 175 26.44 S 178.61 27.01, 180 26.44 S 183.5 22.27, 185 22.33 S 188.52 26.61, 190 26.85 S 193.53 23.67, 195 23.97 S 198.54 28.54, 200 28.9 S 203.65 27.1, 205 26.44"
          fill="none"/>
    <circle r="4" cx="5" cy="40" fill="#3023AE"/>
    <circle r="4" cx="205" cy="26.439999999999998" fill="#C86DD7"/>      
</svg>