<svg width="200" height="50" viewBox="0 0 210 50" xmlns="http://www.w3.org/2000/svg">
    <defs>
        <linearGradient x1="0%" y1="0%" x2="100%" y2="0%" id="a">
            <stop stop-color="#3023AE" offset="0%"/>
            <stop stop-color="#C86DD7" offset="100%"/>
        </linearGradient>
    </defs>
    <path stroke="url(#a)"
          stroke-width="3"
          stroke-linejoin="round"
          stroke-linecap="round"
          d="M5 40 C 5.25 38.52, 8.7 10.74, 10 10 S 14.33 32.97, 15 34.31 S 18.54 29.73, 20 30.06 S 23.51 36.72, 25 36.57 S 28.5 28.98, 30 29.06 S 33.87 36.11, 35 37.1 S 38.5 37.89, 40 37.78 S 43.51 36.56, 45 36.38 S 48.5 36.47, 50 36.54 S 53.51 37.04, 55 36.86 S 58.67 36.05, 60 35.36 S 63.5 31.59, 65 31.69 S 68.65 35.4, 70 36.06 S 73.5 36.56, 75 36.57 S 78.5 35.99, 80 36.11 S 83.51 37.22, 85 37.36 S 88.51 37.2, 90 37.07 S 93.56 36.88, 95 36.46 S 98.53 34.41, 100 34.12 S 103.51 34.64, 105 34.48 S 108.5 33, 110 33.05 S 113.55 34.4, 115 34.79 S 118.51 35.62, 120 35.75 S 124.08 36.87, 125 35.69 S 128.56 23.28, 130 22.87 S 133.92 31.82, 135 32.86 S 138.5 32.58, 140 32.58 S 143.63 33.5, 145 32.89 S 148.5 28.05, 150 28.1 S 153.5 33.18, 155 33.22 S 158.5 28.31, 160 28.4 S 163.6 33.27, 165 33.8 S 168.51 32.33, 170 32.2 S 173.5 33.05, 175 32.94 S 178.51 31.6, 180 31.45 S 183.59 31.4, 185 31.91 S 188.54 34.74, 190 35.09 S 193.5 34.41, 195 34.34 S 198.5 34.59, 200 34.6 S 203.5 34.49, 205 34.44"
          fill="none"/>
    <circle r="4" cx="5" cy="40" fill="#3023AE"/>
    <circle r="4" cx="205" cy="34.44" fill="#C86DD7"/>      
</svg>