<svg width="200" height="50" viewBox="0 0 210 50" xmlns="http://www.w3.org/2000/svg">
    <defs>
        <linearGradient x1="0%" y1="0%" x2="100%" y2="0%" id="a">
            <stop stop-color="#3023AE" offset="0%"/>
            <stop stop-color="#C86DD7" offset="100%"/>
        </linearGradient>
    </defs>
    <path stroke="url(#a)"
          stroke-width="3"
          stroke-linejoin="round"
          stroke-linecap="round"
          d="M5 40 C 5.25 38.52, 8.85 10.96, 10 10 S 14.38 30.3, 15 31.67 S 18.5 32.23, 20 32.12 S 23.54 30.63, 25 30.96 S 28.75 33.59, 30 34.41 S 33.53 37.27, 35 37.54 S 38.51 36.43, 40 36.27 S 43.5 36.45, 45 36.48 S 48.51 36.68, 50 36.47 S 53.7 35.82, 55 35.07 S 58.52 30.53, 60 30.74 S 63.65 35.86, 65 36.51 S 68.5 35.49, 70 35.55 S 73.51 36.71, 75 36.92 S 78.5 37.06, 80 36.96 S 83.57 36.73, 85 36.28 S 88.53 34.15, 90 33.83 S 93.51 34.27, 95 34.11 S 98.5 32.77, 100 32.79 S 103.55 33.86, 105 34.25 S 108.7 36.21, 110 35.46 S 113.84 29.46, 115 28.51 S 118.62 26.62, 120 27.22 S 123.63 32.23, 125 32.85 S 128.66 32.39, 130 31.72 S 133.51 27.71, 135 27.84 S 138.5 32.57, 140 32.56 S 143.51 27.64, 145 27.77 S 148.61 32.88, 150 33.43 S 153.53 32.03, 155 31.75 S 158.52 31.79, 160 31.55 S 163.55 29.73, 165 30.13 S 168.63 33.7, 170 34.31 S 173.5 34.62, 175 34.54 S 178.5 33.84, 180 33.76 S 183.5 33.89, 185 33.99 S 188.51 34.62, 190 34.46 S 193.5 33.01, 195 32.89 S 198.52 33.39, 200 33.66 S 203.53 34.39, 205 34.69"
          fill="none"/>
    <circle r="4" cx="5" cy="40" fill="#3023AE"/>
    <circle r="4" cx="205" cy="34.69" fill="#C86DD7"/>      
</svg>