<svg width="200" height="50" viewBox="0 0 210 50" xmlns="http://www.w3.org/2000/svg">
    <defs>
        <linearGradient x1="0%" y1="0%" x2="100%" y2="0%" id="a">
            <stop stop-color="#3023AE" offset="0%"/>
            <stop stop-color="#C86DD7" offset="100%"/>
        </linearGradient>
    </defs>
    <path stroke="url(#a)"
          stroke-width="3"
          stroke-linejoin="round"
          stroke-linecap="round"
          d="M5 40 C 6.45 39.62, 8.5 38.76, 10 38.7 S 13.5 39.64, 15 39.57 S 18.6 38.81, 20 38.26 S 23.6 36.2, 25 35.65 S 28.69 35.09, 30 34.35 S 33.51 29.87, 35 30 S 38.5 35.16, 40 35.22 S 43.5 30.5, 45 30.43 S 48.51 34.91, 50 34.78 S 53.51 29.7, 55 29.57 S 58.62 33.31, 60 33.91 S 63.6 33.36, 65 33.91 S 68.56 38.27, 70 37.83 S 73.77 31.73, 75 30.87 S 78.51 30.74, 80 30.87 S 84.03 32.88, 85 31.74 S 88.53 19.45, 90 19.13 S 93.89 28.56, 95 29.57 S 98.52 28, 100 28.26 S 103.65 30.65, 105 31.3 S 108.53 32.72, 110 33.04 S 113.5 33.41, 115 33.48 S 118.5 33.42, 120 33.48 S 123.98 35.01, 125 33.91 S 128.87 23.59, 130 22.61 S 133.6 24.67, 135 25.22 S 138.55 26.14, 140 26.52 S 143.62 27.23, 145 27.83 S 148.6 30.32, 150 30.87 S 153.65 32.39, 155 31.74 S 158.77 26.95, 160 26.09 S 163.72 25.56, 165 24.78 S 168.67 20.69, 170 20 S 173.51 19.38, 175 19.57 S 178.52 21.56, 180 21.3 S 183.5 17.83, 185 17.83 S 188.82 22.22, 190 21.3 S 193.96 11.08, 195 10 S 198.87 9.89, 200 10.87 S 204.19 17.44, 205 18.7"
          fill="none"/>
    <circle r="4" cx="5" cy="40" fill="#3023AE"/>
    <circle r="4" cx="205" cy="18.7" fill="#C86DD7"/>      
</svg>