<svg width="200" height="50" viewBox="0 0 210 50" xmlns="http://www.w3.org/2000/svg">
    <defs>
        <linearGradient x1="0%" y1="0%" x2="100%" y2="0%" id="a">
            <stop stop-color="#3023AE" offset="0%"/>
            <stop stop-color="#C86DD7" offset="100%"/>
        </linearGradient>
    </defs>
    <path stroke="url(#a)"
          stroke-width="3"
          stroke-linejoin="round"
          stroke-linecap="round"
          d="M5 40 C 5.25 38.52, 8.54 10.33, 10 10 S 14.36 36.36, 15 37.72 S 18.51 31.01, 20 31.2 S 23.56 38.6, 25 39.02 S 28.87 35.12, 30 34.13 S 33.5 30.12, 35 30.22 S 38.64 35.4, 40 34.78 S 43.74 26.47, 45 25.65 S 48.62 27.67, 50 28.26 S 53.5 29.79, 55 29.89 S 59.03 30.05, 60 28.91 S 63.65 18.81, 65 18.15 S 69.06 22.85, 70 24.02 S 73.62 29.95, 75 30.54 S 78.54 27.93, 80 28.26 S 83.59 32.32, 85 32.83 S 88.51 32.04, 90 31.85 S 93.5 31.47, 95 31.52 S 98.5 32.12, 100 32.17 S 103.53 32.14, 105 31.85 S 108.51 30.07, 110 30.22 S 113.52 32.59, 115 32.83 S 118.5 31.85, 120 31.85 S 123.52 32.59, 125 32.83 S 128.59 33.99, 130 33.48 S 133.5 29.29, 135 29.24 S 138.67 32.46, 140 33.15 S 143.65 35.12, 145 34.46 S 148.5 28.31, 150 28.26 S 153.57 33.67, 155 34.13 S 158.59 32.03, 160 31.52 S 163.57 30.08, 165 30.54 S 168.54 34.45, 170 34.78 S 173.55 33.21, 175 32.83 S 178.52 31.93, 180 32.17 S 183.57 34, 185 34.46 S 188.51 35.58, 190 35.43 S 193.5 33.53, 195 33.48 S 198.55 34.73, 200 35.11 S 203.53 35.8, 205 36.09"
          fill="none"/>
    <circle r="4" cx="5" cy="40" fill="#3023AE"/>
    <circle r="4" cx="205" cy="36.09" fill="#C86DD7"/>      
</svg>