<svg width="200" height="50" viewBox="0 0 210 50" xmlns="http://www.w3.org/2000/svg">
    <defs>
        <linearGradient x1="0%" y1="0%" x2="100%" y2="0%" id="a">
            <stop stop-color="#3023AE" offset="0%"/>
            <stop stop-color="#C86DD7" offset="100%"/>
        </linearGradient>
    </defs>
    <path stroke="url(#a)"
          stroke-width="3"
          stroke-linejoin="round"
          stroke-linecap="round"
          d="M5 40 C 6.42 39.52, 8.52 38.58, 10 38.33 S 13.51 38.2, 15 38.33 S 18.51 39.04, 20 39.17 S 23.5 39.17, 25 39.17 S 28.5 39.17, 30 39.17 S 33.5 39.17, 35 39.17 S 38.5 39.17, 40 39.17 S 43.5 39.17, 45 39.17 S 48.5 39.17, 50 39.17 S 53.5 39.17, 55 39.17 S 58.5 39.17, 60 39.17 S 63.5 39.17, 65 39.17 S 68.5 39.17, 70 39.17 S 73.52 39.42, 75 39.17 S 78.58 37.98, 80 37.5 S 83.52 36.08, 85 35.83 S 88.54 35.47, 90 35.83 S 93.54 37.97, 95 38.33 S 98.51 38.2, 100 38.33 S 103.52 39.42, 105 39.17 S 108.54 37.03, 110 36.67 S 113.51 36.55, 115 36.67 S 118.51 37.38, 120 37.5 S 123.51 37.38, 125 37.5 S 128.5 38.33, 130 38.33 S 133.58 37.97, 135 37.5 S 138.51 34.88, 140 35 S 143.58 37.86, 145 38.33 S 148.8 39.23, 150 38.33 S 154.2 32.1, 155 30.83 S 158.54 22.86, 160 22.5 S 164.17 27.08, 165 28.33 S 169.28 38.82, 170 37.5 S 173.7 10.76, 175 10 S 179.46 30.27, 180 31.67 S 183.54 35.47, 185 35.83 S 188.54 34.53, 190 34.17 S 193.54 32.97, 195 33.33 S 198.5 36.67, 200 36.67 S 203.75 34.16, 205 33.33"
          fill="none"/>
    <circle r="4" cx="5" cy="40" fill="#3023AE"/>
    <circle r="4" cx="205" cy="33.33" fill="#C86DD7"/>      
</svg>