<svg width="200" height="50" viewBox="0 0 210 50" xmlns="http://www.w3.org/2000/svg">
    <defs>
        <linearGradient x1="0%" y1="0%" x2="100%" y2="0%" id="a">
            <stop stop-color="#3023AE" offset="0%"/>
            <stop stop-color="#C86DD7" offset="100%"/>
        </linearGradient>
    </defs>
    <path stroke="url(#a)"
          stroke-width="3"
          stroke-linejoin="round"
          stroke-linecap="round"
          d="M5 40 C 6.42 39.51, 8.52 38.54, 10 38.29 S 13.51 38.16, 15 38.29 S 18.51 39.01, 20 39.14 S 23.5 39.14, 25 39.14 S 28.5 39.14, 30 39.14 S 33.5 39.14, 35 39.14 S 38.5 39.14, 40 39.14 S 43.5 39.14, 45 39.14 S 48.5 39.14, 50 39.14 S 53.5 39.14, 55 39.14 S 58.5 39.14, 60 39.14 S 63.5 39.14, 65 39.14 S 68.55 39.51, 70 39.14 S 73.58 37.06, 75 36.57 S 78.52 35.96, 80 35.71 S 83.58 34.37, 85 34.86 S 88.55 38.77, 90 39.14 S 93.52 37.68, 95 37.43 S 98.51 37.56, 100 37.43 S 103.51 36.44, 105 36.57 S 108.51 38.42, 110 38.29 S 113.5 35.71, 115 35.71 S 118.52 38.04, 120 38.29 S 123.58 37.92, 125 37.43 S 128.51 34.73, 130 34.86 S 133.58 37.8, 135 38.29 S 138.81 39.21, 140 38.29 S 144.37 31.93, 145 30.57 S 148.58 16.37, 150 16.86 S 153.76 34.85, 155 34 S 158.55 10.37, 160 10 S 164.4 30.05, 165 31.43 S 168.62 32.55, 170 33.14 S 173.52 35.46, 175 35.71 S 178.55 35.23, 180 34.86 S 183.51 33.27, 185 33.14 S 188.52 33.75, 190 34 S 193.55 34.49, 195 34.86 S 198.52 36.32, 200 36.57 S 203.5 36.57, 205 36.57"
          fill="none"/>
    <circle r="4" cx="5" cy="40" fill="#3023AE"/>
    <circle r="4" cx="205" cy="36.57" fill="#C86DD7"/>      
</svg>