<svg width="200" height="50" viewBox="0 0 210 50" xmlns="http://www.w3.org/2000/svg">
    <defs>
        <linearGradient x1="0%" y1="0%" x2="100%" y2="0%" id="a">
            <stop stop-color="#3023AE" offset="0%"/>
            <stop stop-color="#C86DD7" offset="100%"/>
        </linearGradient>
    </defs>
    <path stroke="url(#a)"
          stroke-width="3"
          stroke-linejoin="round"
          stroke-linecap="round"
          d="M5 40 C 6.33 39.3, 8.51 37.48, 10 37.35 S 13.52 38.86, 15 39.12 S 18.5 39.12, 20 39.12 S 23.5 39.12, 25 39.12 S 28.5 39.12, 30 39.12 S 33.5 39.12, 35 39.12 S 38.5 39.12, 40 39.12 S 43.5 39.12, 45 39.12 S 48.5 39.12, 50 39.12 S 53.5 39.12, 55 39.12 S 58.55 39.5, 60 39.12 S 63.67 37.17, 65 36.47 S 68.52 34.08, 70 33.82 S 73.59 34.21, 75 34.71 S 78.63 36.74, 80 37.35 S 83.55 39.5, 85 39.12 S 88.51 34.84, 90 34.71 S 93.5 38.24, 95 38.24 S 98.5 34.71, 100 34.71 S 103.55 37.86, 105 38.24 S 108.63 37.96, 110 37.35 S 113.51 33.69, 115 33.82 S 118.59 37.74, 120 38.24 S 124.45 38.75, 125 37.35 S 128.83 13.58, 130 12.65 S 133.55 29.79, 135 29.41 S 138.52 9.74, 140 10 S 144.4 29.8, 145 31.18 S 148.63 32.33, 150 32.94 S 153.55 35.97, 155 35.59 S 158.51 30.42, 160 30.29 S 163.59 34.21, 165 34.71 S 168.52 33.56, 170 33.82 S 173.52 36.21, 175 36.47 S 178.55 35.97, 180 35.59 S 183.51 33.95, 185 33.82 S 188.51 34.58, 190 34.71 S 193.52 34.97, 195 34.71 S 198.5 32.94, 200 32.94 S 203.59 34.21, 205 34.71"
          fill="none"/>
    <circle r="4" cx="5" cy="40" fill="#3023AE"/>
    <circle r="4" cx="205" cy="34.71" fill="#C86DD7"/>      
</svg>