<svg width="200" height="50" viewBox="0 0 210 50" xmlns="http://www.w3.org/2000/svg">
    <defs>
        <linearGradient x1="0%" y1="0%" x2="100%" y2="0%" id="a">
            <stop stop-color="#3023AE" offset="0%"/>
            <stop stop-color="#C86DD7" offset="100%"/>
        </linearGradient>
    </defs>
    <path stroke="url(#a)"
          stroke-width="3"
          stroke-linejoin="round"
          stroke-linecap="round"
          d="M5 40 C 6.28 39.21, 8.5 37.04, 10 36.92 S 13.54 38.89, 15 39.23 S 18.5 39.23, 20 39.23 S 23.5 39.23, 25 39.23 S 28.5 39.35, 30 39.23 S 33.5 38.58, 35 38.46 S 38.5 38.58, 40 38.46 S 43.68 38.4, 45 37.69 S 48.54 33.42, 50 33.08 S 53.64 34.75, 55 35.38 S 58.5 37.8, 60 37.69 S 63.57 35.06, 65 34.62 S 68.57 34.18, 70 34.62 S 73.5 37.81, 75 37.69 S 78.5 33.97, 80 33.85 S 83.68 37.63, 85 36.92 S 89.33 29.8, 90 28.46 S 94.29 18.24, 95 16.92 S 99.12 8.78, 100 10 S 104.39 29.4, 105 30.77 S 108.52 32.08, 110 32.31 S 113.52 32.08, 115 32.31 S 118.52 33.62, 120 33.85 S 123.5 33.85, 125 33.85 S 128.54 34.19, 130 33.85 S 133.52 31.77, 135 31.54 S 138.5 32.31, 140 32.31 S 143.5 31.66, 145 31.54 S 148.5 31.66, 150 31.54 S 153.52 31, 155 30.77 S 158.5 30.12, 160 30 S 163.57 30.44, 165 30 S 168.5 26.8, 170 26.92 S 173.85 29.8, 175 30.77 S 178.64 34.75, 180 35.38 S 183.64 36.01, 185 35.38 S 189.05 31.93, 190 30.77 S 193.57 22.64, 195 23.08 S 198.68 33.14, 200 33.85 S 203.98 29.56, 205 28.46"
          fill="none"/>
    <circle r="4" cx="5" cy="40" fill="#3023AE"/>
    <circle r="4" cx="205" cy="28.46" fill="#C86DD7"/>      
</svg>