<svg width="200" height="50" viewBox="0 0 210 50" xmlns="http://www.w3.org/2000/svg">
    <defs>
        <linearGradient x1="0%" y1="0%" x2="100%" y2="0%" id="a">
            <stop stop-color="#3023AE" offset="0%"/>
            <stop stop-color="#C86DD7" offset="100%"/>
        </linearGradient>
    </defs>
    <path stroke="url(#a)"
          stroke-width="3"
          stroke-linejoin="round"
          stroke-linecap="round"
          d="M5 40 C 5.47 38.58, 9.53 26.42, 10 25 S 13.98 8.9, 15 10 S 19.44 34.32, 20 35.71 S 23.53 34.32, 25 34.64 S 28.62 37.27, 30 37.86 S 33.51 38.77, 35 38.93 S 38.5 38.93, 40 38.93 S 43.51 39.09, 45 38.93 S 48.5 37.86, 50 37.86 S 53.51 38.77, 55 38.93 S 58.53 39.24, 60 38.93 S 63.62 37.38, 65 36.79 S 68.53 34.33, 70 34.64 S 73.57 38.47, 75 38.93 S 78.57 38.32, 80 37.86 S 83.51 35.55, 85 35.71 S 88.57 38.47, 90 38.93 S 93.5 38.93, 95 38.93 S 98.5 38.93, 100 38.93 S 103.5 38.93, 105 38.93 S 108.5 38.93, 110 38.93 S 113.86 39.91, 115 38.93 S 118.5 30.36, 120 30.36 S 123.86 37.95, 125 38.93 S 128.68 39.64, 130 38.93 S 133.57 34.03, 135 33.57 S 138.53 35.4, 140 35.71 S 143.53 36.02, 145 35.71 S 148.5 33.57, 150 33.57 S 153.53 36.02, 155 35.71 S 158.5 31.43, 160 31.43 S 163.57 35.25, 165 35.71 S 168.53 34.32, 170 34.64 S 173.92 38.9, 175 37.86 S 178.62 25.59, 180 25 S 184.03 32.43, 185 33.57 S 188.68 36.08, 190 36.79 S 193.53 39.25, 195 38.93 S 198.57 35.1, 200 34.64 S 203.53 35.4, 205 35.71"
          fill="none"/>
    <circle r="4" cx="5" cy="40" fill="#3023AE"/>
    <circle r="4" cx="205" cy="35.71" fill="#C86DD7"/>      
</svg>