<svg width="200" height="50" viewBox="0 0 210 50" xmlns="http://www.w3.org/2000/svg">
    <defs>
        <linearGradient x1="0%" y1="0%" x2="100%" y2="0%" id="a">
            <stop stop-color="#3023AE" offset="0%"/>
            <stop stop-color="#C86DD7" offset="100%"/>
        </linearGradient>
    </defs>
    <path stroke="url(#a)"
          stroke-width="3"
          stroke-linejoin="round"
          stroke-linecap="round"
          d="M5 40 C 6.5 39.94, 8.5 39.84, 10 39.79 S 13.5 39.65, 15 39.64 S 18.66 40.39, 20 39.71 S 23.5 34.67, 25 34.58 S 28.67 38.45, 30 39.14 S 33.5 39.68, 35 39.79 S 38.5 39.95, 40 39.86 S 43.5 39.25, 45 39.22 S 48.5 39.58, 50 39.64 S 53.5 39.71, 55 39.64 S 58.5 39.11, 60 39.14 S 63.5 39.77, 65 39.86 S 68.5 39.74, 70 39.71 S 73.5 39.63, 75 39.64 S 78.5 39.8, 80 39.79 S 83.51 39.7, 85 39.57 S 88.5 38.97, 90 38.93 S 93.5 39.2, 95 39.29 S 98.5 39.48, 100 39.5 S 103.5 39.42, 105 39.43 S 108.5 39.53, 110 39.57 S 113.5 39.73, 115 39.71 S 118.5 39.53, 120 39.43 S 123.5 39.07, 125 39.07 S 128.59 39.95, 130 39.43 S 133.56 35.79, 135 35.37 S 138.56 36.1, 140 36.51 S 143.51 38.05, 145 38.22 S 148.78 38.53, 150 37.65 S 154.07 32.2, 155 31.02 S 159.1 26.16, 160 24.96 S 164.17 18.87, 165 17.62 S 168.61 9.43, 170 10 S 174.28 20.45, 175 21.76 S 178.92 27.13, 180 28.17 S 183.55 31.07, 185 31.45 S 188.55 30.44, 190 30.81 S 193.66 33.33, 195 34.01 S 198.52 35.61, 200 35.87 S 203.5 35.82, 205 35.8"
          fill="none"/>
    <circle r="4" cx="5" cy="40" fill="#3023AE"/>
    <circle r="4" cx="205" cy="35.8" fill="#C86DD7"/>      
</svg>