<svg width="200" height="50" viewBox="0 0 210 50" xmlns="http://www.w3.org/2000/svg">
    <defs>
        <linearGradient x1="0%" y1="0%" x2="100%" y2="0%" id="a">
            <stop stop-color="#3023AE" offset="0%"/>
            <stop stop-color="#C86DD7" offset="100%"/>
        </linearGradient>
    </defs>
    <path stroke="url(#a)"
          stroke-width="3"
          stroke-linejoin="round"
          stroke-linecap="round"
          d="M5 40 C 6.5 39.99, 8.68 40.68, 10 39.98 S 13.52 34.95, 15 34.68 S 18.5 38.16, 20 38.18 S 23.85 35.77, 25 34.81 S 28.58 29.32, 30 29.81 S 33.56 37.8, 35 38.23 S 38.83 33.78, 40 32.84 S 43.68 30.87, 45 30.15 S 48.79 26.49, 50 27.38 S 54.04 36.32, 55 37.48 S 58.6 40.02, 60 39.48 S 63.63 34.24, 65 33.63 S 68.5 34.99, 70 35.07 S 73.57 34.6, 75 34.16 S 78.52 32.26, 80 32 S 83.54 32.73, 85 32.4 S 88.8 30.66, 90 29.76 S 93.5 24.93, 95 24.87 S 98.54 29.02, 100 29.38 S 103.51 27.5, 105 27.31 S 108.5 28.13, 110 28.1 S 113.57 27.52, 115 27.08 S 118.54 25.39, 120 25.04 S 123.5 24.6, 125 24.67 S 128.51 25.39, 130 25.53 S 133.56 26, 135 25.58 S 138.64 23.22, 140 22.58 S 143.53 21.14, 145 20.85 S 148.52 20.43, 150 20.64 S 153.5 22.31, 155 22.28 S 158.5 20.52, 160 20.44 S 163.5 21.68, 165 21.73 S 168.62 21.35, 170 20.76 S 173.64 18.06, 175 17.42 S 178.5 16.01, 180 16.05 S 183.6 18.19, 185 17.66 S 188.79 13.18, 190 12.3 S 193.53 10.68, 195 10.39 S 198.5 10.42, 200 10.36 S 203.5 10.11, 205 10"
          fill="none"/>
    <circle r="4" cx="5" cy="40" fill="#3023AE"/>
    <circle r="4" cx="205" cy="10" fill="#C86DD7"/>      
</svg>