<svg width="200" height="50" viewBox="0 0 210 50" xmlns="http://www.w3.org/2000/svg">
    <defs>
        <linearGradient x1="0%" y1="0%" x2="100%" y2="0%" id="a">
            <stop stop-color="#3023AE" offset="0%"/>
            <stop stop-color="#C86DD7" offset="100%"/>
        </linearGradient>
    </defs>
    <path stroke="url(#a)"
          stroke-width="3"
          stroke-linejoin="round"
          stroke-linecap="round"
          d="M5 40 C 6.5 40, 8.51 40.16, 10 39.99 S 13.52 39.11, 15 38.84 S 18.5 38.1, 20 38.18 S 23.51 39.23, 25 39.4 S 28.5 39.39, 30 39.31 S 33.5 38.94, 35 38.87 S 38.5 38.92, 40 38.81 S 43.5 38.16, 45 38.12 S 48.5 38.48, 50 38.52 S 53.5 38.5, 55 38.42 S 58.5 38.08, 60 38.01 S 63.5 38.02, 65 37.98 S 68.5 37.88, 70 37.76 S 73.5 37.25, 75 37.21 S 78.5 37.54, 80 37.48 S 83.51 36.95, 85 36.82 S 88.5 36.72, 90 36.64 S 93.5 36.4, 95 36.29 S 98.52 36.13, 100 35.91 S 103.55 35.17, 105 34.79 S 108.5 33.41, 110 33.32 S 113.5 34.09, 115 34.16 S 118.55 34.2, 120 33.8 S 123.51 31.58, 125 31.43 S 128.5 32.79, 130 32.78 S 133.57 31.84, 135 31.39 S 138.52 29.85, 140 29.61 S 143.52 30.03, 145 29.77 S 148.52 28.1, 150 27.85 S 153.5 28.2, 155 28.11 S 158.62 27.81, 160 27.22 S 163.67 24.48, 165 23.79 S 168.5 22.11, 170 22.05 S 173.5 23.51, 175 23.41 S 178.51 21.54, 180 21.35 S 183.54 22.47, 185 22.14 S 188.52 19.37, 190 19.1 S 193.66 20.97, 195 20.3 S 198.96 15.2, 200 14.12 S 203.84 10.95, 205 10"
          fill="none"/>
    <circle r="4" cx="5" cy="40" fill="#3023AE"/>
    <circle r="4" cx="205" cy="10" fill="#C86DD7"/>      
</svg>