<svg width="200" height="50" viewBox="0 0 210 50" xmlns="http://www.w3.org/2000/svg">
    <defs>
        <linearGradient x1="0%" y1="0%" x2="100%" y2="0%" id="a">
            <stop stop-color="#3023AE" offset="0%"/>
            <stop stop-color="#C86DD7" offset="100%"/>
        </linearGradient>
    </defs>
    <path stroke="url(#a)"
          stroke-width="3"
          stroke-linejoin="round"
          stroke-linecap="round"
          d="M5 40 C 6.5 39.9, 8.51 39.86, 10 39.65 S 14.52 40.02, 15 38.6 S 18.63 10.62, 20 10 S 24.42 32.69, 25 34.07 S 28.51 33.51, 30 33.72 S 33.65 34.81, 35 35.47 S 38.54 38.24, 40 38.6 S 44.22 39.19, 45 37.91 S 48.51 22.42, 50 22.21 S 54.17 35.26, 55 36.51 S 58.53 36.9, 60 37.21 S 63.51 38.39, 65 38.6 S 68.53 38.91, 70 38.6 S 73.5 36.51, 75 36.51 S 78.53 38.29, 80 38.6 S 83.51 38.44, 85 38.6 S 88.51 39.49, 90 39.65 S 93.5 39.7, 95 39.65 S 98.5 39.3, 100 39.3 S 103.5 39.6, 105 39.65 S 108.5 39.65, 110 39.65 S 113.5 39.65, 115 39.65 S 118.5 39.65, 120 39.65 S 123.5 39.65, 125 39.65 S 128.5 39.65, 130 39.65 S 133.5 39.65, 135 39.65 S 138.5 39.65, 140 39.65 S 143.5 39.65, 145 39.65 S 148.5 39.75, 150 39.65 S 153.5 39.05, 155 38.95 S 158.5 38.9, 160 38.95 S 163.5 39.35, 165 39.3 S 168.5 38.55, 170 38.6 S 173.51 39.49, 175 39.65 S 178.5 39.65, 180 39.65 S 183.5 39.7, 185 39.65 S 188.5 39.3, 190 39.3 S 193.5 39.6, 195 39.65 S 198.5 39.65, 200 39.65 S 203.5 39.65, 205 39.65"
          fill="none"/>
    <circle r="4" cx="5" cy="40" fill="#3023AE"/>
    <circle r="4" cx="205" cy="39.65" fill="#C86DD7"/>      
</svg>