<svg width="200" height="50" viewBox="0 0 210 50" xmlns="http://www.w3.org/2000/svg">
    <defs>
        <linearGradient x1="0%" y1="0%" x2="100%" y2="0%" id="a">
            <stop stop-color="#3023AE" offset="0%"/>
            <stop stop-color="#C86DD7" offset="100%"/>
        </linearGradient>
    </defs>
    <path stroke="url(#a)"
          stroke-width="3"
          stroke-linejoin="round"
          stroke-linecap="round"
          d="M5 40 C 6.06 38.94, 8.66 35.67, 10 35 S 13.5 35, 15 35 S 18.5 35, 20 35 S 23.5 35, 25 35 S 28.5 35, 30 35 S 33.5 35, 35 35 S 38.5 35, 40 35 S 43.5 35, 45 35 S 48.5 35, 50 35 S 53.5 35, 55 35 S 58.5 35, 60 35 S 63.5 35, 65 35 S 68.5 35, 70 35 S 73.5 35, 75 35 S 78.5 35, 80 35 S 83.5 35, 85 35 S 88.5 35, 90 35 S 93.5 35, 95 35 S 98.5 35, 100 35 S 103.5 35, 105 35 S 108.5 35, 110 35 S 113.66 35.67, 115 35 S 119.44 31.39, 120 30 S 123.66 10.67, 125 10 S 129.44 23.61, 130 25 S 133.94 33.94, 135 35 S 139.44 36.39, 140 35 S 144.17 11.25, 145 10 S 149.17 18.75, 150 20 S 154.17 23.75, 155 25 S 158.94 33.94, 160 35 S 163.94 36.06, 165 35 S 168.5 25, 170 25 S 173.66 35.67, 175 35 S 178.66 20.67, 180 20 S 183.5 30, 185 30 S 188.5 20, 190 20 S 194.17 28.75, 195 30 S 198.5 35, 200 35 S 203.94 31.06, 205 30"
          fill="none"/>
    <circle r="4" cx="5" cy="40" fill="#3023AE"/>
    <circle r="4" cx="205" cy="30" fill="#C86DD7"/>      
</svg>