<svg width="200" height="50" viewBox="0 0 210 50" xmlns="http://www.w3.org/2000/svg">
    <defs>
        <linearGradient x1="0%" y1="0%" x2="100%" y2="0%" id="a">
            <stop stop-color="#3023AE" offset="0%"/>
            <stop stop-color="#C86DD7" offset="100%"/>
        </linearGradient>
    </defs>
    <path stroke="url(#a)"
          stroke-width="3"
          stroke-linejoin="round"
          stroke-linecap="round"
          d="M5 40 C 5.25 38.52, 8.74 10.81, 10 10 S 14.51 32.15, 15 33.57 S 18.5 38.93, 20 38.93 S 23.62 34.16, 25 33.57 S 28.57 34.18, 30 34.64 S 33.53 36.47, 35 36.79 S 38.5 36.79, 40 36.79 S 43.51 36.63, 45 36.79 S 48.53 37.55, 50 37.86 S 53.51 38.77, 55 38.93 S 58.5 38.93, 60 38.93 S 63.5 38.93, 65 38.93 S 68.51 39.09, 70 38.93 S 73.68 38.57, 75 37.86 S 78.51 33.41, 80 33.57 S 83.53 38.62, 85 38.93 S 88.5 35.71, 90 35.71 S 93.5 38.93, 95 38.93 S 98.5 35.71, 100 35.71 S 103.53 38.61, 105 38.93 S 108.5 37.86, 110 37.86 S 113.51 39.09, 115 38.93 S 118.5 36.79, 120 36.79 S 123.53 38.62, 125 38.93 S 128.5 38.93, 130 38.93 S 133.5 38.93, 135 38.93 S 138.5 38.93, 140 38.93 S 143.51 39.09, 145 38.93 S 148.51 38.02, 150 37.86 S 153.5 37.86, 155 37.86 S 158.51 37.7, 160 37.86 S 163.51 38.77, 165 38.93 S 168.5 38.93, 170 38.93 S 173.5 38.93, 175 38.93 S 178.5 38.93, 180 38.93 S 183.5 38.93, 185 38.93 S 188.5 38.93, 190 38.93"
          fill="none"/>
    <circle r="4" cx="5" cy="40" fill="#3023AE"/>
    <circle r="4" cx="190" cy="38.93" fill="#C86DD7"/>      
</svg>