<svg width="200" height="50" viewBox="0 0 210 50" xmlns="http://www.w3.org/2000/svg">
    <defs>
        <linearGradient x1="0%" y1="0%" x2="100%" y2="0%" id="a">
            <stop stop-color="#3023AE" offset="0%"/>
            <stop stop-color="#C86DD7" offset="100%"/>
        </linearGradient>
    </defs>
    <path stroke="url(#a)"
          stroke-width="3"
          stroke-linejoin="round"
          stroke-linecap="round"
          d="M5 40 C 5.25 38.52, 8.76 10.84, 10 10 S 14.39 31.86, 15 33.23 S 18.53 31.98, 20 32.26 S 23.7 34.41, 25 35.16 S 28.53 37.77, 30 38.06 S 33.76 37.94, 35 37.1 S 38.6 31.83, 40 31.29 S 43.6 32.69, 45 33.23 S 48.51 35.02, 50 35.16 S 53.6 33.65, 55 34.19 S 58.56 38.61, 60 39.03 S 63.5 37.1, 65 37.1 S 68.56 39.45, 70 39.03 S 73.51 34.33, 75 34.19 S 78.51 37.92, 80 38.06 S 83.53 35.44, 85 35.16 S 88.5 36.13, 90 36.13 S 93.53 34.88, 95 35.16 S 98.53 38.34, 100 38.06 S 103.53 33.51, 105 33.23 S 108.56 35.71, 110 36.13 S 113.53 36.42, 115 36.13 S 118.53 34.48, 120 34.19 S 123.56 33.77, 125 34.19 S 128.56 36.68, 130 37.1 S 133.6 37.64, 135 37.1 S 138.53 33.52, 140 33.23 S 143.56 34.74, 145 35.16 S 148.51 36.27, 150 36.13 S 153.51 34.05, 155 34.19 S 158.56 36.68, 160 37.1 S 163.7 37.85, 165 37.1 S 168.53 31.58, 170 31.29 S 173.53 34.87, 175 35.16 S 178.56 33.65, 180 33.23 S 183.6 31.72, 185 32.26 S 188.76 36.26, 190 37.1 S 193.53 39.32, 195 39.03 S 198.65 35.81, 200 35.16 S 203.53 34.48, 205 34.19"
          fill="none"/>
    <circle r="4" cx="5" cy="40" fill="#3023AE"/>
    <circle r="4" cx="205" cy="34.19" fill="#C86DD7"/>      
</svg>