<svg width="200" height="50" viewBox="0 0 210 50" xmlns="http://www.w3.org/2000/svg">
    <defs>
        <linearGradient x1="0%" y1="0%" x2="100%" y2="0%" id="a">
            <stop stop-color="#3023AE" offset="0%"/>
            <stop stop-color="#C86DD7" offset="100%"/>
        </linearGradient>
    </defs>
    <path stroke="url(#a)"
          stroke-width="3"
          stroke-linejoin="round"
          stroke-linecap="round"
          d="M5 40 C 6.32 39.28, 8.55 37.67, 10 37.27 S 13.5 37.27, 15 37.27 S 18.84 38.22, 20 37.27 S 23.84 30.04, 25 29.09 S 28.84 28.14, 30 29.09 S 33.84 36.32, 35 37.27 S 38.5 37.27, 40 37.27 S 43.5 37.27, 45 37.27 S 48.5 37.27, 50 37.27 S 53.5 37.27, 55 37.27 S 58.5 37.27, 60 37.27 S 63.5 37.27, 65 37.27 S 68.5 37.27, 70 37.27 S 73.5 37.27, 75 37.27 S 78.5 37.27, 80 37.27 S 83.5 37.27, 85 37.27 S 88.5 37.27, 90 37.27 S 93.5 37.27, 95 37.27 S 98.5 37.27, 100 37.27 S 103.5 37.27, 105 37.27 S 108.5 37.27, 110 37.27 S 113.5 37.27, 115 37.27 S 119.48 38.68, 120 37.27 S 123.5 10, 125 10 S 129.43 35.88, 130 37.27 S 133.5 34.55, 135 34.55 S 138.68 37.99, 140 37.27 S 143.5 29.09, 145 29.09 S 148.84 36.32, 150 37.27 S 153.5 37.27, 155 37.27 S 158.55 37.66, 160 37.27 S 163.5 34.55, 165 34.55 S 168.55 36.88, 170 37.27 S 173.5 37.27, 175 37.27 S 178.5 37.27, 180 37.27 S 183.5 37.27, 185 37.27 S 188.5 37.27, 190 37.27 S 193.5 37.27, 195 37.27"
          fill="none"/>
    <circle r="4" cx="5" cy="40" fill="#3023AE"/>
    <circle r="4" cx="195" cy="37.27" fill="#C86DD7"/>      
</svg>