<svg width="200" height="50" viewBox="0 0 210 50" xmlns="http://www.w3.org/2000/svg">
    <defs>
        <linearGradient x1="0%" y1="0%" x2="100%" y2="0%" id="a">
            <stop stop-color="#3023AE" offset="0%"/>
            <stop stop-color="#C86DD7" offset="100%"/>
        </linearGradient>
    </defs>
    <path stroke="url(#a)"
          stroke-width="3"
          stroke-linejoin="round"
          stroke-linecap="round"
          d="M5 40 C 6.49 39.81, 8.61 39.92, 10 39.36 S 13.5 35.92, 15 35.99 S 18.6 39.3, 20 39.84 S 23.57 40.28, 25 39.84 S 28.81 37.71, 30 36.79 S 33.5 32.19, 35 32.14 S 38.72 37.25, 40 36.47 S 43.89 27.05, 45 26.04 S 48.88 26.33, 50 27.33 S 53.87 34.05, 55 35.03 S 58.51 36.13, 60 35.99 S 63.65 34.71, 65 34.06 S 68.55 31.55, 70 31.18 S 73.81 32.42, 75 31.5 S 78.6 24.02, 80 23.48 S 83.88 26.65, 85 27.65 S 88.59 31.96, 90 32.46 S 93.5 31.2, 95 31.18 S 98.52 32.52, 100 32.3 S 103.51 29.56, 105 29.73 S 108.61 33.98, 110 33.42 S 113.67 26.4, 115 25.72 S 118.61 27.73, 120 28.29 S 123.61 29.17, 125 29.73 S 128.98 33.4, 130 32.3 S 133.52 19.22, 135 18.98 S 138.95 29.63, 140 30.7 S 143.5 29.07, 145 29.09 S 148.58 31.34, 150 30.86 S 153.54 26.05, 155 25.72 S 158.57 28.17, 160 28.61 S 163.61 29.33, 165 28.77 S 168.56 25.02, 170 24.6 S 173.5 25.81, 175 25.88 S 178.5 25.15, 180 25.08 S 183.53 25.71, 185 25.4 S 188.5 23.06, 190 22.99 S 193.59 24.4, 195 24.92 S 199.16 27.93, 200 26.68 S 204.57 11.44, 205 10"
          fill="none"/>
    <circle r="4" cx="5" cy="40" fill="#3023AE"/>
    <circle r="4" cx="205" cy="10" fill="#C86DD7"/>      
</svg>