<svg width="200" height="50" viewBox="0 0 210 50" xmlns="http://www.w3.org/2000/svg">
    <defs>
        <linearGradient x1="0%" y1="0%" x2="100%" y2="0%" id="a">
            <stop stop-color="#3023AE" offset="0%"/>
            <stop stop-color="#C86DD7" offset="100%"/>
        </linearGradient>
    </defs>
    <path stroke="url(#a)"
          stroke-width="3"
          stroke-linejoin="round"
          stroke-linecap="round"
          d="M5 40 C 5.25 38.52, 8.7 10.75, 10 10 S 14.51 32.77, 15 34.19 S 18.65 38.38, 20 39.03 S 23.5 39.03, 25 39.03 S 28.5 39.03, 30 39.03 S 33.65 39.68, 35 39.03 S 38.51 34.33, 40 34.19 S 43.65 37.41, 45 38.06 S 48.76 39.87, 50 39.03 S 53.56 31.71, 55 31.29 S 58.56 35.71, 60 36.13 S 63.5 34.19, 65 34.19 S 68.65 35.48, 70 36.13 S 73.51 38.89, 75 39.03 S 78.5 37.1, 80 37.1 S 83.53 38.75, 85 39.03 S 88.5 39.03, 90 39.03 S 93.5 39.03, 95 39.03 S 98.5 39.03, 100 39.03 S 103.5 39.03, 105 39.03 S 108.5 39.03, 110 39.03 S 113.5 39.03, 115 39.03 S 118.5 39.03, 120 39.03 S 123.5 39.03, 125 39.03 S 128.5 39.03, 130 39.03 S 133.5 39.03, 135 39.03 S 138.5 39.03, 140 39.03 S 143.5 39.03, 145 39.03 S 148.5 39.03, 150 39.03 S 153.5 39.03, 155 39.03 S 158.5 39.03, 160 39.03"
          fill="none"/>
    <circle r="4" cx="5" cy="40" fill="#3023AE"/>
    <circle r="4" cx="160" cy="39.03" fill="#C86DD7"/>      
</svg>