<svg width="200" height="50" viewBox="0 0 210 50" xmlns="http://www.w3.org/2000/svg">
    <defs>
        <linearGradient x1="0%" y1="0%" x2="100%" y2="0%" id="a">
            <stop stop-color="#3023AE" offset="0%"/>
            <stop stop-color="#C86DD7" offset="100%"/>
        </linearGradient>
    </defs>
    <path stroke="url(#a)"
          stroke-width="3"
          stroke-linejoin="round"
          stroke-linecap="round"
          d="M5 40 C 5.29 38.53, 9.14 16.03, 10 14.8 S 13.51 25.78, 15 25.6 S 18.98 14.7, 20 13.6 S 24.09 13.6, 25 14.8 S 28.5 26.8, 30 26.8 S 33.59 15.31, 35 14.8 S 38.51 23.02, 40 23.2 S 43.59 16.51, 45 16 S 48.54 19.95, 50 19.6 S 53.92 14.64, 55 13.6 S 58.85 9.04, 60 10 S 64.34 20.65, 65 22 S 68.51 30.22, 70 30.4 S 73.92 24.24, 75 23.2 S 78.51 20.98, 80 20.8 S 83.59 22.51, 85 22 S 88.92 16.16, 90 17.2 S 94.31 30.27, 95 31.6 S 98.5 36.4, 100 36.4 S 103.54 31.95, 105 31.6 S 108.85 34.96, 110 34 S 113.51 23.38, 115 23.2 S 118.92 31.76, 120 32.8 S 123.65 32.15, 125 32.8 S 128.54 37.25, 130 37.6 S 133.51 35.38, 135 35.2 S 138.51 36.22, 140 36.4 S 143.5 36.4, 145 36.4 S 148.54 36.05, 150 36.4 S 153.51 38.62, 155 38.8 S 158.59 38.11, 160 37.6 S 163.51 35.02, 165 35.2 S 168.59 38.29, 170 38.8 S 173.59 39.31, 175 38.8 S 178.54 35.55, 180 35.2 S 183.5 36.4, 185 36.4 S 188.51 35.02, 190 35.2 S 193.51 37.42, 195 37.6 S 198.59 36.91, 200 36.4 S 203.65 34.65, 205 34"
          fill="none"/>
    <circle r="4" cx="5" cy="40" fill="#3023AE"/>
    <circle r="4" cx="205" cy="34" fill="#C86DD7"/>      
</svg>