<svg width="200" height="50" viewBox="0 0 210 50" xmlns="http://www.w3.org/2000/svg">
    <defs>
        <linearGradient x1="0%" y1="0%" x2="100%" y2="0%" id="a">
            <stop stop-color="#3023AE" offset="0%"/>
            <stop stop-color="#C86DD7" offset="100%"/>
        </linearGradient>
    </defs>
    <path stroke="url(#a)"
          stroke-width="3"
          stroke-linejoin="round"
          stroke-linecap="round"
          d="M5 40 C 6.47 39.71, 9.53 40.44, 10 39.02 S 13.51 10.2, 15 10 S 19.47 36.25, 20 37.65 S 23.52 36.26, 25 36.49 S 28.57 38.72, 30 39.17 S 33.5 39.59, 35 39.65 S 38.5 39.58, 40 39.6 S 43.5 39.76, 45 39.8 S 48.5 39.85, 50 39.85 S 53.5 39.83, 55 39.82 S 58.5 39.77, 60 39.77 S 63.5 39.82, 65 39.84 S 68.5 39.91, 70 39.9 S 73.5 39.76, 75 39.75 S 78.5 39.8, 80 39.81 S 83.5 39.85, 85 39.85 S 88.5 39.83, 90 39.82 S 93.5 39.81, 95 39.81 S 98.5 39.83, 100 39.83 S 103.5 39.84, 105 39.83 S 108.5 39.72, 110 39.73 S 113.5 39.88, 115 39.89 S 118.5 39.84, 120 39.82 S 123.5 39.76, 125 39.73 S 128.5 39.64, 130 39.64 S 133.5 39.74, 135 39.76 S 138.5 39.78, 140 39.78 S 143.5 39.79, 145 39.78 S 148.5 39.72, 150 39.72 S 153.5 39.76, 155 39.77 S 158.5 39.79, 160 39.79 S 163.5 39.76, 165 39.76 S 168.51 39.97, 170 39.8 S 173.5 38.67, 175 38.64 S 178.51 39.44, 180 39.6 S 183.5 39.69, 185 39.73 S 188.5 39.85, 190 39.86 S 193.5 39.87, 195 39.8 S 198.5 39.37, 200 39.37 S 203.51 39.66, 205 39.79"
          fill="none"/>
    <circle r="4" cx="5" cy="40" fill="#3023AE"/>
    <circle r="4" cx="205" cy="39.79" fill="#C86DD7"/>      
</svg>