<svg width="200" height="50" viewBox="0 0 210 50" xmlns="http://www.w3.org/2000/svg">
    <defs>
        <linearGradient x1="0%" y1="0%" x2="100%" y2="0%" id="a">
            <stop stop-color="#3023AE" offset="0%"/>
            <stop stop-color="#C86DD7" offset="100%"/>
        </linearGradient>
    </defs>
    <path stroke="url(#a)"
          stroke-width="3"
          stroke-linejoin="round"
          stroke-linecap="round"
          d="M5 40 C 6.5 39.99, 8.5 39.98, 10 39.96 S 13.5 39.9, 15 39.89 S 18.5 39.92, 20 39.91 S 23.5 39.83, 25 39.84 S 28.5 40, 30 39.95 S 33.51 39.68, 35 39.5 S 38.5 38.84, 40 38.77 S 43.51 39.15, 45 39.02 S 48.5 37.94, 50 37.88 S 53.5 38.54, 55 38.65 S 59.51 40.05, 60 38.63 S 63.58 10.47, 65 10 S 69.49 33.9, 70 35.31 S 73.56 36.99, 75 37.4 S 78.5 38.21, 80 38.18 S 83.5 37.29, 85 37.19 S 88.5 37.44, 90 37.52 S 93.5 37.83, 95 37.72 S 98.5 36.91, 100 36.79 S 103.52 37.19, 105 36.95 S 108.53 35.46, 110 35.17 S 113.5 34.96, 115 34.99 S 118.51 35.55, 120 35.37 S 123.53 34.07, 125 33.78 S 128.51 33.55, 130 33.41 S 133.51 33.01, 135 32.82 S 138.5 32.02, 140 32.11 S 143.53 33.11, 145 33.39 S 148.58 34.52, 150 34.03 S 153.67 30.66, 155 29.97 S 158.57 29.3, 160 28.85 S 163.54 26.47, 165 26.8 S 168.61 30.53, 170 31.09 S 173.57 31.23, 175 30.79 S 178.5 28.03, 180 27.99 S 183.51 30.37, 185 30.5 S 188.51 29.06, 190 28.85 S 193.51 29.29, 195 29.08 S 198.6 27.97, 200 27.44 S 203.62 25.89, 205 25.3"
          fill="none"/>
    <circle r="4" cx="5" cy="40" fill="#3023AE"/>
    <circle r="4" cx="205" cy="25.3" fill="#C86DD7"/>      
</svg>