<svg width="200" height="50" viewBox="0 0 210 50" xmlns="http://www.w3.org/2000/svg">
    <defs>
        <linearGradient x1="0%" y1="0%" x2="100%" y2="0%" id="a">
            <stop stop-color="#3023AE" offset="0%"/>
            <stop stop-color="#C86DD7" offset="100%"/>
        </linearGradient>
    </defs>
    <path stroke="url(#a)"
          stroke-width="3"
          stroke-linejoin="round"
          stroke-linecap="round"
          d="M5 40 C 5.85 38.76, 8.51 32.85, 10 32.7 S 13.58 38.53, 15 39.01 S 19.15 37.29, 20 36.05 S 23.5 24.32, 25 24.41 S 28.77 35.79, 30 36.64 S 34.47 32.72, 35 31.32 S 38.5 10.03, 40 10 S 44.33 29.78, 45 31.12 S 48.51 29.75, 50 29.93 S 53.5 32.27, 55 32.3 S 59.15 31.37, 60 30.13 S 63.78 18.57, 65 17.7 S 69.04 21.88, 70 23.03 S 73.7 29, 75 29.74 S 78.53 29.07, 80 28.75 S 83.53 27.89, 85 27.57 S 88.51 26.76, 90 26.58 S 93.6 25.83, 95 26.38 S 98.55 30.16, 100 30.53 S 103.53 29.24, 105 28.95 S 108.63 29.17, 110 28.55 S 113.57 24.86, 115 24.41 S 118.68 24.68, 120 25.39 S 123.71 28.97, 125 29.74 S 128.5 31.32, 130 31.32 S 133.77 30.59, 135 29.74 S 138.61 24.98, 140 24.41 S 143.63 24.97, 145 25.59 S 148.5 28.89, 150 28.95 S 153.87 26.97, 155 25.99 S 158.53 19.94, 160 20.26 S 163.5 28.19, 165 28.16 S 168.55 19.67, 170 20.07 S 173.92 29.88, 175 30.92 S 178.57 30.19, 180 29.74 S 183.56 28.19, 185 27.76 S 188.51 26.96, 190 26.78 S 193.75 27.42, 195 26.58 S 198.5 19.98, 200 20.07 S 204.14 25.94, 205 27.17"
          fill="none"/>
    <circle r="4" cx="5" cy="40" fill="#3023AE"/>
    <circle r="4" cx="205" cy="27.17" fill="#C86DD7"/>      
</svg>