<svg width="200" height="50" viewBox="0 0 210 50" xmlns="http://www.w3.org/2000/svg">
    <defs>
        <linearGradient x1="0%" y1="0%" x2="100%" y2="0%" id="a">
            <stop stop-color="#3023AE" offset="0%"/>
            <stop stop-color="#C86DD7" offset="100%"/>
        </linearGradient>
    </defs>
    <path stroke="url(#a)"
          stroke-width="3"
          stroke-linejoin="round"
          stroke-linecap="round"
          d="M5 40 C 5.25 38.52, 8.51 10.17, 10 10 S 14.51 37.43, 15 38.85 S 18.5 38.85, 20 38.85 S 23.5 38.85, 25 38.85 S 28.5 38.85, 30 38.85 S 33.5 38.85, 35 38.85 S 38.5 38.85, 40 38.85 S 43.5 38.85, 45 38.85 S 48.54 39.19, 50 38.85 S 53.51 36.71, 55 36.54 S 58.51 37.52, 60 37.69 S 63.54 38.03, 65 37.69 S 68.51 35.55, 70 35.38 S 74.32 37.88, 75 36.54 S 78.64 16.4, 80 15.77 S 84.21 30.64, 85 31.92 S 88.64 32.55, 90 31.92 S 93.51 27.14, 95 27.31 S 98.7 33.83, 100 33.08 S 103.7 22.29, 105 21.54 S 108.83 26.37, 110 27.31 S 113.5 29.62, 115 29.62 S 118.54 27.65, 120 27.31 S 123.51 27.14, 125 27.31 S 128.83 27.52, 130 28.46 S 133.5 35.38, 135 35.38 S 138.64 29.09, 140 28.46 S 143.83 29.83, 145 30.77 S 148.64 35.91, 150 36.54 S 153.64 36.01, 155 35.38 S 158.51 32.09, 160 31.92 S 163.7 34.98, 165 34.23 S 168.51 26.32, 170 26.15 S 173.51 33.25, 175 33.08 S 178.5 25, 180 25 S 183.64 32.45, 185 33.08 S 188.5 29.62, 190 29.62 S 193.51 33.25, 195 33.08 S 199.02 29.59, 200 28.46 S 204.12 22.76, 205 21.54"
          fill="none"/>
    <circle r="4" cx="5" cy="40" fill="#3023AE"/>
    <circle r="4" cx="205" cy="21.54" fill="#C86DD7"/>      
</svg>