<svg width="200" height="50" viewBox="0 0 210 50" xmlns="http://www.w3.org/2000/svg">
    <defs>
        <linearGradient x1="0%" y1="0%" x2="100%" y2="0%" id="a">
            <stop stop-color="#3023AE" offset="0%"/>
            <stop stop-color="#C86DD7" offset="100%"/>
        </linearGradient>
    </defs>
    <path stroke="url(#a)"
          stroke-width="3"
          stroke-linejoin="round"
          stroke-linecap="round"
          d="M5 40 C 5.25 38.52, 8.51 10.19, 10 10 S 14.51 37.33, 15 38.75 S 18.5 38.75, 20 38.75 S 23.5 38.75, 25 38.75 S 28.5 38.75, 30 38.75 S 33.51 38.94, 35 38.75 S 38.6 38.03, 40 37.5 S 43.5 35, 45 35 S 48.54 37.14, 50 37.5 S 53.66 38.17, 55 37.5 S 59.36 33.86, 60 32.5 S 63.54 16.61, 65 16.25 S 69.12 28.79, 70 30 S 73.8 30.9, 75 30 S 78.5 22.5, 80 22.5 S 83.66 30.67, 85 30 S 88.66 18.17, 90 17.5 S 93.66 24.33, 95 25 S 98.51 22.69, 100 22.5 S 103.8 22.85, 105 23.75 S 108.66 29.33, 110 30 S 113.6 29.28, 115 28.75 S 118.8 25.35, 120 26.25 S 123.51 36.06, 125 36.25 S 128.51 27.31, 130 27.5 S 133.6 38.03, 135 37.5 S 138.87 24.74, 140 23.75 S 143.51 28.94, 145 28.75 S 148.54 22.14, 150 22.5 S 153.54 30.89, 155 31.25 S 158.6 25.53, 160 25 S 163.87 28.49, 165 27.5 S 168.54 15.89, 170 16.25 S 174.17 28.75, 175 30 S 178.54 31.61, 180 31.25 S 183.66 28.17, 185 27.5 S 188.8 25.35, 190 26.25 S 193.54 34.64, 195 35 S 199 29.87, 200 28.75 S 203.94 24.81, 205 23.75"
          fill="none"/>
    <circle r="4" cx="5" cy="40" fill="#3023AE"/>
    <circle r="4" cx="205" cy="23.75" fill="#C86DD7"/>      
</svg>