<svg width="200" height="50" viewBox="0 0 210 50" xmlns="http://www.w3.org/2000/svg">
    <defs>
        <linearGradient x1="0%" y1="0%" x2="100%" y2="0%" id="a">
            <stop stop-color="#3023AE" offset="0%"/>
            <stop stop-color="#C86DD7" offset="100%"/>
        </linearGradient>
    </defs>
    <path stroke="url(#a)"
          stroke-width="3"
          stroke-linejoin="round"
          stroke-linecap="round"
          d="M5 40 C 5.25 38.52, 8.51 10.19, 10 10 S 14.51 37.33, 15 38.75 S 18.5 38.75, 20 38.75 S 23.5 38.75, 25 38.75 S 28.5 38.75, 30 38.75 S 33.51 38.94, 35 38.75 S 38.6 38.03, 40 37.5 S 43.5 35, 45 35 S 48.54 37.14, 50 37.5 S 53.66 38.17, 55 37.5 S 59.36 33.86, 60 32.5 S 63.51 16.44, 65 16.25 S 69.06 30.08, 70 31.25 S 73.87 29.74, 75 28.75 S 78.51 22.31, 80 22.5 S 83.66 30.67, 85 30 S 88.6 18.03, 90 17.5 S 93.73 25.46, 95 26.25 S 98.54 24.11, 100 23.75 S 103.6 23.22, 105 23.75 S 108.73 26.71, 110 27.5 S 113.51 30.19, 115 30 S 118.66 25.58, 120 26.25 S 123.54 34.64, 125 35 S 128.54 28.39, 130 28.75 S 133.73 38.29, 135 37.5 S 138.87 23.49, 140 22.5 S 143.5 28.75, 145 28.75 S 148.54 22.14, 150 22.5 S 153.6 30.72, 155 31.25 S 158.6 26.78, 160 26.25 S 164 28.62, 165 27.5 S 168.6 14.47, 170 15 S 174.17 30, 175 31.25 S 178.54 30.36, 180 30 S 183.6 29.28, 185 28.75 S 188.73 25.46, 190 26.25 S 193.51 34.81, 195 35 S 198.73 28.29, 200 27.5 S 203.54 28.39, 205 28.75"
          fill="none"/>
    <circle r="4" cx="5" cy="40" fill="#3023AE"/>
    <circle r="4" cx="205" cy="28.75" fill="#C86DD7"/>      
</svg>