<svg width="200" height="50" viewBox="0 0 210 50" xmlns="http://www.w3.org/2000/svg">
    <defs>
        <linearGradient x1="0%" y1="0%" x2="100%" y2="0%" id="a">
            <stop stop-color="#3023AE" offset="0%"/>
            <stop stop-color="#C86DD7" offset="100%"/>
        </linearGradient>
    </defs>
    <path stroke="url(#a)"
          stroke-width="3"
          stroke-linejoin="round"
          stroke-linecap="round"
          d="M5 40 C 6.17 39.06, 8.5 36.03, 10 35.95 S 13.6 38.95, 15 39.49 S 18.5 39.78, 20 39.81 S 23.5 39.74, 25 39.68 S 28.54 39.79, 30 39.43 S 33.5 37.29, 35 37.22 S 38.53 38.68, 40 38.99 S 43.5 39.24, 45 39.3 S 48.5 39.36, 50 39.37 S 53.5 39.38, 55 39.37 S 58.5 39.28, 60 39.3 S 63.61 40.05, 65 39.49 S 68.51 35.37, 70 35.25 S 73.59 38.16, 75 38.67 S 78.5 38.78, 80 38.86 S 83.5 39.21, 85 39.18 S 88.5 38.68, 90 38.67 S 93.5 39.08, 95 39.11 S 98.5 38.86, 100 38.86 S 103.5 39.02, 105 39.11 S 108.5 39.42, 110 39.43 S 113.51 39.33, 115 39.18 S 119.51 39.84, 120 38.42 S 123.51 10.15, 125 10 S 129.5 35.99, 130 37.41 S 133.51 38.33, 135 38.48 S 138.5 38.33, 140 38.42 S 143.5 38.99, 145 39.05 S 148.52 39.03, 150 38.8 S 153.5 37.45, 155 37.47 S 158.51 38.72, 160 38.92 S 163.51 38.93, 165 38.8 S 168.5 38.08, 170 38.04 S 173.71 39.31, 175 38.54 S 178.53 32.32, 180 32.03 S 183.69 35.86, 185 36.58 S 188.75 38.35, 190 37.53 S 193.52 30.27, 195 30 S 198.7 34.95, 200 35.7 S 203.5 35.78, 205 35.82"
          fill="none"/>
    <circle r="4" cx="5" cy="40" fill="#3023AE"/>
    <circle r="4" cx="205" cy="35.82" fill="#C86DD7"/>      
</svg>