<svg width="200" height="50" viewBox="0 0 210 50" xmlns="http://www.w3.org/2000/svg">
    <defs>
        <linearGradient x1="0%" y1="0%" x2="100%" y2="0%" id="a">
            <stop stop-color="#3023AE" offset="0%"/>
            <stop stop-color="#C86DD7" offset="100%"/>
        </linearGradient>
    </defs>
    <path stroke="url(#a)"
          stroke-width="3"
          stroke-linejoin="round"
          stroke-linecap="round"
          d="M5 40 C 5.36 38.54, 8.66 20.67, 10 20 S 14.17 33.75, 15 35 S 18.5 35, 20 35 S 23.5 35, 25 35 S 28.5 35, 30 35 S 33.5 35, 35 35 S 38.5 35, 40 35 S 43.94 36.06, 45 35 S 48.66 25.67, 50 25 S 53.66 29.33, 55 30 S 58.94 31.06, 60 30 S 63.66 19.33, 65 20 S 69.17 33.75, 70 35 S 73.5 35, 75 35 S 78.66 35.67, 80 35 S 83.5 30, 85 30 S 88.66 34.33, 90 35 S 93.5 35, 95 35 S 98.66 35.67, 100 35 S 103.5 30, 105 30 S 108.66 34.33, 110 35 S 113.5 35, 115 35 S 118.66 35.67, 120 35 S 123.66 30.67, 125 30 S 128.94 31.06, 130 30 S 133.5 20, 135 20 S 138.5 30, 140 30 S 143.66 20.67, 145 20 S 148.94 26.06, 150 25 S 153.5 10, 155 10 S 159.44 23.61, 160 25 S 163.94 36.06, 165 35 S 168.66 15.67, 170 15 S 173.66 30.67, 175 30 S 178.66 9.33, 180 10 S 184.17 33.75, 185 35 S 188.5 25, 190 25 S 193.94 33.94, 195 35 S 198.5 35, 200 35 S 203.5 35, 205 35"
          fill="none"/>
    <circle r="4" cx="5" cy="40" fill="#3023AE"/>
    <circle r="4" cx="205" cy="35" fill="#C86DD7"/>      
</svg>