<svg width="200" height="50" viewBox="0 0 210 50" xmlns="http://www.w3.org/2000/svg">
    <defs>
        <linearGradient x1="0%" y1="0%" x2="100%" y2="0%" id="a">
            <stop stop-color="#3023AE" offset="0%"/>
            <stop stop-color="#C86DD7" offset="100%"/>
        </linearGradient>
    </defs>
    <path stroke="url(#a)"
          stroke-width="3"
          stroke-linejoin="round"
          stroke-linecap="round"
          d="M5 40 C 5.27 38.53, 9.17 14.25, 10 13 S 13.56 25.43, 15 25 S 18.56 10.43, 20 10 S 24.04 20.85, 25 22 S 29.04 20.85, 30 22 S 34.04 32.85, 35 34 S 38.71 34.77, 40 34 S 44.04 29.15, 45 28 S 49.04 23.15, 50 22 S 53.56 15.57, 55 16 S 59.04 23.85, 60 25 S 63.56 28.43, 65 28 S 68.89 23, 70 22 S 73.89 18, 75 19 S 79.17 29.75, 80 31 S 83.71 33.23, 85 34 S 88.89 38, 90 37 S 93.5 25, 95 25 S 99.04 35.85, 100 37 S 103.5 37, 105 37 S 109.17 38.25, 110 37 S 113.5 22, 115 22 S 119.04 35.85, 120 37 S 123.5 34, 125 34 S 128.56 36.57, 130 37 S 133.5 37, 135 37 S 138.56 37.43, 140 37 S 143.5 34, 145 34 S 148.56 36.57, 150 37 S 153.89 38, 155 37 S 158.5 28, 160 28 S 163.89 36, 165 37 S 168.56 37.43, 170 37 S 173.89 35, 175 34 S 178.5 28, 180 28 S 183.89 33, 185 34 S 188.56 36.57, 190 37 S 193.5 37, 195 37 S 198.5 37, 200 37 S 203.5 37, 205 37"
          fill="none"/>
    <circle r="4" cx="5" cy="40" fill="#3023AE"/>
    <circle r="4" cx="205" cy="37" fill="#C86DD7"/>      
</svg>