<svg width="200" height="50" viewBox="0 0 210 50" xmlns="http://www.w3.org/2000/svg">
    <defs>
        <linearGradient x1="0%" y1="0%" x2="100%" y2="0%" id="a">
            <stop stop-color="#3023AE" offset="0%"/>
            <stop stop-color="#C86DD7" offset="100%"/>
        </linearGradient>
    </defs>
    <path stroke="url(#a)"
          stroke-width="3"
          stroke-linejoin="round"
          stroke-linecap="round"
          d="M5 40 C 5.25 38.52, 8.54 10.34, 10 10 S 14.49 36.28, 15 37.69 S 18.5 37.69, 20 37.69 S 23.77 38.54, 25 37.69 S 28.5 30.77, 30 30.77 S 33.64 37.06, 35 37.69 S 38.5 35.38, 40 35.38 S 43.5 37.69, 45 37.69 S 48.5 35.38, 50 35.38 S 53.54 37.35, 55 37.69 S 58.77 38.54, 60 37.69 S 63.5 30.77, 65 30.77 S 68.54 38.03, 70 37.69 S 73.5 28.46, 75 28.46 S 78.9 36.67, 80 37.69 S 83.54 38.03, 85 37.69 S 88.54 35.72, 90 35.38 S 93.54 35.04, 95 35.38 S 98.5 37.69, 100 37.69 S 103.64 36.01, 105 35.38 S 109.02 34.21, 110 33.08 S 113.54 24.19, 115 23.85 S 119.12 29.55, 120 30.77 S 123.5 37.69, 125 37.69 S 128.54 31.11, 130 30.77 S 133.64 34.75, 135 35.38 S 138.54 35.04, 140 35.38 S 143.54 37.35, 145 37.69 S 148.5 37.69, 150 37.69 S 153.5 37.69, 155 37.69 S 158.5 37.69, 160 37.69 S 163.5 37.69, 165 37.69 S 168.64 38.32, 170 37.69 S 173.54 33.42, 175 33.08 S 178.54 35.04, 180 35.38 S 183.9 36.4, 185 35.38 S 188.54 26.49, 190 26.15 S 193.77 32.23, 195 33.08 S 198.5 33.08, 200 33.08 S 203.5 33.08, 205 33.08"
          fill="none"/>
    <circle r="4" cx="5" cy="40" fill="#3023AE"/>
    <circle r="4" cx="205" cy="33.08" fill="#C86DD7"/>      
</svg>