<svg width="200" height="50" viewBox="0 0 210 50" xmlns="http://www.w3.org/2000/svg">
    <defs>
        <linearGradient x1="0%" y1="0%" x2="100%" y2="0%" id="a">
            <stop stop-color="#3023AE" offset="0%"/>
            <stop stop-color="#C86DD7" offset="100%"/>
        </linearGradient>
    </defs>
    <path stroke="url(#a)"
          stroke-width="3"
          stroke-linejoin="round"
          stroke-linecap="round"
          d="M5 40 C 6.38 39.41, 8.51 38.02, 10 37.86 S 13.51 38.77, 15 38.93 S 18.57 39.39, 20 38.93 S 23.68 36.42, 25 35.71 S 28.51 33.41, 30 33.57 S 33.62 36.2, 35 36.79 S 38.53 37.55, 40 37.86 S 43.53 39.25, 45 38.93 S 48.51 35.87, 50 35.71 S 53.5 37.86, 55 37.86 S 58.57 36.17, 60 35.71 S 63.53 34.95, 65 34.64 S 68.62 32.98, 70 33.57 S 73.51 39.09, 75 38.93 S 78.68 33.21, 80 32.5 S 83.62 34.16, 85 33.57 S 88.53 27.9, 90 28.21 S 93.53 35.39, 95 35.71 S 98.68 31.07, 100 30.36 S 103.53 30.68, 105 30.36 S 108.68 28.92, 110 28.21 S 113.57 25.46, 115 25 S 118.53 25.31, 120 25 S 123.51 22.7, 125 22.86 S 128.57 25.61, 130 26.07 S 133.8 26.97, 135 26.07 S 138.51 18.73, 140 18.57 S 143.57 24.54, 145 25 S 148.53 21.48, 150 21.79 S 153.68 26.43, 155 27.14 S 158.53 27.45, 160 27.14 S 163.51 25.16, 165 25 S 168.57 25.61, 170 26.07 S 174.21 29.48, 175 28.21 S 178.62 10.59, 180 10 S 184.03 22.79, 185 23.93 S 188.51 21.95, 190 21.79 S 193.51 23.02, 195 22.86 S 198.5 20.71, 200 20.71 S 203.62 22.27, 205 22.86"
          fill="none"/>
    <circle r="4" cx="5" cy="40" fill="#3023AE"/>
    <circle r="4" cx="205" cy="22.86" fill="#C86DD7"/>      
</svg>