<svg width="200" height="50" viewBox="0 0 210 50" xmlns="http://www.w3.org/2000/svg">
    <defs>
        <linearGradient x1="0%" y1="0%" x2="100%" y2="0%" id="a">
            <stop stop-color="#3023AE" offset="0%"/>
            <stop stop-color="#C86DD7" offset="100%"/>
        </linearGradient>
    </defs>
    <path stroke="url(#a)"
          stroke-width="3"
          stroke-linejoin="round"
          stroke-linecap="round"
          d="M5 40 C 6.48 39.78, 8.5 39.26, 10 39.25 S 13.5 39.81, 15 39.91 S 18.5 39.91, 20 39.91 S 23.5 39.91, 25 39.91 S 28.5 39.91, 30 39.91 S 34.52 41.33, 35 39.91 S 38.92 11.05, 40 10 S 44.51 28.77, 45 30.19 S 48.88 38.16, 50 39.16 S 53.73 39.87, 55 39.07 S 58.51 33.03, 60 32.9 S 63.74 37.41, 65 38.22 S 68.5 39.24, 70 39.35 S 73.51 39.12, 75 38.97 S 78.5 38.29, 80 38.32 S 83.5 39.24, 85 39.16 S 88.52 37.98, 90 37.76 S 93.51 37.48, 95 37.66 S 98.51 38.78, 100 38.97 S 103.51 39.1, 105 38.97 S 108.51 38.26, 110 38.13 S 113.51 37.98, 115 38.13 S 118.5 39.06, 120 39.16 S 123.5 38.9, 125 38.79 S 128.5 38.5, 130 38.41 S 133.5 38.14, 135 38.22 S 138.5 38.9, 140 38.97 S 143.5 38.65, 145 38.69 S 148.54 39.59, 150 39.25 S 153.72 37.15, 155 36.36 S 158.51 32.91, 160 33.08 S 163.64 36.84, 165 37.48 S 168.5 37.83, 170 37.76 S 173.66 37.69, 175 37.01 S 178.86 33.68, 180 32.71 S 183.6 27.95, 185 28.5 S 188.84 35.69, 190 36.64 S 193.5 36.8, 195 36.73 S 198.51 35.99, 200 36.17 S 203.59 37.44, 205 37.94"
          fill="none"/>
    <circle r="4" cx="5" cy="40" fill="#3023AE"/>
    <circle r="4" cx="205" cy="37.94" fill="#C86DD7"/>      
</svg>