<svg width="200" height="50" viewBox="0 0 210 50" xmlns="http://www.w3.org/2000/svg">
    <defs>
        <linearGradient x1="0%" y1="0%" x2="100%" y2="0%" id="a">
            <stop stop-color="#3023AE" offset="0%"/>
            <stop stop-color="#C86DD7" offset="100%"/>
        </linearGradient>
    </defs>
    <path stroke="url(#a)"
          stroke-width="3"
          stroke-linejoin="round"
          stroke-linecap="round"
          d="M5 40 C 5.25 38.52, 8.95 11.07, 10 10 S 14.48 28.33, 15 29.74 S 18.85 36.28, 20 37.24 S 23.5 37.97, 25 38.03 S 28.5 37.63, 30 37.63 S 33.53 37.74, 35 38.03 S 38.5 39.49, 40 39.61 S 43.52 39.05, 45 38.82 S 48.5 38.03, 50 38.03 S 53.52 39.05, 55 38.82 S 58.51 36.63, 60 36.45 S 63.55 37.23, 65 37.63 S 68.53 38.92, 70 39.21 S 73.5 39.55, 75 39.61 S 78.51 39.79, 80 39.61 S 83.5 38.48, 85 38.42 S 88.5 39.21, 90 39.21 S 93.5 38.42, 95 38.42 S 98.51 39.03, 100 39.21 S 103.5 39.55, 105 39.61 S 108.5 39.61, 110 39.61 S 113.5 39.61, 115 39.61 S 118.5 39.61, 120 39.61 S 123.53 39.9, 125 39.61 S 128.5 37.63, 130 37.63 S 133.52 39.38, 135 39.61 S 138.53 39.5, 140 39.21 S 143.5 37.57, 145 37.63 S 148.51 39.43, 150 39.61 S 153.5 38.94, 155 38.82 S 158.5 38.94, 160 38.82 S 163.5 37.97, 165 38.03 S 168.5 39.15, 170 39.21 S 173.5 38.48, 175 38.42 S 178.51 38.64, 180 38.82 S 183.52 39.84, 185 39.61 S 188.5 37.24, 190 37.24 S 193.5 39.67, 195 39.61 S 198.5 36.96, 200 36.84 S 203.61 38.27, 205 38.82"
          fill="none"/>
    <circle r="4" cx="5" cy="40" fill="#3023AE"/>
    <circle r="4" cx="205" cy="38.82" fill="#C86DD7"/>      
</svg>