<svg width="200" height="50" viewBox="0 0 210 50" xmlns="http://www.w3.org/2000/svg">
    <defs>
        <linearGradient x1="0%" y1="0%" x2="100%" y2="0%" id="a">
            <stop stop-color="#3023AE" offset="0%"/>
            <stop stop-color="#C86DD7" offset="100%"/>
        </linearGradient>
    </defs>
    <path stroke="url(#a)"
          stroke-width="3"
          stroke-linejoin="round"
          stroke-linecap="round"
          d="M5 40 C 5.25 38.52, 8.65 10.66, 10 10 S 14.43 33.71, 15 35.1 S 18.5 34.46, 20 34.5 S 23.53 35.09, 25 35.4 S 28.51 36.49, 30 36.61 S 33.5 36.14, 35 36.23 S 38.5 37.11, 40 37.21 S 43.5 36.93, 45 36.91 S 48.51 37.19, 50 37.06 S 53.5 35.99, 55 36.01 S 58.59 37.72, 60 37.21 S 63.51 32.59, 65 32.39 S 68.6 35.3, 70 35.85 S 73.52 36.1, 75 36.31 S 78.5 37.35, 80 37.29 S 83.5 35.95, 85 35.93 S 88.52 36.87, 90 37.14 S 93.51 37.62, 95 37.74 S 98.5 37.96, 100 37.96 S 103.5 37.83, 105 37.74 S 108.51 37.51, 110 37.36 S 113.5 36.84, 115 36.76 S 118.51 36.99, 120 36.83 S 123.52 35.94, 125 35.7 S 128.5 35.2, 130 35.18 S 133.5 35.45, 135 35.55 S 138.5 35.75, 140 35.85 S 143.5 36.3, 145 36.23 S 148.51 35.22, 150 35.4 S 153.57 36.99, 155 37.44 S 158.5 38.57, 160 38.57 S 163.5 37.51, 165 37.44 S 168.51 37.97, 170 38.12 S 173.51 38.57, 175 38.42 S 178.51 37.29, 180 37.14 S 183.5 37.35, 185 37.44 S 188.5 37.65, 190 37.74 S 193.5 38, 195 38.04 S 198.5 38.11, 200 38.04 S 203.51 37.72, 205 37.59"
          fill="none"/>
    <circle r="4" cx="5" cy="40" fill="#3023AE"/>
    <circle r="4" cx="205" cy="37.59" fill="#C86DD7"/>      
</svg>