<svg width="200" height="50" viewBox="0 0 210 50" xmlns="http://www.w3.org/2000/svg">
    <defs>
        <linearGradient x1="0%" y1="0%" x2="100%" y2="0%" id="a">
            <stop stop-color="#3023AE" offset="0%"/>
            <stop stop-color="#C86DD7" offset="100%"/>
        </linearGradient>
    </defs>
    <path stroke="url(#a)"
          stroke-width="3"
          stroke-linejoin="round"
          stroke-linecap="round"
          d="M5 40 C 6.06 38.94, 8.51 35.15, 10 35 S 13.61 38.44, 15 39 S 18.5 39, 20 39 S 23.5 39, 25 39 S 28.5 39, 30 39 S 33.5 39, 35 39 S 38.66 39.67, 40 39 S 43.77 34.86, 45 34 S 48.56 31.57, 50 32 S 53.53 36.71, 55 37 S 58.5 34, 60 34 S 63.53 37.29, 65 37 S 68.56 32.43, 70 32 S 73.71 33.23, 75 34 S 78.56 37.57, 80 38 S 83.56 37.43, 85 37 S 88.66 35.67, 90 35 S 93.5 32, 95 32 S 98.51 34.85, 100 35 S 103.51 32.85, 105 33 S 108.66 36.67, 110 36 S 113.71 28.77, 115 28 S 118.83 29.06, 120 30 S 124.33 37.34, 125 36 S 128.71 10.77, 130 10 S 134.42 28.62, 135 30 S 138.5 34, 140 34 S 143.53 29.71, 145 30 S 148.71 35.23, 150 36 S 153.51 35.85, 155 36 S 158.5 37, 160 37 S 163.5 36, 165 36 S 168.51 37.15, 170 37 S 173.5 35, 175 35 S 178.61 37.56, 180 37 S 183.53 30.71, 185 31 S 188.61 38.44, 190 39 S 193.61 35.56, 195 35 S 198.61 34.44, 200 35 S 203.83 38.06, 205 39"
          fill="none"/>
    <circle r="4" cx="5" cy="40" fill="#3023AE"/>
    <circle r="4" cx="205" cy="39" fill="#C86DD7"/>      
</svg>