<svg width="200" height="50" viewBox="0 0 210 50" xmlns="http://www.w3.org/2000/svg">
    <defs>
        <linearGradient x1="0%" y1="0%" x2="100%" y2="0%" id="a">
            <stop stop-color="#3023AE" offset="0%"/>
            <stop stop-color="#C86DD7" offset="100%"/>
        </linearGradient>
    </defs>
    <path stroke="url(#a)"
          stroke-width="3"
          stroke-linejoin="round"
          stroke-linecap="round"
          d="M5 40 C 6.5 39.9, 8.5 39.71, 10 39.66 S 13.5 39.66, 15 39.66 S 18.5 39.66, 20 39.66 S 23.5 39.66, 25 39.66 S 28.5 39.66, 30 39.66 S 33.5 39.66, 35 39.66 S 38.5 39.66, 40 39.66 S 43.5 39.66, 45 39.66 S 48.5 39.66, 50 39.66 S 53.5 39.66, 55 39.66 S 58.5 39.66, 60 39.66 S 64.38 41.02, 65 39.66 S 68.7 18.59, 70 17.84 S 73.82 34.79, 75 33.86 S 78.72 10.78, 80 10 S 84.36 26.37, 85 27.73 S 88.91 30.1, 90 31.14 S 93.5 37.17, 95 37.27 S 98.54 31.47, 100 31.82 S 103.82 38.73, 105 39.66 S 108.5 39.71, 110 39.66 S 113.5 39.42, 115 39.32 S 118.5 39.03, 120 38.98 S 123.5 38.88, 125 38.98 S 128.5 39.61, 130 39.66 S 133.5 39.32, 135 39.32 S 138.5 39.61, 140 39.66 S 143.5 39.66, 145 39.66 S 148.5 39.66, 150 39.66 S 153.5 39.66, 155 39.66 S 158.5 39.66, 160 39.66 S 163.5 39.66, 165 39.66 S 168.5 39.66, 170 39.66 S 173.5 39.76, 175 39.66 S 178.5 38.98, 180 38.98 S 183.5 39.56, 185 39.66 S 188.5 39.66, 190 39.66 S 193.5 39.66, 195 39.66"
          fill="none"/>
    <circle r="4" cx="5" cy="40" fill="#3023AE"/>
    <circle r="4" cx="195" cy="39.66" fill="#C86DD7"/>      
</svg>