<svg width="200" height="50" viewBox="0 0 210 50" xmlns="http://www.w3.org/2000/svg">
    <defs>
        <linearGradient x1="0%" y1="0%" x2="100%" y2="0%" id="a">
            <stop stop-color="#3023AE" offset="0%"/>
            <stop stop-color="#C86DD7" offset="100%"/>
        </linearGradient>
    </defs>
    <path stroke="url(#a)"
          stroke-width="3"
          stroke-linejoin="round"
          stroke-linecap="round"
          d="M5 40 C 5.29 38.53, 9.53 15.95, 10 14.53 S 14.39 8.63, 15 10 S 19.5 35.74, 20 37.15 S 23.51 38.19, 25 38.32 S 28.54 38.33, 30 37.99 S 33.51 36.15, 35 35.98 S 38.51 36.67, 40 36.82 S 43.53 36.68, 45 36.98 S 48.51 38.68, 50 38.83 S 54.47 39.39, 55 37.99 S 58.51 12.31, 60 12.18 S 64.45 35.75, 65 37.15 S 68.5 37.42, 70 37.49 S 73.5 37.63, 75 37.65 S 78.51 37.82, 80 37.65 S 83.5 36.4, 85 36.48 S 88.52 37.94, 90 38.16 S 93.5 37.92, 95 37.99 S 98.5 38.61, 100 38.66 S 103.5 38.42, 105 38.32 S 108.5 37.94, 110 37.99 S 113.5 38.56, 115 38.66 S 118.5 38.71, 120 38.66 S 123.5 38.25, 125 38.32 S 128.5 39.18, 130 39.16 S 133.59 38.66, 135 38.16 S 138.5 35.74, 140 35.64 S 143.56 37.06, 145 37.49 S 148.51 38.49, 150 38.66 S 153.5 38.63, 155 38.66 S 158.5 38.88, 160 38.83 S 163.5 38.37, 165 38.32 S 168.5 38.46, 170 38.49 S 173.5 38.54, 175 38.49 S 178.5 38.16, 180 38.16 S 183.5 38.57, 185 38.49 S 188.51 37.52, 190 37.65 S 193.51 39.15, 195 39.33 S 198.5 38.86, 200 38.83 S 203.5 39.06, 205 39.16"
          fill="none"/>
    <circle r="4" cx="5" cy="40" fill="#3023AE"/>
    <circle r="4" cx="205" cy="39.16" fill="#C86DD7"/>      
</svg>