<svg width="200" height="50" viewBox="0 0 210 50" xmlns="http://www.w3.org/2000/svg">
    <defs>
        <linearGradient x1="0%" y1="0%" x2="100%" y2="0%" id="a">
            <stop stop-color="#3023AE" offset="0%"/>
            <stop stop-color="#C86DD7" offset="100%"/>
        </linearGradient>
    </defs>
    <path stroke="url(#a)"
          stroke-width="3"
          stroke-linejoin="round"
          stroke-linecap="round"
          d="M5 40 C 5.41 38.56, 8.95 23.34, 10 22.27 S 14.22 28.49, 15 29.77 S 18.88 37.64, 20 38.64 S 23.5 38.54, 25 38.64 S 28.5 39.22, 30 39.32 S 33.5 39.32, 35 39.32 S 38.5 39.32, 40 39.32 S 43.5 39.32, 45 39.32 S 48.5 39.32, 50 39.32 S 53.5 39.32, 55 39.32 S 58.5 39.32, 60 39.32 S 63.92 40.36, 65 39.32 S 69.52 31.19, 70 29.77 S 73.8 9.1, 75 10 S 79.52 35.85, 80 37.27 S 83.53 39.02, 85 39.32 S 88.5 39.32, 90 39.32 S 93.5 39.32, 95 39.32 S 98.5 39.32, 100 39.32 S 103.5 39.32, 105 39.32 S 108.5 39.32, 110 39.32 S 113.5 39.32, 115 39.32 S 118.5 39.32, 120 39.32 S 123.5 39.32, 125 39.32 S 129.43 40.71, 130 39.32 S 133.5 14.87, 135 14.77 S 139.41 37.26, 140 38.64 S 143.58 38.43, 145 37.95 S 148.88 36.22, 150 35.23 S 153.58 29.57, 155 29.09 S 158.84 30.87, 160 31.82 S 163.53 36.97, 165 37.27 S 168.5 33.76, 170 33.86 S 173.76 38.79, 175 37.95 S 178.72 27.83, 180 27.05 S 183.84 30.87, 185 31.82 S 188.72 34.45, 190 35.23 S 193.53 37.65, 195 37.95 S 198.5 37.27, 200 37.27 S 203.51 37.75, 205 37.95"
          fill="none"/>
    <circle r="4" cx="5" cy="40" fill="#3023AE"/>
    <circle r="4" cx="205" cy="37.95" fill="#C86DD7"/>      
</svg>