<svg width="200" height="50" viewBox="0 0 210 50" xmlns="http://www.w3.org/2000/svg">
    <defs>
        <linearGradient x1="0%" y1="0%" x2="100%" y2="0%" id="a">
            <stop stop-color="#3023AE" offset="0%"/>
            <stop stop-color="#C86DD7" offset="100%"/>
        </linearGradient>
    </defs>
    <path stroke="url(#a)"
          stroke-width="3"
          stroke-linejoin="round"
          stroke-linecap="round"
          d="M5 40 C 6 38.88, 8.63 34.97, 10 34.37 S 13.51 35.43, 15 35.62 S 18.52 35.87, 20 35.62 S 23.5 34.02, 25 33.96 S 28.55 34.82, 30 35.21 S 33.51 36.55, 35 36.67 S 38.51 36.23, 40 36.04 S 43.79 36.3, 45 35.42 S 48.7 29.51, 50 28.75 S 53.51 29.46, 55 29.58 S 58.54 29.22, 60 29.58 S 63.53 31.77, 65 32.08 S 68.51 31.51, 70 31.67 S 73.5 33.09, 75 33.12 S 79.4 33.25, 80 31.87 S 83.93 11.05, 85 10 S 89.33 20.74, 90 22.08 S 93.92 29.17, 95 30.21 S 98.73 32.46, 100 31.67 S 103.55 24.35, 105 23.96 S 108.52 28.74, 110 28.96 S 113.5 25.48, 115 25.42 S 118.51 28.35, 120 28.54 S 123.5 26.76, 125 26.67 S 128.51 28.05, 130 27.92 S 133.5 25.86, 135 25.83 S 138.5 27.74, 140 27.71 S 143.57 26.07, 145 25.62 S 148.5 24.67, 150 24.58 S 153.5 24.91, 155 25 S 158.51 25.02, 160 25.21 S 163.67 25.56, 165 26.25 S 168.55 30.81, 170 30.42 S 173.79 24.42, 175 23.54 S 178.53 22.81, 180 23.12 S 183.5 25.65, 185 25.62 S 188.54 23.28, 190 22.92 S 193.5 23.09, 195 23.12 S 198.51 22.93, 200 23.12 S 203.54 24.01, 205 24.37"
          fill="none"/>
    <circle r="4" cx="5" cy="40" fill="#3023AE"/>
    <circle r="4" cx="205" cy="24.369999999999997" fill="#C86DD7"/>      
</svg>