<svg width="200" height="50" viewBox="0 0 210 50" xmlns="http://www.w3.org/2000/svg">
    <defs>
        <linearGradient x1="0%" y1="0%" x2="100%" y2="0%" id="a">
            <stop stop-color="#3023AE" offset="0%"/>
            <stop stop-color="#C86DD7" offset="100%"/>
        </linearGradient>
    </defs>
    <path stroke="url(#a)"
          stroke-width="3"
          stroke-linejoin="round"
          stroke-linecap="round"
          d="M5 40 C 6.33 39.31, 8.67 38.13, 10 37.43 S 13.5 34.77, 15 34.76 S 18.6 36.78, 20 37.33 S 23.5 38.75, 25 38.71 S 28.5 37.06, 30 37.03 S 33.51 38.38, 35 38.52 S 38.51 38.18, 40 37.97 S 43.5 37.06, 45 37.13 S 48.5 38.32, 50 38.42 S 53.51 37.91, 55 37.78 S 58.5 37.58, 60 37.53 S 63.61 37.99, 65 37.43 S 68.57 33.93, 70 33.48 S 73.5 34.22, 75 34.32 S 78.52 33.91, 80 34.17 S 83.57 35.6, 85 36.05 S 88.52 37.01, 90 37.28 S 93.5 37.89, 95 37.87 S 98.5 37.2, 100 37.13 S 103.5 37.53, 105 37.43 S 108.5 36.56, 110 36.44 S 113.5 36.63, 115 36.64 S 119.02 37.68, 120 36.54 S 124.47 26.42, 125 25.02 S 129 8.88, 130 10 S 134.47 34.74, 135 36.14 S 138.51 36.14, 140 36.29 S 143.53 37.44, 145 37.13 S 148.52 34.4, 150 34.17 S 153.53 35.91, 155 35.6 S 158.51 32.22, 160 32.04 S 163.53 34.06, 165 34.37 S 168.54 33.84, 170 34.17 S 173.51 36.46, 175 36.64 S 178.51 35.57, 180 35.4 S 183.54 35.83, 185 35.5 S 188.5 33.18, 190 33.13 S 193.6 34.61, 195 35.16 S 198.51 36.85, 200 37.03 S 203.51 36.58, 205 36.39"
          fill="none"/>
    <circle r="4" cx="5" cy="40" fill="#3023AE"/>
    <circle r="4" cx="205" cy="36.39" fill="#C86DD7"/>      
</svg>