<svg width="200" height="50" viewBox="0 0 210 50" xmlns="http://www.w3.org/2000/svg">
    <defs>
        <linearGradient x1="0%" y1="0%" x2="100%" y2="0%" id="a">
            <stop stop-color="#3023AE" offset="0%"/>
            <stop stop-color="#C86DD7" offset="100%"/>
        </linearGradient>
    </defs>
    <path stroke="url(#a)"
          stroke-width="3"
          stroke-linejoin="round"
          stroke-linecap="round"
          d="M5 40 C 5.25 38.52, 8.52 10.26, 10 10 S 14.5 36.83, 15 38.24 S 18.5 38.24, 20 38.24 S 23.5 38.24, 25 38.24 S 28.5 38.24, 30 38.24 S 33.5 38.24, 35 38.24 S 38.5 38.24, 40 38.24 S 43.5 38.24, 45 38.24 S 48.5 38.24, 50 38.24 S 53.5 38.24, 55 38.24 S 58.5 38.24, 60 38.24 S 63.5 38.24, 65 38.24 S 68.5 38.24, 70 38.24 S 73.5 38.24, 75 38.24 S 78.5 38.24, 80 38.24 S 83.5 38.24, 85 38.24 S 88.5 38.24, 90 38.24 S 93.5 38.24, 95 38.24 S 98.5 38.24, 100 38.24 S 103.5 38.24, 105 38.24 S 108.5 38.24, 110 38.24 S 113.5 38.24, 115 38.24 S 118.5 38.24, 120 38.24 S 123.5 38.24, 125 38.24 S 128.5 38.24, 130 38.24 S 133.5 38.24, 135 38.24 S 138.5 38.24, 140 38.24 S 143.5 38.24, 145 38.24 S 148.5 38.24, 150 38.24 S 153.5 38.24, 155 38.24 S 158.5 38.24, 160 38.24 S 163.5 38.24, 165 38.24 S 168.5 38.24, 170 38.24 S 173.5 38.24, 175 38.24"
          fill="none"/>
    <circle r="4" cx="5" cy="40" fill="#3023AE"/>
    <circle r="4" cx="175" cy="38.24" fill="#C86DD7"/>      
</svg>