<svg width="200" height="50" viewBox="0 0 210 50" xmlns="http://www.w3.org/2000/svg">
    <defs>
        <linearGradient x1="0%" y1="0%" x2="100%" y2="0%" id="a">
            <stop stop-color="#3023AE" offset="0%"/>
            <stop stop-color="#C86DD7" offset="100%"/>
        </linearGradient>
    </defs>
    <path stroke="url(#a)"
          stroke-width="3"
          stroke-linejoin="round"
          stroke-linecap="round"
          d="M5 40 C 5.32 38.53, 9.53 18.56, 10 17.14 S 13.86 9.02, 15 10 S 19.14 24.48, 20 25.71 S 23.5 24.29, 25 24.29 S 28.52 25.92, 30 25.71 S 34.01 21.73, 35 22.86 S 38.94 36.08, 40 37.14 S 43.52 32.65, 45 32.86 S 48.56 38.16, 50 38.57 S 53.7 36.45, 55 35.71 S 58.52 32.65, 60 32.86 S 63.62 36.55, 65 37.14 S 68.5 37.14, 70 37.14 S 73.52 37.35, 75 37.14 S 78.7 36.45, 80 35.71 S 83.56 31.02, 85 31.43 S 88.78 37.7, 90 38.57 S 93.5 38.57, 95 38.57 S 98.56 38.98, 100 38.57 S 103.5 35.71, 105 35.71 S 108.5 38.57, 110 38.57 S 113.5 35.71, 115 35.71 S 118.56 38.16, 120 38.57 S 123.5 38.57, 125 38.57 S 128.5 38.57, 130 38.57 S 133.5 38.57, 135 38.57 S 138.5 38.57, 140 38.57 S 143.5 38.57, 145 38.57 S 148.5 38.57, 150 38.57 S 153.5 38.57, 155 38.57 S 158.5 38.57, 160 38.57 S 163.5 38.57, 165 38.57 S 168.5 38.57, 170 38.57 S 173.5 38.57, 175 38.57 S 178.5 38.57, 180 38.57 S 183.5 38.57, 185 38.57 S 188.5 38.57, 190 38.57"
          fill="none"/>
    <circle r="4" cx="5" cy="40" fill="#3023AE"/>
    <circle r="4" cx="190" cy="38.57" fill="#C86DD7"/>      
</svg>