<svg width="200" height="50" viewBox="0 0 210 50" xmlns="http://www.w3.org/2000/svg">
    <defs>
        <linearGradient x1="0%" y1="0%" x2="100%" y2="0%" id="a">
            <stop stop-color="#3023AE" offset="0%"/>
            <stop stop-color="#C86DD7" offset="100%"/>
        </linearGradient>
    </defs>
    <path stroke="url(#a)"
          stroke-width="3"
          stroke-linejoin="round"
          stroke-linecap="round"
          d="M5 40 C 5.25 38.52, 8.54 10.34, 10 10 S 14.37 36.3, 15 37.66 S 18.68 32.49, 20 31.78 S 23.67 31.63, 25 32.31 S 28.75 36.08, 30 36.91 S 33.55 38.56, 35 38.94 S 38.5 39.48, 40 39.55 S 43.5 39.39, 45 39.4 S 48.5 39.54, 50 39.62 S 53.5 39.92, 55 39.92 S 58.54 39.98, 60 39.62 S 63.5 37.44, 65 37.44 S 68.53 39.31, 70 39.62 S 73.5 39.62, 75 39.55 S 78.5 39.16, 80 39.17 S 83.5 39.65, 85 39.62 S 88.51 39.11, 90 38.94 S 93.5 38.38, 95 38.49 S 98.51 39.5, 100 39.7 S 103.5 39.87, 105 39.85 S 108.51 39.7, 110 39.55 S 113.5 38.84, 115 38.87 S 118.51 39.64, 120 39.77 S 123.5 39.78, 125 39.77 S 128.5 39.79, 130 39.7 S 133.5 39.21, 135 39.17 S 138.5 39.32, 140 39.4 S 143.5 39.64, 145 39.7 S 148.5 39.79, 150 39.77 S 153.5 39.55, 155 39.55 S 158.5 39.73, 160 39.77 S 163.5 39.83, 165 39.85 S 168.5 39.95, 170 39.92 S 173.5 39.62, 175 39.62 S 178.5 40.02, 180 39.92 S 183.5 38.95, 185 38.94 S 188.51 39.7, 190 39.85 S 193.5 39.94, 195 39.92 S 198.5 39.73, 200 39.7 S 203.5 39.7, 205 39.7"
          fill="none"/>
    <circle r="4" cx="5" cy="40" fill="#3023AE"/>
    <circle r="4" cx="205" cy="39.7" fill="#C86DD7"/>      
</svg>