<svg width="200" height="50" viewBox="0 0 210 50" xmlns="http://www.w3.org/2000/svg">
    <defs>
        <linearGradient x1="0%" y1="0%" x2="100%" y2="0%" id="a">
            <stop stop-color="#3023AE" offset="0%"/>
            <stop stop-color="#C86DD7" offset="100%"/>
        </linearGradient>
    </defs>
    <path stroke="url(#a)"
          stroke-width="3"
          stroke-linejoin="round"
          stroke-linecap="round"
          d="M5 40 C 6.32 39.28, 8.5 37.32, 10 37.26 S 13.55 39.19, 15 39.57 S 18.5 39.87, 20 39.91 S 23.5 39.86, 25 39.86 S 29.52 41.33, 30 39.91 S 33.56 10.43, 35 10 S 39.51 35.46, 40 36.88 S 43.55 38.82, 45 39.2 S 48.5 39.42, 50 39.48 S 53.5 39.54, 55 39.57 S 58.5 39.7, 60 39.67 S 63.5 39.31, 65 39.34 S 68.5 39.95, 70 39.86 S 73.5 38.79, 75 38.72 S 78.51 39.22, 80 39.38 S 83.5 39.7, 85 39.76 S 88.5 39.8, 90 39.81 S 93.54 40.17, 95 39.81 S 98.5 37.4, 100 37.35 S 103.55 39.1, 105 39.48 S 108.5 40.06, 110 39.95 S 113.51 38.9, 115 38.72 S 118.5 38.61, 120 38.72 S 123.5 39.32, 125 39.43 S 128.5 39.43, 130 39.43 S 133.5 39.4, 135 39.43 S 138.5 39.61, 140 39.62 S 143.5 39.52, 145 39.53 S 148.5 39.68, 150 39.67 S 153.5 39.49, 155 39.43 S 158.5 39.32, 160 39.29 S 163.51 39.4, 165 39.24 S 168.5 38.3, 170 38.25 S 173.5 38.85, 175 38.91 S 178.5 38.67, 180 38.68 S 183.5 38.9, 185 38.96 S 188.5 39.01, 190 39.05 S 193.5 39.19, 195 39.2 S 198.51 39.31, 200 39.15 S 203.53 38.44, 205 38.15"
          fill="none"/>
    <circle r="4" cx="5" cy="40" fill="#3023AE"/>
    <circle r="4" cx="205" cy="38.15" fill="#C86DD7"/>      
</svg>