<svg width="200" height="50" viewBox="0 0 210 50" xmlns="http://www.w3.org/2000/svg">
    <defs>
        <linearGradient x1="0%" y1="0%" x2="100%" y2="0%" id="a">
            <stop stop-color="#3023AE" offset="0%"/>
            <stop stop-color="#C86DD7" offset="100%"/>
        </linearGradient>
    </defs>
    <path stroke="url(#a)"
          stroke-width="3"
          stroke-linejoin="round"
          stroke-linecap="round"
          d="M5 40 C 6.5 39.91, 8.5 39.75, 10 39.71 S 13.5 39.71, 15 39.71 S 18.5 39.71, 20 39.71 S 23.5 39.71, 25 39.71 S 28.5 39.71, 30 39.71 S 33.5 39.71, 35 39.71 S 38.5 39.71, 40 39.71 S 43.5 39.71, 45 39.71 S 48.5 39.71, 50 39.71 S 53.5 39.71, 55 39.71 S 58.5 39.71, 60 39.71 S 63.51 39.84, 65 39.71 S 68.57 39.29, 70 38.83 S 73.5 36.59, 75 36.5 S 78.55 37.87, 80 38.25 S 84.5 40.54, 85 39.13 S 88.99 11.11, 90 10 S 94.49 26.65, 95 28.06 S 98.99 36.85, 100 37.96 S 103.52 38.91, 105 39.13 S 108.5 39.33, 110 39.42 S 113.5 39.67, 115 39.71 S 118.5 39.71, 120 39.71 S 123.5 39.71, 125 39.71 S 128.5 39.71, 130 39.71 S 133.5 39.71, 135 39.71 S 138.5 39.71, 140 39.71 S 143.5 39.71, 145 39.71 S 148.5 39.71, 150 39.71 S 153.5 39.71, 155 39.71 S 158.5 39.71, 160 39.71 S 163.5 39.71, 165 39.71 S 168.5 39.71, 170 39.71 S 173.5 39.71, 175 39.71 S 178.63 40.31, 180 39.71 S 183.52 35.56, 185 35.34 S 188.51 38.08, 190 38.25 S 193.5 36.46, 195 36.5 S 198.56 38.12, 200 38.54 S 203.52 39.16, 205 39.42"
          fill="none"/>
    <circle r="4" cx="5" cy="40" fill="#3023AE"/>
    <circle r="4" cx="205" cy="39.42" fill="#C86DD7"/>      
</svg>