<svg width="200" height="50" viewBox="0 0 210 50" xmlns="http://www.w3.org/2000/svg">
    <defs>
        <linearGradient x1="0%" y1="0%" x2="100%" y2="0%" id="a">
            <stop stop-color="#3023AE" offset="0%"/>
            <stop stop-color="#C86DD7" offset="100%"/>
        </linearGradient>
    </defs>
    <path stroke="url(#a)"
          stroke-width="3"
          stroke-linejoin="round"
          stroke-linecap="round"
          d="M5 40 C 6.5 39.99, 8.5 39.98, 10 39.98 S 13.5 39.99, 15 39.99 S 19.53 41.39, 20 39.97 S 23.54 10.34, 25 10 S 29.45 36.25, 30 37.65 S 33.5 35.54, 35 35.49 S 38.54 36.98, 40 37.34 S 43.5 37.93, 45 37.97 S 48.56 38.01, 50 37.59 S 53.51 35.2, 55 35.02 S 58.51 36.18, 60 36.37 S 63.51 36.14, 65 36.31 S 68.51 37.36, 70 37.5 S 73.51 37.41, 75 37.22 S 78.51 36.37, 80 36.2 S 83.5 35.97, 85 36.05 S 88.51 36.85, 90 36.71 S 93.52 35.36, 95 35.12 S 98.65 35.75, 100 35.09 S 103.5 30.13, 105 30.23 S 108.67 35.08, 110 35.77 S 113.5 35.29, 115 35.39 S 118.5 36.41, 120 36.43 S 123.51 35.72, 125 35.54 S 128.5 35.27, 130 35.23 S 133.5 35.21, 135 35.28 S 138.5 35.66, 140 35.67 S 143.5 35.27, 145 35.32 S 148.5 35.99, 150 36.03 S 153.5 35.58, 155 35.56 S 158.5 35.97, 160 35.9 S 163.5 35.03, 165 35.1 S 168.5 36.28, 170 36.35 S 173.5 35.62, 175 35.59 S 178.51 36.04, 180 36.17 S 183.5 36.52, 185 36.49 S 188.5 36.03, 190 35.94 S 193.5 35.9, 195 35.9 S 198.5 35.91, 200 35.94 S 203.5 36.05, 205 36.1"
          fill="none"/>
    <circle r="4" cx="5" cy="40" fill="#3023AE"/>
    <circle r="4" cx="205" cy="36.1" fill="#C86DD7"/>      
</svg>