<svg width="200" height="50" viewBox="0 0 210 50" xmlns="http://www.w3.org/2000/svg">
    <defs>
        <linearGradient x1="0%" y1="0%" x2="100%" y2="0%" id="a">
            <stop stop-color="#3023AE" offset="0%"/>
            <stop stop-color="#C86DD7" offset="100%"/>
        </linearGradient>
    </defs>
    <path stroke="url(#a)"
          stroke-width="3"
          stroke-linejoin="round"
          stroke-linecap="round"
          d="M5 40 C 5.89 38.8, 8.53 33.55, 10 33.27 S 13.69 37.35, 15 38.09 S 18.51 38.77, 20 38.92 S 23.54 39.42, 25 39.09 S 28.51 36.85, 30 36.68 S 33.51 37.72, 35 37.92 S 38.5 37.92, 40 38.01 S 43.5 38.41, 45 38.5 S 48.52 38.84, 50 38.59 S 53.61 37.41, 55 36.84 S 58.51 34.66, 60 34.52 S 63.51 35.78, 65 35.93 S 68.5 35.55, 70 35.51 S 73.5 35.74, 75 35.68 S 78.51 35.29, 80 35.1 S 83.51 34.59, 85 34.43 S 88.52 34.27, 90 34.02 S 93.57 33.23, 95 32.77 S 98.52 31, 100 30.78 S 103.5 31.21, 105 31.27 S 108.52 31.42, 110 31.19 S 113.53 29.41, 115 29.7 S 118.51 33.38, 120 33.19 S 124.41 29.83, 125 28.45 S 128.51 10.14, 130 10 S 134.15 26.29, 135 27.53 S 138.52 24.29, 140 24.54 S 143.62 28.61, 145 29.2 S 148.57 29.32, 150 28.86 S 153.58 26.44, 155 25.96 S 158.5 25.46, 160 25.46 S 163.67 25.26, 165 25.96 S 168.52 30.43, 170 30.69 S 173.61 28.26, 175 27.7 S 178.5 26.75, 180 26.7 S 183.53 27.05, 185 27.37 S 188.74 28.05, 190 28.86 S 193.51 33.93, 195 33.77 S 198.72 28.57, 200 27.78 S 203.5 27.67, 205 27.62"
          fill="none"/>
    <circle r="4" cx="5" cy="40" fill="#3023AE"/>
    <circle r="4" cx="205" cy="27.619999999999997" fill="#C86DD7"/>      
</svg>