<svg width="200" height="50" viewBox="0 0 210 50" xmlns="http://www.w3.org/2000/svg">
    <defs>
        <linearGradient x1="0%" y1="0%" x2="100%" y2="0%" id="a">
            <stop stop-color="#3023AE" offset="0%"/>
            <stop stop-color="#C86DD7" offset="100%"/>
        </linearGradient>
    </defs>
    <path stroke="url(#a)"
          stroke-width="3"
          stroke-linejoin="round"
          stroke-linecap="round"
          d="M5 40 C 6.48 39.75, 8.5 39.18, 10 39.15 S 13.5 39.68, 15 39.77 S 18.5 39.76, 20 39.76 S 23.5 39.74, 25 39.74 S 28.5 39.8, 30 39.78 S 33.5 39.61, 35 39.59 S 38.5 39.67, 40 39.67 S 43.5 39.61, 45 39.58 S 48.5 39.53, 50 39.5 S 53.51 39.57, 55 39.39 S 58.5 38.34, 60 38.27 S 63.5 38.8, 65 38.89 S 68.5 38.85, 70 38.84 S 73.5 38.84, 75 38.81 S 78.5 38.61, 80 38.61 S 83.5 38.84, 85 38.81 S 88.5 38.46, 90 38.41 S 94.09 39.68, 95 38.49 S 99.03 26.45, 100 25.31 S 103.93 25.69, 105 26.74 S 108.89 34.17, 110 35.18 S 113.51 35.99, 115 35.86 S 119.36 35.65, 120 34.29 S 124.43 16.14, 125 14.75 S 128.9 8.98, 130 10 S 134.41 22.66, 135 24.04 S 138.52 33.28, 140 33.54 S 143.54 26.12, 145 25.78 S 148.82 30.3, 150 31.23 S 153.58 33.16, 155 33.65 S 158.51 34.55, 160 34.72 S 163.52 35.07, 165 34.8 S 168.96 34, 170 32.92 S 173.6 24.94, 175 24.4 S 178.61 28.53, 180 29.1 S 183.55 28.89, 185 28.49 S 188.5 26.26, 190 26.33 S 193.65 28.31, 195 28.97 S 198.53 30.91, 200 31.2 S 203.5 31.03, 205 30.96"
          fill="none"/>
    <circle r="4" cx="5" cy="40" fill="#3023AE"/>
    <circle r="4" cx="205" cy="30.96" fill="#C86DD7"/>      
</svg>