<svg width="200" height="50" viewBox="0 0 210 50" xmlns="http://www.w3.org/2000/svg">
    <defs>
        <linearGradient x1="0%" y1="0%" x2="100%" y2="0%" id="a">
            <stop stop-color="#3023AE" offset="0%"/>
            <stop stop-color="#C86DD7" offset="100%"/>
        </linearGradient>
    </defs>
    <path stroke="url(#a)"
          stroke-width="3"
          stroke-linejoin="round"
          stroke-linecap="round"
          d="M5 40 C 5.44 38.57, 8.52 24.02, 10 23.76 S 14.1 37.04, 15 38.24 S 18.55 37.57, 20 37.2 S 23.52 35.91, 25 35.68 S 28.56 36.12, 30 35.68 S 33.51 32.83, 35 32.64 S 38.51 34.24, 40 34.4 S 44.43 35.07, 45 33.68 S 48.53 10.31, 50 10 S 54.45 30.2, 55 31.6 S 58.52 35.34, 60 35.6 S 63.52 33.62, 65 33.36 S 68.52 34.11, 70 33.84 S 73.52 31.75, 75 31.52 S 78.51 32.16, 80 32.32 S 83.53 32.24, 85 32.56 S 88.5 34.37, 90 34.48 S 93.53 33.6, 95 33.28 S 98.72 33.1, 100 32.32 S 103.55 27.57, 105 27.2 S 108.53 29.44, 110 29.76 S 113.51 29.17, 115 29.36 S 118.53 30.76, 120 31.04 S 123.5 31.24, 125 31.28 S 128.52 31.53, 130 31.28 S 133.52 29.84, 135 29.6 S 138.5 29.63, 140 29.68 S 143.5 29.94, 145 29.92 S 148.5 29.6, 150 29.52 S 153.51 29.53, 155 29.36 S 158.5 28.32, 160 28.4 S 163.54 29.57, 165 29.92 S 168.5 30.9, 170 30.8 S 173.55 29.66, 175 29.28 S 178.53 28.44, 180 28.16 S 183.53 27.68, 185 27.36 S 188.52 25.79, 190 26 S 193.62 28.22, 195 28.8 S 198.52 30.39, 200 30.16 S 203.7 28.03, 205 27.28"
          fill="none"/>
    <circle r="4" cx="5" cy="40" fill="#3023AE"/>
    <circle r="4" cx="205" cy="27.28" fill="#C86DD7"/>      
</svg>