<svg width="200" height="50" viewBox="0 0 210 50" xmlns="http://www.w3.org/2000/svg">
    <defs>
        <linearGradient x1="0%" y1="0%" x2="100%" y2="0%" id="a">
            <stop stop-color="#3023AE" offset="0%"/>
            <stop stop-color="#C86DD7" offset="100%"/>
        </linearGradient>
    </defs>
    <path stroke="url(#a)"
          stroke-width="3"
          stroke-linejoin="round"
          stroke-linecap="round"
          d="M5 40 C 6.48 39.76, 9.13 40.42, 10 39.2 S 13.54 26.19, 15 25.86 S 19.01 35.81, 20 36.94 S 23.52 37.08, 25 37.3 S 28.53 38.11, 30 38.39 S 33.52 38.97, 35 39.19 S 38.5 39.89, 40 39.88 S 43.5 39.16, 45 39.15 S 48.51 39.94, 50 39.79 S 53.79 39.03, 55 38.14 S 58.58 32.96, 60 32.48 S 63.5 34.74, 65 34.73 S 68.53 32.72, 70 32.42 S 73.5 32.61, 75 32.67 S 78.59 33.33, 80 32.81 S 83.67 29.7, 85 29 S 88.54 27.23, 90 27.57 S 93.54 30.98, 95 31.31 S 98.58 30.32, 100 29.84 S 103.54 28.26, 105 27.9 S 108.56 27.78, 110 27.36 S 113.55 25.37, 115 24.97 S 118.5 24.6, 120 24.6 S 123.5 24.97, 125 24.97 S 128.57 25.07, 130 24.62 S 133.56 22.27, 135 21.85 S 138.52 21.94, 140 21.71 S 143.51 20.41, 145 20.28 S 148.51 20.64, 150 20.84 S 153.5 21.7, 155 21.64 S 158.5 20.56, 160 20.45 S 163.5 20.93, 165 20.9 S 168.99 21.37, 170 20.26 S 173.71 10.77, 175 10 S 178.8 13.37, 180 14.27 S 183.59 17.05, 185 17.56 S 188.69 18.59, 190 17.85 S 193.62 12.49, 195 11.9 S 198.66 12.88, 200 13.55 S 203.75 16.02, 205 16.85"
          fill="none"/>
    <circle r="4" cx="5" cy="40" fill="#3023AE"/>
    <circle r="4" cx="205" cy="16.85" fill="#C86DD7"/>      
</svg>