<svg width="200" height="50" viewBox="0 0 210 50" xmlns="http://www.w3.org/2000/svg">
    <defs>
        <linearGradient x1="0%" y1="0%" x2="100%" y2="0%" id="a">
            <stop stop-color="#3023AE" offset="0%"/>
            <stop stop-color="#C86DD7" offset="100%"/>
        </linearGradient>
    </defs>
    <path stroke="url(#a)"
          stroke-width="3"
          stroke-linejoin="round"
          stroke-linecap="round"
          d="M5 40 C 6.48 39.76, 9.14 40.43, 10 39.2 S 13.54 26.16, 15 25.83 S 19.01 35.8, 20 36.93 S 23.52 37.08, 25 37.3 S 28.53 38.11, 30 38.39 S 33.52 38.96, 35 39.18 S 38.5 39.89, 40 39.88 S 43.5 39.15, 45 39.14 S 48.51 39.94, 50 39.79 S 53.79 39.01, 55 38.13 S 58.58 33.02, 60 32.53 S 63.5 34.7, 65 34.69 S 68.53 32.75, 70 32.44 S 73.5 32.49, 75 32.55 S 78.58 33.3, 80 32.81 S 83.68 29.8, 85 29.09 S 88.54 27.12, 90 27.44 S 93.55 30.92, 95 31.29 S 98.59 30.49, 100 29.99 S 103.55 28.13, 105 27.75 S 108.56 27.77, 110 27.36 S 113.56 25.29, 115 24.89 S 118.5 24.55, 120 24.56 S 123.5 25, 125 24.99 S 128.57 24.97, 130 24.52 S 133.56 22.25, 135 21.84 S 138.52 21.92, 140 21.7 S 143.51 20.53, 145 20.38 S 148.51 20.5, 150 20.69 S 153.5 21.7, 155 21.63 S 158.5 20.34, 160 20.23 S 163.5 20.87, 165 20.87 S 168.98 21.35, 170 20.25 S 173.72 10.78, 175 10 S 178.81 13.29, 180 14.2 S 183.58 17.12, 185 17.62 S 188.7 18.44, 190 17.7 S 193.63 12.52, 195 11.92 S 198.66 12.67, 200 13.34 S 203.78 16.05, 205 16.92"
          fill="none"/>
    <circle r="4" cx="5" cy="40" fill="#3023AE"/>
    <circle r="4" cx="205" cy="16.92" fill="#C86DD7"/>      
</svg>