<svg width="200" height="50" viewBox="0 0 210 50" xmlns="http://www.w3.org/2000/svg">
    <defs>
        <linearGradient x1="0%" y1="0%" x2="100%" y2="0%" id="a">
            <stop stop-color="#3023AE" offset="0%"/>
            <stop stop-color="#C86DD7" offset="100%"/>
        </linearGradient>
    </defs>
    <path stroke="url(#a)"
          stroke-width="3"
          stroke-linejoin="round"
          stroke-linecap="round"
          d="M5 40 C 6.5 39.98, 8.5 39.94, 10 39.93 S 14.17 41.18, 15 39.93 S 18.52 25.21, 20 24.97 S 24.12 37.13, 25 38.34 S 28.5 38.7, 30 38.74 S 33.5 38.55, 35 38.6 S 38.51 38.93, 40 39.07 S 43.54 39.86, 45 39.53 S 48.5 36.83, 50 36.81 S 53.54 39.04, 55 39.4 S 58.5 39.26, 60 39.27 S 63.5 39.48, 65 39.47 S 68.5 39.2, 70 39.2 S 74.08 40.65, 75 39.47 S 78.52 26.65, 80 26.43 S 84.08 36.82, 85 38 S 88.51 39.07, 90 39.27 S 93.5 39.39, 95 39.33 S 98.5 38.89, 100 38.87 S 103.5 39.22, 105 39.2 S 108.5 38.81, 110 38.74 S 113.5 38.71, 115 38.74 S 118.5 38.86, 120 38.94 S 123.5 39.25, 125 39.27 S 128.5 39.17, 130 39.07 S 134.51 40.02, 135 38.6 S 138.5 10.02, 140 10 S 144.5 37.06, 145 38.47 S 148.5 38.29, 150 38.4 S 153.5 39.12, 155 39.2 S 158.5 39.02, 160 38.94 S 163.5 38.63, 165 38.67 S 168.5 39.29, 170 39.2 S 173.51 38.22, 175 38.07 S 178.5 38.31, 180 38.2 S 183.5 37.3, 185 37.34 S 188.51 38.32, 190 38.47 S 193.5 38.34, 195 38.34 S 198.5 38.44, 200 38.47 S 203.5 38.52, 205 38.54"
          fill="none"/>
    <circle r="4" cx="5" cy="40" fill="#3023AE"/>
    <circle r="4" cx="205" cy="38.54" fill="#C86DD7"/>      
</svg>